<?xml version="1.0" encoding="utf-8" standalone="no"?>
<!DOCTYPE svg PUBLIC "-//W3C//DTD SVG 1.1//EN"
  "http://www.w3.org/Graphics/SVG/1.1/DTD/svg11.dtd">
<svg height="1090.099063pt" version="1.1" viewBox="0 0 973.17908 1090.099063" width="973.17908pt" xmlns="http://www.w3.org/2000/svg" xmlns:xlink="http://www.w3.org/1999/xlink">
 <metadata>
  <rdf:RDF xmlns:cc="http://creativecommons.org/ns#" xmlns:dc="http://purl.org/dc/elements/1.1/" xmlns:rdf="http://www.w3.org/1999/02/22-rdf-syntax-ns#">
   <cc:Work>
    <dc:type rdf:resource="http://purl.org/dc/dcmitype/StillImage"/>
    <dc:date>2021-06-14T18:07:39.903252</dc:date>
    <dc:format>image/svg+xml</dc:format>
    <dc:creator>
     <cc:Agent>
      <dc:title>Matplotlib v3.4.2, https://matplotlib.org/</dc:title>
     </cc:Agent>
    </dc:creator>
   </cc:Work>
  </rdf:RDF>
 </metadata>
 <defs>
  <style type="text/css">*{stroke-linecap:butt;stroke-linejoin:round;}</style>
 </defs>
 <g id="figure_1">
  <g id="patch_1">
   <path d="M 0 1090.099063 
L 973.17908 1090.099063 
L 973.17908 0 
L 0 0 
z
" style="fill:#ffffff;"/>
  </g>
  <g id="axes_1">
   <g id="patch_2">
    <path d="M 52.375 1005.12 
L 945.175 1005.12 
L 945.175 7.2 
L 52.375 7.2 
z
" style="fill:#ffffff;"/>
   </g>
   <g id="PolyCollection_1">
    <defs>
     <path d="M 92.956818 -218.572626 
L 92.956818 -218.572626 
L 120.944279 -460.749172 
L 148.93174 -505.694384 
L 176.919201 -530.894702 
L 204.906661 -550.173843 
L 232.894122 -563.978471 
L 260.881583 -574.908408 
L 288.869044 -583.891342 
L 316.856505 -591.797698 
L 344.843966 -598.1999 
L 372.831426 -604.24706 
L 400.818887 -609.313084 
L 428.806348 -614.123325 
L 456.793809 -617.085822 
L 484.78127 -622.934465 
L 512.76873 -626.072574 
L 540.756191 -628.057753 
L 568.743652 -631.241675 
L 596.731113 -634.01329 
L 624.718574 -636.051916 
L 652.706034 -638.075271 
L 680.693495 -641.484434 
L 708.680956 -642.362494 
L 736.668417 -644.61109 
L 764.655878 -646.93604 
L 792.643339 -647.997347 
L 820.630799 -649.096831 
L 848.61826 -650.677339 
L 876.605721 -652.135682 
L 904.593182 -653.166448 
L 904.593182 -655.407409 
L 904.593182 -655.407409 
L 876.605721 -654.212484 
L 848.61826 -653.258071 
L 820.630799 -651.27671 
L 792.643339 -649.734379 
L 764.655878 -648.93649 
L 736.668417 -646.619175 
L 708.680956 -645.092114 
L 680.693495 -644.523284 
L 652.706034 -640.885062 
L 624.718574 -638.098177 
L 596.731113 -636.781087 
L 568.743652 -633.818589 
L 540.756191 -630.619397 
L 512.76873 -628.790742 
L 484.78127 -625.099073 
L 456.793809 -621.025639 
L 428.806348 -616.971293 
L 400.818887 -611.405157 
L 372.831426 -606.075715 
L 344.843966 -601.257839 
L 316.856505 -593.6149 
L 288.869044 -585.941421 
L 260.881583 -577.107375 
L 232.894122 -565.906385 
L 204.906661 -552.701128 
L 176.919201 -534.0519 
L 148.93174 -508.653064 
L 120.944279 -462.379309 
L 92.956818 -218.572626 
z
" id="m23c514df63" style="stroke:#fe0002;stroke-opacity:0.3;"/>
    </defs>
    <g clip-path="url(#pddb7ab4863)">
     <use style="fill:#fe0002;fill-opacity:0.3;stroke:#fe0002;stroke-opacity:0.3;" x="0" xlink:href="#m23c514df63" y="1090.099063"/>
    </g>
   </g>
   <g id="PolyCollection_2">
    <g clip-path="url(#pddb7ab4863)">
     <use style="fill:#fe0002;fill-opacity:0.3;stroke:#fe0002;stroke-opacity:0.3;" x="0" xlink:href="#m23c514df63" y="1090.099063"/>
    </g>
   </g>
   <g id="PolyCollection_3">
    <defs>
     <path d="M 92.956818 -130.339063 
L 92.956818 -130.339063 
L 120.944279 -473.118363 
L 148.93174 -535.410984 
L 176.919201 -571.163291 
L 204.906661 -596.49341 
L 232.894122 -615.932892 
L 260.881583 -631.234039 
L 288.869044 -644.691261 
L 316.856505 -653.613113 
L 344.843966 -664.245272 
L 372.831426 -672.701371 
L 400.818887 -679.764026 
L 428.806348 -686.318934 
L 456.793809 -691.499487 
L 484.78127 -697.947501 
L 512.76873 -702.727201 
L 540.756191 -707.025876 
L 568.743652 -711.881929 
L 596.731113 -714.687903 
L 624.718574 -716.581458 
L 652.706034 -720.135692 
L 680.693495 -724.442003 
L 708.680956 -726.26684 
L 736.668417 -728.862843 
L 764.655878 -732.409442 
L 792.643339 -734.299179 
L 820.630799 -736.284358 
L 848.61826 -737.937401 
L 876.605721 -739.36902 
L 904.593182 -742.106277 
L 904.593182 -745.01151 
L 904.593182 -745.01151 
L 876.605721 -744.721368 
L 848.61826 -740.128733 
L 820.630799 -739.842409 
L 792.643339 -737.967942 
L 764.655878 -735.692622 
L 736.668417 -732.901919 
L 708.680956 -730.160845 
L 680.693495 -727.927519 
L 652.706034 -725.052827 
L 624.718574 -721.273352 
L 596.731113 -718.566637 
L 568.743652 -714.455026 
L 540.756191 -711.355093 
L 512.76873 -706.762458 
L 484.78127 -702.38743 
L 456.793809 -696.741123 
L 428.806348 -690.117497 
L 400.818887 -683.371707 
L 372.831426 -675.446262 
L 344.843966 -668.872266 
L 316.856505 -658.870019 
L 288.869044 -648.153871 
L 260.881583 -634.612661 
L 232.894122 -618.578524 
L 204.906661 -600.975333 
L 176.919201 -574.244136 
L 148.93174 -539.198095 
L 120.944279 -476.008326 
L 92.956818 -130.339063 
z
" id="m0cbf4e301d" style="stroke:#53fca1;stroke-opacity:0.3;"/>
    </defs>
    <g clip-path="url(#pddb7ab4863)">
     <use style="fill:#53fca1;fill-opacity:0.3;stroke:#53fca1;stroke-opacity:0.3;" x="0" xlink:href="#m0cbf4e301d" y="1090.099063"/>
    </g>
   </g>
   <g id="PolyCollection_4">
    <defs>
     <path d="M 92.956818 -130.339063 
L 92.956818 -130.339063 
L 120.944279 -332.487532 
L 148.93174 -365.277341 
L 176.919201 -383.380645 
L 204.906661 -396.238496 
L 232.894122 -406.53852 
L 260.881583 -414.391429 
L 288.869044 -420.923431 
L 316.856505 -426.039084 
L 344.843966 -431.253996 
L 372.831426 -435.602301 
L 400.818887 -438.977105 
L 428.806348 -442.260286 
L 456.793809 -444.989906 
L 484.78127 -448.288357 
L 512.76873 -450.75456 
L 540.756191 -452.987887 
L 568.743652 -455.114318 
L 596.731113 -456.67192 
L 624.718574 -457.893569 
L 652.706034 -459.787124 
L 680.693495 -461.737944 
L 708.680956 -462.70381 
L 736.668417 -464.074347 
L 764.655878 -465.357078 
L 792.643339 -466.647444 
L 820.630799 -467.41861 
L 848.61826 -468.434105 
L 876.605721 -469.19 
L 904.593182 -470.491819 
L 904.593182 -471.931074 
L 904.593182 -471.931074 
L 876.605721 -472.316657 
L 848.61826 -469.949713 
L 820.630799 -469.262535 
L 792.643339 -468.510458 
L 764.655878 -467.258268 
L 736.668417 -465.872461 
L 708.680956 -464.71953 
L 680.693495 -463.478793 
L 652.706034 -462.123527 
L 624.718574 -459.997095 
L 596.731113 -458.916699 
L 568.743652 -456.973515 
L 540.756191 -455.125771 
L 512.76873 -452.552674 
L 484.78127 -450.254448 
L 456.793809 -447.143062 
L 428.806348 -443.802617 
L 400.818887 -440.72559 
L 372.831426 -436.690332 
L 344.843966 -433.464416 
L 316.856505 -428.249504 
L 288.869044 -423.107128 
L 260.881583 -416.468231 
L 232.894122 -407.909057 
L 204.906661 -398.86504 
L 176.919201 -385.068047 
L 148.93174 -367.251067 
L 120.944279 -334.064222 
L 92.956818 -130.339063 
z
" id="ma7f40b31f6" style="stroke:#53fca1;stroke-opacity:0.3;"/>
    </defs>
    <g clip-path="url(#pddb7ab4863)">
     <use style="fill:#53fca1;fill-opacity:0.3;stroke:#53fca1;stroke-opacity:0.3;" x="0" xlink:href="#ma7f40b31f6" y="1090.099063"/>
    </g>
   </g>
   <g id="PolyCollection_5">
    <defs>
     <path d="M 92.956818 -130.339063 
L 92.956818 -130.339063 
L 120.944279 -499.414347 
L 148.93174 -577.9778 
L 176.919201 -623.25133 
L 204.906661 -655.674645 
L 232.894122 -678.206424 
L 260.881583 -699.596726 
L 288.869044 -714.955139 
L 316.856505 -729.84398 
L 344.843966 -739.010161 
L 372.831426 -751.25337 
L 400.818887 -758.396196 
L 428.806348 -769.299409 
L 456.793809 -777.201948 
L 484.78127 -783.409449 
L 512.76873 -790.880593 
L 540.756191 -794.503545 
L 568.743652 -801.066088 
L 596.731113 -806.235188 
L 624.718574 -807.464472 
L 652.706034 -813.458185 
L 680.693495 -817.104042 
L 708.680956 -820.704088 
L 736.668417 -824.445386 
L 764.655878 -827.060477 
L 792.643339 -829.896993 
L 820.630799 -832.034877 
L 848.61826 -836.203753 
L 876.605721 -837.478849 
L 904.593182 -836.936742 
L 904.593182 -842.968632 
L 904.593182 -842.968632 
L 876.605721 -843.010626 
L 848.61826 -839.548016 
L 820.630799 -839.731263 
L 792.643339 -837.448307 
L 764.655878 -831.439324 
L 736.668417 -828.679162 
L 708.680956 -825.449428 
L 680.693495 -821.150753 
L 652.706034 -818.967056 
L 624.718574 -813.935391 
L 596.731113 -810.808735 
L 568.743652 -806.754389 
L 540.756191 -800.634693 
L 512.76873 -795.049469 
L 484.78127 -791.583041 
L 456.793809 -782.119083 
L 428.806348 -773.433926 
L 400.818887 -766.401811 
L 372.831426 -757.342524 
L 344.843966 -748.203066 
L 316.856505 -736.353076 
L 288.869044 -720.559451 
L 260.881583 -703.08606 
L 232.894122 -686.578534 
L 204.906661 -660.114573 
L 176.919201 -627.042258 
L 148.93174 -582.906388 
L 120.944279 -504.652165 
L 92.956818 -130.339063 
z
" id="m5952fca141" style="stroke:#0652ff;stroke-opacity:0.3;"/>
    </defs>
    <g clip-path="url(#pddb7ab4863)">
     <use style="fill:#0652ff;fill-opacity:0.3;stroke:#0652ff;stroke-opacity:0.3;" x="0" xlink:href="#m5952fca141" y="1090.099063"/>
    </g>
   </g>
   <g id="PolyCollection_6">
    <defs>
     <path d="M 92.956818 -130.339063 
L 92.956818 -130.339063 
L 120.944279 -365.422412 
L 148.93174 -413.387387 
L 176.919201 -440.866843 
L 204.906661 -459.962736 
L 232.894122 -473.67574 
L 260.881583 -485.708978 
L 288.869044 -495.676867 
L 316.856505 -504.209318 
L 344.843966 -510.229754 
L 372.831426 -516.708309 
L 400.818887 -521.251315 
L 428.806348 -527.462634 
L 456.793809 -532.333957 
L 484.78127 -536.185968 
L 512.76873 -540.305214 
L 540.756191 -542.546175 
L 568.743652 -546.146221 
L 596.731113 -549.104901 
L 624.718574 -550.574696 
L 652.706034 -553.708988 
L 680.693495 -555.827785 
L 708.680956 -558.007664 
L 736.668417 -560.053925 
L 764.655878 -561.825316 
L 792.643339 -563.631065 
L 820.630799 -564.406048 
L 848.61826 -566.715727 
L 876.605721 -567.883929 
L 904.593182 -567.547975 
L 904.593182 -571.025856 
L 904.593182 -571.025856 
L 876.605721 -571.567963 
L 848.61826 -569.334636 
L 820.630799 -569.178113 
L 792.643339 -567.723587 
L 764.655878 -564.371689 
L 736.668417 -563.046964 
L 708.680956 -560.878538 
L 680.693495 -558.164188 
L 652.706034 -557.118151 
L 624.718574 -554.052577 
L 596.731113 -551.784892 
L 568.743652 -550.059313 
L 540.756191 -546.157674 
L 512.76873 -542.527087 
L 484.78127 -540.992391 
L 456.793809 -535.143749 
L 428.806348 -530.039549 
L 400.818887 -525.912667 
L 372.831426 -521.083338 
L 344.843966 -514.467348 
L 316.856505 -507.885716 
L 288.869044 -498.513382 
L 260.881583 -488.190452 
L 232.894122 -478.127122 
L 204.906661 -462.176974 
L 176.919201 -442.527521 
L 148.93174 -416.254443 
L 120.944279 -369.072087 
L 92.956818 -130.339063 
z
" id="md74a948217" style="stroke:#0652ff;stroke-opacity:0.3;"/>
    </defs>
    <g clip-path="url(#pddb7ab4863)">
     <use style="fill:#0652ff;fill-opacity:0.3;stroke:#0652ff;stroke-opacity:0.3;" x="0" xlink:href="#md74a948217" y="1090.099063"/>
    </g>
   </g>
   <g id="PolyCollection_7">
    <defs>
     <path d="M 92.956818 -259.257339 
L 92.956818 -259.257339 
L 120.944279 -597.153863 
L 148.93174 -687.700924 
L 176.919201 -741.724511 
L 204.906661 -781.710594 
L 232.894122 -813.587985 
L 260.881583 -840.105393 
L 288.869044 -859.743393 
L 316.856505 -880.091476 
L 344.843966 -895.010858 
L 372.831426 -911.155707 
L 400.818887 -921.566443 
L 428.806348 -935.142012 
L 456.793809 -942.910933 
L 484.78127 -954.925082 
L 512.76873 -963.343004 
L 540.756191 -969.729935 
L 568.743652 -979.266429 
L 596.731113 -987.504921 
L 624.718574 -989.322123 
L 652.706034 -996.86962 
L 680.693495 -1000.156618 
L 708.680956 -1006.890956 
L 736.668417 -1009.918353 
L 764.655878 -1014.728594 
L 792.643339 -1017.805621 
L 820.630799 -1023.528281 
L 848.61826 -1024.00167 
L 876.605721 -1029.201311 
L 904.593182 -1030.827631 
L 904.593182 -1037.539063 
L 904.593182 -1037.539063 
L 876.605721 -1032.50358 
L 848.61826 -1031.190308 
L 820.630799 -1027.815504 
L 792.643339 -1023.196145 
L 764.655878 -1020.435983 
L 736.668417 -1015.175259 
L 708.680956 -1013.903982 
L 680.693495 -1007.055115 
L 652.706034 -1000.129895 
L 624.718574 -997.720956 
L 596.731113 -989.99403 
L 568.743652 -983.442939 
L 540.756191 -977.292703 
L 512.76873 -968.851875 
L 484.78127 -962.262608 
L 456.793809 -950.023217 
L 428.806348 -938.50918 
L 400.818887 -929.365905 
L 372.831426 -916.744749 
L 344.843966 -903.745645 
L 316.856505 -888.406321 
L 288.869044 -866.46246 
L 260.881583 -843.693985 
L 232.894122 -819.726769 
L 204.906661 -790.937858 
L 176.919201 -747.046318 
L 148.93174 -692.5837 
L 120.944279 -600.578297 
L 92.956818 -259.257339 
z
" id="me5a037c5cf" style="stroke:#ae7181;stroke-opacity:0.3;"/>
    </defs>
    <g clip-path="url(#pddb7ab4863)">
     <use style="fill:#ae7181;fill-opacity:0.3;stroke:#ae7181;stroke-opacity:0.3;" x="0" xlink:href="#me5a037c5cf" y="1090.099063"/>
    </g>
   </g>
   <g id="PolyCollection_8">
    <defs>
     <path d="M 92.956818 -175.71376 
L 92.956818 -175.71376 
L 120.944279 -344.662023 
L 148.93174 -389.935553 
L 176.919201 -416.947347 
L 204.906661 -436.940388 
L 232.894122 -452.879083 
L 260.881583 -466.137787 
L 288.869044 -475.956787 
L 316.856505 -486.130829 
L 344.843966 -493.59052 
L 372.831426 -501.662944 
L 400.818887 -506.868312 
L 428.806348 -513.656097 
L 456.793809 -517.540557 
L 484.78127 -523.547632 
L 512.76873 -527.756593 
L 540.756191 -530.950058 
L 568.743652 -535.718305 
L 596.731113 -539.837551 
L 624.718574 -540.746152 
L 652.706034 -544.519901 
L 680.693495 -546.1634 
L 708.680956 -549.530569 
L 736.668417 -551.044268 
L 764.655878 -553.449388 
L 792.643339 -554.987902 
L 820.630799 -557.849232 
L 848.61826 -558.085926 
L 876.605721 -560.685747 
L 904.593182 -561.498906 
L 904.593182 -564.854622 
L 904.593182 -564.854622 
L 876.605721 -562.336881 
L 848.61826 -561.680245 
L 820.630799 -559.992843 
L 792.643339 -557.683164 
L 764.655878 -556.303083 
L 736.668417 -553.672721 
L 708.680956 -553.037082 
L 680.693495 -549.612648 
L 652.706034 -546.150038 
L 624.718574 -544.945569 
L 596.731113 -541.082106 
L 568.743652 -537.806561 
L 540.756191 -534.731442 
L 512.76873 -530.511029 
L 484.78127 -527.216395 
L 456.793809 -521.0967 
L 428.806348 -515.339681 
L 400.818887 -510.768043 
L 372.831426 -504.457465 
L 344.843966 -497.957913 
L 316.856505 -490.288251 
L 288.869044 -479.316321 
L 260.881583 -467.932084 
L 232.894122 -455.948475 
L 204.906661 -441.55402 
L 176.919201 -419.60825 
L 148.93174 -392.376941 
L 120.944279 -346.374239 
L 92.956818 -175.71376 
z
" id="m7988784950" style="stroke:#ae7181;stroke-opacity:0.3;"/>
    </defs>
    <g clip-path="url(#pddb7ab4863)">
     <use style="fill:#ae7181;fill-opacity:0.3;stroke:#ae7181;stroke-opacity:0.3;" x="0" xlink:href="#m7988784950" y="1090.099063"/>
    </g>
   </g>
   <g id="matplotlib.axis_1">
    <g id="xtick_1">
     <g id="line2d_1">
      <path clip-path="url(#pddb7ab4863)" d="M 92.956818 1005.12 
L 92.956818 7.2 
" style="fill:none;stroke:#b0b0b0;stroke-linecap:square;stroke-width:0.8;"/>
     </g>
     <g id="line2d_2">
      <defs>
       <path d="M 0 0 
L 0 3.5 
" id="m2d2b3b5a59" style="stroke:#000000;stroke-width:0.8;"/>
      </defs>
      <g>
       <use style="stroke:#000000;stroke-width:0.8;" x="92.956818" xlink:href="#m2d2b3b5a59" y="1005.12"/>
      </g>
     </g>
     <g id="text_1">
      <!-- 0.00 -->
      <g transform="translate(59.558381 1034.915313)scale(0.3 -0.3)">
       <defs>
        <path d="M 2034 4250 
Q 1547 4250 1301 3770 
Q 1056 3291 1056 2328 
Q 1056 1369 1301 889 
Q 1547 409 2034 409 
Q 2525 409 2770 889 
Q 3016 1369 3016 2328 
Q 3016 3291 2770 3770 
Q 2525 4250 2034 4250 
z
M 2034 4750 
Q 2819 4750 3233 4129 
Q 3647 3509 3647 2328 
Q 3647 1150 3233 529 
Q 2819 -91 2034 -91 
Q 1250 -91 836 529 
Q 422 1150 422 2328 
Q 422 3509 836 4129 
Q 1250 4750 2034 4750 
z
" id="DejaVuSans-30" transform="scale(0.015625)"/>
        <path d="M 684 794 
L 1344 794 
L 1344 0 
L 684 0 
L 684 794 
z
" id="DejaVuSans-2e" transform="scale(0.015625)"/>
       </defs>
       <use xlink:href="#DejaVuSans-30"/>
       <use x="63.623047" xlink:href="#DejaVuSans-2e"/>
       <use x="95.410156" xlink:href="#DejaVuSans-30"/>
       <use x="159.033203" xlink:href="#DejaVuSans-30"/>
      </g>
     </g>
    </g>
    <g id="xtick_2">
     <g id="line2d_3">
      <path clip-path="url(#pddb7ab4863)" d="M 232.894122 1005.12 
L 232.894122 7.2 
" style="fill:none;stroke:#b0b0b0;stroke-linecap:square;stroke-width:0.8;"/>
     </g>
     <g id="line2d_4">
      <g>
       <use style="stroke:#000000;stroke-width:0.8;" x="232.894122" xlink:href="#m2d2b3b5a59" y="1005.12"/>
      </g>
     </g>
     <g id="text_2">
      <!-- 0.05 -->
      <g transform="translate(199.495685 1034.915313)scale(0.3 -0.3)">
       <defs>
        <path d="M 691 4666 
L 3169 4666 
L 3169 4134 
L 1269 4134 
L 1269 2991 
Q 1406 3038 1543 3061 
Q 1681 3084 1819 3084 
Q 2600 3084 3056 2656 
Q 3513 2228 3513 1497 
Q 3513 744 3044 326 
Q 2575 -91 1722 -91 
Q 1428 -91 1123 -41 
Q 819 9 494 109 
L 494 744 
Q 775 591 1075 516 
Q 1375 441 1709 441 
Q 2250 441 2565 725 
Q 2881 1009 2881 1497 
Q 2881 1984 2565 2268 
Q 2250 2553 1709 2553 
Q 1456 2553 1204 2497 
Q 953 2441 691 2322 
L 691 4666 
z
" id="DejaVuSans-35" transform="scale(0.015625)"/>
       </defs>
       <use xlink:href="#DejaVuSans-30"/>
       <use x="63.623047" xlink:href="#DejaVuSans-2e"/>
       <use x="95.410156" xlink:href="#DejaVuSans-30"/>
       <use x="159.033203" xlink:href="#DejaVuSans-35"/>
      </g>
     </g>
    </g>
    <g id="xtick_3">
     <g id="line2d_5">
      <path clip-path="url(#pddb7ab4863)" d="M 372.831426 1005.12 
L 372.831426 7.2 
" style="fill:none;stroke:#b0b0b0;stroke-linecap:square;stroke-width:0.8;"/>
     </g>
     <g id="line2d_6">
      <g>
       <use style="stroke:#000000;stroke-width:0.8;" x="372.831426" xlink:href="#m2d2b3b5a59" y="1005.12"/>
      </g>
     </g>
     <g id="text_3">
      <!-- 0.10 -->
      <g transform="translate(339.432989 1034.915313)scale(0.3 -0.3)">
       <defs>
        <path d="M 794 531 
L 1825 531 
L 1825 4091 
L 703 3866 
L 703 4441 
L 1819 4666 
L 2450 4666 
L 2450 531 
L 3481 531 
L 3481 0 
L 794 0 
L 794 531 
z
" id="DejaVuSans-31" transform="scale(0.015625)"/>
       </defs>
       <use xlink:href="#DejaVuSans-30"/>
       <use x="63.623047" xlink:href="#DejaVuSans-2e"/>
       <use x="95.410156" xlink:href="#DejaVuSans-31"/>
       <use x="159.033203" xlink:href="#DejaVuSans-30"/>
      </g>
     </g>
    </g>
    <g id="xtick_4">
     <g id="line2d_7">
      <path clip-path="url(#pddb7ab4863)" d="M 512.76873 1005.12 
L 512.76873 7.2 
" style="fill:none;stroke:#b0b0b0;stroke-linecap:square;stroke-width:0.8;"/>
     </g>
     <g id="line2d_8">
      <g>
       <use style="stroke:#000000;stroke-width:0.8;" x="512.76873" xlink:href="#m2d2b3b5a59" y="1005.12"/>
      </g>
     </g>
     <g id="text_4">
      <!-- 0.15 -->
      <g transform="translate(479.370293 1034.915313)scale(0.3 -0.3)">
       <use xlink:href="#DejaVuSans-30"/>
       <use x="63.623047" xlink:href="#DejaVuSans-2e"/>
       <use x="95.410156" xlink:href="#DejaVuSans-31"/>
       <use x="159.033203" xlink:href="#DejaVuSans-35"/>
      </g>
     </g>
    </g>
    <g id="xtick_5">
     <g id="line2d_9">
      <path clip-path="url(#pddb7ab4863)" d="M 652.706034 1005.12 
L 652.706034 7.2 
" style="fill:none;stroke:#b0b0b0;stroke-linecap:square;stroke-width:0.8;"/>
     </g>
     <g id="line2d_10">
      <g>
       <use style="stroke:#000000;stroke-width:0.8;" x="652.706034" xlink:href="#m2d2b3b5a59" y="1005.12"/>
      </g>
     </g>
     <g id="text_5">
      <!-- 0.20 -->
      <g transform="translate(619.307597 1034.915313)scale(0.3 -0.3)">
       <defs>
        <path d="M 1228 531 
L 3431 531 
L 3431 0 
L 469 0 
L 469 531 
Q 828 903 1448 1529 
Q 2069 2156 2228 2338 
Q 2531 2678 2651 2914 
Q 2772 3150 2772 3378 
Q 2772 3750 2511 3984 
Q 2250 4219 1831 4219 
Q 1534 4219 1204 4116 
Q 875 4013 500 3803 
L 500 4441 
Q 881 4594 1212 4672 
Q 1544 4750 1819 4750 
Q 2544 4750 2975 4387 
Q 3406 4025 3406 3419 
Q 3406 3131 3298 2873 
Q 3191 2616 2906 2266 
Q 2828 2175 2409 1742 
Q 1991 1309 1228 531 
z
" id="DejaVuSans-32" transform="scale(0.015625)"/>
       </defs>
       <use xlink:href="#DejaVuSans-30"/>
       <use x="63.623047" xlink:href="#DejaVuSans-2e"/>
       <use x="95.410156" xlink:href="#DejaVuSans-32"/>
       <use x="159.033203" xlink:href="#DejaVuSans-30"/>
      </g>
     </g>
    </g>
    <g id="xtick_6">
     <g id="line2d_11">
      <path clip-path="url(#pddb7ab4863)" d="M 792.643339 1005.12 
L 792.643339 7.2 
" style="fill:none;stroke:#b0b0b0;stroke-linecap:square;stroke-width:0.8;"/>
     </g>
     <g id="line2d_12">
      <g>
       <use style="stroke:#000000;stroke-width:0.8;" x="792.643339" xlink:href="#m2d2b3b5a59" y="1005.12"/>
      </g>
     </g>
     <g id="text_6">
      <!-- 0.25 -->
      <g transform="translate(759.244901 1034.915313)scale(0.3 -0.3)">
       <use xlink:href="#DejaVuSans-30"/>
       <use x="63.623047" xlink:href="#DejaVuSans-2e"/>
       <use x="95.410156" xlink:href="#DejaVuSans-32"/>
       <use x="159.033203" xlink:href="#DejaVuSans-35"/>
      </g>
     </g>
    </g>
    <g id="xtick_7">
     <g id="line2d_13">
      <path clip-path="url(#pddb7ab4863)" d="M 932.580643 1005.12 
L 932.580643 7.2 
" style="fill:none;stroke:#b0b0b0;stroke-linecap:square;stroke-width:0.8;"/>
     </g>
     <g id="line2d_14">
      <g>
       <use style="stroke:#000000;stroke-width:0.8;" x="932.580643" xlink:href="#m2d2b3b5a59" y="1005.12"/>
      </g>
     </g>
     <g id="text_7">
      <!-- 0.30 -->
      <g transform="translate(899.182205 1034.915313)scale(0.3 -0.3)">
       <defs>
        <path d="M 2597 2516 
Q 3050 2419 3304 2112 
Q 3559 1806 3559 1356 
Q 3559 666 3084 287 
Q 2609 -91 1734 -91 
Q 1441 -91 1130 -33 
Q 819 25 488 141 
L 488 750 
Q 750 597 1062 519 
Q 1375 441 1716 441 
Q 2309 441 2620 675 
Q 2931 909 2931 1356 
Q 2931 1769 2642 2001 
Q 2353 2234 1838 2234 
L 1294 2234 
L 1294 2753 
L 1863 2753 
Q 2328 2753 2575 2939 
Q 2822 3125 2822 3475 
Q 2822 3834 2567 4026 
Q 2313 4219 1838 4219 
Q 1578 4219 1281 4162 
Q 984 4106 628 3988 
L 628 4550 
Q 988 4650 1302 4700 
Q 1616 4750 1894 4750 
Q 2613 4750 3031 4423 
Q 3450 4097 3450 3541 
Q 3450 3153 3228 2886 
Q 3006 2619 2597 2516 
z
" id="DejaVuSans-33" transform="scale(0.015625)"/>
       </defs>
       <use xlink:href="#DejaVuSans-30"/>
       <use x="63.623047" xlink:href="#DejaVuSans-2e"/>
       <use x="95.410156" xlink:href="#DejaVuSans-33"/>
       <use x="159.033203" xlink:href="#DejaVuSans-30"/>
      </g>
     </g>
    </g>
    <g id="text_8">
     <!-- Locality parameter -->
     <g transform="translate(314.481719 1074.788281)scale(0.39 -0.39)">
      <defs>
       <path d="M 628 4666 
L 1259 4666 
L 1259 531 
L 3531 531 
L 3531 0 
L 628 0 
L 628 4666 
z
" id="DejaVuSans-4c" transform="scale(0.015625)"/>
       <path d="M 1959 3097 
Q 1497 3097 1228 2736 
Q 959 2375 959 1747 
Q 959 1119 1226 758 
Q 1494 397 1959 397 
Q 2419 397 2687 759 
Q 2956 1122 2956 1747 
Q 2956 2369 2687 2733 
Q 2419 3097 1959 3097 
z
M 1959 3584 
Q 2709 3584 3137 3096 
Q 3566 2609 3566 1747 
Q 3566 888 3137 398 
Q 2709 -91 1959 -91 
Q 1206 -91 779 398 
Q 353 888 353 1747 
Q 353 2609 779 3096 
Q 1206 3584 1959 3584 
z
" id="DejaVuSans-6f" transform="scale(0.015625)"/>
       <path d="M 3122 3366 
L 3122 2828 
Q 2878 2963 2633 3030 
Q 2388 3097 2138 3097 
Q 1578 3097 1268 2742 
Q 959 2388 959 1747 
Q 959 1106 1268 751 
Q 1578 397 2138 397 
Q 2388 397 2633 464 
Q 2878 531 3122 666 
L 3122 134 
Q 2881 22 2623 -34 
Q 2366 -91 2075 -91 
Q 1284 -91 818 406 
Q 353 903 353 1747 
Q 353 2603 823 3093 
Q 1294 3584 2113 3584 
Q 2378 3584 2631 3529 
Q 2884 3475 3122 3366 
z
" id="DejaVuSans-63" transform="scale(0.015625)"/>
       <path d="M 2194 1759 
Q 1497 1759 1228 1600 
Q 959 1441 959 1056 
Q 959 750 1161 570 
Q 1363 391 1709 391 
Q 2188 391 2477 730 
Q 2766 1069 2766 1631 
L 2766 1759 
L 2194 1759 
z
M 3341 1997 
L 3341 0 
L 2766 0 
L 2766 531 
Q 2569 213 2275 61 
Q 1981 -91 1556 -91 
Q 1019 -91 701 211 
Q 384 513 384 1019 
Q 384 1609 779 1909 
Q 1175 2209 1959 2209 
L 2766 2209 
L 2766 2266 
Q 2766 2663 2505 2880 
Q 2244 3097 1772 3097 
Q 1472 3097 1187 3025 
Q 903 2953 641 2809 
L 641 3341 
Q 956 3463 1253 3523 
Q 1550 3584 1831 3584 
Q 2591 3584 2966 3190 
Q 3341 2797 3341 1997 
z
" id="DejaVuSans-61" transform="scale(0.015625)"/>
       <path d="M 603 4863 
L 1178 4863 
L 1178 0 
L 603 0 
L 603 4863 
z
" id="DejaVuSans-6c" transform="scale(0.015625)"/>
       <path d="M 603 3500 
L 1178 3500 
L 1178 0 
L 603 0 
L 603 3500 
z
M 603 4863 
L 1178 4863 
L 1178 4134 
L 603 4134 
L 603 4863 
z
" id="DejaVuSans-69" transform="scale(0.015625)"/>
       <path d="M 1172 4494 
L 1172 3500 
L 2356 3500 
L 2356 3053 
L 1172 3053 
L 1172 1153 
Q 1172 725 1289 603 
Q 1406 481 1766 481 
L 2356 481 
L 2356 0 
L 1766 0 
Q 1100 0 847 248 
Q 594 497 594 1153 
L 594 3053 
L 172 3053 
L 172 3500 
L 594 3500 
L 594 4494 
L 1172 4494 
z
" id="DejaVuSans-74" transform="scale(0.015625)"/>
       <path d="M 2059 -325 
Q 1816 -950 1584 -1140 
Q 1353 -1331 966 -1331 
L 506 -1331 
L 506 -850 
L 844 -850 
Q 1081 -850 1212 -737 
Q 1344 -625 1503 -206 
L 1606 56 
L 191 3500 
L 800 3500 
L 1894 763 
L 2988 3500 
L 3597 3500 
L 2059 -325 
z
" id="DejaVuSans-79" transform="scale(0.015625)"/>
       <path id="DejaVuSans-20" transform="scale(0.015625)"/>
       <path d="M 1159 525 
L 1159 -1331 
L 581 -1331 
L 581 3500 
L 1159 3500 
L 1159 2969 
Q 1341 3281 1617 3432 
Q 1894 3584 2278 3584 
Q 2916 3584 3314 3078 
Q 3713 2572 3713 1747 
Q 3713 922 3314 415 
Q 2916 -91 2278 -91 
Q 1894 -91 1617 61 
Q 1341 213 1159 525 
z
M 3116 1747 
Q 3116 2381 2855 2742 
Q 2594 3103 2138 3103 
Q 1681 3103 1420 2742 
Q 1159 2381 1159 1747 
Q 1159 1113 1420 752 
Q 1681 391 2138 391 
Q 2594 391 2855 752 
Q 3116 1113 3116 1747 
z
" id="DejaVuSans-70" transform="scale(0.015625)"/>
       <path d="M 2631 2963 
Q 2534 3019 2420 3045 
Q 2306 3072 2169 3072 
Q 1681 3072 1420 2755 
Q 1159 2438 1159 1844 
L 1159 0 
L 581 0 
L 581 3500 
L 1159 3500 
L 1159 2956 
Q 1341 3275 1631 3429 
Q 1922 3584 2338 3584 
Q 2397 3584 2469 3576 
Q 2541 3569 2628 3553 
L 2631 2963 
z
" id="DejaVuSans-72" transform="scale(0.015625)"/>
       <path d="M 3328 2828 
Q 3544 3216 3844 3400 
Q 4144 3584 4550 3584 
Q 5097 3584 5394 3201 
Q 5691 2819 5691 2113 
L 5691 0 
L 5113 0 
L 5113 2094 
Q 5113 2597 4934 2840 
Q 4756 3084 4391 3084 
Q 3944 3084 3684 2787 
Q 3425 2491 3425 1978 
L 3425 0 
L 2847 0 
L 2847 2094 
Q 2847 2600 2669 2842 
Q 2491 3084 2119 3084 
Q 1678 3084 1418 2786 
Q 1159 2488 1159 1978 
L 1159 0 
L 581 0 
L 581 3500 
L 1159 3500 
L 1159 2956 
Q 1356 3278 1631 3431 
Q 1906 3584 2284 3584 
Q 2666 3584 2933 3390 
Q 3200 3197 3328 2828 
z
" id="DejaVuSans-6d" transform="scale(0.015625)"/>
       <path d="M 3597 1894 
L 3597 1613 
L 953 1613 
Q 991 1019 1311 708 
Q 1631 397 2203 397 
Q 2534 397 2845 478 
Q 3156 559 3463 722 
L 3463 178 
Q 3153 47 2828 -22 
Q 2503 -91 2169 -91 
Q 1331 -91 842 396 
Q 353 884 353 1716 
Q 353 2575 817 3079 
Q 1281 3584 2069 3584 
Q 2775 3584 3186 3129 
Q 3597 2675 3597 1894 
z
M 3022 2063 
Q 3016 2534 2758 2815 
Q 2500 3097 2075 3097 
Q 1594 3097 1305 2825 
Q 1016 2553 972 2059 
L 3022 2063 
z
" id="DejaVuSans-65" transform="scale(0.015625)"/>
      </defs>
      <use xlink:href="#DejaVuSans-4c"/>
      <use x="53.962891" xlink:href="#DejaVuSans-6f"/>
      <use x="115.144531" xlink:href="#DejaVuSans-63"/>
      <use x="170.125" xlink:href="#DejaVuSans-61"/>
      <use x="231.404297" xlink:href="#DejaVuSans-6c"/>
      <use x="259.1875" xlink:href="#DejaVuSans-69"/>
      <use x="286.970703" xlink:href="#DejaVuSans-74"/>
      <use x="326.179688" xlink:href="#DejaVuSans-79"/>
      <use x="385.359375" xlink:href="#DejaVuSans-20"/>
      <use x="417.146484" xlink:href="#DejaVuSans-70"/>
      <use x="480.623047" xlink:href="#DejaVuSans-61"/>
      <use x="541.902344" xlink:href="#DejaVuSans-72"/>
      <use x="583.015625" xlink:href="#DejaVuSans-61"/>
      <use x="644.294922" xlink:href="#DejaVuSans-6d"/>
      <use x="741.707031" xlink:href="#DejaVuSans-65"/>
      <use x="803.230469" xlink:href="#DejaVuSans-74"/>
      <use x="842.439453" xlink:href="#DejaVuSans-65"/>
      <use x="903.962891" xlink:href="#DejaVuSans-72"/>
     </g>
    </g>
   </g>
   <g id="matplotlib.axis_2">
    <g id="ytick_1">
     <g id="line2d_15">
      <path clip-path="url(#pddb7ab4863)" d="M 52.375 997.928881 
L 945.175 997.928881 
" style="fill:none;stroke:#b0b0b0;stroke-linecap:square;stroke-width:0.8;"/>
     </g>
     <g id="line2d_16">
      <defs>
       <path d="M 0 0 
L -3.5 0 
" id="mbea52c8f58" style="stroke:#000000;stroke-width:0.8;"/>
      </defs>
      <g>
       <use style="stroke:#000000;stroke-width:0.8;" x="52.375" xlink:href="#mbea52c8f58" y="997.928881"/>
      </g>
     </g>
     <g id="text_9">
      <!-- 0 -->
      <g transform="translate(26.2875 1009.326537)scale(0.3 -0.3)">
       <use xlink:href="#DejaVuSans-30"/>
      </g>
     </g>
    </g>
    <g id="ytick_2">
     <g id="line2d_17">
      <path clip-path="url(#pddb7ab4863)" d="M 52.375 807.046301 
L 945.175 807.046301 
" style="fill:none;stroke:#b0b0b0;stroke-linecap:square;stroke-width:0.8;"/>
     </g>
     <g id="line2d_18">
      <g>
       <use style="stroke:#000000;stroke-width:0.8;" x="52.375" xlink:href="#mbea52c8f58" y="807.046301"/>
      </g>
     </g>
     <g id="text_10">
      <!-- 5 -->
      <g transform="translate(26.2875 818.443957)scale(0.3 -0.3)">
       <use xlink:href="#DejaVuSans-35"/>
      </g>
     </g>
    </g>
    <g id="ytick_3">
     <g id="line2d_19">
      <path clip-path="url(#pddb7ab4863)" d="M 52.375 616.163722 
L 945.175 616.163722 
" style="fill:none;stroke:#b0b0b0;stroke-linecap:square;stroke-width:0.8;"/>
     </g>
     <g id="line2d_20">
      <g>
       <use style="stroke:#000000;stroke-width:0.8;" x="52.375" xlink:href="#mbea52c8f58" y="616.163722"/>
      </g>
     </g>
     <g id="text_11">
      <!-- 10 -->
      <g transform="translate(7.2 627.561378)scale(0.3 -0.3)">
       <use xlink:href="#DejaVuSans-31"/>
       <use x="63.623047" xlink:href="#DejaVuSans-30"/>
      </g>
     </g>
    </g>
    <g id="ytick_4">
     <g id="line2d_21">
      <path clip-path="url(#pddb7ab4863)" d="M 52.375 425.281142 
L 945.175 425.281142 
" style="fill:none;stroke:#b0b0b0;stroke-linecap:square;stroke-width:0.8;"/>
     </g>
     <g id="line2d_22">
      <g>
       <use style="stroke:#000000;stroke-width:0.8;" x="52.375" xlink:href="#mbea52c8f58" y="425.281142"/>
      </g>
     </g>
     <g id="text_12">
      <!-- 15 -->
      <g transform="translate(7.2 436.678799)scale(0.3 -0.3)">
       <use xlink:href="#DejaVuSans-31"/>
       <use x="63.623047" xlink:href="#DejaVuSans-35"/>
      </g>
     </g>
    </g>
    <g id="ytick_5">
     <g id="line2d_23">
      <path clip-path="url(#pddb7ab4863)" d="M 52.375 234.398563 
L 945.175 234.398563 
" style="fill:none;stroke:#b0b0b0;stroke-linecap:square;stroke-width:0.8;"/>
     </g>
     <g id="line2d_24">
      <g>
       <use style="stroke:#000000;stroke-width:0.8;" x="52.375" xlink:href="#mbea52c8f58" y="234.398563"/>
      </g>
     </g>
     <g id="text_13">
      <!-- 20 -->
      <g transform="translate(7.2 245.796219)scale(0.3 -0.3)">
       <use xlink:href="#DejaVuSans-32"/>
       <use x="63.623047" xlink:href="#DejaVuSans-30"/>
      </g>
     </g>
    </g>
    <g id="ytick_6">
     <g id="line2d_25">
      <path clip-path="url(#pddb7ab4863)" d="M 52.375 43.515983 
L 945.175 43.515983 
" style="fill:none;stroke:#b0b0b0;stroke-linecap:square;stroke-width:0.8;"/>
     </g>
     <g id="line2d_26">
      <g>
       <use style="stroke:#000000;stroke-width:0.8;" x="52.375" xlink:href="#mbea52c8f58" y="43.515983"/>
      </g>
     </g>
     <g id="text_14">
      <!-- 25 -->
      <g transform="translate(7.2 54.91364)scale(0.3 -0.3)">
       <use xlink:href="#DejaVuSans-32"/>
       <use x="63.623047" xlink:href="#DejaVuSans-35"/>
      </g>
     </g>
    </g>
   </g>
   <g id="line2d_27">
    <path clip-path="url(#pddb7ab4863)" d="M 92.956818 871.526436 
L 120.944279 628.464959 
L 148.93174 583.348716 
L 176.919201 557.578804 
L 204.906661 539.282709 
L 232.894122 525.388366 
L 260.881583 513.892653 
L 288.869044 505.155576 
L 316.856505 497.205316 
L 344.843966 490.618722 
L 372.831426 485.059458 
L 400.818887 479.997252 
L 428.806348 474.725839 
L 456.793809 470.787167 
L 484.78127 466.432754 
L 512.76873 462.801022 
L 540.756191 460.833404 
L 568.743652 457.379575 
L 596.731113 454.887794 
L 624.718574 452.834661 
L 652.706034 450.295541 
L 680.693495 447.736569 
L 708.680956 446.239668 
L 736.668417 444.478585 
L 764.655878 442.444159 
L 792.643339 441.443552 
L 820.630799 439.5939 
L 848.61826 438.293989 
L 876.605721 436.863134 
L 904.593182 436.045011 
" style="fill:none;stroke:#fe0002;stroke-linecap:square;stroke-width:1.5;"/>
    <defs>
     <path d="M 0 4.5 
C 1.193414 4.5 2.338109 4.025852 3.181981 3.181981 
C 4.025852 2.338109 4.5 1.193414 4.5 0 
C 4.5 -1.193414 4.025852 -2.338109 3.181981 -3.181981 
C 2.338109 -4.025852 1.193414 -4.5 0 -4.5 
C -1.193414 -4.5 -2.338109 -4.025852 -3.181981 -3.181981 
C -4.025852 -2.338109 -4.5 -1.193414 -4.5 0 
C -4.5 1.193414 -4.025852 2.338109 -3.181981 3.181981 
C -2.338109 4.025852 -1.193414 4.5 0 4.5 
z
" id="mf11f7d1af7" style="stroke:#000000;"/>
    </defs>
    <g clip-path="url(#pddb7ab4863)">
     <use style="fill:#fe0002;stroke:#000000;" x="92.956818" xlink:href="#mf11f7d1af7" y="871.526436"/>
     <use style="fill:#fe0002;stroke:#000000;" x="120.944279" xlink:href="#mf11f7d1af7" y="628.464959"/>
     <use style="fill:#fe0002;stroke:#000000;" x="148.93174" xlink:href="#mf11f7d1af7" y="583.348716"/>
     <use style="fill:#fe0002;stroke:#000000;" x="176.919201" xlink:href="#mf11f7d1af7" y="557.578804"/>
     <use style="fill:#fe0002;stroke:#000000;" x="204.906661" xlink:href="#mf11f7d1af7" y="539.282709"/>
     <use style="fill:#fe0002;stroke:#000000;" x="232.894122" xlink:href="#mf11f7d1af7" y="525.388366"/>
     <use style="fill:#fe0002;stroke:#000000;" x="260.881583" xlink:href="#mf11f7d1af7" y="513.892653"/>
     <use style="fill:#fe0002;stroke:#000000;" x="288.869044" xlink:href="#mf11f7d1af7" y="505.155576"/>
     <use style="fill:#fe0002;stroke:#000000;" x="316.856505" xlink:href="#mf11f7d1af7" y="497.205316"/>
     <use style="fill:#fe0002;stroke:#000000;" x="344.843966" xlink:href="#mf11f7d1af7" y="490.618722"/>
     <use style="fill:#fe0002;stroke:#000000;" x="372.831426" xlink:href="#mf11f7d1af7" y="485.059458"/>
     <use style="fill:#fe0002;stroke:#000000;" x="400.818887" xlink:href="#mf11f7d1af7" y="479.997252"/>
     <use style="fill:#fe0002;stroke:#000000;" x="428.806348" xlink:href="#mf11f7d1af7" y="474.725839"/>
     <use style="fill:#fe0002;stroke:#000000;" x="456.793809" xlink:href="#mf11f7d1af7" y="470.787167"/>
     <use style="fill:#fe0002;stroke:#000000;" x="484.78127" xlink:href="#mf11f7d1af7" y="466.432754"/>
     <use style="fill:#fe0002;stroke:#000000;" x="512.76873" xlink:href="#mf11f7d1af7" y="462.801022"/>
     <use style="fill:#fe0002;stroke:#000000;" x="540.756191" xlink:href="#mf11f7d1af7" y="460.833404"/>
     <use style="fill:#fe0002;stroke:#000000;" x="568.743652" xlink:href="#mf11f7d1af7" y="457.379575"/>
     <use style="fill:#fe0002;stroke:#000000;" x="596.731113" xlink:href="#mf11f7d1af7" y="454.887794"/>
     <use style="fill:#fe0002;stroke:#000000;" x="624.718574" xlink:href="#mf11f7d1af7" y="452.834661"/>
     <use style="fill:#fe0002;stroke:#000000;" x="652.706034" xlink:href="#mf11f7d1af7" y="450.295541"/>
     <use style="fill:#fe0002;stroke:#000000;" x="680.693495" xlink:href="#mf11f7d1af7" y="447.736569"/>
     <use style="fill:#fe0002;stroke:#000000;" x="708.680956" xlink:href="#mf11f7d1af7" y="446.239668"/>
     <use style="fill:#fe0002;stroke:#000000;" x="736.668417" xlink:href="#mf11f7d1af7" y="444.478585"/>
     <use style="fill:#fe0002;stroke:#000000;" x="764.655878" xlink:href="#mf11f7d1af7" y="442.444159"/>
     <use style="fill:#fe0002;stroke:#000000;" x="792.643339" xlink:href="#mf11f7d1af7" y="441.443552"/>
     <use style="fill:#fe0002;stroke:#000000;" x="820.630799" xlink:href="#mf11f7d1af7" y="439.5939"/>
     <use style="fill:#fe0002;stroke:#000000;" x="848.61826" xlink:href="#mf11f7d1af7" y="438.293989"/>
     <use style="fill:#fe0002;stroke:#000000;" x="876.605721" xlink:href="#mf11f7d1af7" y="436.863134"/>
     <use style="fill:#fe0002;stroke:#000000;" x="904.593182" xlink:href="#mf11f7d1af7" y="436.045011"/>
    </g>
   </g>
   <g id="line2d_28">
    <path clip-path="url(#pddb7ab4863)" d="M 92.956818 871.526436 
L 120.944279 628.464959 
L 148.93174 583.348716 
L 176.919201 557.578804 
L 204.906661 539.282709 
L 232.894122 525.388366 
L 260.881583 513.892653 
L 288.869044 505.155576 
L 316.856505 497.205316 
L 344.843966 490.618722 
L 372.831426 485.059458 
L 400.818887 479.997252 
L 428.806348 474.725839 
L 456.793809 470.787167 
L 484.78127 466.432754 
L 512.76873 462.801022 
L 540.756191 460.833404 
L 568.743652 457.379575 
L 596.731113 454.887794 
L 624.718574 452.834661 
L 652.706034 450.295541 
L 680.693495 447.736569 
L 708.680956 446.239668 
L 736.668417 444.478585 
L 764.655878 442.444159 
L 792.643339 441.443552 
L 820.630799 439.5939 
L 848.61826 438.293989 
L 876.605721 436.863134 
L 904.593182 436.045011 
" style="fill:none;stroke:#fe0002;stroke-dasharray:5.55,2.4;stroke-dashoffset:0;stroke-width:1.5;"/>
    <g clip-path="url(#pddb7ab4863)">
     <use style="fill:#fe0002;stroke:#000000;" x="92.956818" xlink:href="#mf11f7d1af7" y="871.526436"/>
     <use style="fill:#fe0002;stroke:#000000;" x="120.944279" xlink:href="#mf11f7d1af7" y="628.464959"/>
     <use style="fill:#fe0002;stroke:#000000;" x="148.93174" xlink:href="#mf11f7d1af7" y="583.348716"/>
     <use style="fill:#fe0002;stroke:#000000;" x="176.919201" xlink:href="#mf11f7d1af7" y="557.578804"/>
     <use style="fill:#fe0002;stroke:#000000;" x="204.906661" xlink:href="#mf11f7d1af7" y="539.282709"/>
     <use style="fill:#fe0002;stroke:#000000;" x="232.894122" xlink:href="#mf11f7d1af7" y="525.388366"/>
     <use style="fill:#fe0002;stroke:#000000;" x="260.881583" xlink:href="#mf11f7d1af7" y="513.892653"/>
     <use style="fill:#fe0002;stroke:#000000;" x="288.869044" xlink:href="#mf11f7d1af7" y="505.155576"/>
     <use style="fill:#fe0002;stroke:#000000;" x="316.856505" xlink:href="#mf11f7d1af7" y="497.205316"/>
     <use style="fill:#fe0002;stroke:#000000;" x="344.843966" xlink:href="#mf11f7d1af7" y="490.618722"/>
     <use style="fill:#fe0002;stroke:#000000;" x="372.831426" xlink:href="#mf11f7d1af7" y="485.059458"/>
     <use style="fill:#fe0002;stroke:#000000;" x="400.818887" xlink:href="#mf11f7d1af7" y="479.997252"/>
     <use style="fill:#fe0002;stroke:#000000;" x="428.806348" xlink:href="#mf11f7d1af7" y="474.725839"/>
     <use style="fill:#fe0002;stroke:#000000;" x="456.793809" xlink:href="#mf11f7d1af7" y="470.787167"/>
     <use style="fill:#fe0002;stroke:#000000;" x="484.78127" xlink:href="#mf11f7d1af7" y="466.432754"/>
     <use style="fill:#fe0002;stroke:#000000;" x="512.76873" xlink:href="#mf11f7d1af7" y="462.801022"/>
     <use style="fill:#fe0002;stroke:#000000;" x="540.756191" xlink:href="#mf11f7d1af7" y="460.833404"/>
     <use style="fill:#fe0002;stroke:#000000;" x="568.743652" xlink:href="#mf11f7d1af7" y="457.379575"/>
     <use style="fill:#fe0002;stroke:#000000;" x="596.731113" xlink:href="#mf11f7d1af7" y="454.887794"/>
     <use style="fill:#fe0002;stroke:#000000;" x="624.718574" xlink:href="#mf11f7d1af7" y="452.834661"/>
     <use style="fill:#fe0002;stroke:#000000;" x="652.706034" xlink:href="#mf11f7d1af7" y="450.295541"/>
     <use style="fill:#fe0002;stroke:#000000;" x="680.693495" xlink:href="#mf11f7d1af7" y="447.736569"/>
     <use style="fill:#fe0002;stroke:#000000;" x="708.680956" xlink:href="#mf11f7d1af7" y="446.239668"/>
     <use style="fill:#fe0002;stroke:#000000;" x="736.668417" xlink:href="#mf11f7d1af7" y="444.478585"/>
     <use style="fill:#fe0002;stroke:#000000;" x="764.655878" xlink:href="#mf11f7d1af7" y="442.444159"/>
     <use style="fill:#fe0002;stroke:#000000;" x="792.643339" xlink:href="#mf11f7d1af7" y="441.443552"/>
     <use style="fill:#fe0002;stroke:#000000;" x="820.630799" xlink:href="#mf11f7d1af7" y="439.5939"/>
     <use style="fill:#fe0002;stroke:#000000;" x="848.61826" xlink:href="#mf11f7d1af7" y="438.293989"/>
     <use style="fill:#fe0002;stroke:#000000;" x="876.605721" xlink:href="#mf11f7d1af7" y="436.863134"/>
     <use style="fill:#fe0002;stroke:#000000;" x="904.593182" xlink:href="#mf11f7d1af7" y="436.045011"/>
    </g>
   </g>
   <g id="line2d_29">
    <path clip-path="url(#pddb7ab4863)" d="M 92.956818 959.76 
L 120.944279 615.856783 
L 148.93174 553.278601 
L 176.919201 517.293036 
L 204.906661 491.877402 
L 232.894122 472.666597 
L 260.881583 457.175712 
L 288.869044 443.833402 
L 316.856505 433.54674 
L 344.843966 424.185094 
L 372.831426 415.881321 
L 400.818887 408.782779 
L 428.806348 402.239706 
L 456.793809 396.337235 
L 484.78127 390.429037 
L 512.76873 385.233977 
L 540.756191 381.234605 
L 568.743652 377.118032 
L 596.731113 373.545855 
L 624.718574 371.185783 
L 652.706034 366.889779 
L 680.693495 363.994091 
L 708.680956 361.67105 
L 736.668417 359.052141 
L 764.655878 356.01329 
L 792.643339 354.393842 
L 820.630799 352.357507 
L 848.61826 350.685757 
L 876.605721 348.928874 
L 904.593182 346.820385 
" style="fill:none;stroke:#53fca1;stroke-linecap:square;stroke-width:1.5;"/>
    <defs>
     <path d="M 0 -4.5 
L -4.5 4.5 
L 4.5 4.5 
z
" id="me8562a540c" style="stroke:#000000;stroke-linejoin:miter;"/>
    </defs>
    <g clip-path="url(#pddb7ab4863)">
     <use style="fill:#53fca1;stroke:#000000;stroke-linejoin:miter;" x="92.956818" xlink:href="#me8562a540c" y="959.76"/>
     <use style="fill:#53fca1;stroke:#000000;stroke-linejoin:miter;" x="120.944279" xlink:href="#me8562a540c" y="615.856783"/>
     <use style="fill:#53fca1;stroke:#000000;stroke-linejoin:miter;" x="148.93174" xlink:href="#me8562a540c" y="553.278601"/>
     <use style="fill:#53fca1;stroke:#000000;stroke-linejoin:miter;" x="176.919201" xlink:href="#me8562a540c" y="517.293036"/>
     <use style="fill:#53fca1;stroke:#000000;stroke-linejoin:miter;" x="204.906661" xlink:href="#me8562a540c" y="491.877402"/>
     <use style="fill:#53fca1;stroke:#000000;stroke-linejoin:miter;" x="232.894122" xlink:href="#me8562a540c" y="472.666597"/>
     <use style="fill:#53fca1;stroke:#000000;stroke-linejoin:miter;" x="260.881583" xlink:href="#me8562a540c" y="457.175712"/>
     <use style="fill:#53fca1;stroke:#000000;stroke-linejoin:miter;" x="288.869044" xlink:href="#me8562a540c" y="443.833402"/>
     <use style="fill:#53fca1;stroke:#000000;stroke-linejoin:miter;" x="316.856505" xlink:href="#me8562a540c" y="433.54674"/>
     <use style="fill:#53fca1;stroke:#000000;stroke-linejoin:miter;" x="344.843966" xlink:href="#me8562a540c" y="424.185094"/>
     <use style="fill:#53fca1;stroke:#000000;stroke-linejoin:miter;" x="372.831426" xlink:href="#me8562a540c" y="415.881321"/>
     <use style="fill:#53fca1;stroke:#000000;stroke-linejoin:miter;" x="400.818887" xlink:href="#me8562a540c" y="408.782779"/>
     <use style="fill:#53fca1;stroke:#000000;stroke-linejoin:miter;" x="428.806348" xlink:href="#me8562a540c" y="402.239706"/>
     <use style="fill:#53fca1;stroke:#000000;stroke-linejoin:miter;" x="456.793809" xlink:href="#me8562a540c" y="396.337235"/>
     <use style="fill:#53fca1;stroke:#000000;stroke-linejoin:miter;" x="484.78127" xlink:href="#me8562a540c" y="390.429037"/>
     <use style="fill:#53fca1;stroke:#000000;stroke-linejoin:miter;" x="512.76873" xlink:href="#me8562a540c" y="385.233977"/>
     <use style="fill:#53fca1;stroke:#000000;stroke-linejoin:miter;" x="540.756191" xlink:href="#me8562a540c" y="381.234605"/>
     <use style="fill:#53fca1;stroke:#000000;stroke-linejoin:miter;" x="568.743652" xlink:href="#me8562a540c" y="377.118032"/>
     <use style="fill:#53fca1;stroke:#000000;stroke-linejoin:miter;" x="596.731113" xlink:href="#me8562a540c" y="373.545855"/>
     <use style="fill:#53fca1;stroke:#000000;stroke-linejoin:miter;" x="624.718574" xlink:href="#me8562a540c" y="371.185783"/>
     <use style="fill:#53fca1;stroke:#000000;stroke-linejoin:miter;" x="652.706034" xlink:href="#me8562a540c" y="366.889779"/>
     <use style="fill:#53fca1;stroke:#000000;stroke-linejoin:miter;" x="680.693495" xlink:href="#me8562a540c" y="363.994091"/>
     <use style="fill:#53fca1;stroke:#000000;stroke-linejoin:miter;" x="708.680956" xlink:href="#me8562a540c" y="361.67105"/>
     <use style="fill:#53fca1;stroke:#000000;stroke-linejoin:miter;" x="736.668417" xlink:href="#me8562a540c" y="359.052141"/>
     <use style="fill:#53fca1;stroke:#000000;stroke-linejoin:miter;" x="764.655878" xlink:href="#me8562a540c" y="356.01329"/>
     <use style="fill:#53fca1;stroke:#000000;stroke-linejoin:miter;" x="792.643339" xlink:href="#me8562a540c" y="354.393842"/>
     <use style="fill:#53fca1;stroke:#000000;stroke-linejoin:miter;" x="820.630799" xlink:href="#me8562a540c" y="352.357507"/>
     <use style="fill:#53fca1;stroke:#000000;stroke-linejoin:miter;" x="848.61826" xlink:href="#me8562a540c" y="350.685757"/>
     <use style="fill:#53fca1;stroke:#000000;stroke-linejoin:miter;" x="876.605721" xlink:href="#me8562a540c" y="348.928874"/>
     <use style="fill:#53fca1;stroke:#000000;stroke-linejoin:miter;" x="904.593182" xlink:href="#me8562a540c" y="346.820385"/>
    </g>
   </g>
   <g id="line2d_30">
    <path clip-path="url(#pddb7ab4863)" d="M 92.956818 959.76 
L 120.944279 757.048809 
L 148.93174 724.207843 
L 176.919201 705.735372 
L 204.906661 692.577072 
L 232.894122 682.707679 
L 260.881583 674.782617 
L 288.869044 668.11127 
L 316.856505 662.659282 
L 344.843966 657.989149 
L 372.831426 653.827145 
L 400.818887 650.232063 
L 428.806348 646.967589 
L 456.793809 643.969969 
L 484.78127 640.981511 
L 512.76873 638.243491 
L 540.756191 636.227008 
L 568.743652 634.16853 
L 596.731113 632.260086 
L 624.718574 631.252226 
L 652.706034 628.972706 
L 680.693495 627.518945 
L 708.680956 626.445803 
L 736.668417 625.125277 
L 764.655878 623.643265 
L 792.643339 622.775131 
L 820.630799 621.774524 
L 848.61826 620.837291 
L 876.605721 619.920291 
L 904.593182 618.929992 
" style="fill:none;stroke:#53fca1;stroke-dasharray:5.55,2.4;stroke-dashoffset:0;stroke-width:1.5;"/>
    <defs>
     <path d="M 0 6.363961 
L 6.363961 0 
L 0 -6.363961 
L -6.363961 0 
z
" id="me14294bf90" style="stroke:#000000;stroke-linejoin:miter;"/>
    </defs>
    <g clip-path="url(#pddb7ab4863)">
     <use style="fill:#53fca1;stroke:#000000;stroke-linejoin:miter;" x="92.956818" xlink:href="#me14294bf90" y="959.76"/>
     <use style="fill:#53fca1;stroke:#000000;stroke-linejoin:miter;" x="120.944279" xlink:href="#me14294bf90" y="757.048809"/>
     <use style="fill:#53fca1;stroke:#000000;stroke-linejoin:miter;" x="148.93174" xlink:href="#me14294bf90" y="724.207843"/>
     <use style="fill:#53fca1;stroke:#000000;stroke-linejoin:miter;" x="176.919201" xlink:href="#me14294bf90" y="705.735372"/>
     <use style="fill:#53fca1;stroke:#000000;stroke-linejoin:miter;" x="204.906661" xlink:href="#me14294bf90" y="692.577072"/>
     <use style="fill:#53fca1;stroke:#000000;stroke-linejoin:miter;" x="232.894122" xlink:href="#me14294bf90" y="682.707679"/>
     <use style="fill:#53fca1;stroke:#000000;stroke-linejoin:miter;" x="260.881583" xlink:href="#me14294bf90" y="674.782617"/>
     <use style="fill:#53fca1;stroke:#000000;stroke-linejoin:miter;" x="288.869044" xlink:href="#me14294bf90" y="668.11127"/>
     <use style="fill:#53fca1;stroke:#000000;stroke-linejoin:miter;" x="316.856505" xlink:href="#me14294bf90" y="662.659282"/>
     <use style="fill:#53fca1;stroke:#000000;stroke-linejoin:miter;" x="344.843966" xlink:href="#me14294bf90" y="657.989149"/>
     <use style="fill:#53fca1;stroke:#000000;stroke-linejoin:miter;" x="372.831426" xlink:href="#me14294bf90" y="653.827145"/>
     <use style="fill:#53fca1;stroke:#000000;stroke-linejoin:miter;" x="400.818887" xlink:href="#me14294bf90" y="650.232063"/>
     <use style="fill:#53fca1;stroke:#000000;stroke-linejoin:miter;" x="428.806348" xlink:href="#me14294bf90" y="646.967589"/>
     <use style="fill:#53fca1;stroke:#000000;stroke-linejoin:miter;" x="456.793809" xlink:href="#me14294bf90" y="643.969969"/>
     <use style="fill:#53fca1;stroke:#000000;stroke-linejoin:miter;" x="484.78127" xlink:href="#me14294bf90" y="640.981511"/>
     <use style="fill:#53fca1;stroke:#000000;stroke-linejoin:miter;" x="512.76873" xlink:href="#me14294bf90" y="638.243491"/>
     <use style="fill:#53fca1;stroke:#000000;stroke-linejoin:miter;" x="540.756191" xlink:href="#me14294bf90" y="636.227008"/>
     <use style="fill:#53fca1;stroke:#000000;stroke-linejoin:miter;" x="568.743652" xlink:href="#me14294bf90" y="634.16853"/>
     <use style="fill:#53fca1;stroke:#000000;stroke-linejoin:miter;" x="596.731113" xlink:href="#me14294bf90" y="632.260086"/>
     <use style="fill:#53fca1;stroke:#000000;stroke-linejoin:miter;" x="624.718574" xlink:href="#me14294bf90" y="631.252226"/>
     <use style="fill:#53fca1;stroke:#000000;stroke-linejoin:miter;" x="652.706034" xlink:href="#me14294bf90" y="628.972706"/>
     <use style="fill:#53fca1;stroke:#000000;stroke-linejoin:miter;" x="680.693495" xlink:href="#me14294bf90" y="627.518945"/>
     <use style="fill:#53fca1;stroke:#000000;stroke-linejoin:miter;" x="708.680956" xlink:href="#me14294bf90" y="626.445803"/>
     <use style="fill:#53fca1;stroke:#000000;stroke-linejoin:miter;" x="736.668417" xlink:href="#me14294bf90" y="625.125277"/>
     <use style="fill:#53fca1;stroke:#000000;stroke-linejoin:miter;" x="764.655878" xlink:href="#me14294bf90" y="623.643265"/>
     <use style="fill:#53fca1;stroke:#000000;stroke-linejoin:miter;" x="792.643339" xlink:href="#me14294bf90" y="622.775131"/>
     <use style="fill:#53fca1;stroke:#000000;stroke-linejoin:miter;" x="820.630799" xlink:href="#me14294bf90" y="621.774524"/>
     <use style="fill:#53fca1;stroke:#000000;stroke-linejoin:miter;" x="848.61826" xlink:href="#me14294bf90" y="620.837291"/>
     <use style="fill:#53fca1;stroke:#000000;stroke-linejoin:miter;" x="876.605721" xlink:href="#me14294bf90" y="619.920291"/>
     <use style="fill:#53fca1;stroke:#000000;stroke-linejoin:miter;" x="904.593182" xlink:href="#me14294bf90" y="618.929992"/>
    </g>
   </g>
   <g id="line2d_31">
    <path clip-path="url(#pddb7ab4863)" d="M 92.956818 959.76 
L 120.944279 588.009305 
L 148.93174 510.078056 
L 176.919201 464.9893 
L 204.906661 432.462145 
L 232.894122 408.083767 
L 260.881583 388.592365 
L 288.869044 371.562203 
L 316.856505 357.744977 
L 344.843966 346.576055 
L 372.831426 335.78699 
L 400.818887 327.435496 
L 428.806348 318.554111 
L 456.793809 310.236593 
L 484.78127 303.120491 
L 512.76873 297.055006 
L 540.756191 292.115347 
L 568.743652 286.853859 
L 596.731113 281.654218 
L 624.718574 278.151904 
L 652.706034 274.56522 
L 680.693495 270.764367 
L 708.680956 266.921137 
L 736.668417 264.375145 
L 764.655878 260.529243 
L 792.643339 257.395332 
L 820.630799 255.173077 
L 848.61826 252.710692 
L 876.605721 250.066968 
L 904.593182 248.912511 
" style="fill:none;stroke:#0652ff;stroke-linecap:square;stroke-width:1.5;"/>
    <defs>
     <path d="M 0 -4.5 
L -4.279754 -1.390576 
L -2.645034 3.640576 
L 2.645034 3.640576 
L 4.279754 -1.390576 
z
" id="mcf6509c731" style="stroke:#000000;stroke-linejoin:miter;"/>
    </defs>
    <g clip-path="url(#pddb7ab4863)">
     <use style="fill:#0652ff;stroke:#000000;stroke-linejoin:miter;" x="92.956818" xlink:href="#mcf6509c731" y="959.76"/>
     <use style="fill:#0652ff;stroke:#000000;stroke-linejoin:miter;" x="120.944279" xlink:href="#mcf6509c731" y="588.009305"/>
     <use style="fill:#0652ff;stroke:#000000;stroke-linejoin:miter;" x="148.93174" xlink:href="#mcf6509c731" y="510.078056"/>
     <use style="fill:#0652ff;stroke:#000000;stroke-linejoin:miter;" x="176.919201" xlink:href="#mcf6509c731" y="464.9893"/>
     <use style="fill:#0652ff;stroke:#000000;stroke-linejoin:miter;" x="204.906661" xlink:href="#mcf6509c731" y="432.462145"/>
     <use style="fill:#0652ff;stroke:#000000;stroke-linejoin:miter;" x="232.894122" xlink:href="#mcf6509c731" y="408.083767"/>
     <use style="fill:#0652ff;stroke:#000000;stroke-linejoin:miter;" x="260.881583" xlink:href="#mcf6509c731" y="388.592365"/>
     <use style="fill:#0652ff;stroke:#000000;stroke-linejoin:miter;" x="288.869044" xlink:href="#mcf6509c731" y="371.562203"/>
     <use style="fill:#0652ff;stroke:#000000;stroke-linejoin:miter;" x="316.856505" xlink:href="#mcf6509c731" y="357.744977"/>
     <use style="fill:#0652ff;stroke:#000000;stroke-linejoin:miter;" x="344.843966" xlink:href="#mcf6509c731" y="346.576055"/>
     <use style="fill:#0652ff;stroke:#000000;stroke-linejoin:miter;" x="372.831426" xlink:href="#mcf6509c731" y="335.78699"/>
     <use style="fill:#0652ff;stroke:#000000;stroke-linejoin:miter;" x="400.818887" xlink:href="#mcf6509c731" y="327.435496"/>
     <use style="fill:#0652ff;stroke:#000000;stroke-linejoin:miter;" x="428.806348" xlink:href="#mcf6509c731" y="318.554111"/>
     <use style="fill:#0652ff;stroke:#000000;stroke-linejoin:miter;" x="456.793809" xlink:href="#mcf6509c731" y="310.236593"/>
     <use style="fill:#0652ff;stroke:#000000;stroke-linejoin:miter;" x="484.78127" xlink:href="#mcf6509c731" y="303.120491"/>
     <use style="fill:#0652ff;stroke:#000000;stroke-linejoin:miter;" x="512.76873" xlink:href="#mcf6509c731" y="297.055006"/>
     <use style="fill:#0652ff;stroke:#000000;stroke-linejoin:miter;" x="540.756191" xlink:href="#mcf6509c731" y="292.115347"/>
     <use style="fill:#0652ff;stroke:#000000;stroke-linejoin:miter;" x="568.743652" xlink:href="#mcf6509c731" y="286.853859"/>
     <use style="fill:#0652ff;stroke:#000000;stroke-linejoin:miter;" x="596.731113" xlink:href="#mcf6509c731" y="281.654218"/>
     <use style="fill:#0652ff;stroke:#000000;stroke-linejoin:miter;" x="624.718574" xlink:href="#mcf6509c731" y="278.151904"/>
     <use style="fill:#0652ff;stroke:#000000;stroke-linejoin:miter;" x="652.706034" xlink:href="#mcf6509c731" y="274.56522"/>
     <use style="fill:#0652ff;stroke:#000000;stroke-linejoin:miter;" x="680.693495" xlink:href="#mcf6509c731" y="270.764367"/>
     <use style="fill:#0652ff;stroke:#000000;stroke-linejoin:miter;" x="708.680956" xlink:href="#mcf6509c731" y="266.921137"/>
     <use style="fill:#0652ff;stroke:#000000;stroke-linejoin:miter;" x="736.668417" xlink:href="#mcf6509c731" y="264.375145"/>
     <use style="fill:#0652ff;stroke:#000000;stroke-linejoin:miter;" x="764.655878" xlink:href="#mcf6509c731" y="260.529243"/>
     <use style="fill:#0652ff;stroke:#000000;stroke-linejoin:miter;" x="792.643339" xlink:href="#mcf6509c731" y="257.395332"/>
     <use style="fill:#0652ff;stroke:#000000;stroke-linejoin:miter;" x="820.630799" xlink:href="#mcf6509c731" y="255.173077"/>
     <use style="fill:#0652ff;stroke:#000000;stroke-linejoin:miter;" x="848.61826" xlink:href="#mcf6509c731" y="252.710692"/>
     <use style="fill:#0652ff;stroke:#000000;stroke-linejoin:miter;" x="876.605721" xlink:href="#mcf6509c731" y="250.066968"/>
     <use style="fill:#0652ff;stroke:#000000;stroke-linejoin:miter;" x="904.593182" xlink:href="#mcf6509c731" y="248.912511"/>
    </g>
   </g>
   <g id="line2d_32">
    <path clip-path="url(#pddb7ab4863)" d="M 92.956818 959.76 
L 120.944279 722.981613 
L 148.93174 675.54462 
L 176.919201 648.39959 
L 204.906661 628.981105 
L 232.894122 614.482046 
L 260.881583 602.845081 
L 288.869044 592.698526 
L 316.856505 584.463852 
L 344.843966 577.70699 
L 372.831426 571.367398 
L 400.818887 566.267397 
L 428.806348 561.094479 
L 456.793809 556.330432 
L 484.78127 551.936697 
L 512.76873 548.537841 
L 540.756191 545.450507 
L 568.743652 542.323086 
L 596.731113 539.556816 
L 624.718574 537.202852 
L 652.706034 535.040916 
L 680.693495 532.883943 
L 708.680956 530.640309 
L 736.668417 529.180439 
L 764.655878 526.783336 
L 792.643339 525.106241 
L 820.630799 523.676913 
L 848.61826 522.331954 
L 876.605721 520.61172 
L 904.593182 520.004713 
" style="fill:none;stroke:#0652ff;stroke-dasharray:5.55,2.4;stroke-dashoffset:0;stroke-width:1.5;"/>
    <defs>
     <path d="M -2.25 4.5 
L 0 2.25 
L 2.25 4.5 
L 4.5 2.25 
L 2.25 0 
L 4.5 -2.25 
L 2.25 -4.5 
L 0 -2.25 
L -2.25 -4.5 
L -4.5 -2.25 
L -2.25 0 
L -4.5 2.25 
z
" id="mfccafe808d" style="stroke:#000000;stroke-linejoin:miter;"/>
    </defs>
    <g clip-path="url(#pddb7ab4863)">
     <use style="fill:#0652ff;stroke:#000000;stroke-linejoin:miter;" x="92.956818" xlink:href="#mfccafe808d" y="959.76"/>
     <use style="fill:#0652ff;stroke:#000000;stroke-linejoin:miter;" x="120.944279" xlink:href="#mfccafe808d" y="722.981613"/>
     <use style="fill:#0652ff;stroke:#000000;stroke-linejoin:miter;" x="148.93174" xlink:href="#mfccafe808d" y="675.54462"/>
     <use style="fill:#0652ff;stroke:#000000;stroke-linejoin:miter;" x="176.919201" xlink:href="#mfccafe808d" y="648.39959"/>
     <use style="fill:#0652ff;stroke:#000000;stroke-linejoin:miter;" x="204.906661" xlink:href="#mfccafe808d" y="628.981105"/>
     <use style="fill:#0652ff;stroke:#000000;stroke-linejoin:miter;" x="232.894122" xlink:href="#mfccafe808d" y="614.482046"/>
     <use style="fill:#0652ff;stroke:#000000;stroke-linejoin:miter;" x="260.881583" xlink:href="#mfccafe808d" y="602.845081"/>
     <use style="fill:#0652ff;stroke:#000000;stroke-linejoin:miter;" x="288.869044" xlink:href="#mfccafe808d" y="592.698526"/>
     <use style="fill:#0652ff;stroke:#000000;stroke-linejoin:miter;" x="316.856505" xlink:href="#mfccafe808d" y="584.463852"/>
     <use style="fill:#0652ff;stroke:#000000;stroke-linejoin:miter;" x="344.843966" xlink:href="#mfccafe808d" y="577.70699"/>
     <use style="fill:#0652ff;stroke:#000000;stroke-linejoin:miter;" x="372.831426" xlink:href="#mfccafe808d" y="571.367398"/>
     <use style="fill:#0652ff;stroke:#000000;stroke-linejoin:miter;" x="400.818887" xlink:href="#mfccafe808d" y="566.267397"/>
     <use style="fill:#0652ff;stroke:#000000;stroke-linejoin:miter;" x="428.806348" xlink:href="#mfccafe808d" y="561.094479"/>
     <use style="fill:#0652ff;stroke:#000000;stroke-linejoin:miter;" x="456.793809" xlink:href="#mfccafe808d" y="556.330432"/>
     <use style="fill:#0652ff;stroke:#000000;stroke-linejoin:miter;" x="484.78127" xlink:href="#mfccafe808d" y="551.936697"/>
     <use style="fill:#0652ff;stroke:#000000;stroke-linejoin:miter;" x="512.76873" xlink:href="#mfccafe808d" y="548.537841"/>
     <use style="fill:#0652ff;stroke:#000000;stroke-linejoin:miter;" x="540.756191" xlink:href="#mfccafe808d" y="545.450507"/>
     <use style="fill:#0652ff;stroke:#000000;stroke-linejoin:miter;" x="568.743652" xlink:href="#mfccafe808d" y="542.323086"/>
     <use style="fill:#0652ff;stroke:#000000;stroke-linejoin:miter;" x="596.731113" xlink:href="#mfccafe808d" y="539.556816"/>
     <use style="fill:#0652ff;stroke:#000000;stroke-linejoin:miter;" x="624.718574" xlink:href="#mfccafe808d" y="537.202852"/>
     <use style="fill:#0652ff;stroke:#000000;stroke-linejoin:miter;" x="652.706034" xlink:href="#mfccafe808d" y="535.040916"/>
     <use style="fill:#0652ff;stroke:#000000;stroke-linejoin:miter;" x="680.693495" xlink:href="#mfccafe808d" y="532.883943"/>
     <use style="fill:#0652ff;stroke:#000000;stroke-linejoin:miter;" x="708.680956" xlink:href="#mfccafe808d" y="530.640309"/>
     <use style="fill:#0652ff;stroke:#000000;stroke-linejoin:miter;" x="736.668417" xlink:href="#mfccafe808d" y="529.180439"/>
     <use style="fill:#0652ff;stroke:#000000;stroke-linejoin:miter;" x="764.655878" xlink:href="#mfccafe808d" y="526.783336"/>
     <use style="fill:#0652ff;stroke:#000000;stroke-linejoin:miter;" x="792.643339" xlink:href="#mfccafe808d" y="525.106241"/>
     <use style="fill:#0652ff;stroke:#000000;stroke-linejoin:miter;" x="820.630799" xlink:href="#mfccafe808d" y="523.676913"/>
     <use style="fill:#0652ff;stroke:#000000;stroke-linejoin:miter;" x="848.61826" xlink:href="#mfccafe808d" y="522.331954"/>
     <use style="fill:#0652ff;stroke:#000000;stroke-linejoin:miter;" x="876.605721" xlink:href="#mfccafe808d" y="520.61172"/>
     <use style="fill:#0652ff;stroke:#000000;stroke-linejoin:miter;" x="904.593182" xlink:href="#mfccafe808d" y="520.004713"/>
    </g>
   </g>
   <g id="line2d_33">
    <path clip-path="url(#pddb7ab4863)" d="M 92.956818 830.841723 
L 120.944279 491.567409 
L 148.93174 400.465262 
L 176.919201 345.667073 
L 204.906661 304.896462 
L 232.894122 273.326393 
L 260.881583 248.281835 
L 288.869044 227.114865 
L 316.856505 206.598806 
L 344.843966 191.508774 
L 372.831426 176.940616 
L 400.818887 165.074973 
L 428.806348 153.673556 
L 456.793809 143.482717 
L 484.78127 131.699154 
L 512.76873 124.081794 
L 540.756191 117.216129 
L 568.743652 109.201733 
L 596.731113 101.539325 
L 624.718574 96.775277 
L 652.706034 91.490884 
L 680.693495 86.438604 
L 708.680956 80.934695 
L 736.668417 77.813383 
L 764.655878 71.797528 
L 792.643339 69.952457 
L 820.630799 64.766559 
L 848.61826 61.886523 
L 876.605721 58.89921 
L 904.593182 55.224721 
" style="fill:none;stroke:#ae7181;stroke-linecap:square;stroke-width:1.5;"/>
    <defs>
     <path d="M -4.5 4.5 
L 4.5 4.5 
L 4.5 -4.5 
L -4.5 -4.5 
z
" id="m699c4707ff" style="stroke:#000000;stroke-linejoin:miter;"/>
    </defs>
    <g clip-path="url(#pddb7ab4863)">
     <use style="fill:#ae7181;stroke:#000000;stroke-linejoin:miter;" x="92.956818" xlink:href="#m699c4707ff" y="830.841723"/>
     <use style="fill:#ae7181;stroke:#000000;stroke-linejoin:miter;" x="120.944279" xlink:href="#m699c4707ff" y="491.567409"/>
     <use style="fill:#ae7181;stroke:#000000;stroke-linejoin:miter;" x="148.93174" xlink:href="#m699c4707ff" y="400.465262"/>
     <use style="fill:#ae7181;stroke:#000000;stroke-linejoin:miter;" x="176.919201" xlink:href="#m699c4707ff" y="345.667073"/>
     <use style="fill:#ae7181;stroke:#000000;stroke-linejoin:miter;" x="204.906661" xlink:href="#m699c4707ff" y="304.896462"/>
     <use style="fill:#ae7181;stroke:#000000;stroke-linejoin:miter;" x="232.894122" xlink:href="#m699c4707ff" y="273.326393"/>
     <use style="fill:#ae7181;stroke:#000000;stroke-linejoin:miter;" x="260.881583" xlink:href="#m699c4707ff" y="248.281835"/>
     <use style="fill:#ae7181;stroke:#000000;stroke-linejoin:miter;" x="288.869044" xlink:href="#m699c4707ff" y="227.114865"/>
     <use style="fill:#ae7181;stroke:#000000;stroke-linejoin:miter;" x="316.856505" xlink:href="#m699c4707ff" y="206.598806"/>
     <use style="fill:#ae7181;stroke:#000000;stroke-linejoin:miter;" x="344.843966" xlink:href="#m699c4707ff" y="191.508774"/>
     <use style="fill:#ae7181;stroke:#000000;stroke-linejoin:miter;" x="372.831426" xlink:href="#m699c4707ff" y="176.940616"/>
     <use style="fill:#ae7181;stroke:#000000;stroke-linejoin:miter;" x="400.818887" xlink:href="#m699c4707ff" y="165.074973"/>
     <use style="fill:#ae7181;stroke:#000000;stroke-linejoin:miter;" x="428.806348" xlink:href="#m699c4707ff" y="153.673556"/>
     <use style="fill:#ae7181;stroke:#000000;stroke-linejoin:miter;" x="456.793809" xlink:href="#m699c4707ff" y="143.482717"/>
     <use style="fill:#ae7181;stroke:#000000;stroke-linejoin:miter;" x="484.78127" xlink:href="#m699c4707ff" y="131.699154"/>
     <use style="fill:#ae7181;stroke:#000000;stroke-linejoin:miter;" x="512.76873" xlink:href="#m699c4707ff" y="124.081794"/>
     <use style="fill:#ae7181;stroke:#000000;stroke-linejoin:miter;" x="540.756191" xlink:href="#m699c4707ff" y="117.216129"/>
     <use style="fill:#ae7181;stroke:#000000;stroke-linejoin:miter;" x="568.743652" xlink:href="#m699c4707ff" y="109.201733"/>
     <use style="fill:#ae7181;stroke:#000000;stroke-linejoin:miter;" x="596.731113" xlink:href="#m699c4707ff" y="101.539325"/>
     <use style="fill:#ae7181;stroke:#000000;stroke-linejoin:miter;" x="624.718574" xlink:href="#m699c4707ff" y="96.775277"/>
     <use style="fill:#ae7181;stroke:#000000;stroke-linejoin:miter;" x="652.706034" xlink:href="#m699c4707ff" y="91.490884"/>
     <use style="fill:#ae7181;stroke:#000000;stroke-linejoin:miter;" x="680.693495" xlink:href="#m699c4707ff" y="86.438604"/>
     <use style="fill:#ae7181;stroke:#000000;stroke-linejoin:miter;" x="708.680956" xlink:href="#m699c4707ff" y="80.934695"/>
     <use style="fill:#ae7181;stroke:#000000;stroke-linejoin:miter;" x="736.668417" xlink:href="#m699c4707ff" y="77.813383"/>
     <use style="fill:#ae7181;stroke:#000000;stroke-linejoin:miter;" x="764.655878" xlink:href="#m699c4707ff" y="71.797528"/>
     <use style="fill:#ae7181;stroke:#000000;stroke-linejoin:miter;" x="792.643339" xlink:href="#m699c4707ff" y="69.952457"/>
     <use style="fill:#ae7181;stroke:#000000;stroke-linejoin:miter;" x="820.630799" xlink:href="#m699c4707ff" y="64.766559"/>
     <use style="fill:#ae7181;stroke:#000000;stroke-linejoin:miter;" x="848.61826" xlink:href="#m699c4707ff" y="61.886523"/>
     <use style="fill:#ae7181;stroke:#000000;stroke-linejoin:miter;" x="876.605721" xlink:href="#m699c4707ff" y="58.89921"/>
     <use style="fill:#ae7181;stroke:#000000;stroke-linejoin:miter;" x="904.593182" xlink:href="#m699c4707ff" y="55.224721"/>
    </g>
   </g>
   <g id="line2d_34">
    <path clip-path="url(#pddb7ab4863)" d="M 92.956818 914.385302 
L 120.944279 744.748145 
L 148.93174 699.197071 
L 176.919201 671.797977 
L 204.906661 651.412671 
L 232.894122 635.627637 
L 260.881583 623.105358 
L 288.869044 612.521873 
L 316.856505 602.263843 
L 344.843966 594.718827 
L 372.831426 587.434748 
L 400.818887 581.501927 
L 428.806348 575.801219 
L 456.793809 570.705799 
L 484.78127 564.814017 
L 512.76873 561.005337 
L 540.756191 557.572505 
L 568.743652 553.565307 
L 596.731113 549.734103 
L 624.718574 547.352079 
L 652.706034 544.709882 
L 680.693495 542.183742 
L 708.680956 539.431788 
L 736.668417 537.871132 
L 764.655878 534.863204 
L 792.643339 533.940669 
L 820.630799 531.34772 
L 848.61826 529.907702 
L 876.605721 528.414046 
L 904.593182 526.576801 
" style="fill:none;stroke:#ae7181;stroke-dasharray:5.55,2.4;stroke-dashoffset:0;stroke-width:1.5;"/>
    <defs>
     <path d="M 0 -4.5 
L -1.010313 -1.390576 
L -4.279754 -1.390576 
L -1.634721 0.531153 
L -2.645034 3.640576 
L -0 1.718847 
L 2.645034 3.640576 
L 1.634721 0.531153 
L 4.279754 -1.390576 
L 1.010313 -1.390576 
z
" id="m4d7095b1ae" style="stroke:#000000;stroke-linejoin:bevel;"/>
    </defs>
    <g clip-path="url(#pddb7ab4863)">
     <use style="fill:#ae7181;stroke:#000000;stroke-linejoin:bevel;" x="92.956818" xlink:href="#m4d7095b1ae" y="914.385302"/>
     <use style="fill:#ae7181;stroke:#000000;stroke-linejoin:bevel;" x="120.944279" xlink:href="#m4d7095b1ae" y="744.748145"/>
     <use style="fill:#ae7181;stroke:#000000;stroke-linejoin:bevel;" x="148.93174" xlink:href="#m4d7095b1ae" y="699.197071"/>
     <use style="fill:#ae7181;stroke:#000000;stroke-linejoin:bevel;" x="176.919201" xlink:href="#m4d7095b1ae" y="671.797977"/>
     <use style="fill:#ae7181;stroke:#000000;stroke-linejoin:bevel;" x="204.906661" xlink:href="#m4d7095b1ae" y="651.412671"/>
     <use style="fill:#ae7181;stroke:#000000;stroke-linejoin:bevel;" x="232.894122" xlink:href="#m4d7095b1ae" y="635.627637"/>
     <use style="fill:#ae7181;stroke:#000000;stroke-linejoin:bevel;" x="260.881583" xlink:href="#m4d7095b1ae" y="623.105358"/>
     <use style="fill:#ae7181;stroke:#000000;stroke-linejoin:bevel;" x="288.869044" xlink:href="#m4d7095b1ae" y="612.521873"/>
     <use style="fill:#ae7181;stroke:#000000;stroke-linejoin:bevel;" x="316.856505" xlink:href="#m4d7095b1ae" y="602.263843"/>
     <use style="fill:#ae7181;stroke:#000000;stroke-linejoin:bevel;" x="344.843966" xlink:href="#m4d7095b1ae" y="594.718827"/>
     <use style="fill:#ae7181;stroke:#000000;stroke-linejoin:bevel;" x="372.831426" xlink:href="#m4d7095b1ae" y="587.434748"/>
     <use style="fill:#ae7181;stroke:#000000;stroke-linejoin:bevel;" x="400.818887" xlink:href="#m4d7095b1ae" y="581.501927"/>
     <use style="fill:#ae7181;stroke:#000000;stroke-linejoin:bevel;" x="428.806348" xlink:href="#m4d7095b1ae" y="575.801219"/>
     <use style="fill:#ae7181;stroke:#000000;stroke-linejoin:bevel;" x="456.793809" xlink:href="#m4d7095b1ae" y="570.705799"/>
     <use style="fill:#ae7181;stroke:#000000;stroke-linejoin:bevel;" x="484.78127" xlink:href="#m4d7095b1ae" y="564.814017"/>
     <use style="fill:#ae7181;stroke:#000000;stroke-linejoin:bevel;" x="512.76873" xlink:href="#m4d7095b1ae" y="561.005337"/>
     <use style="fill:#ae7181;stroke:#000000;stroke-linejoin:bevel;" x="540.756191" xlink:href="#m4d7095b1ae" y="557.572505"/>
     <use style="fill:#ae7181;stroke:#000000;stroke-linejoin:bevel;" x="568.743652" xlink:href="#m4d7095b1ae" y="553.565307"/>
     <use style="fill:#ae7181;stroke:#000000;stroke-linejoin:bevel;" x="596.731113" xlink:href="#m4d7095b1ae" y="549.734103"/>
     <use style="fill:#ae7181;stroke:#000000;stroke-linejoin:bevel;" x="624.718574" xlink:href="#m4d7095b1ae" y="547.352079"/>
     <use style="fill:#ae7181;stroke:#000000;stroke-linejoin:bevel;" x="652.706034" xlink:href="#m4d7095b1ae" y="544.709882"/>
     <use style="fill:#ae7181;stroke:#000000;stroke-linejoin:bevel;" x="680.693495" xlink:href="#m4d7095b1ae" y="542.183742"/>
     <use style="fill:#ae7181;stroke:#000000;stroke-linejoin:bevel;" x="708.680956" xlink:href="#m4d7095b1ae" y="539.431788"/>
     <use style="fill:#ae7181;stroke:#000000;stroke-linejoin:bevel;" x="736.668417" xlink:href="#m4d7095b1ae" y="537.871132"/>
     <use style="fill:#ae7181;stroke:#000000;stroke-linejoin:bevel;" x="764.655878" xlink:href="#m4d7095b1ae" y="534.863204"/>
     <use style="fill:#ae7181;stroke:#000000;stroke-linejoin:bevel;" x="792.643339" xlink:href="#m4d7095b1ae" y="533.940669"/>
     <use style="fill:#ae7181;stroke:#000000;stroke-linejoin:bevel;" x="820.630799" xlink:href="#m4d7095b1ae" y="531.34772"/>
     <use style="fill:#ae7181;stroke:#000000;stroke-linejoin:bevel;" x="848.61826" xlink:href="#m4d7095b1ae" y="529.907702"/>
     <use style="fill:#ae7181;stroke:#000000;stroke-linejoin:bevel;" x="876.605721" xlink:href="#m4d7095b1ae" y="528.414046"/>
     <use style="fill:#ae7181;stroke:#000000;stroke-linejoin:bevel;" x="904.593182" xlink:href="#m4d7095b1ae" y="526.576801"/>
    </g>
   </g>
   <g id="patch_3">
    <path d="M 52.375 1005.12 
L 52.375 7.2 
" style="fill:none;stroke:#000000;stroke-linecap:square;stroke-linejoin:miter;stroke-width:0.8;"/>
   </g>
   <g id="patch_4">
    <path d="M 945.175 1005.12 
L 945.175 7.2 
" style="fill:none;stroke:#000000;stroke-linecap:square;stroke-linejoin:miter;stroke-width:0.8;"/>
   </g>
   <g id="patch_5">
    <path d="M 52.375 1005.12 
L 945.175 1005.12 
" style="fill:none;stroke:#000000;stroke-linecap:square;stroke-linejoin:miter;stroke-width:0.8;"/>
   </g>
   <g id="patch_6">
    <path d="M 52.375 7.2 
L 945.175 7.2 
" style="fill:none;stroke:#000000;stroke-linecap:square;stroke-linejoin:miter;stroke-width:0.8;"/>
   </g>
  </g>
 </g>
 <defs>
  <clipPath id="pddb7ab4863">
   <rect height="997.92" width="892.8" x="52.375" y="7.2"/>
  </clipPath>
 </defs>
</svg>
