<?xml version="1.0" encoding="utf-8" standalone="no"?>
<!DOCTYPE svg PUBLIC "-//W3C//DTD SVG 1.1//EN"
  "http://www.w3.org/Graphics/SVG/1.1/DTD/svg11.dtd">
<!-- Created with matplotlib (https://matplotlib.org/) -->
<svg height="1090.099062pt" version="1.1" viewBox="0 0 958.657578 1090.099062" width="958.657578pt" xmlns="http://www.w3.org/2000/svg" xmlns:xlink="http://www.w3.org/1999/xlink">
 <metadata>
  <rdf:RDF xmlns:cc="http://creativecommons.org/ns#" xmlns:dc="http://purl.org/dc/elements/1.1/" xmlns:rdf="http://www.w3.org/1999/02/22-rdf-syntax-ns#">
   <cc:Work>
    <dc:type rdf:resource="http://purl.org/dc/dcmitype/StillImage"/>
    <dc:date>2021-05-06T13:38:46.039706</dc:date>
    <dc:format>image/svg+xml</dc:format>
    <dc:creator>
     <cc:Agent>
      <dc:title>Matplotlib v3.3.2, https://matplotlib.org/</dc:title>
     </cc:Agent>
    </dc:creator>
   </cc:Work>
  </rdf:RDF>
 </metadata>
 <defs>
  <style type="text/css">*{stroke-linecap:butt;stroke-linejoin:round;}</style>
 </defs>
 <g id="figure_1">
  <g id="patch_1">
   <path d="M 0 1090.099062 
L 958.657578 1090.099062 
L 958.657578 0 
L 0 0 
z
" style="fill:#ffffff;"/>
  </g>
  <g id="axes_1">
   <g id="patch_2">
    <path d="M 52.375 1005.12 
L 945.175 1005.12 
L 945.175 7.2 
L 52.375 7.2 
z
" style="fill:#ffffff;"/>
   </g>
   <g id="PolyCollection_1">
    <defs>
     <path d="M 92.956818 -287.199816 
L 92.956818 -229.318883 
L 135.674522 -298.77555 
L 178.392225 -347.413163 
L 221.109928 -378.399473 
L 263.827632 -394.141067 
L 306.545335 -420.765889 
L 349.263038 -444.068375 
L 391.980742 -444.528326 
L 434.698445 -459.216227 
L 477.416148 -482.396287 
L 520.133852 -492.841981 
L 562.851555 -500.600222 
L 605.569258 -507.452919 
L 648.286962 -508.98414 
L 691.004665 -510.908435 
L 733.722368 -521.547706 
L 776.440072 -522.213519 
L 819.157775 -538.424303 
L 861.875478 -543.814325 
L 904.593182 -544.489616 
L 904.593182 -591.510411 
L 904.593182 -591.510411 
L 861.875478 -590.846116 
L 819.157775 -580.175862 
L 776.440072 -575.305618 
L 733.722368 -576.63099 
L 691.004665 -557.30886 
L 648.286962 -563.885258 
L 605.569258 -552.251864 
L 562.851555 -530.913216 
L 520.133852 -536.937507 
L 477.416148 -522.304319 
L 434.698445 -517.710757 
L 391.980742 -492.283149 
L 349.263038 -477.609048 
L 306.545335 -478.602447 
L 263.827632 -458.789944 
L 221.109928 -424.659577 
L 178.392225 -397.192263 
L 135.674522 -356.826033 
L 92.956818 -287.199816 
z
" id="meb16d39cb8" style="stroke:#fe0002;stroke-opacity:0.3;"/>
    </defs>
    <g clip-path="url(#pd48a68aa9b)">
     <use style="fill:#fe0002;fill-opacity:0.3;stroke:#fe0002;stroke-opacity:0.3;" x="0" xlink:href="#meb16d39cb8" y="1090.099062"/>
    </g>
   </g>
   <g id="PolyCollection_2">
    <g clip-path="url(#pd48a68aa9b)">
     <use style="fill:#fe0002;fill-opacity:0.3;stroke:#fe0002;stroke-opacity:0.3;" x="0" xlink:href="#meb16d39cb8" y="1090.099062"/>
    </g>
   </g>
   <g id="PolyCollection_3">
    <defs>
     <path d="M 92.956818 -464.724176 
L 92.956818 -391.43116 
L 135.674522 -516.219861 
L 178.392225 -579.45857 
L 221.109928 -627.369785 
L 263.827632 -655.056234 
L 306.545335 -680.81762 
L 349.263038 -732.166501 
L 391.980742 -742.890704 
L 434.698445 -756.491343 
L 477.416148 -770.271024 
L 520.133852 -787.425031 
L 562.851555 -808.293094 
L 605.569258 -809.159367 
L 648.286962 -819.893901 
L 691.004665 -849.588896 
L 733.722368 -840.257349 
L 776.440072 -860.306198 
L 819.157775 -862.426994 
L 861.875478 -869.926721 
L 904.593182 -878.963118 
L 904.593182 -925.582573 
L 904.593182 -925.582573 
L 861.875478 -913.744286 
L 819.157775 -917.180276 
L 776.440072 -907.890677 
L 733.722368 -894.657361 
L 691.004665 -883.406549 
L 648.286962 -873.889689 
L 605.569258 -856.757687 
L 562.851555 -845.067822 
L 520.133852 -828.001791 
L 477.416148 -829.273084 
L 434.698445 -814.637308 
L 391.980742 -792.765382 
L 349.263038 -760.382468 
L 306.545335 -753.297078 
L 263.827632 -714.949812 
L 221.109928 -675.715504 
L 178.392225 -627.463975 
L 135.674522 -570.523292 
L 92.956818 -464.724176 
z
" id="m74bb22c179" style="stroke:#53fca1;stroke-opacity:0.3;"/>
    </defs>
    <g clip-path="url(#pd48a68aa9b)">
     <use style="fill:#53fca1;fill-opacity:0.3;stroke:#53fca1;stroke-opacity:0.3;" x="0" xlink:href="#m74bb22c179" y="1090.099062"/>
    </g>
   </g>
   <g id="PolyCollection_4">
    <defs>
     <path d="M 92.956818 -143.810364 
L 92.956818 -130.339063 
L 135.674522 -188.554574 
L 178.392225 -227.573163 
L 221.109928 -252.074921 
L 263.827632 -272.753348 
L 306.545335 -286.387775 
L 349.263038 -300.848705 
L 391.980742 -310.178865 
L 434.698445 -319.015255 
L 477.416148 -329.155955 
L 520.133852 -336.610889 
L 562.851555 -343.154784 
L 605.569258 -352.691303 
L 648.286962 -358.575014 
L 691.004665 -362.41157 
L 733.722368 -367.571828 
L 776.440072 -373.548798 
L 819.157775 -377.117633 
L 861.875478 -381.798924 
L 904.593182 -385.279671 
L 904.593182 -389.153477 
L 904.593182 -389.153477 
L 861.875478 -385.288656 
L 819.157775 -381.266294 
L 776.440072 -377.421237 
L 733.722368 -371.046335 
L 691.004665 -367.799756 
L 648.286962 -360.668067 
L 605.569258 -354.837789 
L 562.851555 -349.539017 
L 520.133852 -342.348696 
L 477.416148 -334.815597 
L 434.698445 -326.33514 
L 391.980742 -315.957649 
L 349.263038 -304.564388 
L 306.545335 -293.834957 
L 263.827632 -277.879792 
L 221.109928 -257.259992 
L 178.392225 -234.205235 
L 135.674522 -203.023959 
L 92.956818 -143.810364 
z
" id="m6fb08c330f" style="stroke:#53fca1;stroke-opacity:0.3;"/>
    </defs>
    <g clip-path="url(#pd48a68aa9b)">
     <use style="fill:#53fca1;fill-opacity:0.3;stroke:#53fca1;stroke-opacity:0.3;" x="0" xlink:href="#m6fb08c330f" y="1090.099062"/>
    </g>
   </g>
   <g id="PolyCollection_5">
    <defs>
     <path d="M 92.956818 -490.525144 
L 92.956818 -420.200382 
L 135.674522 -554.555086 
L 178.392225 -630.201633 
L 221.109928 -695.065378 
L 263.827632 -721.096906 
L 306.545335 -750.434265 
L 349.263038 -805.932759 
L 391.980742 -817.898735 
L 434.698445 -838.58508 
L 477.416148 -853.596762 
L 520.133852 -874.326925 
L 562.851555 -899.658337 
L 605.569258 -906.511436 
L 648.286962 -916.980006 
L 691.004665 -938.36605 
L 733.722368 -943.569399 
L 776.440072 -962.460598 
L 819.157775 -974.040198 
L 861.875478 -978.33494 
L 904.593182 -988.06951 
L 904.593182 -1037.539062 
L 904.593182 -1037.539062 
L 861.875478 -1022.71576 
L 819.157775 -1021.762727 
L 776.440072 -1013.438592 
L 733.722368 -999.146964 
L 691.004665 -987.030288 
L 648.286962 -970.801373 
L 605.569258 -953.125949 
L 562.851555 -941.838834 
L 520.133852 -914.98822 
L 477.416148 -913.981774 
L 434.698445 -890.276119 
L 391.980742 -867.657257 
L 349.263038 -841.099043 
L 306.545335 -826.240776 
L 263.827632 -780.642535 
L 221.109928 -733.388557 
L 178.392225 -678.939651 
L 135.674522 -623.212608 
L 92.956818 -490.525144 
z
" id="m6efc865e79" style="stroke:#0652ff;stroke-opacity:0.3;"/>
    </defs>
    <g clip-path="url(#pd48a68aa9b)">
     <use style="fill:#0652ff;fill-opacity:0.3;stroke:#0652ff;stroke-opacity:0.3;" x="0" xlink:href="#m6efc865e79" y="1090.099062"/>
    </g>
   </g>
   <g id="PolyCollection_6">
    <defs>
     <path d="M 92.956818 -190.845758 
L 92.956818 -175.205348 
L 135.674522 -252.312105 
L 178.392225 -292.158749 
L 221.109928 -327.96814 
L 263.827632 -353.268688 
L 306.545335 -370.105708 
L 349.263038 -393.160202 
L 391.980742 -407.300182 
L 434.698445 -419.35061 
L 477.416148 -431.529237 
L 520.133852 -444.635945 
L 562.851555 -451.802987 
L 605.569258 -460.811575 
L 648.286962 -469.947038 
L 691.004665 -475.106069 
L 733.722368 -484.360311 
L 776.440072 -492.294478 
L 819.157775 -499.632382 
L 861.875478 -504.245661 
L 904.593182 -509.764957 
L 904.593182 -515.965374 
L 904.593182 -515.965374 
L 861.875478 -508.017021 
L 819.157775 -501.816568 
L 776.440072 -495.817988 
L 733.722368 -489.317661 
L 691.004665 -481.424589 
L 648.286962 -475.046778 
L 605.569258 -467.778709 
L 562.851555 -459.717885 
L 520.133852 -450.479421 
L 477.416148 -437.537522 
L 434.698445 -426.17992 
L 391.980742 -414.371206 
L 349.263038 -399.380653 
L 306.545335 -384.864669 
L 263.827632 -362.89527 
L 221.109928 -339.352123 
L 178.392225 -306.116947 
L 135.674522 -265.859139 
L 92.956818 -190.845758 
z
" id="me787216f9d" style="stroke:#0652ff;stroke-opacity:0.3;"/>
    </defs>
    <g clip-path="url(#pd48a68aa9b)">
     <use style="fill:#0652ff;fill-opacity:0.3;stroke:#0652ff;stroke-opacity:0.3;" x="0" xlink:href="#me787216f9d" y="1090.099062"/>
    </g>
   </g>
   <g id="matplotlib.axis_1">
    <g id="xtick_1">
     <g id="line2d_1">
      <path clip-path="url(#pd48a68aa9b)" d="M 220.255574 1005.12 
L 220.255574 7.2 
" style="fill:none;stroke:#b0b0b0;stroke-linecap:square;stroke-width:0.8;"/>
     </g>
     <g id="line2d_2">
      <defs>
       <path d="M 0 0 
L 0 3.5 
" id="m5f0ee56a30" style="stroke:#000000;stroke-width:0.8;"/>
      </defs>
      <g>
       <use style="stroke:#000000;stroke-width:0.8;" x="220.255574" xlink:href="#m5f0ee56a30" y="1005.12"/>
      </g>
     </g>
     <g id="text_1">
      <!-- 2000 -->
      <g transform="translate(182.080574 1034.915313)scale(0.3 -0.3)">
       <defs>
        <path d="M 19.1875 8.296875 
L 53.609375 8.296875 
L 53.609375 0 
L 7.328125 0 
L 7.328125 8.296875 
Q 12.9375 14.109375 22.625 23.890625 
Q 32.328125 33.6875 34.8125 36.53125 
Q 39.546875 41.84375 41.421875 45.53125 
Q 43.3125 49.21875 43.3125 52.78125 
Q 43.3125 58.59375 39.234375 62.25 
Q 35.15625 65.921875 28.609375 65.921875 
Q 23.96875 65.921875 18.8125 64.3125 
Q 13.671875 62.703125 7.8125 59.421875 
L 7.8125 69.390625 
Q 13.765625 71.78125 18.9375 73 
Q 24.125 74.21875 28.421875 74.21875 
Q 39.75 74.21875 46.484375 68.546875 
Q 53.21875 62.890625 53.21875 53.421875 
Q 53.21875 48.921875 51.53125 44.890625 
Q 49.859375 40.875 45.40625 35.40625 
Q 44.1875 33.984375 37.640625 27.21875 
Q 31.109375 20.453125 19.1875 8.296875 
z
" id="DejaVuSans-50"/>
        <path d="M 31.78125 66.40625 
Q 24.171875 66.40625 20.328125 58.90625 
Q 16.5 51.421875 16.5 36.375 
Q 16.5 21.390625 20.328125 13.890625 
Q 24.171875 6.390625 31.78125 6.390625 
Q 39.453125 6.390625 43.28125 13.890625 
Q 47.125 21.390625 47.125 36.375 
Q 47.125 51.421875 43.28125 58.90625 
Q 39.453125 66.40625 31.78125 66.40625 
z
M 31.78125 74.21875 
Q 44.046875 74.21875 50.515625 64.515625 
Q 56.984375 54.828125 56.984375 36.375 
Q 56.984375 17.96875 50.515625 8.265625 
Q 44.046875 -1.421875 31.78125 -1.421875 
Q 19.53125 -1.421875 13.0625 8.265625 
Q 6.59375 17.96875 6.59375 36.375 
Q 6.59375 54.828125 13.0625 64.515625 
Q 19.53125 74.21875 31.78125 74.21875 
z
" id="DejaVuSans-48"/>
       </defs>
       <use xlink:href="#DejaVuSans-50"/>
       <use x="63.623047" xlink:href="#DejaVuSans-48"/>
       <use x="127.246094" xlink:href="#DejaVuSans-48"/>
       <use x="190.869141" xlink:href="#DejaVuSans-48"/>
      </g>
     </g>
    </g>
    <g id="xtick_2">
     <g id="line2d_3">
      <path clip-path="url(#pd48a68aa9b)" d="M 391.126388 1005.12 
L 391.126388 7.2 
" style="fill:none;stroke:#b0b0b0;stroke-linecap:square;stroke-width:0.8;"/>
     </g>
     <g id="line2d_4">
      <g>
       <use style="stroke:#000000;stroke-width:0.8;" x="391.126388" xlink:href="#m5f0ee56a30" y="1005.12"/>
      </g>
     </g>
     <g id="text_2">
      <!-- 4000 -->
      <g transform="translate(352.951388 1034.915313)scale(0.3 -0.3)">
       <defs>
        <path d="M 37.796875 64.3125 
L 12.890625 25.390625 
L 37.796875 25.390625 
z
M 35.203125 72.90625 
L 47.609375 72.90625 
L 47.609375 25.390625 
L 58.015625 25.390625 
L 58.015625 17.1875 
L 47.609375 17.1875 
L 47.609375 0 
L 37.796875 0 
L 37.796875 17.1875 
L 4.890625 17.1875 
L 4.890625 26.703125 
z
" id="DejaVuSans-52"/>
       </defs>
       <use xlink:href="#DejaVuSans-52"/>
       <use x="63.623047" xlink:href="#DejaVuSans-48"/>
       <use x="127.246094" xlink:href="#DejaVuSans-48"/>
       <use x="190.869141" xlink:href="#DejaVuSans-48"/>
      </g>
     </g>
    </g>
    <g id="xtick_3">
     <g id="line2d_5">
      <path clip-path="url(#pd48a68aa9b)" d="M 561.997201 1005.12 
L 561.997201 7.2 
" style="fill:none;stroke:#b0b0b0;stroke-linecap:square;stroke-width:0.8;"/>
     </g>
     <g id="line2d_6">
      <g>
       <use style="stroke:#000000;stroke-width:0.8;" x="561.997201" xlink:href="#m5f0ee56a30" y="1005.12"/>
      </g>
     </g>
     <g id="text_3">
      <!-- 6000 -->
      <g transform="translate(523.822201 1034.915313)scale(0.3 -0.3)">
       <defs>
        <path d="M 33.015625 40.375 
Q 26.375 40.375 22.484375 35.828125 
Q 18.609375 31.296875 18.609375 23.390625 
Q 18.609375 15.53125 22.484375 10.953125 
Q 26.375 6.390625 33.015625 6.390625 
Q 39.65625 6.390625 43.53125 10.953125 
Q 47.40625 15.53125 47.40625 23.390625 
Q 47.40625 31.296875 43.53125 35.828125 
Q 39.65625 40.375 33.015625 40.375 
z
M 52.59375 71.296875 
L 52.59375 62.3125 
Q 48.875 64.0625 45.09375 64.984375 
Q 41.3125 65.921875 37.59375 65.921875 
Q 27.828125 65.921875 22.671875 59.328125 
Q 17.53125 52.734375 16.796875 39.40625 
Q 19.671875 43.65625 24.015625 45.921875 
Q 28.375 48.1875 33.59375 48.1875 
Q 44.578125 48.1875 50.953125 41.515625 
Q 57.328125 34.859375 57.328125 23.390625 
Q 57.328125 12.15625 50.6875 5.359375 
Q 44.046875 -1.421875 33.015625 -1.421875 
Q 20.359375 -1.421875 13.671875 8.265625 
Q 6.984375 17.96875 6.984375 36.375 
Q 6.984375 53.65625 15.1875 63.9375 
Q 23.390625 74.21875 37.203125 74.21875 
Q 40.921875 74.21875 44.703125 73.484375 
Q 48.484375 72.75 52.59375 71.296875 
z
" id="DejaVuSans-54"/>
       </defs>
       <use xlink:href="#DejaVuSans-54"/>
       <use x="63.623047" xlink:href="#DejaVuSans-48"/>
       <use x="127.246094" xlink:href="#DejaVuSans-48"/>
       <use x="190.869141" xlink:href="#DejaVuSans-48"/>
      </g>
     </g>
    </g>
    <g id="xtick_4">
     <g id="line2d_7">
      <path clip-path="url(#pd48a68aa9b)" d="M 732.868014 1005.12 
L 732.868014 7.2 
" style="fill:none;stroke:#b0b0b0;stroke-linecap:square;stroke-width:0.8;"/>
     </g>
     <g id="line2d_8">
      <g>
       <use style="stroke:#000000;stroke-width:0.8;" x="732.868014" xlink:href="#m5f0ee56a30" y="1005.12"/>
      </g>
     </g>
     <g id="text_4">
      <!-- 8000 -->
      <g transform="translate(694.693014 1034.915313)scale(0.3 -0.3)">
       <defs>
        <path d="M 31.78125 34.625 
Q 24.75 34.625 20.71875 30.859375 
Q 16.703125 27.09375 16.703125 20.515625 
Q 16.703125 13.921875 20.71875 10.15625 
Q 24.75 6.390625 31.78125 6.390625 
Q 38.8125 6.390625 42.859375 10.171875 
Q 46.921875 13.96875 46.921875 20.515625 
Q 46.921875 27.09375 42.890625 30.859375 
Q 38.875 34.625 31.78125 34.625 
z
M 21.921875 38.8125 
Q 15.578125 40.375 12.03125 44.71875 
Q 8.5 49.078125 8.5 55.328125 
Q 8.5 64.0625 14.71875 69.140625 
Q 20.953125 74.21875 31.78125 74.21875 
Q 42.671875 74.21875 48.875 69.140625 
Q 55.078125 64.0625 55.078125 55.328125 
Q 55.078125 49.078125 51.53125 44.71875 
Q 48 40.375 41.703125 38.8125 
Q 48.828125 37.15625 52.796875 32.3125 
Q 56.78125 27.484375 56.78125 20.515625 
Q 56.78125 9.90625 50.3125 4.234375 
Q 43.84375 -1.421875 31.78125 -1.421875 
Q 19.734375 -1.421875 13.25 4.234375 
Q 6.78125 9.90625 6.78125 20.515625 
Q 6.78125 27.484375 10.78125 32.3125 
Q 14.796875 37.15625 21.921875 38.8125 
z
M 18.3125 54.390625 
Q 18.3125 48.734375 21.84375 45.5625 
Q 25.390625 42.390625 31.78125 42.390625 
Q 38.140625 42.390625 41.71875 45.5625 
Q 45.3125 48.734375 45.3125 54.390625 
Q 45.3125 60.0625 41.71875 63.234375 
Q 38.140625 66.40625 31.78125 66.40625 
Q 25.390625 66.40625 21.84375 63.234375 
Q 18.3125 60.0625 18.3125 54.390625 
z
" id="DejaVuSans-56"/>
       </defs>
       <use xlink:href="#DejaVuSans-56"/>
       <use x="63.623047" xlink:href="#DejaVuSans-48"/>
       <use x="127.246094" xlink:href="#DejaVuSans-48"/>
       <use x="190.869141" xlink:href="#DejaVuSans-48"/>
      </g>
     </g>
    </g>
    <g id="xtick_5">
     <g id="line2d_9">
      <path clip-path="url(#pd48a68aa9b)" d="M 903.738828 1005.12 
L 903.738828 7.2 
" style="fill:none;stroke:#b0b0b0;stroke-linecap:square;stroke-width:0.8;"/>
     </g>
     <g id="line2d_10">
      <g>
       <use style="stroke:#000000;stroke-width:0.8;" x="903.738828" xlink:href="#m5f0ee56a30" y="1005.12"/>
      </g>
     </g>
     <g id="text_5">
      <!-- 10000 -->
      <g transform="translate(856.020078 1034.915313)scale(0.3 -0.3)">
       <defs>
        <path d="M 12.40625 8.296875 
L 28.515625 8.296875 
L 28.515625 63.921875 
L 10.984375 60.40625 
L 10.984375 69.390625 
L 28.421875 72.90625 
L 38.28125 72.90625 
L 38.28125 8.296875 
L 54.390625 8.296875 
L 54.390625 0 
L 12.40625 0 
z
" id="DejaVuSans-49"/>
       </defs>
       <use xlink:href="#DejaVuSans-49"/>
       <use x="63.623047" xlink:href="#DejaVuSans-48"/>
       <use x="127.246094" xlink:href="#DejaVuSans-48"/>
       <use x="190.869141" xlink:href="#DejaVuSans-48"/>
       <use x="254.492188" xlink:href="#DejaVuSans-48"/>
      </g>
     </g>
    </g>
    <g id="text_6">
     <!-- Graph size -->
     <g transform="translate(394.955781 1074.788281)scale(0.39 -0.39)">
      <defs>
       <path d="M 59.515625 10.40625 
L 59.515625 29.984375 
L 43.40625 29.984375 
L 43.40625 38.09375 
L 69.28125 38.09375 
L 69.28125 6.78125 
Q 63.578125 2.734375 56.6875 0.65625 
Q 49.8125 -1.421875 42 -1.421875 
Q 24.90625 -1.421875 15.25 8.5625 
Q 5.609375 18.5625 5.609375 36.375 
Q 5.609375 54.25 15.25 64.234375 
Q 24.90625 74.21875 42 74.21875 
Q 49.125 74.21875 55.546875 72.453125 
Q 61.96875 70.703125 67.390625 67.28125 
L 67.390625 56.78125 
Q 61.921875 61.421875 55.765625 63.765625 
Q 49.609375 66.109375 42.828125 66.109375 
Q 29.4375 66.109375 22.71875 58.640625 
Q 16.015625 51.171875 16.015625 36.375 
Q 16.015625 21.625 22.71875 14.15625 
Q 29.4375 6.6875 42.828125 6.6875 
Q 48.046875 6.6875 52.140625 7.59375 
Q 56.25 8.5 59.515625 10.40625 
z
" id="DejaVuSans-71"/>
       <path d="M 41.109375 46.296875 
Q 39.59375 47.171875 37.8125 47.578125 
Q 36.03125 48 33.890625 48 
Q 26.265625 48 22.1875 43.046875 
Q 18.109375 38.09375 18.109375 28.8125 
L 18.109375 0 
L 9.078125 0 
L 9.078125 54.6875 
L 18.109375 54.6875 
L 18.109375 46.1875 
Q 20.953125 51.171875 25.484375 53.578125 
Q 30.03125 56 36.53125 56 
Q 37.453125 56 38.578125 55.875 
Q 39.703125 55.765625 41.0625 55.515625 
z
" id="DejaVuSans-114"/>
       <path d="M 34.28125 27.484375 
Q 23.390625 27.484375 19.1875 25 
Q 14.984375 22.515625 14.984375 16.5 
Q 14.984375 11.71875 18.140625 8.90625 
Q 21.296875 6.109375 26.703125 6.109375 
Q 34.1875 6.109375 38.703125 11.40625 
Q 43.21875 16.703125 43.21875 25.484375 
L 43.21875 27.484375 
z
M 52.203125 31.203125 
L 52.203125 0 
L 43.21875 0 
L 43.21875 8.296875 
Q 40.140625 3.328125 35.546875 0.953125 
Q 30.953125 -1.421875 24.3125 -1.421875 
Q 15.921875 -1.421875 10.953125 3.296875 
Q 6 8.015625 6 15.921875 
Q 6 25.140625 12.171875 29.828125 
Q 18.359375 34.515625 30.609375 34.515625 
L 43.21875 34.515625 
L 43.21875 35.40625 
Q 43.21875 41.609375 39.140625 45 
Q 35.0625 48.390625 27.6875 48.390625 
Q 23 48.390625 18.546875 47.265625 
Q 14.109375 46.140625 10.015625 43.890625 
L 10.015625 52.203125 
Q 14.9375 54.109375 19.578125 55.046875 
Q 24.21875 56 28.609375 56 
Q 40.484375 56 46.34375 49.84375 
Q 52.203125 43.703125 52.203125 31.203125 
z
" id="DejaVuSans-97"/>
       <path d="M 18.109375 8.203125 
L 18.109375 -20.796875 
L 9.078125 -20.796875 
L 9.078125 54.6875 
L 18.109375 54.6875 
L 18.109375 46.390625 
Q 20.953125 51.265625 25.265625 53.625 
Q 29.59375 56 35.59375 56 
Q 45.5625 56 51.78125 48.09375 
Q 58.015625 40.1875 58.015625 27.296875 
Q 58.015625 14.40625 51.78125 6.484375 
Q 45.5625 -1.421875 35.59375 -1.421875 
Q 29.59375 -1.421875 25.265625 0.953125 
Q 20.953125 3.328125 18.109375 8.203125 
z
M 48.6875 27.296875 
Q 48.6875 37.203125 44.609375 42.84375 
Q 40.53125 48.484375 33.40625 48.484375 
Q 26.265625 48.484375 22.1875 42.84375 
Q 18.109375 37.203125 18.109375 27.296875 
Q 18.109375 17.390625 22.1875 11.75 
Q 26.265625 6.109375 33.40625 6.109375 
Q 40.53125 6.109375 44.609375 11.75 
Q 48.6875 17.390625 48.6875 27.296875 
z
" id="DejaVuSans-112"/>
       <path d="M 54.890625 33.015625 
L 54.890625 0 
L 45.90625 0 
L 45.90625 32.71875 
Q 45.90625 40.484375 42.875 44.328125 
Q 39.84375 48.1875 33.796875 48.1875 
Q 26.515625 48.1875 22.3125 43.546875 
Q 18.109375 38.921875 18.109375 30.90625 
L 18.109375 0 
L 9.078125 0 
L 9.078125 75.984375 
L 18.109375 75.984375 
L 18.109375 46.1875 
Q 21.34375 51.125 25.703125 53.5625 
Q 30.078125 56 35.796875 56 
Q 45.21875 56 50.046875 50.171875 
Q 54.890625 44.34375 54.890625 33.015625 
z
" id="DejaVuSans-104"/>
       <path id="DejaVuSans-32"/>
       <path d="M 44.28125 53.078125 
L 44.28125 44.578125 
Q 40.484375 46.53125 36.375 47.5 
Q 32.28125 48.484375 27.875 48.484375 
Q 21.1875 48.484375 17.84375 46.4375 
Q 14.5 44.390625 14.5 40.28125 
Q 14.5 37.15625 16.890625 35.375 
Q 19.28125 33.59375 26.515625 31.984375 
L 29.59375 31.296875 
Q 39.15625 29.25 43.1875 25.515625 
Q 47.21875 21.78125 47.21875 15.09375 
Q 47.21875 7.46875 41.1875 3.015625 
Q 35.15625 -1.421875 24.609375 -1.421875 
Q 20.21875 -1.421875 15.453125 -0.5625 
Q 10.6875 0.296875 5.421875 2 
L 5.421875 11.28125 
Q 10.40625 8.6875 15.234375 7.390625 
Q 20.0625 6.109375 24.8125 6.109375 
Q 31.15625 6.109375 34.5625 8.28125 
Q 37.984375 10.453125 37.984375 14.40625 
Q 37.984375 18.0625 35.515625 20.015625 
Q 33.0625 21.96875 24.703125 23.78125 
L 21.578125 24.515625 
Q 13.234375 26.265625 9.515625 29.90625 
Q 5.8125 33.546875 5.8125 39.890625 
Q 5.8125 47.609375 11.28125 51.796875 
Q 16.75 56 26.8125 56 
Q 31.78125 56 36.171875 55.265625 
Q 40.578125 54.546875 44.28125 53.078125 
z
" id="DejaVuSans-115"/>
       <path d="M 9.421875 54.6875 
L 18.40625 54.6875 
L 18.40625 0 
L 9.421875 0 
z
M 9.421875 75.984375 
L 18.40625 75.984375 
L 18.40625 64.59375 
L 9.421875 64.59375 
z
" id="DejaVuSans-105"/>
       <path d="M 5.515625 54.6875 
L 48.1875 54.6875 
L 48.1875 46.484375 
L 14.40625 7.171875 
L 48.1875 7.171875 
L 48.1875 0 
L 4.296875 0 
L 4.296875 8.203125 
L 38.09375 47.515625 
L 5.515625 47.515625 
z
" id="DejaVuSans-122"/>
       <path d="M 56.203125 29.59375 
L 56.203125 25.203125 
L 14.890625 25.203125 
Q 15.484375 15.921875 20.484375 11.0625 
Q 25.484375 6.203125 34.421875 6.203125 
Q 39.59375 6.203125 44.453125 7.46875 
Q 49.3125 8.734375 54.109375 11.28125 
L 54.109375 2.78125 
Q 49.265625 0.734375 44.1875 -0.34375 
Q 39.109375 -1.421875 33.890625 -1.421875 
Q 20.796875 -1.421875 13.15625 6.1875 
Q 5.515625 13.8125 5.515625 26.8125 
Q 5.515625 40.234375 12.765625 48.109375 
Q 20.015625 56 32.328125 56 
Q 43.359375 56 49.78125 48.890625 
Q 56.203125 41.796875 56.203125 29.59375 
z
M 47.21875 32.234375 
Q 47.125 39.59375 43.09375 43.984375 
Q 39.0625 48.390625 32.421875 48.390625 
Q 24.90625 48.390625 20.390625 44.140625 
Q 15.875 39.890625 15.1875 32.171875 
z
" id="DejaVuSans-101"/>
      </defs>
      <use xlink:href="#DejaVuSans-71"/>
      <use x="77.490234" xlink:href="#DejaVuSans-114"/>
      <use x="118.603516" xlink:href="#DejaVuSans-97"/>
      <use x="179.882812" xlink:href="#DejaVuSans-112"/>
      <use x="243.359375" xlink:href="#DejaVuSans-104"/>
      <use x="306.738281" xlink:href="#DejaVuSans-32"/>
      <use x="338.525391" xlink:href="#DejaVuSans-115"/>
      <use x="390.625" xlink:href="#DejaVuSans-105"/>
      <use x="418.408203" xlink:href="#DejaVuSans-122"/>
      <use x="470.898438" xlink:href="#DejaVuSans-101"/>
     </g>
    </g>
   </g>
   <g id="matplotlib.axis_2">
    <g id="ytick_1">
     <g id="line2d_11">
      <path clip-path="url(#pd48a68aa9b)" d="M 52.375 894.915089 
L 945.175 894.915089 
" style="fill:none;stroke:#b0b0b0;stroke-linecap:square;stroke-width:0.8;"/>
     </g>
     <g id="line2d_12">
      <defs>
       <path d="M 0 0 
L -3.5 0 
" id="md1111f3dfa" style="stroke:#000000;stroke-width:0.8;"/>
      </defs>
      <g>
       <use style="stroke:#000000;stroke-width:0.8;" x="52.375" xlink:href="#md1111f3dfa" y="894.915089"/>
      </g>
     </g>
     <g id="text_7">
      <!-- 10 -->
      <g transform="translate(7.2 906.312745)scale(0.3 -0.3)">
       <use xlink:href="#DejaVuSans-49"/>
       <use x="63.623047" xlink:href="#DejaVuSans-48"/>
      </g>
     </g>
    </g>
    <g id="ytick_2">
     <g id="line2d_13">
      <path clip-path="url(#pd48a68aa9b)" d="M 52.375 778.468242 
L 945.175 778.468242 
" style="fill:none;stroke:#b0b0b0;stroke-linecap:square;stroke-width:0.8;"/>
     </g>
     <g id="line2d_14">
      <g>
       <use style="stroke:#000000;stroke-width:0.8;" x="52.375" xlink:href="#md1111f3dfa" y="778.468242"/>
      </g>
     </g>
     <g id="text_8">
      <!-- 12 -->
      <g transform="translate(7.2 789.865898)scale(0.3 -0.3)">
       <use xlink:href="#DejaVuSans-49"/>
       <use x="63.623047" xlink:href="#DejaVuSans-50"/>
      </g>
     </g>
    </g>
    <g id="ytick_3">
     <g id="line2d_15">
      <path clip-path="url(#pd48a68aa9b)" d="M 52.375 662.021394 
L 945.175 662.021394 
" style="fill:none;stroke:#b0b0b0;stroke-linecap:square;stroke-width:0.8;"/>
     </g>
     <g id="line2d_16">
      <g>
       <use style="stroke:#000000;stroke-width:0.8;" x="52.375" xlink:href="#md1111f3dfa" y="662.021394"/>
      </g>
     </g>
     <g id="text_9">
      <!-- 14 -->
      <g transform="translate(7.2 673.41905)scale(0.3 -0.3)">
       <use xlink:href="#DejaVuSans-49"/>
       <use x="63.623047" xlink:href="#DejaVuSans-52"/>
      </g>
     </g>
    </g>
    <g id="ytick_4">
     <g id="line2d_17">
      <path clip-path="url(#pd48a68aa9b)" d="M 52.375 545.574547 
L 945.175 545.574547 
" style="fill:none;stroke:#b0b0b0;stroke-linecap:square;stroke-width:0.8;"/>
     </g>
     <g id="line2d_18">
      <g>
       <use style="stroke:#000000;stroke-width:0.8;" x="52.375" xlink:href="#md1111f3dfa" y="545.574547"/>
      </g>
     </g>
     <g id="text_10">
      <!-- 16 -->
      <g transform="translate(7.2 556.972203)scale(0.3 -0.3)">
       <use xlink:href="#DejaVuSans-49"/>
       <use x="63.623047" xlink:href="#DejaVuSans-54"/>
      </g>
     </g>
    </g>
    <g id="ytick_5">
     <g id="line2d_19">
      <path clip-path="url(#pd48a68aa9b)" d="M 52.375 429.1277 
L 945.175 429.1277 
" style="fill:none;stroke:#b0b0b0;stroke-linecap:square;stroke-width:0.8;"/>
     </g>
     <g id="line2d_20">
      <g>
       <use style="stroke:#000000;stroke-width:0.8;" x="52.375" xlink:href="#md1111f3dfa" y="429.1277"/>
      </g>
     </g>
     <g id="text_11">
      <!-- 18 -->
      <g transform="translate(7.2 440.525356)scale(0.3 -0.3)">
       <use xlink:href="#DejaVuSans-49"/>
       <use x="63.623047" xlink:href="#DejaVuSans-56"/>
      </g>
     </g>
    </g>
    <g id="ytick_6">
     <g id="line2d_21">
      <path clip-path="url(#pd48a68aa9b)" d="M 52.375 312.680852 
L 945.175 312.680852 
" style="fill:none;stroke:#b0b0b0;stroke-linecap:square;stroke-width:0.8;"/>
     </g>
     <g id="line2d_22">
      <g>
       <use style="stroke:#000000;stroke-width:0.8;" x="52.375" xlink:href="#md1111f3dfa" y="312.680852"/>
      </g>
     </g>
     <g id="text_12">
      <!-- 20 -->
      <g transform="translate(7.2 324.078508)scale(0.3 -0.3)">
       <use xlink:href="#DejaVuSans-50"/>
       <use x="63.623047" xlink:href="#DejaVuSans-48"/>
      </g>
     </g>
    </g>
    <g id="ytick_7">
     <g id="line2d_23">
      <path clip-path="url(#pd48a68aa9b)" d="M 52.375 196.234005 
L 945.175 196.234005 
" style="fill:none;stroke:#b0b0b0;stroke-linecap:square;stroke-width:0.8;"/>
     </g>
     <g id="line2d_24">
      <g>
       <use style="stroke:#000000;stroke-width:0.8;" x="52.375" xlink:href="#md1111f3dfa" y="196.234005"/>
      </g>
     </g>
     <g id="text_13">
      <!-- 22 -->
      <g transform="translate(7.2 207.631661)scale(0.3 -0.3)">
       <use xlink:href="#DejaVuSans-50"/>
       <use x="63.623047" xlink:href="#DejaVuSans-50"/>
      </g>
     </g>
    </g>
    <g id="ytick_8">
     <g id="line2d_25">
      <path clip-path="url(#pd48a68aa9b)" d="M 52.375 79.787157 
L 945.175 79.787157 
" style="fill:none;stroke:#b0b0b0;stroke-linecap:square;stroke-width:0.8;"/>
     </g>
     <g id="line2d_26">
      <g>
       <use style="stroke:#000000;stroke-width:0.8;" x="52.375" xlink:href="#md1111f3dfa" y="79.787157"/>
      </g>
     </g>
     <g id="text_14">
      <!-- 24 -->
      <g transform="translate(7.2 91.184814)scale(0.3 -0.3)">
       <use xlink:href="#DejaVuSans-50"/>
       <use x="63.623047" xlink:href="#DejaVuSans-52"/>
      </g>
     </g>
    </g>
   </g>
   <g id="line2d_27">
    <path clip-path="url(#pd48a68aa9b)" d="M 92.956818 836.086598 
L 135.674522 754.948284 
L 178.392225 715.999521 
L 221.109928 683.876903 
L 263.827632 665.345465 
L 306.545335 640.904281 
L 349.263038 628.860583 
L 391.980742 617.593002 
L 434.698445 597.572841 
L 477.416148 586.21008 
L 520.133852 568.305986 
L 562.851555 573.171093 
L 605.569258 558.175312 
L 648.286962 554.118689 
L 691.004665 557.13085 
L 733.722368 533.135378 
L 776.440072 544.100146 
L 819.157775 528.736281 
L 861.875478 519.500126 
L 904.593182 516.900238 
" style="fill:none;stroke:#fe0002;stroke-linecap:square;stroke-width:1.5;"/>
    <defs>
     <path d="M 0 4.5 
C 1.193414 4.5 2.338109 4.025852 3.181981 3.181981 
C 4.025852 2.338109 4.5 1.193414 4.5 0 
C 4.5 -1.193414 4.025852 -2.338109 3.181981 -3.181981 
C 2.338109 -4.025852 1.193414 -4.5 0 -4.5 
C -1.193414 -4.5 -2.338109 -4.025852 -3.181981 -3.181981 
C -4.025852 -2.338109 -4.5 -1.193414 -4.5 0 
C -4.5 1.193414 -4.025852 2.338109 -3.181981 3.181981 
C -2.338109 4.025852 -1.193414 4.5 0 4.5 
z
" id="m20633397d9" style="stroke:#000000;"/>
    </defs>
    <g clip-path="url(#pd48a68aa9b)">
     <use style="fill:#fe0002;stroke:#000000;" x="92.956818" xlink:href="#m20633397d9" y="836.086598"/>
     <use style="fill:#fe0002;stroke:#000000;" x="135.674522" xlink:href="#m20633397d9" y="754.948284"/>
     <use style="fill:#fe0002;stroke:#000000;" x="178.392225" xlink:href="#m20633397d9" y="715.999521"/>
     <use style="fill:#fe0002;stroke:#000000;" x="221.109928" xlink:href="#m20633397d9" y="683.876903"/>
     <use style="fill:#fe0002;stroke:#000000;" x="263.827632" xlink:href="#m20633397d9" y="665.345465"/>
     <use style="fill:#fe0002;stroke:#000000;" x="306.545335" xlink:href="#m20633397d9" y="640.904281"/>
     <use style="fill:#fe0002;stroke:#000000;" x="349.263038" xlink:href="#m20633397d9" y="628.860583"/>
     <use style="fill:#fe0002;stroke:#000000;" x="391.980742" xlink:href="#m20633397d9" y="617.593002"/>
     <use style="fill:#fe0002;stroke:#000000;" x="434.698445" xlink:href="#m20633397d9" y="597.572841"/>
     <use style="fill:#fe0002;stroke:#000000;" x="477.416148" xlink:href="#m20633397d9" y="586.21008"/>
     <use style="fill:#fe0002;stroke:#000000;" x="520.133852" xlink:href="#m20633397d9" y="568.305986"/>
     <use style="fill:#fe0002;stroke:#000000;" x="562.851555" xlink:href="#m20633397d9" y="573.171093"/>
     <use style="fill:#fe0002;stroke:#000000;" x="605.569258" xlink:href="#m20633397d9" y="558.175312"/>
     <use style="fill:#fe0002;stroke:#000000;" x="648.286962" xlink:href="#m20633397d9" y="554.118689"/>
     <use style="fill:#fe0002;stroke:#000000;" x="691.004665" xlink:href="#m20633397d9" y="557.13085"/>
     <use style="fill:#fe0002;stroke:#000000;" x="733.722368" xlink:href="#m20633397d9" y="533.135378"/>
     <use style="fill:#fe0002;stroke:#000000;" x="776.440072" xlink:href="#m20633397d9" y="544.100146"/>
     <use style="fill:#fe0002;stroke:#000000;" x="819.157775" xlink:href="#m20633397d9" y="528.736281"/>
     <use style="fill:#fe0002;stroke:#000000;" x="861.875478" xlink:href="#m20633397d9" y="519.500126"/>
     <use style="fill:#fe0002;stroke:#000000;" x="904.593182" xlink:href="#m20633397d9" y="516.900238"/>
    </g>
   </g>
   <g id="line2d_28">
    <path clip-path="url(#pd48a68aa9b)" d="M 92.956818 836.086598 
L 135.674522 754.948284 
L 178.392225 715.999521 
L 221.109928 683.876903 
L 263.827632 665.345465 
L 306.545335 640.904281 
L 349.263038 628.860583 
L 391.980742 617.593002 
L 434.698445 597.572841 
L 477.416148 586.21008 
L 520.133852 568.305986 
L 562.851555 573.171093 
L 605.569258 558.175312 
L 648.286962 554.118689 
L 691.004665 557.13085 
L 733.722368 533.135378 
L 776.440072 544.100146 
L 819.157775 528.736281 
L 861.875478 519.500126 
L 904.593182 516.900238 
" style="fill:none;stroke:#fe0002;stroke-dasharray:5.55,2.4;stroke-dashoffset:0;stroke-width:1.5;"/>
    <g clip-path="url(#pd48a68aa9b)">
     <use style="fill:#fe0002;stroke:#000000;" x="92.956818" xlink:href="#m20633397d9" y="836.086598"/>
     <use style="fill:#fe0002;stroke:#000000;" x="135.674522" xlink:href="#m20633397d9" y="754.948284"/>
     <use style="fill:#fe0002;stroke:#000000;" x="178.392225" xlink:href="#m20633397d9" y="715.999521"/>
     <use style="fill:#fe0002;stroke:#000000;" x="221.109928" xlink:href="#m20633397d9" y="683.876903"/>
     <use style="fill:#fe0002;stroke:#000000;" x="263.827632" xlink:href="#m20633397d9" y="665.345465"/>
     <use style="fill:#fe0002;stroke:#000000;" x="306.545335" xlink:href="#m20633397d9" y="640.904281"/>
     <use style="fill:#fe0002;stroke:#000000;" x="349.263038" xlink:href="#m20633397d9" y="628.860583"/>
     <use style="fill:#fe0002;stroke:#000000;" x="391.980742" xlink:href="#m20633397d9" y="617.593002"/>
     <use style="fill:#fe0002;stroke:#000000;" x="434.698445" xlink:href="#m20633397d9" y="597.572841"/>
     <use style="fill:#fe0002;stroke:#000000;" x="477.416148" xlink:href="#m20633397d9" y="586.21008"/>
     <use style="fill:#fe0002;stroke:#000000;" x="520.133852" xlink:href="#m20633397d9" y="568.305986"/>
     <use style="fill:#fe0002;stroke:#000000;" x="562.851555" xlink:href="#m20633397d9" y="573.171093"/>
     <use style="fill:#fe0002;stroke:#000000;" x="605.569258" xlink:href="#m20633397d9" y="558.175312"/>
     <use style="fill:#fe0002;stroke:#000000;" x="648.286962" xlink:href="#m20633397d9" y="554.118689"/>
     <use style="fill:#fe0002;stroke:#000000;" x="691.004665" xlink:href="#m20633397d9" y="557.13085"/>
     <use style="fill:#fe0002;stroke:#000000;" x="733.722368" xlink:href="#m20633397d9" y="533.135378"/>
     <use style="fill:#fe0002;stroke:#000000;" x="776.440072" xlink:href="#m20633397d9" y="544.100146"/>
     <use style="fill:#fe0002;stroke:#000000;" x="819.157775" xlink:href="#m20633397d9" y="528.736281"/>
     <use style="fill:#fe0002;stroke:#000000;" x="861.875478" xlink:href="#m20633397d9" y="519.500126"/>
     <use style="fill:#fe0002;stroke:#000000;" x="904.593182" xlink:href="#m20633397d9" y="516.900238"/>
    </g>
   </g>
   <g id="line2d_29">
    <path clip-path="url(#pd48a68aa9b)" d="M 92.956818 651.552594 
L 135.674522 550.929949 
L 178.392225 484.008096 
L 221.109928 438.431861 
L 263.827632 398.658988 
L 306.545335 373.0804 
L 349.263038 345.730524 
L 391.980742 324.55059 
L 434.698445 310.766321 
L 477.416148 295.918084 
L 520.133852 285.66772 
L 562.851555 260.236176 
L 605.569258 254.756148 
L 648.286962 242.768723 
L 691.004665 222.302748 
L 733.722368 223.749479 
L 776.440072 203.536905 
L 819.157775 203.479945 
L 861.875478 199.763532 
L 904.593182 188.769076 
" style="fill:none;stroke:#53fca1;stroke-linecap:square;stroke-width:1.5;"/>
    <defs>
     <path d="M 0 -4.5 
L -4.5 4.5 
L 4.5 4.5 
z
" id="m579a08080d" style="stroke:#000000;stroke-linejoin:miter;"/>
    </defs>
    <g clip-path="url(#pd48a68aa9b)">
     <use style="fill:#53fca1;stroke:#000000;stroke-linejoin:miter;" x="92.956818" xlink:href="#m579a08080d" y="651.552594"/>
     <use style="fill:#53fca1;stroke:#000000;stroke-linejoin:miter;" x="135.674522" xlink:href="#m579a08080d" y="550.929949"/>
     <use style="fill:#53fca1;stroke:#000000;stroke-linejoin:miter;" x="178.392225" xlink:href="#m579a08080d" y="484.008096"/>
     <use style="fill:#53fca1;stroke:#000000;stroke-linejoin:miter;" x="221.109928" xlink:href="#m579a08080d" y="438.431861"/>
     <use style="fill:#53fca1;stroke:#000000;stroke-linejoin:miter;" x="263.827632" xlink:href="#m579a08080d" y="398.658988"/>
     <use style="fill:#53fca1;stroke:#000000;stroke-linejoin:miter;" x="306.545335" xlink:href="#m579a08080d" y="373.0804"/>
     <use style="fill:#53fca1;stroke:#000000;stroke-linejoin:miter;" x="349.263038" xlink:href="#m579a08080d" y="345.730524"/>
     <use style="fill:#53fca1;stroke:#000000;stroke-linejoin:miter;" x="391.980742" xlink:href="#m579a08080d" y="324.55059"/>
     <use style="fill:#53fca1;stroke:#000000;stroke-linejoin:miter;" x="434.698445" xlink:href="#m579a08080d" y="310.766321"/>
     <use style="fill:#53fca1;stroke:#000000;stroke-linejoin:miter;" x="477.416148" xlink:href="#m579a08080d" y="295.918084"/>
     <use style="fill:#53fca1;stroke:#000000;stroke-linejoin:miter;" x="520.133852" xlink:href="#m579a08080d" y="285.66772"/>
     <use style="fill:#53fca1;stroke:#000000;stroke-linejoin:miter;" x="562.851555" xlink:href="#m579a08080d" y="260.236176"/>
     <use style="fill:#53fca1;stroke:#000000;stroke-linejoin:miter;" x="605.569258" xlink:href="#m579a08080d" y="254.756148"/>
     <use style="fill:#53fca1;stroke:#000000;stroke-linejoin:miter;" x="648.286962" xlink:href="#m579a08080d" y="242.768723"/>
     <use style="fill:#53fca1;stroke:#000000;stroke-linejoin:miter;" x="691.004665" xlink:href="#m579a08080d" y="222.302748"/>
     <use style="fill:#53fca1;stroke:#000000;stroke-linejoin:miter;" x="733.722368" xlink:href="#m579a08080d" y="223.749479"/>
     <use style="fill:#53fca1;stroke:#000000;stroke-linejoin:miter;" x="776.440072" xlink:href="#m579a08080d" y="203.536905"/>
     <use style="fill:#53fca1;stroke:#000000;stroke-linejoin:miter;" x="819.157775" xlink:href="#m579a08080d" y="203.479945"/>
     <use style="fill:#53fca1;stroke:#000000;stroke-linejoin:miter;" x="861.875478" xlink:href="#m579a08080d" y="199.763532"/>
     <use style="fill:#53fca1;stroke:#000000;stroke-linejoin:miter;" x="904.593182" xlink:href="#m579a08080d" y="188.769076"/>
    </g>
   </g>
   <g id="line2d_30">
    <path clip-path="url(#pd48a68aa9b)" d="M 92.956818 952.464948 
L 135.674522 894.021561 
L 178.392225 859.452782 
L 221.109928 835.362086 
L 263.827632 814.900795 
L 306.545335 800.405512 
L 349.263038 787.424033 
L 391.980742 776.535689 
L 434.698445 766.802901 
L 477.416148 758.384066 
L 520.133852 750.119457 
L 562.851555 744.152266 
L 605.569258 736.548271 
L 648.286962 730.756596 
L 691.004665 725.257769 
L 733.722368 720.462883 
L 776.440072 714.805614 
L 819.157775 710.686096 
L 861.875478 706.556497 
L 904.593182 702.669022 
" style="fill:none;stroke:#53fca1;stroke-dasharray:5.55,2.4;stroke-dashoffset:0;stroke-width:1.5;"/>
    <defs>
     <path d="M -0 6.363961 
L 6.363961 0 
L 0 -6.363961 
L -6.363961 -0 
z
" id="mc04d9dfc40" style="stroke:#000000;stroke-linejoin:miter;"/>
    </defs>
    <g clip-path="url(#pd48a68aa9b)">
     <use style="fill:#53fca1;stroke:#000000;stroke-linejoin:miter;" x="92.956818" xlink:href="#mc04d9dfc40" y="952.464948"/>
     <use style="fill:#53fca1;stroke:#000000;stroke-linejoin:miter;" x="135.674522" xlink:href="#mc04d9dfc40" y="894.021561"/>
     <use style="fill:#53fca1;stroke:#000000;stroke-linejoin:miter;" x="178.392225" xlink:href="#mc04d9dfc40" y="859.452782"/>
     <use style="fill:#53fca1;stroke:#000000;stroke-linejoin:miter;" x="221.109928" xlink:href="#mc04d9dfc40" y="835.362086"/>
     <use style="fill:#53fca1;stroke:#000000;stroke-linejoin:miter;" x="263.827632" xlink:href="#mc04d9dfc40" y="814.900795"/>
     <use style="fill:#53fca1;stroke:#000000;stroke-linejoin:miter;" x="306.545335" xlink:href="#mc04d9dfc40" y="800.405512"/>
     <use style="fill:#53fca1;stroke:#000000;stroke-linejoin:miter;" x="349.263038" xlink:href="#mc04d9dfc40" y="787.424033"/>
     <use style="fill:#53fca1;stroke:#000000;stroke-linejoin:miter;" x="391.980742" xlink:href="#mc04d9dfc40" y="776.535689"/>
     <use style="fill:#53fca1;stroke:#000000;stroke-linejoin:miter;" x="434.698445" xlink:href="#mc04d9dfc40" y="766.802901"/>
     <use style="fill:#53fca1;stroke:#000000;stroke-linejoin:miter;" x="477.416148" xlink:href="#mc04d9dfc40" y="758.384066"/>
     <use style="fill:#53fca1;stroke:#000000;stroke-linejoin:miter;" x="520.133852" xlink:href="#mc04d9dfc40" y="750.119457"/>
     <use style="fill:#53fca1;stroke:#000000;stroke-linejoin:miter;" x="562.851555" xlink:href="#mc04d9dfc40" y="744.152266"/>
     <use style="fill:#53fca1;stroke:#000000;stroke-linejoin:miter;" x="605.569258" xlink:href="#mc04d9dfc40" y="736.548271"/>
     <use style="fill:#53fca1;stroke:#000000;stroke-linejoin:miter;" x="648.286962" xlink:href="#mc04d9dfc40" y="730.756596"/>
     <use style="fill:#53fca1;stroke:#000000;stroke-linejoin:miter;" x="691.004665" xlink:href="#mc04d9dfc40" y="725.257769"/>
     <use style="fill:#53fca1;stroke:#000000;stroke-linejoin:miter;" x="733.722368" xlink:href="#mc04d9dfc40" y="720.462883"/>
     <use style="fill:#53fca1;stroke:#000000;stroke-linejoin:miter;" x="776.440072" xlink:href="#mc04d9dfc40" y="714.805614"/>
     <use style="fill:#53fca1;stroke:#000000;stroke-linejoin:miter;" x="819.157775" xlink:href="#mc04d9dfc40" y="710.686096"/>
     <use style="fill:#53fca1;stroke:#000000;stroke-linejoin:miter;" x="861.875478" xlink:href="#mc04d9dfc40" y="706.556497"/>
     <use style="fill:#53fca1;stroke:#000000;stroke-linejoin:miter;" x="904.593182" xlink:href="#mc04d9dfc40" y="702.669022"/>
    </g>
   </g>
   <g id="line2d_31">
    <path clip-path="url(#pd48a68aa9b)" d="M 92.956818 624.313165 
L 135.674522 504.639445 
L 178.392225 434.664709 
L 221.109928 379.188803 
L 263.827632 336.942158 
L 306.545335 305.111807 
L 349.263038 271.730378 
L 391.980742 247.566447 
L 434.698445 229.169614 
L 477.416148 210.636458 
L 520.133852 196.17166 
L 562.851555 166.2068 
L 605.569258 160.094341 
L 648.286962 145.386102 
L 691.004665 125.914684 
L 733.722368 120.978958 
L 776.440072 99.27661 
L 819.157775 96.060637 
L 861.875478 90.807364 
L 904.593182 76.045386 
" style="fill:none;stroke:#0652ff;stroke-linecap:square;stroke-width:1.5;"/>
    <defs>
     <path d="M 0 -4.5 
L -4.279754 -1.390576 
L -2.645034 3.640576 
L 2.645034 3.640576 
L 4.279754 -1.390576 
z
" id="md66a5b3d6c" style="stroke:#000000;stroke-linejoin:miter;"/>
    </defs>
    <g clip-path="url(#pd48a68aa9b)">
     <use style="fill:#0652ff;stroke:#000000;stroke-linejoin:miter;" x="92.956818" xlink:href="#md66a5b3d6c" y="624.313165"/>
     <use style="fill:#0652ff;stroke:#000000;stroke-linejoin:miter;" x="135.674522" xlink:href="#md66a5b3d6c" y="504.639445"/>
     <use style="fill:#0652ff;stroke:#000000;stroke-linejoin:miter;" x="178.392225" xlink:href="#md66a5b3d6c" y="434.664709"/>
     <use style="fill:#0652ff;stroke:#000000;stroke-linejoin:miter;" x="221.109928" xlink:href="#md66a5b3d6c" y="379.188803"/>
     <use style="fill:#0652ff;stroke:#000000;stroke-linejoin:miter;" x="263.827632" xlink:href="#md66a5b3d6c" y="336.942158"/>
     <use style="fill:#0652ff;stroke:#000000;stroke-linejoin:miter;" x="306.545335" xlink:href="#md66a5b3d6c" y="305.111807"/>
     <use style="fill:#0652ff;stroke:#000000;stroke-linejoin:miter;" x="349.263038" xlink:href="#md66a5b3d6c" y="271.730378"/>
     <use style="fill:#0652ff;stroke:#000000;stroke-linejoin:miter;" x="391.980742" xlink:href="#md66a5b3d6c" y="247.566447"/>
     <use style="fill:#0652ff;stroke:#000000;stroke-linejoin:miter;" x="434.698445" xlink:href="#md66a5b3d6c" y="229.169614"/>
     <use style="fill:#0652ff;stroke:#000000;stroke-linejoin:miter;" x="477.416148" xlink:href="#md66a5b3d6c" y="210.636458"/>
     <use style="fill:#0652ff;stroke:#000000;stroke-linejoin:miter;" x="520.133852" xlink:href="#md66a5b3d6c" y="196.17166"/>
     <use style="fill:#0652ff;stroke:#000000;stroke-linejoin:miter;" x="562.851555" xlink:href="#md66a5b3d6c" y="166.2068"/>
     <use style="fill:#0652ff;stroke:#000000;stroke-linejoin:miter;" x="605.569258" xlink:href="#md66a5b3d6c" y="160.094341"/>
     <use style="fill:#0652ff;stroke:#000000;stroke-linejoin:miter;" x="648.286962" xlink:href="#md66a5b3d6c" y="145.386102"/>
     <use style="fill:#0652ff;stroke:#000000;stroke-linejoin:miter;" x="691.004665" xlink:href="#md66a5b3d6c" y="125.914684"/>
     <use style="fill:#0652ff;stroke:#000000;stroke-linejoin:miter;" x="733.722368" xlink:href="#md66a5b3d6c" y="120.978958"/>
     <use style="fill:#0652ff;stroke:#000000;stroke-linejoin:miter;" x="776.440072" xlink:href="#md66a5b3d6c" y="99.27661"/>
     <use style="fill:#0652ff;stroke:#000000;stroke-linejoin:miter;" x="819.157775" xlink:href="#md66a5b3d6c" y="96.060637"/>
     <use style="fill:#0652ff;stroke:#000000;stroke-linejoin:miter;" x="861.875478" xlink:href="#md66a5b3d6c" y="90.807364"/>
     <use style="fill:#0652ff;stroke:#000000;stroke-linejoin:miter;" x="904.593182" xlink:href="#md66a5b3d6c" y="76.045386"/>
    </g>
   </g>
   <g id="line2d_32">
    <path clip-path="url(#pd48a68aa9b)" d="M 92.956818 907.701409 
L 135.674522 832.102968 
L 178.392225 790.594908 
L 221.109928 757.426702 
L 263.827632 733.292896 
L 306.545335 712.875009 
L 349.263038 694.870353 
L 391.980742 680.581744 
L 434.698445 667.169842 
L 477.416148 655.820193 
L 520.133852 643.513531 
L 562.851555 634.5101 
L 605.569258 625.496258 
L 648.286962 618.060633 
L 691.004665 611.835284 
L 733.722368 602.823946 
L 776.440072 595.845787 
L 819.157775 589.319013 
L 861.875478 583.755276 
L 904.593182 576.97797 
" style="fill:none;stroke:#0652ff;stroke-dasharray:5.55,2.4;stroke-dashoffset:0;stroke-width:1.5;"/>
    <defs>
     <path d="M -2.25 4.5 
L 0 2.25 
L 2.25 4.5 
L 4.5 2.25 
L 2.25 0 
L 4.5 -2.25 
L 2.25 -4.5 
L 0 -2.25 
L -2.25 -4.5 
L -4.5 -2.25 
L -2.25 0 
L -4.5 2.25 
z
" id="m7647c7d7b4" style="stroke:#000000;stroke-linejoin:miter;"/>
    </defs>
    <g clip-path="url(#pd48a68aa9b)">
     <use style="fill:#0652ff;stroke:#000000;stroke-linejoin:miter;" x="92.956818" xlink:href="#m7647c7d7b4" y="907.701409"/>
     <use style="fill:#0652ff;stroke:#000000;stroke-linejoin:miter;" x="135.674522" xlink:href="#m7647c7d7b4" y="832.102968"/>
     <use style="fill:#0652ff;stroke:#000000;stroke-linejoin:miter;" x="178.392225" xlink:href="#m7647c7d7b4" y="790.594908"/>
     <use style="fill:#0652ff;stroke:#000000;stroke-linejoin:miter;" x="221.109928" xlink:href="#m7647c7d7b4" y="757.426702"/>
     <use style="fill:#0652ff;stroke:#000000;stroke-linejoin:miter;" x="263.827632" xlink:href="#m7647c7d7b4" y="733.292896"/>
     <use style="fill:#0652ff;stroke:#000000;stroke-linejoin:miter;" x="306.545335" xlink:href="#m7647c7d7b4" y="712.875009"/>
     <use style="fill:#0652ff;stroke:#000000;stroke-linejoin:miter;" x="349.263038" xlink:href="#m7647c7d7b4" y="694.870353"/>
     <use style="fill:#0652ff;stroke:#000000;stroke-linejoin:miter;" x="391.980742" xlink:href="#m7647c7d7b4" y="680.581744"/>
     <use style="fill:#0652ff;stroke:#000000;stroke-linejoin:miter;" x="434.698445" xlink:href="#m7647c7d7b4" y="667.169842"/>
     <use style="fill:#0652ff;stroke:#000000;stroke-linejoin:miter;" x="477.416148" xlink:href="#m7647c7d7b4" y="655.820193"/>
     <use style="fill:#0652ff;stroke:#000000;stroke-linejoin:miter;" x="520.133852" xlink:href="#m7647c7d7b4" y="643.513531"/>
     <use style="fill:#0652ff;stroke:#000000;stroke-linejoin:miter;" x="562.851555" xlink:href="#m7647c7d7b4" y="634.5101"/>
     <use style="fill:#0652ff;stroke:#000000;stroke-linejoin:miter;" x="605.569258" xlink:href="#m7647c7d7b4" y="625.496258"/>
     <use style="fill:#0652ff;stroke:#000000;stroke-linejoin:miter;" x="648.286962" xlink:href="#m7647c7d7b4" y="618.060633"/>
     <use style="fill:#0652ff;stroke:#000000;stroke-linejoin:miter;" x="691.004665" xlink:href="#m7647c7d7b4" y="611.835284"/>
     <use style="fill:#0652ff;stroke:#000000;stroke-linejoin:miter;" x="733.722368" xlink:href="#m7647c7d7b4" y="602.823946"/>
     <use style="fill:#0652ff;stroke:#000000;stroke-linejoin:miter;" x="776.440072" xlink:href="#m7647c7d7b4" y="595.845787"/>
     <use style="fill:#0652ff;stroke:#000000;stroke-linejoin:miter;" x="819.157775" xlink:href="#m7647c7d7b4" y="589.319013"/>
     <use style="fill:#0652ff;stroke:#000000;stroke-linejoin:miter;" x="861.875478" xlink:href="#m7647c7d7b4" y="583.755276"/>
     <use style="fill:#0652ff;stroke:#000000;stroke-linejoin:miter;" x="904.593182" xlink:href="#m7647c7d7b4" y="576.97797"/>
    </g>
   </g>
   <g id="patch_3">
    <path d="M 52.375 1005.12 
L 52.375 7.2 
" style="fill:none;stroke:#000000;stroke-linecap:square;stroke-linejoin:miter;stroke-width:0.8;"/>
   </g>
   <g id="patch_4">
    <path d="M 945.175 1005.12 
L 945.175 7.2 
" style="fill:none;stroke:#000000;stroke-linecap:square;stroke-linejoin:miter;stroke-width:0.8;"/>
   </g>
   <g id="patch_5">
    <path d="M 52.375 1005.12 
L 945.175 1005.12 
" style="fill:none;stroke:#000000;stroke-linecap:square;stroke-linejoin:miter;stroke-width:0.8;"/>
   </g>
   <g id="patch_6">
    <path d="M 52.375 7.2 
L 945.175 7.2 
" style="fill:none;stroke:#000000;stroke-linecap:square;stroke-linejoin:miter;stroke-width:0.8;"/>
   </g>
  </g>
 </g>
 <defs>
  <clipPath id="pd48a68aa9b">
   <rect height="997.92" width="892.8" x="52.375" y="7.2"/>
  </clipPath>
 </defs>
</svg>
