<?xml version="1.0" encoding="utf-8" standalone="no"?>
<!DOCTYPE svg PUBLIC "-//W3C//DTD SVG 1.1//EN"
  "http://www.w3.org/Graphics/SVG/1.1/DTD/svg11.dtd">
<!-- Created with matplotlib (https://matplotlib.org/) -->
<svg height="1067.839375pt" version="1.1" viewBox="0 0 975.169375 1067.839375" width="975.169375pt" xmlns="http://www.w3.org/2000/svg" xmlns:xlink="http://www.w3.org/1999/xlink">
 <defs>
  <style type="text/css">
*{stroke-linecap:butt;stroke-linejoin:round;}
  </style>
 </defs>
 <g id="figure_1">
  <g id="patch_1">
   <path d="M 0 1067.839375 
L 975.169375 1067.839375 
L 975.169375 0 
L 0 0 
z
" style="fill:#ffffff;"/>
  </g>
  <g id="axes_1">
   <g id="patch_2">
    <path d="M 75.169375 1005.12 
L 967.969375 1005.12 
L 967.969375 7.2 
L 75.169375 7.2 
z
" style="fill:#ffffff;"/>
   </g>
   <g id="PolyCollection_1">
    <defs>
     <path d="M 115.751193 -411.068509 
L 115.751193 -173.005618 
L 115.850282 -281.216023 
L 116.04846 -324.500185 
L 116.444815 -451.647411 
L 117.237525 -631.547209 
L 118.822946 -717.439218 
L 121.993788 -739.419456 
L 128.335471 -791.495714 
L 141.018837 -816.012133 
L 166.38557 -861.959286 
L 217.119036 -850.905762 
L 318.585967 -868.976054 
L 521.519831 -876.352115 
L 927.387557 -869.713132 
L 927.387557 -1015.279375 
L 927.387557 -1015.279375 
L 521.519831 -1013.073426 
L 318.585967 -1012.936049 
L 217.119036 -986.633735 
L 166.38557 -996.841865 
L 141.018837 -965.393216 
L 128.335471 -944.511989 
L 121.993788 -909.174529 
L 118.822946 -889.899551 
L 117.237525 -831.736458 
L 116.444815 -770.868105 
L 116.04846 -697.826082 
L 115.850282 -584.205157 
L 115.751193 -411.068509 
z
" id="mcd7d55bcb6" style="stroke:#fe4d4e;stroke-opacity:0.3;"/>
    </defs>
    <g clip-path="url(#p6dc0f1428c)">
     <use style="fill:#fe4d4e;fill-opacity:0.3;stroke:#fe4d4e;stroke-opacity:0.3;" x="0" xlink:href="#mcd7d55bcb6" y="1067.839375"/>
    </g>
   </g>
   <g id="PolyCollection_2">
    <g clip-path="url(#p6dc0f1428c)">
     <use style="fill:#fe4d4e;fill-opacity:0.3;stroke:#fe4d4e;stroke-opacity:0.3;" x="0" xlink:href="#mcd7d55bcb6" y="1067.839375"/>
    </g>
   </g>
   <g id="PolyCollection_3">
    <defs>
     <path d="M 115.751193 -411.068509 
L 115.751193 -173.005618 
L 115.850282 -237.931861 
L 116.04846 -481.405272 
L 116.444815 -532.805214 
L 117.237525 -623.431428 
L 118.822946 -739.081299 
L 121.993788 -727.922101 
L 128.335471 -799.273336 
L 141.018837 -833.511785 
L 166.38557 -870.117336 
L 217.119036 -870.159606 
L 318.585967 -883.305479 
L 521.519831 -890.010509 
L 927.387557 -894.578277 
L 927.387557 -899.801225 
L 927.387557 -899.801225 
L 521.519831 -897.30203 
L 318.585967 -894.115952 
L 217.119036 -893.217721 
L 166.38557 -889.350045 
L 141.018837 -883.897255 
L 128.335471 -866.566682 
L 121.993788 -845.939074 
L 118.822946 -818.210157 
L 117.237525 -784.394406 
L 116.444815 -749.226024 
L 116.04846 -638.310359 
L 115.850282 -573.384116 
L 115.751193 -411.068509 
z
" id="m04a5b8eb3d" style="stroke:#58ab8e;stroke-opacity:0.3;"/>
    </defs>
    <g clip-path="url(#p6dc0f1428c)">
     <use style="fill:#58ab8e;fill-opacity:0.3;stroke:#58ab8e;stroke-opacity:0.3;" x="0" xlink:href="#m04a5b8eb3d" y="1067.839375"/>
    </g>
   </g>
   <g id="PolyCollection_4">
    <defs>
     <path d="M 115.751193 -237.931861 
L 115.751193 -108.079375 
L 115.850282 -118.900415 
L 116.04846 -264.984462 
L 116.444815 -313.679144 
L 117.237525 -359.668566 
L 118.822946 -400.247468 
L 121.993788 -409.039564 
L 128.335471 -442.179 
L 141.018837 -459.594112 
L 166.38557 -474.303964 
L 217.119036 -476.565393 
L 318.585967 -481.204491 
L 521.519831 -482.858293 
L 927.387557 -485.777543 
L 927.387557 -487.293968 
L 927.387557 -487.293968 
L 521.519831 -487.391717 
L 318.585967 -486.139477 
L 217.119036 -486.604444 
L 166.38557 -485.674511 
L 141.018837 -482.926981 
L 128.335471 -477.516461 
L 121.993788 -468.555286 
L 118.822946 -460.439506 
L 117.237525 -443.53163 
L 116.444815 -424.594809 
L 116.04846 -384.015908 
L 115.850282 -346.142266 
L 115.751193 -237.931861 
z
" id="m4a97fdd758" style="stroke:#58ab8e;stroke-opacity:0.3;"/>
    </defs>
    <g clip-path="url(#p6dc0f1428c)">
     <use style="fill:#58ab8e;fill-opacity:0.3;stroke:#58ab8e;stroke-opacity:0.3;" x="0" xlink:href="#m4a97fdd758" y="1067.839375"/>
    </g>
   </g>
   <g id="matplotlib.axis_1">
    <g id="xtick_1">
     <g id="line2d_1">
      <path clip-path="url(#p6dc0f1428c)" d="M 115.652104 1005.12 
L 115.652104 7.2 
" style="fill:none;stroke:#b0b0b0;stroke-linecap:square;stroke-width:0.8;"/>
     </g>
     <g id="line2d_2">
      <defs>
       <path d="M 0 0 
L 0 3.5 
" id="m7b6a80f6d4" style="stroke:#000000;stroke-width:0.8;"/>
      </defs>
      <g>
       <use style="stroke:#000000;stroke-width:0.8;" x="115.652104" xlink:href="#m7b6a80f6d4" y="1005.12"/>
      </g>
     </g>
     <g id="text_1">
      <!-- 0 -->
      <defs>
       <path d="M 31.78125 66.40625 
Q 24.171875 66.40625 20.328125 58.90625 
Q 16.5 51.421875 16.5 36.375 
Q 16.5 21.390625 20.328125 13.890625 
Q 24.171875 6.390625 31.78125 6.390625 
Q 39.453125 6.390625 43.28125 13.890625 
Q 47.125 21.390625 47.125 36.375 
Q 47.125 51.421875 43.28125 58.90625 
Q 39.453125 66.40625 31.78125 66.40625 
z
M 31.78125 74.21875 
Q 44.046875 74.21875 50.515625 64.515625 
Q 56.984375 54.828125 56.984375 36.375 
Q 56.984375 17.96875 50.515625 8.265625 
Q 44.046875 -1.421875 31.78125 -1.421875 
Q 19.53125 -1.421875 13.0625 8.265625 
Q 6.59375 17.96875 6.59375 36.375 
Q 6.59375 54.828125 13.0625 64.515625 
Q 19.53125 74.21875 31.78125 74.21875 
z
" id="DejaVuSans-48"/>
      </defs>
      <g transform="translate(109.289604 1027.316875)scale(0.2 -0.2)">
       <use xlink:href="#DejaVuSans-48"/>
      </g>
     </g>
    </g>
    <g id="xtick_2">
     <g id="line2d_3">
      <path clip-path="url(#p6dc0f1428c)" d="M 239.513105 1005.12 
L 239.513105 7.2 
" style="fill:none;stroke:#b0b0b0;stroke-linecap:square;stroke-width:0.8;"/>
     </g>
     <g id="line2d_4">
      <g>
       <use style="stroke:#000000;stroke-width:0.8;" x="239.513105" xlink:href="#m7b6a80f6d4" y="1005.12"/>
      </g>
     </g>
     <g id="text_2">
      <!-- 20000 -->
      <defs>
       <path d="M 19.1875 8.296875 
L 53.609375 8.296875 
L 53.609375 0 
L 7.328125 0 
L 7.328125 8.296875 
Q 12.9375 14.109375 22.625 23.890625 
Q 32.328125 33.6875 34.8125 36.53125 
Q 39.546875 41.84375 41.421875 45.53125 
Q 43.3125 49.21875 43.3125 52.78125 
Q 43.3125 58.59375 39.234375 62.25 
Q 35.15625 65.921875 28.609375 65.921875 
Q 23.96875 65.921875 18.8125 64.3125 
Q 13.671875 62.703125 7.8125 59.421875 
L 7.8125 69.390625 
Q 13.765625 71.78125 18.9375 73 
Q 24.125 74.21875 28.421875 74.21875 
Q 39.75 74.21875 46.484375 68.546875 
Q 53.21875 62.890625 53.21875 53.421875 
Q 53.21875 48.921875 51.53125 44.890625 
Q 49.859375 40.875 45.40625 35.40625 
Q 44.1875 33.984375 37.640625 27.21875 
Q 31.109375 20.453125 19.1875 8.296875 
z
" id="DejaVuSans-50"/>
      </defs>
      <g transform="translate(207.700605 1027.316875)scale(0.2 -0.2)">
       <use xlink:href="#DejaVuSans-50"/>
       <use x="63.623047" xlink:href="#DejaVuSans-48"/>
       <use x="127.246094" xlink:href="#DejaVuSans-48"/>
       <use x="190.869141" xlink:href="#DejaVuSans-48"/>
       <use x="254.492188" xlink:href="#DejaVuSans-48"/>
      </g>
     </g>
    </g>
    <g id="xtick_3">
     <g id="line2d_5">
      <path clip-path="url(#p6dc0f1428c)" d="M 363.374105 1005.12 
L 363.374105 7.2 
" style="fill:none;stroke:#b0b0b0;stroke-linecap:square;stroke-width:0.8;"/>
     </g>
     <g id="line2d_6">
      <g>
       <use style="stroke:#000000;stroke-width:0.8;" x="363.374105" xlink:href="#m7b6a80f6d4" y="1005.12"/>
      </g>
     </g>
     <g id="text_3">
      <!-- 40000 -->
      <defs>
       <path d="M 37.796875 64.3125 
L 12.890625 25.390625 
L 37.796875 25.390625 
z
M 35.203125 72.90625 
L 47.609375 72.90625 
L 47.609375 25.390625 
L 58.015625 25.390625 
L 58.015625 17.1875 
L 47.609375 17.1875 
L 47.609375 0 
L 37.796875 0 
L 37.796875 17.1875 
L 4.890625 17.1875 
L 4.890625 26.703125 
z
" id="DejaVuSans-52"/>
      </defs>
      <g transform="translate(331.561605 1027.316875)scale(0.2 -0.2)">
       <use xlink:href="#DejaVuSans-52"/>
       <use x="63.623047" xlink:href="#DejaVuSans-48"/>
       <use x="127.246094" xlink:href="#DejaVuSans-48"/>
       <use x="190.869141" xlink:href="#DejaVuSans-48"/>
       <use x="254.492188" xlink:href="#DejaVuSans-48"/>
      </g>
     </g>
    </g>
    <g id="xtick_4">
     <g id="line2d_7">
      <path clip-path="url(#p6dc0f1428c)" d="M 487.235106 1005.12 
L 487.235106 7.2 
" style="fill:none;stroke:#b0b0b0;stroke-linecap:square;stroke-width:0.8;"/>
     </g>
     <g id="line2d_8">
      <g>
       <use style="stroke:#000000;stroke-width:0.8;" x="487.235106" xlink:href="#m7b6a80f6d4" y="1005.12"/>
      </g>
     </g>
     <g id="text_4">
      <!-- 60000 -->
      <defs>
       <path d="M 33.015625 40.375 
Q 26.375 40.375 22.484375 35.828125 
Q 18.609375 31.296875 18.609375 23.390625 
Q 18.609375 15.53125 22.484375 10.953125 
Q 26.375 6.390625 33.015625 6.390625 
Q 39.65625 6.390625 43.53125 10.953125 
Q 47.40625 15.53125 47.40625 23.390625 
Q 47.40625 31.296875 43.53125 35.828125 
Q 39.65625 40.375 33.015625 40.375 
z
M 52.59375 71.296875 
L 52.59375 62.3125 
Q 48.875 64.0625 45.09375 64.984375 
Q 41.3125 65.921875 37.59375 65.921875 
Q 27.828125 65.921875 22.671875 59.328125 
Q 17.53125 52.734375 16.796875 39.40625 
Q 19.671875 43.65625 24.015625 45.921875 
Q 28.375 48.1875 33.59375 48.1875 
Q 44.578125 48.1875 50.953125 41.515625 
Q 57.328125 34.859375 57.328125 23.390625 
Q 57.328125 12.15625 50.6875 5.359375 
Q 44.046875 -1.421875 33.015625 -1.421875 
Q 20.359375 -1.421875 13.671875 8.265625 
Q 6.984375 17.96875 6.984375 36.375 
Q 6.984375 53.65625 15.1875 63.9375 
Q 23.390625 74.21875 37.203125 74.21875 
Q 40.921875 74.21875 44.703125 73.484375 
Q 48.484375 72.75 52.59375 71.296875 
z
" id="DejaVuSans-54"/>
      </defs>
      <g transform="translate(455.422606 1027.316875)scale(0.2 -0.2)">
       <use xlink:href="#DejaVuSans-54"/>
       <use x="63.623047" xlink:href="#DejaVuSans-48"/>
       <use x="127.246094" xlink:href="#DejaVuSans-48"/>
       <use x="190.869141" xlink:href="#DejaVuSans-48"/>
       <use x="254.492188" xlink:href="#DejaVuSans-48"/>
      </g>
     </g>
    </g>
    <g id="xtick_5">
     <g id="line2d_9">
      <path clip-path="url(#p6dc0f1428c)" d="M 611.096106 1005.12 
L 611.096106 7.2 
" style="fill:none;stroke:#b0b0b0;stroke-linecap:square;stroke-width:0.8;"/>
     </g>
     <g id="line2d_10">
      <g>
       <use style="stroke:#000000;stroke-width:0.8;" x="611.096106" xlink:href="#m7b6a80f6d4" y="1005.12"/>
      </g>
     </g>
     <g id="text_5">
      <!-- 80000 -->
      <defs>
       <path d="M 31.78125 34.625 
Q 24.75 34.625 20.71875 30.859375 
Q 16.703125 27.09375 16.703125 20.515625 
Q 16.703125 13.921875 20.71875 10.15625 
Q 24.75 6.390625 31.78125 6.390625 
Q 38.8125 6.390625 42.859375 10.171875 
Q 46.921875 13.96875 46.921875 20.515625 
Q 46.921875 27.09375 42.890625 30.859375 
Q 38.875 34.625 31.78125 34.625 
z
M 21.921875 38.8125 
Q 15.578125 40.375 12.03125 44.71875 
Q 8.5 49.078125 8.5 55.328125 
Q 8.5 64.0625 14.71875 69.140625 
Q 20.953125 74.21875 31.78125 74.21875 
Q 42.671875 74.21875 48.875 69.140625 
Q 55.078125 64.0625 55.078125 55.328125 
Q 55.078125 49.078125 51.53125 44.71875 
Q 48 40.375 41.703125 38.8125 
Q 48.828125 37.15625 52.796875 32.3125 
Q 56.78125 27.484375 56.78125 20.515625 
Q 56.78125 9.90625 50.3125 4.234375 
Q 43.84375 -1.421875 31.78125 -1.421875 
Q 19.734375 -1.421875 13.25 4.234375 
Q 6.78125 9.90625 6.78125 20.515625 
Q 6.78125 27.484375 10.78125 32.3125 
Q 14.796875 37.15625 21.921875 38.8125 
z
M 18.3125 54.390625 
Q 18.3125 48.734375 21.84375 45.5625 
Q 25.390625 42.390625 31.78125 42.390625 
Q 38.140625 42.390625 41.71875 45.5625 
Q 45.3125 48.734375 45.3125 54.390625 
Q 45.3125 60.0625 41.71875 63.234375 
Q 38.140625 66.40625 31.78125 66.40625 
Q 25.390625 66.40625 21.84375 63.234375 
Q 18.3125 60.0625 18.3125 54.390625 
z
" id="DejaVuSans-56"/>
      </defs>
      <g transform="translate(579.283606 1027.316875)scale(0.2 -0.2)">
       <use xlink:href="#DejaVuSans-56"/>
       <use x="63.623047" xlink:href="#DejaVuSans-48"/>
       <use x="127.246094" xlink:href="#DejaVuSans-48"/>
       <use x="190.869141" xlink:href="#DejaVuSans-48"/>
       <use x="254.492188" xlink:href="#DejaVuSans-48"/>
      </g>
     </g>
    </g>
    <g id="xtick_6">
     <g id="line2d_11">
      <path clip-path="url(#p6dc0f1428c)" d="M 734.957107 1005.12 
L 734.957107 7.2 
" style="fill:none;stroke:#b0b0b0;stroke-linecap:square;stroke-width:0.8;"/>
     </g>
     <g id="line2d_12">
      <g>
       <use style="stroke:#000000;stroke-width:0.8;" x="734.957107" xlink:href="#m7b6a80f6d4" y="1005.12"/>
      </g>
     </g>
     <g id="text_6">
      <!-- 100000 -->
      <defs>
       <path d="M 12.40625 8.296875 
L 28.515625 8.296875 
L 28.515625 63.921875 
L 10.984375 60.40625 
L 10.984375 69.390625 
L 28.421875 72.90625 
L 38.28125 72.90625 
L 38.28125 8.296875 
L 54.390625 8.296875 
L 54.390625 0 
L 12.40625 0 
z
" id="DejaVuSans-49"/>
      </defs>
      <g transform="translate(696.782107 1027.316875)scale(0.2 -0.2)">
       <use xlink:href="#DejaVuSans-49"/>
       <use x="63.623047" xlink:href="#DejaVuSans-48"/>
       <use x="127.246094" xlink:href="#DejaVuSans-48"/>
       <use x="190.869141" xlink:href="#DejaVuSans-48"/>
       <use x="254.492188" xlink:href="#DejaVuSans-48"/>
       <use x="318.115234" xlink:href="#DejaVuSans-48"/>
      </g>
     </g>
    </g>
    <g id="xtick_7">
     <g id="line2d_13">
      <path clip-path="url(#p6dc0f1428c)" d="M 858.818107 1005.12 
L 858.818107 7.2 
" style="fill:none;stroke:#b0b0b0;stroke-linecap:square;stroke-width:0.8;"/>
     </g>
     <g id="line2d_14">
      <g>
       <use style="stroke:#000000;stroke-width:0.8;" x="858.818107" xlink:href="#m7b6a80f6d4" y="1005.12"/>
      </g>
     </g>
     <g id="text_7">
      <!-- 120000 -->
      <g transform="translate(820.643107 1027.316875)scale(0.2 -0.2)">
       <use xlink:href="#DejaVuSans-49"/>
       <use x="63.623047" xlink:href="#DejaVuSans-50"/>
       <use x="127.246094" xlink:href="#DejaVuSans-48"/>
       <use x="190.869141" xlink:href="#DejaVuSans-48"/>
       <use x="254.492188" xlink:href="#DejaVuSans-48"/>
       <use x="318.115234" xlink:href="#DejaVuSans-48"/>
      </g>
     </g>
    </g>
    <g id="text_8">
     <!-- Input size -->
     <defs>
      <path d="M 9.8125 72.90625 
L 19.671875 72.90625 
L 19.671875 0 
L 9.8125 0 
z
" id="DejaVuSans-73"/>
      <path d="M 54.890625 33.015625 
L 54.890625 0 
L 45.90625 0 
L 45.90625 32.71875 
Q 45.90625 40.484375 42.875 44.328125 
Q 39.84375 48.1875 33.796875 48.1875 
Q 26.515625 48.1875 22.3125 43.546875 
Q 18.109375 38.921875 18.109375 30.90625 
L 18.109375 0 
L 9.078125 0 
L 9.078125 54.6875 
L 18.109375 54.6875 
L 18.109375 46.1875 
Q 21.34375 51.125 25.703125 53.5625 
Q 30.078125 56 35.796875 56 
Q 45.21875 56 50.046875 50.171875 
Q 54.890625 44.34375 54.890625 33.015625 
z
" id="DejaVuSans-110"/>
      <path d="M 18.109375 8.203125 
L 18.109375 -20.796875 
L 9.078125 -20.796875 
L 9.078125 54.6875 
L 18.109375 54.6875 
L 18.109375 46.390625 
Q 20.953125 51.265625 25.265625 53.625 
Q 29.59375 56 35.59375 56 
Q 45.5625 56 51.78125 48.09375 
Q 58.015625 40.1875 58.015625 27.296875 
Q 58.015625 14.40625 51.78125 6.484375 
Q 45.5625 -1.421875 35.59375 -1.421875 
Q 29.59375 -1.421875 25.265625 0.953125 
Q 20.953125 3.328125 18.109375 8.203125 
z
M 48.6875 27.296875 
Q 48.6875 37.203125 44.609375 42.84375 
Q 40.53125 48.484375 33.40625 48.484375 
Q 26.265625 48.484375 22.1875 42.84375 
Q 18.109375 37.203125 18.109375 27.296875 
Q 18.109375 17.390625 22.1875 11.75 
Q 26.265625 6.109375 33.40625 6.109375 
Q 40.53125 6.109375 44.609375 11.75 
Q 48.6875 17.390625 48.6875 27.296875 
z
" id="DejaVuSans-112"/>
      <path d="M 8.5 21.578125 
L 8.5 54.6875 
L 17.484375 54.6875 
L 17.484375 21.921875 
Q 17.484375 14.15625 20.5 10.265625 
Q 23.53125 6.390625 29.59375 6.390625 
Q 36.859375 6.390625 41.078125 11.03125 
Q 45.3125 15.671875 45.3125 23.6875 
L 45.3125 54.6875 
L 54.296875 54.6875 
L 54.296875 0 
L 45.3125 0 
L 45.3125 8.40625 
Q 42.046875 3.421875 37.71875 1 
Q 33.40625 -1.421875 27.6875 -1.421875 
Q 18.265625 -1.421875 13.375 4.4375 
Q 8.5 10.296875 8.5 21.578125 
z
M 31.109375 56 
z
" id="DejaVuSans-117"/>
      <path d="M 18.3125 70.21875 
L 18.3125 54.6875 
L 36.8125 54.6875 
L 36.8125 47.703125 
L 18.3125 47.703125 
L 18.3125 18.015625 
Q 18.3125 11.328125 20.140625 9.421875 
Q 21.96875 7.515625 27.59375 7.515625 
L 36.8125 7.515625 
L 36.8125 0 
L 27.59375 0 
Q 17.1875 0 13.234375 3.875 
Q 9.28125 7.765625 9.28125 18.015625 
L 9.28125 47.703125 
L 2.6875 47.703125 
L 2.6875 54.6875 
L 9.28125 54.6875 
L 9.28125 70.21875 
z
" id="DejaVuSans-116"/>
      <path id="DejaVuSans-32"/>
      <path d="M 44.28125 53.078125 
L 44.28125 44.578125 
Q 40.484375 46.53125 36.375 47.5 
Q 32.28125 48.484375 27.875 48.484375 
Q 21.1875 48.484375 17.84375 46.4375 
Q 14.5 44.390625 14.5 40.28125 
Q 14.5 37.15625 16.890625 35.375 
Q 19.28125 33.59375 26.515625 31.984375 
L 29.59375 31.296875 
Q 39.15625 29.25 43.1875 25.515625 
Q 47.21875 21.78125 47.21875 15.09375 
Q 47.21875 7.46875 41.1875 3.015625 
Q 35.15625 -1.421875 24.609375 -1.421875 
Q 20.21875 -1.421875 15.453125 -0.5625 
Q 10.6875 0.296875 5.421875 2 
L 5.421875 11.28125 
Q 10.40625 8.6875 15.234375 7.390625 
Q 20.0625 6.109375 24.8125 6.109375 
Q 31.15625 6.109375 34.5625 8.28125 
Q 37.984375 10.453125 37.984375 14.40625 
Q 37.984375 18.0625 35.515625 20.015625 
Q 33.0625 21.96875 24.703125 23.78125 
L 21.578125 24.515625 
Q 13.234375 26.265625 9.515625 29.90625 
Q 5.8125 33.546875 5.8125 39.890625 
Q 5.8125 47.609375 11.28125 51.796875 
Q 16.75 56 26.8125 56 
Q 31.78125 56 36.171875 55.265625 
Q 40.578125 54.546875 44.28125 53.078125 
z
" id="DejaVuSans-115"/>
      <path d="M 9.421875 54.6875 
L 18.40625 54.6875 
L 18.40625 0 
L 9.421875 0 
z
M 9.421875 75.984375 
L 18.40625 75.984375 
L 18.40625 64.59375 
L 9.421875 64.59375 
z
" id="DejaVuSans-105"/>
      <path d="M 5.515625 54.6875 
L 48.1875 54.6875 
L 48.1875 46.484375 
L 14.40625 7.171875 
L 48.1875 7.171875 
L 48.1875 0 
L 4.296875 0 
L 4.296875 8.203125 
L 38.09375 47.515625 
L 5.515625 47.515625 
z
" id="DejaVuSans-122"/>
      <path d="M 56.203125 29.59375 
L 56.203125 25.203125 
L 14.890625 25.203125 
Q 15.484375 15.921875 20.484375 11.0625 
Q 25.484375 6.203125 34.421875 6.203125 
Q 39.59375 6.203125 44.453125 7.46875 
Q 49.3125 8.734375 54.109375 11.28125 
L 54.109375 2.78125 
Q 49.265625 0.734375 44.1875 -0.34375 
Q 39.109375 -1.421875 33.890625 -1.421875 
Q 20.796875 -1.421875 13.15625 6.1875 
Q 5.515625 13.8125 5.515625 26.8125 
Q 5.515625 40.234375 12.765625 48.109375 
Q 20.015625 56 32.328125 56 
Q 43.359375 56 49.78125 48.890625 
Q 56.203125 41.796875 56.203125 29.59375 
z
M 47.21875 32.234375 
Q 47.125 39.59375 43.09375 43.984375 
Q 39.0625 48.390625 32.421875 48.390625 
Q 24.90625 48.390625 20.390625 44.140625 
Q 15.875 39.890625 15.1875 32.171875 
z
" id="DejaVuSans-101"/>
     </defs>
     <g transform="translate(458.570156 1055.232188)scale(0.26 -0.26)">
      <use xlink:href="#DejaVuSans-73"/>
      <use x="29.492188" xlink:href="#DejaVuSans-110"/>
      <use x="92.871094" xlink:href="#DejaVuSans-112"/>
      <use x="156.347656" xlink:href="#DejaVuSans-117"/>
      <use x="219.726562" xlink:href="#DejaVuSans-116"/>
      <use x="258.935547" xlink:href="#DejaVuSans-32"/>
      <use x="290.722656" xlink:href="#DejaVuSans-115"/>
      <use x="342.822266" xlink:href="#DejaVuSans-105"/>
      <use x="370.605469" xlink:href="#DejaVuSans-122"/>
      <use x="423.095703" xlink:href="#DejaVuSans-101"/>
     </g>
    </g>
   </g>
   <g id="matplotlib.axis_2">
    <g id="ytick_1">
     <g id="line2d_15">
      <path clip-path="url(#p6dc0f1428c)" d="M 75.169375 1003.044162 
L 967.969375 1003.044162 
" style="fill:none;stroke:#b0b0b0;stroke-linecap:square;stroke-width:0.8;"/>
     </g>
     <g id="line2d_16">
      <defs>
       <path d="M 0 0 
L -3.5 0 
" id="mbeef1ee9fb" style="stroke:#000000;stroke-width:0.8;"/>
      </defs>
      <g>
       <use style="stroke:#000000;stroke-width:0.8;" x="75.169375" xlink:href="#mbeef1ee9fb" y="1003.044162"/>
      </g>
     </g>
     <g id="text_9">
      <!-- 1.0 -->
      <defs>
       <path d="M 10.6875 12.40625 
L 21 12.40625 
L 21 0 
L 10.6875 0 
z
" id="DejaVuSans-46"/>
      </defs>
      <g transform="translate(36.363125 1010.642599)scale(0.2 -0.2)">
       <use xlink:href="#DejaVuSans-49"/>
       <use x="63.623047" xlink:href="#DejaVuSans-46"/>
       <use x="95.410156" xlink:href="#DejaVuSans-48"/>
      </g>
     </g>
    </g>
    <g id="ytick_2">
     <g id="line2d_17">
      <path clip-path="url(#p6dc0f1428c)" d="M 75.169375 829.907514 
L 967.969375 829.907514 
" style="fill:none;stroke:#b0b0b0;stroke-linecap:square;stroke-width:0.8;"/>
     </g>
     <g id="line2d_18">
      <g>
       <use style="stroke:#000000;stroke-width:0.8;" x="75.169375" xlink:href="#mbeef1ee9fb" y="829.907514"/>
      </g>
     </g>
     <g id="text_10">
      <!-- 1.5 -->
      <defs>
       <path d="M 10.796875 72.90625 
L 49.515625 72.90625 
L 49.515625 64.59375 
L 19.828125 64.59375 
L 19.828125 46.734375 
Q 21.96875 47.46875 24.109375 47.828125 
Q 26.265625 48.1875 28.421875 48.1875 
Q 40.625 48.1875 47.75 41.5 
Q 54.890625 34.8125 54.890625 23.390625 
Q 54.890625 11.625 47.5625 5.09375 
Q 40.234375 -1.421875 26.90625 -1.421875 
Q 22.3125 -1.421875 17.546875 -0.640625 
Q 12.796875 0.140625 7.71875 1.703125 
L 7.71875 11.625 
Q 12.109375 9.234375 16.796875 8.0625 
Q 21.484375 6.890625 26.703125 6.890625 
Q 35.15625 6.890625 40.078125 11.328125 
Q 45.015625 15.765625 45.015625 23.390625 
Q 45.015625 31 40.078125 35.4375 
Q 35.15625 39.890625 26.703125 39.890625 
Q 22.75 39.890625 18.8125 39.015625 
Q 14.890625 38.140625 10.796875 36.28125 
z
" id="DejaVuSans-53"/>
      </defs>
      <g transform="translate(36.363125 837.505952)scale(0.2 -0.2)">
       <use xlink:href="#DejaVuSans-49"/>
       <use x="63.623047" xlink:href="#DejaVuSans-46"/>
       <use x="95.410156" xlink:href="#DejaVuSans-53"/>
      </g>
     </g>
    </g>
    <g id="ytick_3">
     <g id="line2d_19">
      <path clip-path="url(#p6dc0f1428c)" d="M 75.169375 656.770866 
L 967.969375 656.770866 
" style="fill:none;stroke:#b0b0b0;stroke-linecap:square;stroke-width:0.8;"/>
     </g>
     <g id="line2d_20">
      <g>
       <use style="stroke:#000000;stroke-width:0.8;" x="75.169375" xlink:href="#mbeef1ee9fb" y="656.770866"/>
      </g>
     </g>
     <g id="text_11">
      <!-- 2.0 -->
      <g transform="translate(36.363125 664.369304)scale(0.2 -0.2)">
       <use xlink:href="#DejaVuSans-50"/>
       <use x="63.623047" xlink:href="#DejaVuSans-46"/>
       <use x="95.410156" xlink:href="#DejaVuSans-48"/>
      </g>
     </g>
    </g>
    <g id="ytick_4">
     <g id="line2d_21">
      <path clip-path="url(#p6dc0f1428c)" d="M 75.169375 483.634218 
L 967.969375 483.634218 
" style="fill:none;stroke:#b0b0b0;stroke-linecap:square;stroke-width:0.8;"/>
     </g>
     <g id="line2d_22">
      <g>
       <use style="stroke:#000000;stroke-width:0.8;" x="75.169375" xlink:href="#mbeef1ee9fb" y="483.634218"/>
      </g>
     </g>
     <g id="text_12">
      <!-- 2.5 -->
      <g transform="translate(36.363125 491.232656)scale(0.2 -0.2)">
       <use xlink:href="#DejaVuSans-50"/>
       <use x="63.623047" xlink:href="#DejaVuSans-46"/>
       <use x="95.410156" xlink:href="#DejaVuSans-53"/>
      </g>
     </g>
    </g>
    <g id="ytick_5">
     <g id="line2d_23">
      <path clip-path="url(#p6dc0f1428c)" d="M 75.169375 310.49757 
L 967.969375 310.49757 
" style="fill:none;stroke:#b0b0b0;stroke-linecap:square;stroke-width:0.8;"/>
     </g>
     <g id="line2d_24">
      <g>
       <use style="stroke:#000000;stroke-width:0.8;" x="75.169375" xlink:href="#mbeef1ee9fb" y="310.49757"/>
      </g>
     </g>
     <g id="text_13">
      <!-- 3.0 -->
      <defs>
       <path d="M 40.578125 39.3125 
Q 47.65625 37.796875 51.625 33 
Q 55.609375 28.21875 55.609375 21.1875 
Q 55.609375 10.40625 48.1875 4.484375 
Q 40.765625 -1.421875 27.09375 -1.421875 
Q 22.515625 -1.421875 17.65625 -0.515625 
Q 12.796875 0.390625 7.625 2.203125 
L 7.625 11.71875 
Q 11.71875 9.328125 16.59375 8.109375 
Q 21.484375 6.890625 26.8125 6.890625 
Q 36.078125 6.890625 40.9375 10.546875 
Q 45.796875 14.203125 45.796875 21.1875 
Q 45.796875 27.640625 41.28125 31.265625 
Q 36.765625 34.90625 28.71875 34.90625 
L 20.21875 34.90625 
L 20.21875 43.015625 
L 29.109375 43.015625 
Q 36.375 43.015625 40.234375 45.921875 
Q 44.09375 48.828125 44.09375 54.296875 
Q 44.09375 59.90625 40.109375 62.90625 
Q 36.140625 65.921875 28.71875 65.921875 
Q 24.65625 65.921875 20.015625 65.03125 
Q 15.375 64.15625 9.8125 62.3125 
L 9.8125 71.09375 
Q 15.4375 72.65625 20.34375 73.4375 
Q 25.25 74.21875 29.59375 74.21875 
Q 40.828125 74.21875 47.359375 69.109375 
Q 53.90625 64.015625 53.90625 55.328125 
Q 53.90625 49.265625 50.4375 45.09375 
Q 46.96875 40.921875 40.578125 39.3125 
z
" id="DejaVuSans-51"/>
      </defs>
      <g transform="translate(36.363125 318.096008)scale(0.2 -0.2)">
       <use xlink:href="#DejaVuSans-51"/>
       <use x="63.623047" xlink:href="#DejaVuSans-46"/>
       <use x="95.410156" xlink:href="#DejaVuSans-48"/>
      </g>
     </g>
    </g>
    <g id="ytick_6">
     <g id="line2d_25">
      <path clip-path="url(#p6dc0f1428c)" d="M 75.169375 137.360923 
L 967.969375 137.360923 
" style="fill:none;stroke:#b0b0b0;stroke-linecap:square;stroke-width:0.8;"/>
     </g>
     <g id="line2d_26">
      <g>
       <use style="stroke:#000000;stroke-width:0.8;" x="75.169375" xlink:href="#mbeef1ee9fb" y="137.360923"/>
      </g>
     </g>
     <g id="text_14">
      <!-- 3.5 -->
      <g transform="translate(36.363125 144.95936)scale(0.2 -0.2)">
       <use xlink:href="#DejaVuSans-51"/>
       <use x="63.623047" xlink:href="#DejaVuSans-46"/>
       <use x="95.410156" xlink:href="#DejaVuSans-53"/>
      </g>
     </g>
    </g>
    <g id="text_15">
     <!-- Avg. number of operations / size -->
     <defs>
      <path d="M 34.1875 63.1875 
L 20.796875 26.90625 
L 47.609375 26.90625 
z
M 28.609375 72.90625 
L 39.796875 72.90625 
L 67.578125 0 
L 57.328125 0 
L 50.6875 18.703125 
L 17.828125 18.703125 
L 11.1875 0 
L 0.78125 0 
z
" id="DejaVuSans-65"/>
      <path d="M 2.984375 54.6875 
L 12.5 54.6875 
L 29.59375 8.796875 
L 46.6875 54.6875 
L 56.203125 54.6875 
L 35.6875 0 
L 23.484375 0 
z
" id="DejaVuSans-118"/>
      <path d="M 45.40625 27.984375 
Q 45.40625 37.75 41.375 43.109375 
Q 37.359375 48.484375 30.078125 48.484375 
Q 22.859375 48.484375 18.828125 43.109375 
Q 14.796875 37.75 14.796875 27.984375 
Q 14.796875 18.265625 18.828125 12.890625 
Q 22.859375 7.515625 30.078125 7.515625 
Q 37.359375 7.515625 41.375 12.890625 
Q 45.40625 18.265625 45.40625 27.984375 
z
M 54.390625 6.78125 
Q 54.390625 -7.171875 48.1875 -13.984375 
Q 42 -20.796875 29.203125 -20.796875 
Q 24.46875 -20.796875 20.265625 -20.09375 
Q 16.0625 -19.390625 12.109375 -17.921875 
L 12.109375 -9.1875 
Q 16.0625 -11.328125 19.921875 -12.34375 
Q 23.78125 -13.375 27.78125 -13.375 
Q 36.625 -13.375 41.015625 -8.765625 
Q 45.40625 -4.15625 45.40625 5.171875 
L 45.40625 9.625 
Q 42.625 4.78125 38.28125 2.390625 
Q 33.9375 0 27.875 0 
Q 17.828125 0 11.671875 7.65625 
Q 5.515625 15.328125 5.515625 27.984375 
Q 5.515625 40.671875 11.671875 48.328125 
Q 17.828125 56 27.875 56 
Q 33.9375 56 38.28125 53.609375 
Q 42.625 51.21875 45.40625 46.390625 
L 45.40625 54.6875 
L 54.390625 54.6875 
z
" id="DejaVuSans-103"/>
      <path d="M 52 44.1875 
Q 55.375 50.25 60.0625 53.125 
Q 64.75 56 71.09375 56 
Q 79.640625 56 84.28125 50.015625 
Q 88.921875 44.046875 88.921875 33.015625 
L 88.921875 0 
L 79.890625 0 
L 79.890625 32.71875 
Q 79.890625 40.578125 77.09375 44.375 
Q 74.3125 48.1875 68.609375 48.1875 
Q 61.625 48.1875 57.5625 43.546875 
Q 53.515625 38.921875 53.515625 30.90625 
L 53.515625 0 
L 44.484375 0 
L 44.484375 32.71875 
Q 44.484375 40.625 41.703125 44.40625 
Q 38.921875 48.1875 33.109375 48.1875 
Q 26.21875 48.1875 22.15625 43.53125 
Q 18.109375 38.875 18.109375 30.90625 
L 18.109375 0 
L 9.078125 0 
L 9.078125 54.6875 
L 18.109375 54.6875 
L 18.109375 46.1875 
Q 21.1875 51.21875 25.484375 53.609375 
Q 29.78125 56 35.6875 56 
Q 41.65625 56 45.828125 52.96875 
Q 50 49.953125 52 44.1875 
z
" id="DejaVuSans-109"/>
      <path d="M 48.6875 27.296875 
Q 48.6875 37.203125 44.609375 42.84375 
Q 40.53125 48.484375 33.40625 48.484375 
Q 26.265625 48.484375 22.1875 42.84375 
Q 18.109375 37.203125 18.109375 27.296875 
Q 18.109375 17.390625 22.1875 11.75 
Q 26.265625 6.109375 33.40625 6.109375 
Q 40.53125 6.109375 44.609375 11.75 
Q 48.6875 17.390625 48.6875 27.296875 
z
M 18.109375 46.390625 
Q 20.953125 51.265625 25.265625 53.625 
Q 29.59375 56 35.59375 56 
Q 45.5625 56 51.78125 48.09375 
Q 58.015625 40.1875 58.015625 27.296875 
Q 58.015625 14.40625 51.78125 6.484375 
Q 45.5625 -1.421875 35.59375 -1.421875 
Q 29.59375 -1.421875 25.265625 0.953125 
Q 20.953125 3.328125 18.109375 8.203125 
L 18.109375 0 
L 9.078125 0 
L 9.078125 75.984375 
L 18.109375 75.984375 
z
" id="DejaVuSans-98"/>
      <path d="M 41.109375 46.296875 
Q 39.59375 47.171875 37.8125 47.578125 
Q 36.03125 48 33.890625 48 
Q 26.265625 48 22.1875 43.046875 
Q 18.109375 38.09375 18.109375 28.8125 
L 18.109375 0 
L 9.078125 0 
L 9.078125 54.6875 
L 18.109375 54.6875 
L 18.109375 46.1875 
Q 20.953125 51.171875 25.484375 53.578125 
Q 30.03125 56 36.53125 56 
Q 37.453125 56 38.578125 55.875 
Q 39.703125 55.765625 41.0625 55.515625 
z
" id="DejaVuSans-114"/>
      <path d="M 30.609375 48.390625 
Q 23.390625 48.390625 19.1875 42.75 
Q 14.984375 37.109375 14.984375 27.296875 
Q 14.984375 17.484375 19.15625 11.84375 
Q 23.34375 6.203125 30.609375 6.203125 
Q 37.796875 6.203125 41.984375 11.859375 
Q 46.1875 17.53125 46.1875 27.296875 
Q 46.1875 37.015625 41.984375 42.703125 
Q 37.796875 48.390625 30.609375 48.390625 
z
M 30.609375 56 
Q 42.328125 56 49.015625 48.375 
Q 55.71875 40.765625 55.71875 27.296875 
Q 55.71875 13.875 49.015625 6.21875 
Q 42.328125 -1.421875 30.609375 -1.421875 
Q 18.84375 -1.421875 12.171875 6.21875 
Q 5.515625 13.875 5.515625 27.296875 
Q 5.515625 40.765625 12.171875 48.375 
Q 18.84375 56 30.609375 56 
z
" id="DejaVuSans-111"/>
      <path d="M 37.109375 75.984375 
L 37.109375 68.5 
L 28.515625 68.5 
Q 23.6875 68.5 21.796875 66.546875 
Q 19.921875 64.59375 19.921875 59.515625 
L 19.921875 54.6875 
L 34.71875 54.6875 
L 34.71875 47.703125 
L 19.921875 47.703125 
L 19.921875 0 
L 10.890625 0 
L 10.890625 47.703125 
L 2.296875 47.703125 
L 2.296875 54.6875 
L 10.890625 54.6875 
L 10.890625 58.5 
Q 10.890625 67.625 15.140625 71.796875 
Q 19.390625 75.984375 28.609375 75.984375 
z
" id="DejaVuSans-102"/>
      <path d="M 34.28125 27.484375 
Q 23.390625 27.484375 19.1875 25 
Q 14.984375 22.515625 14.984375 16.5 
Q 14.984375 11.71875 18.140625 8.90625 
Q 21.296875 6.109375 26.703125 6.109375 
Q 34.1875 6.109375 38.703125 11.40625 
Q 43.21875 16.703125 43.21875 25.484375 
L 43.21875 27.484375 
z
M 52.203125 31.203125 
L 52.203125 0 
L 43.21875 0 
L 43.21875 8.296875 
Q 40.140625 3.328125 35.546875 0.953125 
Q 30.953125 -1.421875 24.3125 -1.421875 
Q 15.921875 -1.421875 10.953125 3.296875 
Q 6 8.015625 6 15.921875 
Q 6 25.140625 12.171875 29.828125 
Q 18.359375 34.515625 30.609375 34.515625 
L 43.21875 34.515625 
L 43.21875 35.40625 
Q 43.21875 41.609375 39.140625 45 
Q 35.0625 48.390625 27.6875 48.390625 
Q 23 48.390625 18.546875 47.265625 
Q 14.109375 46.140625 10.015625 43.890625 
L 10.015625 52.203125 
Q 14.9375 54.109375 19.578125 55.046875 
Q 24.21875 56 28.609375 56 
Q 40.484375 56 46.34375 49.84375 
Q 52.203125 43.703125 52.203125 31.203125 
z
" id="DejaVuSans-97"/>
      <path d="M 25.390625 72.90625 
L 33.6875 72.90625 
L 8.296875 -9.28125 
L 0 -9.28125 
z
" id="DejaVuSans-47"/>
     </defs>
     <g transform="translate(26.955937 717.06875)rotate(-90)scale(0.26 -0.26)">
      <use xlink:href="#DejaVuSans-65"/>
      <use x="62.533203" xlink:href="#DejaVuSans-118"/>
      <use x="121.712891" xlink:href="#DejaVuSans-103"/>
      <use x="185.189453" xlink:href="#DejaVuSans-46"/>
      <use x="216.976562" xlink:href="#DejaVuSans-32"/>
      <use x="248.763672" xlink:href="#DejaVuSans-110"/>
      <use x="312.142578" xlink:href="#DejaVuSans-117"/>
      <use x="375.521484" xlink:href="#DejaVuSans-109"/>
      <use x="472.933594" xlink:href="#DejaVuSans-98"/>
      <use x="536.410156" xlink:href="#DejaVuSans-101"/>
      <use x="597.933594" xlink:href="#DejaVuSans-114"/>
      <use x="639.046875" xlink:href="#DejaVuSans-32"/>
      <use x="670.833984" xlink:href="#DejaVuSans-111"/>
      <use x="732.015625" xlink:href="#DejaVuSans-102"/>
      <use x="767.220703" xlink:href="#DejaVuSans-32"/>
      <use x="799.007812" xlink:href="#DejaVuSans-111"/>
      <use x="860.189453" xlink:href="#DejaVuSans-112"/>
      <use x="923.666016" xlink:href="#DejaVuSans-101"/>
      <use x="985.189453" xlink:href="#DejaVuSans-114"/>
      <use x="1026.302734" xlink:href="#DejaVuSans-97"/>
      <use x="1087.582031" xlink:href="#DejaVuSans-116"/>
      <use x="1126.791016" xlink:href="#DejaVuSans-105"/>
      <use x="1154.574219" xlink:href="#DejaVuSans-111"/>
      <use x="1215.755859" xlink:href="#DejaVuSans-110"/>
      <use x="1279.134766" xlink:href="#DejaVuSans-115"/>
      <use x="1331.234375" xlink:href="#DejaVuSans-32"/>
      <use x="1363.021484" xlink:href="#DejaVuSans-47"/>
      <use x="1396.712891" xlink:href="#DejaVuSans-32"/>
      <use x="1428.5" xlink:href="#DejaVuSans-115"/>
      <use x="1480.599609" xlink:href="#DejaVuSans-105"/>
      <use x="1508.382812" xlink:href="#DejaVuSans-122"/>
      <use x="1560.873047" xlink:href="#DejaVuSans-101"/>
     </g>
    </g>
   </g>
   <g id="line2d_27">
    <path clip-path="url(#p6dc0f1428c)" d="M 115.751193 770.391791 
L 115.850282 568.579386 
L 116.04846 472.272126 
L 116.444815 408.969039 
L 117.237525 302.043633 
L 118.822946 251.353821 
L 121.993788 230.810752 
L 128.335471 195.143588 
L 141.018837 181.811728 
L 166.38557 158.595101 
L 217.119036 144.304776 
L 318.585967 138.51647 
L 521.519831 129.024283 
L 927.387557 113.730449 
" style="fill:none;stroke:#fe0002;stroke-linecap:square;stroke-width:1.5;"/>
    <defs>
     <path d="M 0 4.5 
C 1.193414 4.5 2.338109 4.025852 3.181981 3.181981 
C 4.025852 2.338109 4.5 1.193414 4.5 0 
C 4.5 -1.193414 4.025852 -2.338109 3.181981 -3.181981 
C 2.338109 -4.025852 1.193414 -4.5 0 -4.5 
C -1.193414 -4.5 -2.338109 -4.025852 -3.181981 -3.181981 
C -4.025852 -2.338109 -4.5 -1.193414 -4.5 0 
C -4.5 1.193414 -4.025852 2.338109 -3.181981 3.181981 
C -2.338109 4.025852 -1.193414 4.5 0 4.5 
z
" id="mafa4823ef7" style="stroke:#000000;"/>
    </defs>
    <g clip-path="url(#p6dc0f1428c)">
     <use style="fill:#fe0002;stroke:#000000;" x="115.751193" xlink:href="#mafa4823ef7" y="770.391791"/>
     <use style="fill:#fe0002;stroke:#000000;" x="115.850282" xlink:href="#mafa4823ef7" y="568.579386"/>
     <use style="fill:#fe0002;stroke:#000000;" x="116.04846" xlink:href="#mafa4823ef7" y="472.272126"/>
     <use style="fill:#fe0002;stroke:#000000;" x="116.444815" xlink:href="#mafa4823ef7" y="408.969039"/>
     <use style="fill:#fe0002;stroke:#000000;" x="117.237525" xlink:href="#mafa4823ef7" y="302.043633"/>
     <use style="fill:#fe0002;stroke:#000000;" x="118.822946" xlink:href="#mafa4823ef7" y="251.353821"/>
     <use style="fill:#fe0002;stroke:#000000;" x="121.993788" xlink:href="#mafa4823ef7" y="230.810752"/>
     <use style="fill:#fe0002;stroke:#000000;" x="128.335471" xlink:href="#mafa4823ef7" y="195.143588"/>
     <use style="fill:#fe0002;stroke:#000000;" x="141.018837" xlink:href="#mafa4823ef7" y="181.811728"/>
     <use style="fill:#fe0002;stroke:#000000;" x="166.38557" xlink:href="#mafa4823ef7" y="158.595101"/>
     <use style="fill:#fe0002;stroke:#000000;" x="217.119036" xlink:href="#mafa4823ef7" y="144.304776"/>
     <use style="fill:#fe0002;stroke:#000000;" x="318.585967" xlink:href="#mafa4823ef7" y="138.51647"/>
     <use style="fill:#fe0002;stroke:#000000;" x="521.519831" xlink:href="#mafa4823ef7" y="129.024283"/>
     <use style="fill:#fe0002;stroke:#000000;" x="927.387557" xlink:href="#mafa4823ef7" y="113.730449"/>
    </g>
   </g>
   <g id="line2d_28">
    <path clip-path="url(#p6dc0f1428c)" d="M 115.751193 770.391791 
L 115.850282 568.579386 
L 116.04846 472.272126 
L 116.444815 408.969039 
L 117.237525 302.043633 
L 118.822946 251.353821 
L 121.993788 230.810752 
L 128.335471 195.143588 
L 141.018837 181.811728 
L 166.38557 158.595101 
L 217.119036 144.304776 
L 318.585967 138.51647 
L 521.519831 129.024283 
L 927.387557 113.730449 
" style="fill:none;stroke:#fe0002;stroke-dasharray:5.55,2.4;stroke-dashoffset:0;stroke-width:1.5;"/>
    <g clip-path="url(#p6dc0f1428c)">
     <use style="fill:#fe0002;stroke:#000000;" x="115.751193" xlink:href="#mafa4823ef7" y="770.391791"/>
     <use style="fill:#fe0002;stroke:#000000;" x="115.850282" xlink:href="#mafa4823ef7" y="568.579386"/>
     <use style="fill:#fe0002;stroke:#000000;" x="116.04846" xlink:href="#mafa4823ef7" y="472.272126"/>
     <use style="fill:#fe0002;stroke:#000000;" x="116.444815" xlink:href="#mafa4823ef7" y="408.969039"/>
     <use style="fill:#fe0002;stroke:#000000;" x="117.237525" xlink:href="#mafa4823ef7" y="302.043633"/>
     <use style="fill:#fe0002;stroke:#000000;" x="118.822946" xlink:href="#mafa4823ef7" y="251.353821"/>
     <use style="fill:#fe0002;stroke:#000000;" x="121.993788" xlink:href="#mafa4823ef7" y="230.810752"/>
     <use style="fill:#fe0002;stroke:#000000;" x="128.335471" xlink:href="#mafa4823ef7" y="195.143588"/>
     <use style="fill:#fe0002;stroke:#000000;" x="141.018837" xlink:href="#mafa4823ef7" y="181.811728"/>
     <use style="fill:#fe0002;stroke:#000000;" x="166.38557" xlink:href="#mafa4823ef7" y="158.595101"/>
     <use style="fill:#fe0002;stroke:#000000;" x="217.119036" xlink:href="#mafa4823ef7" y="144.304776"/>
     <use style="fill:#fe0002;stroke:#000000;" x="318.585967" xlink:href="#mafa4823ef7" y="138.51647"/>
     <use style="fill:#fe0002;stroke:#000000;" x="521.519831" xlink:href="#mafa4823ef7" y="129.024283"/>
     <use style="fill:#fe0002;stroke:#000000;" x="927.387557" xlink:href="#mafa4823ef7" y="113.730449"/>
    </g>
   </g>
   <g id="line2d_29">
    <path clip-path="url(#p6dc0f1428c)" d="M 115.751193 756.324439 
L 115.850282 618.897224 
L 116.04846 477.953172 
L 116.444815 392.602215 
L 117.237525 333.898071 
L 118.822946 278.98129 
L 121.993788 247.262115 
L 128.335471 223.46428 
L 141.018837 207.401798 
L 166.38557 188.329714 
L 217.119036 181.845544 
L 318.585967 177.944051 
L 521.519831 173.291215 
L 927.387557 170.502473 
" style="fill:none;stroke:#15b01a;stroke-linecap:square;stroke-width:1.5;"/>
    <defs>
     <path d="M 0 -4.5 
L -4.5 4.5 
L 4.5 4.5 
z
" id="md490b725f3" style="stroke:#000000;stroke-linejoin:miter;"/>
    </defs>
    <g clip-path="url(#p6dc0f1428c)">
     <use style="fill:#15b01a;stroke:#000000;stroke-linejoin:miter;" x="115.751193" xlink:href="#md490b725f3" y="756.324439"/>
     <use style="fill:#15b01a;stroke:#000000;stroke-linejoin:miter;" x="115.850282" xlink:href="#md490b725f3" y="618.897224"/>
     <use style="fill:#15b01a;stroke:#000000;stroke-linejoin:miter;" x="116.04846" xlink:href="#md490b725f3" y="477.953172"/>
     <use style="fill:#15b01a;stroke:#000000;stroke-linejoin:miter;" x="116.444815" xlink:href="#md490b725f3" y="392.602215"/>
     <use style="fill:#15b01a;stroke:#000000;stroke-linejoin:miter;" x="117.237525" xlink:href="#md490b725f3" y="333.898071"/>
     <use style="fill:#15b01a;stroke:#000000;stroke-linejoin:miter;" x="118.822946" xlink:href="#md490b725f3" y="278.98129"/>
     <use style="fill:#15b01a;stroke:#000000;stroke-linejoin:miter;" x="121.993788" xlink:href="#md490b725f3" y="247.262115"/>
     <use style="fill:#15b01a;stroke:#000000;stroke-linejoin:miter;" x="128.335471" xlink:href="#md490b725f3" y="223.46428"/>
     <use style="fill:#15b01a;stroke:#000000;stroke-linejoin:miter;" x="141.018837" xlink:href="#md490b725f3" y="207.401798"/>
     <use style="fill:#15b01a;stroke:#000000;stroke-linejoin:miter;" x="166.38557" xlink:href="#md490b725f3" y="188.329714"/>
     <use style="fill:#15b01a;stroke:#000000;stroke-linejoin:miter;" x="217.119036" xlink:href="#md490b725f3" y="181.845544"/>
     <use style="fill:#15b01a;stroke:#000000;stroke-linejoin:miter;" x="318.585967" xlink:href="#md490b725f3" y="177.944051"/>
     <use style="fill:#15b01a;stroke:#000000;stroke-linejoin:miter;" x="521.519831" xlink:href="#md490b725f3" y="173.291215"/>
     <use style="fill:#15b01a;stroke:#000000;stroke-linejoin:miter;" x="927.387557" xlink:href="#md490b725f3" y="170.502473"/>
    </g>
   </g>
   <g id="line2d_30">
    <path clip-path="url(#p6dc0f1428c)" d="M 115.751193 886.176925 
L 115.850282 812.593849 
L 116.04846 725.754999 
L 116.444815 683.011889 
L 117.237525 661.43744 
L 118.822946 629.988791 
L 121.993788 612.150982 
L 128.335471 602.800927 
L 141.018837 595.657349 
L 166.38557 587.287951 
L 217.119036 584.958891 
L 318.585967 583.584069 
L 521.519831 582.090892 
L 927.387557 581.281692 
" style="fill:none;stroke:#15b01a;stroke-dasharray:5.55,2.4;stroke-dashoffset:0;stroke-width:1.5;"/>
    <defs>
     <path d="M -0 6.363961 
L 6.363961 0 
L 0 -6.363961 
L -6.363961 -0 
z
" id="m551d150f30" style="stroke:#000000;stroke-linejoin:miter;"/>
    </defs>
    <g clip-path="url(#p6dc0f1428c)">
     <use style="fill:#15b01a;stroke:#000000;stroke-linejoin:miter;" x="115.751193" xlink:href="#m551d150f30" y="886.176925"/>
     <use style="fill:#15b01a;stroke:#000000;stroke-linejoin:miter;" x="115.850282" xlink:href="#m551d150f30" y="812.593849"/>
     <use style="fill:#15b01a;stroke:#000000;stroke-linejoin:miter;" x="116.04846" xlink:href="#m551d150f30" y="725.754999"/>
     <use style="fill:#15b01a;stroke:#000000;stroke-linejoin:miter;" x="116.444815" xlink:href="#m551d150f30" y="683.011889"/>
     <use style="fill:#15b01a;stroke:#000000;stroke-linejoin:miter;" x="117.237525" xlink:href="#m551d150f30" y="661.43744"/>
     <use style="fill:#15b01a;stroke:#000000;stroke-linejoin:miter;" x="118.822946" xlink:href="#m551d150f30" y="629.988791"/>
     <use style="fill:#15b01a;stroke:#000000;stroke-linejoin:miter;" x="121.993788" xlink:href="#m551d150f30" y="612.150982"/>
     <use style="fill:#15b01a;stroke:#000000;stroke-linejoin:miter;" x="128.335471" xlink:href="#m551d150f30" y="602.800927"/>
     <use style="fill:#15b01a;stroke:#000000;stroke-linejoin:miter;" x="141.018837" xlink:href="#m551d150f30" y="595.657349"/>
     <use style="fill:#15b01a;stroke:#000000;stroke-linejoin:miter;" x="166.38557" xlink:href="#m551d150f30" y="587.287951"/>
     <use style="fill:#15b01a;stroke:#000000;stroke-linejoin:miter;" x="217.119036" xlink:href="#m551d150f30" y="584.958891"/>
     <use style="fill:#15b01a;stroke:#000000;stroke-linejoin:miter;" x="318.585967" xlink:href="#m551d150f30" y="583.584069"/>
     <use style="fill:#15b01a;stroke:#000000;stroke-linejoin:miter;" x="521.519831" xlink:href="#m551d150f30" y="582.090892"/>
     <use style="fill:#15b01a;stroke:#000000;stroke-linejoin:miter;" x="927.387557" xlink:href="#m551d150f30" y="581.281692"/>
    </g>
   </g>
   <g id="patch_3">
    <path d="M 75.169375 1005.12 
L 75.169375 7.2 
" style="fill:none;stroke:#000000;stroke-linecap:square;stroke-linejoin:miter;stroke-width:0.8;"/>
   </g>
   <g id="patch_4">
    <path d="M 967.969375 1005.12 
L 967.969375 7.2 
" style="fill:none;stroke:#000000;stroke-linecap:square;stroke-linejoin:miter;stroke-width:0.8;"/>
   </g>
   <g id="patch_5">
    <path d="M 75.169375 1005.12 
L 967.969375 1005.12 
" style="fill:none;stroke:#000000;stroke-linecap:square;stroke-linejoin:miter;stroke-width:0.8;"/>
   </g>
   <g id="patch_6">
    <path d="M 75.169375 7.2 
L 967.969375 7.2 
" style="fill:none;stroke:#000000;stroke-linecap:square;stroke-linejoin:miter;stroke-width:0.8;"/>
   </g>
   <g id="legend_1">
    <g id="patch_7">
     <path d="M 592.630937 992.12 
L 949.769375 992.12 
Q 954.969375 992.12 954.969375 986.92 
L 954.969375 836.8675 
Q 954.969375 831.6675 949.769375 831.6675 
L 592.630937 831.6675 
Q 587.430937 831.6675 587.430937 836.8675 
L 587.430937 986.92 
Q 587.430937 992.12 592.630937 992.12 
z
" style="fill:#ffffff;opacity:0.8;stroke:#cccccc;stroke-linejoin:miter;"/>
    </g>
    <g id="line2d_31">
     <path d="M 597.830937 852.723437 
L 649.830937 852.723437 
" style="fill:none;stroke:#fe0002;stroke-linecap:square;stroke-width:1.5;"/>
    </g>
    <g id="line2d_32">
     <g>
      <use style="fill:#fe0002;stroke:#000000;" x="623.830937" xlink:href="#mafa4823ef7" y="852.723437"/>
     </g>
    </g>
    <g id="text_16">
     <!-- Pairing comparisons -->
     <defs>
      <path d="M 19.671875 64.796875 
L 19.671875 37.40625 
L 32.078125 37.40625 
Q 38.96875 37.40625 42.71875 40.96875 
Q 46.484375 44.53125 46.484375 51.125 
Q 46.484375 57.671875 42.71875 61.234375 
Q 38.96875 64.796875 32.078125 64.796875 
z
M 9.8125 72.90625 
L 32.078125 72.90625 
Q 44.34375 72.90625 50.609375 67.359375 
Q 56.890625 61.8125 56.890625 51.125 
Q 56.890625 40.328125 50.609375 34.8125 
Q 44.34375 29.296875 32.078125 29.296875 
L 19.671875 29.296875 
L 19.671875 0 
L 9.8125 0 
z
" id="DejaVuSans-80"/>
      <path d="M 48.78125 52.59375 
L 48.78125 44.1875 
Q 44.96875 46.296875 41.140625 47.34375 
Q 37.3125 48.390625 33.40625 48.390625 
Q 24.65625 48.390625 19.8125 42.84375 
Q 14.984375 37.3125 14.984375 27.296875 
Q 14.984375 17.28125 19.8125 11.734375 
Q 24.65625 6.203125 33.40625 6.203125 
Q 37.3125 6.203125 41.140625 7.25 
Q 44.96875 8.296875 48.78125 10.40625 
L 48.78125 2.09375 
Q 45.015625 0.34375 40.984375 -0.53125 
Q 36.96875 -1.421875 32.421875 -1.421875 
Q 20.0625 -1.421875 12.78125 6.34375 
Q 5.515625 14.109375 5.515625 27.296875 
Q 5.515625 40.671875 12.859375 48.328125 
Q 20.21875 56 33.015625 56 
Q 37.15625 56 41.109375 55.140625 
Q 45.0625 54.296875 48.78125 52.59375 
z
" id="DejaVuSans-99"/>
     </defs>
     <g transform="translate(670.630937 861.823437)scale(0.26 -0.26)">
      <use xlink:href="#DejaVuSans-80"/>
      <use x="55.802734" xlink:href="#DejaVuSans-97"/>
      <use x="117.082031" xlink:href="#DejaVuSans-105"/>
      <use x="144.865234" xlink:href="#DejaVuSans-114"/>
      <use x="185.978516" xlink:href="#DejaVuSans-105"/>
      <use x="213.761719" xlink:href="#DejaVuSans-110"/>
      <use x="277.140625" xlink:href="#DejaVuSans-103"/>
      <use x="340.617188" xlink:href="#DejaVuSans-32"/>
      <use x="372.404297" xlink:href="#DejaVuSans-99"/>
      <use x="427.384766" xlink:href="#DejaVuSans-111"/>
      <use x="488.566406" xlink:href="#DejaVuSans-109"/>
      <use x="585.978516" xlink:href="#DejaVuSans-112"/>
      <use x="649.455078" xlink:href="#DejaVuSans-97"/>
      <use x="710.734375" xlink:href="#DejaVuSans-114"/>
      <use x="751.847656" xlink:href="#DejaVuSans-105"/>
      <use x="779.630859" xlink:href="#DejaVuSans-115"/>
      <use x="831.730469" xlink:href="#DejaVuSans-111"/>
      <use x="892.912109" xlink:href="#DejaVuSans-110"/>
      <use x="956.291016" xlink:href="#DejaVuSans-115"/>
     </g>
    </g>
    <g id="line2d_33">
     <path d="M 597.830937 890.886562 
L 649.830937 890.886562 
" style="fill:none;stroke:#fe0002;stroke-dasharray:5.55,2.4;stroke-dashoffset:0;stroke-width:1.5;"/>
    </g>
    <g id="line2d_34">
     <g>
      <use style="fill:#fe0002;stroke:#000000;" x="623.830937" xlink:href="#mafa4823ef7" y="890.886562"/>
     </g>
    </g>
    <g id="text_17">
     <!-- Pairing links -->
     <defs>
      <path d="M 9.421875 75.984375 
L 18.40625 75.984375 
L 18.40625 0 
L 9.421875 0 
z
" id="DejaVuSans-108"/>
      <path d="M 9.078125 75.984375 
L 18.109375 75.984375 
L 18.109375 31.109375 
L 44.921875 54.6875 
L 56.390625 54.6875 
L 27.390625 29.109375 
L 57.625 0 
L 45.90625 0 
L 18.109375 26.703125 
L 18.109375 0 
L 9.078125 0 
z
" id="DejaVuSans-107"/>
     </defs>
     <g transform="translate(670.630937 899.986562)scale(0.26 -0.26)">
      <use xlink:href="#DejaVuSans-80"/>
      <use x="55.802734" xlink:href="#DejaVuSans-97"/>
      <use x="117.082031" xlink:href="#DejaVuSans-105"/>
      <use x="144.865234" xlink:href="#DejaVuSans-114"/>
      <use x="185.978516" xlink:href="#DejaVuSans-105"/>
      <use x="213.761719" xlink:href="#DejaVuSans-110"/>
      <use x="277.140625" xlink:href="#DejaVuSans-103"/>
      <use x="340.617188" xlink:href="#DejaVuSans-32"/>
      <use x="372.404297" xlink:href="#DejaVuSans-108"/>
      <use x="400.1875" xlink:href="#DejaVuSans-105"/>
      <use x="427.970703" xlink:href="#DejaVuSans-110"/>
      <use x="491.349609" xlink:href="#DejaVuSans-107"/>
      <use x="549.259766" xlink:href="#DejaVuSans-115"/>
     </g>
    </g>
    <g id="line2d_35">
     <path d="M 597.830937 929.049688 
L 649.830937 929.049688 
" style="fill:none;stroke:#15b01a;stroke-linecap:square;stroke-width:1.5;"/>
    </g>
    <g id="line2d_36">
     <g>
      <use style="fill:#15b01a;stroke:#000000;stroke-linejoin:miter;" x="623.830937" xlink:href="#md490b725f3" y="929.049688"/>
     </g>
    </g>
    <g id="text_18">
     <!-- Smooth comparisons -->
     <defs>
      <path d="M 53.515625 70.515625 
L 53.515625 60.890625 
Q 47.90625 63.578125 42.921875 64.890625 
Q 37.9375 66.21875 33.296875 66.21875 
Q 25.25 66.21875 20.875 63.09375 
Q 16.5 59.96875 16.5 54.203125 
Q 16.5 49.359375 19.40625 46.890625 
Q 22.3125 44.4375 30.421875 42.921875 
L 36.375 41.703125 
Q 47.40625 39.59375 52.65625 34.296875 
Q 57.90625 29 57.90625 20.125 
Q 57.90625 9.515625 50.796875 4.046875 
Q 43.703125 -1.421875 29.984375 -1.421875 
Q 24.8125 -1.421875 18.96875 -0.25 
Q 13.140625 0.921875 6.890625 3.21875 
L 6.890625 13.375 
Q 12.890625 10.015625 18.65625 8.296875 
Q 24.421875 6.59375 29.984375 6.59375 
Q 38.421875 6.59375 43.015625 9.90625 
Q 47.609375 13.234375 47.609375 19.390625 
Q 47.609375 24.75 44.3125 27.78125 
Q 41.015625 30.8125 33.5 32.328125 
L 27.484375 33.5 
Q 16.453125 35.6875 11.515625 40.375 
Q 6.59375 45.0625 6.59375 53.421875 
Q 6.59375 63.09375 13.40625 68.65625 
Q 20.21875 74.21875 32.171875 74.21875 
Q 37.3125 74.21875 42.625 73.28125 
Q 47.953125 72.359375 53.515625 70.515625 
z
" id="DejaVuSans-83"/>
      <path d="M 54.890625 33.015625 
L 54.890625 0 
L 45.90625 0 
L 45.90625 32.71875 
Q 45.90625 40.484375 42.875 44.328125 
Q 39.84375 48.1875 33.796875 48.1875 
Q 26.515625 48.1875 22.3125 43.546875 
Q 18.109375 38.921875 18.109375 30.90625 
L 18.109375 0 
L 9.078125 0 
L 9.078125 75.984375 
L 18.109375 75.984375 
L 18.109375 46.1875 
Q 21.34375 51.125 25.703125 53.5625 
Q 30.078125 56 35.796875 56 
Q 45.21875 56 50.046875 50.171875 
Q 54.890625 44.34375 54.890625 33.015625 
z
" id="DejaVuSans-104"/>
     </defs>
     <g transform="translate(670.630937 938.149688)scale(0.26 -0.26)">
      <use xlink:href="#DejaVuSans-83"/>
      <use x="63.476562" xlink:href="#DejaVuSans-109"/>
      <use x="160.888672" xlink:href="#DejaVuSans-111"/>
      <use x="222.070312" xlink:href="#DejaVuSans-111"/>
      <use x="283.251953" xlink:href="#DejaVuSans-116"/>
      <use x="322.460938" xlink:href="#DejaVuSans-104"/>
      <use x="385.839844" xlink:href="#DejaVuSans-32"/>
      <use x="417.626953" xlink:href="#DejaVuSans-99"/>
      <use x="472.607422" xlink:href="#DejaVuSans-111"/>
      <use x="533.789062" xlink:href="#DejaVuSans-109"/>
      <use x="631.201172" xlink:href="#DejaVuSans-112"/>
      <use x="694.677734" xlink:href="#DejaVuSans-97"/>
      <use x="755.957031" xlink:href="#DejaVuSans-114"/>
      <use x="797.070312" xlink:href="#DejaVuSans-105"/>
      <use x="824.853516" xlink:href="#DejaVuSans-115"/>
      <use x="876.953125" xlink:href="#DejaVuSans-111"/>
      <use x="938.134766" xlink:href="#DejaVuSans-110"/>
      <use x="1001.513672" xlink:href="#DejaVuSans-115"/>
     </g>
    </g>
    <g id="line2d_37">
     <path d="M 597.830937 967.212813 
L 649.830937 967.212813 
" style="fill:none;stroke:#15b01a;stroke-dasharray:5.55,2.4;stroke-dashoffset:0;stroke-width:1.5;"/>
    </g>
    <g id="line2d_38">
     <g>
      <use style="fill:#15b01a;stroke:#000000;stroke-linejoin:miter;" x="623.830937" xlink:href="#m551d150f30" y="967.212813"/>
     </g>
    </g>
    <g id="text_19">
     <!-- Smooth links -->
     <g transform="translate(670.630937 976.312813)scale(0.26 -0.26)">
      <use xlink:href="#DejaVuSans-83"/>
      <use x="63.476562" xlink:href="#DejaVuSans-109"/>
      <use x="160.888672" xlink:href="#DejaVuSans-111"/>
      <use x="222.070312" xlink:href="#DejaVuSans-111"/>
      <use x="283.251953" xlink:href="#DejaVuSans-116"/>
      <use x="322.460938" xlink:href="#DejaVuSans-104"/>
      <use x="385.839844" xlink:href="#DejaVuSans-32"/>
      <use x="417.626953" xlink:href="#DejaVuSans-108"/>
      <use x="445.410156" xlink:href="#DejaVuSans-105"/>
      <use x="473.193359" xlink:href="#DejaVuSans-110"/>
      <use x="536.572266" xlink:href="#DejaVuSans-107"/>
      <use x="594.482422" xlink:href="#DejaVuSans-115"/>
     </g>
    </g>
   </g>
  </g>
 </g>
 <defs>
  <clipPath id="p6dc0f1428c">
   <rect height="997.92" width="892.8" x="75.169375" y="7.2"/>
  </clipPath>
 </defs>
</svg>
