<?xml version="1.0" encoding="utf-8" standalone="no"?>
<!DOCTYPE svg PUBLIC "-//W3C//DTD SVG 1.1//EN"
  "http://www.w3.org/Graphics/SVG/1.1/DTD/svg11.dtd">
<svg height="1095.215164pt" version="1.1" viewBox="0 0 994.119687 1095.215164" width="994.119687pt" xmlns="http://www.w3.org/2000/svg" xmlns:xlink="http://www.w3.org/1999/xlink">
 <metadata>
  <rdf:RDF xmlns:cc="http://creativecommons.org/ns#" xmlns:dc="http://purl.org/dc/elements/1.1/" xmlns:rdf="http://www.w3.org/1999/02/22-rdf-syntax-ns#">
   <cc:Work>
    <dc:type rdf:resource="http://purl.org/dc/dcmitype/StillImage"/>
    <dc:date>2021-07-04T13:40:52.837617</dc:date>
    <dc:format>image/svg+xml</dc:format>
    <dc:creator>
     <cc:Agent>
      <dc:title>Matplotlib v3.4.2, https://matplotlib.org/</dc:title>
     </cc:Agent>
    </dc:creator>
   </cc:Work>
  </rdf:RDF>
 </metadata>
 <defs>
  <style type="text/css">*{stroke-linecap:butt;stroke-linejoin:round;}</style>
 </defs>
 <g id="figure_1">
  <g id="patch_1">
   <path d="M 0 1095.215164 
L 994.119687 1095.215164 
L 994.119687 0 
L 0 0 
z
" style="fill:#ffffff;"/>
  </g>
  <g id="axes_1">
   <g id="patch_2">
    <path d="M 94.119688 1010.236101 
L 986.919688 1010.236101 
L 986.919688 12.316101 
L 94.119688 12.316101 
z
" style="fill:#ffffff;"/>
   </g>
   <g id="PolyCollection_1">
    <defs>
     <path d="M 134.701506 -154.915741 
L 134.701506 -130.339062 
L 177.419209 -194.146836 
L 220.136912 -230.477578 
L 262.854616 -251.238002 
L 305.572319 -281.615388 
L 348.290022 -291.9956 
L 391.007726 -323.136236 
L 433.725429 -325.731289 
L 476.443132 -326.036589 
L 519.160836 -339.927755 
L 561.878539 -346.949663 
L 604.596243 -359.009027 
L 647.313946 -375.953197 
L 690.031649 -363.435882 
L 732.749353 -389.997013 
L 775.467056 -378.242949 
L 818.184759 -390.149663 
L 860.902463 -391.981465 
L 903.620166 -392.744716 
L 946.337869 -400.071925 
L 946.337869 -453.957437 
L 946.337869 -453.957437 
L 903.620166 -440.524222 
L 860.902463 -431.975812 
L 818.184759 -416.405494 
L 775.467056 -426.480405 
L 732.749353 -413.19984 
L 690.031649 -409.230935 
L 647.313946 -406.177932 
L 604.596243 -406.330582 
L 561.878539 -397.782172 
L 519.160836 -368.778638 
L 476.443132 -370.15249 
L 433.725429 -360.382879 
L 391.007726 -347.254964 
L 348.290022 -334.737649 
L 305.572319 -304.970865 
L 262.854616 -290.163797 
L 220.136912 -254.901607 
L 177.419209 -215.670511 
L 134.701506 -154.915741 
z
" id="me5e41f334d" style="stroke:#fe0002;stroke-opacity:0.3;"/>
    </defs>
    <g clip-path="url(#pfffd4727e9)">
     <use style="fill:#fe0002;fill-opacity:0.3;stroke:#fe0002;stroke-opacity:0.3;" x="0" xlink:href="#me5e41f334d" y="1095.215164"/>
    </g>
   </g>
   <g id="PolyCollection_2">
    <defs>
     <path d="M 134.701506 -498.989239 
L 134.701506 -464.7956 
L 177.419209 -559.591359 
L 220.136912 -587.984292 
L 262.854616 -634.542596 
L 305.572319 -682.169451 
L 348.290022 -717.431642 
L 391.007726 -737.734116 
L 433.725429 -747.198426 
L 476.443132 -757.883939 
L 519.160836 -766.279699 
L 561.878539 -791.161677 
L 604.596243 -803.373691 
L 647.313946 -803.831642 
L 690.031649 -812.380052 
L 732.749353 -847.184292 
L 775.467056 -852.527048 
L 818.184759 -830.240123 
L 860.902463 -850.847896 
L 903.620166 -864.281112 
L 946.337869 -860.617508 
L 946.337869 -921.372278 
L 946.337869 -921.372278 
L 903.620166 -901.985706 
L 860.902463 -895.574398 
L 818.184759 -877.866978 
L 775.467056 -894.200547 
L 732.749353 -874.356024 
L 690.031649 -880.767331 
L 647.313946 -859.091006 
L 604.596243 -854.05355 
L 561.878539 -830.087472 
L 519.160836 -825.965918 
L 476.443132 -809.327048 
L 433.725429 -795.130582 
L 391.007726 -766.584999 
L 348.290022 -742.924222 
L 305.572319 -715.44719 
L 262.854616 -694.076165 
L 220.136912 -651.944716 
L 177.419209 -594.3956 
L 134.701506 -498.989239 
z
" id="m88ea11bb54" style="stroke:#53fca1;stroke-opacity:0.3;"/>
    </defs>
    <g clip-path="url(#pfffd4727e9)">
     <use style="fill:#53fca1;fill-opacity:0.3;stroke:#53fca1;stroke-opacity:0.3;" x="0" xlink:href="#m88ea11bb54" y="1095.215164"/>
    </g>
   </g>
   <g id="PolyCollection_3">
    <defs>
     <path d="M 134.701506 -542.64719 
L 134.701506 -506.621748 
L 177.419209 -597.601253 
L 220.136912 -633.016094 
L 262.854616 -689.49666 
L 305.572319 -725.522101 
L 348.290022 -762.158144 
L 391.007726 -787.803373 
L 433.725429 -795.283232 
L 476.443132 -819.70726 
L 519.160836 -822.454964 
L 561.878539 -854.511501 
L 604.596243 -865.044363 
L 647.313946 -878.019628 
L 690.031649 -881.835882 
L 732.749353 -900.611854 
L 775.467056 -910.228815 
L 818.184759 -917.556024 
L 860.902463 -905.038709 
L 903.620166 -922.89878 
L 946.337869 -924.883232 
L 946.337869 -988.691006 
L 946.337869 -988.691006 
L 903.620166 -994.797013 
L 860.902463 -958.618921 
L 818.184759 -948.391359 
L 775.467056 -956.481819 
L 732.749353 -942.743303 
L 690.031649 -946.254257 
L 647.313946 -907.481112 
L 604.596243 -901.527755 
L 561.878539 -894.658497 
L 519.160836 -867.639416 
L 476.443132 -860.770158 
L 433.725429 -859.701607 
L 391.007726 -823.370865 
L 348.290022 -798.336236 
L 305.572319 -783.834469 
L 262.854616 -740.787119 
L 220.136912 -681.711501 
L 177.419209 -631.336942 
L 134.701506 -542.64719 
z
" id="m234c25e00c" style="stroke:#0652ff;stroke-opacity:0.3;"/>
    </defs>
    <g clip-path="url(#pfffd4727e9)">
     <use style="fill:#0652ff;fill-opacity:0.3;stroke:#0652ff;stroke-opacity:0.3;" x="0" xlink:href="#m234c25e00c" y="1095.215164"/>
    </g>
   </g>
   <g id="PolyCollection_4">
    <defs>
     <path d="M 134.701506 -741.70302 
L 134.701506 -687.970158 
L 177.419209 -783.529169 
L 220.136912 -823.981465 
L 262.854616 -882.446483 
L 305.572319 -903.206907 
L 348.290022 -907.023161 
L 391.007726 -927.936236 
L 433.725429 -947.780759 
L 476.443132 -928.088886 
L 519.160836 -955.871218 
L 561.878539 -957.70302 
L 604.596243 -976.326342 
L 647.313946 -955.871218 
L 690.031649 -966.709381 
L 732.749353 -979.989946 
L 775.467056 -988.080405 
L 818.184759 -965.640829 
L 860.902463 -982.584999 
L 903.620166 -960.145423 
L 946.337869 -988.843656 
L 946.337869 -1037.539062 
L 946.337869 -1037.539062 
L 903.620166 -1022.121395 
L 860.902463 -1034.180759 
L 818.184759 -1016.778638 
L 775.467056 -1035.24931 
L 732.749353 -1037.233762 
L 690.031649 -1016.931289 
L 647.313946 -1014.336236 
L 604.596243 -1013.420335 
L 561.878539 -1017.541889 
L 519.160836 -1004.261324 
L 476.443132 -994.644363 
L 433.725429 -1004.261324 
L 391.007726 -968.846483 
L 348.290022 -965.793479 
L 305.572319 -935.263444 
L 262.854616 -909.312914 
L 220.136912 -873.134822 
L 177.419209 -835.277578 
L 134.701506 -741.70302 
z
" id="m9266ca1066" style="stroke:#ae7181;stroke-opacity:0.3;"/>
    </defs>
    <g clip-path="url(#pfffd4727e9)">
     <use style="fill:#ae7181;fill-opacity:0.3;stroke:#ae7181;stroke-opacity:0.3;" x="0" xlink:href="#m9266ca1066" y="1095.215164"/>
    </g>
   </g>
   <g id="PolyCollection_5">
    <defs>
     <path d="M 134.701506 -430.29666 
L 134.701506 -402.819628 
L 177.419209 -467.085352 
L 220.136912 -491.35673 
L 262.854616 -532.266978 
L 305.572319 -559.89666 
L 348.290022 -587.221041 
L 391.007726 -602.791359 
L 433.725429 -606.149663 
L 476.443132 -611.79772 
L 519.160836 -626.604787 
L 561.878539 -646.29666 
L 604.596243 -659.729875 
L 647.313946 -649.807614 
L 690.031649 -673.621041 
L 732.749353 -662.019628 
L 775.467056 -678.963797 
L 818.184759 -676.521395 
L 860.902463 -686.291006 
L 903.620166 -685.375105 
L 946.337869 -718.347543 
L 946.337869 -747.198426 
L 946.337869 -747.198426 
L 903.620166 -738.955317 
L 860.902463 -730.406907 
L 818.184759 -713.920688 
L 775.467056 -715.44719 
L 732.749353 -715.29454 
L 690.031649 -711.630935 
L 647.313946 -708.883232 
L 604.596243 -698.19772 
L 561.878539 -694.534116 
L 519.160836 -668.583585 
L 476.443132 -659.424575 
L 433.725429 -654.234469 
L 391.007726 -644.006907 
L 348.290022 -630.421041 
L 305.572319 -590.426695 
L 262.854616 -583.557437 
L 220.136912 -541.578638 
L 177.419209 -498.378638 
L 134.701506 -430.29666 
z
" id="md4ad476605" style="stroke:#ff81c0;stroke-opacity:0.3;"/>
    </defs>
    <g clip-path="url(#pfffd4727e9)">
     <use style="fill:#ff81c0;fill-opacity:0.3;stroke:#ff81c0;stroke-opacity:0.3;" x="0" xlink:href="#md4ad476605" y="1095.215164"/>
    </g>
   </g>
   <g id="PolyCollection_6">
    <defs>
     <path d="M 134.701506 -400.682525 
L 134.701506 -372.594893 
L 177.419209 -437.623868 
L 220.136912 -478.534116 
L 262.854616 -508.75885 
L 305.572319 -528.908674 
L 348.290022 -557.912207 
L 391.007726 -554.401253 
L 433.725429 -579.435882 
L 476.443132 -596.380052 
L 519.160836 -597.753903 
L 561.878539 -598.364504 
L 604.596243 -624.925635 
L 647.313946 -635.000547 
L 690.031649 -618.819628 
L 732.749353 -651.181465 
L 775.467056 -661.103727 
L 818.184759 -636.984999 
L 860.902463 -654.234469 
L 903.620166 -655.760971 
L 946.337869 -660.645776 
L 946.337869 -717.278992 
L 946.337869 -717.278992 
L 903.620166 -694.228815 
L 860.902463 -697.434469 
L 818.184759 -690.870511 
L 775.467056 -693.007614 
L 732.749353 -676.979345 
L 690.031649 -666.293833 
L 647.313946 -661.103727 
L 604.596243 -670.415388 
L 561.878539 -655.760971 
L 519.160836 -637.137649 
L 476.443132 -623.704434 
L 433.725429 -623.857084 
L 391.007726 -606.149663 
L 348.290022 -582.794186 
L 305.572319 -561.117861 
L 262.854616 -557.606907 
L 220.136912 -507.232349 
L 177.419209 -477.160264 
L 134.701506 -400.682525 
z
" id="m67ab49efc3" style="stroke:#f97306;stroke-opacity:0.3;"/>
    </defs>
    <g clip-path="url(#pfffd4727e9)">
     <use style="fill:#f97306;fill-opacity:0.3;stroke:#f97306;stroke-opacity:0.3;" x="0" xlink:href="#m67ab49efc3" y="1095.215164"/>
    </g>
   </g>
   <g id="matplotlib.axis_1">
    <g id="xtick_1">
     <g id="line2d_1">
      <path clip-path="url(#pfffd4727e9)" d="M 262.854616 1010.236101 
L 262.854616 12.316101 
" style="fill:none;stroke:#b0b0b0;stroke-linecap:square;stroke-width:0.8;"/>
     </g>
     <g id="line2d_2">
      <defs>
       <path d="M 0 0 
L 0 3.5 
" id="m4f129cc96a" style="stroke:#000000;stroke-width:0.8;"/>
      </defs>
      <g>
       <use style="stroke:#000000;stroke-width:0.8;" x="262.854616" xlink:href="#m4f129cc96a" y="1010.236101"/>
      </g>
     </g>
     <g id="text_1">
      <!-- 0.2 -->
      <g transform="translate(238.999928 1040.031414)scale(0.3 -0.3)">
       <defs>
        <path d="M 2034 4250 
Q 1547 4250 1301 3770 
Q 1056 3291 1056 2328 
Q 1056 1369 1301 889 
Q 1547 409 2034 409 
Q 2525 409 2770 889 
Q 3016 1369 3016 2328 
Q 3016 3291 2770 3770 
Q 2525 4250 2034 4250 
z
M 2034 4750 
Q 2819 4750 3233 4129 
Q 3647 3509 3647 2328 
Q 3647 1150 3233 529 
Q 2819 -91 2034 -91 
Q 1250 -91 836 529 
Q 422 1150 422 2328 
Q 422 3509 836 4129 
Q 1250 4750 2034 4750 
z
" id="DejaVuSans-30" transform="scale(0.015625)"/>
        <path d="M 684 794 
L 1344 794 
L 1344 0 
L 684 0 
L 684 794 
z
" id="DejaVuSans-2e" transform="scale(0.015625)"/>
        <path d="M 1228 531 
L 3431 531 
L 3431 0 
L 469 0 
L 469 531 
Q 828 903 1448 1529 
Q 2069 2156 2228 2338 
Q 2531 2678 2651 2914 
Q 2772 3150 2772 3378 
Q 2772 3750 2511 3984 
Q 2250 4219 1831 4219 
Q 1534 4219 1204 4116 
Q 875 4013 500 3803 
L 500 4441 
Q 881 4594 1212 4672 
Q 1544 4750 1819 4750 
Q 2544 4750 2975 4387 
Q 3406 4025 3406 3419 
Q 3406 3131 3298 2873 
Q 3191 2616 2906 2266 
Q 2828 2175 2409 1742 
Q 1991 1309 1228 531 
z
" id="DejaVuSans-32" transform="scale(0.015625)"/>
       </defs>
       <use xlink:href="#DejaVuSans-30"/>
       <use x="63.623047" xlink:href="#DejaVuSans-2e"/>
       <use x="95.410156" xlink:href="#DejaVuSans-32"/>
      </g>
     </g>
    </g>
    <g id="xtick_2">
     <g id="line2d_3">
      <path clip-path="url(#pfffd4727e9)" d="M 433.725429 1010.236101 
L 433.725429 12.316101 
" style="fill:none;stroke:#b0b0b0;stroke-linecap:square;stroke-width:0.8;"/>
     </g>
     <g id="line2d_4">
      <g>
       <use style="stroke:#000000;stroke-width:0.8;" x="433.725429" xlink:href="#m4f129cc96a" y="1010.236101"/>
      </g>
     </g>
     <g id="text_2">
      <!-- 0.4 -->
      <g transform="translate(409.870742 1040.031414)scale(0.3 -0.3)">
       <defs>
        <path d="M 2419 4116 
L 825 1625 
L 2419 1625 
L 2419 4116 
z
M 2253 4666 
L 3047 4666 
L 3047 1625 
L 3713 1625 
L 3713 1100 
L 3047 1100 
L 3047 0 
L 2419 0 
L 2419 1100 
L 313 1100 
L 313 1709 
L 2253 4666 
z
" id="DejaVuSans-34" transform="scale(0.015625)"/>
       </defs>
       <use xlink:href="#DejaVuSans-30"/>
       <use x="63.623047" xlink:href="#DejaVuSans-2e"/>
       <use x="95.410156" xlink:href="#DejaVuSans-34"/>
      </g>
     </g>
    </g>
    <g id="xtick_3">
     <g id="line2d_5">
      <path clip-path="url(#pfffd4727e9)" d="M 604.596243 1010.236101 
L 604.596243 12.316101 
" style="fill:none;stroke:#b0b0b0;stroke-linecap:square;stroke-width:0.8;"/>
     </g>
     <g id="line2d_6">
      <g>
       <use style="stroke:#000000;stroke-width:0.8;" x="604.596243" xlink:href="#m4f129cc96a" y="1010.236101"/>
      </g>
     </g>
     <g id="text_3">
      <!-- 0.6 -->
      <g transform="translate(580.741555 1040.031414)scale(0.3 -0.3)">
       <defs>
        <path d="M 2113 2584 
Q 1688 2584 1439 2293 
Q 1191 2003 1191 1497 
Q 1191 994 1439 701 
Q 1688 409 2113 409 
Q 2538 409 2786 701 
Q 3034 994 3034 1497 
Q 3034 2003 2786 2293 
Q 2538 2584 2113 2584 
z
M 3366 4563 
L 3366 3988 
Q 3128 4100 2886 4159 
Q 2644 4219 2406 4219 
Q 1781 4219 1451 3797 
Q 1122 3375 1075 2522 
Q 1259 2794 1537 2939 
Q 1816 3084 2150 3084 
Q 2853 3084 3261 2657 
Q 3669 2231 3669 1497 
Q 3669 778 3244 343 
Q 2819 -91 2113 -91 
Q 1303 -91 875 529 
Q 447 1150 447 2328 
Q 447 3434 972 4092 
Q 1497 4750 2381 4750 
Q 2619 4750 2861 4703 
Q 3103 4656 3366 4563 
z
" id="DejaVuSans-36" transform="scale(0.015625)"/>
       </defs>
       <use xlink:href="#DejaVuSans-30"/>
       <use x="63.623047" xlink:href="#DejaVuSans-2e"/>
       <use x="95.410156" xlink:href="#DejaVuSans-36"/>
      </g>
     </g>
    </g>
    <g id="xtick_4">
     <g id="line2d_7">
      <path clip-path="url(#pfffd4727e9)" d="M 775.467056 1010.236101 
L 775.467056 12.316101 
" style="fill:none;stroke:#b0b0b0;stroke-linecap:square;stroke-width:0.8;"/>
     </g>
     <g id="line2d_8">
      <g>
       <use style="stroke:#000000;stroke-width:0.8;" x="775.467056" xlink:href="#m4f129cc96a" y="1010.236101"/>
      </g>
     </g>
     <g id="text_4">
      <!-- 0.8 -->
      <g transform="translate(751.612368 1040.031414)scale(0.3 -0.3)">
       <defs>
        <path d="M 2034 2216 
Q 1584 2216 1326 1975 
Q 1069 1734 1069 1313 
Q 1069 891 1326 650 
Q 1584 409 2034 409 
Q 2484 409 2743 651 
Q 3003 894 3003 1313 
Q 3003 1734 2745 1975 
Q 2488 2216 2034 2216 
z
M 1403 2484 
Q 997 2584 770 2862 
Q 544 3141 544 3541 
Q 544 4100 942 4425 
Q 1341 4750 2034 4750 
Q 2731 4750 3128 4425 
Q 3525 4100 3525 3541 
Q 3525 3141 3298 2862 
Q 3072 2584 2669 2484 
Q 3125 2378 3379 2068 
Q 3634 1759 3634 1313 
Q 3634 634 3220 271 
Q 2806 -91 2034 -91 
Q 1263 -91 848 271 
Q 434 634 434 1313 
Q 434 1759 690 2068 
Q 947 2378 1403 2484 
z
M 1172 3481 
Q 1172 3119 1398 2916 
Q 1625 2713 2034 2713 
Q 2441 2713 2670 2916 
Q 2900 3119 2900 3481 
Q 2900 3844 2670 4047 
Q 2441 4250 2034 4250 
Q 1625 4250 1398 4047 
Q 1172 3844 1172 3481 
z
" id="DejaVuSans-38" transform="scale(0.015625)"/>
       </defs>
       <use xlink:href="#DejaVuSans-30"/>
       <use x="63.623047" xlink:href="#DejaVuSans-2e"/>
       <use x="95.410156" xlink:href="#DejaVuSans-38"/>
      </g>
     </g>
    </g>
    <g id="xtick_5">
     <g id="line2d_9">
      <path clip-path="url(#pfffd4727e9)" d="M 946.337869 1010.236101 
L 946.337869 12.316101 
" style="fill:none;stroke:#b0b0b0;stroke-linecap:square;stroke-width:0.8;"/>
     </g>
     <g id="line2d_10">
      <g>
       <use style="stroke:#000000;stroke-width:0.8;" x="946.337869" xlink:href="#m4f129cc96a" y="1010.236101"/>
      </g>
     </g>
     <g id="text_5">
      <!-- 1.0 -->
      <g transform="translate(922.483182 1040.031414)scale(0.3 -0.3)">
       <defs>
        <path d="M 794 531 
L 1825 531 
L 1825 4091 
L 703 3866 
L 703 4441 
L 1819 4666 
L 2450 4666 
L 2450 531 
L 3481 531 
L 3481 0 
L 794 0 
L 794 531 
z
" id="DejaVuSans-31" transform="scale(0.015625)"/>
       </defs>
       <use xlink:href="#DejaVuSans-31"/>
       <use x="63.623047" xlink:href="#DejaVuSans-2e"/>
       <use x="95.410156" xlink:href="#DejaVuSans-30"/>
      </g>
     </g>
    </g>
    <g id="text_6">
     <!-- Edge probability -->
     <g transform="translate(381.207734 1079.904383)scale(0.39 -0.39)">
      <defs>
       <path d="M 628 4666 
L 3578 4666 
L 3578 4134 
L 1259 4134 
L 1259 2753 
L 3481 2753 
L 3481 2222 
L 1259 2222 
L 1259 531 
L 3634 531 
L 3634 0 
L 628 0 
L 628 4666 
z
" id="DejaVuSans-45" transform="scale(0.015625)"/>
       <path d="M 2906 2969 
L 2906 4863 
L 3481 4863 
L 3481 0 
L 2906 0 
L 2906 525 
Q 2725 213 2448 61 
Q 2172 -91 1784 -91 
Q 1150 -91 751 415 
Q 353 922 353 1747 
Q 353 2572 751 3078 
Q 1150 3584 1784 3584 
Q 2172 3584 2448 3432 
Q 2725 3281 2906 2969 
z
M 947 1747 
Q 947 1113 1208 752 
Q 1469 391 1925 391 
Q 2381 391 2643 752 
Q 2906 1113 2906 1747 
Q 2906 2381 2643 2742 
Q 2381 3103 1925 3103 
Q 1469 3103 1208 2742 
Q 947 2381 947 1747 
z
" id="DejaVuSans-64" transform="scale(0.015625)"/>
       <path d="M 2906 1791 
Q 2906 2416 2648 2759 
Q 2391 3103 1925 3103 
Q 1463 3103 1205 2759 
Q 947 2416 947 1791 
Q 947 1169 1205 825 
Q 1463 481 1925 481 
Q 2391 481 2648 825 
Q 2906 1169 2906 1791 
z
M 3481 434 
Q 3481 -459 3084 -895 
Q 2688 -1331 1869 -1331 
Q 1566 -1331 1297 -1286 
Q 1028 -1241 775 -1147 
L 775 -588 
Q 1028 -725 1275 -790 
Q 1522 -856 1778 -856 
Q 2344 -856 2625 -561 
Q 2906 -266 2906 331 
L 2906 616 
Q 2728 306 2450 153 
Q 2172 0 1784 0 
Q 1141 0 747 490 
Q 353 981 353 1791 
Q 353 2603 747 3093 
Q 1141 3584 1784 3584 
Q 2172 3584 2450 3431 
Q 2728 3278 2906 2969 
L 2906 3500 
L 3481 3500 
L 3481 434 
z
" id="DejaVuSans-67" transform="scale(0.015625)"/>
       <path d="M 3597 1894 
L 3597 1613 
L 953 1613 
Q 991 1019 1311 708 
Q 1631 397 2203 397 
Q 2534 397 2845 478 
Q 3156 559 3463 722 
L 3463 178 
Q 3153 47 2828 -22 
Q 2503 -91 2169 -91 
Q 1331 -91 842 396 
Q 353 884 353 1716 
Q 353 2575 817 3079 
Q 1281 3584 2069 3584 
Q 2775 3584 3186 3129 
Q 3597 2675 3597 1894 
z
M 3022 2063 
Q 3016 2534 2758 2815 
Q 2500 3097 2075 3097 
Q 1594 3097 1305 2825 
Q 1016 2553 972 2059 
L 3022 2063 
z
" id="DejaVuSans-65" transform="scale(0.015625)"/>
       <path id="DejaVuSans-20" transform="scale(0.015625)"/>
       <path d="M 1159 525 
L 1159 -1331 
L 581 -1331 
L 581 3500 
L 1159 3500 
L 1159 2969 
Q 1341 3281 1617 3432 
Q 1894 3584 2278 3584 
Q 2916 3584 3314 3078 
Q 3713 2572 3713 1747 
Q 3713 922 3314 415 
Q 2916 -91 2278 -91 
Q 1894 -91 1617 61 
Q 1341 213 1159 525 
z
M 3116 1747 
Q 3116 2381 2855 2742 
Q 2594 3103 2138 3103 
Q 1681 3103 1420 2742 
Q 1159 2381 1159 1747 
Q 1159 1113 1420 752 
Q 1681 391 2138 391 
Q 2594 391 2855 752 
Q 3116 1113 3116 1747 
z
" id="DejaVuSans-70" transform="scale(0.015625)"/>
       <path d="M 2631 2963 
Q 2534 3019 2420 3045 
Q 2306 3072 2169 3072 
Q 1681 3072 1420 2755 
Q 1159 2438 1159 1844 
L 1159 0 
L 581 0 
L 581 3500 
L 1159 3500 
L 1159 2956 
Q 1341 3275 1631 3429 
Q 1922 3584 2338 3584 
Q 2397 3584 2469 3576 
Q 2541 3569 2628 3553 
L 2631 2963 
z
" id="DejaVuSans-72" transform="scale(0.015625)"/>
       <path d="M 1959 3097 
Q 1497 3097 1228 2736 
Q 959 2375 959 1747 
Q 959 1119 1226 758 
Q 1494 397 1959 397 
Q 2419 397 2687 759 
Q 2956 1122 2956 1747 
Q 2956 2369 2687 2733 
Q 2419 3097 1959 3097 
z
M 1959 3584 
Q 2709 3584 3137 3096 
Q 3566 2609 3566 1747 
Q 3566 888 3137 398 
Q 2709 -91 1959 -91 
Q 1206 -91 779 398 
Q 353 888 353 1747 
Q 353 2609 779 3096 
Q 1206 3584 1959 3584 
z
" id="DejaVuSans-6f" transform="scale(0.015625)"/>
       <path d="M 3116 1747 
Q 3116 2381 2855 2742 
Q 2594 3103 2138 3103 
Q 1681 3103 1420 2742 
Q 1159 2381 1159 1747 
Q 1159 1113 1420 752 
Q 1681 391 2138 391 
Q 2594 391 2855 752 
Q 3116 1113 3116 1747 
z
M 1159 2969 
Q 1341 3281 1617 3432 
Q 1894 3584 2278 3584 
Q 2916 3584 3314 3078 
Q 3713 2572 3713 1747 
Q 3713 922 3314 415 
Q 2916 -91 2278 -91 
Q 1894 -91 1617 61 
Q 1341 213 1159 525 
L 1159 0 
L 581 0 
L 581 4863 
L 1159 4863 
L 1159 2969 
z
" id="DejaVuSans-62" transform="scale(0.015625)"/>
       <path d="M 2194 1759 
Q 1497 1759 1228 1600 
Q 959 1441 959 1056 
Q 959 750 1161 570 
Q 1363 391 1709 391 
Q 2188 391 2477 730 
Q 2766 1069 2766 1631 
L 2766 1759 
L 2194 1759 
z
M 3341 1997 
L 3341 0 
L 2766 0 
L 2766 531 
Q 2569 213 2275 61 
Q 1981 -91 1556 -91 
Q 1019 -91 701 211 
Q 384 513 384 1019 
Q 384 1609 779 1909 
Q 1175 2209 1959 2209 
L 2766 2209 
L 2766 2266 
Q 2766 2663 2505 2880 
Q 2244 3097 1772 3097 
Q 1472 3097 1187 3025 
Q 903 2953 641 2809 
L 641 3341 
Q 956 3463 1253 3523 
Q 1550 3584 1831 3584 
Q 2591 3584 2966 3190 
Q 3341 2797 3341 1997 
z
" id="DejaVuSans-61" transform="scale(0.015625)"/>
       <path d="M 603 3500 
L 1178 3500 
L 1178 0 
L 603 0 
L 603 3500 
z
M 603 4863 
L 1178 4863 
L 1178 4134 
L 603 4134 
L 603 4863 
z
" id="DejaVuSans-69" transform="scale(0.015625)"/>
       <path d="M 603 4863 
L 1178 4863 
L 1178 0 
L 603 0 
L 603 4863 
z
" id="DejaVuSans-6c" transform="scale(0.015625)"/>
       <path d="M 1172 4494 
L 1172 3500 
L 2356 3500 
L 2356 3053 
L 1172 3053 
L 1172 1153 
Q 1172 725 1289 603 
Q 1406 481 1766 481 
L 2356 481 
L 2356 0 
L 1766 0 
Q 1100 0 847 248 
Q 594 497 594 1153 
L 594 3053 
L 172 3053 
L 172 3500 
L 594 3500 
L 594 4494 
L 1172 4494 
z
" id="DejaVuSans-74" transform="scale(0.015625)"/>
       <path d="M 2059 -325 
Q 1816 -950 1584 -1140 
Q 1353 -1331 966 -1331 
L 506 -1331 
L 506 -850 
L 844 -850 
Q 1081 -850 1212 -737 
Q 1344 -625 1503 -206 
L 1606 56 
L 191 3500 
L 800 3500 
L 1894 763 
L 2988 3500 
L 3597 3500 
L 2059 -325 
z
" id="DejaVuSans-79" transform="scale(0.015625)"/>
      </defs>
      <use xlink:href="#DejaVuSans-45"/>
      <use x="63.183594" xlink:href="#DejaVuSans-64"/>
      <use x="126.660156" xlink:href="#DejaVuSans-67"/>
      <use x="190.136719" xlink:href="#DejaVuSans-65"/>
      <use x="251.660156" xlink:href="#DejaVuSans-20"/>
      <use x="283.447266" xlink:href="#DejaVuSans-70"/>
      <use x="346.923828" xlink:href="#DejaVuSans-72"/>
      <use x="385.787109" xlink:href="#DejaVuSans-6f"/>
      <use x="446.96875" xlink:href="#DejaVuSans-62"/>
      <use x="510.445312" xlink:href="#DejaVuSans-61"/>
      <use x="571.724609" xlink:href="#DejaVuSans-62"/>
      <use x="635.201172" xlink:href="#DejaVuSans-69"/>
      <use x="662.984375" xlink:href="#DejaVuSans-6c"/>
      <use x="690.767578" xlink:href="#DejaVuSans-69"/>
      <use x="718.550781" xlink:href="#DejaVuSans-74"/>
      <use x="757.759766" xlink:href="#DejaVuSans-79"/>
     </g>
    </g>
   </g>
   <g id="matplotlib.axis_2">
    <g id="ytick_1">
     <g id="line2d_11">
      <path clip-path="url(#pfffd4727e9)" d="M 94.119688 934.498716 
L 986.919688 934.498716 
" style="fill:none;stroke:#b0b0b0;stroke-linecap:square;stroke-width:0.8;"/>
     </g>
     <g id="line2d_12">
      <defs>
       <path d="M 0 0 
L -3.5 0 
" id="mc6fb6e46db" style="stroke:#000000;stroke-width:0.8;"/>
      </defs>
      <g>
       <use style="stroke:#000000;stroke-width:0.8;" x="94.119688" xlink:href="#mc6fb6e46db" y="934.498716"/>
      </g>
     </g>
     <g id="text_7">
      <!-- 12 -->
      <g transform="translate(48.944688 945.896373)scale(0.3 -0.3)">
       <use xlink:href="#DejaVuSans-31"/>
       <use x="63.623047" xlink:href="#DejaVuSans-32"/>
      </g>
     </g>
    </g>
    <g id="ytick_2">
     <g id="line2d_13">
      <path clip-path="url(#pfffd4727e9)" d="M 94.119688 781.84854 
L 986.919688 781.84854 
" style="fill:none;stroke:#b0b0b0;stroke-linecap:square;stroke-width:0.8;"/>
     </g>
     <g id="line2d_14">
      <g>
       <use style="stroke:#000000;stroke-width:0.8;" x="94.119688" xlink:href="#mc6fb6e46db" y="781.84854"/>
      </g>
     </g>
     <g id="text_8">
      <!-- 14 -->
      <g transform="translate(48.944688 793.246196)scale(0.3 -0.3)">
       <use xlink:href="#DejaVuSans-31"/>
       <use x="63.623047" xlink:href="#DejaVuSans-34"/>
      </g>
     </g>
    </g>
    <g id="ytick_3">
     <g id="line2d_15">
      <path clip-path="url(#pfffd4727e9)" d="M 94.119688 629.198363 
L 986.919688 629.198363 
" style="fill:none;stroke:#b0b0b0;stroke-linecap:square;stroke-width:0.8;"/>
     </g>
     <g id="line2d_16">
      <g>
       <use style="stroke:#000000;stroke-width:0.8;" x="94.119688" xlink:href="#mc6fb6e46db" y="629.198363"/>
      </g>
     </g>
     <g id="text_9">
      <!-- 16 -->
      <g transform="translate(48.944688 640.596019)scale(0.3 -0.3)">
       <use xlink:href="#DejaVuSans-31"/>
       <use x="63.623047" xlink:href="#DejaVuSans-36"/>
      </g>
     </g>
    </g>
    <g id="ytick_4">
     <g id="line2d_17">
      <path clip-path="url(#pfffd4727e9)" d="M 94.119688 476.548186 
L 986.919688 476.548186 
" style="fill:none;stroke:#b0b0b0;stroke-linecap:square;stroke-width:0.8;"/>
     </g>
     <g id="line2d_18">
      <g>
       <use style="stroke:#000000;stroke-width:0.8;" x="94.119688" xlink:href="#mc6fb6e46db" y="476.548186"/>
      </g>
     </g>
     <g id="text_10">
      <!-- 18 -->
      <g transform="translate(48.944688 487.945843)scale(0.3 -0.3)">
       <use xlink:href="#DejaVuSans-31"/>
       <use x="63.623047" xlink:href="#DejaVuSans-38"/>
      </g>
     </g>
    </g>
    <g id="ytick_5">
     <g id="line2d_19">
      <path clip-path="url(#pfffd4727e9)" d="M 94.119688 323.89801 
L 986.919688 323.89801 
" style="fill:none;stroke:#b0b0b0;stroke-linecap:square;stroke-width:0.8;"/>
     </g>
     <g id="line2d_20">
      <g>
       <use style="stroke:#000000;stroke-width:0.8;" x="94.119688" xlink:href="#mc6fb6e46db" y="323.89801"/>
      </g>
     </g>
     <g id="text_11">
      <!-- 20 -->
      <g transform="translate(48.944688 335.295666)scale(0.3 -0.3)">
       <use xlink:href="#DejaVuSans-32"/>
       <use x="63.623047" xlink:href="#DejaVuSans-30"/>
      </g>
     </g>
    </g>
    <g id="ytick_6">
     <g id="line2d_21">
      <path clip-path="url(#pfffd4727e9)" d="M 94.119688 171.247833 
L 986.919688 171.247833 
" style="fill:none;stroke:#b0b0b0;stroke-linecap:square;stroke-width:0.8;"/>
     </g>
     <g id="line2d_22">
      <g>
       <use style="stroke:#000000;stroke-width:0.8;" x="94.119688" xlink:href="#mc6fb6e46db" y="171.247833"/>
      </g>
     </g>
     <g id="text_12">
      <!-- 22 -->
      <g transform="translate(48.944688 182.645489)scale(0.3 -0.3)">
       <use xlink:href="#DejaVuSans-32"/>
       <use x="63.623047" xlink:href="#DejaVuSans-32"/>
      </g>
     </g>
    </g>
    <g id="ytick_7">
     <g id="line2d_23">
      <path clip-path="url(#pfffd4727e9)" d="M 94.119688 18.597656 
L 986.919688 18.597656 
" style="fill:none;stroke:#b0b0b0;stroke-linecap:square;stroke-width:0.8;"/>
     </g>
     <g id="line2d_24">
      <g>
       <use style="stroke:#000000;stroke-width:0.8;" x="94.119688" xlink:href="#mc6fb6e46db" y="18.597656"/>
      </g>
     </g>
     <g id="text_13">
      <!-- 24 -->
      <g transform="translate(48.944688 29.995312)scale(0.3 -0.3)">
       <use xlink:href="#DejaVuSans-32"/>
       <use x="63.623047" xlink:href="#DejaVuSans-34"/>
      </g>
     </g>
    </g>
    <g id="text_14">
     <!-- Avg. number of comparisons / size -->
     <g transform="translate(36.833906 847.870476)rotate(-90)scale(0.39 -0.39)">
      <defs>
       <path d="M 2188 4044 
L 1331 1722 
L 3047 1722 
L 2188 4044 
z
M 1831 4666 
L 2547 4666 
L 4325 0 
L 3669 0 
L 3244 1197 
L 1141 1197 
L 716 0 
L 50 0 
L 1831 4666 
z
" id="DejaVuSans-41" transform="scale(0.015625)"/>
       <path d="M 191 3500 
L 800 3500 
L 1894 563 
L 2988 3500 
L 3597 3500 
L 2284 0 
L 1503 0 
L 191 3500 
z
" id="DejaVuSans-76" transform="scale(0.015625)"/>
       <path d="M 3513 2113 
L 3513 0 
L 2938 0 
L 2938 2094 
Q 2938 2591 2744 2837 
Q 2550 3084 2163 3084 
Q 1697 3084 1428 2787 
Q 1159 2491 1159 1978 
L 1159 0 
L 581 0 
L 581 3500 
L 1159 3500 
L 1159 2956 
Q 1366 3272 1645 3428 
Q 1925 3584 2291 3584 
Q 2894 3584 3203 3211 
Q 3513 2838 3513 2113 
z
" id="DejaVuSans-6e" transform="scale(0.015625)"/>
       <path d="M 544 1381 
L 544 3500 
L 1119 3500 
L 1119 1403 
Q 1119 906 1312 657 
Q 1506 409 1894 409 
Q 2359 409 2629 706 
Q 2900 1003 2900 1516 
L 2900 3500 
L 3475 3500 
L 3475 0 
L 2900 0 
L 2900 538 
Q 2691 219 2414 64 
Q 2138 -91 1772 -91 
Q 1169 -91 856 284 
Q 544 659 544 1381 
z
M 1991 3584 
L 1991 3584 
z
" id="DejaVuSans-75" transform="scale(0.015625)"/>
       <path d="M 3328 2828 
Q 3544 3216 3844 3400 
Q 4144 3584 4550 3584 
Q 5097 3584 5394 3201 
Q 5691 2819 5691 2113 
L 5691 0 
L 5113 0 
L 5113 2094 
Q 5113 2597 4934 2840 
Q 4756 3084 4391 3084 
Q 3944 3084 3684 2787 
Q 3425 2491 3425 1978 
L 3425 0 
L 2847 0 
L 2847 2094 
Q 2847 2600 2669 2842 
Q 2491 3084 2119 3084 
Q 1678 3084 1418 2786 
Q 1159 2488 1159 1978 
L 1159 0 
L 581 0 
L 581 3500 
L 1159 3500 
L 1159 2956 
Q 1356 3278 1631 3431 
Q 1906 3584 2284 3584 
Q 2666 3584 2933 3390 
Q 3200 3197 3328 2828 
z
" id="DejaVuSans-6d" transform="scale(0.015625)"/>
       <path d="M 2375 4863 
L 2375 4384 
L 1825 4384 
Q 1516 4384 1395 4259 
Q 1275 4134 1275 3809 
L 1275 3500 
L 2222 3500 
L 2222 3053 
L 1275 3053 
L 1275 0 
L 697 0 
L 697 3053 
L 147 3053 
L 147 3500 
L 697 3500 
L 697 3744 
Q 697 4328 969 4595 
Q 1241 4863 1831 4863 
L 2375 4863 
z
" id="DejaVuSans-66" transform="scale(0.015625)"/>
       <path d="M 3122 3366 
L 3122 2828 
Q 2878 2963 2633 3030 
Q 2388 3097 2138 3097 
Q 1578 3097 1268 2742 
Q 959 2388 959 1747 
Q 959 1106 1268 751 
Q 1578 397 2138 397 
Q 2388 397 2633 464 
Q 2878 531 3122 666 
L 3122 134 
Q 2881 22 2623 -34 
Q 2366 -91 2075 -91 
Q 1284 -91 818 406 
Q 353 903 353 1747 
Q 353 2603 823 3093 
Q 1294 3584 2113 3584 
Q 2378 3584 2631 3529 
Q 2884 3475 3122 3366 
z
" id="DejaVuSans-63" transform="scale(0.015625)"/>
       <path d="M 2834 3397 
L 2834 2853 
Q 2591 2978 2328 3040 
Q 2066 3103 1784 3103 
Q 1356 3103 1142 2972 
Q 928 2841 928 2578 
Q 928 2378 1081 2264 
Q 1234 2150 1697 2047 
L 1894 2003 
Q 2506 1872 2764 1633 
Q 3022 1394 3022 966 
Q 3022 478 2636 193 
Q 2250 -91 1575 -91 
Q 1294 -91 989 -36 
Q 684 19 347 128 
L 347 722 
Q 666 556 975 473 
Q 1284 391 1588 391 
Q 1994 391 2212 530 
Q 2431 669 2431 922 
Q 2431 1156 2273 1281 
Q 2116 1406 1581 1522 
L 1381 1569 
Q 847 1681 609 1914 
Q 372 2147 372 2553 
Q 372 3047 722 3315 
Q 1072 3584 1716 3584 
Q 2034 3584 2315 3537 
Q 2597 3491 2834 3397 
z
" id="DejaVuSans-73" transform="scale(0.015625)"/>
       <path d="M 1625 4666 
L 2156 4666 
L 531 -594 
L 0 -594 
L 1625 4666 
z
" id="DejaVuSans-2f" transform="scale(0.015625)"/>
       <path d="M 353 3500 
L 3084 3500 
L 3084 2975 
L 922 459 
L 3084 459 
L 3084 0 
L 275 0 
L 275 525 
L 2438 3041 
L 353 3041 
L 353 3500 
z
" id="DejaVuSans-7a" transform="scale(0.015625)"/>
      </defs>
      <use xlink:href="#DejaVuSans-41"/>
      <use x="62.533203" xlink:href="#DejaVuSans-76"/>
      <use x="121.712891" xlink:href="#DejaVuSans-67"/>
      <use x="185.189453" xlink:href="#DejaVuSans-2e"/>
      <use x="216.976562" xlink:href="#DejaVuSans-20"/>
      <use x="248.763672" xlink:href="#DejaVuSans-6e"/>
      <use x="312.142578" xlink:href="#DejaVuSans-75"/>
      <use x="375.521484" xlink:href="#DejaVuSans-6d"/>
      <use x="472.933594" xlink:href="#DejaVuSans-62"/>
      <use x="536.410156" xlink:href="#DejaVuSans-65"/>
      <use x="597.933594" xlink:href="#DejaVuSans-72"/>
      <use x="639.046875" xlink:href="#DejaVuSans-20"/>
      <use x="670.833984" xlink:href="#DejaVuSans-6f"/>
      <use x="732.015625" xlink:href="#DejaVuSans-66"/>
      <use x="767.220703" xlink:href="#DejaVuSans-20"/>
      <use x="799.007812" xlink:href="#DejaVuSans-63"/>
      <use x="853.988281" xlink:href="#DejaVuSans-6f"/>
      <use x="915.169922" xlink:href="#DejaVuSans-6d"/>
      <use x="1012.582031" xlink:href="#DejaVuSans-70"/>
      <use x="1076.058594" xlink:href="#DejaVuSans-61"/>
      <use x="1137.337891" xlink:href="#DejaVuSans-72"/>
      <use x="1178.451172" xlink:href="#DejaVuSans-69"/>
      <use x="1206.234375" xlink:href="#DejaVuSans-73"/>
      <use x="1258.333984" xlink:href="#DejaVuSans-6f"/>
      <use x="1319.515625" xlink:href="#DejaVuSans-6e"/>
      <use x="1382.894531" xlink:href="#DejaVuSans-73"/>
      <use x="1434.994141" xlink:href="#DejaVuSans-20"/>
      <use x="1466.78125" xlink:href="#DejaVuSans-2f"/>
      <use x="1500.472656" xlink:href="#DejaVuSans-20"/>
      <use x="1532.259766" xlink:href="#DejaVuSans-73"/>
      <use x="1584.359375" xlink:href="#DejaVuSans-69"/>
      <use x="1612.142578" xlink:href="#DejaVuSans-7a"/>
      <use x="1664.632812" xlink:href="#DejaVuSans-65"/>
     </g>
    </g>
   </g>
   <g id="line2d_25">
    <path clip-path="url(#pfffd4727e9)" d="M 134.701506 949.794264 
L 177.419209 888.978434 
L 220.136912 852.525571 
L 262.854616 819.568398 
L 305.572319 800.853487 
L 348.290022 781.573769 
L 391.007726 759.531084 
L 433.725429 750.082038 
L 476.443132 748.005995 
L 519.160836 740.007126 
L 561.878539 722.253911 
L 604.596243 713.552851 
L 647.313946 704.256455 
L 690.031649 711.980554 
L 732.749353 692.655041 
L 775.467056 692.319211 
L 818.184759 695.097444 
L 860.902463 684.350872 
L 903.620166 679.832427 
L 946.337869 666.277091 
" style="fill:none;stroke:#fe0002;stroke-linecap:square;stroke-width:1.5;"/>
    <defs>
     <path d="M 0 4.5 
C 1.193414 4.5 2.338109 4.025852 3.181981 3.181981 
C 4.025852 2.338109 4.5 1.193414 4.5 0 
C 4.5 -1.193414 4.025852 -2.338109 3.181981 -3.181981 
C 2.338109 -4.025852 1.193414 -4.5 0 -4.5 
C -1.193414 -4.5 -2.338109 -4.025852 -3.181981 -3.181981 
C -4.025852 -2.338109 -4.5 -1.193414 -4.5 0 
C -4.5 1.193414 -4.025852 2.338109 -3.181981 3.181981 
C -2.338109 4.025852 -1.193414 4.5 0 4.5 
z
" id="mbd12c28dd4" style="stroke:#000000;"/>
    </defs>
    <g clip-path="url(#pfffd4727e9)">
     <use style="fill:#fe0002;stroke:#000000;" x="134.701506" xlink:href="#mbd12c28dd4" y="949.794264"/>
     <use style="fill:#fe0002;stroke:#000000;" x="177.419209" xlink:href="#mbd12c28dd4" y="888.978434"/>
     <use style="fill:#fe0002;stroke:#000000;" x="220.136912" xlink:href="#mbd12c28dd4" y="852.525571"/>
     <use style="fill:#fe0002;stroke:#000000;" x="262.854616" xlink:href="#mbd12c28dd4" y="819.568398"/>
     <use style="fill:#fe0002;stroke:#000000;" x="305.572319" xlink:href="#mbd12c28dd4" y="800.853487"/>
     <use style="fill:#fe0002;stroke:#000000;" x="348.290022" xlink:href="#mbd12c28dd4" y="781.573769"/>
     <use style="fill:#fe0002;stroke:#000000;" x="391.007726" xlink:href="#mbd12c28dd4" y="759.531084"/>
     <use style="fill:#fe0002;stroke:#000000;" x="433.725429" xlink:href="#mbd12c28dd4" y="750.082038"/>
     <use style="fill:#fe0002;stroke:#000000;" x="476.443132" xlink:href="#mbd12c28dd4" y="748.005995"/>
     <use style="fill:#fe0002;stroke:#000000;" x="519.160836" xlink:href="#mbd12c28dd4" y="740.007126"/>
     <use style="fill:#fe0002;stroke:#000000;" x="561.878539" xlink:href="#mbd12c28dd4" y="722.253911"/>
     <use style="fill:#fe0002;stroke:#000000;" x="604.596243" xlink:href="#mbd12c28dd4" y="713.552851"/>
     <use style="fill:#fe0002;stroke:#000000;" x="647.313946" xlink:href="#mbd12c28dd4" y="704.256455"/>
     <use style="fill:#fe0002;stroke:#000000;" x="690.031649" xlink:href="#mbd12c28dd4" y="711.980554"/>
     <use style="fill:#fe0002;stroke:#000000;" x="732.749353" xlink:href="#mbd12c28dd4" y="692.655041"/>
     <use style="fill:#fe0002;stroke:#000000;" x="775.467056" xlink:href="#mbd12c28dd4" y="692.319211"/>
     <use style="fill:#fe0002;stroke:#000000;" x="818.184759" xlink:href="#mbd12c28dd4" y="695.097444"/>
     <use style="fill:#fe0002;stroke:#000000;" x="860.902463" xlink:href="#mbd12c28dd4" y="684.350872"/>
     <use style="fill:#fe0002;stroke:#000000;" x="903.620166" xlink:href="#mbd12c28dd4" y="679.832427"/>
     <use style="fill:#fe0002;stroke:#000000;" x="946.337869" xlink:href="#mbd12c28dd4" y="666.277091"/>
    </g>
   </g>
   <g id="line2d_26">
    <path clip-path="url(#pfffd4727e9)" d="M 134.701506 616.009388 
L 177.419209 519.244441 
L 220.136912 473.006702 
L 262.854616 421.044582 
L 305.572319 396.986914 
L 348.290022 367.479635 
L 391.007726 342.002321 
L 433.725429 324.279635 
L 476.443132 310.495324 
L 519.160836 297.428469 
L 561.878539 282.835112 
L 604.596243 270.088822 
L 647.313946 262.151013 
L 690.031649 253.083593 
L 732.749353 235.727268 
L 775.467056 224.415889 
L 818.184759 236.551579 
L 860.902463 225.881331 
L 903.620166 208.158646 
L 946.337869 202.831154 
" style="fill:none;stroke:#53fca1;stroke-linecap:square;stroke-width:1.5;"/>
    <defs>
     <path d="M 0 -4.5 
L -4.5 4.5 
L 4.5 4.5 
z
" id="m67f0744cad" style="stroke:#000000;stroke-linejoin:miter;"/>
    </defs>
    <g clip-path="url(#pfffd4727e9)">
     <use style="fill:#53fca1;stroke:#000000;stroke-linejoin:miter;" x="134.701506" xlink:href="#m67f0744cad" y="616.009388"/>
     <use style="fill:#53fca1;stroke:#000000;stroke-linejoin:miter;" x="177.419209" xlink:href="#m67f0744cad" y="519.244441"/>
     <use style="fill:#53fca1;stroke:#000000;stroke-linejoin:miter;" x="220.136912" xlink:href="#m67f0744cad" y="473.006702"/>
     <use style="fill:#53fca1;stroke:#000000;stroke-linejoin:miter;" x="262.854616" xlink:href="#m67f0744cad" y="421.044582"/>
     <use style="fill:#53fca1;stroke:#000000;stroke-linejoin:miter;" x="305.572319" xlink:href="#m67f0744cad" y="396.986914"/>
     <use style="fill:#53fca1;stroke:#000000;stroke-linejoin:miter;" x="348.290022" xlink:href="#m67f0744cad" y="367.479635"/>
     <use style="fill:#53fca1;stroke:#000000;stroke-linejoin:miter;" x="391.007726" xlink:href="#m67f0744cad" y="342.002321"/>
     <use style="fill:#53fca1;stroke:#000000;stroke-linejoin:miter;" x="433.725429" xlink:href="#m67f0744cad" y="324.279635"/>
     <use style="fill:#53fca1;stroke:#000000;stroke-linejoin:miter;" x="476.443132" xlink:href="#m67f0744cad" y="310.495324"/>
     <use style="fill:#53fca1;stroke:#000000;stroke-linejoin:miter;" x="519.160836" xlink:href="#m67f0744cad" y="297.428469"/>
     <use style="fill:#53fca1;stroke:#000000;stroke-linejoin:miter;" x="561.878539" xlink:href="#m67f0744cad" y="282.835112"/>
     <use style="fill:#53fca1;stroke:#000000;stroke-linejoin:miter;" x="604.596243" xlink:href="#m67f0744cad" y="270.088822"/>
     <use style="fill:#53fca1;stroke:#000000;stroke-linejoin:miter;" x="647.313946" xlink:href="#m67f0744cad" y="262.151013"/>
     <use style="fill:#53fca1;stroke:#000000;stroke-linejoin:miter;" x="690.031649" xlink:href="#m67f0744cad" y="253.083593"/>
     <use style="fill:#53fca1;stroke:#000000;stroke-linejoin:miter;" x="732.749353" xlink:href="#m67f0744cad" y="235.727268"/>
     <use style="fill:#53fca1;stroke:#000000;stroke-linejoin:miter;" x="775.467056" xlink:href="#m67f0744cad" y="224.415889"/>
     <use style="fill:#53fca1;stroke:#000000;stroke-linejoin:miter;" x="818.184759" xlink:href="#m67f0744cad" y="236.551579"/>
     <use style="fill:#53fca1;stroke:#000000;stroke-linejoin:miter;" x="860.902463" xlink:href="#m67f0744cad" y="225.881331"/>
     <use style="fill:#53fca1;stroke:#000000;stroke-linejoin:miter;" x="903.620166" xlink:href="#m67f0744cad" y="208.158646"/>
     <use style="fill:#53fca1;stroke:#000000;stroke-linejoin:miter;" x="946.337869" xlink:href="#m67f0744cad" y="202.831154"/>
    </g>
   </g>
   <g id="line2d_27">
    <path clip-path="url(#pfffd4727e9)" d="M 134.701506 574.94649 
L 177.419209 479.219564 
L 220.136912 429.745642 
L 262.854616 376.241755 
L 305.572319 345.55907 
L 348.290022 319.623805 
L 391.007726 292.253628 
L 433.725429 268.684441 
L 476.443132 255.05278 
L 519.160836 240.886844 
L 561.878539 217.027621 
L 604.596243 207.853345 
L 647.313946 199.335465 
L 690.031649 184.100978 
L 732.749353 174.697727 
L 775.467056 159.585359 
L 818.184759 162.623098 
L 860.902463 160.272285 
L 903.620166 141.542109 
L 946.337869 131.528257 
" style="fill:none;stroke:#0652ff;stroke-linecap:square;stroke-width:1.5;"/>
    <defs>
     <path d="M 0 -4.5 
L -4.279754 -1.390576 
L -2.645034 3.640576 
L 2.645034 3.640576 
L 4.279754 -1.390576 
z
" id="m021f7a973f" style="stroke:#000000;stroke-linejoin:miter;"/>
    </defs>
    <g clip-path="url(#pfffd4727e9)">
     <use style="fill:#0652ff;stroke:#000000;stroke-linejoin:miter;" x="134.701506" xlink:href="#m021f7a973f" y="574.94649"/>
     <use style="fill:#0652ff;stroke:#000000;stroke-linejoin:miter;" x="177.419209" xlink:href="#m021f7a973f" y="479.219564"/>
     <use style="fill:#0652ff;stroke:#000000;stroke-linejoin:miter;" x="220.136912" xlink:href="#m021f7a973f" y="429.745642"/>
     <use style="fill:#0652ff;stroke:#000000;stroke-linejoin:miter;" x="262.854616" xlink:href="#m021f7a973f" y="376.241755"/>
     <use style="fill:#0652ff;stroke:#000000;stroke-linejoin:miter;" x="305.572319" xlink:href="#m021f7a973f" y="345.55907"/>
     <use style="fill:#0652ff;stroke:#000000;stroke-linejoin:miter;" x="348.290022" xlink:href="#m021f7a973f" y="319.623805"/>
     <use style="fill:#0652ff;stroke:#000000;stroke-linejoin:miter;" x="391.007726" xlink:href="#m021f7a973f" y="292.253628"/>
     <use style="fill:#0652ff;stroke:#000000;stroke-linejoin:miter;" x="433.725429" xlink:href="#m021f7a973f" y="268.684441"/>
     <use style="fill:#0652ff;stroke:#000000;stroke-linejoin:miter;" x="476.443132" xlink:href="#m021f7a973f" y="255.05278"/>
     <use style="fill:#0652ff;stroke:#000000;stroke-linejoin:miter;" x="519.160836" xlink:href="#m021f7a973f" y="240.886844"/>
     <use style="fill:#0652ff;stroke:#000000;stroke-linejoin:miter;" x="561.878539" xlink:href="#m021f7a973f" y="217.027621"/>
     <use style="fill:#0652ff;stroke:#000000;stroke-linejoin:miter;" x="604.596243" xlink:href="#m021f7a973f" y="207.853345"/>
     <use style="fill:#0652ff;stroke:#000000;stroke-linejoin:miter;" x="647.313946" xlink:href="#m021f7a973f" y="199.335465"/>
     <use style="fill:#0652ff;stroke:#000000;stroke-linejoin:miter;" x="690.031649" xlink:href="#m021f7a973f" y="184.100978"/>
     <use style="fill:#0652ff;stroke:#000000;stroke-linejoin:miter;" x="732.749353" xlink:href="#m021f7a973f" y="174.697727"/>
     <use style="fill:#0652ff;stroke:#000000;stroke-linejoin:miter;" x="775.467056" xlink:href="#m021f7a973f" y="159.585359"/>
     <use style="fill:#0652ff;stroke:#000000;stroke-linejoin:miter;" x="818.184759" xlink:href="#m021f7a973f" y="162.623098"/>
     <use style="fill:#0652ff;stroke:#000000;stroke-linejoin:miter;" x="860.902463" xlink:href="#m021f7a973f" y="160.272285"/>
     <use style="fill:#0652ff;stroke:#000000;stroke-linejoin:miter;" x="903.620166" xlink:href="#m021f7a973f" y="141.542109"/>
     <use style="fill:#0652ff;stroke:#000000;stroke-linejoin:miter;" x="946.337869" xlink:href="#m021f7a973f" y="131.528257"/>
    </g>
   </g>
   <g id="line2d_28">
    <path clip-path="url(#pfffd4727e9)" d="M 134.701506 382.561473 
L 177.419209 284.651649 
L 220.136912 242.794971 
L 262.854616 201.304653 
L 305.572319 176.315819 
L 348.290022 159.89066 
L 391.007726 146.442179 
L 433.725429 132.764723 
L 476.443132 131.772497 
L 519.160836 123.682038 
L 561.878539 114.049812 
L 604.596243 105.928822 
L 647.313946 103.242179 
L 690.031649 103.868045 
L 732.749353 93.854193 
L 775.467056 86.42013 
L 818.184759 102.387338 
L 860.902463 90.190589 
L 903.620166 90.175324 
L 946.337869 86.099564 
" style="fill:none;stroke:#ae7181;stroke-linecap:square;stroke-width:1.5;"/>
    <defs>
     <path d="M -4.5 4.5 
L 4.5 4.5 
L 4.5 -4.5 
L -4.5 -4.5 
z
" id="madc42c50c1" style="stroke:#000000;stroke-linejoin:miter;"/>
    </defs>
    <g clip-path="url(#pfffd4727e9)">
     <use style="fill:#ae7181;stroke:#000000;stroke-linejoin:miter;" x="134.701506" xlink:href="#madc42c50c1" y="382.561473"/>
     <use style="fill:#ae7181;stroke:#000000;stroke-linejoin:miter;" x="177.419209" xlink:href="#madc42c50c1" y="284.651649"/>
     <use style="fill:#ae7181;stroke:#000000;stroke-linejoin:miter;" x="220.136912" xlink:href="#madc42c50c1" y="242.794971"/>
     <use style="fill:#ae7181;stroke:#000000;stroke-linejoin:miter;" x="262.854616" xlink:href="#madc42c50c1" y="201.304653"/>
     <use style="fill:#ae7181;stroke:#000000;stroke-linejoin:miter;" x="305.572319" xlink:href="#madc42c50c1" y="176.315819"/>
     <use style="fill:#ae7181;stroke:#000000;stroke-linejoin:miter;" x="348.290022" xlink:href="#madc42c50c1" y="159.89066"/>
     <use style="fill:#ae7181;stroke:#000000;stroke-linejoin:miter;" x="391.007726" xlink:href="#madc42c50c1" y="146.442179"/>
     <use style="fill:#ae7181;stroke:#000000;stroke-linejoin:miter;" x="433.725429" xlink:href="#madc42c50c1" y="132.764723"/>
     <use style="fill:#ae7181;stroke:#000000;stroke-linejoin:miter;" x="476.443132" xlink:href="#madc42c50c1" y="131.772497"/>
     <use style="fill:#ae7181;stroke:#000000;stroke-linejoin:miter;" x="519.160836" xlink:href="#madc42c50c1" y="123.682038"/>
     <use style="fill:#ae7181;stroke:#000000;stroke-linejoin:miter;" x="561.878539" xlink:href="#madc42c50c1" y="114.049812"/>
     <use style="fill:#ae7181;stroke:#000000;stroke-linejoin:miter;" x="604.596243" xlink:href="#madc42c50c1" y="105.928822"/>
     <use style="fill:#ae7181;stroke:#000000;stroke-linejoin:miter;" x="647.313946" xlink:href="#madc42c50c1" y="103.242179"/>
     <use style="fill:#ae7181;stroke:#000000;stroke-linejoin:miter;" x="690.031649" xlink:href="#madc42c50c1" y="103.868045"/>
     <use style="fill:#ae7181;stroke:#000000;stroke-linejoin:miter;" x="732.749353" xlink:href="#madc42c50c1" y="93.854193"/>
     <use style="fill:#ae7181;stroke:#000000;stroke-linejoin:miter;" x="775.467056" xlink:href="#madc42c50c1" y="86.42013"/>
     <use style="fill:#ae7181;stroke:#000000;stroke-linejoin:miter;" x="818.184759" xlink:href="#madc42c50c1" y="102.387338"/>
     <use style="fill:#ae7181;stroke:#000000;stroke-linejoin:miter;" x="860.902463" xlink:href="#madc42c50c1" y="90.190589"/>
     <use style="fill:#ae7181;stroke:#000000;stroke-linejoin:miter;" x="903.620166" xlink:href="#madc42c50c1" y="90.175324"/>
     <use style="fill:#ae7181;stroke:#000000;stroke-linejoin:miter;" x="946.337869" xlink:href="#madc42c50c1" y="86.099564"/>
    </g>
   </g>
   <g id="line2d_29">
    <path clip-path="url(#pfffd4727e9)" d="M 134.701506 679.298151 
L 177.419209 611.597798 
L 220.136912 573.191013 
L 262.854616 538.569953 
L 305.572319 518.740695 
L 348.290022 491.981119 
L 391.007726 473.159352 
L 433.725429 457.390589 
L 476.443132 456.016738 
L 519.160836 444.323734 
L 561.878539 426.891084 
L 604.596243 417.152003 
L 647.313946 412.038222 
L 690.031649 405.168964 
L 732.749353 399.734617 
L 775.467056 393.063805 
L 818.184759 395.307762 
L 860.902463 388.957515 
L 903.620166 380.33278 
L 946.337869 360.671437 
" style="fill:none;stroke:#ff81c0;stroke-linecap:square;stroke-width:1.5;"/>
    <defs>
     <path d="M 0 2.25 
C 0.596707 2.25 1.169055 2.012926 1.59099 1.59099 
C 2.012926 1.169055 2.25 0.596707 2.25 0 
C 2.25 -0.596707 2.012926 -1.169055 1.59099 -1.59099 
C 1.169055 -2.012926 0.596707 -2.25 0 -2.25 
C -0.596707 -2.25 -1.169055 -2.012926 -1.59099 -1.59099 
C -2.012926 -1.169055 -2.25 -0.596707 -2.25 0 
C -2.25 0.596707 -2.012926 1.169055 -1.59099 1.59099 
C -1.169055 2.012926 -0.596707 2.25 0 2.25 
z
" id="m92f97f6b27" style="stroke:#000000;"/>
    </defs>
    <g clip-path="url(#pfffd4727e9)">
     <use style="fill:#ff81c0;stroke:#000000;" x="134.701506" xlink:href="#m92f97f6b27" y="679.298151"/>
     <use style="fill:#ff81c0;stroke:#000000;" x="177.419209" xlink:href="#m92f97f6b27" y="611.597798"/>
     <use style="fill:#ff81c0;stroke:#000000;" x="220.136912" xlink:href="#m92f97f6b27" y="573.191013"/>
     <use style="fill:#ff81c0;stroke:#000000;" x="262.854616" xlink:href="#m92f97f6b27" y="538.569953"/>
     <use style="fill:#ff81c0;stroke:#000000;" x="305.572319" xlink:href="#m92f97f6b27" y="518.740695"/>
     <use style="fill:#ff81c0;stroke:#000000;" x="348.290022" xlink:href="#m92f97f6b27" y="491.981119"/>
     <use style="fill:#ff81c0;stroke:#000000;" x="391.007726" xlink:href="#m92f97f6b27" y="473.159352"/>
     <use style="fill:#ff81c0;stroke:#000000;" x="433.725429" xlink:href="#m92f97f6b27" y="457.390589"/>
     <use style="fill:#ff81c0;stroke:#000000;" x="476.443132" xlink:href="#m92f97f6b27" y="456.016738"/>
     <use style="fill:#ff81c0;stroke:#000000;" x="519.160836" xlink:href="#m92f97f6b27" y="444.323734"/>
     <use style="fill:#ff81c0;stroke:#000000;" x="561.878539" xlink:href="#m92f97f6b27" y="426.891084"/>
     <use style="fill:#ff81c0;stroke:#000000;" x="604.596243" xlink:href="#m92f97f6b27" y="417.152003"/>
     <use style="fill:#ff81c0;stroke:#000000;" x="647.313946" xlink:href="#m92f97f6b27" y="412.038222"/>
     <use style="fill:#ff81c0;stroke:#000000;" x="690.031649" xlink:href="#m92f97f6b27" y="405.168964"/>
     <use style="fill:#ff81c0;stroke:#000000;" x="732.749353" xlink:href="#m92f97f6b27" y="399.734617"/>
     <use style="fill:#ff81c0;stroke:#000000;" x="775.467056" xlink:href="#m92f97f6b27" y="393.063805"/>
     <use style="fill:#ff81c0;stroke:#000000;" x="818.184759" xlink:href="#m92f97f6b27" y="395.307762"/>
     <use style="fill:#ff81c0;stroke:#000000;" x="860.902463" xlink:href="#m92f97f6b27" y="388.957515"/>
     <use style="fill:#ff81c0;stroke:#000000;" x="903.620166" xlink:href="#m92f97f6b27" y="380.33278"/>
     <use style="fill:#ff81c0;stroke:#000000;" x="946.337869" xlink:href="#m92f97f6b27" y="360.671437"/>
    </g>
   </g>
   <g id="line2d_30">
    <path clip-path="url(#pfffd4727e9)" d="M 134.701506 709.156526 
L 177.419209 640.051791 
L 220.136912 601.675536 
L 262.854616 562.398646 
L 305.572319 545.286561 
L 348.290022 522.58748 
L 391.007726 506.849246 
L 433.725429 495.369953 
L 476.443132 484.089105 
L 519.160836 477.097727 
L 561.878539 465.923734 
L 604.596243 445.682321 
L 647.313946 445.728116 
L 690.031649 448.964299 
L 732.749353 430.661543 
L 775.467056 421.991013 
L 818.184759 429.669317 
L 860.902463 422.387904 
L 903.620166 416.587197 
L 946.337869 406.725995 
" style="fill:none;stroke:#f97306;stroke-linecap:square;stroke-width:1.5;"/>
    <defs>
     <path d="M 4.5 0 
L -4.5 -4.5 
L -4.5 4.5 
z
" id="m7c472c6a80" style="stroke:#000000;stroke-linejoin:miter;"/>
    </defs>
    <g clip-path="url(#pfffd4727e9)">
     <use style="fill:#f97306;stroke:#000000;stroke-linejoin:miter;" x="134.701506" xlink:href="#m7c472c6a80" y="709.156526"/>
     <use style="fill:#f97306;stroke:#000000;stroke-linejoin:miter;" x="177.419209" xlink:href="#m7c472c6a80" y="640.051791"/>
     <use style="fill:#f97306;stroke:#000000;stroke-linejoin:miter;" x="220.136912" xlink:href="#m7c472c6a80" y="601.675536"/>
     <use style="fill:#f97306;stroke:#000000;stroke-linejoin:miter;" x="262.854616" xlink:href="#m7c472c6a80" y="562.398646"/>
     <use style="fill:#f97306;stroke:#000000;stroke-linejoin:miter;" x="305.572319" xlink:href="#m7c472c6a80" y="545.286561"/>
     <use style="fill:#f97306;stroke:#000000;stroke-linejoin:miter;" x="348.290022" xlink:href="#m7c472c6a80" y="522.58748"/>
     <use style="fill:#f97306;stroke:#000000;stroke-linejoin:miter;" x="391.007726" xlink:href="#m7c472c6a80" y="506.849246"/>
     <use style="fill:#f97306;stroke:#000000;stroke-linejoin:miter;" x="433.725429" xlink:href="#m7c472c6a80" y="495.369953"/>
     <use style="fill:#f97306;stroke:#000000;stroke-linejoin:miter;" x="476.443132" xlink:href="#m7c472c6a80" y="484.089105"/>
     <use style="fill:#f97306;stroke:#000000;stroke-linejoin:miter;" x="519.160836" xlink:href="#m7c472c6a80" y="477.097727"/>
     <use style="fill:#f97306;stroke:#000000;stroke-linejoin:miter;" x="561.878539" xlink:href="#m7c472c6a80" y="465.923734"/>
     <use style="fill:#f97306;stroke:#000000;stroke-linejoin:miter;" x="604.596243" xlink:href="#m7c472c6a80" y="445.682321"/>
     <use style="fill:#f97306;stroke:#000000;stroke-linejoin:miter;" x="647.313946" xlink:href="#m7c472c6a80" y="445.728116"/>
     <use style="fill:#f97306;stroke:#000000;stroke-linejoin:miter;" x="690.031649" xlink:href="#m7c472c6a80" y="448.964299"/>
     <use style="fill:#f97306;stroke:#000000;stroke-linejoin:miter;" x="732.749353" xlink:href="#m7c472c6a80" y="430.661543"/>
     <use style="fill:#f97306;stroke:#000000;stroke-linejoin:miter;" x="775.467056" xlink:href="#m7c472c6a80" y="421.991013"/>
     <use style="fill:#f97306;stroke:#000000;stroke-linejoin:miter;" x="818.184759" xlink:href="#m7c472c6a80" y="429.669317"/>
     <use style="fill:#f97306;stroke:#000000;stroke-linejoin:miter;" x="860.902463" xlink:href="#m7c472c6a80" y="422.387904"/>
     <use style="fill:#f97306;stroke:#000000;stroke-linejoin:miter;" x="903.620166" xlink:href="#m7c472c6a80" y="416.587197"/>
     <use style="fill:#f97306;stroke:#000000;stroke-linejoin:miter;" x="946.337869" xlink:href="#m7c472c6a80" y="406.725995"/>
    </g>
   </g>
   <g id="patch_3">
    <path d="M 94.119688 1010.236101 
L 94.119688 12.316101 
" style="fill:none;stroke:#000000;stroke-linecap:square;stroke-linejoin:miter;stroke-width:0.8;"/>
   </g>
   <g id="patch_4">
    <path d="M 986.919688 1010.236101 
L 986.919688 12.316101 
" style="fill:none;stroke:#000000;stroke-linecap:square;stroke-linejoin:miter;stroke-width:0.8;"/>
   </g>
   <g id="patch_5">
    <path d="M 94.119688 1010.236101 
L 986.919687 1010.236101 
" style="fill:none;stroke:#000000;stroke-linecap:square;stroke-linejoin:miter;stroke-width:0.8;"/>
   </g>
   <g id="patch_6">
    <path d="M 94.119688 12.316101 
L 986.919687 12.316101 
" style="fill:none;stroke:#000000;stroke-linecap:square;stroke-linejoin:miter;stroke-width:0.8;"/>
   </g>
   <g id="legend_1">
    <g id="patch_7">
     <path d="M 442.119688 995.236101 
L 965.919688 995.236101 
Q 971.919688 995.236101 971.919688 989.236101 
L 971.919688 728.029851 
Q 971.919688 722.029851 965.919688 722.029851 
L 442.119688 722.029851 
Q 436.119688 722.029851 436.119688 728.029851 
L 436.119688 989.236101 
Q 436.119688 995.236101 442.119688 995.236101 
z
" style="fill:#ffffff;opacity:0.8;stroke:#cccccc;stroke-linejoin:miter;"/>
    </g>
    <g id="line2d_31">
     <path d="M 448.119688 746.325164 
L 508.119688 746.325164 
" style="fill:none;stroke:#fe0002;stroke-linecap:square;stroke-width:1.5;"/>
    </g>
    <g id="line2d_32">
     <g>
      <use style="fill:#fe0002;stroke:#000000;" x="478.119688" xlink:href="#mbd12c28dd4" y="746.325164"/>
     </g>
    </g>
    <g id="text_15">
     <!-- Pairing comparisons -->
     <g transform="translate(532.119688 756.825164)scale(0.3 -0.3)">
      <defs>
       <path d="M 1259 4147 
L 1259 2394 
L 2053 2394 
Q 2494 2394 2734 2622 
Q 2975 2850 2975 3272 
Q 2975 3691 2734 3919 
Q 2494 4147 2053 4147 
L 1259 4147 
z
M 628 4666 
L 2053 4666 
Q 2838 4666 3239 4311 
Q 3641 3956 3641 3272 
Q 3641 2581 3239 2228 
Q 2838 1875 2053 1875 
L 1259 1875 
L 1259 0 
L 628 0 
L 628 4666 
z
" id="DejaVuSans-50" transform="scale(0.015625)"/>
      </defs>
      <use xlink:href="#DejaVuSans-50"/>
      <use x="55.802734" xlink:href="#DejaVuSans-61"/>
      <use x="117.082031" xlink:href="#DejaVuSans-69"/>
      <use x="144.865234" xlink:href="#DejaVuSans-72"/>
      <use x="185.978516" xlink:href="#DejaVuSans-69"/>
      <use x="213.761719" xlink:href="#DejaVuSans-6e"/>
      <use x="277.140625" xlink:href="#DejaVuSans-67"/>
      <use x="340.617188" xlink:href="#DejaVuSans-20"/>
      <use x="372.404297" xlink:href="#DejaVuSans-63"/>
      <use x="427.384766" xlink:href="#DejaVuSans-6f"/>
      <use x="488.566406" xlink:href="#DejaVuSans-6d"/>
      <use x="585.978516" xlink:href="#DejaVuSans-70"/>
      <use x="649.455078" xlink:href="#DejaVuSans-61"/>
      <use x="710.734375" xlink:href="#DejaVuSans-72"/>
      <use x="751.847656" xlink:href="#DejaVuSans-69"/>
      <use x="779.630859" xlink:href="#DejaVuSans-73"/>
      <use x="831.730469" xlink:href="#DejaVuSans-6f"/>
      <use x="892.912109" xlink:href="#DejaVuSans-6e"/>
      <use x="956.291016" xlink:href="#DejaVuSans-73"/>
     </g>
    </g>
    <g id="line2d_33">
     <path d="M 448.119688 790.359539 
L 508.119688 790.359539 
" style="fill:none;stroke:#53fca1;stroke-linecap:square;stroke-width:1.5;"/>
    </g>
    <g id="line2d_34">
     <g>
      <use style="fill:#53fca1;stroke:#000000;stroke-linejoin:miter;" x="478.119688" xlink:href="#m67f0744cad" y="790.359539"/>
     </g>
    </g>
    <g id="text_16">
     <!-- Smooth comparisons -->
     <g transform="translate(532.119688 800.859539)scale(0.3 -0.3)">
      <defs>
       <path d="M 3425 4513 
L 3425 3897 
Q 3066 4069 2747 4153 
Q 2428 4238 2131 4238 
Q 1616 4238 1336 4038 
Q 1056 3838 1056 3469 
Q 1056 3159 1242 3001 
Q 1428 2844 1947 2747 
L 2328 2669 
Q 3034 2534 3370 2195 
Q 3706 1856 3706 1288 
Q 3706 609 3251 259 
Q 2797 -91 1919 -91 
Q 1588 -91 1214 -16 
Q 841 59 441 206 
L 441 856 
Q 825 641 1194 531 
Q 1563 422 1919 422 
Q 2459 422 2753 634 
Q 3047 847 3047 1241 
Q 3047 1584 2836 1778 
Q 2625 1972 2144 2069 
L 1759 2144 
Q 1053 2284 737 2584 
Q 422 2884 422 3419 
Q 422 4038 858 4394 
Q 1294 4750 2059 4750 
Q 2388 4750 2728 4690 
Q 3069 4631 3425 4513 
z
" id="DejaVuSans-53" transform="scale(0.015625)"/>
       <path d="M 3513 2113 
L 3513 0 
L 2938 0 
L 2938 2094 
Q 2938 2591 2744 2837 
Q 2550 3084 2163 3084 
Q 1697 3084 1428 2787 
Q 1159 2491 1159 1978 
L 1159 0 
L 581 0 
L 581 4863 
L 1159 4863 
L 1159 2956 
Q 1366 3272 1645 3428 
Q 1925 3584 2291 3584 
Q 2894 3584 3203 3211 
Q 3513 2838 3513 2113 
z
" id="DejaVuSans-68" transform="scale(0.015625)"/>
      </defs>
      <use xlink:href="#DejaVuSans-53"/>
      <use x="63.476562" xlink:href="#DejaVuSans-6d"/>
      <use x="160.888672" xlink:href="#DejaVuSans-6f"/>
      <use x="222.070312" xlink:href="#DejaVuSans-6f"/>
      <use x="283.251953" xlink:href="#DejaVuSans-74"/>
      <use x="322.460938" xlink:href="#DejaVuSans-68"/>
      <use x="385.839844" xlink:href="#DejaVuSans-20"/>
      <use x="417.626953" xlink:href="#DejaVuSans-63"/>
      <use x="472.607422" xlink:href="#DejaVuSans-6f"/>
      <use x="533.789062" xlink:href="#DejaVuSans-6d"/>
      <use x="631.201172" xlink:href="#DejaVuSans-70"/>
      <use x="694.677734" xlink:href="#DejaVuSans-61"/>
      <use x="755.957031" xlink:href="#DejaVuSans-72"/>
      <use x="797.070312" xlink:href="#DejaVuSans-69"/>
      <use x="824.853516" xlink:href="#DejaVuSans-73"/>
      <use x="876.953125" xlink:href="#DejaVuSans-6f"/>
      <use x="938.134766" xlink:href="#DejaVuSans-6e"/>
      <use x="1001.513672" xlink:href="#DejaVuSans-73"/>
     </g>
    </g>
    <g id="line2d_35">
     <path d="M 448.119688 834.393914 
L 508.119688 834.393914 
" style="fill:none;stroke:#0652ff;stroke-linecap:square;stroke-width:1.5;"/>
    </g>
    <g id="line2d_36">
     <g>
      <use style="fill:#0652ff;stroke:#000000;stroke-linejoin:miter;" x="478.119688" xlink:href="#m021f7a973f" y="834.393914"/>
     </g>
    </g>
    <g id="text_17">
     <!-- Slim comparisons -->
     <g transform="translate(532.119688 844.893914)scale(0.3 -0.3)">
      <use xlink:href="#DejaVuSans-53"/>
      <use x="63.476562" xlink:href="#DejaVuSans-6c"/>
      <use x="91.259766" xlink:href="#DejaVuSans-69"/>
      <use x="119.042969" xlink:href="#DejaVuSans-6d"/>
      <use x="216.455078" xlink:href="#DejaVuSans-20"/>
      <use x="248.242188" xlink:href="#DejaVuSans-63"/>
      <use x="303.222656" xlink:href="#DejaVuSans-6f"/>
      <use x="364.404297" xlink:href="#DejaVuSans-6d"/>
      <use x="461.816406" xlink:href="#DejaVuSans-70"/>
      <use x="525.292969" xlink:href="#DejaVuSans-61"/>
      <use x="586.572266" xlink:href="#DejaVuSans-72"/>
      <use x="627.685547" xlink:href="#DejaVuSans-69"/>
      <use x="655.46875" xlink:href="#DejaVuSans-73"/>
      <use x="707.568359" xlink:href="#DejaVuSans-6f"/>
      <use x="768.75" xlink:href="#DejaVuSans-6e"/>
      <use x="832.128906" xlink:href="#DejaVuSans-73"/>
     </g>
    </g>
    <g id="line2d_37">
     <path d="M 448.119688 878.428289 
L 508.119688 878.428289 
" style="fill:none;stroke:#ae7181;stroke-linecap:square;stroke-width:1.5;"/>
    </g>
    <g id="line2d_38">
     <g>
      <use style="fill:#ae7181;stroke:#000000;stroke-linejoin:miter;" x="478.119688" xlink:href="#madc42c50c1" y="878.428289"/>
     </g>
    </g>
    <g id="text_18">
     <!-- Pairing Lazy comparisons -->
     <g transform="translate(532.119688 888.928289)scale(0.3 -0.3)">
      <defs>
       <path d="M 628 4666 
L 1259 4666 
L 1259 531 
L 3531 531 
L 3531 0 
L 628 0 
L 628 4666 
z
" id="DejaVuSans-4c" transform="scale(0.015625)"/>
      </defs>
      <use xlink:href="#DejaVuSans-50"/>
      <use x="55.802734" xlink:href="#DejaVuSans-61"/>
      <use x="117.082031" xlink:href="#DejaVuSans-69"/>
      <use x="144.865234" xlink:href="#DejaVuSans-72"/>
      <use x="185.978516" xlink:href="#DejaVuSans-69"/>
      <use x="213.761719" xlink:href="#DejaVuSans-6e"/>
      <use x="277.140625" xlink:href="#DejaVuSans-67"/>
      <use x="340.617188" xlink:href="#DejaVuSans-20"/>
      <use x="372.404297" xlink:href="#DejaVuSans-4c"/>
      <use x="428.117188" xlink:href="#DejaVuSans-61"/>
      <use x="489.396484" xlink:href="#DejaVuSans-7a"/>
      <use x="541.886719" xlink:href="#DejaVuSans-79"/>
      <use x="601.066406" xlink:href="#DejaVuSans-20"/>
      <use x="632.853516" xlink:href="#DejaVuSans-63"/>
      <use x="687.833984" xlink:href="#DejaVuSans-6f"/>
      <use x="749.015625" xlink:href="#DejaVuSans-6d"/>
      <use x="846.427734" xlink:href="#DejaVuSans-70"/>
      <use x="909.904297" xlink:href="#DejaVuSans-61"/>
      <use x="971.183594" xlink:href="#DejaVuSans-72"/>
      <use x="1012.296875" xlink:href="#DejaVuSans-69"/>
      <use x="1040.080078" xlink:href="#DejaVuSans-73"/>
      <use x="1092.179688" xlink:href="#DejaVuSans-6f"/>
      <use x="1153.361328" xlink:href="#DejaVuSans-6e"/>
      <use x="1216.740234" xlink:href="#DejaVuSans-73"/>
     </g>
    </g>
    <g id="line2d_39">
     <path d="M 448.119688 922.462664 
L 508.119688 922.462664 
" style="fill:none;stroke:#ff81c0;stroke-linecap:square;stroke-width:1.5;"/>
    </g>
    <g id="line2d_40">
     <g>
      <use style="fill:#ff81c0;stroke:#000000;" x="478.119688" xlink:href="#m92f97f6b27" y="922.462664"/>
     </g>
    </g>
    <g id="text_19">
     <!-- Pairing Slim comparisons -->
     <g transform="translate(532.119688 932.962664)scale(0.3 -0.3)">
      <use xlink:href="#DejaVuSans-50"/>
      <use x="55.802734" xlink:href="#DejaVuSans-61"/>
      <use x="117.082031" xlink:href="#DejaVuSans-69"/>
      <use x="144.865234" xlink:href="#DejaVuSans-72"/>
      <use x="185.978516" xlink:href="#DejaVuSans-69"/>
      <use x="213.761719" xlink:href="#DejaVuSans-6e"/>
      <use x="277.140625" xlink:href="#DejaVuSans-67"/>
      <use x="340.617188" xlink:href="#DejaVuSans-20"/>
      <use x="372.404297" xlink:href="#DejaVuSans-53"/>
      <use x="435.880859" xlink:href="#DejaVuSans-6c"/>
      <use x="463.664062" xlink:href="#DejaVuSans-69"/>
      <use x="491.447266" xlink:href="#DejaVuSans-6d"/>
      <use x="588.859375" xlink:href="#DejaVuSans-20"/>
      <use x="620.646484" xlink:href="#DejaVuSans-63"/>
      <use x="675.626953" xlink:href="#DejaVuSans-6f"/>
      <use x="736.808594" xlink:href="#DejaVuSans-6d"/>
      <use x="834.220703" xlink:href="#DejaVuSans-70"/>
      <use x="897.697266" xlink:href="#DejaVuSans-61"/>
      <use x="958.976562" xlink:href="#DejaVuSans-72"/>
      <use x="1000.089844" xlink:href="#DejaVuSans-69"/>
      <use x="1027.873047" xlink:href="#DejaVuSans-73"/>
      <use x="1079.972656" xlink:href="#DejaVuSans-6f"/>
      <use x="1141.154297" xlink:href="#DejaVuSans-6e"/>
      <use x="1204.533203" xlink:href="#DejaVuSans-73"/>
     </g>
    </g>
    <g id="line2d_41">
     <path d="M 448.119688 966.497039 
L 508.119688 966.497039 
" style="fill:none;stroke:#f97306;stroke-linecap:square;stroke-width:1.5;"/>
    </g>
    <g id="line2d_42">
     <g>
      <use style="fill:#f97306;stroke:#000000;stroke-linejoin:miter;" x="478.119688" xlink:href="#m7c472c6a80" y="966.497039"/>
     </g>
    </g>
    <g id="text_20">
     <!-- Pairing Smooth comparisons -->
     <g transform="translate(532.119688 976.997039)scale(0.3 -0.3)">
      <use xlink:href="#DejaVuSans-50"/>
      <use x="55.802734" xlink:href="#DejaVuSans-61"/>
      <use x="117.082031" xlink:href="#DejaVuSans-69"/>
      <use x="144.865234" xlink:href="#DejaVuSans-72"/>
      <use x="185.978516" xlink:href="#DejaVuSans-69"/>
      <use x="213.761719" xlink:href="#DejaVuSans-6e"/>
      <use x="277.140625" xlink:href="#DejaVuSans-67"/>
      <use x="340.617188" xlink:href="#DejaVuSans-20"/>
      <use x="372.404297" xlink:href="#DejaVuSans-53"/>
      <use x="435.880859" xlink:href="#DejaVuSans-6d"/>
      <use x="533.292969" xlink:href="#DejaVuSans-6f"/>
      <use x="594.474609" xlink:href="#DejaVuSans-6f"/>
      <use x="655.65625" xlink:href="#DejaVuSans-74"/>
      <use x="694.865234" xlink:href="#DejaVuSans-68"/>
      <use x="758.244141" xlink:href="#DejaVuSans-20"/>
      <use x="790.03125" xlink:href="#DejaVuSans-63"/>
      <use x="845.011719" xlink:href="#DejaVuSans-6f"/>
      <use x="906.193359" xlink:href="#DejaVuSans-6d"/>
      <use x="1003.605469" xlink:href="#DejaVuSans-70"/>
      <use x="1067.082031" xlink:href="#DejaVuSans-61"/>
      <use x="1128.361328" xlink:href="#DejaVuSans-72"/>
      <use x="1169.474609" xlink:href="#DejaVuSans-69"/>
      <use x="1197.257812" xlink:href="#DejaVuSans-73"/>
      <use x="1249.357422" xlink:href="#DejaVuSans-6f"/>
      <use x="1310.539062" xlink:href="#DejaVuSans-6e"/>
      <use x="1373.917969" xlink:href="#DejaVuSans-73"/>
     </g>
    </g>
   </g>
  </g>
 </g>
 <defs>
  <clipPath id="pfffd4727e9">
   <rect height="997.92" width="892.8" x="94.119688" y="12.316101"/>
  </clipPath>
 </defs>
</svg>
