<?xml version="1.0" encoding="utf-8" standalone="no"?>
<!DOCTYPE svg PUBLIC "-//W3C//DTD SVG 1.1//EN"
  "http://www.w3.org/Graphics/SVG/1.1/DTD/svg11.dtd">
<svg height="1090.099063pt" version="1.1" viewBox="0 0 994.119688 1090.099063" width="994.119688pt" xmlns="http://www.w3.org/2000/svg" xmlns:xlink="http://www.w3.org/1999/xlink">
 <metadata>
  <rdf:RDF xmlns:cc="http://creativecommons.org/ns#" xmlns:dc="http://purl.org/dc/elements/1.1/" xmlns:rdf="http://www.w3.org/1999/02/22-rdf-syntax-ns#">
   <cc:Work>
    <dc:type rdf:resource="http://purl.org/dc/dcmitype/StillImage"/>
    <dc:date>2021-07-05T13:36:35.872514</dc:date>
    <dc:format>image/svg+xml</dc:format>
    <dc:creator>
     <cc:Agent>
      <dc:title>Matplotlib v3.4.2, https://matplotlib.org/</dc:title>
     </cc:Agent>
    </dc:creator>
   </cc:Work>
  </rdf:RDF>
 </metadata>
 <defs>
  <style type="text/css">*{stroke-linecap:butt;stroke-linejoin:round;}</style>
 </defs>
 <g id="figure_1">
  <g id="patch_1">
   <path d="M 0 1090.099063 
L 994.119688 1090.099063 
L 994.119688 0 
L 0 0 
z
" style="fill:#ffffff;"/>
  </g>
  <g id="axes_1">
   <g id="patch_2">
    <path d="M 94.119688 1005.12 
L 986.919688 1005.12 
L 986.919688 7.2 
L 94.119688 7.2 
z
" style="fill:#ffffff;"/>
   </g>
   <g id="PolyCollection_1">
    <defs>
     <path d="M 134.701506 -546.972086 
L 134.701506 -446.955758 
L 179.792415 -455.239615 
L 224.883324 -489.852007 
L 269.974233 -504.033027 
L 315.065142 -499.441587 
L 360.156051 -518.288966 
L 405.24696 -518.053507 
L 450.337869 -545.0135 
L 495.428778 -562.512344 
L 540.519688 -577.378334 
L 585.610597 -605.954428 
L 630.701506 -626.578447 
L 675.792415 -642.568216 
L 720.883324 -672.760411 
L 765.974233 -709.277876 
L 811.065142 -762.320243 
L 856.156051 -819.772105 
L 901.24696 -893.14952 
L 946.337869 -1018.177956 
L 946.337869 -1037.539063 
L 946.337869 -1037.539063 
L 901.24696 -913.773539 
L 856.156051 -856.846108 
L 811.065142 -805.195086 
L 765.974233 -755.791623 
L 720.883324 -731.967509 
L 675.792415 -719.274158 
L 630.701506 -688.803694 
L 585.610597 -670.223882 
L 540.519688 -645.800419 
L 495.428778 -617.812971 
L 450.337869 -628.826005 
L 405.24696 -592.287135 
L 360.156051 -614.559364 
L 315.065142 -570.935335 
L 269.974233 -561.870184 
L 224.883324 -548.224297 
L 179.792415 -542.990698 
L 134.701506 -546.972086 
z
" id="mf5986dbffe" style="stroke:#fe0002;stroke-opacity:0.3;"/>
    </defs>
    <g clip-path="url(#p89a2c95640)">
     <use style="fill:#fe0002;fill-opacity:0.3;stroke:#fe0002;stroke-opacity:0.3;" x="0" xlink:href="#mf5986dbffe" y="1090.099063"/>
    </g>
   </g>
   <g id="PolyCollection_2">
    <defs>
     <path d="M 134.701506 -207.259057 
L 134.701506 -130.339063 
L 179.792415 -130.949114 
L 224.883324 -160.06034 
L 269.974233 -169.992406 
L 315.065142 -162.222277 
L 360.156051 -180.256254 
L 405.24696 -183.370727 
L 450.337869 -202.560591 
L 495.428778 -217.073393 
L 540.519688 -228.172048 
L 585.610597 -250.176711 
L 630.701506 -259.52013 
L 675.792415 -278.249779 
L 720.883324 -293.886361 
L 765.974233 -322.740724 
L 811.065142 -363.731899 
L 856.156051 -402.464814 
L 901.24696 -463.063257 
L 946.337869 -553.597031 
L 946.337869 -563.507691 
L 946.337869 -563.507691 
L 901.24696 -478.271732 
L 856.156051 -436.231696 
L 811.065142 -401.929681 
L 765.974233 -359.782619 
L 720.883324 -352.504812 
L 675.792415 -336.953852 
L 630.701506 -315.99805 
L 585.610597 -299.655093 
L 540.519688 -283.879377 
L 495.428778 -257.326085 
L 450.337869 -267.525717 
L 405.24696 -236.776984 
L 360.156051 -257.005006 
L 315.065142 -230.719281 
L 269.974233 -222.189263 
L 224.883324 -212.770925 
L 179.792415 -198.300933 
L 134.701506 -207.259057 
z
" id="m684b78a7a0" style="stroke:#53fca1;stroke-opacity:0.3;"/>
    </defs>
    <g clip-path="url(#p89a2c95640)">
     <use style="fill:#53fca1;fill-opacity:0.3;stroke:#53fca1;stroke-opacity:0.3;" x="0" xlink:href="#m684b78a7a0" y="1090.099063"/>
    </g>
   </g>
   <g id="PolyCollection_3">
    <defs>
     <path d="M 134.701506 -225.025467 
L 134.701506 -138.205515 
L 179.792415 -139.575455 
L 224.883324 -174.626656 
L 269.974233 -186.28185 
L 315.065142 -178.361884 
L 360.156051 -198.514986 
L 405.24696 -203.352587 
L 450.337869 -221.622022 
L 495.428778 -240.298158 
L 540.519688 -250.904491 
L 585.610597 -283.119488 
L 630.701506 -295.705813 
L 675.792415 -313.739789 
L 720.883324 -343.075771 
L 765.974233 -377.998541 
L 811.065142 -431.843607 
L 856.156051 -494.165177 
L 901.24696 -572.380193 
L 946.337869 -705.778107 
L 946.337869 -727.654338 
L 946.337869 -727.654338 
L 901.24696 -595.305284 
L 856.156051 -533.272685 
L 811.065142 -481.300584 
L 765.974233 -426.05347 
L 720.883324 -413.798928 
L 675.792415 -396.160949 
L 630.701506 -361.773313 
L 585.610597 -344.499225 
L 540.519688 -326.540167 
L 495.428778 -294.068306 
L 450.337869 -307.960355 
L 405.24696 -265.139025 
L 360.156051 -288.428006 
L 315.065142 -255.206959 
L 269.974233 -246.75186 
L 224.883324 -234.336779 
L 179.792415 -224.672279 
L 134.701506 -225.025467 
z
" id="m0253189215" style="stroke:#0652ff;stroke-opacity:0.3;"/>
    </defs>
    <g clip-path="url(#p89a2c95640)">
     <use style="fill:#0652ff;fill-opacity:0.3;stroke:#0652ff;stroke-opacity:0.3;" x="0" xlink:href="#m0253189215" y="1090.099063"/>
    </g>
   </g>
   <g id="PolyCollection_4">
    <defs>
     <path d="M 134.701506 -260.8098 
L 134.701506 -183.975427 
L 179.792415 -191.510097 
L 224.883324 -219.460086 
L 269.974233 -226.063625 
L 315.065142 -225.592708 
L 360.156051 -235.87261 
L 405.24696 -241.480802 
L 450.337869 -258.118082 
L 495.428778 -270.415435 
L 540.519688 -283.210461 
L 585.610597 -309.035972 
L 630.701506 -325.095308 
L 675.792415 -339.832866 
L 720.883324 -363.544603 
L 765.974233 -399.216558 
L 811.065142 -446.260086 
L 856.156051 -502.224278 
L 901.24696 -583.114958 
L 946.337869 -715.132229 
L 946.337869 -736.045221 
L 946.337869 -736.045221 
L 901.24696 -602.470713 
L 856.156051 -541.599352 
L 811.065142 -495.444145 
L 765.974233 -441.92551 
L 720.883324 -428.643513 
L 675.792415 -413.00158 
L 630.701506 -380.021343 
L 585.610597 -367.616963 
L 540.519688 -350.11812 
L 495.428778 -319.112523 
L 450.337869 -331.9129 
L 405.24696 -297.450346 
L 360.156051 -316.404751 
L 315.065142 -285.672072 
L 269.974233 -275.044334 
L 224.883324 -265.802589 
L 179.792415 -259.568292 
L 134.701506 -260.8098 
z
" id="m56144bfaf9" style="stroke:#ae7181;stroke-opacity:0.3;"/>
    </defs>
    <g clip-path="url(#p89a2c95640)">
     <use style="fill:#ae7181;fill-opacity:0.3;stroke:#ae7181;stroke-opacity:0.3;" x="0" xlink:href="#m56144bfaf9" y="1090.099063"/>
    </g>
   </g>
   <g id="PolyCollection_5">
    <defs>
     <path d="M 134.701506 -404.327076 
L 134.701506 -293.795388 
L 179.792415 -302.930106 
L 224.883324 -337.777956 
L 269.974233 -353.655348 
L 315.065142 -348.384289 
L 360.156051 -366.241672 
L 405.24696 -371.75354 
L 450.337869 -398.087427 
L 495.428778 -419.674686 
L 540.519688 -429.826156 
L 585.610597 -472.722404 
L 630.701506 -491.783836 
L 675.792415 -514.532333 
L 720.883324 -548.454404 
L 765.974233 -592.110541 
L 811.065142 -656.856263 
L 856.156051 -732.866532 
L 901.24696 -838.143215 
L 946.337869 -1005.661199 
L 946.337869 -1033.258 
L 946.337869 -1033.258 
L 901.24696 -866.408932 
L 856.156051 -787.830026 
L 811.065142 -725.979372 
L 765.974233 -655.443513 
L 720.883324 -632.06891 
L 675.792415 -615.313901 
L 630.701506 -573.98024 
L 585.610597 -550.316666 
L 540.519688 -525.887852 
L 495.428778 -487.459963 
L 450.337869 -507.800362 
L 405.24696 -451.927142 
L 360.156051 -481.311287 
L 315.065142 -437.41434 
L 269.974233 -427.664219 
L 224.883324 -412.27915 
L 179.792415 -403.813349 
L 134.701506 -404.327076 
z
" id="m23c7ab74f7" style="stroke:#ff9408;stroke-opacity:0.3;"/>
    </defs>
    <g clip-path="url(#p89a2c95640)">
     <use style="fill:#ff9408;fill-opacity:0.3;stroke:#ff9408;stroke-opacity:0.3;" x="0" xlink:href="#m23c7ab74f7" y="1090.099063"/>
    </g>
   </g>
   <g id="PolyCollection_6">
    <defs>
     <path d="M 134.701506 -364.935948 
L 134.701506 -272.325859 
L 179.792415 -278.881236 
L 224.883324 -310.368452 
L 269.974233 -324.629743 
L 315.065142 -319.610196 
L 360.156051 -334.97386 
L 405.24696 -338.971303 
L 450.337869 -362.543904 
L 495.428778 -379.202589 
L 540.519688 -389.974814 
L 585.610597 -423.966451 
L 630.701506 -439.897356 
L 675.792415 -459.24776 
L 720.883324 -488.284067 
L 765.974233 -522.281057 
L 811.065142 -578.20779 
L 856.156051 -637.26505 
L 901.24696 -717.476111 
L 946.337869 -852.318884 
L 946.337869 -875.516893 
L 946.337869 -875.516893 
L 901.24696 -740.936335 
L 856.156051 -682.901178 
L 811.065142 -627.504227 
L 765.974233 -572.465814 
L 720.883324 -555.261294 
L 675.792415 -539.555145 
L 630.701506 -507.019068 
L 585.610597 -488.449959 
L 540.519688 -465.926217 
L 495.428778 -433.047656 
L 450.337869 -450.514392 
L 405.24696 -406.462256 
L 360.156051 -431.800796 
L 315.065142 -393.934797 
L 269.974233 -383.0716 
L 224.883324 -374.648609 
L 179.792415 -362.704444 
L 134.701506 -364.935948 
z
" id="mf59f1d4217" style="stroke:#ff81c0;stroke-opacity:0.3;"/>
    </defs>
    <g clip-path="url(#p89a2c95640)">
     <use style="fill:#ff81c0;fill-opacity:0.3;stroke:#ff81c0;stroke-opacity:0.3;" x="0" xlink:href="#mf59f1d4217" y="1090.099063"/>
    </g>
   </g>
   <g id="matplotlib.axis_1">
    <g id="xtick_1">
     <g id="line2d_1">
      <path clip-path="url(#p89a2c95640)" d="M 811.065142 1005.12 
L 811.065142 7.2 
" style="fill:none;stroke:#b0b0b0;stroke-linecap:square;stroke-width:0.8;"/>
     </g>
     <g id="line2d_2">
      <defs>
       <path d="M 0 0 
L 0 3.5 
" id="m1d5246a491" style="stroke:#000000;stroke-width:0.8;"/>
      </defs>
      <g>
       <use style="stroke:#000000;stroke-width:0.8;" x="811.065142" xlink:href="#m1d5246a491" y="1005.12"/>
      </g>
     </g>
     <g id="text_1">
      <!-- 2 -->
      <g transform="translate(801.521392 1034.915313)scale(0.3 -0.3)">
       <defs>
        <path d="M 1228 531 
L 3431 531 
L 3431 0 
L 469 0 
L 469 531 
Q 828 903 1448 1529 
Q 2069 2156 2228 2338 
Q 2531 2678 2651 2914 
Q 2772 3150 2772 3378 
Q 2772 3750 2511 3984 
Q 2250 4219 1831 4219 
Q 1534 4219 1204 4116 
Q 875 4013 500 3803 
L 500 4441 
Q 881 4594 1212 4672 
Q 1544 4750 1819 4750 
Q 2544 4750 2975 4387 
Q 3406 4025 3406 3419 
Q 3406 3131 3298 2873 
Q 3191 2616 2906 2266 
Q 2828 2175 2409 1742 
Q 1991 1309 1228 531 
z
" id="DejaVuSans-32" transform="scale(0.015625)"/>
       </defs>
       <use xlink:href="#DejaVuSans-32"/>
      </g>
     </g>
    </g>
    <g id="xtick_2">
     <g id="line2d_3">
      <path clip-path="url(#p89a2c95640)" d="M 630.701506 1005.12 
L 630.701506 7.2 
" style="fill:none;stroke:#b0b0b0;stroke-linecap:square;stroke-width:0.8;"/>
     </g>
     <g id="line2d_4">
      <g>
       <use style="stroke:#000000;stroke-width:0.8;" x="630.701506" xlink:href="#m1d5246a491" y="1005.12"/>
      </g>
     </g>
     <g id="text_2">
      <!-- 4 -->
      <g transform="translate(621.157756 1034.915313)scale(0.3 -0.3)">
       <defs>
        <path d="M 2419 4116 
L 825 1625 
L 2419 1625 
L 2419 4116 
z
M 2253 4666 
L 3047 4666 
L 3047 1625 
L 3713 1625 
L 3713 1100 
L 3047 1100 
L 3047 0 
L 2419 0 
L 2419 1100 
L 313 1100 
L 313 1709 
L 2253 4666 
z
" id="DejaVuSans-34" transform="scale(0.015625)"/>
       </defs>
       <use xlink:href="#DejaVuSans-34"/>
      </g>
     </g>
    </g>
    <g id="xtick_3">
     <g id="line2d_5">
      <path clip-path="url(#p89a2c95640)" d="M 450.337869 1005.12 
L 450.337869 7.2 
" style="fill:none;stroke:#b0b0b0;stroke-linecap:square;stroke-width:0.8;"/>
     </g>
     <g id="line2d_6">
      <g>
       <use style="stroke:#000000;stroke-width:0.8;" x="450.337869" xlink:href="#m1d5246a491" y="1005.12"/>
      </g>
     </g>
     <g id="text_3">
      <!-- 6 -->
      <g transform="translate(440.794119 1034.915313)scale(0.3 -0.3)">
       <defs>
        <path d="M 2113 2584 
Q 1688 2584 1439 2293 
Q 1191 2003 1191 1497 
Q 1191 994 1439 701 
Q 1688 409 2113 409 
Q 2538 409 2786 701 
Q 3034 994 3034 1497 
Q 3034 2003 2786 2293 
Q 2538 2584 2113 2584 
z
M 3366 4563 
L 3366 3988 
Q 3128 4100 2886 4159 
Q 2644 4219 2406 4219 
Q 1781 4219 1451 3797 
Q 1122 3375 1075 2522 
Q 1259 2794 1537 2939 
Q 1816 3084 2150 3084 
Q 2853 3084 3261 2657 
Q 3669 2231 3669 1497 
Q 3669 778 3244 343 
Q 2819 -91 2113 -91 
Q 1303 -91 875 529 
Q 447 1150 447 2328 
Q 447 3434 972 4092 
Q 1497 4750 2381 4750 
Q 2619 4750 2861 4703 
Q 3103 4656 3366 4563 
z
" id="DejaVuSans-36" transform="scale(0.015625)"/>
       </defs>
       <use xlink:href="#DejaVuSans-36"/>
      </g>
     </g>
    </g>
    <g id="xtick_4">
     <g id="line2d_7">
      <path clip-path="url(#p89a2c95640)" d="M 269.974233 1005.12 
L 269.974233 7.2 
" style="fill:none;stroke:#b0b0b0;stroke-linecap:square;stroke-width:0.8;"/>
     </g>
     <g id="line2d_8">
      <g>
       <use style="stroke:#000000;stroke-width:0.8;" x="269.974233" xlink:href="#m1d5246a491" y="1005.12"/>
      </g>
     </g>
     <g id="text_4">
      <!-- 8 -->
      <g transform="translate(260.430483 1034.915313)scale(0.3 -0.3)">
       <defs>
        <path d="M 2034 2216 
Q 1584 2216 1326 1975 
Q 1069 1734 1069 1313 
Q 1069 891 1326 650 
Q 1584 409 2034 409 
Q 2484 409 2743 651 
Q 3003 894 3003 1313 
Q 3003 1734 2745 1975 
Q 2488 2216 2034 2216 
z
M 1403 2484 
Q 997 2584 770 2862 
Q 544 3141 544 3541 
Q 544 4100 942 4425 
Q 1341 4750 2034 4750 
Q 2731 4750 3128 4425 
Q 3525 4100 3525 3541 
Q 3525 3141 3298 2862 
Q 3072 2584 2669 2484 
Q 3125 2378 3379 2068 
Q 3634 1759 3634 1313 
Q 3634 634 3220 271 
Q 2806 -91 2034 -91 
Q 1263 -91 848 271 
Q 434 634 434 1313 
Q 434 1759 690 2068 
Q 947 2378 1403 2484 
z
M 1172 3481 
Q 1172 3119 1398 2916 
Q 1625 2713 2034 2713 
Q 2441 2713 2670 2916 
Q 2900 3119 2900 3481 
Q 2900 3844 2670 4047 
Q 2441 4250 2034 4250 
Q 1625 4250 1398 4047 
Q 1172 3844 1172 3481 
z
" id="DejaVuSans-38" transform="scale(0.015625)"/>
       </defs>
       <use xlink:href="#DejaVuSans-38"/>
      </g>
     </g>
    </g>
    <g id="text_5">
     <!-- Avg. length of sorted blocks, % of size -->
     <g transform="translate(168.514531 1074.788281)scale(0.39 -0.39)">
      <defs>
       <path d="M 2188 4044 
L 1331 1722 
L 3047 1722 
L 2188 4044 
z
M 1831 4666 
L 2547 4666 
L 4325 0 
L 3669 0 
L 3244 1197 
L 1141 1197 
L 716 0 
L 50 0 
L 1831 4666 
z
" id="DejaVuSans-41" transform="scale(0.015625)"/>
       <path d="M 191 3500 
L 800 3500 
L 1894 563 
L 2988 3500 
L 3597 3500 
L 2284 0 
L 1503 0 
L 191 3500 
z
" id="DejaVuSans-76" transform="scale(0.015625)"/>
       <path d="M 2906 1791 
Q 2906 2416 2648 2759 
Q 2391 3103 1925 3103 
Q 1463 3103 1205 2759 
Q 947 2416 947 1791 
Q 947 1169 1205 825 
Q 1463 481 1925 481 
Q 2391 481 2648 825 
Q 2906 1169 2906 1791 
z
M 3481 434 
Q 3481 -459 3084 -895 
Q 2688 -1331 1869 -1331 
Q 1566 -1331 1297 -1286 
Q 1028 -1241 775 -1147 
L 775 -588 
Q 1028 -725 1275 -790 
Q 1522 -856 1778 -856 
Q 2344 -856 2625 -561 
Q 2906 -266 2906 331 
L 2906 616 
Q 2728 306 2450 153 
Q 2172 0 1784 0 
Q 1141 0 747 490 
Q 353 981 353 1791 
Q 353 2603 747 3093 
Q 1141 3584 1784 3584 
Q 2172 3584 2450 3431 
Q 2728 3278 2906 2969 
L 2906 3500 
L 3481 3500 
L 3481 434 
z
" id="DejaVuSans-67" transform="scale(0.015625)"/>
       <path d="M 684 794 
L 1344 794 
L 1344 0 
L 684 0 
L 684 794 
z
" id="DejaVuSans-2e" transform="scale(0.015625)"/>
       <path id="DejaVuSans-20" transform="scale(0.015625)"/>
       <path d="M 603 4863 
L 1178 4863 
L 1178 0 
L 603 0 
L 603 4863 
z
" id="DejaVuSans-6c" transform="scale(0.015625)"/>
       <path d="M 3597 1894 
L 3597 1613 
L 953 1613 
Q 991 1019 1311 708 
Q 1631 397 2203 397 
Q 2534 397 2845 478 
Q 3156 559 3463 722 
L 3463 178 
Q 3153 47 2828 -22 
Q 2503 -91 2169 -91 
Q 1331 -91 842 396 
Q 353 884 353 1716 
Q 353 2575 817 3079 
Q 1281 3584 2069 3584 
Q 2775 3584 3186 3129 
Q 3597 2675 3597 1894 
z
M 3022 2063 
Q 3016 2534 2758 2815 
Q 2500 3097 2075 3097 
Q 1594 3097 1305 2825 
Q 1016 2553 972 2059 
L 3022 2063 
z
" id="DejaVuSans-65" transform="scale(0.015625)"/>
       <path d="M 3513 2113 
L 3513 0 
L 2938 0 
L 2938 2094 
Q 2938 2591 2744 2837 
Q 2550 3084 2163 3084 
Q 1697 3084 1428 2787 
Q 1159 2491 1159 1978 
L 1159 0 
L 581 0 
L 581 3500 
L 1159 3500 
L 1159 2956 
Q 1366 3272 1645 3428 
Q 1925 3584 2291 3584 
Q 2894 3584 3203 3211 
Q 3513 2838 3513 2113 
z
" id="DejaVuSans-6e" transform="scale(0.015625)"/>
       <path d="M 1172 4494 
L 1172 3500 
L 2356 3500 
L 2356 3053 
L 1172 3053 
L 1172 1153 
Q 1172 725 1289 603 
Q 1406 481 1766 481 
L 2356 481 
L 2356 0 
L 1766 0 
Q 1100 0 847 248 
Q 594 497 594 1153 
L 594 3053 
L 172 3053 
L 172 3500 
L 594 3500 
L 594 4494 
L 1172 4494 
z
" id="DejaVuSans-74" transform="scale(0.015625)"/>
       <path d="M 3513 2113 
L 3513 0 
L 2938 0 
L 2938 2094 
Q 2938 2591 2744 2837 
Q 2550 3084 2163 3084 
Q 1697 3084 1428 2787 
Q 1159 2491 1159 1978 
L 1159 0 
L 581 0 
L 581 4863 
L 1159 4863 
L 1159 2956 
Q 1366 3272 1645 3428 
Q 1925 3584 2291 3584 
Q 2894 3584 3203 3211 
Q 3513 2838 3513 2113 
z
" id="DejaVuSans-68" transform="scale(0.015625)"/>
       <path d="M 1959 3097 
Q 1497 3097 1228 2736 
Q 959 2375 959 1747 
Q 959 1119 1226 758 
Q 1494 397 1959 397 
Q 2419 397 2687 759 
Q 2956 1122 2956 1747 
Q 2956 2369 2687 2733 
Q 2419 3097 1959 3097 
z
M 1959 3584 
Q 2709 3584 3137 3096 
Q 3566 2609 3566 1747 
Q 3566 888 3137 398 
Q 2709 -91 1959 -91 
Q 1206 -91 779 398 
Q 353 888 353 1747 
Q 353 2609 779 3096 
Q 1206 3584 1959 3584 
z
" id="DejaVuSans-6f" transform="scale(0.015625)"/>
       <path d="M 2375 4863 
L 2375 4384 
L 1825 4384 
Q 1516 4384 1395 4259 
Q 1275 4134 1275 3809 
L 1275 3500 
L 2222 3500 
L 2222 3053 
L 1275 3053 
L 1275 0 
L 697 0 
L 697 3053 
L 147 3053 
L 147 3500 
L 697 3500 
L 697 3744 
Q 697 4328 969 4595 
Q 1241 4863 1831 4863 
L 2375 4863 
z
" id="DejaVuSans-66" transform="scale(0.015625)"/>
       <path d="M 2834 3397 
L 2834 2853 
Q 2591 2978 2328 3040 
Q 2066 3103 1784 3103 
Q 1356 3103 1142 2972 
Q 928 2841 928 2578 
Q 928 2378 1081 2264 
Q 1234 2150 1697 2047 
L 1894 2003 
Q 2506 1872 2764 1633 
Q 3022 1394 3022 966 
Q 3022 478 2636 193 
Q 2250 -91 1575 -91 
Q 1294 -91 989 -36 
Q 684 19 347 128 
L 347 722 
Q 666 556 975 473 
Q 1284 391 1588 391 
Q 1994 391 2212 530 
Q 2431 669 2431 922 
Q 2431 1156 2273 1281 
Q 2116 1406 1581 1522 
L 1381 1569 
Q 847 1681 609 1914 
Q 372 2147 372 2553 
Q 372 3047 722 3315 
Q 1072 3584 1716 3584 
Q 2034 3584 2315 3537 
Q 2597 3491 2834 3397 
z
" id="DejaVuSans-73" transform="scale(0.015625)"/>
       <path d="M 2631 2963 
Q 2534 3019 2420 3045 
Q 2306 3072 2169 3072 
Q 1681 3072 1420 2755 
Q 1159 2438 1159 1844 
L 1159 0 
L 581 0 
L 581 3500 
L 1159 3500 
L 1159 2956 
Q 1341 3275 1631 3429 
Q 1922 3584 2338 3584 
Q 2397 3584 2469 3576 
Q 2541 3569 2628 3553 
L 2631 2963 
z
" id="DejaVuSans-72" transform="scale(0.015625)"/>
       <path d="M 2906 2969 
L 2906 4863 
L 3481 4863 
L 3481 0 
L 2906 0 
L 2906 525 
Q 2725 213 2448 61 
Q 2172 -91 1784 -91 
Q 1150 -91 751 415 
Q 353 922 353 1747 
Q 353 2572 751 3078 
Q 1150 3584 1784 3584 
Q 2172 3584 2448 3432 
Q 2725 3281 2906 2969 
z
M 947 1747 
Q 947 1113 1208 752 
Q 1469 391 1925 391 
Q 2381 391 2643 752 
Q 2906 1113 2906 1747 
Q 2906 2381 2643 2742 
Q 2381 3103 1925 3103 
Q 1469 3103 1208 2742 
Q 947 2381 947 1747 
z
" id="DejaVuSans-64" transform="scale(0.015625)"/>
       <path d="M 3116 1747 
Q 3116 2381 2855 2742 
Q 2594 3103 2138 3103 
Q 1681 3103 1420 2742 
Q 1159 2381 1159 1747 
Q 1159 1113 1420 752 
Q 1681 391 2138 391 
Q 2594 391 2855 752 
Q 3116 1113 3116 1747 
z
M 1159 2969 
Q 1341 3281 1617 3432 
Q 1894 3584 2278 3584 
Q 2916 3584 3314 3078 
Q 3713 2572 3713 1747 
Q 3713 922 3314 415 
Q 2916 -91 2278 -91 
Q 1894 -91 1617 61 
Q 1341 213 1159 525 
L 1159 0 
L 581 0 
L 581 4863 
L 1159 4863 
L 1159 2969 
z
" id="DejaVuSans-62" transform="scale(0.015625)"/>
       <path d="M 3122 3366 
L 3122 2828 
Q 2878 2963 2633 3030 
Q 2388 3097 2138 3097 
Q 1578 3097 1268 2742 
Q 959 2388 959 1747 
Q 959 1106 1268 751 
Q 1578 397 2138 397 
Q 2388 397 2633 464 
Q 2878 531 3122 666 
L 3122 134 
Q 2881 22 2623 -34 
Q 2366 -91 2075 -91 
Q 1284 -91 818 406 
Q 353 903 353 1747 
Q 353 2603 823 3093 
Q 1294 3584 2113 3584 
Q 2378 3584 2631 3529 
Q 2884 3475 3122 3366 
z
" id="DejaVuSans-63" transform="scale(0.015625)"/>
       <path d="M 581 4863 
L 1159 4863 
L 1159 1991 
L 2875 3500 
L 3609 3500 
L 1753 1863 
L 3688 0 
L 2938 0 
L 1159 1709 
L 1159 0 
L 581 0 
L 581 4863 
z
" id="DejaVuSans-6b" transform="scale(0.015625)"/>
       <path d="M 750 794 
L 1409 794 
L 1409 256 
L 897 -744 
L 494 -744 
L 750 256 
L 750 794 
z
" id="DejaVuSans-2c" transform="scale(0.015625)"/>
       <path d="M 4653 2053 
Q 4381 2053 4226 1822 
Q 4072 1591 4072 1178 
Q 4072 772 4226 539 
Q 4381 306 4653 306 
Q 4919 306 5073 539 
Q 5228 772 5228 1178 
Q 5228 1588 5073 1820 
Q 4919 2053 4653 2053 
z
M 4653 2450 
Q 5147 2450 5437 2106 
Q 5728 1763 5728 1178 
Q 5728 594 5436 251 
Q 5144 -91 4653 -91 
Q 4153 -91 3862 251 
Q 3572 594 3572 1178 
Q 3572 1766 3864 2108 
Q 4156 2450 4653 2450 
z
M 1428 4353 
Q 1159 4353 1004 4120 
Q 850 3888 850 3481 
Q 850 3069 1003 2837 
Q 1156 2606 1428 2606 
Q 1700 2606 1854 2837 
Q 2009 3069 2009 3481 
Q 2009 3884 1853 4118 
Q 1697 4353 1428 4353 
z
M 4250 4750 
L 4750 4750 
L 1831 -91 
L 1331 -91 
L 4250 4750 
z
M 1428 4750 
Q 1922 4750 2215 4408 
Q 2509 4066 2509 3481 
Q 2509 2891 2217 2550 
Q 1925 2209 1428 2209 
Q 931 2209 642 2551 
Q 353 2894 353 3481 
Q 353 4063 643 4406 
Q 934 4750 1428 4750 
z
" id="DejaVuSans-25" transform="scale(0.015625)"/>
       <path d="M 603 3500 
L 1178 3500 
L 1178 0 
L 603 0 
L 603 3500 
z
M 603 4863 
L 1178 4863 
L 1178 4134 
L 603 4134 
L 603 4863 
z
" id="DejaVuSans-69" transform="scale(0.015625)"/>
       <path d="M 353 3500 
L 3084 3500 
L 3084 2975 
L 922 459 
L 3084 459 
L 3084 0 
L 275 0 
L 275 525 
L 2438 3041 
L 353 3041 
L 353 3500 
z
" id="DejaVuSans-7a" transform="scale(0.015625)"/>
      </defs>
      <use xlink:href="#DejaVuSans-41"/>
      <use x="62.533203" xlink:href="#DejaVuSans-76"/>
      <use x="121.712891" xlink:href="#DejaVuSans-67"/>
      <use x="185.189453" xlink:href="#DejaVuSans-2e"/>
      <use x="216.976562" xlink:href="#DejaVuSans-20"/>
      <use x="248.763672" xlink:href="#DejaVuSans-6c"/>
      <use x="276.546875" xlink:href="#DejaVuSans-65"/>
      <use x="338.070312" xlink:href="#DejaVuSans-6e"/>
      <use x="401.449219" xlink:href="#DejaVuSans-67"/>
      <use x="464.925781" xlink:href="#DejaVuSans-74"/>
      <use x="504.134766" xlink:href="#DejaVuSans-68"/>
      <use x="567.513672" xlink:href="#DejaVuSans-20"/>
      <use x="599.300781" xlink:href="#DejaVuSans-6f"/>
      <use x="660.482422" xlink:href="#DejaVuSans-66"/>
      <use x="695.6875" xlink:href="#DejaVuSans-20"/>
      <use x="727.474609" xlink:href="#DejaVuSans-73"/>
      <use x="779.574219" xlink:href="#DejaVuSans-6f"/>
      <use x="840.755859" xlink:href="#DejaVuSans-72"/>
      <use x="881.869141" xlink:href="#DejaVuSans-74"/>
      <use x="921.078125" xlink:href="#DejaVuSans-65"/>
      <use x="982.601562" xlink:href="#DejaVuSans-64"/>
      <use x="1046.078125" xlink:href="#DejaVuSans-20"/>
      <use x="1077.865234" xlink:href="#DejaVuSans-62"/>
      <use x="1141.341797" xlink:href="#DejaVuSans-6c"/>
      <use x="1169.125" xlink:href="#DejaVuSans-6f"/>
      <use x="1230.306641" xlink:href="#DejaVuSans-63"/>
      <use x="1285.287109" xlink:href="#DejaVuSans-6b"/>
      <use x="1343.197266" xlink:href="#DejaVuSans-73"/>
      <use x="1395.296875" xlink:href="#DejaVuSans-2c"/>
      <use x="1427.083984" xlink:href="#DejaVuSans-20"/>
      <use x="1458.871094" xlink:href="#DejaVuSans-25"/>
      <use x="1553.890625" xlink:href="#DejaVuSans-20"/>
      <use x="1585.677734" xlink:href="#DejaVuSans-6f"/>
      <use x="1646.859375" xlink:href="#DejaVuSans-66"/>
      <use x="1682.064453" xlink:href="#DejaVuSans-20"/>
      <use x="1713.851562" xlink:href="#DejaVuSans-73"/>
      <use x="1765.951172" xlink:href="#DejaVuSans-69"/>
      <use x="1793.734375" xlink:href="#DejaVuSans-7a"/>
      <use x="1846.224609" xlink:href="#DejaVuSans-65"/>
     </g>
    </g>
   </g>
   <g id="matplotlib.axis_2">
    <g id="ytick_1">
     <g id="line2d_9">
      <path clip-path="url(#p89a2c95640)" d="M 94.119688 934.34119 
L 986.919688 934.34119 
" style="fill:none;stroke:#b0b0b0;stroke-linecap:square;stroke-width:0.8;"/>
     </g>
     <g id="line2d_10">
      <defs>
       <path d="M 0 0 
L -3.5 0 
" id="m4dbca002c9" style="stroke:#000000;stroke-width:0.8;"/>
      </defs>
      <g>
       <use style="stroke:#000000;stroke-width:0.8;" x="94.119688" xlink:href="#m4dbca002c9" y="934.34119"/>
      </g>
     </g>
     <g id="text_6">
      <!-- 4 -->
      <g transform="translate(68.032188 945.738846)scale(0.3 -0.3)">
       <use xlink:href="#DejaVuSans-34"/>
      </g>
     </g>
    </g>
    <g id="ytick_2">
     <g id="line2d_11">
      <path clip-path="url(#p89a2c95640)" d="M 94.119688 720.288054 
L 986.919688 720.288054 
" style="fill:none;stroke:#b0b0b0;stroke-linecap:square;stroke-width:0.8;"/>
     </g>
     <g id="line2d_12">
      <g>
       <use style="stroke:#000000;stroke-width:0.8;" x="94.119688" xlink:href="#m4dbca002c9" y="720.288054"/>
      </g>
     </g>
     <g id="text_7">
      <!-- 6 -->
      <g transform="translate(68.032188 731.685711)scale(0.3 -0.3)">
       <use xlink:href="#DejaVuSans-36"/>
      </g>
     </g>
    </g>
    <g id="ytick_3">
     <g id="line2d_13">
      <path clip-path="url(#p89a2c95640)" d="M 94.119688 506.234919 
L 986.919688 506.234919 
" style="fill:none;stroke:#b0b0b0;stroke-linecap:square;stroke-width:0.8;"/>
     </g>
     <g id="line2d_14">
      <g>
       <use style="stroke:#000000;stroke-width:0.8;" x="94.119688" xlink:href="#m4dbca002c9" y="506.234919"/>
      </g>
     </g>
     <g id="text_8">
      <!-- 8 -->
      <g transform="translate(68.032188 517.632575)scale(0.3 -0.3)">
       <use xlink:href="#DejaVuSans-38"/>
      </g>
     </g>
    </g>
    <g id="ytick_4">
     <g id="line2d_15">
      <path clip-path="url(#p89a2c95640)" d="M 94.119688 292.181783 
L 986.919688 292.181783 
" style="fill:none;stroke:#b0b0b0;stroke-linecap:square;stroke-width:0.8;"/>
     </g>
     <g id="line2d_16">
      <g>
       <use style="stroke:#000000;stroke-width:0.8;" x="94.119688" xlink:href="#m4dbca002c9" y="292.181783"/>
      </g>
     </g>
     <g id="text_9">
      <!-- 10 -->
      <g transform="translate(48.944688 303.579439)scale(0.3 -0.3)">
       <defs>
        <path d="M 794 531 
L 1825 531 
L 1825 4091 
L 703 3866 
L 703 4441 
L 1819 4666 
L 2450 4666 
L 2450 531 
L 3481 531 
L 3481 0 
L 794 0 
L 794 531 
z
" id="DejaVuSans-31" transform="scale(0.015625)"/>
        <path d="M 2034 4250 
Q 1547 4250 1301 3770 
Q 1056 3291 1056 2328 
Q 1056 1369 1301 889 
Q 1547 409 2034 409 
Q 2525 409 2770 889 
Q 3016 1369 3016 2328 
Q 3016 3291 2770 3770 
Q 2525 4250 2034 4250 
z
M 2034 4750 
Q 2819 4750 3233 4129 
Q 3647 3509 3647 2328 
Q 3647 1150 3233 529 
Q 2819 -91 2034 -91 
Q 1250 -91 836 529 
Q 422 1150 422 2328 
Q 422 3509 836 4129 
Q 1250 4750 2034 4750 
z
" id="DejaVuSans-30" transform="scale(0.015625)"/>
       </defs>
       <use xlink:href="#DejaVuSans-31"/>
       <use x="63.623047" xlink:href="#DejaVuSans-30"/>
      </g>
     </g>
    </g>
    <g id="ytick_5">
     <g id="line2d_17">
      <path clip-path="url(#p89a2c95640)" d="M 94.119688 78.128647 
L 986.919688 78.128647 
" style="fill:none;stroke:#b0b0b0;stroke-linecap:square;stroke-width:0.8;"/>
     </g>
     <g id="line2d_18">
      <g>
       <use style="stroke:#000000;stroke-width:0.8;" x="94.119688" xlink:href="#m4dbca002c9" y="78.128647"/>
      </g>
     </g>
     <g id="text_10">
      <!-- 12 -->
      <g transform="translate(48.944688 89.526303)scale(0.3 -0.3)">
       <use xlink:href="#DejaVuSans-31"/>
       <use x="63.623047" xlink:href="#DejaVuSans-32"/>
      </g>
     </g>
    </g>
    <g id="text_11">
     <!-- Avg. number of links / size -->
     <g transform="translate(36.833906 763.380234)rotate(-90)scale(0.39 -0.39)">
      <defs>
       <path d="M 544 1381 
L 544 3500 
L 1119 3500 
L 1119 1403 
Q 1119 906 1312 657 
Q 1506 409 1894 409 
Q 2359 409 2629 706 
Q 2900 1003 2900 1516 
L 2900 3500 
L 3475 3500 
L 3475 0 
L 2900 0 
L 2900 538 
Q 2691 219 2414 64 
Q 2138 -91 1772 -91 
Q 1169 -91 856 284 
Q 544 659 544 1381 
z
M 1991 3584 
L 1991 3584 
z
" id="DejaVuSans-75" transform="scale(0.015625)"/>
       <path d="M 3328 2828 
Q 3544 3216 3844 3400 
Q 4144 3584 4550 3584 
Q 5097 3584 5394 3201 
Q 5691 2819 5691 2113 
L 5691 0 
L 5113 0 
L 5113 2094 
Q 5113 2597 4934 2840 
Q 4756 3084 4391 3084 
Q 3944 3084 3684 2787 
Q 3425 2491 3425 1978 
L 3425 0 
L 2847 0 
L 2847 2094 
Q 2847 2600 2669 2842 
Q 2491 3084 2119 3084 
Q 1678 3084 1418 2786 
Q 1159 2488 1159 1978 
L 1159 0 
L 581 0 
L 581 3500 
L 1159 3500 
L 1159 2956 
Q 1356 3278 1631 3431 
Q 1906 3584 2284 3584 
Q 2666 3584 2933 3390 
Q 3200 3197 3328 2828 
z
" id="DejaVuSans-6d" transform="scale(0.015625)"/>
       <path d="M 1625 4666 
L 2156 4666 
L 531 -594 
L 0 -594 
L 1625 4666 
z
" id="DejaVuSans-2f" transform="scale(0.015625)"/>
      </defs>
      <use xlink:href="#DejaVuSans-41"/>
      <use x="62.533203" xlink:href="#DejaVuSans-76"/>
      <use x="121.712891" xlink:href="#DejaVuSans-67"/>
      <use x="185.189453" xlink:href="#DejaVuSans-2e"/>
      <use x="216.976562" xlink:href="#DejaVuSans-20"/>
      <use x="248.763672" xlink:href="#DejaVuSans-6e"/>
      <use x="312.142578" xlink:href="#DejaVuSans-75"/>
      <use x="375.521484" xlink:href="#DejaVuSans-6d"/>
      <use x="472.933594" xlink:href="#DejaVuSans-62"/>
      <use x="536.410156" xlink:href="#DejaVuSans-65"/>
      <use x="597.933594" xlink:href="#DejaVuSans-72"/>
      <use x="639.046875" xlink:href="#DejaVuSans-20"/>
      <use x="670.833984" xlink:href="#DejaVuSans-6f"/>
      <use x="732.015625" xlink:href="#DejaVuSans-66"/>
      <use x="767.220703" xlink:href="#DejaVuSans-20"/>
      <use x="799.007812" xlink:href="#DejaVuSans-6c"/>
      <use x="826.791016" xlink:href="#DejaVuSans-69"/>
      <use x="854.574219" xlink:href="#DejaVuSans-6e"/>
      <use x="917.953125" xlink:href="#DejaVuSans-6b"/>
      <use x="975.863281" xlink:href="#DejaVuSans-73"/>
      <use x="1027.962891" xlink:href="#DejaVuSans-20"/>
      <use x="1059.75" xlink:href="#DejaVuSans-2f"/>
      <use x="1093.441406" xlink:href="#DejaVuSans-20"/>
      <use x="1125.228516" xlink:href="#DejaVuSans-73"/>
      <use x="1177.328125" xlink:href="#DejaVuSans-69"/>
      <use x="1205.111328" xlink:href="#DejaVuSans-7a"/>
      <use x="1257.601562" xlink:href="#DejaVuSans-65"/>
     </g>
    </g>
   </g>
   <g id="line2d_19">
    <path clip-path="url(#p89a2c95640)" d="M 134.701506 598.004314 
L 179.792415 592.423949 
L 224.883324 573.67664 
L 269.974233 560.449762 
L 315.065142 555.487475 
L 360.156051 532.080764 
L 405.24696 526.188417 
L 450.337869 513.465634 
L 495.428778 504.782033 
L 540.519688 481.555127 
L 585.610597 454.627778 
L 630.701506 437.957855 
L 675.792415 410.771501 
L 720.883324 385.682868 
L 765.974233 352.51587 
L 811.065142 307.953753 
L 856.156051 256.257245 
L 901.24696 184.172711 
L 946.337869 61.189017 
" style="fill:none;stroke:#fe0002;stroke-dasharray:5.55,2.4;stroke-dashoffset:0;stroke-width:1.5;"/>
    <defs>
     <path d="M 0 4.5 
C 1.193414 4.5 2.338109 4.025852 3.181981 3.181981 
C 4.025852 2.338109 4.5 1.193414 4.5 0 
C 4.5 -1.193414 4.025852 -2.338109 3.181981 -3.181981 
C 2.338109 -4.025852 1.193414 -4.5 0 -4.5 
C -1.193414 -4.5 -2.338109 -4.025852 -3.181981 -3.181981 
C -4.025852 -2.338109 -4.5 -1.193414 -4.5 0 
C -4.5 1.193414 -4.025852 2.338109 -3.181981 3.181981 
C -2.338109 4.025852 -1.193414 4.5 0 4.5 
z
" id="meda8683757" style="stroke:#000000;"/>
    </defs>
    <g clip-path="url(#p89a2c95640)">
     <use style="fill:#fe0002;stroke:#000000;" x="134.701506" xlink:href="#meda8683757" y="598.004314"/>
     <use style="fill:#fe0002;stroke:#000000;" x="179.792415" xlink:href="#meda8683757" y="592.423949"/>
     <use style="fill:#fe0002;stroke:#000000;" x="224.883324" xlink:href="#meda8683757" y="573.67664"/>
     <use style="fill:#fe0002;stroke:#000000;" x="269.974233" xlink:href="#meda8683757" y="560.449762"/>
     <use style="fill:#fe0002;stroke:#000000;" x="315.065142" xlink:href="#meda8683757" y="555.487475"/>
     <use style="fill:#fe0002;stroke:#000000;" x="360.156051" xlink:href="#meda8683757" y="532.080764"/>
     <use style="fill:#fe0002;stroke:#000000;" x="405.24696" xlink:href="#meda8683757" y="526.188417"/>
     <use style="fill:#fe0002;stroke:#000000;" x="450.337869" xlink:href="#meda8683757" y="513.465634"/>
     <use style="fill:#fe0002;stroke:#000000;" x="495.428778" xlink:href="#meda8683757" y="504.782033"/>
     <use style="fill:#fe0002;stroke:#000000;" x="540.519688" xlink:href="#meda8683757" y="481.555127"/>
     <use style="fill:#fe0002;stroke:#000000;" x="585.610597" xlink:href="#meda8683757" y="454.627778"/>
     <use style="fill:#fe0002;stroke:#000000;" x="630.701506" xlink:href="#meda8683757" y="437.957855"/>
     <use style="fill:#fe0002;stroke:#000000;" x="675.792415" xlink:href="#meda8683757" y="410.771501"/>
     <use style="fill:#fe0002;stroke:#000000;" x="720.883324" xlink:href="#meda8683757" y="385.682868"/>
     <use style="fill:#fe0002;stroke:#000000;" x="765.974233" xlink:href="#meda8683757" y="352.51587"/>
     <use style="fill:#fe0002;stroke:#000000;" x="811.065142" xlink:href="#meda8683757" y="307.953753"/>
     <use style="fill:#fe0002;stroke:#000000;" x="856.156051" xlink:href="#meda8683757" y="256.257245"/>
     <use style="fill:#fe0002;stroke:#000000;" x="901.24696" xlink:href="#meda8683757" y="184.172711"/>
     <use style="fill:#fe0002;stroke:#000000;" x="946.337869" xlink:href="#meda8683757" y="61.189017"/>
    </g>
   </g>
   <g id="line2d_20">
    <path clip-path="url(#p89a2c95640)" d="M 134.701506 922.469268 
L 179.792415 919.390649 
L 224.883324 903.994877 
L 269.974233 897.353879 
L 315.065142 891.665416 
L 360.156051 873.110756 
L 405.24696 871.490373 
L 450.337869 862.202073 
L 495.428778 855.020055 
L 540.519688 836.983402 
L 585.610597 816.820667 
L 630.701506 805.667964 
L 675.792415 784.130472 
L 720.883324 766.814644 
L 765.974233 743.357631 
L 811.065142 710.264481 
L 856.156051 672.152855 
L 901.24696 620.853951 
L 946.337869 531.614129 
" style="fill:none;stroke:#53fca1;stroke-dasharray:5.55,2.4;stroke-dashoffset:0;stroke-width:1.5;"/>
    <defs>
     <path d="M 0 6.363961 
L 6.363961 0 
L 0 -6.363961 
L -6.363961 0 
z
" id="m4e245900fd" style="stroke:#000000;stroke-linejoin:miter;"/>
    </defs>
    <g clip-path="url(#p89a2c95640)">
     <use style="fill:#53fca1;stroke:#000000;stroke-linejoin:miter;" x="134.701506" xlink:href="#m4e245900fd" y="922.469268"/>
     <use style="fill:#53fca1;stroke:#000000;stroke-linejoin:miter;" x="179.792415" xlink:href="#m4e245900fd" y="919.390649"/>
     <use style="fill:#53fca1;stroke:#000000;stroke-linejoin:miter;" x="224.883324" xlink:href="#m4e245900fd" y="903.994877"/>
     <use style="fill:#53fca1;stroke:#000000;stroke-linejoin:miter;" x="269.974233" xlink:href="#m4e245900fd" y="897.353879"/>
     <use style="fill:#53fca1;stroke:#000000;stroke-linejoin:miter;" x="315.065142" xlink:href="#m4e245900fd" y="891.665416"/>
     <use style="fill:#53fca1;stroke:#000000;stroke-linejoin:miter;" x="360.156051" xlink:href="#m4e245900fd" y="873.110756"/>
     <use style="fill:#53fca1;stroke:#000000;stroke-linejoin:miter;" x="405.24696" xlink:href="#m4e245900fd" y="871.490373"/>
     <use style="fill:#53fca1;stroke:#000000;stroke-linejoin:miter;" x="450.337869" xlink:href="#m4e245900fd" y="862.202073"/>
     <use style="fill:#53fca1;stroke:#000000;stroke-linejoin:miter;" x="495.428778" xlink:href="#m4e245900fd" y="855.020055"/>
     <use style="fill:#53fca1;stroke:#000000;stroke-linejoin:miter;" x="540.519688" xlink:href="#m4e245900fd" y="836.983402"/>
     <use style="fill:#53fca1;stroke:#000000;stroke-linejoin:miter;" x="585.610597" xlink:href="#m4e245900fd" y="816.820667"/>
     <use style="fill:#53fca1;stroke:#000000;stroke-linejoin:miter;" x="630.701506" xlink:href="#m4e245900fd" y="805.667964"/>
     <use style="fill:#53fca1;stroke:#000000;stroke-linejoin:miter;" x="675.792415" xlink:href="#m4e245900fd" y="784.130472"/>
     <use style="fill:#53fca1;stroke:#000000;stroke-linejoin:miter;" x="720.883324" xlink:href="#m4e245900fd" y="766.814644"/>
     <use style="fill:#53fca1;stroke:#000000;stroke-linejoin:miter;" x="765.974233" xlink:href="#m4e245900fd" y="743.357631"/>
     <use style="fill:#53fca1;stroke:#000000;stroke-linejoin:miter;" x="811.065142" xlink:href="#m4e245900fd" y="710.264481"/>
     <use style="fill:#53fca1;stroke:#000000;stroke-linejoin:miter;" x="856.156051" xlink:href="#m4e245900fd" y="672.152855"/>
     <use style="fill:#53fca1;stroke:#000000;stroke-linejoin:miter;" x="901.24696" xlink:href="#m4e245900fd" y="620.853951"/>
     <use style="fill:#53fca1;stroke:#000000;stroke-linejoin:miter;" x="946.337869" xlink:href="#m4e245900fd" y="531.614129"/>
    </g>
   </g>
   <g id="line2d_21">
    <path clip-path="url(#p89a2c95640)" d="M 134.701506 909.24453 
L 179.792415 905.251369 
L 224.883324 887.064879 
L 269.974233 876.847053 
L 315.065142 871.130229 
L 360.156051 850.584339 
L 405.24696 847.087781 
L 450.337869 833.824513 
L 495.428778 826.943775 
L 540.519688 803.81801 
L 585.610597 778.668907 
L 630.701506 763.277951 
L 675.792415 736.147786 
L 720.883324 711.874696 
L 765.974233 680.265469 
L 811.065142 634.331272 
L 856.156051 579.951608 
L 901.24696 505.868353 
L 946.337869 372.399266 
" style="fill:none;stroke:#0652ff;stroke-dasharray:5.55,2.4;stroke-dashoffset:0;stroke-width:1.5;"/>
    <defs>
     <path d="M -2.25 4.5 
L 0 2.25 
L 2.25 4.5 
L 4.5 2.25 
L 2.25 0 
L 4.5 -2.25 
L 2.25 -4.5 
L 0 -2.25 
L -2.25 -4.5 
L -4.5 -2.25 
L -2.25 0 
L -4.5 2.25 
z
" id="me9060084a7" style="stroke:#000000;stroke-linejoin:miter;"/>
    </defs>
    <g clip-path="url(#p89a2c95640)">
     <use style="fill:#0652ff;stroke:#000000;stroke-linejoin:miter;" x="134.701506" xlink:href="#me9060084a7" y="909.24453"/>
     <use style="fill:#0652ff;stroke:#000000;stroke-linejoin:miter;" x="179.792415" xlink:href="#me9060084a7" y="905.251369"/>
     <use style="fill:#0652ff;stroke:#000000;stroke-linejoin:miter;" x="224.883324" xlink:href="#me9060084a7" y="887.064879"/>
     <use style="fill:#0652ff;stroke:#000000;stroke-linejoin:miter;" x="269.974233" xlink:href="#me9060084a7" y="876.847053"/>
     <use style="fill:#0652ff;stroke:#000000;stroke-linejoin:miter;" x="315.065142" xlink:href="#me9060084a7" y="871.130229"/>
     <use style="fill:#0652ff;stroke:#000000;stroke-linejoin:miter;" x="360.156051" xlink:href="#me9060084a7" y="850.584339"/>
     <use style="fill:#0652ff;stroke:#000000;stroke-linejoin:miter;" x="405.24696" xlink:href="#me9060084a7" y="847.087781"/>
     <use style="fill:#0652ff;stroke:#000000;stroke-linejoin:miter;" x="450.337869" xlink:href="#me9060084a7" y="833.824513"/>
     <use style="fill:#0652ff;stroke:#000000;stroke-linejoin:miter;" x="495.428778" xlink:href="#me9060084a7" y="826.943775"/>
     <use style="fill:#0652ff;stroke:#000000;stroke-linejoin:miter;" x="540.519688" xlink:href="#me9060084a7" y="803.81801"/>
     <use style="fill:#0652ff;stroke:#000000;stroke-linejoin:miter;" x="585.610597" xlink:href="#me9060084a7" y="778.668907"/>
     <use style="fill:#0652ff;stroke:#000000;stroke-linejoin:miter;" x="630.701506" xlink:href="#me9060084a7" y="763.277951"/>
     <use style="fill:#0652ff;stroke:#000000;stroke-linejoin:miter;" x="675.792415" xlink:href="#me9060084a7" y="736.147786"/>
     <use style="fill:#0652ff;stroke:#000000;stroke-linejoin:miter;" x="720.883324" xlink:href="#me9060084a7" y="711.874696"/>
     <use style="fill:#0652ff;stroke:#000000;stroke-linejoin:miter;" x="765.974233" xlink:href="#me9060084a7" y="680.265469"/>
     <use style="fill:#0652ff;stroke:#000000;stroke-linejoin:miter;" x="811.065142" xlink:href="#me9060084a7" y="634.331272"/>
     <use style="fill:#0652ff;stroke:#000000;stroke-linejoin:miter;" x="856.156051" xlink:href="#me9060084a7" y="579.951608"/>
     <use style="fill:#0652ff;stroke:#000000;stroke-linejoin:miter;" x="901.24696" xlink:href="#me9060084a7" y="505.868353"/>
     <use style="fill:#0652ff;stroke:#000000;stroke-linejoin:miter;" x="946.337869" xlink:href="#me9060084a7" y="372.399266"/>
    </g>
   </g>
   <g id="line2d_22">
    <path clip-path="url(#p89a2c95640)" d="M 134.701506 868.818723 
L 179.792415 865.198549 
L 224.883324 849.87288 
L 269.974233 840.794351 
L 315.065142 835.917418 
L 360.156051 818.641724 
L 405.24696 814.188616 
L 450.337869 803.353782 
L 495.428778 797.421834 
L 540.519688 777.827678 
L 585.610597 755.014965 
L 630.701506 740.896288 
L 675.792415 716.550151 
L 720.883324 694.149223 
L 765.974233 664.260181 
L 811.065142 622.836083 
L 856.156051 570.897428 
L 901.24696 498.105448 
L 946.337869 363.362477 
" style="fill:none;stroke:#ae7181;stroke-dasharray:5.55,2.4;stroke-dashoffset:0;stroke-width:1.5;"/>
    <defs>
     <path d="M 0 -4.5 
L -1.010313 -1.390576 
L -4.279754 -1.390576 
L -1.634721 0.531153 
L -2.645034 3.640576 
L -0 1.718847 
L 2.645034 3.640576 
L 1.634721 0.531153 
L 4.279754 -1.390576 
L 1.010313 -1.390576 
z
" id="m9e05732aab" style="stroke:#000000;stroke-linejoin:bevel;"/>
    </defs>
    <g clip-path="url(#p89a2c95640)">
     <use style="fill:#ae7181;stroke:#000000;stroke-linejoin:bevel;" x="134.701506" xlink:href="#m9e05732aab" y="868.818723"/>
     <use style="fill:#ae7181;stroke:#000000;stroke-linejoin:bevel;" x="179.792415" xlink:href="#m9e05732aab" y="865.198549"/>
     <use style="fill:#ae7181;stroke:#000000;stroke-linejoin:bevel;" x="224.883324" xlink:href="#m9e05732aab" y="849.87288"/>
     <use style="fill:#ae7181;stroke:#000000;stroke-linejoin:bevel;" x="269.974233" xlink:href="#m9e05732aab" y="840.794351"/>
     <use style="fill:#ae7181;stroke:#000000;stroke-linejoin:bevel;" x="315.065142" xlink:href="#m9e05732aab" y="835.917418"/>
     <use style="fill:#ae7181;stroke:#000000;stroke-linejoin:bevel;" x="360.156051" xlink:href="#m9e05732aab" y="818.641724"/>
     <use style="fill:#ae7181;stroke:#000000;stroke-linejoin:bevel;" x="405.24696" xlink:href="#m9e05732aab" y="814.188616"/>
     <use style="fill:#ae7181;stroke:#000000;stroke-linejoin:bevel;" x="450.337869" xlink:href="#m9e05732aab" y="803.353782"/>
     <use style="fill:#ae7181;stroke:#000000;stroke-linejoin:bevel;" x="495.428778" xlink:href="#m9e05732aab" y="797.421834"/>
     <use style="fill:#ae7181;stroke:#000000;stroke-linejoin:bevel;" x="540.519688" xlink:href="#m9e05732aab" y="777.827678"/>
     <use style="fill:#ae7181;stroke:#000000;stroke-linejoin:bevel;" x="585.610597" xlink:href="#m9e05732aab" y="755.014965"/>
     <use style="fill:#ae7181;stroke:#000000;stroke-linejoin:bevel;" x="630.701506" xlink:href="#m9e05732aab" y="740.896288"/>
     <use style="fill:#ae7181;stroke:#000000;stroke-linejoin:bevel;" x="675.792415" xlink:href="#m9e05732aab" y="716.550151"/>
     <use style="fill:#ae7181;stroke:#000000;stroke-linejoin:bevel;" x="720.883324" xlink:href="#m9e05732aab" y="694.149223"/>
     <use style="fill:#ae7181;stroke:#000000;stroke-linejoin:bevel;" x="765.974233" xlink:href="#m9e05732aab" y="664.260181"/>
     <use style="fill:#ae7181;stroke:#000000;stroke-linejoin:bevel;" x="811.065142" xlink:href="#m9e05732aab" y="622.836083"/>
     <use style="fill:#ae7181;stroke:#000000;stroke-linejoin:bevel;" x="856.156051" xlink:href="#m9e05732aab" y="570.897428"/>
     <use style="fill:#ae7181;stroke:#000000;stroke-linejoin:bevel;" x="901.24696" xlink:href="#m9e05732aab" y="498.105448"/>
     <use style="fill:#ae7181;stroke:#000000;stroke-linejoin:bevel;" x="946.337869" xlink:href="#m9e05732aab" y="363.362477"/>
    </g>
   </g>
   <g id="line2d_23">
    <path clip-path="url(#p89a2c95640)" d="M 134.701506 742.877884 
L 179.792415 736.417493 
L 224.883324 716.972906 
L 269.974233 703.722215 
L 315.065142 696.244803 
L 360.156051 671.397515 
L 405.24696 666.219303 
L 450.337869 649.647041 
L 495.428778 642.2796 
L 540.519688 613.673539 
L 585.610597 583.1212 
L 630.701506 563.118202 
L 675.792415 528.893246 
L 720.883324 499.859346 
L 765.974233 459.386714 
L 811.065142 401.108875 
L 856.156051 333.748494 
L 901.24696 239.021419 
L 946.337869 69.174002 
" style="fill:none;stroke:#ff9408;stroke-dasharray:5.55,2.4;stroke-dashoffset:0;stroke-width:1.5;"/>
    <defs>
     <path d="M -4.5 4.5 
L 4.5 4.5 
L 4.5 -4.5 
L -4.5 -4.5 
z
" id="m94bcd36ab7" style="stroke:#000000;stroke-linejoin:miter;"/>
    </defs>
    <g clip-path="url(#p89a2c95640)">
     <use style="fill:#ff9408;stroke:#000000;stroke-linejoin:miter;" x="134.701506" xlink:href="#m94bcd36ab7" y="742.877884"/>
     <use style="fill:#ff9408;stroke:#000000;stroke-linejoin:miter;" x="179.792415" xlink:href="#m94bcd36ab7" y="736.417493"/>
     <use style="fill:#ff9408;stroke:#000000;stroke-linejoin:miter;" x="224.883324" xlink:href="#m94bcd36ab7" y="716.972906"/>
     <use style="fill:#ff9408;stroke:#000000;stroke-linejoin:miter;" x="269.974233" xlink:href="#m94bcd36ab7" y="703.722215"/>
     <use style="fill:#ff9408;stroke:#000000;stroke-linejoin:miter;" x="315.065142" xlink:href="#m94bcd36ab7" y="696.244803"/>
     <use style="fill:#ff9408;stroke:#000000;stroke-linejoin:miter;" x="360.156051" xlink:href="#m94bcd36ab7" y="671.397515"/>
     <use style="fill:#ff9408;stroke:#000000;stroke-linejoin:miter;" x="405.24696" xlink:href="#m94bcd36ab7" y="666.219303"/>
     <use style="fill:#ff9408;stroke:#000000;stroke-linejoin:miter;" x="450.337869" xlink:href="#m94bcd36ab7" y="649.647041"/>
     <use style="fill:#ff9408;stroke:#000000;stroke-linejoin:miter;" x="495.428778" xlink:href="#m94bcd36ab7" y="642.2796"/>
     <use style="fill:#ff9408;stroke:#000000;stroke-linejoin:miter;" x="540.519688" xlink:href="#m94bcd36ab7" y="613.673539"/>
     <use style="fill:#ff9408;stroke:#000000;stroke-linejoin:miter;" x="585.610597" xlink:href="#m94bcd36ab7" y="583.1212"/>
     <use style="fill:#ff9408;stroke:#000000;stroke-linejoin:miter;" x="630.701506" xlink:href="#m94bcd36ab7" y="563.118202"/>
     <use style="fill:#ff9408;stroke:#000000;stroke-linejoin:miter;" x="675.792415" xlink:href="#m94bcd36ab7" y="528.893246"/>
     <use style="fill:#ff9408;stroke:#000000;stroke-linejoin:miter;" x="720.883324" xlink:href="#m94bcd36ab7" y="499.859346"/>
     <use style="fill:#ff9408;stroke:#000000;stroke-linejoin:miter;" x="765.974233" xlink:href="#m94bcd36ab7" y="459.386714"/>
     <use style="fill:#ff9408;stroke:#000000;stroke-linejoin:miter;" x="811.065142" xlink:href="#m94bcd36ab7" y="401.108875"/>
     <use style="fill:#ff9408;stroke:#000000;stroke-linejoin:miter;" x="856.156051" xlink:href="#m94bcd36ab7" y="333.748494"/>
     <use style="fill:#ff9408;stroke:#000000;stroke-linejoin:miter;" x="901.24696" xlink:href="#m94bcd36ab7" y="239.021419"/>
     <use style="fill:#ff9408;stroke:#000000;stroke-linejoin:miter;" x="946.337869" xlink:href="#m94bcd36ab7" y="69.174002"/>
    </g>
   </g>
   <g id="line2d_24">
    <path clip-path="url(#p89a2c95640)" d="M 134.701506 773.56695 
L 179.792415 768.778314 
L 224.883324 749.995419 
L 269.974233 739.492902 
L 315.065142 733.387304 
L 360.156051 712.067076 
L 405.24696 707.330883 
L 450.337869 693.643523 
L 495.428778 686.87329 
L 540.519688 662.977468 
L 585.610597 637.20333 
L 630.701506 621.089142 
L 675.792415 592.996006 
L 720.883324 568.695891 
L 765.974233 535.913386 
L 811.065142 489.509609 
L 856.156051 435.127805 
L 901.24696 360.484533 
L 946.337869 225.173251 
" style="fill:none;stroke:#ff81c0;stroke-dasharray:5.55,2.4;stroke-dashoffset:0;stroke-width:1.5;"/>
    <defs>
     <path d="M 4.5 0 
L -4.5 -4.5 
L -4.5 4.5 
z
" id="m8d42db038f" style="stroke:#000000;stroke-linejoin:miter;"/>
    </defs>
    <g clip-path="url(#p89a2c95640)">
     <use style="fill:#ff81c0;stroke:#000000;stroke-linejoin:miter;" x="134.701506" xlink:href="#m8d42db038f" y="773.56695"/>
     <use style="fill:#ff81c0;stroke:#000000;stroke-linejoin:miter;" x="179.792415" xlink:href="#m8d42db038f" y="768.778314"/>
     <use style="fill:#ff81c0;stroke:#000000;stroke-linejoin:miter;" x="224.883324" xlink:href="#m8d42db038f" y="749.995419"/>
     <use style="fill:#ff81c0;stroke:#000000;stroke-linejoin:miter;" x="269.974233" xlink:href="#m8d42db038f" y="739.492902"/>
     <use style="fill:#ff81c0;stroke:#000000;stroke-linejoin:miter;" x="315.065142" xlink:href="#m8d42db038f" y="733.387304"/>
     <use style="fill:#ff81c0;stroke:#000000;stroke-linejoin:miter;" x="360.156051" xlink:href="#m8d42db038f" y="712.067076"/>
     <use style="fill:#ff81c0;stroke:#000000;stroke-linejoin:miter;" x="405.24696" xlink:href="#m8d42db038f" y="707.330883"/>
     <use style="fill:#ff81c0;stroke:#000000;stroke-linejoin:miter;" x="450.337869" xlink:href="#m8d42db038f" y="693.643523"/>
     <use style="fill:#ff81c0;stroke:#000000;stroke-linejoin:miter;" x="495.428778" xlink:href="#m8d42db038f" y="686.87329"/>
     <use style="fill:#ff81c0;stroke:#000000;stroke-linejoin:miter;" x="540.519688" xlink:href="#m8d42db038f" y="662.977468"/>
     <use style="fill:#ff81c0;stroke:#000000;stroke-linejoin:miter;" x="585.610597" xlink:href="#m8d42db038f" y="637.20333"/>
     <use style="fill:#ff81c0;stroke:#000000;stroke-linejoin:miter;" x="630.701506" xlink:href="#m8d42db038f" y="621.089142"/>
     <use style="fill:#ff81c0;stroke:#000000;stroke-linejoin:miter;" x="675.792415" xlink:href="#m8d42db038f" y="592.996006"/>
     <use style="fill:#ff81c0;stroke:#000000;stroke-linejoin:miter;" x="720.883324" xlink:href="#m8d42db038f" y="568.695891"/>
     <use style="fill:#ff81c0;stroke:#000000;stroke-linejoin:miter;" x="765.974233" xlink:href="#m8d42db038f" y="535.913386"/>
     <use style="fill:#ff81c0;stroke:#000000;stroke-linejoin:miter;" x="811.065142" xlink:href="#m8d42db038f" y="489.509609"/>
     <use style="fill:#ff81c0;stroke:#000000;stroke-linejoin:miter;" x="856.156051" xlink:href="#m8d42db038f" y="435.127805"/>
     <use style="fill:#ff81c0;stroke:#000000;stroke-linejoin:miter;" x="901.24696" xlink:href="#m8d42db038f" y="360.484533"/>
     <use style="fill:#ff81c0;stroke:#000000;stroke-linejoin:miter;" x="946.337869" xlink:href="#m8d42db038f" y="225.173251"/>
    </g>
   </g>
   <g id="patch_3">
    <path d="M 94.119688 1005.12 
L 94.119688 7.2 
" style="fill:none;stroke:#000000;stroke-linecap:square;stroke-linejoin:miter;stroke-width:0.8;"/>
   </g>
   <g id="patch_4">
    <path d="M 986.919688 1005.12 
L 986.919688 7.2 
" style="fill:none;stroke:#000000;stroke-linecap:square;stroke-linejoin:miter;stroke-width:0.8;"/>
   </g>
   <g id="patch_5">
    <path d="M 94.119688 1005.12 
L 986.919688 1005.12 
" style="fill:none;stroke:#000000;stroke-linecap:square;stroke-linejoin:miter;stroke-width:0.8;"/>
   </g>
   <g id="patch_6">
    <path d="M 94.119688 7.2 
L 986.919688 7.2 
" style="fill:none;stroke:#000000;stroke-linecap:square;stroke-linejoin:miter;stroke-width:0.8;"/>
   </g>
  </g>
 </g>
 <defs>
  <clipPath id="p89a2c95640">
   <rect height="997.92" width="892.8" x="94.119688" y="7.2"/>
  </clipPath>
 </defs>
</svg>
