<?xml version="1.0" encoding="utf-8" standalone="no"?>
<!DOCTYPE svg PUBLIC "-//W3C//DTD SVG 1.1//EN"
  "http://www.w3.org/Graphics/SVG/1.1/DTD/svg11.dtd">
<!-- Created with matplotlib (https://matplotlib.org/) -->
<svg height="1067.839375pt" version="1.1" viewBox="0 0 968.813125 1067.839375" width="968.813125pt" xmlns="http://www.w3.org/2000/svg" xmlns:xlink="http://www.w3.org/1999/xlink">
 <defs>
  <style type="text/css">
*{stroke-linecap:butt;stroke-linejoin:round;}
  </style>
 </defs>
 <g id="figure_1">
  <g id="patch_1">
   <path d="M 0 1067.839375 
L 968.813125 1067.839375 
L 968.813125 0 
L 0 0 
z
" style="fill:#ffffff;"/>
  </g>
  <g id="axes_1">
   <g id="patch_2">
    <path d="M 68.813125 1005.12 
L 961.613125 1005.12 
L 961.613125 7.2 
L 68.813125 7.2 
z
" style="fill:#ffffff;"/>
   </g>
   <g id="PolyCollection_1">
    <defs>
     <path d="M 109.394943 -168.498282 
L 109.394943 -140.806283 
L 109.494032 -194.931554 
L 109.69221 -254.721098 
L 110.088565 -319.860233 
L 110.881275 -369.422618 
L 112.466696 -429.212162 
L 115.637538 -483.61278 
L 121.979221 -532.880151 
L 134.662587 -584.723979 
L 160.02932 -636.489136 
L 210.762786 -686.78414 
L 312.229717 -737.052101 
L 515.163581 -787.55177 
L 921.031307 -837.542233 
L 921.031307 -838.128881 
L 921.031307 -838.128881 
L 515.163581 -788.336631 
L 312.229717 -738.11784 
L 210.762786 -688.809904 
L 160.02932 -637.915038 
L 134.662587 -588.588665 
L 121.979221 -535.633616 
L 115.637538 -486.602257 
L 112.466696 -434.719094 
L 110.881275 -382.796595 
L 110.088565 -330.559415 
L 109.69221 -273.602007 
L 109.494032 -203.742645 
L 109.394943 -168.498282 
z
" id="m829da9b52d" style="stroke:#fe4d4e;stroke-opacity:0.3;"/>
    </defs>
    <g clip-path="url(#p3d8ae046f8)">
     <use style="fill:#fe4d4e;fill-opacity:0.3;stroke:#fe4d4e;stroke-opacity:0.3;" x="0" xlink:href="#m829da9b52d" y="1067.839375"/>
    </g>
   </g>
   <g id="PolyCollection_2">
    <g clip-path="url(#p3d8ae046f8)">
     <use style="fill:#fe4d4e;fill-opacity:0.3;stroke:#fe4d4e;stroke-opacity:0.3;" x="0" xlink:href="#m829da9b52d" y="1067.839375"/>
    </g>
   </g>
   <g id="PolyCollection_3">
    <defs>
     <path d="M 109.394943 -165.980828 
L 109.394943 -148.358647 
L 109.494032 -191.155373 
L 109.69221 -259.756007 
L 110.088565 -321.433642 
L 110.881275 -390.191617 
L 112.466696 -461.073695 
L 115.637538 -524.796762 
L 121.979221 -593.948089 
L 134.662587 -663.394431 
L 160.02932 -734.522354 
L 210.762786 -804.344839 
L 312.229717 -874.414398 
L 515.163581 -944.615485 
L 921.031307 -1014.986819 
L 921.031307 -1015.279375 
L 921.031307 -1015.279375 
L 515.163581 -945.516507 
L 312.229717 -876.290197 
L 210.762786 -806.604156 
L 160.02932 -736.936554 
L 134.662587 -665.675874 
L 121.979221 -599.415686 
L 115.637538 -535.181261 
L 112.466696 -463.276468 
L 110.881275 -403.722935 
L 110.088565 -339.999869 
L 109.69221 -271.713916 
L 109.494032 -211.295009 
L 109.394943 -165.980828 
z
" id="m459b331398" style="stroke:#58ab8e;stroke-opacity:0.3;"/>
    </defs>
    <g clip-path="url(#p3d8ae046f8)">
     <use style="fill:#58ab8e;fill-opacity:0.3;stroke:#58ab8e;stroke-opacity:0.3;" x="0" xlink:href="#m459b331398" y="1067.839375"/>
    </g>
   </g>
   <g id="PolyCollection_4">
    <defs>
     <path d="M 109.394943 -133.25392 
L 109.394943 -108.079375 
L 109.494032 -142.06501 
L 109.69221 -186.120464 
L 110.088565 -223.882281 
L 110.881275 -261.644098 
L 112.466696 -300.035279 
L 115.637538 -334.728948 
L 121.979221 -369.501288 
L 134.662587 -405.542189 
L 160.02932 -440.845555 
L 210.762786 -476.279219 
L 312.229717 -511.586272 
L 515.163581 -547.02854 
L 921.031307 -582.062705 
L 921.031307 -582.248625 
L 921.031307 -582.248625 
L 515.163581 -547.407756 
L 312.229717 -512.513108 
L 210.762786 -477.395356 
L 160.02932 -442.581222 
L 134.662587 -406.004378 
L 121.979221 -372.45143 
L 115.637538 -339.40984 
L 112.466696 -302.080711 
L 110.881275 -268.095075 
L 110.088565 -235.525508 
L 109.69221 -194.302191 
L 109.494032 -158.428465 
L 109.394943 -133.25392 
z
" id="mc7d9a595ba" style="stroke:#58ab8e;stroke-opacity:0.3;"/>
    </defs>
    <g clip-path="url(#p3d8ae046f8)">
     <use style="fill:#58ab8e;fill-opacity:0.3;stroke:#58ab8e;stroke-opacity:0.3;" x="0" xlink:href="#mc7d9a595ba" y="1067.839375"/>
    </g>
   </g>
   <g id="matplotlib.axis_1">
    <g id="xtick_1">
     <g id="line2d_1">
      <path clip-path="url(#p3d8ae046f8)" d="M 109.295854 1005.12 
L 109.295854 7.2 
" style="fill:none;stroke:#b0b0b0;stroke-linecap:square;stroke-width:0.8;"/>
     </g>
     <g id="line2d_2">
      <defs>
       <path d="M 0 0 
L 0 3.5 
" id="m4216a9f8ac" style="stroke:#000000;stroke-width:0.8;"/>
      </defs>
      <g>
       <use style="stroke:#000000;stroke-width:0.8;" x="109.295854" xlink:href="#m4216a9f8ac" y="1005.12"/>
      </g>
     </g>
     <g id="text_1">
      <!-- 0 -->
      <defs>
       <path d="M 31.78125 66.40625 
Q 24.171875 66.40625 20.328125 58.90625 
Q 16.5 51.421875 16.5 36.375 
Q 16.5 21.390625 20.328125 13.890625 
Q 24.171875 6.390625 31.78125 6.390625 
Q 39.453125 6.390625 43.28125 13.890625 
Q 47.125 21.390625 47.125 36.375 
Q 47.125 51.421875 43.28125 58.90625 
Q 39.453125 66.40625 31.78125 66.40625 
z
M 31.78125 74.21875 
Q 44.046875 74.21875 50.515625 64.515625 
Q 56.984375 54.828125 56.984375 36.375 
Q 56.984375 17.96875 50.515625 8.265625 
Q 44.046875 -1.421875 31.78125 -1.421875 
Q 19.53125 -1.421875 13.0625 8.265625 
Q 6.59375 17.96875 6.59375 36.375 
Q 6.59375 54.828125 13.0625 64.515625 
Q 19.53125 74.21875 31.78125 74.21875 
z
" id="DejaVuSans-48"/>
      </defs>
      <g transform="translate(102.933354 1027.316875)scale(0.2 -0.2)">
       <use xlink:href="#DejaVuSans-48"/>
      </g>
     </g>
    </g>
    <g id="xtick_2">
     <g id="line2d_3">
      <path clip-path="url(#p3d8ae046f8)" d="M 233.156855 1005.12 
L 233.156855 7.2 
" style="fill:none;stroke:#b0b0b0;stroke-linecap:square;stroke-width:0.8;"/>
     </g>
     <g id="line2d_4">
      <g>
       <use style="stroke:#000000;stroke-width:0.8;" x="233.156855" xlink:href="#m4216a9f8ac" y="1005.12"/>
      </g>
     </g>
     <g id="text_2">
      <!-- 20000 -->
      <defs>
       <path d="M 19.1875 8.296875 
L 53.609375 8.296875 
L 53.609375 0 
L 7.328125 0 
L 7.328125 8.296875 
Q 12.9375 14.109375 22.625 23.890625 
Q 32.328125 33.6875 34.8125 36.53125 
Q 39.546875 41.84375 41.421875 45.53125 
Q 43.3125 49.21875 43.3125 52.78125 
Q 43.3125 58.59375 39.234375 62.25 
Q 35.15625 65.921875 28.609375 65.921875 
Q 23.96875 65.921875 18.8125 64.3125 
Q 13.671875 62.703125 7.8125 59.421875 
L 7.8125 69.390625 
Q 13.765625 71.78125 18.9375 73 
Q 24.125 74.21875 28.421875 74.21875 
Q 39.75 74.21875 46.484375 68.546875 
Q 53.21875 62.890625 53.21875 53.421875 
Q 53.21875 48.921875 51.53125 44.890625 
Q 49.859375 40.875 45.40625 35.40625 
Q 44.1875 33.984375 37.640625 27.21875 
Q 31.109375 20.453125 19.1875 8.296875 
z
" id="DejaVuSans-50"/>
      </defs>
      <g transform="translate(201.344355 1027.316875)scale(0.2 -0.2)">
       <use xlink:href="#DejaVuSans-50"/>
       <use x="63.623047" xlink:href="#DejaVuSans-48"/>
       <use x="127.246094" xlink:href="#DejaVuSans-48"/>
       <use x="190.869141" xlink:href="#DejaVuSans-48"/>
       <use x="254.492188" xlink:href="#DejaVuSans-48"/>
      </g>
     </g>
    </g>
    <g id="xtick_3">
     <g id="line2d_5">
      <path clip-path="url(#p3d8ae046f8)" d="M 357.017855 1005.12 
L 357.017855 7.2 
" style="fill:none;stroke:#b0b0b0;stroke-linecap:square;stroke-width:0.8;"/>
     </g>
     <g id="line2d_6">
      <g>
       <use style="stroke:#000000;stroke-width:0.8;" x="357.017855" xlink:href="#m4216a9f8ac" y="1005.12"/>
      </g>
     </g>
     <g id="text_3">
      <!-- 40000 -->
      <defs>
       <path d="M 37.796875 64.3125 
L 12.890625 25.390625 
L 37.796875 25.390625 
z
M 35.203125 72.90625 
L 47.609375 72.90625 
L 47.609375 25.390625 
L 58.015625 25.390625 
L 58.015625 17.1875 
L 47.609375 17.1875 
L 47.609375 0 
L 37.796875 0 
L 37.796875 17.1875 
L 4.890625 17.1875 
L 4.890625 26.703125 
z
" id="DejaVuSans-52"/>
      </defs>
      <g transform="translate(325.205355 1027.316875)scale(0.2 -0.2)">
       <use xlink:href="#DejaVuSans-52"/>
       <use x="63.623047" xlink:href="#DejaVuSans-48"/>
       <use x="127.246094" xlink:href="#DejaVuSans-48"/>
       <use x="190.869141" xlink:href="#DejaVuSans-48"/>
       <use x="254.492188" xlink:href="#DejaVuSans-48"/>
      </g>
     </g>
    </g>
    <g id="xtick_4">
     <g id="line2d_7">
      <path clip-path="url(#p3d8ae046f8)" d="M 480.878856 1005.12 
L 480.878856 7.2 
" style="fill:none;stroke:#b0b0b0;stroke-linecap:square;stroke-width:0.8;"/>
     </g>
     <g id="line2d_8">
      <g>
       <use style="stroke:#000000;stroke-width:0.8;" x="480.878856" xlink:href="#m4216a9f8ac" y="1005.12"/>
      </g>
     </g>
     <g id="text_4">
      <!-- 60000 -->
      <defs>
       <path d="M 33.015625 40.375 
Q 26.375 40.375 22.484375 35.828125 
Q 18.609375 31.296875 18.609375 23.390625 
Q 18.609375 15.53125 22.484375 10.953125 
Q 26.375 6.390625 33.015625 6.390625 
Q 39.65625 6.390625 43.53125 10.953125 
Q 47.40625 15.53125 47.40625 23.390625 
Q 47.40625 31.296875 43.53125 35.828125 
Q 39.65625 40.375 33.015625 40.375 
z
M 52.59375 71.296875 
L 52.59375 62.3125 
Q 48.875 64.0625 45.09375 64.984375 
Q 41.3125 65.921875 37.59375 65.921875 
Q 27.828125 65.921875 22.671875 59.328125 
Q 17.53125 52.734375 16.796875 39.40625 
Q 19.671875 43.65625 24.015625 45.921875 
Q 28.375 48.1875 33.59375 48.1875 
Q 44.578125 48.1875 50.953125 41.515625 
Q 57.328125 34.859375 57.328125 23.390625 
Q 57.328125 12.15625 50.6875 5.359375 
Q 44.046875 -1.421875 33.015625 -1.421875 
Q 20.359375 -1.421875 13.671875 8.265625 
Q 6.984375 17.96875 6.984375 36.375 
Q 6.984375 53.65625 15.1875 63.9375 
Q 23.390625 74.21875 37.203125 74.21875 
Q 40.921875 74.21875 44.703125 73.484375 
Q 48.484375 72.75 52.59375 71.296875 
z
" id="DejaVuSans-54"/>
      </defs>
      <g transform="translate(449.066356 1027.316875)scale(0.2 -0.2)">
       <use xlink:href="#DejaVuSans-54"/>
       <use x="63.623047" xlink:href="#DejaVuSans-48"/>
       <use x="127.246094" xlink:href="#DejaVuSans-48"/>
       <use x="190.869141" xlink:href="#DejaVuSans-48"/>
       <use x="254.492188" xlink:href="#DejaVuSans-48"/>
      </g>
     </g>
    </g>
    <g id="xtick_5">
     <g id="line2d_9">
      <path clip-path="url(#p3d8ae046f8)" d="M 604.739856 1005.12 
L 604.739856 7.2 
" style="fill:none;stroke:#b0b0b0;stroke-linecap:square;stroke-width:0.8;"/>
     </g>
     <g id="line2d_10">
      <g>
       <use style="stroke:#000000;stroke-width:0.8;" x="604.739856" xlink:href="#m4216a9f8ac" y="1005.12"/>
      </g>
     </g>
     <g id="text_5">
      <!-- 80000 -->
      <defs>
       <path d="M 31.78125 34.625 
Q 24.75 34.625 20.71875 30.859375 
Q 16.703125 27.09375 16.703125 20.515625 
Q 16.703125 13.921875 20.71875 10.15625 
Q 24.75 6.390625 31.78125 6.390625 
Q 38.8125 6.390625 42.859375 10.171875 
Q 46.921875 13.96875 46.921875 20.515625 
Q 46.921875 27.09375 42.890625 30.859375 
Q 38.875 34.625 31.78125 34.625 
z
M 21.921875 38.8125 
Q 15.578125 40.375 12.03125 44.71875 
Q 8.5 49.078125 8.5 55.328125 
Q 8.5 64.0625 14.71875 69.140625 
Q 20.953125 74.21875 31.78125 74.21875 
Q 42.671875 74.21875 48.875 69.140625 
Q 55.078125 64.0625 55.078125 55.328125 
Q 55.078125 49.078125 51.53125 44.71875 
Q 48 40.375 41.703125 38.8125 
Q 48.828125 37.15625 52.796875 32.3125 
Q 56.78125 27.484375 56.78125 20.515625 
Q 56.78125 9.90625 50.3125 4.234375 
Q 43.84375 -1.421875 31.78125 -1.421875 
Q 19.734375 -1.421875 13.25 4.234375 
Q 6.78125 9.90625 6.78125 20.515625 
Q 6.78125 27.484375 10.78125 32.3125 
Q 14.796875 37.15625 21.921875 38.8125 
z
M 18.3125 54.390625 
Q 18.3125 48.734375 21.84375 45.5625 
Q 25.390625 42.390625 31.78125 42.390625 
Q 38.140625 42.390625 41.71875 45.5625 
Q 45.3125 48.734375 45.3125 54.390625 
Q 45.3125 60.0625 41.71875 63.234375 
Q 38.140625 66.40625 31.78125 66.40625 
Q 25.390625 66.40625 21.84375 63.234375 
Q 18.3125 60.0625 18.3125 54.390625 
z
" id="DejaVuSans-56"/>
      </defs>
      <g transform="translate(572.927356 1027.316875)scale(0.2 -0.2)">
       <use xlink:href="#DejaVuSans-56"/>
       <use x="63.623047" xlink:href="#DejaVuSans-48"/>
       <use x="127.246094" xlink:href="#DejaVuSans-48"/>
       <use x="190.869141" xlink:href="#DejaVuSans-48"/>
       <use x="254.492188" xlink:href="#DejaVuSans-48"/>
      </g>
     </g>
    </g>
    <g id="xtick_6">
     <g id="line2d_11">
      <path clip-path="url(#p3d8ae046f8)" d="M 728.600857 1005.12 
L 728.600857 7.2 
" style="fill:none;stroke:#b0b0b0;stroke-linecap:square;stroke-width:0.8;"/>
     </g>
     <g id="line2d_12">
      <g>
       <use style="stroke:#000000;stroke-width:0.8;" x="728.600857" xlink:href="#m4216a9f8ac" y="1005.12"/>
      </g>
     </g>
     <g id="text_6">
      <!-- 100000 -->
      <defs>
       <path d="M 12.40625 8.296875 
L 28.515625 8.296875 
L 28.515625 63.921875 
L 10.984375 60.40625 
L 10.984375 69.390625 
L 28.421875 72.90625 
L 38.28125 72.90625 
L 38.28125 8.296875 
L 54.390625 8.296875 
L 54.390625 0 
L 12.40625 0 
z
" id="DejaVuSans-49"/>
      </defs>
      <g transform="translate(690.425857 1027.316875)scale(0.2 -0.2)">
       <use xlink:href="#DejaVuSans-49"/>
       <use x="63.623047" xlink:href="#DejaVuSans-48"/>
       <use x="127.246094" xlink:href="#DejaVuSans-48"/>
       <use x="190.869141" xlink:href="#DejaVuSans-48"/>
       <use x="254.492188" xlink:href="#DejaVuSans-48"/>
       <use x="318.115234" xlink:href="#DejaVuSans-48"/>
      </g>
     </g>
    </g>
    <g id="xtick_7">
     <g id="line2d_13">
      <path clip-path="url(#p3d8ae046f8)" d="M 852.461857 1005.12 
L 852.461857 7.2 
" style="fill:none;stroke:#b0b0b0;stroke-linecap:square;stroke-width:0.8;"/>
     </g>
     <g id="line2d_14">
      <g>
       <use style="stroke:#000000;stroke-width:0.8;" x="852.461857" xlink:href="#m4216a9f8ac" y="1005.12"/>
      </g>
     </g>
     <g id="text_7">
      <!-- 120000 -->
      <g transform="translate(814.286857 1027.316875)scale(0.2 -0.2)">
       <use xlink:href="#DejaVuSans-49"/>
       <use x="63.623047" xlink:href="#DejaVuSans-50"/>
       <use x="127.246094" xlink:href="#DejaVuSans-48"/>
       <use x="190.869141" xlink:href="#DejaVuSans-48"/>
       <use x="254.492188" xlink:href="#DejaVuSans-48"/>
       <use x="318.115234" xlink:href="#DejaVuSans-48"/>
      </g>
     </g>
    </g>
    <g id="text_8">
     <!-- Input size -->
     <defs>
      <path d="M 9.8125 72.90625 
L 19.671875 72.90625 
L 19.671875 0 
L 9.8125 0 
z
" id="DejaVuSans-73"/>
      <path d="M 54.890625 33.015625 
L 54.890625 0 
L 45.90625 0 
L 45.90625 32.71875 
Q 45.90625 40.484375 42.875 44.328125 
Q 39.84375 48.1875 33.796875 48.1875 
Q 26.515625 48.1875 22.3125 43.546875 
Q 18.109375 38.921875 18.109375 30.90625 
L 18.109375 0 
L 9.078125 0 
L 9.078125 54.6875 
L 18.109375 54.6875 
L 18.109375 46.1875 
Q 21.34375 51.125 25.703125 53.5625 
Q 30.078125 56 35.796875 56 
Q 45.21875 56 50.046875 50.171875 
Q 54.890625 44.34375 54.890625 33.015625 
z
" id="DejaVuSans-110"/>
      <path d="M 18.109375 8.203125 
L 18.109375 -20.796875 
L 9.078125 -20.796875 
L 9.078125 54.6875 
L 18.109375 54.6875 
L 18.109375 46.390625 
Q 20.953125 51.265625 25.265625 53.625 
Q 29.59375 56 35.59375 56 
Q 45.5625 56 51.78125 48.09375 
Q 58.015625 40.1875 58.015625 27.296875 
Q 58.015625 14.40625 51.78125 6.484375 
Q 45.5625 -1.421875 35.59375 -1.421875 
Q 29.59375 -1.421875 25.265625 0.953125 
Q 20.953125 3.328125 18.109375 8.203125 
z
M 48.6875 27.296875 
Q 48.6875 37.203125 44.609375 42.84375 
Q 40.53125 48.484375 33.40625 48.484375 
Q 26.265625 48.484375 22.1875 42.84375 
Q 18.109375 37.203125 18.109375 27.296875 
Q 18.109375 17.390625 22.1875 11.75 
Q 26.265625 6.109375 33.40625 6.109375 
Q 40.53125 6.109375 44.609375 11.75 
Q 48.6875 17.390625 48.6875 27.296875 
z
" id="DejaVuSans-112"/>
      <path d="M 8.5 21.578125 
L 8.5 54.6875 
L 17.484375 54.6875 
L 17.484375 21.921875 
Q 17.484375 14.15625 20.5 10.265625 
Q 23.53125 6.390625 29.59375 6.390625 
Q 36.859375 6.390625 41.078125 11.03125 
Q 45.3125 15.671875 45.3125 23.6875 
L 45.3125 54.6875 
L 54.296875 54.6875 
L 54.296875 0 
L 45.3125 0 
L 45.3125 8.40625 
Q 42.046875 3.421875 37.71875 1 
Q 33.40625 -1.421875 27.6875 -1.421875 
Q 18.265625 -1.421875 13.375 4.4375 
Q 8.5 10.296875 8.5 21.578125 
z
M 31.109375 56 
z
" id="DejaVuSans-117"/>
      <path d="M 18.3125 70.21875 
L 18.3125 54.6875 
L 36.8125 54.6875 
L 36.8125 47.703125 
L 18.3125 47.703125 
L 18.3125 18.015625 
Q 18.3125 11.328125 20.140625 9.421875 
Q 21.96875 7.515625 27.59375 7.515625 
L 36.8125 7.515625 
L 36.8125 0 
L 27.59375 0 
Q 17.1875 0 13.234375 3.875 
Q 9.28125 7.765625 9.28125 18.015625 
L 9.28125 47.703125 
L 2.6875 47.703125 
L 2.6875 54.6875 
L 9.28125 54.6875 
L 9.28125 70.21875 
z
" id="DejaVuSans-116"/>
      <path id="DejaVuSans-32"/>
      <path d="M 44.28125 53.078125 
L 44.28125 44.578125 
Q 40.484375 46.53125 36.375 47.5 
Q 32.28125 48.484375 27.875 48.484375 
Q 21.1875 48.484375 17.84375 46.4375 
Q 14.5 44.390625 14.5 40.28125 
Q 14.5 37.15625 16.890625 35.375 
Q 19.28125 33.59375 26.515625 31.984375 
L 29.59375 31.296875 
Q 39.15625 29.25 43.1875 25.515625 
Q 47.21875 21.78125 47.21875 15.09375 
Q 47.21875 7.46875 41.1875 3.015625 
Q 35.15625 -1.421875 24.609375 -1.421875 
Q 20.21875 -1.421875 15.453125 -0.5625 
Q 10.6875 0.296875 5.421875 2 
L 5.421875 11.28125 
Q 10.40625 8.6875 15.234375 7.390625 
Q 20.0625 6.109375 24.8125 6.109375 
Q 31.15625 6.109375 34.5625 8.28125 
Q 37.984375 10.453125 37.984375 14.40625 
Q 37.984375 18.0625 35.515625 20.015625 
Q 33.0625 21.96875 24.703125 23.78125 
L 21.578125 24.515625 
Q 13.234375 26.265625 9.515625 29.90625 
Q 5.8125 33.546875 5.8125 39.890625 
Q 5.8125 47.609375 11.28125 51.796875 
Q 16.75 56 26.8125 56 
Q 31.78125 56 36.171875 55.265625 
Q 40.578125 54.546875 44.28125 53.078125 
z
" id="DejaVuSans-115"/>
      <path d="M 9.421875 54.6875 
L 18.40625 54.6875 
L 18.40625 0 
L 9.421875 0 
z
M 9.421875 75.984375 
L 18.40625 75.984375 
L 18.40625 64.59375 
L 9.421875 64.59375 
z
" id="DejaVuSans-105"/>
      <path d="M 5.515625 54.6875 
L 48.1875 54.6875 
L 48.1875 46.484375 
L 14.40625 7.171875 
L 48.1875 7.171875 
L 48.1875 0 
L 4.296875 0 
L 4.296875 8.203125 
L 38.09375 47.515625 
L 5.515625 47.515625 
z
" id="DejaVuSans-122"/>
      <path d="M 56.203125 29.59375 
L 56.203125 25.203125 
L 14.890625 25.203125 
Q 15.484375 15.921875 20.484375 11.0625 
Q 25.484375 6.203125 34.421875 6.203125 
Q 39.59375 6.203125 44.453125 7.46875 
Q 49.3125 8.734375 54.109375 11.28125 
L 54.109375 2.78125 
Q 49.265625 0.734375 44.1875 -0.34375 
Q 39.109375 -1.421875 33.890625 -1.421875 
Q 20.796875 -1.421875 13.15625 6.1875 
Q 5.515625 13.8125 5.515625 26.8125 
Q 5.515625 40.234375 12.765625 48.109375 
Q 20.015625 56 32.328125 56 
Q 43.359375 56 49.78125 48.890625 
Q 56.203125 41.796875 56.203125 29.59375 
z
M 47.21875 32.234375 
Q 47.125 39.59375 43.09375 43.984375 
Q 39.0625 48.390625 32.421875 48.390625 
Q 24.90625 48.390625 20.390625 44.140625 
Q 15.875 39.890625 15.1875 32.171875 
z
" id="DejaVuSans-101"/>
     </defs>
     <g transform="translate(452.213906 1055.232188)scale(0.26 -0.26)">
      <use xlink:href="#DejaVuSans-73"/>
      <use x="29.492188" xlink:href="#DejaVuSans-110"/>
      <use x="92.871094" xlink:href="#DejaVuSans-112"/>
      <use x="156.347656" xlink:href="#DejaVuSans-117"/>
      <use x="219.726562" xlink:href="#DejaVuSans-116"/>
      <use x="258.935547" xlink:href="#DejaVuSans-32"/>
      <use x="290.722656" xlink:href="#DejaVuSans-115"/>
      <use x="342.822266" xlink:href="#DejaVuSans-105"/>
      <use x="370.605469" xlink:href="#DejaVuSans-122"/>
      <use x="423.095703" xlink:href="#DejaVuSans-101"/>
     </g>
    </g>
   </g>
   <g id="matplotlib.axis_2">
    <g id="ytick_1">
     <g id="line2d_15">
      <path clip-path="url(#p3d8ae046f8)" d="M 68.813125 831.369822 
L 961.613125 831.369822 
" style="fill:none;stroke:#b0b0b0;stroke-linecap:square;stroke-width:0.8;"/>
     </g>
     <g id="line2d_16">
      <defs>
       <path d="M 0 0 
L -3.5 0 
" id="m2b2e86ba2c" style="stroke:#000000;stroke-width:0.8;"/>
      </defs>
      <g>
       <use style="stroke:#000000;stroke-width:0.8;" x="68.813125" xlink:href="#m2b2e86ba2c" y="831.369822"/>
      </g>
     </g>
     <g id="text_9">
      <!-- 5 -->
      <defs>
       <path d="M 10.796875 72.90625 
L 49.515625 72.90625 
L 49.515625 64.59375 
L 19.828125 64.59375 
L 19.828125 46.734375 
Q 21.96875 47.46875 24.109375 47.828125 
Q 26.265625 48.1875 28.421875 48.1875 
Q 40.625 48.1875 47.75 41.5 
Q 54.890625 34.8125 54.890625 23.390625 
Q 54.890625 11.625 47.5625 5.09375 
Q 40.234375 -1.421875 26.90625 -1.421875 
Q 22.3125 -1.421875 17.546875 -0.640625 
Q 12.796875 0.140625 7.71875 1.703125 
L 7.71875 11.625 
Q 12.109375 9.234375 16.796875 8.0625 
Q 21.484375 6.890625 26.703125 6.890625 
Q 35.15625 6.890625 40.078125 11.328125 
Q 45.015625 15.765625 45.015625 23.390625 
Q 45.015625 31 40.078125 35.4375 
Q 35.15625 39.890625 26.703125 39.890625 
Q 22.75 39.890625 18.8125 39.015625 
Q 14.890625 38.140625 10.796875 36.28125 
z
" id="DejaVuSans-53"/>
      </defs>
      <g transform="translate(49.088125 838.968259)scale(0.2 -0.2)">
       <use xlink:href="#DejaVuSans-53"/>
      </g>
     </g>
    </g>
    <g id="ytick_2">
     <g id="line2d_17">
      <path clip-path="url(#p3d8ae046f8)" d="M 68.813125 629.973463 
L 961.613125 629.973463 
" style="fill:none;stroke:#b0b0b0;stroke-linecap:square;stroke-width:0.8;"/>
     </g>
     <g id="line2d_18">
      <g>
       <use style="stroke:#000000;stroke-width:0.8;" x="68.813125" xlink:href="#m2b2e86ba2c" y="629.973463"/>
      </g>
     </g>
     <g id="text_10">
      <!-- 10 -->
      <g transform="translate(36.363125 637.571901)scale(0.2 -0.2)">
       <use xlink:href="#DejaVuSans-49"/>
       <use x="63.623047" xlink:href="#DejaVuSans-48"/>
      </g>
     </g>
    </g>
    <g id="ytick_3">
     <g id="line2d_19">
      <path clip-path="url(#p3d8ae046f8)" d="M 68.813125 428.577105 
L 961.613125 428.577105 
" style="fill:none;stroke:#b0b0b0;stroke-linecap:square;stroke-width:0.8;"/>
     </g>
     <g id="line2d_20">
      <g>
       <use style="stroke:#000000;stroke-width:0.8;" x="68.813125" xlink:href="#m2b2e86ba2c" y="428.577105"/>
      </g>
     </g>
     <g id="text_11">
      <!-- 15 -->
      <g transform="translate(36.363125 436.175543)scale(0.2 -0.2)">
       <use xlink:href="#DejaVuSans-49"/>
       <use x="63.623047" xlink:href="#DejaVuSans-53"/>
      </g>
     </g>
    </g>
    <g id="ytick_4">
     <g id="line2d_21">
      <path clip-path="url(#p3d8ae046f8)" d="M 68.813125 227.180747 
L 961.613125 227.180747 
" style="fill:none;stroke:#b0b0b0;stroke-linecap:square;stroke-width:0.8;"/>
     </g>
     <g id="line2d_22">
      <g>
       <use style="stroke:#000000;stroke-width:0.8;" x="68.813125" xlink:href="#m2b2e86ba2c" y="227.180747"/>
      </g>
     </g>
     <g id="text_12">
      <!-- 20 -->
      <g transform="translate(36.363125 234.779184)scale(0.2 -0.2)">
       <use xlink:href="#DejaVuSans-50"/>
       <use x="63.623047" xlink:href="#DejaVuSans-48"/>
      </g>
     </g>
    </g>
    <g id="ytick_5">
     <g id="line2d_23">
      <path clip-path="url(#p3d8ae046f8)" d="M 68.813125 25.784389 
L 961.613125 25.784389 
" style="fill:none;stroke:#b0b0b0;stroke-linecap:square;stroke-width:0.8;"/>
     </g>
     <g id="line2d_24">
      <g>
       <use style="stroke:#000000;stroke-width:0.8;" x="68.813125" xlink:href="#m2b2e86ba2c" y="25.784389"/>
      </g>
     </g>
     <g id="text_13">
      <!-- 25 -->
      <g transform="translate(36.363125 33.382826)scale(0.2 -0.2)">
       <use xlink:href="#DejaVuSans-50"/>
       <use x="63.623047" xlink:href="#DejaVuSans-53"/>
      </g>
     </g>
    </g>
    <g id="text_14">
     <!-- Avg. number of operations / size -->
     <defs>
      <path d="M 34.1875 63.1875 
L 20.796875 26.90625 
L 47.609375 26.90625 
z
M 28.609375 72.90625 
L 39.796875 72.90625 
L 67.578125 0 
L 57.328125 0 
L 50.6875 18.703125 
L 17.828125 18.703125 
L 11.1875 0 
L 0.78125 0 
z
" id="DejaVuSans-65"/>
      <path d="M 2.984375 54.6875 
L 12.5 54.6875 
L 29.59375 8.796875 
L 46.6875 54.6875 
L 56.203125 54.6875 
L 35.6875 0 
L 23.484375 0 
z
" id="DejaVuSans-118"/>
      <path d="M 45.40625 27.984375 
Q 45.40625 37.75 41.375 43.109375 
Q 37.359375 48.484375 30.078125 48.484375 
Q 22.859375 48.484375 18.828125 43.109375 
Q 14.796875 37.75 14.796875 27.984375 
Q 14.796875 18.265625 18.828125 12.890625 
Q 22.859375 7.515625 30.078125 7.515625 
Q 37.359375 7.515625 41.375 12.890625 
Q 45.40625 18.265625 45.40625 27.984375 
z
M 54.390625 6.78125 
Q 54.390625 -7.171875 48.1875 -13.984375 
Q 42 -20.796875 29.203125 -20.796875 
Q 24.46875 -20.796875 20.265625 -20.09375 
Q 16.0625 -19.390625 12.109375 -17.921875 
L 12.109375 -9.1875 
Q 16.0625 -11.328125 19.921875 -12.34375 
Q 23.78125 -13.375 27.78125 -13.375 
Q 36.625 -13.375 41.015625 -8.765625 
Q 45.40625 -4.15625 45.40625 5.171875 
L 45.40625 9.625 
Q 42.625 4.78125 38.28125 2.390625 
Q 33.9375 0 27.875 0 
Q 17.828125 0 11.671875 7.65625 
Q 5.515625 15.328125 5.515625 27.984375 
Q 5.515625 40.671875 11.671875 48.328125 
Q 17.828125 56 27.875 56 
Q 33.9375 56 38.28125 53.609375 
Q 42.625 51.21875 45.40625 46.390625 
L 45.40625 54.6875 
L 54.390625 54.6875 
z
" id="DejaVuSans-103"/>
      <path d="M 10.6875 12.40625 
L 21 12.40625 
L 21 0 
L 10.6875 0 
z
" id="DejaVuSans-46"/>
      <path d="M 52 44.1875 
Q 55.375 50.25 60.0625 53.125 
Q 64.75 56 71.09375 56 
Q 79.640625 56 84.28125 50.015625 
Q 88.921875 44.046875 88.921875 33.015625 
L 88.921875 0 
L 79.890625 0 
L 79.890625 32.71875 
Q 79.890625 40.578125 77.09375 44.375 
Q 74.3125 48.1875 68.609375 48.1875 
Q 61.625 48.1875 57.5625 43.546875 
Q 53.515625 38.921875 53.515625 30.90625 
L 53.515625 0 
L 44.484375 0 
L 44.484375 32.71875 
Q 44.484375 40.625 41.703125 44.40625 
Q 38.921875 48.1875 33.109375 48.1875 
Q 26.21875 48.1875 22.15625 43.53125 
Q 18.109375 38.875 18.109375 30.90625 
L 18.109375 0 
L 9.078125 0 
L 9.078125 54.6875 
L 18.109375 54.6875 
L 18.109375 46.1875 
Q 21.1875 51.21875 25.484375 53.609375 
Q 29.78125 56 35.6875 56 
Q 41.65625 56 45.828125 52.96875 
Q 50 49.953125 52 44.1875 
z
" id="DejaVuSans-109"/>
      <path d="M 48.6875 27.296875 
Q 48.6875 37.203125 44.609375 42.84375 
Q 40.53125 48.484375 33.40625 48.484375 
Q 26.265625 48.484375 22.1875 42.84375 
Q 18.109375 37.203125 18.109375 27.296875 
Q 18.109375 17.390625 22.1875 11.75 
Q 26.265625 6.109375 33.40625 6.109375 
Q 40.53125 6.109375 44.609375 11.75 
Q 48.6875 17.390625 48.6875 27.296875 
z
M 18.109375 46.390625 
Q 20.953125 51.265625 25.265625 53.625 
Q 29.59375 56 35.59375 56 
Q 45.5625 56 51.78125 48.09375 
Q 58.015625 40.1875 58.015625 27.296875 
Q 58.015625 14.40625 51.78125 6.484375 
Q 45.5625 -1.421875 35.59375 -1.421875 
Q 29.59375 -1.421875 25.265625 0.953125 
Q 20.953125 3.328125 18.109375 8.203125 
L 18.109375 0 
L 9.078125 0 
L 9.078125 75.984375 
L 18.109375 75.984375 
z
" id="DejaVuSans-98"/>
      <path d="M 41.109375 46.296875 
Q 39.59375 47.171875 37.8125 47.578125 
Q 36.03125 48 33.890625 48 
Q 26.265625 48 22.1875 43.046875 
Q 18.109375 38.09375 18.109375 28.8125 
L 18.109375 0 
L 9.078125 0 
L 9.078125 54.6875 
L 18.109375 54.6875 
L 18.109375 46.1875 
Q 20.953125 51.171875 25.484375 53.578125 
Q 30.03125 56 36.53125 56 
Q 37.453125 56 38.578125 55.875 
Q 39.703125 55.765625 41.0625 55.515625 
z
" id="DejaVuSans-114"/>
      <path d="M 30.609375 48.390625 
Q 23.390625 48.390625 19.1875 42.75 
Q 14.984375 37.109375 14.984375 27.296875 
Q 14.984375 17.484375 19.15625 11.84375 
Q 23.34375 6.203125 30.609375 6.203125 
Q 37.796875 6.203125 41.984375 11.859375 
Q 46.1875 17.53125 46.1875 27.296875 
Q 46.1875 37.015625 41.984375 42.703125 
Q 37.796875 48.390625 30.609375 48.390625 
z
M 30.609375 56 
Q 42.328125 56 49.015625 48.375 
Q 55.71875 40.765625 55.71875 27.296875 
Q 55.71875 13.875 49.015625 6.21875 
Q 42.328125 -1.421875 30.609375 -1.421875 
Q 18.84375 -1.421875 12.171875 6.21875 
Q 5.515625 13.875 5.515625 27.296875 
Q 5.515625 40.765625 12.171875 48.375 
Q 18.84375 56 30.609375 56 
z
" id="DejaVuSans-111"/>
      <path d="M 37.109375 75.984375 
L 37.109375 68.5 
L 28.515625 68.5 
Q 23.6875 68.5 21.796875 66.546875 
Q 19.921875 64.59375 19.921875 59.515625 
L 19.921875 54.6875 
L 34.71875 54.6875 
L 34.71875 47.703125 
L 19.921875 47.703125 
L 19.921875 0 
L 10.890625 0 
L 10.890625 47.703125 
L 2.296875 47.703125 
L 2.296875 54.6875 
L 10.890625 54.6875 
L 10.890625 58.5 
Q 10.890625 67.625 15.140625 71.796875 
Q 19.390625 75.984375 28.609375 75.984375 
z
" id="DejaVuSans-102"/>
      <path d="M 34.28125 27.484375 
Q 23.390625 27.484375 19.1875 25 
Q 14.984375 22.515625 14.984375 16.5 
Q 14.984375 11.71875 18.140625 8.90625 
Q 21.296875 6.109375 26.703125 6.109375 
Q 34.1875 6.109375 38.703125 11.40625 
Q 43.21875 16.703125 43.21875 25.484375 
L 43.21875 27.484375 
z
M 52.203125 31.203125 
L 52.203125 0 
L 43.21875 0 
L 43.21875 8.296875 
Q 40.140625 3.328125 35.546875 0.953125 
Q 30.953125 -1.421875 24.3125 -1.421875 
Q 15.921875 -1.421875 10.953125 3.296875 
Q 6 8.015625 6 15.921875 
Q 6 25.140625 12.171875 29.828125 
Q 18.359375 34.515625 30.609375 34.515625 
L 43.21875 34.515625 
L 43.21875 35.40625 
Q 43.21875 41.609375 39.140625 45 
Q 35.0625 48.390625 27.6875 48.390625 
Q 23 48.390625 18.546875 47.265625 
Q 14.109375 46.140625 10.015625 43.890625 
L 10.015625 52.203125 
Q 14.9375 54.109375 19.578125 55.046875 
Q 24.21875 56 28.609375 56 
Q 40.484375 56 46.34375 49.84375 
Q 52.203125 43.703125 52.203125 31.203125 
z
" id="DejaVuSans-97"/>
      <path d="M 25.390625 72.90625 
L 33.6875 72.90625 
L 8.296875 -9.28125 
L 0 -9.28125 
z
" id="DejaVuSans-47"/>
     </defs>
     <g transform="translate(26.955938 717.06875)rotate(-90)scale(0.26 -0.26)">
      <use xlink:href="#DejaVuSans-65"/>
      <use x="62.533203" xlink:href="#DejaVuSans-118"/>
      <use x="121.712891" xlink:href="#DejaVuSans-103"/>
      <use x="185.189453" xlink:href="#DejaVuSans-46"/>
      <use x="216.976562" xlink:href="#DejaVuSans-32"/>
      <use x="248.763672" xlink:href="#DejaVuSans-110"/>
      <use x="312.142578" xlink:href="#DejaVuSans-117"/>
      <use x="375.521484" xlink:href="#DejaVuSans-109"/>
      <use x="472.933594" xlink:href="#DejaVuSans-98"/>
      <use x="536.410156" xlink:href="#DejaVuSans-101"/>
      <use x="597.933594" xlink:href="#DejaVuSans-114"/>
      <use x="639.046875" xlink:href="#DejaVuSans-32"/>
      <use x="670.833984" xlink:href="#DejaVuSans-111"/>
      <use x="732.015625" xlink:href="#DejaVuSans-102"/>
      <use x="767.220703" xlink:href="#DejaVuSans-32"/>
      <use x="799.007812" xlink:href="#DejaVuSans-111"/>
      <use x="860.189453" xlink:href="#DejaVuSans-112"/>
      <use x="923.666016" xlink:href="#DejaVuSans-101"/>
      <use x="985.189453" xlink:href="#DejaVuSans-114"/>
      <use x="1026.302734" xlink:href="#DejaVuSans-97"/>
      <use x="1087.582031" xlink:href="#DejaVuSans-116"/>
      <use x="1126.791016" xlink:href="#DejaVuSans-105"/>
      <use x="1154.574219" xlink:href="#DejaVuSans-111"/>
      <use x="1215.755859" xlink:href="#DejaVuSans-110"/>
      <use x="1279.134766" xlink:href="#DejaVuSans-115"/>
      <use x="1331.234375" xlink:href="#DejaVuSans-32"/>
      <use x="1363.021484" xlink:href="#DejaVuSans-47"/>
      <use x="1396.712891" xlink:href="#DejaVuSans-32"/>
      <use x="1428.5" xlink:href="#DejaVuSans-115"/>
      <use x="1480.599609" xlink:href="#DejaVuSans-105"/>
      <use x="1508.382812" xlink:href="#DejaVuSans-122"/>
      <use x="1560.873047" xlink:href="#DejaVuSans-101"/>
     </g>
    </g>
   </g>
   <g id="line2d_25">
    <path clip-path="url(#p3d8ae046f8)" d="M 109.394943 912.431856 
L 109.494032 869.383384 
L 109.69221 802.419095 
L 110.088565 743.888278 
L 110.881275 690.455307 
L 112.466696 636.188429 
L 115.637538 582.598117 
L 121.979221 533.130136 
L 134.662587 481.766198 
L 160.02932 430.558617 
L 210.762786 379.896813 
L 312.229717 330.006962 
L 515.163581 279.877166 
L 921.031307 230.018722 
" style="fill:none;stroke:#fe0002;stroke-linecap:square;stroke-width:1.5;"/>
    <defs>
     <path d="M 0 4.5 
C 1.193414 4.5 2.338109 4.025852 3.181981 3.181981 
C 4.025852 2.338109 4.5 1.193414 4.5 0 
C 4.5 -1.193414 4.025852 -2.338109 3.181981 -3.181981 
C 2.338109 -4.025852 1.193414 -4.5 0 -4.5 
C -1.193414 -4.5 -2.338109 -4.025852 -3.181981 -3.181981 
C -4.025852 -2.338109 -4.5 -1.193414 -4.5 0 
C -4.5 1.193414 -4.025852 2.338109 -3.181981 3.181981 
C -2.338109 4.025852 -1.193414 4.5 0 4.5 
z
" id="mafb4c47c91" style="stroke:#000000;"/>
    </defs>
    <g clip-path="url(#p3d8ae046f8)">
     <use style="fill:#fe0002;stroke:#000000;" x="109.394943" xlink:href="#mafb4c47c91" y="912.431856"/>
     <use style="fill:#fe0002;stroke:#000000;" x="109.494032" xlink:href="#mafb4c47c91" y="869.383384"/>
     <use style="fill:#fe0002;stroke:#000000;" x="109.69221" xlink:href="#mafb4c47c91" y="802.419095"/>
     <use style="fill:#fe0002;stroke:#000000;" x="110.088565" xlink:href="#mafb4c47c91" y="743.888278"/>
     <use style="fill:#fe0002;stroke:#000000;" x="110.881275" xlink:href="#mafb4c47c91" y="690.455307"/>
     <use style="fill:#fe0002;stroke:#000000;" x="112.466696" xlink:href="#mafb4c47c91" y="636.188429"/>
     <use style="fill:#fe0002;stroke:#000000;" x="115.637538" xlink:href="#mafb4c47c91" y="582.598117"/>
     <use style="fill:#fe0002;stroke:#000000;" x="121.979221" xlink:href="#mafb4c47c91" y="533.130136"/>
     <use style="fill:#fe0002;stroke:#000000;" x="134.662587" xlink:href="#mafb4c47c91" y="481.766198"/>
     <use style="fill:#fe0002;stroke:#000000;" x="160.02932" xlink:href="#mafb4c47c91" y="430.558617"/>
     <use style="fill:#fe0002;stroke:#000000;" x="210.762786" xlink:href="#mafb4c47c91" y="379.896813"/>
     <use style="fill:#fe0002;stroke:#000000;" x="312.229717" xlink:href="#mafb4c47c91" y="330.006962"/>
     <use style="fill:#fe0002;stroke:#000000;" x="515.163581" xlink:href="#mafb4c47c91" y="279.877166"/>
     <use style="fill:#fe0002;stroke:#000000;" x="921.031307" xlink:href="#mafb4c47c91" y="230.018722"/>
    </g>
   </g>
   <g id="line2d_26">
    <path clip-path="url(#p3d8ae046f8)" d="M 109.394943 912.431856 
L 109.494032 869.383384 
L 109.69221 802.419095 
L 110.088565 743.888278 
L 110.881275 690.455307 
L 112.466696 636.188429 
L 115.637538 582.598117 
L 121.979221 533.130136 
L 134.662587 481.766198 
L 160.02932 430.558617 
L 210.762786 379.896813 
L 312.229717 330.006962 
L 515.163581 279.877166 
L 921.031307 230.018722 
" style="fill:none;stroke:#fe0002;stroke-dasharray:5.55,2.4;stroke-dashoffset:0;stroke-width:1.5;"/>
    <g clip-path="url(#p3d8ae046f8)">
     <use style="fill:#fe0002;stroke:#000000;" x="109.394943" xlink:href="#mafb4c47c91" y="912.431856"/>
     <use style="fill:#fe0002;stroke:#000000;" x="109.494032" xlink:href="#mafb4c47c91" y="869.383384"/>
     <use style="fill:#fe0002;stroke:#000000;" x="109.69221" xlink:href="#mafb4c47c91" y="802.419095"/>
     <use style="fill:#fe0002;stroke:#000000;" x="110.088565" xlink:href="#mafb4c47c91" y="743.888278"/>
     <use style="fill:#fe0002;stroke:#000000;" x="110.881275" xlink:href="#mafb4c47c91" y="690.455307"/>
     <use style="fill:#fe0002;stroke:#000000;" x="112.466696" xlink:href="#mafb4c47c91" y="636.188429"/>
     <use style="fill:#fe0002;stroke:#000000;" x="115.637538" xlink:href="#mafb4c47c91" y="582.598117"/>
     <use style="fill:#fe0002;stroke:#000000;" x="121.979221" xlink:href="#mafb4c47c91" y="533.130136"/>
     <use style="fill:#fe0002;stroke:#000000;" x="134.662587" xlink:href="#mafb4c47c91" y="481.766198"/>
     <use style="fill:#fe0002;stroke:#000000;" x="160.02932" xlink:href="#mafb4c47c91" y="430.558617"/>
     <use style="fill:#fe0002;stroke:#000000;" x="210.762786" xlink:href="#mafb4c47c91" y="379.896813"/>
     <use style="fill:#fe0002;stroke:#000000;" x="312.229717" xlink:href="#mafb4c47c91" y="330.006962"/>
     <use style="fill:#fe0002;stroke:#000000;" x="515.163581" xlink:href="#mafb4c47c91" y="279.877166"/>
     <use style="fill:#fe0002;stroke:#000000;" x="921.031307" xlink:href="#mafb4c47c91" y="230.018722"/>
    </g>
   </g>
   <g id="line2d_27">
    <path clip-path="url(#p3d8ae046f8)" d="M 109.394943 910.921383 
L 109.494032 865.858948 
L 109.69221 804.558931 
L 110.088565 734.888379 
L 110.881275 671.857612 
L 112.466696 605.396814 
L 115.637538 539.37657 
L 121.979221 471.527239 
L 134.662587 402.981673 
L 160.02932 332.091729 
L 210.762786 262.416751 
L 312.229717 192.659906 
L 515.163581 122.761578 
L 921.031307 52.756246 
" style="fill:none;stroke:#15b01a;stroke-linecap:square;stroke-width:1.5;"/>
    <defs>
     <path d="M 0 -4.5 
L -4.5 4.5 
L 4.5 4.5 
z
" id="m19b99d2f82" style="stroke:#000000;stroke-linejoin:miter;"/>
    </defs>
    <g clip-path="url(#p3d8ae046f8)">
     <use style="fill:#15b01a;stroke:#000000;stroke-linejoin:miter;" x="109.394943" xlink:href="#m19b99d2f82" y="910.921383"/>
     <use style="fill:#15b01a;stroke:#000000;stroke-linejoin:miter;" x="109.494032" xlink:href="#m19b99d2f82" y="865.858948"/>
     <use style="fill:#15b01a;stroke:#000000;stroke-linejoin:miter;" x="109.69221" xlink:href="#m19b99d2f82" y="804.558931"/>
     <use style="fill:#15b01a;stroke:#000000;stroke-linejoin:miter;" x="110.088565" xlink:href="#m19b99d2f82" y="734.888379"/>
     <use style="fill:#15b01a;stroke:#000000;stroke-linejoin:miter;" x="110.881275" xlink:href="#m19b99d2f82" y="671.857612"/>
     <use style="fill:#15b01a;stroke:#000000;stroke-linejoin:miter;" x="112.466696" xlink:href="#m19b99d2f82" y="605.396814"/>
     <use style="fill:#15b01a;stroke:#000000;stroke-linejoin:miter;" x="115.637538" xlink:href="#m19b99d2f82" y="539.37657"/>
     <use style="fill:#15b01a;stroke:#000000;stroke-linejoin:miter;" x="121.979221" xlink:href="#m19b99d2f82" y="471.527239"/>
     <use style="fill:#15b01a;stroke:#000000;stroke-linejoin:miter;" x="134.662587" xlink:href="#m19b99d2f82" y="402.981673"/>
     <use style="fill:#15b01a;stroke:#000000;stroke-linejoin:miter;" x="160.02932" xlink:href="#m19b99d2f82" y="332.091729"/>
     <use style="fill:#15b01a;stroke:#000000;stroke-linejoin:miter;" x="210.762786" xlink:href="#m19b99d2f82" y="262.416751"/>
     <use style="fill:#15b01a;stroke:#000000;stroke-linejoin:miter;" x="312.229717" xlink:href="#m19b99d2f82" y="192.659906"/>
     <use style="fill:#15b01a;stroke:#000000;stroke-linejoin:miter;" x="515.163581" xlink:href="#m19b99d2f82" y="122.761578"/>
     <use style="fill:#15b01a;stroke:#000000;stroke-linejoin:miter;" x="921.031307" xlink:href="#m19b99d2f82" y="52.756246"/>
    </g>
   </g>
   <g id="line2d_28">
    <path clip-path="url(#p3d8ae046f8)" d="M 109.394943 945.662255 
L 109.494032 915.956292 
L 109.69221 877.439239 
L 110.088565 837.537585 
L 110.881275 802.891118 
L 112.466696 766.718444 
L 115.637538 731.938237 
L 121.979221 697.020356 
L 134.662587 662.082809 
L 160.02932 625.993722 
L 210.762786 591.079283 
L 312.229717 555.800748 
L 515.163581 520.650421 
L 921.031307 485.687674 
" style="fill:none;stroke:#15b01a;stroke-dasharray:5.55,2.4;stroke-dashoffset:0;stroke-width:1.5;"/>
    <defs>
     <path d="M -0 6.363961 
L 6.363961 0 
L 0 -6.363961 
L -6.363961 -0 
z
" id="m10060ec369" style="stroke:#000000;stroke-linejoin:miter;"/>
    </defs>
    <g clip-path="url(#p3d8ae046f8)">
     <use style="fill:#15b01a;stroke:#000000;stroke-linejoin:miter;" x="109.394943" xlink:href="#m10060ec369" y="945.662255"/>
     <use style="fill:#15b01a;stroke:#000000;stroke-linejoin:miter;" x="109.494032" xlink:href="#m10060ec369" y="915.956292"/>
     <use style="fill:#15b01a;stroke:#000000;stroke-linejoin:miter;" x="109.69221" xlink:href="#m10060ec369" y="877.439239"/>
     <use style="fill:#15b01a;stroke:#000000;stroke-linejoin:miter;" x="110.088565" xlink:href="#m10060ec369" y="837.537585"/>
     <use style="fill:#15b01a;stroke:#000000;stroke-linejoin:miter;" x="110.881275" xlink:href="#m10060ec369" y="802.891118"/>
     <use style="fill:#15b01a;stroke:#000000;stroke-linejoin:miter;" x="112.466696" xlink:href="#m10060ec369" y="766.718444"/>
     <use style="fill:#15b01a;stroke:#000000;stroke-linejoin:miter;" x="115.637538" xlink:href="#m10060ec369" y="731.938237"/>
     <use style="fill:#15b01a;stroke:#000000;stroke-linejoin:miter;" x="121.979221" xlink:href="#m10060ec369" y="697.020356"/>
     <use style="fill:#15b01a;stroke:#000000;stroke-linejoin:miter;" x="134.662587" xlink:href="#m10060ec369" y="662.082809"/>
     <use style="fill:#15b01a;stroke:#000000;stroke-linejoin:miter;" x="160.02932" xlink:href="#m10060ec369" y="625.993722"/>
     <use style="fill:#15b01a;stroke:#000000;stroke-linejoin:miter;" x="210.762786" xlink:href="#m10060ec369" y="591.079283"/>
     <use style="fill:#15b01a;stroke:#000000;stroke-linejoin:miter;" x="312.229717" xlink:href="#m10060ec369" y="555.800748"/>
     <use style="fill:#15b01a;stroke:#000000;stroke-linejoin:miter;" x="515.163581" xlink:href="#m10060ec369" y="520.650421"/>
     <use style="fill:#15b01a;stroke:#000000;stroke-linejoin:miter;" x="921.031307" xlink:href="#m10060ec369" y="485.687674"/>
    </g>
   </g>
   <g id="patch_3">
    <path d="M 68.813125 1005.12 
L 68.813125 7.2 
" style="fill:none;stroke:#000000;stroke-linecap:square;stroke-linejoin:miter;stroke-width:0.8;"/>
   </g>
   <g id="patch_4">
    <path d="M 961.613125 1005.12 
L 961.613125 7.2 
" style="fill:none;stroke:#000000;stroke-linecap:square;stroke-linejoin:miter;stroke-width:0.8;"/>
   </g>
   <g id="patch_5">
    <path d="M 68.813125 1005.12 
L 961.613125 1005.12 
" style="fill:none;stroke:#000000;stroke-linecap:square;stroke-linejoin:miter;stroke-width:0.8;"/>
   </g>
   <g id="patch_6">
    <path d="M 68.813125 7.2 
L 961.613125 7.2 
" style="fill:none;stroke:#000000;stroke-linecap:square;stroke-linejoin:miter;stroke-width:0.8;"/>
   </g>
   <g id="legend_1">
    <g id="patch_7">
     <path d="M 586.274688 992.12 
L 943.413125 992.12 
Q 948.613125 992.12 948.613125 986.92 
L 948.613125 836.8675 
Q 948.613125 831.6675 943.413125 831.6675 
L 586.274688 831.6675 
Q 581.074687 831.6675 581.074687 836.8675 
L 581.074687 986.92 
Q 581.074687 992.12 586.274688 992.12 
z
" style="fill:#ffffff;opacity:0.8;stroke:#cccccc;stroke-linejoin:miter;"/>
    </g>
    <g id="line2d_29">
     <path d="M 591.474687 852.723437 
L 643.474687 852.723437 
" style="fill:none;stroke:#fe0002;stroke-linecap:square;stroke-width:1.5;"/>
    </g>
    <g id="line2d_30">
     <g>
      <use style="fill:#fe0002;stroke:#000000;" x="617.474687" xlink:href="#mafb4c47c91" y="852.723437"/>
     </g>
    </g>
    <g id="text_15">
     <!-- Pairing comparisons -->
     <defs>
      <path d="M 19.671875 64.796875 
L 19.671875 37.40625 
L 32.078125 37.40625 
Q 38.96875 37.40625 42.71875 40.96875 
Q 46.484375 44.53125 46.484375 51.125 
Q 46.484375 57.671875 42.71875 61.234375 
Q 38.96875 64.796875 32.078125 64.796875 
z
M 9.8125 72.90625 
L 32.078125 72.90625 
Q 44.34375 72.90625 50.609375 67.359375 
Q 56.890625 61.8125 56.890625 51.125 
Q 56.890625 40.328125 50.609375 34.8125 
Q 44.34375 29.296875 32.078125 29.296875 
L 19.671875 29.296875 
L 19.671875 0 
L 9.8125 0 
z
" id="DejaVuSans-80"/>
      <path d="M 48.78125 52.59375 
L 48.78125 44.1875 
Q 44.96875 46.296875 41.140625 47.34375 
Q 37.3125 48.390625 33.40625 48.390625 
Q 24.65625 48.390625 19.8125 42.84375 
Q 14.984375 37.3125 14.984375 27.296875 
Q 14.984375 17.28125 19.8125 11.734375 
Q 24.65625 6.203125 33.40625 6.203125 
Q 37.3125 6.203125 41.140625 7.25 
Q 44.96875 8.296875 48.78125 10.40625 
L 48.78125 2.09375 
Q 45.015625 0.34375 40.984375 -0.53125 
Q 36.96875 -1.421875 32.421875 -1.421875 
Q 20.0625 -1.421875 12.78125 6.34375 
Q 5.515625 14.109375 5.515625 27.296875 
Q 5.515625 40.671875 12.859375 48.328125 
Q 20.21875 56 33.015625 56 
Q 37.15625 56 41.109375 55.140625 
Q 45.0625 54.296875 48.78125 52.59375 
z
" id="DejaVuSans-99"/>
     </defs>
     <g transform="translate(664.274687 861.823437)scale(0.26 -0.26)">
      <use xlink:href="#DejaVuSans-80"/>
      <use x="55.802734" xlink:href="#DejaVuSans-97"/>
      <use x="117.082031" xlink:href="#DejaVuSans-105"/>
      <use x="144.865234" xlink:href="#DejaVuSans-114"/>
      <use x="185.978516" xlink:href="#DejaVuSans-105"/>
      <use x="213.761719" xlink:href="#DejaVuSans-110"/>
      <use x="277.140625" xlink:href="#DejaVuSans-103"/>
      <use x="340.617188" xlink:href="#DejaVuSans-32"/>
      <use x="372.404297" xlink:href="#DejaVuSans-99"/>
      <use x="427.384766" xlink:href="#DejaVuSans-111"/>
      <use x="488.566406" xlink:href="#DejaVuSans-109"/>
      <use x="585.978516" xlink:href="#DejaVuSans-112"/>
      <use x="649.455078" xlink:href="#DejaVuSans-97"/>
      <use x="710.734375" xlink:href="#DejaVuSans-114"/>
      <use x="751.847656" xlink:href="#DejaVuSans-105"/>
      <use x="779.630859" xlink:href="#DejaVuSans-115"/>
      <use x="831.730469" xlink:href="#DejaVuSans-111"/>
      <use x="892.912109" xlink:href="#DejaVuSans-110"/>
      <use x="956.291016" xlink:href="#DejaVuSans-115"/>
     </g>
    </g>
    <g id="line2d_31">
     <path d="M 591.474687 890.886562 
L 643.474687 890.886562 
" style="fill:none;stroke:#fe0002;stroke-dasharray:5.55,2.4;stroke-dashoffset:0;stroke-width:1.5;"/>
    </g>
    <g id="line2d_32">
     <g>
      <use style="fill:#fe0002;stroke:#000000;" x="617.474687" xlink:href="#mafb4c47c91" y="890.886562"/>
     </g>
    </g>
    <g id="text_16">
     <!-- Pairing links -->
     <defs>
      <path d="M 9.421875 75.984375 
L 18.40625 75.984375 
L 18.40625 0 
L 9.421875 0 
z
" id="DejaVuSans-108"/>
      <path d="M 9.078125 75.984375 
L 18.109375 75.984375 
L 18.109375 31.109375 
L 44.921875 54.6875 
L 56.390625 54.6875 
L 27.390625 29.109375 
L 57.625 0 
L 45.90625 0 
L 18.109375 26.703125 
L 18.109375 0 
L 9.078125 0 
z
" id="DejaVuSans-107"/>
     </defs>
     <g transform="translate(664.274687 899.986562)scale(0.26 -0.26)">
      <use xlink:href="#DejaVuSans-80"/>
      <use x="55.802734" xlink:href="#DejaVuSans-97"/>
      <use x="117.082031" xlink:href="#DejaVuSans-105"/>
      <use x="144.865234" xlink:href="#DejaVuSans-114"/>
      <use x="185.978516" xlink:href="#DejaVuSans-105"/>
      <use x="213.761719" xlink:href="#DejaVuSans-110"/>
      <use x="277.140625" xlink:href="#DejaVuSans-103"/>
      <use x="340.617188" xlink:href="#DejaVuSans-32"/>
      <use x="372.404297" xlink:href="#DejaVuSans-108"/>
      <use x="400.1875" xlink:href="#DejaVuSans-105"/>
      <use x="427.970703" xlink:href="#DejaVuSans-110"/>
      <use x="491.349609" xlink:href="#DejaVuSans-107"/>
      <use x="549.259766" xlink:href="#DejaVuSans-115"/>
     </g>
    </g>
    <g id="line2d_33">
     <path d="M 591.474687 929.049688 
L 643.474687 929.049688 
" style="fill:none;stroke:#15b01a;stroke-linecap:square;stroke-width:1.5;"/>
    </g>
    <g id="line2d_34">
     <g>
      <use style="fill:#15b01a;stroke:#000000;stroke-linejoin:miter;" x="617.474687" xlink:href="#m19b99d2f82" y="929.049688"/>
     </g>
    </g>
    <g id="text_17">
     <!-- Smooth comparisons -->
     <defs>
      <path d="M 53.515625 70.515625 
L 53.515625 60.890625 
Q 47.90625 63.578125 42.921875 64.890625 
Q 37.9375 66.21875 33.296875 66.21875 
Q 25.25 66.21875 20.875 63.09375 
Q 16.5 59.96875 16.5 54.203125 
Q 16.5 49.359375 19.40625 46.890625 
Q 22.3125 44.4375 30.421875 42.921875 
L 36.375 41.703125 
Q 47.40625 39.59375 52.65625 34.296875 
Q 57.90625 29 57.90625 20.125 
Q 57.90625 9.515625 50.796875 4.046875 
Q 43.703125 -1.421875 29.984375 -1.421875 
Q 24.8125 -1.421875 18.96875 -0.25 
Q 13.140625 0.921875 6.890625 3.21875 
L 6.890625 13.375 
Q 12.890625 10.015625 18.65625 8.296875 
Q 24.421875 6.59375 29.984375 6.59375 
Q 38.421875 6.59375 43.015625 9.90625 
Q 47.609375 13.234375 47.609375 19.390625 
Q 47.609375 24.75 44.3125 27.78125 
Q 41.015625 30.8125 33.5 32.328125 
L 27.484375 33.5 
Q 16.453125 35.6875 11.515625 40.375 
Q 6.59375 45.0625 6.59375 53.421875 
Q 6.59375 63.09375 13.40625 68.65625 
Q 20.21875 74.21875 32.171875 74.21875 
Q 37.3125 74.21875 42.625 73.28125 
Q 47.953125 72.359375 53.515625 70.515625 
z
" id="DejaVuSans-83"/>
      <path d="M 54.890625 33.015625 
L 54.890625 0 
L 45.90625 0 
L 45.90625 32.71875 
Q 45.90625 40.484375 42.875 44.328125 
Q 39.84375 48.1875 33.796875 48.1875 
Q 26.515625 48.1875 22.3125 43.546875 
Q 18.109375 38.921875 18.109375 30.90625 
L 18.109375 0 
L 9.078125 0 
L 9.078125 75.984375 
L 18.109375 75.984375 
L 18.109375 46.1875 
Q 21.34375 51.125 25.703125 53.5625 
Q 30.078125 56 35.796875 56 
Q 45.21875 56 50.046875 50.171875 
Q 54.890625 44.34375 54.890625 33.015625 
z
" id="DejaVuSans-104"/>
     </defs>
     <g transform="translate(664.274687 938.149688)scale(0.26 -0.26)">
      <use xlink:href="#DejaVuSans-83"/>
      <use x="63.476562" xlink:href="#DejaVuSans-109"/>
      <use x="160.888672" xlink:href="#DejaVuSans-111"/>
      <use x="222.070312" xlink:href="#DejaVuSans-111"/>
      <use x="283.251953" xlink:href="#DejaVuSans-116"/>
      <use x="322.460938" xlink:href="#DejaVuSans-104"/>
      <use x="385.839844" xlink:href="#DejaVuSans-32"/>
      <use x="417.626953" xlink:href="#DejaVuSans-99"/>
      <use x="472.607422" xlink:href="#DejaVuSans-111"/>
      <use x="533.789062" xlink:href="#DejaVuSans-109"/>
      <use x="631.201172" xlink:href="#DejaVuSans-112"/>
      <use x="694.677734" xlink:href="#DejaVuSans-97"/>
      <use x="755.957031" xlink:href="#DejaVuSans-114"/>
      <use x="797.070312" xlink:href="#DejaVuSans-105"/>
      <use x="824.853516" xlink:href="#DejaVuSans-115"/>
      <use x="876.953125" xlink:href="#DejaVuSans-111"/>
      <use x="938.134766" xlink:href="#DejaVuSans-110"/>
      <use x="1001.513672" xlink:href="#DejaVuSans-115"/>
     </g>
    </g>
    <g id="line2d_35">
     <path d="M 591.474687 967.212813 
L 643.474687 967.212813 
" style="fill:none;stroke:#15b01a;stroke-dasharray:5.55,2.4;stroke-dashoffset:0;stroke-width:1.5;"/>
    </g>
    <g id="line2d_36">
     <g>
      <use style="fill:#15b01a;stroke:#000000;stroke-linejoin:miter;" x="617.474687" xlink:href="#m10060ec369" y="967.212813"/>
     </g>
    </g>
    <g id="text_18">
     <!-- Smooth links -->
     <g transform="translate(664.274687 976.312813)scale(0.26 -0.26)">
      <use xlink:href="#DejaVuSans-83"/>
      <use x="63.476562" xlink:href="#DejaVuSans-109"/>
      <use x="160.888672" xlink:href="#DejaVuSans-111"/>
      <use x="222.070312" xlink:href="#DejaVuSans-111"/>
      <use x="283.251953" xlink:href="#DejaVuSans-116"/>
      <use x="322.460938" xlink:href="#DejaVuSans-104"/>
      <use x="385.839844" xlink:href="#DejaVuSans-32"/>
      <use x="417.626953" xlink:href="#DejaVuSans-108"/>
      <use x="445.410156" xlink:href="#DejaVuSans-105"/>
      <use x="473.193359" xlink:href="#DejaVuSans-110"/>
      <use x="536.572266" xlink:href="#DejaVuSans-107"/>
      <use x="594.482422" xlink:href="#DejaVuSans-115"/>
     </g>
    </g>
   </g>
  </g>
 </g>
 <defs>
  <clipPath id="p3d8ae046f8">
   <rect height="997.92" width="892.8" x="68.813125" y="7.2"/>
  </clipPath>
 </defs>
</svg>
