<?xml version="1.0" encoding="utf-8" standalone="no"?>
<!DOCTYPE svg PUBLIC "-//W3C//DTD SVG 1.1//EN"
  "http://www.w3.org/Graphics/SVG/1.1/DTD/svg11.dtd">
<svg height="1100.6975pt" version="1.1" viewBox="0 0 1003.654063 1100.6975" width="1003.654063pt" xmlns="http://www.w3.org/2000/svg" xmlns:xlink="http://www.w3.org/1999/xlink">
 <metadata>
  <rdf:RDF xmlns:cc="http://creativecommons.org/ns#" xmlns:dc="http://purl.org/dc/elements/1.1/" xmlns:rdf="http://www.w3.org/1999/02/22-rdf-syntax-ns#">
   <cc:Work>
    <dc:type rdf:resource="http://purl.org/dc/dcmitype/StillImage"/>
    <dc:date>2021-06-27T23:41:50.886903</dc:date>
    <dc:format>image/svg+xml</dc:format>
    <dc:creator>
     <cc:Agent>
      <dc:title>Matplotlib v3.4.2, https://matplotlib.org/</dc:title>
     </cc:Agent>
    </dc:creator>
   </cc:Work>
  </rdf:RDF>
 </metadata>
 <defs>
  <style type="text/css">*{stroke-linecap:butt;stroke-linejoin:round;}</style>
 </defs>
 <g id="figure_1">
  <g id="patch_1">
   <path d="M 0 1100.6975 
L 1003.654063 1100.6975 
L 1003.654063 0 
L 0 0 
z
" style="fill:#ffffff;"/>
  </g>
  <g id="axes_1">
   <g id="patch_2">
    <path d="M 103.654063 1015.718438 
L 996.454062 1015.718438 
L 996.454062 17.798438 
L 103.654063 17.798438 
z
" style="fill:#ffffff;"/>
   </g>
   <g id="PolyCollection_1">
    <defs>
     <path d="M 144.235881 -130.339214 
L 144.235881 -130.339138 
L 144.334969 -130.339284 
L 144.533147 -130.339417 
L 144.929502 -130.33954 
L 145.722213 -130.339683 
L 147.307633 -130.339816 
L 150.478475 -130.339941 
L 156.820158 -130.340062 
L 169.503525 -130.34018 
L 194.870258 -130.340298 
L 245.603723 -130.340416 
L 347.070655 -130.340532 
L 550.004518 -130.340648 
L 955.872244 -130.340765 
L 955.872244 -130.340766 
L 955.872244 -130.340766 
L 550.004518 -130.34065 
L 347.070655 -130.340534 
L 245.603723 -130.340418 
L 194.870258 -130.340302 
L 169.503525 -130.340185 
L 156.820158 -130.340072 
L 150.478475 -130.33995 
L 147.307633 -130.339823 
L 145.722213 -130.339703 
L 144.929502 -130.339584 
L 144.533147 -130.339436 
L 144.334969 -130.339316 
L 144.235881 -130.339214 
z
" id="m954fee45ea" style="stroke:#fe0002;stroke-opacity:0.3;"/>
    </defs>
    <g clip-path="url(#pd9ee07beb7)">
     <use style="fill:#fe0002;fill-opacity:0.3;stroke:#fe0002;stroke-opacity:0.3;" x="0" xlink:href="#m954fee45ea" y="1100.6975"/>
    </g>
   </g>
   <g id="PolyCollection_2">
    <g clip-path="url(#pd9ee07beb7)">
     <use style="fill:#fe0002;fill-opacity:0.3;stroke:#fe0002;stroke-opacity:0.3;" x="0" xlink:href="#m954fee45ea" y="1100.6975"/>
    </g>
   </g>
   <g id="PolyCollection_3">
    <defs>
     <path d="M 144.235881 -130.339226 
L 144.235881 -130.339138 
L 144.334969 -130.33927 
L 144.533147 -130.339436 
L 144.929502 -130.339595 
L 145.722213 -130.339716 
L 147.307633 -130.339878 
L 150.478475 -130.340035 
L 156.820158 -130.3402 
L 169.503525 -130.340362 
L 194.870258 -130.340525 
L 245.603723 -130.340687 
L 347.070655 -130.34085 
L 550.004518 -130.341011 
L 955.872244 -130.341175 
L 955.872244 -130.341177 
L 955.872244 -130.341177 
L 550.004518 -130.341014 
L 347.070655 -130.340853 
L 245.603723 -130.340694 
L 194.870258 -130.340534 
L 169.503525 -130.340373 
L 156.820158 -130.340216 
L 150.478475 -130.340055 
L 147.307633 -130.3399 
L 145.722213 -130.339735 
L 144.929502 -130.339608 
L 144.533147 -130.339459 
L 144.334969 -130.33934 
L 144.235881 -130.339226 
z
" id="m8e3e627248" style="stroke:#53fca1;stroke-opacity:0.3;"/>
    </defs>
    <g clip-path="url(#pd9ee07beb7)">
     <use style="fill:#53fca1;fill-opacity:0.3;stroke:#53fca1;stroke-opacity:0.3;" x="0" xlink:href="#m8e3e627248" y="1100.6975"/>
    </g>
   </g>
   <g id="PolyCollection_4">
    <defs>
     <path d="M 144.235881 -130.339138 
L 144.235881 -130.33908 
L 144.334969 -130.33917 
L 144.533147 -130.339258 
L 144.929502 -130.339361 
L 145.722213 -130.339426 
L 147.307633 -130.339514 
L 150.478475 -130.339599 
L 156.820158 -130.339681 
L 169.503525 -130.339764 
L 194.870258 -130.339846 
L 245.603723 -130.339927 
L 347.070655 -130.34001 
L 550.004518 -130.34009 
L 955.872244 -130.340172 
L 955.872244 -130.340173 
L 955.872244 -130.340173 
L 550.004518 -130.340092 
L 347.070655 -130.34001 
L 245.603723 -130.33993 
L 194.870258 -130.339851 
L 169.503525 -130.339768 
L 156.820158 -130.339689 
L 150.478475 -130.339604 
L 147.307633 -130.339524 
L 145.722213 -130.339436 
L 144.929502 -130.339373 
L 144.533147 -130.33928 
L 144.334969 -130.3392 
L 144.235881 -130.339138 
z
" id="mf5e7244c8c" style="stroke:#53fca1;stroke-opacity:0.3;"/>
    </defs>
    <g clip-path="url(#pd9ee07beb7)">
     <use style="fill:#53fca1;fill-opacity:0.3;stroke:#53fca1;stroke-opacity:0.3;" x="0" xlink:href="#mf5e7244c8c" y="1100.6975"/>
    </g>
   </g>
   <g id="PolyCollection_5">
    <defs>
     <path d="M 144.235881 -130.339214 
L 144.235881 -130.33915 
L 144.334969 -130.339272 
L 144.533147 -130.339437 
L 144.929502 -130.339597 
L 145.722213 -130.33977 
L 147.307633 -130.33997 
L 150.478475 -130.340153 
L 156.820158 -130.340365 
L 169.503525 -130.34057 
L 194.870258 -130.340772 
L 245.603723 -130.340978 
L 347.070655 -130.341178 
L 550.004518 -130.341383 
L 955.872244 -130.341582 
L 955.872244 -130.341584 
L 955.872244 -130.341584 
L 550.004518 -130.341386 
L 347.070655 -130.341185 
L 245.603723 -130.340986 
L 194.870258 -130.340786 
L 169.503525 -130.340576 
L 156.820158 -130.340387 
L 150.478475 -130.340193 
L 147.307633 -130.339994 
L 145.722213 -130.339807 
L 144.929502 -130.339652 
L 144.533147 -130.339461 
L 144.334969 -130.339331 
L 144.235881 -130.339214 
z
" id="mbd0aecd3e3" style="stroke:#0652ff;stroke-opacity:0.3;"/>
    </defs>
    <g clip-path="url(#pd9ee07beb7)">
     <use style="fill:#0652ff;fill-opacity:0.3;stroke:#0652ff;stroke-opacity:0.3;" x="0" xlink:href="#mbd0aecd3e3" y="1100.6975"/>
    </g>
   </g>
   <g id="PolyCollection_6">
    <defs>
     <path d="M 144.235881 -130.339127 
L 144.235881 -130.33908 
L 144.334969 -130.339179 
L 144.533147 -130.339278 
L 144.929502 -130.339385 
L 145.722213 -130.339488 
L 147.307633 -130.339612 
L 150.478475 -130.339722 
L 156.820158 -130.339853 
L 169.503525 -130.339975 
L 194.870258 -130.340095 
L 245.603723 -130.340216 
L 347.070655 -130.340334 
L 550.004518 -130.340455 
L 955.872244 -130.340574 
L 955.872244 -130.340575 
L 955.872244 -130.340575 
L 550.004518 -130.340457 
L 347.070655 -130.340339 
L 245.603723 -130.340221 
L 194.870258 -130.340102 
L 169.503525 -130.339977 
L 156.820158 -130.339865 
L 150.478475 -130.339751 
L 147.307633 -130.339627 
L 145.722213 -130.339505 
L 144.929502 -130.339409 
L 144.533147 -130.3393 
L 144.334969 -130.339208 
L 144.235881 -130.339127 
z
" id="m80c15306af" style="stroke:#0652ff;stroke-opacity:0.3;"/>
    </defs>
    <g clip-path="url(#pd9ee07beb7)">
     <use style="fill:#0652ff;fill-opacity:0.3;stroke:#0652ff;stroke-opacity:0.3;" x="0" xlink:href="#m80c15306af" y="1100.6975"/>
    </g>
   </g>
   <g id="PolyCollection_7">
    <defs>
     <path d="M 144.235881 -130.33929 
L 144.235881 -130.33922 
L 144.334969 -130.339398 
L 144.533147 -130.339579 
L 144.929502 -130.339766 
L 145.722213 -130.339959 
L 147.307633 -130.340185 
L 150.478475 -130.340429 
L 156.820158 -130.34069 
L 169.503525 -130.340964 
L 194.870258 -130.341252 
L 245.603723 -130.341566 
L 347.070655 -130.341875 
L 550.004518 -130.342209 
L 955.872244 -130.342545 
L 955.872244 -130.342551 
L 955.872244 -130.342551 
L 550.004518 -130.342214 
L 347.070655 -130.341889 
L 245.603723 -130.341578 
L 194.870258 -130.341268 
L 169.503525 -130.340979 
L 156.820158 -130.340712 
L 150.478475 -130.340458 
L 147.307633 -130.34021 
L 145.722213 -130.339981 
L 144.929502 -130.339795 
L 144.533147 -130.339621 
L 144.334969 -130.339444 
L 144.235881 -130.33929 
z
" id="mec3673799b" style="stroke:#ae7181;stroke-opacity:0.3;"/>
    </defs>
    <g clip-path="url(#pd9ee07beb7)">
     <use style="fill:#ae7181;fill-opacity:0.3;stroke:#ae7181;stroke-opacity:0.3;" x="0" xlink:href="#mec3673799b" y="1100.6975"/>
    </g>
   </g>
   <g id="PolyCollection_8">
    <defs>
     <path d="M 144.235881 -130.339097 
L 144.235881 -130.339063 
L 144.334969 -130.339151 
L 144.533147 -130.339242 
L 144.929502 -130.339335 
L 145.722213 -130.339432 
L 147.307633 -130.339545 
L 150.478475 -130.339667 
L 156.820158 -130.339798 
L 169.503525 -130.339935 
L 194.870258 -130.340078 
L 245.603723 -130.340235 
L 347.070655 -130.34039 
L 550.004518 -130.340557 
L 955.872244 -130.340725 
L 955.872244 -130.340728 
L 955.872244 -130.340728 
L 550.004518 -130.34056 
L 347.070655 -130.340397 
L 245.603723 -130.340241 
L 194.870258 -130.340087 
L 169.503525 -130.339942 
L 156.820158 -130.339808 
L 150.478475 -130.339681 
L 147.307633 -130.339557 
L 145.722213 -130.339443 
L 144.929502 -130.33935 
L 144.533147 -130.339263 
L 144.334969 -130.339175 
L 144.235881 -130.339097 
z
" id="m60bb903144" style="stroke:#ae7181;stroke-opacity:0.3;"/>
    </defs>
    <g clip-path="url(#pd9ee07beb7)">
     <use style="fill:#ae7181;fill-opacity:0.3;stroke:#ae7181;stroke-opacity:0.3;" x="0" xlink:href="#m60bb903144" y="1100.6975"/>
    </g>
   </g>
   <g id="PolyCollection_9">
    <defs>
     <path d="M 144.235881 -130.371294 
L 144.235881 -130.365294 
L 144.334969 -130.405728 
L 144.533147 -130.492637 
L 144.929502 -130.717846 
L 145.722213 -131.224676 
L 147.307633 -132.297647 
L 150.478475 -134.782015 
L 156.820158 -139.965393 
L 169.503525 -151.15769 
L 194.870258 -175.352068 
L 245.603723 -226.305328 
L 347.070655 -333.967343 
L 550.004518 -559.864092 
L 955.872244 -1036.096306 
L 955.872244 -1037.539063 
L 955.872244 -1037.539063 
L 550.004518 -561.699138 
L 347.070655 -334.283884 
L 245.603723 -226.652849 
L 194.870258 -175.652468 
L 169.503525 -151.422242 
L 156.820158 -140.181315 
L 150.478475 -134.847153 
L 147.307633 -132.428169 
L 145.722213 -131.278041 
L 144.929502 -130.754897 
L 144.533147 -130.523959 
L 144.334969 -130.41365 
L 144.235881 -130.371294 
z
" id="mc9276f2bb3" style="stroke:#ff9408;stroke-opacity:0.3;"/>
    </defs>
    <g clip-path="url(#pd9ee07beb7)">
     <use style="fill:#ff9408;fill-opacity:0.3;stroke:#ff9408;stroke-opacity:0.3;" x="0" xlink:href="#mc9276f2bb3" y="1100.6975"/>
    </g>
   </g>
   <g id="PolyCollection_10">
    <g clip-path="url(#pd9ee07beb7)">
     <use style="fill:#ff9408;fill-opacity:0.3;stroke:#ff9408;stroke-opacity:0.3;" x="0" xlink:href="#mc9276f2bb3" y="1100.6975"/>
    </g>
   </g>
   <g id="matplotlib.axis_1">
    <g id="xtick_1">
     <g id="line2d_1">
      <path clip-path="url(#pd9ee07beb7)" d="M 144.136792 1015.718438 
L 144.136792 17.798438 
" style="fill:none;stroke:#b0b0b0;stroke-linecap:square;stroke-width:0.8;"/>
     </g>
     <g id="line2d_2">
      <defs>
       <path d="M 0 0 
L 0 3.5 
" id="mf6d5e1a887" style="stroke:#000000;stroke-width:0.8;"/>
      </defs>
      <g>
       <use style="stroke:#000000;stroke-width:0.8;" x="144.136792" xlink:href="#mf6d5e1a887" y="1015.718438"/>
      </g>
     </g>
     <g id="text_1">
      <!-- 0 -->
      <g transform="translate(134.593042 1045.51375)scale(0.3 -0.3)">
       <defs>
        <path d="M 2034 4250 
Q 1547 4250 1301 3770 
Q 1056 3291 1056 2328 
Q 1056 1369 1301 889 
Q 1547 409 2034 409 
Q 2525 409 2770 889 
Q 3016 1369 3016 2328 
Q 3016 3291 2770 3770 
Q 2525 4250 2034 4250 
z
M 2034 4750 
Q 2819 4750 3233 4129 
Q 3647 3509 3647 2328 
Q 3647 1150 3233 529 
Q 2819 -91 2034 -91 
Q 1250 -91 836 529 
Q 422 1150 422 2328 
Q 422 3509 836 4129 
Q 1250 4750 2034 4750 
z
" id="DejaVuSans-30" transform="scale(0.015625)"/>
       </defs>
       <use xlink:href="#DejaVuSans-30"/>
      </g>
     </g>
    </g>
    <g id="xtick_2">
     <g id="line2d_3">
      <path clip-path="url(#pd9ee07beb7)" d="M 267.997792 1015.718438 
L 267.997792 17.798438 
" style="fill:none;stroke:#b0b0b0;stroke-linecap:square;stroke-width:0.8;"/>
     </g>
     <g id="line2d_4">
      <g>
       <use style="stroke:#000000;stroke-width:0.8;" x="267.997792" xlink:href="#mf6d5e1a887" y="1015.718438"/>
      </g>
     </g>
     <g id="text_2">
      <!-- 20000 -->
      <g transform="translate(220.279042 1045.51375)scale(0.3 -0.3)">
       <defs>
        <path d="M 1228 531 
L 3431 531 
L 3431 0 
L 469 0 
L 469 531 
Q 828 903 1448 1529 
Q 2069 2156 2228 2338 
Q 2531 2678 2651 2914 
Q 2772 3150 2772 3378 
Q 2772 3750 2511 3984 
Q 2250 4219 1831 4219 
Q 1534 4219 1204 4116 
Q 875 4013 500 3803 
L 500 4441 
Q 881 4594 1212 4672 
Q 1544 4750 1819 4750 
Q 2544 4750 2975 4387 
Q 3406 4025 3406 3419 
Q 3406 3131 3298 2873 
Q 3191 2616 2906 2266 
Q 2828 2175 2409 1742 
Q 1991 1309 1228 531 
z
" id="DejaVuSans-32" transform="scale(0.015625)"/>
       </defs>
       <use xlink:href="#DejaVuSans-32"/>
       <use x="63.623047" xlink:href="#DejaVuSans-30"/>
       <use x="127.246094" xlink:href="#DejaVuSans-30"/>
       <use x="190.869141" xlink:href="#DejaVuSans-30"/>
       <use x="254.492188" xlink:href="#DejaVuSans-30"/>
      </g>
     </g>
    </g>
    <g id="xtick_3">
     <g id="line2d_5">
      <path clip-path="url(#pd9ee07beb7)" d="M 391.858793 1015.718438 
L 391.858793 17.798438 
" style="fill:none;stroke:#b0b0b0;stroke-linecap:square;stroke-width:0.8;"/>
     </g>
     <g id="line2d_6">
      <g>
       <use style="stroke:#000000;stroke-width:0.8;" x="391.858793" xlink:href="#mf6d5e1a887" y="1015.718438"/>
      </g>
     </g>
     <g id="text_3">
      <!-- 40000 -->
      <g transform="translate(344.140043 1045.51375)scale(0.3 -0.3)">
       <defs>
        <path d="M 2419 4116 
L 825 1625 
L 2419 1625 
L 2419 4116 
z
M 2253 4666 
L 3047 4666 
L 3047 1625 
L 3713 1625 
L 3713 1100 
L 3047 1100 
L 3047 0 
L 2419 0 
L 2419 1100 
L 313 1100 
L 313 1709 
L 2253 4666 
z
" id="DejaVuSans-34" transform="scale(0.015625)"/>
       </defs>
       <use xlink:href="#DejaVuSans-34"/>
       <use x="63.623047" xlink:href="#DejaVuSans-30"/>
       <use x="127.246094" xlink:href="#DejaVuSans-30"/>
       <use x="190.869141" xlink:href="#DejaVuSans-30"/>
       <use x="254.492188" xlink:href="#DejaVuSans-30"/>
      </g>
     </g>
    </g>
    <g id="xtick_4">
     <g id="line2d_7">
      <path clip-path="url(#pd9ee07beb7)" d="M 515.719793 1015.718438 
L 515.719793 17.798438 
" style="fill:none;stroke:#b0b0b0;stroke-linecap:square;stroke-width:0.8;"/>
     </g>
     <g id="line2d_8">
      <g>
       <use style="stroke:#000000;stroke-width:0.8;" x="515.719793" xlink:href="#mf6d5e1a887" y="1015.718438"/>
      </g>
     </g>
     <g id="text_4">
      <!-- 60000 -->
      <g transform="translate(468.001043 1045.51375)scale(0.3 -0.3)">
       <defs>
        <path d="M 2113 2584 
Q 1688 2584 1439 2293 
Q 1191 2003 1191 1497 
Q 1191 994 1439 701 
Q 1688 409 2113 409 
Q 2538 409 2786 701 
Q 3034 994 3034 1497 
Q 3034 2003 2786 2293 
Q 2538 2584 2113 2584 
z
M 3366 4563 
L 3366 3988 
Q 3128 4100 2886 4159 
Q 2644 4219 2406 4219 
Q 1781 4219 1451 3797 
Q 1122 3375 1075 2522 
Q 1259 2794 1537 2939 
Q 1816 3084 2150 3084 
Q 2853 3084 3261 2657 
Q 3669 2231 3669 1497 
Q 3669 778 3244 343 
Q 2819 -91 2113 -91 
Q 1303 -91 875 529 
Q 447 1150 447 2328 
Q 447 3434 972 4092 
Q 1497 4750 2381 4750 
Q 2619 4750 2861 4703 
Q 3103 4656 3366 4563 
z
" id="DejaVuSans-36" transform="scale(0.015625)"/>
       </defs>
       <use xlink:href="#DejaVuSans-36"/>
       <use x="63.623047" xlink:href="#DejaVuSans-30"/>
       <use x="127.246094" xlink:href="#DejaVuSans-30"/>
       <use x="190.869141" xlink:href="#DejaVuSans-30"/>
       <use x="254.492188" xlink:href="#DejaVuSans-30"/>
      </g>
     </g>
    </g>
    <g id="xtick_5">
     <g id="line2d_9">
      <path clip-path="url(#pd9ee07beb7)" d="M 639.580794 1015.718438 
L 639.580794 17.798438 
" style="fill:none;stroke:#b0b0b0;stroke-linecap:square;stroke-width:0.8;"/>
     </g>
     <g id="line2d_10">
      <g>
       <use style="stroke:#000000;stroke-width:0.8;" x="639.580794" xlink:href="#mf6d5e1a887" y="1015.718438"/>
      </g>
     </g>
     <g id="text_5">
      <!-- 80000 -->
      <g transform="translate(591.862044 1045.51375)scale(0.3 -0.3)">
       <defs>
        <path d="M 2034 2216 
Q 1584 2216 1326 1975 
Q 1069 1734 1069 1313 
Q 1069 891 1326 650 
Q 1584 409 2034 409 
Q 2484 409 2743 651 
Q 3003 894 3003 1313 
Q 3003 1734 2745 1975 
Q 2488 2216 2034 2216 
z
M 1403 2484 
Q 997 2584 770 2862 
Q 544 3141 544 3541 
Q 544 4100 942 4425 
Q 1341 4750 2034 4750 
Q 2731 4750 3128 4425 
Q 3525 4100 3525 3541 
Q 3525 3141 3298 2862 
Q 3072 2584 2669 2484 
Q 3125 2378 3379 2068 
Q 3634 1759 3634 1313 
Q 3634 634 3220 271 
Q 2806 -91 2034 -91 
Q 1263 -91 848 271 
Q 434 634 434 1313 
Q 434 1759 690 2068 
Q 947 2378 1403 2484 
z
M 1172 3481 
Q 1172 3119 1398 2916 
Q 1625 2713 2034 2713 
Q 2441 2713 2670 2916 
Q 2900 3119 2900 3481 
Q 2900 3844 2670 4047 
Q 2441 4250 2034 4250 
Q 1625 4250 1398 4047 
Q 1172 3844 1172 3481 
z
" id="DejaVuSans-38" transform="scale(0.015625)"/>
       </defs>
       <use xlink:href="#DejaVuSans-38"/>
       <use x="63.623047" xlink:href="#DejaVuSans-30"/>
       <use x="127.246094" xlink:href="#DejaVuSans-30"/>
       <use x="190.869141" xlink:href="#DejaVuSans-30"/>
       <use x="254.492188" xlink:href="#DejaVuSans-30"/>
      </g>
     </g>
    </g>
    <g id="xtick_6">
     <g id="line2d_11">
      <path clip-path="url(#pd9ee07beb7)" d="M 763.441794 1015.718438 
L 763.441794 17.798438 
" style="fill:none;stroke:#b0b0b0;stroke-linecap:square;stroke-width:0.8;"/>
     </g>
     <g id="line2d_12">
      <g>
       <use style="stroke:#000000;stroke-width:0.8;" x="763.441794" xlink:href="#mf6d5e1a887" y="1015.718438"/>
      </g>
     </g>
     <g id="text_6">
      <!-- 100000 -->
      <g transform="translate(706.179294 1045.51375)scale(0.3 -0.3)">
       <defs>
        <path d="M 794 531 
L 1825 531 
L 1825 4091 
L 703 3866 
L 703 4441 
L 1819 4666 
L 2450 4666 
L 2450 531 
L 3481 531 
L 3481 0 
L 794 0 
L 794 531 
z
" id="DejaVuSans-31" transform="scale(0.015625)"/>
       </defs>
       <use xlink:href="#DejaVuSans-31"/>
       <use x="63.623047" xlink:href="#DejaVuSans-30"/>
       <use x="127.246094" xlink:href="#DejaVuSans-30"/>
       <use x="190.869141" xlink:href="#DejaVuSans-30"/>
       <use x="254.492188" xlink:href="#DejaVuSans-30"/>
       <use x="318.115234" xlink:href="#DejaVuSans-30"/>
      </g>
     </g>
    </g>
    <g id="xtick_7">
     <g id="line2d_13">
      <path clip-path="url(#pd9ee07beb7)" d="M 887.302794 1015.718438 
L 887.302794 17.798438 
" style="fill:none;stroke:#b0b0b0;stroke-linecap:square;stroke-width:0.8;"/>
     </g>
     <g id="line2d_14">
      <g>
       <use style="stroke:#000000;stroke-width:0.8;" x="887.302794" xlink:href="#mf6d5e1a887" y="1015.718438"/>
      </g>
     </g>
     <g id="text_7">
      <!-- 120000 -->
      <g transform="translate(830.040294 1045.51375)scale(0.3 -0.3)">
       <use xlink:href="#DejaVuSans-31"/>
       <use x="63.623047" xlink:href="#DejaVuSans-32"/>
       <use x="127.246094" xlink:href="#DejaVuSans-30"/>
       <use x="190.869141" xlink:href="#DejaVuSans-30"/>
       <use x="254.492188" xlink:href="#DejaVuSans-30"/>
       <use x="318.115234" xlink:href="#DejaVuSans-30"/>
      </g>
     </g>
    </g>
    <g id="text_8">
     <!-- Input size -->
     <g transform="translate(455.555234 1085.386719)scale(0.39 -0.39)">
      <defs>
       <path d="M 628 4666 
L 1259 4666 
L 1259 0 
L 628 0 
L 628 4666 
z
" id="DejaVuSans-49" transform="scale(0.015625)"/>
       <path d="M 3513 2113 
L 3513 0 
L 2938 0 
L 2938 2094 
Q 2938 2591 2744 2837 
Q 2550 3084 2163 3084 
Q 1697 3084 1428 2787 
Q 1159 2491 1159 1978 
L 1159 0 
L 581 0 
L 581 3500 
L 1159 3500 
L 1159 2956 
Q 1366 3272 1645 3428 
Q 1925 3584 2291 3584 
Q 2894 3584 3203 3211 
Q 3513 2838 3513 2113 
z
" id="DejaVuSans-6e" transform="scale(0.015625)"/>
       <path d="M 1159 525 
L 1159 -1331 
L 581 -1331 
L 581 3500 
L 1159 3500 
L 1159 2969 
Q 1341 3281 1617 3432 
Q 1894 3584 2278 3584 
Q 2916 3584 3314 3078 
Q 3713 2572 3713 1747 
Q 3713 922 3314 415 
Q 2916 -91 2278 -91 
Q 1894 -91 1617 61 
Q 1341 213 1159 525 
z
M 3116 1747 
Q 3116 2381 2855 2742 
Q 2594 3103 2138 3103 
Q 1681 3103 1420 2742 
Q 1159 2381 1159 1747 
Q 1159 1113 1420 752 
Q 1681 391 2138 391 
Q 2594 391 2855 752 
Q 3116 1113 3116 1747 
z
" id="DejaVuSans-70" transform="scale(0.015625)"/>
       <path d="M 544 1381 
L 544 3500 
L 1119 3500 
L 1119 1403 
Q 1119 906 1312 657 
Q 1506 409 1894 409 
Q 2359 409 2629 706 
Q 2900 1003 2900 1516 
L 2900 3500 
L 3475 3500 
L 3475 0 
L 2900 0 
L 2900 538 
Q 2691 219 2414 64 
Q 2138 -91 1772 -91 
Q 1169 -91 856 284 
Q 544 659 544 1381 
z
M 1991 3584 
L 1991 3584 
z
" id="DejaVuSans-75" transform="scale(0.015625)"/>
       <path d="M 1172 4494 
L 1172 3500 
L 2356 3500 
L 2356 3053 
L 1172 3053 
L 1172 1153 
Q 1172 725 1289 603 
Q 1406 481 1766 481 
L 2356 481 
L 2356 0 
L 1766 0 
Q 1100 0 847 248 
Q 594 497 594 1153 
L 594 3053 
L 172 3053 
L 172 3500 
L 594 3500 
L 594 4494 
L 1172 4494 
z
" id="DejaVuSans-74" transform="scale(0.015625)"/>
       <path id="DejaVuSans-20" transform="scale(0.015625)"/>
       <path d="M 2834 3397 
L 2834 2853 
Q 2591 2978 2328 3040 
Q 2066 3103 1784 3103 
Q 1356 3103 1142 2972 
Q 928 2841 928 2578 
Q 928 2378 1081 2264 
Q 1234 2150 1697 2047 
L 1894 2003 
Q 2506 1872 2764 1633 
Q 3022 1394 3022 966 
Q 3022 478 2636 193 
Q 2250 -91 1575 -91 
Q 1294 -91 989 -36 
Q 684 19 347 128 
L 347 722 
Q 666 556 975 473 
Q 1284 391 1588 391 
Q 1994 391 2212 530 
Q 2431 669 2431 922 
Q 2431 1156 2273 1281 
Q 2116 1406 1581 1522 
L 1381 1569 
Q 847 1681 609 1914 
Q 372 2147 372 2553 
Q 372 3047 722 3315 
Q 1072 3584 1716 3584 
Q 2034 3584 2315 3537 
Q 2597 3491 2834 3397 
z
" id="DejaVuSans-73" transform="scale(0.015625)"/>
       <path d="M 603 3500 
L 1178 3500 
L 1178 0 
L 603 0 
L 603 3500 
z
M 603 4863 
L 1178 4863 
L 1178 4134 
L 603 4134 
L 603 4863 
z
" id="DejaVuSans-69" transform="scale(0.015625)"/>
       <path d="M 353 3500 
L 3084 3500 
L 3084 2975 
L 922 459 
L 3084 459 
L 3084 0 
L 275 0 
L 275 525 
L 2438 3041 
L 353 3041 
L 353 3500 
z
" id="DejaVuSans-7a" transform="scale(0.015625)"/>
       <path d="M 3597 1894 
L 3597 1613 
L 953 1613 
Q 991 1019 1311 708 
Q 1631 397 2203 397 
Q 2534 397 2845 478 
Q 3156 559 3463 722 
L 3463 178 
Q 3153 47 2828 -22 
Q 2503 -91 2169 -91 
Q 1331 -91 842 396 
Q 353 884 353 1716 
Q 353 2575 817 3079 
Q 1281 3584 2069 3584 
Q 2775 3584 3186 3129 
Q 3597 2675 3597 1894 
z
M 3022 2063 
Q 3016 2534 2758 2815 
Q 2500 3097 2075 3097 
Q 1594 3097 1305 2825 
Q 1016 2553 972 2059 
L 3022 2063 
z
" id="DejaVuSans-65" transform="scale(0.015625)"/>
      </defs>
      <use xlink:href="#DejaVuSans-49"/>
      <use x="29.492188" xlink:href="#DejaVuSans-6e"/>
      <use x="92.871094" xlink:href="#DejaVuSans-70"/>
      <use x="156.347656" xlink:href="#DejaVuSans-75"/>
      <use x="219.726562" xlink:href="#DejaVuSans-74"/>
      <use x="258.935547" xlink:href="#DejaVuSans-20"/>
      <use x="290.722656" xlink:href="#DejaVuSans-73"/>
      <use x="342.822266" xlink:href="#DejaVuSans-69"/>
      <use x="370.605469" xlink:href="#DejaVuSans-7a"/>
      <use x="423.095703" xlink:href="#DejaVuSans-65"/>
     </g>
    </g>
   </g>
   <g id="matplotlib.axis_2">
    <g id="ytick_1">
     <g id="line2d_15">
      <path clip-path="url(#pd9ee07beb7)" d="M 103.654063 970.358595 
L 996.454062 970.358595 
" style="fill:none;stroke:#b0b0b0;stroke-linecap:square;stroke-width:0.8;"/>
     </g>
     <g id="line2d_16">
      <defs>
       <path d="M 0 0 
L -3.5 0 
" id="m92f1fbdd5d" style="stroke:#000000;stroke-width:0.8;"/>
      </defs>
      <g>
       <use style="stroke:#000000;stroke-width:0.8;" x="103.654063" xlink:href="#m92f1fbdd5d" y="970.358595"/>
      </g>
     </g>
     <g id="text_9">
      <!-- 0.0 -->
      <g transform="translate(48.944688 981.756251)scale(0.3 -0.3)">
       <defs>
        <path d="M 684 794 
L 1344 794 
L 1344 0 
L 684 0 
L 684 794 
z
" id="DejaVuSans-2e" transform="scale(0.015625)"/>
       </defs>
       <use xlink:href="#DejaVuSans-30"/>
       <use x="63.623047" xlink:href="#DejaVuSans-2e"/>
       <use x="95.410156" xlink:href="#DejaVuSans-30"/>
      </g>
     </g>
    </g>
    <g id="ytick_2">
     <g id="line2d_17">
      <path clip-path="url(#pd9ee07beb7)" d="M 103.654063 783.74337 
L 996.454062 783.74337 
" style="fill:none;stroke:#b0b0b0;stroke-linecap:square;stroke-width:0.8;"/>
     </g>
     <g id="line2d_18">
      <g>
       <use style="stroke:#000000;stroke-width:0.8;" x="103.654063" xlink:href="#m92f1fbdd5d" y="783.74337"/>
      </g>
     </g>
     <g id="text_10">
      <!-- 0.2 -->
      <g transform="translate(48.944688 795.141027)scale(0.3 -0.3)">
       <use xlink:href="#DejaVuSans-30"/>
       <use x="63.623047" xlink:href="#DejaVuSans-2e"/>
       <use x="95.410156" xlink:href="#DejaVuSans-32"/>
      </g>
     </g>
    </g>
    <g id="ytick_3">
     <g id="line2d_19">
      <path clip-path="url(#pd9ee07beb7)" d="M 103.654063 597.128146 
L 996.454062 597.128146 
" style="fill:none;stroke:#b0b0b0;stroke-linecap:square;stroke-width:0.8;"/>
     </g>
     <g id="line2d_20">
      <g>
       <use style="stroke:#000000;stroke-width:0.8;" x="103.654063" xlink:href="#m92f1fbdd5d" y="597.128146"/>
      </g>
     </g>
     <g id="text_11">
      <!-- 0.4 -->
      <g transform="translate(48.944688 608.525802)scale(0.3 -0.3)">
       <use xlink:href="#DejaVuSans-30"/>
       <use x="63.623047" xlink:href="#DejaVuSans-2e"/>
       <use x="95.410156" xlink:href="#DejaVuSans-34"/>
      </g>
     </g>
    </g>
    <g id="ytick_4">
     <g id="line2d_21">
      <path clip-path="url(#pd9ee07beb7)" d="M 103.654063 410.512921 
L 996.454062 410.512921 
" style="fill:none;stroke:#b0b0b0;stroke-linecap:square;stroke-width:0.8;"/>
     </g>
     <g id="line2d_22">
      <g>
       <use style="stroke:#000000;stroke-width:0.8;" x="103.654063" xlink:href="#m92f1fbdd5d" y="410.512921"/>
      </g>
     </g>
     <g id="text_12">
      <!-- 0.6 -->
      <g transform="translate(48.944688 421.910577)scale(0.3 -0.3)">
       <use xlink:href="#DejaVuSans-30"/>
       <use x="63.623047" xlink:href="#DejaVuSans-2e"/>
       <use x="95.410156" xlink:href="#DejaVuSans-36"/>
      </g>
     </g>
    </g>
    <g id="ytick_5">
     <g id="line2d_23">
      <path clip-path="url(#pd9ee07beb7)" d="M 103.654063 223.897696 
L 996.454062 223.897696 
" style="fill:none;stroke:#b0b0b0;stroke-linecap:square;stroke-width:0.8;"/>
     </g>
     <g id="line2d_24">
      <g>
       <use style="stroke:#000000;stroke-width:0.8;" x="103.654063" xlink:href="#m92f1fbdd5d" y="223.897696"/>
      </g>
     </g>
     <g id="text_13">
      <!-- 0.8 -->
      <g transform="translate(48.944688 235.295353)scale(0.3 -0.3)">
       <use xlink:href="#DejaVuSans-30"/>
       <use x="63.623047" xlink:href="#DejaVuSans-2e"/>
       <use x="95.410156" xlink:href="#DejaVuSans-38"/>
      </g>
     </g>
    </g>
    <g id="ytick_6">
     <g id="line2d_25">
      <path clip-path="url(#pd9ee07beb7)" d="M 103.654063 37.282472 
L 996.454062 37.282472 
" style="fill:none;stroke:#b0b0b0;stroke-linecap:square;stroke-width:0.8;"/>
     </g>
     <g id="line2d_26">
      <g>
       <use style="stroke:#000000;stroke-width:0.8;" x="103.654063" xlink:href="#m92f1fbdd5d" y="37.282472"/>
      </g>
     </g>
     <g id="text_14">
      <!-- 1.0 -->
      <g transform="translate(48.944688 48.680128)scale(0.3 -0.3)">
       <use xlink:href="#DejaVuSans-31"/>
       <use x="63.623047" xlink:href="#DejaVuSans-2e"/>
       <use x="95.410156" xlink:href="#DejaVuSans-30"/>
      </g>
     </g>
    </g>
    <g id="text_15">
     <!-- Avg. number of operations / size -->
     <g transform="translate(36.833906 833.121563)rotate(-90)scale(0.39 -0.39)">
      <defs>
       <path d="M 2188 4044 
L 1331 1722 
L 3047 1722 
L 2188 4044 
z
M 1831 4666 
L 2547 4666 
L 4325 0 
L 3669 0 
L 3244 1197 
L 1141 1197 
L 716 0 
L 50 0 
L 1831 4666 
z
" id="DejaVuSans-41" transform="scale(0.015625)"/>
       <path d="M 191 3500 
L 800 3500 
L 1894 563 
L 2988 3500 
L 3597 3500 
L 2284 0 
L 1503 0 
L 191 3500 
z
" id="DejaVuSans-76" transform="scale(0.015625)"/>
       <path d="M 2906 1791 
Q 2906 2416 2648 2759 
Q 2391 3103 1925 3103 
Q 1463 3103 1205 2759 
Q 947 2416 947 1791 
Q 947 1169 1205 825 
Q 1463 481 1925 481 
Q 2391 481 2648 825 
Q 2906 1169 2906 1791 
z
M 3481 434 
Q 3481 -459 3084 -895 
Q 2688 -1331 1869 -1331 
Q 1566 -1331 1297 -1286 
Q 1028 -1241 775 -1147 
L 775 -588 
Q 1028 -725 1275 -790 
Q 1522 -856 1778 -856 
Q 2344 -856 2625 -561 
Q 2906 -266 2906 331 
L 2906 616 
Q 2728 306 2450 153 
Q 2172 0 1784 0 
Q 1141 0 747 490 
Q 353 981 353 1791 
Q 353 2603 747 3093 
Q 1141 3584 1784 3584 
Q 2172 3584 2450 3431 
Q 2728 3278 2906 2969 
L 2906 3500 
L 3481 3500 
L 3481 434 
z
" id="DejaVuSans-67" transform="scale(0.015625)"/>
       <path d="M 3328 2828 
Q 3544 3216 3844 3400 
Q 4144 3584 4550 3584 
Q 5097 3584 5394 3201 
Q 5691 2819 5691 2113 
L 5691 0 
L 5113 0 
L 5113 2094 
Q 5113 2597 4934 2840 
Q 4756 3084 4391 3084 
Q 3944 3084 3684 2787 
Q 3425 2491 3425 1978 
L 3425 0 
L 2847 0 
L 2847 2094 
Q 2847 2600 2669 2842 
Q 2491 3084 2119 3084 
Q 1678 3084 1418 2786 
Q 1159 2488 1159 1978 
L 1159 0 
L 581 0 
L 581 3500 
L 1159 3500 
L 1159 2956 
Q 1356 3278 1631 3431 
Q 1906 3584 2284 3584 
Q 2666 3584 2933 3390 
Q 3200 3197 3328 2828 
z
" id="DejaVuSans-6d" transform="scale(0.015625)"/>
       <path d="M 3116 1747 
Q 3116 2381 2855 2742 
Q 2594 3103 2138 3103 
Q 1681 3103 1420 2742 
Q 1159 2381 1159 1747 
Q 1159 1113 1420 752 
Q 1681 391 2138 391 
Q 2594 391 2855 752 
Q 3116 1113 3116 1747 
z
M 1159 2969 
Q 1341 3281 1617 3432 
Q 1894 3584 2278 3584 
Q 2916 3584 3314 3078 
Q 3713 2572 3713 1747 
Q 3713 922 3314 415 
Q 2916 -91 2278 -91 
Q 1894 -91 1617 61 
Q 1341 213 1159 525 
L 1159 0 
L 581 0 
L 581 4863 
L 1159 4863 
L 1159 2969 
z
" id="DejaVuSans-62" transform="scale(0.015625)"/>
       <path d="M 2631 2963 
Q 2534 3019 2420 3045 
Q 2306 3072 2169 3072 
Q 1681 3072 1420 2755 
Q 1159 2438 1159 1844 
L 1159 0 
L 581 0 
L 581 3500 
L 1159 3500 
L 1159 2956 
Q 1341 3275 1631 3429 
Q 1922 3584 2338 3584 
Q 2397 3584 2469 3576 
Q 2541 3569 2628 3553 
L 2631 2963 
z
" id="DejaVuSans-72" transform="scale(0.015625)"/>
       <path d="M 1959 3097 
Q 1497 3097 1228 2736 
Q 959 2375 959 1747 
Q 959 1119 1226 758 
Q 1494 397 1959 397 
Q 2419 397 2687 759 
Q 2956 1122 2956 1747 
Q 2956 2369 2687 2733 
Q 2419 3097 1959 3097 
z
M 1959 3584 
Q 2709 3584 3137 3096 
Q 3566 2609 3566 1747 
Q 3566 888 3137 398 
Q 2709 -91 1959 -91 
Q 1206 -91 779 398 
Q 353 888 353 1747 
Q 353 2609 779 3096 
Q 1206 3584 1959 3584 
z
" id="DejaVuSans-6f" transform="scale(0.015625)"/>
       <path d="M 2375 4863 
L 2375 4384 
L 1825 4384 
Q 1516 4384 1395 4259 
Q 1275 4134 1275 3809 
L 1275 3500 
L 2222 3500 
L 2222 3053 
L 1275 3053 
L 1275 0 
L 697 0 
L 697 3053 
L 147 3053 
L 147 3500 
L 697 3500 
L 697 3744 
Q 697 4328 969 4595 
Q 1241 4863 1831 4863 
L 2375 4863 
z
" id="DejaVuSans-66" transform="scale(0.015625)"/>
       <path d="M 2194 1759 
Q 1497 1759 1228 1600 
Q 959 1441 959 1056 
Q 959 750 1161 570 
Q 1363 391 1709 391 
Q 2188 391 2477 730 
Q 2766 1069 2766 1631 
L 2766 1759 
L 2194 1759 
z
M 3341 1997 
L 3341 0 
L 2766 0 
L 2766 531 
Q 2569 213 2275 61 
Q 1981 -91 1556 -91 
Q 1019 -91 701 211 
Q 384 513 384 1019 
Q 384 1609 779 1909 
Q 1175 2209 1959 2209 
L 2766 2209 
L 2766 2266 
Q 2766 2663 2505 2880 
Q 2244 3097 1772 3097 
Q 1472 3097 1187 3025 
Q 903 2953 641 2809 
L 641 3341 
Q 956 3463 1253 3523 
Q 1550 3584 1831 3584 
Q 2591 3584 2966 3190 
Q 3341 2797 3341 1997 
z
" id="DejaVuSans-61" transform="scale(0.015625)"/>
       <path d="M 1625 4666 
L 2156 4666 
L 531 -594 
L 0 -594 
L 1625 4666 
z
" id="DejaVuSans-2f" transform="scale(0.015625)"/>
      </defs>
      <use xlink:href="#DejaVuSans-41"/>
      <use x="62.533203" xlink:href="#DejaVuSans-76"/>
      <use x="121.712891" xlink:href="#DejaVuSans-67"/>
      <use x="185.189453" xlink:href="#DejaVuSans-2e"/>
      <use x="216.976562" xlink:href="#DejaVuSans-20"/>
      <use x="248.763672" xlink:href="#DejaVuSans-6e"/>
      <use x="312.142578" xlink:href="#DejaVuSans-75"/>
      <use x="375.521484" xlink:href="#DejaVuSans-6d"/>
      <use x="472.933594" xlink:href="#DejaVuSans-62"/>
      <use x="536.410156" xlink:href="#DejaVuSans-65"/>
      <use x="597.933594" xlink:href="#DejaVuSans-72"/>
      <use x="639.046875" xlink:href="#DejaVuSans-20"/>
      <use x="670.833984" xlink:href="#DejaVuSans-6f"/>
      <use x="732.015625" xlink:href="#DejaVuSans-66"/>
      <use x="767.220703" xlink:href="#DejaVuSans-20"/>
      <use x="799.007812" xlink:href="#DejaVuSans-6f"/>
      <use x="860.189453" xlink:href="#DejaVuSans-70"/>
      <use x="923.666016" xlink:href="#DejaVuSans-65"/>
      <use x="985.189453" xlink:href="#DejaVuSans-72"/>
      <use x="1026.302734" xlink:href="#DejaVuSans-61"/>
      <use x="1087.582031" xlink:href="#DejaVuSans-74"/>
      <use x="1126.791016" xlink:href="#DejaVuSans-69"/>
      <use x="1154.574219" xlink:href="#DejaVuSans-6f"/>
      <use x="1215.755859" xlink:href="#DejaVuSans-6e"/>
      <use x="1279.134766" xlink:href="#DejaVuSans-73"/>
      <use x="1331.234375" xlink:href="#DejaVuSans-20"/>
      <use x="1363.021484" xlink:href="#DejaVuSans-2f"/>
      <use x="1396.712891" xlink:href="#DejaVuSans-20"/>
      <use x="1428.5" xlink:href="#DejaVuSans-73"/>
      <use x="1480.599609" xlink:href="#DejaVuSans-69"/>
      <use x="1508.382812" xlink:href="#DejaVuSans-7a"/>
      <use x="1560.873047" xlink:href="#DejaVuSans-65"/>
     </g>
    </g>
    <g id="text_16">
     <!-- 1e7 -->
     <g transform="translate(103.654063 14.798438)scale(0.1 -0.1)">
      <defs>
       <path d="M 525 4666 
L 3525 4666 
L 3525 4397 
L 1831 0 
L 1172 0 
L 2766 4134 
L 525 4134 
L 525 4666 
z
" id="DejaVuSans-37" transform="scale(0.015625)"/>
      </defs>
      <use xlink:href="#DejaVuSans-31"/>
      <use x="63.623047" xlink:href="#DejaVuSans-65"/>
      <use x="125.146484" xlink:href="#DejaVuSans-37"/>
     </g>
    </g>
   </g>
   <g id="line2d_27">
    <path clip-path="url(#pd9ee07beb7)" d="M 144.235881 970.358316 
L 144.334969 970.358197 
L 144.533147 970.358074 
L 144.929502 970.357932 
L 145.722213 970.357806 
L 147.307633 970.35768 
L 150.478475 970.357554 
L 156.820158 970.357434 
L 169.503525 970.357317 
L 194.870258 970.3572 
L 245.603723 970.357083 
L 347.070655 970.356967 
L 550.004518 970.356851 
L 955.872244 970.356735 
" style="fill:none;stroke:#fe0002;stroke-linecap:square;stroke-width:1.5;"/>
    <defs>
     <path d="M 0 4.5 
C 1.193414 4.5 2.338109 4.025852 3.181981 3.181981 
C 4.025852 2.338109 4.5 1.193414 4.5 0 
C 4.5 -1.193414 4.025852 -2.338109 3.181981 -3.181981 
C 2.338109 -4.025852 1.193414 -4.5 0 -4.5 
C -1.193414 -4.5 -2.338109 -4.025852 -3.181981 -3.181981 
C -4.025852 -2.338109 -4.5 -1.193414 -4.5 0 
C -4.5 1.193414 -4.025852 2.338109 -3.181981 3.181981 
C -2.338109 4.025852 -1.193414 4.5 0 4.5 
z
" id="m2d8ea983bd" style="stroke:#000000;"/>
    </defs>
    <g clip-path="url(#pd9ee07beb7)">
     <use style="fill:#fe0002;stroke:#000000;" x="144.235881" xlink:href="#m2d8ea983bd" y="970.358316"/>
     <use style="fill:#fe0002;stroke:#000000;" x="144.334969" xlink:href="#m2d8ea983bd" y="970.358197"/>
     <use style="fill:#fe0002;stroke:#000000;" x="144.533147" xlink:href="#m2d8ea983bd" y="970.358074"/>
     <use style="fill:#fe0002;stroke:#000000;" x="144.929502" xlink:href="#m2d8ea983bd" y="970.357932"/>
     <use style="fill:#fe0002;stroke:#000000;" x="145.722213" xlink:href="#m2d8ea983bd" y="970.357806"/>
     <use style="fill:#fe0002;stroke:#000000;" x="147.307633" xlink:href="#m2d8ea983bd" y="970.35768"/>
     <use style="fill:#fe0002;stroke:#000000;" x="150.478475" xlink:href="#m2d8ea983bd" y="970.357554"/>
     <use style="fill:#fe0002;stroke:#000000;" x="156.820158" xlink:href="#m2d8ea983bd" y="970.357434"/>
     <use style="fill:#fe0002;stroke:#000000;" x="169.503525" xlink:href="#m2d8ea983bd" y="970.357317"/>
     <use style="fill:#fe0002;stroke:#000000;" x="194.870258" xlink:href="#m2d8ea983bd" y="970.3572"/>
     <use style="fill:#fe0002;stroke:#000000;" x="245.603723" xlink:href="#m2d8ea983bd" y="970.357083"/>
     <use style="fill:#fe0002;stroke:#000000;" x="347.070655" xlink:href="#m2d8ea983bd" y="970.356967"/>
     <use style="fill:#fe0002;stroke:#000000;" x="550.004518" xlink:href="#m2d8ea983bd" y="970.356851"/>
     <use style="fill:#fe0002;stroke:#000000;" x="955.872244" xlink:href="#m2d8ea983bd" y="970.356735"/>
    </g>
   </g>
   <g id="line2d_28">
    <path clip-path="url(#pd9ee07beb7)" d="M 144.235881 970.358316 
L 144.334969 970.358197 
L 144.533147 970.358074 
L 144.929502 970.357932 
L 145.722213 970.357806 
L 147.307633 970.35768 
L 150.478475 970.357554 
L 156.820158 970.357434 
L 169.503525 970.357317 
L 194.870258 970.3572 
L 245.603723 970.357083 
L 347.070655 970.356967 
L 550.004518 970.356851 
L 955.872244 970.356735 
" style="fill:none;stroke:#fe0002;stroke-dasharray:5.55,2.4;stroke-dashoffset:0;stroke-width:1.5;"/>
    <g clip-path="url(#pd9ee07beb7)">
     <use style="fill:#fe0002;stroke:#000000;" x="144.235881" xlink:href="#m2d8ea983bd" y="970.358316"/>
     <use style="fill:#fe0002;stroke:#000000;" x="144.334969" xlink:href="#m2d8ea983bd" y="970.358197"/>
     <use style="fill:#fe0002;stroke:#000000;" x="144.533147" xlink:href="#m2d8ea983bd" y="970.358074"/>
     <use style="fill:#fe0002;stroke:#000000;" x="144.929502" xlink:href="#m2d8ea983bd" y="970.357932"/>
     <use style="fill:#fe0002;stroke:#000000;" x="145.722213" xlink:href="#m2d8ea983bd" y="970.357806"/>
     <use style="fill:#fe0002;stroke:#000000;" x="147.307633" xlink:href="#m2d8ea983bd" y="970.35768"/>
     <use style="fill:#fe0002;stroke:#000000;" x="150.478475" xlink:href="#m2d8ea983bd" y="970.357554"/>
     <use style="fill:#fe0002;stroke:#000000;" x="156.820158" xlink:href="#m2d8ea983bd" y="970.357434"/>
     <use style="fill:#fe0002;stroke:#000000;" x="169.503525" xlink:href="#m2d8ea983bd" y="970.357317"/>
     <use style="fill:#fe0002;stroke:#000000;" x="194.870258" xlink:href="#m2d8ea983bd" y="970.3572"/>
     <use style="fill:#fe0002;stroke:#000000;" x="245.603723" xlink:href="#m2d8ea983bd" y="970.357083"/>
     <use style="fill:#fe0002;stroke:#000000;" x="347.070655" xlink:href="#m2d8ea983bd" y="970.356967"/>
     <use style="fill:#fe0002;stroke:#000000;" x="550.004518" xlink:href="#m2d8ea983bd" y="970.356851"/>
     <use style="fill:#fe0002;stroke:#000000;" x="955.872244" xlink:href="#m2d8ea983bd" y="970.356735"/>
    </g>
   </g>
   <g id="line2d_29">
    <path clip-path="url(#pd9ee07beb7)" d="M 144.235881 970.358315 
L 144.334969 970.358197 
L 144.533147 970.358051 
L 144.929502 970.357899 
L 145.722213 970.357775 
L 147.307633 970.357607 
L 150.478475 970.357452 
L 156.820158 970.35729 
L 169.503525 970.357132 
L 194.870258 970.356972 
L 245.603723 970.35681 
L 347.070655 970.356649 
L 550.004518 970.356487 
L 955.872244 970.356324 
" style="fill:none;stroke:#53fca1;stroke-linecap:square;stroke-width:1.5;"/>
    <defs>
     <path d="M 0 -4.5 
L -4.5 4.5 
L 4.5 4.5 
z
" id="m4a803f5436" style="stroke:#000000;stroke-linejoin:miter;"/>
    </defs>
    <g clip-path="url(#pd9ee07beb7)">
     <use style="fill:#53fca1;stroke:#000000;stroke-linejoin:miter;" x="144.235881" xlink:href="#m4a803f5436" y="970.358315"/>
     <use style="fill:#53fca1;stroke:#000000;stroke-linejoin:miter;" x="144.334969" xlink:href="#m4a803f5436" y="970.358197"/>
     <use style="fill:#53fca1;stroke:#000000;stroke-linejoin:miter;" x="144.533147" xlink:href="#m4a803f5436" y="970.358051"/>
     <use style="fill:#53fca1;stroke:#000000;stroke-linejoin:miter;" x="144.929502" xlink:href="#m4a803f5436" y="970.357899"/>
     <use style="fill:#53fca1;stroke:#000000;stroke-linejoin:miter;" x="145.722213" xlink:href="#m4a803f5436" y="970.357775"/>
     <use style="fill:#53fca1;stroke:#000000;stroke-linejoin:miter;" x="147.307633" xlink:href="#m4a803f5436" y="970.357607"/>
     <use style="fill:#53fca1;stroke:#000000;stroke-linejoin:miter;" x="150.478475" xlink:href="#m4a803f5436" y="970.357452"/>
     <use style="fill:#53fca1;stroke:#000000;stroke-linejoin:miter;" x="156.820158" xlink:href="#m4a803f5436" y="970.35729"/>
     <use style="fill:#53fca1;stroke:#000000;stroke-linejoin:miter;" x="169.503525" xlink:href="#m4a803f5436" y="970.357132"/>
     <use style="fill:#53fca1;stroke:#000000;stroke-linejoin:miter;" x="194.870258" xlink:href="#m4a803f5436" y="970.356972"/>
     <use style="fill:#53fca1;stroke:#000000;stroke-linejoin:miter;" x="245.603723" xlink:href="#m4a803f5436" y="970.35681"/>
     <use style="fill:#53fca1;stroke:#000000;stroke-linejoin:miter;" x="347.070655" xlink:href="#m4a803f5436" y="970.356649"/>
     <use style="fill:#53fca1;stroke:#000000;stroke-linejoin:miter;" x="550.004518" xlink:href="#m4a803f5436" y="970.356487"/>
     <use style="fill:#53fca1;stroke:#000000;stroke-linejoin:miter;" x="955.872244" xlink:href="#m4a803f5436" y="970.356324"/>
    </g>
   </g>
   <g id="line2d_30">
    <path clip-path="url(#pd9ee07beb7)" d="M 144.235881 970.358389 
L 144.334969 970.358313 
L 144.533147 970.358229 
L 144.929502 970.358135 
L 145.722213 970.358068 
L 147.307633 970.357979 
L 150.478475 970.357898 
L 156.820158 970.357815 
L 169.503525 970.357734 
L 194.870258 970.357653 
L 245.603723 970.357571 
L 347.070655 970.35749 
L 550.004518 970.357409 
L 955.872244 970.357327 
" style="fill:none;stroke:#53fca1;stroke-dasharray:5.55,2.4;stroke-dashoffset:0;stroke-width:1.5;"/>
    <defs>
     <path d="M 0 6.363961 
L 6.363961 0 
L 0 -6.363961 
L -6.363961 0 
z
" id="m2d5ba2a217" style="stroke:#000000;stroke-linejoin:miter;"/>
    </defs>
    <g clip-path="url(#pd9ee07beb7)">
     <use style="fill:#53fca1;stroke:#000000;stroke-linejoin:miter;" x="144.235881" xlink:href="#m2d5ba2a217" y="970.358389"/>
     <use style="fill:#53fca1;stroke:#000000;stroke-linejoin:miter;" x="144.334969" xlink:href="#m2d5ba2a217" y="970.358313"/>
     <use style="fill:#53fca1;stroke:#000000;stroke-linejoin:miter;" x="144.533147" xlink:href="#m2d5ba2a217" y="970.358229"/>
     <use style="fill:#53fca1;stroke:#000000;stroke-linejoin:miter;" x="144.929502" xlink:href="#m2d5ba2a217" y="970.358135"/>
     <use style="fill:#53fca1;stroke:#000000;stroke-linejoin:miter;" x="145.722213" xlink:href="#m2d5ba2a217" y="970.358068"/>
     <use style="fill:#53fca1;stroke:#000000;stroke-linejoin:miter;" x="147.307633" xlink:href="#m2d5ba2a217" y="970.357979"/>
     <use style="fill:#53fca1;stroke:#000000;stroke-linejoin:miter;" x="150.478475" xlink:href="#m2d5ba2a217" y="970.357898"/>
     <use style="fill:#53fca1;stroke:#000000;stroke-linejoin:miter;" x="156.820158" xlink:href="#m2d5ba2a217" y="970.357815"/>
     <use style="fill:#53fca1;stroke:#000000;stroke-linejoin:miter;" x="169.503525" xlink:href="#m2d5ba2a217" y="970.357734"/>
     <use style="fill:#53fca1;stroke:#000000;stroke-linejoin:miter;" x="194.870258" xlink:href="#m2d5ba2a217" y="970.357653"/>
     <use style="fill:#53fca1;stroke:#000000;stroke-linejoin:miter;" x="245.603723" xlink:href="#m2d5ba2a217" y="970.357571"/>
     <use style="fill:#53fca1;stroke:#000000;stroke-linejoin:miter;" x="347.070655" xlink:href="#m2d5ba2a217" y="970.35749"/>
     <use style="fill:#53fca1;stroke:#000000;stroke-linejoin:miter;" x="550.004518" xlink:href="#m2d5ba2a217" y="970.357409"/>
     <use style="fill:#53fca1;stroke:#000000;stroke-linejoin:miter;" x="955.872244" xlink:href="#m2d5ba2a217" y="970.357327"/>
    </g>
   </g>
   <g id="line2d_31">
    <path clip-path="url(#pd9ee07beb7)" d="M 144.235881 970.358316 
L 144.334969 970.358197 
L 144.533147 970.35805 
L 144.929502 970.357883 
L 145.722213 970.357717 
L 147.307633 970.357518 
L 150.478475 970.357328 
L 156.820158 970.357126 
L 169.503525 970.356928 
L 194.870258 970.356724 
L 245.603723 970.356519 
L 347.070655 970.356317 
L 550.004518 970.356116 
L 955.872244 970.355917 
" style="fill:none;stroke:#0652ff;stroke-linecap:square;stroke-width:1.5;"/>
    <defs>
     <path d="M 0 -4.5 
L -4.279754 -1.390576 
L -2.645034 3.640576 
L 2.645034 3.640576 
L 4.279754 -1.390576 
z
" id="md94160ec41" style="stroke:#000000;stroke-linejoin:miter;"/>
    </defs>
    <g clip-path="url(#pd9ee07beb7)">
     <use style="fill:#0652ff;stroke:#000000;stroke-linejoin:miter;" x="144.235881" xlink:href="#md94160ec41" y="970.358316"/>
     <use style="fill:#0652ff;stroke:#000000;stroke-linejoin:miter;" x="144.334969" xlink:href="#md94160ec41" y="970.358197"/>
     <use style="fill:#0652ff;stroke:#000000;stroke-linejoin:miter;" x="144.533147" xlink:href="#md94160ec41" y="970.35805"/>
     <use style="fill:#0652ff;stroke:#000000;stroke-linejoin:miter;" x="144.929502" xlink:href="#md94160ec41" y="970.357883"/>
     <use style="fill:#0652ff;stroke:#000000;stroke-linejoin:miter;" x="145.722213" xlink:href="#md94160ec41" y="970.357717"/>
     <use style="fill:#0652ff;stroke:#000000;stroke-linejoin:miter;" x="147.307633" xlink:href="#md94160ec41" y="970.357518"/>
     <use style="fill:#0652ff;stroke:#000000;stroke-linejoin:miter;" x="150.478475" xlink:href="#md94160ec41" y="970.357328"/>
     <use style="fill:#0652ff;stroke:#000000;stroke-linejoin:miter;" x="156.820158" xlink:href="#md94160ec41" y="970.357126"/>
     <use style="fill:#0652ff;stroke:#000000;stroke-linejoin:miter;" x="169.503525" xlink:href="#md94160ec41" y="970.356928"/>
     <use style="fill:#0652ff;stroke:#000000;stroke-linejoin:miter;" x="194.870258" xlink:href="#md94160ec41" y="970.356724"/>
     <use style="fill:#0652ff;stroke:#000000;stroke-linejoin:miter;" x="245.603723" xlink:href="#md94160ec41" y="970.356519"/>
     <use style="fill:#0652ff;stroke:#000000;stroke-linejoin:miter;" x="347.070655" xlink:href="#md94160ec41" y="970.356317"/>
     <use style="fill:#0652ff;stroke:#000000;stroke-linejoin:miter;" x="550.004518" xlink:href="#md94160ec41" y="970.356116"/>
     <use style="fill:#0652ff;stroke:#000000;stroke-linejoin:miter;" x="955.872244" xlink:href="#md94160ec41" y="970.355917"/>
    </g>
   </g>
   <g id="line2d_32">
    <path clip-path="url(#pd9ee07beb7)" d="M 144.235881 970.358389 
L 144.334969 970.358308 
L 144.533147 970.358207 
L 144.929502 970.358106 
L 145.722213 970.358005 
L 147.307633 970.357881 
L 150.478475 970.357763 
L 156.820158 970.357642 
L 169.503525 970.357524 
L 194.870258 970.357403 
L 245.603723 970.357282 
L 347.070655 970.357163 
L 550.004518 970.357044 
L 955.872244 970.356926 
" style="fill:none;stroke:#0652ff;stroke-dasharray:5.55,2.4;stroke-dashoffset:0;stroke-width:1.5;"/>
    <defs>
     <path d="M -2.25 4.5 
L 0 2.25 
L 2.25 4.5 
L 4.5 2.25 
L 2.25 0 
L 4.5 -2.25 
L 2.25 -4.5 
L 0 -2.25 
L -2.25 -4.5 
L -4.5 -2.25 
L -2.25 0 
L -4.5 2.25 
z
" id="m063a166c2f" style="stroke:#000000;stroke-linejoin:miter;"/>
    </defs>
    <g clip-path="url(#pd9ee07beb7)">
     <use style="fill:#0652ff;stroke:#000000;stroke-linejoin:miter;" x="144.235881" xlink:href="#m063a166c2f" y="970.358389"/>
     <use style="fill:#0652ff;stroke:#000000;stroke-linejoin:miter;" x="144.334969" xlink:href="#m063a166c2f" y="970.358308"/>
     <use style="fill:#0652ff;stroke:#000000;stroke-linejoin:miter;" x="144.533147" xlink:href="#m063a166c2f" y="970.358207"/>
     <use style="fill:#0652ff;stroke:#000000;stroke-linejoin:miter;" x="144.929502" xlink:href="#m063a166c2f" y="970.358106"/>
     <use style="fill:#0652ff;stroke:#000000;stroke-linejoin:miter;" x="145.722213" xlink:href="#m063a166c2f" y="970.358005"/>
     <use style="fill:#0652ff;stroke:#000000;stroke-linejoin:miter;" x="147.307633" xlink:href="#m063a166c2f" y="970.357881"/>
     <use style="fill:#0652ff;stroke:#000000;stroke-linejoin:miter;" x="150.478475" xlink:href="#m063a166c2f" y="970.357763"/>
     <use style="fill:#0652ff;stroke:#000000;stroke-linejoin:miter;" x="156.820158" xlink:href="#m063a166c2f" y="970.357642"/>
     <use style="fill:#0652ff;stroke:#000000;stroke-linejoin:miter;" x="169.503525" xlink:href="#m063a166c2f" y="970.357524"/>
     <use style="fill:#0652ff;stroke:#000000;stroke-linejoin:miter;" x="194.870258" xlink:href="#m063a166c2f" y="970.357403"/>
     <use style="fill:#0652ff;stroke:#000000;stroke-linejoin:miter;" x="245.603723" xlink:href="#m063a166c2f" y="970.357282"/>
     <use style="fill:#0652ff;stroke:#000000;stroke-linejoin:miter;" x="347.070655" xlink:href="#m063a166c2f" y="970.357163"/>
     <use style="fill:#0652ff;stroke:#000000;stroke-linejoin:miter;" x="550.004518" xlink:href="#m063a166c2f" y="970.357044"/>
     <use style="fill:#0652ff;stroke:#000000;stroke-linejoin:miter;" x="955.872244" xlink:href="#m063a166c2f" y="970.356926"/>
    </g>
   </g>
   <g id="line2d_33">
    <path clip-path="url(#pd9ee07beb7)" d="M 144.235881 970.358232 
L 144.334969 970.358077 
L 144.533147 970.357904 
L 144.929502 970.357718 
L 145.722213 970.357532 
L 147.307633 970.357303 
L 150.478475 970.357057 
L 156.820158 970.3568 
L 169.503525 970.35653 
L 194.870258 970.356236 
L 245.603723 970.355931 
L 347.070655 970.355615 
L 550.004518 970.355288 
L 955.872244 970.354952 
" style="fill:none;stroke:#ae7181;stroke-linecap:square;stroke-width:1.5;"/>
    <defs>
     <path d="M -4.5 4.5 
L 4.5 4.5 
L 4.5 -4.5 
L -4.5 -4.5 
z
" id="m0b9d4861aa" style="stroke:#000000;stroke-linejoin:miter;"/>
    </defs>
    <g clip-path="url(#pd9ee07beb7)">
     <use style="fill:#ae7181;stroke:#000000;stroke-linejoin:miter;" x="144.235881" xlink:href="#m0b9d4861aa" y="970.358232"/>
     <use style="fill:#ae7181;stroke:#000000;stroke-linejoin:miter;" x="144.334969" xlink:href="#m0b9d4861aa" y="970.358077"/>
     <use style="fill:#ae7181;stroke:#000000;stroke-linejoin:miter;" x="144.533147" xlink:href="#m0b9d4861aa" y="970.357904"/>
     <use style="fill:#ae7181;stroke:#000000;stroke-linejoin:miter;" x="144.929502" xlink:href="#m0b9d4861aa" y="970.357718"/>
     <use style="fill:#ae7181;stroke:#000000;stroke-linejoin:miter;" x="145.722213" xlink:href="#m0b9d4861aa" y="970.357532"/>
     <use style="fill:#ae7181;stroke:#000000;stroke-linejoin:miter;" x="147.307633" xlink:href="#m0b9d4861aa" y="970.357303"/>
     <use style="fill:#ae7181;stroke:#000000;stroke-linejoin:miter;" x="150.478475" xlink:href="#m0b9d4861aa" y="970.357057"/>
     <use style="fill:#ae7181;stroke:#000000;stroke-linejoin:miter;" x="156.820158" xlink:href="#m0b9d4861aa" y="970.3568"/>
     <use style="fill:#ae7181;stroke:#000000;stroke-linejoin:miter;" x="169.503525" xlink:href="#m0b9d4861aa" y="970.35653"/>
     <use style="fill:#ae7181;stroke:#000000;stroke-linejoin:miter;" x="194.870258" xlink:href="#m0b9d4861aa" y="970.356236"/>
     <use style="fill:#ae7181;stroke:#000000;stroke-linejoin:miter;" x="245.603723" xlink:href="#m0b9d4861aa" y="970.355931"/>
     <use style="fill:#ae7181;stroke:#000000;stroke-linejoin:miter;" x="347.070655" xlink:href="#m0b9d4861aa" y="970.355615"/>
     <use style="fill:#ae7181;stroke:#000000;stroke-linejoin:miter;" x="550.004518" xlink:href="#m0b9d4861aa" y="970.355288"/>
     <use style="fill:#ae7181;stroke:#000000;stroke-linejoin:miter;" x="955.872244" xlink:href="#m0b9d4861aa" y="970.354952"/>
    </g>
   </g>
   <g id="line2d_34">
    <path clip-path="url(#pd9ee07beb7)" d="M 144.235881 970.358414 
L 144.334969 970.358336 
L 144.533147 970.358249 
L 144.929502 970.358157 
L 145.722213 970.358064 
L 147.307633 970.357949 
L 150.478475 970.357826 
L 156.820158 970.357697 
L 169.503525 970.357562 
L 194.870258 970.357416 
L 245.603723 970.357263 
L 347.070655 970.357105 
L 550.004518 970.356941 
L 955.872244 970.356773 
" style="fill:none;stroke:#ae7181;stroke-dasharray:5.55,2.4;stroke-dashoffset:0;stroke-width:1.5;"/>
    <defs>
     <path d="M 0 -4.5 
L -1.010313 -1.390576 
L -4.279754 -1.390576 
L -1.634721 0.531153 
L -2.645034 3.640576 
L -0 1.718847 
L 2.645034 3.640576 
L 1.634721 0.531153 
L 4.279754 -1.390576 
L 1.010313 -1.390576 
z
" id="m00c3a0a9c4" style="stroke:#000000;stroke-linejoin:bevel;"/>
    </defs>
    <g clip-path="url(#pd9ee07beb7)">
     <use style="fill:#ae7181;stroke:#000000;stroke-linejoin:bevel;" x="144.235881" xlink:href="#m00c3a0a9c4" y="970.358414"/>
     <use style="fill:#ae7181;stroke:#000000;stroke-linejoin:bevel;" x="144.334969" xlink:href="#m00c3a0a9c4" y="970.358336"/>
     <use style="fill:#ae7181;stroke:#000000;stroke-linejoin:bevel;" x="144.533147" xlink:href="#m00c3a0a9c4" y="970.358249"/>
     <use style="fill:#ae7181;stroke:#000000;stroke-linejoin:bevel;" x="144.929502" xlink:href="#m00c3a0a9c4" y="970.358157"/>
     <use style="fill:#ae7181;stroke:#000000;stroke-linejoin:bevel;" x="145.722213" xlink:href="#m00c3a0a9c4" y="970.358064"/>
     <use style="fill:#ae7181;stroke:#000000;stroke-linejoin:bevel;" x="147.307633" xlink:href="#m00c3a0a9c4" y="970.357949"/>
     <use style="fill:#ae7181;stroke:#000000;stroke-linejoin:bevel;" x="150.478475" xlink:href="#m00c3a0a9c4" y="970.357826"/>
     <use style="fill:#ae7181;stroke:#000000;stroke-linejoin:bevel;" x="156.820158" xlink:href="#m00c3a0a9c4" y="970.357697"/>
     <use style="fill:#ae7181;stroke:#000000;stroke-linejoin:bevel;" x="169.503525" xlink:href="#m00c3a0a9c4" y="970.357562"/>
     <use style="fill:#ae7181;stroke:#000000;stroke-linejoin:bevel;" x="194.870258" xlink:href="#m00c3a0a9c4" y="970.357416"/>
     <use style="fill:#ae7181;stroke:#000000;stroke-linejoin:bevel;" x="245.603723" xlink:href="#m00c3a0a9c4" y="970.357263"/>
     <use style="fill:#ae7181;stroke:#000000;stroke-linejoin:bevel;" x="347.070655" xlink:href="#m00c3a0a9c4" y="970.357105"/>
     <use style="fill:#ae7181;stroke:#000000;stroke-linejoin:bevel;" x="550.004518" xlink:href="#m00c3a0a9c4" y="970.356941"/>
     <use style="fill:#ae7181;stroke:#000000;stroke-linejoin:bevel;" x="955.872244" xlink:href="#m00c3a0a9c4" y="970.356773"/>
    </g>
   </g>
   <g id="line2d_35">
    <path clip-path="url(#pd9ee07beb7)" d="M 144.235881 970.328888 
L 144.334969 970.287377 
L 144.533147 970.187639 
L 144.929502 969.960259 
L 145.722213 969.443396 
L 147.307633 968.325433 
L 150.478475 965.877003 
L 156.820158 960.614855 
L 169.503525 949.383344 
L 194.870258 925.232474 
L 245.603723 874.305316 
L 347.070655 766.63429 
L 550.004518 540.212956 
L 955.872244 63.845318 
" style="fill:none;stroke:#ff9408;stroke-linecap:square;stroke-width:1.5;"/>
    <defs>
     <path d="M -0 4.5 
L 4.5 -4.5 
L -4.5 -4.5 
z
" id="mb599cada7e" style="stroke:#000000;stroke-linejoin:miter;"/>
    </defs>
    <g clip-path="url(#pd9ee07beb7)">
     <use style="fill:#ff9408;stroke:#000000;stroke-linejoin:miter;" x="144.235881" xlink:href="#mb599cada7e" y="970.328888"/>
     <use style="fill:#ff9408;stroke:#000000;stroke-linejoin:miter;" x="144.334969" xlink:href="#mb599cada7e" y="970.287377"/>
     <use style="fill:#ff9408;stroke:#000000;stroke-linejoin:miter;" x="144.533147" xlink:href="#mb599cada7e" y="970.187639"/>
     <use style="fill:#ff9408;stroke:#000000;stroke-linejoin:miter;" x="144.929502" xlink:href="#mb599cada7e" y="969.960259"/>
     <use style="fill:#ff9408;stroke:#000000;stroke-linejoin:miter;" x="145.722213" xlink:href="#mb599cada7e" y="969.443396"/>
     <use style="fill:#ff9408;stroke:#000000;stroke-linejoin:miter;" x="147.307633" xlink:href="#mb599cada7e" y="968.325433"/>
     <use style="fill:#ff9408;stroke:#000000;stroke-linejoin:miter;" x="150.478475" xlink:href="#mb599cada7e" y="965.877003"/>
     <use style="fill:#ff9408;stroke:#000000;stroke-linejoin:miter;" x="156.820158" xlink:href="#mb599cada7e" y="960.614855"/>
     <use style="fill:#ff9408;stroke:#000000;stroke-linejoin:miter;" x="169.503525" xlink:href="#mb599cada7e" y="949.383344"/>
     <use style="fill:#ff9408;stroke:#000000;stroke-linejoin:miter;" x="194.870258" xlink:href="#mb599cada7e" y="925.232474"/>
     <use style="fill:#ff9408;stroke:#000000;stroke-linejoin:miter;" x="245.603723" xlink:href="#mb599cada7e" y="874.305316"/>
     <use style="fill:#ff9408;stroke:#000000;stroke-linejoin:miter;" x="347.070655" xlink:href="#mb599cada7e" y="766.63429"/>
     <use style="fill:#ff9408;stroke:#000000;stroke-linejoin:miter;" x="550.004518" xlink:href="#mb599cada7e" y="540.212956"/>
     <use style="fill:#ff9408;stroke:#000000;stroke-linejoin:miter;" x="955.872244" xlink:href="#mb599cada7e" y="63.845318"/>
    </g>
   </g>
   <g id="line2d_36">
    <path clip-path="url(#pd9ee07beb7)" d="M 144.235881 970.328888 
L 144.334969 970.287377 
L 144.533147 970.187639 
L 144.929502 969.960259 
L 145.722213 969.443396 
L 147.307633 968.325433 
L 150.478475 965.877003 
L 156.820158 960.614855 
L 169.503525 949.383344 
L 194.870258 925.232474 
L 245.603723 874.305316 
L 347.070655 766.63429 
L 550.004518 540.212956 
L 955.872244 63.845318 
" style="fill:none;stroke:#ff9408;stroke-dasharray:5.55,2.4;stroke-dashoffset:0;stroke-width:1.5;"/>
    <defs>
     <path d="M -1.5 4.5 
L 1.5 4.5 
L 1.5 1.5 
L 4.5 1.5 
L 4.5 -1.5 
L 1.5 -1.5 
L 1.5 -4.5 
L -1.5 -4.5 
L -1.5 -1.5 
L -4.5 -1.5 
L -4.5 1.5 
L -1.5 1.5 
z
" id="m15ba350495" style="stroke:#000000;stroke-linejoin:miter;"/>
    </defs>
    <g clip-path="url(#pd9ee07beb7)">
     <use style="fill:#ff9408;stroke:#000000;stroke-linejoin:miter;" x="144.235881" xlink:href="#m15ba350495" y="970.328888"/>
     <use style="fill:#ff9408;stroke:#000000;stroke-linejoin:miter;" x="144.334969" xlink:href="#m15ba350495" y="970.287377"/>
     <use style="fill:#ff9408;stroke:#000000;stroke-linejoin:miter;" x="144.533147" xlink:href="#m15ba350495" y="970.187639"/>
     <use style="fill:#ff9408;stroke:#000000;stroke-linejoin:miter;" x="144.929502" xlink:href="#m15ba350495" y="969.960259"/>
     <use style="fill:#ff9408;stroke:#000000;stroke-linejoin:miter;" x="145.722213" xlink:href="#m15ba350495" y="969.443396"/>
     <use style="fill:#ff9408;stroke:#000000;stroke-linejoin:miter;" x="147.307633" xlink:href="#m15ba350495" y="968.325433"/>
     <use style="fill:#ff9408;stroke:#000000;stroke-linejoin:miter;" x="150.478475" xlink:href="#m15ba350495" y="965.877003"/>
     <use style="fill:#ff9408;stroke:#000000;stroke-linejoin:miter;" x="156.820158" xlink:href="#m15ba350495" y="960.614855"/>
     <use style="fill:#ff9408;stroke:#000000;stroke-linejoin:miter;" x="169.503525" xlink:href="#m15ba350495" y="949.383344"/>
     <use style="fill:#ff9408;stroke:#000000;stroke-linejoin:miter;" x="194.870258" xlink:href="#m15ba350495" y="925.232474"/>
     <use style="fill:#ff9408;stroke:#000000;stroke-linejoin:miter;" x="245.603723" xlink:href="#m15ba350495" y="874.305316"/>
     <use style="fill:#ff9408;stroke:#000000;stroke-linejoin:miter;" x="347.070655" xlink:href="#m15ba350495" y="766.63429"/>
     <use style="fill:#ff9408;stroke:#000000;stroke-linejoin:miter;" x="550.004518" xlink:href="#m15ba350495" y="540.212956"/>
     <use style="fill:#ff9408;stroke:#000000;stroke-linejoin:miter;" x="955.872244" xlink:href="#m15ba350495" y="63.845318"/>
    </g>
   </g>
   <g id="patch_3">
    <path d="M 103.654063 1015.718438 
L 103.654063 17.798438 
" style="fill:none;stroke:#000000;stroke-linecap:square;stroke-linejoin:miter;stroke-width:0.8;"/>
   </g>
   <g id="patch_4">
    <path d="M 996.454062 1015.718438 
L 996.454062 17.798438 
" style="fill:none;stroke:#000000;stroke-linecap:square;stroke-linejoin:miter;stroke-width:0.8;"/>
   </g>
   <g id="patch_5">
    <path d="M 103.654063 1015.718438 
L 996.454063 1015.718438 
" style="fill:none;stroke:#000000;stroke-linecap:square;stroke-linejoin:miter;stroke-width:0.8;"/>
   </g>
   <g id="patch_6">
    <path d="M 103.654063 17.798438 
L 996.454063 17.798438 
" style="fill:none;stroke:#000000;stroke-linecap:square;stroke-linejoin:miter;stroke-width:0.8;"/>
   </g>
   <g id="legend_1">
    <g id="patch_7">
     <path d="M 124.654063 482.142188 
L 601.3025 482.142188 
Q 607.3025 482.142188 607.3025 476.142188 
L 607.3025 38.798438 
Q 607.3025 32.798438 601.3025 32.798438 
L 124.654063 32.798438 
Q 118.654063 32.798438 118.654063 38.798438 
L 118.654063 476.142188 
Q 118.654063 482.142188 124.654063 482.142188 
z
" style="fill:#ffffff;opacity:0.8;stroke:#cccccc;stroke-linejoin:miter;"/>
    </g>
    <g id="line2d_37">
     <path d="M 130.654063 57.09375 
L 190.654063 57.09375 
" style="fill:none;stroke:#fe0002;stroke-linecap:square;stroke-width:1.5;"/>
    </g>
    <g id="line2d_38">
     <g>
      <use style="fill:#fe0002;stroke:#000000;" x="160.654063" xlink:href="#m2d8ea983bd" y="57.09375"/>
     </g>
    </g>
    <g id="text_17">
     <!-- Pairing comparisons -->
     <g transform="translate(214.654063 67.59375)scale(0.3 -0.3)">
      <defs>
       <path d="M 1259 4147 
L 1259 2394 
L 2053 2394 
Q 2494 2394 2734 2622 
Q 2975 2850 2975 3272 
Q 2975 3691 2734 3919 
Q 2494 4147 2053 4147 
L 1259 4147 
z
M 628 4666 
L 2053 4666 
Q 2838 4666 3239 4311 
Q 3641 3956 3641 3272 
Q 3641 2581 3239 2228 
Q 2838 1875 2053 1875 
L 1259 1875 
L 1259 0 
L 628 0 
L 628 4666 
z
" id="DejaVuSans-50" transform="scale(0.015625)"/>
       <path d="M 3122 3366 
L 3122 2828 
Q 2878 2963 2633 3030 
Q 2388 3097 2138 3097 
Q 1578 3097 1268 2742 
Q 959 2388 959 1747 
Q 959 1106 1268 751 
Q 1578 397 2138 397 
Q 2388 397 2633 464 
Q 2878 531 3122 666 
L 3122 134 
Q 2881 22 2623 -34 
Q 2366 -91 2075 -91 
Q 1284 -91 818 406 
Q 353 903 353 1747 
Q 353 2603 823 3093 
Q 1294 3584 2113 3584 
Q 2378 3584 2631 3529 
Q 2884 3475 3122 3366 
z
" id="DejaVuSans-63" transform="scale(0.015625)"/>
      </defs>
      <use xlink:href="#DejaVuSans-50"/>
      <use x="55.802734" xlink:href="#DejaVuSans-61"/>
      <use x="117.082031" xlink:href="#DejaVuSans-69"/>
      <use x="144.865234" xlink:href="#DejaVuSans-72"/>
      <use x="185.978516" xlink:href="#DejaVuSans-69"/>
      <use x="213.761719" xlink:href="#DejaVuSans-6e"/>
      <use x="277.140625" xlink:href="#DejaVuSans-67"/>
      <use x="340.617188" xlink:href="#DejaVuSans-20"/>
      <use x="372.404297" xlink:href="#DejaVuSans-63"/>
      <use x="427.384766" xlink:href="#DejaVuSans-6f"/>
      <use x="488.566406" xlink:href="#DejaVuSans-6d"/>
      <use x="585.978516" xlink:href="#DejaVuSans-70"/>
      <use x="649.455078" xlink:href="#DejaVuSans-61"/>
      <use x="710.734375" xlink:href="#DejaVuSans-72"/>
      <use x="751.847656" xlink:href="#DejaVuSans-69"/>
      <use x="779.630859" xlink:href="#DejaVuSans-73"/>
      <use x="831.730469" xlink:href="#DejaVuSans-6f"/>
      <use x="892.912109" xlink:href="#DejaVuSans-6e"/>
      <use x="956.291016" xlink:href="#DejaVuSans-73"/>
     </g>
    </g>
    <g id="line2d_39">
     <path d="M 130.654063 101.128125 
L 190.654063 101.128125 
" style="fill:none;stroke:#fe0002;stroke-dasharray:5.55,2.4;stroke-dashoffset:0;stroke-width:1.5;"/>
    </g>
    <g id="line2d_40">
     <g>
      <use style="fill:#fe0002;stroke:#000000;" x="160.654063" xlink:href="#m2d8ea983bd" y="101.128125"/>
     </g>
    </g>
    <g id="text_18">
     <!-- Pairing links -->
     <g transform="translate(214.654063 111.628125)scale(0.3 -0.3)">
      <defs>
       <path d="M 603 4863 
L 1178 4863 
L 1178 0 
L 603 0 
L 603 4863 
z
" id="DejaVuSans-6c" transform="scale(0.015625)"/>
       <path d="M 581 4863 
L 1159 4863 
L 1159 1991 
L 2875 3500 
L 3609 3500 
L 1753 1863 
L 3688 0 
L 2938 0 
L 1159 1709 
L 1159 0 
L 581 0 
L 581 4863 
z
" id="DejaVuSans-6b" transform="scale(0.015625)"/>
      </defs>
      <use xlink:href="#DejaVuSans-50"/>
      <use x="55.802734" xlink:href="#DejaVuSans-61"/>
      <use x="117.082031" xlink:href="#DejaVuSans-69"/>
      <use x="144.865234" xlink:href="#DejaVuSans-72"/>
      <use x="185.978516" xlink:href="#DejaVuSans-69"/>
      <use x="213.761719" xlink:href="#DejaVuSans-6e"/>
      <use x="277.140625" xlink:href="#DejaVuSans-67"/>
      <use x="340.617188" xlink:href="#DejaVuSans-20"/>
      <use x="372.404297" xlink:href="#DejaVuSans-6c"/>
      <use x="400.1875" xlink:href="#DejaVuSans-69"/>
      <use x="427.970703" xlink:href="#DejaVuSans-6e"/>
      <use x="491.349609" xlink:href="#DejaVuSans-6b"/>
      <use x="549.259766" xlink:href="#DejaVuSans-73"/>
     </g>
    </g>
    <g id="line2d_41">
     <path d="M 130.654063 145.1625 
L 190.654063 145.1625 
" style="fill:none;stroke:#53fca1;stroke-linecap:square;stroke-width:1.5;"/>
    </g>
    <g id="line2d_42">
     <g>
      <use style="fill:#53fca1;stroke:#000000;stroke-linejoin:miter;" x="160.654063" xlink:href="#m4a803f5436" y="145.1625"/>
     </g>
    </g>
    <g id="text_19">
     <!-- Smooth comparisons -->
     <g transform="translate(214.654063 155.6625)scale(0.3 -0.3)">
      <defs>
       <path d="M 3425 4513 
L 3425 3897 
Q 3066 4069 2747 4153 
Q 2428 4238 2131 4238 
Q 1616 4238 1336 4038 
Q 1056 3838 1056 3469 
Q 1056 3159 1242 3001 
Q 1428 2844 1947 2747 
L 2328 2669 
Q 3034 2534 3370 2195 
Q 3706 1856 3706 1288 
Q 3706 609 3251 259 
Q 2797 -91 1919 -91 
Q 1588 -91 1214 -16 
Q 841 59 441 206 
L 441 856 
Q 825 641 1194 531 
Q 1563 422 1919 422 
Q 2459 422 2753 634 
Q 3047 847 3047 1241 
Q 3047 1584 2836 1778 
Q 2625 1972 2144 2069 
L 1759 2144 
Q 1053 2284 737 2584 
Q 422 2884 422 3419 
Q 422 4038 858 4394 
Q 1294 4750 2059 4750 
Q 2388 4750 2728 4690 
Q 3069 4631 3425 4513 
z
" id="DejaVuSans-53" transform="scale(0.015625)"/>
       <path d="M 3513 2113 
L 3513 0 
L 2938 0 
L 2938 2094 
Q 2938 2591 2744 2837 
Q 2550 3084 2163 3084 
Q 1697 3084 1428 2787 
Q 1159 2491 1159 1978 
L 1159 0 
L 581 0 
L 581 4863 
L 1159 4863 
L 1159 2956 
Q 1366 3272 1645 3428 
Q 1925 3584 2291 3584 
Q 2894 3584 3203 3211 
Q 3513 2838 3513 2113 
z
" id="DejaVuSans-68" transform="scale(0.015625)"/>
      </defs>
      <use xlink:href="#DejaVuSans-53"/>
      <use x="63.476562" xlink:href="#DejaVuSans-6d"/>
      <use x="160.888672" xlink:href="#DejaVuSans-6f"/>
      <use x="222.070312" xlink:href="#DejaVuSans-6f"/>
      <use x="283.251953" xlink:href="#DejaVuSans-74"/>
      <use x="322.460938" xlink:href="#DejaVuSans-68"/>
      <use x="385.839844" xlink:href="#DejaVuSans-20"/>
      <use x="417.626953" xlink:href="#DejaVuSans-63"/>
      <use x="472.607422" xlink:href="#DejaVuSans-6f"/>
      <use x="533.789062" xlink:href="#DejaVuSans-6d"/>
      <use x="631.201172" xlink:href="#DejaVuSans-70"/>
      <use x="694.677734" xlink:href="#DejaVuSans-61"/>
      <use x="755.957031" xlink:href="#DejaVuSans-72"/>
      <use x="797.070312" xlink:href="#DejaVuSans-69"/>
      <use x="824.853516" xlink:href="#DejaVuSans-73"/>
      <use x="876.953125" xlink:href="#DejaVuSans-6f"/>
      <use x="938.134766" xlink:href="#DejaVuSans-6e"/>
      <use x="1001.513672" xlink:href="#DejaVuSans-73"/>
     </g>
    </g>
    <g id="line2d_43">
     <path d="M 130.654063 189.196875 
L 190.654063 189.196875 
" style="fill:none;stroke:#53fca1;stroke-dasharray:5.55,2.4;stroke-dashoffset:0;stroke-width:1.5;"/>
    </g>
    <g id="line2d_44">
     <g>
      <use style="fill:#53fca1;stroke:#000000;stroke-linejoin:miter;" x="160.654063" xlink:href="#m2d5ba2a217" y="189.196875"/>
     </g>
    </g>
    <g id="text_20">
     <!-- Smooth links -->
     <g transform="translate(214.654063 199.696875)scale(0.3 -0.3)">
      <use xlink:href="#DejaVuSans-53"/>
      <use x="63.476562" xlink:href="#DejaVuSans-6d"/>
      <use x="160.888672" xlink:href="#DejaVuSans-6f"/>
      <use x="222.070312" xlink:href="#DejaVuSans-6f"/>
      <use x="283.251953" xlink:href="#DejaVuSans-74"/>
      <use x="322.460938" xlink:href="#DejaVuSans-68"/>
      <use x="385.839844" xlink:href="#DejaVuSans-20"/>
      <use x="417.626953" xlink:href="#DejaVuSans-6c"/>
      <use x="445.410156" xlink:href="#DejaVuSans-69"/>
      <use x="473.193359" xlink:href="#DejaVuSans-6e"/>
      <use x="536.572266" xlink:href="#DejaVuSans-6b"/>
      <use x="594.482422" xlink:href="#DejaVuSans-73"/>
     </g>
    </g>
    <g id="line2d_45">
     <path d="M 130.654063 233.23125 
L 190.654063 233.23125 
" style="fill:none;stroke:#0652ff;stroke-linecap:square;stroke-width:1.5;"/>
    </g>
    <g id="line2d_46">
     <g>
      <use style="fill:#0652ff;stroke:#000000;stroke-linejoin:miter;" x="160.654063" xlink:href="#md94160ec41" y="233.23125"/>
     </g>
    </g>
    <g id="text_21">
     <!-- Slim comparisons -->
     <g transform="translate(214.654063 243.73125)scale(0.3 -0.3)">
      <use xlink:href="#DejaVuSans-53"/>
      <use x="63.476562" xlink:href="#DejaVuSans-6c"/>
      <use x="91.259766" xlink:href="#DejaVuSans-69"/>
      <use x="119.042969" xlink:href="#DejaVuSans-6d"/>
      <use x="216.455078" xlink:href="#DejaVuSans-20"/>
      <use x="248.242188" xlink:href="#DejaVuSans-63"/>
      <use x="303.222656" xlink:href="#DejaVuSans-6f"/>
      <use x="364.404297" xlink:href="#DejaVuSans-6d"/>
      <use x="461.816406" xlink:href="#DejaVuSans-70"/>
      <use x="525.292969" xlink:href="#DejaVuSans-61"/>
      <use x="586.572266" xlink:href="#DejaVuSans-72"/>
      <use x="627.685547" xlink:href="#DejaVuSans-69"/>
      <use x="655.46875" xlink:href="#DejaVuSans-73"/>
      <use x="707.568359" xlink:href="#DejaVuSans-6f"/>
      <use x="768.75" xlink:href="#DejaVuSans-6e"/>
      <use x="832.128906" xlink:href="#DejaVuSans-73"/>
     </g>
    </g>
    <g id="line2d_47">
     <path d="M 130.654063 277.265625 
L 190.654063 277.265625 
" style="fill:none;stroke:#0652ff;stroke-dasharray:5.55,2.4;stroke-dashoffset:0;stroke-width:1.5;"/>
    </g>
    <g id="line2d_48">
     <g>
      <use style="fill:#0652ff;stroke:#000000;stroke-linejoin:miter;" x="160.654063" xlink:href="#m063a166c2f" y="277.265625"/>
     </g>
    </g>
    <g id="text_22">
     <!-- Slim links -->
     <g transform="translate(214.654063 287.765625)scale(0.3 -0.3)">
      <use xlink:href="#DejaVuSans-53"/>
      <use x="63.476562" xlink:href="#DejaVuSans-6c"/>
      <use x="91.259766" xlink:href="#DejaVuSans-69"/>
      <use x="119.042969" xlink:href="#DejaVuSans-6d"/>
      <use x="216.455078" xlink:href="#DejaVuSans-20"/>
      <use x="248.242188" xlink:href="#DejaVuSans-6c"/>
      <use x="276.025391" xlink:href="#DejaVuSans-69"/>
      <use x="303.808594" xlink:href="#DejaVuSans-6e"/>
      <use x="367.1875" xlink:href="#DejaVuSans-6b"/>
      <use x="425.097656" xlink:href="#DejaVuSans-73"/>
     </g>
    </g>
    <g id="line2d_49">
     <path d="M 130.654063 321.3 
L 190.654063 321.3 
" style="fill:none;stroke:#ae7181;stroke-linecap:square;stroke-width:1.5;"/>
    </g>
    <g id="line2d_50">
     <g>
      <use style="fill:#ae7181;stroke:#000000;stroke-linejoin:miter;" x="160.654063" xlink:href="#m0b9d4861aa" y="321.3"/>
     </g>
    </g>
    <g id="text_23">
     <!-- Pairing Lazy comparisons -->
     <g transform="translate(214.654063 331.8)scale(0.3 -0.3)">
      <defs>
       <path d="M 628 4666 
L 1259 4666 
L 1259 531 
L 3531 531 
L 3531 0 
L 628 0 
L 628 4666 
z
" id="DejaVuSans-4c" transform="scale(0.015625)"/>
       <path d="M 2059 -325 
Q 1816 -950 1584 -1140 
Q 1353 -1331 966 -1331 
L 506 -1331 
L 506 -850 
L 844 -850 
Q 1081 -850 1212 -737 
Q 1344 -625 1503 -206 
L 1606 56 
L 191 3500 
L 800 3500 
L 1894 763 
L 2988 3500 
L 3597 3500 
L 2059 -325 
z
" id="DejaVuSans-79" transform="scale(0.015625)"/>
      </defs>
      <use xlink:href="#DejaVuSans-50"/>
      <use x="55.802734" xlink:href="#DejaVuSans-61"/>
      <use x="117.082031" xlink:href="#DejaVuSans-69"/>
      <use x="144.865234" xlink:href="#DejaVuSans-72"/>
      <use x="185.978516" xlink:href="#DejaVuSans-69"/>
      <use x="213.761719" xlink:href="#DejaVuSans-6e"/>
      <use x="277.140625" xlink:href="#DejaVuSans-67"/>
      <use x="340.617188" xlink:href="#DejaVuSans-20"/>
      <use x="372.404297" xlink:href="#DejaVuSans-4c"/>
      <use x="428.117188" xlink:href="#DejaVuSans-61"/>
      <use x="489.396484" xlink:href="#DejaVuSans-7a"/>
      <use x="541.886719" xlink:href="#DejaVuSans-79"/>
      <use x="601.066406" xlink:href="#DejaVuSans-20"/>
      <use x="632.853516" xlink:href="#DejaVuSans-63"/>
      <use x="687.833984" xlink:href="#DejaVuSans-6f"/>
      <use x="749.015625" xlink:href="#DejaVuSans-6d"/>
      <use x="846.427734" xlink:href="#DejaVuSans-70"/>
      <use x="909.904297" xlink:href="#DejaVuSans-61"/>
      <use x="971.183594" xlink:href="#DejaVuSans-72"/>
      <use x="1012.296875" xlink:href="#DejaVuSans-69"/>
      <use x="1040.080078" xlink:href="#DejaVuSans-73"/>
      <use x="1092.179688" xlink:href="#DejaVuSans-6f"/>
      <use x="1153.361328" xlink:href="#DejaVuSans-6e"/>
      <use x="1216.740234" xlink:href="#DejaVuSans-73"/>
     </g>
    </g>
    <g id="line2d_51">
     <path d="M 130.654063 365.334375 
L 190.654063 365.334375 
" style="fill:none;stroke:#ae7181;stroke-dasharray:5.55,2.4;stroke-dashoffset:0;stroke-width:1.5;"/>
    </g>
    <g id="line2d_52">
     <g>
      <use style="fill:#ae7181;stroke:#000000;stroke-linejoin:bevel;" x="160.654063" xlink:href="#m00c3a0a9c4" y="365.334375"/>
     </g>
    </g>
    <g id="text_24">
     <!-- Pairing Lazy links -->
     <g transform="translate(214.654063 375.834375)scale(0.3 -0.3)">
      <use xlink:href="#DejaVuSans-50"/>
      <use x="55.802734" xlink:href="#DejaVuSans-61"/>
      <use x="117.082031" xlink:href="#DejaVuSans-69"/>
      <use x="144.865234" xlink:href="#DejaVuSans-72"/>
      <use x="185.978516" xlink:href="#DejaVuSans-69"/>
      <use x="213.761719" xlink:href="#DejaVuSans-6e"/>
      <use x="277.140625" xlink:href="#DejaVuSans-67"/>
      <use x="340.617188" xlink:href="#DejaVuSans-20"/>
      <use x="372.404297" xlink:href="#DejaVuSans-4c"/>
      <use x="428.117188" xlink:href="#DejaVuSans-61"/>
      <use x="489.396484" xlink:href="#DejaVuSans-7a"/>
      <use x="541.886719" xlink:href="#DejaVuSans-79"/>
      <use x="601.066406" xlink:href="#DejaVuSans-20"/>
      <use x="632.853516" xlink:href="#DejaVuSans-6c"/>
      <use x="660.636719" xlink:href="#DejaVuSans-69"/>
      <use x="688.419922" xlink:href="#DejaVuSans-6e"/>
      <use x="751.798828" xlink:href="#DejaVuSans-6b"/>
      <use x="809.708984" xlink:href="#DejaVuSans-73"/>
     </g>
    </g>
    <g id="line2d_53">
     <path d="M 130.654063 409.36875 
L 190.654063 409.36875 
" style="fill:none;stroke:#ff9408;stroke-linecap:square;stroke-width:1.5;"/>
    </g>
    <g id="line2d_54">
     <g>
      <use style="fill:#ff9408;stroke:#000000;stroke-linejoin:miter;" x="160.654063" xlink:href="#mb599cada7e" y="409.36875"/>
     </g>
    </g>
    <g id="text_25">
     <!-- Splay Tree comparisons -->
     <g transform="translate(214.654063 419.86875)scale(0.3 -0.3)">
      <defs>
       <path d="M -19 4666 
L 3928 4666 
L 3928 4134 
L 2272 4134 
L 2272 0 
L 1638 0 
L 1638 4134 
L -19 4134 
L -19 4666 
z
" id="DejaVuSans-54" transform="scale(0.015625)"/>
      </defs>
      <use xlink:href="#DejaVuSans-53"/>
      <use x="63.476562" xlink:href="#DejaVuSans-70"/>
      <use x="126.953125" xlink:href="#DejaVuSans-6c"/>
      <use x="154.736328" xlink:href="#DejaVuSans-61"/>
      <use x="216.015625" xlink:href="#DejaVuSans-79"/>
      <use x="275.195312" xlink:href="#DejaVuSans-20"/>
      <use x="306.982422" xlink:href="#DejaVuSans-54"/>
      <use x="353.316406" xlink:href="#DejaVuSans-72"/>
      <use x="392.179688" xlink:href="#DejaVuSans-65"/>
      <use x="453.703125" xlink:href="#DejaVuSans-65"/>
      <use x="515.226562" xlink:href="#DejaVuSans-20"/>
      <use x="547.013672" xlink:href="#DejaVuSans-63"/>
      <use x="601.994141" xlink:href="#DejaVuSans-6f"/>
      <use x="663.175781" xlink:href="#DejaVuSans-6d"/>
      <use x="760.587891" xlink:href="#DejaVuSans-70"/>
      <use x="824.064453" xlink:href="#DejaVuSans-61"/>
      <use x="885.34375" xlink:href="#DejaVuSans-72"/>
      <use x="926.457031" xlink:href="#DejaVuSans-69"/>
      <use x="954.240234" xlink:href="#DejaVuSans-73"/>
      <use x="1006.339844" xlink:href="#DejaVuSans-6f"/>
      <use x="1067.521484" xlink:href="#DejaVuSans-6e"/>
      <use x="1130.900391" xlink:href="#DejaVuSans-73"/>
     </g>
    </g>
    <g id="line2d_55">
     <path d="M 130.654063 453.403125 
L 190.654063 453.403125 
" style="fill:none;stroke:#ff9408;stroke-dasharray:5.55,2.4;stroke-dashoffset:0;stroke-width:1.5;"/>
    </g>
    <g id="line2d_56">
     <g>
      <use style="fill:#ff9408;stroke:#000000;stroke-linejoin:miter;" x="160.654063" xlink:href="#m15ba350495" y="453.403125"/>
     </g>
    </g>
    <g id="text_26">
     <!-- Splay Tree links -->
     <g transform="translate(214.654063 463.903125)scale(0.3 -0.3)">
      <use xlink:href="#DejaVuSans-53"/>
      <use x="63.476562" xlink:href="#DejaVuSans-70"/>
      <use x="126.953125" xlink:href="#DejaVuSans-6c"/>
      <use x="154.736328" xlink:href="#DejaVuSans-61"/>
      <use x="216.015625" xlink:href="#DejaVuSans-79"/>
      <use x="275.195312" xlink:href="#DejaVuSans-20"/>
      <use x="306.982422" xlink:href="#DejaVuSans-54"/>
      <use x="353.316406" xlink:href="#DejaVuSans-72"/>
      <use x="392.179688" xlink:href="#DejaVuSans-65"/>
      <use x="453.703125" xlink:href="#DejaVuSans-65"/>
      <use x="515.226562" xlink:href="#DejaVuSans-20"/>
      <use x="547.013672" xlink:href="#DejaVuSans-6c"/>
      <use x="574.796875" xlink:href="#DejaVuSans-69"/>
      <use x="602.580078" xlink:href="#DejaVuSans-6e"/>
      <use x="665.958984" xlink:href="#DejaVuSans-6b"/>
      <use x="723.869141" xlink:href="#DejaVuSans-73"/>
     </g>
    </g>
   </g>
  </g>
 </g>
 <defs>
  <clipPath id="pd9ee07beb7">
   <rect height="997.92" width="892.8" x="103.654063" y="17.798438"/>
  </clipPath>
 </defs>
</svg>
