<?xml version="1.0" encoding="utf-8" standalone="no"?>
<!DOCTYPE svg PUBLIC "-//W3C//DTD SVG 1.1//EN"
  "http://www.w3.org/Graphics/SVG/1.1/DTD/svg11.dtd">
<svg height="1090.099063pt" version="1.1" viewBox="0 0 994.119687 1090.099063" width="994.119687pt" xmlns="http://www.w3.org/2000/svg" xmlns:xlink="http://www.w3.org/1999/xlink">
 <metadata>
  <rdf:RDF xmlns:cc="http://creativecommons.org/ns#" xmlns:dc="http://purl.org/dc/elements/1.1/" xmlns:rdf="http://www.w3.org/1999/02/22-rdf-syntax-ns#">
   <cc:Work>
    <dc:type rdf:resource="http://purl.org/dc/dcmitype/StillImage"/>
    <dc:date>2021-07-04T13:40:50.525572</dc:date>
    <dc:format>image/svg+xml</dc:format>
    <dc:creator>
     <cc:Agent>
      <dc:title>Matplotlib v3.4.2, https://matplotlib.org/</dc:title>
     </cc:Agent>
    </dc:creator>
   </cc:Work>
  </rdf:RDF>
 </metadata>
 <defs>
  <style type="text/css">*{stroke-linecap:butt;stroke-linejoin:round;}</style>
 </defs>
 <g id="figure_1">
  <g id="patch_1">
   <path d="M 0 1090.099063 
L 994.119687 1090.099063 
L 994.119687 0 
L 0 0 
z
" style="fill:#ffffff;"/>
  </g>
  <g id="axes_1">
   <g id="patch_2">
    <path d="M 94.119688 1005.12 
L 986.919688 1005.12 
L 986.919688 7.2 
L 94.119688 7.2 
z
" style="fill:#ffffff;"/>
   </g>
   <g id="PolyCollection_1">
    <defs>
     <path d="M 134.701506 -481.119275 
L 134.701506 -435.390033 
L 177.419209 -554.115644 
L 220.136912 -621.715393 
L 262.854616 -660.343821 
L 305.572319 -716.866301 
L 348.290022 -736.180515 
L 391.007726 -794.123158 
L 433.725429 -798.951711 
L 476.443132 -799.519776 
L 519.160836 -825.366739 
L 561.878539 -838.432237 
L 604.596243 -860.87081 
L 647.313946 -892.398424 
L 690.031649 -869.107754 
L 732.749353 -918.529419 
L 775.467056 -896.658912 
L 818.184759 -918.813452 
L 860.902463 -922.221843 
L 903.620166 -923.642006 
L 946.337869 -937.275568 
L 946.337869 -1037.539063 
L 946.337869 -1037.539063 
L 903.620166 -1012.544197 
L 860.902463 -996.638374 
L 818.184759 -967.667052 
L 775.467056 -986.413202 
L 732.749353 -961.702369 
L 690.031649 -954.317522 
L 647.313946 -948.636871 
L 604.596243 -948.920903 
L 561.878539 -933.01508 
L 519.160836 -879.048893 
L 476.443132 -881.605186 
L 433.725429 -863.427103 
L 391.007726 -839.000302 
L 348.290022 -815.709632 
L 305.572319 -760.323283 
L 262.854616 -732.772124 
L 220.136912 -667.160603 
L 177.419209 -594.164235 
L 134.701506 -481.119275 
z
" id="m002faa28a1" style="stroke:#fe0002;stroke-opacity:0.3;"/>
    </defs>
    <g clip-path="url(#pb9284b5e32)">
     <use style="fill:#fe0002;fill-opacity:0.3;stroke:#fe0002;stroke-opacity:0.3;" x="0" xlink:href="#m002faa28a1" y="1090.099063"/>
    </g>
   </g>
   <g id="PolyCollection_2">
    <defs>
     <path d="M 134.701506 -201.631235 
L 134.701506 -174.364109 
L 177.419209 -260.710008 
L 220.136912 -289.397297 
L 262.854616 -341.091223 
L 305.572319 -381.707879 
L 348.290022 -416.643884 
L 391.007726 -436.242131 
L 433.725429 -450.443759 
L 476.443132 -452.431987 
L 519.160836 -469.189908 
L 561.878539 -486.515894 
L 604.596243 -494.184773 
L 647.313946 -499.013327 
L 690.031649 -509.238499 
L 732.749353 -543.322406 
L 775.467056 -547.866927 
L 818.184759 -531.677071 
L 860.902463 -543.890471 
L 903.620166 -558.944197 
L 946.337869 -549.571123 
L 946.337869 -614.898612 
L 946.337869 -614.898612 
L 903.620166 -597.572625 
L 860.902463 -590.187779 
L 818.184759 -575.986151 
L 775.467056 -583.65503 
L 732.749353 -566.613076 
L 690.031649 -568.885337 
L 647.313946 -560.36436 
L 604.596243 -545.310634 
L 561.878539 -530.256908 
L 519.160836 -516.339313 
L 476.443132 -506.114141 
L 433.725429 -496.173001 
L 391.007726 -462.941191 
L 348.290022 -441.354717 
L 305.572319 -409.259037 
L 262.854616 -383.696107 
L 220.136912 -350.74833 
L 177.419209 -302.178762 
L 134.701506 -201.631235 
z
" id="m8235507265" style="stroke:#53fca1;stroke-opacity:0.3;"/>
    </defs>
    <g clip-path="url(#pb9284b5e32)">
     <use style="fill:#53fca1;fill-opacity:0.3;stroke:#53fca1;stroke-opacity:0.3;" x="0" xlink:href="#m8235507265" y="1090.099063"/>
    </g>
   </g>
   <g id="PolyCollection_3">
    <defs>
     <path d="M 134.701506 -326.037497 
L 134.701506 -288.545199 
L 177.419209 -368.358349 
L 220.136912 -399.033865 
L 262.854616 -457.828605 
L 305.572319 -491.344448 
L 348.290022 -519.747704 
L 391.007726 -547.866927 
L 433.725429 -557.240002 
L 476.443132 -581.666802 
L 519.160836 -579.110509 
L 561.878539 -609.21796 
L 604.596243 -621.715393 
L 647.313946 -643.5859 
L 690.031649 -639.041379 
L 732.749353 -654.379138 
L 775.467056 -665.456408 
L 818.184759 -673.977384 
L 860.902463 -653.811073 
L 903.620166 -674.545449 
L 946.337869 -671.137059 
L 946.337869 -744.417459 
L 946.337869 -744.417459 
L 903.620166 -749.246013 
L 860.902463 -707.209194 
L 818.184759 -700.960478 
L 775.467056 -719.422594 
L 732.749353 -697.836119 
L 690.031649 -701.24451 
L 647.313946 -668.296733 
L 604.596243 -664.320277 
L 561.878539 -661.763984 
L 519.160836 -630.23637 
L 476.443132 -622.851523 
L 433.725429 -616.318774 
L 391.007726 -582.5189 
L 348.290022 -561.50049 
L 305.572319 -547.866927 
L 262.854616 -508.670434 
L 220.136912 -456.408443 
L 177.419209 -408.122907 
L 134.701506 -326.037497 
z
" id="mdea4ce2d40" style="stroke:#0652ff;stroke-opacity:0.3;"/>
    </defs>
    <g clip-path="url(#pb9284b5e32)">
     <use style="fill:#0652ff;fill-opacity:0.3;stroke:#0652ff;stroke-opacity:0.3;" x="0" xlink:href="#mdea4ce2d40" y="1090.099063"/>
    </g>
   </g>
   <g id="PolyCollection_4">
    <defs>
     <path d="M 134.701506 -180.328793 
L 134.701506 -130.339063 
L 177.419209 -219.241254 
L 220.136912 -256.875568 
L 262.854616 -311.267804 
L 305.572319 -330.582018 
L 348.290022 -334.132425 
L 391.007726 -353.588655 
L 433.725429 -372.050772 
L 476.443132 -353.730672 
L 519.160836 -379.577635 
L 561.878539 -381.28183 
L 604.596243 -398.607816 
L 647.313946 -379.577635 
L 690.031649 -389.660791 
L 732.749353 -402.016207 
L 775.467056 -409.54307 
L 818.184759 -388.666677 
L 860.902463 -404.430484 
L 903.620166 -383.554091 
L 946.337869 -410.253151 
L 946.337869 -455.556345 
L 946.337869 -455.556345 
L 903.620166 -441.212701 
L 860.902463 -452.431987 
L 818.184759 -436.242131 
L 775.467056 -453.426101 
L 732.749353 -455.272312 
L 690.031649 -436.384147 
L 647.313946 -433.96987 
L 604.596243 -433.117773 
L 561.878539 -436.952212 
L 519.160836 -424.596796 
L 476.443132 -415.64977 
L 433.725429 -424.596796 
L 391.007726 -391.649019 
L 348.290022 -388.808693 
L 305.572319 -360.405437 
L 262.854616 -336.262669 
L 220.136912 -302.604811 
L 177.419209 -267.384773 
L 134.701506 -180.328793 
z
" id="m93875af1a8" style="stroke:#ae7181;stroke-opacity:0.3;"/>
    </defs>
    <g clip-path="url(#pb9284b5e32)">
     <use style="fill:#ae7181;fill-opacity:0.3;stroke:#ae7181;stroke-opacity:0.3;" x="0" xlink:href="#m93875af1a8" y="1090.099063"/>
    </g>
   </g>
   <g id="PolyCollection_5">
    <defs>
     <path d="M 134.701506 -608.365863 
L 134.701506 -568.175255 
L 177.419209 -647.136307 
L 220.136912 -688.179012 
L 262.854616 -722.688969 
L 305.572319 -780.063546 
L 348.290022 -805.058411 
L 391.007726 -821.816332 
L 433.725429 -830.195293 
L 476.443132 -840.136433 
L 519.160836 -854.054028 
L 561.878539 -882.741317 
L 604.596243 -894.670684 
L 647.313946 -885.865675 
L 690.031649 -920.091599 
L 732.749353 -906.742068 
L 775.467056 -925.204185 
L 818.184759 -921.085712 
L 860.902463 -920.233615 
L 903.620166 -934.577259 
L 946.337869 -976.046013 
L 946.337869 -1012.544197 
L 946.337869 -1012.544197 
L 903.620166 -996.212325 
L 860.902463 -998.342569 
L 818.184759 -978.318274 
L 775.467056 -983.43086 
L 732.749353 -968.945199 
L 690.031649 -971.501492 
L 647.313946 -969.229232 
L 604.596243 -952.755343 
L 561.878539 -951.903245 
L 519.160836 -917.677322 
L 476.443132 -907.736182 
L 433.725429 -891.546326 
L 391.007726 -887.56987 
L 348.290022 -864.137184 
L 305.572319 -812.159225 
L 262.854616 -799.235744 
L 220.136912 -757.056908 
L 177.419209 -694.00168 
L 134.701506 -608.365863 
z
" id="m99e1a3cb4c" style="stroke:#ff81c0;stroke-opacity:0.3;"/>
    </defs>
    <g clip-path="url(#pb9284b5e32)">
     <use style="fill:#ff81c0;fill-opacity:0.3;stroke:#ff81c0;stroke-opacity:0.3;" x="0" xlink:href="#m99e1a3cb4c" y="1090.099063"/>
    </g>
   </g>
   <g id="PolyCollection_6">
    <defs>
     <path d="M 134.701506 -510.942694 
L 134.701506 -473.166364 
L 177.419209 -562.352588 
L 220.136912 -611.490221 
L 262.854616 -656.225349 
L 305.572319 -679.516019 
L 348.290022 -712.605813 
L 391.007726 -708.203308 
L 433.725429 -734.192287 
L 476.443132 -759.471185 
L 519.160836 -762.453527 
L 561.878539 -758.761104 
L 604.596243 -794.40719 
L 647.313946 -811.023095 
L 690.031649 -785.744197 
L 732.749353 -835.733928 
L 775.467056 -846.811198 
L 818.184759 -808.608818 
L 860.902463 -831.331423 
L 903.620166 -836.159977 
L 946.337869 -847.805312 
L 946.337869 -912.564736 
L 946.337869 -912.564736 
L 903.620166 -890.26818 
L 860.902463 -892.54044 
L 818.184759 -884.303496 
L 775.467056 -880.185024 
L 732.749353 -871.095982 
L 690.031649 -850.645637 
L 647.313946 -845.391035 
L 604.596243 -855.616207 
L 561.878539 -838.71627 
L 519.160836 -813.863421 
L 476.443132 -797.673565 
L 433.725429 -798.951711 
L 391.007726 -766.287967 
L 348.290022 -741.435118 
L 305.572319 -713.315894 
L 262.854616 -710.475568 
L 220.136912 -647.136307 
L 177.419209 -606.235619 
L 134.701506 -510.942694 
z
" id="mdbf5264c52" style="stroke:#f97306;stroke-opacity:0.3;"/>
    </defs>
    <g clip-path="url(#pb9284b5e32)">
     <use style="fill:#f97306;fill-opacity:0.3;stroke:#f97306;stroke-opacity:0.3;" x="0" xlink:href="#mdbf5264c52" y="1090.099063"/>
    </g>
   </g>
   <g id="matplotlib.axis_1">
    <g id="xtick_1">
     <g id="line2d_1">
      <path clip-path="url(#pb9284b5e32)" d="M 262.854616 1005.12 
L 262.854616 7.2 
" style="fill:none;stroke:#b0b0b0;stroke-linecap:square;stroke-width:0.8;"/>
     </g>
     <g id="line2d_2">
      <defs>
       <path d="M 0 0 
L 0 3.5 
" id="mfc448c70e4" style="stroke:#000000;stroke-width:0.8;"/>
      </defs>
      <g>
       <use style="stroke:#000000;stroke-width:0.8;" x="262.854616" xlink:href="#mfc448c70e4" y="1005.12"/>
      </g>
     </g>
     <g id="text_1">
      <!-- 0.2 -->
      <g transform="translate(238.999928 1034.915313)scale(0.3 -0.3)">
       <defs>
        <path d="M 2034 4250 
Q 1547 4250 1301 3770 
Q 1056 3291 1056 2328 
Q 1056 1369 1301 889 
Q 1547 409 2034 409 
Q 2525 409 2770 889 
Q 3016 1369 3016 2328 
Q 3016 3291 2770 3770 
Q 2525 4250 2034 4250 
z
M 2034 4750 
Q 2819 4750 3233 4129 
Q 3647 3509 3647 2328 
Q 3647 1150 3233 529 
Q 2819 -91 2034 -91 
Q 1250 -91 836 529 
Q 422 1150 422 2328 
Q 422 3509 836 4129 
Q 1250 4750 2034 4750 
z
" id="DejaVuSans-30" transform="scale(0.015625)"/>
        <path d="M 684 794 
L 1344 794 
L 1344 0 
L 684 0 
L 684 794 
z
" id="DejaVuSans-2e" transform="scale(0.015625)"/>
        <path d="M 1228 531 
L 3431 531 
L 3431 0 
L 469 0 
L 469 531 
Q 828 903 1448 1529 
Q 2069 2156 2228 2338 
Q 2531 2678 2651 2914 
Q 2772 3150 2772 3378 
Q 2772 3750 2511 3984 
Q 2250 4219 1831 4219 
Q 1534 4219 1204 4116 
Q 875 4013 500 3803 
L 500 4441 
Q 881 4594 1212 4672 
Q 1544 4750 1819 4750 
Q 2544 4750 2975 4387 
Q 3406 4025 3406 3419 
Q 3406 3131 3298 2873 
Q 3191 2616 2906 2266 
Q 2828 2175 2409 1742 
Q 1991 1309 1228 531 
z
" id="DejaVuSans-32" transform="scale(0.015625)"/>
       </defs>
       <use xlink:href="#DejaVuSans-30"/>
       <use x="63.623047" xlink:href="#DejaVuSans-2e"/>
       <use x="95.410156" xlink:href="#DejaVuSans-32"/>
      </g>
     </g>
    </g>
    <g id="xtick_2">
     <g id="line2d_3">
      <path clip-path="url(#pb9284b5e32)" d="M 433.725429 1005.12 
L 433.725429 7.2 
" style="fill:none;stroke:#b0b0b0;stroke-linecap:square;stroke-width:0.8;"/>
     </g>
     <g id="line2d_4">
      <g>
       <use style="stroke:#000000;stroke-width:0.8;" x="433.725429" xlink:href="#mfc448c70e4" y="1005.12"/>
      </g>
     </g>
     <g id="text_2">
      <!-- 0.4 -->
      <g transform="translate(409.870742 1034.915313)scale(0.3 -0.3)">
       <defs>
        <path d="M 2419 4116 
L 825 1625 
L 2419 1625 
L 2419 4116 
z
M 2253 4666 
L 3047 4666 
L 3047 1625 
L 3713 1625 
L 3713 1100 
L 3047 1100 
L 3047 0 
L 2419 0 
L 2419 1100 
L 313 1100 
L 313 1709 
L 2253 4666 
z
" id="DejaVuSans-34" transform="scale(0.015625)"/>
       </defs>
       <use xlink:href="#DejaVuSans-30"/>
       <use x="63.623047" xlink:href="#DejaVuSans-2e"/>
       <use x="95.410156" xlink:href="#DejaVuSans-34"/>
      </g>
     </g>
    </g>
    <g id="xtick_3">
     <g id="line2d_5">
      <path clip-path="url(#pb9284b5e32)" d="M 604.596243 1005.12 
L 604.596243 7.2 
" style="fill:none;stroke:#b0b0b0;stroke-linecap:square;stroke-width:0.8;"/>
     </g>
     <g id="line2d_6">
      <g>
       <use style="stroke:#000000;stroke-width:0.8;" x="604.596243" xlink:href="#mfc448c70e4" y="1005.12"/>
      </g>
     </g>
     <g id="text_3">
      <!-- 0.6 -->
      <g transform="translate(580.741555 1034.915313)scale(0.3 -0.3)">
       <defs>
        <path d="M 2113 2584 
Q 1688 2584 1439 2293 
Q 1191 2003 1191 1497 
Q 1191 994 1439 701 
Q 1688 409 2113 409 
Q 2538 409 2786 701 
Q 3034 994 3034 1497 
Q 3034 2003 2786 2293 
Q 2538 2584 2113 2584 
z
M 3366 4563 
L 3366 3988 
Q 3128 4100 2886 4159 
Q 2644 4219 2406 4219 
Q 1781 4219 1451 3797 
Q 1122 3375 1075 2522 
Q 1259 2794 1537 2939 
Q 1816 3084 2150 3084 
Q 2853 3084 3261 2657 
Q 3669 2231 3669 1497 
Q 3669 778 3244 343 
Q 2819 -91 2113 -91 
Q 1303 -91 875 529 
Q 447 1150 447 2328 
Q 447 3434 972 4092 
Q 1497 4750 2381 4750 
Q 2619 4750 2861 4703 
Q 3103 4656 3366 4563 
z
" id="DejaVuSans-36" transform="scale(0.015625)"/>
       </defs>
       <use xlink:href="#DejaVuSans-30"/>
       <use x="63.623047" xlink:href="#DejaVuSans-2e"/>
       <use x="95.410156" xlink:href="#DejaVuSans-36"/>
      </g>
     </g>
    </g>
    <g id="xtick_4">
     <g id="line2d_7">
      <path clip-path="url(#pb9284b5e32)" d="M 775.467056 1005.12 
L 775.467056 7.2 
" style="fill:none;stroke:#b0b0b0;stroke-linecap:square;stroke-width:0.8;"/>
     </g>
     <g id="line2d_8">
      <g>
       <use style="stroke:#000000;stroke-width:0.8;" x="775.467056" xlink:href="#mfc448c70e4" y="1005.12"/>
      </g>
     </g>
     <g id="text_4">
      <!-- 0.8 -->
      <g transform="translate(751.612368 1034.915313)scale(0.3 -0.3)">
       <defs>
        <path d="M 2034 2216 
Q 1584 2216 1326 1975 
Q 1069 1734 1069 1313 
Q 1069 891 1326 650 
Q 1584 409 2034 409 
Q 2484 409 2743 651 
Q 3003 894 3003 1313 
Q 3003 1734 2745 1975 
Q 2488 2216 2034 2216 
z
M 1403 2484 
Q 997 2584 770 2862 
Q 544 3141 544 3541 
Q 544 4100 942 4425 
Q 1341 4750 2034 4750 
Q 2731 4750 3128 4425 
Q 3525 4100 3525 3541 
Q 3525 3141 3298 2862 
Q 3072 2584 2669 2484 
Q 3125 2378 3379 2068 
Q 3634 1759 3634 1313 
Q 3634 634 3220 271 
Q 2806 -91 2034 -91 
Q 1263 -91 848 271 
Q 434 634 434 1313 
Q 434 1759 690 2068 
Q 947 2378 1403 2484 
z
M 1172 3481 
Q 1172 3119 1398 2916 
Q 1625 2713 2034 2713 
Q 2441 2713 2670 2916 
Q 2900 3119 2900 3481 
Q 2900 3844 2670 4047 
Q 2441 4250 2034 4250 
Q 1625 4250 1398 4047 
Q 1172 3844 1172 3481 
z
" id="DejaVuSans-38" transform="scale(0.015625)"/>
       </defs>
       <use xlink:href="#DejaVuSans-30"/>
       <use x="63.623047" xlink:href="#DejaVuSans-2e"/>
       <use x="95.410156" xlink:href="#DejaVuSans-38"/>
      </g>
     </g>
    </g>
    <g id="xtick_5">
     <g id="line2d_9">
      <path clip-path="url(#pb9284b5e32)" d="M 946.337869 1005.12 
L 946.337869 7.2 
" style="fill:none;stroke:#b0b0b0;stroke-linecap:square;stroke-width:0.8;"/>
     </g>
     <g id="line2d_10">
      <g>
       <use style="stroke:#000000;stroke-width:0.8;" x="946.337869" xlink:href="#mfc448c70e4" y="1005.12"/>
      </g>
     </g>
     <g id="text_5">
      <!-- 1.0 -->
      <g transform="translate(922.483182 1034.915313)scale(0.3 -0.3)">
       <defs>
        <path d="M 794 531 
L 1825 531 
L 1825 4091 
L 703 3866 
L 703 4441 
L 1819 4666 
L 2450 4666 
L 2450 531 
L 3481 531 
L 3481 0 
L 794 0 
L 794 531 
z
" id="DejaVuSans-31" transform="scale(0.015625)"/>
       </defs>
       <use xlink:href="#DejaVuSans-31"/>
       <use x="63.623047" xlink:href="#DejaVuSans-2e"/>
       <use x="95.410156" xlink:href="#DejaVuSans-30"/>
      </g>
     </g>
    </g>
    <g id="text_6">
     <!-- Edge probability -->
     <g transform="translate(381.207734 1074.788281)scale(0.39 -0.39)">
      <defs>
       <path d="M 628 4666 
L 3578 4666 
L 3578 4134 
L 1259 4134 
L 1259 2753 
L 3481 2753 
L 3481 2222 
L 1259 2222 
L 1259 531 
L 3634 531 
L 3634 0 
L 628 0 
L 628 4666 
z
" id="DejaVuSans-45" transform="scale(0.015625)"/>
       <path d="M 2906 2969 
L 2906 4863 
L 3481 4863 
L 3481 0 
L 2906 0 
L 2906 525 
Q 2725 213 2448 61 
Q 2172 -91 1784 -91 
Q 1150 -91 751 415 
Q 353 922 353 1747 
Q 353 2572 751 3078 
Q 1150 3584 1784 3584 
Q 2172 3584 2448 3432 
Q 2725 3281 2906 2969 
z
M 947 1747 
Q 947 1113 1208 752 
Q 1469 391 1925 391 
Q 2381 391 2643 752 
Q 2906 1113 2906 1747 
Q 2906 2381 2643 2742 
Q 2381 3103 1925 3103 
Q 1469 3103 1208 2742 
Q 947 2381 947 1747 
z
" id="DejaVuSans-64" transform="scale(0.015625)"/>
       <path d="M 2906 1791 
Q 2906 2416 2648 2759 
Q 2391 3103 1925 3103 
Q 1463 3103 1205 2759 
Q 947 2416 947 1791 
Q 947 1169 1205 825 
Q 1463 481 1925 481 
Q 2391 481 2648 825 
Q 2906 1169 2906 1791 
z
M 3481 434 
Q 3481 -459 3084 -895 
Q 2688 -1331 1869 -1331 
Q 1566 -1331 1297 -1286 
Q 1028 -1241 775 -1147 
L 775 -588 
Q 1028 -725 1275 -790 
Q 1522 -856 1778 -856 
Q 2344 -856 2625 -561 
Q 2906 -266 2906 331 
L 2906 616 
Q 2728 306 2450 153 
Q 2172 0 1784 0 
Q 1141 0 747 490 
Q 353 981 353 1791 
Q 353 2603 747 3093 
Q 1141 3584 1784 3584 
Q 2172 3584 2450 3431 
Q 2728 3278 2906 2969 
L 2906 3500 
L 3481 3500 
L 3481 434 
z
" id="DejaVuSans-67" transform="scale(0.015625)"/>
       <path d="M 3597 1894 
L 3597 1613 
L 953 1613 
Q 991 1019 1311 708 
Q 1631 397 2203 397 
Q 2534 397 2845 478 
Q 3156 559 3463 722 
L 3463 178 
Q 3153 47 2828 -22 
Q 2503 -91 2169 -91 
Q 1331 -91 842 396 
Q 353 884 353 1716 
Q 353 2575 817 3079 
Q 1281 3584 2069 3584 
Q 2775 3584 3186 3129 
Q 3597 2675 3597 1894 
z
M 3022 2063 
Q 3016 2534 2758 2815 
Q 2500 3097 2075 3097 
Q 1594 3097 1305 2825 
Q 1016 2553 972 2059 
L 3022 2063 
z
" id="DejaVuSans-65" transform="scale(0.015625)"/>
       <path id="DejaVuSans-20" transform="scale(0.015625)"/>
       <path d="M 1159 525 
L 1159 -1331 
L 581 -1331 
L 581 3500 
L 1159 3500 
L 1159 2969 
Q 1341 3281 1617 3432 
Q 1894 3584 2278 3584 
Q 2916 3584 3314 3078 
Q 3713 2572 3713 1747 
Q 3713 922 3314 415 
Q 2916 -91 2278 -91 
Q 1894 -91 1617 61 
Q 1341 213 1159 525 
z
M 3116 1747 
Q 3116 2381 2855 2742 
Q 2594 3103 2138 3103 
Q 1681 3103 1420 2742 
Q 1159 2381 1159 1747 
Q 1159 1113 1420 752 
Q 1681 391 2138 391 
Q 2594 391 2855 752 
Q 3116 1113 3116 1747 
z
" id="DejaVuSans-70" transform="scale(0.015625)"/>
       <path d="M 2631 2963 
Q 2534 3019 2420 3045 
Q 2306 3072 2169 3072 
Q 1681 3072 1420 2755 
Q 1159 2438 1159 1844 
L 1159 0 
L 581 0 
L 581 3500 
L 1159 3500 
L 1159 2956 
Q 1341 3275 1631 3429 
Q 1922 3584 2338 3584 
Q 2397 3584 2469 3576 
Q 2541 3569 2628 3553 
L 2631 2963 
z
" id="DejaVuSans-72" transform="scale(0.015625)"/>
       <path d="M 1959 3097 
Q 1497 3097 1228 2736 
Q 959 2375 959 1747 
Q 959 1119 1226 758 
Q 1494 397 1959 397 
Q 2419 397 2687 759 
Q 2956 1122 2956 1747 
Q 2956 2369 2687 2733 
Q 2419 3097 1959 3097 
z
M 1959 3584 
Q 2709 3584 3137 3096 
Q 3566 2609 3566 1747 
Q 3566 888 3137 398 
Q 2709 -91 1959 -91 
Q 1206 -91 779 398 
Q 353 888 353 1747 
Q 353 2609 779 3096 
Q 1206 3584 1959 3584 
z
" id="DejaVuSans-6f" transform="scale(0.015625)"/>
       <path d="M 3116 1747 
Q 3116 2381 2855 2742 
Q 2594 3103 2138 3103 
Q 1681 3103 1420 2742 
Q 1159 2381 1159 1747 
Q 1159 1113 1420 752 
Q 1681 391 2138 391 
Q 2594 391 2855 752 
Q 3116 1113 3116 1747 
z
M 1159 2969 
Q 1341 3281 1617 3432 
Q 1894 3584 2278 3584 
Q 2916 3584 3314 3078 
Q 3713 2572 3713 1747 
Q 3713 922 3314 415 
Q 2916 -91 2278 -91 
Q 1894 -91 1617 61 
Q 1341 213 1159 525 
L 1159 0 
L 581 0 
L 581 4863 
L 1159 4863 
L 1159 2969 
z
" id="DejaVuSans-62" transform="scale(0.015625)"/>
       <path d="M 2194 1759 
Q 1497 1759 1228 1600 
Q 959 1441 959 1056 
Q 959 750 1161 570 
Q 1363 391 1709 391 
Q 2188 391 2477 730 
Q 2766 1069 2766 1631 
L 2766 1759 
L 2194 1759 
z
M 3341 1997 
L 3341 0 
L 2766 0 
L 2766 531 
Q 2569 213 2275 61 
Q 1981 -91 1556 -91 
Q 1019 -91 701 211 
Q 384 513 384 1019 
Q 384 1609 779 1909 
Q 1175 2209 1959 2209 
L 2766 2209 
L 2766 2266 
Q 2766 2663 2505 2880 
Q 2244 3097 1772 3097 
Q 1472 3097 1187 3025 
Q 903 2953 641 2809 
L 641 3341 
Q 956 3463 1253 3523 
Q 1550 3584 1831 3584 
Q 2591 3584 2966 3190 
Q 3341 2797 3341 1997 
z
" id="DejaVuSans-61" transform="scale(0.015625)"/>
       <path d="M 603 3500 
L 1178 3500 
L 1178 0 
L 603 0 
L 603 3500 
z
M 603 4863 
L 1178 4863 
L 1178 4134 
L 603 4134 
L 603 4863 
z
" id="DejaVuSans-69" transform="scale(0.015625)"/>
       <path d="M 603 4863 
L 1178 4863 
L 1178 0 
L 603 0 
L 603 4863 
z
" id="DejaVuSans-6c" transform="scale(0.015625)"/>
       <path d="M 1172 4494 
L 1172 3500 
L 2356 3500 
L 2356 3053 
L 1172 3053 
L 1172 1153 
Q 1172 725 1289 603 
Q 1406 481 1766 481 
L 2356 481 
L 2356 0 
L 1766 0 
Q 1100 0 847 248 
Q 594 497 594 1153 
L 594 3053 
L 172 3053 
L 172 3500 
L 594 3500 
L 594 4494 
L 1172 4494 
z
" id="DejaVuSans-74" transform="scale(0.015625)"/>
       <path d="M 2059 -325 
Q 1816 -950 1584 -1140 
Q 1353 -1331 966 -1331 
L 506 -1331 
L 506 -850 
L 844 -850 
Q 1081 -850 1212 -737 
Q 1344 -625 1503 -206 
L 1606 56 
L 191 3500 
L 800 3500 
L 1894 763 
L 2988 3500 
L 3597 3500 
L 2059 -325 
z
" id="DejaVuSans-79" transform="scale(0.015625)"/>
      </defs>
      <use xlink:href="#DejaVuSans-45"/>
      <use x="63.183594" xlink:href="#DejaVuSans-64"/>
      <use x="126.660156" xlink:href="#DejaVuSans-67"/>
      <use x="190.136719" xlink:href="#DejaVuSans-65"/>
      <use x="251.660156" xlink:href="#DejaVuSans-20"/>
      <use x="283.447266" xlink:href="#DejaVuSans-70"/>
      <use x="346.923828" xlink:href="#DejaVuSans-72"/>
      <use x="385.787109" xlink:href="#DejaVuSans-6f"/>
      <use x="446.96875" xlink:href="#DejaVuSans-62"/>
      <use x="510.445312" xlink:href="#DejaVuSans-61"/>
      <use x="571.724609" xlink:href="#DejaVuSans-62"/>
      <use x="635.201172" xlink:href="#DejaVuSans-69"/>
      <use x="662.984375" xlink:href="#DejaVuSans-6c"/>
      <use x="690.767578" xlink:href="#DejaVuSans-69"/>
      <use x="718.550781" xlink:href="#DejaVuSans-74"/>
      <use x="757.759766" xlink:href="#DejaVuSans-79"/>
     </g>
    </g>
   </g>
   <g id="matplotlib.axis_2">
    <g id="ytick_1">
     <g id="line2d_11">
      <path clip-path="url(#pb9284b5e32)" d="M 94.119688 882.219111 
L 986.919688 882.219111 
" style="fill:none;stroke:#b0b0b0;stroke-linecap:square;stroke-width:0.8;"/>
     </g>
     <g id="line2d_12">
      <defs>
       <path d="M 0 0 
L -3.5 0 
" id="m12b2ea6f14" style="stroke:#000000;stroke-width:0.8;"/>
      </defs>
      <g>
       <use style="stroke:#000000;stroke-width:0.8;" x="94.119688" xlink:href="#m12b2ea6f14" y="882.219111"/>
      </g>
     </g>
     <g id="text_7">
      <!-- 10 -->
      <g transform="translate(48.944688 893.616767)scale(0.3 -0.3)">
       <use xlink:href="#DejaVuSans-31"/>
       <use x="63.623047" xlink:href="#DejaVuSans-30"/>
      </g>
     </g>
    </g>
    <g id="ytick_2">
     <g id="line2d_13">
      <path clip-path="url(#pb9284b5e32)" d="M 94.119688 740.20283 
L 986.919688 740.20283 
" style="fill:none;stroke:#b0b0b0;stroke-linecap:square;stroke-width:0.8;"/>
     </g>
     <g id="line2d_14">
      <g>
       <use style="stroke:#000000;stroke-width:0.8;" x="94.119688" xlink:href="#m12b2ea6f14" y="740.20283"/>
      </g>
     </g>
     <g id="text_8">
      <!-- 11 -->
      <g transform="translate(48.944688 751.600487)scale(0.3 -0.3)">
       <use xlink:href="#DejaVuSans-31"/>
       <use x="63.623047" xlink:href="#DejaVuSans-31"/>
      </g>
     </g>
    </g>
    <g id="ytick_3">
     <g id="line2d_15">
      <path clip-path="url(#pb9284b5e32)" d="M 94.119688 598.18655 
L 986.919688 598.18655 
" style="fill:none;stroke:#b0b0b0;stroke-linecap:square;stroke-width:0.8;"/>
     </g>
     <g id="line2d_16">
      <g>
       <use style="stroke:#000000;stroke-width:0.8;" x="94.119688" xlink:href="#m12b2ea6f14" y="598.18655"/>
      </g>
     </g>
     <g id="text_9">
      <!-- 12 -->
      <g transform="translate(48.944688 609.584206)scale(0.3 -0.3)">
       <use xlink:href="#DejaVuSans-31"/>
       <use x="63.623047" xlink:href="#DejaVuSans-32"/>
      </g>
     </g>
    </g>
    <g id="ytick_4">
     <g id="line2d_17">
      <path clip-path="url(#pb9284b5e32)" d="M 94.119688 456.170269 
L 986.919688 456.170269 
" style="fill:none;stroke:#b0b0b0;stroke-linecap:square;stroke-width:0.8;"/>
     </g>
     <g id="line2d_18">
      <g>
       <use style="stroke:#000000;stroke-width:0.8;" x="94.119688" xlink:href="#m12b2ea6f14" y="456.170269"/>
      </g>
     </g>
     <g id="text_10">
      <!-- 13 -->
      <g transform="translate(48.944688 467.567926)scale(0.3 -0.3)">
       <defs>
        <path d="M 2597 2516 
Q 3050 2419 3304 2112 
Q 3559 1806 3559 1356 
Q 3559 666 3084 287 
Q 2609 -91 1734 -91 
Q 1441 -91 1130 -33 
Q 819 25 488 141 
L 488 750 
Q 750 597 1062 519 
Q 1375 441 1716 441 
Q 2309 441 2620 675 
Q 2931 909 2931 1356 
Q 2931 1769 2642 2001 
Q 2353 2234 1838 2234 
L 1294 2234 
L 1294 2753 
L 1863 2753 
Q 2328 2753 2575 2939 
Q 2822 3125 2822 3475 
Q 2822 3834 2567 4026 
Q 2313 4219 1838 4219 
Q 1578 4219 1281 4162 
Q 984 4106 628 3988 
L 628 4550 
Q 988 4650 1302 4700 
Q 1616 4750 1894 4750 
Q 2613 4750 3031 4423 
Q 3450 4097 3450 3541 
Q 3450 3153 3228 2886 
Q 3006 2619 2597 2516 
z
" id="DejaVuSans-33" transform="scale(0.015625)"/>
       </defs>
       <use xlink:href="#DejaVuSans-31"/>
       <use x="63.623047" xlink:href="#DejaVuSans-33"/>
      </g>
     </g>
    </g>
    <g id="ytick_5">
     <g id="line2d_19">
      <path clip-path="url(#pb9284b5e32)" d="M 94.119688 314.153989 
L 986.919688 314.153989 
" style="fill:none;stroke:#b0b0b0;stroke-linecap:square;stroke-width:0.8;"/>
     </g>
     <g id="line2d_20">
      <g>
       <use style="stroke:#000000;stroke-width:0.8;" x="94.119688" xlink:href="#m12b2ea6f14" y="314.153989"/>
      </g>
     </g>
     <g id="text_11">
      <!-- 14 -->
      <g transform="translate(48.944688 325.551645)scale(0.3 -0.3)">
       <use xlink:href="#DejaVuSans-31"/>
       <use x="63.623047" xlink:href="#DejaVuSans-34"/>
      </g>
     </g>
    </g>
    <g id="ytick_6">
     <g id="line2d_21">
      <path clip-path="url(#pb9284b5e32)" d="M 94.119688 172.137708 
L 986.919688 172.137708 
" style="fill:none;stroke:#b0b0b0;stroke-linecap:square;stroke-width:0.8;"/>
     </g>
     <g id="line2d_22">
      <g>
       <use style="stroke:#000000;stroke-width:0.8;" x="94.119688" xlink:href="#m12b2ea6f14" y="172.137708"/>
      </g>
     </g>
     <g id="text_12">
      <!-- 15 -->
      <g transform="translate(48.944688 183.535364)scale(0.3 -0.3)">
       <defs>
        <path d="M 691 4666 
L 3169 4666 
L 3169 4134 
L 1269 4134 
L 1269 2991 
Q 1406 3038 1543 3061 
Q 1681 3084 1819 3084 
Q 2600 3084 3056 2656 
Q 3513 2228 3513 1497 
Q 3513 744 3044 326 
Q 2575 -91 1722 -91 
Q 1428 -91 1123 -41 
Q 819 9 494 109 
L 494 744 
Q 775 591 1075 516 
Q 1375 441 1709 441 
Q 2250 441 2565 725 
Q 2881 1009 2881 1497 
Q 2881 1984 2565 2268 
Q 2250 2553 1709 2553 
Q 1456 2553 1204 2497 
Q 953 2441 691 2322 
L 691 4666 
z
" id="DejaVuSans-35" transform="scale(0.015625)"/>
       </defs>
       <use xlink:href="#DejaVuSans-31"/>
       <use x="63.623047" xlink:href="#DejaVuSans-35"/>
      </g>
     </g>
    </g>
    <g id="ytick_7">
     <g id="line2d_23">
      <path clip-path="url(#pb9284b5e32)" d="M 94.119688 30.121428 
L 986.919688 30.121428 
" style="fill:none;stroke:#b0b0b0;stroke-linecap:square;stroke-width:0.8;"/>
     </g>
     <g id="line2d_24">
      <g>
       <use style="stroke:#000000;stroke-width:0.8;" x="94.119688" xlink:href="#m12b2ea6f14" y="30.121428"/>
      </g>
     </g>
     <g id="text_13">
      <!-- 16 -->
      <g transform="translate(48.944688 41.519084)scale(0.3 -0.3)">
       <use xlink:href="#DejaVuSans-31"/>
       <use x="63.623047" xlink:href="#DejaVuSans-36"/>
      </g>
     </g>
    </g>
    <g id="text_14">
     <!-- Avg. number of links / size -->
     <g transform="translate(36.833906 763.380234)rotate(-90)scale(0.39 -0.39)">
      <defs>
       <path d="M 2188 4044 
L 1331 1722 
L 3047 1722 
L 2188 4044 
z
M 1831 4666 
L 2547 4666 
L 4325 0 
L 3669 0 
L 3244 1197 
L 1141 1197 
L 716 0 
L 50 0 
L 1831 4666 
z
" id="DejaVuSans-41" transform="scale(0.015625)"/>
       <path d="M 191 3500 
L 800 3500 
L 1894 563 
L 2988 3500 
L 3597 3500 
L 2284 0 
L 1503 0 
L 191 3500 
z
" id="DejaVuSans-76" transform="scale(0.015625)"/>
       <path d="M 3513 2113 
L 3513 0 
L 2938 0 
L 2938 2094 
Q 2938 2591 2744 2837 
Q 2550 3084 2163 3084 
Q 1697 3084 1428 2787 
Q 1159 2491 1159 1978 
L 1159 0 
L 581 0 
L 581 3500 
L 1159 3500 
L 1159 2956 
Q 1366 3272 1645 3428 
Q 1925 3584 2291 3584 
Q 2894 3584 3203 3211 
Q 3513 2838 3513 2113 
z
" id="DejaVuSans-6e" transform="scale(0.015625)"/>
       <path d="M 544 1381 
L 544 3500 
L 1119 3500 
L 1119 1403 
Q 1119 906 1312 657 
Q 1506 409 1894 409 
Q 2359 409 2629 706 
Q 2900 1003 2900 1516 
L 2900 3500 
L 3475 3500 
L 3475 0 
L 2900 0 
L 2900 538 
Q 2691 219 2414 64 
Q 2138 -91 1772 -91 
Q 1169 -91 856 284 
Q 544 659 544 1381 
z
M 1991 3584 
L 1991 3584 
z
" id="DejaVuSans-75" transform="scale(0.015625)"/>
       <path d="M 3328 2828 
Q 3544 3216 3844 3400 
Q 4144 3584 4550 3584 
Q 5097 3584 5394 3201 
Q 5691 2819 5691 2113 
L 5691 0 
L 5113 0 
L 5113 2094 
Q 5113 2597 4934 2840 
Q 4756 3084 4391 3084 
Q 3944 3084 3684 2787 
Q 3425 2491 3425 1978 
L 3425 0 
L 2847 0 
L 2847 2094 
Q 2847 2600 2669 2842 
Q 2491 3084 2119 3084 
Q 1678 3084 1418 2786 
Q 1159 2488 1159 1978 
L 1159 0 
L 581 0 
L 581 3500 
L 1159 3500 
L 1159 2956 
Q 1356 3278 1631 3431 
Q 1906 3584 2284 3584 
Q 2666 3584 2933 3390 
Q 3200 3197 3328 2828 
z
" id="DejaVuSans-6d" transform="scale(0.015625)"/>
       <path d="M 2375 4863 
L 2375 4384 
L 1825 4384 
Q 1516 4384 1395 4259 
Q 1275 4134 1275 3809 
L 1275 3500 
L 2222 3500 
L 2222 3053 
L 1275 3053 
L 1275 0 
L 697 0 
L 697 3053 
L 147 3053 
L 147 3500 
L 697 3500 
L 697 3744 
Q 697 4328 969 4595 
Q 1241 4863 1831 4863 
L 2375 4863 
z
" id="DejaVuSans-66" transform="scale(0.015625)"/>
       <path d="M 581 4863 
L 1159 4863 
L 1159 1991 
L 2875 3500 
L 3609 3500 
L 1753 1863 
L 3688 0 
L 2938 0 
L 1159 1709 
L 1159 0 
L 581 0 
L 581 4863 
z
" id="DejaVuSans-6b" transform="scale(0.015625)"/>
       <path d="M 2834 3397 
L 2834 2853 
Q 2591 2978 2328 3040 
Q 2066 3103 1784 3103 
Q 1356 3103 1142 2972 
Q 928 2841 928 2578 
Q 928 2378 1081 2264 
Q 1234 2150 1697 2047 
L 1894 2003 
Q 2506 1872 2764 1633 
Q 3022 1394 3022 966 
Q 3022 478 2636 193 
Q 2250 -91 1575 -91 
Q 1294 -91 989 -36 
Q 684 19 347 128 
L 347 722 
Q 666 556 975 473 
Q 1284 391 1588 391 
Q 1994 391 2212 530 
Q 2431 669 2431 922 
Q 2431 1156 2273 1281 
Q 2116 1406 1581 1522 
L 1381 1569 
Q 847 1681 609 1914 
Q 372 2147 372 2553 
Q 372 3047 722 3315 
Q 1072 3584 1716 3584 
Q 2034 3584 2315 3537 
Q 2597 3491 2834 3397 
z
" id="DejaVuSans-73" transform="scale(0.015625)"/>
       <path d="M 1625 4666 
L 2156 4666 
L 531 -594 
L 0 -594 
L 1625 4666 
z
" id="DejaVuSans-2f" transform="scale(0.015625)"/>
       <path d="M 353 3500 
L 3084 3500 
L 3084 2975 
L 922 459 
L 3084 459 
L 3084 0 
L 275 0 
L 275 525 
L 2438 3041 
L 353 3041 
L 353 3500 
z
" id="DejaVuSans-7a" transform="scale(0.015625)"/>
      </defs>
      <use xlink:href="#DejaVuSans-41"/>
      <use x="62.533203" xlink:href="#DejaVuSans-76"/>
      <use x="121.712891" xlink:href="#DejaVuSans-67"/>
      <use x="185.189453" xlink:href="#DejaVuSans-2e"/>
      <use x="216.976562" xlink:href="#DejaVuSans-20"/>
      <use x="248.763672" xlink:href="#DejaVuSans-6e"/>
      <use x="312.142578" xlink:href="#DejaVuSans-75"/>
      <use x="375.521484" xlink:href="#DejaVuSans-6d"/>
      <use x="472.933594" xlink:href="#DejaVuSans-62"/>
      <use x="536.410156" xlink:href="#DejaVuSans-65"/>
      <use x="597.933594" xlink:href="#DejaVuSans-72"/>
      <use x="639.046875" xlink:href="#DejaVuSans-20"/>
      <use x="670.833984" xlink:href="#DejaVuSans-6f"/>
      <use x="732.015625" xlink:href="#DejaVuSans-66"/>
      <use x="767.220703" xlink:href="#DejaVuSans-20"/>
      <use x="799.007812" xlink:href="#DejaVuSans-6c"/>
      <use x="826.791016" xlink:href="#DejaVuSans-69"/>
      <use x="854.574219" xlink:href="#DejaVuSans-6e"/>
      <use x="917.953125" xlink:href="#DejaVuSans-6b"/>
      <use x="975.863281" xlink:href="#DejaVuSans-73"/>
      <use x="1027.962891" xlink:href="#DejaVuSans-20"/>
      <use x="1059.75" xlink:href="#DejaVuSans-2f"/>
      <use x="1093.441406" xlink:href="#DejaVuSans-20"/>
      <use x="1125.228516" xlink:href="#DejaVuSans-73"/>
      <use x="1177.328125" xlink:href="#DejaVuSans-69"/>
      <use x="1205.111328" xlink:href="#DejaVuSans-7a"/>
      <use x="1257.601562" xlink:href="#DejaVuSans-65"/>
     </g>
    </g>
   </g>
   <g id="line2d_25">
    <path clip-path="url(#pb9284b5e32)" d="M 134.701506 626.646612 
L 177.419209 513.48804 
L 220.136912 445.661064 
L 262.854616 384.338435 
L 305.572319 349.516043 
L 348.290022 313.64273 
L 391.007726 272.628428 
L 433.725429 255.046813 
L 476.443132 251.18397 
L 519.160836 236.300664 
L 561.878539 203.267677 
L 604.596243 187.077821 
L 647.313946 169.780238 
L 690.031649 184.152286 
L 732.749353 148.193763 
L 775.467056 147.568892 
L 818.184759 152.738284 
L 860.902463 132.742392 
L 903.620166 124.335028 
L 946.337869 99.112937 
" style="fill:none;stroke:#fe0002;stroke-dasharray:5.55,2.4;stroke-dashoffset:0;stroke-width:1.5;"/>
    <defs>
     <path d="M 0 4.5 
C 1.193414 4.5 2.338109 4.025852 3.181981 3.181981 
C 4.025852 2.338109 4.5 1.193414 4.5 0 
C 4.5 -1.193414 4.025852 -2.338109 3.181981 -3.181981 
C 2.338109 -4.025852 1.193414 -4.5 0 -4.5 
C -1.193414 -4.5 -2.338109 -4.025852 -3.181981 -3.181981 
C -4.025852 -2.338109 -4.5 -1.193414 -4.5 0 
C -4.5 1.193414 -4.025852 2.338109 -3.181981 3.181981 
C -2.338109 4.025852 -1.193414 4.5 0 4.5 
z
" id="m7eaeeac7a2" style="stroke:#000000;"/>
    </defs>
    <g clip-path="url(#pb9284b5e32)">
     <use style="fill:#fe0002;stroke:#000000;" x="134.701506" xlink:href="#m7eaeeac7a2" y="626.646612"/>
     <use style="fill:#fe0002;stroke:#000000;" x="177.419209" xlink:href="#m7eaeeac7a2" y="513.48804"/>
     <use style="fill:#fe0002;stroke:#000000;" x="220.136912" xlink:href="#m7eaeeac7a2" y="445.661064"/>
     <use style="fill:#fe0002;stroke:#000000;" x="262.854616" xlink:href="#m7eaeeac7a2" y="384.338435"/>
     <use style="fill:#fe0002;stroke:#000000;" x="305.572319" xlink:href="#m7eaeeac7a2" y="349.516043"/>
     <use style="fill:#fe0002;stroke:#000000;" x="348.290022" xlink:href="#m7eaeeac7a2" y="313.64273"/>
     <use style="fill:#fe0002;stroke:#000000;" x="391.007726" xlink:href="#m7eaeeac7a2" y="272.628428"/>
     <use style="fill:#fe0002;stroke:#000000;" x="433.725429" xlink:href="#m7eaeeac7a2" y="255.046813"/>
     <use style="fill:#fe0002;stroke:#000000;" x="476.443132" xlink:href="#m7eaeeac7a2" y="251.18397"/>
     <use style="fill:#fe0002;stroke:#000000;" x="519.160836" xlink:href="#m7eaeeac7a2" y="236.300664"/>
     <use style="fill:#fe0002;stroke:#000000;" x="561.878539" xlink:href="#m7eaeeac7a2" y="203.267677"/>
     <use style="fill:#fe0002;stroke:#000000;" x="604.596243" xlink:href="#m7eaeeac7a2" y="187.077821"/>
     <use style="fill:#fe0002;stroke:#000000;" x="647.313946" xlink:href="#m7eaeeac7a2" y="169.780238"/>
     <use style="fill:#fe0002;stroke:#000000;" x="690.031649" xlink:href="#m7eaeeac7a2" y="184.152286"/>
     <use style="fill:#fe0002;stroke:#000000;" x="732.749353" xlink:href="#m7eaeeac7a2" y="148.193763"/>
     <use style="fill:#fe0002;stroke:#000000;" x="775.467056" xlink:href="#m7eaeeac7a2" y="147.568892"/>
     <use style="fill:#fe0002;stroke:#000000;" x="818.184759" xlink:href="#m7eaeeac7a2" y="152.738284"/>
     <use style="fill:#fe0002;stroke:#000000;" x="860.902463" xlink:href="#m7eaeeac7a2" y="132.742392"/>
     <use style="fill:#fe0002;stroke:#000000;" x="903.620166" xlink:href="#m7eaeeac7a2" y="124.335028"/>
     <use style="fill:#fe0002;stroke:#000000;" x="946.337869" xlink:href="#m7eaeeac7a2" y="99.112937"/>
    </g>
   </g>
   <g id="line2d_26">
    <path clip-path="url(#pb9284b5e32)" d="M 134.701506 903.294327 
L 177.419209 812.489117 
L 220.136912 764.80005 
L 262.854616 717.821064 
L 305.572319 693.763507 
L 348.290022 664.451346 
L 391.007726 640.138159 
L 433.725429 620.199073 
L 476.443132 610.030708 
L 519.160836 594.806562 
L 561.878539 581.00258 
L 604.596243 569.499261 
L 647.313946 560.580639 
L 690.031649 551.747226 
L 732.749353 536.011822 
L 775.467056 525.303795 
L 818.184759 536.239048 
L 860.902463 526.155892 
L 903.620166 507.778986 
L 946.337869 502.126738 
" style="fill:none;stroke:#53fca1;stroke-dasharray:5.55,2.4;stroke-dashoffset:0;stroke-width:1.5;"/>
    <defs>
     <path d="M 0 6.363961 
L 6.363961 0 
L 0 -6.363961 
L -6.363961 0 
z
" id="ma917bd7199" style="stroke:#000000;stroke-linejoin:miter;"/>
    </defs>
    <g clip-path="url(#pb9284b5e32)">
     <use style="fill:#53fca1;stroke:#000000;stroke-linejoin:miter;" x="134.701506" xlink:href="#ma917bd7199" y="903.294327"/>
     <use style="fill:#53fca1;stroke:#000000;stroke-linejoin:miter;" x="177.419209" xlink:href="#ma917bd7199" y="812.489117"/>
     <use style="fill:#53fca1;stroke:#000000;stroke-linejoin:miter;" x="220.136912" xlink:href="#ma917bd7199" y="764.80005"/>
     <use style="fill:#53fca1;stroke:#000000;stroke-linejoin:miter;" x="262.854616" xlink:href="#ma917bd7199" y="717.821064"/>
     <use style="fill:#53fca1;stroke:#000000;stroke-linejoin:miter;" x="305.572319" xlink:href="#ma917bd7199" y="693.763507"/>
     <use style="fill:#53fca1;stroke:#000000;stroke-linejoin:miter;" x="348.290022" xlink:href="#ma917bd7199" y="664.451346"/>
     <use style="fill:#53fca1;stroke:#000000;stroke-linejoin:miter;" x="391.007726" xlink:href="#ma917bd7199" y="640.138159"/>
     <use style="fill:#53fca1;stroke:#000000;stroke-linejoin:miter;" x="433.725429" xlink:href="#ma917bd7199" y="620.199073"/>
     <use style="fill:#53fca1;stroke:#000000;stroke-linejoin:miter;" x="476.443132" xlink:href="#ma917bd7199" y="610.030708"/>
     <use style="fill:#53fca1;stroke:#000000;stroke-linejoin:miter;" x="519.160836" xlink:href="#ma917bd7199" y="594.806562"/>
     <use style="fill:#53fca1;stroke:#000000;stroke-linejoin:miter;" x="561.878539" xlink:href="#ma917bd7199" y="581.00258"/>
     <use style="fill:#53fca1;stroke:#000000;stroke-linejoin:miter;" x="604.596243" xlink:href="#ma917bd7199" y="569.499261"/>
     <use style="fill:#53fca1;stroke:#000000;stroke-linejoin:miter;" x="647.313946" xlink:href="#ma917bd7199" y="560.580639"/>
     <use style="fill:#53fca1;stroke:#000000;stroke-linejoin:miter;" x="690.031649" xlink:href="#ma917bd7199" y="551.747226"/>
     <use style="fill:#53fca1;stroke:#000000;stroke-linejoin:miter;" x="732.749353" xlink:href="#ma917bd7199" y="536.011822"/>
     <use style="fill:#53fca1;stroke:#000000;stroke-linejoin:miter;" x="775.467056" xlink:href="#ma917bd7199" y="525.303795"/>
     <use style="fill:#53fca1;stroke:#000000;stroke-linejoin:miter;" x="818.184759" xlink:href="#ma917bd7199" y="536.239048"/>
     <use style="fill:#53fca1;stroke:#000000;stroke-linejoin:miter;" x="860.902463" xlink:href="#ma917bd7199" y="526.155892"/>
     <use style="fill:#53fca1;stroke:#000000;stroke-linejoin:miter;" x="903.620166" xlink:href="#ma917bd7199" y="507.778986"/>
     <use style="fill:#53fca1;stroke:#000000;stroke-linejoin:miter;" x="946.337869" xlink:href="#ma917bd7199" y="502.126738"/>
    </g>
   </g>
   <g id="line2d_27">
    <path clip-path="url(#pb9284b5e32)" d="M 134.701506 790.078948 
L 177.419209 699.955416 
L 220.136912 652.408366 
L 262.854616 603.838798 
L 305.572319 573.816556 
L 348.290022 551.292774 
L 391.007726 524.4801 
L 433.725429 501.246237 
L 476.443132 488.89082 
L 519.160836 474.177934 
L 561.878539 452.279023 
L 604.596243 445.036193 
L 647.313946 432.908003 
L 690.031649 421.745523 
L 732.749353 412.99732 
L 775.467056 399.221741 
L 818.184759 402.573325 
L 860.902463 403.169793 
L 903.620166 382.691046 
L 946.337869 375.874264 
" style="fill:none;stroke:#0652ff;stroke-dasharray:5.55,2.4;stroke-dashoffset:0;stroke-width:1.5;"/>
    <defs>
     <path d="M -2.25 4.5 
L 0 2.25 
L 2.25 4.5 
L 4.5 2.25 
L 2.25 0 
L 4.5 -2.25 
L 2.25 -4.5 
L 0 -2.25 
L -2.25 -4.5 
L -4.5 -2.25 
L -2.25 0 
L -4.5 2.25 
z
" id="mc601ef352e" style="stroke:#000000;stroke-linejoin:miter;"/>
    </defs>
    <g clip-path="url(#pb9284b5e32)">
     <use style="fill:#0652ff;stroke:#000000;stroke-linejoin:miter;" x="134.701506" xlink:href="#mc601ef352e" y="790.078948"/>
     <use style="fill:#0652ff;stroke:#000000;stroke-linejoin:miter;" x="177.419209" xlink:href="#mc601ef352e" y="699.955416"/>
     <use style="fill:#0652ff;stroke:#000000;stroke-linejoin:miter;" x="220.136912" xlink:href="#mc601ef352e" y="652.408366"/>
     <use style="fill:#0652ff;stroke:#000000;stroke-linejoin:miter;" x="262.854616" xlink:href="#mc601ef352e" y="603.838798"/>
     <use style="fill:#0652ff;stroke:#000000;stroke-linejoin:miter;" x="305.572319" xlink:href="#mc601ef352e" y="573.816556"/>
     <use style="fill:#0652ff;stroke:#000000;stroke-linejoin:miter;" x="348.290022" xlink:href="#mc601ef352e" y="551.292774"/>
     <use style="fill:#0652ff;stroke:#000000;stroke-linejoin:miter;" x="391.007726" xlink:href="#mc601ef352e" y="524.4801"/>
     <use style="fill:#0652ff;stroke:#000000;stroke-linejoin:miter;" x="433.725429" xlink:href="#mc601ef352e" y="501.246237"/>
     <use style="fill:#0652ff;stroke:#000000;stroke-linejoin:miter;" x="476.443132" xlink:href="#mc601ef352e" y="488.89082"/>
     <use style="fill:#0652ff;stroke:#000000;stroke-linejoin:miter;" x="519.160836" xlink:href="#mc601ef352e" y="474.177934"/>
     <use style="fill:#0652ff;stroke:#000000;stroke-linejoin:miter;" x="561.878539" xlink:href="#mc601ef352e" y="452.279023"/>
     <use style="fill:#0652ff;stroke:#000000;stroke-linejoin:miter;" x="604.596243" xlink:href="#mc601ef352e" y="445.036193"/>
     <use style="fill:#0652ff;stroke:#000000;stroke-linejoin:miter;" x="647.313946" xlink:href="#mc601ef352e" y="432.908003"/>
     <use style="fill:#0652ff;stroke:#000000;stroke-linejoin:miter;" x="690.031649" xlink:href="#mc601ef352e" y="421.745523"/>
     <use style="fill:#0652ff;stroke:#000000;stroke-linejoin:miter;" x="732.749353" xlink:href="#mc601ef352e" y="412.99732"/>
     <use style="fill:#0652ff;stroke:#000000;stroke-linejoin:miter;" x="775.467056" xlink:href="#mc601ef352e" y="399.221741"/>
     <use style="fill:#0652ff;stroke:#000000;stroke-linejoin:miter;" x="818.184759" xlink:href="#mc601ef352e" y="402.573325"/>
     <use style="fill:#0652ff;stroke:#000000;stroke-linejoin:miter;" x="860.902463" xlink:href="#mc601ef352e" y="403.169793"/>
     <use style="fill:#0652ff;stroke:#000000;stroke-linejoin:miter;" x="903.620166" xlink:href="#mc601ef352e" y="382.691046"/>
     <use style="fill:#0652ff;stroke:#000000;stroke-linejoin:miter;" x="946.337869" xlink:href="#mc601ef352e" y="375.874264"/>
    </g>
   </g>
   <g id="line2d_28">
    <path clip-path="url(#pb9284b5e32)" d="M 134.701506 936.795967 
L 177.419209 845.706725 
L 220.136912 806.765861 
L 262.854616 768.165836 
L 305.572319 744.917771 
L 348.290022 729.636819 
L 391.007726 717.125185 
L 433.725429 704.400526 
L 476.443132 703.47742 
L 519.160836 695.950557 
L 561.878539 686.98933 
L 604.596243 679.434064 
L 647.313946 676.934577 
L 690.031649 677.516844 
L 732.749353 668.200576 
L 775.467056 661.284383 
L 818.184759 676.139286 
L 860.902463 664.792185 
L 903.620166 664.777984 
L 946.337869 660.986149 
" style="fill:none;stroke:#ae7181;stroke-dasharray:5.55,2.4;stroke-dashoffset:0;stroke-width:1.5;"/>
    <defs>
     <path d="M 0 -4.5 
L -1.010313 -1.390576 
L -4.279754 -1.390576 
L -1.634721 0.531153 
L -2.645034 3.640576 
L -0 1.718847 
L 2.645034 3.640576 
L 1.634721 0.531153 
L 4.279754 -1.390576 
L 1.010313 -1.390576 
z
" id="m465caff9eb" style="stroke:#000000;stroke-linejoin:bevel;"/>
    </defs>
    <g clip-path="url(#pb9284b5e32)">
     <use style="fill:#ae7181;stroke:#000000;stroke-linejoin:bevel;" x="134.701506" xlink:href="#m465caff9eb" y="936.795967"/>
     <use style="fill:#ae7181;stroke:#000000;stroke-linejoin:bevel;" x="177.419209" xlink:href="#m465caff9eb" y="845.706725"/>
     <use style="fill:#ae7181;stroke:#000000;stroke-linejoin:bevel;" x="220.136912" xlink:href="#m465caff9eb" y="806.765861"/>
     <use style="fill:#ae7181;stroke:#000000;stroke-linejoin:bevel;" x="262.854616" xlink:href="#m465caff9eb" y="768.165836"/>
     <use style="fill:#ae7181;stroke:#000000;stroke-linejoin:bevel;" x="305.572319" xlink:href="#m465caff9eb" y="744.917771"/>
     <use style="fill:#ae7181;stroke:#000000;stroke-linejoin:bevel;" x="348.290022" xlink:href="#m465caff9eb" y="729.636819"/>
     <use style="fill:#ae7181;stroke:#000000;stroke-linejoin:bevel;" x="391.007726" xlink:href="#m465caff9eb" y="717.125185"/>
     <use style="fill:#ae7181;stroke:#000000;stroke-linejoin:bevel;" x="433.725429" xlink:href="#m465caff9eb" y="704.400526"/>
     <use style="fill:#ae7181;stroke:#000000;stroke-linejoin:bevel;" x="476.443132" xlink:href="#m465caff9eb" y="703.47742"/>
     <use style="fill:#ae7181;stroke:#000000;stroke-linejoin:bevel;" x="519.160836" xlink:href="#m465caff9eb" y="695.950557"/>
     <use style="fill:#ae7181;stroke:#000000;stroke-linejoin:bevel;" x="561.878539" xlink:href="#m465caff9eb" y="686.98933"/>
     <use style="fill:#ae7181;stroke:#000000;stroke-linejoin:bevel;" x="604.596243" xlink:href="#m465caff9eb" y="679.434064"/>
     <use style="fill:#ae7181;stroke:#000000;stroke-linejoin:bevel;" x="647.313946" xlink:href="#m465caff9eb" y="676.934577"/>
     <use style="fill:#ae7181;stroke:#000000;stroke-linejoin:bevel;" x="690.031649" xlink:href="#m465caff9eb" y="677.516844"/>
     <use style="fill:#ae7181;stroke:#000000;stroke-linejoin:bevel;" x="732.749353" xlink:href="#m465caff9eb" y="668.200576"/>
     <use style="fill:#ae7181;stroke:#000000;stroke-linejoin:bevel;" x="775.467056" xlink:href="#m465caff9eb" y="661.284383"/>
     <use style="fill:#ae7181;stroke:#000000;stroke-linejoin:bevel;" x="818.184759" xlink:href="#m465caff9eb" y="676.139286"/>
     <use style="fill:#ae7181;stroke:#000000;stroke-linejoin:bevel;" x="860.902463" xlink:href="#m465caff9eb" y="664.792185"/>
     <use style="fill:#ae7181;stroke:#000000;stroke-linejoin:bevel;" x="903.620166" xlink:href="#m465caff9eb" y="664.777984"/>
     <use style="fill:#ae7181;stroke:#000000;stroke-linejoin:bevel;" x="946.337869" xlink:href="#m465caff9eb" y="660.986149"/>
    </g>
   </g>
   <g id="line2d_29">
    <path clip-path="url(#pb9284b5e32)" d="M 134.701506 502.552786 
L 177.419209 415.127564 
L 220.136912 364.882204 
L 262.854616 323.271434 
L 305.572319 294.271709 
L 348.290022 260.457633 
L 391.007726 237.891246 
L 433.725429 216.787627 
L 476.443132 215.15444 
L 519.160836 197.302993 
L 561.878539 180.374652 
L 604.596243 166.996719 
L 647.313946 157.311209 
L 690.031649 152.667276 
L 732.749353 146.446963 
L 775.467056 138.139011 
L 818.184759 139.047915 
L 860.902463 135.412298 
L 903.620166 123.369317 
L 946.337869 95.590933 
" style="fill:none;stroke:#ff81c0;stroke-dasharray:5.55,2.4;stroke-dashoffset:0;stroke-width:1.5;"/>
    <defs>
     <path d="M -4.5 -0 
L 4.5 4.5 
L 4.5 -4.5 
z
" id="m4f5e1fc794" style="stroke:#000000;stroke-linejoin:miter;"/>
    </defs>
    <g clip-path="url(#pb9284b5e32)">
     <use style="fill:#ff81c0;stroke:#000000;stroke-linejoin:miter;" x="134.701506" xlink:href="#m4f5e1fc794" y="502.552786"/>
     <use style="fill:#ff81c0;stroke:#000000;stroke-linejoin:miter;" x="177.419209" xlink:href="#m4f5e1fc794" y="415.127564"/>
     <use style="fill:#ff81c0;stroke:#000000;stroke-linejoin:miter;" x="220.136912" xlink:href="#m4f5e1fc794" y="364.882204"/>
     <use style="fill:#ff81c0;stroke:#000000;stroke-linejoin:miter;" x="262.854616" xlink:href="#m4f5e1fc794" y="323.271434"/>
     <use style="fill:#ff81c0;stroke:#000000;stroke-linejoin:miter;" x="305.572319" xlink:href="#m4f5e1fc794" y="294.271709"/>
     <use style="fill:#ff81c0;stroke:#000000;stroke-linejoin:miter;" x="348.290022" xlink:href="#m4f5e1fc794" y="260.457633"/>
     <use style="fill:#ff81c0;stroke:#000000;stroke-linejoin:miter;" x="391.007726" xlink:href="#m4f5e1fc794" y="237.891246"/>
     <use style="fill:#ff81c0;stroke:#000000;stroke-linejoin:miter;" x="433.725429" xlink:href="#m4f5e1fc794" y="216.787627"/>
     <use style="fill:#ff81c0;stroke:#000000;stroke-linejoin:miter;" x="476.443132" xlink:href="#m4f5e1fc794" y="215.15444"/>
     <use style="fill:#ff81c0;stroke:#000000;stroke-linejoin:miter;" x="519.160836" xlink:href="#m4f5e1fc794" y="197.302993"/>
     <use style="fill:#ff81c0;stroke:#000000;stroke-linejoin:miter;" x="561.878539" xlink:href="#m4f5e1fc794" y="180.374652"/>
     <use style="fill:#ff81c0;stroke:#000000;stroke-linejoin:miter;" x="604.596243" xlink:href="#m4f5e1fc794" y="166.996719"/>
     <use style="fill:#ff81c0;stroke:#000000;stroke-linejoin:miter;" x="647.313946" xlink:href="#m4f5e1fc794" y="157.311209"/>
     <use style="fill:#ff81c0;stroke:#000000;stroke-linejoin:miter;" x="690.031649" xlink:href="#m4f5e1fc794" y="152.667276"/>
     <use style="fill:#ff81c0;stroke:#000000;stroke-linejoin:miter;" x="732.749353" xlink:href="#m4f5e1fc794" y="146.446963"/>
     <use style="fill:#ff81c0;stroke:#000000;stroke-linejoin:miter;" x="775.467056" xlink:href="#m4f5e1fc794" y="138.139011"/>
     <use style="fill:#ff81c0;stroke:#000000;stroke-linejoin:miter;" x="818.184759" xlink:href="#m4f5e1fc794" y="139.047915"/>
     <use style="fill:#ff81c0;stroke:#000000;stroke-linejoin:miter;" x="860.902463" xlink:href="#m4f5e1fc794" y="135.412298"/>
     <use style="fill:#ff81c0;stroke:#000000;stroke-linejoin:miter;" x="903.620166" xlink:href="#m4f5e1fc794" y="123.369317"/>
     <use style="fill:#ff81c0;stroke:#000000;stroke-linejoin:miter;" x="946.337869" xlink:href="#m4f5e1fc794" y="95.590933"/>
    </g>
   </g>
   <g id="line2d_30">
    <path clip-path="url(#pb9284b5e32)" d="M 134.701506 596.723782 
L 177.419209 508.403857 
L 220.136912 460.231935 
L 262.854616 409.872962 
L 305.572319 388.329092 
L 348.290022 359.286763 
L 391.007726 340.441202 
L 433.725429 326.225373 
L 476.443132 310.120726 
L 519.160836 301.557145 
L 561.878539 290.153237 
L 604.596243 262.715692 
L 647.313946 262.17603 
L 690.031649 266.422317 
L 732.749353 241.384847 
L 775.467056 229.668503 
L 818.184759 242.734001 
L 860.902463 230.108754 
L 903.620166 222.752311 
L 946.337869 210.780338 
" style="fill:none;stroke:#f97306;stroke-dasharray:5.55,2.4;stroke-dashoffset:0;stroke-width:1.5;"/>
    <defs>
     <path d="M 0 6.363961 
L 3.818377 0 
L 0 -6.363961 
L -3.818377 0 
z
" id="mc46902b0fb" style="stroke:#000000;stroke-linejoin:miter;"/>
    </defs>
    <g clip-path="url(#pb9284b5e32)">
     <use style="fill:#f97306;stroke:#000000;stroke-linejoin:miter;" x="134.701506" xlink:href="#mc46902b0fb" y="596.723782"/>
     <use style="fill:#f97306;stroke:#000000;stroke-linejoin:miter;" x="177.419209" xlink:href="#mc46902b0fb" y="508.403857"/>
     <use style="fill:#f97306;stroke:#000000;stroke-linejoin:miter;" x="220.136912" xlink:href="#mc46902b0fb" y="460.231935"/>
     <use style="fill:#f97306;stroke:#000000;stroke-linejoin:miter;" x="262.854616" xlink:href="#mc46902b0fb" y="409.872962"/>
     <use style="fill:#f97306;stroke:#000000;stroke-linejoin:miter;" x="305.572319" xlink:href="#mc46902b0fb" y="388.329092"/>
     <use style="fill:#f97306;stroke:#000000;stroke-linejoin:miter;" x="348.290022" xlink:href="#mc46902b0fb" y="359.286763"/>
     <use style="fill:#f97306;stroke:#000000;stroke-linejoin:miter;" x="391.007726" xlink:href="#mc46902b0fb" y="340.441202"/>
     <use style="fill:#f97306;stroke:#000000;stroke-linejoin:miter;" x="433.725429" xlink:href="#mc46902b0fb" y="326.225373"/>
     <use style="fill:#f97306;stroke:#000000;stroke-linejoin:miter;" x="476.443132" xlink:href="#mc46902b0fb" y="310.120726"/>
     <use style="fill:#f97306;stroke:#000000;stroke-linejoin:miter;" x="519.160836" xlink:href="#mc46902b0fb" y="301.557145"/>
     <use style="fill:#f97306;stroke:#000000;stroke-linejoin:miter;" x="561.878539" xlink:href="#mc46902b0fb" y="290.153237"/>
     <use style="fill:#f97306;stroke:#000000;stroke-linejoin:miter;" x="604.596243" xlink:href="#mc46902b0fb" y="262.715692"/>
     <use style="fill:#f97306;stroke:#000000;stroke-linejoin:miter;" x="647.313946" xlink:href="#mc46902b0fb" y="262.17603"/>
     <use style="fill:#f97306;stroke:#000000;stroke-linejoin:miter;" x="690.031649" xlink:href="#mc46902b0fb" y="266.422317"/>
     <use style="fill:#f97306;stroke:#000000;stroke-linejoin:miter;" x="732.749353" xlink:href="#mc46902b0fb" y="241.384847"/>
     <use style="fill:#f97306;stroke:#000000;stroke-linejoin:miter;" x="775.467056" xlink:href="#mc46902b0fb" y="229.668503"/>
     <use style="fill:#f97306;stroke:#000000;stroke-linejoin:miter;" x="818.184759" xlink:href="#mc46902b0fb" y="242.734001"/>
     <use style="fill:#f97306;stroke:#000000;stroke-linejoin:miter;" x="860.902463" xlink:href="#mc46902b0fb" y="230.108754"/>
     <use style="fill:#f97306;stroke:#000000;stroke-linejoin:miter;" x="903.620166" xlink:href="#mc46902b0fb" y="222.752311"/>
     <use style="fill:#f97306;stroke:#000000;stroke-linejoin:miter;" x="946.337869" xlink:href="#mc46902b0fb" y="210.780338"/>
    </g>
   </g>
   <g id="patch_3">
    <path d="M 94.119688 1005.12 
L 94.119688 7.2 
" style="fill:none;stroke:#000000;stroke-linecap:square;stroke-linejoin:miter;stroke-width:0.8;"/>
   </g>
   <g id="patch_4">
    <path d="M 986.919688 1005.12 
L 986.919688 7.2 
" style="fill:none;stroke:#000000;stroke-linecap:square;stroke-linejoin:miter;stroke-width:0.8;"/>
   </g>
   <g id="patch_5">
    <path d="M 94.119688 1005.12 
L 986.919687 1005.12 
" style="fill:none;stroke:#000000;stroke-linecap:square;stroke-linejoin:miter;stroke-width:0.8;"/>
   </g>
   <g id="patch_6">
    <path d="M 94.119688 7.2 
L 986.919687 7.2 
" style="fill:none;stroke:#000000;stroke-linecap:square;stroke-linejoin:miter;stroke-width:0.8;"/>
   </g>
   <g id="legend_1">
    <g id="patch_7">
     <path d="M 564.23375 990.12 
L 965.919688 990.12 
Q 971.919688 990.12 971.919688 984.12 
L 971.919688 722.91375 
Q 971.919688 716.91375 965.919688 716.91375 
L 564.23375 716.91375 
Q 558.23375 716.91375 558.23375 722.91375 
L 558.23375 984.12 
Q 558.23375 990.12 564.23375 990.12 
z
" style="fill:#ffffff;opacity:0.8;stroke:#cccccc;stroke-linejoin:miter;"/>
    </g>
    <g id="line2d_31">
     <path d="M 570.23375 741.209063 
L 630.23375 741.209063 
" style="fill:none;stroke:#fe0002;stroke-dasharray:5.55,2.4;stroke-dashoffset:0;stroke-width:1.5;"/>
    </g>
    <g id="line2d_32">
     <g>
      <use style="fill:#fe0002;stroke:#000000;" x="600.23375" xlink:href="#m7eaeeac7a2" y="741.209063"/>
     </g>
    </g>
    <g id="text_15">
     <!-- Pairing links -->
     <g transform="translate(654.23375 751.709063)scale(0.3 -0.3)">
      <defs>
       <path d="M 1259 4147 
L 1259 2394 
L 2053 2394 
Q 2494 2394 2734 2622 
Q 2975 2850 2975 3272 
Q 2975 3691 2734 3919 
Q 2494 4147 2053 4147 
L 1259 4147 
z
M 628 4666 
L 2053 4666 
Q 2838 4666 3239 4311 
Q 3641 3956 3641 3272 
Q 3641 2581 3239 2228 
Q 2838 1875 2053 1875 
L 1259 1875 
L 1259 0 
L 628 0 
L 628 4666 
z
" id="DejaVuSans-50" transform="scale(0.015625)"/>
      </defs>
      <use xlink:href="#DejaVuSans-50"/>
      <use x="55.802734" xlink:href="#DejaVuSans-61"/>
      <use x="117.082031" xlink:href="#DejaVuSans-69"/>
      <use x="144.865234" xlink:href="#DejaVuSans-72"/>
      <use x="185.978516" xlink:href="#DejaVuSans-69"/>
      <use x="213.761719" xlink:href="#DejaVuSans-6e"/>
      <use x="277.140625" xlink:href="#DejaVuSans-67"/>
      <use x="340.617188" xlink:href="#DejaVuSans-20"/>
      <use x="372.404297" xlink:href="#DejaVuSans-6c"/>
      <use x="400.1875" xlink:href="#DejaVuSans-69"/>
      <use x="427.970703" xlink:href="#DejaVuSans-6e"/>
      <use x="491.349609" xlink:href="#DejaVuSans-6b"/>
      <use x="549.259766" xlink:href="#DejaVuSans-73"/>
     </g>
    </g>
    <g id="line2d_33">
     <path d="M 570.23375 785.243438 
L 630.23375 785.243438 
" style="fill:none;stroke:#53fca1;stroke-dasharray:5.55,2.4;stroke-dashoffset:0;stroke-width:1.5;"/>
    </g>
    <g id="line2d_34">
     <g>
      <use style="fill:#53fca1;stroke:#000000;stroke-linejoin:miter;" x="600.23375" xlink:href="#ma917bd7199" y="785.243438"/>
     </g>
    </g>
    <g id="text_16">
     <!-- Smooth links -->
     <g transform="translate(654.23375 795.743438)scale(0.3 -0.3)">
      <defs>
       <path d="M 3425 4513 
L 3425 3897 
Q 3066 4069 2747 4153 
Q 2428 4238 2131 4238 
Q 1616 4238 1336 4038 
Q 1056 3838 1056 3469 
Q 1056 3159 1242 3001 
Q 1428 2844 1947 2747 
L 2328 2669 
Q 3034 2534 3370 2195 
Q 3706 1856 3706 1288 
Q 3706 609 3251 259 
Q 2797 -91 1919 -91 
Q 1588 -91 1214 -16 
Q 841 59 441 206 
L 441 856 
Q 825 641 1194 531 
Q 1563 422 1919 422 
Q 2459 422 2753 634 
Q 3047 847 3047 1241 
Q 3047 1584 2836 1778 
Q 2625 1972 2144 2069 
L 1759 2144 
Q 1053 2284 737 2584 
Q 422 2884 422 3419 
Q 422 4038 858 4394 
Q 1294 4750 2059 4750 
Q 2388 4750 2728 4690 
Q 3069 4631 3425 4513 
z
" id="DejaVuSans-53" transform="scale(0.015625)"/>
       <path d="M 3513 2113 
L 3513 0 
L 2938 0 
L 2938 2094 
Q 2938 2591 2744 2837 
Q 2550 3084 2163 3084 
Q 1697 3084 1428 2787 
Q 1159 2491 1159 1978 
L 1159 0 
L 581 0 
L 581 4863 
L 1159 4863 
L 1159 2956 
Q 1366 3272 1645 3428 
Q 1925 3584 2291 3584 
Q 2894 3584 3203 3211 
Q 3513 2838 3513 2113 
z
" id="DejaVuSans-68" transform="scale(0.015625)"/>
      </defs>
      <use xlink:href="#DejaVuSans-53"/>
      <use x="63.476562" xlink:href="#DejaVuSans-6d"/>
      <use x="160.888672" xlink:href="#DejaVuSans-6f"/>
      <use x="222.070312" xlink:href="#DejaVuSans-6f"/>
      <use x="283.251953" xlink:href="#DejaVuSans-74"/>
      <use x="322.460938" xlink:href="#DejaVuSans-68"/>
      <use x="385.839844" xlink:href="#DejaVuSans-20"/>
      <use x="417.626953" xlink:href="#DejaVuSans-6c"/>
      <use x="445.410156" xlink:href="#DejaVuSans-69"/>
      <use x="473.193359" xlink:href="#DejaVuSans-6e"/>
      <use x="536.572266" xlink:href="#DejaVuSans-6b"/>
      <use x="594.482422" xlink:href="#DejaVuSans-73"/>
     </g>
    </g>
    <g id="line2d_35">
     <path d="M 570.23375 829.277813 
L 630.23375 829.277813 
" style="fill:none;stroke:#0652ff;stroke-dasharray:5.55,2.4;stroke-dashoffset:0;stroke-width:1.5;"/>
    </g>
    <g id="line2d_36">
     <g>
      <use style="fill:#0652ff;stroke:#000000;stroke-linejoin:miter;" x="600.23375" xlink:href="#mc601ef352e" y="829.277813"/>
     </g>
    </g>
    <g id="text_17">
     <!-- Slim links -->
     <g transform="translate(654.23375 839.777813)scale(0.3 -0.3)">
      <use xlink:href="#DejaVuSans-53"/>
      <use x="63.476562" xlink:href="#DejaVuSans-6c"/>
      <use x="91.259766" xlink:href="#DejaVuSans-69"/>
      <use x="119.042969" xlink:href="#DejaVuSans-6d"/>
      <use x="216.455078" xlink:href="#DejaVuSans-20"/>
      <use x="248.242188" xlink:href="#DejaVuSans-6c"/>
      <use x="276.025391" xlink:href="#DejaVuSans-69"/>
      <use x="303.808594" xlink:href="#DejaVuSans-6e"/>
      <use x="367.1875" xlink:href="#DejaVuSans-6b"/>
      <use x="425.097656" xlink:href="#DejaVuSans-73"/>
     </g>
    </g>
    <g id="line2d_37">
     <path d="M 570.23375 873.312188 
L 630.23375 873.312188 
" style="fill:none;stroke:#ae7181;stroke-dasharray:5.55,2.4;stroke-dashoffset:0;stroke-width:1.5;"/>
    </g>
    <g id="line2d_38">
     <g>
      <use style="fill:#ae7181;stroke:#000000;stroke-linejoin:bevel;" x="600.23375" xlink:href="#m465caff9eb" y="873.312188"/>
     </g>
    </g>
    <g id="text_18">
     <!-- Pairing Lazy links -->
     <g transform="translate(654.23375 883.812188)scale(0.3 -0.3)">
      <defs>
       <path d="M 628 4666 
L 1259 4666 
L 1259 531 
L 3531 531 
L 3531 0 
L 628 0 
L 628 4666 
z
" id="DejaVuSans-4c" transform="scale(0.015625)"/>
      </defs>
      <use xlink:href="#DejaVuSans-50"/>
      <use x="55.802734" xlink:href="#DejaVuSans-61"/>
      <use x="117.082031" xlink:href="#DejaVuSans-69"/>
      <use x="144.865234" xlink:href="#DejaVuSans-72"/>
      <use x="185.978516" xlink:href="#DejaVuSans-69"/>
      <use x="213.761719" xlink:href="#DejaVuSans-6e"/>
      <use x="277.140625" xlink:href="#DejaVuSans-67"/>
      <use x="340.617188" xlink:href="#DejaVuSans-20"/>
      <use x="372.404297" xlink:href="#DejaVuSans-4c"/>
      <use x="428.117188" xlink:href="#DejaVuSans-61"/>
      <use x="489.396484" xlink:href="#DejaVuSans-7a"/>
      <use x="541.886719" xlink:href="#DejaVuSans-79"/>
      <use x="601.066406" xlink:href="#DejaVuSans-20"/>
      <use x="632.853516" xlink:href="#DejaVuSans-6c"/>
      <use x="660.636719" xlink:href="#DejaVuSans-69"/>
      <use x="688.419922" xlink:href="#DejaVuSans-6e"/>
      <use x="751.798828" xlink:href="#DejaVuSans-6b"/>
      <use x="809.708984" xlink:href="#DejaVuSans-73"/>
     </g>
    </g>
    <g id="line2d_39">
     <path d="M 570.23375 917.346563 
L 630.23375 917.346563 
" style="fill:none;stroke:#ff81c0;stroke-dasharray:5.55,2.4;stroke-dashoffset:0;stroke-width:1.5;"/>
    </g>
    <g id="line2d_40">
     <g>
      <use style="fill:#ff81c0;stroke:#000000;stroke-linejoin:miter;" x="600.23375" xlink:href="#m4f5e1fc794" y="917.346563"/>
     </g>
    </g>
    <g id="text_19">
     <!-- Pairing Slim links -->
     <g transform="translate(654.23375 927.846563)scale(0.3 -0.3)">
      <use xlink:href="#DejaVuSans-50"/>
      <use x="55.802734" xlink:href="#DejaVuSans-61"/>
      <use x="117.082031" xlink:href="#DejaVuSans-69"/>
      <use x="144.865234" xlink:href="#DejaVuSans-72"/>
      <use x="185.978516" xlink:href="#DejaVuSans-69"/>
      <use x="213.761719" xlink:href="#DejaVuSans-6e"/>
      <use x="277.140625" xlink:href="#DejaVuSans-67"/>
      <use x="340.617188" xlink:href="#DejaVuSans-20"/>
      <use x="372.404297" xlink:href="#DejaVuSans-53"/>
      <use x="435.880859" xlink:href="#DejaVuSans-6c"/>
      <use x="463.664062" xlink:href="#DejaVuSans-69"/>
      <use x="491.447266" xlink:href="#DejaVuSans-6d"/>
      <use x="588.859375" xlink:href="#DejaVuSans-20"/>
      <use x="620.646484" xlink:href="#DejaVuSans-6c"/>
      <use x="648.429688" xlink:href="#DejaVuSans-69"/>
      <use x="676.212891" xlink:href="#DejaVuSans-6e"/>
      <use x="739.591797" xlink:href="#DejaVuSans-6b"/>
      <use x="797.501953" xlink:href="#DejaVuSans-73"/>
     </g>
    </g>
    <g id="line2d_41">
     <path d="M 570.23375 961.380938 
L 630.23375 961.380938 
" style="fill:none;stroke:#f97306;stroke-dasharray:5.55,2.4;stroke-dashoffset:0;stroke-width:1.5;"/>
    </g>
    <g id="line2d_42">
     <g>
      <use style="fill:#f97306;stroke:#000000;stroke-linejoin:miter;" x="600.23375" xlink:href="#mc46902b0fb" y="961.380938"/>
     </g>
    </g>
    <g id="text_20">
     <!-- Pairing Smooth links -->
     <g transform="translate(654.23375 971.880938)scale(0.3 -0.3)">
      <use xlink:href="#DejaVuSans-50"/>
      <use x="55.802734" xlink:href="#DejaVuSans-61"/>
      <use x="117.082031" xlink:href="#DejaVuSans-69"/>
      <use x="144.865234" xlink:href="#DejaVuSans-72"/>
      <use x="185.978516" xlink:href="#DejaVuSans-69"/>
      <use x="213.761719" xlink:href="#DejaVuSans-6e"/>
      <use x="277.140625" xlink:href="#DejaVuSans-67"/>
      <use x="340.617188" xlink:href="#DejaVuSans-20"/>
      <use x="372.404297" xlink:href="#DejaVuSans-53"/>
      <use x="435.880859" xlink:href="#DejaVuSans-6d"/>
      <use x="533.292969" xlink:href="#DejaVuSans-6f"/>
      <use x="594.474609" xlink:href="#DejaVuSans-6f"/>
      <use x="655.65625" xlink:href="#DejaVuSans-74"/>
      <use x="694.865234" xlink:href="#DejaVuSans-68"/>
      <use x="758.244141" xlink:href="#DejaVuSans-20"/>
      <use x="790.03125" xlink:href="#DejaVuSans-6c"/>
      <use x="817.814453" xlink:href="#DejaVuSans-69"/>
      <use x="845.597656" xlink:href="#DejaVuSans-6e"/>
      <use x="908.976562" xlink:href="#DejaVuSans-6b"/>
      <use x="966.886719" xlink:href="#DejaVuSans-73"/>
     </g>
    </g>
   </g>
  </g>
 </g>
 <defs>
  <clipPath id="pb9284b5e32">
   <rect height="997.92" width="892.8" x="94.119688" y="7.2"/>
  </clipPath>
 </defs>
</svg>
