<?xml version="1.0" encoding="utf-8" standalone="no"?>
<!DOCTYPE svg PUBLIC "-//W3C//DTD SVG 1.1//EN"
  "http://www.w3.org/Graphics/SVG/1.1/DTD/svg11.dtd">
<svg height="1090.099062pt" version="1.1" viewBox="0 0 1001.800955 1090.099062" width="1001.800955pt" xmlns="http://www.w3.org/2000/svg" xmlns:xlink="http://www.w3.org/1999/xlink">
 <metadata>
  <rdf:RDF xmlns:cc="http://creativecommons.org/ns#" xmlns:dc="http://purl.org/dc/elements/1.1/" xmlns:rdf="http://www.w3.org/1999/02/22-rdf-syntax-ns#">
   <cc:Work>
    <dc:type rdf:resource="http://purl.org/dc/dcmitype/StillImage"/>
    <dc:date>2021-06-14T10:56:50.134552</dc:date>
    <dc:format>image/svg+xml</dc:format>
    <dc:creator>
     <cc:Agent>
      <dc:title>Matplotlib v3.4.2, https://matplotlib.org/</dc:title>
     </cc:Agent>
    </dc:creator>
   </cc:Work>
  </rdf:RDF>
 </metadata>
 <defs>
  <style type="text/css">*{stroke-linecap:butt;stroke-linejoin:round;}</style>
 </defs>
 <g id="figure_1">
  <g id="patch_1">
   <path d="M 0 1090.099062 
L 1001.800955 1090.099062 
L 1001.800955 0 
L 0 0 
z
" style="fill:#ffffff;"/>
  </g>
  <g id="axes_1">
   <g id="patch_2">
    <path d="M 80.996875 1005.12 
L 973.796875 1005.12 
L 973.796875 7.2 
L 80.996875 7.2 
z
" style="fill:#ffffff;"/>
   </g>
   <g id="PolyCollection_1">
    <defs>
     <path d="M 121.578693 -242.461362 
L 121.578693 -242.461362 
L 149.566154 -550.021485 
L 177.553615 -607.18387 
L 205.541076 -640.706071 
L 233.528536 -663.371153 
L 261.515997 -678.982505 
L 289.503458 -694.230012 
L 317.490919 -706.387267 
L 345.47838 -715.619213 
L 373.465841 -725.287772 
L 401.453301 -732.48219 
L 429.440762 -738.206675 
L 457.428223 -744.780131 
L 485.415684 -749.296654 
L 513.403145 -755.142421 
L 541.390605 -759.974275 
L 569.378066 -763.476884 
L 597.365527 -766.174184 
L 625.352988 -770.05034 
L 653.340449 -772.369242 
L 681.327909 -775.988281 
L 709.31537 -778.879631 
L 737.302831 -780.679448 
L 765.290292 -784.274231 
L 793.277753 -786.607687 
L 821.265214 -788.169792 
L 849.252674 -790.440182 
L 877.240135 -791.376475 
L 905.227596 -792.104164 
L 933.215057 -794.233866 
L 933.215057 -797.115514 
L 933.215057 -797.115514 
L 905.227596 -796.82929 
L 877.240135 -794.01556 
L 849.252674 -791.764575 
L 821.265214 -790.037527 
L 793.277753 -788.140685 
L 765.290292 -787.214094 
L 737.302831 -784.463431 
L 709.31537 -782.435604 
L 681.327909 -779.626725 
L 653.340449 -775.837892 
L 625.352988 -772.699127 
L 597.365527 -770.220134 
L 569.378066 -766.610797 
L 541.390605 -762.050614 
L 513.403145 -757.602009 
L 485.415684 -752.930247 
L 457.428223 -748.632031 
L 429.440762 -741.568598 
L 401.453301 -734.864158 
L 373.465841 -728.858299 
L 345.47838 -719.485667 
L 317.490919 -709.530883 
L 289.503458 -698.528227 
L 261.515997 -684.31889 
L 233.528536 -666.907721 
L 205.541076 -643.55376 
L 177.553615 -609.769591 
L 149.566154 -551.787343 
L 121.578693 -242.461362 
z
" id="me84764e528" style="stroke:#fe0002;stroke-opacity:0.3;"/>
    </defs>
    <g clip-path="url(#pc7eee95839)">
     <use style="fill:#fe0002;fill-opacity:0.3;stroke:#fe0002;stroke-opacity:0.3;" x="0" xlink:href="#me84764e528" y="1090.099062"/>
    </g>
   </g>
   <g id="PolyCollection_2">
    <g clip-path="url(#pc7eee95839)">
     <use style="fill:#fe0002;fill-opacity:0.3;stroke:#fe0002;stroke-opacity:0.3;" x="0" xlink:href="#me84764e528" y="1090.099062"/>
    </g>
   </g>
   <g id="PolyCollection_3">
    <defs>
     <path d="M 121.578693 -130.339063 
L 121.578693 -130.339063 
L 149.566154 -565.836589 
L 177.553615 -644.397879 
L 205.541076 -692.090607 
L 233.528536 -722.997978 
L 261.515997 -746.327683 
L 289.503458 -767.057113 
L 317.490919 -783.866726 
L 345.47838 -796.397528 
L 373.465841 -808.598444 
L 401.453301 -818.121466 
L 429.440762 -828.867005 
L 457.428223 -834.610896 
L 485.415684 -844.269752 
L 513.403145 -851.459318 
L 541.390605 -858.110395 
L 569.378066 -863.927054 
L 597.365527 -867.924492 
L 625.352988 -872.368245 
L 653.340449 -876.030946 
L 681.327909 -880.372822 
L 709.31537 -884.137399 
L 737.302831 -887.654562 
L 765.290292 -892.433052 
L 793.277753 -895.35351 
L 821.265214 -894.053373 
L 849.252674 -900.917905 
L 877.240135 -902.174381 
L 905.227596 -905.09969 
L 933.215057 -906.598729 
L 933.215057 -911.852642 
L 933.215057 -911.852642 
L 905.227596 -909.111681 
L 877.240135 -906.069942 
L 849.252674 -905.313145 
L 821.265214 -901.373923 
L 793.277753 -898.555341 
L 765.290292 -896.31406 
L 737.302831 -893.485776 
L 709.31537 -890.672045 
L 681.327909 -887.935935 
L 653.340449 -881.891266 
L 625.352988 -877.840465 
L 597.365527 -873.183256 
L 569.378066 -867.14829 
L 541.390605 -862.141791 
L 513.403145 -855.951584 
L 485.415684 -849.130714 
L 457.428223 -841.000004 
L 429.440762 -832.898401 
L 401.453301 -823.477256 
L 373.465841 -816.704898 
L 345.47838 -800.981968 
L 317.490919 -787.204392 
L 289.503458 -772.184894 
L 261.515997 -752.876883 
L 233.528536 -726.219214 
L 205.541076 -697.07285 
L 177.553615 -648.375911 
L 149.566154 -569.247024 
L 121.578693 -130.339063 
z
" id="ma2c6dc970b" style="stroke:#53fca1;stroke-opacity:0.3;"/>
    </defs>
    <g clip-path="url(#pc7eee95839)">
     <use style="fill:#53fca1;fill-opacity:0.3;stroke:#53fca1;stroke-opacity:0.3;" x="0" xlink:href="#ma2c6dc970b" y="1090.099062"/>
    </g>
   </g>
   <g id="PolyCollection_4">
    <defs>
     <path d="M 121.578693 -130.339063 
L 121.578693 -130.339063 
L 149.566154 -386.94156 
L 177.553615 -428.565363 
L 205.541076 -453.112734 
L 233.528536 -468.922987 
L 261.515997 -480.696993 
L 289.503458 -491.597772 
L 317.490919 -500.072921 
L 345.47838 -506.588162 
L 373.465841 -512.448483 
L 401.453301 -517.581115 
L 429.440762 -522.966013 
L 457.428223 -526.080521 
L 485.415684 -530.922078 
L 513.403145 -533.794023 
L 541.390605 -537.427616 
L 569.378066 -540.546976 
L 597.365527 -542.87558 
L 625.352988 -545.068349 
L 653.340449 -546.640157 
L 681.327909 -549.138556 
L 709.31537 -550.317412 
L 737.302831 -552.345238 
L 765.290292 -554.785421 
L 793.277753 -556.337824 
L 821.265214 -555.619838 
L 849.252674 -559.166108 
L 877.240135 -559.525101 
L 905.227596 -560.699106 
L 933.215057 -562.120525 
L 933.215057 -564.832379 
L 933.215057 -564.832379 
L 905.227596 -562.993751 
L 877.240135 -561.810044 
L 849.252674 -561.164827 
L 821.265214 -559.505696 
L 793.277753 -557.822309 
L 765.290292 -556.813247 
L 737.302831 -555.493705 
L 709.31537 -553.849128 
L 681.327909 -552.772149 
L 653.340449 -549.449036 
L 625.352988 -547.620111 
L 597.365527 -545.272102 
L 569.378066 -541.822857 
L 541.390605 -539.533063 
L 513.403145 -536.850316 
L 485.415684 -532.736449 
L 457.428223 -528.874846 
L 429.440762 -524.828896 
L 401.453301 -519.807843 
L 373.465841 -516.276127 
L 345.47838 -508.824593 
L 317.490919 -501.693242 
L 289.503458 -493.703218 
L 261.515997 -484.345139 
L 233.528536 -470.538456 
L 205.541076 -455.71786 
L 177.553615 -430.617445 
L 149.566154 -388.712269 
L 121.578693 -130.339063 
z
" id="m05ff6def4d" style="stroke:#53fca1;stroke-opacity:0.3;"/>
    </defs>
    <g clip-path="url(#pc7eee95839)">
     <use style="fill:#53fca1;fill-opacity:0.3;stroke:#53fca1;stroke-opacity:0.3;" x="0" xlink:href="#m05ff6def4d" y="1090.099062"/>
    </g>
   </g>
   <g id="PolyCollection_5">
    <defs>
     <path d="M 121.578693 -130.339063 
L 121.578693 -130.339063 
L 149.566154 -600.474579 
L 177.553615 -698.945436 
L 205.541076 -755.671208 
L 233.528536 -796.043386 
L 261.515997 -828.265449 
L 289.503458 -852.410165 
L 317.490919 -873.809069 
L 345.47838 -891.943075 
L 373.465841 -909.591956 
L 401.453301 -917.596533 
L 429.440762 -929.360836 
L 457.428223 -942.847337 
L 485.415684 -951.497132 
L 513.403145 -957.415668 
L 541.390605 -969.645692 
L 569.378066 -975.831047 
L 597.365527 -981.817501 
L 625.352988 -986.479561 
L 653.340449 -993.800111 
L 681.327909 -1000.61613 
L 709.31537 -1003.502629 
L 737.302831 -1008.281119 
L 765.290292 -1010.25073 
L 793.277753 -1013.539884 
L 821.265214 -1015.805422 
L 849.252674 -1022.34977 
L 877.240135 -1025.003409 
L 905.227596 -1029.209451 
L 933.215057 -1030.334943 
L 933.215057 -1037.539062 
L 933.215057 -1037.539062 
L 905.227596 -1033.827849 
L 877.240135 -1032.974028 
L 849.252674 -1029.447162 
L 821.265214 -1024.43096 
L 793.277753 -1020.777962 
L 765.290292 -1017.420891 
L 737.302831 -1013.932836 
L 709.31537 -1009.668579 
L 681.327909 -1005.506199 
L 653.340449 -999.864185 
L 625.352988 -995.279745 
L 597.365527 -988.226014 
L 569.378066 -982.147386 
L 541.390605 -975.384731 
L 513.403145 -967.763403 
L 485.415684 -957.84743 
L 457.428223 -949.87196 
L 429.440762 -939.504819 
L 401.453301 -926.246328 
L 373.465841 -915.767609 
L 345.47838 -895.576668 
L 317.490919 -878.539046 
L 289.503458 -859.687054 
L 261.515997 -836.124488 
L 233.528536 -801.515606 
L 205.541076 -764.321003 
L 177.553615 -704.82031 
L 149.566154 -605.301582 
L 121.578693 -130.339063 
z
" id="m3f6ae45d0a" style="stroke:#0652ff;stroke-opacity:0.3;"/>
    </defs>
    <g clip-path="url(#pc7eee95839)">
     <use style="fill:#0652ff;fill-opacity:0.3;stroke:#0652ff;stroke-opacity:0.3;" x="0" xlink:href="#m3f6ae45d0a" y="1090.099062"/>
    </g>
   </g>
   <g id="PolyCollection_6">
    <defs>
     <path d="M 121.578693 -130.339063 
L 121.578693 -130.339063 
L 149.566154 -429.491953 
L 177.553615 -489.914385 
L 205.541076 -523.596677 
L 233.528536 -548.197411 
L 261.515997 -567.524827 
L 289.503458 -581.472197 
L 317.490919 -594.347439 
L 345.47838 -605.185152 
L 373.465841 -615.450416 
L 401.453301 -620.854718 
L 429.440762 -627.544605 
L 457.428223 -635.481264 
L 485.415684 -640.904972 
L 513.403145 -643.510098 
L 541.390605 -651.247856 
L 569.378066 -655.240443 
L 597.365527 -658.073578 
L 625.352988 -662.003098 
L 653.340449 -666.05875 
L 681.327909 -669.79422 
L 709.31537 -671.60374 
L 737.302831 -674.577561 
L 765.290292 -674.771612 
L 793.277753 -677.255456 
L 821.265214 -679.031017 
L 849.252674 -682.616098 
L 877.240135 -684.527494 
L 905.227596 -686.288501 
L 933.215057 -687.13262 
L 933.215057 -691.212529 
L 933.215057 -691.212529 
L 905.227596 -689.378753 
L 877.240135 -688.064062 
L 849.252674 -687.520721 
L 821.265214 -683.940491 
L 793.277753 -682.160079 
L 765.290292 -679.307539 
L 737.302831 -677.662962 
L 709.31537 -674.61152 
L 681.327909 -672.641909 
L 653.340449 -669.144151 
L 625.352988 -666.301313 
L 597.365527 -662.269917 
L 569.378066 -659.155409 
L 541.390605 -655.187079 
L 513.403145 -650.903417 
L 485.415684 -644.582227 
L 457.428223 -639.735819 
L 429.440762 -633.96282 
L 401.453301 -625.59925 
L 373.465841 -619.200439 
L 345.47838 -607.717509 
L 317.490919 -597.170872 
L 289.503458 -586.14396 
L 261.515997 -571.779382 
L 233.528536 -551.918327 
L 205.541076 -528.981574 
L 177.553615 -493.421845 
L 149.566154 -432.52399 
L 121.578693 -130.339063 
z
" id="m6ecbf1e018" style="stroke:#0652ff;stroke-opacity:0.3;"/>
    </defs>
    <g clip-path="url(#pc7eee95839)">
     <use style="fill:#0652ff;fill-opacity:0.3;stroke:#0652ff;stroke-opacity:0.3;" x="0" xlink:href="#m6ecbf1e018" y="1090.099062"/>
    </g>
   </g>
   <g id="PolyCollection_7">
    <defs>
     <path d="M 121.578693 -187.998702 
L 121.578693 -187.998702 
L 149.566154 -403.144765 
L 177.553615 -460.040331 
L 205.541076 -496.267109 
L 233.528536 -521.100704 
L 261.515997 -540.454802 
L 289.503458 -557.167389 
L 317.490919 -570.185743 
L 345.47838 -582.786888 
L 373.465841 -591.907256 
L 401.453301 -601.030048 
L 429.440762 -608.525243 
L 457.428223 -616.847578 
L 485.415684 -622.426526 
L 513.403145 -629.679159 
L 541.390605 -634.814216 
L 569.378066 -638.894125 
L 597.365527 -645.305064 
L 625.352988 -647.529366 
L 653.340449 -649.942868 
L 681.327909 -656.159756 
L 709.31537 -658.733349 
L 737.302831 -661.515546 
L 765.290292 -664.154631 
L 793.277753 -668.615364 
L 821.265214 -669.976142 
L 849.252674 -672.253808 
L 877.240135 -674.453854 
L 905.227596 -676.90374 
L 933.215057 -679.178981 
L 933.215057 -682.257104 
L 933.215057 -682.257104 
L 905.227596 -679.765983 
L 877.240135 -678.570148 
L 849.252674 -676.338568 
L 821.265214 -673.791657 
L 793.277753 -671.380582 
L 765.290292 -670.403053 
L 737.302831 -666.75248 
L 709.31537 -662.490649 
L 681.327909 -660.453121 
L 653.340449 -655.71344 
L 625.352988 -652.984607 
L 597.365527 -648.213394 
L 569.378066 -642.896414 
L 541.390605 -639.267672 
L 513.403145 -633.298198 
L 485.415684 -626.729593 
L 457.428223 -619.535176 
L 429.440762 -612.96172 
L 401.453301 -605.090552 
L 373.465841 -596.954991 
L 345.47838 -586.08817 
L 317.490919 -573.967299 
L 289.503458 -560.206703 
L 261.515997 -543.5305 
L 233.528536 -523.633061 
L 205.541076 -498.176079 
L 177.553615 -461.927471 
L 149.566154 -404.782065 
L 121.578693 -187.998702 
z
" id="mdf66ba5733" style="stroke:#ae7181;stroke-opacity:0.3;"/>
    </defs>
    <g clip-path="url(#pc7eee95839)">
     <use style="fill:#ae7181;fill-opacity:0.3;stroke:#ae7181;stroke-opacity:0.3;" x="0" xlink:href="#mdf66ba5733" y="1090.099062"/>
    </g>
   </g>
   <g id="PolyCollection_8">
    <g clip-path="url(#pc7eee95839)">
     <use style="fill:#ae7181;fill-opacity:0.3;stroke:#ae7181;stroke-opacity:0.3;" x="0" xlink:href="#mdf66ba5733" y="1090.099062"/>
    </g>
   </g>
   <g id="matplotlib.axis_1">
    <g id="xtick_1">
     <g id="line2d_1">
      <path clip-path="url(#pc7eee95839)" d="M 121.578693 1005.12 
L 121.578693 7.2 
" style="fill:none;stroke:#b0b0b0;stroke-linecap:square;stroke-width:0.8;"/>
     </g>
     <g id="line2d_2">
      <defs>
       <path d="M 0 0 
L 0 3.5 
" id="m69270f7c6c" style="stroke:#000000;stroke-width:0.8;"/>
      </defs>
      <g>
       <use style="stroke:#000000;stroke-width:0.8;" x="121.578693" xlink:href="#m69270f7c6c" y="1005.12"/>
      </g>
     </g>
     <g id="text_1">
      <!-- 0.00 -->
      <g transform="translate(88.180256 1034.915313)scale(0.3 -0.3)">
       <defs>
        <path d="M 2034 4250 
Q 1547 4250 1301 3770 
Q 1056 3291 1056 2328 
Q 1056 1369 1301 889 
Q 1547 409 2034 409 
Q 2525 409 2770 889 
Q 3016 1369 3016 2328 
Q 3016 3291 2770 3770 
Q 2525 4250 2034 4250 
z
M 2034 4750 
Q 2819 4750 3233 4129 
Q 3647 3509 3647 2328 
Q 3647 1150 3233 529 
Q 2819 -91 2034 -91 
Q 1250 -91 836 529 
Q 422 1150 422 2328 
Q 422 3509 836 4129 
Q 1250 4750 2034 4750 
z
" id="DejaVuSans-30" transform="scale(0.015625)"/>
        <path d="M 684 794 
L 1344 794 
L 1344 0 
L 684 0 
L 684 794 
z
" id="DejaVuSans-2e" transform="scale(0.015625)"/>
       </defs>
       <use xlink:href="#DejaVuSans-30"/>
       <use x="63.623047" xlink:href="#DejaVuSans-2e"/>
       <use x="95.410156" xlink:href="#DejaVuSans-30"/>
       <use x="159.033203" xlink:href="#DejaVuSans-30"/>
      </g>
     </g>
    </g>
    <g id="xtick_2">
     <g id="line2d_3">
      <path clip-path="url(#pc7eee95839)" d="M 261.515997 1005.12 
L 261.515997 7.2 
" style="fill:none;stroke:#b0b0b0;stroke-linecap:square;stroke-width:0.8;"/>
     </g>
     <g id="line2d_4">
      <g>
       <use style="stroke:#000000;stroke-width:0.8;" x="261.515997" xlink:href="#m69270f7c6c" y="1005.12"/>
      </g>
     </g>
     <g id="text_2">
      <!-- 0.05 -->
      <g transform="translate(228.11756 1034.915313)scale(0.3 -0.3)">
       <defs>
        <path d="M 691 4666 
L 3169 4666 
L 3169 4134 
L 1269 4134 
L 1269 2991 
Q 1406 3038 1543 3061 
Q 1681 3084 1819 3084 
Q 2600 3084 3056 2656 
Q 3513 2228 3513 1497 
Q 3513 744 3044 326 
Q 2575 -91 1722 -91 
Q 1428 -91 1123 -41 
Q 819 9 494 109 
L 494 744 
Q 775 591 1075 516 
Q 1375 441 1709 441 
Q 2250 441 2565 725 
Q 2881 1009 2881 1497 
Q 2881 1984 2565 2268 
Q 2250 2553 1709 2553 
Q 1456 2553 1204 2497 
Q 953 2441 691 2322 
L 691 4666 
z
" id="DejaVuSans-35" transform="scale(0.015625)"/>
       </defs>
       <use xlink:href="#DejaVuSans-30"/>
       <use x="63.623047" xlink:href="#DejaVuSans-2e"/>
       <use x="95.410156" xlink:href="#DejaVuSans-30"/>
       <use x="159.033203" xlink:href="#DejaVuSans-35"/>
      </g>
     </g>
    </g>
    <g id="xtick_3">
     <g id="line2d_5">
      <path clip-path="url(#pc7eee95839)" d="M 401.453301 1005.12 
L 401.453301 7.2 
" style="fill:none;stroke:#b0b0b0;stroke-linecap:square;stroke-width:0.8;"/>
     </g>
     <g id="line2d_6">
      <g>
       <use style="stroke:#000000;stroke-width:0.8;" x="401.453301" xlink:href="#m69270f7c6c" y="1005.12"/>
      </g>
     </g>
     <g id="text_3">
      <!-- 0.10 -->
      <g transform="translate(368.054864 1034.915313)scale(0.3 -0.3)">
       <defs>
        <path d="M 794 531 
L 1825 531 
L 1825 4091 
L 703 3866 
L 703 4441 
L 1819 4666 
L 2450 4666 
L 2450 531 
L 3481 531 
L 3481 0 
L 794 0 
L 794 531 
z
" id="DejaVuSans-31" transform="scale(0.015625)"/>
       </defs>
       <use xlink:href="#DejaVuSans-30"/>
       <use x="63.623047" xlink:href="#DejaVuSans-2e"/>
       <use x="95.410156" xlink:href="#DejaVuSans-31"/>
       <use x="159.033203" xlink:href="#DejaVuSans-30"/>
      </g>
     </g>
    </g>
    <g id="xtick_4">
     <g id="line2d_7">
      <path clip-path="url(#pc7eee95839)" d="M 541.390605 1005.12 
L 541.390605 7.2 
" style="fill:none;stroke:#b0b0b0;stroke-linecap:square;stroke-width:0.8;"/>
     </g>
     <g id="line2d_8">
      <g>
       <use style="stroke:#000000;stroke-width:0.8;" x="541.390605" xlink:href="#m69270f7c6c" y="1005.12"/>
      </g>
     </g>
     <g id="text_4">
      <!-- 0.15 -->
      <g transform="translate(507.992168 1034.915313)scale(0.3 -0.3)">
       <use xlink:href="#DejaVuSans-30"/>
       <use x="63.623047" xlink:href="#DejaVuSans-2e"/>
       <use x="95.410156" xlink:href="#DejaVuSans-31"/>
       <use x="159.033203" xlink:href="#DejaVuSans-35"/>
      </g>
     </g>
    </g>
    <g id="xtick_5">
     <g id="line2d_9">
      <path clip-path="url(#pc7eee95839)" d="M 681.327909 1005.12 
L 681.327909 7.2 
" style="fill:none;stroke:#b0b0b0;stroke-linecap:square;stroke-width:0.8;"/>
     </g>
     <g id="line2d_10">
      <g>
       <use style="stroke:#000000;stroke-width:0.8;" x="681.327909" xlink:href="#m69270f7c6c" y="1005.12"/>
      </g>
     </g>
     <g id="text_5">
      <!-- 0.20 -->
      <g transform="translate(647.929472 1034.915313)scale(0.3 -0.3)">
       <defs>
        <path d="M 1228 531 
L 3431 531 
L 3431 0 
L 469 0 
L 469 531 
Q 828 903 1448 1529 
Q 2069 2156 2228 2338 
Q 2531 2678 2651 2914 
Q 2772 3150 2772 3378 
Q 2772 3750 2511 3984 
Q 2250 4219 1831 4219 
Q 1534 4219 1204 4116 
Q 875 4013 500 3803 
L 500 4441 
Q 881 4594 1212 4672 
Q 1544 4750 1819 4750 
Q 2544 4750 2975 4387 
Q 3406 4025 3406 3419 
Q 3406 3131 3298 2873 
Q 3191 2616 2906 2266 
Q 2828 2175 2409 1742 
Q 1991 1309 1228 531 
z
" id="DejaVuSans-32" transform="scale(0.015625)"/>
       </defs>
       <use xlink:href="#DejaVuSans-30"/>
       <use x="63.623047" xlink:href="#DejaVuSans-2e"/>
       <use x="95.410156" xlink:href="#DejaVuSans-32"/>
       <use x="159.033203" xlink:href="#DejaVuSans-30"/>
      </g>
     </g>
    </g>
    <g id="xtick_6">
     <g id="line2d_11">
      <path clip-path="url(#pc7eee95839)" d="M 821.265214 1005.12 
L 821.265214 7.2 
" style="fill:none;stroke:#b0b0b0;stroke-linecap:square;stroke-width:0.8;"/>
     </g>
     <g id="line2d_12">
      <g>
       <use style="stroke:#000000;stroke-width:0.8;" x="821.265214" xlink:href="#m69270f7c6c" y="1005.12"/>
      </g>
     </g>
     <g id="text_6">
      <!-- 0.25 -->
      <g transform="translate(787.866776 1034.915313)scale(0.3 -0.3)">
       <use xlink:href="#DejaVuSans-30"/>
       <use x="63.623047" xlink:href="#DejaVuSans-2e"/>
       <use x="95.410156" xlink:href="#DejaVuSans-32"/>
       <use x="159.033203" xlink:href="#DejaVuSans-35"/>
      </g>
     </g>
    </g>
    <g id="xtick_7">
     <g id="line2d_13">
      <path clip-path="url(#pc7eee95839)" d="M 961.202518 1005.12 
L 961.202518 7.2 
" style="fill:none;stroke:#b0b0b0;stroke-linecap:square;stroke-width:0.8;"/>
     </g>
     <g id="line2d_14">
      <g>
       <use style="stroke:#000000;stroke-width:0.8;" x="961.202518" xlink:href="#m69270f7c6c" y="1005.12"/>
      </g>
     </g>
     <g id="text_7">
      <!-- 0.30 -->
      <g transform="translate(927.80408 1034.915313)scale(0.3 -0.3)">
       <defs>
        <path d="M 2597 2516 
Q 3050 2419 3304 2112 
Q 3559 1806 3559 1356 
Q 3559 666 3084 287 
Q 2609 -91 1734 -91 
Q 1441 -91 1130 -33 
Q 819 25 488 141 
L 488 750 
Q 750 597 1062 519 
Q 1375 441 1716 441 
Q 2309 441 2620 675 
Q 2931 909 2931 1356 
Q 2931 1769 2642 2001 
Q 2353 2234 1838 2234 
L 1294 2234 
L 1294 2753 
L 1863 2753 
Q 2328 2753 2575 2939 
Q 2822 3125 2822 3475 
Q 2822 3834 2567 4026 
Q 2313 4219 1838 4219 
Q 1578 4219 1281 4162 
Q 984 4106 628 3988 
L 628 4550 
Q 988 4650 1302 4700 
Q 1616 4750 1894 4750 
Q 2613 4750 3031 4423 
Q 3450 4097 3450 3541 
Q 3450 3153 3228 2886 
Q 3006 2619 2597 2516 
z
" id="DejaVuSans-33" transform="scale(0.015625)"/>
       </defs>
       <use xlink:href="#DejaVuSans-30"/>
       <use x="63.623047" xlink:href="#DejaVuSans-2e"/>
       <use x="95.410156" xlink:href="#DejaVuSans-33"/>
       <use x="159.033203" xlink:href="#DejaVuSans-30"/>
      </g>
     </g>
    </g>
    <g id="text_8">
     <!-- Locality parameter -->
     <g transform="translate(343.103594 1074.788281)scale(0.39 -0.39)">
      <defs>
       <path d="M 628 4666 
L 1259 4666 
L 1259 531 
L 3531 531 
L 3531 0 
L 628 0 
L 628 4666 
z
" id="DejaVuSans-4c" transform="scale(0.015625)"/>
       <path d="M 1959 3097 
Q 1497 3097 1228 2736 
Q 959 2375 959 1747 
Q 959 1119 1226 758 
Q 1494 397 1959 397 
Q 2419 397 2687 759 
Q 2956 1122 2956 1747 
Q 2956 2369 2687 2733 
Q 2419 3097 1959 3097 
z
M 1959 3584 
Q 2709 3584 3137 3096 
Q 3566 2609 3566 1747 
Q 3566 888 3137 398 
Q 2709 -91 1959 -91 
Q 1206 -91 779 398 
Q 353 888 353 1747 
Q 353 2609 779 3096 
Q 1206 3584 1959 3584 
z
" id="DejaVuSans-6f" transform="scale(0.015625)"/>
       <path d="M 3122 3366 
L 3122 2828 
Q 2878 2963 2633 3030 
Q 2388 3097 2138 3097 
Q 1578 3097 1268 2742 
Q 959 2388 959 1747 
Q 959 1106 1268 751 
Q 1578 397 2138 397 
Q 2388 397 2633 464 
Q 2878 531 3122 666 
L 3122 134 
Q 2881 22 2623 -34 
Q 2366 -91 2075 -91 
Q 1284 -91 818 406 
Q 353 903 353 1747 
Q 353 2603 823 3093 
Q 1294 3584 2113 3584 
Q 2378 3584 2631 3529 
Q 2884 3475 3122 3366 
z
" id="DejaVuSans-63" transform="scale(0.015625)"/>
       <path d="M 2194 1759 
Q 1497 1759 1228 1600 
Q 959 1441 959 1056 
Q 959 750 1161 570 
Q 1363 391 1709 391 
Q 2188 391 2477 730 
Q 2766 1069 2766 1631 
L 2766 1759 
L 2194 1759 
z
M 3341 1997 
L 3341 0 
L 2766 0 
L 2766 531 
Q 2569 213 2275 61 
Q 1981 -91 1556 -91 
Q 1019 -91 701 211 
Q 384 513 384 1019 
Q 384 1609 779 1909 
Q 1175 2209 1959 2209 
L 2766 2209 
L 2766 2266 
Q 2766 2663 2505 2880 
Q 2244 3097 1772 3097 
Q 1472 3097 1187 3025 
Q 903 2953 641 2809 
L 641 3341 
Q 956 3463 1253 3523 
Q 1550 3584 1831 3584 
Q 2591 3584 2966 3190 
Q 3341 2797 3341 1997 
z
" id="DejaVuSans-61" transform="scale(0.015625)"/>
       <path d="M 603 4863 
L 1178 4863 
L 1178 0 
L 603 0 
L 603 4863 
z
" id="DejaVuSans-6c" transform="scale(0.015625)"/>
       <path d="M 603 3500 
L 1178 3500 
L 1178 0 
L 603 0 
L 603 3500 
z
M 603 4863 
L 1178 4863 
L 1178 4134 
L 603 4134 
L 603 4863 
z
" id="DejaVuSans-69" transform="scale(0.015625)"/>
       <path d="M 1172 4494 
L 1172 3500 
L 2356 3500 
L 2356 3053 
L 1172 3053 
L 1172 1153 
Q 1172 725 1289 603 
Q 1406 481 1766 481 
L 2356 481 
L 2356 0 
L 1766 0 
Q 1100 0 847 248 
Q 594 497 594 1153 
L 594 3053 
L 172 3053 
L 172 3500 
L 594 3500 
L 594 4494 
L 1172 4494 
z
" id="DejaVuSans-74" transform="scale(0.015625)"/>
       <path d="M 2059 -325 
Q 1816 -950 1584 -1140 
Q 1353 -1331 966 -1331 
L 506 -1331 
L 506 -850 
L 844 -850 
Q 1081 -850 1212 -737 
Q 1344 -625 1503 -206 
L 1606 56 
L 191 3500 
L 800 3500 
L 1894 763 
L 2988 3500 
L 3597 3500 
L 2059 -325 
z
" id="DejaVuSans-79" transform="scale(0.015625)"/>
       <path id="DejaVuSans-20" transform="scale(0.015625)"/>
       <path d="M 1159 525 
L 1159 -1331 
L 581 -1331 
L 581 3500 
L 1159 3500 
L 1159 2969 
Q 1341 3281 1617 3432 
Q 1894 3584 2278 3584 
Q 2916 3584 3314 3078 
Q 3713 2572 3713 1747 
Q 3713 922 3314 415 
Q 2916 -91 2278 -91 
Q 1894 -91 1617 61 
Q 1341 213 1159 525 
z
M 3116 1747 
Q 3116 2381 2855 2742 
Q 2594 3103 2138 3103 
Q 1681 3103 1420 2742 
Q 1159 2381 1159 1747 
Q 1159 1113 1420 752 
Q 1681 391 2138 391 
Q 2594 391 2855 752 
Q 3116 1113 3116 1747 
z
" id="DejaVuSans-70" transform="scale(0.015625)"/>
       <path d="M 2631 2963 
Q 2534 3019 2420 3045 
Q 2306 3072 2169 3072 
Q 1681 3072 1420 2755 
Q 1159 2438 1159 1844 
L 1159 0 
L 581 0 
L 581 3500 
L 1159 3500 
L 1159 2956 
Q 1341 3275 1631 3429 
Q 1922 3584 2338 3584 
Q 2397 3584 2469 3576 
Q 2541 3569 2628 3553 
L 2631 2963 
z
" id="DejaVuSans-72" transform="scale(0.015625)"/>
       <path d="M 3328 2828 
Q 3544 3216 3844 3400 
Q 4144 3584 4550 3584 
Q 5097 3584 5394 3201 
Q 5691 2819 5691 2113 
L 5691 0 
L 5113 0 
L 5113 2094 
Q 5113 2597 4934 2840 
Q 4756 3084 4391 3084 
Q 3944 3084 3684 2787 
Q 3425 2491 3425 1978 
L 3425 0 
L 2847 0 
L 2847 2094 
Q 2847 2600 2669 2842 
Q 2491 3084 2119 3084 
Q 1678 3084 1418 2786 
Q 1159 2488 1159 1978 
L 1159 0 
L 581 0 
L 581 3500 
L 1159 3500 
L 1159 2956 
Q 1356 3278 1631 3431 
Q 1906 3584 2284 3584 
Q 2666 3584 2933 3390 
Q 3200 3197 3328 2828 
z
" id="DejaVuSans-6d" transform="scale(0.015625)"/>
       <path d="M 3597 1894 
L 3597 1613 
L 953 1613 
Q 991 1019 1311 708 
Q 1631 397 2203 397 
Q 2534 397 2845 478 
Q 3156 559 3463 722 
L 3463 178 
Q 3153 47 2828 -22 
Q 2503 -91 2169 -91 
Q 1331 -91 842 396 
Q 353 884 353 1716 
Q 353 2575 817 3079 
Q 1281 3584 2069 3584 
Q 2775 3584 3186 3129 
Q 3597 2675 3597 1894 
z
M 3022 2063 
Q 3016 2534 2758 2815 
Q 2500 3097 2075 3097 
Q 1594 3097 1305 2825 
Q 1016 2553 972 2059 
L 3022 2063 
z
" id="DejaVuSans-65" transform="scale(0.015625)"/>
      </defs>
      <use xlink:href="#DejaVuSans-4c"/>
      <use x="53.962891" xlink:href="#DejaVuSans-6f"/>
      <use x="115.144531" xlink:href="#DejaVuSans-63"/>
      <use x="170.125" xlink:href="#DejaVuSans-61"/>
      <use x="231.404297" xlink:href="#DejaVuSans-6c"/>
      <use x="259.1875" xlink:href="#DejaVuSans-69"/>
      <use x="286.970703" xlink:href="#DejaVuSans-74"/>
      <use x="326.179688" xlink:href="#DejaVuSans-79"/>
      <use x="385.359375" xlink:href="#DejaVuSans-20"/>
      <use x="417.146484" xlink:href="#DejaVuSans-70"/>
      <use x="480.623047" xlink:href="#DejaVuSans-61"/>
      <use x="541.902344" xlink:href="#DejaVuSans-72"/>
      <use x="583.015625" xlink:href="#DejaVuSans-61"/>
      <use x="644.294922" xlink:href="#DejaVuSans-6d"/>
      <use x="741.707031" xlink:href="#DejaVuSans-65"/>
      <use x="803.230469" xlink:href="#DejaVuSans-74"/>
      <use x="842.439453" xlink:href="#DejaVuSans-65"/>
      <use x="903.962891" xlink:href="#DejaVuSans-72"/>
     </g>
    </g>
   </g>
   <g id="matplotlib.axis_2">
    <g id="ytick_1">
     <g id="line2d_15">
      <path clip-path="url(#pc7eee95839)" d="M 80.996875 886.981411 
L 973.796875 886.981411 
" style="fill:none;stroke:#b0b0b0;stroke-linecap:square;stroke-width:0.8;"/>
     </g>
     <g id="line2d_16">
      <defs>
       <path d="M 0 0 
L -3.5 0 
" id="m21192dd6e2" style="stroke:#000000;stroke-width:0.8;"/>
      </defs>
      <g>
       <use style="stroke:#000000;stroke-width:0.8;" x="80.996875" xlink:href="#m21192dd6e2" y="886.981411"/>
      </g>
     </g>
     <g id="text_9">
      <!-- 2.5 -->
      <g transform="translate(26.2875 898.379068)scale(0.3 -0.3)">
       <use xlink:href="#DejaVuSans-32"/>
       <use x="63.623047" xlink:href="#DejaVuSans-2e"/>
       <use x="95.410156" xlink:href="#DejaVuSans-35"/>
      </g>
     </g>
    </g>
    <g id="ytick_2">
     <g id="line2d_17">
      <path clip-path="url(#pc7eee95839)" d="M 80.996875 765.699935 
L 973.796875 765.699935 
" style="fill:none;stroke:#b0b0b0;stroke-linecap:square;stroke-width:0.8;"/>
     </g>
     <g id="line2d_18">
      <g>
       <use style="stroke:#000000;stroke-width:0.8;" x="80.996875" xlink:href="#m21192dd6e2" y="765.699935"/>
      </g>
     </g>
     <g id="text_10">
      <!-- 5.0 -->
      <g transform="translate(26.2875 777.097591)scale(0.3 -0.3)">
       <use xlink:href="#DejaVuSans-35"/>
       <use x="63.623047" xlink:href="#DejaVuSans-2e"/>
       <use x="95.410156" xlink:href="#DejaVuSans-30"/>
      </g>
     </g>
    </g>
    <g id="ytick_3">
     <g id="line2d_19">
      <path clip-path="url(#pc7eee95839)" d="M 80.996875 644.418458 
L 973.796875 644.418458 
" style="fill:none;stroke:#b0b0b0;stroke-linecap:square;stroke-width:0.8;"/>
     </g>
     <g id="line2d_20">
      <g>
       <use style="stroke:#000000;stroke-width:0.8;" x="80.996875" xlink:href="#m21192dd6e2" y="644.418458"/>
      </g>
     </g>
     <g id="text_11">
      <!-- 7.5 -->
      <g transform="translate(26.2875 655.816114)scale(0.3 -0.3)">
       <defs>
        <path d="M 525 4666 
L 3525 4666 
L 3525 4397 
L 1831 0 
L 1172 0 
L 2766 4134 
L 525 4134 
L 525 4666 
z
" id="DejaVuSans-37" transform="scale(0.015625)"/>
       </defs>
       <use xlink:href="#DejaVuSans-37"/>
       <use x="63.623047" xlink:href="#DejaVuSans-2e"/>
       <use x="95.410156" xlink:href="#DejaVuSans-35"/>
      </g>
     </g>
    </g>
    <g id="ytick_4">
     <g id="line2d_21">
      <path clip-path="url(#pc7eee95839)" d="M 80.996875 523.136981 
L 973.796875 523.136981 
" style="fill:none;stroke:#b0b0b0;stroke-linecap:square;stroke-width:0.8;"/>
     </g>
     <g id="line2d_22">
      <g>
       <use style="stroke:#000000;stroke-width:0.8;" x="80.996875" xlink:href="#m21192dd6e2" y="523.136981"/>
      </g>
     </g>
     <g id="text_12">
      <!-- 10.0 -->
      <g transform="translate(7.2 534.534637)scale(0.3 -0.3)">
       <use xlink:href="#DejaVuSans-31"/>
       <use x="63.623047" xlink:href="#DejaVuSans-30"/>
       <use x="127.246094" xlink:href="#DejaVuSans-2e"/>
       <use x="159.033203" xlink:href="#DejaVuSans-30"/>
      </g>
     </g>
    </g>
    <g id="ytick_5">
     <g id="line2d_23">
      <path clip-path="url(#pc7eee95839)" d="M 80.996875 401.855504 
L 973.796875 401.855504 
" style="fill:none;stroke:#b0b0b0;stroke-linecap:square;stroke-width:0.8;"/>
     </g>
     <g id="line2d_24">
      <g>
       <use style="stroke:#000000;stroke-width:0.8;" x="80.996875" xlink:href="#m21192dd6e2" y="401.855504"/>
      </g>
     </g>
     <g id="text_13">
      <!-- 12.5 -->
      <g transform="translate(7.2 413.253161)scale(0.3 -0.3)">
       <use xlink:href="#DejaVuSans-31"/>
       <use x="63.623047" xlink:href="#DejaVuSans-32"/>
       <use x="127.246094" xlink:href="#DejaVuSans-2e"/>
       <use x="159.033203" xlink:href="#DejaVuSans-35"/>
      </g>
     </g>
    </g>
    <g id="ytick_6">
     <g id="line2d_25">
      <path clip-path="url(#pc7eee95839)" d="M 80.996875 280.574028 
L 973.796875 280.574028 
" style="fill:none;stroke:#b0b0b0;stroke-linecap:square;stroke-width:0.8;"/>
     </g>
     <g id="line2d_26">
      <g>
       <use style="stroke:#000000;stroke-width:0.8;" x="80.996875" xlink:href="#m21192dd6e2" y="280.574028"/>
      </g>
     </g>
     <g id="text_14">
      <!-- 15.0 -->
      <g transform="translate(7.2 291.971684)scale(0.3 -0.3)">
       <use xlink:href="#DejaVuSans-31"/>
       <use x="63.623047" xlink:href="#DejaVuSans-35"/>
       <use x="127.246094" xlink:href="#DejaVuSans-2e"/>
       <use x="159.033203" xlink:href="#DejaVuSans-30"/>
      </g>
     </g>
    </g>
    <g id="ytick_7">
     <g id="line2d_27">
      <path clip-path="url(#pc7eee95839)" d="M 80.996875 159.292551 
L 973.796875 159.292551 
" style="fill:none;stroke:#b0b0b0;stroke-linecap:square;stroke-width:0.8;"/>
     </g>
     <g id="line2d_28">
      <g>
       <use style="stroke:#000000;stroke-width:0.8;" x="80.996875" xlink:href="#m21192dd6e2" y="159.292551"/>
      </g>
     </g>
     <g id="text_15">
      <!-- 17.5 -->
      <g transform="translate(7.2 170.690207)scale(0.3 -0.3)">
       <use xlink:href="#DejaVuSans-31"/>
       <use x="63.623047" xlink:href="#DejaVuSans-37"/>
       <use x="127.246094" xlink:href="#DejaVuSans-2e"/>
       <use x="159.033203" xlink:href="#DejaVuSans-35"/>
      </g>
     </g>
    </g>
    <g id="ytick_8">
     <g id="line2d_29">
      <path clip-path="url(#pc7eee95839)" d="M 80.996875 38.011074 
L 973.796875 38.011074 
" style="fill:none;stroke:#b0b0b0;stroke-linecap:square;stroke-width:0.8;"/>
     </g>
     <g id="line2d_30">
      <g>
       <use style="stroke:#000000;stroke-width:0.8;" x="80.996875" xlink:href="#m21192dd6e2" y="38.011074"/>
      </g>
     </g>
     <g id="text_16">
      <!-- 20.0 -->
      <g transform="translate(7.2 49.40873)scale(0.3 -0.3)">
       <use xlink:href="#DejaVuSans-32"/>
       <use x="63.623047" xlink:href="#DejaVuSans-30"/>
       <use x="127.246094" xlink:href="#DejaVuSans-2e"/>
       <use x="159.033203" xlink:href="#DejaVuSans-30"/>
      </g>
     </g>
    </g>
   </g>
   <g id="line2d_31">
    <path clip-path="url(#pc7eee95839)" d="M 121.578693 847.6377 
L 149.566154 538.784717 
L 177.553615 481.652895 
L 205.541076 448.054044 
L 233.528536 425.103708 
L 261.515997 408.372201 
L 289.503458 393.928547 
L 317.490919 382.017736 
L 345.47838 372.337533 
L 373.465841 363.351546 
L 401.453301 356.153733 
L 429.440762 349.863591 
L 457.428223 343.640396 
L 485.415684 338.6305 
L 513.403145 333.526976 
L 541.390605 329.169575 
L 569.378066 325.122169 
L 597.365527 321.911121 
L 625.352988 318.604988 
L 653.340449 315.439056 
L 681.327909 312.354626 
L 709.31537 309.851376 
L 737.302831 307.178332 
L 765.290292 304.83954 
L 793.277753 302.920867 
L 821.265214 301.011897 
L 849.252674 298.991833 
L 877.240135 297.55489 
L 905.227596 296.078652 
L 933.215057 294.399631 
" style="fill:none;stroke:#fe0002;stroke-linecap:square;stroke-width:1.5;"/>
    <defs>
     <path d="M 0 4.5 
C 1.193414 4.5 2.338109 4.025852 3.181981 3.181981 
C 4.025852 2.338109 4.5 1.193414 4.5 0 
C 4.5 -1.193414 4.025852 -2.338109 3.181981 -3.181981 
C 2.338109 -4.025852 1.193414 -4.5 0 -4.5 
C -1.193414 -4.5 -2.338109 -4.025852 -3.181981 -3.181981 
C -4.025852 -2.338109 -4.5 -1.193414 -4.5 0 
C -4.5 1.193414 -4.025852 2.338109 -3.181981 3.181981 
C -2.338109 4.025852 -1.193414 4.5 0 4.5 
z
" id="mcc86a31821" style="stroke:#000000;"/>
    </defs>
    <g clip-path="url(#pc7eee95839)">
     <use style="fill:#fe0002;stroke:#000000;" x="121.578693" xlink:href="#mcc86a31821" y="847.6377"/>
     <use style="fill:#fe0002;stroke:#000000;" x="149.566154" xlink:href="#mcc86a31821" y="538.784717"/>
     <use style="fill:#fe0002;stroke:#000000;" x="177.553615" xlink:href="#mcc86a31821" y="481.652895"/>
     <use style="fill:#fe0002;stroke:#000000;" x="205.541076" xlink:href="#mcc86a31821" y="448.054044"/>
     <use style="fill:#fe0002;stroke:#000000;" x="233.528536" xlink:href="#mcc86a31821" y="425.103708"/>
     <use style="fill:#fe0002;stroke:#000000;" x="261.515997" xlink:href="#mcc86a31821" y="408.372201"/>
     <use style="fill:#fe0002;stroke:#000000;" x="289.503458" xlink:href="#mcc86a31821" y="393.928547"/>
     <use style="fill:#fe0002;stroke:#000000;" x="317.490919" xlink:href="#mcc86a31821" y="382.017736"/>
     <use style="fill:#fe0002;stroke:#000000;" x="345.47838" xlink:href="#mcc86a31821" y="372.337533"/>
     <use style="fill:#fe0002;stroke:#000000;" x="373.465841" xlink:href="#mcc86a31821" y="363.351546"/>
     <use style="fill:#fe0002;stroke:#000000;" x="401.453301" xlink:href="#mcc86a31821" y="356.153733"/>
     <use style="fill:#fe0002;stroke:#000000;" x="429.440762" xlink:href="#mcc86a31821" y="349.863591"/>
     <use style="fill:#fe0002;stroke:#000000;" x="457.428223" xlink:href="#mcc86a31821" y="343.640396"/>
     <use style="fill:#fe0002;stroke:#000000;" x="485.415684" xlink:href="#mcc86a31821" y="338.6305"/>
     <use style="fill:#fe0002;stroke:#000000;" x="513.403145" xlink:href="#mcc86a31821" y="333.526976"/>
     <use style="fill:#fe0002;stroke:#000000;" x="541.390605" xlink:href="#mcc86a31821" y="329.169575"/>
     <use style="fill:#fe0002;stroke:#000000;" x="569.378066" xlink:href="#mcc86a31821" y="325.122169"/>
     <use style="fill:#fe0002;stroke:#000000;" x="597.365527" xlink:href="#mcc86a31821" y="321.911121"/>
     <use style="fill:#fe0002;stroke:#000000;" x="625.352988" xlink:href="#mcc86a31821" y="318.604988"/>
     <use style="fill:#fe0002;stroke:#000000;" x="653.340449" xlink:href="#mcc86a31821" y="315.439056"/>
     <use style="fill:#fe0002;stroke:#000000;" x="681.327909" xlink:href="#mcc86a31821" y="312.354626"/>
     <use style="fill:#fe0002;stroke:#000000;" x="709.31537" xlink:href="#mcc86a31821" y="309.851376"/>
     <use style="fill:#fe0002;stroke:#000000;" x="737.302831" xlink:href="#mcc86a31821" y="307.178332"/>
     <use style="fill:#fe0002;stroke:#000000;" x="765.290292" xlink:href="#mcc86a31821" y="304.83954"/>
     <use style="fill:#fe0002;stroke:#000000;" x="793.277753" xlink:href="#mcc86a31821" y="302.920867"/>
     <use style="fill:#fe0002;stroke:#000000;" x="821.265214" xlink:href="#mcc86a31821" y="301.011897"/>
     <use style="fill:#fe0002;stroke:#000000;" x="849.252674" xlink:href="#mcc86a31821" y="298.991833"/>
     <use style="fill:#fe0002;stroke:#000000;" x="877.240135" xlink:href="#mcc86a31821" y="297.55489"/>
     <use style="fill:#fe0002;stroke:#000000;" x="905.227596" xlink:href="#mcc86a31821" y="296.078652"/>
     <use style="fill:#fe0002;stroke:#000000;" x="933.215057" xlink:href="#mcc86a31821" y="294.399631"/>
    </g>
   </g>
   <g id="line2d_32">
    <path clip-path="url(#pc7eee95839)" d="M 121.578693 847.6377 
L 149.566154 538.784717 
L 177.553615 481.652895 
L 205.541076 448.054044 
L 233.528536 425.103708 
L 261.515997 408.372201 
L 289.503458 393.928547 
L 317.490919 382.017736 
L 345.47838 372.337533 
L 373.465841 363.351546 
L 401.453301 356.153733 
L 429.440762 349.863591 
L 457.428223 343.640396 
L 485.415684 338.6305 
L 513.403145 333.526976 
L 541.390605 329.169575 
L 569.378066 325.122169 
L 597.365527 321.911121 
L 625.352988 318.604988 
L 653.340449 315.439056 
L 681.327909 312.354626 
L 709.31537 309.851376 
L 737.302831 307.178332 
L 765.290292 304.83954 
L 793.277753 302.920867 
L 821.265214 301.011897 
L 849.252674 298.991833 
L 877.240135 297.55489 
L 905.227596 296.078652 
L 933.215057 294.399631 
" style="fill:none;stroke:#fe0002;stroke-dasharray:5.55,2.4;stroke-dashoffset:0;stroke-width:1.5;"/>
    <g clip-path="url(#pc7eee95839)">
     <use style="fill:#fe0002;stroke:#000000;" x="121.578693" xlink:href="#mcc86a31821" y="847.6377"/>
     <use style="fill:#fe0002;stroke:#000000;" x="149.566154" xlink:href="#mcc86a31821" y="538.784717"/>
     <use style="fill:#fe0002;stroke:#000000;" x="177.553615" xlink:href="#mcc86a31821" y="481.652895"/>
     <use style="fill:#fe0002;stroke:#000000;" x="205.541076" xlink:href="#mcc86a31821" y="448.054044"/>
     <use style="fill:#fe0002;stroke:#000000;" x="233.528536" xlink:href="#mcc86a31821" y="425.103708"/>
     <use style="fill:#fe0002;stroke:#000000;" x="261.515997" xlink:href="#mcc86a31821" y="408.372201"/>
     <use style="fill:#fe0002;stroke:#000000;" x="289.503458" xlink:href="#mcc86a31821" y="393.928547"/>
     <use style="fill:#fe0002;stroke:#000000;" x="317.490919" xlink:href="#mcc86a31821" y="382.017736"/>
     <use style="fill:#fe0002;stroke:#000000;" x="345.47838" xlink:href="#mcc86a31821" y="372.337533"/>
     <use style="fill:#fe0002;stroke:#000000;" x="373.465841" xlink:href="#mcc86a31821" y="363.351546"/>
     <use style="fill:#fe0002;stroke:#000000;" x="401.453301" xlink:href="#mcc86a31821" y="356.153733"/>
     <use style="fill:#fe0002;stroke:#000000;" x="429.440762" xlink:href="#mcc86a31821" y="349.863591"/>
     <use style="fill:#fe0002;stroke:#000000;" x="457.428223" xlink:href="#mcc86a31821" y="343.640396"/>
     <use style="fill:#fe0002;stroke:#000000;" x="485.415684" xlink:href="#mcc86a31821" y="338.6305"/>
     <use style="fill:#fe0002;stroke:#000000;" x="513.403145" xlink:href="#mcc86a31821" y="333.526976"/>
     <use style="fill:#fe0002;stroke:#000000;" x="541.390605" xlink:href="#mcc86a31821" y="329.169575"/>
     <use style="fill:#fe0002;stroke:#000000;" x="569.378066" xlink:href="#mcc86a31821" y="325.122169"/>
     <use style="fill:#fe0002;stroke:#000000;" x="597.365527" xlink:href="#mcc86a31821" y="321.911121"/>
     <use style="fill:#fe0002;stroke:#000000;" x="625.352988" xlink:href="#mcc86a31821" y="318.604988"/>
     <use style="fill:#fe0002;stroke:#000000;" x="653.340449" xlink:href="#mcc86a31821" y="315.439056"/>
     <use style="fill:#fe0002;stroke:#000000;" x="681.327909" xlink:href="#mcc86a31821" y="312.354626"/>
     <use style="fill:#fe0002;stroke:#000000;" x="709.31537" xlink:href="#mcc86a31821" y="309.851376"/>
     <use style="fill:#fe0002;stroke:#000000;" x="737.302831" xlink:href="#mcc86a31821" y="307.178332"/>
     <use style="fill:#fe0002;stroke:#000000;" x="765.290292" xlink:href="#mcc86a31821" y="304.83954"/>
     <use style="fill:#fe0002;stroke:#000000;" x="793.277753" xlink:href="#mcc86a31821" y="302.920867"/>
     <use style="fill:#fe0002;stroke:#000000;" x="821.265214" xlink:href="#mcc86a31821" y="301.011897"/>
     <use style="fill:#fe0002;stroke:#000000;" x="849.252674" xlink:href="#mcc86a31821" y="298.991833"/>
     <use style="fill:#fe0002;stroke:#000000;" x="877.240135" xlink:href="#mcc86a31821" y="297.55489"/>
     <use style="fill:#fe0002;stroke:#000000;" x="905.227596" xlink:href="#mcc86a31821" y="296.078652"/>
     <use style="fill:#fe0002;stroke:#000000;" x="933.215057" xlink:href="#mcc86a31821" y="294.399631"/>
    </g>
   </g>
   <g id="line2d_33">
    <path clip-path="url(#pc7eee95839)" d="M 121.578693 959.76 
L 149.566154 522.916734 
L 177.553615 443.537522 
L 205.541076 395.910286 
L 233.528536 365.321157 
L 261.515997 340.838308 
L 289.503458 320.786599 
L 317.490919 304.653737 
L 345.47838 291.109507 
L 373.465841 278.450631 
L 401.453301 268.679225 
L 429.440762 259.2183 
L 457.428223 251.51159 
L 485.415684 243.913548 
L 513.403145 236.469776 
L 541.390605 229.798325 
L 569.378066 224.827239 
L 597.365527 219.05036 
L 625.352988 215.550177 
L 653.340449 210.505352 
L 681.327909 206.496757 
L 709.31537 203.185288 
L 737.302831 199.535685 
L 765.290292 195.713863 
L 793.277753 193.54147 
L 821.265214 191.386055 
L 849.252674 187.26103 
L 877.240135 185.910924 
L 905.227596 183.107382 
L 933.215057 180.338768 
" style="fill:none;stroke:#53fca1;stroke-linecap:square;stroke-width:1.5;"/>
    <defs>
     <path d="M 0 -4.5 
L -4.5 4.5 
L 4.5 4.5 
z
" id="m16fcaf2224" style="stroke:#000000;stroke-linejoin:miter;"/>
    </defs>
    <g clip-path="url(#pc7eee95839)">
     <use style="fill:#53fca1;stroke:#000000;stroke-linejoin:miter;" x="121.578693" xlink:href="#m16fcaf2224" y="959.76"/>
     <use style="fill:#53fca1;stroke:#000000;stroke-linejoin:miter;" x="149.566154" xlink:href="#m16fcaf2224" y="522.916734"/>
     <use style="fill:#53fca1;stroke:#000000;stroke-linejoin:miter;" x="177.553615" xlink:href="#m16fcaf2224" y="443.537522"/>
     <use style="fill:#53fca1;stroke:#000000;stroke-linejoin:miter;" x="205.541076" xlink:href="#m16fcaf2224" y="395.910286"/>
     <use style="fill:#53fca1;stroke:#000000;stroke-linejoin:miter;" x="233.528536" xlink:href="#m16fcaf2224" y="365.321157"/>
     <use style="fill:#53fca1;stroke:#000000;stroke-linejoin:miter;" x="261.515997" xlink:href="#m16fcaf2224" y="340.838308"/>
     <use style="fill:#53fca1;stroke:#000000;stroke-linejoin:miter;" x="289.503458" xlink:href="#m16fcaf2224" y="320.786599"/>
     <use style="fill:#53fca1;stroke:#000000;stroke-linejoin:miter;" x="317.490919" xlink:href="#m16fcaf2224" y="304.653737"/>
     <use style="fill:#53fca1;stroke:#000000;stroke-linejoin:miter;" x="345.47838" xlink:href="#m16fcaf2224" y="291.109507"/>
     <use style="fill:#53fca1;stroke:#000000;stroke-linejoin:miter;" x="373.465841" xlink:href="#m16fcaf2224" y="278.450631"/>
     <use style="fill:#53fca1;stroke:#000000;stroke-linejoin:miter;" x="401.453301" xlink:href="#m16fcaf2224" y="268.679225"/>
     <use style="fill:#53fca1;stroke:#000000;stroke-linejoin:miter;" x="429.440762" xlink:href="#m16fcaf2224" y="259.2183"/>
     <use style="fill:#53fca1;stroke:#000000;stroke-linejoin:miter;" x="457.428223" xlink:href="#m16fcaf2224" y="251.51159"/>
     <use style="fill:#53fca1;stroke:#000000;stroke-linejoin:miter;" x="485.415684" xlink:href="#m16fcaf2224" y="243.913548"/>
     <use style="fill:#53fca1;stroke:#000000;stroke-linejoin:miter;" x="513.403145" xlink:href="#m16fcaf2224" y="236.469776"/>
     <use style="fill:#53fca1;stroke:#000000;stroke-linejoin:miter;" x="541.390605" xlink:href="#m16fcaf2224" y="229.798325"/>
     <use style="fill:#53fca1;stroke:#000000;stroke-linejoin:miter;" x="569.378066" xlink:href="#m16fcaf2224" y="224.827239"/>
     <use style="fill:#53fca1;stroke:#000000;stroke-linejoin:miter;" x="597.365527" xlink:href="#m16fcaf2224" y="219.05036"/>
     <use style="fill:#53fca1;stroke:#000000;stroke-linejoin:miter;" x="625.352988" xlink:href="#m16fcaf2224" y="215.550177"/>
     <use style="fill:#53fca1;stroke:#000000;stroke-linejoin:miter;" x="653.340449" xlink:href="#m16fcaf2224" y="210.505352"/>
     <use style="fill:#53fca1;stroke:#000000;stroke-linejoin:miter;" x="681.327909" xlink:href="#m16fcaf2224" y="206.496757"/>
     <use style="fill:#53fca1;stroke:#000000;stroke-linejoin:miter;" x="709.31537" xlink:href="#m16fcaf2224" y="203.185288"/>
     <use style="fill:#53fca1;stroke:#000000;stroke-linejoin:miter;" x="737.302831" xlink:href="#m16fcaf2224" y="199.535685"/>
     <use style="fill:#53fca1;stroke:#000000;stroke-linejoin:miter;" x="765.290292" xlink:href="#m16fcaf2224" y="195.713863"/>
     <use style="fill:#53fca1;stroke:#000000;stroke-linejoin:miter;" x="793.277753" xlink:href="#m16fcaf2224" y="193.54147"/>
     <use style="fill:#53fca1;stroke:#000000;stroke-linejoin:miter;" x="821.265214" xlink:href="#m16fcaf2224" y="191.386055"/>
     <use style="fill:#53fca1;stroke:#000000;stroke-linejoin:miter;" x="849.252674" xlink:href="#m16fcaf2224" y="187.26103"/>
     <use style="fill:#53fca1;stroke:#000000;stroke-linejoin:miter;" x="877.240135" xlink:href="#m16fcaf2224" y="185.910924"/>
     <use style="fill:#53fca1;stroke:#000000;stroke-linejoin:miter;" x="905.227596" xlink:href="#m16fcaf2224" y="183.107382"/>
     <use style="fill:#53fca1;stroke:#000000;stroke-linejoin:miter;" x="933.215057" xlink:href="#m16fcaf2224" y="180.338768"/>
    </g>
   </g>
   <g id="line2d_34">
    <path clip-path="url(#pc7eee95839)" d="M 121.578693 959.76 
L 149.566154 702.28185 
L 177.553615 660.682789 
L 205.541076 635.926814 
L 233.528536 620.293147 
L 261.515997 607.734207 
L 289.503458 597.590709 
L 317.490919 589.262068 
L 345.47838 582.342717 
L 373.465841 576.060337 
L 401.453301 570.968455 
L 429.440762 566.13175 
L 457.428223 562.441397 
L 485.415684 558.327529 
L 513.403145 554.779318 
L 541.390605 551.497442 
L 569.378066 548.98546 
L 597.365527 545.871437 
L 625.352988 544.184169 
L 653.340449 541.588745 
L 681.327909 539.50901 
L 709.31537 537.837266 
L 737.302831 536.108763 
L 765.290292 534.282264 
L 793.277753 532.955929 
L 821.265214 531.962877 
L 849.252674 529.91322 
L 877.240135 529.177284 
L 905.227596 528.054702 
L 933.215057 526.482894 
" style="fill:none;stroke:#53fca1;stroke-dasharray:5.55,2.4;stroke-dashoffset:0;stroke-width:1.5;"/>
    <defs>
     <path d="M 0 6.363961 
L 6.363961 0 
L 0 -6.363961 
L -6.363961 0 
z
" id="m0208df5e47" style="stroke:#000000;stroke-linejoin:miter;"/>
    </defs>
    <g clip-path="url(#pc7eee95839)">
     <use style="fill:#53fca1;stroke:#000000;stroke-linejoin:miter;" x="121.578693" xlink:href="#m0208df5e47" y="959.76"/>
     <use style="fill:#53fca1;stroke:#000000;stroke-linejoin:miter;" x="149.566154" xlink:href="#m0208df5e47" y="702.28185"/>
     <use style="fill:#53fca1;stroke:#000000;stroke-linejoin:miter;" x="177.553615" xlink:href="#m0208df5e47" y="660.682789"/>
     <use style="fill:#53fca1;stroke:#000000;stroke-linejoin:miter;" x="205.541076" xlink:href="#m0208df5e47" y="635.926814"/>
     <use style="fill:#53fca1;stroke:#000000;stroke-linejoin:miter;" x="233.528536" xlink:href="#m0208df5e47" y="620.293147"/>
     <use style="fill:#53fca1;stroke:#000000;stroke-linejoin:miter;" x="261.515997" xlink:href="#m0208df5e47" y="607.734207"/>
     <use style="fill:#53fca1;stroke:#000000;stroke-linejoin:miter;" x="289.503458" xlink:href="#m0208df5e47" y="597.590709"/>
     <use style="fill:#53fca1;stroke:#000000;stroke-linejoin:miter;" x="317.490919" xlink:href="#m0208df5e47" y="589.262068"/>
     <use style="fill:#53fca1;stroke:#000000;stroke-linejoin:miter;" x="345.47838" xlink:href="#m0208df5e47" y="582.342717"/>
     <use style="fill:#53fca1;stroke:#000000;stroke-linejoin:miter;" x="373.465841" xlink:href="#m0208df5e47" y="576.060337"/>
     <use style="fill:#53fca1;stroke:#000000;stroke-linejoin:miter;" x="401.453301" xlink:href="#m0208df5e47" y="570.968455"/>
     <use style="fill:#53fca1;stroke:#000000;stroke-linejoin:miter;" x="429.440762" xlink:href="#m0208df5e47" y="566.13175"/>
     <use style="fill:#53fca1;stroke:#000000;stroke-linejoin:miter;" x="457.428223" xlink:href="#m0208df5e47" y="562.441397"/>
     <use style="fill:#53fca1;stroke:#000000;stroke-linejoin:miter;" x="485.415684" xlink:href="#m0208df5e47" y="558.327529"/>
     <use style="fill:#53fca1;stroke:#000000;stroke-linejoin:miter;" x="513.403145" xlink:href="#m0208df5e47" y="554.779318"/>
     <use style="fill:#53fca1;stroke:#000000;stroke-linejoin:miter;" x="541.390605" xlink:href="#m0208df5e47" y="551.497442"/>
     <use style="fill:#53fca1;stroke:#000000;stroke-linejoin:miter;" x="569.378066" xlink:href="#m0208df5e47" y="548.98546"/>
     <use style="fill:#53fca1;stroke:#000000;stroke-linejoin:miter;" x="597.365527" xlink:href="#m0208df5e47" y="545.871437"/>
     <use style="fill:#53fca1;stroke:#000000;stroke-linejoin:miter;" x="625.352988" xlink:href="#m0208df5e47" y="544.184169"/>
     <use style="fill:#53fca1;stroke:#000000;stroke-linejoin:miter;" x="653.340449" xlink:href="#m0208df5e47" y="541.588745"/>
     <use style="fill:#53fca1;stroke:#000000;stroke-linejoin:miter;" x="681.327909" xlink:href="#m0208df5e47" y="539.50901"/>
     <use style="fill:#53fca1;stroke:#000000;stroke-linejoin:miter;" x="709.31537" xlink:href="#m0208df5e47" y="537.837266"/>
     <use style="fill:#53fca1;stroke:#000000;stroke-linejoin:miter;" x="737.302831" xlink:href="#m0208df5e47" y="536.108763"/>
     <use style="fill:#53fca1;stroke:#000000;stroke-linejoin:miter;" x="765.290292" xlink:href="#m0208df5e47" y="534.282264"/>
     <use style="fill:#53fca1;stroke:#000000;stroke-linejoin:miter;" x="793.277753" xlink:href="#m0208df5e47" y="532.955929"/>
     <use style="fill:#53fca1;stroke:#000000;stroke-linejoin:miter;" x="821.265214" xlink:href="#m0208df5e47" y="531.962877"/>
     <use style="fill:#53fca1;stroke:#000000;stroke-linejoin:miter;" x="849.252674" xlink:href="#m0208df5e47" y="529.91322"/>
     <use style="fill:#53fca1;stroke:#000000;stroke-linejoin:miter;" x="877.240135" xlink:href="#m0208df5e47" y="529.177284"/>
     <use style="fill:#53fca1;stroke:#000000;stroke-linejoin:miter;" x="905.227596" xlink:href="#m0208df5e47" y="528.054702"/>
     <use style="fill:#53fca1;stroke:#000000;stroke-linejoin:miter;" x="933.215057" xlink:href="#m0208df5e47" y="526.482894"/>
    </g>
   </g>
   <g id="line2d_35">
    <path clip-path="url(#pc7eee95839)" d="M 121.578693 959.76 
L 149.566154 487.652932 
L 177.553615 388.192903 
L 205.541076 329.123003 
L 233.528536 290.285278 
L 261.515997 258.151023 
L 289.503458 232.94 
L 317.490919 213.699906 
L 345.47838 196.491035 
L 373.465841 178.261459 
L 401.453301 167.231636 
L 429.440762 155.465393 
L 457.428223 144.415195 
L 485.415684 135.174516 
L 513.403145 126.44128 
L 541.390605 117.943814 
L 569.378066 111.232583 
L 597.365527 105.658001 
L 625.352988 98.47086 
L 653.340449 92.465002 
L 681.327909 87.275125 
L 709.31537 83.026392 
L 737.302831 79.309357 
L 765.290292 76.788643 
L 793.277753 71.706464 
L 821.265214 68.408578 
L 849.252674 64.780322 
L 877.240135 61.085118 
L 905.227596 58.989374 
L 933.215057 56.080074 
" style="fill:none;stroke:#0652ff;stroke-linecap:square;stroke-width:1.5;"/>
    <defs>
     <path d="M 0 -4.5 
L -4.279754 -1.390576 
L -2.645034 3.640576 
L 2.645034 3.640576 
L 4.279754 -1.390576 
z
" id="m3895979071" style="stroke:#000000;stroke-linejoin:miter;"/>
    </defs>
    <g clip-path="url(#pc7eee95839)">
     <use style="fill:#0652ff;stroke:#000000;stroke-linejoin:miter;" x="121.578693" xlink:href="#m3895979071" y="959.76"/>
     <use style="fill:#0652ff;stroke:#000000;stroke-linejoin:miter;" x="149.566154" xlink:href="#m3895979071" y="487.652932"/>
     <use style="fill:#0652ff;stroke:#000000;stroke-linejoin:miter;" x="177.553615" xlink:href="#m3895979071" y="388.192903"/>
     <use style="fill:#0652ff;stroke:#000000;stroke-linejoin:miter;" x="205.541076" xlink:href="#m3895979071" y="329.123003"/>
     <use style="fill:#0652ff;stroke:#000000;stroke-linejoin:miter;" x="233.528536" xlink:href="#m3895979071" y="290.285278"/>
     <use style="fill:#0652ff;stroke:#000000;stroke-linejoin:miter;" x="261.515997" xlink:href="#m3895979071" y="258.151023"/>
     <use style="fill:#0652ff;stroke:#000000;stroke-linejoin:miter;" x="289.503458" xlink:href="#m3895979071" y="232.94"/>
     <use style="fill:#0652ff;stroke:#000000;stroke-linejoin:miter;" x="317.490919" xlink:href="#m3895979071" y="213.699906"/>
     <use style="fill:#0652ff;stroke:#000000;stroke-linejoin:miter;" x="345.47838" xlink:href="#m3895979071" y="196.491035"/>
     <use style="fill:#0652ff;stroke:#000000;stroke-linejoin:miter;" x="373.465841" xlink:href="#m3895979071" y="178.261459"/>
     <use style="fill:#0652ff;stroke:#000000;stroke-linejoin:miter;" x="401.453301" xlink:href="#m3895979071" y="167.231636"/>
     <use style="fill:#0652ff;stroke:#000000;stroke-linejoin:miter;" x="429.440762" xlink:href="#m3895979071" y="155.465393"/>
     <use style="fill:#0652ff;stroke:#000000;stroke-linejoin:miter;" x="457.428223" xlink:href="#m3895979071" y="144.415195"/>
     <use style="fill:#0652ff;stroke:#000000;stroke-linejoin:miter;" x="485.415684" xlink:href="#m3895979071" y="135.174516"/>
     <use style="fill:#0652ff;stroke:#000000;stroke-linejoin:miter;" x="513.403145" xlink:href="#m3895979071" y="126.44128"/>
     <use style="fill:#0652ff;stroke:#000000;stroke-linejoin:miter;" x="541.390605" xlink:href="#m3895979071" y="117.943814"/>
     <use style="fill:#0652ff;stroke:#000000;stroke-linejoin:miter;" x="569.378066" xlink:href="#m3895979071" y="111.232583"/>
     <use style="fill:#0652ff;stroke:#000000;stroke-linejoin:miter;" x="597.365527" xlink:href="#m3895979071" y="105.658001"/>
     <use style="fill:#0652ff;stroke:#000000;stroke-linejoin:miter;" x="625.352988" xlink:href="#m3895979071" y="98.47086"/>
     <use style="fill:#0652ff;stroke:#000000;stroke-linejoin:miter;" x="653.340449" xlink:href="#m3895979071" y="92.465002"/>
     <use style="fill:#0652ff;stroke:#000000;stroke-linejoin:miter;" x="681.327909" xlink:href="#m3895979071" y="87.275125"/>
     <use style="fill:#0652ff;stroke:#000000;stroke-linejoin:miter;" x="709.31537" xlink:href="#m3895979071" y="83.026392"/>
     <use style="fill:#0652ff;stroke:#000000;stroke-linejoin:miter;" x="737.302831" xlink:href="#m3895979071" y="79.309357"/>
     <use style="fill:#0652ff;stroke:#000000;stroke-linejoin:miter;" x="765.290292" xlink:href="#m3895979071" y="76.788643"/>
     <use style="fill:#0652ff;stroke:#000000;stroke-linejoin:miter;" x="793.277753" xlink:href="#m3895979071" y="71.706464"/>
     <use style="fill:#0652ff;stroke:#000000;stroke-linejoin:miter;" x="821.265214" xlink:href="#m3895979071" y="68.408578"/>
     <use style="fill:#0652ff;stroke:#000000;stroke-linejoin:miter;" x="849.252674" xlink:href="#m3895979071" y="64.780322"/>
     <use style="fill:#0652ff;stroke:#000000;stroke-linejoin:miter;" x="877.240135" xlink:href="#m3895979071" y="61.085118"/>
     <use style="fill:#0652ff;stroke:#000000;stroke-linejoin:miter;" x="905.227596" xlink:href="#m3895979071" y="58.989374"/>
     <use style="fill:#0652ff;stroke:#000000;stroke-linejoin:miter;" x="933.215057" xlink:href="#m3895979071" y="56.080074"/>
    </g>
   </g>
   <g id="line2d_36">
    <path clip-path="url(#pc7eee95839)" d="M 121.578693 959.76 
L 149.566154 659.18569 
L 177.553615 598.422215 
L 205.541076 562.87801 
L 233.528536 539.507555 
L 261.515997 520.611901 
L 289.503458 505.661776 
L 317.490919 494.215715 
L 345.47838 483.69576 
L 373.465841 473.175804 
L 401.453301 466.398596 
L 429.440762 459.350201 
L 457.428223 452.903363 
L 485.415684 447.431628 
L 513.403145 442.205852 
L 541.390605 437.030043 
L 569.378066 433.234903 
L 597.365527 430.089832 
L 625.352988 425.739708 
L 653.340449 422.24001 
L 681.327909 418.918838 
L 709.31537 416.651359 
L 737.302831 414.269876 
L 765.290292 412.91686 
L 793.277753 409.887734 
L 821.265214 407.999139 
L 849.252674 405.546342 
L 877.240135 403.787761 
L 905.227596 402.277079 
L 933.215057 400.709637 
" style="fill:none;stroke:#0652ff;stroke-dasharray:5.55,2.4;stroke-dashoffset:0;stroke-width:1.5;"/>
    <defs>
     <path d="M -2.25 4.5 
L 0 2.25 
L 2.25 4.5 
L 4.5 2.25 
L 2.25 0 
L 4.5 -2.25 
L 2.25 -4.5 
L 0 -2.25 
L -2.25 -4.5 
L -4.5 -2.25 
L -2.25 0 
L -4.5 2.25 
z
" id="mca2b2c2ee5" style="stroke:#000000;stroke-linejoin:miter;"/>
    </defs>
    <g clip-path="url(#pc7eee95839)">
     <use style="fill:#0652ff;stroke:#000000;stroke-linejoin:miter;" x="121.578693" xlink:href="#mca2b2c2ee5" y="959.76"/>
     <use style="fill:#0652ff;stroke:#000000;stroke-linejoin:miter;" x="149.566154" xlink:href="#mca2b2c2ee5" y="659.18569"/>
     <use style="fill:#0652ff;stroke:#000000;stroke-linejoin:miter;" x="177.553615" xlink:href="#mca2b2c2ee5" y="598.422215"/>
     <use style="fill:#0652ff;stroke:#000000;stroke-linejoin:miter;" x="205.541076" xlink:href="#mca2b2c2ee5" y="562.87801"/>
     <use style="fill:#0652ff;stroke:#000000;stroke-linejoin:miter;" x="233.528536" xlink:href="#mca2b2c2ee5" y="539.507555"/>
     <use style="fill:#0652ff;stroke:#000000;stroke-linejoin:miter;" x="261.515997" xlink:href="#mca2b2c2ee5" y="520.611901"/>
     <use style="fill:#0652ff;stroke:#000000;stroke-linejoin:miter;" x="289.503458" xlink:href="#mca2b2c2ee5" y="505.661776"/>
     <use style="fill:#0652ff;stroke:#000000;stroke-linejoin:miter;" x="317.490919" xlink:href="#mca2b2c2ee5" y="494.215715"/>
     <use style="fill:#0652ff;stroke:#000000;stroke-linejoin:miter;" x="345.47838" xlink:href="#mca2b2c2ee5" y="483.69576"/>
     <use style="fill:#0652ff;stroke:#000000;stroke-linejoin:miter;" x="373.465841" xlink:href="#mca2b2c2ee5" y="473.175804"/>
     <use style="fill:#0652ff;stroke:#000000;stroke-linejoin:miter;" x="401.453301" xlink:href="#mca2b2c2ee5" y="466.398596"/>
     <use style="fill:#0652ff;stroke:#000000;stroke-linejoin:miter;" x="429.440762" xlink:href="#mca2b2c2ee5" y="459.350201"/>
     <use style="fill:#0652ff;stroke:#000000;stroke-linejoin:miter;" x="457.428223" xlink:href="#mca2b2c2ee5" y="452.903363"/>
     <use style="fill:#0652ff;stroke:#000000;stroke-linejoin:miter;" x="485.415684" xlink:href="#mca2b2c2ee5" y="447.431628"/>
     <use style="fill:#0652ff;stroke:#000000;stroke-linejoin:miter;" x="513.403145" xlink:href="#mca2b2c2ee5" y="442.205852"/>
     <use style="fill:#0652ff;stroke:#000000;stroke-linejoin:miter;" x="541.390605" xlink:href="#mca2b2c2ee5" y="437.030043"/>
     <use style="fill:#0652ff;stroke:#000000;stroke-linejoin:miter;" x="569.378066" xlink:href="#mca2b2c2ee5" y="433.234903"/>
     <use style="fill:#0652ff;stroke:#000000;stroke-linejoin:miter;" x="597.365527" xlink:href="#mca2b2c2ee5" y="430.089832"/>
     <use style="fill:#0652ff;stroke:#000000;stroke-linejoin:miter;" x="625.352988" xlink:href="#mca2b2c2ee5" y="425.739708"/>
     <use style="fill:#0652ff;stroke:#000000;stroke-linejoin:miter;" x="653.340449" xlink:href="#mca2b2c2ee5" y="422.24001"/>
     <use style="fill:#0652ff;stroke:#000000;stroke-linejoin:miter;" x="681.327909" xlink:href="#mca2b2c2ee5" y="418.918838"/>
     <use style="fill:#0652ff;stroke:#000000;stroke-linejoin:miter;" x="709.31537" xlink:href="#mca2b2c2ee5" y="416.651359"/>
     <use style="fill:#0652ff;stroke:#000000;stroke-linejoin:miter;" x="737.302831" xlink:href="#mca2b2c2ee5" y="414.269876"/>
     <use style="fill:#0652ff;stroke:#000000;stroke-linejoin:miter;" x="765.290292" xlink:href="#mca2b2c2ee5" y="412.91686"/>
     <use style="fill:#0652ff;stroke:#000000;stroke-linejoin:miter;" x="793.277753" xlink:href="#mca2b2c2ee5" y="409.887734"/>
     <use style="fill:#0652ff;stroke:#000000;stroke-linejoin:miter;" x="821.265214" xlink:href="#mca2b2c2ee5" y="407.999139"/>
     <use style="fill:#0652ff;stroke:#000000;stroke-linejoin:miter;" x="849.252674" xlink:href="#mca2b2c2ee5" y="405.546342"/>
     <use style="fill:#0652ff;stroke:#000000;stroke-linejoin:miter;" x="877.240135" xlink:href="#mca2b2c2ee5" y="403.787761"/>
     <use style="fill:#0652ff;stroke:#000000;stroke-linejoin:miter;" x="905.227596" xlink:href="#mca2b2c2ee5" y="402.277079"/>
     <use style="fill:#0652ff;stroke:#000000;stroke-linejoin:miter;" x="933.215057" xlink:href="#mca2b2c2ee5" y="400.709637"/>
    </g>
   </g>
   <g id="line2d_37">
    <path clip-path="url(#pc7eee95839)" d="M 121.578693 902.10036 
L 149.566154 686.249895 
L 177.553615 628.84155 
L 205.541076 592.882805 
L 233.528536 567.787242 
L 261.515997 547.954325 
L 289.503458 531.400131 
L 317.490919 518.498692 
L 345.47838 506.286375 
L 373.465841 495.620882 
L 401.453301 486.919907 
L 429.440762 478.767851 
L 457.428223 471.281873 
L 485.415684 465.128536 
L 513.403145 458.728755 
L 541.390605 452.70058 
L 569.378066 448.748017 
L 597.365527 443.735454 
L 625.352988 439.899563 
L 653.340449 436.225705 
L 681.327909 431.752116 
L 709.31537 429.363841 
L 737.302831 426.000463 
L 765.290292 423.235731 
L 793.277753 420.366454 
L 821.265214 418.175625 
L 849.252674 415.469835 
L 877.240135 413.139048 
L 905.227596 411.570151 
L 933.215057 409.267258 
" style="fill:none;stroke:#ae7181;stroke-linecap:square;stroke-width:1.5;"/>
    <defs>
     <path d="M -4.5 4.5 
L 4.5 4.5 
L 4.5 -4.5 
L -4.5 -4.5 
z
" id="m69876488a7" style="stroke:#000000;stroke-linejoin:miter;"/>
    </defs>
    <g clip-path="url(#pc7eee95839)">
     <use style="fill:#ae7181;stroke:#000000;stroke-linejoin:miter;" x="121.578693" xlink:href="#m69876488a7" y="902.10036"/>
     <use style="fill:#ae7181;stroke:#000000;stroke-linejoin:miter;" x="149.566154" xlink:href="#m69876488a7" y="686.249895"/>
     <use style="fill:#ae7181;stroke:#000000;stroke-linejoin:miter;" x="177.553615" xlink:href="#m69876488a7" y="628.84155"/>
     <use style="fill:#ae7181;stroke:#000000;stroke-linejoin:miter;" x="205.541076" xlink:href="#m69876488a7" y="592.882805"/>
     <use style="fill:#ae7181;stroke:#000000;stroke-linejoin:miter;" x="233.528536" xlink:href="#m69876488a7" y="567.787242"/>
     <use style="fill:#ae7181;stroke:#000000;stroke-linejoin:miter;" x="261.515997" xlink:href="#m69876488a7" y="547.954325"/>
     <use style="fill:#ae7181;stroke:#000000;stroke-linejoin:miter;" x="289.503458" xlink:href="#m69876488a7" y="531.400131"/>
     <use style="fill:#ae7181;stroke:#000000;stroke-linejoin:miter;" x="317.490919" xlink:href="#m69876488a7" y="518.498692"/>
     <use style="fill:#ae7181;stroke:#000000;stroke-linejoin:miter;" x="345.47838" xlink:href="#m69876488a7" y="506.286375"/>
     <use style="fill:#ae7181;stroke:#000000;stroke-linejoin:miter;" x="373.465841" xlink:href="#m69876488a7" y="495.620882"/>
     <use style="fill:#ae7181;stroke:#000000;stroke-linejoin:miter;" x="401.453301" xlink:href="#m69876488a7" y="486.919907"/>
     <use style="fill:#ae7181;stroke:#000000;stroke-linejoin:miter;" x="429.440762" xlink:href="#m69876488a7" y="478.767851"/>
     <use style="fill:#ae7181;stroke:#000000;stroke-linejoin:miter;" x="457.428223" xlink:href="#m69876488a7" y="471.281873"/>
     <use style="fill:#ae7181;stroke:#000000;stroke-linejoin:miter;" x="485.415684" xlink:href="#m69876488a7" y="465.128536"/>
     <use style="fill:#ae7181;stroke:#000000;stroke-linejoin:miter;" x="513.403145" xlink:href="#m69876488a7" y="458.728755"/>
     <use style="fill:#ae7181;stroke:#000000;stroke-linejoin:miter;" x="541.390605" xlink:href="#m69876488a7" y="452.70058"/>
     <use style="fill:#ae7181;stroke:#000000;stroke-linejoin:miter;" x="569.378066" xlink:href="#m69876488a7" y="448.748017"/>
     <use style="fill:#ae7181;stroke:#000000;stroke-linejoin:miter;" x="597.365527" xlink:href="#m69876488a7" y="443.735454"/>
     <use style="fill:#ae7181;stroke:#000000;stroke-linejoin:miter;" x="625.352988" xlink:href="#m69876488a7" y="439.899563"/>
     <use style="fill:#ae7181;stroke:#000000;stroke-linejoin:miter;" x="653.340449" xlink:href="#m69876488a7" y="436.225705"/>
     <use style="fill:#ae7181;stroke:#000000;stroke-linejoin:miter;" x="681.327909" xlink:href="#m69876488a7" y="431.752116"/>
     <use style="fill:#ae7181;stroke:#000000;stroke-linejoin:miter;" x="709.31537" xlink:href="#m69876488a7" y="429.363841"/>
     <use style="fill:#ae7181;stroke:#000000;stroke-linejoin:miter;" x="737.302831" xlink:href="#m69876488a7" y="426.000463"/>
     <use style="fill:#ae7181;stroke:#000000;stroke-linejoin:miter;" x="765.290292" xlink:href="#m69876488a7" y="423.235731"/>
     <use style="fill:#ae7181;stroke:#000000;stroke-linejoin:miter;" x="793.277753" xlink:href="#m69876488a7" y="420.366454"/>
     <use style="fill:#ae7181;stroke:#000000;stroke-linejoin:miter;" x="821.265214" xlink:href="#m69876488a7" y="418.175625"/>
     <use style="fill:#ae7181;stroke:#000000;stroke-linejoin:miter;" x="849.252674" xlink:href="#m69876488a7" y="415.469835"/>
     <use style="fill:#ae7181;stroke:#000000;stroke-linejoin:miter;" x="877.240135" xlink:href="#m69876488a7" y="413.139048"/>
     <use style="fill:#ae7181;stroke:#000000;stroke-linejoin:miter;" x="905.227596" xlink:href="#m69876488a7" y="411.570151"/>
     <use style="fill:#ae7181;stroke:#000000;stroke-linejoin:miter;" x="933.215057" xlink:href="#m69876488a7" y="409.267258"/>
    </g>
   </g>
   <g id="line2d_38">
    <path clip-path="url(#pc7eee95839)" d="M 121.578693 902.10036 
L 149.566154 686.249895 
L 177.553615 628.84155 
L 205.541076 592.882805 
L 233.528536 567.787242 
L 261.515997 547.954325 
L 289.503458 531.400131 
L 317.490919 518.498692 
L 345.47838 506.286375 
L 373.465841 495.620882 
L 401.453301 486.919907 
L 429.440762 478.767851 
L 457.428223 471.281873 
L 485.415684 465.128536 
L 513.403145 458.728755 
L 541.390605 452.70058 
L 569.378066 448.748017 
L 597.365527 443.735454 
L 625.352988 439.899563 
L 653.340449 436.225705 
L 681.327909 431.752116 
L 709.31537 429.363841 
L 737.302831 426.000463 
L 765.290292 423.235731 
L 793.277753 420.366454 
L 821.265214 418.175625 
L 849.252674 415.469835 
L 877.240135 413.139048 
L 905.227596 411.570151 
L 933.215057 409.267258 
" style="fill:none;stroke:#ae7181;stroke-dasharray:5.55,2.4;stroke-dashoffset:0;stroke-width:1.5;"/>
    <defs>
     <path d="M 0 -4.5 
L -1.010313 -1.390576 
L -4.279754 -1.390576 
L -1.634721 0.531153 
L -2.645034 3.640576 
L -0 1.718847 
L 2.645034 3.640576 
L 1.634721 0.531153 
L 4.279754 -1.390576 
L 1.010313 -1.390576 
z
" id="m86dea02ea1" style="stroke:#000000;stroke-linejoin:bevel;"/>
    </defs>
    <g clip-path="url(#pc7eee95839)">
     <use style="fill:#ae7181;stroke:#000000;stroke-linejoin:bevel;" x="121.578693" xlink:href="#m86dea02ea1" y="902.10036"/>
     <use style="fill:#ae7181;stroke:#000000;stroke-linejoin:bevel;" x="149.566154" xlink:href="#m86dea02ea1" y="686.249895"/>
     <use style="fill:#ae7181;stroke:#000000;stroke-linejoin:bevel;" x="177.553615" xlink:href="#m86dea02ea1" y="628.84155"/>
     <use style="fill:#ae7181;stroke:#000000;stroke-linejoin:bevel;" x="205.541076" xlink:href="#m86dea02ea1" y="592.882805"/>
     <use style="fill:#ae7181;stroke:#000000;stroke-linejoin:bevel;" x="233.528536" xlink:href="#m86dea02ea1" y="567.787242"/>
     <use style="fill:#ae7181;stroke:#000000;stroke-linejoin:bevel;" x="261.515997" xlink:href="#m86dea02ea1" y="547.954325"/>
     <use style="fill:#ae7181;stroke:#000000;stroke-linejoin:bevel;" x="289.503458" xlink:href="#m86dea02ea1" y="531.400131"/>
     <use style="fill:#ae7181;stroke:#000000;stroke-linejoin:bevel;" x="317.490919" xlink:href="#m86dea02ea1" y="518.498692"/>
     <use style="fill:#ae7181;stroke:#000000;stroke-linejoin:bevel;" x="345.47838" xlink:href="#m86dea02ea1" y="506.286375"/>
     <use style="fill:#ae7181;stroke:#000000;stroke-linejoin:bevel;" x="373.465841" xlink:href="#m86dea02ea1" y="495.620882"/>
     <use style="fill:#ae7181;stroke:#000000;stroke-linejoin:bevel;" x="401.453301" xlink:href="#m86dea02ea1" y="486.919907"/>
     <use style="fill:#ae7181;stroke:#000000;stroke-linejoin:bevel;" x="429.440762" xlink:href="#m86dea02ea1" y="478.767851"/>
     <use style="fill:#ae7181;stroke:#000000;stroke-linejoin:bevel;" x="457.428223" xlink:href="#m86dea02ea1" y="471.281873"/>
     <use style="fill:#ae7181;stroke:#000000;stroke-linejoin:bevel;" x="485.415684" xlink:href="#m86dea02ea1" y="465.128536"/>
     <use style="fill:#ae7181;stroke:#000000;stroke-linejoin:bevel;" x="513.403145" xlink:href="#m86dea02ea1" y="458.728755"/>
     <use style="fill:#ae7181;stroke:#000000;stroke-linejoin:bevel;" x="541.390605" xlink:href="#m86dea02ea1" y="452.70058"/>
     <use style="fill:#ae7181;stroke:#000000;stroke-linejoin:bevel;" x="569.378066" xlink:href="#m86dea02ea1" y="448.748017"/>
     <use style="fill:#ae7181;stroke:#000000;stroke-linejoin:bevel;" x="597.365527" xlink:href="#m86dea02ea1" y="443.735454"/>
     <use style="fill:#ae7181;stroke:#000000;stroke-linejoin:bevel;" x="625.352988" xlink:href="#m86dea02ea1" y="439.899563"/>
     <use style="fill:#ae7181;stroke:#000000;stroke-linejoin:bevel;" x="653.340449" xlink:href="#m86dea02ea1" y="436.225705"/>
     <use style="fill:#ae7181;stroke:#000000;stroke-linejoin:bevel;" x="681.327909" xlink:href="#m86dea02ea1" y="431.752116"/>
     <use style="fill:#ae7181;stroke:#000000;stroke-linejoin:bevel;" x="709.31537" xlink:href="#m86dea02ea1" y="429.363841"/>
     <use style="fill:#ae7181;stroke:#000000;stroke-linejoin:bevel;" x="737.302831" xlink:href="#m86dea02ea1" y="426.000463"/>
     <use style="fill:#ae7181;stroke:#000000;stroke-linejoin:bevel;" x="765.290292" xlink:href="#m86dea02ea1" y="423.235731"/>
     <use style="fill:#ae7181;stroke:#000000;stroke-linejoin:bevel;" x="793.277753" xlink:href="#m86dea02ea1" y="420.366454"/>
     <use style="fill:#ae7181;stroke:#000000;stroke-linejoin:bevel;" x="821.265214" xlink:href="#m86dea02ea1" y="418.175625"/>
     <use style="fill:#ae7181;stroke:#000000;stroke-linejoin:bevel;" x="849.252674" xlink:href="#m86dea02ea1" y="415.469835"/>
     <use style="fill:#ae7181;stroke:#000000;stroke-linejoin:bevel;" x="877.240135" xlink:href="#m86dea02ea1" y="413.139048"/>
     <use style="fill:#ae7181;stroke:#000000;stroke-linejoin:bevel;" x="905.227596" xlink:href="#m86dea02ea1" y="411.570151"/>
     <use style="fill:#ae7181;stroke:#000000;stroke-linejoin:bevel;" x="933.215057" xlink:href="#m86dea02ea1" y="409.267258"/>
    </g>
   </g>
   <g id="patch_3">
    <path d="M 80.996875 1005.12 
L 80.996875 7.2 
" style="fill:none;stroke:#000000;stroke-linecap:square;stroke-linejoin:miter;stroke-width:0.8;"/>
   </g>
   <g id="patch_4">
    <path d="M 973.796875 1005.12 
L 973.796875 7.2 
" style="fill:none;stroke:#000000;stroke-linecap:square;stroke-linejoin:miter;stroke-width:0.8;"/>
   </g>
   <g id="patch_5">
    <path d="M 80.996875 1005.12 
L 973.796875 1005.12 
" style="fill:none;stroke:#000000;stroke-linecap:square;stroke-linejoin:miter;stroke-width:0.8;"/>
   </g>
   <g id="patch_6">
    <path d="M 80.996875 7.2 
L 973.796875 7.2 
" style="fill:none;stroke:#000000;stroke-linecap:square;stroke-linejoin:miter;stroke-width:0.8;"/>
   </g>
  </g>
 </g>
 <defs>
  <clipPath id="pc7eee95839">
   <rect height="997.92" width="892.8" x="80.996875" y="7.2"/>
  </clipPath>
 </defs>
</svg>
