<?xml version="1.0" encoding="utf-8" standalone="no"?>
<!DOCTYPE svg PUBLIC "-//W3C//DTD SVG 1.1//EN"
  "http://www.w3.org/Graphics/SVG/1.1/DTD/svg11.dtd">
<svg height="1090.099062pt" version="1.1" viewBox="0 0 1019.489765 1090.099062" width="1019.489765pt" xmlns="http://www.w3.org/2000/svg" xmlns:xlink="http://www.w3.org/1999/xlink">
 <metadata>
  <rdf:RDF xmlns:cc="http://creativecommons.org/ns#" xmlns:dc="http://purl.org/dc/elements/1.1/" xmlns:rdf="http://www.w3.org/1999/02/22-rdf-syntax-ns#">
   <cc:Work>
    <dc:type rdf:resource="http://purl.org/dc/dcmitype/StillImage"/>
    <dc:date>2021-06-24T16:40:08.779785</dc:date>
    <dc:format>image/svg+xml</dc:format>
    <dc:creator>
     <cc:Agent>
      <dc:title>Matplotlib v3.4.2, https://matplotlib.org/</dc:title>
     </cc:Agent>
    </dc:creator>
   </cc:Work>
  </rdf:RDF>
 </metadata>
 <defs>
  <style type="text/css">*{stroke-linecap:butt;stroke-linejoin:round;}</style>
 </defs>
 <g id="figure_1">
  <g id="patch_1">
   <path d="M 0 1090.099062 
L 1019.489765 1090.099062 
L 1019.489765 0 
L 0 0 
z
" style="fill:#ffffff;"/>
  </g>
  <g id="axes_1">
   <g id="patch_2">
    <path d="M 113.207188 1005.12 
L 1006.007187 1005.12 
L 1006.007187 7.2 
L 113.207188 7.2 
z
" style="fill:#ffffff;"/>
   </g>
   <g id="PolyCollection_1">
    <defs>
     <path d="M 153.789006 -134.813553 
L 153.789006 -133.392033 
L 196.506709 -153.215346 
L 239.224412 -174.718093 
L 281.942116 -196.715674 
L 324.659819 -219.193092 
L 367.377522 -241.304634 
L 410.095226 -265.974313 
L 452.812929 -290.104173 
L 495.530632 -315.034764 
L 538.248336 -339.089651 
L 580.966039 -363.612379 
L 623.683743 -390.17442 
L 666.401446 -412.834776 
L 709.119149 -443.580406 
L 751.836853 -464.657296 
L 794.554556 -489.647867 
L 837.272259 -518.0123 
L 879.989963 -544.955212 
L 922.707666 -567.747524 
L 965.425369 -595.890031 
L 965.425369 -622.008222 
L 965.425369 -622.008222 
L 922.707666 -595.997995 
L 879.989963 -566.275021 
L 837.272259 -537.928582 
L 794.554556 -510.037989 
L 751.836853 -480.024113 
L 709.119149 -459.343089 
L 666.401446 -430.975657 
L 623.683743 -406.266992 
L 580.966039 -378.001526 
L 538.248336 -350.455817 
L 495.530632 -326.43092 
L 452.812929 -301.785233 
L 410.095226 -274.542422 
L 367.377522 -251.093332 
L 324.659819 -226.129752 
L 281.942116 -201.400094 
L 239.224412 -178.763729 
L 196.506709 -156.166351 
L 153.789006 -134.813553 
z
" id="mdaa0eb26f2" style="stroke:#fe0002;stroke-opacity:0.3;"/>
    </defs>
    <g clip-path="url(#p814142e3f1)">
     <use style="fill:#fe0002;fill-opacity:0.3;stroke:#fe0002;stroke-opacity:0.3;" x="0" xlink:href="#mdaa0eb26f2" y="1090.099062"/>
    </g>
   </g>
   <g id="PolyCollection_2">
    <g clip-path="url(#p814142e3f1)">
     <use style="fill:#fe0002;fill-opacity:0.3;stroke:#fe0002;stroke-opacity:0.3;" x="0" xlink:href="#mdaa0eb26f2" y="1090.099062"/>
    </g>
   </g>
   <g id="PolyCollection_3">
    <defs>
     <path d="M 153.789006 -139.437993 
L 153.789006 -137.81854 
L 196.506709 -164.020702 
L 239.224412 -191.938285 
L 281.942116 -222.126103 
L 324.659819 -252.109989 
L 367.377522 -283.950249 
L 410.095226 -316.984107 
L 452.812929 -348.890345 
L 495.530632 -382.697941 
L 538.248336 -419.870403 
L 580.966039 -451.09887 
L 623.683743 -484.783508 
L 666.401446 -519.430821 
L 709.119149 -556.58229 
L 751.836853 -592.864052 
L 794.554556 -631.041175 
L 837.272259 -663.580199 
L 879.989963 -699.715011 
L 922.707666 -733.477623 
L 965.425369 -770.371179 
L 965.425369 -796.555347 
L 965.425369 -796.555347 
L 922.707666 -756.590827 
L 879.989963 -719.25642 
L 837.272259 -682.368862 
L 794.554556 -648.372329 
L 751.836853 -609.742359 
L 709.119149 -573.89545 
L 666.401446 -539.125178 
L 623.683743 -499.532533 
L 580.966039 -465.059161 
L 538.248336 -430.030976 
L 495.530632 -393.851179 
L 452.812929 -359.614727 
L 410.095226 -325.201335 
L 367.377522 -292.341419 
L 324.659819 -259.094633 
L 281.942116 -227.245376 
L 239.224412 -196.061894 
L 196.506709 -166.557846 
L 153.789006 -139.437993 
z
" id="mc4ae033d26" style="stroke:#53fca1;stroke-opacity:0.3;"/>
    </defs>
    <g clip-path="url(#p814142e3f1)">
     <use style="fill:#53fca1;fill-opacity:0.3;stroke:#53fca1;stroke-opacity:0.3;" x="0" xlink:href="#mc4ae033d26" y="1090.099062"/>
    </g>
   </g>
   <g id="PolyCollection_4">
    <defs>
     <path d="M 153.789006 -130.953855 
L 153.789006 -130.710937 
L 196.506709 -147.091412 
L 239.224412 -164.866416 
L 281.942116 -183.034288 
L 324.659819 -202.053873 
L 367.377522 -221.358362 
L 410.095226 -241.34362 
L 452.812929 -261.052972 
L 495.530632 -281.868951 
L 538.248336 -302.205092 
L 580.966039 -322.75716 
L 623.683743 -343.396198 
L 666.401446 -364.230171 
L 709.119149 -386.017822 
L 751.836853 -407.016739 
L 794.554556 -428.966335 
L 837.272259 -450.646022 
L 879.989963 -471.782893 
L 922.707666 -493.447585 
L 965.425369 -515.835034 
L 965.425369 -517.547456 
L 965.425369 -517.547456 
L 922.707666 -495.53788 
L 879.989963 -473.621273 
L 837.272259 -451.710663 
L 794.554556 -430.525809 
L 751.836853 -408.480245 
L 709.119149 -387.292392 
L 666.401446 -366.305471 
L 623.683743 -345.201589 
L 580.966039 -323.896775 
L 538.248336 -303.6626 
L 495.530632 -282.855618 
L 452.812929 -262.333541 
L 410.095226 -242.255313 
L 367.377522 -222.255059 
L 324.659819 -203.418413 
L 281.942116 -183.865008 
L 239.224412 -165.337258 
L 196.506709 -147.616235 
L 153.789006 -130.953855 
z
" id="mc4e9aeda3e" style="stroke:#53fca1;stroke-opacity:0.3;"/>
    </defs>
    <g clip-path="url(#p814142e3f1)">
     <use style="fill:#53fca1;fill-opacity:0.3;stroke:#53fca1;stroke-opacity:0.3;" x="0" xlink:href="#mc4e9aeda3e" y="1090.099062"/>
    </g>
   </g>
   <g id="PolyCollection_5">
    <defs>
     <path d="M 153.789006 -140.235724 
L 153.789006 -138.919168 
L 196.506709 -166.380906 
L 239.224412 -195.842968 
L 281.942116 -229.116745 
L 324.659819 -260.471169 
L 367.377522 -294.017853 
L 410.095226 -330.275624 
L 452.812929 -365.276818 
L 495.530632 -400.619896 
L 538.248336 -440.770354 
L 580.966039 -475.573614 
L 623.683743 -512.740078 
L 666.401446 -551.223098 
L 709.119149 -589.4602 
L 751.836853 -631.658967 
L 794.554556 -670.996698 
L 837.272259 -709.461724 
L 879.989963 -752.128332 
L 922.707666 -785.39911 
L 965.425369 -831.835447 
L 965.425369 -853.299207 
L 965.425369 -853.299207 
L 922.707666 -811.847189 
L 879.989963 -770.785039 
L 837.272259 -729.644916 
L 794.554556 -689.701389 
L 751.836853 -646.791862 
L 709.119149 -609.016604 
L 666.401446 -568.386308 
L 623.683743 -526.337492 
L 580.966039 -488.685192 
L 538.248336 -451.281808 
L 495.530632 -411.90509 
L 452.812929 -375.989204 
L 410.095226 -339.203612 
L 367.377522 -303.167767 
L 324.659819 -267.10793 
L 281.942116 -233.708196 
L 239.224412 -200.632352 
L 196.506709 -168.522183 
L 153.789006 -140.235724 
z
" id="me5924496aa" style="stroke:#0652ff;stroke-opacity:0.3;"/>
    </defs>
    <g clip-path="url(#p814142e3f1)">
     <use style="fill:#0652ff;fill-opacity:0.3;stroke:#0652ff;stroke-opacity:0.3;" x="0" xlink:href="#me5924496aa" y="1090.099062"/>
    </g>
   </g>
   <g id="PolyCollection_6">
    <defs>
     <path d="M 153.789006 -132.198435 
L 153.789006 -131.763582 
L 196.506709 -150.321322 
L 239.224412 -170.258598 
L 281.942116 -191.053583 
L 324.659819 -212.691285 
L 367.377522 -234.772837 
L 410.095226 -257.688107 
L 452.812929 -280.366458 
L 495.530632 -304.127443 
L 538.248336 -328.101357 
L 580.966039 -352.651076 
L 623.683743 -377.101829 
L 666.401446 -401.753514 
L 709.119149 -426.747084 
L 751.836853 -451.290805 
L 794.554556 -476.989137 
L 837.272259 -502.918391 
L 879.989963 -528.214858 
L 922.707666 -553.412359 
L 965.425369 -580.022384 
L 965.425369 -582.73047 
L 965.425369 -582.73047 
L 922.707666 -555.619615 
L 879.989963 -531.324809 
L 837.272259 -504.627814 
L 794.554556 -478.545612 
L 751.836853 -453.959905 
L 709.119149 -428.051644 
L 666.401446 -403.786828 
L 623.683743 -378.157473 
L 580.966039 -354.030611 
L 538.248336 -330.002716 
L 495.530632 -305.668923 
L 452.812929 -282.201839 
L 410.095226 -258.962678 
L 367.377522 -236.251338 
L 324.659819 -213.719938 
L 281.942116 -192.079237 
L 239.224412 -170.777423 
L 196.506709 -150.849144 
L 153.789006 -132.198435 
z
" id="m19038cde39" style="stroke:#0652ff;stroke-opacity:0.3;"/>
    </defs>
    <g clip-path="url(#p814142e3f1)">
     <use style="fill:#0652ff;fill-opacity:0.3;stroke:#0652ff;stroke-opacity:0.3;" x="0" xlink:href="#m19038cde39" y="1090.099062"/>
    </g>
   </g>
   <g id="PolyCollection_7">
    <defs>
     <path d="M 153.789006 -144.212383 
L 153.789006 -143.624581 
L 196.506709 -178.055968 
L 239.224412 -216.221094 
L 281.942116 -256.76142 
L 324.659819 -298.639295 
L 367.377522 -342.070645 
L 410.095226 -387.313385 
L 452.812929 -432.763054 
L 495.530632 -480.497953 
L 538.248336 -526.373479 
L 580.966039 -574.972087 
L 623.683743 -623.459732 
L 666.401446 -671.557509 
L 709.119149 -724.174761 
L 751.836853 -775.160563 
L 794.554556 -824.245007 
L 837.272259 -875.548702 
L 879.989963 -927.332235 
L 922.707666 -980.555283 
L 965.425369 -1032.359809 
L 965.425369 -1037.539062 
L 965.425369 -1037.539062 
L 922.707666 -985.206714 
L 879.989963 -933.180263 
L 837.272259 -881.180802 
L 794.554556 -831.070705 
L 751.836853 -778.72636 
L 709.119149 -727.368683 
L 666.401446 -678.662112 
L 623.683743 -628.402065 
L 580.966039 -579.071704 
L 538.248336 -531.102884 
L 495.530632 -482.930133 
L 452.812929 -437.024617 
L 410.095226 -390.141431 
L 367.377522 -345.708418 
L 324.659819 -301.713258 
L 281.942116 -258.710763 
L 239.224412 -217.795563 
L 196.506709 -179.543466 
L 153.789006 -144.212383 
z
" id="mb4b62576b2" style="stroke:#ae7181;stroke-opacity:0.3;"/>
    </defs>
    <g clip-path="url(#p814142e3f1)">
     <use style="fill:#ae7181;fill-opacity:0.3;stroke:#ae7181;stroke-opacity:0.3;" x="0" xlink:href="#mb4b62576b2" y="1090.099062"/>
    </g>
   </g>
   <g id="PolyCollection_8">
    <defs>
     <path d="M 153.789006 -130.632963 
L 153.789006 -130.339063 
L 196.506709 -147.554756 
L 239.224412 -166.637319 
L 281.942116 -186.907482 
L 324.659819 -207.846419 
L 367.377522 -229.562094 
L 410.095226 -252.183464 
L 452.812929 -274.908299 
L 495.530632 -298.775749 
L 538.248336 -321.713512 
L 580.966039 -346.012815 
L 623.683743 -370.256638 
L 666.401446 -394.305526 
L 709.119149 -420.614152 
L 751.836853 -446.107053 
L 794.554556 -470.649275 
L 837.272259 -496.301123 
L 879.989963 -522.19289 
L 922.707666 -548.804413 
L 965.425369 -574.706677 
L 965.425369 -577.296303 
L 965.425369 -577.296303 
L 922.707666 -551.130129 
L 879.989963 -525.116903 
L 837.272259 -499.117173 
L 794.554556 -474.062124 
L 751.836853 -447.889952 
L 709.119149 -422.211114 
L 666.401446 -397.857828 
L 623.683743 -372.727804 
L 580.966039 -348.062624 
L 538.248336 -324.078214 
L 495.530632 -299.991838 
L 452.812929 -277.03908 
L 410.095226 -253.597487 
L 367.377522 -231.380981 
L 324.659819 -209.383401 
L 281.942116 -187.882153 
L 239.224412 -167.424554 
L 196.506709 -148.298505 
L 153.789006 -130.632963 
z
" id="m52b9214f15" style="stroke:#ae7181;stroke-opacity:0.3;"/>
    </defs>
    <g clip-path="url(#p814142e3f1)">
     <use style="fill:#ae7181;fill-opacity:0.3;stroke:#ae7181;stroke-opacity:0.3;" x="0" xlink:href="#m52b9214f15" y="1090.099062"/>
    </g>
   </g>
   <g id="matplotlib.axis_1">
    <g id="xtick_1">
     <g id="line2d_1">
      <path clip-path="url(#p814142e3f1)" d="M 281.087762 1005.12 
L 281.087762 7.2 
" style="fill:none;stroke:#b0b0b0;stroke-linecap:square;stroke-width:0.8;"/>
     </g>
     <g id="line2d_2">
      <defs>
       <path d="M 0 0 
L 0 3.5 
" id="m29c43bea4a" style="stroke:#000000;stroke-width:0.8;"/>
      </defs>
      <g>
       <use style="stroke:#000000;stroke-width:0.8;" x="281.087762" xlink:href="#m29c43bea4a" y="1005.12"/>
      </g>
     </g>
     <g id="text_1">
      <!-- 2000 -->
      <g transform="translate(242.912762 1034.915313)scale(0.3 -0.3)">
       <defs>
        <path d="M 1228 531 
L 3431 531 
L 3431 0 
L 469 0 
L 469 531 
Q 828 903 1448 1529 
Q 2069 2156 2228 2338 
Q 2531 2678 2651 2914 
Q 2772 3150 2772 3378 
Q 2772 3750 2511 3984 
Q 2250 4219 1831 4219 
Q 1534 4219 1204 4116 
Q 875 4013 500 3803 
L 500 4441 
Q 881 4594 1212 4672 
Q 1544 4750 1819 4750 
Q 2544 4750 2975 4387 
Q 3406 4025 3406 3419 
Q 3406 3131 3298 2873 
Q 3191 2616 2906 2266 
Q 2828 2175 2409 1742 
Q 1991 1309 1228 531 
z
" id="DejaVuSans-32" transform="scale(0.015625)"/>
        <path d="M 2034 4250 
Q 1547 4250 1301 3770 
Q 1056 3291 1056 2328 
Q 1056 1369 1301 889 
Q 1547 409 2034 409 
Q 2525 409 2770 889 
Q 3016 1369 3016 2328 
Q 3016 3291 2770 3770 
Q 2525 4250 2034 4250 
z
M 2034 4750 
Q 2819 4750 3233 4129 
Q 3647 3509 3647 2328 
Q 3647 1150 3233 529 
Q 2819 -91 2034 -91 
Q 1250 -91 836 529 
Q 422 1150 422 2328 
Q 422 3509 836 4129 
Q 1250 4750 2034 4750 
z
" id="DejaVuSans-30" transform="scale(0.015625)"/>
       </defs>
       <use xlink:href="#DejaVuSans-32"/>
       <use x="63.623047" xlink:href="#DejaVuSans-30"/>
       <use x="127.246094" xlink:href="#DejaVuSans-30"/>
       <use x="190.869141" xlink:href="#DejaVuSans-30"/>
      </g>
     </g>
    </g>
    <g id="xtick_2">
     <g id="line2d_3">
      <path clip-path="url(#p814142e3f1)" d="M 451.958575 1005.12 
L 451.958575 7.2 
" style="fill:none;stroke:#b0b0b0;stroke-linecap:square;stroke-width:0.8;"/>
     </g>
     <g id="line2d_4">
      <g>
       <use style="stroke:#000000;stroke-width:0.8;" x="451.958575" xlink:href="#m29c43bea4a" y="1005.12"/>
      </g>
     </g>
     <g id="text_2">
      <!-- 4000 -->
      <g transform="translate(413.783575 1034.915313)scale(0.3 -0.3)">
       <defs>
        <path d="M 2419 4116 
L 825 1625 
L 2419 1625 
L 2419 4116 
z
M 2253 4666 
L 3047 4666 
L 3047 1625 
L 3713 1625 
L 3713 1100 
L 3047 1100 
L 3047 0 
L 2419 0 
L 2419 1100 
L 313 1100 
L 313 1709 
L 2253 4666 
z
" id="DejaVuSans-34" transform="scale(0.015625)"/>
       </defs>
       <use xlink:href="#DejaVuSans-34"/>
       <use x="63.623047" xlink:href="#DejaVuSans-30"/>
       <use x="127.246094" xlink:href="#DejaVuSans-30"/>
       <use x="190.869141" xlink:href="#DejaVuSans-30"/>
      </g>
     </g>
    </g>
    <g id="xtick_3">
     <g id="line2d_5">
      <path clip-path="url(#p814142e3f1)" d="M 622.829388 1005.12 
L 622.829388 7.2 
" style="fill:none;stroke:#b0b0b0;stroke-linecap:square;stroke-width:0.8;"/>
     </g>
     <g id="line2d_6">
      <g>
       <use style="stroke:#000000;stroke-width:0.8;" x="622.829388" xlink:href="#m29c43bea4a" y="1005.12"/>
      </g>
     </g>
     <g id="text_3">
      <!-- 6000 -->
      <g transform="translate(584.654388 1034.915313)scale(0.3 -0.3)">
       <defs>
        <path d="M 2113 2584 
Q 1688 2584 1439 2293 
Q 1191 2003 1191 1497 
Q 1191 994 1439 701 
Q 1688 409 2113 409 
Q 2538 409 2786 701 
Q 3034 994 3034 1497 
Q 3034 2003 2786 2293 
Q 2538 2584 2113 2584 
z
M 3366 4563 
L 3366 3988 
Q 3128 4100 2886 4159 
Q 2644 4219 2406 4219 
Q 1781 4219 1451 3797 
Q 1122 3375 1075 2522 
Q 1259 2794 1537 2939 
Q 1816 3084 2150 3084 
Q 2853 3084 3261 2657 
Q 3669 2231 3669 1497 
Q 3669 778 3244 343 
Q 2819 -91 2113 -91 
Q 1303 -91 875 529 
Q 447 1150 447 2328 
Q 447 3434 972 4092 
Q 1497 4750 2381 4750 
Q 2619 4750 2861 4703 
Q 3103 4656 3366 4563 
z
" id="DejaVuSans-36" transform="scale(0.015625)"/>
       </defs>
       <use xlink:href="#DejaVuSans-36"/>
       <use x="63.623047" xlink:href="#DejaVuSans-30"/>
       <use x="127.246094" xlink:href="#DejaVuSans-30"/>
       <use x="190.869141" xlink:href="#DejaVuSans-30"/>
      </g>
     </g>
    </g>
    <g id="xtick_4">
     <g id="line2d_7">
      <path clip-path="url(#p814142e3f1)" d="M 793.700202 1005.12 
L 793.700202 7.2 
" style="fill:none;stroke:#b0b0b0;stroke-linecap:square;stroke-width:0.8;"/>
     </g>
     <g id="line2d_8">
      <g>
       <use style="stroke:#000000;stroke-width:0.8;" x="793.700202" xlink:href="#m29c43bea4a" y="1005.12"/>
      </g>
     </g>
     <g id="text_4">
      <!-- 8000 -->
      <g transform="translate(755.525202 1034.915313)scale(0.3 -0.3)">
       <defs>
        <path d="M 2034 2216 
Q 1584 2216 1326 1975 
Q 1069 1734 1069 1313 
Q 1069 891 1326 650 
Q 1584 409 2034 409 
Q 2484 409 2743 651 
Q 3003 894 3003 1313 
Q 3003 1734 2745 1975 
Q 2488 2216 2034 2216 
z
M 1403 2484 
Q 997 2584 770 2862 
Q 544 3141 544 3541 
Q 544 4100 942 4425 
Q 1341 4750 2034 4750 
Q 2731 4750 3128 4425 
Q 3525 4100 3525 3541 
Q 3525 3141 3298 2862 
Q 3072 2584 2669 2484 
Q 3125 2378 3379 2068 
Q 3634 1759 3634 1313 
Q 3634 634 3220 271 
Q 2806 -91 2034 -91 
Q 1263 -91 848 271 
Q 434 634 434 1313 
Q 434 1759 690 2068 
Q 947 2378 1403 2484 
z
M 1172 3481 
Q 1172 3119 1398 2916 
Q 1625 2713 2034 2713 
Q 2441 2713 2670 2916 
Q 2900 3119 2900 3481 
Q 2900 3844 2670 4047 
Q 2441 4250 2034 4250 
Q 1625 4250 1398 4047 
Q 1172 3844 1172 3481 
z
" id="DejaVuSans-38" transform="scale(0.015625)"/>
       </defs>
       <use xlink:href="#DejaVuSans-38"/>
       <use x="63.623047" xlink:href="#DejaVuSans-30"/>
       <use x="127.246094" xlink:href="#DejaVuSans-30"/>
       <use x="190.869141" xlink:href="#DejaVuSans-30"/>
      </g>
     </g>
    </g>
    <g id="xtick_5">
     <g id="line2d_9">
      <path clip-path="url(#p814142e3f1)" d="M 964.571015 1005.12 
L 964.571015 7.2 
" style="fill:none;stroke:#b0b0b0;stroke-linecap:square;stroke-width:0.8;"/>
     </g>
     <g id="line2d_10">
      <g>
       <use style="stroke:#000000;stroke-width:0.8;" x="964.571015" xlink:href="#m29c43bea4a" y="1005.12"/>
      </g>
     </g>
     <g id="text_5">
      <!-- 10000 -->
      <g transform="translate(916.852265 1034.915313)scale(0.3 -0.3)">
       <defs>
        <path d="M 794 531 
L 1825 531 
L 1825 4091 
L 703 3866 
L 703 4441 
L 1819 4666 
L 2450 4666 
L 2450 531 
L 3481 531 
L 3481 0 
L 794 0 
L 794 531 
z
" id="DejaVuSans-31" transform="scale(0.015625)"/>
       </defs>
       <use xlink:href="#DejaVuSans-31"/>
       <use x="63.623047" xlink:href="#DejaVuSans-30"/>
       <use x="127.246094" xlink:href="#DejaVuSans-30"/>
       <use x="190.869141" xlink:href="#DejaVuSans-30"/>
       <use x="254.492188" xlink:href="#DejaVuSans-30"/>
      </g>
     </g>
    </g>
    <g id="text_6">
     <!-- Graph size -->
     <g transform="translate(455.787969 1074.788281)scale(0.39 -0.39)">
      <defs>
       <path d="M 3809 666 
L 3809 1919 
L 2778 1919 
L 2778 2438 
L 4434 2438 
L 4434 434 
Q 4069 175 3628 42 
Q 3188 -91 2688 -91 
Q 1594 -91 976 548 
Q 359 1188 359 2328 
Q 359 3472 976 4111 
Q 1594 4750 2688 4750 
Q 3144 4750 3555 4637 
Q 3966 4525 4313 4306 
L 4313 3634 
Q 3963 3931 3569 4081 
Q 3175 4231 2741 4231 
Q 1884 4231 1454 3753 
Q 1025 3275 1025 2328 
Q 1025 1384 1454 906 
Q 1884 428 2741 428 
Q 3075 428 3337 486 
Q 3600 544 3809 666 
z
" id="DejaVuSans-47" transform="scale(0.015625)"/>
       <path d="M 2631 2963 
Q 2534 3019 2420 3045 
Q 2306 3072 2169 3072 
Q 1681 3072 1420 2755 
Q 1159 2438 1159 1844 
L 1159 0 
L 581 0 
L 581 3500 
L 1159 3500 
L 1159 2956 
Q 1341 3275 1631 3429 
Q 1922 3584 2338 3584 
Q 2397 3584 2469 3576 
Q 2541 3569 2628 3553 
L 2631 2963 
z
" id="DejaVuSans-72" transform="scale(0.015625)"/>
       <path d="M 2194 1759 
Q 1497 1759 1228 1600 
Q 959 1441 959 1056 
Q 959 750 1161 570 
Q 1363 391 1709 391 
Q 2188 391 2477 730 
Q 2766 1069 2766 1631 
L 2766 1759 
L 2194 1759 
z
M 3341 1997 
L 3341 0 
L 2766 0 
L 2766 531 
Q 2569 213 2275 61 
Q 1981 -91 1556 -91 
Q 1019 -91 701 211 
Q 384 513 384 1019 
Q 384 1609 779 1909 
Q 1175 2209 1959 2209 
L 2766 2209 
L 2766 2266 
Q 2766 2663 2505 2880 
Q 2244 3097 1772 3097 
Q 1472 3097 1187 3025 
Q 903 2953 641 2809 
L 641 3341 
Q 956 3463 1253 3523 
Q 1550 3584 1831 3584 
Q 2591 3584 2966 3190 
Q 3341 2797 3341 1997 
z
" id="DejaVuSans-61" transform="scale(0.015625)"/>
       <path d="M 1159 525 
L 1159 -1331 
L 581 -1331 
L 581 3500 
L 1159 3500 
L 1159 2969 
Q 1341 3281 1617 3432 
Q 1894 3584 2278 3584 
Q 2916 3584 3314 3078 
Q 3713 2572 3713 1747 
Q 3713 922 3314 415 
Q 2916 -91 2278 -91 
Q 1894 -91 1617 61 
Q 1341 213 1159 525 
z
M 3116 1747 
Q 3116 2381 2855 2742 
Q 2594 3103 2138 3103 
Q 1681 3103 1420 2742 
Q 1159 2381 1159 1747 
Q 1159 1113 1420 752 
Q 1681 391 2138 391 
Q 2594 391 2855 752 
Q 3116 1113 3116 1747 
z
" id="DejaVuSans-70" transform="scale(0.015625)"/>
       <path d="M 3513 2113 
L 3513 0 
L 2938 0 
L 2938 2094 
Q 2938 2591 2744 2837 
Q 2550 3084 2163 3084 
Q 1697 3084 1428 2787 
Q 1159 2491 1159 1978 
L 1159 0 
L 581 0 
L 581 4863 
L 1159 4863 
L 1159 2956 
Q 1366 3272 1645 3428 
Q 1925 3584 2291 3584 
Q 2894 3584 3203 3211 
Q 3513 2838 3513 2113 
z
" id="DejaVuSans-68" transform="scale(0.015625)"/>
       <path id="DejaVuSans-20" transform="scale(0.015625)"/>
       <path d="M 2834 3397 
L 2834 2853 
Q 2591 2978 2328 3040 
Q 2066 3103 1784 3103 
Q 1356 3103 1142 2972 
Q 928 2841 928 2578 
Q 928 2378 1081 2264 
Q 1234 2150 1697 2047 
L 1894 2003 
Q 2506 1872 2764 1633 
Q 3022 1394 3022 966 
Q 3022 478 2636 193 
Q 2250 -91 1575 -91 
Q 1294 -91 989 -36 
Q 684 19 347 128 
L 347 722 
Q 666 556 975 473 
Q 1284 391 1588 391 
Q 1994 391 2212 530 
Q 2431 669 2431 922 
Q 2431 1156 2273 1281 
Q 2116 1406 1581 1522 
L 1381 1569 
Q 847 1681 609 1914 
Q 372 2147 372 2553 
Q 372 3047 722 3315 
Q 1072 3584 1716 3584 
Q 2034 3584 2315 3537 
Q 2597 3491 2834 3397 
z
" id="DejaVuSans-73" transform="scale(0.015625)"/>
       <path d="M 603 3500 
L 1178 3500 
L 1178 0 
L 603 0 
L 603 3500 
z
M 603 4863 
L 1178 4863 
L 1178 4134 
L 603 4134 
L 603 4863 
z
" id="DejaVuSans-69" transform="scale(0.015625)"/>
       <path d="M 353 3500 
L 3084 3500 
L 3084 2975 
L 922 459 
L 3084 459 
L 3084 0 
L 275 0 
L 275 525 
L 2438 3041 
L 353 3041 
L 353 3500 
z
" id="DejaVuSans-7a" transform="scale(0.015625)"/>
       <path d="M 3597 1894 
L 3597 1613 
L 953 1613 
Q 991 1019 1311 708 
Q 1631 397 2203 397 
Q 2534 397 2845 478 
Q 3156 559 3463 722 
L 3463 178 
Q 3153 47 2828 -22 
Q 2503 -91 2169 -91 
Q 1331 -91 842 396 
Q 353 884 353 1716 
Q 353 2575 817 3079 
Q 1281 3584 2069 3584 
Q 2775 3584 3186 3129 
Q 3597 2675 3597 1894 
z
M 3022 2063 
Q 3016 2534 2758 2815 
Q 2500 3097 2075 3097 
Q 1594 3097 1305 2825 
Q 1016 2553 972 2059 
L 3022 2063 
z
" id="DejaVuSans-65" transform="scale(0.015625)"/>
      </defs>
      <use xlink:href="#DejaVuSans-47"/>
      <use x="77.490234" xlink:href="#DejaVuSans-72"/>
      <use x="118.603516" xlink:href="#DejaVuSans-61"/>
      <use x="179.882812" xlink:href="#DejaVuSans-70"/>
      <use x="243.359375" xlink:href="#DejaVuSans-68"/>
      <use x="306.738281" xlink:href="#DejaVuSans-20"/>
      <use x="338.525391" xlink:href="#DejaVuSans-73"/>
      <use x="390.625" xlink:href="#DejaVuSans-69"/>
      <use x="418.408203" xlink:href="#DejaVuSans-7a"/>
      <use x="470.898438" xlink:href="#DejaVuSans-65"/>
     </g>
    </g>
   </g>
   <g id="matplotlib.axis_2">
    <g id="ytick_1">
     <g id="line2d_11">
      <path clip-path="url(#p814142e3f1)" d="M 113.207188 973.045519 
L 1006.007187 973.045519 
" style="fill:none;stroke:#b0b0b0;stroke-linecap:square;stroke-width:0.8;"/>
     </g>
     <g id="line2d_12">
      <defs>
       <path d="M 0 0 
L -3.5 0 
" id="m0e63b0ef3c" style="stroke:#000000;stroke-width:0.8;"/>
      </defs>
      <g>
       <use style="stroke:#000000;stroke-width:0.8;" x="113.207188" xlink:href="#m0e63b0ef3c" y="973.045519"/>
      </g>
     </g>
     <g id="text_7">
      <!-- 0 -->
      <g transform="translate(87.119688 984.443175)scale(0.3 -0.3)">
       <use xlink:href="#DejaVuSans-30"/>
      </g>
     </g>
    </g>
    <g id="ytick_2">
     <g id="line2d_13">
      <path clip-path="url(#p814142e3f1)" d="M 113.207188 823.096097 
L 1006.007187 823.096097 
" style="fill:none;stroke:#b0b0b0;stroke-linecap:square;stroke-width:0.8;"/>
     </g>
     <g id="line2d_14">
      <g>
       <use style="stroke:#000000;stroke-width:0.8;" x="113.207188" xlink:href="#m0e63b0ef3c" y="823.096097"/>
      </g>
     </g>
     <g id="text_8">
      <!-- 100 -->
      <g transform="translate(48.944688 834.493753)scale(0.3 -0.3)">
       <use xlink:href="#DejaVuSans-31"/>
       <use x="63.623047" xlink:href="#DejaVuSans-30"/>
       <use x="127.246094" xlink:href="#DejaVuSans-30"/>
      </g>
     </g>
    </g>
    <g id="ytick_3">
     <g id="line2d_15">
      <path clip-path="url(#p814142e3f1)" d="M 113.207188 673.146675 
L 1006.007187 673.146675 
" style="fill:none;stroke:#b0b0b0;stroke-linecap:square;stroke-width:0.8;"/>
     </g>
     <g id="line2d_16">
      <g>
       <use style="stroke:#000000;stroke-width:0.8;" x="113.207188" xlink:href="#m0e63b0ef3c" y="673.146675"/>
      </g>
     </g>
     <g id="text_9">
      <!-- 200 -->
      <g transform="translate(48.944688 684.544331)scale(0.3 -0.3)">
       <use xlink:href="#DejaVuSans-32"/>
       <use x="63.623047" xlink:href="#DejaVuSans-30"/>
       <use x="127.246094" xlink:href="#DejaVuSans-30"/>
      </g>
     </g>
    </g>
    <g id="ytick_4">
     <g id="line2d_17">
      <path clip-path="url(#p814142e3f1)" d="M 113.207188 523.197253 
L 1006.007187 523.197253 
" style="fill:none;stroke:#b0b0b0;stroke-linecap:square;stroke-width:0.8;"/>
     </g>
     <g id="line2d_18">
      <g>
       <use style="stroke:#000000;stroke-width:0.8;" x="113.207188" xlink:href="#m0e63b0ef3c" y="523.197253"/>
      </g>
     </g>
     <g id="text_10">
      <!-- 300 -->
      <g transform="translate(48.944688 534.59491)scale(0.3 -0.3)">
       <defs>
        <path d="M 2597 2516 
Q 3050 2419 3304 2112 
Q 3559 1806 3559 1356 
Q 3559 666 3084 287 
Q 2609 -91 1734 -91 
Q 1441 -91 1130 -33 
Q 819 25 488 141 
L 488 750 
Q 750 597 1062 519 
Q 1375 441 1716 441 
Q 2309 441 2620 675 
Q 2931 909 2931 1356 
Q 2931 1769 2642 2001 
Q 2353 2234 1838 2234 
L 1294 2234 
L 1294 2753 
L 1863 2753 
Q 2328 2753 2575 2939 
Q 2822 3125 2822 3475 
Q 2822 3834 2567 4026 
Q 2313 4219 1838 4219 
Q 1578 4219 1281 4162 
Q 984 4106 628 3988 
L 628 4550 
Q 988 4650 1302 4700 
Q 1616 4750 1894 4750 
Q 2613 4750 3031 4423 
Q 3450 4097 3450 3541 
Q 3450 3153 3228 2886 
Q 3006 2619 2597 2516 
z
" id="DejaVuSans-33" transform="scale(0.015625)"/>
       </defs>
       <use xlink:href="#DejaVuSans-33"/>
       <use x="63.623047" xlink:href="#DejaVuSans-30"/>
       <use x="127.246094" xlink:href="#DejaVuSans-30"/>
      </g>
     </g>
    </g>
    <g id="ytick_5">
     <g id="line2d_19">
      <path clip-path="url(#p814142e3f1)" d="M 113.207188 373.247831 
L 1006.007187 373.247831 
" style="fill:none;stroke:#b0b0b0;stroke-linecap:square;stroke-width:0.8;"/>
     </g>
     <g id="line2d_20">
      <g>
       <use style="stroke:#000000;stroke-width:0.8;" x="113.207188" xlink:href="#m0e63b0ef3c" y="373.247831"/>
      </g>
     </g>
     <g id="text_11">
      <!-- 400 -->
      <g transform="translate(48.944688 384.645488)scale(0.3 -0.3)">
       <use xlink:href="#DejaVuSans-34"/>
       <use x="63.623047" xlink:href="#DejaVuSans-30"/>
       <use x="127.246094" xlink:href="#DejaVuSans-30"/>
      </g>
     </g>
    </g>
    <g id="ytick_6">
     <g id="line2d_21">
      <path clip-path="url(#p814142e3f1)" d="M 113.207188 223.29841 
L 1006.007187 223.29841 
" style="fill:none;stroke:#b0b0b0;stroke-linecap:square;stroke-width:0.8;"/>
     </g>
     <g id="line2d_22">
      <g>
       <use style="stroke:#000000;stroke-width:0.8;" x="113.207188" xlink:href="#m0e63b0ef3c" y="223.29841"/>
      </g>
     </g>
     <g id="text_12">
      <!-- 500 -->
      <g transform="translate(48.944688 234.696066)scale(0.3 -0.3)">
       <defs>
        <path d="M 691 4666 
L 3169 4666 
L 3169 4134 
L 1269 4134 
L 1269 2991 
Q 1406 3038 1543 3061 
Q 1681 3084 1819 3084 
Q 2600 3084 3056 2656 
Q 3513 2228 3513 1497 
Q 3513 744 3044 326 
Q 2575 -91 1722 -91 
Q 1428 -91 1123 -41 
Q 819 9 494 109 
L 494 744 
Q 775 591 1075 516 
Q 1375 441 1709 441 
Q 2250 441 2565 725 
Q 2881 1009 2881 1497 
Q 2881 1984 2565 2268 
Q 2250 2553 1709 2553 
Q 1456 2553 1204 2497 
Q 953 2441 691 2322 
L 691 4666 
z
" id="DejaVuSans-35" transform="scale(0.015625)"/>
       </defs>
       <use xlink:href="#DejaVuSans-35"/>
       <use x="63.623047" xlink:href="#DejaVuSans-30"/>
       <use x="127.246094" xlink:href="#DejaVuSans-30"/>
      </g>
     </g>
    </g>
    <g id="ytick_7">
     <g id="line2d_23">
      <path clip-path="url(#p814142e3f1)" d="M 113.207188 73.348988 
L 1006.007187 73.348988 
" style="fill:none;stroke:#b0b0b0;stroke-linecap:square;stroke-width:0.8;"/>
     </g>
     <g id="line2d_24">
      <g>
       <use style="stroke:#000000;stroke-width:0.8;" x="113.207188" xlink:href="#m0e63b0ef3c" y="73.348988"/>
      </g>
     </g>
     <g id="text_13">
      <!-- 600 -->
      <g transform="translate(48.944688 84.746644)scale(0.3 -0.3)">
       <use xlink:href="#DejaVuSans-36"/>
       <use x="63.623047" xlink:href="#DejaVuSans-30"/>
       <use x="127.246094" xlink:href="#DejaVuSans-30"/>
      </g>
     </g>
    </g>
    <g id="text_14">
     <!-- Avg. number of operations / size -->
     <g transform="translate(36.833906 822.523125)rotate(-90)scale(0.39 -0.39)">
      <defs>
       <path d="M 2188 4044 
L 1331 1722 
L 3047 1722 
L 2188 4044 
z
M 1831 4666 
L 2547 4666 
L 4325 0 
L 3669 0 
L 3244 1197 
L 1141 1197 
L 716 0 
L 50 0 
L 1831 4666 
z
" id="DejaVuSans-41" transform="scale(0.015625)"/>
       <path d="M 191 3500 
L 800 3500 
L 1894 563 
L 2988 3500 
L 3597 3500 
L 2284 0 
L 1503 0 
L 191 3500 
z
" id="DejaVuSans-76" transform="scale(0.015625)"/>
       <path d="M 2906 1791 
Q 2906 2416 2648 2759 
Q 2391 3103 1925 3103 
Q 1463 3103 1205 2759 
Q 947 2416 947 1791 
Q 947 1169 1205 825 
Q 1463 481 1925 481 
Q 2391 481 2648 825 
Q 2906 1169 2906 1791 
z
M 3481 434 
Q 3481 -459 3084 -895 
Q 2688 -1331 1869 -1331 
Q 1566 -1331 1297 -1286 
Q 1028 -1241 775 -1147 
L 775 -588 
Q 1028 -725 1275 -790 
Q 1522 -856 1778 -856 
Q 2344 -856 2625 -561 
Q 2906 -266 2906 331 
L 2906 616 
Q 2728 306 2450 153 
Q 2172 0 1784 0 
Q 1141 0 747 490 
Q 353 981 353 1791 
Q 353 2603 747 3093 
Q 1141 3584 1784 3584 
Q 2172 3584 2450 3431 
Q 2728 3278 2906 2969 
L 2906 3500 
L 3481 3500 
L 3481 434 
z
" id="DejaVuSans-67" transform="scale(0.015625)"/>
       <path d="M 684 794 
L 1344 794 
L 1344 0 
L 684 0 
L 684 794 
z
" id="DejaVuSans-2e" transform="scale(0.015625)"/>
       <path d="M 3513 2113 
L 3513 0 
L 2938 0 
L 2938 2094 
Q 2938 2591 2744 2837 
Q 2550 3084 2163 3084 
Q 1697 3084 1428 2787 
Q 1159 2491 1159 1978 
L 1159 0 
L 581 0 
L 581 3500 
L 1159 3500 
L 1159 2956 
Q 1366 3272 1645 3428 
Q 1925 3584 2291 3584 
Q 2894 3584 3203 3211 
Q 3513 2838 3513 2113 
z
" id="DejaVuSans-6e" transform="scale(0.015625)"/>
       <path d="M 544 1381 
L 544 3500 
L 1119 3500 
L 1119 1403 
Q 1119 906 1312 657 
Q 1506 409 1894 409 
Q 2359 409 2629 706 
Q 2900 1003 2900 1516 
L 2900 3500 
L 3475 3500 
L 3475 0 
L 2900 0 
L 2900 538 
Q 2691 219 2414 64 
Q 2138 -91 1772 -91 
Q 1169 -91 856 284 
Q 544 659 544 1381 
z
M 1991 3584 
L 1991 3584 
z
" id="DejaVuSans-75" transform="scale(0.015625)"/>
       <path d="M 3328 2828 
Q 3544 3216 3844 3400 
Q 4144 3584 4550 3584 
Q 5097 3584 5394 3201 
Q 5691 2819 5691 2113 
L 5691 0 
L 5113 0 
L 5113 2094 
Q 5113 2597 4934 2840 
Q 4756 3084 4391 3084 
Q 3944 3084 3684 2787 
Q 3425 2491 3425 1978 
L 3425 0 
L 2847 0 
L 2847 2094 
Q 2847 2600 2669 2842 
Q 2491 3084 2119 3084 
Q 1678 3084 1418 2786 
Q 1159 2488 1159 1978 
L 1159 0 
L 581 0 
L 581 3500 
L 1159 3500 
L 1159 2956 
Q 1356 3278 1631 3431 
Q 1906 3584 2284 3584 
Q 2666 3584 2933 3390 
Q 3200 3197 3328 2828 
z
" id="DejaVuSans-6d" transform="scale(0.015625)"/>
       <path d="M 3116 1747 
Q 3116 2381 2855 2742 
Q 2594 3103 2138 3103 
Q 1681 3103 1420 2742 
Q 1159 2381 1159 1747 
Q 1159 1113 1420 752 
Q 1681 391 2138 391 
Q 2594 391 2855 752 
Q 3116 1113 3116 1747 
z
M 1159 2969 
Q 1341 3281 1617 3432 
Q 1894 3584 2278 3584 
Q 2916 3584 3314 3078 
Q 3713 2572 3713 1747 
Q 3713 922 3314 415 
Q 2916 -91 2278 -91 
Q 1894 -91 1617 61 
Q 1341 213 1159 525 
L 1159 0 
L 581 0 
L 581 4863 
L 1159 4863 
L 1159 2969 
z
" id="DejaVuSans-62" transform="scale(0.015625)"/>
       <path d="M 1959 3097 
Q 1497 3097 1228 2736 
Q 959 2375 959 1747 
Q 959 1119 1226 758 
Q 1494 397 1959 397 
Q 2419 397 2687 759 
Q 2956 1122 2956 1747 
Q 2956 2369 2687 2733 
Q 2419 3097 1959 3097 
z
M 1959 3584 
Q 2709 3584 3137 3096 
Q 3566 2609 3566 1747 
Q 3566 888 3137 398 
Q 2709 -91 1959 -91 
Q 1206 -91 779 398 
Q 353 888 353 1747 
Q 353 2609 779 3096 
Q 1206 3584 1959 3584 
z
" id="DejaVuSans-6f" transform="scale(0.015625)"/>
       <path d="M 2375 4863 
L 2375 4384 
L 1825 4384 
Q 1516 4384 1395 4259 
Q 1275 4134 1275 3809 
L 1275 3500 
L 2222 3500 
L 2222 3053 
L 1275 3053 
L 1275 0 
L 697 0 
L 697 3053 
L 147 3053 
L 147 3500 
L 697 3500 
L 697 3744 
Q 697 4328 969 4595 
Q 1241 4863 1831 4863 
L 2375 4863 
z
" id="DejaVuSans-66" transform="scale(0.015625)"/>
       <path d="M 1172 4494 
L 1172 3500 
L 2356 3500 
L 2356 3053 
L 1172 3053 
L 1172 1153 
Q 1172 725 1289 603 
Q 1406 481 1766 481 
L 2356 481 
L 2356 0 
L 1766 0 
Q 1100 0 847 248 
Q 594 497 594 1153 
L 594 3053 
L 172 3053 
L 172 3500 
L 594 3500 
L 594 4494 
L 1172 4494 
z
" id="DejaVuSans-74" transform="scale(0.015625)"/>
       <path d="M 1625 4666 
L 2156 4666 
L 531 -594 
L 0 -594 
L 1625 4666 
z
" id="DejaVuSans-2f" transform="scale(0.015625)"/>
      </defs>
      <use xlink:href="#DejaVuSans-41"/>
      <use x="62.533203" xlink:href="#DejaVuSans-76"/>
      <use x="121.712891" xlink:href="#DejaVuSans-67"/>
      <use x="185.189453" xlink:href="#DejaVuSans-2e"/>
      <use x="216.976562" xlink:href="#DejaVuSans-20"/>
      <use x="248.763672" xlink:href="#DejaVuSans-6e"/>
      <use x="312.142578" xlink:href="#DejaVuSans-75"/>
      <use x="375.521484" xlink:href="#DejaVuSans-6d"/>
      <use x="472.933594" xlink:href="#DejaVuSans-62"/>
      <use x="536.410156" xlink:href="#DejaVuSans-65"/>
      <use x="597.933594" xlink:href="#DejaVuSans-72"/>
      <use x="639.046875" xlink:href="#DejaVuSans-20"/>
      <use x="670.833984" xlink:href="#DejaVuSans-6f"/>
      <use x="732.015625" xlink:href="#DejaVuSans-66"/>
      <use x="767.220703" xlink:href="#DejaVuSans-20"/>
      <use x="799.007812" xlink:href="#DejaVuSans-6f"/>
      <use x="860.189453" xlink:href="#DejaVuSans-70"/>
      <use x="923.666016" xlink:href="#DejaVuSans-65"/>
      <use x="985.189453" xlink:href="#DejaVuSans-72"/>
      <use x="1026.302734" xlink:href="#DejaVuSans-61"/>
      <use x="1087.582031" xlink:href="#DejaVuSans-74"/>
      <use x="1126.791016" xlink:href="#DejaVuSans-69"/>
      <use x="1154.574219" xlink:href="#DejaVuSans-6f"/>
      <use x="1215.755859" xlink:href="#DejaVuSans-6e"/>
      <use x="1279.134766" xlink:href="#DejaVuSans-73"/>
      <use x="1331.234375" xlink:href="#DejaVuSans-20"/>
      <use x="1363.021484" xlink:href="#DejaVuSans-2f"/>
      <use x="1396.712891" xlink:href="#DejaVuSans-20"/>
      <use x="1428.5" xlink:href="#DejaVuSans-73"/>
      <use x="1480.599609" xlink:href="#DejaVuSans-69"/>
      <use x="1508.382812" xlink:href="#DejaVuSans-7a"/>
      <use x="1560.873047" xlink:href="#DejaVuSans-65"/>
     </g>
    </g>
   </g>
   <g id="line2d_25">
    <path clip-path="url(#p814142e3f1)" d="M 153.789006 956.164513 
L 196.506709 935.681722 
L 239.224412 913.553086 
L 281.942116 891.189329 
L 324.659819 867.605284 
L 367.377522 843.541701 
L 410.095226 820.694807 
L 452.812929 794.857322 
L 495.530632 769.676915 
L 538.248336 745.97531 
L 580.966039 717.488818 
L 623.683743 691.66273 
L 666.401446 664.847275 
L 709.119149 640.304753 
L 751.836853 616.256764 
L 794.554556 590.589322 
L 837.272259 560.513666 
L 879.989963 535.781309 
L 922.707666 507.120276 
L 965.425369 478.941181 
" style="fill:none;stroke:#fe0002;stroke-linecap:square;stroke-width:1.5;"/>
    <defs>
     <path d="M 0 4.5 
C 1.193414 4.5 2.338109 4.025852 3.181981 3.181981 
C 4.025852 2.338109 4.5 1.193414 4.5 0 
C 4.5 -1.193414 4.025852 -2.338109 3.181981 -3.181981 
C 2.338109 -4.025852 1.193414 -4.5 0 -4.5 
C -1.193414 -4.5 -2.338109 -4.025852 -3.181981 -3.181981 
C -4.025852 -2.338109 -4.5 -1.193414 -4.5 0 
C -4.5 1.193414 -4.025852 2.338109 -3.181981 3.181981 
C -2.338109 4.025852 -1.193414 4.5 0 4.5 
z
" id="m84ecec5060" style="stroke:#000000;"/>
    </defs>
    <g clip-path="url(#p814142e3f1)">
     <use style="fill:#fe0002;stroke:#000000;" x="153.789006" xlink:href="#m84ecec5060" y="956.164513"/>
     <use style="fill:#fe0002;stroke:#000000;" x="196.506709" xlink:href="#m84ecec5060" y="935.681722"/>
     <use style="fill:#fe0002;stroke:#000000;" x="239.224412" xlink:href="#m84ecec5060" y="913.553086"/>
     <use style="fill:#fe0002;stroke:#000000;" x="281.942116" xlink:href="#m84ecec5060" y="891.189329"/>
     <use style="fill:#fe0002;stroke:#000000;" x="324.659819" xlink:href="#m84ecec5060" y="867.605284"/>
     <use style="fill:#fe0002;stroke:#000000;" x="367.377522" xlink:href="#m84ecec5060" y="843.541701"/>
     <use style="fill:#fe0002;stroke:#000000;" x="410.095226" xlink:href="#m84ecec5060" y="820.694807"/>
     <use style="fill:#fe0002;stroke:#000000;" x="452.812929" xlink:href="#m84ecec5060" y="794.857322"/>
     <use style="fill:#fe0002;stroke:#000000;" x="495.530632" xlink:href="#m84ecec5060" y="769.676915"/>
     <use style="fill:#fe0002;stroke:#000000;" x="538.248336" xlink:href="#m84ecec5060" y="745.97531"/>
     <use style="fill:#fe0002;stroke:#000000;" x="580.966039" xlink:href="#m84ecec5060" y="717.488818"/>
     <use style="fill:#fe0002;stroke:#000000;" x="623.683743" xlink:href="#m84ecec5060" y="691.66273"/>
     <use style="fill:#fe0002;stroke:#000000;" x="666.401446" xlink:href="#m84ecec5060" y="664.847275"/>
     <use style="fill:#fe0002;stroke:#000000;" x="709.119149" xlink:href="#m84ecec5060" y="640.304753"/>
     <use style="fill:#fe0002;stroke:#000000;" x="751.836853" xlink:href="#m84ecec5060" y="616.256764"/>
     <use style="fill:#fe0002;stroke:#000000;" x="794.554556" xlink:href="#m84ecec5060" y="590.589322"/>
     <use style="fill:#fe0002;stroke:#000000;" x="837.272259" xlink:href="#m84ecec5060" y="560.513666"/>
     <use style="fill:#fe0002;stroke:#000000;" x="879.989963" xlink:href="#m84ecec5060" y="535.781309"/>
     <use style="fill:#fe0002;stroke:#000000;" x="922.707666" xlink:href="#m84ecec5060" y="507.120276"/>
     <use style="fill:#fe0002;stroke:#000000;" x="965.425369" xlink:href="#m84ecec5060" y="478.941181"/>
    </g>
   </g>
   <g id="line2d_26">
    <path clip-path="url(#p814142e3f1)" d="M 153.789006 956.164513 
L 196.506709 935.681722 
L 239.224412 913.553086 
L 281.942116 891.189329 
L 324.659819 867.605284 
L 367.377522 843.541701 
L 410.095226 820.694807 
L 452.812929 794.857322 
L 495.530632 769.676915 
L 538.248336 745.97531 
L 580.966039 717.488818 
L 623.683743 691.66273 
L 666.401446 664.847275 
L 709.119149 640.304753 
L 751.836853 616.256764 
L 794.554556 590.589322 
L 837.272259 560.513666 
L 879.989963 535.781309 
L 922.707666 507.120276 
L 965.425369 478.941181 
" style="fill:none;stroke:#fe0002;stroke-dasharray:5.55,2.4;stroke-dashoffset:0;stroke-width:1.5;"/>
    <g clip-path="url(#p814142e3f1)">
     <use style="fill:#fe0002;stroke:#000000;" x="153.789006" xlink:href="#m84ecec5060" y="956.164513"/>
     <use style="fill:#fe0002;stroke:#000000;" x="196.506709" xlink:href="#m84ecec5060" y="935.681722"/>
     <use style="fill:#fe0002;stroke:#000000;" x="239.224412" xlink:href="#m84ecec5060" y="913.553086"/>
     <use style="fill:#fe0002;stroke:#000000;" x="281.942116" xlink:href="#m84ecec5060" y="891.189329"/>
     <use style="fill:#fe0002;stroke:#000000;" x="324.659819" xlink:href="#m84ecec5060" y="867.605284"/>
     <use style="fill:#fe0002;stroke:#000000;" x="367.377522" xlink:href="#m84ecec5060" y="843.541701"/>
     <use style="fill:#fe0002;stroke:#000000;" x="410.095226" xlink:href="#m84ecec5060" y="820.694807"/>
     <use style="fill:#fe0002;stroke:#000000;" x="452.812929" xlink:href="#m84ecec5060" y="794.857322"/>
     <use style="fill:#fe0002;stroke:#000000;" x="495.530632" xlink:href="#m84ecec5060" y="769.676915"/>
     <use style="fill:#fe0002;stroke:#000000;" x="538.248336" xlink:href="#m84ecec5060" y="745.97531"/>
     <use style="fill:#fe0002;stroke:#000000;" x="580.966039" xlink:href="#m84ecec5060" y="717.488818"/>
     <use style="fill:#fe0002;stroke:#000000;" x="623.683743" xlink:href="#m84ecec5060" y="691.66273"/>
     <use style="fill:#fe0002;stroke:#000000;" x="666.401446" xlink:href="#m84ecec5060" y="664.847275"/>
     <use style="fill:#fe0002;stroke:#000000;" x="709.119149" xlink:href="#m84ecec5060" y="640.304753"/>
     <use style="fill:#fe0002;stroke:#000000;" x="751.836853" xlink:href="#m84ecec5060" y="616.256764"/>
     <use style="fill:#fe0002;stroke:#000000;" x="794.554556" xlink:href="#m84ecec5060" y="590.589322"/>
     <use style="fill:#fe0002;stroke:#000000;" x="837.272259" xlink:href="#m84ecec5060" y="560.513666"/>
     <use style="fill:#fe0002;stroke:#000000;" x="879.989963" xlink:href="#m84ecec5060" y="535.781309"/>
     <use style="fill:#fe0002;stroke:#000000;" x="922.707666" xlink:href="#m84ecec5060" y="507.120276"/>
     <use style="fill:#fe0002;stroke:#000000;" x="965.425369" xlink:href="#m84ecec5060" y="478.941181"/>
    </g>
   </g>
   <g id="line2d_27">
    <path clip-path="url(#p814142e3f1)" d="M 153.789006 951.335242 
L 196.506709 924.615454 
L 239.224412 895.931629 
L 281.942116 865.264873 
L 324.659819 834.022611 
L 367.377522 802.358992 
L 410.095226 767.428874 
L 452.812929 735.558623 
L 495.530632 700.749964 
L 538.248336 665.77876 
L 580.966039 633.609511 
L 623.683743 597.054241 
L 666.401446 564.215318 
L 709.119149 523.940103 
L 751.836853 488.680696 
L 794.554556 448.857128 
L 837.272259 418.006834 
L 879.989963 379.023283 
L 922.707666 344.721154 
L 965.425369 308.221365 
" style="fill:none;stroke:#53fca1;stroke-linecap:square;stroke-width:1.5;"/>
    <defs>
     <path d="M 0 -4.5 
L -4.5 4.5 
L 4.5 4.5 
z
" id="mfdd95e0dcd" style="stroke:#000000;stroke-linejoin:miter;"/>
    </defs>
    <g clip-path="url(#p814142e3f1)">
     <use style="fill:#53fca1;stroke:#000000;stroke-linejoin:miter;" x="153.789006" xlink:href="#mfdd95e0dcd" y="951.335242"/>
     <use style="fill:#53fca1;stroke:#000000;stroke-linejoin:miter;" x="196.506709" xlink:href="#mfdd95e0dcd" y="924.615454"/>
     <use style="fill:#53fca1;stroke:#000000;stroke-linejoin:miter;" x="239.224412" xlink:href="#mfdd95e0dcd" y="895.931629"/>
     <use style="fill:#53fca1;stroke:#000000;stroke-linejoin:miter;" x="281.942116" xlink:href="#mfdd95e0dcd" y="865.264873"/>
     <use style="fill:#53fca1;stroke:#000000;stroke-linejoin:miter;" x="324.659819" xlink:href="#mfdd95e0dcd" y="834.022611"/>
     <use style="fill:#53fca1;stroke:#000000;stroke-linejoin:miter;" x="367.377522" xlink:href="#mfdd95e0dcd" y="802.358992"/>
     <use style="fill:#53fca1;stroke:#000000;stroke-linejoin:miter;" x="410.095226" xlink:href="#mfdd95e0dcd" y="767.428874"/>
     <use style="fill:#53fca1;stroke:#000000;stroke-linejoin:miter;" x="452.812929" xlink:href="#mfdd95e0dcd" y="735.558623"/>
     <use style="fill:#53fca1;stroke:#000000;stroke-linejoin:miter;" x="495.530632" xlink:href="#mfdd95e0dcd" y="700.749964"/>
     <use style="fill:#53fca1;stroke:#000000;stroke-linejoin:miter;" x="538.248336" xlink:href="#mfdd95e0dcd" y="665.77876"/>
     <use style="fill:#53fca1;stroke:#000000;stroke-linejoin:miter;" x="580.966039" xlink:href="#mfdd95e0dcd" y="633.609511"/>
     <use style="fill:#53fca1;stroke:#000000;stroke-linejoin:miter;" x="623.683743" xlink:href="#mfdd95e0dcd" y="597.054241"/>
     <use style="fill:#53fca1;stroke:#000000;stroke-linejoin:miter;" x="666.401446" xlink:href="#mfdd95e0dcd" y="564.215318"/>
     <use style="fill:#53fca1;stroke:#000000;stroke-linejoin:miter;" x="709.119149" xlink:href="#mfdd95e0dcd" y="523.940103"/>
     <use style="fill:#53fca1;stroke:#000000;stroke-linejoin:miter;" x="751.836853" xlink:href="#mfdd95e0dcd" y="488.680696"/>
     <use style="fill:#53fca1;stroke:#000000;stroke-linejoin:miter;" x="794.554556" xlink:href="#mfdd95e0dcd" y="448.857128"/>
     <use style="fill:#53fca1;stroke:#000000;stroke-linejoin:miter;" x="837.272259" xlink:href="#mfdd95e0dcd" y="418.006834"/>
     <use style="fill:#53fca1;stroke:#000000;stroke-linejoin:miter;" x="879.989963" xlink:href="#mfdd95e0dcd" y="379.023283"/>
     <use style="fill:#53fca1;stroke:#000000;stroke-linejoin:miter;" x="922.707666" xlink:href="#mfdd95e0dcd" y="344.721154"/>
     <use style="fill:#53fca1;stroke:#000000;stroke-linejoin:miter;" x="965.425369" xlink:href="#mfdd95e0dcd" y="308.221365"/>
    </g>
   </g>
   <g id="line2d_28">
    <path clip-path="url(#p814142e3f1)" d="M 153.789006 959.25467 
L 196.506709 942.710751 
L 239.224412 924.976832 
L 281.942116 906.569341 
L 324.659819 887.521566 
L 367.377522 868.169694 
L 410.095226 848.277103 
L 452.812929 828.409405 
L 495.530632 807.790759 
L 538.248336 787.376345 
L 580.966039 766.829076 
L 623.683743 745.714998 
L 666.401446 724.939505 
L 709.119149 703.285309 
L 751.836853 682.282494 
L 794.554556 660.489744 
L 837.272259 638.938414 
L 879.989963 617.383184 
L 922.707666 595.683104 
L 965.425369 573.527477 
" style="fill:none;stroke:#53fca1;stroke-dasharray:5.55,2.4;stroke-dashoffset:0;stroke-width:1.5;"/>
    <defs>
     <path d="M 0 6.363961 
L 6.363961 0 
L 0 -6.363961 
L -6.363961 0 
z
" id="m938005ce00" style="stroke:#000000;stroke-linejoin:miter;"/>
    </defs>
    <g clip-path="url(#p814142e3f1)">
     <use style="fill:#53fca1;stroke:#000000;stroke-linejoin:miter;" x="153.789006" xlink:href="#m938005ce00" y="959.25467"/>
     <use style="fill:#53fca1;stroke:#000000;stroke-linejoin:miter;" x="196.506709" xlink:href="#m938005ce00" y="942.710751"/>
     <use style="fill:#53fca1;stroke:#000000;stroke-linejoin:miter;" x="239.224412" xlink:href="#m938005ce00" y="924.976832"/>
     <use style="fill:#53fca1;stroke:#000000;stroke-linejoin:miter;" x="281.942116" xlink:href="#m938005ce00" y="906.569341"/>
     <use style="fill:#53fca1;stroke:#000000;stroke-linejoin:miter;" x="324.659819" xlink:href="#m938005ce00" y="887.521566"/>
     <use style="fill:#53fca1;stroke:#000000;stroke-linejoin:miter;" x="367.377522" xlink:href="#m938005ce00" y="868.169694"/>
     <use style="fill:#53fca1;stroke:#000000;stroke-linejoin:miter;" x="410.095226" xlink:href="#m938005ce00" y="848.277103"/>
     <use style="fill:#53fca1;stroke:#000000;stroke-linejoin:miter;" x="452.812929" xlink:href="#m938005ce00" y="828.409405"/>
     <use style="fill:#53fca1;stroke:#000000;stroke-linejoin:miter;" x="495.530632" xlink:href="#m938005ce00" y="807.790759"/>
     <use style="fill:#53fca1;stroke:#000000;stroke-linejoin:miter;" x="538.248336" xlink:href="#m938005ce00" y="787.376345"/>
     <use style="fill:#53fca1;stroke:#000000;stroke-linejoin:miter;" x="580.966039" xlink:href="#m938005ce00" y="766.829076"/>
     <use style="fill:#53fca1;stroke:#000000;stroke-linejoin:miter;" x="623.683743" xlink:href="#m938005ce00" y="745.714998"/>
     <use style="fill:#53fca1;stroke:#000000;stroke-linejoin:miter;" x="666.401446" xlink:href="#m938005ce00" y="724.939505"/>
     <use style="fill:#53fca1;stroke:#000000;stroke-linejoin:miter;" x="709.119149" xlink:href="#m938005ce00" y="703.285309"/>
     <use style="fill:#53fca1;stroke:#000000;stroke-linejoin:miter;" x="751.836853" xlink:href="#m938005ce00" y="682.282494"/>
     <use style="fill:#53fca1;stroke:#000000;stroke-linejoin:miter;" x="794.554556" xlink:href="#m938005ce00" y="660.489744"/>
     <use style="fill:#53fca1;stroke:#000000;stroke-linejoin:miter;" x="837.272259" xlink:href="#m938005ce00" y="638.938414"/>
     <use style="fill:#53fca1;stroke:#000000;stroke-linejoin:miter;" x="879.989963" xlink:href="#m938005ce00" y="617.383184"/>
     <use style="fill:#53fca1;stroke:#000000;stroke-linejoin:miter;" x="922.707666" xlink:href="#m938005ce00" y="595.683104"/>
     <use style="fill:#53fca1;stroke:#000000;stroke-linejoin:miter;" x="965.425369" xlink:href="#m938005ce00" y="573.527477"/>
    </g>
   </g>
   <g id="line2d_29">
    <path clip-path="url(#p814142e3f1)" d="M 153.789006 950.519517 
L 196.506709 922.355417 
L 239.224412 892.109119 
L 281.942116 859.16763 
L 324.659819 825.949634 
L 367.377522 791.847837 
L 410.095226 754.490638 
L 452.812929 719.511336 
L 495.530632 682.532909 
L 538.248336 643.890043 
L 580.966039 608.447398 
L 623.683743 569.572111 
L 666.401446 532.302482 
L 709.119149 489.275395 
L 751.836853 450.03723 
L 794.554556 407.337333 
L 837.272259 371.763632 
L 879.989963 328.860703 
L 922.707666 290.89201 
L 965.425369 250.081176 
" style="fill:none;stroke:#0652ff;stroke-linecap:square;stroke-width:1.5;"/>
    <defs>
     <path d="M 0 -4.5 
L -4.279754 -1.390576 
L -2.645034 3.640576 
L 2.645034 3.640576 
L 4.279754 -1.390576 
z
" id="m8c6fc7da02" style="stroke:#000000;stroke-linejoin:miter;"/>
    </defs>
    <g clip-path="url(#p814142e3f1)">
     <use style="fill:#0652ff;stroke:#000000;stroke-linejoin:miter;" x="153.789006" xlink:href="#m8c6fc7da02" y="950.519517"/>
     <use style="fill:#0652ff;stroke:#000000;stroke-linejoin:miter;" x="196.506709" xlink:href="#m8c6fc7da02" y="922.355417"/>
     <use style="fill:#0652ff;stroke:#000000;stroke-linejoin:miter;" x="239.224412" xlink:href="#m8c6fc7da02" y="892.109119"/>
     <use style="fill:#0652ff;stroke:#000000;stroke-linejoin:miter;" x="281.942116" xlink:href="#m8c6fc7da02" y="859.16763"/>
     <use style="fill:#0652ff;stroke:#000000;stroke-linejoin:miter;" x="324.659819" xlink:href="#m8c6fc7da02" y="825.949634"/>
     <use style="fill:#0652ff;stroke:#000000;stroke-linejoin:miter;" x="367.377522" xlink:href="#m8c6fc7da02" y="791.847837"/>
     <use style="fill:#0652ff;stroke:#000000;stroke-linejoin:miter;" x="410.095226" xlink:href="#m8c6fc7da02" y="754.490638"/>
     <use style="fill:#0652ff;stroke:#000000;stroke-linejoin:miter;" x="452.812929" xlink:href="#m8c6fc7da02" y="719.511336"/>
     <use style="fill:#0652ff;stroke:#000000;stroke-linejoin:miter;" x="495.530632" xlink:href="#m8c6fc7da02" y="682.532909"/>
     <use style="fill:#0652ff;stroke:#000000;stroke-linejoin:miter;" x="538.248336" xlink:href="#m8c6fc7da02" y="643.890043"/>
     <use style="fill:#0652ff;stroke:#000000;stroke-linejoin:miter;" x="580.966039" xlink:href="#m8c6fc7da02" y="608.447398"/>
     <use style="fill:#0652ff;stroke:#000000;stroke-linejoin:miter;" x="623.683743" xlink:href="#m8c6fc7da02" y="569.572111"/>
     <use style="fill:#0652ff;stroke:#000000;stroke-linejoin:miter;" x="666.401446" xlink:href="#m8c6fc7da02" y="532.302482"/>
     <use style="fill:#0652ff;stroke:#000000;stroke-linejoin:miter;" x="709.119149" xlink:href="#m8c6fc7da02" y="489.275395"/>
     <use style="fill:#0652ff;stroke:#000000;stroke-linejoin:miter;" x="751.836853" xlink:href="#m8c6fc7da02" y="450.03723"/>
     <use style="fill:#0652ff;stroke:#000000;stroke-linejoin:miter;" x="794.554556" xlink:href="#m8c6fc7da02" y="407.337333"/>
     <use style="fill:#0652ff;stroke:#000000;stroke-linejoin:miter;" x="837.272259" xlink:href="#m8c6fc7da02" y="371.763632"/>
     <use style="fill:#0652ff;stroke:#000000;stroke-linejoin:miter;" x="879.989963" xlink:href="#m8c6fc7da02" y="328.860703"/>
     <use style="fill:#0652ff;stroke:#000000;stroke-linejoin:miter;" x="922.707666" xlink:href="#m8c6fc7da02" y="290.89201"/>
     <use style="fill:#0652ff;stroke:#000000;stroke-linejoin:miter;" x="965.425369" xlink:href="#m8c6fc7da02" y="250.081176"/>
    </g>
   </g>
   <g id="line2d_30">
    <path clip-path="url(#p814142e3f1)" d="M 153.789006 958.065871 
L 196.506709 939.528224 
L 239.224412 919.573855 
L 281.942116 898.53895 
L 324.659819 876.874557 
L 367.377522 854.722829 
L 410.095226 831.764973 
L 452.812929 808.614282 
L 495.530632 785.091416 
L 538.248336 760.872185 
L 580.966039 736.939658 
L 623.683743 712.565379 
L 666.401446 687.651283 
L 709.119149 662.671508 
L 751.836853 637.641651 
L 794.554556 612.26811 
L 837.272259 586.437822 
L 879.989963 560.912532 
L 922.707666 535.353353 
L 965.425369 508.885781 
" style="fill:none;stroke:#0652ff;stroke-dasharray:5.55,2.4;stroke-dashoffset:0;stroke-width:1.5;"/>
    <defs>
     <path d="M -2.25 4.5 
L 0 2.25 
L 2.25 4.5 
L 4.5 2.25 
L 2.25 0 
L 4.5 -2.25 
L 2.25 -4.5 
L 0 -2.25 
L -2.25 -4.5 
L -4.5 -2.25 
L -2.25 0 
L -4.5 2.25 
z
" id="m5bca158792" style="stroke:#000000;stroke-linejoin:miter;"/>
    </defs>
    <g clip-path="url(#p814142e3f1)">
     <use style="fill:#0652ff;stroke:#000000;stroke-linejoin:miter;" x="153.789006" xlink:href="#m5bca158792" y="958.065871"/>
     <use style="fill:#0652ff;stroke:#000000;stroke-linejoin:miter;" x="196.506709" xlink:href="#m5bca158792" y="939.528224"/>
     <use style="fill:#0652ff;stroke:#000000;stroke-linejoin:miter;" x="239.224412" xlink:href="#m5bca158792" y="919.573855"/>
     <use style="fill:#0652ff;stroke:#000000;stroke-linejoin:miter;" x="281.942116" xlink:href="#m5bca158792" y="898.53895"/>
     <use style="fill:#0652ff;stroke:#000000;stroke-linejoin:miter;" x="324.659819" xlink:href="#m5bca158792" y="876.874557"/>
     <use style="fill:#0652ff;stroke:#000000;stroke-linejoin:miter;" x="367.377522" xlink:href="#m5bca158792" y="854.722829"/>
     <use style="fill:#0652ff;stroke:#000000;stroke-linejoin:miter;" x="410.095226" xlink:href="#m5bca158792" y="831.764973"/>
     <use style="fill:#0652ff;stroke:#000000;stroke-linejoin:miter;" x="452.812929" xlink:href="#m5bca158792" y="808.614282"/>
     <use style="fill:#0652ff;stroke:#000000;stroke-linejoin:miter;" x="495.530632" xlink:href="#m5bca158792" y="785.091416"/>
     <use style="fill:#0652ff;stroke:#000000;stroke-linejoin:miter;" x="538.248336" xlink:href="#m5bca158792" y="760.872185"/>
     <use style="fill:#0652ff;stroke:#000000;stroke-linejoin:miter;" x="580.966039" xlink:href="#m5bca158792" y="736.939658"/>
     <use style="fill:#0652ff;stroke:#000000;stroke-linejoin:miter;" x="623.683743" xlink:href="#m5bca158792" y="712.565379"/>
     <use style="fill:#0652ff;stroke:#000000;stroke-linejoin:miter;" x="666.401446" xlink:href="#m5bca158792" y="687.651283"/>
     <use style="fill:#0652ff;stroke:#000000;stroke-linejoin:miter;" x="709.119149" xlink:href="#m5bca158792" y="662.671508"/>
     <use style="fill:#0652ff;stroke:#000000;stroke-linejoin:miter;" x="751.836853" xlink:href="#m5bca158792" y="637.641651"/>
     <use style="fill:#0652ff;stroke:#000000;stroke-linejoin:miter;" x="794.554556" xlink:href="#m5bca158792" y="612.26811"/>
     <use style="fill:#0652ff;stroke:#000000;stroke-linejoin:miter;" x="837.272259" xlink:href="#m5bca158792" y="586.437822"/>
     <use style="fill:#0652ff;stroke:#000000;stroke-linejoin:miter;" x="879.989963" xlink:href="#m5bca158792" y="560.912532"/>
     <use style="fill:#0652ff;stroke:#000000;stroke-linejoin:miter;" x="922.707666" xlink:href="#m5bca158792" y="535.353353"/>
     <use style="fill:#0652ff;stroke:#000000;stroke-linejoin:miter;" x="965.425369" xlink:href="#m5bca158792" y="508.885781"/>
    </g>
   </g>
   <g id="line2d_31">
    <path clip-path="url(#p814142e3f1)" d="M 153.789006 946.238161 
L 196.506709 911.232169 
L 239.224412 872.890401 
L 281.942116 832.21812 
L 324.659819 789.581501 
L 367.377522 746.738552 
L 410.095226 701.014775 
L 452.812929 655.01809 
L 495.530632 608.226373 
L 538.248336 561.027393 
L 580.966039 512.699594 
L 623.683743 463.88356 
L 666.401446 414.007983 
L 709.119149 364.126408 
L 751.836853 313.531374 
L 794.554556 262.448404 
L 837.272259 212.227344 
L 879.989963 159.729152 
L 922.707666 107.720394 
L 965.425369 55.55539 
" style="fill:none;stroke:#ae7181;stroke-linecap:square;stroke-width:1.5;"/>
    <defs>
     <path d="M -4.5 4.5 
L 4.5 4.5 
L 4.5 -4.5 
L -4.5 -4.5 
z
" id="m5658ec67cb" style="stroke:#000000;stroke-linejoin:miter;"/>
    </defs>
    <g clip-path="url(#p814142e3f1)">
     <use style="fill:#ae7181;stroke:#000000;stroke-linejoin:miter;" x="153.789006" xlink:href="#m5658ec67cb" y="946.238161"/>
     <use style="fill:#ae7181;stroke:#000000;stroke-linejoin:miter;" x="196.506709" xlink:href="#m5658ec67cb" y="911.232169"/>
     <use style="fill:#ae7181;stroke:#000000;stroke-linejoin:miter;" x="239.224412" xlink:href="#m5658ec67cb" y="872.890401"/>
     <use style="fill:#ae7181;stroke:#000000;stroke-linejoin:miter;" x="281.942116" xlink:href="#m5658ec67cb" y="832.21812"/>
     <use style="fill:#ae7181;stroke:#000000;stroke-linejoin:miter;" x="324.659819" xlink:href="#m5658ec67cb" y="789.581501"/>
     <use style="fill:#ae7181;stroke:#000000;stroke-linejoin:miter;" x="367.377522" xlink:href="#m5658ec67cb" y="746.738552"/>
     <use style="fill:#ae7181;stroke:#000000;stroke-linejoin:miter;" x="410.095226" xlink:href="#m5658ec67cb" y="701.014775"/>
     <use style="fill:#ae7181;stroke:#000000;stroke-linejoin:miter;" x="452.812929" xlink:href="#m5658ec67cb" y="655.01809"/>
     <use style="fill:#ae7181;stroke:#000000;stroke-linejoin:miter;" x="495.530632" xlink:href="#m5658ec67cb" y="608.226373"/>
     <use style="fill:#ae7181;stroke:#000000;stroke-linejoin:miter;" x="538.248336" xlink:href="#m5658ec67cb" y="561.027393"/>
     <use style="fill:#ae7181;stroke:#000000;stroke-linejoin:miter;" x="580.966039" xlink:href="#m5658ec67cb" y="512.699594"/>
     <use style="fill:#ae7181;stroke:#000000;stroke-linejoin:miter;" x="623.683743" xlink:href="#m5658ec67cb" y="463.88356"/>
     <use style="fill:#ae7181;stroke:#000000;stroke-linejoin:miter;" x="666.401446" xlink:href="#m5658ec67cb" y="414.007983"/>
     <use style="fill:#ae7181;stroke:#000000;stroke-linejoin:miter;" x="709.119149" xlink:href="#m5658ec67cb" y="364.126408"/>
     <use style="fill:#ae7181;stroke:#000000;stroke-linejoin:miter;" x="751.836853" xlink:href="#m5658ec67cb" y="313.531374"/>
     <use style="fill:#ae7181;stroke:#000000;stroke-linejoin:miter;" x="794.554556" xlink:href="#m5658ec67cb" y="262.448404"/>
     <use style="fill:#ae7181;stroke:#000000;stroke-linejoin:miter;" x="837.272259" xlink:href="#m5658ec67cb" y="212.227344"/>
     <use style="fill:#ae7181;stroke:#000000;stroke-linejoin:miter;" x="879.989963" xlink:href="#m5658ec67cb" y="159.729152"/>
     <use style="fill:#ae7181;stroke:#000000;stroke-linejoin:miter;" x="922.707666" xlink:href="#m5658ec67cb" y="107.720394"/>
     <use style="fill:#ae7181;stroke:#000000;stroke-linejoin:miter;" x="965.425369" xlink:href="#m5658ec67cb" y="55.55539"/>
    </g>
   </g>
   <g id="line2d_32">
    <path clip-path="url(#p814142e3f1)" d="M 153.789006 959.64184 
L 196.506709 942.138844 
L 239.224412 922.96796 
L 281.942116 902.631819 
L 324.659819 881.31351 
L 367.377522 859.892036 
L 410.095226 837.030147 
L 452.812929 814.031804 
L 495.530632 790.635946 
L 538.248336 767.036456 
L 580.966039 742.872556 
L 623.683743 718.464539 
L 666.401446 693.526751 
L 709.119149 668.585963 
L 751.836853 643.288446 
L 794.554556 617.746962 
L 837.272259 592.636431 
L 879.989963 566.387335 
L 922.707666 540.382957 
L 965.425369 514.300454 
" style="fill:none;stroke:#ae7181;stroke-dasharray:5.55,2.4;stroke-dashoffset:0;stroke-width:1.5;"/>
    <defs>
     <path d="M 0 -4.5 
L -1.010313 -1.390576 
L -4.279754 -1.390576 
L -1.634721 0.531153 
L -2.645034 3.640576 
L -0 1.718847 
L 2.645034 3.640576 
L 1.634721 0.531153 
L 4.279754 -1.390576 
L 1.010313 -1.390576 
z
" id="m183ed297c0" style="stroke:#000000;stroke-linejoin:bevel;"/>
    </defs>
    <g clip-path="url(#p814142e3f1)">
     <use style="fill:#ae7181;stroke:#000000;stroke-linejoin:bevel;" x="153.789006" xlink:href="#m183ed297c0" y="959.64184"/>
     <use style="fill:#ae7181;stroke:#000000;stroke-linejoin:bevel;" x="196.506709" xlink:href="#m183ed297c0" y="942.138844"/>
     <use style="fill:#ae7181;stroke:#000000;stroke-linejoin:bevel;" x="239.224412" xlink:href="#m183ed297c0" y="922.96796"/>
     <use style="fill:#ae7181;stroke:#000000;stroke-linejoin:bevel;" x="281.942116" xlink:href="#m183ed297c0" y="902.631819"/>
     <use style="fill:#ae7181;stroke:#000000;stroke-linejoin:bevel;" x="324.659819" xlink:href="#m183ed297c0" y="881.31351"/>
     <use style="fill:#ae7181;stroke:#000000;stroke-linejoin:bevel;" x="367.377522" xlink:href="#m183ed297c0" y="859.892036"/>
     <use style="fill:#ae7181;stroke:#000000;stroke-linejoin:bevel;" x="410.095226" xlink:href="#m183ed297c0" y="837.030147"/>
     <use style="fill:#ae7181;stroke:#000000;stroke-linejoin:bevel;" x="452.812929" xlink:href="#m183ed297c0" y="814.031804"/>
     <use style="fill:#ae7181;stroke:#000000;stroke-linejoin:bevel;" x="495.530632" xlink:href="#m183ed297c0" y="790.635946"/>
     <use style="fill:#ae7181;stroke:#000000;stroke-linejoin:bevel;" x="538.248336" xlink:href="#m183ed297c0" y="767.036456"/>
     <use style="fill:#ae7181;stroke:#000000;stroke-linejoin:bevel;" x="580.966039" xlink:href="#m183ed297c0" y="742.872556"/>
     <use style="fill:#ae7181;stroke:#000000;stroke-linejoin:bevel;" x="623.683743" xlink:href="#m183ed297c0" y="718.464539"/>
     <use style="fill:#ae7181;stroke:#000000;stroke-linejoin:bevel;" x="666.401446" xlink:href="#m183ed297c0" y="693.526751"/>
     <use style="fill:#ae7181;stroke:#000000;stroke-linejoin:bevel;" x="709.119149" xlink:href="#m183ed297c0" y="668.585963"/>
     <use style="fill:#ae7181;stroke:#000000;stroke-linejoin:bevel;" x="751.836853" xlink:href="#m183ed297c0" y="643.288446"/>
     <use style="fill:#ae7181;stroke:#000000;stroke-linejoin:bevel;" x="794.554556" xlink:href="#m183ed297c0" y="617.746962"/>
     <use style="fill:#ae7181;stroke:#000000;stroke-linejoin:bevel;" x="837.272259" xlink:href="#m183ed297c0" y="592.636431"/>
     <use style="fill:#ae7181;stroke:#000000;stroke-linejoin:bevel;" x="879.989963" xlink:href="#m183ed297c0" y="566.387335"/>
     <use style="fill:#ae7181;stroke:#000000;stroke-linejoin:bevel;" x="922.707666" xlink:href="#m183ed297c0" y="540.382957"/>
     <use style="fill:#ae7181;stroke:#000000;stroke-linejoin:bevel;" x="965.425369" xlink:href="#m183ed297c0" y="514.300454"/>
    </g>
   </g>
   <g id="patch_3">
    <path d="M 113.207188 1005.12 
L 113.207188 7.2 
" style="fill:none;stroke:#000000;stroke-linecap:square;stroke-linejoin:miter;stroke-width:0.8;"/>
   </g>
   <g id="patch_4">
    <path d="M 1006.007187 1005.12 
L 1006.007187 7.2 
" style="fill:none;stroke:#000000;stroke-linecap:square;stroke-linejoin:miter;stroke-width:0.8;"/>
   </g>
   <g id="patch_5">
    <path d="M 113.207188 1005.12 
L 1006.007187 1005.12 
" style="fill:none;stroke:#000000;stroke-linecap:square;stroke-linejoin:miter;stroke-width:0.8;"/>
   </g>
   <g id="patch_6">
    <path d="M 113.207188 7.2 
L 1006.007187 7.2 
" style="fill:none;stroke:#000000;stroke-linecap:square;stroke-linejoin:miter;stroke-width:0.8;"/>
   </g>
   <g id="legend_1">
    <g id="patch_7">
     <path d="M 140.507188 496.3575 
L 760.150156 496.3575 
Q 767.950156 496.3575 767.950156 488.5575 
L 767.950156 34.5 
Q 767.950156 26.7 760.150156 26.7 
L 140.507188 26.7 
Q 132.707188 26.7 132.707188 34.5 
L 132.707188 488.5575 
Q 132.707188 496.3575 140.507188 496.3575 
z
" style="fill:#ffffff;opacity:0.8;stroke:#cccccc;stroke-linejoin:miter;"/>
    </g>
    <g id="line2d_33">
     <path d="M 148.307188 58.283906 
L 226.307188 58.283906 
" style="fill:none;stroke:#fe0002;stroke-linecap:square;stroke-width:1.5;"/>
    </g>
    <g id="line2d_34">
     <g>
      <use style="fill:#fe0002;stroke:#000000;" x="187.307188" xlink:href="#m84ecec5060" y="58.283906"/>
     </g>
    </g>
    <g id="text_15">
     <!-- Pairing comparisons -->
     <g transform="translate(257.507188 71.933906)scale(0.39 -0.39)">
      <defs>
       <path d="M 1259 4147 
L 1259 2394 
L 2053 2394 
Q 2494 2394 2734 2622 
Q 2975 2850 2975 3272 
Q 2975 3691 2734 3919 
Q 2494 4147 2053 4147 
L 1259 4147 
z
M 628 4666 
L 2053 4666 
Q 2838 4666 3239 4311 
Q 3641 3956 3641 3272 
Q 3641 2581 3239 2228 
Q 2838 1875 2053 1875 
L 1259 1875 
L 1259 0 
L 628 0 
L 628 4666 
z
" id="DejaVuSans-50" transform="scale(0.015625)"/>
       <path d="M 3122 3366 
L 3122 2828 
Q 2878 2963 2633 3030 
Q 2388 3097 2138 3097 
Q 1578 3097 1268 2742 
Q 959 2388 959 1747 
Q 959 1106 1268 751 
Q 1578 397 2138 397 
Q 2388 397 2633 464 
Q 2878 531 3122 666 
L 3122 134 
Q 2881 22 2623 -34 
Q 2366 -91 2075 -91 
Q 1284 -91 818 406 
Q 353 903 353 1747 
Q 353 2603 823 3093 
Q 1294 3584 2113 3584 
Q 2378 3584 2631 3529 
Q 2884 3475 3122 3366 
z
" id="DejaVuSans-63" transform="scale(0.015625)"/>
      </defs>
      <use xlink:href="#DejaVuSans-50"/>
      <use x="55.802734" xlink:href="#DejaVuSans-61"/>
      <use x="117.082031" xlink:href="#DejaVuSans-69"/>
      <use x="144.865234" xlink:href="#DejaVuSans-72"/>
      <use x="185.978516" xlink:href="#DejaVuSans-69"/>
      <use x="213.761719" xlink:href="#DejaVuSans-6e"/>
      <use x="277.140625" xlink:href="#DejaVuSans-67"/>
      <use x="340.617188" xlink:href="#DejaVuSans-20"/>
      <use x="372.404297" xlink:href="#DejaVuSans-63"/>
      <use x="427.384766" xlink:href="#DejaVuSans-6f"/>
      <use x="488.566406" xlink:href="#DejaVuSans-6d"/>
      <use x="585.978516" xlink:href="#DejaVuSans-70"/>
      <use x="649.455078" xlink:href="#DejaVuSans-61"/>
      <use x="710.734375" xlink:href="#DejaVuSans-72"/>
      <use x="751.847656" xlink:href="#DejaVuSans-69"/>
      <use x="779.630859" xlink:href="#DejaVuSans-73"/>
      <use x="831.730469" xlink:href="#DejaVuSans-6f"/>
      <use x="892.912109" xlink:href="#DejaVuSans-6e"/>
      <use x="956.291016" xlink:href="#DejaVuSans-73"/>
     </g>
    </g>
    <g id="line2d_35">
     <path d="M 148.307188 115.528594 
L 226.307188 115.528594 
" style="fill:none;stroke:#fe0002;stroke-dasharray:5.55,2.4;stroke-dashoffset:0;stroke-width:1.5;"/>
    </g>
    <g id="line2d_36">
     <g>
      <use style="fill:#fe0002;stroke:#000000;" x="187.307188" xlink:href="#m84ecec5060" y="115.528594"/>
     </g>
    </g>
    <g id="text_16">
     <!-- Pairing links -->
     <g transform="translate(257.507188 129.178594)scale(0.39 -0.39)">
      <defs>
       <path d="M 603 4863 
L 1178 4863 
L 1178 0 
L 603 0 
L 603 4863 
z
" id="DejaVuSans-6c" transform="scale(0.015625)"/>
       <path d="M 581 4863 
L 1159 4863 
L 1159 1991 
L 2875 3500 
L 3609 3500 
L 1753 1863 
L 3688 0 
L 2938 0 
L 1159 1709 
L 1159 0 
L 581 0 
L 581 4863 
z
" id="DejaVuSans-6b" transform="scale(0.015625)"/>
      </defs>
      <use xlink:href="#DejaVuSans-50"/>
      <use x="55.802734" xlink:href="#DejaVuSans-61"/>
      <use x="117.082031" xlink:href="#DejaVuSans-69"/>
      <use x="144.865234" xlink:href="#DejaVuSans-72"/>
      <use x="185.978516" xlink:href="#DejaVuSans-69"/>
      <use x="213.761719" xlink:href="#DejaVuSans-6e"/>
      <use x="277.140625" xlink:href="#DejaVuSans-67"/>
      <use x="340.617188" xlink:href="#DejaVuSans-20"/>
      <use x="372.404297" xlink:href="#DejaVuSans-6c"/>
      <use x="400.1875" xlink:href="#DejaVuSans-69"/>
      <use x="427.970703" xlink:href="#DejaVuSans-6e"/>
      <use x="491.349609" xlink:href="#DejaVuSans-6b"/>
      <use x="549.259766" xlink:href="#DejaVuSans-73"/>
     </g>
    </g>
    <g id="line2d_37">
     <path d="M 148.307188 172.773281 
L 226.307188 172.773281 
" style="fill:none;stroke:#53fca1;stroke-linecap:square;stroke-width:1.5;"/>
    </g>
    <g id="line2d_38">
     <g>
      <use style="fill:#53fca1;stroke:#000000;stroke-linejoin:miter;" x="187.307188" xlink:href="#mfdd95e0dcd" y="172.773281"/>
     </g>
    </g>
    <g id="text_17">
     <!-- Smooth comparisons -->
     <g transform="translate(257.507188 186.423281)scale(0.39 -0.39)">
      <defs>
       <path d="M 3425 4513 
L 3425 3897 
Q 3066 4069 2747 4153 
Q 2428 4238 2131 4238 
Q 1616 4238 1336 4038 
Q 1056 3838 1056 3469 
Q 1056 3159 1242 3001 
Q 1428 2844 1947 2747 
L 2328 2669 
Q 3034 2534 3370 2195 
Q 3706 1856 3706 1288 
Q 3706 609 3251 259 
Q 2797 -91 1919 -91 
Q 1588 -91 1214 -16 
Q 841 59 441 206 
L 441 856 
Q 825 641 1194 531 
Q 1563 422 1919 422 
Q 2459 422 2753 634 
Q 3047 847 3047 1241 
Q 3047 1584 2836 1778 
Q 2625 1972 2144 2069 
L 1759 2144 
Q 1053 2284 737 2584 
Q 422 2884 422 3419 
Q 422 4038 858 4394 
Q 1294 4750 2059 4750 
Q 2388 4750 2728 4690 
Q 3069 4631 3425 4513 
z
" id="DejaVuSans-53" transform="scale(0.015625)"/>
      </defs>
      <use xlink:href="#DejaVuSans-53"/>
      <use x="63.476562" xlink:href="#DejaVuSans-6d"/>
      <use x="160.888672" xlink:href="#DejaVuSans-6f"/>
      <use x="222.070312" xlink:href="#DejaVuSans-6f"/>
      <use x="283.251953" xlink:href="#DejaVuSans-74"/>
      <use x="322.460938" xlink:href="#DejaVuSans-68"/>
      <use x="385.839844" xlink:href="#DejaVuSans-20"/>
      <use x="417.626953" xlink:href="#DejaVuSans-63"/>
      <use x="472.607422" xlink:href="#DejaVuSans-6f"/>
      <use x="533.789062" xlink:href="#DejaVuSans-6d"/>
      <use x="631.201172" xlink:href="#DejaVuSans-70"/>
      <use x="694.677734" xlink:href="#DejaVuSans-61"/>
      <use x="755.957031" xlink:href="#DejaVuSans-72"/>
      <use x="797.070312" xlink:href="#DejaVuSans-69"/>
      <use x="824.853516" xlink:href="#DejaVuSans-73"/>
      <use x="876.953125" xlink:href="#DejaVuSans-6f"/>
      <use x="938.134766" xlink:href="#DejaVuSans-6e"/>
      <use x="1001.513672" xlink:href="#DejaVuSans-73"/>
     </g>
    </g>
    <g id="line2d_39">
     <path d="M 148.307188 230.017969 
L 226.307188 230.017969 
" style="fill:none;stroke:#53fca1;stroke-dasharray:5.55,2.4;stroke-dashoffset:0;stroke-width:1.5;"/>
    </g>
    <g id="line2d_40">
     <g>
      <use style="fill:#53fca1;stroke:#000000;stroke-linejoin:miter;" x="187.307188" xlink:href="#m938005ce00" y="230.017969"/>
     </g>
    </g>
    <g id="text_18">
     <!-- Smooth links -->
     <g transform="translate(257.507188 243.667969)scale(0.39 -0.39)">
      <use xlink:href="#DejaVuSans-53"/>
      <use x="63.476562" xlink:href="#DejaVuSans-6d"/>
      <use x="160.888672" xlink:href="#DejaVuSans-6f"/>
      <use x="222.070312" xlink:href="#DejaVuSans-6f"/>
      <use x="283.251953" xlink:href="#DejaVuSans-74"/>
      <use x="322.460938" xlink:href="#DejaVuSans-68"/>
      <use x="385.839844" xlink:href="#DejaVuSans-20"/>
      <use x="417.626953" xlink:href="#DejaVuSans-6c"/>
      <use x="445.410156" xlink:href="#DejaVuSans-69"/>
      <use x="473.193359" xlink:href="#DejaVuSans-6e"/>
      <use x="536.572266" xlink:href="#DejaVuSans-6b"/>
      <use x="594.482422" xlink:href="#DejaVuSans-73"/>
     </g>
    </g>
    <g id="line2d_41">
     <path d="M 148.307188 287.262656 
L 226.307188 287.262656 
" style="fill:none;stroke:#0652ff;stroke-linecap:square;stroke-width:1.5;"/>
    </g>
    <g id="line2d_42">
     <g>
      <use style="fill:#0652ff;stroke:#000000;stroke-linejoin:miter;" x="187.307188" xlink:href="#m8c6fc7da02" y="287.262656"/>
     </g>
    </g>
    <g id="text_19">
     <!-- Slim comparisons -->
     <g transform="translate(257.507188 300.912656)scale(0.39 -0.39)">
      <use xlink:href="#DejaVuSans-53"/>
      <use x="63.476562" xlink:href="#DejaVuSans-6c"/>
      <use x="91.259766" xlink:href="#DejaVuSans-69"/>
      <use x="119.042969" xlink:href="#DejaVuSans-6d"/>
      <use x="216.455078" xlink:href="#DejaVuSans-20"/>
      <use x="248.242188" xlink:href="#DejaVuSans-63"/>
      <use x="303.222656" xlink:href="#DejaVuSans-6f"/>
      <use x="364.404297" xlink:href="#DejaVuSans-6d"/>
      <use x="461.816406" xlink:href="#DejaVuSans-70"/>
      <use x="525.292969" xlink:href="#DejaVuSans-61"/>
      <use x="586.572266" xlink:href="#DejaVuSans-72"/>
      <use x="627.685547" xlink:href="#DejaVuSans-69"/>
      <use x="655.46875" xlink:href="#DejaVuSans-73"/>
      <use x="707.568359" xlink:href="#DejaVuSans-6f"/>
      <use x="768.75" xlink:href="#DejaVuSans-6e"/>
      <use x="832.128906" xlink:href="#DejaVuSans-73"/>
     </g>
    </g>
    <g id="line2d_43">
     <path d="M 148.307188 344.507344 
L 226.307188 344.507344 
" style="fill:none;stroke:#0652ff;stroke-dasharray:5.55,2.4;stroke-dashoffset:0;stroke-width:1.5;"/>
    </g>
    <g id="line2d_44">
     <g>
      <use style="fill:#0652ff;stroke:#000000;stroke-linejoin:miter;" x="187.307188" xlink:href="#m5bca158792" y="344.507344"/>
     </g>
    </g>
    <g id="text_20">
     <!-- Slim links -->
     <g transform="translate(257.507188 358.157344)scale(0.39 -0.39)">
      <use xlink:href="#DejaVuSans-53"/>
      <use x="63.476562" xlink:href="#DejaVuSans-6c"/>
      <use x="91.259766" xlink:href="#DejaVuSans-69"/>
      <use x="119.042969" xlink:href="#DejaVuSans-6d"/>
      <use x="216.455078" xlink:href="#DejaVuSans-20"/>
      <use x="248.242188" xlink:href="#DejaVuSans-6c"/>
      <use x="276.025391" xlink:href="#DejaVuSans-69"/>
      <use x="303.808594" xlink:href="#DejaVuSans-6e"/>
      <use x="367.1875" xlink:href="#DejaVuSans-6b"/>
      <use x="425.097656" xlink:href="#DejaVuSans-73"/>
     </g>
    </g>
    <g id="line2d_45">
     <path d="M 148.307188 401.752031 
L 226.307188 401.752031 
" style="fill:none;stroke:#ae7181;stroke-linecap:square;stroke-width:1.5;"/>
    </g>
    <g id="line2d_46">
     <g>
      <use style="fill:#ae7181;stroke:#000000;stroke-linejoin:miter;" x="187.307188" xlink:href="#m5658ec67cb" y="401.752031"/>
     </g>
    </g>
    <g id="text_21">
     <!-- Pairing Lazy comparisons -->
     <g transform="translate(257.507188 415.402031)scale(0.39 -0.39)">
      <defs>
       <path d="M 628 4666 
L 1259 4666 
L 1259 531 
L 3531 531 
L 3531 0 
L 628 0 
L 628 4666 
z
" id="DejaVuSans-4c" transform="scale(0.015625)"/>
       <path d="M 2059 -325 
Q 1816 -950 1584 -1140 
Q 1353 -1331 966 -1331 
L 506 -1331 
L 506 -850 
L 844 -850 
Q 1081 -850 1212 -737 
Q 1344 -625 1503 -206 
L 1606 56 
L 191 3500 
L 800 3500 
L 1894 763 
L 2988 3500 
L 3597 3500 
L 2059 -325 
z
" id="DejaVuSans-79" transform="scale(0.015625)"/>
      </defs>
      <use xlink:href="#DejaVuSans-50"/>
      <use x="55.802734" xlink:href="#DejaVuSans-61"/>
      <use x="117.082031" xlink:href="#DejaVuSans-69"/>
      <use x="144.865234" xlink:href="#DejaVuSans-72"/>
      <use x="185.978516" xlink:href="#DejaVuSans-69"/>
      <use x="213.761719" xlink:href="#DejaVuSans-6e"/>
      <use x="277.140625" xlink:href="#DejaVuSans-67"/>
      <use x="340.617188" xlink:href="#DejaVuSans-20"/>
      <use x="372.404297" xlink:href="#DejaVuSans-4c"/>
      <use x="428.117188" xlink:href="#DejaVuSans-61"/>
      <use x="489.396484" xlink:href="#DejaVuSans-7a"/>
      <use x="541.886719" xlink:href="#DejaVuSans-79"/>
      <use x="601.066406" xlink:href="#DejaVuSans-20"/>
      <use x="632.853516" xlink:href="#DejaVuSans-63"/>
      <use x="687.833984" xlink:href="#DejaVuSans-6f"/>
      <use x="749.015625" xlink:href="#DejaVuSans-6d"/>
      <use x="846.427734" xlink:href="#DejaVuSans-70"/>
      <use x="909.904297" xlink:href="#DejaVuSans-61"/>
      <use x="971.183594" xlink:href="#DejaVuSans-72"/>
      <use x="1012.296875" xlink:href="#DejaVuSans-69"/>
      <use x="1040.080078" xlink:href="#DejaVuSans-73"/>
      <use x="1092.179688" xlink:href="#DejaVuSans-6f"/>
      <use x="1153.361328" xlink:href="#DejaVuSans-6e"/>
      <use x="1216.740234" xlink:href="#DejaVuSans-73"/>
     </g>
    </g>
    <g id="line2d_47">
     <path d="M 148.307188 458.996719 
L 226.307188 458.996719 
" style="fill:none;stroke:#ae7181;stroke-dasharray:5.55,2.4;stroke-dashoffset:0;stroke-width:1.5;"/>
    </g>
    <g id="line2d_48">
     <g>
      <use style="fill:#ae7181;stroke:#000000;stroke-linejoin:bevel;" x="187.307188" xlink:href="#m183ed297c0" y="458.996719"/>
     </g>
    </g>
    <g id="text_22">
     <!-- Pairing Lazy links -->
     <g transform="translate(257.507188 472.646719)scale(0.39 -0.39)">
      <use xlink:href="#DejaVuSans-50"/>
      <use x="55.802734" xlink:href="#DejaVuSans-61"/>
      <use x="117.082031" xlink:href="#DejaVuSans-69"/>
      <use x="144.865234" xlink:href="#DejaVuSans-72"/>
      <use x="185.978516" xlink:href="#DejaVuSans-69"/>
      <use x="213.761719" xlink:href="#DejaVuSans-6e"/>
      <use x="277.140625" xlink:href="#DejaVuSans-67"/>
      <use x="340.617188" xlink:href="#DejaVuSans-20"/>
      <use x="372.404297" xlink:href="#DejaVuSans-4c"/>
      <use x="428.117188" xlink:href="#DejaVuSans-61"/>
      <use x="489.396484" xlink:href="#DejaVuSans-7a"/>
      <use x="541.886719" xlink:href="#DejaVuSans-79"/>
      <use x="601.066406" xlink:href="#DejaVuSans-20"/>
      <use x="632.853516" xlink:href="#DejaVuSans-6c"/>
      <use x="660.636719" xlink:href="#DejaVuSans-69"/>
      <use x="688.419922" xlink:href="#DejaVuSans-6e"/>
      <use x="751.798828" xlink:href="#DejaVuSans-6b"/>
      <use x="809.708984" xlink:href="#DejaVuSans-73"/>
     </g>
    </g>
   </g>
  </g>
 </g>
 <defs>
  <clipPath id="p814142e3f1">
   <rect height="997.92" width="892.8" x="113.207188" y="7.2"/>
  </clipPath>
 </defs>
</svg>
