<?xml version="1.0" encoding="utf-8" standalone="no"?>
<!DOCTYPE svg PUBLIC "-//W3C//DTD SVG 1.1//EN"
  "http://www.w3.org/Graphics/SVG/1.1/DTD/svg11.dtd">
<svg height="1090.099062pt" version="1.1" viewBox="0 0 1014.923768 1090.099062" width="1014.923768pt" xmlns="http://www.w3.org/2000/svg" xmlns:xlink="http://www.w3.org/1999/xlink">
 <metadata>
  <rdf:RDF xmlns:cc="http://creativecommons.org/ns#" xmlns:dc="http://purl.org/dc/elements/1.1/" xmlns:rdf="http://www.w3.org/1999/02/22-rdf-syntax-ns#">
   <cc:Work>
    <dc:type rdf:resource="http://purl.org/dc/dcmitype/StillImage"/>
    <dc:date>2021-07-04T14:44:39.252244</dc:date>
    <dc:format>image/svg+xml</dc:format>
    <dc:creator>
     <cc:Agent>
      <dc:title>Matplotlib v3.4.2, https://matplotlib.org/</dc:title>
     </cc:Agent>
    </dc:creator>
   </cc:Work>
  </rdf:RDF>
 </metadata>
 <defs>
  <style type="text/css">*{stroke-linecap:butt;stroke-linejoin:round;}</style>
 </defs>
 <g id="figure_1">
  <g id="patch_1">
   <path d="M 0 1090.099062 
L 1014.923768 1090.099062 
L 1014.923768 0 
L 0 0 
z
" style="fill:#ffffff;"/>
  </g>
  <g id="axes_1">
   <g id="patch_2">
    <path d="M 94.119688 1005.12 
L 986.919688 1005.12 
L 986.919688 7.2 
L 94.119688 7.2 
z
" style="fill:#ffffff;"/>
   </g>
   <g id="PolyCollection_1">
    <defs>
     <path d="M 134.701506 -218.402157 
L 134.701506 -218.402157 
L 162.688966 -460.522324 
L 190.676427 -504.298583 
L 218.663888 -530.677122 
L 246.651349 -549.15696 
L 274.63881 -563.430253 
L 302.626271 -573.413176 
L 330.613731 -583.312272 
L 358.601192 -590.704207 
L 386.588653 -597.635099 
L 414.576114 -603.011398 
L 442.563575 -608.83731 
L 470.551035 -612.628534 
L 498.538496 -617.364707 
L 526.525957 -620.759663 
L 554.513418 -624.055551 
L 582.500879 -627.320958 
L 610.48834 -630.624467 
L 638.4758 -633.0097 
L 666.463261 -635.848355 
L 694.450722 -637.482963 
L 722.438183 -639.498599 
L 750.425644 -641.71237 
L 778.413104 -643.190757 
L 806.400565 -644.390993 
L 834.388026 -647.050566 
L 862.375487 -648.399404 
L 890.362948 -649.283388 
L 918.350409 -651.485727 
L 946.337869 -651.969632 
L 946.337869 -654.080525 
L 946.337869 -654.080525 
L 918.350409 -652.967924 
L 890.362948 -651.619087 
L 862.375487 -650.053063 
L 834.388026 -648.967135 
L 806.400565 -647.313475 
L 778.413104 -646.185633 
L 750.425644 -643.65561 
L 722.438183 -641.849539 
L 694.450722 -640.359722 
L 666.463261 -638.134521 
L 638.4758 -635.844545 
L 610.48834 -633.264988 
L 582.500879 -629.462333 
L 554.513418 -626.779899 
L 526.525957 -623.102982 
L 498.538496 -619.144106 
L 470.551035 -616.194952 
L 442.563575 -610.986305 
L 414.576114 -605.907208 
L 386.588653 -600.325154 
L 358.601192 -593.09706 
L 330.613731 -585.034517 
L 302.626271 -576.091799 
L 274.63881 -564.729557 
L 246.651349 -550.193355 
L 218.663888 -532.917564 
L 190.676427 -506.565697 
L 162.688966 -463.09045 
L 134.701506 -218.402157 
z
" id="m44789b9322" style="stroke:#fe0002;stroke-opacity:0.3;"/>
    </defs>
    <g clip-path="url(#p0b95c962a5)">
     <use style="fill:#fe0002;fill-opacity:0.3;stroke:#fe0002;stroke-opacity:0.3;" x="0" xlink:href="#m44789b9322" y="1090.099062"/>
    </g>
   </g>
   <g id="PolyCollection_2">
    <defs>
     <path d="M 134.701506 -130.339063 
L 134.701506 -130.339063 
L 162.688966 -472.463728 
L 190.676427 -533.786307 
L 218.663888 -570.063943 
L 246.651349 -596.240538 
L 274.63881 -614.36602 
L 302.626271 -629.28325 
L 330.613731 -643.560353 
L 358.601192 -654.01194 
L 386.588653 -663.95676 
L 414.576114 -670.845738 
L 442.563575 -679.597942 
L 470.551035 -685.400992 
L 498.538496 -689.839963 
L 526.525957 -695.212452 
L 554.513418 -699.800024 
L 582.500879 -705.751675 
L 610.48834 -709.207595 
L 638.4758 -714.332416 
L 666.463261 -717.689269 
L 694.450722 -720.996589 
L 722.438183 -723.397063 
L 750.425644 -725.934706 
L 778.413104 -727.317836 
L 806.400565 -729.085804 
L 834.388026 -733.299969 
L 862.375487 -734.336364 
L 890.362948 -736.538704 
L 918.350409 -738.942988 
L 946.337869 -741.149138 
L 946.337869 -744.3612 
L 946.337869 -744.3612 
L 918.350409 -741.663525 
L 890.362948 -739.545011 
L 862.375487 -737.956126 
L 834.388026 -737.495083 
L 806.400565 -734.869803 
L 778.413104 -733.471432 
L 750.425644 -728.918152 
L 722.438183 -727.588366 
L 694.450722 -724.498232 
L 666.463261 -720.432668 
L 638.4758 -716.332811 
L 610.48834 -712.244385 
L 582.500879 -710.819342 
L 554.513418 -705.995533 
L 526.525957 -699.137036 
L 498.538496 -694.038887 
L 470.551035 -689.744707 
L 442.563575 -682.46708 
L 414.576114 -674.60267 
L 386.588653 -668.894877 
L 358.601192 -657.022058 
L 330.613731 -646.517127 
L 302.626271 -633.082095 
L 274.63881 -618.416343 
L 246.651349 -600.382308 
L 218.663888 -573.089302 
L 190.676427 -537.371777 
L 162.688966 -475.881545 
L 134.701506 -130.339063 
z
" id="ma988d867c3" style="stroke:#53fca1;stroke-opacity:0.3;"/>
    </defs>
    <g clip-path="url(#p0b95c962a5)">
     <use style="fill:#53fca1;fill-opacity:0.3;stroke:#53fca1;stroke-opacity:0.3;" x="0" xlink:href="#ma988d867c3" y="1090.099062"/>
    </g>
   </g>
   <g id="PolyCollection_3">
    <defs>
     <path d="M 134.701506 -130.339063 
L 134.701506 -130.339063 
L 162.688966 -499.444291 
L 190.676427 -575.863183 
L 218.663888 -621.864643 
L 246.651349 -652.544984 
L 274.63881 -678.782543 
L 302.626271 -698.134934 
L 330.613731 -714.397191 
L 358.601192 -727.961773 
L 386.588653 -740.63094 
L 414.576114 -749.276456 
L 442.563575 -762.014208 
L 470.551035 -767.28763 
L 498.538496 -776.27607 
L 526.525957 -782.989776 
L 554.513418 -788.693759 
L 582.500879 -792.926976 
L 610.48834 -797.743164 
L 638.4758 -804.445439 
L 666.463261 -809.093976 
L 694.450722 -812.976647 
L 722.438183 -816.527824 
L 750.425644 -819.3741 
L 778.413104 -822.056534 
L 806.400565 -825.112375 
L 834.388026 -829.04458 
L 862.375487 -829.799015 
L 890.362948 -834.009369 
L 918.350409 -834.798097 
L 946.337869 -837.114744 
L 946.337869 -845.162047 
L 946.337869 -845.162047 
L 918.350409 -838.71887 
L 890.362948 -839.298032 
L 862.375487 -835.53348 
L 834.388026 -835.102919 
L 806.400565 -830.721101 
L 778.413104 -828.057719 
L 750.425644 -825.824897 
L 722.438183 -822.437562 
L 694.450722 -817.590891 
L 666.463261 -815.540963 
L 638.4758 -810.614276 
L 610.48834 -803.195669 
L 582.500879 -801.381978 
L 554.513418 -793.970991 
L 526.525957 -789.520589 
L 498.538496 -780.101587 
L 470.551035 -774.538585 
L 442.563575 -768.236388 
L 414.576114 -755.430051 
L 386.588653 -747.615176 
L 358.601192 -732.640792 
L 330.613731 -719.140984 
L 302.626271 -702.661542 
L 274.63881 -684.581783 
L 246.651349 -658.652856 
L 218.663888 -627.233321 
L 190.676427 -579.55153 
L 162.688966 -503.799436 
L 134.701506 -130.339063 
z
" id="mccb9dea15f" style="stroke:#0652ff;stroke-opacity:0.3;"/>
    </defs>
    <g clip-path="url(#p0b95c962a5)">
     <use style="fill:#0652ff;fill-opacity:0.3;stroke:#0652ff;stroke-opacity:0.3;" x="0" xlink:href="#mccb9dea15f" y="1090.099062"/>
    </g>
   </g>
   <g id="PolyCollection_4">
    <defs>
     <path d="M 134.701506 -259.008267 
L 134.701506 -259.008267 
L 162.688966 -597.059747 
L 190.676427 -684.859933 
L 218.663888 -739.373549 
L 246.651349 -781.774298 
L 274.63881 -814.413121 
L 302.626271 -837.011867 
L 330.613731 -862.091102 
L 358.601192 -879.115415 
L 386.588653 -895.9073 
L 414.576114 -907.620088 
L 442.563575 -920.948433 
L 470.551035 -930.432209 
L 498.538496 -942.964206 
L 526.525957 -953.259572 
L 554.513418 -961.607886 
L 582.500879 -967.513814 
L 610.48834 -973.770286 
L 638.4758 -982.358648 
L 666.463261 -989.84584 
L 694.450722 -995.938471 
L 722.438183 -1000.244083 
L 750.425644 -1003.734295 
L 778.413104 -1008.21899 
L 806.400565 -1013.435258 
L 834.388026 -1013.309519 
L 862.375487 -1020.51856 
L 890.362948 -1023.738243 
L 918.350409 -1027.719982 
L 946.337869 -1030.432898 
L 946.337869 -1037.539063 
L 946.337869 -1037.539063 
L 918.350409 -1033.900249 
L 890.362948 -1029.263143 
L 862.375487 -1027.41897 
L 834.388026 -1027.129389 
L 806.400565 -1019.322134 
L 778.413104 -1013.869629 
L 750.425644 -1010.105077 
L 722.438183 -1004.751639 
L 694.450722 -999.703024 
L 666.463261 -994.056195 
L 638.4758 -991.011785 
L 610.48834 -980.72023 
L 582.500879 -977.538649 
L 554.513418 -966.142114 
L 526.525957 -960.239997 
L 498.538496 -950.737169 
L 470.551035 -938.45284 
L 442.563575 -926.465712 
L 414.576114 -916.067469 
L 386.588653 -901.477923 
L 358.601192 -883.257184 
L 330.613731 -864.503007 
L 302.626271 -844.091359 
L 274.63881 -818.074796 
L 246.651349 -787.908842 
L 218.663888 -743.446734 
L 190.676427 -691.089734 
L 162.688966 -600.55758 
L 134.701506 -259.008267 
z
" id="m3fbf968ab7" style="stroke:#ae7181;stroke-opacity:0.3;"/>
    </defs>
    <g clip-path="url(#p0b95c962a5)">
     <use style="fill:#ae7181;fill-opacity:0.3;stroke:#ae7181;stroke-opacity:0.3;" x="0" xlink:href="#m3fbf968ab7" y="1090.099062"/>
    </g>
   </g>
   <g id="PolyCollection_5">
    <defs>
     <path d="M 134.701506 -149.390442 
L 134.701506 -149.390442 
L 162.688966 -517.11635 
L 190.676427 -591.210974 
L 218.663888 -633.611723 
L 246.651349 -664.92838 
L 274.63881 -689.691363 
L 302.626271 -708.647485 
L 330.613731 -722.928399 
L 358.601192 -735.262261 
L 386.588653 -746.026291 
L 414.576114 -755.060455 
L 442.563575 -767.219045 
L 470.551035 -774.805304 
L 498.538496 -782.052448 
L 526.525957 -787.234424 
L 554.513418 -792.233505 
L 582.500879 -797.6822 
L 610.48834 -803.20329 
L 638.4758 -808.267146 
L 666.463261 -813.068094 
L 694.450722 -815.041816 
L 722.438183 -818.455824 
L 750.425644 -820.669594 
L 778.413104 -823.344407 
L 806.400565 -828.667363 
L 834.388026 -830.923046 
L 862.375487 -832.191868 
L 890.362948 -833.449259 
L 918.350409 -836.710855 
L 946.337869 -839.298032 
L 946.337869 -845.604039 
L 946.337869 -845.604039 
L 918.350409 -842.494854 
L 890.362948 -839.050364 
L 862.375487 -838.391187 
L 834.388026 -837.785353 
L 806.400565 -833.891251 
L 778.413104 -829.60088 
L 750.425644 -826.716502 
L 722.438183 -822.353736 
L 694.450722 -821.138258 
L 666.463261 -818.227207 
L 638.4758 -811.715446 
L 610.48834 -807.90136 
L 582.500879 -803.21472 
L 554.513418 -798.486168 
L 526.525957 -791.993458 
L 498.538496 -785.192116 
L 470.551035 -779.411927 
L 442.563575 -772.294332 
L 414.576114 -762.208532 
L 386.588653 -753.029578 
L 358.601192 -741.8769 
L 330.613731 -727.554073 
L 302.626271 -711.653792 
L 274.63881 -696.306001 
L 246.651349 -670.262766 
L 218.663888 -638.915627 
L 190.676427 -595.642325 
L 162.688966 -520.358895 
L 134.701506 -149.390442 
z
" id="m4227d5627f" style="stroke:#ff9408;stroke-opacity:0.3;"/>
    </defs>
    <g clip-path="url(#p0b95c962a5)">
     <use style="fill:#ff9408;fill-opacity:0.3;stroke:#ff9408;stroke-opacity:0.3;" x="0" xlink:href="#m4227d5627f" y="1090.099062"/>
    </g>
   </g>
   <g id="PolyCollection_6">
    <defs>
     <path d="M 134.701506 -149.390442 
L 134.701506 -149.390442 
L 162.688966 -487.727693 
L 190.676427 -552.75386 
L 218.663888 -591.127148 
L 246.651349 -620.435789 
L 274.63881 -641.224654 
L 302.626271 -659.319654 
L 330.613731 -673.261453 
L 358.601192 -683.236755 
L 386.588653 -695.406776 
L 414.576114 -702.131913 
L 442.563575 -712.968338 
L 470.551035 -719.971625 
L 498.538496 -724.73828 
L 526.525957 -730.907116 
L 554.513418 -738.56196 
L 582.500879 -741.202481 
L 610.48834 -745.660504 
L 638.4758 -751.730273 
L 666.463261 -753.330589 
L 694.450722 -758.596391 
L 722.438183 -761.21405 
L 750.425644 -765.367251 
L 778.413104 -765.462508 
L 806.400565 -768.872704 
L 834.388026 -772.660119 
L 862.375487 -773.334537 
L 890.362948 -776.771406 
L 918.350409 -778.794663 
L 946.337869 -779.853919 
L 946.337869 -784.753934 
L 946.337869 -784.753934 
L 918.350409 -782.795452 
L 890.362948 -781.38184 
L 862.375487 -777.617287 
L 834.388026 -776.763786 
L 806.400565 -774.005146 
L 778.413104 -770.777842 
L 750.425644 -768.903187 
L 722.438183 -765.35201 
L 694.450722 -762.124706 
L 666.463261 -758.790715 
L 638.4758 -757.975316 
L 610.48834 -749.954685 
L 582.500879 -746.8455 
L 554.513418 -741.975967 
L 526.525957 -735.593755 
L 498.538496 -729.744982 
L 470.551035 -725.793726 
L 442.563575 -717.296811 
L 414.576114 -708.689398 
L 386.588653 -701.12219 
L 358.601192 -687.565229 
L 330.613731 -676.439223 
L 302.626271 -664.036776 
L 274.63881 -645.621713 
L 246.651349 -625.312942 
L 218.663888 -595.356554 
L 190.676427 -555.93163 
L 162.688966 -491.316973 
L 134.701506 -149.390442 
z
" id="m91c5f4929b" style="stroke:#ff81c0;stroke-opacity:0.3;"/>
    </defs>
    <g clip-path="url(#p0b95c962a5)">
     <use style="fill:#ff81c0;fill-opacity:0.3;stroke:#ff81c0;stroke-opacity:0.3;" x="0" xlink:href="#m91c5f4929b" y="1090.099062"/>
    </g>
   </g>
   <g id="matplotlib.axis_1">
    <g id="xtick_1">
     <g id="line2d_1">
      <path clip-path="url(#p0b95c962a5)" d="M 134.701506 1005.12 
L 134.701506 7.2 
" style="fill:none;stroke:#b0b0b0;stroke-linecap:square;stroke-width:0.8;"/>
     </g>
     <g id="line2d_2">
      <defs>
       <path d="M 0 0 
L 0 3.5 
" id="mf4bec76b55" style="stroke:#000000;stroke-width:0.8;"/>
      </defs>
      <g>
       <use style="stroke:#000000;stroke-width:0.8;" x="134.701506" xlink:href="#mf4bec76b55" y="1005.12"/>
      </g>
     </g>
     <g id="text_1">
      <!-- 0.00 -->
      <g transform="translate(101.303068 1034.915313)scale(0.3 -0.3)">
       <defs>
        <path d="M 2034 4250 
Q 1547 4250 1301 3770 
Q 1056 3291 1056 2328 
Q 1056 1369 1301 889 
Q 1547 409 2034 409 
Q 2525 409 2770 889 
Q 3016 1369 3016 2328 
Q 3016 3291 2770 3770 
Q 2525 4250 2034 4250 
z
M 2034 4750 
Q 2819 4750 3233 4129 
Q 3647 3509 3647 2328 
Q 3647 1150 3233 529 
Q 2819 -91 2034 -91 
Q 1250 -91 836 529 
Q 422 1150 422 2328 
Q 422 3509 836 4129 
Q 1250 4750 2034 4750 
z
" id="DejaVuSans-30" transform="scale(0.015625)"/>
        <path d="M 684 794 
L 1344 794 
L 1344 0 
L 684 0 
L 684 794 
z
" id="DejaVuSans-2e" transform="scale(0.015625)"/>
       </defs>
       <use xlink:href="#DejaVuSans-30"/>
       <use x="63.623047" xlink:href="#DejaVuSans-2e"/>
       <use x="95.410156" xlink:href="#DejaVuSans-30"/>
       <use x="159.033203" xlink:href="#DejaVuSans-30"/>
      </g>
     </g>
    </g>
    <g id="xtick_2">
     <g id="line2d_3">
      <path clip-path="url(#p0b95c962a5)" d="M 274.63881 1005.12 
L 274.63881 7.2 
" style="fill:none;stroke:#b0b0b0;stroke-linecap:square;stroke-width:0.8;"/>
     </g>
     <g id="line2d_4">
      <g>
       <use style="stroke:#000000;stroke-width:0.8;" x="274.63881" xlink:href="#mf4bec76b55" y="1005.12"/>
      </g>
     </g>
     <g id="text_2">
      <!-- 0.05 -->
      <g transform="translate(241.240372 1034.915313)scale(0.3 -0.3)">
       <defs>
        <path d="M 691 4666 
L 3169 4666 
L 3169 4134 
L 1269 4134 
L 1269 2991 
Q 1406 3038 1543 3061 
Q 1681 3084 1819 3084 
Q 2600 3084 3056 2656 
Q 3513 2228 3513 1497 
Q 3513 744 3044 326 
Q 2575 -91 1722 -91 
Q 1428 -91 1123 -41 
Q 819 9 494 109 
L 494 744 
Q 775 591 1075 516 
Q 1375 441 1709 441 
Q 2250 441 2565 725 
Q 2881 1009 2881 1497 
Q 2881 1984 2565 2268 
Q 2250 2553 1709 2553 
Q 1456 2553 1204 2497 
Q 953 2441 691 2322 
L 691 4666 
z
" id="DejaVuSans-35" transform="scale(0.015625)"/>
       </defs>
       <use xlink:href="#DejaVuSans-30"/>
       <use x="63.623047" xlink:href="#DejaVuSans-2e"/>
       <use x="95.410156" xlink:href="#DejaVuSans-30"/>
       <use x="159.033203" xlink:href="#DejaVuSans-35"/>
      </g>
     </g>
    </g>
    <g id="xtick_3">
     <g id="line2d_5">
      <path clip-path="url(#p0b95c962a5)" d="M 414.576114 1005.12 
L 414.576114 7.2 
" style="fill:none;stroke:#b0b0b0;stroke-linecap:square;stroke-width:0.8;"/>
     </g>
     <g id="line2d_6">
      <g>
       <use style="stroke:#000000;stroke-width:0.8;" x="414.576114" xlink:href="#mf4bec76b55" y="1005.12"/>
      </g>
     </g>
     <g id="text_3">
      <!-- 0.10 -->
      <g transform="translate(381.177676 1034.915313)scale(0.3 -0.3)">
       <defs>
        <path d="M 794 531 
L 1825 531 
L 1825 4091 
L 703 3866 
L 703 4441 
L 1819 4666 
L 2450 4666 
L 2450 531 
L 3481 531 
L 3481 0 
L 794 0 
L 794 531 
z
" id="DejaVuSans-31" transform="scale(0.015625)"/>
       </defs>
       <use xlink:href="#DejaVuSans-30"/>
       <use x="63.623047" xlink:href="#DejaVuSans-2e"/>
       <use x="95.410156" xlink:href="#DejaVuSans-31"/>
       <use x="159.033203" xlink:href="#DejaVuSans-30"/>
      </g>
     </g>
    </g>
    <g id="xtick_4">
     <g id="line2d_7">
      <path clip-path="url(#p0b95c962a5)" d="M 554.513418 1005.12 
L 554.513418 7.2 
" style="fill:none;stroke:#b0b0b0;stroke-linecap:square;stroke-width:0.8;"/>
     </g>
     <g id="line2d_8">
      <g>
       <use style="stroke:#000000;stroke-width:0.8;" x="554.513418" xlink:href="#mf4bec76b55" y="1005.12"/>
      </g>
     </g>
     <g id="text_4">
      <!-- 0.15 -->
      <g transform="translate(521.11498 1034.915313)scale(0.3 -0.3)">
       <use xlink:href="#DejaVuSans-30"/>
       <use x="63.623047" xlink:href="#DejaVuSans-2e"/>
       <use x="95.410156" xlink:href="#DejaVuSans-31"/>
       <use x="159.033203" xlink:href="#DejaVuSans-35"/>
      </g>
     </g>
    </g>
    <g id="xtick_5">
     <g id="line2d_9">
      <path clip-path="url(#p0b95c962a5)" d="M 694.450722 1005.12 
L 694.450722 7.2 
" style="fill:none;stroke:#b0b0b0;stroke-linecap:square;stroke-width:0.8;"/>
     </g>
     <g id="line2d_10">
      <g>
       <use style="stroke:#000000;stroke-width:0.8;" x="694.450722" xlink:href="#mf4bec76b55" y="1005.12"/>
      </g>
     </g>
     <g id="text_5">
      <!-- 0.20 -->
      <g transform="translate(661.052284 1034.915313)scale(0.3 -0.3)">
       <defs>
        <path d="M 1228 531 
L 3431 531 
L 3431 0 
L 469 0 
L 469 531 
Q 828 903 1448 1529 
Q 2069 2156 2228 2338 
Q 2531 2678 2651 2914 
Q 2772 3150 2772 3378 
Q 2772 3750 2511 3984 
Q 2250 4219 1831 4219 
Q 1534 4219 1204 4116 
Q 875 4013 500 3803 
L 500 4441 
Q 881 4594 1212 4672 
Q 1544 4750 1819 4750 
Q 2544 4750 2975 4387 
Q 3406 4025 3406 3419 
Q 3406 3131 3298 2873 
Q 3191 2616 2906 2266 
Q 2828 2175 2409 1742 
Q 1991 1309 1228 531 
z
" id="DejaVuSans-32" transform="scale(0.015625)"/>
       </defs>
       <use xlink:href="#DejaVuSans-30"/>
       <use x="63.623047" xlink:href="#DejaVuSans-2e"/>
       <use x="95.410156" xlink:href="#DejaVuSans-32"/>
       <use x="159.033203" xlink:href="#DejaVuSans-30"/>
      </g>
     </g>
    </g>
    <g id="xtick_6">
     <g id="line2d_11">
      <path clip-path="url(#p0b95c962a5)" d="M 834.388026 1005.12 
L 834.388026 7.2 
" style="fill:none;stroke:#b0b0b0;stroke-linecap:square;stroke-width:0.8;"/>
     </g>
     <g id="line2d_12">
      <g>
       <use style="stroke:#000000;stroke-width:0.8;" x="834.388026" xlink:href="#mf4bec76b55" y="1005.12"/>
      </g>
     </g>
     <g id="text_6">
      <!-- 0.25 -->
      <g transform="translate(800.989589 1034.915313)scale(0.3 -0.3)">
       <use xlink:href="#DejaVuSans-30"/>
       <use x="63.623047" xlink:href="#DejaVuSans-2e"/>
       <use x="95.410156" xlink:href="#DejaVuSans-32"/>
       <use x="159.033203" xlink:href="#DejaVuSans-35"/>
      </g>
     </g>
    </g>
    <g id="xtick_7">
     <g id="line2d_13">
      <path clip-path="url(#p0b95c962a5)" d="M 974.32533 1005.12 
L 974.32533 7.2 
" style="fill:none;stroke:#b0b0b0;stroke-linecap:square;stroke-width:0.8;"/>
     </g>
     <g id="line2d_14">
      <g>
       <use style="stroke:#000000;stroke-width:0.8;" x="974.32533" xlink:href="#mf4bec76b55" y="1005.12"/>
      </g>
     </g>
     <g id="text_7">
      <!-- 0.30 -->
      <g transform="translate(940.926893 1034.915313)scale(0.3 -0.3)">
       <defs>
        <path d="M 2597 2516 
Q 3050 2419 3304 2112 
Q 3559 1806 3559 1356 
Q 3559 666 3084 287 
Q 2609 -91 1734 -91 
Q 1441 -91 1130 -33 
Q 819 25 488 141 
L 488 750 
Q 750 597 1062 519 
Q 1375 441 1716 441 
Q 2309 441 2620 675 
Q 2931 909 2931 1356 
Q 2931 1769 2642 2001 
Q 2353 2234 1838 2234 
L 1294 2234 
L 1294 2753 
L 1863 2753 
Q 2328 2753 2575 2939 
Q 2822 3125 2822 3475 
Q 2822 3834 2567 4026 
Q 2313 4219 1838 4219 
Q 1578 4219 1281 4162 
Q 984 4106 628 3988 
L 628 4550 
Q 988 4650 1302 4700 
Q 1616 4750 1894 4750 
Q 2613 4750 3031 4423 
Q 3450 4097 3450 3541 
Q 3450 3153 3228 2886 
Q 3006 2619 2597 2516 
z
" id="DejaVuSans-33" transform="scale(0.015625)"/>
       </defs>
       <use xlink:href="#DejaVuSans-30"/>
       <use x="63.623047" xlink:href="#DejaVuSans-2e"/>
       <use x="95.410156" xlink:href="#DejaVuSans-33"/>
       <use x="159.033203" xlink:href="#DejaVuSans-30"/>
      </g>
     </g>
    </g>
    <g id="text_8">
     <!-- Locality parameter -->
     <g transform="translate(356.226406 1074.788281)scale(0.39 -0.39)">
      <defs>
       <path d="M 628 4666 
L 1259 4666 
L 1259 531 
L 3531 531 
L 3531 0 
L 628 0 
L 628 4666 
z
" id="DejaVuSans-4c" transform="scale(0.015625)"/>
       <path d="M 1959 3097 
Q 1497 3097 1228 2736 
Q 959 2375 959 1747 
Q 959 1119 1226 758 
Q 1494 397 1959 397 
Q 2419 397 2687 759 
Q 2956 1122 2956 1747 
Q 2956 2369 2687 2733 
Q 2419 3097 1959 3097 
z
M 1959 3584 
Q 2709 3584 3137 3096 
Q 3566 2609 3566 1747 
Q 3566 888 3137 398 
Q 2709 -91 1959 -91 
Q 1206 -91 779 398 
Q 353 888 353 1747 
Q 353 2609 779 3096 
Q 1206 3584 1959 3584 
z
" id="DejaVuSans-6f" transform="scale(0.015625)"/>
       <path d="M 3122 3366 
L 3122 2828 
Q 2878 2963 2633 3030 
Q 2388 3097 2138 3097 
Q 1578 3097 1268 2742 
Q 959 2388 959 1747 
Q 959 1106 1268 751 
Q 1578 397 2138 397 
Q 2388 397 2633 464 
Q 2878 531 3122 666 
L 3122 134 
Q 2881 22 2623 -34 
Q 2366 -91 2075 -91 
Q 1284 -91 818 406 
Q 353 903 353 1747 
Q 353 2603 823 3093 
Q 1294 3584 2113 3584 
Q 2378 3584 2631 3529 
Q 2884 3475 3122 3366 
z
" id="DejaVuSans-63" transform="scale(0.015625)"/>
       <path d="M 2194 1759 
Q 1497 1759 1228 1600 
Q 959 1441 959 1056 
Q 959 750 1161 570 
Q 1363 391 1709 391 
Q 2188 391 2477 730 
Q 2766 1069 2766 1631 
L 2766 1759 
L 2194 1759 
z
M 3341 1997 
L 3341 0 
L 2766 0 
L 2766 531 
Q 2569 213 2275 61 
Q 1981 -91 1556 -91 
Q 1019 -91 701 211 
Q 384 513 384 1019 
Q 384 1609 779 1909 
Q 1175 2209 1959 2209 
L 2766 2209 
L 2766 2266 
Q 2766 2663 2505 2880 
Q 2244 3097 1772 3097 
Q 1472 3097 1187 3025 
Q 903 2953 641 2809 
L 641 3341 
Q 956 3463 1253 3523 
Q 1550 3584 1831 3584 
Q 2591 3584 2966 3190 
Q 3341 2797 3341 1997 
z
" id="DejaVuSans-61" transform="scale(0.015625)"/>
       <path d="M 603 4863 
L 1178 4863 
L 1178 0 
L 603 0 
L 603 4863 
z
" id="DejaVuSans-6c" transform="scale(0.015625)"/>
       <path d="M 603 3500 
L 1178 3500 
L 1178 0 
L 603 0 
L 603 3500 
z
M 603 4863 
L 1178 4863 
L 1178 4134 
L 603 4134 
L 603 4863 
z
" id="DejaVuSans-69" transform="scale(0.015625)"/>
       <path d="M 1172 4494 
L 1172 3500 
L 2356 3500 
L 2356 3053 
L 1172 3053 
L 1172 1153 
Q 1172 725 1289 603 
Q 1406 481 1766 481 
L 2356 481 
L 2356 0 
L 1766 0 
Q 1100 0 847 248 
Q 594 497 594 1153 
L 594 3053 
L 172 3053 
L 172 3500 
L 594 3500 
L 594 4494 
L 1172 4494 
z
" id="DejaVuSans-74" transform="scale(0.015625)"/>
       <path d="M 2059 -325 
Q 1816 -950 1584 -1140 
Q 1353 -1331 966 -1331 
L 506 -1331 
L 506 -850 
L 844 -850 
Q 1081 -850 1212 -737 
Q 1344 -625 1503 -206 
L 1606 56 
L 191 3500 
L 800 3500 
L 1894 763 
L 2988 3500 
L 3597 3500 
L 2059 -325 
z
" id="DejaVuSans-79" transform="scale(0.015625)"/>
       <path id="DejaVuSans-20" transform="scale(0.015625)"/>
       <path d="M 1159 525 
L 1159 -1331 
L 581 -1331 
L 581 3500 
L 1159 3500 
L 1159 2969 
Q 1341 3281 1617 3432 
Q 1894 3584 2278 3584 
Q 2916 3584 3314 3078 
Q 3713 2572 3713 1747 
Q 3713 922 3314 415 
Q 2916 -91 2278 -91 
Q 1894 -91 1617 61 
Q 1341 213 1159 525 
z
M 3116 1747 
Q 3116 2381 2855 2742 
Q 2594 3103 2138 3103 
Q 1681 3103 1420 2742 
Q 1159 2381 1159 1747 
Q 1159 1113 1420 752 
Q 1681 391 2138 391 
Q 2594 391 2855 752 
Q 3116 1113 3116 1747 
z
" id="DejaVuSans-70" transform="scale(0.015625)"/>
       <path d="M 2631 2963 
Q 2534 3019 2420 3045 
Q 2306 3072 2169 3072 
Q 1681 3072 1420 2755 
Q 1159 2438 1159 1844 
L 1159 0 
L 581 0 
L 581 3500 
L 1159 3500 
L 1159 2956 
Q 1341 3275 1631 3429 
Q 1922 3584 2338 3584 
Q 2397 3584 2469 3576 
Q 2541 3569 2628 3553 
L 2631 2963 
z
" id="DejaVuSans-72" transform="scale(0.015625)"/>
       <path d="M 3328 2828 
Q 3544 3216 3844 3400 
Q 4144 3584 4550 3584 
Q 5097 3584 5394 3201 
Q 5691 2819 5691 2113 
L 5691 0 
L 5113 0 
L 5113 2094 
Q 5113 2597 4934 2840 
Q 4756 3084 4391 3084 
Q 3944 3084 3684 2787 
Q 3425 2491 3425 1978 
L 3425 0 
L 2847 0 
L 2847 2094 
Q 2847 2600 2669 2842 
Q 2491 3084 2119 3084 
Q 1678 3084 1418 2786 
Q 1159 2488 1159 1978 
L 1159 0 
L 581 0 
L 581 3500 
L 1159 3500 
L 1159 2956 
Q 1356 3278 1631 3431 
Q 1906 3584 2284 3584 
Q 2666 3584 2933 3390 
Q 3200 3197 3328 2828 
z
" id="DejaVuSans-6d" transform="scale(0.015625)"/>
       <path d="M 3597 1894 
L 3597 1613 
L 953 1613 
Q 991 1019 1311 708 
Q 1631 397 2203 397 
Q 2534 397 2845 478 
Q 3156 559 3463 722 
L 3463 178 
Q 3153 47 2828 -22 
Q 2503 -91 2169 -91 
Q 1331 -91 842 396 
Q 353 884 353 1716 
Q 353 2575 817 3079 
Q 1281 3584 2069 3584 
Q 2775 3584 3186 3129 
Q 3597 2675 3597 1894 
z
M 3022 2063 
Q 3016 2534 2758 2815 
Q 2500 3097 2075 3097 
Q 1594 3097 1305 2825 
Q 1016 2553 972 2059 
L 3022 2063 
z
" id="DejaVuSans-65" transform="scale(0.015625)"/>
      </defs>
      <use xlink:href="#DejaVuSans-4c"/>
      <use x="53.962891" xlink:href="#DejaVuSans-6f"/>
      <use x="115.144531" xlink:href="#DejaVuSans-63"/>
      <use x="170.125" xlink:href="#DejaVuSans-61"/>
      <use x="231.404297" xlink:href="#DejaVuSans-6c"/>
      <use x="259.1875" xlink:href="#DejaVuSans-69"/>
      <use x="286.970703" xlink:href="#DejaVuSans-74"/>
      <use x="326.179688" xlink:href="#DejaVuSans-79"/>
      <use x="385.359375" xlink:href="#DejaVuSans-20"/>
      <use x="417.146484" xlink:href="#DejaVuSans-70"/>
      <use x="480.623047" xlink:href="#DejaVuSans-61"/>
      <use x="541.902344" xlink:href="#DejaVuSans-72"/>
      <use x="583.015625" xlink:href="#DejaVuSans-61"/>
      <use x="644.294922" xlink:href="#DejaVuSans-6d"/>
      <use x="741.707031" xlink:href="#DejaVuSans-65"/>
      <use x="803.230469" xlink:href="#DejaVuSans-74"/>
      <use x="842.439453" xlink:href="#DejaVuSans-65"/>
      <use x="903.962891" xlink:href="#DejaVuSans-72"/>
     </g>
    </g>
   </g>
   <g id="matplotlib.axis_2">
    <g id="ytick_1">
     <g id="line2d_15">
      <path clip-path="url(#p0b95c962a5)" d="M 94.119688 997.855138 
L 986.919688 997.855138 
" style="fill:none;stroke:#b0b0b0;stroke-linecap:square;stroke-width:0.8;"/>
     </g>
     <g id="line2d_16">
      <defs>
       <path d="M 0 0 
L -3.5 0 
" id="mcb4689d83d" style="stroke:#000000;stroke-width:0.8;"/>
      </defs>
      <g>
       <use style="stroke:#000000;stroke-width:0.8;" x="94.119688" xlink:href="#mcb4689d83d" y="997.855138"/>
      </g>
     </g>
     <g id="text_9">
      <!-- 0 -->
      <g transform="translate(68.032188 1009.252794)scale(0.3 -0.3)">
       <use xlink:href="#DejaVuSans-30"/>
      </g>
     </g>
    </g>
    <g id="ytick_2">
     <g id="line2d_17">
      <path clip-path="url(#p0b95c962a5)" d="M 94.119688 807.341347 
L 986.919688 807.341347 
" style="fill:none;stroke:#b0b0b0;stroke-linecap:square;stroke-width:0.8;"/>
     </g>
     <g id="line2d_18">
      <g>
       <use style="stroke:#000000;stroke-width:0.8;" x="94.119688" xlink:href="#mcb4689d83d" y="807.341347"/>
      </g>
     </g>
     <g id="text_10">
      <!-- 5 -->
      <g transform="translate(68.032188 818.739003)scale(0.3 -0.3)">
       <use xlink:href="#DejaVuSans-35"/>
      </g>
     </g>
    </g>
    <g id="ytick_3">
     <g id="line2d_19">
      <path clip-path="url(#p0b95c962a5)" d="M 94.119688 616.827556 
L 986.919688 616.827556 
" style="fill:none;stroke:#b0b0b0;stroke-linecap:square;stroke-width:0.8;"/>
     </g>
     <g id="line2d_20">
      <g>
       <use style="stroke:#000000;stroke-width:0.8;" x="94.119688" xlink:href="#mcb4689d83d" y="616.827556"/>
      </g>
     </g>
     <g id="text_11">
      <!-- 10 -->
      <g transform="translate(48.944688 628.225212)scale(0.3 -0.3)">
       <use xlink:href="#DejaVuSans-31"/>
       <use x="63.623047" xlink:href="#DejaVuSans-30"/>
      </g>
     </g>
    </g>
    <g id="ytick_4">
     <g id="line2d_21">
      <path clip-path="url(#p0b95c962a5)" d="M 94.119688 426.313765 
L 986.919688 426.313765 
" style="fill:none;stroke:#b0b0b0;stroke-linecap:square;stroke-width:0.8;"/>
     </g>
     <g id="line2d_22">
      <g>
       <use style="stroke:#000000;stroke-width:0.8;" x="94.119688" xlink:href="#mcb4689d83d" y="426.313765"/>
      </g>
     </g>
     <g id="text_12">
      <!-- 15 -->
      <g transform="translate(48.944688 437.711421)scale(0.3 -0.3)">
       <use xlink:href="#DejaVuSans-31"/>
       <use x="63.623047" xlink:href="#DejaVuSans-35"/>
      </g>
     </g>
    </g>
    <g id="ytick_5">
     <g id="line2d_23">
      <path clip-path="url(#p0b95c962a5)" d="M 94.119688 235.799974 
L 986.919688 235.799974 
" style="fill:none;stroke:#b0b0b0;stroke-linecap:square;stroke-width:0.8;"/>
     </g>
     <g id="line2d_24">
      <g>
       <use style="stroke:#000000;stroke-width:0.8;" x="94.119688" xlink:href="#mcb4689d83d" y="235.799974"/>
      </g>
     </g>
     <g id="text_13">
      <!-- 20 -->
      <g transform="translate(48.944688 247.197631)scale(0.3 -0.3)">
       <use xlink:href="#DejaVuSans-32"/>
       <use x="63.623047" xlink:href="#DejaVuSans-30"/>
      </g>
     </g>
    </g>
    <g id="ytick_6">
     <g id="line2d_25">
      <path clip-path="url(#p0b95c962a5)" d="M 94.119688 45.286183 
L 986.919688 45.286183 
" style="fill:none;stroke:#b0b0b0;stroke-linecap:square;stroke-width:0.8;"/>
     </g>
     <g id="line2d_26">
      <g>
       <use style="stroke:#000000;stroke-width:0.8;" x="94.119688" xlink:href="#mcb4689d83d" y="45.286183"/>
      </g>
     </g>
     <g id="text_14">
      <!-- 25 -->
      <g transform="translate(48.944688 56.68384)scale(0.3 -0.3)">
       <use xlink:href="#DejaVuSans-32"/>
       <use x="63.623047" xlink:href="#DejaVuSans-35"/>
      </g>
     </g>
    </g>
    <g id="text_15">
     <!-- Avg. number of comps / size -->
     <g transform="translate(36.833906 782.922891)rotate(-90)scale(0.39 -0.39)">
      <defs>
       <path d="M 2188 4044 
L 1331 1722 
L 3047 1722 
L 2188 4044 
z
M 1831 4666 
L 2547 4666 
L 4325 0 
L 3669 0 
L 3244 1197 
L 1141 1197 
L 716 0 
L 50 0 
L 1831 4666 
z
" id="DejaVuSans-41" transform="scale(0.015625)"/>
       <path d="M 191 3500 
L 800 3500 
L 1894 563 
L 2988 3500 
L 3597 3500 
L 2284 0 
L 1503 0 
L 191 3500 
z
" id="DejaVuSans-76" transform="scale(0.015625)"/>
       <path d="M 2906 1791 
Q 2906 2416 2648 2759 
Q 2391 3103 1925 3103 
Q 1463 3103 1205 2759 
Q 947 2416 947 1791 
Q 947 1169 1205 825 
Q 1463 481 1925 481 
Q 2391 481 2648 825 
Q 2906 1169 2906 1791 
z
M 3481 434 
Q 3481 -459 3084 -895 
Q 2688 -1331 1869 -1331 
Q 1566 -1331 1297 -1286 
Q 1028 -1241 775 -1147 
L 775 -588 
Q 1028 -725 1275 -790 
Q 1522 -856 1778 -856 
Q 2344 -856 2625 -561 
Q 2906 -266 2906 331 
L 2906 616 
Q 2728 306 2450 153 
Q 2172 0 1784 0 
Q 1141 0 747 490 
Q 353 981 353 1791 
Q 353 2603 747 3093 
Q 1141 3584 1784 3584 
Q 2172 3584 2450 3431 
Q 2728 3278 2906 2969 
L 2906 3500 
L 3481 3500 
L 3481 434 
z
" id="DejaVuSans-67" transform="scale(0.015625)"/>
       <path d="M 3513 2113 
L 3513 0 
L 2938 0 
L 2938 2094 
Q 2938 2591 2744 2837 
Q 2550 3084 2163 3084 
Q 1697 3084 1428 2787 
Q 1159 2491 1159 1978 
L 1159 0 
L 581 0 
L 581 3500 
L 1159 3500 
L 1159 2956 
Q 1366 3272 1645 3428 
Q 1925 3584 2291 3584 
Q 2894 3584 3203 3211 
Q 3513 2838 3513 2113 
z
" id="DejaVuSans-6e" transform="scale(0.015625)"/>
       <path d="M 544 1381 
L 544 3500 
L 1119 3500 
L 1119 1403 
Q 1119 906 1312 657 
Q 1506 409 1894 409 
Q 2359 409 2629 706 
Q 2900 1003 2900 1516 
L 2900 3500 
L 3475 3500 
L 3475 0 
L 2900 0 
L 2900 538 
Q 2691 219 2414 64 
Q 2138 -91 1772 -91 
Q 1169 -91 856 284 
Q 544 659 544 1381 
z
M 1991 3584 
L 1991 3584 
z
" id="DejaVuSans-75" transform="scale(0.015625)"/>
       <path d="M 3116 1747 
Q 3116 2381 2855 2742 
Q 2594 3103 2138 3103 
Q 1681 3103 1420 2742 
Q 1159 2381 1159 1747 
Q 1159 1113 1420 752 
Q 1681 391 2138 391 
Q 2594 391 2855 752 
Q 3116 1113 3116 1747 
z
M 1159 2969 
Q 1341 3281 1617 3432 
Q 1894 3584 2278 3584 
Q 2916 3584 3314 3078 
Q 3713 2572 3713 1747 
Q 3713 922 3314 415 
Q 2916 -91 2278 -91 
Q 1894 -91 1617 61 
Q 1341 213 1159 525 
L 1159 0 
L 581 0 
L 581 4863 
L 1159 4863 
L 1159 2969 
z
" id="DejaVuSans-62" transform="scale(0.015625)"/>
       <path d="M 2375 4863 
L 2375 4384 
L 1825 4384 
Q 1516 4384 1395 4259 
Q 1275 4134 1275 3809 
L 1275 3500 
L 2222 3500 
L 2222 3053 
L 1275 3053 
L 1275 0 
L 697 0 
L 697 3053 
L 147 3053 
L 147 3500 
L 697 3500 
L 697 3744 
Q 697 4328 969 4595 
Q 1241 4863 1831 4863 
L 2375 4863 
z
" id="DejaVuSans-66" transform="scale(0.015625)"/>
       <path d="M 2834 3397 
L 2834 2853 
Q 2591 2978 2328 3040 
Q 2066 3103 1784 3103 
Q 1356 3103 1142 2972 
Q 928 2841 928 2578 
Q 928 2378 1081 2264 
Q 1234 2150 1697 2047 
L 1894 2003 
Q 2506 1872 2764 1633 
Q 3022 1394 3022 966 
Q 3022 478 2636 193 
Q 2250 -91 1575 -91 
Q 1294 -91 989 -36 
Q 684 19 347 128 
L 347 722 
Q 666 556 975 473 
Q 1284 391 1588 391 
Q 1994 391 2212 530 
Q 2431 669 2431 922 
Q 2431 1156 2273 1281 
Q 2116 1406 1581 1522 
L 1381 1569 
Q 847 1681 609 1914 
Q 372 2147 372 2553 
Q 372 3047 722 3315 
Q 1072 3584 1716 3584 
Q 2034 3584 2315 3537 
Q 2597 3491 2834 3397 
z
" id="DejaVuSans-73" transform="scale(0.015625)"/>
       <path d="M 1625 4666 
L 2156 4666 
L 531 -594 
L 0 -594 
L 1625 4666 
z
" id="DejaVuSans-2f" transform="scale(0.015625)"/>
       <path d="M 353 3500 
L 3084 3500 
L 3084 2975 
L 922 459 
L 3084 459 
L 3084 0 
L 275 0 
L 275 525 
L 2438 3041 
L 353 3041 
L 353 3500 
z
" id="DejaVuSans-7a" transform="scale(0.015625)"/>
      </defs>
      <use xlink:href="#DejaVuSans-41"/>
      <use x="62.533203" xlink:href="#DejaVuSans-76"/>
      <use x="121.712891" xlink:href="#DejaVuSans-67"/>
      <use x="185.189453" xlink:href="#DejaVuSans-2e"/>
      <use x="216.976562" xlink:href="#DejaVuSans-20"/>
      <use x="248.763672" xlink:href="#DejaVuSans-6e"/>
      <use x="312.142578" xlink:href="#DejaVuSans-75"/>
      <use x="375.521484" xlink:href="#DejaVuSans-6d"/>
      <use x="472.933594" xlink:href="#DejaVuSans-62"/>
      <use x="536.410156" xlink:href="#DejaVuSans-65"/>
      <use x="597.933594" xlink:href="#DejaVuSans-72"/>
      <use x="639.046875" xlink:href="#DejaVuSans-20"/>
      <use x="670.833984" xlink:href="#DejaVuSans-6f"/>
      <use x="732.015625" xlink:href="#DejaVuSans-66"/>
      <use x="767.220703" xlink:href="#DejaVuSans-20"/>
      <use x="799.007812" xlink:href="#DejaVuSans-63"/>
      <use x="853.988281" xlink:href="#DejaVuSans-6f"/>
      <use x="915.169922" xlink:href="#DejaVuSans-6d"/>
      <use x="1012.582031" xlink:href="#DejaVuSans-70"/>
      <use x="1076.058594" xlink:href="#DejaVuSans-73"/>
      <use x="1128.158203" xlink:href="#DejaVuSans-20"/>
      <use x="1159.945312" xlink:href="#DejaVuSans-2f"/>
      <use x="1193.636719" xlink:href="#DejaVuSans-20"/>
      <use x="1225.423828" xlink:href="#DejaVuSans-73"/>
      <use x="1277.523438" xlink:href="#DejaVuSans-69"/>
      <use x="1305.306641" xlink:href="#DejaVuSans-7a"/>
      <use x="1357.796875" xlink:href="#DejaVuSans-65"/>
     </g>
    </g>
   </g>
   <g id="line2d_27">
    <path clip-path="url(#p0b95c962a5)" d="M 134.701506 871.696905 
L 162.688966 628.421463 
L 190.676427 584.577762 
L 218.663888 558.675507 
L 246.651349 540.320266 
L 274.63881 525.957812 
L 302.626271 515.308472 
L 330.613731 505.839556 
L 358.601192 498.436571 
L 386.588653 491.245437 
L 414.576114 485.393235 
L 442.563575 480.253554 
L 470.551035 475.294861 
L 498.538496 471.889998 
L 526.525957 468.350252 
L 554.513418 464.551026 
L 582.500879 461.41174 
L 610.48834 458.42677 
L 638.4758 455.91275 
L 666.463261 453.186497 
L 694.450722 451.191437 
L 722.438183 449.364029 
L 750.425644 447.464225 
L 778.413104 445.556039 
L 806.400565 443.933624 
L 834.388026 441.830732 
L 862.375487 441.008856 
L 890.362948 439.26375 
L 918.350409 438.134003 
L 946.337869 436.816409 
" style="fill:none;stroke:#fe0002;stroke-linecap:square;stroke-width:1.5;"/>
    <defs>
     <path d="M 0 4.5 
C 1.193414 4.5 2.338109 4.025852 3.181981 3.181981 
C 4.025852 2.338109 4.5 1.193414 4.5 0 
C 4.5 -1.193414 4.025852 -2.338109 3.181981 -3.181981 
C 2.338109 -4.025852 1.193414 -4.5 0 -4.5 
C -1.193414 -4.5 -2.338109 -4.025852 -3.181981 -3.181981 
C -4.025852 -2.338109 -4.5 -1.193414 -4.5 0 
C -4.5 1.193414 -4.025852 2.338109 -3.181981 3.181981 
C -2.338109 4.025852 -1.193414 4.5 0 4.5 
z
" id="mdec4c7421d" style="stroke:#000000;"/>
    </defs>
    <g clip-path="url(#p0b95c962a5)">
     <use style="fill:#fe0002;stroke:#000000;" x="134.701506" xlink:href="#mdec4c7421d" y="871.696905"/>
     <use style="fill:#fe0002;stroke:#000000;" x="162.688966" xlink:href="#mdec4c7421d" y="628.421463"/>
     <use style="fill:#fe0002;stroke:#000000;" x="190.676427" xlink:href="#mdec4c7421d" y="584.577762"/>
     <use style="fill:#fe0002;stroke:#000000;" x="218.663888" xlink:href="#mdec4c7421d" y="558.675507"/>
     <use style="fill:#fe0002;stroke:#000000;" x="246.651349" xlink:href="#mdec4c7421d" y="540.320266"/>
     <use style="fill:#fe0002;stroke:#000000;" x="274.63881" xlink:href="#mdec4c7421d" y="525.957812"/>
     <use style="fill:#fe0002;stroke:#000000;" x="302.626271" xlink:href="#mdec4c7421d" y="515.308472"/>
     <use style="fill:#fe0002;stroke:#000000;" x="330.613731" xlink:href="#mdec4c7421d" y="505.839556"/>
     <use style="fill:#fe0002;stroke:#000000;" x="358.601192" xlink:href="#mdec4c7421d" y="498.436571"/>
     <use style="fill:#fe0002;stroke:#000000;" x="386.588653" xlink:href="#mdec4c7421d" y="491.245437"/>
     <use style="fill:#fe0002;stroke:#000000;" x="414.576114" xlink:href="#mdec4c7421d" y="485.393235"/>
     <use style="fill:#fe0002;stroke:#000000;" x="442.563575" xlink:href="#mdec4c7421d" y="480.253554"/>
     <use style="fill:#fe0002;stroke:#000000;" x="470.551035" xlink:href="#mdec4c7421d" y="475.294861"/>
     <use style="fill:#fe0002;stroke:#000000;" x="498.538496" xlink:href="#mdec4c7421d" y="471.889998"/>
     <use style="fill:#fe0002;stroke:#000000;" x="526.525957" xlink:href="#mdec4c7421d" y="468.350252"/>
     <use style="fill:#fe0002;stroke:#000000;" x="554.513418" xlink:href="#mdec4c7421d" y="464.551026"/>
     <use style="fill:#fe0002;stroke:#000000;" x="582.500879" xlink:href="#mdec4c7421d" y="461.41174"/>
     <use style="fill:#fe0002;stroke:#000000;" x="610.48834" xlink:href="#mdec4c7421d" y="458.42677"/>
     <use style="fill:#fe0002;stroke:#000000;" x="638.4758" xlink:href="#mdec4c7421d" y="455.91275"/>
     <use style="fill:#fe0002;stroke:#000000;" x="666.463261" xlink:href="#mdec4c7421d" y="453.186497"/>
     <use style="fill:#fe0002;stroke:#000000;" x="694.450722" xlink:href="#mdec4c7421d" y="451.191437"/>
     <use style="fill:#fe0002;stroke:#000000;" x="722.438183" xlink:href="#mdec4c7421d" y="449.364029"/>
     <use style="fill:#fe0002;stroke:#000000;" x="750.425644" xlink:href="#mdec4c7421d" y="447.464225"/>
     <use style="fill:#fe0002;stroke:#000000;" x="778.413104" xlink:href="#mdec4c7421d" y="445.556039"/>
     <use style="fill:#fe0002;stroke:#000000;" x="806.400565" xlink:href="#mdec4c7421d" y="443.933624"/>
     <use style="fill:#fe0002;stroke:#000000;" x="834.388026" xlink:href="#mdec4c7421d" y="441.830732"/>
     <use style="fill:#fe0002;stroke:#000000;" x="862.375487" xlink:href="#mdec4c7421d" y="441.008856"/>
     <use style="fill:#fe0002;stroke:#000000;" x="890.362948" xlink:href="#mdec4c7421d" y="439.26375"/>
     <use style="fill:#fe0002;stroke:#000000;" x="918.350409" xlink:href="#mdec4c7421d" y="438.134003"/>
     <use style="fill:#fe0002;stroke:#000000;" x="946.337869" xlink:href="#mdec4c7421d" y="436.816409"/>
    </g>
   </g>
   <g id="line2d_28">
    <path clip-path="url(#p0b95c962a5)" d="M 134.701506 959.76 
L 162.688966 615.922615 
L 190.676427 554.550884 
L 218.663888 518.650465 
L 246.651349 492.425861 
L 274.63881 473.620626 
L 302.626271 458.750262 
L 330.613731 444.763883 
L 358.601192 434.434606 
L 386.588653 424.622003 
L 414.576114 416.939725 
L 442.563575 409.098177 
L 470.551035 402.480109 
L 498.538496 397.636867 
L 526.525957 392.40574 
L 554.513418 386.969619 
L 582.500879 382.626286 
L 610.48834 378.970707 
L 638.4758 374.754256 
L 666.463261 371.339868 
L 694.450722 367.805075 
L 722.438183 365.15198 
L 750.425644 362.950783 
L 778.413104 360.317883 
L 806.400565 357.570293 
L 834.388026 354.819274 
L 862.375487 353.441097 
L 890.362948 351.829731 
L 918.350409 350.080815 
L 946.337869 347.141568 
" style="fill:none;stroke:#53fca1;stroke-linecap:square;stroke-width:1.5;"/>
    <defs>
     <path d="M 0 -4.5 
L -4.5 4.5 
L 4.5 4.5 
z
" id="m221afc94f8" style="stroke:#000000;stroke-linejoin:miter;"/>
    </defs>
    <g clip-path="url(#p0b95c962a5)">
     <use style="fill:#53fca1;stroke:#000000;stroke-linejoin:miter;" x="134.701506" xlink:href="#m221afc94f8" y="959.76"/>
     <use style="fill:#53fca1;stroke:#000000;stroke-linejoin:miter;" x="162.688966" xlink:href="#m221afc94f8" y="615.922615"/>
     <use style="fill:#53fca1;stroke:#000000;stroke-linejoin:miter;" x="190.676427" xlink:href="#m221afc94f8" y="554.550884"/>
     <use style="fill:#53fca1;stroke:#000000;stroke-linejoin:miter;" x="218.663888" xlink:href="#m221afc94f8" y="518.650465"/>
     <use style="fill:#53fca1;stroke:#000000;stroke-linejoin:miter;" x="246.651349" xlink:href="#m221afc94f8" y="492.425861"/>
     <use style="fill:#53fca1;stroke:#000000;stroke-linejoin:miter;" x="274.63881" xlink:href="#m221afc94f8" y="473.620626"/>
     <use style="fill:#53fca1;stroke:#000000;stroke-linejoin:miter;" x="302.626271" xlink:href="#m221afc94f8" y="458.750262"/>
     <use style="fill:#53fca1;stroke:#000000;stroke-linejoin:miter;" x="330.613731" xlink:href="#m221afc94f8" y="444.763883"/>
     <use style="fill:#53fca1;stroke:#000000;stroke-linejoin:miter;" x="358.601192" xlink:href="#m221afc94f8" y="434.434606"/>
     <use style="fill:#53fca1;stroke:#000000;stroke-linejoin:miter;" x="386.588653" xlink:href="#m221afc94f8" y="424.622003"/>
     <use style="fill:#53fca1;stroke:#000000;stroke-linejoin:miter;" x="414.576114" xlink:href="#m221afc94f8" y="416.939725"/>
     <use style="fill:#53fca1;stroke:#000000;stroke-linejoin:miter;" x="442.563575" xlink:href="#m221afc94f8" y="409.098177"/>
     <use style="fill:#53fca1;stroke:#000000;stroke-linejoin:miter;" x="470.551035" xlink:href="#m221afc94f8" y="402.480109"/>
     <use style="fill:#53fca1;stroke:#000000;stroke-linejoin:miter;" x="498.538496" xlink:href="#m221afc94f8" y="397.636867"/>
     <use style="fill:#53fca1;stroke:#000000;stroke-linejoin:miter;" x="526.525957" xlink:href="#m221afc94f8" y="392.40574"/>
     <use style="fill:#53fca1;stroke:#000000;stroke-linejoin:miter;" x="554.513418" xlink:href="#m221afc94f8" y="386.969619"/>
     <use style="fill:#53fca1;stroke:#000000;stroke-linejoin:miter;" x="582.500879" xlink:href="#m221afc94f8" y="382.626286"/>
     <use style="fill:#53fca1;stroke:#000000;stroke-linejoin:miter;" x="610.48834" xlink:href="#m221afc94f8" y="378.970707"/>
     <use style="fill:#53fca1;stroke:#000000;stroke-linejoin:miter;" x="638.4758" xlink:href="#m221afc94f8" y="374.754256"/>
     <use style="fill:#53fca1;stroke:#000000;stroke-linejoin:miter;" x="666.463261" xlink:href="#m221afc94f8" y="371.339868"/>
     <use style="fill:#53fca1;stroke:#000000;stroke-linejoin:miter;" x="694.450722" xlink:href="#m221afc94f8" y="367.805075"/>
     <use style="fill:#53fca1;stroke:#000000;stroke-linejoin:miter;" x="722.438183" xlink:href="#m221afc94f8" y="365.15198"/>
     <use style="fill:#53fca1;stroke:#000000;stroke-linejoin:miter;" x="750.425644" xlink:href="#m221afc94f8" y="362.950783"/>
     <use style="fill:#53fca1;stroke:#000000;stroke-linejoin:miter;" x="778.413104" xlink:href="#m221afc94f8" y="360.317883"/>
     <use style="fill:#53fca1;stroke:#000000;stroke-linejoin:miter;" x="806.400565" xlink:href="#m221afc94f8" y="357.570293"/>
     <use style="fill:#53fca1;stroke:#000000;stroke-linejoin:miter;" x="834.388026" xlink:href="#m221afc94f8" y="354.819274"/>
     <use style="fill:#53fca1;stroke:#000000;stroke-linejoin:miter;" x="862.375487" xlink:href="#m221afc94f8" y="353.441097"/>
     <use style="fill:#53fca1;stroke:#000000;stroke-linejoin:miter;" x="890.362948" xlink:href="#m221afc94f8" y="351.829731"/>
     <use style="fill:#53fca1;stroke:#000000;stroke-linejoin:miter;" x="918.350409" xlink:href="#m221afc94f8" y="350.080815"/>
     <use style="fill:#53fca1;stroke:#000000;stroke-linejoin:miter;" x="946.337869" xlink:href="#m221afc94f8" y="347.141568"/>
    </g>
   </g>
   <g id="line2d_29">
    <path clip-path="url(#p0b95c962a5)" d="M 134.701506 959.76 
L 162.688966 587.816878 
L 190.676427 512.265586 
L 218.663888 465.812227 
L 246.651349 433.653118 
L 274.63881 408.90652 
L 302.626271 389.950017 
L 330.613731 372.439132 
L 358.601192 359.897228 
L 386.588653 346.421426 
L 414.576114 336.602345 
L 442.563575 325.739249 
L 470.551035 318.59422 
L 498.538496 311.898422 
L 526.525957 304.557163 
L 554.513418 298.82689 
L 582.500879 294.304854 
L 610.48834 289.516862 
L 638.4758 283.080544 
L 666.463261 278.545554 
L 694.450722 274.771475 
L 722.438183 271.684009 
L 750.425644 267.745708 
L 778.413104 264.851041 
L 806.400565 261.874073 
L 834.388026 258.137716 
L 862.375487 256.822409 
L 890.362948 253.926218 
L 918.350409 252.709597 
L 946.337869 248.838738 
" style="fill:none;stroke:#0652ff;stroke-linecap:square;stroke-width:1.5;"/>
    <defs>
     <path d="M 0 -4.5 
L -4.279754 -1.390576 
L -2.645034 3.640576 
L 2.645034 3.640576 
L 4.279754 -1.390576 
z
" id="m9ae1d236f8" style="stroke:#000000;stroke-linejoin:miter;"/>
    </defs>
    <g clip-path="url(#p0b95c962a5)">
     <use style="fill:#0652ff;stroke:#000000;stroke-linejoin:miter;" x="134.701506" xlink:href="#m9ae1d236f8" y="959.76"/>
     <use style="fill:#0652ff;stroke:#000000;stroke-linejoin:miter;" x="162.688966" xlink:href="#m9ae1d236f8" y="587.816878"/>
     <use style="fill:#0652ff;stroke:#000000;stroke-linejoin:miter;" x="190.676427" xlink:href="#m9ae1d236f8" y="512.265586"/>
     <use style="fill:#0652ff;stroke:#000000;stroke-linejoin:miter;" x="218.663888" xlink:href="#m9ae1d236f8" y="465.812227"/>
     <use style="fill:#0652ff;stroke:#000000;stroke-linejoin:miter;" x="246.651349" xlink:href="#m9ae1d236f8" y="433.653118"/>
     <use style="fill:#0652ff;stroke:#000000;stroke-linejoin:miter;" x="274.63881" xlink:href="#m9ae1d236f8" y="408.90652"/>
     <use style="fill:#0652ff;stroke:#000000;stroke-linejoin:miter;" x="302.626271" xlink:href="#m9ae1d236f8" y="389.950017"/>
     <use style="fill:#0652ff;stroke:#000000;stroke-linejoin:miter;" x="330.613731" xlink:href="#m9ae1d236f8" y="372.439132"/>
     <use style="fill:#0652ff;stroke:#000000;stroke-linejoin:miter;" x="358.601192" xlink:href="#m9ae1d236f8" y="359.897228"/>
     <use style="fill:#0652ff;stroke:#000000;stroke-linejoin:miter;" x="386.588653" xlink:href="#m9ae1d236f8" y="346.421426"/>
     <use style="fill:#0652ff;stroke:#000000;stroke-linejoin:miter;" x="414.576114" xlink:href="#m9ae1d236f8" y="336.602345"/>
     <use style="fill:#0652ff;stroke:#000000;stroke-linejoin:miter;" x="442.563575" xlink:href="#m9ae1d236f8" y="325.739249"/>
     <use style="fill:#0652ff;stroke:#000000;stroke-linejoin:miter;" x="470.551035" xlink:href="#m9ae1d236f8" y="318.59422"/>
     <use style="fill:#0652ff;stroke:#000000;stroke-linejoin:miter;" x="498.538496" xlink:href="#m9ae1d236f8" y="311.898422"/>
     <use style="fill:#0652ff;stroke:#000000;stroke-linejoin:miter;" x="526.525957" xlink:href="#m9ae1d236f8" y="304.557163"/>
     <use style="fill:#0652ff;stroke:#000000;stroke-linejoin:miter;" x="554.513418" xlink:href="#m9ae1d236f8" y="298.82689"/>
     <use style="fill:#0652ff;stroke:#000000;stroke-linejoin:miter;" x="582.500879" xlink:href="#m9ae1d236f8" y="294.304854"/>
     <use style="fill:#0652ff;stroke:#000000;stroke-linejoin:miter;" x="610.48834" xlink:href="#m9ae1d236f8" y="289.516862"/>
     <use style="fill:#0652ff;stroke:#000000;stroke-linejoin:miter;" x="638.4758" xlink:href="#m9ae1d236f8" y="283.080544"/>
     <use style="fill:#0652ff;stroke:#000000;stroke-linejoin:miter;" x="666.463261" xlink:href="#m9ae1d236f8" y="278.545554"/>
     <use style="fill:#0652ff;stroke:#000000;stroke-linejoin:miter;" x="694.450722" xlink:href="#m9ae1d236f8" y="274.771475"/>
     <use style="fill:#0652ff;stroke:#000000;stroke-linejoin:miter;" x="722.438183" xlink:href="#m9ae1d236f8" y="271.684009"/>
     <use style="fill:#0652ff;stroke:#000000;stroke-linejoin:miter;" x="750.425644" xlink:href="#m9ae1d236f8" y="267.745708"/>
     <use style="fill:#0652ff;stroke:#000000;stroke-linejoin:miter;" x="778.413104" xlink:href="#m9ae1d236f8" y="264.851041"/>
     <use style="fill:#0652ff;stroke:#000000;stroke-linejoin:miter;" x="806.400565" xlink:href="#m9ae1d236f8" y="261.874073"/>
     <use style="fill:#0652ff;stroke:#000000;stroke-linejoin:miter;" x="834.388026" xlink:href="#m9ae1d236f8" y="258.137716"/>
     <use style="fill:#0652ff;stroke:#000000;stroke-linejoin:miter;" x="862.375487" xlink:href="#m9ae1d236f8" y="256.822409"/>
     <use style="fill:#0652ff;stroke:#000000;stroke-linejoin:miter;" x="890.362948" xlink:href="#m9ae1d236f8" y="253.926218"/>
     <use style="fill:#0652ff;stroke:#000000;stroke-linejoin:miter;" x="918.350409" xlink:href="#m9ae1d236f8" y="252.709597"/>
     <use style="fill:#0652ff;stroke:#000000;stroke-linejoin:miter;" x="946.337869" xlink:href="#m9ae1d236f8" y="248.838738"/>
    </g>
   </g>
   <g id="line2d_30">
    <path clip-path="url(#p0b95c962a5)" d="M 134.701506 831.090796 
L 162.688966 490.973765 
L 190.676427 402.808936 
L 218.663888 347.914292 
L 246.651349 306.646338 
L 274.63881 274.088674 
L 302.626271 249.052876 
L 330.613731 227.09197 
L 358.601192 209.195485 
L 386.588653 192.006569 
L 414.576114 178.013712 
L 442.563575 164.881978 
L 470.551035 154.554987 
L 498.538496 143.682365 
L 526.525957 133.88386 
L 554.513418 125.709675 
L 582.500879 119.212774 
L 610.48834 112.753594 
L 638.4758 104.845748 
L 666.463261 98.072221 
L 694.450722 92.232592 
L 722.438183 87.006036 
L 750.425644 83.265108 
L 778.413104 78.698873 
L 806.400565 73.707793 
L 834.388026 69.255486 
L 862.375487 66.826816 
L 890.362948 62.987201 
L 918.350409 59.296187 
L 946.337869 55.857032 
" style="fill:none;stroke:#ae7181;stroke-linecap:square;stroke-width:1.5;"/>
    <defs>
     <path d="M -4.5 4.5 
L 4.5 4.5 
L 4.5 -4.5 
L -4.5 -4.5 
z
" id="m4a49817ca5" style="stroke:#000000;stroke-linejoin:miter;"/>
    </defs>
    <g clip-path="url(#p0b95c962a5)">
     <use style="fill:#ae7181;stroke:#000000;stroke-linejoin:miter;" x="134.701506" xlink:href="#m4a49817ca5" y="831.090796"/>
     <use style="fill:#ae7181;stroke:#000000;stroke-linejoin:miter;" x="162.688966" xlink:href="#m4a49817ca5" y="490.973765"/>
     <use style="fill:#ae7181;stroke:#000000;stroke-linejoin:miter;" x="190.676427" xlink:href="#m4a49817ca5" y="402.808936"/>
     <use style="fill:#ae7181;stroke:#000000;stroke-linejoin:miter;" x="218.663888" xlink:href="#m4a49817ca5" y="347.914292"/>
     <use style="fill:#ae7181;stroke:#000000;stroke-linejoin:miter;" x="246.651349" xlink:href="#m4a49817ca5" y="306.646338"/>
     <use style="fill:#ae7181;stroke:#000000;stroke-linejoin:miter;" x="274.63881" xlink:href="#m4a49817ca5" y="274.088674"/>
     <use style="fill:#ae7181;stroke:#000000;stroke-linejoin:miter;" x="302.626271" xlink:href="#m4a49817ca5" y="249.052876"/>
     <use style="fill:#ae7181;stroke:#000000;stroke-linejoin:miter;" x="330.613731" xlink:href="#m4a49817ca5" y="227.09197"/>
     <use style="fill:#ae7181;stroke:#000000;stroke-linejoin:miter;" x="358.601192" xlink:href="#m4a49817ca5" y="209.195485"/>
     <use style="fill:#ae7181;stroke:#000000;stroke-linejoin:miter;" x="386.588653" xlink:href="#m4a49817ca5" y="192.006569"/>
     <use style="fill:#ae7181;stroke:#000000;stroke-linejoin:miter;" x="414.576114" xlink:href="#m4a49817ca5" y="178.013712"/>
     <use style="fill:#ae7181;stroke:#000000;stroke-linejoin:miter;" x="442.563575" xlink:href="#m4a49817ca5" y="164.881978"/>
     <use style="fill:#ae7181;stroke:#000000;stroke-linejoin:miter;" x="470.551035" xlink:href="#m4a49817ca5" y="154.554987"/>
     <use style="fill:#ae7181;stroke:#000000;stroke-linejoin:miter;" x="498.538496" xlink:href="#m4a49817ca5" y="143.682365"/>
     <use style="fill:#ae7181;stroke:#000000;stroke-linejoin:miter;" x="526.525957" xlink:href="#m4a49817ca5" y="133.88386"/>
     <use style="fill:#ae7181;stroke:#000000;stroke-linejoin:miter;" x="554.513418" xlink:href="#m4a49817ca5" y="125.709675"/>
     <use style="fill:#ae7181;stroke:#000000;stroke-linejoin:miter;" x="582.500879" xlink:href="#m4a49817ca5" y="119.212774"/>
     <use style="fill:#ae7181;stroke:#000000;stroke-linejoin:miter;" x="610.48834" xlink:href="#m4a49817ca5" y="112.753594"/>
     <use style="fill:#ae7181;stroke:#000000;stroke-linejoin:miter;" x="638.4758" xlink:href="#m4a49817ca5" y="104.845748"/>
     <use style="fill:#ae7181;stroke:#000000;stroke-linejoin:miter;" x="666.463261" xlink:href="#m4a49817ca5" y="98.072221"/>
     <use style="fill:#ae7181;stroke:#000000;stroke-linejoin:miter;" x="694.450722" xlink:href="#m4a49817ca5" y="92.232592"/>
     <use style="fill:#ae7181;stroke:#000000;stroke-linejoin:miter;" x="722.438183" xlink:href="#m4a49817ca5" y="87.006036"/>
     <use style="fill:#ae7181;stroke:#000000;stroke-linejoin:miter;" x="750.425644" xlink:href="#m4a49817ca5" y="83.265108"/>
     <use style="fill:#ae7181;stroke:#000000;stroke-linejoin:miter;" x="778.413104" xlink:href="#m4a49817ca5" y="78.698873"/>
     <use style="fill:#ae7181;stroke:#000000;stroke-linejoin:miter;" x="806.400565" xlink:href="#m4a49817ca5" y="73.707793"/>
     <use style="fill:#ae7181;stroke:#000000;stroke-linejoin:miter;" x="834.388026" xlink:href="#m4a49817ca5" y="69.255486"/>
     <use style="fill:#ae7181;stroke:#000000;stroke-linejoin:miter;" x="862.375487" xlink:href="#m4a49817ca5" y="66.826816"/>
     <use style="fill:#ae7181;stroke:#000000;stroke-linejoin:miter;" x="890.362948" xlink:href="#m4a49817ca5" y="62.987201"/>
     <use style="fill:#ae7181;stroke:#000000;stroke-linejoin:miter;" x="918.350409" xlink:href="#m4a49817ca5" y="59.296187"/>
     <use style="fill:#ae7181;stroke:#000000;stroke-linejoin:miter;" x="946.337869" xlink:href="#m4a49817ca5" y="55.857032"/>
    </g>
   </g>
   <g id="line2d_31">
    <path clip-path="url(#p0b95c962a5)" d="M 134.701506 940.708621 
L 162.688966 571.166354 
L 190.676427 497.295774 
L 218.663888 453.600674 
L 246.651349 422.500822 
L 274.63881 398.148206 
L 302.626271 380.039108 
L 330.613731 364.792671 
L 358.601192 352.38908 
L 386.588653 339.99692 
L 414.576114 329.83339 
L 442.563575 320.710828 
L 470.551035 313.094467 
L 498.538496 306.720257 
L 526.525957 299.919296 
L 554.513418 294.207311 
L 582.500879 289.732904 
L 610.48834 284.749064 
L 638.4758 279.830379 
L 666.463261 274.527237 
L 694.450722 272.04408 
L 722.438183 269.003861 
L 750.425644 266.01127 
L 778.413104 263.192428 
L 806.400565 259.721267 
L 834.388026 256.132368 
L 862.375487 254.700466 
L 890.362948 253.23694 
L 918.350409 250.735112 
L 946.337869 248.31673 
" style="fill:none;stroke:#ff9408;stroke-linecap:square;stroke-width:1.5;"/>
    <defs>
     <path d="M 0 2.25 
C 0.596707 2.25 1.169055 2.012926 1.59099 1.59099 
C 2.012926 1.169055 2.25 0.596707 2.25 0 
C 2.25 -0.596707 2.012926 -1.169055 1.59099 -1.59099 
C 1.169055 -2.012926 0.596707 -2.25 0 -2.25 
C -0.596707 -2.25 -1.169055 -2.012926 -1.59099 -1.59099 
C -2.012926 -1.169055 -2.25 -0.596707 -2.25 0 
C -2.25 0.596707 -2.012926 1.169055 -1.59099 1.59099 
C -1.169055 2.012926 -0.596707 2.25 0 2.25 
z
" id="ma81697f21f" style="stroke:#000000;"/>
    </defs>
    <g clip-path="url(#p0b95c962a5)">
     <use style="fill:#ff9408;stroke:#000000;" x="134.701506" xlink:href="#ma81697f21f" y="940.708621"/>
     <use style="fill:#ff9408;stroke:#000000;" x="162.688966" xlink:href="#ma81697f21f" y="571.166354"/>
     <use style="fill:#ff9408;stroke:#000000;" x="190.676427" xlink:href="#ma81697f21f" y="497.295774"/>
     <use style="fill:#ff9408;stroke:#000000;" x="218.663888" xlink:href="#ma81697f21f" y="453.600674"/>
     <use style="fill:#ff9408;stroke:#000000;" x="246.651349" xlink:href="#ma81697f21f" y="422.500822"/>
     <use style="fill:#ff9408;stroke:#000000;" x="274.63881" xlink:href="#ma81697f21f" y="398.148206"/>
     <use style="fill:#ff9408;stroke:#000000;" x="302.626271" xlink:href="#ma81697f21f" y="380.039108"/>
     <use style="fill:#ff9408;stroke:#000000;" x="330.613731" xlink:href="#ma81697f21f" y="364.792671"/>
     <use style="fill:#ff9408;stroke:#000000;" x="358.601192" xlink:href="#ma81697f21f" y="352.38908"/>
     <use style="fill:#ff9408;stroke:#000000;" x="386.588653" xlink:href="#ma81697f21f" y="339.99692"/>
     <use style="fill:#ff9408;stroke:#000000;" x="414.576114" xlink:href="#ma81697f21f" y="329.83339"/>
     <use style="fill:#ff9408;stroke:#000000;" x="442.563575" xlink:href="#ma81697f21f" y="320.710828"/>
     <use style="fill:#ff9408;stroke:#000000;" x="470.551035" xlink:href="#ma81697f21f" y="313.094467"/>
     <use style="fill:#ff9408;stroke:#000000;" x="498.538496" xlink:href="#ma81697f21f" y="306.720257"/>
     <use style="fill:#ff9408;stroke:#000000;" x="526.525957" xlink:href="#ma81697f21f" y="299.919296"/>
     <use style="fill:#ff9408;stroke:#000000;" x="554.513418" xlink:href="#ma81697f21f" y="294.207311"/>
     <use style="fill:#ff9408;stroke:#000000;" x="582.500879" xlink:href="#ma81697f21f" y="289.732904"/>
     <use style="fill:#ff9408;stroke:#000000;" x="610.48834" xlink:href="#ma81697f21f" y="284.749064"/>
     <use style="fill:#ff9408;stroke:#000000;" x="638.4758" xlink:href="#ma81697f21f" y="279.830379"/>
     <use style="fill:#ff9408;stroke:#000000;" x="666.463261" xlink:href="#ma81697f21f" y="274.527237"/>
     <use style="fill:#ff9408;stroke:#000000;" x="694.450722" xlink:href="#ma81697f21f" y="272.04408"/>
     <use style="fill:#ff9408;stroke:#000000;" x="722.438183" xlink:href="#ma81697f21f" y="269.003861"/>
     <use style="fill:#ff9408;stroke:#000000;" x="750.425644" xlink:href="#ma81697f21f" y="266.01127"/>
     <use style="fill:#ff9408;stroke:#000000;" x="778.413104" xlink:href="#ma81697f21f" y="263.192428"/>
     <use style="fill:#ff9408;stroke:#000000;" x="806.400565" xlink:href="#ma81697f21f" y="259.721267"/>
     <use style="fill:#ff9408;stroke:#000000;" x="834.388026" xlink:href="#ma81697f21f" y="256.132368"/>
     <use style="fill:#ff9408;stroke:#000000;" x="862.375487" xlink:href="#ma81697f21f" y="254.700466"/>
     <use style="fill:#ff9408;stroke:#000000;" x="890.362948" xlink:href="#ma81697f21f" y="253.23694"/>
     <use style="fill:#ff9408;stroke:#000000;" x="918.350409" xlink:href="#ma81697f21f" y="250.735112"/>
     <use style="fill:#ff9408;stroke:#000000;" x="946.337869" xlink:href="#ma81697f21f" y="248.31673"/>
    </g>
   </g>
   <g id="line2d_32">
    <path clip-path="url(#p0b95c962a5)" d="M 134.701506 940.708621 
L 162.688966 601.349454 
L 190.676427 535.551706 
L 218.663888 495.826151 
L 246.651349 467.558858 
L 274.63881 446.420591 
L 302.626271 428.768726 
L 330.613731 414.893987 
L 358.601192 404.168442 
L 386.588653 391.887161 
L 414.576114 383.281653 
L 442.563575 375.3639 
L 470.551035 367.660284 
L 498.538496 362.424965 
L 526.525957 356.40473 
L 554.513418 350.381827 
L 582.500879 345.772917 
L 610.48834 341.79537 
L 638.4758 336.124537 
L 666.463261 333.318649 
L 694.450722 329.465318 
L 722.438183 326.80765 
L 750.425644 323.576917 
L 778.413104 321.153963 
L 806.400565 318.169374 
L 834.388026 315.383681 
L 862.375487 314.106096 
L 890.362948 311.173707 
L 918.350409 309.549387 
L 946.337869 307.428587 
" style="fill:none;stroke:#ff81c0;stroke-linecap:square;stroke-width:1.5;"/>
    <defs>
     <path d="M 4.5 0 
L -4.5 -4.5 
L -4.5 4.5 
z
" id="me8c1d63e75" style="stroke:#000000;stroke-linejoin:miter;"/>
    </defs>
    <g clip-path="url(#p0b95c962a5)">
     <use style="fill:#ff81c0;stroke:#000000;stroke-linejoin:miter;" x="134.701506" xlink:href="#me8c1d63e75" y="940.708621"/>
     <use style="fill:#ff81c0;stroke:#000000;stroke-linejoin:miter;" x="162.688966" xlink:href="#me8c1d63e75" y="601.349454"/>
     <use style="fill:#ff81c0;stroke:#000000;stroke-linejoin:miter;" x="190.676427" xlink:href="#me8c1d63e75" y="535.551706"/>
     <use style="fill:#ff81c0;stroke:#000000;stroke-linejoin:miter;" x="218.663888" xlink:href="#me8c1d63e75" y="495.826151"/>
     <use style="fill:#ff81c0;stroke:#000000;stroke-linejoin:miter;" x="246.651349" xlink:href="#me8c1d63e75" y="467.558858"/>
     <use style="fill:#ff81c0;stroke:#000000;stroke-linejoin:miter;" x="274.63881" xlink:href="#me8c1d63e75" y="446.420591"/>
     <use style="fill:#ff81c0;stroke:#000000;stroke-linejoin:miter;" x="302.626271" xlink:href="#me8c1d63e75" y="428.768726"/>
     <use style="fill:#ff81c0;stroke:#000000;stroke-linejoin:miter;" x="330.613731" xlink:href="#me8c1d63e75" y="414.893987"/>
     <use style="fill:#ff81c0;stroke:#000000;stroke-linejoin:miter;" x="358.601192" xlink:href="#me8c1d63e75" y="404.168442"/>
     <use style="fill:#ff81c0;stroke:#000000;stroke-linejoin:miter;" x="386.588653" xlink:href="#me8c1d63e75" y="391.887161"/>
     <use style="fill:#ff81c0;stroke:#000000;stroke-linejoin:miter;" x="414.576114" xlink:href="#me8c1d63e75" y="383.281653"/>
     <use style="fill:#ff81c0;stroke:#000000;stroke-linejoin:miter;" x="442.563575" xlink:href="#me8c1d63e75" y="375.3639"/>
     <use style="fill:#ff81c0;stroke:#000000;stroke-linejoin:miter;" x="470.551035" xlink:href="#me8c1d63e75" y="367.660284"/>
     <use style="fill:#ff81c0;stroke:#000000;stroke-linejoin:miter;" x="498.538496" xlink:href="#me8c1d63e75" y="362.424965"/>
     <use style="fill:#ff81c0;stroke:#000000;stroke-linejoin:miter;" x="526.525957" xlink:href="#me8c1d63e75" y="356.40473"/>
     <use style="fill:#ff81c0;stroke:#000000;stroke-linejoin:miter;" x="554.513418" xlink:href="#me8c1d63e75" y="350.381827"/>
     <use style="fill:#ff81c0;stroke:#000000;stroke-linejoin:miter;" x="582.500879" xlink:href="#me8c1d63e75" y="345.772917"/>
     <use style="fill:#ff81c0;stroke:#000000;stroke-linejoin:miter;" x="610.48834" xlink:href="#me8c1d63e75" y="341.79537"/>
     <use style="fill:#ff81c0;stroke:#000000;stroke-linejoin:miter;" x="638.4758" xlink:href="#me8c1d63e75" y="336.124537"/>
     <use style="fill:#ff81c0;stroke:#000000;stroke-linejoin:miter;" x="666.463261" xlink:href="#me8c1d63e75" y="333.318649"/>
     <use style="fill:#ff81c0;stroke:#000000;stroke-linejoin:miter;" x="694.450722" xlink:href="#me8c1d63e75" y="329.465318"/>
     <use style="fill:#ff81c0;stroke:#000000;stroke-linejoin:miter;" x="722.438183" xlink:href="#me8c1d63e75" y="326.80765"/>
     <use style="fill:#ff81c0;stroke:#000000;stroke-linejoin:miter;" x="750.425644" xlink:href="#me8c1d63e75" y="323.576917"/>
     <use style="fill:#ff81c0;stroke:#000000;stroke-linejoin:miter;" x="778.413104" xlink:href="#me8c1d63e75" y="321.153963"/>
     <use style="fill:#ff81c0;stroke:#000000;stroke-linejoin:miter;" x="806.400565" xlink:href="#me8c1d63e75" y="318.169374"/>
     <use style="fill:#ff81c0;stroke:#000000;stroke-linejoin:miter;" x="834.388026" xlink:href="#me8c1d63e75" y="315.383681"/>
     <use style="fill:#ff81c0;stroke:#000000;stroke-linejoin:miter;" x="862.375487" xlink:href="#me8c1d63e75" y="314.106096"/>
     <use style="fill:#ff81c0;stroke:#000000;stroke-linejoin:miter;" x="890.362948" xlink:href="#me8c1d63e75" y="311.173707"/>
     <use style="fill:#ff81c0;stroke:#000000;stroke-linejoin:miter;" x="918.350409" xlink:href="#me8c1d63e75" y="309.549387"/>
     <use style="fill:#ff81c0;stroke:#000000;stroke-linejoin:miter;" x="946.337869" xlink:href="#me8c1d63e75" y="307.428587"/>
    </g>
   </g>
   <g id="patch_3">
    <path d="M 94.119688 1005.12 
L 94.119688 7.2 
" style="fill:none;stroke:#000000;stroke-linecap:square;stroke-linejoin:miter;stroke-width:0.8;"/>
   </g>
   <g id="patch_4">
    <path d="M 986.919688 1005.12 
L 986.919688 7.2 
" style="fill:none;stroke:#000000;stroke-linecap:square;stroke-linejoin:miter;stroke-width:0.8;"/>
   </g>
   <g id="patch_5">
    <path d="M 94.119688 1005.12 
L 986.919687 1005.12 
" style="fill:none;stroke:#000000;stroke-linecap:square;stroke-linejoin:miter;stroke-width:0.8;"/>
   </g>
   <g id="patch_6">
    <path d="M 94.119688 7.2 
L 986.919687 7.2 
" style="fill:none;stroke:#000000;stroke-linecap:square;stroke-linejoin:miter;stroke-width:0.8;"/>
   </g>
   <g id="legend_1">
    <g id="patch_7">
     <path d="M 278.679687 985.62 
L 959.619688 985.62 
Q 967.419688 985.62 967.419688 977.82 
L 967.419688 638.251875 
Q 967.419688 630.451875 959.619688 630.451875 
L 278.679687 630.451875 
Q 270.879687 630.451875 270.879687 638.251875 
L 270.879687 977.82 
Q 270.879687 985.62 278.679687 985.62 
z
" style="fill:#ffffff;opacity:0.8;stroke:#cccccc;stroke-linejoin:miter;"/>
    </g>
    <g id="line2d_33">
     <path d="M 286.479687 662.035781 
L 364.479687 662.035781 
" style="fill:none;stroke:#fe0002;stroke-linecap:square;stroke-width:1.5;"/>
    </g>
    <g id="line2d_34">
     <g>
      <use style="fill:#fe0002;stroke:#000000;" x="325.479687" xlink:href="#mdec4c7421d" y="662.035781"/>
     </g>
    </g>
    <g id="text_16">
     <!-- Pairing comparisons -->
     <g transform="translate(395.679687 675.685781)scale(0.39 -0.39)">
      <defs>
       <path d="M 1259 4147 
L 1259 2394 
L 2053 2394 
Q 2494 2394 2734 2622 
Q 2975 2850 2975 3272 
Q 2975 3691 2734 3919 
Q 2494 4147 2053 4147 
L 1259 4147 
z
M 628 4666 
L 2053 4666 
Q 2838 4666 3239 4311 
Q 3641 3956 3641 3272 
Q 3641 2581 3239 2228 
Q 2838 1875 2053 1875 
L 1259 1875 
L 1259 0 
L 628 0 
L 628 4666 
z
" id="DejaVuSans-50" transform="scale(0.015625)"/>
      </defs>
      <use xlink:href="#DejaVuSans-50"/>
      <use x="55.802734" xlink:href="#DejaVuSans-61"/>
      <use x="117.082031" xlink:href="#DejaVuSans-69"/>
      <use x="144.865234" xlink:href="#DejaVuSans-72"/>
      <use x="185.978516" xlink:href="#DejaVuSans-69"/>
      <use x="213.761719" xlink:href="#DejaVuSans-6e"/>
      <use x="277.140625" xlink:href="#DejaVuSans-67"/>
      <use x="340.617188" xlink:href="#DejaVuSans-20"/>
      <use x="372.404297" xlink:href="#DejaVuSans-63"/>
      <use x="427.384766" xlink:href="#DejaVuSans-6f"/>
      <use x="488.566406" xlink:href="#DejaVuSans-6d"/>
      <use x="585.978516" xlink:href="#DejaVuSans-70"/>
      <use x="649.455078" xlink:href="#DejaVuSans-61"/>
      <use x="710.734375" xlink:href="#DejaVuSans-72"/>
      <use x="751.847656" xlink:href="#DejaVuSans-69"/>
      <use x="779.630859" xlink:href="#DejaVuSans-73"/>
      <use x="831.730469" xlink:href="#DejaVuSans-6f"/>
      <use x="892.912109" xlink:href="#DejaVuSans-6e"/>
      <use x="956.291016" xlink:href="#DejaVuSans-73"/>
     </g>
    </g>
    <g id="line2d_35">
     <path d="M 286.479687 719.280469 
L 364.479687 719.280469 
" style="fill:none;stroke:#53fca1;stroke-linecap:square;stroke-width:1.5;"/>
    </g>
    <g id="line2d_36">
     <g>
      <use style="fill:#53fca1;stroke:#000000;stroke-linejoin:miter;" x="325.479687" xlink:href="#m221afc94f8" y="719.280469"/>
     </g>
    </g>
    <g id="text_17">
     <!-- Smooth comparisons -->
     <g transform="translate(395.679687 732.930469)scale(0.39 -0.39)">
      <defs>
       <path d="M 3425 4513 
L 3425 3897 
Q 3066 4069 2747 4153 
Q 2428 4238 2131 4238 
Q 1616 4238 1336 4038 
Q 1056 3838 1056 3469 
Q 1056 3159 1242 3001 
Q 1428 2844 1947 2747 
L 2328 2669 
Q 3034 2534 3370 2195 
Q 3706 1856 3706 1288 
Q 3706 609 3251 259 
Q 2797 -91 1919 -91 
Q 1588 -91 1214 -16 
Q 841 59 441 206 
L 441 856 
Q 825 641 1194 531 
Q 1563 422 1919 422 
Q 2459 422 2753 634 
Q 3047 847 3047 1241 
Q 3047 1584 2836 1778 
Q 2625 1972 2144 2069 
L 1759 2144 
Q 1053 2284 737 2584 
Q 422 2884 422 3419 
Q 422 4038 858 4394 
Q 1294 4750 2059 4750 
Q 2388 4750 2728 4690 
Q 3069 4631 3425 4513 
z
" id="DejaVuSans-53" transform="scale(0.015625)"/>
       <path d="M 3513 2113 
L 3513 0 
L 2938 0 
L 2938 2094 
Q 2938 2591 2744 2837 
Q 2550 3084 2163 3084 
Q 1697 3084 1428 2787 
Q 1159 2491 1159 1978 
L 1159 0 
L 581 0 
L 581 4863 
L 1159 4863 
L 1159 2956 
Q 1366 3272 1645 3428 
Q 1925 3584 2291 3584 
Q 2894 3584 3203 3211 
Q 3513 2838 3513 2113 
z
" id="DejaVuSans-68" transform="scale(0.015625)"/>
      </defs>
      <use xlink:href="#DejaVuSans-53"/>
      <use x="63.476562" xlink:href="#DejaVuSans-6d"/>
      <use x="160.888672" xlink:href="#DejaVuSans-6f"/>
      <use x="222.070312" xlink:href="#DejaVuSans-6f"/>
      <use x="283.251953" xlink:href="#DejaVuSans-74"/>
      <use x="322.460938" xlink:href="#DejaVuSans-68"/>
      <use x="385.839844" xlink:href="#DejaVuSans-20"/>
      <use x="417.626953" xlink:href="#DejaVuSans-63"/>
      <use x="472.607422" xlink:href="#DejaVuSans-6f"/>
      <use x="533.789062" xlink:href="#DejaVuSans-6d"/>
      <use x="631.201172" xlink:href="#DejaVuSans-70"/>
      <use x="694.677734" xlink:href="#DejaVuSans-61"/>
      <use x="755.957031" xlink:href="#DejaVuSans-72"/>
      <use x="797.070312" xlink:href="#DejaVuSans-69"/>
      <use x="824.853516" xlink:href="#DejaVuSans-73"/>
      <use x="876.953125" xlink:href="#DejaVuSans-6f"/>
      <use x="938.134766" xlink:href="#DejaVuSans-6e"/>
      <use x="1001.513672" xlink:href="#DejaVuSans-73"/>
     </g>
    </g>
    <g id="line2d_37">
     <path d="M 286.479687 776.525156 
L 364.479687 776.525156 
" style="fill:none;stroke:#0652ff;stroke-linecap:square;stroke-width:1.5;"/>
    </g>
    <g id="line2d_38">
     <g>
      <use style="fill:#0652ff;stroke:#000000;stroke-linejoin:miter;" x="325.479687" xlink:href="#m9ae1d236f8" y="776.525156"/>
     </g>
    </g>
    <g id="text_18">
     <!-- Slim comparisons -->
     <g transform="translate(395.679687 790.175156)scale(0.39 -0.39)">
      <use xlink:href="#DejaVuSans-53"/>
      <use x="63.476562" xlink:href="#DejaVuSans-6c"/>
      <use x="91.259766" xlink:href="#DejaVuSans-69"/>
      <use x="119.042969" xlink:href="#DejaVuSans-6d"/>
      <use x="216.455078" xlink:href="#DejaVuSans-20"/>
      <use x="248.242188" xlink:href="#DejaVuSans-63"/>
      <use x="303.222656" xlink:href="#DejaVuSans-6f"/>
      <use x="364.404297" xlink:href="#DejaVuSans-6d"/>
      <use x="461.816406" xlink:href="#DejaVuSans-70"/>
      <use x="525.292969" xlink:href="#DejaVuSans-61"/>
      <use x="586.572266" xlink:href="#DejaVuSans-72"/>
      <use x="627.685547" xlink:href="#DejaVuSans-69"/>
      <use x="655.46875" xlink:href="#DejaVuSans-73"/>
      <use x="707.568359" xlink:href="#DejaVuSans-6f"/>
      <use x="768.75" xlink:href="#DejaVuSans-6e"/>
      <use x="832.128906" xlink:href="#DejaVuSans-73"/>
     </g>
    </g>
    <g id="line2d_39">
     <path d="M 286.479687 833.769844 
L 364.479687 833.769844 
" style="fill:none;stroke:#ae7181;stroke-linecap:square;stroke-width:1.5;"/>
    </g>
    <g id="line2d_40">
     <g>
      <use style="fill:#ae7181;stroke:#000000;stroke-linejoin:miter;" x="325.479687" xlink:href="#m4a49817ca5" y="833.769844"/>
     </g>
    </g>
    <g id="text_19">
     <!-- Pairing Lazy comparisons -->
     <g transform="translate(395.679687 847.419844)scale(0.39 -0.39)">
      <use xlink:href="#DejaVuSans-50"/>
      <use x="55.802734" xlink:href="#DejaVuSans-61"/>
      <use x="117.082031" xlink:href="#DejaVuSans-69"/>
      <use x="144.865234" xlink:href="#DejaVuSans-72"/>
      <use x="185.978516" xlink:href="#DejaVuSans-69"/>
      <use x="213.761719" xlink:href="#DejaVuSans-6e"/>
      <use x="277.140625" xlink:href="#DejaVuSans-67"/>
      <use x="340.617188" xlink:href="#DejaVuSans-20"/>
      <use x="372.404297" xlink:href="#DejaVuSans-4c"/>
      <use x="428.117188" xlink:href="#DejaVuSans-61"/>
      <use x="489.396484" xlink:href="#DejaVuSans-7a"/>
      <use x="541.886719" xlink:href="#DejaVuSans-79"/>
      <use x="601.066406" xlink:href="#DejaVuSans-20"/>
      <use x="632.853516" xlink:href="#DejaVuSans-63"/>
      <use x="687.833984" xlink:href="#DejaVuSans-6f"/>
      <use x="749.015625" xlink:href="#DejaVuSans-6d"/>
      <use x="846.427734" xlink:href="#DejaVuSans-70"/>
      <use x="909.904297" xlink:href="#DejaVuSans-61"/>
      <use x="971.183594" xlink:href="#DejaVuSans-72"/>
      <use x="1012.296875" xlink:href="#DejaVuSans-69"/>
      <use x="1040.080078" xlink:href="#DejaVuSans-73"/>
      <use x="1092.179688" xlink:href="#DejaVuSans-6f"/>
      <use x="1153.361328" xlink:href="#DejaVuSans-6e"/>
      <use x="1216.740234" xlink:href="#DejaVuSans-73"/>
     </g>
    </g>
    <g id="line2d_41">
     <path d="M 286.479687 891.014531 
L 364.479687 891.014531 
" style="fill:none;stroke:#ff9408;stroke-linecap:square;stroke-width:1.5;"/>
    </g>
    <g id="line2d_42">
     <g>
      <use style="fill:#ff9408;stroke:#000000;" x="325.479687" xlink:href="#ma81697f21f" y="891.014531"/>
     </g>
    </g>
    <g id="text_20">
     <!-- Pairing Slim comparisons -->
     <g transform="translate(395.679687 904.664531)scale(0.39 -0.39)">
      <use xlink:href="#DejaVuSans-50"/>
      <use x="55.802734" xlink:href="#DejaVuSans-61"/>
      <use x="117.082031" xlink:href="#DejaVuSans-69"/>
      <use x="144.865234" xlink:href="#DejaVuSans-72"/>
      <use x="185.978516" xlink:href="#DejaVuSans-69"/>
      <use x="213.761719" xlink:href="#DejaVuSans-6e"/>
      <use x="277.140625" xlink:href="#DejaVuSans-67"/>
      <use x="340.617188" xlink:href="#DejaVuSans-20"/>
      <use x="372.404297" xlink:href="#DejaVuSans-53"/>
      <use x="435.880859" xlink:href="#DejaVuSans-6c"/>
      <use x="463.664062" xlink:href="#DejaVuSans-69"/>
      <use x="491.447266" xlink:href="#DejaVuSans-6d"/>
      <use x="588.859375" xlink:href="#DejaVuSans-20"/>
      <use x="620.646484" xlink:href="#DejaVuSans-63"/>
      <use x="675.626953" xlink:href="#DejaVuSans-6f"/>
      <use x="736.808594" xlink:href="#DejaVuSans-6d"/>
      <use x="834.220703" xlink:href="#DejaVuSans-70"/>
      <use x="897.697266" xlink:href="#DejaVuSans-61"/>
      <use x="958.976562" xlink:href="#DejaVuSans-72"/>
      <use x="1000.089844" xlink:href="#DejaVuSans-69"/>
      <use x="1027.873047" xlink:href="#DejaVuSans-73"/>
      <use x="1079.972656" xlink:href="#DejaVuSans-6f"/>
      <use x="1141.154297" xlink:href="#DejaVuSans-6e"/>
      <use x="1204.533203" xlink:href="#DejaVuSans-73"/>
     </g>
    </g>
    <g id="line2d_43">
     <path d="M 286.479687 948.259219 
L 364.479687 948.259219 
" style="fill:none;stroke:#ff81c0;stroke-linecap:square;stroke-width:1.5;"/>
    </g>
    <g id="line2d_44">
     <g>
      <use style="fill:#ff81c0;stroke:#000000;stroke-linejoin:miter;" x="325.479687" xlink:href="#me8c1d63e75" y="948.259219"/>
     </g>
    </g>
    <g id="text_21">
     <!-- Pairing Smooth comparisons -->
     <g transform="translate(395.679687 961.909219)scale(0.39 -0.39)">
      <use xlink:href="#DejaVuSans-50"/>
      <use x="55.802734" xlink:href="#DejaVuSans-61"/>
      <use x="117.082031" xlink:href="#DejaVuSans-69"/>
      <use x="144.865234" xlink:href="#DejaVuSans-72"/>
      <use x="185.978516" xlink:href="#DejaVuSans-69"/>
      <use x="213.761719" xlink:href="#DejaVuSans-6e"/>
      <use x="277.140625" xlink:href="#DejaVuSans-67"/>
      <use x="340.617188" xlink:href="#DejaVuSans-20"/>
      <use x="372.404297" xlink:href="#DejaVuSans-53"/>
      <use x="435.880859" xlink:href="#DejaVuSans-6d"/>
      <use x="533.292969" xlink:href="#DejaVuSans-6f"/>
      <use x="594.474609" xlink:href="#DejaVuSans-6f"/>
      <use x="655.65625" xlink:href="#DejaVuSans-74"/>
      <use x="694.865234" xlink:href="#DejaVuSans-68"/>
      <use x="758.244141" xlink:href="#DejaVuSans-20"/>
      <use x="790.03125" xlink:href="#DejaVuSans-63"/>
      <use x="845.011719" xlink:href="#DejaVuSans-6f"/>
      <use x="906.193359" xlink:href="#DejaVuSans-6d"/>
      <use x="1003.605469" xlink:href="#DejaVuSans-70"/>
      <use x="1067.082031" xlink:href="#DejaVuSans-61"/>
      <use x="1128.361328" xlink:href="#DejaVuSans-72"/>
      <use x="1169.474609" xlink:href="#DejaVuSans-69"/>
      <use x="1197.257812" xlink:href="#DejaVuSans-73"/>
      <use x="1249.357422" xlink:href="#DejaVuSans-6f"/>
      <use x="1310.539062" xlink:href="#DejaVuSans-6e"/>
      <use x="1373.917969" xlink:href="#DejaVuSans-73"/>
     </g>
    </g>
   </g>
  </g>
 </g>
 <defs>
  <clipPath id="p0b95c962a5">
   <rect height="997.92" width="892.8" x="94.119688" y="7.2"/>
  </clipPath>
 </defs>
</svg>
