<?xml version="1.0" encoding="utf-8" standalone="no"?>
<!DOCTYPE svg PUBLIC "-//W3C//DTD SVG 1.1//EN"
  "http://www.w3.org/Graphics/SVG/1.1/DTD/svg11.dtd">
<!-- Created with matplotlib (https://matplotlib.org/) -->
<svg height="1067.839375pt" version="1.1" viewBox="0 0 978.484393 1067.839375" width="978.484393pt" xmlns="http://www.w3.org/2000/svg" xmlns:xlink="http://www.w3.org/1999/xlink">
 <defs>
  <style type="text/css">
*{stroke-linecap:butt;stroke-linejoin:round;}
  </style>
 </defs>
 <g id="figure_1">
  <g id="patch_1">
   <path d="M 0 1067.839375 
L 978.484393 1067.839375 
L 978.484393 0 
L 0 0 
z
" style="fill:#ffffff;"/>
  </g>
  <g id="axes_1">
   <g id="patch_2">
    <path d="M 68.813125 1005.12 
L 961.613125 1005.12 
L 961.613125 7.2 
L 68.813125 7.2 
z
" style="fill:#ffffff;"/>
   </g>
   <g id="PolyCollection_1">
    <defs>
     <path d="M 109.394943 -238.274889 
L 109.394943 -238.274889 
L 137.382404 -596.075957 
L 165.369865 -661.145548 
L 193.357326 -700.499384 
L 221.344786 -725.871511 
L 249.332247 -747.3567 
L 277.319708 -763.586074 
L 305.307169 -777.488918 
L 333.29463 -788.361077 
L 361.282091 -799.329001 
L 389.269551 -808.646385 
L 417.257012 -815.434443 
L 445.244473 -821.518346 
L 473.231934 -827.010758 
L 501.219395 -833.843882 
L 529.206855 -838.147679 
L 557.194316 -843.656991 
L 585.181777 -845.786357 
L 613.169238 -850.704178 
L 641.156699 -856.207857 
L 669.144159 -857.323239 
L 697.13162 -861.108778 
L 725.119081 -862.65792 
L 753.106542 -866.657523 
L 781.094003 -867.829237 
L 809.081464 -872.403431 
L 837.068924 -873.175185 
L 865.056385 -874.949656 
L 893.043846 -876.476265 
L 921.031307 -879.185855 
L 921.031307 -882.830563 
L 921.031307 -882.830563 
L 893.043846 -881.687015 
L 865.056385 -878.830961 
L 837.068924 -877.101555 
L 809.081464 -874.865158 
L 781.094003 -872.014737 
L 753.106542 -870.133234 
L 725.119081 -867.43491 
L 697.13162 -864.70842 
L 669.144159 -861.249609 
L 641.156699 -858.652684 
L 613.169238 -854.495351 
L 585.181777 -851.4196 
L 557.194316 -846.270816 
L 529.206855 -842.462744 
L 501.219395 -838.491307 
L 473.231934 -830.373804 
L 445.244473 -826.109439 
L 417.257012 -819.61431 
L 389.269551 -811.136279 
L 361.282091 -801.182338 
L 333.29463 -791.538226 
L 305.307169 -780.378771 
L 277.319708 -767.878605 
L 249.332247 -751.181673 
L 221.344786 -729.668317 
L 193.357326 -703.608935 
L 165.369865 -664.204399 
L 137.382404 -599.962895 
L 109.394943 -238.274889 
z
" id="m092f3572ec" style="stroke:#fe4d4e;stroke-opacity:0.3;"/>
    </defs>
    <g clip-path="url(#p5cf37d5ae6)">
     <use style="fill:#fe4d4e;fill-opacity:0.3;stroke:#fe4d4e;stroke-opacity:0.3;" x="0" xlink:href="#m092f3572ec" y="1067.839375"/>
    </g>
   </g>
   <g id="PolyCollection_2">
    <g clip-path="url(#p5cf37d5ae6)">
     <use style="fill:#fe4d4e;fill-opacity:0.3;stroke:#fe4d4e;stroke-opacity:0.3;" x="0" xlink:href="#m092f3572ec" y="1067.839375"/>
    </g>
   </g>
   <g id="PolyCollection_3">
    <defs>
     <path d="M 109.394943 -108.079375 
L 109.394943 -108.079375 
L 137.382404 -613.967137 
L 165.369865 -703.085043 
L 193.357326 -757.58667 
L 221.344786 -794.495679 
L 249.332247 -825.213753 
L 277.319708 -847.977689 
L 305.307169 -866.353327 
L 333.29463 -882.222173 
L 361.282091 -896.953104 
L 389.269551 -909.227941 
L 417.257012 -919.688873 
L 445.244473 -928.273935 
L 473.231934 -935.354922 
L 501.219395 -946.750973 
L 529.206855 -951.049137 
L 557.194316 -958.197723 
L 585.181777 -964.506955 
L 613.169238 -970.951385 
L 641.156699 -973.700408 
L 669.144159 -979.857542 
L 697.13162 -980.916592 
L 725.119081 -987.563819 
L 753.106542 -991.670453 
L 781.094003 -991.428224 
L 809.081464 -999.725991 
L 837.068924 -1001.173734 
L 865.056385 -1005.302901 
L 893.043846 -1006.728112 
L 921.031307 -1010.333388 
L 921.031307 -1015.279375 
L 921.031307 -1015.279375 
L 893.043846 -1012.704983 
L 865.056385 -1008.057557 
L 837.068924 -1007.882927 
L 809.081464 -1003.314367 
L 781.094003 -1000.492112 
L 753.106542 -998.993669 
L 725.119081 -993.112563 
L 697.13162 -989.327024 
L 669.144159 -985.344321 
L 641.156699 -982.212238 
L 613.169238 -975.052386 
L 585.181777 -970.675356 
L 557.194316 -963.769 
L 529.206855 -960.873513 
L 501.219395 -950.159085 
L 473.231934 -942.328877 
L 445.244473 -933.721282 
L 417.257012 -926.414965 
L 389.269551 -913.20501 
L 361.282091 -901.96669 
L 333.29463 -885.96828 
L 305.307169 -871.462679 
L 277.319708 -852.884243 
L 249.332247 -829.286588 
L 221.344786 -801.469634 
L 193.357326 -762.915718 
L 165.369865 -710.734987 
L 137.382404 -618.727228 
L 109.394943 -108.079375 
z
" id="mb5ce13b59b" style="stroke:#58ab8e;stroke-opacity:0.3;"/>
    </defs>
    <g clip-path="url(#p5cf37d5ae6)">
     <use style="fill:#58ab8e;fill-opacity:0.3;stroke:#58ab8e;stroke-opacity:0.3;" x="0" xlink:href="#mb5ce13b59b" y="1067.839375"/>
    </g>
   </g>
   <g id="PolyCollection_4">
    <defs>
     <path d="M 109.394943 -108.079375 
L 109.394943 -108.079375 
L 137.382404 -406.151167 
L 165.369865 -452.957783 
L 193.357326 -481.597191 
L 221.344786 -500.660086 
L 249.332247 -516.286702 
L 277.319708 -527.440524 
L 305.307169 -536.712842 
L 333.29463 -545.5683 
L 361.282091 -552.457756 
L 389.269551 -558.586725 
L 417.257012 -564.039704 
L 445.244473 -568.906826 
L 473.231934 -572.083975 
L 501.219395 -578.111545 
L 529.206855 -579.626887 
L 557.194316 -583.502559 
L 585.181777 -586.583943 
L 613.169238 -590.206118 
L 641.156699 -591.912991 
L 669.144159 -594.48175 
L 697.13162 -594.65638 
L 725.119081 -598.441919 
L 753.106542 -600.481153 
L 781.094003 -600.757182 
L 809.081464 -604.22726 
L 837.068924 -604.700452 
L 865.056385 -607.415676 
L 893.043846 -607.78747 
L 921.031307 -610.0464 
L 921.031307 -612.248998 
L 921.031307 -612.248998 
L 893.043846 -611.184315 
L 865.056385 -609.00425 
L 837.068924 -608.531058 
L 809.081464 -606.71152 
L 781.094003 -605.072247 
L 753.106542 -604.097695 
L 725.119081 -601.050111 
L 697.13162 -598.977077 
L 669.144159 -597.213872 
L 641.156699 -595.918226 
L 613.169238 -592.414349 
L 585.181777 -590.318783 
L 557.194316 -586.426212 
L 529.206855 -584.606674 
L 501.219395 -579.581822 
L 473.231934 -575.661084 
L 445.244473 -571.509384 
L 417.257012 -567.306985 
L 389.269551 -560.862555 
L 361.282091 -555.398309 
L 333.29463 -546.863946 
L 305.307169 -539.884357 
L 277.319708 -529.947317 
L 249.332247 -518.179472 
L 221.344786 -503.409108 
L 193.357326 -483.692758 
L 165.369865 -456.805288 
L 137.382404 -408.877656 
L 109.394943 -108.079375 
z
" id="m9e9ada3ebe" style="stroke:#58ab8e;stroke-opacity:0.3;"/>
    </defs>
    <g clip-path="url(#p5cf37d5ae6)">
     <use style="fill:#58ab8e;fill-opacity:0.3;stroke:#58ab8e;stroke-opacity:0.3;" x="0" xlink:href="#m9e9ada3ebe" y="1067.839375"/>
    </g>
   </g>
   <g id="matplotlib.axis_1">
    <g id="xtick_1">
     <g id="line2d_1">
      <path clip-path="url(#p5cf37d5ae6)" d="M 109.394943 1005.12 
L 109.394943 7.2 
" style="fill:none;stroke:#b0b0b0;stroke-linecap:square;stroke-width:0.8;"/>
     </g>
     <g id="line2d_2">
      <defs>
       <path d="M 0 0 
L 0 3.5 
" id="m452366937e" style="stroke:#000000;stroke-width:0.8;"/>
      </defs>
      <g>
       <use style="stroke:#000000;stroke-width:0.8;" x="109.394943" xlink:href="#m452366937e" y="1005.12"/>
      </g>
     </g>
     <g id="text_1">
      <!-- 0.00 -->
      <defs>
       <path d="M 31.78125 66.40625 
Q 24.171875 66.40625 20.328125 58.90625 
Q 16.5 51.421875 16.5 36.375 
Q 16.5 21.390625 20.328125 13.890625 
Q 24.171875 6.390625 31.78125 6.390625 
Q 39.453125 6.390625 43.28125 13.890625 
Q 47.125 21.390625 47.125 36.375 
Q 47.125 51.421875 43.28125 58.90625 
Q 39.453125 66.40625 31.78125 66.40625 
z
M 31.78125 74.21875 
Q 44.046875 74.21875 50.515625 64.515625 
Q 56.984375 54.828125 56.984375 36.375 
Q 56.984375 17.96875 50.515625 8.265625 
Q 44.046875 -1.421875 31.78125 -1.421875 
Q 19.53125 -1.421875 13.0625 8.265625 
Q 6.59375 17.96875 6.59375 36.375 
Q 6.59375 54.828125 13.0625 64.515625 
Q 19.53125 74.21875 31.78125 74.21875 
z
" id="DejaVuSans-48"/>
       <path d="M 10.6875 12.40625 
L 21 12.40625 
L 21 0 
L 10.6875 0 
z
" id="DejaVuSans-46"/>
      </defs>
      <g transform="translate(87.129318 1027.316875)scale(0.2 -0.2)">
       <use xlink:href="#DejaVuSans-48"/>
       <use x="63.623047" xlink:href="#DejaVuSans-46"/>
       <use x="95.410156" xlink:href="#DejaVuSans-48"/>
       <use x="159.033203" xlink:href="#DejaVuSans-48"/>
      </g>
     </g>
    </g>
    <g id="xtick_2">
     <g id="line2d_3">
      <path clip-path="url(#p5cf37d5ae6)" d="M 249.332247 1005.12 
L 249.332247 7.2 
" style="fill:none;stroke:#b0b0b0;stroke-linecap:square;stroke-width:0.8;"/>
     </g>
     <g id="line2d_4">
      <g>
       <use style="stroke:#000000;stroke-width:0.8;" x="249.332247" xlink:href="#m452366937e" y="1005.12"/>
      </g>
     </g>
     <g id="text_2">
      <!-- 0.05 -->
      <defs>
       <path d="M 10.796875 72.90625 
L 49.515625 72.90625 
L 49.515625 64.59375 
L 19.828125 64.59375 
L 19.828125 46.734375 
Q 21.96875 47.46875 24.109375 47.828125 
Q 26.265625 48.1875 28.421875 48.1875 
Q 40.625 48.1875 47.75 41.5 
Q 54.890625 34.8125 54.890625 23.390625 
Q 54.890625 11.625 47.5625 5.09375 
Q 40.234375 -1.421875 26.90625 -1.421875 
Q 22.3125 -1.421875 17.546875 -0.640625 
Q 12.796875 0.140625 7.71875 1.703125 
L 7.71875 11.625 
Q 12.109375 9.234375 16.796875 8.0625 
Q 21.484375 6.890625 26.703125 6.890625 
Q 35.15625 6.890625 40.078125 11.328125 
Q 45.015625 15.765625 45.015625 23.390625 
Q 45.015625 31 40.078125 35.4375 
Q 35.15625 39.890625 26.703125 39.890625 
Q 22.75 39.890625 18.8125 39.015625 
Q 14.890625 38.140625 10.796875 36.28125 
z
" id="DejaVuSans-53"/>
      </defs>
      <g transform="translate(227.066622 1027.316875)scale(0.2 -0.2)">
       <use xlink:href="#DejaVuSans-48"/>
       <use x="63.623047" xlink:href="#DejaVuSans-46"/>
       <use x="95.410156" xlink:href="#DejaVuSans-48"/>
       <use x="159.033203" xlink:href="#DejaVuSans-53"/>
      </g>
     </g>
    </g>
    <g id="xtick_3">
     <g id="line2d_5">
      <path clip-path="url(#p5cf37d5ae6)" d="M 389.269551 1005.12 
L 389.269551 7.2 
" style="fill:none;stroke:#b0b0b0;stroke-linecap:square;stroke-width:0.8;"/>
     </g>
     <g id="line2d_6">
      <g>
       <use style="stroke:#000000;stroke-width:0.8;" x="389.269551" xlink:href="#m452366937e" y="1005.12"/>
      </g>
     </g>
     <g id="text_3">
      <!-- 0.10 -->
      <defs>
       <path d="M 12.40625 8.296875 
L 28.515625 8.296875 
L 28.515625 63.921875 
L 10.984375 60.40625 
L 10.984375 69.390625 
L 28.421875 72.90625 
L 38.28125 72.90625 
L 38.28125 8.296875 
L 54.390625 8.296875 
L 54.390625 0 
L 12.40625 0 
z
" id="DejaVuSans-49"/>
      </defs>
      <g transform="translate(367.003926 1027.316875)scale(0.2 -0.2)">
       <use xlink:href="#DejaVuSans-48"/>
       <use x="63.623047" xlink:href="#DejaVuSans-46"/>
       <use x="95.410156" xlink:href="#DejaVuSans-49"/>
       <use x="159.033203" xlink:href="#DejaVuSans-48"/>
      </g>
     </g>
    </g>
    <g id="xtick_4">
     <g id="line2d_7">
      <path clip-path="url(#p5cf37d5ae6)" d="M 529.206855 1005.12 
L 529.206855 7.2 
" style="fill:none;stroke:#b0b0b0;stroke-linecap:square;stroke-width:0.8;"/>
     </g>
     <g id="line2d_8">
      <g>
       <use style="stroke:#000000;stroke-width:0.8;" x="529.206855" xlink:href="#m452366937e" y="1005.12"/>
      </g>
     </g>
     <g id="text_4">
      <!-- 0.15 -->
      <g transform="translate(506.94123 1027.316875)scale(0.2 -0.2)">
       <use xlink:href="#DejaVuSans-48"/>
       <use x="63.623047" xlink:href="#DejaVuSans-46"/>
       <use x="95.410156" xlink:href="#DejaVuSans-49"/>
       <use x="159.033203" xlink:href="#DejaVuSans-53"/>
      </g>
     </g>
    </g>
    <g id="xtick_5">
     <g id="line2d_9">
      <path clip-path="url(#p5cf37d5ae6)" d="M 669.144159 1005.12 
L 669.144159 7.2 
" style="fill:none;stroke:#b0b0b0;stroke-linecap:square;stroke-width:0.8;"/>
     </g>
     <g id="line2d_10">
      <g>
       <use style="stroke:#000000;stroke-width:0.8;" x="669.144159" xlink:href="#m452366937e" y="1005.12"/>
      </g>
     </g>
     <g id="text_5">
      <!-- 0.20 -->
      <defs>
       <path d="M 19.1875 8.296875 
L 53.609375 8.296875 
L 53.609375 0 
L 7.328125 0 
L 7.328125 8.296875 
Q 12.9375 14.109375 22.625 23.890625 
Q 32.328125 33.6875 34.8125 36.53125 
Q 39.546875 41.84375 41.421875 45.53125 
Q 43.3125 49.21875 43.3125 52.78125 
Q 43.3125 58.59375 39.234375 62.25 
Q 35.15625 65.921875 28.609375 65.921875 
Q 23.96875 65.921875 18.8125 64.3125 
Q 13.671875 62.703125 7.8125 59.421875 
L 7.8125 69.390625 
Q 13.765625 71.78125 18.9375 73 
Q 24.125 74.21875 28.421875 74.21875 
Q 39.75 74.21875 46.484375 68.546875 
Q 53.21875 62.890625 53.21875 53.421875 
Q 53.21875 48.921875 51.53125 44.890625 
Q 49.859375 40.875 45.40625 35.40625 
Q 44.1875 33.984375 37.640625 27.21875 
Q 31.109375 20.453125 19.1875 8.296875 
z
" id="DejaVuSans-50"/>
      </defs>
      <g transform="translate(646.878534 1027.316875)scale(0.2 -0.2)">
       <use xlink:href="#DejaVuSans-48"/>
       <use x="63.623047" xlink:href="#DejaVuSans-46"/>
       <use x="95.410156" xlink:href="#DejaVuSans-50"/>
       <use x="159.033203" xlink:href="#DejaVuSans-48"/>
      </g>
     </g>
    </g>
    <g id="xtick_6">
     <g id="line2d_11">
      <path clip-path="url(#p5cf37d5ae6)" d="M 809.081464 1005.12 
L 809.081464 7.2 
" style="fill:none;stroke:#b0b0b0;stroke-linecap:square;stroke-width:0.8;"/>
     </g>
     <g id="line2d_12">
      <g>
       <use style="stroke:#000000;stroke-width:0.8;" x="809.081464" xlink:href="#m452366937e" y="1005.12"/>
      </g>
     </g>
     <g id="text_6">
      <!-- 0.25 -->
      <g transform="translate(786.815839 1027.316875)scale(0.2 -0.2)">
       <use xlink:href="#DejaVuSans-48"/>
       <use x="63.623047" xlink:href="#DejaVuSans-46"/>
       <use x="95.410156" xlink:href="#DejaVuSans-50"/>
       <use x="159.033203" xlink:href="#DejaVuSans-53"/>
      </g>
     </g>
    </g>
    <g id="xtick_7">
     <g id="line2d_13">
      <path clip-path="url(#p5cf37d5ae6)" d="M 949.018768 1005.12 
L 949.018768 7.2 
" style="fill:none;stroke:#b0b0b0;stroke-linecap:square;stroke-width:0.8;"/>
     </g>
     <g id="line2d_14">
      <g>
       <use style="stroke:#000000;stroke-width:0.8;" x="949.018768" xlink:href="#m452366937e" y="1005.12"/>
      </g>
     </g>
     <g id="text_7">
      <!-- 0.30 -->
      <defs>
       <path d="M 40.578125 39.3125 
Q 47.65625 37.796875 51.625 33 
Q 55.609375 28.21875 55.609375 21.1875 
Q 55.609375 10.40625 48.1875 4.484375 
Q 40.765625 -1.421875 27.09375 -1.421875 
Q 22.515625 -1.421875 17.65625 -0.515625 
Q 12.796875 0.390625 7.625 2.203125 
L 7.625 11.71875 
Q 11.71875 9.328125 16.59375 8.109375 
Q 21.484375 6.890625 26.8125 6.890625 
Q 36.078125 6.890625 40.9375 10.546875 
Q 45.796875 14.203125 45.796875 21.1875 
Q 45.796875 27.640625 41.28125 31.265625 
Q 36.765625 34.90625 28.71875 34.90625 
L 20.21875 34.90625 
L 20.21875 43.015625 
L 29.109375 43.015625 
Q 36.375 43.015625 40.234375 45.921875 
Q 44.09375 48.828125 44.09375 54.296875 
Q 44.09375 59.90625 40.109375 62.90625 
Q 36.140625 65.921875 28.71875 65.921875 
Q 24.65625 65.921875 20.015625 65.03125 
Q 15.375 64.15625 9.8125 62.3125 
L 9.8125 71.09375 
Q 15.4375 72.65625 20.34375 73.4375 
Q 25.25 74.21875 29.59375 74.21875 
Q 40.828125 74.21875 47.359375 69.109375 
Q 53.90625 64.015625 53.90625 55.328125 
Q 53.90625 49.265625 50.4375 45.09375 
Q 46.96875 40.921875 40.578125 39.3125 
z
" id="DejaVuSans-51"/>
      </defs>
      <g transform="translate(926.753143 1027.316875)scale(0.2 -0.2)">
       <use xlink:href="#DejaVuSans-48"/>
       <use x="63.623047" xlink:href="#DejaVuSans-46"/>
       <use x="95.410156" xlink:href="#DejaVuSans-51"/>
       <use x="159.033203" xlink:href="#DejaVuSans-48"/>
      </g>
     </g>
    </g>
    <g id="text_8">
     <!-- Locality parameter -->
     <defs>
      <path d="M 9.8125 72.90625 
L 19.671875 72.90625 
L 19.671875 8.296875 
L 55.171875 8.296875 
L 55.171875 0 
L 9.8125 0 
z
" id="DejaVuSans-76"/>
      <path d="M 30.609375 48.390625 
Q 23.390625 48.390625 19.1875 42.75 
Q 14.984375 37.109375 14.984375 27.296875 
Q 14.984375 17.484375 19.15625 11.84375 
Q 23.34375 6.203125 30.609375 6.203125 
Q 37.796875 6.203125 41.984375 11.859375 
Q 46.1875 17.53125 46.1875 27.296875 
Q 46.1875 37.015625 41.984375 42.703125 
Q 37.796875 48.390625 30.609375 48.390625 
z
M 30.609375 56 
Q 42.328125 56 49.015625 48.375 
Q 55.71875 40.765625 55.71875 27.296875 
Q 55.71875 13.875 49.015625 6.21875 
Q 42.328125 -1.421875 30.609375 -1.421875 
Q 18.84375 -1.421875 12.171875 6.21875 
Q 5.515625 13.875 5.515625 27.296875 
Q 5.515625 40.765625 12.171875 48.375 
Q 18.84375 56 30.609375 56 
z
" id="DejaVuSans-111"/>
      <path d="M 48.78125 52.59375 
L 48.78125 44.1875 
Q 44.96875 46.296875 41.140625 47.34375 
Q 37.3125 48.390625 33.40625 48.390625 
Q 24.65625 48.390625 19.8125 42.84375 
Q 14.984375 37.3125 14.984375 27.296875 
Q 14.984375 17.28125 19.8125 11.734375 
Q 24.65625 6.203125 33.40625 6.203125 
Q 37.3125 6.203125 41.140625 7.25 
Q 44.96875 8.296875 48.78125 10.40625 
L 48.78125 2.09375 
Q 45.015625 0.34375 40.984375 -0.53125 
Q 36.96875 -1.421875 32.421875 -1.421875 
Q 20.0625 -1.421875 12.78125 6.34375 
Q 5.515625 14.109375 5.515625 27.296875 
Q 5.515625 40.671875 12.859375 48.328125 
Q 20.21875 56 33.015625 56 
Q 37.15625 56 41.109375 55.140625 
Q 45.0625 54.296875 48.78125 52.59375 
z
" id="DejaVuSans-99"/>
      <path d="M 34.28125 27.484375 
Q 23.390625 27.484375 19.1875 25 
Q 14.984375 22.515625 14.984375 16.5 
Q 14.984375 11.71875 18.140625 8.90625 
Q 21.296875 6.109375 26.703125 6.109375 
Q 34.1875 6.109375 38.703125 11.40625 
Q 43.21875 16.703125 43.21875 25.484375 
L 43.21875 27.484375 
z
M 52.203125 31.203125 
L 52.203125 0 
L 43.21875 0 
L 43.21875 8.296875 
Q 40.140625 3.328125 35.546875 0.953125 
Q 30.953125 -1.421875 24.3125 -1.421875 
Q 15.921875 -1.421875 10.953125 3.296875 
Q 6 8.015625 6 15.921875 
Q 6 25.140625 12.171875 29.828125 
Q 18.359375 34.515625 30.609375 34.515625 
L 43.21875 34.515625 
L 43.21875 35.40625 
Q 43.21875 41.609375 39.140625 45 
Q 35.0625 48.390625 27.6875 48.390625 
Q 23 48.390625 18.546875 47.265625 
Q 14.109375 46.140625 10.015625 43.890625 
L 10.015625 52.203125 
Q 14.9375 54.109375 19.578125 55.046875 
Q 24.21875 56 28.609375 56 
Q 40.484375 56 46.34375 49.84375 
Q 52.203125 43.703125 52.203125 31.203125 
z
" id="DejaVuSans-97"/>
      <path d="M 9.421875 75.984375 
L 18.40625 75.984375 
L 18.40625 0 
L 9.421875 0 
z
" id="DejaVuSans-108"/>
      <path d="M 9.421875 54.6875 
L 18.40625 54.6875 
L 18.40625 0 
L 9.421875 0 
z
M 9.421875 75.984375 
L 18.40625 75.984375 
L 18.40625 64.59375 
L 9.421875 64.59375 
z
" id="DejaVuSans-105"/>
      <path d="M 18.3125 70.21875 
L 18.3125 54.6875 
L 36.8125 54.6875 
L 36.8125 47.703125 
L 18.3125 47.703125 
L 18.3125 18.015625 
Q 18.3125 11.328125 20.140625 9.421875 
Q 21.96875 7.515625 27.59375 7.515625 
L 36.8125 7.515625 
L 36.8125 0 
L 27.59375 0 
Q 17.1875 0 13.234375 3.875 
Q 9.28125 7.765625 9.28125 18.015625 
L 9.28125 47.703125 
L 2.6875 47.703125 
L 2.6875 54.6875 
L 9.28125 54.6875 
L 9.28125 70.21875 
z
" id="DejaVuSans-116"/>
      <path d="M 32.171875 -5.078125 
Q 28.375 -14.84375 24.75 -17.8125 
Q 21.140625 -20.796875 15.09375 -20.796875 
L 7.90625 -20.796875 
L 7.90625 -13.28125 
L 13.1875 -13.28125 
Q 16.890625 -13.28125 18.9375 -11.515625 
Q 21 -9.765625 23.484375 -3.21875 
L 25.09375 0.875 
L 2.984375 54.6875 
L 12.5 54.6875 
L 29.59375 11.921875 
L 46.6875 54.6875 
L 56.203125 54.6875 
z
" id="DejaVuSans-121"/>
      <path id="DejaVuSans-32"/>
      <path d="M 18.109375 8.203125 
L 18.109375 -20.796875 
L 9.078125 -20.796875 
L 9.078125 54.6875 
L 18.109375 54.6875 
L 18.109375 46.390625 
Q 20.953125 51.265625 25.265625 53.625 
Q 29.59375 56 35.59375 56 
Q 45.5625 56 51.78125 48.09375 
Q 58.015625 40.1875 58.015625 27.296875 
Q 58.015625 14.40625 51.78125 6.484375 
Q 45.5625 -1.421875 35.59375 -1.421875 
Q 29.59375 -1.421875 25.265625 0.953125 
Q 20.953125 3.328125 18.109375 8.203125 
z
M 48.6875 27.296875 
Q 48.6875 37.203125 44.609375 42.84375 
Q 40.53125 48.484375 33.40625 48.484375 
Q 26.265625 48.484375 22.1875 42.84375 
Q 18.109375 37.203125 18.109375 27.296875 
Q 18.109375 17.390625 22.1875 11.75 
Q 26.265625 6.109375 33.40625 6.109375 
Q 40.53125 6.109375 44.609375 11.75 
Q 48.6875 17.390625 48.6875 27.296875 
z
" id="DejaVuSans-112"/>
      <path d="M 41.109375 46.296875 
Q 39.59375 47.171875 37.8125 47.578125 
Q 36.03125 48 33.890625 48 
Q 26.265625 48 22.1875 43.046875 
Q 18.109375 38.09375 18.109375 28.8125 
L 18.109375 0 
L 9.078125 0 
L 9.078125 54.6875 
L 18.109375 54.6875 
L 18.109375 46.1875 
Q 20.953125 51.171875 25.484375 53.578125 
Q 30.03125 56 36.53125 56 
Q 37.453125 56 38.578125 55.875 
Q 39.703125 55.765625 41.0625 55.515625 
z
" id="DejaVuSans-114"/>
      <path d="M 52 44.1875 
Q 55.375 50.25 60.0625 53.125 
Q 64.75 56 71.09375 56 
Q 79.640625 56 84.28125 50.015625 
Q 88.921875 44.046875 88.921875 33.015625 
L 88.921875 0 
L 79.890625 0 
L 79.890625 32.71875 
Q 79.890625 40.578125 77.09375 44.375 
Q 74.3125 48.1875 68.609375 48.1875 
Q 61.625 48.1875 57.5625 43.546875 
Q 53.515625 38.921875 53.515625 30.90625 
L 53.515625 0 
L 44.484375 0 
L 44.484375 32.71875 
Q 44.484375 40.625 41.703125 44.40625 
Q 38.921875 48.1875 33.109375 48.1875 
Q 26.21875 48.1875 22.15625 43.53125 
Q 18.109375 38.875 18.109375 30.90625 
L 18.109375 0 
L 9.078125 0 
L 9.078125 54.6875 
L 18.109375 54.6875 
L 18.109375 46.1875 
Q 21.1875 51.21875 25.484375 53.609375 
Q 29.78125 56 35.6875 56 
Q 41.65625 56 45.828125 52.96875 
Q 50 49.953125 52 44.1875 
z
" id="DejaVuSans-109"/>
      <path d="M 56.203125 29.59375 
L 56.203125 25.203125 
L 14.890625 25.203125 
Q 15.484375 15.921875 20.484375 11.0625 
Q 25.484375 6.203125 34.421875 6.203125 
Q 39.59375 6.203125 44.453125 7.46875 
Q 49.3125 8.734375 54.109375 11.28125 
L 54.109375 2.78125 
Q 49.265625 0.734375 44.1875 -0.34375 
Q 39.109375 -1.421875 33.890625 -1.421875 
Q 20.796875 -1.421875 13.15625 6.1875 
Q 5.515625 13.8125 5.515625 26.8125 
Q 5.515625 40.234375 12.765625 48.109375 
Q 20.015625 56 32.328125 56 
Q 43.359375 56 49.78125 48.890625 
Q 56.203125 41.796875 56.203125 29.59375 
z
M 47.21875 32.234375 
Q 47.125 39.59375 43.09375 43.984375 
Q 39.0625 48.390625 32.421875 48.390625 
Q 24.90625 48.390625 20.390625 44.140625 
Q 15.875 39.890625 15.1875 32.171875 
z
" id="DejaVuSans-101"/>
     </defs>
     <g transform="translate(392.350937 1055.232188)scale(0.26 -0.26)">
      <use xlink:href="#DejaVuSans-76"/>
      <use x="53.962891" xlink:href="#DejaVuSans-111"/>
      <use x="115.144531" xlink:href="#DejaVuSans-99"/>
      <use x="170.125" xlink:href="#DejaVuSans-97"/>
      <use x="231.404297" xlink:href="#DejaVuSans-108"/>
      <use x="259.1875" xlink:href="#DejaVuSans-105"/>
      <use x="286.970703" xlink:href="#DejaVuSans-116"/>
      <use x="326.179688" xlink:href="#DejaVuSans-121"/>
      <use x="385.359375" xlink:href="#DejaVuSans-32"/>
      <use x="417.146484" xlink:href="#DejaVuSans-112"/>
      <use x="480.623047" xlink:href="#DejaVuSans-97"/>
      <use x="541.902344" xlink:href="#DejaVuSans-114"/>
      <use x="583.015625" xlink:href="#DejaVuSans-97"/>
      <use x="644.294922" xlink:href="#DejaVuSans-109"/>
      <use x="741.707031" xlink:href="#DejaVuSans-101"/>
      <use x="803.230469" xlink:href="#DejaVuSans-116"/>
      <use x="842.439453" xlink:href="#DejaVuSans-101"/>
      <use x="903.962891" xlink:href="#DejaVuSans-114"/>
     </g>
    </g>
   </g>
   <g id="matplotlib.axis_2">
    <g id="ytick_1">
     <g id="line2d_15">
      <path clip-path="url(#p5cf37d5ae6)" d="M 68.813125 903.416303 
L 961.613125 903.416303 
" style="fill:none;stroke:#b0b0b0;stroke-linecap:square;stroke-width:0.8;"/>
     </g>
     <g id="line2d_16">
      <defs>
       <path d="M 0 0 
L -3.5 0 
" id="m1a89c52516" style="stroke:#000000;stroke-width:0.8;"/>
      </defs>
      <g>
       <use style="stroke:#000000;stroke-width:0.8;" x="68.813125" xlink:href="#m1a89c52516" y="903.416303"/>
      </g>
     </g>
     <g id="text_9">
      <!-- 2 -->
      <g transform="translate(49.088125 911.01474)scale(0.2 -0.2)">
       <use xlink:href="#DejaVuSans-50"/>
      </g>
     </g>
    </g>
    <g id="ytick_2">
     <g id="line2d_17">
      <path clip-path="url(#p5cf37d5ae6)" d="M 68.813125 790.751441 
L 961.613125 790.751441 
" style="fill:none;stroke:#b0b0b0;stroke-linecap:square;stroke-width:0.8;"/>
     </g>
     <g id="line2d_18">
      <g>
       <use style="stroke:#000000;stroke-width:0.8;" x="68.813125" xlink:href="#m1a89c52516" y="790.751441"/>
      </g>
     </g>
     <g id="text_10">
      <!-- 4 -->
      <defs>
       <path d="M 37.796875 64.3125 
L 12.890625 25.390625 
L 37.796875 25.390625 
z
M 35.203125 72.90625 
L 47.609375 72.90625 
L 47.609375 25.390625 
L 58.015625 25.390625 
L 58.015625 17.1875 
L 47.609375 17.1875 
L 47.609375 0 
L 37.796875 0 
L 37.796875 17.1875 
L 4.890625 17.1875 
L 4.890625 26.703125 
z
" id="DejaVuSans-52"/>
      </defs>
      <g transform="translate(49.088125 798.349878)scale(0.2 -0.2)">
       <use xlink:href="#DejaVuSans-52"/>
      </g>
     </g>
    </g>
    <g id="ytick_3">
     <g id="line2d_19">
      <path clip-path="url(#p5cf37d5ae6)" d="M 68.813125 678.086579 
L 961.613125 678.086579 
" style="fill:none;stroke:#b0b0b0;stroke-linecap:square;stroke-width:0.8;"/>
     </g>
     <g id="line2d_20">
      <g>
       <use style="stroke:#000000;stroke-width:0.8;" x="68.813125" xlink:href="#m1a89c52516" y="678.086579"/>
      </g>
     </g>
     <g id="text_11">
      <!-- 6 -->
      <defs>
       <path d="M 33.015625 40.375 
Q 26.375 40.375 22.484375 35.828125 
Q 18.609375 31.296875 18.609375 23.390625 
Q 18.609375 15.53125 22.484375 10.953125 
Q 26.375 6.390625 33.015625 6.390625 
Q 39.65625 6.390625 43.53125 10.953125 
Q 47.40625 15.53125 47.40625 23.390625 
Q 47.40625 31.296875 43.53125 35.828125 
Q 39.65625 40.375 33.015625 40.375 
z
M 52.59375 71.296875 
L 52.59375 62.3125 
Q 48.875 64.0625 45.09375 64.984375 
Q 41.3125 65.921875 37.59375 65.921875 
Q 27.828125 65.921875 22.671875 59.328125 
Q 17.53125 52.734375 16.796875 39.40625 
Q 19.671875 43.65625 24.015625 45.921875 
Q 28.375 48.1875 33.59375 48.1875 
Q 44.578125 48.1875 50.953125 41.515625 
Q 57.328125 34.859375 57.328125 23.390625 
Q 57.328125 12.15625 50.6875 5.359375 
Q 44.046875 -1.421875 33.015625 -1.421875 
Q 20.359375 -1.421875 13.671875 8.265625 
Q 6.984375 17.96875 6.984375 36.375 
Q 6.984375 53.65625 15.1875 63.9375 
Q 23.390625 74.21875 37.203125 74.21875 
Q 40.921875 74.21875 44.703125 73.484375 
Q 48.484375 72.75 52.59375 71.296875 
z
" id="DejaVuSans-54"/>
      </defs>
      <g transform="translate(49.088125 685.685017)scale(0.2 -0.2)">
       <use xlink:href="#DejaVuSans-54"/>
      </g>
     </g>
    </g>
    <g id="ytick_4">
     <g id="line2d_21">
      <path clip-path="url(#p5cf37d5ae6)" d="M 68.813125 565.421717 
L 961.613125 565.421717 
" style="fill:none;stroke:#b0b0b0;stroke-linecap:square;stroke-width:0.8;"/>
     </g>
     <g id="line2d_22">
      <g>
       <use style="stroke:#000000;stroke-width:0.8;" x="68.813125" xlink:href="#m1a89c52516" y="565.421717"/>
      </g>
     </g>
     <g id="text_12">
      <!-- 8 -->
      <defs>
       <path d="M 31.78125 34.625 
Q 24.75 34.625 20.71875 30.859375 
Q 16.703125 27.09375 16.703125 20.515625 
Q 16.703125 13.921875 20.71875 10.15625 
Q 24.75 6.390625 31.78125 6.390625 
Q 38.8125 6.390625 42.859375 10.171875 
Q 46.921875 13.96875 46.921875 20.515625 
Q 46.921875 27.09375 42.890625 30.859375 
Q 38.875 34.625 31.78125 34.625 
z
M 21.921875 38.8125 
Q 15.578125 40.375 12.03125 44.71875 
Q 8.5 49.078125 8.5 55.328125 
Q 8.5 64.0625 14.71875 69.140625 
Q 20.953125 74.21875 31.78125 74.21875 
Q 42.671875 74.21875 48.875 69.140625 
Q 55.078125 64.0625 55.078125 55.328125 
Q 55.078125 49.078125 51.53125 44.71875 
Q 48 40.375 41.703125 38.8125 
Q 48.828125 37.15625 52.796875 32.3125 
Q 56.78125 27.484375 56.78125 20.515625 
Q 56.78125 9.90625 50.3125 4.234375 
Q 43.84375 -1.421875 31.78125 -1.421875 
Q 19.734375 -1.421875 13.25 4.234375 
Q 6.78125 9.90625 6.78125 20.515625 
Q 6.78125 27.484375 10.78125 32.3125 
Q 14.796875 37.15625 21.921875 38.8125 
z
M 18.3125 54.390625 
Q 18.3125 48.734375 21.84375 45.5625 
Q 25.390625 42.390625 31.78125 42.390625 
Q 38.140625 42.390625 41.71875 45.5625 
Q 45.3125 48.734375 45.3125 54.390625 
Q 45.3125 60.0625 41.71875 63.234375 
Q 38.140625 66.40625 31.78125 66.40625 
Q 25.390625 66.40625 21.84375 63.234375 
Q 18.3125 60.0625 18.3125 54.390625 
z
" id="DejaVuSans-56"/>
      </defs>
      <g transform="translate(49.088125 573.020155)scale(0.2 -0.2)">
       <use xlink:href="#DejaVuSans-56"/>
      </g>
     </g>
    </g>
    <g id="ytick_5">
     <g id="line2d_23">
      <path clip-path="url(#p5cf37d5ae6)" d="M 68.813125 452.756856 
L 961.613125 452.756856 
" style="fill:none;stroke:#b0b0b0;stroke-linecap:square;stroke-width:0.8;"/>
     </g>
     <g id="line2d_24">
      <g>
       <use style="stroke:#000000;stroke-width:0.8;" x="68.813125" xlink:href="#m1a89c52516" y="452.756856"/>
      </g>
     </g>
     <g id="text_13">
      <!-- 10 -->
      <g transform="translate(36.363125 460.355293)scale(0.2 -0.2)">
       <use xlink:href="#DejaVuSans-49"/>
       <use x="63.623047" xlink:href="#DejaVuSans-48"/>
      </g>
     </g>
    </g>
    <g id="ytick_6">
     <g id="line2d_25">
      <path clip-path="url(#p5cf37d5ae6)" d="M 68.813125 340.091994 
L 961.613125 340.091994 
" style="fill:none;stroke:#b0b0b0;stroke-linecap:square;stroke-width:0.8;"/>
     </g>
     <g id="line2d_26">
      <g>
       <use style="stroke:#000000;stroke-width:0.8;" x="68.813125" xlink:href="#m1a89c52516" y="340.091994"/>
      </g>
     </g>
     <g id="text_14">
      <!-- 12 -->
      <g transform="translate(36.363125 347.690431)scale(0.2 -0.2)">
       <use xlink:href="#DejaVuSans-49"/>
       <use x="63.623047" xlink:href="#DejaVuSans-50"/>
      </g>
     </g>
    </g>
    <g id="ytick_7">
     <g id="line2d_27">
      <path clip-path="url(#p5cf37d5ae6)" d="M 68.813125 227.427132 
L 961.613125 227.427132 
" style="fill:none;stroke:#b0b0b0;stroke-linecap:square;stroke-width:0.8;"/>
     </g>
     <g id="line2d_28">
      <g>
       <use style="stroke:#000000;stroke-width:0.8;" x="68.813125" xlink:href="#m1a89c52516" y="227.427132"/>
      </g>
     </g>
     <g id="text_15">
      <!-- 14 -->
      <g transform="translate(36.363125 235.025569)scale(0.2 -0.2)">
       <use xlink:href="#DejaVuSans-49"/>
       <use x="63.623047" xlink:href="#DejaVuSans-52"/>
      </g>
     </g>
    </g>
    <g id="ytick_8">
     <g id="line2d_29">
      <path clip-path="url(#p5cf37d5ae6)" d="M 68.813125 114.76227 
L 961.613125 114.76227 
" style="fill:none;stroke:#b0b0b0;stroke-linecap:square;stroke-width:0.8;"/>
     </g>
     <g id="line2d_30">
      <g>
       <use style="stroke:#000000;stroke-width:0.8;" x="68.813125" xlink:href="#m1a89c52516" y="114.76227"/>
      </g>
     </g>
     <g id="text_16">
      <!-- 16 -->
      <g transform="translate(36.363125 122.360708)scale(0.2 -0.2)">
       <use xlink:href="#DejaVuSans-49"/>
       <use x="63.623047" xlink:href="#DejaVuSans-54"/>
      </g>
     </g>
    </g>
    <g id="text_17">
     <!-- Avg. number of operations / size -->
     <defs>
      <path d="M 34.1875 63.1875 
L 20.796875 26.90625 
L 47.609375 26.90625 
z
M 28.609375 72.90625 
L 39.796875 72.90625 
L 67.578125 0 
L 57.328125 0 
L 50.6875 18.703125 
L 17.828125 18.703125 
L 11.1875 0 
L 0.78125 0 
z
" id="DejaVuSans-65"/>
      <path d="M 2.984375 54.6875 
L 12.5 54.6875 
L 29.59375 8.796875 
L 46.6875 54.6875 
L 56.203125 54.6875 
L 35.6875 0 
L 23.484375 0 
z
" id="DejaVuSans-118"/>
      <path d="M 45.40625 27.984375 
Q 45.40625 37.75 41.375 43.109375 
Q 37.359375 48.484375 30.078125 48.484375 
Q 22.859375 48.484375 18.828125 43.109375 
Q 14.796875 37.75 14.796875 27.984375 
Q 14.796875 18.265625 18.828125 12.890625 
Q 22.859375 7.515625 30.078125 7.515625 
Q 37.359375 7.515625 41.375 12.890625 
Q 45.40625 18.265625 45.40625 27.984375 
z
M 54.390625 6.78125 
Q 54.390625 -7.171875 48.1875 -13.984375 
Q 42 -20.796875 29.203125 -20.796875 
Q 24.46875 -20.796875 20.265625 -20.09375 
Q 16.0625 -19.390625 12.109375 -17.921875 
L 12.109375 -9.1875 
Q 16.0625 -11.328125 19.921875 -12.34375 
Q 23.78125 -13.375 27.78125 -13.375 
Q 36.625 -13.375 41.015625 -8.765625 
Q 45.40625 -4.15625 45.40625 5.171875 
L 45.40625 9.625 
Q 42.625 4.78125 38.28125 2.390625 
Q 33.9375 0 27.875 0 
Q 17.828125 0 11.671875 7.65625 
Q 5.515625 15.328125 5.515625 27.984375 
Q 5.515625 40.671875 11.671875 48.328125 
Q 17.828125 56 27.875 56 
Q 33.9375 56 38.28125 53.609375 
Q 42.625 51.21875 45.40625 46.390625 
L 45.40625 54.6875 
L 54.390625 54.6875 
z
" id="DejaVuSans-103"/>
      <path d="M 54.890625 33.015625 
L 54.890625 0 
L 45.90625 0 
L 45.90625 32.71875 
Q 45.90625 40.484375 42.875 44.328125 
Q 39.84375 48.1875 33.796875 48.1875 
Q 26.515625 48.1875 22.3125 43.546875 
Q 18.109375 38.921875 18.109375 30.90625 
L 18.109375 0 
L 9.078125 0 
L 9.078125 54.6875 
L 18.109375 54.6875 
L 18.109375 46.1875 
Q 21.34375 51.125 25.703125 53.5625 
Q 30.078125 56 35.796875 56 
Q 45.21875 56 50.046875 50.171875 
Q 54.890625 44.34375 54.890625 33.015625 
z
" id="DejaVuSans-110"/>
      <path d="M 8.5 21.578125 
L 8.5 54.6875 
L 17.484375 54.6875 
L 17.484375 21.921875 
Q 17.484375 14.15625 20.5 10.265625 
Q 23.53125 6.390625 29.59375 6.390625 
Q 36.859375 6.390625 41.078125 11.03125 
Q 45.3125 15.671875 45.3125 23.6875 
L 45.3125 54.6875 
L 54.296875 54.6875 
L 54.296875 0 
L 45.3125 0 
L 45.3125 8.40625 
Q 42.046875 3.421875 37.71875 1 
Q 33.40625 -1.421875 27.6875 -1.421875 
Q 18.265625 -1.421875 13.375 4.4375 
Q 8.5 10.296875 8.5 21.578125 
z
M 31.109375 56 
z
" id="DejaVuSans-117"/>
      <path d="M 48.6875 27.296875 
Q 48.6875 37.203125 44.609375 42.84375 
Q 40.53125 48.484375 33.40625 48.484375 
Q 26.265625 48.484375 22.1875 42.84375 
Q 18.109375 37.203125 18.109375 27.296875 
Q 18.109375 17.390625 22.1875 11.75 
Q 26.265625 6.109375 33.40625 6.109375 
Q 40.53125 6.109375 44.609375 11.75 
Q 48.6875 17.390625 48.6875 27.296875 
z
M 18.109375 46.390625 
Q 20.953125 51.265625 25.265625 53.625 
Q 29.59375 56 35.59375 56 
Q 45.5625 56 51.78125 48.09375 
Q 58.015625 40.1875 58.015625 27.296875 
Q 58.015625 14.40625 51.78125 6.484375 
Q 45.5625 -1.421875 35.59375 -1.421875 
Q 29.59375 -1.421875 25.265625 0.953125 
Q 20.953125 3.328125 18.109375 8.203125 
L 18.109375 0 
L 9.078125 0 
L 9.078125 75.984375 
L 18.109375 75.984375 
z
" id="DejaVuSans-98"/>
      <path d="M 37.109375 75.984375 
L 37.109375 68.5 
L 28.515625 68.5 
Q 23.6875 68.5 21.796875 66.546875 
Q 19.921875 64.59375 19.921875 59.515625 
L 19.921875 54.6875 
L 34.71875 54.6875 
L 34.71875 47.703125 
L 19.921875 47.703125 
L 19.921875 0 
L 10.890625 0 
L 10.890625 47.703125 
L 2.296875 47.703125 
L 2.296875 54.6875 
L 10.890625 54.6875 
L 10.890625 58.5 
Q 10.890625 67.625 15.140625 71.796875 
Q 19.390625 75.984375 28.609375 75.984375 
z
" id="DejaVuSans-102"/>
      <path d="M 44.28125 53.078125 
L 44.28125 44.578125 
Q 40.484375 46.53125 36.375 47.5 
Q 32.28125 48.484375 27.875 48.484375 
Q 21.1875 48.484375 17.84375 46.4375 
Q 14.5 44.390625 14.5 40.28125 
Q 14.5 37.15625 16.890625 35.375 
Q 19.28125 33.59375 26.515625 31.984375 
L 29.59375 31.296875 
Q 39.15625 29.25 43.1875 25.515625 
Q 47.21875 21.78125 47.21875 15.09375 
Q 47.21875 7.46875 41.1875 3.015625 
Q 35.15625 -1.421875 24.609375 -1.421875 
Q 20.21875 -1.421875 15.453125 -0.5625 
Q 10.6875 0.296875 5.421875 2 
L 5.421875 11.28125 
Q 10.40625 8.6875 15.234375 7.390625 
Q 20.0625 6.109375 24.8125 6.109375 
Q 31.15625 6.109375 34.5625 8.28125 
Q 37.984375 10.453125 37.984375 14.40625 
Q 37.984375 18.0625 35.515625 20.015625 
Q 33.0625 21.96875 24.703125 23.78125 
L 21.578125 24.515625 
Q 13.234375 26.265625 9.515625 29.90625 
Q 5.8125 33.546875 5.8125 39.890625 
Q 5.8125 47.609375 11.28125 51.796875 
Q 16.75 56 26.8125 56 
Q 31.78125 56 36.171875 55.265625 
Q 40.578125 54.546875 44.28125 53.078125 
z
" id="DejaVuSans-115"/>
      <path d="M 25.390625 72.90625 
L 33.6875 72.90625 
L 8.296875 -9.28125 
L 0 -9.28125 
z
" id="DejaVuSans-47"/>
      <path d="M 5.515625 54.6875 
L 48.1875 54.6875 
L 48.1875 46.484375 
L 14.40625 7.171875 
L 48.1875 7.171875 
L 48.1875 0 
L 4.296875 0 
L 4.296875 8.203125 
L 38.09375 47.515625 
L 5.515625 47.515625 
z
" id="DejaVuSans-122"/>
     </defs>
     <g transform="translate(26.955938 717.06875)rotate(-90)scale(0.26 -0.26)">
      <use xlink:href="#DejaVuSans-65"/>
      <use x="62.533203" xlink:href="#DejaVuSans-118"/>
      <use x="121.712891" xlink:href="#DejaVuSans-103"/>
      <use x="185.189453" xlink:href="#DejaVuSans-46"/>
      <use x="216.976562" xlink:href="#DejaVuSans-32"/>
      <use x="248.763672" xlink:href="#DejaVuSans-110"/>
      <use x="312.142578" xlink:href="#DejaVuSans-117"/>
      <use x="375.521484" xlink:href="#DejaVuSans-109"/>
      <use x="472.933594" xlink:href="#DejaVuSans-98"/>
      <use x="536.410156" xlink:href="#DejaVuSans-101"/>
      <use x="597.933594" xlink:href="#DejaVuSans-114"/>
      <use x="639.046875" xlink:href="#DejaVuSans-32"/>
      <use x="670.833984" xlink:href="#DejaVuSans-111"/>
      <use x="732.015625" xlink:href="#DejaVuSans-102"/>
      <use x="767.220703" xlink:href="#DejaVuSans-32"/>
      <use x="799.007812" xlink:href="#DejaVuSans-111"/>
      <use x="860.189453" xlink:href="#DejaVuSans-112"/>
      <use x="923.666016" xlink:href="#DejaVuSans-101"/>
      <use x="985.189453" xlink:href="#DejaVuSans-114"/>
      <use x="1026.302734" xlink:href="#DejaVuSans-97"/>
      <use x="1087.582031" xlink:href="#DejaVuSans-116"/>
      <use x="1126.791016" xlink:href="#DejaVuSans-105"/>
      <use x="1154.574219" xlink:href="#DejaVuSans-111"/>
      <use x="1215.755859" xlink:href="#DejaVuSans-110"/>
      <use x="1279.134766" xlink:href="#DejaVuSans-115"/>
      <use x="1331.234375" xlink:href="#DejaVuSans-32"/>
      <use x="1363.021484" xlink:href="#DejaVuSans-47"/>
      <use x="1396.712891" xlink:href="#DejaVuSans-32"/>
      <use x="1428.5" xlink:href="#DejaVuSans-115"/>
      <use x="1480.599609" xlink:href="#DejaVuSans-105"/>
      <use x="1508.382812" xlink:href="#DejaVuSans-122"/>
      <use x="1560.873047" xlink:href="#DejaVuSans-101"/>
     </g>
    </g>
   </g>
   <g id="line2d_31">
    <path clip-path="url(#p5cf37d5ae6)" d="M 109.394943 829.564486 
L 137.382404 469.898814 
L 165.369865 404.857953 
L 193.357326 365.930553 
L 221.344786 340.048618 
L 249.332247 318.291906 
L 277.319708 301.772421 
L 305.307169 289.287464 
L 333.29463 277.7196 
L 361.282091 267.632151 
L 389.269551 258.136757 
L 417.257012 250.891279 
L 445.244473 244.292498 
L 473.231934 238.838392 
L 501.219395 231.569819 
L 529.206855 227.124063 
L 557.194316 222.672111 
L 585.181777 218.581814 
L 613.169238 214.822751 
L 641.156699 210.482337 
L 669.144159 208.377757 
L 697.13162 204.742062 
L 725.119081 202.758597 
L 753.106542 199.236694 
L 781.094003 197.480812 
L 809.081464 194.567298 
L 837.068924 192.891972 
L 865.056385 190.91245 
L 893.043846 188.786464 
L 921.031307 187.099871 
" style="fill:none;stroke:#fe0002;stroke-linecap:square;stroke-width:1.5;"/>
    <defs>
     <path d="M 0 4.5 
C 1.193414 4.5 2.338109 4.025852 3.181981 3.181981 
C 4.025852 2.338109 4.5 1.193414 4.5 0 
C 4.5 -1.193414 4.025852 -2.338109 3.181981 -3.181981 
C 2.338109 -4.025852 1.193414 -4.5 0 -4.5 
C -1.193414 -4.5 -2.338109 -4.025852 -3.181981 -3.181981 
C -4.025852 -2.338109 -4.5 -1.193414 -4.5 0 
C -4.5 1.193414 -4.025852 2.338109 -3.181981 3.181981 
C -2.338109 4.025852 -1.193414 4.5 0 4.5 
z
" id="m485fd9da67" style="stroke:#000000;"/>
    </defs>
    <g clip-path="url(#p5cf37d5ae6)">
     <use style="fill:#fe0002;stroke:#000000;" x="109.394943" xlink:href="#m485fd9da67" y="829.564486"/>
     <use style="fill:#fe0002;stroke:#000000;" x="137.382404" xlink:href="#m485fd9da67" y="469.898814"/>
     <use style="fill:#fe0002;stroke:#000000;" x="165.369865" xlink:href="#m485fd9da67" y="404.857953"/>
     <use style="fill:#fe0002;stroke:#000000;" x="193.357326" xlink:href="#m485fd9da67" y="365.930553"/>
     <use style="fill:#fe0002;stroke:#000000;" x="221.344786" xlink:href="#m485fd9da67" y="340.048618"/>
     <use style="fill:#fe0002;stroke:#000000;" x="249.332247" xlink:href="#m485fd9da67" y="318.291906"/>
     <use style="fill:#fe0002;stroke:#000000;" x="277.319708" xlink:href="#m485fd9da67" y="301.772421"/>
     <use style="fill:#fe0002;stroke:#000000;" x="305.307169" xlink:href="#m485fd9da67" y="289.287464"/>
     <use style="fill:#fe0002;stroke:#000000;" x="333.29463" xlink:href="#m485fd9da67" y="277.7196"/>
     <use style="fill:#fe0002;stroke:#000000;" x="361.282091" xlink:href="#m485fd9da67" y="267.632151"/>
     <use style="fill:#fe0002;stroke:#000000;" x="389.269551" xlink:href="#m485fd9da67" y="258.136757"/>
     <use style="fill:#fe0002;stroke:#000000;" x="417.257012" xlink:href="#m485fd9da67" y="250.891279"/>
     <use style="fill:#fe0002;stroke:#000000;" x="445.244473" xlink:href="#m485fd9da67" y="244.292498"/>
     <use style="fill:#fe0002;stroke:#000000;" x="473.231934" xlink:href="#m485fd9da67" y="238.838392"/>
     <use style="fill:#fe0002;stroke:#000000;" x="501.219395" xlink:href="#m485fd9da67" y="231.569819"/>
     <use style="fill:#fe0002;stroke:#000000;" x="529.206855" xlink:href="#m485fd9da67" y="227.124063"/>
     <use style="fill:#fe0002;stroke:#000000;" x="557.194316" xlink:href="#m485fd9da67" y="222.672111"/>
     <use style="fill:#fe0002;stroke:#000000;" x="585.181777" xlink:href="#m485fd9da67" y="218.581814"/>
     <use style="fill:#fe0002;stroke:#000000;" x="613.169238" xlink:href="#m485fd9da67" y="214.822751"/>
     <use style="fill:#fe0002;stroke:#000000;" x="641.156699" xlink:href="#m485fd9da67" y="210.482337"/>
     <use style="fill:#fe0002;stroke:#000000;" x="669.144159" xlink:href="#m485fd9da67" y="208.377757"/>
     <use style="fill:#fe0002;stroke:#000000;" x="697.13162" xlink:href="#m485fd9da67" y="204.742062"/>
     <use style="fill:#fe0002;stroke:#000000;" x="725.119081" xlink:href="#m485fd9da67" y="202.758597"/>
     <use style="fill:#fe0002;stroke:#000000;" x="753.106542" xlink:href="#m485fd9da67" y="199.236694"/>
     <use style="fill:#fe0002;stroke:#000000;" x="781.094003" xlink:href="#m485fd9da67" y="197.480812"/>
     <use style="fill:#fe0002;stroke:#000000;" x="809.081464" xlink:href="#m485fd9da67" y="194.567298"/>
     <use style="fill:#fe0002;stroke:#000000;" x="837.068924" xlink:href="#m485fd9da67" y="192.891972"/>
     <use style="fill:#fe0002;stroke:#000000;" x="865.056385" xlink:href="#m485fd9da67" y="190.91245"/>
     <use style="fill:#fe0002;stroke:#000000;" x="893.043846" xlink:href="#m485fd9da67" y="188.786464"/>
     <use style="fill:#fe0002;stroke:#000000;" x="921.031307" xlink:href="#m485fd9da67" y="187.099871"/>
    </g>
   </g>
   <g id="line2d_32">
    <path clip-path="url(#p5cf37d5ae6)" d="M 109.394943 829.564486 
L 137.382404 469.898814 
L 165.369865 404.857953 
L 193.357326 365.930553 
L 221.344786 340.048618 
L 249.332247 318.291906 
L 277.319708 301.772421 
L 305.307169 289.287464 
L 333.29463 277.7196 
L 361.282091 267.632151 
L 389.269551 258.136757 
L 417.257012 250.891279 
L 445.244473 244.292498 
L 473.231934 238.838392 
L 501.219395 231.569819 
L 529.206855 227.124063 
L 557.194316 222.672111 
L 585.181777 218.581814 
L 613.169238 214.822751 
L 641.156699 210.482337 
L 669.144159 208.377757 
L 697.13162 204.742062 
L 725.119081 202.758597 
L 753.106542 199.236694 
L 781.094003 197.480812 
L 809.081464 194.567298 
L 837.068924 192.891972 
L 865.056385 190.91245 
L 893.043846 188.786464 
L 921.031307 187.099871 
" style="fill:none;stroke:#fe0002;stroke-dasharray:5.55,2.4;stroke-dashoffset:0;stroke-width:1.5;"/>
    <g clip-path="url(#p5cf37d5ae6)">
     <use style="fill:#fe0002;stroke:#000000;" x="109.394943" xlink:href="#m485fd9da67" y="829.564486"/>
     <use style="fill:#fe0002;stroke:#000000;" x="137.382404" xlink:href="#m485fd9da67" y="469.898814"/>
     <use style="fill:#fe0002;stroke:#000000;" x="165.369865" xlink:href="#m485fd9da67" y="404.857953"/>
     <use style="fill:#fe0002;stroke:#000000;" x="193.357326" xlink:href="#m485fd9da67" y="365.930553"/>
     <use style="fill:#fe0002;stroke:#000000;" x="221.344786" xlink:href="#m485fd9da67" y="340.048618"/>
     <use style="fill:#fe0002;stroke:#000000;" x="249.332247" xlink:href="#m485fd9da67" y="318.291906"/>
     <use style="fill:#fe0002;stroke:#000000;" x="277.319708" xlink:href="#m485fd9da67" y="301.772421"/>
     <use style="fill:#fe0002;stroke:#000000;" x="305.307169" xlink:href="#m485fd9da67" y="289.287464"/>
     <use style="fill:#fe0002;stroke:#000000;" x="333.29463" xlink:href="#m485fd9da67" y="277.7196"/>
     <use style="fill:#fe0002;stroke:#000000;" x="361.282091" xlink:href="#m485fd9da67" y="267.632151"/>
     <use style="fill:#fe0002;stroke:#000000;" x="389.269551" xlink:href="#m485fd9da67" y="258.136757"/>
     <use style="fill:#fe0002;stroke:#000000;" x="417.257012" xlink:href="#m485fd9da67" y="250.891279"/>
     <use style="fill:#fe0002;stroke:#000000;" x="445.244473" xlink:href="#m485fd9da67" y="244.292498"/>
     <use style="fill:#fe0002;stroke:#000000;" x="473.231934" xlink:href="#m485fd9da67" y="238.838392"/>
     <use style="fill:#fe0002;stroke:#000000;" x="501.219395" xlink:href="#m485fd9da67" y="231.569819"/>
     <use style="fill:#fe0002;stroke:#000000;" x="529.206855" xlink:href="#m485fd9da67" y="227.124063"/>
     <use style="fill:#fe0002;stroke:#000000;" x="557.194316" xlink:href="#m485fd9da67" y="222.672111"/>
     <use style="fill:#fe0002;stroke:#000000;" x="585.181777" xlink:href="#m485fd9da67" y="218.581814"/>
     <use style="fill:#fe0002;stroke:#000000;" x="613.169238" xlink:href="#m485fd9da67" y="214.822751"/>
     <use style="fill:#fe0002;stroke:#000000;" x="641.156699" xlink:href="#m485fd9da67" y="210.482337"/>
     <use style="fill:#fe0002;stroke:#000000;" x="669.144159" xlink:href="#m485fd9da67" y="208.377757"/>
     <use style="fill:#fe0002;stroke:#000000;" x="697.13162" xlink:href="#m485fd9da67" y="204.742062"/>
     <use style="fill:#fe0002;stroke:#000000;" x="725.119081" xlink:href="#m485fd9da67" y="202.758597"/>
     <use style="fill:#fe0002;stroke:#000000;" x="753.106542" xlink:href="#m485fd9da67" y="199.236694"/>
     <use style="fill:#fe0002;stroke:#000000;" x="781.094003" xlink:href="#m485fd9da67" y="197.480812"/>
     <use style="fill:#fe0002;stroke:#000000;" x="809.081464" xlink:href="#m485fd9da67" y="194.567298"/>
     <use style="fill:#fe0002;stroke:#000000;" x="837.068924" xlink:href="#m485fd9da67" y="192.891972"/>
     <use style="fill:#fe0002;stroke:#000000;" x="865.056385" xlink:href="#m485fd9da67" y="190.91245"/>
     <use style="fill:#fe0002;stroke:#000000;" x="893.043846" xlink:href="#m485fd9da67" y="188.786464"/>
     <use style="fill:#fe0002;stroke:#000000;" x="921.031307" xlink:href="#m485fd9da67" y="187.099871"/>
    </g>
   </g>
   <g id="line2d_33">
    <path clip-path="url(#p5cf37d5ae6)" d="M 109.394943 959.76 
L 137.382404 451.323195 
L 165.369865 360.771066 
L 193.357326 307.136395 
L 221.344786 270.83803 
L 249.332247 240.705249 
L 277.319708 217.232652 
L 305.307169 199.019814 
L 333.29463 183.699082 
L 361.282091 168.821124 
L 389.269551 156.563187 
L 417.257012 146.022263 
L 445.244473 136.333085 
L 473.231934 129.114647 
L 501.219395 119.620379 
L 529.206855 111.767638 
L 557.194316 106.533792 
L 585.181777 100.351308 
L 613.169238 95.231816 
L 641.156699 88.780063 
L 669.144159 85.133102 
L 697.13162 81.973979 
L 725.119081 77.556953 
L 753.106542 73.841266 
L 781.094003 70.68496 
L 809.081464 66.237514 
L 837.068924 63.77973 
L 865.056385 61.417148 
L 893.043846 58.130151 
L 921.031307 55.779962 
" style="fill:none;stroke:#15b01a;stroke-linecap:square;stroke-width:1.5;"/>
    <defs>
     <path d="M 0 -4.5 
L -4.5 4.5 
L 4.5 4.5 
z
" id="m3f71208ad6" style="stroke:#000000;stroke-linejoin:miter;"/>
    </defs>
    <g clip-path="url(#p5cf37d5ae6)">
     <use style="fill:#15b01a;stroke:#000000;stroke-linejoin:miter;" x="109.394943" xlink:href="#m3f71208ad6" y="959.76"/>
     <use style="fill:#15b01a;stroke:#000000;stroke-linejoin:miter;" x="137.382404" xlink:href="#m3f71208ad6" y="451.323195"/>
     <use style="fill:#15b01a;stroke:#000000;stroke-linejoin:miter;" x="165.369865" xlink:href="#m3f71208ad6" y="360.771066"/>
     <use style="fill:#15b01a;stroke:#000000;stroke-linejoin:miter;" x="193.357326" xlink:href="#m3f71208ad6" y="307.136395"/>
     <use style="fill:#15b01a;stroke:#000000;stroke-linejoin:miter;" x="221.344786" xlink:href="#m3f71208ad6" y="270.83803"/>
     <use style="fill:#15b01a;stroke:#000000;stroke-linejoin:miter;" x="249.332247" xlink:href="#m3f71208ad6" y="240.705249"/>
     <use style="fill:#15b01a;stroke:#000000;stroke-linejoin:miter;" x="277.319708" xlink:href="#m3f71208ad6" y="217.232652"/>
     <use style="fill:#15b01a;stroke:#000000;stroke-linejoin:miter;" x="305.307169" xlink:href="#m3f71208ad6" y="199.019814"/>
     <use style="fill:#15b01a;stroke:#000000;stroke-linejoin:miter;" x="333.29463" xlink:href="#m3f71208ad6" y="183.699082"/>
     <use style="fill:#15b01a;stroke:#000000;stroke-linejoin:miter;" x="361.282091" xlink:href="#m3f71208ad6" y="168.821124"/>
     <use style="fill:#15b01a;stroke:#000000;stroke-linejoin:miter;" x="389.269551" xlink:href="#m3f71208ad6" y="156.563187"/>
     <use style="fill:#15b01a;stroke:#000000;stroke-linejoin:miter;" x="417.257012" xlink:href="#m3f71208ad6" y="146.022263"/>
     <use style="fill:#15b01a;stroke:#000000;stroke-linejoin:miter;" x="445.244473" xlink:href="#m3f71208ad6" y="136.333085"/>
     <use style="fill:#15b01a;stroke:#000000;stroke-linejoin:miter;" x="473.231934" xlink:href="#m3f71208ad6" y="129.114647"/>
     <use style="fill:#15b01a;stroke:#000000;stroke-linejoin:miter;" x="501.219395" xlink:href="#m3f71208ad6" y="119.620379"/>
     <use style="fill:#15b01a;stroke:#000000;stroke-linejoin:miter;" x="529.206855" xlink:href="#m3f71208ad6" y="111.767638"/>
     <use style="fill:#15b01a;stroke:#000000;stroke-linejoin:miter;" x="557.194316" xlink:href="#m3f71208ad6" y="106.533792"/>
     <use style="fill:#15b01a;stroke:#000000;stroke-linejoin:miter;" x="585.181777" xlink:href="#m3f71208ad6" y="100.351308"/>
     <use style="fill:#15b01a;stroke:#000000;stroke-linejoin:miter;" x="613.169238" xlink:href="#m3f71208ad6" y="95.231816"/>
     <use style="fill:#15b01a;stroke:#000000;stroke-linejoin:miter;" x="641.156699" xlink:href="#m3f71208ad6" y="88.780063"/>
     <use style="fill:#15b01a;stroke:#000000;stroke-linejoin:miter;" x="669.144159" xlink:href="#m3f71208ad6" y="85.133102"/>
     <use style="fill:#15b01a;stroke:#000000;stroke-linejoin:miter;" x="697.13162" xlink:href="#m3f71208ad6" y="81.973979"/>
     <use style="fill:#15b01a;stroke:#000000;stroke-linejoin:miter;" x="725.119081" xlink:href="#m3f71208ad6" y="77.556953"/>
     <use style="fill:#15b01a;stroke:#000000;stroke-linejoin:miter;" x="753.106542" xlink:href="#m3f71208ad6" y="73.841266"/>
     <use style="fill:#15b01a;stroke:#000000;stroke-linejoin:miter;" x="781.094003" xlink:href="#m3f71208ad6" y="70.68496"/>
     <use style="fill:#15b01a;stroke:#000000;stroke-linejoin:miter;" x="809.081464" xlink:href="#m3f71208ad6" y="66.237514"/>
     <use style="fill:#15b01a;stroke:#000000;stroke-linejoin:miter;" x="837.068924" xlink:href="#m3f71208ad6" y="63.77973"/>
     <use style="fill:#15b01a;stroke:#000000;stroke-linejoin:miter;" x="865.056385" xlink:href="#m3f71208ad6" y="61.417148"/>
     <use style="fill:#15b01a;stroke:#000000;stroke-linejoin:miter;" x="893.043846" xlink:href="#m3f71208ad6" y="58.130151"/>
     <use style="fill:#15b01a;stroke:#000000;stroke-linejoin:miter;" x="921.031307" xlink:href="#m3f71208ad6" y="55.779962"/>
    </g>
   </g>
   <g id="line2d_34">
    <path clip-path="url(#p5cf37d5ae6)" d="M 109.394943 959.76 
L 137.382404 660.063018 
L 165.369865 612.617028 
L 193.357326 584.909358 
L 221.344786 566.267267 
L 249.332247 550.616991 
L 277.319708 539.068843 
L 305.307169 529.549789 
L 333.29463 521.756197 
L 361.282091 514.26004 
L 389.269551 508.011647 
L 417.257012 502.771041 
L 445.244473 497.721402 
L 473.231934 493.844041 
L 501.219395 489.106483 
L 529.206855 485.366573 
L 557.194316 482.615861 
L 585.181777 479.354776 
L 613.169238 476.901499 
L 641.156699 473.645484 
L 669.144159 471.967904 
L 697.13162 470.320181 
L 725.119081 467.896196 
L 753.106542 466.181437 
L 781.094003 464.567513 
L 809.081464 462.254503 
L 837.068924 461.125601 
L 865.056385 459.806296 
L 893.043846 458.303347 
L 921.031307 457.03136 
" style="fill:none;stroke:#15b01a;stroke-dasharray:5.55,2.4;stroke-dashoffset:0;stroke-width:1.5;"/>
    <defs>
     <path d="M -0 6.363961 
L 6.363961 0 
L 0 -6.363961 
L -6.363961 -0 
z
" id="m03aac7ac32" style="stroke:#000000;stroke-linejoin:miter;"/>
    </defs>
    <g clip-path="url(#p5cf37d5ae6)">
     <use style="fill:#15b01a;stroke:#000000;stroke-linejoin:miter;" x="109.394943" xlink:href="#m03aac7ac32" y="959.76"/>
     <use style="fill:#15b01a;stroke:#000000;stroke-linejoin:miter;" x="137.382404" xlink:href="#m03aac7ac32" y="660.063018"/>
     <use style="fill:#15b01a;stroke:#000000;stroke-linejoin:miter;" x="165.369865" xlink:href="#m03aac7ac32" y="612.617028"/>
     <use style="fill:#15b01a;stroke:#000000;stroke-linejoin:miter;" x="193.357326" xlink:href="#m03aac7ac32" y="584.909358"/>
     <use style="fill:#15b01a;stroke:#000000;stroke-linejoin:miter;" x="221.344786" xlink:href="#m03aac7ac32" y="566.267267"/>
     <use style="fill:#15b01a;stroke:#000000;stroke-linejoin:miter;" x="249.332247" xlink:href="#m03aac7ac32" y="550.616991"/>
     <use style="fill:#15b01a;stroke:#000000;stroke-linejoin:miter;" x="277.319708" xlink:href="#m03aac7ac32" y="539.068843"/>
     <use style="fill:#15b01a;stroke:#000000;stroke-linejoin:miter;" x="305.307169" xlink:href="#m03aac7ac32" y="529.549789"/>
     <use style="fill:#15b01a;stroke:#000000;stroke-linejoin:miter;" x="333.29463" xlink:href="#m03aac7ac32" y="521.756197"/>
     <use style="fill:#15b01a;stroke:#000000;stroke-linejoin:miter;" x="361.282091" xlink:href="#m03aac7ac32" y="514.26004"/>
     <use style="fill:#15b01a;stroke:#000000;stroke-linejoin:miter;" x="389.269551" xlink:href="#m03aac7ac32" y="508.011647"/>
     <use style="fill:#15b01a;stroke:#000000;stroke-linejoin:miter;" x="417.257012" xlink:href="#m03aac7ac32" y="502.771041"/>
     <use style="fill:#15b01a;stroke:#000000;stroke-linejoin:miter;" x="445.244473" xlink:href="#m03aac7ac32" y="497.721402"/>
     <use style="fill:#15b01a;stroke:#000000;stroke-linejoin:miter;" x="473.231934" xlink:href="#m03aac7ac32" y="493.844041"/>
     <use style="fill:#15b01a;stroke:#000000;stroke-linejoin:miter;" x="501.219395" xlink:href="#m03aac7ac32" y="489.106483"/>
     <use style="fill:#15b01a;stroke:#000000;stroke-linejoin:miter;" x="529.206855" xlink:href="#m03aac7ac32" y="485.366573"/>
     <use style="fill:#15b01a;stroke:#000000;stroke-linejoin:miter;" x="557.194316" xlink:href="#m03aac7ac32" y="482.615861"/>
     <use style="fill:#15b01a;stroke:#000000;stroke-linejoin:miter;" x="585.181777" xlink:href="#m03aac7ac32" y="479.354776"/>
     <use style="fill:#15b01a;stroke:#000000;stroke-linejoin:miter;" x="613.169238" xlink:href="#m03aac7ac32" y="476.901499"/>
     <use style="fill:#15b01a;stroke:#000000;stroke-linejoin:miter;" x="641.156699" xlink:href="#m03aac7ac32" y="473.645484"/>
     <use style="fill:#15b01a;stroke:#000000;stroke-linejoin:miter;" x="669.144159" xlink:href="#m03aac7ac32" y="471.967904"/>
     <use style="fill:#15b01a;stroke:#000000;stroke-linejoin:miter;" x="697.13162" xlink:href="#m03aac7ac32" y="470.320181"/>
     <use style="fill:#15b01a;stroke:#000000;stroke-linejoin:miter;" x="725.119081" xlink:href="#m03aac7ac32" y="467.896196"/>
     <use style="fill:#15b01a;stroke:#000000;stroke-linejoin:miter;" x="753.106542" xlink:href="#m03aac7ac32" y="466.181437"/>
     <use style="fill:#15b01a;stroke:#000000;stroke-linejoin:miter;" x="781.094003" xlink:href="#m03aac7ac32" y="464.567513"/>
     <use style="fill:#15b01a;stroke:#000000;stroke-linejoin:miter;" x="809.081464" xlink:href="#m03aac7ac32" y="462.254503"/>
     <use style="fill:#15b01a;stroke:#000000;stroke-linejoin:miter;" x="837.068924" xlink:href="#m03aac7ac32" y="461.125601"/>
     <use style="fill:#15b01a;stroke:#000000;stroke-linejoin:miter;" x="865.056385" xlink:href="#m03aac7ac32" y="459.806296"/>
     <use style="fill:#15b01a;stroke:#000000;stroke-linejoin:miter;" x="893.043846" xlink:href="#m03aac7ac32" y="458.303347"/>
     <use style="fill:#15b01a;stroke:#000000;stroke-linejoin:miter;" x="921.031307" xlink:href="#m03aac7ac32" y="457.03136"/>
    </g>
   </g>
   <g id="patch_3">
    <path d="M 68.813125 1005.12 
L 68.813125 7.2 
" style="fill:none;stroke:#000000;stroke-linecap:square;stroke-linejoin:miter;stroke-width:0.8;"/>
   </g>
   <g id="patch_4">
    <path d="M 961.613125 1005.12 
L 961.613125 7.2 
" style="fill:none;stroke:#000000;stroke-linecap:square;stroke-linejoin:miter;stroke-width:0.8;"/>
   </g>
   <g id="patch_5">
    <path d="M 68.813125 1005.12 
L 961.613125 1005.12 
" style="fill:none;stroke:#000000;stroke-linecap:square;stroke-linejoin:miter;stroke-width:0.8;"/>
   </g>
   <g id="patch_6">
    <path d="M 68.813125 7.2 
L 961.613125 7.2 
" style="fill:none;stroke:#000000;stroke-linecap:square;stroke-linejoin:miter;stroke-width:0.8;"/>
   </g>
   <g id="legend_1">
    <g id="patch_7">
     <path d="M 586.274688 992.12 
L 943.413125 992.12 
Q 948.613125 992.12 948.613125 986.92 
L 948.613125 836.8675 
Q 948.613125 831.6675 943.413125 831.6675 
L 586.274688 831.6675 
Q 581.074687 831.6675 581.074687 836.8675 
L 581.074687 986.92 
Q 581.074687 992.12 586.274688 992.12 
z
" style="fill:#ffffff;opacity:0.8;stroke:#cccccc;stroke-linejoin:miter;"/>
    </g>
    <g id="line2d_35">
     <path d="M 591.474687 852.723437 
L 643.474687 852.723437 
" style="fill:none;stroke:#fe0002;stroke-linecap:square;stroke-width:1.5;"/>
    </g>
    <g id="line2d_36">
     <g>
      <use style="fill:#fe0002;stroke:#000000;" x="617.474687" xlink:href="#m485fd9da67" y="852.723437"/>
     </g>
    </g>
    <g id="text_18">
     <!-- Pairing comparisons -->
     <defs>
      <path d="M 19.671875 64.796875 
L 19.671875 37.40625 
L 32.078125 37.40625 
Q 38.96875 37.40625 42.71875 40.96875 
Q 46.484375 44.53125 46.484375 51.125 
Q 46.484375 57.671875 42.71875 61.234375 
Q 38.96875 64.796875 32.078125 64.796875 
z
M 9.8125 72.90625 
L 32.078125 72.90625 
Q 44.34375 72.90625 50.609375 67.359375 
Q 56.890625 61.8125 56.890625 51.125 
Q 56.890625 40.328125 50.609375 34.8125 
Q 44.34375 29.296875 32.078125 29.296875 
L 19.671875 29.296875 
L 19.671875 0 
L 9.8125 0 
z
" id="DejaVuSans-80"/>
     </defs>
     <g transform="translate(664.274687 861.823437)scale(0.26 -0.26)">
      <use xlink:href="#DejaVuSans-80"/>
      <use x="55.802734" xlink:href="#DejaVuSans-97"/>
      <use x="117.082031" xlink:href="#DejaVuSans-105"/>
      <use x="144.865234" xlink:href="#DejaVuSans-114"/>
      <use x="185.978516" xlink:href="#DejaVuSans-105"/>
      <use x="213.761719" xlink:href="#DejaVuSans-110"/>
      <use x="277.140625" xlink:href="#DejaVuSans-103"/>
      <use x="340.617188" xlink:href="#DejaVuSans-32"/>
      <use x="372.404297" xlink:href="#DejaVuSans-99"/>
      <use x="427.384766" xlink:href="#DejaVuSans-111"/>
      <use x="488.566406" xlink:href="#DejaVuSans-109"/>
      <use x="585.978516" xlink:href="#DejaVuSans-112"/>
      <use x="649.455078" xlink:href="#DejaVuSans-97"/>
      <use x="710.734375" xlink:href="#DejaVuSans-114"/>
      <use x="751.847656" xlink:href="#DejaVuSans-105"/>
      <use x="779.630859" xlink:href="#DejaVuSans-115"/>
      <use x="831.730469" xlink:href="#DejaVuSans-111"/>
      <use x="892.912109" xlink:href="#DejaVuSans-110"/>
      <use x="956.291016" xlink:href="#DejaVuSans-115"/>
     </g>
    </g>
    <g id="line2d_37">
     <path d="M 591.474687 890.886562 
L 643.474687 890.886562 
" style="fill:none;stroke:#fe0002;stroke-dasharray:5.55,2.4;stroke-dashoffset:0;stroke-width:1.5;"/>
    </g>
    <g id="line2d_38">
     <g>
      <use style="fill:#fe0002;stroke:#000000;" x="617.474687" xlink:href="#m485fd9da67" y="890.886562"/>
     </g>
    </g>
    <g id="text_19">
     <!-- Pairing links -->
     <defs>
      <path d="M 9.078125 75.984375 
L 18.109375 75.984375 
L 18.109375 31.109375 
L 44.921875 54.6875 
L 56.390625 54.6875 
L 27.390625 29.109375 
L 57.625 0 
L 45.90625 0 
L 18.109375 26.703125 
L 18.109375 0 
L 9.078125 0 
z
" id="DejaVuSans-107"/>
     </defs>
     <g transform="translate(664.274687 899.986562)scale(0.26 -0.26)">
      <use xlink:href="#DejaVuSans-80"/>
      <use x="55.802734" xlink:href="#DejaVuSans-97"/>
      <use x="117.082031" xlink:href="#DejaVuSans-105"/>
      <use x="144.865234" xlink:href="#DejaVuSans-114"/>
      <use x="185.978516" xlink:href="#DejaVuSans-105"/>
      <use x="213.761719" xlink:href="#DejaVuSans-110"/>
      <use x="277.140625" xlink:href="#DejaVuSans-103"/>
      <use x="340.617188" xlink:href="#DejaVuSans-32"/>
      <use x="372.404297" xlink:href="#DejaVuSans-108"/>
      <use x="400.1875" xlink:href="#DejaVuSans-105"/>
      <use x="427.970703" xlink:href="#DejaVuSans-110"/>
      <use x="491.349609" xlink:href="#DejaVuSans-107"/>
      <use x="549.259766" xlink:href="#DejaVuSans-115"/>
     </g>
    </g>
    <g id="line2d_39">
     <path d="M 591.474687 929.049688 
L 643.474687 929.049688 
" style="fill:none;stroke:#15b01a;stroke-linecap:square;stroke-width:1.5;"/>
    </g>
    <g id="line2d_40">
     <g>
      <use style="fill:#15b01a;stroke:#000000;stroke-linejoin:miter;" x="617.474687" xlink:href="#m3f71208ad6" y="929.049688"/>
     </g>
    </g>
    <g id="text_20">
     <!-- Smooth comparisons -->
     <defs>
      <path d="M 53.515625 70.515625 
L 53.515625 60.890625 
Q 47.90625 63.578125 42.921875 64.890625 
Q 37.9375 66.21875 33.296875 66.21875 
Q 25.25 66.21875 20.875 63.09375 
Q 16.5 59.96875 16.5 54.203125 
Q 16.5 49.359375 19.40625 46.890625 
Q 22.3125 44.4375 30.421875 42.921875 
L 36.375 41.703125 
Q 47.40625 39.59375 52.65625 34.296875 
Q 57.90625 29 57.90625 20.125 
Q 57.90625 9.515625 50.796875 4.046875 
Q 43.703125 -1.421875 29.984375 -1.421875 
Q 24.8125 -1.421875 18.96875 -0.25 
Q 13.140625 0.921875 6.890625 3.21875 
L 6.890625 13.375 
Q 12.890625 10.015625 18.65625 8.296875 
Q 24.421875 6.59375 29.984375 6.59375 
Q 38.421875 6.59375 43.015625 9.90625 
Q 47.609375 13.234375 47.609375 19.390625 
Q 47.609375 24.75 44.3125 27.78125 
Q 41.015625 30.8125 33.5 32.328125 
L 27.484375 33.5 
Q 16.453125 35.6875 11.515625 40.375 
Q 6.59375 45.0625 6.59375 53.421875 
Q 6.59375 63.09375 13.40625 68.65625 
Q 20.21875 74.21875 32.171875 74.21875 
Q 37.3125 74.21875 42.625 73.28125 
Q 47.953125 72.359375 53.515625 70.515625 
z
" id="DejaVuSans-83"/>
      <path d="M 54.890625 33.015625 
L 54.890625 0 
L 45.90625 0 
L 45.90625 32.71875 
Q 45.90625 40.484375 42.875 44.328125 
Q 39.84375 48.1875 33.796875 48.1875 
Q 26.515625 48.1875 22.3125 43.546875 
Q 18.109375 38.921875 18.109375 30.90625 
L 18.109375 0 
L 9.078125 0 
L 9.078125 75.984375 
L 18.109375 75.984375 
L 18.109375 46.1875 
Q 21.34375 51.125 25.703125 53.5625 
Q 30.078125 56 35.796875 56 
Q 45.21875 56 50.046875 50.171875 
Q 54.890625 44.34375 54.890625 33.015625 
z
" id="DejaVuSans-104"/>
     </defs>
     <g transform="translate(664.274687 938.149688)scale(0.26 -0.26)">
      <use xlink:href="#DejaVuSans-83"/>
      <use x="63.476562" xlink:href="#DejaVuSans-109"/>
      <use x="160.888672" xlink:href="#DejaVuSans-111"/>
      <use x="222.070312" xlink:href="#DejaVuSans-111"/>
      <use x="283.251953" xlink:href="#DejaVuSans-116"/>
      <use x="322.460938" xlink:href="#DejaVuSans-104"/>
      <use x="385.839844" xlink:href="#DejaVuSans-32"/>
      <use x="417.626953" xlink:href="#DejaVuSans-99"/>
      <use x="472.607422" xlink:href="#DejaVuSans-111"/>
      <use x="533.789062" xlink:href="#DejaVuSans-109"/>
      <use x="631.201172" xlink:href="#DejaVuSans-112"/>
      <use x="694.677734" xlink:href="#DejaVuSans-97"/>
      <use x="755.957031" xlink:href="#DejaVuSans-114"/>
      <use x="797.070312" xlink:href="#DejaVuSans-105"/>
      <use x="824.853516" xlink:href="#DejaVuSans-115"/>
      <use x="876.953125" xlink:href="#DejaVuSans-111"/>
      <use x="938.134766" xlink:href="#DejaVuSans-110"/>
      <use x="1001.513672" xlink:href="#DejaVuSans-115"/>
     </g>
    </g>
    <g id="line2d_41">
     <path d="M 591.474687 967.212813 
L 643.474687 967.212813 
" style="fill:none;stroke:#15b01a;stroke-dasharray:5.55,2.4;stroke-dashoffset:0;stroke-width:1.5;"/>
    </g>
    <g id="line2d_42">
     <g>
      <use style="fill:#15b01a;stroke:#000000;stroke-linejoin:miter;" x="617.474687" xlink:href="#m03aac7ac32" y="967.212813"/>
     </g>
    </g>
    <g id="text_21">
     <!-- Smooth links -->
     <g transform="translate(664.274687 976.312813)scale(0.26 -0.26)">
      <use xlink:href="#DejaVuSans-83"/>
      <use x="63.476562" xlink:href="#DejaVuSans-109"/>
      <use x="160.888672" xlink:href="#DejaVuSans-111"/>
      <use x="222.070312" xlink:href="#DejaVuSans-111"/>
      <use x="283.251953" xlink:href="#DejaVuSans-116"/>
      <use x="322.460938" xlink:href="#DejaVuSans-104"/>
      <use x="385.839844" xlink:href="#DejaVuSans-32"/>
      <use x="417.626953" xlink:href="#DejaVuSans-108"/>
      <use x="445.410156" xlink:href="#DejaVuSans-105"/>
      <use x="473.193359" xlink:href="#DejaVuSans-110"/>
      <use x="536.572266" xlink:href="#DejaVuSans-107"/>
      <use x="594.482422" xlink:href="#DejaVuSans-115"/>
     </g>
    </g>
   </g>
  </g>
 </g>
 <defs>
  <clipPath id="p5cf37d5ae6">
   <rect height="997.92" width="892.8" x="68.813125" y="7.2"/>
  </clipPath>
 </defs>
</svg>
