<?xml version="1.0" encoding="utf-8" standalone="no"?>
<!DOCTYPE svg PUBLIC "-//W3C//DTD SVG 1.1//EN"
  "http://www.w3.org/Graphics/SVG/1.1/DTD/svg11.dtd">
<!-- Created with matplotlib (https://matplotlib.org/) -->
<svg height="1067.839375pt" version="1.1" viewBox="0 0 968.813125 1067.839375" width="968.813125pt" xmlns="http://www.w3.org/2000/svg" xmlns:xlink="http://www.w3.org/1999/xlink">
 <defs>
  <style type="text/css">
*{stroke-linecap:butt;stroke-linejoin:round;}
  </style>
 </defs>
 <g id="figure_1">
  <g id="patch_1">
   <path d="M 0 1067.839375 
L 968.813125 1067.839375 
L 968.813125 0 
L 0 0 
z
" style="fill:#ffffff;"/>
  </g>
  <g id="axes_1">
   <g id="patch_2">
    <path d="M 68.813125 1005.12 
L 961.613125 1005.12 
L 961.613125 7.2 
L 68.813125 7.2 
z
" style="fill:#ffffff;"/>
   </g>
   <g id="PolyCollection_1">
    <defs>
     <path d="M 109.394943 -289.696418 
L 109.394943 -245.288027 
L 152.112647 -297.958445 
L 194.83035 -347.530603 
L 237.548053 -377.923057 
L 280.265757 -390.316096 
L 322.98346 -402.266527 
L 365.701163 -419.085652 
L 408.418867 -423.069129 
L 451.13657 -443.724195 
L 493.854273 -437.675212 
L 536.571977 -459.658103 
L 579.28968 -463.64158 
L 622.007383 -465.559551 
L 664.725087 -470.870853 
L 707.44279 -473.083896 
L 750.160493 -469.247955 
L 792.878197 -494.476643 
L 835.5959 -486.362153 
L 878.313603 -493.44389 
L 921.031307 -488.870268 
L 921.031307 -543.606192 
L 921.031307 -543.606192 
L 878.313603 -543.31112 
L 835.5959 -526.049386 
L 792.878197 -530.475472 
L 750.160493 -532.836051 
L 707.44279 -522.508518 
L 664.725087 -514.394028 
L 622.007383 -514.246492 
L 579.28968 -499.640409 
L 536.571977 -487.394906 
L 493.854273 -483.558965 
L 451.13657 -464.82187 
L 408.418867 -466.73984 
L 365.701163 -470.280709 
L 322.98346 -437.675212 
L 280.265757 -419.233189 
L 237.548053 -404.332034 
L 194.83035 -375.562478 
L 152.112647 -324.514958 
L 109.394943 -289.696418 
z
" id="md8d6ab8d83" style="stroke:#fe4d4e;stroke-opacity:0.3;"/>
    </defs>
    <g clip-path="url(#p35bd1010cb)">
     <use style="fill:#fe4d4e;fill-opacity:0.3;stroke:#fe4d4e;stroke-opacity:0.3;" x="0" xlink:href="#md8d6ab8d83" y="1067.839375"/>
    </g>
   </g>
   <g id="PolyCollection_2">
    <g clip-path="url(#p35bd1010cb)">
     <use style="fill:#fe4d4e;fill-opacity:0.3;stroke:#fe4d4e;stroke-opacity:0.3;" x="0" xlink:href="#md8d6ab8d83" y="1067.839375"/>
    </g>
   </g>
   <g id="PolyCollection_3">
    <defs>
     <path d="M 109.394943 -592.145597 
L 109.394943 -568.83488 
L 152.112647 -653.373114 
L 194.83035 -717.403818 
L 237.548053 -746.468446 
L 280.265757 -779.073943 
L 322.98346 -795.597996 
L 365.701163 -823.334799 
L 408.418867 -840.006388 
L 451.13657 -854.907542 
L 493.854273 -869.366088 
L 536.571977 -881.906664 
L 579.28968 -893.26695 
L 622.007383 -892.676805 
L 664.725087 -911.266365 
L 707.44279 -909.053322 
L 750.160493 -926.019983 
L 792.878197 -946.084904 
L 835.5959 -942.691572 
L 878.313603 -940.035921 
L 921.031307 -950.806062 
L 921.031307 -1015.279375 
L 921.031307 -1015.279375 
L 878.313603 -998.017641 
L 835.5959 -984.296776 
L 792.878197 -1000.083148 
L 750.160493 -973.231562 
L 707.44279 -961.428668 
L 664.725087 -941.806355 
L 622.007383 -951.691279 
L 579.28968 -932.216503 
L 536.571977 -920.266072 
L 493.854273 -910.233611 
L 451.13657 -904.922309 
L 408.418867 -884.414779 
L 365.701163 -861.841743 
L 322.98346 -830.121463 
L 280.265757 -809.023789 
L 237.548053 -790.876838 
L 194.83035 -749.861779 
L 152.112647 -685.831074 
L 109.394943 -592.145597 
z
" id="m8d64b95721" style="stroke:#58ab8e;stroke-opacity:0.3;"/>
    </defs>
    <g clip-path="url(#p35bd1010cb)">
     <use style="fill:#58ab8e;fill-opacity:0.3;stroke:#58ab8e;stroke-opacity:0.3;" x="0" xlink:href="#m8d64b95721" y="1067.839375"/>
    </g>
   </g>
   <g id="PolyCollection_4">
    <defs>
     <path d="M 109.394943 -119.439661 
L 109.394943 -108.079375 
L 152.112647 -149.241971 
L 194.83035 -182.732684 
L 237.548053 -198.961665 
L 280.265757 -217.69876 
L 322.98346 -223.305135 
L 365.701163 -241.747158 
L 408.418867 -249.123968 
L 451.13657 -253.992662 
L 493.854273 -266.090629 
L 536.571977 -270.074106 
L 579.28968 -273.76251 
L 622.007383 -274.795264 
L 664.725087 -287.335839 
L 707.44279 -282.172073 
L 750.160493 -293.237287 
L 792.878197 -307.548297 
L 835.5959 -306.515543 
L 878.313603 -303.56482 
L 921.031307 -305.630326 
L 921.031307 -339.858721 
L 921.031307 -339.858721 
L 878.313603 -332.776984 
L 835.5959 -322.154379 
L 792.878197 -332.924521 
L 750.160493 -317.138149 
L 707.44279 -310.056412 
L 664.725087 -305.630326 
L 622.007383 -307.105688 
L 579.28968 -294.27004 
L 536.571977 -290.434099 
L 493.854273 -282.319609 
L 451.13657 -284.23758 
L 408.418867 -273.02483 
L 365.701163 -260.336718 
L 322.98346 -243.074984 
L 280.265757 -231.419625 
L 237.548053 -223.600208 
L 194.83035 -200.437027 
L 152.112647 -168.716747 
L 109.394943 -119.439661 
z
" id="m0c41550db6" style="stroke:#58ab8e;stroke-opacity:0.3;"/>
    </defs>
    <g clip-path="url(#p35bd1010cb)">
     <use style="fill:#58ab8e;fill-opacity:0.3;stroke:#58ab8e;stroke-opacity:0.3;" x="0" xlink:href="#m0c41550db6" y="1067.839375"/>
    </g>
   </g>
   <g id="matplotlib.axis_1">
    <g id="xtick_1">
     <g id="line2d_1">
      <path clip-path="url(#p35bd1010cb)" d="M 237.548053 1005.12 
L 237.548053 7.2 
" style="fill:none;stroke:#b0b0b0;stroke-linecap:square;stroke-width:0.8;"/>
     </g>
     <g id="line2d_2">
      <defs>
       <path d="M 0 0 
L 0 3.5 
" id="m7931de0360" style="stroke:#000000;stroke-width:0.8;"/>
      </defs>
      <g>
       <use style="stroke:#000000;stroke-width:0.8;" x="237.548053" xlink:href="#m7931de0360" y="1005.12"/>
      </g>
     </g>
     <g id="text_1">
      <!-- 0.2 -->
      <defs>
       <path d="M 31.78125 66.40625 
Q 24.171875 66.40625 20.328125 58.90625 
Q 16.5 51.421875 16.5 36.375 
Q 16.5 21.390625 20.328125 13.890625 
Q 24.171875 6.390625 31.78125 6.390625 
Q 39.453125 6.390625 43.28125 13.890625 
Q 47.125 21.390625 47.125 36.375 
Q 47.125 51.421875 43.28125 58.90625 
Q 39.453125 66.40625 31.78125 66.40625 
z
M 31.78125 74.21875 
Q 44.046875 74.21875 50.515625 64.515625 
Q 56.984375 54.828125 56.984375 36.375 
Q 56.984375 17.96875 50.515625 8.265625 
Q 44.046875 -1.421875 31.78125 -1.421875 
Q 19.53125 -1.421875 13.0625 8.265625 
Q 6.59375 17.96875 6.59375 36.375 
Q 6.59375 54.828125 13.0625 64.515625 
Q 19.53125 74.21875 31.78125 74.21875 
z
" id="DejaVuSans-48"/>
       <path d="M 10.6875 12.40625 
L 21 12.40625 
L 21 0 
L 10.6875 0 
z
" id="DejaVuSans-46"/>
       <path d="M 19.1875 8.296875 
L 53.609375 8.296875 
L 53.609375 0 
L 7.328125 0 
L 7.328125 8.296875 
Q 12.9375 14.109375 22.625 23.890625 
Q 32.328125 33.6875 34.8125 36.53125 
Q 39.546875 41.84375 41.421875 45.53125 
Q 43.3125 49.21875 43.3125 52.78125 
Q 43.3125 58.59375 39.234375 62.25 
Q 35.15625 65.921875 28.609375 65.921875 
Q 23.96875 65.921875 18.8125 64.3125 
Q 13.671875 62.703125 7.8125 59.421875 
L 7.8125 69.390625 
Q 13.765625 71.78125 18.9375 73 
Q 24.125 74.21875 28.421875 74.21875 
Q 39.75 74.21875 46.484375 68.546875 
Q 53.21875 62.890625 53.21875 53.421875 
Q 53.21875 48.921875 51.53125 44.890625 
Q 49.859375 40.875 45.40625 35.40625 
Q 44.1875 33.984375 37.640625 27.21875 
Q 31.109375 20.453125 19.1875 8.296875 
z
" id="DejaVuSans-50"/>
      </defs>
      <g transform="translate(221.644928 1027.316875)scale(0.2 -0.2)">
       <use xlink:href="#DejaVuSans-48"/>
       <use x="63.623047" xlink:href="#DejaVuSans-46"/>
       <use x="95.410156" xlink:href="#DejaVuSans-50"/>
      </g>
     </g>
    </g>
    <g id="xtick_2">
     <g id="line2d_3">
      <path clip-path="url(#p35bd1010cb)" d="M 408.418867 1005.12 
L 408.418867 7.2 
" style="fill:none;stroke:#b0b0b0;stroke-linecap:square;stroke-width:0.8;"/>
     </g>
     <g id="line2d_4">
      <g>
       <use style="stroke:#000000;stroke-width:0.8;" x="408.418867" xlink:href="#m7931de0360" y="1005.12"/>
      </g>
     </g>
     <g id="text_2">
      <!-- 0.4 -->
      <defs>
       <path d="M 37.796875 64.3125 
L 12.890625 25.390625 
L 37.796875 25.390625 
z
M 35.203125 72.90625 
L 47.609375 72.90625 
L 47.609375 25.390625 
L 58.015625 25.390625 
L 58.015625 17.1875 
L 47.609375 17.1875 
L 47.609375 0 
L 37.796875 0 
L 37.796875 17.1875 
L 4.890625 17.1875 
L 4.890625 26.703125 
z
" id="DejaVuSans-52"/>
      </defs>
      <g transform="translate(392.515742 1027.316875)scale(0.2 -0.2)">
       <use xlink:href="#DejaVuSans-48"/>
       <use x="63.623047" xlink:href="#DejaVuSans-46"/>
       <use x="95.410156" xlink:href="#DejaVuSans-52"/>
      </g>
     </g>
    </g>
    <g id="xtick_3">
     <g id="line2d_5">
      <path clip-path="url(#p35bd1010cb)" d="M 579.28968 1005.12 
L 579.28968 7.2 
" style="fill:none;stroke:#b0b0b0;stroke-linecap:square;stroke-width:0.8;"/>
     </g>
     <g id="line2d_6">
      <g>
       <use style="stroke:#000000;stroke-width:0.8;" x="579.28968" xlink:href="#m7931de0360" y="1005.12"/>
      </g>
     </g>
     <g id="text_3">
      <!-- 0.6 -->
      <defs>
       <path d="M 33.015625 40.375 
Q 26.375 40.375 22.484375 35.828125 
Q 18.609375 31.296875 18.609375 23.390625 
Q 18.609375 15.53125 22.484375 10.953125 
Q 26.375 6.390625 33.015625 6.390625 
Q 39.65625 6.390625 43.53125 10.953125 
Q 47.40625 15.53125 47.40625 23.390625 
Q 47.40625 31.296875 43.53125 35.828125 
Q 39.65625 40.375 33.015625 40.375 
z
M 52.59375 71.296875 
L 52.59375 62.3125 
Q 48.875 64.0625 45.09375 64.984375 
Q 41.3125 65.921875 37.59375 65.921875 
Q 27.828125 65.921875 22.671875 59.328125 
Q 17.53125 52.734375 16.796875 39.40625 
Q 19.671875 43.65625 24.015625 45.921875 
Q 28.375 48.1875 33.59375 48.1875 
Q 44.578125 48.1875 50.953125 41.515625 
Q 57.328125 34.859375 57.328125 23.390625 
Q 57.328125 12.15625 50.6875 5.359375 
Q 44.046875 -1.421875 33.015625 -1.421875 
Q 20.359375 -1.421875 13.671875 8.265625 
Q 6.984375 17.96875 6.984375 36.375 
Q 6.984375 53.65625 15.1875 63.9375 
Q 23.390625 74.21875 37.203125 74.21875 
Q 40.921875 74.21875 44.703125 73.484375 
Q 48.484375 72.75 52.59375 71.296875 
z
" id="DejaVuSans-54"/>
      </defs>
      <g transform="translate(563.386555 1027.316875)scale(0.2 -0.2)">
       <use xlink:href="#DejaVuSans-48"/>
       <use x="63.623047" xlink:href="#DejaVuSans-46"/>
       <use x="95.410156" xlink:href="#DejaVuSans-54"/>
      </g>
     </g>
    </g>
    <g id="xtick_4">
     <g id="line2d_7">
      <path clip-path="url(#p35bd1010cb)" d="M 750.160493 1005.12 
L 750.160493 7.2 
" style="fill:none;stroke:#b0b0b0;stroke-linecap:square;stroke-width:0.8;"/>
     </g>
     <g id="line2d_8">
      <g>
       <use style="stroke:#000000;stroke-width:0.8;" x="750.160493" xlink:href="#m7931de0360" y="1005.12"/>
      </g>
     </g>
     <g id="text_4">
      <!-- 0.8 -->
      <defs>
       <path d="M 31.78125 34.625 
Q 24.75 34.625 20.71875 30.859375 
Q 16.703125 27.09375 16.703125 20.515625 
Q 16.703125 13.921875 20.71875 10.15625 
Q 24.75 6.390625 31.78125 6.390625 
Q 38.8125 6.390625 42.859375 10.171875 
Q 46.921875 13.96875 46.921875 20.515625 
Q 46.921875 27.09375 42.890625 30.859375 
Q 38.875 34.625 31.78125 34.625 
z
M 21.921875 38.8125 
Q 15.578125 40.375 12.03125 44.71875 
Q 8.5 49.078125 8.5 55.328125 
Q 8.5 64.0625 14.71875 69.140625 
Q 20.953125 74.21875 31.78125 74.21875 
Q 42.671875 74.21875 48.875 69.140625 
Q 55.078125 64.0625 55.078125 55.328125 
Q 55.078125 49.078125 51.53125 44.71875 
Q 48 40.375 41.703125 38.8125 
Q 48.828125 37.15625 52.796875 32.3125 
Q 56.78125 27.484375 56.78125 20.515625 
Q 56.78125 9.90625 50.3125 4.234375 
Q 43.84375 -1.421875 31.78125 -1.421875 
Q 19.734375 -1.421875 13.25 4.234375 
Q 6.78125 9.90625 6.78125 20.515625 
Q 6.78125 27.484375 10.78125 32.3125 
Q 14.796875 37.15625 21.921875 38.8125 
z
M 18.3125 54.390625 
Q 18.3125 48.734375 21.84375 45.5625 
Q 25.390625 42.390625 31.78125 42.390625 
Q 38.140625 42.390625 41.71875 45.5625 
Q 45.3125 48.734375 45.3125 54.390625 
Q 45.3125 60.0625 41.71875 63.234375 
Q 38.140625 66.40625 31.78125 66.40625 
Q 25.390625 66.40625 21.84375 63.234375 
Q 18.3125 60.0625 18.3125 54.390625 
z
" id="DejaVuSans-56"/>
      </defs>
      <g transform="translate(734.257368 1027.316875)scale(0.2 -0.2)">
       <use xlink:href="#DejaVuSans-48"/>
       <use x="63.623047" xlink:href="#DejaVuSans-46"/>
       <use x="95.410156" xlink:href="#DejaVuSans-56"/>
      </g>
     </g>
    </g>
    <g id="xtick_5">
     <g id="line2d_9">
      <path clip-path="url(#p35bd1010cb)" d="M 921.031307 1005.12 
L 921.031307 7.2 
" style="fill:none;stroke:#b0b0b0;stroke-linecap:square;stroke-width:0.8;"/>
     </g>
     <g id="line2d_10">
      <g>
       <use style="stroke:#000000;stroke-width:0.8;" x="921.031307" xlink:href="#m7931de0360" y="1005.12"/>
      </g>
     </g>
     <g id="text_5">
      <!-- 1.0 -->
      <defs>
       <path d="M 12.40625 8.296875 
L 28.515625 8.296875 
L 28.515625 63.921875 
L 10.984375 60.40625 
L 10.984375 69.390625 
L 28.421875 72.90625 
L 38.28125 72.90625 
L 38.28125 8.296875 
L 54.390625 8.296875 
L 54.390625 0 
L 12.40625 0 
z
" id="DejaVuSans-49"/>
      </defs>
      <g transform="translate(905.128182 1027.316875)scale(0.2 -0.2)">
       <use xlink:href="#DejaVuSans-49"/>
       <use x="63.623047" xlink:href="#DejaVuSans-46"/>
       <use x="95.410156" xlink:href="#DejaVuSans-48"/>
      </g>
     </g>
    </g>
    <g id="text_6">
     <!-- Edge probability -->
     <defs>
      <path d="M 9.8125 72.90625 
L 55.90625 72.90625 
L 55.90625 64.59375 
L 19.671875 64.59375 
L 19.671875 43.015625 
L 54.390625 43.015625 
L 54.390625 34.71875 
L 19.671875 34.71875 
L 19.671875 8.296875 
L 56.78125 8.296875 
L 56.78125 0 
L 9.8125 0 
z
" id="DejaVuSans-69"/>
      <path d="M 45.40625 46.390625 
L 45.40625 75.984375 
L 54.390625 75.984375 
L 54.390625 0 
L 45.40625 0 
L 45.40625 8.203125 
Q 42.578125 3.328125 38.25 0.953125 
Q 33.9375 -1.421875 27.875 -1.421875 
Q 17.96875 -1.421875 11.734375 6.484375 
Q 5.515625 14.40625 5.515625 27.296875 
Q 5.515625 40.1875 11.734375 48.09375 
Q 17.96875 56 27.875 56 
Q 33.9375 56 38.25 53.625 
Q 42.578125 51.265625 45.40625 46.390625 
z
M 14.796875 27.296875 
Q 14.796875 17.390625 18.875 11.75 
Q 22.953125 6.109375 30.078125 6.109375 
Q 37.203125 6.109375 41.296875 11.75 
Q 45.40625 17.390625 45.40625 27.296875 
Q 45.40625 37.203125 41.296875 42.84375 
Q 37.203125 48.484375 30.078125 48.484375 
Q 22.953125 48.484375 18.875 42.84375 
Q 14.796875 37.203125 14.796875 27.296875 
z
" id="DejaVuSans-100"/>
      <path d="M 45.40625 27.984375 
Q 45.40625 37.75 41.375 43.109375 
Q 37.359375 48.484375 30.078125 48.484375 
Q 22.859375 48.484375 18.828125 43.109375 
Q 14.796875 37.75 14.796875 27.984375 
Q 14.796875 18.265625 18.828125 12.890625 
Q 22.859375 7.515625 30.078125 7.515625 
Q 37.359375 7.515625 41.375 12.890625 
Q 45.40625 18.265625 45.40625 27.984375 
z
M 54.390625 6.78125 
Q 54.390625 -7.171875 48.1875 -13.984375 
Q 42 -20.796875 29.203125 -20.796875 
Q 24.46875 -20.796875 20.265625 -20.09375 
Q 16.0625 -19.390625 12.109375 -17.921875 
L 12.109375 -9.1875 
Q 16.0625 -11.328125 19.921875 -12.34375 
Q 23.78125 -13.375 27.78125 -13.375 
Q 36.625 -13.375 41.015625 -8.765625 
Q 45.40625 -4.15625 45.40625 5.171875 
L 45.40625 9.625 
Q 42.625 4.78125 38.28125 2.390625 
Q 33.9375 0 27.875 0 
Q 17.828125 0 11.671875 7.65625 
Q 5.515625 15.328125 5.515625 27.984375 
Q 5.515625 40.671875 11.671875 48.328125 
Q 17.828125 56 27.875 56 
Q 33.9375 56 38.28125 53.609375 
Q 42.625 51.21875 45.40625 46.390625 
L 45.40625 54.6875 
L 54.390625 54.6875 
z
" id="DejaVuSans-103"/>
      <path d="M 56.203125 29.59375 
L 56.203125 25.203125 
L 14.890625 25.203125 
Q 15.484375 15.921875 20.484375 11.0625 
Q 25.484375 6.203125 34.421875 6.203125 
Q 39.59375 6.203125 44.453125 7.46875 
Q 49.3125 8.734375 54.109375 11.28125 
L 54.109375 2.78125 
Q 49.265625 0.734375 44.1875 -0.34375 
Q 39.109375 -1.421875 33.890625 -1.421875 
Q 20.796875 -1.421875 13.15625 6.1875 
Q 5.515625 13.8125 5.515625 26.8125 
Q 5.515625 40.234375 12.765625 48.109375 
Q 20.015625 56 32.328125 56 
Q 43.359375 56 49.78125 48.890625 
Q 56.203125 41.796875 56.203125 29.59375 
z
M 47.21875 32.234375 
Q 47.125 39.59375 43.09375 43.984375 
Q 39.0625 48.390625 32.421875 48.390625 
Q 24.90625 48.390625 20.390625 44.140625 
Q 15.875 39.890625 15.1875 32.171875 
z
" id="DejaVuSans-101"/>
      <path id="DejaVuSans-32"/>
      <path d="M 18.109375 8.203125 
L 18.109375 -20.796875 
L 9.078125 -20.796875 
L 9.078125 54.6875 
L 18.109375 54.6875 
L 18.109375 46.390625 
Q 20.953125 51.265625 25.265625 53.625 
Q 29.59375 56 35.59375 56 
Q 45.5625 56 51.78125 48.09375 
Q 58.015625 40.1875 58.015625 27.296875 
Q 58.015625 14.40625 51.78125 6.484375 
Q 45.5625 -1.421875 35.59375 -1.421875 
Q 29.59375 -1.421875 25.265625 0.953125 
Q 20.953125 3.328125 18.109375 8.203125 
z
M 48.6875 27.296875 
Q 48.6875 37.203125 44.609375 42.84375 
Q 40.53125 48.484375 33.40625 48.484375 
Q 26.265625 48.484375 22.1875 42.84375 
Q 18.109375 37.203125 18.109375 27.296875 
Q 18.109375 17.390625 22.1875 11.75 
Q 26.265625 6.109375 33.40625 6.109375 
Q 40.53125 6.109375 44.609375 11.75 
Q 48.6875 17.390625 48.6875 27.296875 
z
" id="DejaVuSans-112"/>
      <path d="M 41.109375 46.296875 
Q 39.59375 47.171875 37.8125 47.578125 
Q 36.03125 48 33.890625 48 
Q 26.265625 48 22.1875 43.046875 
Q 18.109375 38.09375 18.109375 28.8125 
L 18.109375 0 
L 9.078125 0 
L 9.078125 54.6875 
L 18.109375 54.6875 
L 18.109375 46.1875 
Q 20.953125 51.171875 25.484375 53.578125 
Q 30.03125 56 36.53125 56 
Q 37.453125 56 38.578125 55.875 
Q 39.703125 55.765625 41.0625 55.515625 
z
" id="DejaVuSans-114"/>
      <path d="M 30.609375 48.390625 
Q 23.390625 48.390625 19.1875 42.75 
Q 14.984375 37.109375 14.984375 27.296875 
Q 14.984375 17.484375 19.15625 11.84375 
Q 23.34375 6.203125 30.609375 6.203125 
Q 37.796875 6.203125 41.984375 11.859375 
Q 46.1875 17.53125 46.1875 27.296875 
Q 46.1875 37.015625 41.984375 42.703125 
Q 37.796875 48.390625 30.609375 48.390625 
z
M 30.609375 56 
Q 42.328125 56 49.015625 48.375 
Q 55.71875 40.765625 55.71875 27.296875 
Q 55.71875 13.875 49.015625 6.21875 
Q 42.328125 -1.421875 30.609375 -1.421875 
Q 18.84375 -1.421875 12.171875 6.21875 
Q 5.515625 13.875 5.515625 27.296875 
Q 5.515625 40.765625 12.171875 48.375 
Q 18.84375 56 30.609375 56 
z
" id="DejaVuSans-111"/>
      <path d="M 48.6875 27.296875 
Q 48.6875 37.203125 44.609375 42.84375 
Q 40.53125 48.484375 33.40625 48.484375 
Q 26.265625 48.484375 22.1875 42.84375 
Q 18.109375 37.203125 18.109375 27.296875 
Q 18.109375 17.390625 22.1875 11.75 
Q 26.265625 6.109375 33.40625 6.109375 
Q 40.53125 6.109375 44.609375 11.75 
Q 48.6875 17.390625 48.6875 27.296875 
z
M 18.109375 46.390625 
Q 20.953125 51.265625 25.265625 53.625 
Q 29.59375 56 35.59375 56 
Q 45.5625 56 51.78125 48.09375 
Q 58.015625 40.1875 58.015625 27.296875 
Q 58.015625 14.40625 51.78125 6.484375 
Q 45.5625 -1.421875 35.59375 -1.421875 
Q 29.59375 -1.421875 25.265625 0.953125 
Q 20.953125 3.328125 18.109375 8.203125 
L 18.109375 0 
L 9.078125 0 
L 9.078125 75.984375 
L 18.109375 75.984375 
z
" id="DejaVuSans-98"/>
      <path d="M 34.28125 27.484375 
Q 23.390625 27.484375 19.1875 25 
Q 14.984375 22.515625 14.984375 16.5 
Q 14.984375 11.71875 18.140625 8.90625 
Q 21.296875 6.109375 26.703125 6.109375 
Q 34.1875 6.109375 38.703125 11.40625 
Q 43.21875 16.703125 43.21875 25.484375 
L 43.21875 27.484375 
z
M 52.203125 31.203125 
L 52.203125 0 
L 43.21875 0 
L 43.21875 8.296875 
Q 40.140625 3.328125 35.546875 0.953125 
Q 30.953125 -1.421875 24.3125 -1.421875 
Q 15.921875 -1.421875 10.953125 3.296875 
Q 6 8.015625 6 15.921875 
Q 6 25.140625 12.171875 29.828125 
Q 18.359375 34.515625 30.609375 34.515625 
L 43.21875 34.515625 
L 43.21875 35.40625 
Q 43.21875 41.609375 39.140625 45 
Q 35.0625 48.390625 27.6875 48.390625 
Q 23 48.390625 18.546875 47.265625 
Q 14.109375 46.140625 10.015625 43.890625 
L 10.015625 52.203125 
Q 14.9375 54.109375 19.578125 55.046875 
Q 24.21875 56 28.609375 56 
Q 40.484375 56 46.34375 49.84375 
Q 52.203125 43.703125 52.203125 31.203125 
z
" id="DejaVuSans-97"/>
      <path d="M 9.421875 54.6875 
L 18.40625 54.6875 
L 18.40625 0 
L 9.421875 0 
z
M 9.421875 75.984375 
L 18.40625 75.984375 
L 18.40625 64.59375 
L 9.421875 64.59375 
z
" id="DejaVuSans-105"/>
      <path d="M 9.421875 75.984375 
L 18.40625 75.984375 
L 18.40625 0 
L 9.421875 0 
z
" id="DejaVuSans-108"/>
      <path d="M 18.3125 70.21875 
L 18.3125 54.6875 
L 36.8125 54.6875 
L 36.8125 47.703125 
L 18.3125 47.703125 
L 18.3125 18.015625 
Q 18.3125 11.328125 20.140625 9.421875 
Q 21.96875 7.515625 27.59375 7.515625 
L 36.8125 7.515625 
L 36.8125 0 
L 27.59375 0 
Q 17.1875 0 13.234375 3.875 
Q 9.28125 7.765625 9.28125 18.015625 
L 9.28125 47.703125 
L 2.6875 47.703125 
L 2.6875 54.6875 
L 9.28125 54.6875 
L 9.28125 70.21875 
z
" id="DejaVuSans-116"/>
      <path d="M 32.171875 -5.078125 
Q 28.375 -14.84375 24.75 -17.8125 
Q 21.140625 -20.796875 15.09375 -20.796875 
L 7.90625 -20.796875 
L 7.90625 -13.28125 
L 13.1875 -13.28125 
Q 16.890625 -13.28125 18.9375 -11.515625 
Q 21 -9.765625 23.484375 -3.21875 
L 25.09375 0.875 
L 2.984375 54.6875 
L 12.5 54.6875 
L 29.59375 11.921875 
L 46.6875 54.6875 
L 56.203125 54.6875 
z
" id="DejaVuSans-121"/>
     </defs>
     <g transform="translate(409.005156 1055.232188)scale(0.26 -0.26)">
      <use xlink:href="#DejaVuSans-69"/>
      <use x="63.183594" xlink:href="#DejaVuSans-100"/>
      <use x="126.660156" xlink:href="#DejaVuSans-103"/>
      <use x="190.136719" xlink:href="#DejaVuSans-101"/>
      <use x="251.660156" xlink:href="#DejaVuSans-32"/>
      <use x="283.447266" xlink:href="#DejaVuSans-112"/>
      <use x="346.923828" xlink:href="#DejaVuSans-114"/>
      <use x="385.787109" xlink:href="#DejaVuSans-111"/>
      <use x="446.96875" xlink:href="#DejaVuSans-98"/>
      <use x="510.445312" xlink:href="#DejaVuSans-97"/>
      <use x="571.724609" xlink:href="#DejaVuSans-98"/>
      <use x="635.201172" xlink:href="#DejaVuSans-105"/>
      <use x="662.984375" xlink:href="#DejaVuSans-108"/>
      <use x="690.767578" xlink:href="#DejaVuSans-105"/>
      <use x="718.550781" xlink:href="#DejaVuSans-116"/>
      <use x="757.759766" xlink:href="#DejaVuSans-121"/>
     </g>
    </g>
   </g>
   <g id="matplotlib.axis_2">
    <g id="ytick_1">
     <g id="line2d_11">
      <path clip-path="url(#p35bd1010cb)" d="M 68.813125 943.235947 
L 961.613125 943.235947 
" style="fill:none;stroke:#b0b0b0;stroke-linecap:square;stroke-width:0.8;"/>
     </g>
     <g id="line2d_12">
      <defs>
       <path d="M 0 0 
L -3.5 0 
" id="m2b5c01c411" style="stroke:#000000;stroke-width:0.8;"/>
      </defs>
      <g>
       <use style="stroke:#000000;stroke-width:0.8;" x="68.813125" xlink:href="#m2b5c01c411" y="943.235947"/>
      </g>
     </g>
     <g id="text_7">
      <!-- 10 -->
      <g transform="translate(36.363125 950.834385)scale(0.2 -0.2)">
       <use xlink:href="#DejaVuSans-49"/>
       <use x="63.623047" xlink:href="#DejaVuSans-48"/>
      </g>
     </g>
    </g>
    <g id="ytick_2">
     <g id="line2d_13">
      <path clip-path="url(#p35bd1010cb)" d="M 68.813125 795.699763 
L 961.613125 795.699763 
" style="fill:none;stroke:#b0b0b0;stroke-linecap:square;stroke-width:0.8;"/>
     </g>
     <g id="line2d_14">
      <g>
       <use style="stroke:#000000;stroke-width:0.8;" x="68.813125" xlink:href="#m2b5c01c411" y="795.699763"/>
      </g>
     </g>
     <g id="text_8">
      <!-- 12 -->
      <g transform="translate(36.363125 803.2982)scale(0.2 -0.2)">
       <use xlink:href="#DejaVuSans-49"/>
       <use x="63.623047" xlink:href="#DejaVuSans-50"/>
      </g>
     </g>
    </g>
    <g id="ytick_3">
     <g id="line2d_15">
      <path clip-path="url(#p35bd1010cb)" d="M 68.813125 648.163578 
L 961.613125 648.163578 
" style="fill:none;stroke:#b0b0b0;stroke-linecap:square;stroke-width:0.8;"/>
     </g>
     <g id="line2d_16">
      <g>
       <use style="stroke:#000000;stroke-width:0.8;" x="68.813125" xlink:href="#m2b5c01c411" y="648.163578"/>
      </g>
     </g>
     <g id="text_9">
      <!-- 14 -->
      <g transform="translate(36.363125 655.762015)scale(0.2 -0.2)">
       <use xlink:href="#DejaVuSans-49"/>
       <use x="63.623047" xlink:href="#DejaVuSans-52"/>
      </g>
     </g>
    </g>
    <g id="ytick_4">
     <g id="line2d_17">
      <path clip-path="url(#p35bd1010cb)" d="M 68.813125 500.627393 
L 961.613125 500.627393 
" style="fill:none;stroke:#b0b0b0;stroke-linecap:square;stroke-width:0.8;"/>
     </g>
     <g id="line2d_18">
      <g>
       <use style="stroke:#000000;stroke-width:0.8;" x="68.813125" xlink:href="#m2b5c01c411" y="500.627393"/>
      </g>
     </g>
     <g id="text_10">
      <!-- 16 -->
      <g transform="translate(36.363125 508.225831)scale(0.2 -0.2)">
       <use xlink:href="#DejaVuSans-49"/>
       <use x="63.623047" xlink:href="#DejaVuSans-54"/>
      </g>
     </g>
    </g>
    <g id="ytick_5">
     <g id="line2d_19">
      <path clip-path="url(#p35bd1010cb)" d="M 68.813125 353.091208 
L 961.613125 353.091208 
" style="fill:none;stroke:#b0b0b0;stroke-linecap:square;stroke-width:0.8;"/>
     </g>
     <g id="line2d_20">
      <g>
       <use style="stroke:#000000;stroke-width:0.8;" x="68.813125" xlink:href="#m2b5c01c411" y="353.091208"/>
      </g>
     </g>
     <g id="text_11">
      <!-- 18 -->
      <g transform="translate(36.363125 360.689646)scale(0.2 -0.2)">
       <use xlink:href="#DejaVuSans-49"/>
       <use x="63.623047" xlink:href="#DejaVuSans-56"/>
      </g>
     </g>
    </g>
    <g id="ytick_6">
     <g id="line2d_21">
      <path clip-path="url(#p35bd1010cb)" d="M 68.813125 205.555024 
L 961.613125 205.555024 
" style="fill:none;stroke:#b0b0b0;stroke-linecap:square;stroke-width:0.8;"/>
     </g>
     <g id="line2d_22">
      <g>
       <use style="stroke:#000000;stroke-width:0.8;" x="68.813125" xlink:href="#m2b5c01c411" y="205.555024"/>
      </g>
     </g>
     <g id="text_12">
      <!-- 20 -->
      <g transform="translate(36.363125 213.153461)scale(0.2 -0.2)">
       <use xlink:href="#DejaVuSans-50"/>
       <use x="63.623047" xlink:href="#DejaVuSans-48"/>
      </g>
     </g>
    </g>
    <g id="ytick_7">
     <g id="line2d_23">
      <path clip-path="url(#p35bd1010cb)" d="M 68.813125 58.018839 
L 961.613125 58.018839 
" style="fill:none;stroke:#b0b0b0;stroke-linecap:square;stroke-width:0.8;"/>
     </g>
     <g id="line2d_24">
      <g>
       <use style="stroke:#000000;stroke-width:0.8;" x="68.813125" xlink:href="#m2b5c01c411" y="58.018839"/>
      </g>
     </g>
     <g id="text_13">
      <!-- 22 -->
      <g transform="translate(36.363125 65.617276)scale(0.2 -0.2)">
       <use xlink:href="#DejaVuSans-50"/>
       <use x="63.623047" xlink:href="#DejaVuSans-50"/>
      </g>
     </g>
    </g>
    <g id="text_14">
     <!-- Avg. number of operations / size -->
     <defs>
      <path d="M 34.1875 63.1875 
L 20.796875 26.90625 
L 47.609375 26.90625 
z
M 28.609375 72.90625 
L 39.796875 72.90625 
L 67.578125 0 
L 57.328125 0 
L 50.6875 18.703125 
L 17.828125 18.703125 
L 11.1875 0 
L 0.78125 0 
z
" id="DejaVuSans-65"/>
      <path d="M 2.984375 54.6875 
L 12.5 54.6875 
L 29.59375 8.796875 
L 46.6875 54.6875 
L 56.203125 54.6875 
L 35.6875 0 
L 23.484375 0 
z
" id="DejaVuSans-118"/>
      <path d="M 54.890625 33.015625 
L 54.890625 0 
L 45.90625 0 
L 45.90625 32.71875 
Q 45.90625 40.484375 42.875 44.328125 
Q 39.84375 48.1875 33.796875 48.1875 
Q 26.515625 48.1875 22.3125 43.546875 
Q 18.109375 38.921875 18.109375 30.90625 
L 18.109375 0 
L 9.078125 0 
L 9.078125 54.6875 
L 18.109375 54.6875 
L 18.109375 46.1875 
Q 21.34375 51.125 25.703125 53.5625 
Q 30.078125 56 35.796875 56 
Q 45.21875 56 50.046875 50.171875 
Q 54.890625 44.34375 54.890625 33.015625 
z
" id="DejaVuSans-110"/>
      <path d="M 8.5 21.578125 
L 8.5 54.6875 
L 17.484375 54.6875 
L 17.484375 21.921875 
Q 17.484375 14.15625 20.5 10.265625 
Q 23.53125 6.390625 29.59375 6.390625 
Q 36.859375 6.390625 41.078125 11.03125 
Q 45.3125 15.671875 45.3125 23.6875 
L 45.3125 54.6875 
L 54.296875 54.6875 
L 54.296875 0 
L 45.3125 0 
L 45.3125 8.40625 
Q 42.046875 3.421875 37.71875 1 
Q 33.40625 -1.421875 27.6875 -1.421875 
Q 18.265625 -1.421875 13.375 4.4375 
Q 8.5 10.296875 8.5 21.578125 
z
M 31.109375 56 
z
" id="DejaVuSans-117"/>
      <path d="M 52 44.1875 
Q 55.375 50.25 60.0625 53.125 
Q 64.75 56 71.09375 56 
Q 79.640625 56 84.28125 50.015625 
Q 88.921875 44.046875 88.921875 33.015625 
L 88.921875 0 
L 79.890625 0 
L 79.890625 32.71875 
Q 79.890625 40.578125 77.09375 44.375 
Q 74.3125 48.1875 68.609375 48.1875 
Q 61.625 48.1875 57.5625 43.546875 
Q 53.515625 38.921875 53.515625 30.90625 
L 53.515625 0 
L 44.484375 0 
L 44.484375 32.71875 
Q 44.484375 40.625 41.703125 44.40625 
Q 38.921875 48.1875 33.109375 48.1875 
Q 26.21875 48.1875 22.15625 43.53125 
Q 18.109375 38.875 18.109375 30.90625 
L 18.109375 0 
L 9.078125 0 
L 9.078125 54.6875 
L 18.109375 54.6875 
L 18.109375 46.1875 
Q 21.1875 51.21875 25.484375 53.609375 
Q 29.78125 56 35.6875 56 
Q 41.65625 56 45.828125 52.96875 
Q 50 49.953125 52 44.1875 
z
" id="DejaVuSans-109"/>
      <path d="M 37.109375 75.984375 
L 37.109375 68.5 
L 28.515625 68.5 
Q 23.6875 68.5 21.796875 66.546875 
Q 19.921875 64.59375 19.921875 59.515625 
L 19.921875 54.6875 
L 34.71875 54.6875 
L 34.71875 47.703125 
L 19.921875 47.703125 
L 19.921875 0 
L 10.890625 0 
L 10.890625 47.703125 
L 2.296875 47.703125 
L 2.296875 54.6875 
L 10.890625 54.6875 
L 10.890625 58.5 
Q 10.890625 67.625 15.140625 71.796875 
Q 19.390625 75.984375 28.609375 75.984375 
z
" id="DejaVuSans-102"/>
      <path d="M 44.28125 53.078125 
L 44.28125 44.578125 
Q 40.484375 46.53125 36.375 47.5 
Q 32.28125 48.484375 27.875 48.484375 
Q 21.1875 48.484375 17.84375 46.4375 
Q 14.5 44.390625 14.5 40.28125 
Q 14.5 37.15625 16.890625 35.375 
Q 19.28125 33.59375 26.515625 31.984375 
L 29.59375 31.296875 
Q 39.15625 29.25 43.1875 25.515625 
Q 47.21875 21.78125 47.21875 15.09375 
Q 47.21875 7.46875 41.1875 3.015625 
Q 35.15625 -1.421875 24.609375 -1.421875 
Q 20.21875 -1.421875 15.453125 -0.5625 
Q 10.6875 0.296875 5.421875 2 
L 5.421875 11.28125 
Q 10.40625 8.6875 15.234375 7.390625 
Q 20.0625 6.109375 24.8125 6.109375 
Q 31.15625 6.109375 34.5625 8.28125 
Q 37.984375 10.453125 37.984375 14.40625 
Q 37.984375 18.0625 35.515625 20.015625 
Q 33.0625 21.96875 24.703125 23.78125 
L 21.578125 24.515625 
Q 13.234375 26.265625 9.515625 29.90625 
Q 5.8125 33.546875 5.8125 39.890625 
Q 5.8125 47.609375 11.28125 51.796875 
Q 16.75 56 26.8125 56 
Q 31.78125 56 36.171875 55.265625 
Q 40.578125 54.546875 44.28125 53.078125 
z
" id="DejaVuSans-115"/>
      <path d="M 25.390625 72.90625 
L 33.6875 72.90625 
L 8.296875 -9.28125 
L 0 -9.28125 
z
" id="DejaVuSans-47"/>
      <path d="M 5.515625 54.6875 
L 48.1875 54.6875 
L 48.1875 46.484375 
L 14.40625 7.171875 
L 48.1875 7.171875 
L 48.1875 0 
L 4.296875 0 
L 4.296875 8.203125 
L 38.09375 47.515625 
L 5.515625 47.515625 
z
" id="DejaVuSans-122"/>
     </defs>
     <g transform="translate(26.955938 717.06875)rotate(-90)scale(0.26 -0.26)">
      <use xlink:href="#DejaVuSans-65"/>
      <use x="62.533203" xlink:href="#DejaVuSans-118"/>
      <use x="121.712891" xlink:href="#DejaVuSans-103"/>
      <use x="185.189453" xlink:href="#DejaVuSans-46"/>
      <use x="216.976562" xlink:href="#DejaVuSans-32"/>
      <use x="248.763672" xlink:href="#DejaVuSans-110"/>
      <use x="312.142578" xlink:href="#DejaVuSans-117"/>
      <use x="375.521484" xlink:href="#DejaVuSans-109"/>
      <use x="472.933594" xlink:href="#DejaVuSans-98"/>
      <use x="536.410156" xlink:href="#DejaVuSans-101"/>
      <use x="597.933594" xlink:href="#DejaVuSans-114"/>
      <use x="639.046875" xlink:href="#DejaVuSans-32"/>
      <use x="670.833984" xlink:href="#DejaVuSans-111"/>
      <use x="732.015625" xlink:href="#DejaVuSans-102"/>
      <use x="767.220703" xlink:href="#DejaVuSans-32"/>
      <use x="799.007812" xlink:href="#DejaVuSans-111"/>
      <use x="860.189453" xlink:href="#DejaVuSans-112"/>
      <use x="923.666016" xlink:href="#DejaVuSans-101"/>
      <use x="985.189453" xlink:href="#DejaVuSans-114"/>
      <use x="1026.302734" xlink:href="#DejaVuSans-97"/>
      <use x="1087.582031" xlink:href="#DejaVuSans-116"/>
      <use x="1126.791016" xlink:href="#DejaVuSans-105"/>
      <use x="1154.574219" xlink:href="#DejaVuSans-111"/>
      <use x="1215.755859" xlink:href="#DejaVuSans-110"/>
      <use x="1279.134766" xlink:href="#DejaVuSans-115"/>
      <use x="1331.234375" xlink:href="#DejaVuSans-32"/>
      <use x="1363.021484" xlink:href="#DejaVuSans-47"/>
      <use x="1396.712891" xlink:href="#DejaVuSans-32"/>
      <use x="1428.5" xlink:href="#DejaVuSans-115"/>
      <use x="1480.599609" xlink:href="#DejaVuSans-105"/>
      <use x="1508.382812" xlink:href="#DejaVuSans-122"/>
      <use x="1560.873047" xlink:href="#DejaVuSans-101"/>
     </g>
    </g>
   </g>
   <g id="line2d_25">
    <path clip-path="url(#p35bd1010cb)" d="M 109.394943 810.128801 
L 152.112647 751.556936 
L 194.83035 711.368079 
L 237.548053 681.03464 
L 280.265757 664.953196 
L 322.98346 647.440651 
L 365.701163 633.837814 
L 408.418867 618.744863 
L 451.13657 615.381038 
L 493.854273 601.025767 
L 536.571977 596.51116 
L 579.28968 585.755772 
L 622.007383 578.260933 
L 664.725087 571.075921 
L 707.44279 566.531807 
L 750.160493 562.149982 
L 792.878197 552.427348 
L 835.5959 560.172997 
L 878.313603 544.091553 
L 921.031307 548.945494 
" style="fill:none;stroke:#fe0002;stroke-linecap:square;stroke-width:1.5;"/>
    <defs>
     <path d="M 0 4.5 
C 1.193414 4.5 2.338109 4.025852 3.181981 3.181981 
C 4.025852 2.338109 4.5 1.193414 4.5 0 
C 4.5 -1.193414 4.025852 -2.338109 3.181981 -3.181981 
C 2.338109 -4.025852 1.193414 -4.5 0 -4.5 
C -1.193414 -4.5 -2.338109 -4.025852 -3.181981 -3.181981 
C -4.025852 -2.338109 -4.5 -1.193414 -4.5 0 
C -4.5 1.193414 -4.025852 2.338109 -3.181981 3.181981 
C -2.338109 4.025852 -1.193414 4.5 0 4.5 
z
" id="mfe51d5f693" style="stroke:#000000;"/>
    </defs>
    <g clip-path="url(#p35bd1010cb)">
     <use style="fill:#fe0002;stroke:#000000;" x="109.394943" xlink:href="#mfe51d5f693" y="810.128801"/>
     <use style="fill:#fe0002;stroke:#000000;" x="152.112647" xlink:href="#mfe51d5f693" y="751.556936"/>
     <use style="fill:#fe0002;stroke:#000000;" x="194.83035" xlink:href="#mfe51d5f693" y="711.368079"/>
     <use style="fill:#fe0002;stroke:#000000;" x="237.548053" xlink:href="#mfe51d5f693" y="681.03464"/>
     <use style="fill:#fe0002;stroke:#000000;" x="280.265757" xlink:href="#mfe51d5f693" y="664.953196"/>
     <use style="fill:#fe0002;stroke:#000000;" x="322.98346" xlink:href="#mfe51d5f693" y="647.440651"/>
     <use style="fill:#fe0002;stroke:#000000;" x="365.701163" xlink:href="#mfe51d5f693" y="633.837814"/>
     <use style="fill:#fe0002;stroke:#000000;" x="408.418867" xlink:href="#mfe51d5f693" y="618.744863"/>
     <use style="fill:#fe0002;stroke:#000000;" x="451.13657" xlink:href="#mfe51d5f693" y="615.381038"/>
     <use style="fill:#fe0002;stroke:#000000;" x="493.854273" xlink:href="#mfe51d5f693" y="601.025767"/>
     <use style="fill:#fe0002;stroke:#000000;" x="536.571977" xlink:href="#mfe51d5f693" y="596.51116"/>
     <use style="fill:#fe0002;stroke:#000000;" x="579.28968" xlink:href="#mfe51d5f693" y="585.755772"/>
     <use style="fill:#fe0002;stroke:#000000;" x="622.007383" xlink:href="#mfe51d5f693" y="578.260933"/>
     <use style="fill:#fe0002;stroke:#000000;" x="664.725087" xlink:href="#mfe51d5f693" y="571.075921"/>
     <use style="fill:#fe0002;stroke:#000000;" x="707.44279" xlink:href="#mfe51d5f693" y="566.531807"/>
     <use style="fill:#fe0002;stroke:#000000;" x="750.160493" xlink:href="#mfe51d5f693" y="562.149982"/>
     <use style="fill:#fe0002;stroke:#000000;" x="792.878197" xlink:href="#mfe51d5f693" y="552.427348"/>
     <use style="fill:#fe0002;stroke:#000000;" x="835.5959" xlink:href="#mfe51d5f693" y="560.172997"/>
     <use style="fill:#fe0002;stroke:#000000;" x="878.313603" xlink:href="#mfe51d5f693" y="544.091553"/>
     <use style="fill:#fe0002;stroke:#000000;" x="921.031307" xlink:href="#mfe51d5f693" y="548.945494"/>
    </g>
   </g>
   <g id="line2d_26">
    <path clip-path="url(#p35bd1010cb)" d="M 109.394943 810.128801 
L 152.112647 751.556936 
L 194.83035 711.368079 
L 237.548053 681.03464 
L 280.265757 664.953196 
L 322.98346 647.440651 
L 365.701163 633.837814 
L 408.418867 618.744863 
L 451.13657 615.381038 
L 493.854273 601.025767 
L 536.571977 596.51116 
L 579.28968 585.755772 
L 622.007383 578.260933 
L 664.725087 571.075921 
L 707.44279 566.531807 
L 750.160493 562.149982 
L 792.878197 552.427348 
L 835.5959 560.172997 
L 878.313603 544.091553 
L 921.031307 548.945494 
" style="fill:none;stroke:#fe0002;stroke-dasharray:5.55,2.4;stroke-dashoffset:0;stroke-width:1.5;"/>
    <g clip-path="url(#p35bd1010cb)">
     <use style="fill:#fe0002;stroke:#000000;" x="109.394943" xlink:href="#mfe51d5f693" y="810.128801"/>
     <use style="fill:#fe0002;stroke:#000000;" x="152.112647" xlink:href="#mfe51d5f693" y="751.556936"/>
     <use style="fill:#fe0002;stroke:#000000;" x="194.83035" xlink:href="#mfe51d5f693" y="711.368079"/>
     <use style="fill:#fe0002;stroke:#000000;" x="237.548053" xlink:href="#mfe51d5f693" y="681.03464"/>
     <use style="fill:#fe0002;stroke:#000000;" x="280.265757" xlink:href="#mfe51d5f693" y="664.953196"/>
     <use style="fill:#fe0002;stroke:#000000;" x="322.98346" xlink:href="#mfe51d5f693" y="647.440651"/>
     <use style="fill:#fe0002;stroke:#000000;" x="365.701163" xlink:href="#mfe51d5f693" y="633.837814"/>
     <use style="fill:#fe0002;stroke:#000000;" x="408.418867" xlink:href="#mfe51d5f693" y="618.744863"/>
     <use style="fill:#fe0002;stroke:#000000;" x="451.13657" xlink:href="#mfe51d5f693" y="615.381038"/>
     <use style="fill:#fe0002;stroke:#000000;" x="493.854273" xlink:href="#mfe51d5f693" y="601.025767"/>
     <use style="fill:#fe0002;stroke:#000000;" x="536.571977" xlink:href="#mfe51d5f693" y="596.51116"/>
     <use style="fill:#fe0002;stroke:#000000;" x="579.28968" xlink:href="#mfe51d5f693" y="585.755772"/>
     <use style="fill:#fe0002;stroke:#000000;" x="622.007383" xlink:href="#mfe51d5f693" y="578.260933"/>
     <use style="fill:#fe0002;stroke:#000000;" x="664.725087" xlink:href="#mfe51d5f693" y="571.075921"/>
     <use style="fill:#fe0002;stroke:#000000;" x="707.44279" xlink:href="#mfe51d5f693" y="566.531807"/>
     <use style="fill:#fe0002;stroke:#000000;" x="750.160493" xlink:href="#mfe51d5f693" y="562.149982"/>
     <use style="fill:#fe0002;stroke:#000000;" x="792.878197" xlink:href="#mfe51d5f693" y="552.427348"/>
     <use style="fill:#fe0002;stroke:#000000;" x="835.5959" xlink:href="#mfe51d5f693" y="560.172997"/>
     <use style="fill:#fe0002;stroke:#000000;" x="878.313603" xlink:href="#mfe51d5f693" y="544.091553"/>
     <use style="fill:#fe0002;stroke:#000000;" x="921.031307" xlink:href="#mfe51d5f693" y="548.945494"/>
    </g>
   </g>
   <g id="line2d_27">
    <path clip-path="url(#p35bd1010cb)" d="M 109.394943 487.850759 
L 152.112647 395.448847 
L 194.83035 337.334344 
L 237.548053 299.712617 
L 280.265757 274.410161 
L 322.98346 250.583067 
L 365.701163 224.941278 
L 408.418867 209.612269 
L 451.13657 195.124215 
L 493.854273 182.126277 
L 536.571977 167.520195 
L 579.28968 154.345214 
L 622.007383 139.901421 
L 664.725087 136.22777 
L 707.44279 125.914991 
L 750.160493 124.233079 
L 792.878197 101.940361 
L 835.5959 105.510737 
L 878.313603 100.332217 
L 921.031307 95.965146 
" style="fill:none;stroke:#53fca1;stroke-linecap:square;stroke-width:1.5;"/>
    <defs>
     <path d="M 0 -4.5 
L -4.5 4.5 
L 4.5 4.5 
z
" id="m1a26e1fe63" style="stroke:#000000;stroke-linejoin:miter;"/>
    </defs>
    <g clip-path="url(#p35bd1010cb)">
     <use style="fill:#53fca1;stroke:#000000;stroke-linejoin:miter;" x="109.394943" xlink:href="#m1a26e1fe63" y="487.850759"/>
     <use style="fill:#53fca1;stroke:#000000;stroke-linejoin:miter;" x="152.112647" xlink:href="#m1a26e1fe63" y="395.448847"/>
     <use style="fill:#53fca1;stroke:#000000;stroke-linejoin:miter;" x="194.83035" xlink:href="#m1a26e1fe63" y="337.334344"/>
     <use style="fill:#53fca1;stroke:#000000;stroke-linejoin:miter;" x="237.548053" xlink:href="#m1a26e1fe63" y="299.712617"/>
     <use style="fill:#53fca1;stroke:#000000;stroke-linejoin:miter;" x="280.265757" xlink:href="#m1a26e1fe63" y="274.410161"/>
     <use style="fill:#53fca1;stroke:#000000;stroke-linejoin:miter;" x="322.98346" xlink:href="#m1a26e1fe63" y="250.583067"/>
     <use style="fill:#53fca1;stroke:#000000;stroke-linejoin:miter;" x="365.701163" xlink:href="#m1a26e1fe63" y="224.941278"/>
     <use style="fill:#53fca1;stroke:#000000;stroke-linejoin:miter;" x="408.418867" xlink:href="#m1a26e1fe63" y="209.612269"/>
     <use style="fill:#53fca1;stroke:#000000;stroke-linejoin:miter;" x="451.13657" xlink:href="#m1a26e1fe63" y="195.124215"/>
     <use style="fill:#53fca1;stroke:#000000;stroke-linejoin:miter;" x="493.854273" xlink:href="#m1a26e1fe63" y="182.126277"/>
     <use style="fill:#53fca1;stroke:#000000;stroke-linejoin:miter;" x="536.571977" xlink:href="#m1a26e1fe63" y="167.520195"/>
     <use style="fill:#53fca1;stroke:#000000;stroke-linejoin:miter;" x="579.28968" xlink:href="#m1a26e1fe63" y="154.345214"/>
     <use style="fill:#53fca1;stroke:#000000;stroke-linejoin:miter;" x="622.007383" xlink:href="#m1a26e1fe63" y="139.901421"/>
     <use style="fill:#53fca1;stroke:#000000;stroke-linejoin:miter;" x="664.725087" xlink:href="#m1a26e1fe63" y="136.22777"/>
     <use style="fill:#53fca1;stroke:#000000;stroke-linejoin:miter;" x="707.44279" xlink:href="#m1a26e1fe63" y="125.914991"/>
     <use style="fill:#53fca1;stroke:#000000;stroke-linejoin:miter;" x="750.160493" xlink:href="#m1a26e1fe63" y="124.233079"/>
     <use style="fill:#53fca1;stroke:#000000;stroke-linejoin:miter;" x="792.878197" xlink:href="#m1a26e1fe63" y="101.940361"/>
     <use style="fill:#53fca1;stroke:#000000;stroke-linejoin:miter;" x="835.5959" xlink:href="#m1a26e1fe63" y="105.510737"/>
     <use style="fill:#53fca1;stroke:#000000;stroke-linejoin:miter;" x="878.313603" xlink:href="#m1a26e1fe63" y="100.332217"/>
     <use style="fill:#53fca1;stroke:#000000;stroke-linejoin:miter;" x="921.031307" xlink:href="#m1a26e1fe63" y="95.965146"/>
    </g>
   </g>
   <g id="line2d_28">
    <path clip-path="url(#p35bd1010cb)" d="M 109.394943 953.681509 
L 152.112647 906.425669 
L 194.83035 876.490577 
L 237.548053 856.868265 
L 280.265757 844.150646 
L 322.98346 831.97891 
L 365.701163 817.269553 
L 408.418867 808.49115 
L 451.13657 802.014311 
L 493.854273 794.829299 
L 536.571977 787.673794 
L 579.28968 780.916637 
L 622.007383 774.779132 
L 664.725087 770.544843 
L 707.44279 766.605627 
L 750.160493 764.436845 
L 792.878197 752.545429 
L 835.5959 754.50766 
L 878.313603 751.173342 
L 921.031307 749.402908 
" style="fill:none;stroke:#53fca1;stroke-dasharray:5.55,2.4;stroke-dashoffset:0;stroke-width:1.5;"/>
    <defs>
     <path d="M -0 6.363961 
L 6.363961 0 
L 0 -6.363961 
L -6.363961 -0 
z
" id="md7b534b111" style="stroke:#000000;stroke-linejoin:miter;"/>
    </defs>
    <g clip-path="url(#p35bd1010cb)">
     <use style="fill:#53fca1;stroke:#000000;stroke-linejoin:miter;" x="109.394943" xlink:href="#md7b534b111" y="953.681509"/>
     <use style="fill:#53fca1;stroke:#000000;stroke-linejoin:miter;" x="152.112647" xlink:href="#md7b534b111" y="906.425669"/>
     <use style="fill:#53fca1;stroke:#000000;stroke-linejoin:miter;" x="194.83035" xlink:href="#md7b534b111" y="876.490577"/>
     <use style="fill:#53fca1;stroke:#000000;stroke-linejoin:miter;" x="237.548053" xlink:href="#md7b534b111" y="856.868265"/>
     <use style="fill:#53fca1;stroke:#000000;stroke-linejoin:miter;" x="280.265757" xlink:href="#md7b534b111" y="844.150646"/>
     <use style="fill:#53fca1;stroke:#000000;stroke-linejoin:miter;" x="322.98346" xlink:href="#md7b534b111" y="831.97891"/>
     <use style="fill:#53fca1;stroke:#000000;stroke-linejoin:miter;" x="365.701163" xlink:href="#md7b534b111" y="817.269553"/>
     <use style="fill:#53fca1;stroke:#000000;stroke-linejoin:miter;" x="408.418867" xlink:href="#md7b534b111" y="808.49115"/>
     <use style="fill:#53fca1;stroke:#000000;stroke-linejoin:miter;" x="451.13657" xlink:href="#md7b534b111" y="802.014311"/>
     <use style="fill:#53fca1;stroke:#000000;stroke-linejoin:miter;" x="493.854273" xlink:href="#md7b534b111" y="794.829299"/>
     <use style="fill:#53fca1;stroke:#000000;stroke-linejoin:miter;" x="536.571977" xlink:href="#md7b534b111" y="787.673794"/>
     <use style="fill:#53fca1;stroke:#000000;stroke-linejoin:miter;" x="579.28968" xlink:href="#md7b534b111" y="780.916637"/>
     <use style="fill:#53fca1;stroke:#000000;stroke-linejoin:miter;" x="622.007383" xlink:href="#md7b534b111" y="774.779132"/>
     <use style="fill:#53fca1;stroke:#000000;stroke-linejoin:miter;" x="664.725087" xlink:href="#md7b534b111" y="770.544843"/>
     <use style="fill:#53fca1;stroke:#000000;stroke-linejoin:miter;" x="707.44279" xlink:href="#md7b534b111" y="766.605627"/>
     <use style="fill:#53fca1;stroke:#000000;stroke-linejoin:miter;" x="750.160493" xlink:href="#md7b534b111" y="764.436845"/>
     <use style="fill:#53fca1;stroke:#000000;stroke-linejoin:miter;" x="792.878197" xlink:href="#md7b534b111" y="752.545429"/>
     <use style="fill:#53fca1;stroke:#000000;stroke-linejoin:miter;" x="835.5959" xlink:href="#md7b534b111" y="754.50766"/>
     <use style="fill:#53fca1;stroke:#000000;stroke-linejoin:miter;" x="878.313603" xlink:href="#md7b534b111" y="751.173342"/>
     <use style="fill:#53fca1;stroke:#000000;stroke-linejoin:miter;" x="921.031307" xlink:href="#md7b534b111" y="749.402908"/>
    </g>
   </g>
   <g id="patch_3">
    <path d="M 68.813125 1005.12 
L 68.813125 7.2 
" style="fill:none;stroke:#000000;stroke-linecap:square;stroke-linejoin:miter;stroke-width:0.8;"/>
   </g>
   <g id="patch_4">
    <path d="M 961.613125 1005.12 
L 961.613125 7.2 
" style="fill:none;stroke:#000000;stroke-linecap:square;stroke-linejoin:miter;stroke-width:0.8;"/>
   </g>
   <g id="patch_5">
    <path d="M 68.813125 1005.12 
L 961.613125 1005.12 
" style="fill:none;stroke:#000000;stroke-linecap:square;stroke-linejoin:miter;stroke-width:0.8;"/>
   </g>
   <g id="patch_6">
    <path d="M 68.813125 7.2 
L 961.613125 7.2 
" style="fill:none;stroke:#000000;stroke-linecap:square;stroke-linejoin:miter;stroke-width:0.8;"/>
   </g>
   <g id="legend_1">
    <g id="patch_7">
     <path d="M 87.013125 180.6525 
L 444.151563 180.6525 
Q 449.351563 180.6525 449.351563 175.4525 
L 449.351563 25.4 
Q 449.351563 20.2 444.151563 20.2 
L 87.013125 20.2 
Q 81.813125 20.2 81.813125 25.4 
L 81.813125 175.4525 
Q 81.813125 180.6525 87.013125 180.6525 
z
" style="fill:#ffffff;opacity:0.8;stroke:#cccccc;stroke-linejoin:miter;"/>
    </g>
    <g id="line2d_29">
     <path d="M 92.213125 41.255937 
L 144.213125 41.255937 
" style="fill:none;stroke:#fe0002;stroke-linecap:square;stroke-width:1.5;"/>
    </g>
    <g id="line2d_30">
     <g>
      <use style="fill:#fe0002;stroke:#000000;" x="118.213125" xlink:href="#mfe51d5f693" y="41.255937"/>
     </g>
    </g>
    <g id="text_15">
     <!-- Pairing comparisons -->
     <defs>
      <path d="M 19.671875 64.796875 
L 19.671875 37.40625 
L 32.078125 37.40625 
Q 38.96875 37.40625 42.71875 40.96875 
Q 46.484375 44.53125 46.484375 51.125 
Q 46.484375 57.671875 42.71875 61.234375 
Q 38.96875 64.796875 32.078125 64.796875 
z
M 9.8125 72.90625 
L 32.078125 72.90625 
Q 44.34375 72.90625 50.609375 67.359375 
Q 56.890625 61.8125 56.890625 51.125 
Q 56.890625 40.328125 50.609375 34.8125 
Q 44.34375 29.296875 32.078125 29.296875 
L 19.671875 29.296875 
L 19.671875 0 
L 9.8125 0 
z
" id="DejaVuSans-80"/>
      <path d="M 48.78125 52.59375 
L 48.78125 44.1875 
Q 44.96875 46.296875 41.140625 47.34375 
Q 37.3125 48.390625 33.40625 48.390625 
Q 24.65625 48.390625 19.8125 42.84375 
Q 14.984375 37.3125 14.984375 27.296875 
Q 14.984375 17.28125 19.8125 11.734375 
Q 24.65625 6.203125 33.40625 6.203125 
Q 37.3125 6.203125 41.140625 7.25 
Q 44.96875 8.296875 48.78125 10.40625 
L 48.78125 2.09375 
Q 45.015625 0.34375 40.984375 -0.53125 
Q 36.96875 -1.421875 32.421875 -1.421875 
Q 20.0625 -1.421875 12.78125 6.34375 
Q 5.515625 14.109375 5.515625 27.296875 
Q 5.515625 40.671875 12.859375 48.328125 
Q 20.21875 56 33.015625 56 
Q 37.15625 56 41.109375 55.140625 
Q 45.0625 54.296875 48.78125 52.59375 
z
" id="DejaVuSans-99"/>
     </defs>
     <g transform="translate(165.013125 50.355937)scale(0.26 -0.26)">
      <use xlink:href="#DejaVuSans-80"/>
      <use x="55.802734" xlink:href="#DejaVuSans-97"/>
      <use x="117.082031" xlink:href="#DejaVuSans-105"/>
      <use x="144.865234" xlink:href="#DejaVuSans-114"/>
      <use x="185.978516" xlink:href="#DejaVuSans-105"/>
      <use x="213.761719" xlink:href="#DejaVuSans-110"/>
      <use x="277.140625" xlink:href="#DejaVuSans-103"/>
      <use x="340.617188" xlink:href="#DejaVuSans-32"/>
      <use x="372.404297" xlink:href="#DejaVuSans-99"/>
      <use x="427.384766" xlink:href="#DejaVuSans-111"/>
      <use x="488.566406" xlink:href="#DejaVuSans-109"/>
      <use x="585.978516" xlink:href="#DejaVuSans-112"/>
      <use x="649.455078" xlink:href="#DejaVuSans-97"/>
      <use x="710.734375" xlink:href="#DejaVuSans-114"/>
      <use x="751.847656" xlink:href="#DejaVuSans-105"/>
      <use x="779.630859" xlink:href="#DejaVuSans-115"/>
      <use x="831.730469" xlink:href="#DejaVuSans-111"/>
      <use x="892.912109" xlink:href="#DejaVuSans-110"/>
      <use x="956.291016" xlink:href="#DejaVuSans-115"/>
     </g>
    </g>
    <g id="line2d_31">
     <path d="M 92.213125 79.419063 
L 144.213125 79.419063 
" style="fill:none;stroke:#fe0002;stroke-dasharray:5.55,2.4;stroke-dashoffset:0;stroke-width:1.5;"/>
    </g>
    <g id="line2d_32">
     <g>
      <use style="fill:#fe0002;stroke:#000000;" x="118.213125" xlink:href="#mfe51d5f693" y="79.419063"/>
     </g>
    </g>
    <g id="text_16">
     <!-- Pairing links -->
     <defs>
      <path d="M 9.078125 75.984375 
L 18.109375 75.984375 
L 18.109375 31.109375 
L 44.921875 54.6875 
L 56.390625 54.6875 
L 27.390625 29.109375 
L 57.625 0 
L 45.90625 0 
L 18.109375 26.703125 
L 18.109375 0 
L 9.078125 0 
z
" id="DejaVuSans-107"/>
     </defs>
     <g transform="translate(165.013125 88.519063)scale(0.26 -0.26)">
      <use xlink:href="#DejaVuSans-80"/>
      <use x="55.802734" xlink:href="#DejaVuSans-97"/>
      <use x="117.082031" xlink:href="#DejaVuSans-105"/>
      <use x="144.865234" xlink:href="#DejaVuSans-114"/>
      <use x="185.978516" xlink:href="#DejaVuSans-105"/>
      <use x="213.761719" xlink:href="#DejaVuSans-110"/>
      <use x="277.140625" xlink:href="#DejaVuSans-103"/>
      <use x="340.617188" xlink:href="#DejaVuSans-32"/>
      <use x="372.404297" xlink:href="#DejaVuSans-108"/>
      <use x="400.1875" xlink:href="#DejaVuSans-105"/>
      <use x="427.970703" xlink:href="#DejaVuSans-110"/>
      <use x="491.349609" xlink:href="#DejaVuSans-107"/>
      <use x="549.259766" xlink:href="#DejaVuSans-115"/>
     </g>
    </g>
    <g id="line2d_33">
     <path d="M 92.213125 117.582187 
L 144.213125 117.582187 
" style="fill:none;stroke:#53fca1;stroke-linecap:square;stroke-width:1.5;"/>
    </g>
    <g id="line2d_34">
     <g>
      <use style="fill:#53fca1;stroke:#000000;stroke-linejoin:miter;" x="118.213125" xlink:href="#m1a26e1fe63" y="117.582187"/>
     </g>
    </g>
    <g id="text_17">
     <!-- Smooth comparisons -->
     <defs>
      <path d="M 53.515625 70.515625 
L 53.515625 60.890625 
Q 47.90625 63.578125 42.921875 64.890625 
Q 37.9375 66.21875 33.296875 66.21875 
Q 25.25 66.21875 20.875 63.09375 
Q 16.5 59.96875 16.5 54.203125 
Q 16.5 49.359375 19.40625 46.890625 
Q 22.3125 44.4375 30.421875 42.921875 
L 36.375 41.703125 
Q 47.40625 39.59375 52.65625 34.296875 
Q 57.90625 29 57.90625 20.125 
Q 57.90625 9.515625 50.796875 4.046875 
Q 43.703125 -1.421875 29.984375 -1.421875 
Q 24.8125 -1.421875 18.96875 -0.25 
Q 13.140625 0.921875 6.890625 3.21875 
L 6.890625 13.375 
Q 12.890625 10.015625 18.65625 8.296875 
Q 24.421875 6.59375 29.984375 6.59375 
Q 38.421875 6.59375 43.015625 9.90625 
Q 47.609375 13.234375 47.609375 19.390625 
Q 47.609375 24.75 44.3125 27.78125 
Q 41.015625 30.8125 33.5 32.328125 
L 27.484375 33.5 
Q 16.453125 35.6875 11.515625 40.375 
Q 6.59375 45.0625 6.59375 53.421875 
Q 6.59375 63.09375 13.40625 68.65625 
Q 20.21875 74.21875 32.171875 74.21875 
Q 37.3125 74.21875 42.625 73.28125 
Q 47.953125 72.359375 53.515625 70.515625 
z
" id="DejaVuSans-83"/>
      <path d="M 54.890625 33.015625 
L 54.890625 0 
L 45.90625 0 
L 45.90625 32.71875 
Q 45.90625 40.484375 42.875 44.328125 
Q 39.84375 48.1875 33.796875 48.1875 
Q 26.515625 48.1875 22.3125 43.546875 
Q 18.109375 38.921875 18.109375 30.90625 
L 18.109375 0 
L 9.078125 0 
L 9.078125 75.984375 
L 18.109375 75.984375 
L 18.109375 46.1875 
Q 21.34375 51.125 25.703125 53.5625 
Q 30.078125 56 35.796875 56 
Q 45.21875 56 50.046875 50.171875 
Q 54.890625 44.34375 54.890625 33.015625 
z
" id="DejaVuSans-104"/>
     </defs>
     <g transform="translate(165.013125 126.682187)scale(0.26 -0.26)">
      <use xlink:href="#DejaVuSans-83"/>
      <use x="63.476562" xlink:href="#DejaVuSans-109"/>
      <use x="160.888672" xlink:href="#DejaVuSans-111"/>
      <use x="222.070312" xlink:href="#DejaVuSans-111"/>
      <use x="283.251953" xlink:href="#DejaVuSans-116"/>
      <use x="322.460938" xlink:href="#DejaVuSans-104"/>
      <use x="385.839844" xlink:href="#DejaVuSans-32"/>
      <use x="417.626953" xlink:href="#DejaVuSans-99"/>
      <use x="472.607422" xlink:href="#DejaVuSans-111"/>
      <use x="533.789062" xlink:href="#DejaVuSans-109"/>
      <use x="631.201172" xlink:href="#DejaVuSans-112"/>
      <use x="694.677734" xlink:href="#DejaVuSans-97"/>
      <use x="755.957031" xlink:href="#DejaVuSans-114"/>
      <use x="797.070312" xlink:href="#DejaVuSans-105"/>
      <use x="824.853516" xlink:href="#DejaVuSans-115"/>
      <use x="876.953125" xlink:href="#DejaVuSans-111"/>
      <use x="938.134766" xlink:href="#DejaVuSans-110"/>
      <use x="1001.513672" xlink:href="#DejaVuSans-115"/>
     </g>
    </g>
    <g id="line2d_35">
     <path d="M 92.213125 155.745312 
L 144.213125 155.745312 
" style="fill:none;stroke:#53fca1;stroke-dasharray:5.55,2.4;stroke-dashoffset:0;stroke-width:1.5;"/>
    </g>
    <g id="line2d_36">
     <g>
      <use style="fill:#53fca1;stroke:#000000;stroke-linejoin:miter;" x="118.213125" xlink:href="#md7b534b111" y="155.745312"/>
     </g>
    </g>
    <g id="text_18">
     <!-- Smooth links -->
     <g transform="translate(165.013125 164.845312)scale(0.26 -0.26)">
      <use xlink:href="#DejaVuSans-83"/>
      <use x="63.476562" xlink:href="#DejaVuSans-109"/>
      <use x="160.888672" xlink:href="#DejaVuSans-111"/>
      <use x="222.070312" xlink:href="#DejaVuSans-111"/>
      <use x="283.251953" xlink:href="#DejaVuSans-116"/>
      <use x="322.460938" xlink:href="#DejaVuSans-104"/>
      <use x="385.839844" xlink:href="#DejaVuSans-32"/>
      <use x="417.626953" xlink:href="#DejaVuSans-108"/>
      <use x="445.410156" xlink:href="#DejaVuSans-105"/>
      <use x="473.193359" xlink:href="#DejaVuSans-110"/>
      <use x="536.572266" xlink:href="#DejaVuSans-107"/>
      <use x="594.482422" xlink:href="#DejaVuSans-115"/>
     </g>
    </g>
   </g>
  </g>
 </g>
 <defs>
  <clipPath id="p35bd1010cb">
   <rect height="997.92" width="892.8" x="68.813125" y="7.2"/>
  </clipPath>
 </defs>
</svg>
