<?xml version="1.0" encoding="utf-8" standalone="no"?>
<!DOCTYPE svg PUBLIC "-//W3C//DTD SVG 1.1//EN"
  "http://www.w3.org/Graphics/SVG/1.1/DTD/svg11.dtd">
<svg height="1090.099062pt" version="1.1" viewBox="0 0 1014.923768 1090.099062" width="1014.923768pt" xmlns="http://www.w3.org/2000/svg" xmlns:xlink="http://www.w3.org/1999/xlink">
 <metadata>
  <rdf:RDF xmlns:cc="http://creativecommons.org/ns#" xmlns:dc="http://purl.org/dc/elements/1.1/" xmlns:rdf="http://www.w3.org/1999/02/22-rdf-syntax-ns#">
   <cc:Work>
    <dc:type rdf:resource="http://purl.org/dc/dcmitype/StillImage"/>
    <dc:date>2021-07-11T15:25:20.959737</dc:date>
    <dc:format>image/svg+xml</dc:format>
    <dc:creator>
     <cc:Agent>
      <dc:title>Matplotlib v3.4.2, https://matplotlib.org/</dc:title>
     </cc:Agent>
    </dc:creator>
   </cc:Work>
  </rdf:RDF>
 </metadata>
 <defs>
  <style type="text/css">*{stroke-linecap:butt;stroke-linejoin:round;}</style>
 </defs>
 <g id="figure_1">
  <g id="patch_1">
   <path d="M 0 1090.099062 
L 1014.923768 1090.099062 
L 1014.923768 0 
L 0 0 
z
" style="fill:#ffffff;"/>
  </g>
  <g id="axes_1">
   <g id="patch_2">
    <path d="M 94.119688 1005.12 
L 986.919688 1005.12 
L 986.919688 7.2 
L 94.119688 7.2 
z
" style="fill:#ffffff;"/>
   </g>
   <g id="PolyCollection_1">
    <defs>
     <path d="M 134.701506 -218.359643 
L 134.701506 -218.359643 
L 162.688966 -459.879249 
L 190.676427 -504.586483 
L 218.663888 -529.97352 
L 246.651349 -549.217549 
L 274.63881 -561.949151 
L 302.626271 -573.401119 
L 330.613731 -583.485859 
L 358.601192 -590.272492 
L 386.588653 -597.142911 
L 414.576114 -603.213559 
L 442.563575 -608.663431 
L 470.551035 -612.136725 
L 498.538496 -616.154625 
L 526.525957 -620.957064 
L 554.513418 -623.714371 
L 582.500879 -627.195282 
L 610.48834 -629.731701 
L 638.4758 -633.304014 
L 666.463261 -635.379612 
L 694.450722 -637.013431 
L 722.438183 -639.32896 
L 750.425644 -641.111309 
L 778.413104 -643.285926 
L 806.400565 -644.832151 
L 834.388026 -646.355525 
L 862.375487 -648.019812 
L 890.362948 -649.992582 
L 918.350409 -649.4137 
L 946.337869 -651.870141 
L 946.337869 -653.694382 
L 946.337869 -653.694382 
L 918.350409 -652.608978 
L 890.362948 -652.422364 
L 862.375487 -649.882137 
L 834.388026 -648.922412 
L 806.400565 -647.094362 
L 778.413104 -645.357715 
L 750.425644 -643.788639 
L 722.438183 -641.560704 
L 694.450722 -640.105881 
L 666.463261 -637.379041 
L 638.4758 -635.173956 
L 610.48834 -632.001529 
L 582.500879 -629.70885 
L 554.513418 -626.189855 
L 526.525957 -623.017428 
L 498.538496 -619.791682 
L 470.551035 -615.164432 
L 442.563575 -610.171572 
L 414.576114 -605.365325 
L 386.588653 -599.203275 
L 358.601192 -592.732742 
L 330.613731 -584.792152 
L 302.626271 -576.131768 
L 274.63881 -564.645524 
L 246.651349 -551.571162 
L 218.663888 -532.89459 
L 190.676427 -507.968375 
L 162.688966 -462.419476 
L 134.701506 -218.359643 
z
" id="ma52bc7457d" style="stroke:#fe0002;stroke-opacity:0.3;"/>
    </defs>
    <g clip-path="url(#p8c341fe8c4)">
     <use style="fill:#fe0002;fill-opacity:0.3;stroke:#fe0002;stroke-opacity:0.3;" x="0" xlink:href="#ma52bc7457d" y="1090.099062"/>
    </g>
   </g>
   <g id="PolyCollection_2">
    <defs>
     <path d="M 134.701506 -130.339063 
L 134.701506 -130.339063 
L 162.688966 -472.481365 
L 190.676427 -532.673701 
L 218.663888 -570.213458 
L 246.651349 -595.737598 
L 274.63881 -613.831479 
L 302.626271 -630.676193 
L 330.613731 -643.899084 
L 358.601192 -653.157393 
L 386.588653 -661.916796 
L 414.576114 -670.45531 
L 442.563575 -678.544429 
L 470.551035 -682.821303 
L 498.538496 -690.23252 
L 526.525957 -696.063236 
L 554.513418 -701.216051 
L 582.500879 -705.405331 
L 610.48834 -709.922136 
L 638.4758 -713.46779 
L 666.463261 -714.865486 
L 694.450722 -719.599373 
L 722.438183 -721.240809 
L 750.425644 -724.576999 
L 778.413104 -728.183588 
L 806.400565 -729.931661 
L 834.388026 -731.828262 
L 862.375487 -734.581761 
L 890.362948 -735.990883 
L 918.350409 -737.43428 
L 946.337869 -739.182352 
L 946.337869 -744.940708 
L 946.337869 -744.940708 
L 918.350409 -741.254142 
L 890.362948 -740.229672 
L 862.375487 -737.407621 
L 834.388026 -736.139412 
L 806.400565 -732.982218 
L 778.413104 -732.582332 
L 750.425644 -728.625367 
L 722.438183 -726.237477 
L 694.450722 -725.30441 
L 666.463261 -720.620034 
L 638.4758 -718.426374 
L 610.48834 -712.881291 
L 582.500879 -709.575568 
L 554.513418 -704.70077 
L 526.525957 -700.21824 
L 498.538496 -693.469691 
L 470.551035 -689.246135 
L 442.563575 -681.457883 
L 414.576114 -673.315446 
L 386.588653 -665.774742 
L 358.601192 -656.074655 
L 330.613731 -646.321249 
L 302.626271 -633.452543 
L 274.63881 -618.930975 
L 246.651349 -599.028087 
L 218.663888 -574.711221 
L 190.676427 -538.333038 
L 162.688966 -475.033017 
L 134.701506 -130.339063 
z
" id="m826b030782" style="stroke:#53fca1;stroke-opacity:0.3;"/>
    </defs>
    <g clip-path="url(#p8c341fe8c4)">
     <use style="fill:#53fca1;fill-opacity:0.3;stroke:#53fca1;stroke-opacity:0.3;" x="0" xlink:href="#m826b030782" y="1090.099062"/>
    </g>
   </g>
   <g id="PolyCollection_3">
    <defs>
     <path d="M 134.701506 -130.339063 
L 134.701506 -130.339063 
L 162.688966 -499.521263 
L 190.676427 -576.261255 
L 218.663888 -618.740554 
L 246.651349 -652.608978 
L 274.63881 -677.56947 
L 302.626271 -697.708481 
L 330.613731 -713.551576 
L 358.601192 -725.879484 
L 386.588653 -738.527301 
L 414.576114 -749.887867 
L 442.563575 -761.050394 
L 470.551035 -766.252718 
L 498.538496 -774.204733 
L 526.525957 -782.861309 
L 554.513418 -789.442287 
L 582.500879 -793.414486 
L 610.48834 -798.285476 
L 638.4758 -802.531882 
L 666.463261 -807.380022 
L 694.450722 -812.216736 
L 722.438183 -815.849984 
L 750.425644 -819.235684 
L 778.413104 -822.522364 
L 806.400565 -825.165419 
L 834.388026 -826.879216 
L 862.375487 -829.514654 
L 890.362948 -834.458004 
L 918.350409 -834.815997 
L 946.337869 -838.58254 
L 946.337869 -842.223406 
L 946.337869 -842.223406 
L 918.350409 -838.533031 
L 890.362948 -840.231593 
L 862.375487 -835.726213 
L 834.388026 -832.321471 
L 806.400565 -830.79048 
L 778.413104 -829.899306 
L 750.425644 -824.601771 
L 722.438183 -821.475044 
L 694.450722 -818.740587 
L 666.463261 -812.79181 
L 638.4758 -809.318516 
L 610.48834 -803.057446 
L 582.500879 -799.294711 
L 554.513418 -793.642992 
L 526.525957 -787.016313 
L 498.538496 -781.063727 
L 470.551035 -771.576912 
L 442.563575 -766.496458 
L 414.576114 -754.838834 
L 386.588653 -744.933091 
L 358.601192 -732.768946 
L 330.613731 -719.229954 
L 302.626271 -702.446176 
L 274.63881 -685.433891 
L 246.651349 -658.74056 
L 218.663888 -626.585932 
L 190.676427 -582.236691 
L 162.688966 -502.819369 
L 134.701506 -130.339063 
z
" id="me121b32dcf" style="stroke:#0652ff;stroke-opacity:0.3;"/>
    </defs>
    <g clip-path="url(#p8c341fe8c4)">
     <use style="fill:#0652ff;fill-opacity:0.3;stroke:#0652ff;stroke-opacity:0.3;" x="0" xlink:href="#me121b32dcf" y="1090.099062"/>
    </g>
   </g>
   <g id="PolyCollection_4">
    <defs>
     <path d="M 134.701506 -258.946149 
L 134.701506 -258.946149 
L 162.688966 -596.011806 
L 190.676427 -685.369147 
L 218.663888 -740.957084 
L 246.651349 -780.271572 
L 274.63881 -813.046975 
L 302.626271 -837.005848 
L 330.613731 -861.417925 
L 358.601192 -877.550461 
L 386.588653 -893.618254 
L 414.576114 -907.176287 
L 442.563575 -920.163055 
L 470.551035 -932.205331 
L 498.538496 -942.659488 
L 526.525957 -953.814398 
L 554.513418 -959.911705 
L 582.500879 -967.818019 
L 610.48834 -975.739566 
L 638.4758 -982.23295 
L 666.463261 -988.524487 
L 694.450722 -991.765466 
L 722.438183 -999.801267 
L 750.425644 -1004.881721 
L 778.413104 -1008.526395 
L 806.400565 -1013.957225 
L 834.388026 -1015.77004 
L 862.375487 -1021.29989 
L 890.362948 -1023.325978 
L 918.350409 -1026.056627 
L 946.337869 -1029.438518 
L 946.337869 -1037.539062 
L 946.337869 -1037.539062 
L 918.350409 -1032.774709 
L 890.362948 -1029.952657 
L 862.375487 -1025.534871 
L 834.388026 -1021.825454 
L 806.400565 -1022.910859 
L 778.413104 -1014.459938 
L 750.425644 -1009.436611 
L 722.438183 -1004.832211 
L 694.450722 -999.957413 
L 666.463261 -993.43737 
L 638.4758 -988.718717 
L 610.48834 -980.290648 
L 582.500879 -974.935986 
L 554.513418 -965.631976 
L 526.525957 -957.942743 
L 498.538496 -947.168677 
L 470.551035 -937.681862 
L 442.563575 -927.882755 
L 414.576114 -911.635966 
L 386.588653 -898.702516 
L 358.601192 -882.3986 
L 330.613731 -866.045175 
L 302.626271 -844.931204 
L 274.63881 -820.252536 
L 246.651349 -785.740486 
L 218.663888 -746.17845 
L 190.676427 -689.623171 
L 162.688966 -601.035133 
L 134.701506 -258.946149 
z
" id="mdb068240e0" style="stroke:#ae7181;stroke-opacity:0.3;"/>
    </defs>
    <g clip-path="url(#p8c341fe8c4)">
     <use style="fill:#ae7181;fill-opacity:0.3;stroke:#ae7181;stroke-opacity:0.3;" x="0" xlink:href="#mdb068240e0" y="1090.099062"/>
    </g>
   </g>
   <g id="PolyCollection_5">
    <defs>
     <path d="M 134.701506 -149.381244 
L 134.701506 -149.381244 
L 162.688966 -514.735966 
L 190.676427 -590.219174 
L 218.663888 -634.431311 
L 246.651349 -665.687148 
L 274.63881 -689.013821 
L 302.626271 -708.128363 
L 330.613731 -723.266897 
L 358.601192 -736.421236 
L 386.588653 -744.940708 
L 414.576114 -755.65384 
L 442.563575 -765.818556 
L 470.551035 -773.332601 
L 498.538496 -780.465802 
L 526.525957 -785.645276 
L 554.513418 -792.991749 
L 582.500879 -797.459045 
L 610.48834 -802.752772 
L 638.4758 -805.414869 
L 666.463261 -809.547022 
L 694.450722 -814.021935 
L 722.438183 -818.626334 
L 750.425644 -821.673083 
L 778.413104 -822.97176 
L 806.400565 -826.875407 
L 834.388026 -828.855794 
L 862.375487 -830.942817 
L 890.362948 -832.633763 
L 918.350409 -836.09944 
L 946.337869 -837.912256 
L 946.337869 -841.610247 
L 946.337869 -841.610247 
L 918.350409 -840.227785 
L 890.362948 -838.053168 
L 862.375487 -835.691937 
L 834.388026 -834.907399 
L 806.400565 -832.843227 
L 778.413104 -830.203981 
L 750.425644 -827.202933 
L 722.438183 -823.196458 
L 694.450722 -821.227496 
L 666.463261 -816.466951 
L 638.4758 -813.873406 
L 610.48834 -807.673271 
L 582.500879 -803.423056 
L 554.513418 -798.155989 
L 526.525957 -792.57663 
L 498.538496 -785.344409 
L 470.551035 -778.534925 
L 442.563575 -769.208064 
L 414.576114 -760.498171 
L 386.588653 -751.963465 
L 358.601192 -740.359159 
L 330.613731 -727.140077 
L 302.626271 -712.862249 
L 274.63881 -694.654115 
L 246.651349 -671.677819 
L 218.663888 -640.300112 
L 190.676427 -595.604303 
L 162.688966 -520.338176 
L 134.701506 -149.381244 
z
" id="mb417e57ece" style="stroke:#ff9408;stroke-opacity:0.3;"/>
    </defs>
    <g clip-path="url(#p8c341fe8c4)">
     <use style="fill:#ff9408;fill-opacity:0.3;stroke:#ff9408;stroke-opacity:0.3;" x="0" xlink:href="#mb417e57ece" y="1090.099062"/>
    </g>
   </g>
   <g id="PolyCollection_6">
    <defs>
     <path d="M 134.701506 -149.381244 
L 134.701506 -149.381244 
L 162.688966 -486.957231 
L 190.676427 -552.999326 
L 218.663888 -592.210986 
L 246.651349 -620.538136 
L 274.63881 -641.294114 
L 302.626271 -658.447311 
L 330.613731 -673.361147 
L 358.601192 -684.359912 
L 386.588653 -695.221572 
L 414.576114 -702.967931 
L 442.563575 -712.27575 
L 470.551035 -718.92528 
L 498.538496 -725.696679 
L 526.525957 -732.372868 
L 554.513418 -737.50664 
L 582.500879 -742.533776 
L 610.48834 -744.929283 
L 638.4758 -750.223009 
L 666.463261 -754.035254 
L 694.450722 -758.114089 
L 722.438183 -761.2789 
L 750.425644 -764.634132 
L 778.413104 -766.812558 
L 806.400565 -769.34136 
L 834.388026 -771.592146 
L 862.375487 -775.400582 
L 890.362948 -775.663364 
L 918.350409 -777.716111 
L 946.337869 -778.908152 
L 946.337869 -784.19807 
L 946.337869 -784.19807 
L 918.350409 -782.628994 
L 890.362948 -779.944046 
L 862.375487 -776.93919 
L 834.388026 -776.409817 
L 806.400565 -772.852738 
L 778.413104 -771.249386 
L 750.425644 -768.297848 
L 722.438183 -764.569389 
L 694.450722 -761.876824 
L 666.463261 -757.196256 
L 638.4758 -756.777328 
L 610.48834 -750.333454 
L 582.500879 -745.44723 
L 554.513418 -740.62575 
L 526.525957 -737.110563 
L 498.538496 -730.190634 
L 470.551035 -722.379531 
L 442.563575 -715.49007 
L 414.576114 -708.505398 
L 386.588653 -699.688868 
L 358.601192 -688.000777 
L 330.613731 -676.545 
L 302.626271 -664.14854 
L 274.63881 -645.087316 
L 246.651349 -625.500528 
L 218.663888 -598.02266 
L 190.676427 -558.018845 
L 162.688966 -489.546968 
L 134.701506 -149.381244 
z
" id="m1bdca92eae" style="stroke:#ff81c0;stroke-opacity:0.3;"/>
    </defs>
    <g clip-path="url(#p8c341fe8c4)">
     <use style="fill:#ff81c0;fill-opacity:0.3;stroke:#ff81c0;stroke-opacity:0.3;" x="0" xlink:href="#m1bdca92eae" y="1090.099062"/>
    </g>
   </g>
   <g id="matplotlib.axis_1">
    <g id="xtick_1">
     <g id="line2d_1">
      <path clip-path="url(#p8c341fe8c4)" d="M 134.701506 1005.12 
L 134.701506 7.2 
" style="fill:none;stroke:#b0b0b0;stroke-linecap:square;stroke-width:0.8;"/>
     </g>
     <g id="line2d_2">
      <defs>
       <path d="M 0 0 
L 0 3.5 
" id="mf8113d2f99" style="stroke:#000000;stroke-width:0.8;"/>
      </defs>
      <g>
       <use style="stroke:#000000;stroke-width:0.8;" x="134.701506" xlink:href="#mf8113d2f99" y="1005.12"/>
      </g>
     </g>
     <g id="text_1">
      <!-- 0.00 -->
      <g transform="translate(101.303068 1034.915313)scale(0.3 -0.3)">
       <defs>
        <path d="M 2034 4250 
Q 1547 4250 1301 3770 
Q 1056 3291 1056 2328 
Q 1056 1369 1301 889 
Q 1547 409 2034 409 
Q 2525 409 2770 889 
Q 3016 1369 3016 2328 
Q 3016 3291 2770 3770 
Q 2525 4250 2034 4250 
z
M 2034 4750 
Q 2819 4750 3233 4129 
Q 3647 3509 3647 2328 
Q 3647 1150 3233 529 
Q 2819 -91 2034 -91 
Q 1250 -91 836 529 
Q 422 1150 422 2328 
Q 422 3509 836 4129 
Q 1250 4750 2034 4750 
z
" id="DejaVuSans-30" transform="scale(0.015625)"/>
        <path d="M 684 794 
L 1344 794 
L 1344 0 
L 684 0 
L 684 794 
z
" id="DejaVuSans-2e" transform="scale(0.015625)"/>
       </defs>
       <use xlink:href="#DejaVuSans-30"/>
       <use x="63.623047" xlink:href="#DejaVuSans-2e"/>
       <use x="95.410156" xlink:href="#DejaVuSans-30"/>
       <use x="159.033203" xlink:href="#DejaVuSans-30"/>
      </g>
     </g>
    </g>
    <g id="xtick_2">
     <g id="line2d_3">
      <path clip-path="url(#p8c341fe8c4)" d="M 274.63881 1005.12 
L 274.63881 7.2 
" style="fill:none;stroke:#b0b0b0;stroke-linecap:square;stroke-width:0.8;"/>
     </g>
     <g id="line2d_4">
      <g>
       <use style="stroke:#000000;stroke-width:0.8;" x="274.63881" xlink:href="#mf8113d2f99" y="1005.12"/>
      </g>
     </g>
     <g id="text_2">
      <!-- 0.05 -->
      <g transform="translate(241.240372 1034.915313)scale(0.3 -0.3)">
       <defs>
        <path d="M 691 4666 
L 3169 4666 
L 3169 4134 
L 1269 4134 
L 1269 2991 
Q 1406 3038 1543 3061 
Q 1681 3084 1819 3084 
Q 2600 3084 3056 2656 
Q 3513 2228 3513 1497 
Q 3513 744 3044 326 
Q 2575 -91 1722 -91 
Q 1428 -91 1123 -41 
Q 819 9 494 109 
L 494 744 
Q 775 591 1075 516 
Q 1375 441 1709 441 
Q 2250 441 2565 725 
Q 2881 1009 2881 1497 
Q 2881 1984 2565 2268 
Q 2250 2553 1709 2553 
Q 1456 2553 1204 2497 
Q 953 2441 691 2322 
L 691 4666 
z
" id="DejaVuSans-35" transform="scale(0.015625)"/>
       </defs>
       <use xlink:href="#DejaVuSans-30"/>
       <use x="63.623047" xlink:href="#DejaVuSans-2e"/>
       <use x="95.410156" xlink:href="#DejaVuSans-30"/>
       <use x="159.033203" xlink:href="#DejaVuSans-35"/>
      </g>
     </g>
    </g>
    <g id="xtick_3">
     <g id="line2d_5">
      <path clip-path="url(#p8c341fe8c4)" d="M 414.576114 1005.12 
L 414.576114 7.2 
" style="fill:none;stroke:#b0b0b0;stroke-linecap:square;stroke-width:0.8;"/>
     </g>
     <g id="line2d_6">
      <g>
       <use style="stroke:#000000;stroke-width:0.8;" x="414.576114" xlink:href="#mf8113d2f99" y="1005.12"/>
      </g>
     </g>
     <g id="text_3">
      <!-- 0.10 -->
      <g transform="translate(381.177676 1034.915313)scale(0.3 -0.3)">
       <defs>
        <path d="M 794 531 
L 1825 531 
L 1825 4091 
L 703 3866 
L 703 4441 
L 1819 4666 
L 2450 4666 
L 2450 531 
L 3481 531 
L 3481 0 
L 794 0 
L 794 531 
z
" id="DejaVuSans-31" transform="scale(0.015625)"/>
       </defs>
       <use xlink:href="#DejaVuSans-30"/>
       <use x="63.623047" xlink:href="#DejaVuSans-2e"/>
       <use x="95.410156" xlink:href="#DejaVuSans-31"/>
       <use x="159.033203" xlink:href="#DejaVuSans-30"/>
      </g>
     </g>
    </g>
    <g id="xtick_4">
     <g id="line2d_7">
      <path clip-path="url(#p8c341fe8c4)" d="M 554.513418 1005.12 
L 554.513418 7.2 
" style="fill:none;stroke:#b0b0b0;stroke-linecap:square;stroke-width:0.8;"/>
     </g>
     <g id="line2d_8">
      <g>
       <use style="stroke:#000000;stroke-width:0.8;" x="554.513418" xlink:href="#mf8113d2f99" y="1005.12"/>
      </g>
     </g>
     <g id="text_4">
      <!-- 0.15 -->
      <g transform="translate(521.11498 1034.915313)scale(0.3 -0.3)">
       <use xlink:href="#DejaVuSans-30"/>
       <use x="63.623047" xlink:href="#DejaVuSans-2e"/>
       <use x="95.410156" xlink:href="#DejaVuSans-31"/>
       <use x="159.033203" xlink:href="#DejaVuSans-35"/>
      </g>
     </g>
    </g>
    <g id="xtick_5">
     <g id="line2d_9">
      <path clip-path="url(#p8c341fe8c4)" d="M 694.450722 1005.12 
L 694.450722 7.2 
" style="fill:none;stroke:#b0b0b0;stroke-linecap:square;stroke-width:0.8;"/>
     </g>
     <g id="line2d_10">
      <g>
       <use style="stroke:#000000;stroke-width:0.8;" x="694.450722" xlink:href="#mf8113d2f99" y="1005.12"/>
      </g>
     </g>
     <g id="text_5">
      <!-- 0.20 -->
      <g transform="translate(661.052284 1034.915313)scale(0.3 -0.3)">
       <defs>
        <path d="M 1228 531 
L 3431 531 
L 3431 0 
L 469 0 
L 469 531 
Q 828 903 1448 1529 
Q 2069 2156 2228 2338 
Q 2531 2678 2651 2914 
Q 2772 3150 2772 3378 
Q 2772 3750 2511 3984 
Q 2250 4219 1831 4219 
Q 1534 4219 1204 4116 
Q 875 4013 500 3803 
L 500 4441 
Q 881 4594 1212 4672 
Q 1544 4750 1819 4750 
Q 2544 4750 2975 4387 
Q 3406 4025 3406 3419 
Q 3406 3131 3298 2873 
Q 3191 2616 2906 2266 
Q 2828 2175 2409 1742 
Q 1991 1309 1228 531 
z
" id="DejaVuSans-32" transform="scale(0.015625)"/>
       </defs>
       <use xlink:href="#DejaVuSans-30"/>
       <use x="63.623047" xlink:href="#DejaVuSans-2e"/>
       <use x="95.410156" xlink:href="#DejaVuSans-32"/>
       <use x="159.033203" xlink:href="#DejaVuSans-30"/>
      </g>
     </g>
    </g>
    <g id="xtick_6">
     <g id="line2d_11">
      <path clip-path="url(#p8c341fe8c4)" d="M 834.388026 1005.12 
L 834.388026 7.2 
" style="fill:none;stroke:#b0b0b0;stroke-linecap:square;stroke-width:0.8;"/>
     </g>
     <g id="line2d_12">
      <g>
       <use style="stroke:#000000;stroke-width:0.8;" x="834.388026" xlink:href="#mf8113d2f99" y="1005.12"/>
      </g>
     </g>
     <g id="text_6">
      <!-- 0.25 -->
      <g transform="translate(800.989589 1034.915313)scale(0.3 -0.3)">
       <use xlink:href="#DejaVuSans-30"/>
       <use x="63.623047" xlink:href="#DejaVuSans-2e"/>
       <use x="95.410156" xlink:href="#DejaVuSans-32"/>
       <use x="159.033203" xlink:href="#DejaVuSans-35"/>
      </g>
     </g>
    </g>
    <g id="xtick_7">
     <g id="line2d_13">
      <path clip-path="url(#p8c341fe8c4)" d="M 974.32533 1005.12 
L 974.32533 7.2 
" style="fill:none;stroke:#b0b0b0;stroke-linecap:square;stroke-width:0.8;"/>
     </g>
     <g id="line2d_14">
      <g>
       <use style="stroke:#000000;stroke-width:0.8;" x="974.32533" xlink:href="#mf8113d2f99" y="1005.12"/>
      </g>
     </g>
     <g id="text_7">
      <!-- 0.30 -->
      <g transform="translate(940.926893 1034.915313)scale(0.3 -0.3)">
       <defs>
        <path d="M 2597 2516 
Q 3050 2419 3304 2112 
Q 3559 1806 3559 1356 
Q 3559 666 3084 287 
Q 2609 -91 1734 -91 
Q 1441 -91 1130 -33 
Q 819 25 488 141 
L 488 750 
Q 750 597 1062 519 
Q 1375 441 1716 441 
Q 2309 441 2620 675 
Q 2931 909 2931 1356 
Q 2931 1769 2642 2001 
Q 2353 2234 1838 2234 
L 1294 2234 
L 1294 2753 
L 1863 2753 
Q 2328 2753 2575 2939 
Q 2822 3125 2822 3475 
Q 2822 3834 2567 4026 
Q 2313 4219 1838 4219 
Q 1578 4219 1281 4162 
Q 984 4106 628 3988 
L 628 4550 
Q 988 4650 1302 4700 
Q 1616 4750 1894 4750 
Q 2613 4750 3031 4423 
Q 3450 4097 3450 3541 
Q 3450 3153 3228 2886 
Q 3006 2619 2597 2516 
z
" id="DejaVuSans-33" transform="scale(0.015625)"/>
       </defs>
       <use xlink:href="#DejaVuSans-30"/>
       <use x="63.623047" xlink:href="#DejaVuSans-2e"/>
       <use x="95.410156" xlink:href="#DejaVuSans-33"/>
       <use x="159.033203" xlink:href="#DejaVuSans-30"/>
      </g>
     </g>
    </g>
    <g id="text_8">
     <!-- Locality parameter -->
     <g transform="translate(356.226406 1074.788281)scale(0.39 -0.39)">
      <defs>
       <path d="M 628 4666 
L 1259 4666 
L 1259 531 
L 3531 531 
L 3531 0 
L 628 0 
L 628 4666 
z
" id="DejaVuSans-4c" transform="scale(0.015625)"/>
       <path d="M 1959 3097 
Q 1497 3097 1228 2736 
Q 959 2375 959 1747 
Q 959 1119 1226 758 
Q 1494 397 1959 397 
Q 2419 397 2687 759 
Q 2956 1122 2956 1747 
Q 2956 2369 2687 2733 
Q 2419 3097 1959 3097 
z
M 1959 3584 
Q 2709 3584 3137 3096 
Q 3566 2609 3566 1747 
Q 3566 888 3137 398 
Q 2709 -91 1959 -91 
Q 1206 -91 779 398 
Q 353 888 353 1747 
Q 353 2609 779 3096 
Q 1206 3584 1959 3584 
z
" id="DejaVuSans-6f" transform="scale(0.015625)"/>
       <path d="M 3122 3366 
L 3122 2828 
Q 2878 2963 2633 3030 
Q 2388 3097 2138 3097 
Q 1578 3097 1268 2742 
Q 959 2388 959 1747 
Q 959 1106 1268 751 
Q 1578 397 2138 397 
Q 2388 397 2633 464 
Q 2878 531 3122 666 
L 3122 134 
Q 2881 22 2623 -34 
Q 2366 -91 2075 -91 
Q 1284 -91 818 406 
Q 353 903 353 1747 
Q 353 2603 823 3093 
Q 1294 3584 2113 3584 
Q 2378 3584 2631 3529 
Q 2884 3475 3122 3366 
z
" id="DejaVuSans-63" transform="scale(0.015625)"/>
       <path d="M 2194 1759 
Q 1497 1759 1228 1600 
Q 959 1441 959 1056 
Q 959 750 1161 570 
Q 1363 391 1709 391 
Q 2188 391 2477 730 
Q 2766 1069 2766 1631 
L 2766 1759 
L 2194 1759 
z
M 3341 1997 
L 3341 0 
L 2766 0 
L 2766 531 
Q 2569 213 2275 61 
Q 1981 -91 1556 -91 
Q 1019 -91 701 211 
Q 384 513 384 1019 
Q 384 1609 779 1909 
Q 1175 2209 1959 2209 
L 2766 2209 
L 2766 2266 
Q 2766 2663 2505 2880 
Q 2244 3097 1772 3097 
Q 1472 3097 1187 3025 
Q 903 2953 641 2809 
L 641 3341 
Q 956 3463 1253 3523 
Q 1550 3584 1831 3584 
Q 2591 3584 2966 3190 
Q 3341 2797 3341 1997 
z
" id="DejaVuSans-61" transform="scale(0.015625)"/>
       <path d="M 603 4863 
L 1178 4863 
L 1178 0 
L 603 0 
L 603 4863 
z
" id="DejaVuSans-6c" transform="scale(0.015625)"/>
       <path d="M 603 3500 
L 1178 3500 
L 1178 0 
L 603 0 
L 603 3500 
z
M 603 4863 
L 1178 4863 
L 1178 4134 
L 603 4134 
L 603 4863 
z
" id="DejaVuSans-69" transform="scale(0.015625)"/>
       <path d="M 1172 4494 
L 1172 3500 
L 2356 3500 
L 2356 3053 
L 1172 3053 
L 1172 1153 
Q 1172 725 1289 603 
Q 1406 481 1766 481 
L 2356 481 
L 2356 0 
L 1766 0 
Q 1100 0 847 248 
Q 594 497 594 1153 
L 594 3053 
L 172 3053 
L 172 3500 
L 594 3500 
L 594 4494 
L 1172 4494 
z
" id="DejaVuSans-74" transform="scale(0.015625)"/>
       <path d="M 2059 -325 
Q 1816 -950 1584 -1140 
Q 1353 -1331 966 -1331 
L 506 -1331 
L 506 -850 
L 844 -850 
Q 1081 -850 1212 -737 
Q 1344 -625 1503 -206 
L 1606 56 
L 191 3500 
L 800 3500 
L 1894 763 
L 2988 3500 
L 3597 3500 
L 2059 -325 
z
" id="DejaVuSans-79" transform="scale(0.015625)"/>
       <path id="DejaVuSans-20" transform="scale(0.015625)"/>
       <path d="M 1159 525 
L 1159 -1331 
L 581 -1331 
L 581 3500 
L 1159 3500 
L 1159 2969 
Q 1341 3281 1617 3432 
Q 1894 3584 2278 3584 
Q 2916 3584 3314 3078 
Q 3713 2572 3713 1747 
Q 3713 922 3314 415 
Q 2916 -91 2278 -91 
Q 1894 -91 1617 61 
Q 1341 213 1159 525 
z
M 3116 1747 
Q 3116 2381 2855 2742 
Q 2594 3103 2138 3103 
Q 1681 3103 1420 2742 
Q 1159 2381 1159 1747 
Q 1159 1113 1420 752 
Q 1681 391 2138 391 
Q 2594 391 2855 752 
Q 3116 1113 3116 1747 
z
" id="DejaVuSans-70" transform="scale(0.015625)"/>
       <path d="M 2631 2963 
Q 2534 3019 2420 3045 
Q 2306 3072 2169 3072 
Q 1681 3072 1420 2755 
Q 1159 2438 1159 1844 
L 1159 0 
L 581 0 
L 581 3500 
L 1159 3500 
L 1159 2956 
Q 1341 3275 1631 3429 
Q 1922 3584 2338 3584 
Q 2397 3584 2469 3576 
Q 2541 3569 2628 3553 
L 2631 2963 
z
" id="DejaVuSans-72" transform="scale(0.015625)"/>
       <path d="M 3328 2828 
Q 3544 3216 3844 3400 
Q 4144 3584 4550 3584 
Q 5097 3584 5394 3201 
Q 5691 2819 5691 2113 
L 5691 0 
L 5113 0 
L 5113 2094 
Q 5113 2597 4934 2840 
Q 4756 3084 4391 3084 
Q 3944 3084 3684 2787 
Q 3425 2491 3425 1978 
L 3425 0 
L 2847 0 
L 2847 2094 
Q 2847 2600 2669 2842 
Q 2491 3084 2119 3084 
Q 1678 3084 1418 2786 
Q 1159 2488 1159 1978 
L 1159 0 
L 581 0 
L 581 3500 
L 1159 3500 
L 1159 2956 
Q 1356 3278 1631 3431 
Q 1906 3584 2284 3584 
Q 2666 3584 2933 3390 
Q 3200 3197 3328 2828 
z
" id="DejaVuSans-6d" transform="scale(0.015625)"/>
       <path d="M 3597 1894 
L 3597 1613 
L 953 1613 
Q 991 1019 1311 708 
Q 1631 397 2203 397 
Q 2534 397 2845 478 
Q 3156 559 3463 722 
L 3463 178 
Q 3153 47 2828 -22 
Q 2503 -91 2169 -91 
Q 1331 -91 842 396 
Q 353 884 353 1716 
Q 353 2575 817 3079 
Q 1281 3584 2069 3584 
Q 2775 3584 3186 3129 
Q 3597 2675 3597 1894 
z
M 3022 2063 
Q 3016 2534 2758 2815 
Q 2500 3097 2075 3097 
Q 1594 3097 1305 2825 
Q 1016 2553 972 2059 
L 3022 2063 
z
" id="DejaVuSans-65" transform="scale(0.015625)"/>
      </defs>
      <use xlink:href="#DejaVuSans-4c"/>
      <use x="53.962891" xlink:href="#DejaVuSans-6f"/>
      <use x="115.144531" xlink:href="#DejaVuSans-63"/>
      <use x="170.125" xlink:href="#DejaVuSans-61"/>
      <use x="231.404297" xlink:href="#DejaVuSans-6c"/>
      <use x="259.1875" xlink:href="#DejaVuSans-69"/>
      <use x="286.970703" xlink:href="#DejaVuSans-74"/>
      <use x="326.179688" xlink:href="#DejaVuSans-79"/>
      <use x="385.359375" xlink:href="#DejaVuSans-20"/>
      <use x="417.146484" xlink:href="#DejaVuSans-70"/>
      <use x="480.623047" xlink:href="#DejaVuSans-61"/>
      <use x="541.902344" xlink:href="#DejaVuSans-72"/>
      <use x="583.015625" xlink:href="#DejaVuSans-61"/>
      <use x="644.294922" xlink:href="#DejaVuSans-6d"/>
      <use x="741.707031" xlink:href="#DejaVuSans-65"/>
      <use x="803.230469" xlink:href="#DejaVuSans-74"/>
      <use x="842.439453" xlink:href="#DejaVuSans-65"/>
      <use x="903.962891" xlink:href="#DejaVuSans-72"/>
     </g>
    </g>
   </g>
   <g id="matplotlib.axis_2">
    <g id="ytick_1">
     <g id="line2d_15">
      <path clip-path="url(#p8c341fe8c4)" d="M 94.119688 997.836746 
L 986.919688 997.836746 
" style="fill:none;stroke:#b0b0b0;stroke-linecap:square;stroke-width:0.8;"/>
     </g>
     <g id="line2d_16">
      <defs>
       <path d="M 0 0 
L -3.5 0 
" id="m396837cc7f" style="stroke:#000000;stroke-width:0.8;"/>
      </defs>
      <g>
       <use style="stroke:#000000;stroke-width:0.8;" x="94.119688" xlink:href="#m396837cc7f" y="997.836746"/>
      </g>
     </g>
     <g id="text_9">
      <!-- 0 -->
      <g transform="translate(68.032188 1009.234403)scale(0.3 -0.3)">
       <use xlink:href="#DejaVuSans-30"/>
      </g>
     </g>
    </g>
    <g id="ytick_2">
     <g id="line2d_17">
      <path clip-path="url(#p8c341fe8c4)" d="M 94.119688 807.41493 
L 986.919688 807.41493 
" style="fill:none;stroke:#b0b0b0;stroke-linecap:square;stroke-width:0.8;"/>
     </g>
     <g id="line2d_18">
      <g>
       <use style="stroke:#000000;stroke-width:0.8;" x="94.119688" xlink:href="#m396837cc7f" y="807.41493"/>
      </g>
     </g>
     <g id="text_10">
      <!-- 5 -->
      <g transform="translate(68.032188 818.812586)scale(0.3 -0.3)">
       <use xlink:href="#DejaVuSans-35"/>
      </g>
     </g>
    </g>
    <g id="ytick_3">
     <g id="line2d_19">
      <path clip-path="url(#p8c341fe8c4)" d="M 94.119688 616.993114 
L 986.919688 616.993114 
" style="fill:none;stroke:#b0b0b0;stroke-linecap:square;stroke-width:0.8;"/>
     </g>
     <g id="line2d_20">
      <g>
       <use style="stroke:#000000;stroke-width:0.8;" x="94.119688" xlink:href="#m396837cc7f" y="616.993114"/>
      </g>
     </g>
     <g id="text_11">
      <!-- 10 -->
      <g transform="translate(48.944688 628.39077)scale(0.3 -0.3)">
       <use xlink:href="#DejaVuSans-31"/>
       <use x="63.623047" xlink:href="#DejaVuSans-30"/>
      </g>
     </g>
    </g>
    <g id="ytick_4">
     <g id="line2d_21">
      <path clip-path="url(#p8c341fe8c4)" d="M 94.119688 426.571298 
L 986.919688 426.571298 
" style="fill:none;stroke:#b0b0b0;stroke-linecap:square;stroke-width:0.8;"/>
     </g>
     <g id="line2d_22">
      <g>
       <use style="stroke:#000000;stroke-width:0.8;" x="94.119688" xlink:href="#m396837cc7f" y="426.571298"/>
      </g>
     </g>
     <g id="text_12">
      <!-- 15 -->
      <g transform="translate(48.944688 437.968954)scale(0.3 -0.3)">
       <use xlink:href="#DejaVuSans-31"/>
       <use x="63.623047" xlink:href="#DejaVuSans-35"/>
      </g>
     </g>
    </g>
    <g id="ytick_5">
     <g id="line2d_23">
      <path clip-path="url(#p8c341fe8c4)" d="M 94.119688 236.149481 
L 986.919688 236.149481 
" style="fill:none;stroke:#b0b0b0;stroke-linecap:square;stroke-width:0.8;"/>
     </g>
     <g id="line2d_24">
      <g>
       <use style="stroke:#000000;stroke-width:0.8;" x="94.119688" xlink:href="#m396837cc7f" y="236.149481"/>
      </g>
     </g>
     <g id="text_13">
      <!-- 20 -->
      <g transform="translate(48.944688 247.547138)scale(0.3 -0.3)">
       <use xlink:href="#DejaVuSans-32"/>
       <use x="63.623047" xlink:href="#DejaVuSans-30"/>
      </g>
     </g>
    </g>
    <g id="ytick_6">
     <g id="line2d_25">
      <path clip-path="url(#p8c341fe8c4)" d="M 94.119688 45.727665 
L 986.919688 45.727665 
" style="fill:none;stroke:#b0b0b0;stroke-linecap:square;stroke-width:0.8;"/>
     </g>
     <g id="line2d_26">
      <g>
       <use style="stroke:#000000;stroke-width:0.8;" x="94.119688" xlink:href="#m396837cc7f" y="45.727665"/>
      </g>
     </g>
     <g id="text_14">
      <!-- 25 -->
      <g transform="translate(48.944688 57.125321)scale(0.3 -0.3)">
       <use xlink:href="#DejaVuSans-32"/>
       <use x="63.623047" xlink:href="#DejaVuSans-35"/>
      </g>
     </g>
    </g>
    <g id="text_15">
     <!-- Avg. number of comps / size -->
     <g transform="translate(36.833906 782.922891)rotate(-90)scale(0.39 -0.39)">
      <defs>
       <path d="M 2188 4044 
L 1331 1722 
L 3047 1722 
L 2188 4044 
z
M 1831 4666 
L 2547 4666 
L 4325 0 
L 3669 0 
L 3244 1197 
L 1141 1197 
L 716 0 
L 50 0 
L 1831 4666 
z
" id="DejaVuSans-41" transform="scale(0.015625)"/>
       <path d="M 191 3500 
L 800 3500 
L 1894 563 
L 2988 3500 
L 3597 3500 
L 2284 0 
L 1503 0 
L 191 3500 
z
" id="DejaVuSans-76" transform="scale(0.015625)"/>
       <path d="M 2906 1791 
Q 2906 2416 2648 2759 
Q 2391 3103 1925 3103 
Q 1463 3103 1205 2759 
Q 947 2416 947 1791 
Q 947 1169 1205 825 
Q 1463 481 1925 481 
Q 2391 481 2648 825 
Q 2906 1169 2906 1791 
z
M 3481 434 
Q 3481 -459 3084 -895 
Q 2688 -1331 1869 -1331 
Q 1566 -1331 1297 -1286 
Q 1028 -1241 775 -1147 
L 775 -588 
Q 1028 -725 1275 -790 
Q 1522 -856 1778 -856 
Q 2344 -856 2625 -561 
Q 2906 -266 2906 331 
L 2906 616 
Q 2728 306 2450 153 
Q 2172 0 1784 0 
Q 1141 0 747 490 
Q 353 981 353 1791 
Q 353 2603 747 3093 
Q 1141 3584 1784 3584 
Q 2172 3584 2450 3431 
Q 2728 3278 2906 2969 
L 2906 3500 
L 3481 3500 
L 3481 434 
z
" id="DejaVuSans-67" transform="scale(0.015625)"/>
       <path d="M 3513 2113 
L 3513 0 
L 2938 0 
L 2938 2094 
Q 2938 2591 2744 2837 
Q 2550 3084 2163 3084 
Q 1697 3084 1428 2787 
Q 1159 2491 1159 1978 
L 1159 0 
L 581 0 
L 581 3500 
L 1159 3500 
L 1159 2956 
Q 1366 3272 1645 3428 
Q 1925 3584 2291 3584 
Q 2894 3584 3203 3211 
Q 3513 2838 3513 2113 
z
" id="DejaVuSans-6e" transform="scale(0.015625)"/>
       <path d="M 544 1381 
L 544 3500 
L 1119 3500 
L 1119 1403 
Q 1119 906 1312 657 
Q 1506 409 1894 409 
Q 2359 409 2629 706 
Q 2900 1003 2900 1516 
L 2900 3500 
L 3475 3500 
L 3475 0 
L 2900 0 
L 2900 538 
Q 2691 219 2414 64 
Q 2138 -91 1772 -91 
Q 1169 -91 856 284 
Q 544 659 544 1381 
z
M 1991 3584 
L 1991 3584 
z
" id="DejaVuSans-75" transform="scale(0.015625)"/>
       <path d="M 3116 1747 
Q 3116 2381 2855 2742 
Q 2594 3103 2138 3103 
Q 1681 3103 1420 2742 
Q 1159 2381 1159 1747 
Q 1159 1113 1420 752 
Q 1681 391 2138 391 
Q 2594 391 2855 752 
Q 3116 1113 3116 1747 
z
M 1159 2969 
Q 1341 3281 1617 3432 
Q 1894 3584 2278 3584 
Q 2916 3584 3314 3078 
Q 3713 2572 3713 1747 
Q 3713 922 3314 415 
Q 2916 -91 2278 -91 
Q 1894 -91 1617 61 
Q 1341 213 1159 525 
L 1159 0 
L 581 0 
L 581 4863 
L 1159 4863 
L 1159 2969 
z
" id="DejaVuSans-62" transform="scale(0.015625)"/>
       <path d="M 2375 4863 
L 2375 4384 
L 1825 4384 
Q 1516 4384 1395 4259 
Q 1275 4134 1275 3809 
L 1275 3500 
L 2222 3500 
L 2222 3053 
L 1275 3053 
L 1275 0 
L 697 0 
L 697 3053 
L 147 3053 
L 147 3500 
L 697 3500 
L 697 3744 
Q 697 4328 969 4595 
Q 1241 4863 1831 4863 
L 2375 4863 
z
" id="DejaVuSans-66" transform="scale(0.015625)"/>
       <path d="M 2834 3397 
L 2834 2853 
Q 2591 2978 2328 3040 
Q 2066 3103 1784 3103 
Q 1356 3103 1142 2972 
Q 928 2841 928 2578 
Q 928 2378 1081 2264 
Q 1234 2150 1697 2047 
L 1894 2003 
Q 2506 1872 2764 1633 
Q 3022 1394 3022 966 
Q 3022 478 2636 193 
Q 2250 -91 1575 -91 
Q 1294 -91 989 -36 
Q 684 19 347 128 
L 347 722 
Q 666 556 975 473 
Q 1284 391 1588 391 
Q 1994 391 2212 530 
Q 2431 669 2431 922 
Q 2431 1156 2273 1281 
Q 2116 1406 1581 1522 
L 1381 1569 
Q 847 1681 609 1914 
Q 372 2147 372 2553 
Q 372 3047 722 3315 
Q 1072 3584 1716 3584 
Q 2034 3584 2315 3537 
Q 2597 3491 2834 3397 
z
" id="DejaVuSans-73" transform="scale(0.015625)"/>
       <path d="M 1625 4666 
L 2156 4666 
L 531 -594 
L 0 -594 
L 1625 4666 
z
" id="DejaVuSans-2f" transform="scale(0.015625)"/>
       <path d="M 353 3500 
L 3084 3500 
L 3084 2975 
L 922 459 
L 3084 459 
L 3084 0 
L 275 0 
L 275 525 
L 2438 3041 
L 353 3041 
L 353 3500 
z
" id="DejaVuSans-7a" transform="scale(0.015625)"/>
      </defs>
      <use xlink:href="#DejaVuSans-41"/>
      <use x="62.533203" xlink:href="#DejaVuSans-76"/>
      <use x="121.712891" xlink:href="#DejaVuSans-67"/>
      <use x="185.189453" xlink:href="#DejaVuSans-2e"/>
      <use x="216.976562" xlink:href="#DejaVuSans-20"/>
      <use x="248.763672" xlink:href="#DejaVuSans-6e"/>
      <use x="312.142578" xlink:href="#DejaVuSans-75"/>
      <use x="375.521484" xlink:href="#DejaVuSans-6d"/>
      <use x="472.933594" xlink:href="#DejaVuSans-62"/>
      <use x="536.410156" xlink:href="#DejaVuSans-65"/>
      <use x="597.933594" xlink:href="#DejaVuSans-72"/>
      <use x="639.046875" xlink:href="#DejaVuSans-20"/>
      <use x="670.833984" xlink:href="#DejaVuSans-6f"/>
      <use x="732.015625" xlink:href="#DejaVuSans-66"/>
      <use x="767.220703" xlink:href="#DejaVuSans-20"/>
      <use x="799.007812" xlink:href="#DejaVuSans-63"/>
      <use x="853.988281" xlink:href="#DejaVuSans-6f"/>
      <use x="915.169922" xlink:href="#DejaVuSans-6d"/>
      <use x="1012.582031" xlink:href="#DejaVuSans-70"/>
      <use x="1076.058594" xlink:href="#DejaVuSans-73"/>
      <use x="1128.158203" xlink:href="#DejaVuSans-20"/>
      <use x="1159.945312" xlink:href="#DejaVuSans-2f"/>
      <use x="1193.636719" xlink:href="#DejaVuSans-20"/>
      <use x="1225.423828" xlink:href="#DejaVuSans-73"/>
      <use x="1277.523438" xlink:href="#DejaVuSans-69"/>
      <use x="1305.306641" xlink:href="#DejaVuSans-7a"/>
      <use x="1357.796875" xlink:href="#DejaVuSans-65"/>
     </g>
    </g>
   </g>
   <g id="line2d_27">
    <path clip-path="url(#p8c341fe8c4)" d="M 134.701506 871.73942 
L 162.688966 628.905522 
L 190.676427 584.283597 
L 218.663888 558.342433 
L 246.651349 540.124397 
L 274.63881 526.746883 
L 302.626271 515.050033 
L 330.613731 505.891124 
L 358.601192 498.650144 
L 386.588653 491.803718 
L 414.576114 485.901404 
L 442.563575 480.682323 
L 470.551035 476.44658 
L 498.538496 472.040981 
L 526.525957 468.084396 
L 554.513418 464.723832 
L 582.500879 461.52246 
L 610.48834 458.785718 
L 638.4758 455.795715 
L 666.463261 453.809234 
L 694.450722 451.250346 
L 722.438183 449.375453 
L 750.425644 447.568731 
L 778.413104 445.682412 
L 806.400565 444.173129 
L 834.388026 442.350411 
L 862.375487 441.113431 
L 890.362948 439.400777 
L 918.350409 438.81961 
L 946.337869 437.416963 
" style="fill:none;stroke:#fe0002;stroke-linecap:square;stroke-width:1.5;"/>
    <defs>
     <path d="M 0 4.5 
C 1.193414 4.5 2.338109 4.025852 3.181981 3.181981 
C 4.025852 2.338109 4.5 1.193414 4.5 0 
C 4.5 -1.193414 4.025852 -2.338109 3.181981 -3.181981 
C 2.338109 -4.025852 1.193414 -4.5 0 -4.5 
C -1.193414 -4.5 -2.338109 -4.025852 -3.181981 -3.181981 
C -4.025852 -2.338109 -4.5 -1.193414 -4.5 0 
C -4.5 1.193414 -4.025852 2.338109 -3.181981 3.181981 
C -2.338109 4.025852 -1.193414 4.5 0 4.5 
z
" id="md051137cc8" style="stroke:#000000;"/>
    </defs>
    <g clip-path="url(#p8c341fe8c4)">
     <use style="fill:#fe0002;stroke:#000000;" x="134.701506" xlink:href="#md051137cc8" y="871.73942"/>
     <use style="fill:#fe0002;stroke:#000000;" x="162.688966" xlink:href="#md051137cc8" y="628.905522"/>
     <use style="fill:#fe0002;stroke:#000000;" x="190.676427" xlink:href="#md051137cc8" y="584.283597"/>
     <use style="fill:#fe0002;stroke:#000000;" x="218.663888" xlink:href="#md051137cc8" y="558.342433"/>
     <use style="fill:#fe0002;stroke:#000000;" x="246.651349" xlink:href="#md051137cc8" y="540.124397"/>
     <use style="fill:#fe0002;stroke:#000000;" x="274.63881" xlink:href="#md051137cc8" y="526.746883"/>
     <use style="fill:#fe0002;stroke:#000000;" x="302.626271" xlink:href="#md051137cc8" y="515.050033"/>
     <use style="fill:#fe0002;stroke:#000000;" x="330.613731" xlink:href="#md051137cc8" y="505.891124"/>
     <use style="fill:#fe0002;stroke:#000000;" x="358.601192" xlink:href="#md051137cc8" y="498.650144"/>
     <use style="fill:#fe0002;stroke:#000000;" x="386.588653" xlink:href="#md051137cc8" y="491.803718"/>
     <use style="fill:#fe0002;stroke:#000000;" x="414.576114" xlink:href="#md051137cc8" y="485.901404"/>
     <use style="fill:#fe0002;stroke:#000000;" x="442.563575" xlink:href="#md051137cc8" y="480.682323"/>
     <use style="fill:#fe0002;stroke:#000000;" x="470.551035" xlink:href="#md051137cc8" y="476.44658"/>
     <use style="fill:#fe0002;stroke:#000000;" x="498.538496" xlink:href="#md051137cc8" y="472.040981"/>
     <use style="fill:#fe0002;stroke:#000000;" x="526.525957" xlink:href="#md051137cc8" y="468.084396"/>
     <use style="fill:#fe0002;stroke:#000000;" x="554.513418" xlink:href="#md051137cc8" y="464.723832"/>
     <use style="fill:#fe0002;stroke:#000000;" x="582.500879" xlink:href="#md051137cc8" y="461.52246"/>
     <use style="fill:#fe0002;stroke:#000000;" x="610.48834" xlink:href="#md051137cc8" y="458.785718"/>
     <use style="fill:#fe0002;stroke:#000000;" x="638.4758" xlink:href="#md051137cc8" y="455.795715"/>
     <use style="fill:#fe0002;stroke:#000000;" x="666.463261" xlink:href="#md051137cc8" y="453.809234"/>
     <use style="fill:#fe0002;stroke:#000000;" x="694.450722" xlink:href="#md051137cc8" y="451.250346"/>
     <use style="fill:#fe0002;stroke:#000000;" x="722.438183" xlink:href="#md051137cc8" y="449.375453"/>
     <use style="fill:#fe0002;stroke:#000000;" x="750.425644" xlink:href="#md051137cc8" y="447.568731"/>
     <use style="fill:#fe0002;stroke:#000000;" x="778.413104" xlink:href="#md051137cc8" y="445.682412"/>
     <use style="fill:#fe0002;stroke:#000000;" x="806.400565" xlink:href="#md051137cc8" y="444.173129"/>
     <use style="fill:#fe0002;stroke:#000000;" x="834.388026" xlink:href="#md051137cc8" y="442.350411"/>
     <use style="fill:#fe0002;stroke:#000000;" x="862.375487" xlink:href="#md051137cc8" y="441.113431"/>
     <use style="fill:#fe0002;stroke:#000000;" x="890.362948" xlink:href="#md051137cc8" y="439.400777"/>
     <use style="fill:#fe0002;stroke:#000000;" x="918.350409" xlink:href="#md051137cc8" y="438.81961"/>
     <use style="fill:#fe0002;stroke:#000000;" x="946.337869" xlink:href="#md051137cc8" y="437.416963"/>
    </g>
   </g>
   <g id="line2d_28">
    <path clip-path="url(#p8c341fe8c4)" d="M 134.701506 959.76 
L 162.688966 616.050526 
L 190.676427 554.164959 
L 218.663888 518.081548 
L 246.651349 492.775251 
L 274.63881 473.891881 
L 302.626271 458.115433 
L 330.613731 445.128665 
L 358.601192 435.36193 
L 386.588653 425.68317 
L 414.576114 417.964993 
L 442.563575 410.029735 
L 470.551035 404.06382 
L 498.538496 398.048776 
L 526.525957 392.207777 
L 554.513418 387.427808 
L 582.500879 382.961655 
L 610.48834 379.029064 
L 638.4758 374.581953 
L 666.463261 371.965938 
L 694.450722 367.966699 
L 722.438183 365.551388 
L 750.425644 363.426281 
L 778.413104 360.213484 
L 806.400565 358.317264 
L 834.388026 356.589376 
L 862.375487 353.944798 
L 890.362948 351.431611 
L 918.350409 350.463125 
L 946.337869 348.271751 
" style="fill:none;stroke:#53fca1;stroke-linecap:square;stroke-width:1.5;"/>
    <defs>
     <path d="M 0 -4.5 
L -4.5 4.5 
L 4.5 4.5 
z
" id="m143e9f524d" style="stroke:#000000;stroke-linejoin:miter;"/>
    </defs>
    <g clip-path="url(#p8c341fe8c4)">
     <use style="fill:#53fca1;stroke:#000000;stroke-linejoin:miter;" x="134.701506" xlink:href="#m143e9f524d" y="959.76"/>
     <use style="fill:#53fca1;stroke:#000000;stroke-linejoin:miter;" x="162.688966" xlink:href="#m143e9f524d" y="616.050526"/>
     <use style="fill:#53fca1;stroke:#000000;stroke-linejoin:miter;" x="190.676427" xlink:href="#m143e9f524d" y="554.164959"/>
     <use style="fill:#53fca1;stroke:#000000;stroke-linejoin:miter;" x="218.663888" xlink:href="#m143e9f524d" y="518.081548"/>
     <use style="fill:#53fca1;stroke:#000000;stroke-linejoin:miter;" x="246.651349" xlink:href="#m143e9f524d" y="492.775251"/>
     <use style="fill:#53fca1;stroke:#000000;stroke-linejoin:miter;" x="274.63881" xlink:href="#m143e9f524d" y="473.891881"/>
     <use style="fill:#53fca1;stroke:#000000;stroke-linejoin:miter;" x="302.626271" xlink:href="#m143e9f524d" y="458.115433"/>
     <use style="fill:#53fca1;stroke:#000000;stroke-linejoin:miter;" x="330.613731" xlink:href="#m143e9f524d" y="445.128665"/>
     <use style="fill:#53fca1;stroke:#000000;stroke-linejoin:miter;" x="358.601192" xlink:href="#m143e9f524d" y="435.36193"/>
     <use style="fill:#53fca1;stroke:#000000;stroke-linejoin:miter;" x="386.588653" xlink:href="#m143e9f524d" y="425.68317"/>
     <use style="fill:#53fca1;stroke:#000000;stroke-linejoin:miter;" x="414.576114" xlink:href="#m143e9f524d" y="417.964993"/>
     <use style="fill:#53fca1;stroke:#000000;stroke-linejoin:miter;" x="442.563575" xlink:href="#m143e9f524d" y="410.029735"/>
     <use style="fill:#53fca1;stroke:#000000;stroke-linejoin:miter;" x="470.551035" xlink:href="#m143e9f524d" y="404.06382"/>
     <use style="fill:#53fca1;stroke:#000000;stroke-linejoin:miter;" x="498.538496" xlink:href="#m143e9f524d" y="398.048776"/>
     <use style="fill:#53fca1;stroke:#000000;stroke-linejoin:miter;" x="526.525957" xlink:href="#m143e9f524d" y="392.207777"/>
     <use style="fill:#53fca1;stroke:#000000;stroke-linejoin:miter;" x="554.513418" xlink:href="#m143e9f524d" y="387.427808"/>
     <use style="fill:#53fca1;stroke:#000000;stroke-linejoin:miter;" x="582.500879" xlink:href="#m143e9f524d" y="382.961655"/>
     <use style="fill:#53fca1;stroke:#000000;stroke-linejoin:miter;" x="610.48834" xlink:href="#m143e9f524d" y="379.029064"/>
     <use style="fill:#53fca1;stroke:#000000;stroke-linejoin:miter;" x="638.4758" xlink:href="#m143e9f524d" y="374.581953"/>
     <use style="fill:#53fca1;stroke:#000000;stroke-linejoin:miter;" x="666.463261" xlink:href="#m143e9f524d" y="371.965938"/>
     <use style="fill:#53fca1;stroke:#000000;stroke-linejoin:miter;" x="694.450722" xlink:href="#m143e9f524d" y="367.966699"/>
     <use style="fill:#53fca1;stroke:#000000;stroke-linejoin:miter;" x="722.438183" xlink:href="#m143e9f524d" y="365.551388"/>
     <use style="fill:#53fca1;stroke:#000000;stroke-linejoin:miter;" x="750.425644" xlink:href="#m143e9f524d" y="363.426281"/>
     <use style="fill:#53fca1;stroke:#000000;stroke-linejoin:miter;" x="778.413104" xlink:href="#m143e9f524d" y="360.213484"/>
     <use style="fill:#53fca1;stroke:#000000;stroke-linejoin:miter;" x="806.400565" xlink:href="#m143e9f524d" y="358.317264"/>
     <use style="fill:#53fca1;stroke:#000000;stroke-linejoin:miter;" x="834.388026" xlink:href="#m143e9f524d" y="356.589376"/>
     <use style="fill:#53fca1;stroke:#000000;stroke-linejoin:miter;" x="862.375487" xlink:href="#m143e9f524d" y="353.944798"/>
     <use style="fill:#53fca1;stroke:#000000;stroke-linejoin:miter;" x="890.362948" xlink:href="#m143e9f524d" y="351.431611"/>
     <use style="fill:#53fca1;stroke:#000000;stroke-linejoin:miter;" x="918.350409" xlink:href="#m143e9f524d" y="350.463125"/>
     <use style="fill:#53fca1;stroke:#000000;stroke-linejoin:miter;" x="946.337869" xlink:href="#m143e9f524d" y="348.271751"/>
    </g>
   </g>
   <g id="line2d_29">
    <path clip-path="url(#p8c341fe8c4)" d="M 134.701506 959.76 
L 162.688966 588.499155 
L 190.676427 511.783918 
L 218.663888 466.02289 
L 246.651349 434.03012 
L 274.63881 409.967658 
L 302.626271 389.533874 
L 330.613731 373.360968 
L 358.601192 360.566145 
L 386.588653 348.139979 
L 414.576114 337.831685 
L 442.563575 326.631835 
L 470.551035 320.50368 
L 498.538496 312.544429 
L 526.525957 305.087511 
L 554.513418 299.319634 
L 582.500879 294.09941 
L 610.48834 289.172055 
L 638.4758 283.521098 
L 666.463261 279.86538 
L 694.450722 275.007338 
L 722.438183 271.885944 
L 750.425644 267.707327 
L 778.413104 264.117876 
L 806.400565 262.054846 
L 834.388026 260.242411 
L 862.375487 256.909268 
L 890.362948 253.838145 
L 918.350409 252.771402 
L 946.337869 249.704849 
" style="fill:none;stroke:#0652ff;stroke-linecap:square;stroke-width:1.5;"/>
    <defs>
     <path d="M 0 -4.5 
L -4.279754 -1.390576 
L -2.645034 3.640576 
L 2.645034 3.640576 
L 4.279754 -1.390576 
z
" id="m2b4aba4755" style="stroke:#000000;stroke-linejoin:miter;"/>
    </defs>
    <g clip-path="url(#p8c341fe8c4)">
     <use style="fill:#0652ff;stroke:#000000;stroke-linejoin:miter;" x="134.701506" xlink:href="#m2b4aba4755" y="959.76"/>
     <use style="fill:#0652ff;stroke:#000000;stroke-linejoin:miter;" x="162.688966" xlink:href="#m2b4aba4755" y="588.499155"/>
     <use style="fill:#0652ff;stroke:#000000;stroke-linejoin:miter;" x="190.676427" xlink:href="#m2b4aba4755" y="511.783918"/>
     <use style="fill:#0652ff;stroke:#000000;stroke-linejoin:miter;" x="218.663888" xlink:href="#m2b4aba4755" y="466.02289"/>
     <use style="fill:#0652ff;stroke:#000000;stroke-linejoin:miter;" x="246.651349" xlink:href="#m2b4aba4755" y="434.03012"/>
     <use style="fill:#0652ff;stroke:#000000;stroke-linejoin:miter;" x="274.63881" xlink:href="#m2b4aba4755" y="409.967658"/>
     <use style="fill:#0652ff;stroke:#000000;stroke-linejoin:miter;" x="302.626271" xlink:href="#m2b4aba4755" y="389.533874"/>
     <use style="fill:#0652ff;stroke:#000000;stroke-linejoin:miter;" x="330.613731" xlink:href="#m2b4aba4755" y="373.360968"/>
     <use style="fill:#0652ff;stroke:#000000;stroke-linejoin:miter;" x="358.601192" xlink:href="#m2b4aba4755" y="360.566145"/>
     <use style="fill:#0652ff;stroke:#000000;stroke-linejoin:miter;" x="386.588653" xlink:href="#m2b4aba4755" y="348.139979"/>
     <use style="fill:#0652ff;stroke:#000000;stroke-linejoin:miter;" x="414.576114" xlink:href="#m2b4aba4755" y="337.831685"/>
     <use style="fill:#0652ff;stroke:#000000;stroke-linejoin:miter;" x="442.563575" xlink:href="#m2b4aba4755" y="326.631835"/>
     <use style="fill:#0652ff;stroke:#000000;stroke-linejoin:miter;" x="470.551035" xlink:href="#m2b4aba4755" y="320.50368"/>
     <use style="fill:#0652ff;stroke:#000000;stroke-linejoin:miter;" x="498.538496" xlink:href="#m2b4aba4755" y="312.544429"/>
     <use style="fill:#0652ff;stroke:#000000;stroke-linejoin:miter;" x="526.525957" xlink:href="#m2b4aba4755" y="305.087511"/>
     <use style="fill:#0652ff;stroke:#000000;stroke-linejoin:miter;" x="554.513418" xlink:href="#m2b4aba4755" y="299.319634"/>
     <use style="fill:#0652ff;stroke:#000000;stroke-linejoin:miter;" x="582.500879" xlink:href="#m2b4aba4755" y="294.09941"/>
     <use style="fill:#0652ff;stroke:#000000;stroke-linejoin:miter;" x="610.48834" xlink:href="#m2b4aba4755" y="289.172055"/>
     <use style="fill:#0652ff;stroke:#000000;stroke-linejoin:miter;" x="638.4758" xlink:href="#m2b4aba4755" y="283.521098"/>
     <use style="fill:#0652ff;stroke:#000000;stroke-linejoin:miter;" x="666.463261" xlink:href="#m2b4aba4755" y="279.86538"/>
     <use style="fill:#0652ff;stroke:#000000;stroke-linejoin:miter;" x="694.450722" xlink:href="#m2b4aba4755" y="275.007338"/>
     <use style="fill:#0652ff;stroke:#000000;stroke-linejoin:miter;" x="722.438183" xlink:href="#m2b4aba4755" y="271.885944"/>
     <use style="fill:#0652ff;stroke:#000000;stroke-linejoin:miter;" x="750.425644" xlink:href="#m2b4aba4755" y="267.707327"/>
     <use style="fill:#0652ff;stroke:#000000;stroke-linejoin:miter;" x="778.413104" xlink:href="#m2b4aba4755" y="264.117876"/>
     <use style="fill:#0652ff;stroke:#000000;stroke-linejoin:miter;" x="806.400565" xlink:href="#m2b4aba4755" y="262.054846"/>
     <use style="fill:#0652ff;stroke:#000000;stroke-linejoin:miter;" x="834.388026" xlink:href="#m2b4aba4755" y="260.242411"/>
     <use style="fill:#0652ff;stroke:#000000;stroke-linejoin:miter;" x="862.375487" xlink:href="#m2b4aba4755" y="256.909268"/>
     <use style="fill:#0652ff;stroke:#000000;stroke-linejoin:miter;" x="890.362948" xlink:href="#m2b4aba4755" y="253.838145"/>
     <use style="fill:#0652ff;stroke:#000000;stroke-linejoin:miter;" x="918.350409" xlink:href="#m2b4aba4755" y="252.771402"/>
     <use style="fill:#0652ff;stroke:#000000;stroke-linejoin:miter;" x="946.337869" xlink:href="#m2b4aba4755" y="249.704849"/>
    </g>
   </g>
   <g id="line2d_30">
    <path clip-path="url(#p8c341fe8c4)" d="M 134.701506 831.152914 
L 162.688966 491.690227 
L 190.676427 403.263667 
L 218.663888 346.210625 
L 246.651349 306.857291 
L 274.63881 274.393418 
L 302.626271 248.478532 
L 330.613731 226.529371 
L 358.601192 209.987809 
L 386.588653 193.969526 
L 414.576114 180.449196 
L 442.563575 165.722354 
L 470.551035 154.786429 
L 498.538496 144.702451 
L 526.525957 134.385397 
L 554.513418 127.544303 
L 582.500879 118.992459 
L 610.48834 111.820031 
L 638.4758 104.141081 
L 666.463261 99.6536 
L 694.450722 93.341117 
L 722.438183 87.98379 
L 750.425644 83.23962 
L 778.413104 78.544199 
L 806.400565 73.703296 
L 834.388026 71.360346 
L 862.375487 66.596373 
L 890.362948 63.508493 
L 918.350409 60.334923 
L 946.337869 56.995305 
" style="fill:none;stroke:#ae7181;stroke-linecap:square;stroke-width:1.5;"/>
    <defs>
     <path d="M -4.5 4.5 
L 4.5 4.5 
L 4.5 -4.5 
L -4.5 -4.5 
z
" id="m39fe07e3e7" style="stroke:#000000;stroke-linejoin:miter;"/>
    </defs>
    <g clip-path="url(#p8c341fe8c4)">
     <use style="fill:#ae7181;stroke:#000000;stroke-linejoin:miter;" x="134.701506" xlink:href="#m39fe07e3e7" y="831.152914"/>
     <use style="fill:#ae7181;stroke:#000000;stroke-linejoin:miter;" x="162.688966" xlink:href="#m39fe07e3e7" y="491.690227"/>
     <use style="fill:#ae7181;stroke:#000000;stroke-linejoin:miter;" x="190.676427" xlink:href="#m39fe07e3e7" y="403.263667"/>
     <use style="fill:#ae7181;stroke:#000000;stroke-linejoin:miter;" x="218.663888" xlink:href="#m39fe07e3e7" y="346.210625"/>
     <use style="fill:#ae7181;stroke:#000000;stroke-linejoin:miter;" x="246.651349" xlink:href="#m39fe07e3e7" y="306.857291"/>
     <use style="fill:#ae7181;stroke:#000000;stroke-linejoin:miter;" x="274.63881" xlink:href="#m39fe07e3e7" y="274.393418"/>
     <use style="fill:#ae7181;stroke:#000000;stroke-linejoin:miter;" x="302.626271" xlink:href="#m39fe07e3e7" y="248.478532"/>
     <use style="fill:#ae7181;stroke:#000000;stroke-linejoin:miter;" x="330.613731" xlink:href="#m39fe07e3e7" y="226.529371"/>
     <use style="fill:#ae7181;stroke:#000000;stroke-linejoin:miter;" x="358.601192" xlink:href="#m39fe07e3e7" y="209.987809"/>
     <use style="fill:#ae7181;stroke:#000000;stroke-linejoin:miter;" x="386.588653" xlink:href="#m39fe07e3e7" y="193.969526"/>
     <use style="fill:#ae7181;stroke:#000000;stroke-linejoin:miter;" x="414.576114" xlink:href="#m39fe07e3e7" y="180.449196"/>
     <use style="fill:#ae7181;stroke:#000000;stroke-linejoin:miter;" x="442.563575" xlink:href="#m39fe07e3e7" y="165.722354"/>
     <use style="fill:#ae7181;stroke:#000000;stroke-linejoin:miter;" x="470.551035" xlink:href="#m39fe07e3e7" y="154.786429"/>
     <use style="fill:#ae7181;stroke:#000000;stroke-linejoin:miter;" x="498.538496" xlink:href="#m39fe07e3e7" y="144.702451"/>
     <use style="fill:#ae7181;stroke:#000000;stroke-linejoin:miter;" x="526.525957" xlink:href="#m39fe07e3e7" y="134.385397"/>
     <use style="fill:#ae7181;stroke:#000000;stroke-linejoin:miter;" x="554.513418" xlink:href="#m39fe07e3e7" y="127.544303"/>
     <use style="fill:#ae7181;stroke:#000000;stroke-linejoin:miter;" x="582.500879" xlink:href="#m39fe07e3e7" y="118.992459"/>
     <use style="fill:#ae7181;stroke:#000000;stroke-linejoin:miter;" x="610.48834" xlink:href="#m39fe07e3e7" y="111.820031"/>
     <use style="fill:#ae7181;stroke:#000000;stroke-linejoin:miter;" x="638.4758" xlink:href="#m39fe07e3e7" y="104.141081"/>
     <use style="fill:#ae7181;stroke:#000000;stroke-linejoin:miter;" x="666.463261" xlink:href="#m39fe07e3e7" y="99.6536"/>
     <use style="fill:#ae7181;stroke:#000000;stroke-linejoin:miter;" x="694.450722" xlink:href="#m39fe07e3e7" y="93.341117"/>
     <use style="fill:#ae7181;stroke:#000000;stroke-linejoin:miter;" x="722.438183" xlink:href="#m39fe07e3e7" y="87.98379"/>
     <use style="fill:#ae7181;stroke:#000000;stroke-linejoin:miter;" x="750.425644" xlink:href="#m39fe07e3e7" y="83.23962"/>
     <use style="fill:#ae7181;stroke:#000000;stroke-linejoin:miter;" x="778.413104" xlink:href="#m39fe07e3e7" y="78.544199"/>
     <use style="fill:#ae7181;stroke:#000000;stroke-linejoin:miter;" x="806.400565" xlink:href="#m39fe07e3e7" y="73.703296"/>
     <use style="fill:#ae7181;stroke:#000000;stroke-linejoin:miter;" x="834.388026" xlink:href="#m39fe07e3e7" y="71.360346"/>
     <use style="fill:#ae7181;stroke:#000000;stroke-linejoin:miter;" x="862.375487" xlink:href="#m39fe07e3e7" y="66.596373"/>
     <use style="fill:#ae7181;stroke:#000000;stroke-linejoin:miter;" x="890.362948" xlink:href="#m39fe07e3e7" y="63.508493"/>
     <use style="fill:#ae7181;stroke:#000000;stroke-linejoin:miter;" x="918.350409" xlink:href="#m39fe07e3e7" y="60.334923"/>
     <use style="fill:#ae7181;stroke:#000000;stroke-linejoin:miter;" x="946.337869" xlink:href="#m39fe07e3e7" y="56.995305"/>
    </g>
   </g>
   <g id="line2d_31">
    <path clip-path="url(#p8c341fe8c4)" d="M 134.701506 940.717818 
L 162.688966 572.382233 
L 190.676427 496.498378 
L 218.663888 452.826277 
L 246.651349 421.777238 
L 274.63881 398.699637 
L 302.626271 379.293369 
L 330.613731 364.344876 
L 358.601192 351.608322 
L 386.588653 340.64193 
L 414.576114 331.006967 
L 442.563575 322.294407 
L 470.551035 314.498919 
L 498.538496 306.918607 
L 526.525957 299.989538 
L 554.513418 294.410179 
L 582.500879 289.598981 
L 610.48834 285.028096 
L 638.4758 280.414937 
L 666.463261 276.445404 
L 694.450722 272.487296 
L 722.438183 268.602691 
L 750.425644 265.686952 
L 778.413104 262.313439 
L 806.400565 259.905365 
L 834.388026 257.963062 
L 862.375487 256.523092 
L 890.362948 253.680476 
L 918.350409 252.225272 
L 946.337869 249.984769 
" style="fill:none;stroke:#ff9408;stroke-linecap:square;stroke-width:1.5;"/>
    <defs>
     <path d="M 0 2.25 
C 0.596707 2.25 1.169055 2.012926 1.59099 1.59099 
C 2.012926 1.169055 2.25 0.596707 2.25 0 
C 2.25 -0.596707 2.012926 -1.169055 1.59099 -1.59099 
C 1.169055 -2.012926 0.596707 -2.25 0 -2.25 
C -0.596707 -2.25 -1.169055 -2.012926 -1.59099 -1.59099 
C -2.012926 -1.169055 -2.25 -0.596707 -2.25 0 
C -2.25 0.596707 -2.012926 1.169055 -1.59099 1.59099 
C -1.169055 2.012926 -0.596707 2.25 0 2.25 
z
" id="m044acc2afb" style="stroke:#000000;"/>
    </defs>
    <g clip-path="url(#p8c341fe8c4)">
     <use style="fill:#ff9408;stroke:#000000;" x="134.701506" xlink:href="#m044acc2afb" y="940.717818"/>
     <use style="fill:#ff9408;stroke:#000000;" x="162.688966" xlink:href="#m044acc2afb" y="572.382233"/>
     <use style="fill:#ff9408;stroke:#000000;" x="190.676427" xlink:href="#m044acc2afb" y="496.498378"/>
     <use style="fill:#ff9408;stroke:#000000;" x="218.663888" xlink:href="#m044acc2afb" y="452.826277"/>
     <use style="fill:#ff9408;stroke:#000000;" x="246.651349" xlink:href="#m044acc2afb" y="421.777238"/>
     <use style="fill:#ff9408;stroke:#000000;" x="274.63881" xlink:href="#m044acc2afb" y="398.699637"/>
     <use style="fill:#ff9408;stroke:#000000;" x="302.626271" xlink:href="#m044acc2afb" y="379.293369"/>
     <use style="fill:#ff9408;stroke:#000000;" x="330.613731" xlink:href="#m044acc2afb" y="364.344876"/>
     <use style="fill:#ff9408;stroke:#000000;" x="358.601192" xlink:href="#m044acc2afb" y="351.608322"/>
     <use style="fill:#ff9408;stroke:#000000;" x="386.588653" xlink:href="#m044acc2afb" y="340.64193"/>
     <use style="fill:#ff9408;stroke:#000000;" x="414.576114" xlink:href="#m044acc2afb" y="331.006967"/>
     <use style="fill:#ff9408;stroke:#000000;" x="442.563575" xlink:href="#m044acc2afb" y="322.294407"/>
     <use style="fill:#ff9408;stroke:#000000;" x="470.551035" xlink:href="#m044acc2afb" y="314.498919"/>
     <use style="fill:#ff9408;stroke:#000000;" x="498.538496" xlink:href="#m044acc2afb" y="306.918607"/>
     <use style="fill:#ff9408;stroke:#000000;" x="526.525957" xlink:href="#m044acc2afb" y="299.989538"/>
     <use style="fill:#ff9408;stroke:#000000;" x="554.513418" xlink:href="#m044acc2afb" y="294.410179"/>
     <use style="fill:#ff9408;stroke:#000000;" x="582.500879" xlink:href="#m044acc2afb" y="289.598981"/>
     <use style="fill:#ff9408;stroke:#000000;" x="610.48834" xlink:href="#m044acc2afb" y="285.028096"/>
     <use style="fill:#ff9408;stroke:#000000;" x="638.4758" xlink:href="#m044acc2afb" y="280.414937"/>
     <use style="fill:#ff9408;stroke:#000000;" x="666.463261" xlink:href="#m044acc2afb" y="276.445404"/>
     <use style="fill:#ff9408;stroke:#000000;" x="694.450722" xlink:href="#m044acc2afb" y="272.487296"/>
     <use style="fill:#ff9408;stroke:#000000;" x="722.438183" xlink:href="#m044acc2afb" y="268.602691"/>
     <use style="fill:#ff9408;stroke:#000000;" x="750.425644" xlink:href="#m044acc2afb" y="265.686952"/>
     <use style="fill:#ff9408;stroke:#000000;" x="778.413104" xlink:href="#m044acc2afb" y="262.313439"/>
     <use style="fill:#ff9408;stroke:#000000;" x="806.400565" xlink:href="#m044acc2afb" y="259.905365"/>
     <use style="fill:#ff9408;stroke:#000000;" x="834.388026" xlink:href="#m044acc2afb" y="257.963062"/>
     <use style="fill:#ff9408;stroke:#000000;" x="862.375487" xlink:href="#m044acc2afb" y="256.523092"/>
     <use style="fill:#ff9408;stroke:#000000;" x="890.362948" xlink:href="#m044acc2afb" y="253.680476"/>
     <use style="fill:#ff9408;stroke:#000000;" x="918.350409" xlink:href="#m044acc2afb" y="252.225272"/>
     <use style="fill:#ff9408;stroke:#000000;" x="946.337869" xlink:href="#m044acc2afb" y="249.984769"/>
    </g>
   </g>
   <g id="line2d_32">
    <path clip-path="url(#p8c341fe8c4)" d="M 134.701506 940.717818 
L 162.688966 602.185152 
L 190.676427 535.386321 
L 218.663888 495.577498 
L 246.651349 467.511226 
L 274.63881 446.124191 
L 302.626271 429.048686 
L 330.613731 414.799802 
L 358.601192 404.030306 
L 386.588653 393.149222 
L 414.576114 383.762569 
L 442.563575 376.146077 
L 470.551035 369.046771 
L 498.538496 362.211771 
L 526.525957 355.56643 
L 554.513418 351.120081 
L 582.500879 345.870151 
L 610.48834 342.014871 
L 638.4758 337.308025 
L 666.463261 334.227761 
L 694.450722 329.904805 
L 722.438183 327.219858 
L 750.425644 323.575565 
L 778.413104 320.641926 
L 806.400565 319.099891 
L 834.388026 316.206241 
L 862.375487 314.021722 
L 890.362948 312.051998 
L 918.350409 310.276505 
L 946.337869 308.894805 
" style="fill:none;stroke:#ff81c0;stroke-linecap:square;stroke-width:1.5;"/>
    <defs>
     <path d="M 4.5 0 
L -4.5 -4.5 
L -4.5 4.5 
z
" id="m0eeb3d078c" style="stroke:#000000;stroke-linejoin:miter;"/>
    </defs>
    <g clip-path="url(#p8c341fe8c4)">
     <use style="fill:#ff81c0;stroke:#000000;stroke-linejoin:miter;" x="134.701506" xlink:href="#m0eeb3d078c" y="940.717818"/>
     <use style="fill:#ff81c0;stroke:#000000;stroke-linejoin:miter;" x="162.688966" xlink:href="#m0eeb3d078c" y="602.185152"/>
     <use style="fill:#ff81c0;stroke:#000000;stroke-linejoin:miter;" x="190.676427" xlink:href="#m0eeb3d078c" y="535.386321"/>
     <use style="fill:#ff81c0;stroke:#000000;stroke-linejoin:miter;" x="218.663888" xlink:href="#m0eeb3d078c" y="495.577498"/>
     <use style="fill:#ff81c0;stroke:#000000;stroke-linejoin:miter;" x="246.651349" xlink:href="#m0eeb3d078c" y="467.511226"/>
     <use style="fill:#ff81c0;stroke:#000000;stroke-linejoin:miter;" x="274.63881" xlink:href="#m0eeb3d078c" y="446.124191"/>
     <use style="fill:#ff81c0;stroke:#000000;stroke-linejoin:miter;" x="302.626271" xlink:href="#m0eeb3d078c" y="429.048686"/>
     <use style="fill:#ff81c0;stroke:#000000;stroke-linejoin:miter;" x="330.613731" xlink:href="#m0eeb3d078c" y="414.799802"/>
     <use style="fill:#ff81c0;stroke:#000000;stroke-linejoin:miter;" x="358.601192" xlink:href="#m0eeb3d078c" y="404.030306"/>
     <use style="fill:#ff81c0;stroke:#000000;stroke-linejoin:miter;" x="386.588653" xlink:href="#m0eeb3d078c" y="393.149222"/>
     <use style="fill:#ff81c0;stroke:#000000;stroke-linejoin:miter;" x="414.576114" xlink:href="#m0eeb3d078c" y="383.762569"/>
     <use style="fill:#ff81c0;stroke:#000000;stroke-linejoin:miter;" x="442.563575" xlink:href="#m0eeb3d078c" y="376.146077"/>
     <use style="fill:#ff81c0;stroke:#000000;stroke-linejoin:miter;" x="470.551035" xlink:href="#m0eeb3d078c" y="369.046771"/>
     <use style="fill:#ff81c0;stroke:#000000;stroke-linejoin:miter;" x="498.538496" xlink:href="#m0eeb3d078c" y="362.211771"/>
     <use style="fill:#ff81c0;stroke:#000000;stroke-linejoin:miter;" x="526.525957" xlink:href="#m0eeb3d078c" y="355.56643"/>
     <use style="fill:#ff81c0;stroke:#000000;stroke-linejoin:miter;" x="554.513418" xlink:href="#m0eeb3d078c" y="351.120081"/>
     <use style="fill:#ff81c0;stroke:#000000;stroke-linejoin:miter;" x="582.500879" xlink:href="#m0eeb3d078c" y="345.870151"/>
     <use style="fill:#ff81c0;stroke:#000000;stroke-linejoin:miter;" x="610.48834" xlink:href="#m0eeb3d078c" y="342.014871"/>
     <use style="fill:#ff81c0;stroke:#000000;stroke-linejoin:miter;" x="638.4758" xlink:href="#m0eeb3d078c" y="337.308025"/>
     <use style="fill:#ff81c0;stroke:#000000;stroke-linejoin:miter;" x="666.463261" xlink:href="#m0eeb3d078c" y="334.227761"/>
     <use style="fill:#ff81c0;stroke:#000000;stroke-linejoin:miter;" x="694.450722" xlink:href="#m0eeb3d078c" y="329.904805"/>
     <use style="fill:#ff81c0;stroke:#000000;stroke-linejoin:miter;" x="722.438183" xlink:href="#m0eeb3d078c" y="327.219858"/>
     <use style="fill:#ff81c0;stroke:#000000;stroke-linejoin:miter;" x="750.425644" xlink:href="#m0eeb3d078c" y="323.575565"/>
     <use style="fill:#ff81c0;stroke:#000000;stroke-linejoin:miter;" x="778.413104" xlink:href="#m0eeb3d078c" y="320.641926"/>
     <use style="fill:#ff81c0;stroke:#000000;stroke-linejoin:miter;" x="806.400565" xlink:href="#m0eeb3d078c" y="319.099891"/>
     <use style="fill:#ff81c0;stroke:#000000;stroke-linejoin:miter;" x="834.388026" xlink:href="#m0eeb3d078c" y="316.206241"/>
     <use style="fill:#ff81c0;stroke:#000000;stroke-linejoin:miter;" x="862.375487" xlink:href="#m0eeb3d078c" y="314.021722"/>
     <use style="fill:#ff81c0;stroke:#000000;stroke-linejoin:miter;" x="890.362948" xlink:href="#m0eeb3d078c" y="312.051998"/>
     <use style="fill:#ff81c0;stroke:#000000;stroke-linejoin:miter;" x="918.350409" xlink:href="#m0eeb3d078c" y="310.276505"/>
     <use style="fill:#ff81c0;stroke:#000000;stroke-linejoin:miter;" x="946.337869" xlink:href="#m0eeb3d078c" y="308.894805"/>
    </g>
   </g>
   <g id="patch_3">
    <path d="M 94.119688 1005.12 
L 94.119688 7.2 
" style="fill:none;stroke:#000000;stroke-linecap:square;stroke-linejoin:miter;stroke-width:0.8;"/>
   </g>
   <g id="patch_4">
    <path d="M 986.919688 1005.12 
L 986.919688 7.2 
" style="fill:none;stroke:#000000;stroke-linecap:square;stroke-linejoin:miter;stroke-width:0.8;"/>
   </g>
   <g id="patch_5">
    <path d="M 94.119688 1005.12 
L 986.919687 1005.12 
" style="fill:none;stroke:#000000;stroke-linecap:square;stroke-linejoin:miter;stroke-width:0.8;"/>
   </g>
   <g id="patch_6">
    <path d="M 94.119688 7.2 
L 986.919687 7.2 
" style="fill:none;stroke:#000000;stroke-linecap:square;stroke-linejoin:miter;stroke-width:0.8;"/>
   </g>
   <g id="legend_1">
    <g id="patch_7">
     <path d="M 278.679687 985.62 
L 959.619688 985.62 
Q 967.419688 985.62 967.419688 977.82 
L 967.419688 638.251875 
Q 967.419688 630.451875 959.619688 630.451875 
L 278.679687 630.451875 
Q 270.879687 630.451875 270.879687 638.251875 
L 270.879687 977.82 
Q 270.879687 985.62 278.679687 985.62 
z
" style="fill:#ffffff;opacity:0.8;stroke:#cccccc;stroke-linejoin:miter;"/>
    </g>
    <g id="line2d_33">
     <path d="M 286.479687 662.035781 
L 364.479687 662.035781 
" style="fill:none;stroke:#fe0002;stroke-linecap:square;stroke-width:1.5;"/>
    </g>
    <g id="line2d_34">
     <g>
      <use style="fill:#fe0002;stroke:#000000;" x="325.479687" xlink:href="#md051137cc8" y="662.035781"/>
     </g>
    </g>
    <g id="text_16">
     <!-- Pairing comparisons -->
     <g transform="translate(395.679687 675.685781)scale(0.39 -0.39)">
      <defs>
       <path d="M 1259 4147 
L 1259 2394 
L 2053 2394 
Q 2494 2394 2734 2622 
Q 2975 2850 2975 3272 
Q 2975 3691 2734 3919 
Q 2494 4147 2053 4147 
L 1259 4147 
z
M 628 4666 
L 2053 4666 
Q 2838 4666 3239 4311 
Q 3641 3956 3641 3272 
Q 3641 2581 3239 2228 
Q 2838 1875 2053 1875 
L 1259 1875 
L 1259 0 
L 628 0 
L 628 4666 
z
" id="DejaVuSans-50" transform="scale(0.015625)"/>
      </defs>
      <use xlink:href="#DejaVuSans-50"/>
      <use x="55.802734" xlink:href="#DejaVuSans-61"/>
      <use x="117.082031" xlink:href="#DejaVuSans-69"/>
      <use x="144.865234" xlink:href="#DejaVuSans-72"/>
      <use x="185.978516" xlink:href="#DejaVuSans-69"/>
      <use x="213.761719" xlink:href="#DejaVuSans-6e"/>
      <use x="277.140625" xlink:href="#DejaVuSans-67"/>
      <use x="340.617188" xlink:href="#DejaVuSans-20"/>
      <use x="372.404297" xlink:href="#DejaVuSans-63"/>
      <use x="427.384766" xlink:href="#DejaVuSans-6f"/>
      <use x="488.566406" xlink:href="#DejaVuSans-6d"/>
      <use x="585.978516" xlink:href="#DejaVuSans-70"/>
      <use x="649.455078" xlink:href="#DejaVuSans-61"/>
      <use x="710.734375" xlink:href="#DejaVuSans-72"/>
      <use x="751.847656" xlink:href="#DejaVuSans-69"/>
      <use x="779.630859" xlink:href="#DejaVuSans-73"/>
      <use x="831.730469" xlink:href="#DejaVuSans-6f"/>
      <use x="892.912109" xlink:href="#DejaVuSans-6e"/>
      <use x="956.291016" xlink:href="#DejaVuSans-73"/>
     </g>
    </g>
    <g id="line2d_35">
     <path d="M 286.479687 719.280469 
L 364.479687 719.280469 
" style="fill:none;stroke:#53fca1;stroke-linecap:square;stroke-width:1.5;"/>
    </g>
    <g id="line2d_36">
     <g>
      <use style="fill:#53fca1;stroke:#000000;stroke-linejoin:miter;" x="325.479687" xlink:href="#m143e9f524d" y="719.280469"/>
     </g>
    </g>
    <g id="text_17">
     <!-- Smooth comparisons -->
     <g transform="translate(395.679687 732.930469)scale(0.39 -0.39)">
      <defs>
       <path d="M 3425 4513 
L 3425 3897 
Q 3066 4069 2747 4153 
Q 2428 4238 2131 4238 
Q 1616 4238 1336 4038 
Q 1056 3838 1056 3469 
Q 1056 3159 1242 3001 
Q 1428 2844 1947 2747 
L 2328 2669 
Q 3034 2534 3370 2195 
Q 3706 1856 3706 1288 
Q 3706 609 3251 259 
Q 2797 -91 1919 -91 
Q 1588 -91 1214 -16 
Q 841 59 441 206 
L 441 856 
Q 825 641 1194 531 
Q 1563 422 1919 422 
Q 2459 422 2753 634 
Q 3047 847 3047 1241 
Q 3047 1584 2836 1778 
Q 2625 1972 2144 2069 
L 1759 2144 
Q 1053 2284 737 2584 
Q 422 2884 422 3419 
Q 422 4038 858 4394 
Q 1294 4750 2059 4750 
Q 2388 4750 2728 4690 
Q 3069 4631 3425 4513 
z
" id="DejaVuSans-53" transform="scale(0.015625)"/>
       <path d="M 3513 2113 
L 3513 0 
L 2938 0 
L 2938 2094 
Q 2938 2591 2744 2837 
Q 2550 3084 2163 3084 
Q 1697 3084 1428 2787 
Q 1159 2491 1159 1978 
L 1159 0 
L 581 0 
L 581 4863 
L 1159 4863 
L 1159 2956 
Q 1366 3272 1645 3428 
Q 1925 3584 2291 3584 
Q 2894 3584 3203 3211 
Q 3513 2838 3513 2113 
z
" id="DejaVuSans-68" transform="scale(0.015625)"/>
      </defs>
      <use xlink:href="#DejaVuSans-53"/>
      <use x="63.476562" xlink:href="#DejaVuSans-6d"/>
      <use x="160.888672" xlink:href="#DejaVuSans-6f"/>
      <use x="222.070312" xlink:href="#DejaVuSans-6f"/>
      <use x="283.251953" xlink:href="#DejaVuSans-74"/>
      <use x="322.460938" xlink:href="#DejaVuSans-68"/>
      <use x="385.839844" xlink:href="#DejaVuSans-20"/>
      <use x="417.626953" xlink:href="#DejaVuSans-63"/>
      <use x="472.607422" xlink:href="#DejaVuSans-6f"/>
      <use x="533.789062" xlink:href="#DejaVuSans-6d"/>
      <use x="631.201172" xlink:href="#DejaVuSans-70"/>
      <use x="694.677734" xlink:href="#DejaVuSans-61"/>
      <use x="755.957031" xlink:href="#DejaVuSans-72"/>
      <use x="797.070312" xlink:href="#DejaVuSans-69"/>
      <use x="824.853516" xlink:href="#DejaVuSans-73"/>
      <use x="876.953125" xlink:href="#DejaVuSans-6f"/>
      <use x="938.134766" xlink:href="#DejaVuSans-6e"/>
      <use x="1001.513672" xlink:href="#DejaVuSans-73"/>
     </g>
    </g>
    <g id="line2d_37">
     <path d="M 286.479687 776.525156 
L 364.479687 776.525156 
" style="fill:none;stroke:#0652ff;stroke-linecap:square;stroke-width:1.5;"/>
    </g>
    <g id="line2d_38">
     <g>
      <use style="fill:#0652ff;stroke:#000000;stroke-linejoin:miter;" x="325.479687" xlink:href="#m2b4aba4755" y="776.525156"/>
     </g>
    </g>
    <g id="text_18">
     <!-- Slim comparisons -->
     <g transform="translate(395.679687 790.175156)scale(0.39 -0.39)">
      <use xlink:href="#DejaVuSans-53"/>
      <use x="63.476562" xlink:href="#DejaVuSans-6c"/>
      <use x="91.259766" xlink:href="#DejaVuSans-69"/>
      <use x="119.042969" xlink:href="#DejaVuSans-6d"/>
      <use x="216.455078" xlink:href="#DejaVuSans-20"/>
      <use x="248.242188" xlink:href="#DejaVuSans-63"/>
      <use x="303.222656" xlink:href="#DejaVuSans-6f"/>
      <use x="364.404297" xlink:href="#DejaVuSans-6d"/>
      <use x="461.816406" xlink:href="#DejaVuSans-70"/>
      <use x="525.292969" xlink:href="#DejaVuSans-61"/>
      <use x="586.572266" xlink:href="#DejaVuSans-72"/>
      <use x="627.685547" xlink:href="#DejaVuSans-69"/>
      <use x="655.46875" xlink:href="#DejaVuSans-73"/>
      <use x="707.568359" xlink:href="#DejaVuSans-6f"/>
      <use x="768.75" xlink:href="#DejaVuSans-6e"/>
      <use x="832.128906" xlink:href="#DejaVuSans-73"/>
     </g>
    </g>
    <g id="line2d_39">
     <path d="M 286.479687 833.769844 
L 364.479687 833.769844 
" style="fill:none;stroke:#ae7181;stroke-linecap:square;stroke-width:1.5;"/>
    </g>
    <g id="line2d_40">
     <g>
      <use style="fill:#ae7181;stroke:#000000;stroke-linejoin:miter;" x="325.479687" xlink:href="#m39fe07e3e7" y="833.769844"/>
     </g>
    </g>
    <g id="text_19">
     <!-- Pairing Lazy comparisons -->
     <g transform="translate(395.679687 847.419844)scale(0.39 -0.39)">
      <use xlink:href="#DejaVuSans-50"/>
      <use x="55.802734" xlink:href="#DejaVuSans-61"/>
      <use x="117.082031" xlink:href="#DejaVuSans-69"/>
      <use x="144.865234" xlink:href="#DejaVuSans-72"/>
      <use x="185.978516" xlink:href="#DejaVuSans-69"/>
      <use x="213.761719" xlink:href="#DejaVuSans-6e"/>
      <use x="277.140625" xlink:href="#DejaVuSans-67"/>
      <use x="340.617188" xlink:href="#DejaVuSans-20"/>
      <use x="372.404297" xlink:href="#DejaVuSans-4c"/>
      <use x="428.117188" xlink:href="#DejaVuSans-61"/>
      <use x="489.396484" xlink:href="#DejaVuSans-7a"/>
      <use x="541.886719" xlink:href="#DejaVuSans-79"/>
      <use x="601.066406" xlink:href="#DejaVuSans-20"/>
      <use x="632.853516" xlink:href="#DejaVuSans-63"/>
      <use x="687.833984" xlink:href="#DejaVuSans-6f"/>
      <use x="749.015625" xlink:href="#DejaVuSans-6d"/>
      <use x="846.427734" xlink:href="#DejaVuSans-70"/>
      <use x="909.904297" xlink:href="#DejaVuSans-61"/>
      <use x="971.183594" xlink:href="#DejaVuSans-72"/>
      <use x="1012.296875" xlink:href="#DejaVuSans-69"/>
      <use x="1040.080078" xlink:href="#DejaVuSans-73"/>
      <use x="1092.179688" xlink:href="#DejaVuSans-6f"/>
      <use x="1153.361328" xlink:href="#DejaVuSans-6e"/>
      <use x="1216.740234" xlink:href="#DejaVuSans-73"/>
     </g>
    </g>
    <g id="line2d_41">
     <path d="M 286.479687 891.014531 
L 364.479687 891.014531 
" style="fill:none;stroke:#ff9408;stroke-linecap:square;stroke-width:1.5;"/>
    </g>
    <g id="line2d_42">
     <g>
      <use style="fill:#ff9408;stroke:#000000;" x="325.479687" xlink:href="#m044acc2afb" y="891.014531"/>
     </g>
    </g>
    <g id="text_20">
     <!-- Pairing Slim comparisons -->
     <g transform="translate(395.679687 904.664531)scale(0.39 -0.39)">
      <use xlink:href="#DejaVuSans-50"/>
      <use x="55.802734" xlink:href="#DejaVuSans-61"/>
      <use x="117.082031" xlink:href="#DejaVuSans-69"/>
      <use x="144.865234" xlink:href="#DejaVuSans-72"/>
      <use x="185.978516" xlink:href="#DejaVuSans-69"/>
      <use x="213.761719" xlink:href="#DejaVuSans-6e"/>
      <use x="277.140625" xlink:href="#DejaVuSans-67"/>
      <use x="340.617188" xlink:href="#DejaVuSans-20"/>
      <use x="372.404297" xlink:href="#DejaVuSans-53"/>
      <use x="435.880859" xlink:href="#DejaVuSans-6c"/>
      <use x="463.664062" xlink:href="#DejaVuSans-69"/>
      <use x="491.447266" xlink:href="#DejaVuSans-6d"/>
      <use x="588.859375" xlink:href="#DejaVuSans-20"/>
      <use x="620.646484" xlink:href="#DejaVuSans-63"/>
      <use x="675.626953" xlink:href="#DejaVuSans-6f"/>
      <use x="736.808594" xlink:href="#DejaVuSans-6d"/>
      <use x="834.220703" xlink:href="#DejaVuSans-70"/>
      <use x="897.697266" xlink:href="#DejaVuSans-61"/>
      <use x="958.976562" xlink:href="#DejaVuSans-72"/>
      <use x="1000.089844" xlink:href="#DejaVuSans-69"/>
      <use x="1027.873047" xlink:href="#DejaVuSans-73"/>
      <use x="1079.972656" xlink:href="#DejaVuSans-6f"/>
      <use x="1141.154297" xlink:href="#DejaVuSans-6e"/>
      <use x="1204.533203" xlink:href="#DejaVuSans-73"/>
     </g>
    </g>
    <g id="line2d_43">
     <path d="M 286.479687 948.259219 
L 364.479687 948.259219 
" style="fill:none;stroke:#ff81c0;stroke-linecap:square;stroke-width:1.5;"/>
    </g>
    <g id="line2d_44">
     <g>
      <use style="fill:#ff81c0;stroke:#000000;stroke-linejoin:miter;" x="325.479687" xlink:href="#m0eeb3d078c" y="948.259219"/>
     </g>
    </g>
    <g id="text_21">
     <!-- Pairing Smooth comparisons -->
     <g transform="translate(395.679687 961.909219)scale(0.39 -0.39)">
      <use xlink:href="#DejaVuSans-50"/>
      <use x="55.802734" xlink:href="#DejaVuSans-61"/>
      <use x="117.082031" xlink:href="#DejaVuSans-69"/>
      <use x="144.865234" xlink:href="#DejaVuSans-72"/>
      <use x="185.978516" xlink:href="#DejaVuSans-69"/>
      <use x="213.761719" xlink:href="#DejaVuSans-6e"/>
      <use x="277.140625" xlink:href="#DejaVuSans-67"/>
      <use x="340.617188" xlink:href="#DejaVuSans-20"/>
      <use x="372.404297" xlink:href="#DejaVuSans-53"/>
      <use x="435.880859" xlink:href="#DejaVuSans-6d"/>
      <use x="533.292969" xlink:href="#DejaVuSans-6f"/>
      <use x="594.474609" xlink:href="#DejaVuSans-6f"/>
      <use x="655.65625" xlink:href="#DejaVuSans-74"/>
      <use x="694.865234" xlink:href="#DejaVuSans-68"/>
      <use x="758.244141" xlink:href="#DejaVuSans-20"/>
      <use x="790.03125" xlink:href="#DejaVuSans-63"/>
      <use x="845.011719" xlink:href="#DejaVuSans-6f"/>
      <use x="906.193359" xlink:href="#DejaVuSans-6d"/>
      <use x="1003.605469" xlink:href="#DejaVuSans-70"/>
      <use x="1067.082031" xlink:href="#DejaVuSans-61"/>
      <use x="1128.361328" xlink:href="#DejaVuSans-72"/>
      <use x="1169.474609" xlink:href="#DejaVuSans-69"/>
      <use x="1197.257812" xlink:href="#DejaVuSans-73"/>
      <use x="1249.357422" xlink:href="#DejaVuSans-6f"/>
      <use x="1310.539062" xlink:href="#DejaVuSans-6e"/>
      <use x="1373.917969" xlink:href="#DejaVuSans-73"/>
     </g>
    </g>
   </g>
  </g>
 </g>
 <defs>
  <clipPath id="p8c341fe8c4">
   <rect height="997.92" width="892.8" x="94.119688" y="7.2"/>
  </clipPath>
 </defs>
</svg>
