<?xml version="1.0" encoding="utf-8" standalone="no"?>
<!DOCTYPE svg PUBLIC "-//W3C//DTD SVG 1.1//EN"
  "http://www.w3.org/Graphics/SVG/1.1/DTD/svg11.dtd">
<svg height="1090.099062pt" version="1.1" viewBox="0 0 933.2875 1090.099062" width="933.2875pt" xmlns="http://www.w3.org/2000/svg" xmlns:xlink="http://www.w3.org/1999/xlink">
 <metadata>
  <rdf:RDF xmlns:cc="http://creativecommons.org/ns#" xmlns:dc="http://purl.org/dc/elements/1.1/" xmlns:rdf="http://www.w3.org/1999/02/22-rdf-syntax-ns#">
   <cc:Work>
    <dc:type rdf:resource="http://purl.org/dc/dcmitype/StillImage"/>
    <dc:date>2021-06-15T00:22:16.735560</dc:date>
    <dc:format>image/svg+xml</dc:format>
    <dc:creator>
     <cc:Agent>
      <dc:title>Matplotlib v3.4.2, https://matplotlib.org/</dc:title>
     </cc:Agent>
    </dc:creator>
   </cc:Work>
  </rdf:RDF>
 </metadata>
 <defs>
  <style type="text/css">*{stroke-linecap:butt;stroke-linejoin:round;}</style>
 </defs>
 <g id="figure_1">
  <g id="patch_1">
   <path d="M 0 1090.099062 
L 933.2875 1090.099062 
L 933.2875 0 
L 0 0 
z
" style="fill:#ffffff;"/>
  </g>
  <g id="axes_1">
   <g id="patch_2">
    <path d="M 33.2875 1005.12 
L 926.0875 1005.12 
L 926.0875 7.2 
L 33.2875 7.2 
z
" style="fill:#ffffff;"/>
   </g>
   <g id="PolyCollection_1">
    <defs>
     <path d="M 73.869318 -313.663594 
L 73.869318 -195.041838 
L 73.968407 -275.920308 
L 74.166585 -321.751441 
L 74.56294 -374.322446 
L 75.35565 -411.391745 
L 76.941071 -461.603795 
L 80.111913 -498.3361 
L 86.453596 -499.010087 
L 99.136962 -526.643564 
L 124.503695 -531.256165 
L 175.237161 -538.880645 
L 276.704092 -547.031679 
L 479.637956 -545.949613 
L 885.505682 -552.260345 
L 885.505682 -613.982834 
L 885.505682 -613.982834 
L 479.637956 -607.877457 
L 276.704092 -612.224148 
L 175.237161 -593.578923 
L 124.503695 -595.916816 
L 99.136962 -599.602684 
L 86.453596 -599.939678 
L 80.111913 -558.657959 
L 76.941071 -539.449322 
L 75.35565 -525.969577 
L 74.56294 -496.988126 
L 74.166585 -453.852942 
L 73.968407 -399.933962 
L 73.869318 -313.663594 
z
" id="m4aa05208e9" style="stroke:#fe0002;stroke-opacity:0.3;"/>
    </defs>
    <g clip-path="url(#p4a882c0940)">
     <use style="fill:#fe0002;fill-opacity:0.3;stroke:#fe0002;stroke-opacity:0.3;" x="0" xlink:href="#m4aa05208e9" y="1090.099062"/>
    </g>
   </g>
   <g id="PolyCollection_2">
    <g clip-path="url(#p4a882c0940)">
     <use style="fill:#fe0002;fill-opacity:0.3;stroke:#fe0002;stroke-opacity:0.3;" x="0" xlink:href="#m4aa05208e9" y="1090.099062"/>
    </g>
   </g>
   <g id="PolyCollection_3">
    <defs>
     <path d="M 73.869318 -313.663594 
L 73.869318 -195.041838 
L 73.968407 -286.704104 
L 74.166585 -351.40688 
L 74.56294 -368.930548 
L 75.35565 -441.721171 
L 76.941071 -470.028636 
L 80.111913 -501.369043 
L 86.453596 -520.493431 
L 99.136962 -529.676507 
L 124.503695 -536.353193 
L 175.237161 -547.273893 
L 276.704092 -546.262912 
L 479.637956 -552.181363 
L 885.505682 -554.069053 
L 885.505682 -557.786514 
L 885.505682 -557.786514 
L 479.637956 -557.212572 
L 276.704092 -555.36174 
L 175.237161 -553.65571 
L 124.503695 -548.021598 
L 99.136962 -545.852201 
L 86.453596 -544.251481 
L 80.111913 -528.834023 
L 76.941071 -518.892711 
L 75.35565 -503.727998 
L 74.56294 -474.072559 
L 74.166585 -448.461044 
L 73.968407 -383.758268 
L 73.869318 -313.663594 
z
" id="mad09ba05f6" style="stroke:#53fca1;stroke-opacity:0.3;"/>
    </defs>
    <g clip-path="url(#p4a882c0940)">
     <use style="fill:#53fca1;fill-opacity:0.3;stroke:#53fca1;stroke-opacity:0.3;" x="0" xlink:href="#mad09ba05f6" y="1090.099062"/>
    </g>
   </g>
   <g id="PolyCollection_4">
    <defs>
     <path d="M 73.869318 -227.393226 
L 73.869318 -130.339063 
L 73.968407 -216.60943 
L 74.166585 -224.697277 
L 74.56294 -269.180436 
L 75.35565 -286.704104 
L 76.941071 -311.978626 
L 80.111913 -328.491313 
L 86.453596 -337.421645 
L 99.136962 -339.738476 
L 124.503695 -343.003101 
L 175.237161 -347.004901 
L 276.704092 -348.40553 
L 479.637956 -349.911471 
L 885.505682 -350.272159 
L 885.505682 -351.764936 
L 885.505682 -351.764936 
L 479.637956 -351.65436 
L 276.704092 -351.201524 
L 175.237161 -351.617501 
L 124.503695 -350.290589 
L 99.136962 -347.952695 
L 86.453596 -346.604721 
L 80.111913 -348.879428 
L 76.941071 -338.601122 
L 75.35565 -335.231186 
L 74.56294 -315.011569 
L 74.166585 -300.183849 
L 73.968407 -270.52841 
L 73.869318 -227.393226 
z
" id="mfdff5fb5ed" style="stroke:#53fca1;stroke-opacity:0.3;"/>
    </defs>
    <g clip-path="url(#p4a882c0940)">
     <use style="fill:#53fca1;fill-opacity:0.3;stroke:#53fca1;stroke-opacity:0.3;" x="0" xlink:href="#mfdff5fb5ed" y="1090.099062"/>
    </g>
   </g>
   <g id="PolyCollection_5">
    <defs>
     <path d="M 73.869318 -313.663594 
L 73.869318 -195.041838 
L 73.968407 -292.096002 
L 74.166585 -356.798778 
L 74.56294 -370.278523 
L 75.35565 -438.351235 
L 76.941071 -470.702623 
L 80.111913 -501.706036 
L 86.453596 -519.229705 
L 99.136962 -530.097749 
L 124.503695 -536.163634 
L 175.237161 -545.557332 
L 276.704092 -544.772768 
L 479.637956 -550.383186 
L 885.505682 -551.786448 
L 885.505682 -555.288023 
L 885.505682 -555.288023 
L 479.637956 -554.843086 
L 276.704092 -553.081767 
L 175.237161 -551.65481 
L 124.503695 -546.378754 
L 99.136962 -544.799096 
L 86.453596 -541.808278 
L 80.111913 -526.643564 
L 76.941071 -516.533756 
L 75.35565 -499.010087 
L 74.56294 -482.160406 
L 74.166585 -434.981299 
L 73.968407 -389.150166 
L 73.869318 -313.663594 
z
" id="m98ac2b7005" style="stroke:#0652ff;stroke-opacity:0.3;"/>
    </defs>
    <g clip-path="url(#p4a882c0940)">
     <use style="fill:#0652ff;fill-opacity:0.3;stroke:#0652ff;stroke-opacity:0.3;" x="0" xlink:href="#m98ac2b7005" y="1090.099062"/>
    </g>
   </g>
   <g id="PolyCollection_6">
    <defs>
     <path d="M 73.869318 -227.393226 
L 73.869318 -130.339063 
L 73.968407 -216.60943 
L 74.166585 -224.697277 
L 74.56294 -265.136512 
L 75.35565 -281.986193 
L 76.941071 -301.868817 
L 80.111913 -317.539021 
L 86.453596 -323.352161 
L 99.136962 -327.564581 
L 124.503695 -327.669892 
L 175.237161 -331.555849 
L 276.704092 -332.177181 
L 479.637956 -333.188162 
L 885.505682 -333.496195 
L 885.505682 -334.384753 
L 885.505682 -334.384753 
L 479.637956 -334.41503 
L 276.704092 -334.246533 
L 175.237161 -334.051708 
L 124.503695 -333.398783 
L 99.136962 -332.787982 
L 86.453596 -331.692753 
L 80.111913 -329.165301 
L 76.941071 -325.458371 
L 75.35565 -319.055492 
L 74.56294 -306.923722 
L 74.166585 -289.400053 
L 73.968407 -265.136512 
L 73.869318 -227.393226 
z
" id="m3f4212b071" style="stroke:#0652ff;stroke-opacity:0.3;"/>
    </defs>
    <g clip-path="url(#p4a882c0940)">
     <use style="fill:#0652ff;fill-opacity:0.3;stroke:#0652ff;stroke-opacity:0.3;" x="0" xlink:href="#m3f4212b071" y="1090.099062"/>
    </g>
   </g>
   <g id="PolyCollection_7">
    <defs>
     <path d="M 73.869318 -615.609881 
L 73.869318 -496.988126 
L 73.968407 -701.880249 
L 74.166585 -790.846566 
L 74.56294 -867.681112 
L 75.35565 -936.427811 
L 76.941071 -956.647429 
L 80.111913 -986.639861 
L 86.453596 -1008.460199 
L 99.136962 -1009.639676 
L 124.503695 -1014.273339 
L 175.237161 -1013.831034 
L 276.704092 -1022.05052 
L 479.637956 -1014.591903 
L 885.505682 -1021.600317 
L 885.505682 -1037.539063 
L 885.505682 -1037.539063 
L 479.637956 -1036.836115 
L 276.704092 -1036.793991 
L 175.237161 -1037.357402 
L 124.503695 -1031.712759 
L 99.136962 -1029.5223 
L 86.453596 -1026.9106 
L 80.111913 -1031.460013 
L 76.941071 -1008.881441 
L 75.35565 -1011.240396 
L 74.56294 -968.779199 
L 74.166585 -882.508832 
L 73.968407 -788.150617 
L 73.869318 -615.609881 
z
" id="m9eada26c13" style="stroke:#ae7181;stroke-opacity:0.3;"/>
    </defs>
    <g clip-path="url(#p4a882c0940)">
     <use style="fill:#ae7181;fill-opacity:0.3;stroke:#ae7181;stroke-opacity:0.3;" x="0" xlink:href="#m9eada26c13" y="1090.099062"/>
    </g>
   </g>
   <g id="PolyCollection_8">
    <defs>
     <path d="M 73.869318 -292.096002 
L 73.869318 -232.785124 
L 73.968407 -335.231186 
L 74.166585 -379.714344 
L 74.56294 -418.131618 
L 75.35565 -452.504967 
L 76.941071 -462.614776 
L 80.111913 -477.610992 
L 86.453596 -488.521161 
L 99.136962 -489.1109 
L 124.503695 -491.427731 
L 175.237161 -491.206579 
L 276.704092 -495.316321 
L 479.637956 -491.587013 
L 885.505682 -495.09122 
L 885.505682 -503.060593 
L 885.505682 -503.060593 
L 479.637956 -502.709119 
L 276.704092 -502.688057 
L 175.237161 -502.969762 
L 124.503695 -500.147441 
L 99.136962 -499.052212 
L 86.453596 -497.746361 
L 80.111913 -500.021068 
L 76.941071 -488.731782 
L 75.35565 -489.911259 
L 74.56294 -468.680661 
L 74.166585 -425.545477 
L 73.968407 -378.36637 
L 73.869318 -292.096002 
z
" id="m2a8990a84a" style="stroke:#ae7181;stroke-opacity:0.3;"/>
    </defs>
    <g clip-path="url(#p4a882c0940)">
     <use style="fill:#ae7181;fill-opacity:0.3;stroke:#ae7181;stroke-opacity:0.3;" x="0" xlink:href="#m2a8990a84a" y="1090.099062"/>
    </g>
   </g>
   <g id="matplotlib.axis_1">
    <g id="xtick_1">
     <g id="line2d_1">
      <path clip-path="url(#p4a882c0940)" d="M 73.770229 1005.12 
L 73.770229 7.2 
" style="fill:none;stroke:#b0b0b0;stroke-linecap:square;stroke-width:0.8;"/>
     </g>
     <g id="line2d_2">
      <defs>
       <path d="M 0 0 
L 0 3.5 
" id="me5c6722c38" style="stroke:#000000;stroke-width:0.8;"/>
      </defs>
      <g>
       <use style="stroke:#000000;stroke-width:0.8;" x="73.770229" xlink:href="#me5c6722c38" y="1005.12"/>
      </g>
     </g>
     <g id="text_1">
      <!-- 0 -->
      <g transform="translate(64.226479 1034.915313)scale(0.3 -0.3)">
       <defs>
        <path d="M 2034 4250 
Q 1547 4250 1301 3770 
Q 1056 3291 1056 2328 
Q 1056 1369 1301 889 
Q 1547 409 2034 409 
Q 2525 409 2770 889 
Q 3016 1369 3016 2328 
Q 3016 3291 2770 3770 
Q 2525 4250 2034 4250 
z
M 2034 4750 
Q 2819 4750 3233 4129 
Q 3647 3509 3647 2328 
Q 3647 1150 3233 529 
Q 2819 -91 2034 -91 
Q 1250 -91 836 529 
Q 422 1150 422 2328 
Q 422 3509 836 4129 
Q 1250 4750 2034 4750 
z
" id="DejaVuSans-30" transform="scale(0.015625)"/>
       </defs>
       <use xlink:href="#DejaVuSans-30"/>
      </g>
     </g>
    </g>
    <g id="xtick_2">
     <g id="line2d_3">
      <path clip-path="url(#p4a882c0940)" d="M 197.63123 1005.12 
L 197.63123 7.2 
" style="fill:none;stroke:#b0b0b0;stroke-linecap:square;stroke-width:0.8;"/>
     </g>
     <g id="line2d_4">
      <g>
       <use style="stroke:#000000;stroke-width:0.8;" x="197.63123" xlink:href="#me5c6722c38" y="1005.12"/>
      </g>
     </g>
     <g id="text_2">
      <!-- 20000 -->
      <g transform="translate(149.91248 1034.915313)scale(0.3 -0.3)">
       <defs>
        <path d="M 1228 531 
L 3431 531 
L 3431 0 
L 469 0 
L 469 531 
Q 828 903 1448 1529 
Q 2069 2156 2228 2338 
Q 2531 2678 2651 2914 
Q 2772 3150 2772 3378 
Q 2772 3750 2511 3984 
Q 2250 4219 1831 4219 
Q 1534 4219 1204 4116 
Q 875 4013 500 3803 
L 500 4441 
Q 881 4594 1212 4672 
Q 1544 4750 1819 4750 
Q 2544 4750 2975 4387 
Q 3406 4025 3406 3419 
Q 3406 3131 3298 2873 
Q 3191 2616 2906 2266 
Q 2828 2175 2409 1742 
Q 1991 1309 1228 531 
z
" id="DejaVuSans-32" transform="scale(0.015625)"/>
       </defs>
       <use xlink:href="#DejaVuSans-32"/>
       <use x="63.623047" xlink:href="#DejaVuSans-30"/>
       <use x="127.246094" xlink:href="#DejaVuSans-30"/>
       <use x="190.869141" xlink:href="#DejaVuSans-30"/>
       <use x="254.492188" xlink:href="#DejaVuSans-30"/>
      </g>
     </g>
    </g>
    <g id="xtick_3">
     <g id="line2d_5">
      <path clip-path="url(#p4a882c0940)" d="M 321.49223 1005.12 
L 321.49223 7.2 
" style="fill:none;stroke:#b0b0b0;stroke-linecap:square;stroke-width:0.8;"/>
     </g>
     <g id="line2d_6">
      <g>
       <use style="stroke:#000000;stroke-width:0.8;" x="321.49223" xlink:href="#me5c6722c38" y="1005.12"/>
      </g>
     </g>
     <g id="text_3">
      <!-- 40000 -->
      <g transform="translate(273.77348 1034.915313)scale(0.3 -0.3)">
       <defs>
        <path d="M 2419 4116 
L 825 1625 
L 2419 1625 
L 2419 4116 
z
M 2253 4666 
L 3047 4666 
L 3047 1625 
L 3713 1625 
L 3713 1100 
L 3047 1100 
L 3047 0 
L 2419 0 
L 2419 1100 
L 313 1100 
L 313 1709 
L 2253 4666 
z
" id="DejaVuSans-34" transform="scale(0.015625)"/>
       </defs>
       <use xlink:href="#DejaVuSans-34"/>
       <use x="63.623047" xlink:href="#DejaVuSans-30"/>
       <use x="127.246094" xlink:href="#DejaVuSans-30"/>
       <use x="190.869141" xlink:href="#DejaVuSans-30"/>
       <use x="254.492188" xlink:href="#DejaVuSans-30"/>
      </g>
     </g>
    </g>
    <g id="xtick_4">
     <g id="line2d_7">
      <path clip-path="url(#p4a882c0940)" d="M 445.353231 1005.12 
L 445.353231 7.2 
" style="fill:none;stroke:#b0b0b0;stroke-linecap:square;stroke-width:0.8;"/>
     </g>
     <g id="line2d_8">
      <g>
       <use style="stroke:#000000;stroke-width:0.8;" x="445.353231" xlink:href="#me5c6722c38" y="1005.12"/>
      </g>
     </g>
     <g id="text_4">
      <!-- 60000 -->
      <g transform="translate(397.634481 1034.915313)scale(0.3 -0.3)">
       <defs>
        <path d="M 2113 2584 
Q 1688 2584 1439 2293 
Q 1191 2003 1191 1497 
Q 1191 994 1439 701 
Q 1688 409 2113 409 
Q 2538 409 2786 701 
Q 3034 994 3034 1497 
Q 3034 2003 2786 2293 
Q 2538 2584 2113 2584 
z
M 3366 4563 
L 3366 3988 
Q 3128 4100 2886 4159 
Q 2644 4219 2406 4219 
Q 1781 4219 1451 3797 
Q 1122 3375 1075 2522 
Q 1259 2794 1537 2939 
Q 1816 3084 2150 3084 
Q 2853 3084 3261 2657 
Q 3669 2231 3669 1497 
Q 3669 778 3244 343 
Q 2819 -91 2113 -91 
Q 1303 -91 875 529 
Q 447 1150 447 2328 
Q 447 3434 972 4092 
Q 1497 4750 2381 4750 
Q 2619 4750 2861 4703 
Q 3103 4656 3366 4563 
z
" id="DejaVuSans-36" transform="scale(0.015625)"/>
       </defs>
       <use xlink:href="#DejaVuSans-36"/>
       <use x="63.623047" xlink:href="#DejaVuSans-30"/>
       <use x="127.246094" xlink:href="#DejaVuSans-30"/>
       <use x="190.869141" xlink:href="#DejaVuSans-30"/>
       <use x="254.492188" xlink:href="#DejaVuSans-30"/>
      </g>
     </g>
    </g>
    <g id="xtick_5">
     <g id="line2d_9">
      <path clip-path="url(#p4a882c0940)" d="M 569.214231 1005.12 
L 569.214231 7.2 
" style="fill:none;stroke:#b0b0b0;stroke-linecap:square;stroke-width:0.8;"/>
     </g>
     <g id="line2d_10">
      <g>
       <use style="stroke:#000000;stroke-width:0.8;" x="569.214231" xlink:href="#me5c6722c38" y="1005.12"/>
      </g>
     </g>
     <g id="text_5">
      <!-- 80000 -->
      <g transform="translate(521.495481 1034.915313)scale(0.3 -0.3)">
       <defs>
        <path d="M 2034 2216 
Q 1584 2216 1326 1975 
Q 1069 1734 1069 1313 
Q 1069 891 1326 650 
Q 1584 409 2034 409 
Q 2484 409 2743 651 
Q 3003 894 3003 1313 
Q 3003 1734 2745 1975 
Q 2488 2216 2034 2216 
z
M 1403 2484 
Q 997 2584 770 2862 
Q 544 3141 544 3541 
Q 544 4100 942 4425 
Q 1341 4750 2034 4750 
Q 2731 4750 3128 4425 
Q 3525 4100 3525 3541 
Q 3525 3141 3298 2862 
Q 3072 2584 2669 2484 
Q 3125 2378 3379 2068 
Q 3634 1759 3634 1313 
Q 3634 634 3220 271 
Q 2806 -91 2034 -91 
Q 1263 -91 848 271 
Q 434 634 434 1313 
Q 434 1759 690 2068 
Q 947 2378 1403 2484 
z
M 1172 3481 
Q 1172 3119 1398 2916 
Q 1625 2713 2034 2713 
Q 2441 2713 2670 2916 
Q 2900 3119 2900 3481 
Q 2900 3844 2670 4047 
Q 2441 4250 2034 4250 
Q 1625 4250 1398 4047 
Q 1172 3844 1172 3481 
z
" id="DejaVuSans-38" transform="scale(0.015625)"/>
       </defs>
       <use xlink:href="#DejaVuSans-38"/>
       <use x="63.623047" xlink:href="#DejaVuSans-30"/>
       <use x="127.246094" xlink:href="#DejaVuSans-30"/>
       <use x="190.869141" xlink:href="#DejaVuSans-30"/>
       <use x="254.492188" xlink:href="#DejaVuSans-30"/>
      </g>
     </g>
    </g>
    <g id="xtick_6">
     <g id="line2d_11">
      <path clip-path="url(#p4a882c0940)" d="M 693.075232 1005.12 
L 693.075232 7.2 
" style="fill:none;stroke:#b0b0b0;stroke-linecap:square;stroke-width:0.8;"/>
     </g>
     <g id="line2d_12">
      <g>
       <use style="stroke:#000000;stroke-width:0.8;" x="693.075232" xlink:href="#me5c6722c38" y="1005.12"/>
      </g>
     </g>
     <g id="text_6">
      <!-- 100000 -->
      <g transform="translate(635.812732 1034.915313)scale(0.3 -0.3)">
       <defs>
        <path d="M 794 531 
L 1825 531 
L 1825 4091 
L 703 3866 
L 703 4441 
L 1819 4666 
L 2450 4666 
L 2450 531 
L 3481 531 
L 3481 0 
L 794 0 
L 794 531 
z
" id="DejaVuSans-31" transform="scale(0.015625)"/>
       </defs>
       <use xlink:href="#DejaVuSans-31"/>
       <use x="63.623047" xlink:href="#DejaVuSans-30"/>
       <use x="127.246094" xlink:href="#DejaVuSans-30"/>
       <use x="190.869141" xlink:href="#DejaVuSans-30"/>
       <use x="254.492188" xlink:href="#DejaVuSans-30"/>
       <use x="318.115234" xlink:href="#DejaVuSans-30"/>
      </g>
     </g>
    </g>
    <g id="xtick_7">
     <g id="line2d_13">
      <path clip-path="url(#p4a882c0940)" d="M 816.936232 1005.12 
L 816.936232 7.2 
" style="fill:none;stroke:#b0b0b0;stroke-linecap:square;stroke-width:0.8;"/>
     </g>
     <g id="line2d_14">
      <g>
       <use style="stroke:#000000;stroke-width:0.8;" x="816.936232" xlink:href="#me5c6722c38" y="1005.12"/>
      </g>
     </g>
     <g id="text_7">
      <!-- 120000 -->
      <g transform="translate(759.673732 1034.915313)scale(0.3 -0.3)">
       <use xlink:href="#DejaVuSans-31"/>
       <use x="63.623047" xlink:href="#DejaVuSans-32"/>
       <use x="127.246094" xlink:href="#DejaVuSans-30"/>
       <use x="190.869141" xlink:href="#DejaVuSans-30"/>
       <use x="254.492188" xlink:href="#DejaVuSans-30"/>
       <use x="318.115234" xlink:href="#DejaVuSans-30"/>
      </g>
     </g>
    </g>
    <g id="text_8">
     <!-- Input size -->
     <g transform="translate(385.188672 1074.788281)scale(0.39 -0.39)">
      <defs>
       <path d="M 628 4666 
L 1259 4666 
L 1259 0 
L 628 0 
L 628 4666 
z
" id="DejaVuSans-49" transform="scale(0.015625)"/>
       <path d="M 3513 2113 
L 3513 0 
L 2938 0 
L 2938 2094 
Q 2938 2591 2744 2837 
Q 2550 3084 2163 3084 
Q 1697 3084 1428 2787 
Q 1159 2491 1159 1978 
L 1159 0 
L 581 0 
L 581 3500 
L 1159 3500 
L 1159 2956 
Q 1366 3272 1645 3428 
Q 1925 3584 2291 3584 
Q 2894 3584 3203 3211 
Q 3513 2838 3513 2113 
z
" id="DejaVuSans-6e" transform="scale(0.015625)"/>
       <path d="M 1159 525 
L 1159 -1331 
L 581 -1331 
L 581 3500 
L 1159 3500 
L 1159 2969 
Q 1341 3281 1617 3432 
Q 1894 3584 2278 3584 
Q 2916 3584 3314 3078 
Q 3713 2572 3713 1747 
Q 3713 922 3314 415 
Q 2916 -91 2278 -91 
Q 1894 -91 1617 61 
Q 1341 213 1159 525 
z
M 3116 1747 
Q 3116 2381 2855 2742 
Q 2594 3103 2138 3103 
Q 1681 3103 1420 2742 
Q 1159 2381 1159 1747 
Q 1159 1113 1420 752 
Q 1681 391 2138 391 
Q 2594 391 2855 752 
Q 3116 1113 3116 1747 
z
" id="DejaVuSans-70" transform="scale(0.015625)"/>
       <path d="M 544 1381 
L 544 3500 
L 1119 3500 
L 1119 1403 
Q 1119 906 1312 657 
Q 1506 409 1894 409 
Q 2359 409 2629 706 
Q 2900 1003 2900 1516 
L 2900 3500 
L 3475 3500 
L 3475 0 
L 2900 0 
L 2900 538 
Q 2691 219 2414 64 
Q 2138 -91 1772 -91 
Q 1169 -91 856 284 
Q 544 659 544 1381 
z
M 1991 3584 
L 1991 3584 
z
" id="DejaVuSans-75" transform="scale(0.015625)"/>
       <path d="M 1172 4494 
L 1172 3500 
L 2356 3500 
L 2356 3053 
L 1172 3053 
L 1172 1153 
Q 1172 725 1289 603 
Q 1406 481 1766 481 
L 2356 481 
L 2356 0 
L 1766 0 
Q 1100 0 847 248 
Q 594 497 594 1153 
L 594 3053 
L 172 3053 
L 172 3500 
L 594 3500 
L 594 4494 
L 1172 4494 
z
" id="DejaVuSans-74" transform="scale(0.015625)"/>
       <path id="DejaVuSans-20" transform="scale(0.015625)"/>
       <path d="M 2834 3397 
L 2834 2853 
Q 2591 2978 2328 3040 
Q 2066 3103 1784 3103 
Q 1356 3103 1142 2972 
Q 928 2841 928 2578 
Q 928 2378 1081 2264 
Q 1234 2150 1697 2047 
L 1894 2003 
Q 2506 1872 2764 1633 
Q 3022 1394 3022 966 
Q 3022 478 2636 193 
Q 2250 -91 1575 -91 
Q 1294 -91 989 -36 
Q 684 19 347 128 
L 347 722 
Q 666 556 975 473 
Q 1284 391 1588 391 
Q 1994 391 2212 530 
Q 2431 669 2431 922 
Q 2431 1156 2273 1281 
Q 2116 1406 1581 1522 
L 1381 1569 
Q 847 1681 609 1914 
Q 372 2147 372 2553 
Q 372 3047 722 3315 
Q 1072 3584 1716 3584 
Q 2034 3584 2315 3537 
Q 2597 3491 2834 3397 
z
" id="DejaVuSans-73" transform="scale(0.015625)"/>
       <path d="M 603 3500 
L 1178 3500 
L 1178 0 
L 603 0 
L 603 3500 
z
M 603 4863 
L 1178 4863 
L 1178 4134 
L 603 4134 
L 603 4863 
z
" id="DejaVuSans-69" transform="scale(0.015625)"/>
       <path d="M 353 3500 
L 3084 3500 
L 3084 2975 
L 922 459 
L 3084 459 
L 3084 0 
L 275 0 
L 275 525 
L 2438 3041 
L 353 3041 
L 353 3500 
z
" id="DejaVuSans-7a" transform="scale(0.015625)"/>
       <path d="M 3597 1894 
L 3597 1613 
L 953 1613 
Q 991 1019 1311 708 
Q 1631 397 2203 397 
Q 2534 397 2845 478 
Q 3156 559 3463 722 
L 3463 178 
Q 3153 47 2828 -22 
Q 2503 -91 2169 -91 
Q 1331 -91 842 396 
Q 353 884 353 1716 
Q 353 2575 817 3079 
Q 1281 3584 2069 3584 
Q 2775 3584 3186 3129 
Q 3597 2675 3597 1894 
z
M 3022 2063 
Q 3016 2534 2758 2815 
Q 2500 3097 2075 3097 
Q 1594 3097 1305 2825 
Q 1016 2553 972 2059 
L 3022 2063 
z
" id="DejaVuSans-65" transform="scale(0.015625)"/>
      </defs>
      <use xlink:href="#DejaVuSans-49"/>
      <use x="29.492188" xlink:href="#DejaVuSans-6e"/>
      <use x="92.871094" xlink:href="#DejaVuSans-70"/>
      <use x="156.347656" xlink:href="#DejaVuSans-75"/>
      <use x="219.726562" xlink:href="#DejaVuSans-74"/>
      <use x="258.935547" xlink:href="#DejaVuSans-20"/>
      <use x="290.722656" xlink:href="#DejaVuSans-73"/>
      <use x="342.822266" xlink:href="#DejaVuSans-69"/>
      <use x="370.605469" xlink:href="#DejaVuSans-7a"/>
      <use x="423.095703" xlink:href="#DejaVuSans-65"/>
     </g>
    </g>
   </g>
   <g id="matplotlib.axis_2">
    <g id="ytick_1">
     <g id="line2d_15">
      <path clip-path="url(#p4a882c0940)" d="M 33.2875 948.976204 
L 926.0875 948.976204 
" style="fill:none;stroke:#b0b0b0;stroke-linecap:square;stroke-width:0.8;"/>
     </g>
     <g id="line2d_16">
      <defs>
       <path d="M 0 0 
L -3.5 0 
" id="m203ad8fabe" style="stroke:#000000;stroke-width:0.8;"/>
      </defs>
      <g>
       <use style="stroke:#000000;stroke-width:0.8;" x="33.2875" xlink:href="#m203ad8fabe" y="948.976204"/>
      </g>
     </g>
     <g id="text_9">
      <!-- 1 -->
      <g transform="translate(7.2 960.37386)scale(0.3 -0.3)">
       <use xlink:href="#DejaVuSans-31"/>
      </g>
     </g>
    </g>
    <g id="ytick_2">
     <g id="line2d_17">
      <path clip-path="url(#p4a882c0940)" d="M 33.2875 776.435468 
L 926.0875 776.435468 
" style="fill:none;stroke:#b0b0b0;stroke-linecap:square;stroke-width:0.8;"/>
     </g>
     <g id="line2d_18">
      <g>
       <use style="stroke:#000000;stroke-width:0.8;" x="33.2875" xlink:href="#m203ad8fabe" y="776.435468"/>
      </g>
     </g>
     <g id="text_10">
      <!-- 2 -->
      <g transform="translate(7.2 787.833125)scale(0.3 -0.3)">
       <use xlink:href="#DejaVuSans-32"/>
      </g>
     </g>
    </g>
    <g id="ytick_3">
     <g id="line2d_19">
      <path clip-path="url(#p4a882c0940)" d="M 33.2875 603.894733 
L 926.0875 603.894733 
" style="fill:none;stroke:#b0b0b0;stroke-linecap:square;stroke-width:0.8;"/>
     </g>
     <g id="line2d_20">
      <g>
       <use style="stroke:#000000;stroke-width:0.8;" x="33.2875" xlink:href="#m203ad8fabe" y="603.894733"/>
      </g>
     </g>
     <g id="text_11">
      <!-- 3 -->
      <g transform="translate(7.2 615.292389)scale(0.3 -0.3)">
       <defs>
        <path d="M 2597 2516 
Q 3050 2419 3304 2112 
Q 3559 1806 3559 1356 
Q 3559 666 3084 287 
Q 2609 -91 1734 -91 
Q 1441 -91 1130 -33 
Q 819 25 488 141 
L 488 750 
Q 750 597 1062 519 
Q 1375 441 1716 441 
Q 2309 441 2620 675 
Q 2931 909 2931 1356 
Q 2931 1769 2642 2001 
Q 2353 2234 1838 2234 
L 1294 2234 
L 1294 2753 
L 1863 2753 
Q 2328 2753 2575 2939 
Q 2822 3125 2822 3475 
Q 2822 3834 2567 4026 
Q 2313 4219 1838 4219 
Q 1578 4219 1281 4162 
Q 984 4106 628 3988 
L 628 4550 
Q 988 4650 1302 4700 
Q 1616 4750 1894 4750 
Q 2613 4750 3031 4423 
Q 3450 4097 3450 3541 
Q 3450 3153 3228 2886 
Q 3006 2619 2597 2516 
z
" id="DejaVuSans-33" transform="scale(0.015625)"/>
       </defs>
       <use xlink:href="#DejaVuSans-33"/>
      </g>
     </g>
    </g>
    <g id="ytick_4">
     <g id="line2d_21">
      <path clip-path="url(#p4a882c0940)" d="M 33.2875 431.353997 
L 926.0875 431.353997 
" style="fill:none;stroke:#b0b0b0;stroke-linecap:square;stroke-width:0.8;"/>
     </g>
     <g id="line2d_22">
      <g>
       <use style="stroke:#000000;stroke-width:0.8;" x="33.2875" xlink:href="#m203ad8fabe" y="431.353997"/>
      </g>
     </g>
     <g id="text_12">
      <!-- 4 -->
      <g transform="translate(7.2 442.751654)scale(0.3 -0.3)">
       <use xlink:href="#DejaVuSans-34"/>
      </g>
     </g>
    </g>
    <g id="ytick_5">
     <g id="line2d_23">
      <path clip-path="url(#p4a882c0940)" d="M 33.2875 258.813262 
L 926.0875 258.813262 
" style="fill:none;stroke:#b0b0b0;stroke-linecap:square;stroke-width:0.8;"/>
     </g>
     <g id="line2d_24">
      <g>
       <use style="stroke:#000000;stroke-width:0.8;" x="33.2875" xlink:href="#m203ad8fabe" y="258.813262"/>
      </g>
     </g>
     <g id="text_13">
      <!-- 5 -->
      <g transform="translate(7.2 270.210918)scale(0.3 -0.3)">
       <defs>
        <path d="M 691 4666 
L 3169 4666 
L 3169 4134 
L 1269 4134 
L 1269 2991 
Q 1406 3038 1543 3061 
Q 1681 3084 1819 3084 
Q 2600 3084 3056 2656 
Q 3513 2228 3513 1497 
Q 3513 744 3044 326 
Q 2575 -91 1722 -91 
Q 1428 -91 1123 -41 
Q 819 9 494 109 
L 494 744 
Q 775 591 1075 516 
Q 1375 441 1709 441 
Q 2250 441 2565 725 
Q 2881 1009 2881 1497 
Q 2881 1984 2565 2268 
Q 2250 2553 1709 2553 
Q 1456 2553 1204 2497 
Q 953 2441 691 2322 
L 691 4666 
z
" id="DejaVuSans-35" transform="scale(0.015625)"/>
       </defs>
       <use xlink:href="#DejaVuSans-35"/>
      </g>
     </g>
    </g>
    <g id="ytick_6">
     <g id="line2d_25">
      <path clip-path="url(#p4a882c0940)" d="M 33.2875 86.272526 
L 926.0875 86.272526 
" style="fill:none;stroke:#b0b0b0;stroke-linecap:square;stroke-width:0.8;"/>
     </g>
     <g id="line2d_26">
      <g>
       <use style="stroke:#000000;stroke-width:0.8;" x="33.2875" xlink:href="#m203ad8fabe" y="86.272526"/>
      </g>
     </g>
     <g id="text_14">
      <!-- 6 -->
      <g transform="translate(7.2 97.670182)scale(0.3 -0.3)">
       <use xlink:href="#DejaVuSans-36"/>
      </g>
     </g>
    </g>
   </g>
   <g id="line2d_27">
    <path clip-path="url(#p4a882c0940)" d="M 73.869318 829.815259 
L 73.968407 726.290817 
L 74.166585 680.729279 
L 74.56294 627.753881 
L 75.35565 608.949637 
L 76.941071 586.168868 
L 80.111913 560.228784 
L 86.453596 547.20398 
L 99.136962 537.224757 
L 124.503695 531.366333 
L 175.237161 521.223878 
L 276.704092 518.806212 
L 479.637956 517.026201 
L 885.505682 512.683196 
" style="fill:none;stroke:#fe0002;stroke-linecap:square;stroke-width:1.5;"/>
    <defs>
     <path d="M 0 4.5 
C 1.193414 4.5 2.338109 4.025852 3.181981 3.181981 
C 4.025852 2.338109 4.5 1.193414 4.5 0 
C 4.5 -1.193414 4.025852 -2.338109 3.181981 -3.181981 
C 2.338109 -4.025852 1.193414 -4.5 0 -4.5 
C -1.193414 -4.5 -2.338109 -4.025852 -3.181981 -3.181981 
C -4.025852 -2.338109 -4.5 -1.193414 -4.5 0 
C -4.5 1.193414 -4.025852 2.338109 -3.181981 3.181981 
C -2.338109 4.025852 -1.193414 4.5 0 4.5 
z
" id="m8dbbe1a9f1" style="stroke:#000000;"/>
    </defs>
    <g clip-path="url(#p4a882c0940)">
     <use style="fill:#fe0002;stroke:#000000;" x="73.869318" xlink:href="#m8dbbe1a9f1" y="829.815259"/>
     <use style="fill:#fe0002;stroke:#000000;" x="73.968407" xlink:href="#m8dbbe1a9f1" y="726.290817"/>
     <use style="fill:#fe0002;stroke:#000000;" x="74.166585" xlink:href="#m8dbbe1a9f1" y="680.729279"/>
     <use style="fill:#fe0002;stroke:#000000;" x="74.56294" xlink:href="#m8dbbe1a9f1" y="627.753881"/>
     <use style="fill:#fe0002;stroke:#000000;" x="75.35565" xlink:href="#m8dbbe1a9f1" y="608.949637"/>
     <use style="fill:#fe0002;stroke:#000000;" x="76.941071" xlink:href="#m8dbbe1a9f1" y="586.168868"/>
     <use style="fill:#fe0002;stroke:#000000;" x="80.111913" xlink:href="#m8dbbe1a9f1" y="560.228784"/>
     <use style="fill:#fe0002;stroke:#000000;" x="86.453596" xlink:href="#m8dbbe1a9f1" y="547.20398"/>
     <use style="fill:#fe0002;stroke:#000000;" x="99.136962" xlink:href="#m8dbbe1a9f1" y="537.224757"/>
     <use style="fill:#fe0002;stroke:#000000;" x="124.503695" xlink:href="#m8dbbe1a9f1" y="531.366333"/>
     <use style="fill:#fe0002;stroke:#000000;" x="175.237161" xlink:href="#m8dbbe1a9f1" y="521.223878"/>
     <use style="fill:#fe0002;stroke:#000000;" x="276.704092" xlink:href="#m8dbbe1a9f1" y="518.806212"/>
     <use style="fill:#fe0002;stroke:#000000;" x="479.637956" xlink:href="#m8dbbe1a9f1" y="517.026201"/>
     <use style="fill:#fe0002;stroke:#000000;" x="885.505682" xlink:href="#m8dbbe1a9f1" y="512.683196"/>
    </g>
   </g>
   <g id="line2d_28">
    <path clip-path="url(#p4a882c0940)" d="M 73.869318 829.815259 
L 73.968407 726.290817 
L 74.166585 680.729279 
L 74.56294 627.753881 
L 75.35565 608.949637 
L 76.941071 586.168868 
L 80.111913 560.228784 
L 86.453596 547.20398 
L 99.136962 537.224757 
L 124.503695 531.366333 
L 175.237161 521.223878 
L 276.704092 518.806212 
L 479.637956 517.026201 
L 885.505682 512.683196 
" style="fill:none;stroke:#fe0002;stroke-dasharray:5.55,2.4;stroke-dashoffset:0;stroke-width:1.5;"/>
    <g clip-path="url(#p4a882c0940)">
     <use style="fill:#fe0002;stroke:#000000;" x="73.869318" xlink:href="#m8dbbe1a9f1" y="829.815259"/>
     <use style="fill:#fe0002;stroke:#000000;" x="73.968407" xlink:href="#m8dbbe1a9f1" y="726.290817"/>
     <use style="fill:#fe0002;stroke:#000000;" x="74.166585" xlink:href="#m8dbbe1a9f1" y="680.729279"/>
     <use style="fill:#fe0002;stroke:#000000;" x="74.56294" xlink:href="#m8dbbe1a9f1" y="627.753881"/>
     <use style="fill:#fe0002;stroke:#000000;" x="75.35565" xlink:href="#m8dbbe1a9f1" y="608.949637"/>
     <use style="fill:#fe0002;stroke:#000000;" x="76.941071" xlink:href="#m8dbbe1a9f1" y="586.168868"/>
     <use style="fill:#fe0002;stroke:#000000;" x="80.111913" xlink:href="#m8dbbe1a9f1" y="560.228784"/>
     <use style="fill:#fe0002;stroke:#000000;" x="86.453596" xlink:href="#m8dbbe1a9f1" y="547.20398"/>
     <use style="fill:#fe0002;stroke:#000000;" x="99.136962" xlink:href="#m8dbbe1a9f1" y="537.224757"/>
     <use style="fill:#fe0002;stroke:#000000;" x="124.503695" xlink:href="#m8dbbe1a9f1" y="531.366333"/>
     <use style="fill:#fe0002;stroke:#000000;" x="175.237161" xlink:href="#m8dbbe1a9f1" y="521.223878"/>
     <use style="fill:#fe0002;stroke:#000000;" x="276.704092" xlink:href="#m8dbbe1a9f1" y="518.806212"/>
     <use style="fill:#fe0002;stroke:#000000;" x="479.637956" xlink:href="#m8dbbe1a9f1" y="517.026201"/>
     <use style="fill:#fe0002;stroke:#000000;" x="885.505682" xlink:href="#m8dbbe1a9f1" y="512.683196"/>
    </g>
   </g>
   <g id="line2d_29">
    <path clip-path="url(#p4a882c0940)" d="M 73.869318 830.354448 
L 73.968407 742.466511 
L 74.166585 701.218492 
L 74.56294 654.376378 
L 75.35565 613.701247 
L 76.941071 590.229641 
L 80.111913 570.186946 
L 86.453596 558.101512 
L 99.136962 549.817787 
L 124.503695 546.621613 
L 175.237161 540.330364 
L 276.704092 537.616249 
L 479.637956 535.738431 
L 885.505682 534.232951 
" style="fill:none;stroke:#53fca1;stroke-linecap:square;stroke-width:1.5;"/>
    <defs>
     <path d="M 0 -4.5 
L -4.5 4.5 
L 4.5 4.5 
z
" id="me0eace2bc8" style="stroke:#000000;stroke-linejoin:miter;"/>
    </defs>
    <g clip-path="url(#p4a882c0940)">
     <use style="fill:#53fca1;stroke:#000000;stroke-linejoin:miter;" x="73.869318" xlink:href="#me0eace2bc8" y="830.354448"/>
     <use style="fill:#53fca1;stroke:#000000;stroke-linejoin:miter;" x="73.968407" xlink:href="#me0eace2bc8" y="742.466511"/>
     <use style="fill:#53fca1;stroke:#000000;stroke-linejoin:miter;" x="74.166585" xlink:href="#me0eace2bc8" y="701.218492"/>
     <use style="fill:#53fca1;stroke:#000000;stroke-linejoin:miter;" x="74.56294" xlink:href="#me0eace2bc8" y="654.376378"/>
     <use style="fill:#53fca1;stroke:#000000;stroke-linejoin:miter;" x="75.35565" xlink:href="#me0eace2bc8" y="613.701247"/>
     <use style="fill:#53fca1;stroke:#000000;stroke-linejoin:miter;" x="76.941071" xlink:href="#me0eace2bc8" y="590.229641"/>
     <use style="fill:#53fca1;stroke:#000000;stroke-linejoin:miter;" x="80.111913" xlink:href="#me0eace2bc8" y="570.186946"/>
     <use style="fill:#53fca1;stroke:#000000;stroke-linejoin:miter;" x="86.453596" xlink:href="#me0eace2bc8" y="558.101512"/>
     <use style="fill:#53fca1;stroke:#000000;stroke-linejoin:miter;" x="99.136962" xlink:href="#me0eace2bc8" y="549.817787"/>
     <use style="fill:#53fca1;stroke:#000000;stroke-linejoin:miter;" x="124.503695" xlink:href="#me0eace2bc8" y="546.621613"/>
     <use style="fill:#53fca1;stroke:#000000;stroke-linejoin:miter;" x="175.237161" xlink:href="#me0eace2bc8" y="540.330364"/>
     <use style="fill:#53fca1;stroke:#000000;stroke-linejoin:miter;" x="276.704092" xlink:href="#me0eace2bc8" y="537.616249"/>
     <use style="fill:#53fca1;stroke:#000000;stroke-linejoin:miter;" x="479.637956" xlink:href="#me0eace2bc8" y="535.738431"/>
     <use style="fill:#53fca1;stroke:#000000;stroke-linejoin:miter;" x="885.505682" xlink:href="#me0eace2bc8" y="534.232951"/>
    </g>
   </g>
   <g id="line2d_30">
    <path clip-path="url(#p4a882c0940)" d="M 73.869318 896.674794 
L 73.968407 848.417307 
L 74.166585 825.50174 
L 74.56294 794.700523 
L 75.35565 775.357089 
L 76.941071 761.102259 
L 80.111913 752.829065 
L 86.453596 748.359687 
L 99.136962 744.835998 
L 124.503695 743.06994 
L 175.237161 740.982686 
L 276.704092 739.833748 
L 479.637956 739.168318 
L 885.505682 738.858507 
" style="fill:none;stroke:#53fca1;stroke-dasharray:5.55,2.4;stroke-dashoffset:0;stroke-width:1.5;"/>
    <defs>
     <path d="M 0 6.363961 
L 6.363961 0 
L 0 -6.363961 
L -6.363961 0 
z
" id="md0e1b14bbf" style="stroke:#000000;stroke-linejoin:miter;"/>
    </defs>
    <g clip-path="url(#p4a882c0940)">
     <use style="fill:#53fca1;stroke:#000000;stroke-linejoin:miter;" x="73.869318" xlink:href="#md0e1b14bbf" y="896.674794"/>
     <use style="fill:#53fca1;stroke:#000000;stroke-linejoin:miter;" x="73.968407" xlink:href="#md0e1b14bbf" y="848.417307"/>
     <use style="fill:#53fca1;stroke:#000000;stroke-linejoin:miter;" x="74.166585" xlink:href="#md0e1b14bbf" y="825.50174"/>
     <use style="fill:#53fca1;stroke:#000000;stroke-linejoin:miter;" x="74.56294" xlink:href="#md0e1b14bbf" y="794.700523"/>
     <use style="fill:#53fca1;stroke:#000000;stroke-linejoin:miter;" x="75.35565" xlink:href="#md0e1b14bbf" y="775.357089"/>
     <use style="fill:#53fca1;stroke:#000000;stroke-linejoin:miter;" x="76.941071" xlink:href="#md0e1b14bbf" y="761.102259"/>
     <use style="fill:#53fca1;stroke:#000000;stroke-linejoin:miter;" x="80.111913" xlink:href="#md0e1b14bbf" y="752.829065"/>
     <use style="fill:#53fca1;stroke:#000000;stroke-linejoin:miter;" x="86.453596" xlink:href="#md0e1b14bbf" y="748.359687"/>
     <use style="fill:#53fca1;stroke:#000000;stroke-linejoin:miter;" x="99.136962" xlink:href="#md0e1b14bbf" y="744.835998"/>
     <use style="fill:#53fca1;stroke:#000000;stroke-linejoin:miter;" x="124.503695" xlink:href="#md0e1b14bbf" y="743.06994"/>
     <use style="fill:#53fca1;stroke:#000000;stroke-linejoin:miter;" x="175.237161" xlink:href="#md0e1b14bbf" y="740.982686"/>
     <use style="fill:#53fca1;stroke:#000000;stroke-linejoin:miter;" x="276.704092" xlink:href="#md0e1b14bbf" y="739.833748"/>
     <use style="fill:#53fca1;stroke:#000000;stroke-linejoin:miter;" x="479.637956" xlink:href="#md0e1b14bbf" y="739.168318"/>
     <use style="fill:#53fca1;stroke:#000000;stroke-linejoin:miter;" x="885.505682" xlink:href="#md0e1b14bbf" y="738.858507"/>
    </g>
   </g>
   <g id="line2d_31">
    <path clip-path="url(#p4a882c0940)" d="M 73.869318 830.354448 
L 73.968407 741.927321 
L 74.166585 699.331327 
L 74.56294 651.680429 
L 75.35565 612.117377 
L 76.941071 589.639903 
L 80.111913 571.282175 
L 86.453596 559.63062 
L 99.136962 550.875105 
L 124.503695 548.020137 
L 175.237161 541.935296 
L 276.704092 539.657693 
L 479.637956 537.930864 
L 885.505682 536.475341 
" style="fill:none;stroke:#0652ff;stroke-linecap:square;stroke-width:1.5;"/>
    <defs>
     <path d="M 0 -4.5 
L -4.279754 -1.390576 
L -2.645034 3.640576 
L 2.645034 3.640576 
L 4.279754 -1.390576 
z
" id="m70bff56f16" style="stroke:#000000;stroke-linejoin:miter;"/>
    </defs>
    <g clip-path="url(#p4a882c0940)">
     <use style="fill:#0652ff;stroke:#000000;stroke-linejoin:miter;" x="73.869318" xlink:href="#m70bff56f16" y="830.354448"/>
     <use style="fill:#0652ff;stroke:#000000;stroke-linejoin:miter;" x="73.968407" xlink:href="#m70bff56f16" y="741.927321"/>
     <use style="fill:#0652ff;stroke:#000000;stroke-linejoin:miter;" x="74.166585" xlink:href="#m70bff56f16" y="699.331327"/>
     <use style="fill:#0652ff;stroke:#000000;stroke-linejoin:miter;" x="74.56294" xlink:href="#m70bff56f16" y="651.680429"/>
     <use style="fill:#0652ff;stroke:#000000;stroke-linejoin:miter;" x="75.35565" xlink:href="#m70bff56f16" y="612.117377"/>
     <use style="fill:#0652ff;stroke:#000000;stroke-linejoin:miter;" x="76.941071" xlink:href="#m70bff56f16" y="589.639903"/>
     <use style="fill:#0652ff;stroke:#000000;stroke-linejoin:miter;" x="80.111913" xlink:href="#m70bff56f16" y="571.282175"/>
     <use style="fill:#0652ff;stroke:#000000;stroke-linejoin:miter;" x="86.453596" xlink:href="#m70bff56f16" y="559.63062"/>
     <use style="fill:#0652ff;stroke:#000000;stroke-linejoin:miter;" x="99.136962" xlink:href="#m70bff56f16" y="550.875105"/>
     <use style="fill:#0652ff;stroke:#000000;stroke-linejoin:miter;" x="124.503695" xlink:href="#m70bff56f16" y="548.020137"/>
     <use style="fill:#0652ff;stroke:#000000;stroke-linejoin:miter;" x="175.237161" xlink:href="#m70bff56f16" y="541.935296"/>
     <use style="fill:#0652ff;stroke:#000000;stroke-linejoin:miter;" x="276.704092" xlink:href="#m70bff56f16" y="539.657693"/>
     <use style="fill:#0652ff;stroke:#000000;stroke-linejoin:miter;" x="479.637956" xlink:href="#m70bff56f16" y="537.930864"/>
     <use style="fill:#0652ff;stroke:#000000;stroke-linejoin:miter;" x="885.505682" xlink:href="#m70bff56f16" y="536.475341"/>
    </g>
   </g>
   <g id="line2d_32">
    <path clip-path="url(#p4a882c0940)" d="M 73.869318 896.674794 
L 73.968407 850.034876 
L 74.166585 830.624043 
L 74.56294 800.294617 
L 75.35565 784.927708 
L 76.941071 772.913885 
L 80.111913 766.86485 
L 86.453596 763.077884 
L 99.136962 760.179739 
L 124.503695 758.963402 
L 175.237161 757.247367 
L 276.704092 756.801641 
L 479.637956 756.240862 
L 885.505682 756.059662 
" style="fill:none;stroke:#0652ff;stroke-dasharray:5.55,2.4;stroke-dashoffset:0;stroke-width:1.5;"/>
    <defs>
     <path d="M -2.25 4.5 
L 0 2.25 
L 2.25 4.5 
L 4.5 2.25 
L 2.25 0 
L 4.5 -2.25 
L 2.25 -4.5 
L 0 -2.25 
L -2.25 -4.5 
L -4.5 -2.25 
L -2.25 0 
L -4.5 2.25 
z
" id="m0a287151c0" style="stroke:#000000;stroke-linejoin:miter;"/>
    </defs>
    <g clip-path="url(#p4a882c0940)">
     <use style="fill:#0652ff;stroke:#000000;stroke-linejoin:miter;" x="73.869318" xlink:href="#m0a287151c0" y="896.674794"/>
     <use style="fill:#0652ff;stroke:#000000;stroke-linejoin:miter;" x="73.968407" xlink:href="#m0a287151c0" y="850.034876"/>
     <use style="fill:#0652ff;stroke:#000000;stroke-linejoin:miter;" x="74.166585" xlink:href="#m0a287151c0" y="830.624043"/>
     <use style="fill:#0652ff;stroke:#000000;stroke-linejoin:miter;" x="74.56294" xlink:href="#m0a287151c0" y="800.294617"/>
     <use style="fill:#0652ff;stroke:#000000;stroke-linejoin:miter;" x="75.35565" xlink:href="#m0a287151c0" y="784.927708"/>
     <use style="fill:#0652ff;stroke:#000000;stroke-linejoin:miter;" x="76.941071" xlink:href="#m0a287151c0" y="772.913885"/>
     <use style="fill:#0652ff;stroke:#000000;stroke-linejoin:miter;" x="80.111913" xlink:href="#m0a287151c0" y="766.86485"/>
     <use style="fill:#0652ff;stroke:#000000;stroke-linejoin:miter;" x="86.453596" xlink:href="#m0a287151c0" y="763.077884"/>
     <use style="fill:#0652ff;stroke:#000000;stroke-linejoin:miter;" x="99.136962" xlink:href="#m0a287151c0" y="760.179739"/>
     <use style="fill:#0652ff;stroke:#000000;stroke-linejoin:miter;" x="124.503695" xlink:href="#m0a287151c0" y="758.963402"/>
     <use style="fill:#0652ff;stroke:#000000;stroke-linejoin:miter;" x="175.237161" xlink:href="#m0a287151c0" y="757.247367"/>
     <use style="fill:#0652ff;stroke:#000000;stroke-linejoin:miter;" x="276.704092" xlink:href="#m0a287151c0" y="756.801641"/>
     <use style="fill:#0652ff;stroke:#000000;stroke-linejoin:miter;" x="479.637956" xlink:href="#m0a287151c0" y="756.240862"/>
     <use style="fill:#0652ff;stroke:#000000;stroke-linejoin:miter;" x="885.505682" xlink:href="#m0a287151c0" y="756.059662"/>
    </g>
   </g>
   <g id="line2d_33">
    <path clip-path="url(#p4a882c0940)" d="M 73.869318 528.408161 
L 73.968407 348.857958 
L 74.166585 257.465287 
L 74.56294 174.227862 
L 75.35565 122.162347 
L 76.941071 99.448977 
L 80.111913 82.220178 
L 86.453596 74.629397 
L 99.136962 70.309559 
L 124.503695 67.348228 
L 175.237161 62.559759 
L 276.704092 61.147019 
L 479.637956 63.864688 
L 885.505682 62.566407 
" style="fill:none;stroke:#ae7181;stroke-linecap:square;stroke-width:1.5;"/>
    <defs>
     <path d="M -4.5 4.5 
L 4.5 4.5 
L 4.5 -4.5 
L -4.5 -4.5 
z
" id="m039c99e54a" style="stroke:#000000;stroke-linejoin:miter;"/>
    </defs>
    <g clip-path="url(#p4a882c0940)">
     <use style="fill:#ae7181;stroke:#000000;stroke-linejoin:miter;" x="73.869318" xlink:href="#m039c99e54a" y="528.408161"/>
     <use style="fill:#ae7181;stroke:#000000;stroke-linejoin:miter;" x="73.968407" xlink:href="#m039c99e54a" y="348.857958"/>
     <use style="fill:#ae7181;stroke:#000000;stroke-linejoin:miter;" x="74.166585" xlink:href="#m039c99e54a" y="257.465287"/>
     <use style="fill:#ae7181;stroke:#000000;stroke-linejoin:miter;" x="74.56294" xlink:href="#m039c99e54a" y="174.227862"/>
     <use style="fill:#ae7181;stroke:#000000;stroke-linejoin:miter;" x="75.35565" xlink:href="#m039c99e54a" y="122.162347"/>
     <use style="fill:#ae7181;stroke:#000000;stroke-linejoin:miter;" x="76.941071" xlink:href="#m039c99e54a" y="99.448977"/>
     <use style="fill:#ae7181;stroke:#000000;stroke-linejoin:miter;" x="80.111913" xlink:href="#m039c99e54a" y="82.220178"/>
     <use style="fill:#ae7181;stroke:#000000;stroke-linejoin:miter;" x="86.453596" xlink:href="#m039c99e54a" y="74.629397"/>
     <use style="fill:#ae7181;stroke:#000000;stroke-linejoin:miter;" x="99.136962" xlink:href="#m039c99e54a" y="70.309559"/>
     <use style="fill:#ae7181;stroke:#000000;stroke-linejoin:miter;" x="124.503695" xlink:href="#m039c99e54a" y="67.348228"/>
     <use style="fill:#ae7181;stroke:#000000;stroke-linejoin:miter;" x="175.237161" xlink:href="#m039c99e54a" y="62.559759"/>
     <use style="fill:#ae7181;stroke:#000000;stroke-linejoin:miter;" x="276.704092" xlink:href="#m039c99e54a" y="61.147019"/>
     <use style="fill:#ae7181;stroke:#000000;stroke-linejoin:miter;" x="479.637956" xlink:href="#m039c99e54a" y="63.864688"/>
     <use style="fill:#ae7181;stroke:#000000;stroke-linejoin:miter;" x="885.505682" xlink:href="#m039c99e54a" y="62.566407"/>
    </g>
   </g>
   <g id="line2d_34">
    <path clip-path="url(#p4a882c0940)" d="M 73.869318 824.96255 
L 73.968407 735.187449 
L 74.166585 689.491113 
L 74.56294 647.872401 
L 75.35565 621.839643 
L 76.941071 610.482958 
L 80.111913 601.868559 
L 86.453596 598.073168 
L 99.136962 595.91325 
L 124.503695 594.432584 
L 175.237161 592.038349 
L 276.704092 591.331979 
L 479.637956 592.690814 
L 885.505682 592.041673 
" style="fill:none;stroke:#ae7181;stroke-dasharray:5.55,2.4;stroke-dashoffset:0;stroke-width:1.5;"/>
    <defs>
     <path d="M 0 -4.5 
L -1.010313 -1.390576 
L -4.279754 -1.390576 
L -1.634721 0.531153 
L -2.645034 3.640576 
L -0 1.718847 
L 2.645034 3.640576 
L 1.634721 0.531153 
L 4.279754 -1.390576 
L 1.010313 -1.390576 
z
" id="mfc04bc9b75" style="stroke:#000000;stroke-linejoin:bevel;"/>
    </defs>
    <g clip-path="url(#p4a882c0940)">
     <use style="fill:#ae7181;stroke:#000000;stroke-linejoin:bevel;" x="73.869318" xlink:href="#mfc04bc9b75" y="824.96255"/>
     <use style="fill:#ae7181;stroke:#000000;stroke-linejoin:bevel;" x="73.968407" xlink:href="#mfc04bc9b75" y="735.187449"/>
     <use style="fill:#ae7181;stroke:#000000;stroke-linejoin:bevel;" x="74.166585" xlink:href="#mfc04bc9b75" y="689.491113"/>
     <use style="fill:#ae7181;stroke:#000000;stroke-linejoin:bevel;" x="74.56294" xlink:href="#mfc04bc9b75" y="647.872401"/>
     <use style="fill:#ae7181;stroke:#000000;stroke-linejoin:bevel;" x="75.35565" xlink:href="#mfc04bc9b75" y="621.839643"/>
     <use style="fill:#ae7181;stroke:#000000;stroke-linejoin:bevel;" x="76.941071" xlink:href="#mfc04bc9b75" y="610.482958"/>
     <use style="fill:#ae7181;stroke:#000000;stroke-linejoin:bevel;" x="80.111913" xlink:href="#mfc04bc9b75" y="601.868559"/>
     <use style="fill:#ae7181;stroke:#000000;stroke-linejoin:bevel;" x="86.453596" xlink:href="#mfc04bc9b75" y="598.073168"/>
     <use style="fill:#ae7181;stroke:#000000;stroke-linejoin:bevel;" x="99.136962" xlink:href="#mfc04bc9b75" y="595.91325"/>
     <use style="fill:#ae7181;stroke:#000000;stroke-linejoin:bevel;" x="124.503695" xlink:href="#mfc04bc9b75" y="594.432584"/>
     <use style="fill:#ae7181;stroke:#000000;stroke-linejoin:bevel;" x="175.237161" xlink:href="#mfc04bc9b75" y="592.038349"/>
     <use style="fill:#ae7181;stroke:#000000;stroke-linejoin:bevel;" x="276.704092" xlink:href="#mfc04bc9b75" y="591.331979"/>
     <use style="fill:#ae7181;stroke:#000000;stroke-linejoin:bevel;" x="479.637956" xlink:href="#mfc04bc9b75" y="592.690814"/>
     <use style="fill:#ae7181;stroke:#000000;stroke-linejoin:bevel;" x="885.505682" xlink:href="#mfc04bc9b75" y="592.041673"/>
    </g>
   </g>
   <g id="patch_3">
    <path d="M 33.2875 1005.12 
L 33.2875 7.2 
" style="fill:none;stroke:#000000;stroke-linecap:square;stroke-linejoin:miter;stroke-width:0.8;"/>
   </g>
   <g id="patch_4">
    <path d="M 926.0875 1005.12 
L 926.0875 7.2 
" style="fill:none;stroke:#000000;stroke-linecap:square;stroke-linejoin:miter;stroke-width:0.8;"/>
   </g>
   <g id="patch_5">
    <path d="M 33.2875 1005.12 
L 926.0875 1005.12 
" style="fill:none;stroke:#000000;stroke-linecap:square;stroke-linejoin:miter;stroke-width:0.8;"/>
   </g>
   <g id="patch_6">
    <path d="M 33.2875 7.2 
L 926.0875 7.2 
" style="fill:none;stroke:#000000;stroke-linecap:square;stroke-linejoin:miter;stroke-width:0.8;"/>
   </g>
  </g>
 </g>
 <defs>
  <clipPath id="p4a882c0940">
   <rect height="997.92" width="892.8" x="33.2875" y="7.2"/>
  </clipPath>
 </defs>
</svg>
