<?xml version="1.0" encoding="utf-8" standalone="no"?>
<!DOCTYPE svg PUBLIC "-//W3C//DTD SVG 1.1//EN"
  "http://www.w3.org/Graphics/SVG/1.1/DTD/svg11.dtd">
<!-- Created with matplotlib (https://matplotlib.org/) -->
<svg height="1090.099062pt" version="1.1" viewBox="0 0 994.119687 1090.099062" width="994.119687pt" xmlns="http://www.w3.org/2000/svg" xmlns:xlink="http://www.w3.org/1999/xlink">
 <metadata>
  <rdf:RDF xmlns:cc="http://creativecommons.org/ns#" xmlns:dc="http://purl.org/dc/elements/1.1/" xmlns:rdf="http://www.w3.org/1999/02/22-rdf-syntax-ns#">
   <cc:Work>
    <dc:type rdf:resource="http://purl.org/dc/dcmitype/StillImage"/>
    <dc:date>2021-05-06T13:34:30.610604</dc:date>
    <dc:format>image/svg+xml</dc:format>
    <dc:creator>
     <cc:Agent>
      <dc:title>Matplotlib v3.3.2, https://matplotlib.org/</dc:title>
     </cc:Agent>
    </dc:creator>
   </cc:Work>
  </rdf:RDF>
 </metadata>
 <defs>
  <style type="text/css">*{stroke-linecap:butt;stroke-linejoin:round;}</style>
 </defs>
 <g id="figure_1">
  <g id="patch_1">
   <path d="M 0 1090.099062 
L 994.119687 1090.099062 
L 994.119687 0 
L 0 0 
z
" style="fill:#ffffff;"/>
  </g>
  <g id="axes_1">
   <g id="patch_2">
    <path d="M 94.119688 1005.12 
L 986.919688 1005.12 
L 986.919688 7.2 
L 94.119688 7.2 
z
" style="fill:#ffffff;"/>
   </g>
   <g id="PolyCollection_1">
    <defs>
     <path d="M 134.701506 -272.985778 
L 134.701506 -251.740522 
L 177.419209 -317.821544 
L 220.136912 -354.931763 
L 262.854616 -381.005486 
L 305.572319 -395.628844 
L 348.290022 -396.318625 
L 391.007726 -420.323004 
L 433.725429 -427.358771 
L 476.443132 -440.050741 
L 519.160836 -439.912785 
L 561.878539 -463.503296 
L 604.596243 -472.194537 
L 647.313946 -479.644172 
L 690.031649 -468.469719 
L 732.749353 -465.710595 
L 775.467056 -473.16023 
L 818.184759 -492.612055 
L 860.902463 -498.406216 
L 903.620166 -499.647822 
L 946.337869 -500.751471 
L 946.337869 -545.311325 
L 946.337869 -545.311325 
L 903.620166 -530.687968 
L 860.902463 -525.997457 
L 818.184759 -522.686508 
L 775.467056 -526.273369 
L 732.749353 -512.891617 
L 690.031649 -513.305486 
L 647.313946 -511.512055 
L 604.596243 -498.820084 
L 561.878539 -490.956581 
L 519.160836 -497.716435 
L 476.443132 -478.678479 
L 433.725429 -464.055121 
L 391.007726 -454.536143 
L 348.290022 -448.052201 
L 305.572319 -434.256581 
L 262.854616 -407.079208 
L 220.136912 -380.453661 
L 177.419209 -345.826654 
L 134.701506 -272.985778 
z
" id="m789262f397" style="stroke:#fe0002;stroke-opacity:0.3;"/>
    </defs>
    <g clip-path="url(#p3423c02639)">
     <use style="fill:#fe0002;fill-opacity:0.3;stroke:#fe0002;stroke-opacity:0.3;" x="0" xlink:href="#m789262f397" y="1090.099062"/>
    </g>
   </g>
   <g id="PolyCollection_2">
    <g clip-path="url(#p3423c02639)">
     <use style="fill:#fe0002;fill-opacity:0.3;stroke:#fe0002;stroke-opacity:0.3;" x="0" xlink:href="#m789262f397" y="1090.099062"/>
    </g>
   </g>
   <g id="PolyCollection_3">
    <defs>
     <path d="M 134.701506 -591.388698 
L 134.701506 -557.451471 
L 177.419209 -641.190887 
L 220.136912 -681.474099 
L 262.854616 -740.381398 
L 305.572319 -764.247822 
L 348.290022 -765.76534 
L 391.007726 -795.701836 
L 433.725429 -812.670449 
L 476.443132 -842.193077 
L 519.160836 -824.120814 
L 561.878539 -857.782128 
L 604.596243 -874.750741 
L 647.313946 -871.301836 
L 690.031649 -883.579938 
L 732.749353 -903.445632 
L 775.467056 -899.720814 
L 818.184759 -912.688698 
L 860.902463 -905.790887 
L 903.620166 -912.274829 
L 946.337869 -914.06826 
L 946.337869 -974.76899 
L 946.337869 -974.76899 
L 903.620166 -956.006946 
L 860.902463 -954.075559 
L 818.184759 -946.212055 
L 775.467056 -944.280668 
L 732.749353 -929.381398 
L 690.031649 -933.933953 
L 647.313946 -907.86023 
L 604.596243 -905.239063 
L 561.878539 -895.720084 
L 519.160836 -872.405486 
L 476.443132 -875.302566 
L 433.725429 -848.952931 
L 391.007726 -832.812055 
L 348.290022 -823.431033 
L 305.572319 -804.117165 
L 262.854616 -759.005486 
L 220.136912 -723.136873 
L 177.419209 -685.888698 
L 134.701506 -591.388698 
z
" id="ma762ffc103" style="stroke:#53fca1;stroke-opacity:0.3;"/>
    </defs>
    <g clip-path="url(#p3423c02639)">
     <use style="fill:#53fca1;fill-opacity:0.3;stroke:#53fca1;stroke-opacity:0.3;" x="0" xlink:href="#ma762ffc103" y="1090.099062"/>
    </g>
   </g>
   <g id="PolyCollection_4">
    <defs>
     <path d="M 134.701506 -146.479938 
L 134.701506 -130.339063 
L 177.419209 -171.725924 
L 220.136912 -193.523004 
L 262.854616 -222.907676 
L 305.572319 -233.944172 
L 348.290022 -236.289427 
L 391.007726 -254.499646 
L 433.725429 -259.879938 
L 476.443132 -276.848552 
L 519.160836 -270.640522 
L 561.878539 -287.609135 
L 604.596243 -295.748552 
L 647.313946 -291.195997 
L 690.031649 -299.197457 
L 732.749353 -308.854391 
L 775.467056 -307.612785 
L 818.184759 -314.510595 
L 860.902463 -308.578479 
L 903.620166 -316.579938 
L 946.337869 -318.235413 
L 946.337869 -344.033223 
L 946.337869 -344.033223 
L 903.620166 -338.377019 
L 860.902463 -335.479938 
L 818.184759 -332.996727 
L 775.467056 -331.755121 
L 732.749353 -323.201836 
L 690.031649 -320.304756 
L 647.313946 -311.751471 
L 604.596243 -310.371909 
L 561.878539 -304.16388 
L 519.160836 -293.955121 
L 476.443132 -293.127384 
L 433.725429 -278.090157 
L 391.007726 -272.020084 
L 348.290022 -266.225924 
L 305.572319 -255.603296 
L 262.854616 -231.874829 
L 220.136912 -214.078479 
L 177.419209 -190.76388 
L 134.701506 -146.479938 
z
" id="mc98e6dcb55" style="stroke:#53fca1;stroke-opacity:0.3;"/>
    </defs>
    <g clip-path="url(#p3423c02639)">
     <use style="fill:#53fca1;fill-opacity:0.3;stroke:#53fca1;stroke-opacity:0.3;" x="0" xlink:href="#mc98e6dcb55" y="1090.099062"/>
    </g>
   </g>
   <g id="PolyCollection_5">
    <defs>
     <path d="M 134.701506 -616.496727 
L 134.701506 -583.66315 
L 177.419209 -663.539792 
L 220.136912 -729.206946 
L 262.854616 -779.423004 
L 305.572319 -809.773369 
L 348.290022 -814.739792 
L 391.007726 -848.539063 
L 433.725429 -864.679938 
L 476.443132 -892.96096 
L 519.160836 -874.888698 
L 561.878539 -897.789427 
L 604.596243 -926.484318 
L 647.313946 -919.586508 
L 690.031649 -928.277749 
L 732.749353 -952.006216 
L 775.467056 -958.904026 
L 818.184759 -975.458771 
L 860.902463 -962.214975 
L 903.620166 -972.423734 
L 946.337869 -979.4595 
L 946.337869 -1037.539062 
L 946.337869 -1037.539062 
L 903.620166 -1029.951471 
L 860.902463 -1008.292347 
L 818.184759 -995.46242 
L 775.467056 -995.324464 
L 732.749353 -980.149281 
L 690.031649 -972.009865 
L 647.313946 -958.76607 
L 604.596243 -969.250741 
L 561.878539 -959.455851 
L 519.160836 -934.623734 
L 476.443132 -928.691617 
L 433.725429 -911.998917 
L 391.007726 -880.958771 
L 348.290022 -871.301836 
L 305.572319 -848.125194 
L 262.854616 -811.842712 
L 220.136912 -774.180668 
L 177.419209 -737.76023 
L 134.701506 -616.496727 
z
" id="mccaf83df92" style="stroke:#0652ff;stroke-opacity:0.3;"/>
    </defs>
    <g clip-path="url(#p3423c02639)">
     <use style="fill:#0652ff;fill-opacity:0.3;stroke:#0652ff;stroke-opacity:0.3;" x="0" xlink:href="#mccaf83df92" y="1090.099062"/>
    </g>
   </g>
   <g id="PolyCollection_6">
    <defs>
     <path d="M 134.701506 -195.730303 
L 134.701506 -175.86461 
L 177.419209 -221.390157 
L 220.136912 -253.120084 
L 262.854616 -274.503296 
L 305.572319 -293.679208 
L 348.290022 -295.886508 
L 391.007726 -311.613515 
L 433.725429 -324.581398 
L 476.443132 -336.031763 
L 519.160836 -327.202566 
L 561.878539 -335.755851 
L 604.596243 -351.344902 
L 647.313946 -348.309865 
L 690.031649 -354.655851 
L 732.749353 -365.416435 
L 775.467056 -373.004026 
L 818.184759 -373.969719 
L 860.902463 -368.589427 
L 903.620166 -374.797457 
L 946.337869 -375.487238 
L 946.337869 -410.114245 
L 946.337869 -410.114245 
L 903.620166 -404.595997 
L 860.902463 -394.939063 
L 818.184759 -389.558771 
L 775.467056 -388.317165 
L 732.749353 -381.971179 
L 690.031649 -377.142712 
L 647.313946 -371.900376 
L 604.596243 -374.383588 
L 561.878539 -367.209865 
L 519.160836 -358.656581 
L 476.443132 -358.932493 
L 433.725429 -348.309865 
L 391.007726 -328.858041 
L 348.290022 -324.581398 
L 305.572319 -312.441252 
L 262.854616 -292.299646 
L 220.136912 -277.676289 
L 177.419209 -260.707676 
L 134.701506 -195.730303 
z
" id="md8b58047a8" style="stroke:#0652ff;stroke-opacity:0.3;"/>
    </defs>
    <g clip-path="url(#p3423c02639)">
     <use style="fill:#0652ff;fill-opacity:0.3;stroke:#0652ff;stroke-opacity:0.3;" x="0" xlink:href="#md8b58047a8" y="1090.099062"/>
    </g>
   </g>
   <g id="matplotlib.axis_1">
    <g id="xtick_1">
     <g id="line2d_1">
      <path clip-path="url(#p3423c02639)" d="M 262.854616 1005.12 
L 262.854616 7.2 
" style="fill:none;stroke:#b0b0b0;stroke-linecap:square;stroke-width:0.8;"/>
     </g>
     <g id="line2d_2">
      <defs>
       <path d="M 0 0 
L 0 3.5 
" id="md469824c0f" style="stroke:#000000;stroke-width:0.8;"/>
      </defs>
      <g>
       <use style="stroke:#000000;stroke-width:0.8;" x="262.854616" xlink:href="#md469824c0f" y="1005.12"/>
      </g>
     </g>
     <g id="text_1">
      <!-- 0.2 -->
      <g transform="translate(238.999928 1034.915313)scale(0.3 -0.3)">
       <defs>
        <path d="M 31.78125 66.40625 
Q 24.171875 66.40625 20.328125 58.90625 
Q 16.5 51.421875 16.5 36.375 
Q 16.5 21.390625 20.328125 13.890625 
Q 24.171875 6.390625 31.78125 6.390625 
Q 39.453125 6.390625 43.28125 13.890625 
Q 47.125 21.390625 47.125 36.375 
Q 47.125 51.421875 43.28125 58.90625 
Q 39.453125 66.40625 31.78125 66.40625 
z
M 31.78125 74.21875 
Q 44.046875 74.21875 50.515625 64.515625 
Q 56.984375 54.828125 56.984375 36.375 
Q 56.984375 17.96875 50.515625 8.265625 
Q 44.046875 -1.421875 31.78125 -1.421875 
Q 19.53125 -1.421875 13.0625 8.265625 
Q 6.59375 17.96875 6.59375 36.375 
Q 6.59375 54.828125 13.0625 64.515625 
Q 19.53125 74.21875 31.78125 74.21875 
z
" id="DejaVuSans-48"/>
        <path d="M 10.6875 12.40625 
L 21 12.40625 
L 21 0 
L 10.6875 0 
z
" id="DejaVuSans-46"/>
        <path d="M 19.1875 8.296875 
L 53.609375 8.296875 
L 53.609375 0 
L 7.328125 0 
L 7.328125 8.296875 
Q 12.9375 14.109375 22.625 23.890625 
Q 32.328125 33.6875 34.8125 36.53125 
Q 39.546875 41.84375 41.421875 45.53125 
Q 43.3125 49.21875 43.3125 52.78125 
Q 43.3125 58.59375 39.234375 62.25 
Q 35.15625 65.921875 28.609375 65.921875 
Q 23.96875 65.921875 18.8125 64.3125 
Q 13.671875 62.703125 7.8125 59.421875 
L 7.8125 69.390625 
Q 13.765625 71.78125 18.9375 73 
Q 24.125 74.21875 28.421875 74.21875 
Q 39.75 74.21875 46.484375 68.546875 
Q 53.21875 62.890625 53.21875 53.421875 
Q 53.21875 48.921875 51.53125 44.890625 
Q 49.859375 40.875 45.40625 35.40625 
Q 44.1875 33.984375 37.640625 27.21875 
Q 31.109375 20.453125 19.1875 8.296875 
z
" id="DejaVuSans-50"/>
       </defs>
       <use xlink:href="#DejaVuSans-48"/>
       <use x="63.623047" xlink:href="#DejaVuSans-46"/>
       <use x="95.410156" xlink:href="#DejaVuSans-50"/>
      </g>
     </g>
    </g>
    <g id="xtick_2">
     <g id="line2d_3">
      <path clip-path="url(#p3423c02639)" d="M 433.725429 1005.12 
L 433.725429 7.2 
" style="fill:none;stroke:#b0b0b0;stroke-linecap:square;stroke-width:0.8;"/>
     </g>
     <g id="line2d_4">
      <g>
       <use style="stroke:#000000;stroke-width:0.8;" x="433.725429" xlink:href="#md469824c0f" y="1005.12"/>
      </g>
     </g>
     <g id="text_2">
      <!-- 0.4 -->
      <g transform="translate(409.870742 1034.915313)scale(0.3 -0.3)">
       <defs>
        <path d="M 37.796875 64.3125 
L 12.890625 25.390625 
L 37.796875 25.390625 
z
M 35.203125 72.90625 
L 47.609375 72.90625 
L 47.609375 25.390625 
L 58.015625 25.390625 
L 58.015625 17.1875 
L 47.609375 17.1875 
L 47.609375 0 
L 37.796875 0 
L 37.796875 17.1875 
L 4.890625 17.1875 
L 4.890625 26.703125 
z
" id="DejaVuSans-52"/>
       </defs>
       <use xlink:href="#DejaVuSans-48"/>
       <use x="63.623047" xlink:href="#DejaVuSans-46"/>
       <use x="95.410156" xlink:href="#DejaVuSans-52"/>
      </g>
     </g>
    </g>
    <g id="xtick_3">
     <g id="line2d_5">
      <path clip-path="url(#p3423c02639)" d="M 604.596243 1005.12 
L 604.596243 7.2 
" style="fill:none;stroke:#b0b0b0;stroke-linecap:square;stroke-width:0.8;"/>
     </g>
     <g id="line2d_6">
      <g>
       <use style="stroke:#000000;stroke-width:0.8;" x="604.596243" xlink:href="#md469824c0f" y="1005.12"/>
      </g>
     </g>
     <g id="text_3">
      <!-- 0.6 -->
      <g transform="translate(580.741555 1034.915313)scale(0.3 -0.3)">
       <defs>
        <path d="M 33.015625 40.375 
Q 26.375 40.375 22.484375 35.828125 
Q 18.609375 31.296875 18.609375 23.390625 
Q 18.609375 15.53125 22.484375 10.953125 
Q 26.375 6.390625 33.015625 6.390625 
Q 39.65625 6.390625 43.53125 10.953125 
Q 47.40625 15.53125 47.40625 23.390625 
Q 47.40625 31.296875 43.53125 35.828125 
Q 39.65625 40.375 33.015625 40.375 
z
M 52.59375 71.296875 
L 52.59375 62.3125 
Q 48.875 64.0625 45.09375 64.984375 
Q 41.3125 65.921875 37.59375 65.921875 
Q 27.828125 65.921875 22.671875 59.328125 
Q 17.53125 52.734375 16.796875 39.40625 
Q 19.671875 43.65625 24.015625 45.921875 
Q 28.375 48.1875 33.59375 48.1875 
Q 44.578125 48.1875 50.953125 41.515625 
Q 57.328125 34.859375 57.328125 23.390625 
Q 57.328125 12.15625 50.6875 5.359375 
Q 44.046875 -1.421875 33.015625 -1.421875 
Q 20.359375 -1.421875 13.671875 8.265625 
Q 6.984375 17.96875 6.984375 36.375 
Q 6.984375 53.65625 15.1875 63.9375 
Q 23.390625 74.21875 37.203125 74.21875 
Q 40.921875 74.21875 44.703125 73.484375 
Q 48.484375 72.75 52.59375 71.296875 
z
" id="DejaVuSans-54"/>
       </defs>
       <use xlink:href="#DejaVuSans-48"/>
       <use x="63.623047" xlink:href="#DejaVuSans-46"/>
       <use x="95.410156" xlink:href="#DejaVuSans-54"/>
      </g>
     </g>
    </g>
    <g id="xtick_4">
     <g id="line2d_7">
      <path clip-path="url(#p3423c02639)" d="M 775.467056 1005.12 
L 775.467056 7.2 
" style="fill:none;stroke:#b0b0b0;stroke-linecap:square;stroke-width:0.8;"/>
     </g>
     <g id="line2d_8">
      <g>
       <use style="stroke:#000000;stroke-width:0.8;" x="775.467056" xlink:href="#md469824c0f" y="1005.12"/>
      </g>
     </g>
     <g id="text_4">
      <!-- 0.8 -->
      <g transform="translate(751.612368 1034.915313)scale(0.3 -0.3)">
       <defs>
        <path d="M 31.78125 34.625 
Q 24.75 34.625 20.71875 30.859375 
Q 16.703125 27.09375 16.703125 20.515625 
Q 16.703125 13.921875 20.71875 10.15625 
Q 24.75 6.390625 31.78125 6.390625 
Q 38.8125 6.390625 42.859375 10.171875 
Q 46.921875 13.96875 46.921875 20.515625 
Q 46.921875 27.09375 42.890625 30.859375 
Q 38.875 34.625 31.78125 34.625 
z
M 21.921875 38.8125 
Q 15.578125 40.375 12.03125 44.71875 
Q 8.5 49.078125 8.5 55.328125 
Q 8.5 64.0625 14.71875 69.140625 
Q 20.953125 74.21875 31.78125 74.21875 
Q 42.671875 74.21875 48.875 69.140625 
Q 55.078125 64.0625 55.078125 55.328125 
Q 55.078125 49.078125 51.53125 44.71875 
Q 48 40.375 41.703125 38.8125 
Q 48.828125 37.15625 52.796875 32.3125 
Q 56.78125 27.484375 56.78125 20.515625 
Q 56.78125 9.90625 50.3125 4.234375 
Q 43.84375 -1.421875 31.78125 -1.421875 
Q 19.734375 -1.421875 13.25 4.234375 
Q 6.78125 9.90625 6.78125 20.515625 
Q 6.78125 27.484375 10.78125 32.3125 
Q 14.796875 37.15625 21.921875 38.8125 
z
M 18.3125 54.390625 
Q 18.3125 48.734375 21.84375 45.5625 
Q 25.390625 42.390625 31.78125 42.390625 
Q 38.140625 42.390625 41.71875 45.5625 
Q 45.3125 48.734375 45.3125 54.390625 
Q 45.3125 60.0625 41.71875 63.234375 
Q 38.140625 66.40625 31.78125 66.40625 
Q 25.390625 66.40625 21.84375 63.234375 
Q 18.3125 60.0625 18.3125 54.390625 
z
" id="DejaVuSans-56"/>
       </defs>
       <use xlink:href="#DejaVuSans-48"/>
       <use x="63.623047" xlink:href="#DejaVuSans-46"/>
       <use x="95.410156" xlink:href="#DejaVuSans-56"/>
      </g>
     </g>
    </g>
    <g id="xtick_5">
     <g id="line2d_9">
      <path clip-path="url(#p3423c02639)" d="M 946.337869 1005.12 
L 946.337869 7.2 
" style="fill:none;stroke:#b0b0b0;stroke-linecap:square;stroke-width:0.8;"/>
     </g>
     <g id="line2d_10">
      <g>
       <use style="stroke:#000000;stroke-width:0.8;" x="946.337869" xlink:href="#md469824c0f" y="1005.12"/>
      </g>
     </g>
     <g id="text_5">
      <!-- 1.0 -->
      <g transform="translate(922.483182 1034.915313)scale(0.3 -0.3)">
       <defs>
        <path d="M 12.40625 8.296875 
L 28.515625 8.296875 
L 28.515625 63.921875 
L 10.984375 60.40625 
L 10.984375 69.390625 
L 28.421875 72.90625 
L 38.28125 72.90625 
L 38.28125 8.296875 
L 54.390625 8.296875 
L 54.390625 0 
L 12.40625 0 
z
" id="DejaVuSans-49"/>
       </defs>
       <use xlink:href="#DejaVuSans-49"/>
       <use x="63.623047" xlink:href="#DejaVuSans-46"/>
       <use x="95.410156" xlink:href="#DejaVuSans-48"/>
      </g>
     </g>
    </g>
    <g id="text_6">
     <!-- Edge probability -->
     <g transform="translate(381.207734 1074.788281)scale(0.39 -0.39)">
      <defs>
       <path d="M 9.8125 72.90625 
L 55.90625 72.90625 
L 55.90625 64.59375 
L 19.671875 64.59375 
L 19.671875 43.015625 
L 54.390625 43.015625 
L 54.390625 34.71875 
L 19.671875 34.71875 
L 19.671875 8.296875 
L 56.78125 8.296875 
L 56.78125 0 
L 9.8125 0 
z
" id="DejaVuSans-69"/>
       <path d="M 45.40625 46.390625 
L 45.40625 75.984375 
L 54.390625 75.984375 
L 54.390625 0 
L 45.40625 0 
L 45.40625 8.203125 
Q 42.578125 3.328125 38.25 0.953125 
Q 33.9375 -1.421875 27.875 -1.421875 
Q 17.96875 -1.421875 11.734375 6.484375 
Q 5.515625 14.40625 5.515625 27.296875 
Q 5.515625 40.1875 11.734375 48.09375 
Q 17.96875 56 27.875 56 
Q 33.9375 56 38.25 53.625 
Q 42.578125 51.265625 45.40625 46.390625 
z
M 14.796875 27.296875 
Q 14.796875 17.390625 18.875 11.75 
Q 22.953125 6.109375 30.078125 6.109375 
Q 37.203125 6.109375 41.296875 11.75 
Q 45.40625 17.390625 45.40625 27.296875 
Q 45.40625 37.203125 41.296875 42.84375 
Q 37.203125 48.484375 30.078125 48.484375 
Q 22.953125 48.484375 18.875 42.84375 
Q 14.796875 37.203125 14.796875 27.296875 
z
" id="DejaVuSans-100"/>
       <path d="M 45.40625 27.984375 
Q 45.40625 37.75 41.375 43.109375 
Q 37.359375 48.484375 30.078125 48.484375 
Q 22.859375 48.484375 18.828125 43.109375 
Q 14.796875 37.75 14.796875 27.984375 
Q 14.796875 18.265625 18.828125 12.890625 
Q 22.859375 7.515625 30.078125 7.515625 
Q 37.359375 7.515625 41.375 12.890625 
Q 45.40625 18.265625 45.40625 27.984375 
z
M 54.390625 6.78125 
Q 54.390625 -7.171875 48.1875 -13.984375 
Q 42 -20.796875 29.203125 -20.796875 
Q 24.46875 -20.796875 20.265625 -20.09375 
Q 16.0625 -19.390625 12.109375 -17.921875 
L 12.109375 -9.1875 
Q 16.0625 -11.328125 19.921875 -12.34375 
Q 23.78125 -13.375 27.78125 -13.375 
Q 36.625 -13.375 41.015625 -8.765625 
Q 45.40625 -4.15625 45.40625 5.171875 
L 45.40625 9.625 
Q 42.625 4.78125 38.28125 2.390625 
Q 33.9375 0 27.875 0 
Q 17.828125 0 11.671875 7.65625 
Q 5.515625 15.328125 5.515625 27.984375 
Q 5.515625 40.671875 11.671875 48.328125 
Q 17.828125 56 27.875 56 
Q 33.9375 56 38.28125 53.609375 
Q 42.625 51.21875 45.40625 46.390625 
L 45.40625 54.6875 
L 54.390625 54.6875 
z
" id="DejaVuSans-103"/>
       <path d="M 56.203125 29.59375 
L 56.203125 25.203125 
L 14.890625 25.203125 
Q 15.484375 15.921875 20.484375 11.0625 
Q 25.484375 6.203125 34.421875 6.203125 
Q 39.59375 6.203125 44.453125 7.46875 
Q 49.3125 8.734375 54.109375 11.28125 
L 54.109375 2.78125 
Q 49.265625 0.734375 44.1875 -0.34375 
Q 39.109375 -1.421875 33.890625 -1.421875 
Q 20.796875 -1.421875 13.15625 6.1875 
Q 5.515625 13.8125 5.515625 26.8125 
Q 5.515625 40.234375 12.765625 48.109375 
Q 20.015625 56 32.328125 56 
Q 43.359375 56 49.78125 48.890625 
Q 56.203125 41.796875 56.203125 29.59375 
z
M 47.21875 32.234375 
Q 47.125 39.59375 43.09375 43.984375 
Q 39.0625 48.390625 32.421875 48.390625 
Q 24.90625 48.390625 20.390625 44.140625 
Q 15.875 39.890625 15.1875 32.171875 
z
" id="DejaVuSans-101"/>
       <path id="DejaVuSans-32"/>
       <path d="M 18.109375 8.203125 
L 18.109375 -20.796875 
L 9.078125 -20.796875 
L 9.078125 54.6875 
L 18.109375 54.6875 
L 18.109375 46.390625 
Q 20.953125 51.265625 25.265625 53.625 
Q 29.59375 56 35.59375 56 
Q 45.5625 56 51.78125 48.09375 
Q 58.015625 40.1875 58.015625 27.296875 
Q 58.015625 14.40625 51.78125 6.484375 
Q 45.5625 -1.421875 35.59375 -1.421875 
Q 29.59375 -1.421875 25.265625 0.953125 
Q 20.953125 3.328125 18.109375 8.203125 
z
M 48.6875 27.296875 
Q 48.6875 37.203125 44.609375 42.84375 
Q 40.53125 48.484375 33.40625 48.484375 
Q 26.265625 48.484375 22.1875 42.84375 
Q 18.109375 37.203125 18.109375 27.296875 
Q 18.109375 17.390625 22.1875 11.75 
Q 26.265625 6.109375 33.40625 6.109375 
Q 40.53125 6.109375 44.609375 11.75 
Q 48.6875 17.390625 48.6875 27.296875 
z
" id="DejaVuSans-112"/>
       <path d="M 41.109375 46.296875 
Q 39.59375 47.171875 37.8125 47.578125 
Q 36.03125 48 33.890625 48 
Q 26.265625 48 22.1875 43.046875 
Q 18.109375 38.09375 18.109375 28.8125 
L 18.109375 0 
L 9.078125 0 
L 9.078125 54.6875 
L 18.109375 54.6875 
L 18.109375 46.1875 
Q 20.953125 51.171875 25.484375 53.578125 
Q 30.03125 56 36.53125 56 
Q 37.453125 56 38.578125 55.875 
Q 39.703125 55.765625 41.0625 55.515625 
z
" id="DejaVuSans-114"/>
       <path d="M 30.609375 48.390625 
Q 23.390625 48.390625 19.1875 42.75 
Q 14.984375 37.109375 14.984375 27.296875 
Q 14.984375 17.484375 19.15625 11.84375 
Q 23.34375 6.203125 30.609375 6.203125 
Q 37.796875 6.203125 41.984375 11.859375 
Q 46.1875 17.53125 46.1875 27.296875 
Q 46.1875 37.015625 41.984375 42.703125 
Q 37.796875 48.390625 30.609375 48.390625 
z
M 30.609375 56 
Q 42.328125 56 49.015625 48.375 
Q 55.71875 40.765625 55.71875 27.296875 
Q 55.71875 13.875 49.015625 6.21875 
Q 42.328125 -1.421875 30.609375 -1.421875 
Q 18.84375 -1.421875 12.171875 6.21875 
Q 5.515625 13.875 5.515625 27.296875 
Q 5.515625 40.765625 12.171875 48.375 
Q 18.84375 56 30.609375 56 
z
" id="DejaVuSans-111"/>
       <path d="M 48.6875 27.296875 
Q 48.6875 37.203125 44.609375 42.84375 
Q 40.53125 48.484375 33.40625 48.484375 
Q 26.265625 48.484375 22.1875 42.84375 
Q 18.109375 37.203125 18.109375 27.296875 
Q 18.109375 17.390625 22.1875 11.75 
Q 26.265625 6.109375 33.40625 6.109375 
Q 40.53125 6.109375 44.609375 11.75 
Q 48.6875 17.390625 48.6875 27.296875 
z
M 18.109375 46.390625 
Q 20.953125 51.265625 25.265625 53.625 
Q 29.59375 56 35.59375 56 
Q 45.5625 56 51.78125 48.09375 
Q 58.015625 40.1875 58.015625 27.296875 
Q 58.015625 14.40625 51.78125 6.484375 
Q 45.5625 -1.421875 35.59375 -1.421875 
Q 29.59375 -1.421875 25.265625 0.953125 
Q 20.953125 3.328125 18.109375 8.203125 
L 18.109375 0 
L 9.078125 0 
L 9.078125 75.984375 
L 18.109375 75.984375 
z
" id="DejaVuSans-98"/>
       <path d="M 34.28125 27.484375 
Q 23.390625 27.484375 19.1875 25 
Q 14.984375 22.515625 14.984375 16.5 
Q 14.984375 11.71875 18.140625 8.90625 
Q 21.296875 6.109375 26.703125 6.109375 
Q 34.1875 6.109375 38.703125 11.40625 
Q 43.21875 16.703125 43.21875 25.484375 
L 43.21875 27.484375 
z
M 52.203125 31.203125 
L 52.203125 0 
L 43.21875 0 
L 43.21875 8.296875 
Q 40.140625 3.328125 35.546875 0.953125 
Q 30.953125 -1.421875 24.3125 -1.421875 
Q 15.921875 -1.421875 10.953125 3.296875 
Q 6 8.015625 6 15.921875 
Q 6 25.140625 12.171875 29.828125 
Q 18.359375 34.515625 30.609375 34.515625 
L 43.21875 34.515625 
L 43.21875 35.40625 
Q 43.21875 41.609375 39.140625 45 
Q 35.0625 48.390625 27.6875 48.390625 
Q 23 48.390625 18.546875 47.265625 
Q 14.109375 46.140625 10.015625 43.890625 
L 10.015625 52.203125 
Q 14.9375 54.109375 19.578125 55.046875 
Q 24.21875 56 28.609375 56 
Q 40.484375 56 46.34375 49.84375 
Q 52.203125 43.703125 52.203125 31.203125 
z
" id="DejaVuSans-97"/>
       <path d="M 9.421875 54.6875 
L 18.40625 54.6875 
L 18.40625 0 
L 9.421875 0 
z
M 9.421875 75.984375 
L 18.40625 75.984375 
L 18.40625 64.59375 
L 9.421875 64.59375 
z
" id="DejaVuSans-105"/>
       <path d="M 9.421875 75.984375 
L 18.40625 75.984375 
L 18.40625 0 
L 9.421875 0 
z
" id="DejaVuSans-108"/>
       <path d="M 18.3125 70.21875 
L 18.3125 54.6875 
L 36.8125 54.6875 
L 36.8125 47.703125 
L 18.3125 47.703125 
L 18.3125 18.015625 
Q 18.3125 11.328125 20.140625 9.421875 
Q 21.96875 7.515625 27.59375 7.515625 
L 36.8125 7.515625 
L 36.8125 0 
L 27.59375 0 
Q 17.1875 0 13.234375 3.875 
Q 9.28125 7.765625 9.28125 18.015625 
L 9.28125 47.703125 
L 2.6875 47.703125 
L 2.6875 54.6875 
L 9.28125 54.6875 
L 9.28125 70.21875 
z
" id="DejaVuSans-116"/>
       <path d="M 32.171875 -5.078125 
Q 28.375 -14.84375 24.75 -17.8125 
Q 21.140625 -20.796875 15.09375 -20.796875 
L 7.90625 -20.796875 
L 7.90625 -13.28125 
L 13.1875 -13.28125 
Q 16.890625 -13.28125 18.9375 -11.515625 
Q 21 -9.765625 23.484375 -3.21875 
L 25.09375 0.875 
L 2.984375 54.6875 
L 12.5 54.6875 
L 29.59375 11.921875 
L 46.6875 54.6875 
L 56.203125 54.6875 
z
" id="DejaVuSans-121"/>
      </defs>
      <use xlink:href="#DejaVuSans-69"/>
      <use x="63.183594" xlink:href="#DejaVuSans-100"/>
      <use x="126.660156" xlink:href="#DejaVuSans-103"/>
      <use x="190.136719" xlink:href="#DejaVuSans-101"/>
      <use x="251.660156" xlink:href="#DejaVuSans-32"/>
      <use x="283.447266" xlink:href="#DejaVuSans-112"/>
      <use x="346.923828" xlink:href="#DejaVuSans-114"/>
      <use x="385.787109" xlink:href="#DejaVuSans-111"/>
      <use x="446.96875" xlink:href="#DejaVuSans-98"/>
      <use x="510.445312" xlink:href="#DejaVuSans-97"/>
      <use x="571.724609" xlink:href="#DejaVuSans-98"/>
      <use x="635.201172" xlink:href="#DejaVuSans-105"/>
      <use x="662.984375" xlink:href="#DejaVuSans-108"/>
      <use x="690.767578" xlink:href="#DejaVuSans-105"/>
      <use x="718.550781" xlink:href="#DejaVuSans-116"/>
      <use x="757.759766" xlink:href="#DejaVuSans-121"/>
     </g>
    </g>
   </g>
   <g id="matplotlib.axis_2">
    <g id="ytick_1">
     <g id="line2d_11">
      <path clip-path="url(#p3423c02639)" d="M 94.119688 942.791387 
L 986.919688 942.791387 
" style="fill:none;stroke:#b0b0b0;stroke-linecap:square;stroke-width:0.8;"/>
     </g>
     <g id="line2d_12">
      <defs>
       <path d="M 0 0 
L -3.5 0 
" id="m36b5ed7698" style="stroke:#000000;stroke-width:0.8;"/>
      </defs>
      <g>
       <use style="stroke:#000000;stroke-width:0.8;" x="94.119688" xlink:href="#m36b5ed7698" y="942.791387"/>
      </g>
     </g>
     <g id="text_7">
      <!-- 10 -->
      <g transform="translate(48.944688 954.189043)scale(0.3 -0.3)">
       <use xlink:href="#DejaVuSans-49"/>
       <use x="63.623047" xlink:href="#DejaVuSans-48"/>
      </g>
     </g>
    </g>
    <g id="ytick_2">
     <g id="line2d_13">
      <path clip-path="url(#p3423c02639)" d="M 94.119688 804.835182 
L 986.919688 804.835182 
" style="fill:none;stroke:#b0b0b0;stroke-linecap:square;stroke-width:0.8;"/>
     </g>
     <g id="line2d_14">
      <g>
       <use style="stroke:#000000;stroke-width:0.8;" x="94.119688" xlink:href="#m36b5ed7698" y="804.835182"/>
      </g>
     </g>
     <g id="text_8">
      <!-- 12 -->
      <g transform="translate(48.944688 816.232839)scale(0.3 -0.3)">
       <use xlink:href="#DejaVuSans-49"/>
       <use x="63.623047" xlink:href="#DejaVuSans-50"/>
      </g>
     </g>
    </g>
    <g id="ytick_3">
     <g id="line2d_15">
      <path clip-path="url(#p3423c02639)" d="M 94.119688 666.878978 
L 986.919688 666.878978 
" style="fill:none;stroke:#b0b0b0;stroke-linecap:square;stroke-width:0.8;"/>
     </g>
     <g id="line2d_16">
      <g>
       <use style="stroke:#000000;stroke-width:0.8;" x="94.119688" xlink:href="#m36b5ed7698" y="666.878978"/>
      </g>
     </g>
     <g id="text_9">
      <!-- 14 -->
      <g transform="translate(48.944688 678.276634)scale(0.3 -0.3)">
       <use xlink:href="#DejaVuSans-49"/>
       <use x="63.623047" xlink:href="#DejaVuSans-52"/>
      </g>
     </g>
    </g>
    <g id="ytick_4">
     <g id="line2d_17">
      <path clip-path="url(#p3423c02639)" d="M 94.119688 528.922774 
L 986.919688 528.922774 
" style="fill:none;stroke:#b0b0b0;stroke-linecap:square;stroke-width:0.8;"/>
     </g>
     <g id="line2d_18">
      <g>
       <use style="stroke:#000000;stroke-width:0.8;" x="94.119688" xlink:href="#m36b5ed7698" y="528.922774"/>
      </g>
     </g>
     <g id="text_10">
      <!-- 16 -->
      <g transform="translate(48.944688 540.32043)scale(0.3 -0.3)">
       <use xlink:href="#DejaVuSans-49"/>
       <use x="63.623047" xlink:href="#DejaVuSans-54"/>
      </g>
     </g>
    </g>
    <g id="ytick_5">
     <g id="line2d_19">
      <path clip-path="url(#p3423c02639)" d="M 94.119688 390.966569 
L 986.919688 390.966569 
" style="fill:none;stroke:#b0b0b0;stroke-linecap:square;stroke-width:0.8;"/>
     </g>
     <g id="line2d_20">
      <g>
       <use style="stroke:#000000;stroke-width:0.8;" x="94.119688" xlink:href="#m36b5ed7698" y="390.966569"/>
      </g>
     </g>
     <g id="text_11">
      <!-- 18 -->
      <g transform="translate(48.944688 402.364226)scale(0.3 -0.3)">
       <use xlink:href="#DejaVuSans-49"/>
       <use x="63.623047" xlink:href="#DejaVuSans-56"/>
      </g>
     </g>
    </g>
    <g id="ytick_6">
     <g id="line2d_21">
      <path clip-path="url(#p3423c02639)" d="M 94.119688 253.010365 
L 986.919688 253.010365 
" style="fill:none;stroke:#b0b0b0;stroke-linecap:square;stroke-width:0.8;"/>
     </g>
     <g id="line2d_22">
      <g>
       <use style="stroke:#000000;stroke-width:0.8;" x="94.119688" xlink:href="#m36b5ed7698" y="253.010365"/>
      </g>
     </g>
     <g id="text_12">
      <!-- 20 -->
      <g transform="translate(48.944688 264.408021)scale(0.3 -0.3)">
       <use xlink:href="#DejaVuSans-50"/>
       <use x="63.623047" xlink:href="#DejaVuSans-48"/>
      </g>
     </g>
    </g>
    <g id="ytick_7">
     <g id="line2d_23">
      <path clip-path="url(#p3423c02639)" d="M 94.119688 115.054161 
L 986.919688 115.054161 
" style="fill:none;stroke:#b0b0b0;stroke-linecap:square;stroke-width:0.8;"/>
     </g>
     <g id="line2d_24">
      <g>
       <use style="stroke:#000000;stroke-width:0.8;" x="94.119688" xlink:href="#m36b5ed7698" y="115.054161"/>
      </g>
     </g>
     <g id="text_13">
      <!-- 22 -->
      <g transform="translate(48.944688 126.451817)scale(0.3 -0.3)">
       <use xlink:href="#DejaVuSans-50"/>
       <use x="63.623047" xlink:href="#DejaVuSans-50"/>
      </g>
     </g>
    </g>
    <g id="text_14">
     <!-- Avg. number of operations / size -->
     <g transform="translate(36.833906 822.523125)rotate(-90)scale(0.39 -0.39)">
      <defs>
       <path d="M 34.1875 63.1875 
L 20.796875 26.90625 
L 47.609375 26.90625 
z
M 28.609375 72.90625 
L 39.796875 72.90625 
L 67.578125 0 
L 57.328125 0 
L 50.6875 18.703125 
L 17.828125 18.703125 
L 11.1875 0 
L 0.78125 0 
z
" id="DejaVuSans-65"/>
       <path d="M 2.984375 54.6875 
L 12.5 54.6875 
L 29.59375 8.796875 
L 46.6875 54.6875 
L 56.203125 54.6875 
L 35.6875 0 
L 23.484375 0 
z
" id="DejaVuSans-118"/>
       <path d="M 54.890625 33.015625 
L 54.890625 0 
L 45.90625 0 
L 45.90625 32.71875 
Q 45.90625 40.484375 42.875 44.328125 
Q 39.84375 48.1875 33.796875 48.1875 
Q 26.515625 48.1875 22.3125 43.546875 
Q 18.109375 38.921875 18.109375 30.90625 
L 18.109375 0 
L 9.078125 0 
L 9.078125 54.6875 
L 18.109375 54.6875 
L 18.109375 46.1875 
Q 21.34375 51.125 25.703125 53.5625 
Q 30.078125 56 35.796875 56 
Q 45.21875 56 50.046875 50.171875 
Q 54.890625 44.34375 54.890625 33.015625 
z
" id="DejaVuSans-110"/>
       <path d="M 8.5 21.578125 
L 8.5 54.6875 
L 17.484375 54.6875 
L 17.484375 21.921875 
Q 17.484375 14.15625 20.5 10.265625 
Q 23.53125 6.390625 29.59375 6.390625 
Q 36.859375 6.390625 41.078125 11.03125 
Q 45.3125 15.671875 45.3125 23.6875 
L 45.3125 54.6875 
L 54.296875 54.6875 
L 54.296875 0 
L 45.3125 0 
L 45.3125 8.40625 
Q 42.046875 3.421875 37.71875 1 
Q 33.40625 -1.421875 27.6875 -1.421875 
Q 18.265625 -1.421875 13.375 4.4375 
Q 8.5 10.296875 8.5 21.578125 
z
M 31.109375 56 
z
" id="DejaVuSans-117"/>
       <path d="M 52 44.1875 
Q 55.375 50.25 60.0625 53.125 
Q 64.75 56 71.09375 56 
Q 79.640625 56 84.28125 50.015625 
Q 88.921875 44.046875 88.921875 33.015625 
L 88.921875 0 
L 79.890625 0 
L 79.890625 32.71875 
Q 79.890625 40.578125 77.09375 44.375 
Q 74.3125 48.1875 68.609375 48.1875 
Q 61.625 48.1875 57.5625 43.546875 
Q 53.515625 38.921875 53.515625 30.90625 
L 53.515625 0 
L 44.484375 0 
L 44.484375 32.71875 
Q 44.484375 40.625 41.703125 44.40625 
Q 38.921875 48.1875 33.109375 48.1875 
Q 26.21875 48.1875 22.15625 43.53125 
Q 18.109375 38.875 18.109375 30.90625 
L 18.109375 0 
L 9.078125 0 
L 9.078125 54.6875 
L 18.109375 54.6875 
L 18.109375 46.1875 
Q 21.1875 51.21875 25.484375 53.609375 
Q 29.78125 56 35.6875 56 
Q 41.65625 56 45.828125 52.96875 
Q 50 49.953125 52 44.1875 
z
" id="DejaVuSans-109"/>
       <path d="M 37.109375 75.984375 
L 37.109375 68.5 
L 28.515625 68.5 
Q 23.6875 68.5 21.796875 66.546875 
Q 19.921875 64.59375 19.921875 59.515625 
L 19.921875 54.6875 
L 34.71875 54.6875 
L 34.71875 47.703125 
L 19.921875 47.703125 
L 19.921875 0 
L 10.890625 0 
L 10.890625 47.703125 
L 2.296875 47.703125 
L 2.296875 54.6875 
L 10.890625 54.6875 
L 10.890625 58.5 
Q 10.890625 67.625 15.140625 71.796875 
Q 19.390625 75.984375 28.609375 75.984375 
z
" id="DejaVuSans-102"/>
       <path d="M 44.28125 53.078125 
L 44.28125 44.578125 
Q 40.484375 46.53125 36.375 47.5 
Q 32.28125 48.484375 27.875 48.484375 
Q 21.1875 48.484375 17.84375 46.4375 
Q 14.5 44.390625 14.5 40.28125 
Q 14.5 37.15625 16.890625 35.375 
Q 19.28125 33.59375 26.515625 31.984375 
L 29.59375 31.296875 
Q 39.15625 29.25 43.1875 25.515625 
Q 47.21875 21.78125 47.21875 15.09375 
Q 47.21875 7.46875 41.1875 3.015625 
Q 35.15625 -1.421875 24.609375 -1.421875 
Q 20.21875 -1.421875 15.453125 -0.5625 
Q 10.6875 0.296875 5.421875 2 
L 5.421875 11.28125 
Q 10.40625 8.6875 15.234375 7.390625 
Q 20.0625 6.109375 24.8125 6.109375 
Q 31.15625 6.109375 34.5625 8.28125 
Q 37.984375 10.453125 37.984375 14.40625 
Q 37.984375 18.0625 35.515625 20.015625 
Q 33.0625 21.96875 24.703125 23.78125 
L 21.578125 24.515625 
Q 13.234375 26.265625 9.515625 29.90625 
Q 5.8125 33.546875 5.8125 39.890625 
Q 5.8125 47.609375 11.28125 51.796875 
Q 16.75 56 26.8125 56 
Q 31.78125 56 36.171875 55.265625 
Q 40.578125 54.546875 44.28125 53.078125 
z
" id="DejaVuSans-115"/>
       <path d="M 25.390625 72.90625 
L 33.6875 72.90625 
L 8.296875 -9.28125 
L 0 -9.28125 
z
" id="DejaVuSans-47"/>
       <path d="M 5.515625 54.6875 
L 48.1875 54.6875 
L 48.1875 46.484375 
L 14.40625 7.171875 
L 48.1875 7.171875 
L 48.1875 0 
L 4.296875 0 
L 4.296875 8.203125 
L 38.09375 47.515625 
L 5.515625 47.515625 
z
" id="DejaVuSans-122"/>
      </defs>
      <use xlink:href="#DejaVuSans-65"/>
      <use x="62.533203" xlink:href="#DejaVuSans-118"/>
      <use x="121.712891" xlink:href="#DejaVuSans-103"/>
      <use x="185.189453" xlink:href="#DejaVuSans-46"/>
      <use x="216.976562" xlink:href="#DejaVuSans-32"/>
      <use x="248.763672" xlink:href="#DejaVuSans-110"/>
      <use x="312.142578" xlink:href="#DejaVuSans-117"/>
      <use x="375.521484" xlink:href="#DejaVuSans-109"/>
      <use x="472.933594" xlink:href="#DejaVuSans-98"/>
      <use x="536.410156" xlink:href="#DejaVuSans-101"/>
      <use x="597.933594" xlink:href="#DejaVuSans-114"/>
      <use x="639.046875" xlink:href="#DejaVuSans-32"/>
      <use x="670.833984" xlink:href="#DejaVuSans-111"/>
      <use x="732.015625" xlink:href="#DejaVuSans-102"/>
      <use x="767.220703" xlink:href="#DejaVuSans-32"/>
      <use x="799.007812" xlink:href="#DejaVuSans-111"/>
      <use x="860.189453" xlink:href="#DejaVuSans-112"/>
      <use x="923.666016" xlink:href="#DejaVuSans-101"/>
      <use x="985.189453" xlink:href="#DejaVuSans-114"/>
      <use x="1026.302734" xlink:href="#DejaVuSans-97"/>
      <use x="1087.582031" xlink:href="#DejaVuSans-116"/>
      <use x="1126.791016" xlink:href="#DejaVuSans-105"/>
      <use x="1154.574219" xlink:href="#DejaVuSans-111"/>
      <use x="1215.755859" xlink:href="#DejaVuSans-110"/>
      <use x="1279.134766" xlink:href="#DejaVuSans-115"/>
      <use x="1331.234375" xlink:href="#DejaVuSans-32"/>
      <use x="1363.021484" xlink:href="#DejaVuSans-47"/>
      <use x="1396.712891" xlink:href="#DejaVuSans-32"/>
      <use x="1428.5" xlink:href="#DejaVuSans-115"/>
      <use x="1480.599609" xlink:href="#DejaVuSans-105"/>
      <use x="1508.382812" xlink:href="#DejaVuSans-122"/>
      <use x="1560.873047" xlink:href="#DejaVuSans-101"/>
     </g>
    </g>
   </g>
   <g id="line2d_25">
    <path clip-path="url(#p3423c02639)" d="M 134.701506 822.493577 
L 177.419209 757.336861 
L 220.136912 726.310511 
L 262.854616 698.871022 
L 305.572319 676.204818 
L 348.290022 670.189927 
L 391.007726 650.917445 
L 433.725429 643.012555 
L 476.443132 630.9 
L 519.160836 626.430219 
L 561.878539 613.641679 
L 604.596243 606.923212 
L 647.313946 595.721168 
L 690.031649 601.170438 
L 732.749353 595.058978 
L 775.467056 585.512409 
L 818.184759 585.333066 
L 860.902463 571.454672 
L 903.620166 577.428175 
L 946.337869 572.034088 
" style="fill:none;stroke:#fe0002;stroke-linecap:square;stroke-width:1.5;"/>
    <defs>
     <path d="M 0 4.5 
C 1.193414 4.5 2.338109 4.025852 3.181981 3.181981 
C 4.025852 2.338109 4.5 1.193414 4.5 0 
C 4.5 -1.193414 4.025852 -2.338109 3.181981 -3.181981 
C 2.338109 -4.025852 1.193414 -4.5 0 -4.5 
C -1.193414 -4.5 -2.338109 -4.025852 -3.181981 -3.181981 
C -4.025852 -2.338109 -4.5 -1.193414 -4.5 0 
C -4.5 1.193414 -4.025852 2.338109 -3.181981 3.181981 
C -2.338109 4.025852 -1.193414 4.5 0 4.5 
z
" id="m5fedadfa5a" style="stroke:#000000;"/>
    </defs>
    <g clip-path="url(#p3423c02639)">
     <use style="fill:#fe0002;stroke:#000000;" x="134.701506" xlink:href="#m5fedadfa5a" y="822.493577"/>
     <use style="fill:#fe0002;stroke:#000000;" x="177.419209" xlink:href="#m5fedadfa5a" y="757.336861"/>
     <use style="fill:#fe0002;stroke:#000000;" x="220.136912" xlink:href="#m5fedadfa5a" y="726.310511"/>
     <use style="fill:#fe0002;stroke:#000000;" x="262.854616" xlink:href="#m5fedadfa5a" y="698.871022"/>
     <use style="fill:#fe0002;stroke:#000000;" x="305.572319" xlink:href="#m5fedadfa5a" y="676.204818"/>
     <use style="fill:#fe0002;stroke:#000000;" x="348.290022" xlink:href="#m5fedadfa5a" y="670.189927"/>
     <use style="fill:#fe0002;stroke:#000000;" x="391.007726" xlink:href="#m5fedadfa5a" y="650.917445"/>
     <use style="fill:#fe0002;stroke:#000000;" x="433.725429" xlink:href="#m5fedadfa5a" y="643.012555"/>
     <use style="fill:#fe0002;stroke:#000000;" x="476.443132" xlink:href="#m5fedadfa5a" y="630.9"/>
     <use style="fill:#fe0002;stroke:#000000;" x="519.160836" xlink:href="#m5fedadfa5a" y="626.430219"/>
     <use style="fill:#fe0002;stroke:#000000;" x="561.878539" xlink:href="#m5fedadfa5a" y="613.641679"/>
     <use style="fill:#fe0002;stroke:#000000;" x="604.596243" xlink:href="#m5fedadfa5a" y="606.923212"/>
     <use style="fill:#fe0002;stroke:#000000;" x="647.313946" xlink:href="#m5fedadfa5a" y="595.721168"/>
     <use style="fill:#fe0002;stroke:#000000;" x="690.031649" xlink:href="#m5fedadfa5a" y="601.170438"/>
     <use style="fill:#fe0002;stroke:#000000;" x="732.749353" xlink:href="#m5fedadfa5a" y="595.058978"/>
     <use style="fill:#fe0002;stroke:#000000;" x="775.467056" xlink:href="#m5fedadfa5a" y="585.512409"/>
     <use style="fill:#fe0002;stroke:#000000;" x="818.184759" xlink:href="#m5fedadfa5a" y="585.333066"/>
     <use style="fill:#fe0002;stroke:#000000;" x="860.902463" xlink:href="#m5fedadfa5a" y="571.454672"/>
     <use style="fill:#fe0002;stroke:#000000;" x="903.620166" xlink:href="#m5fedadfa5a" y="577.428175"/>
     <use style="fill:#fe0002;stroke:#000000;" x="946.337869" xlink:href="#m5fedadfa5a" y="572.034088"/>
    </g>
   </g>
   <g id="line2d_26">
    <path clip-path="url(#p3423c02639)" d="M 134.701506 822.493577 
L 177.419209 757.336861 
L 220.136912 726.310511 
L 262.854616 698.871022 
L 305.572319 676.204818 
L 348.290022 670.189927 
L 391.007726 650.917445 
L 433.725429 643.012555 
L 476.443132 630.9 
L 519.160836 626.430219 
L 561.878539 613.641679 
L 604.596243 606.923212 
L 647.313946 595.721168 
L 690.031649 601.170438 
L 732.749353 595.058978 
L 775.467056 585.512409 
L 818.184759 585.333066 
L 860.902463 571.454672 
L 903.620166 577.428175 
L 946.337869 572.034088 
" style="fill:none;stroke:#fe0002;stroke-dasharray:5.55,2.4;stroke-dashoffset:0;stroke-width:1.5;"/>
    <g clip-path="url(#p3423c02639)">
     <use style="fill:#fe0002;stroke:#000000;" x="134.701506" xlink:href="#m5fedadfa5a" y="822.493577"/>
     <use style="fill:#fe0002;stroke:#000000;" x="177.419209" xlink:href="#m5fedadfa5a" y="757.336861"/>
     <use style="fill:#fe0002;stroke:#000000;" x="220.136912" xlink:href="#m5fedadfa5a" y="726.310511"/>
     <use style="fill:#fe0002;stroke:#000000;" x="262.854616" xlink:href="#m5fedadfa5a" y="698.871022"/>
     <use style="fill:#fe0002;stroke:#000000;" x="305.572319" xlink:href="#m5fedadfa5a" y="676.204818"/>
     <use style="fill:#fe0002;stroke:#000000;" x="348.290022" xlink:href="#m5fedadfa5a" y="670.189927"/>
     <use style="fill:#fe0002;stroke:#000000;" x="391.007726" xlink:href="#m5fedadfa5a" y="650.917445"/>
     <use style="fill:#fe0002;stroke:#000000;" x="433.725429" xlink:href="#m5fedadfa5a" y="643.012555"/>
     <use style="fill:#fe0002;stroke:#000000;" x="476.443132" xlink:href="#m5fedadfa5a" y="630.9"/>
     <use style="fill:#fe0002;stroke:#000000;" x="519.160836" xlink:href="#m5fedadfa5a" y="626.430219"/>
     <use style="fill:#fe0002;stroke:#000000;" x="561.878539" xlink:href="#m5fedadfa5a" y="613.641679"/>
     <use style="fill:#fe0002;stroke:#000000;" x="604.596243" xlink:href="#m5fedadfa5a" y="606.923212"/>
     <use style="fill:#fe0002;stroke:#000000;" x="647.313946" xlink:href="#m5fedadfa5a" y="595.721168"/>
     <use style="fill:#fe0002;stroke:#000000;" x="690.031649" xlink:href="#m5fedadfa5a" y="601.170438"/>
     <use style="fill:#fe0002;stroke:#000000;" x="732.749353" xlink:href="#m5fedadfa5a" y="595.058978"/>
     <use style="fill:#fe0002;stroke:#000000;" x="775.467056" xlink:href="#m5fedadfa5a" y="585.512409"/>
     <use style="fill:#fe0002;stroke:#000000;" x="818.184759" xlink:href="#m5fedadfa5a" y="585.333066"/>
     <use style="fill:#fe0002;stroke:#000000;" x="860.902463" xlink:href="#m5fedadfa5a" y="571.454672"/>
     <use style="fill:#fe0002;stroke:#000000;" x="903.620166" xlink:href="#m5fedadfa5a" y="577.428175"/>
     <use style="fill:#fe0002;stroke:#000000;" x="946.337869" xlink:href="#m5fedadfa5a" y="572.034088"/>
    </g>
   </g>
   <g id="line2d_27">
    <path clip-path="url(#p3423c02639)" d="M 134.701506 517.210292 
L 177.419209 426.104015 
L 220.136912 380.730219 
L 262.854616 341.633431 
L 305.572319 307.503066 
L 348.290022 295.293942 
L 391.007726 270.075547 
L 433.725429 257.90781 
L 476.443132 233.613723 
L 519.160836 232.137591 
L 561.878539 213.968759 
L 604.596243 198.338321 
L 647.313946 195.53781 
L 690.031649 185.825693 
L 732.749353 179.038248 
L 775.467056 173.644161 
L 818.184759 162.414526 
L 860.902463 158.124088 
L 903.620166 156.551387 
L 946.337869 150.108832 
" style="fill:none;stroke:#53fca1;stroke-linecap:square;stroke-width:1.5;"/>
    <defs>
     <path d="M 0 -4.5 
L -4.5 4.5 
L 4.5 4.5 
z
" id="m5853f4abec" style="stroke:#000000;stroke-linejoin:miter;"/>
    </defs>
    <g clip-path="url(#p3423c02639)">
     <use style="fill:#53fca1;stroke:#000000;stroke-linejoin:miter;" x="134.701506" xlink:href="#m5853f4abec" y="517.210292"/>
     <use style="fill:#53fca1;stroke:#000000;stroke-linejoin:miter;" x="177.419209" xlink:href="#m5853f4abec" y="426.104015"/>
     <use style="fill:#53fca1;stroke:#000000;stroke-linejoin:miter;" x="220.136912" xlink:href="#m5853f4abec" y="380.730219"/>
     <use style="fill:#53fca1;stroke:#000000;stroke-linejoin:miter;" x="262.854616" xlink:href="#m5853f4abec" y="341.633431"/>
     <use style="fill:#53fca1;stroke:#000000;stroke-linejoin:miter;" x="305.572319" xlink:href="#m5853f4abec" y="307.503066"/>
     <use style="fill:#53fca1;stroke:#000000;stroke-linejoin:miter;" x="348.290022" xlink:href="#m5853f4abec" y="295.293942"/>
     <use style="fill:#53fca1;stroke:#000000;stroke-linejoin:miter;" x="391.007726" xlink:href="#m5853f4abec" y="270.075547"/>
     <use style="fill:#53fca1;stroke:#000000;stroke-linejoin:miter;" x="433.725429" xlink:href="#m5853f4abec" y="257.90781"/>
     <use style="fill:#53fca1;stroke:#000000;stroke-linejoin:miter;" x="476.443132" xlink:href="#m5853f4abec" y="233.613723"/>
     <use style="fill:#53fca1;stroke:#000000;stroke-linejoin:miter;" x="519.160836" xlink:href="#m5853f4abec" y="232.137591"/>
     <use style="fill:#53fca1;stroke:#000000;stroke-linejoin:miter;" x="561.878539" xlink:href="#m5853f4abec" y="213.968759"/>
     <use style="fill:#53fca1;stroke:#000000;stroke-linejoin:miter;" x="604.596243" xlink:href="#m5853f4abec" y="198.338321"/>
     <use style="fill:#53fca1;stroke:#000000;stroke-linejoin:miter;" x="647.313946" xlink:href="#m5853f4abec" y="195.53781"/>
     <use style="fill:#53fca1;stroke:#000000;stroke-linejoin:miter;" x="690.031649" xlink:href="#m5853f4abec" y="185.825693"/>
     <use style="fill:#53fca1;stroke:#000000;stroke-linejoin:miter;" x="732.749353" xlink:href="#m5853f4abec" y="179.038248"/>
     <use style="fill:#53fca1;stroke:#000000;stroke-linejoin:miter;" x="775.467056" xlink:href="#m5853f4abec" y="173.644161"/>
     <use style="fill:#53fca1;stroke:#000000;stroke-linejoin:miter;" x="818.184759" xlink:href="#m5853f4abec" y="162.414526"/>
     <use style="fill:#53fca1;stroke:#000000;stroke-linejoin:miter;" x="860.902463" xlink:href="#m5853f4abec" y="158.124088"/>
     <use style="fill:#53fca1;stroke:#000000;stroke-linejoin:miter;" x="903.620166" xlink:href="#m5853f4abec" y="156.551387"/>
     <use style="fill:#53fca1;stroke:#000000;stroke-linejoin:miter;" x="946.337869" xlink:href="#m5853f4abec" y="150.108832"/>
    </g>
   </g>
   <g id="line2d_28">
    <path clip-path="url(#p3423c02639)" d="M 134.701506 953.414015 
L 177.419209 907.557372 
L 220.136912 883.139124 
L 262.854616 863.121679 
L 305.572319 845.25635 
L 348.290022 839.02073 
L 391.007726 825.638978 
L 433.725429 819.762044 
L 476.443132 806.463066 
L 519.160836 804.890365 
L 561.878539 795.661095 
L 604.596243 786.859489 
L 647.313946 786.88708 
L 690.031649 781.161898 
L 732.749353 776.65073 
L 775.467056 773.477737 
L 818.184759 768.621679 
L 860.902463 766.869635 
L 903.620166 763.351752 
L 946.337869 761.075474 
" style="fill:none;stroke:#53fca1;stroke-dasharray:5.55,2.4;stroke-dashoffset:0;stroke-width:1.5;"/>
    <defs>
     <path d="M -0 6.363961 
L 6.363961 0 
L 0 -6.363961 
L -6.363961 -0 
z
" id="m2c056b7690" style="stroke:#000000;stroke-linejoin:miter;"/>
    </defs>
    <g clip-path="url(#p3423c02639)">
     <use style="fill:#53fca1;stroke:#000000;stroke-linejoin:miter;" x="134.701506" xlink:href="#m2c056b7690" y="953.414015"/>
     <use style="fill:#53fca1;stroke:#000000;stroke-linejoin:miter;" x="177.419209" xlink:href="#m2c056b7690" y="907.557372"/>
     <use style="fill:#53fca1;stroke:#000000;stroke-linejoin:miter;" x="220.136912" xlink:href="#m2c056b7690" y="883.139124"/>
     <use style="fill:#53fca1;stroke:#000000;stroke-linejoin:miter;" x="262.854616" xlink:href="#m2c056b7690" y="863.121679"/>
     <use style="fill:#53fca1;stroke:#000000;stroke-linejoin:miter;" x="305.572319" xlink:href="#m2c056b7690" y="845.25635"/>
     <use style="fill:#53fca1;stroke:#000000;stroke-linejoin:miter;" x="348.290022" xlink:href="#m2c056b7690" y="839.02073"/>
     <use style="fill:#53fca1;stroke:#000000;stroke-linejoin:miter;" x="391.007726" xlink:href="#m2c056b7690" y="825.638978"/>
     <use style="fill:#53fca1;stroke:#000000;stroke-linejoin:miter;" x="433.725429" xlink:href="#m2c056b7690" y="819.762044"/>
     <use style="fill:#53fca1;stroke:#000000;stroke-linejoin:miter;" x="476.443132" xlink:href="#m2c056b7690" y="806.463066"/>
     <use style="fill:#53fca1;stroke:#000000;stroke-linejoin:miter;" x="519.160836" xlink:href="#m2c056b7690" y="804.890365"/>
     <use style="fill:#53fca1;stroke:#000000;stroke-linejoin:miter;" x="561.878539" xlink:href="#m2c056b7690" y="795.661095"/>
     <use style="fill:#53fca1;stroke:#000000;stroke-linejoin:miter;" x="604.596243" xlink:href="#m2c056b7690" y="786.859489"/>
     <use style="fill:#53fca1;stroke:#000000;stroke-linejoin:miter;" x="647.313946" xlink:href="#m2c056b7690" y="786.88708"/>
     <use style="fill:#53fca1;stroke:#000000;stroke-linejoin:miter;" x="690.031649" xlink:href="#m2c056b7690" y="781.161898"/>
     <use style="fill:#53fca1;stroke:#000000;stroke-linejoin:miter;" x="732.749353" xlink:href="#m2c056b7690" y="776.65073"/>
     <use style="fill:#53fca1;stroke:#000000;stroke-linejoin:miter;" x="775.467056" xlink:href="#m2c056b7690" y="773.477737"/>
     <use style="fill:#53fca1;stroke:#000000;stroke-linejoin:miter;" x="818.184759" xlink:href="#m2c056b7690" y="768.621679"/>
     <use style="fill:#53fca1;stroke:#000000;stroke-linejoin:miter;" x="860.902463" xlink:href="#m2c056b7690" y="766.869635"/>
     <use style="fill:#53fca1;stroke:#000000;stroke-linejoin:miter;" x="903.620166" xlink:href="#m2c056b7690" y="763.351752"/>
     <use style="fill:#53fca1;stroke:#000000;stroke-linejoin:miter;" x="946.337869" xlink:href="#m2c056b7690" y="761.075474"/>
    </g>
   </g>
   <g id="line2d_29">
    <path clip-path="url(#p3423c02639)" d="M 134.701506 487.798029 
L 177.419209 394.070584 
L 220.136912 341.109197 
L 262.854616 299.225693 
L 305.572319 263.094964 
L 348.290022 243.905255 
L 391.007726 226.246861 
L 433.725429 199.855839 
L 476.443132 181.96292 
L 519.160836 178.693358 
L 561.878539 161.862701 
L 604.596243 142.148759 
L 647.313946 146.108102 
L 690.031649 135.526861 
L 732.749353 122.062336 
L 775.467056 113.964307 
L 818.184759 107.425182 
L 860.902463 95.947226 
L 903.620166 90.13927 
L 946.337869 89.670219 
" style="fill:none;stroke:#0652ff;stroke-linecap:square;stroke-width:1.5;"/>
    <defs>
     <path d="M 0 -4.5 
L -4.279754 -1.390576 
L -2.645034 3.640576 
L 2.645034 3.640576 
L 4.279754 -1.390576 
z
" id="mb0e172d664" style="stroke:#000000;stroke-linejoin:miter;"/>
    </defs>
    <g clip-path="url(#p3423c02639)">
     <use style="fill:#0652ff;stroke:#000000;stroke-linejoin:miter;" x="134.701506" xlink:href="#mb0e172d664" y="487.798029"/>
     <use style="fill:#0652ff;stroke:#000000;stroke-linejoin:miter;" x="177.419209" xlink:href="#mb0e172d664" y="394.070584"/>
     <use style="fill:#0652ff;stroke:#000000;stroke-linejoin:miter;" x="220.136912" xlink:href="#mb0e172d664" y="341.109197"/>
     <use style="fill:#0652ff;stroke:#000000;stroke-linejoin:miter;" x="262.854616" xlink:href="#mb0e172d664" y="299.225693"/>
     <use style="fill:#0652ff;stroke:#000000;stroke-linejoin:miter;" x="305.572319" xlink:href="#mb0e172d664" y="263.094964"/>
     <use style="fill:#0652ff;stroke:#000000;stroke-linejoin:miter;" x="348.290022" xlink:href="#mb0e172d664" y="243.905255"/>
     <use style="fill:#0652ff;stroke:#000000;stroke-linejoin:miter;" x="391.007726" xlink:href="#mb0e172d664" y="226.246861"/>
     <use style="fill:#0652ff;stroke:#000000;stroke-linejoin:miter;" x="433.725429" xlink:href="#mb0e172d664" y="199.855839"/>
     <use style="fill:#0652ff;stroke:#000000;stroke-linejoin:miter;" x="476.443132" xlink:href="#mb0e172d664" y="181.96292"/>
     <use style="fill:#0652ff;stroke:#000000;stroke-linejoin:miter;" x="519.160836" xlink:href="#mb0e172d664" y="178.693358"/>
     <use style="fill:#0652ff;stroke:#000000;stroke-linejoin:miter;" x="561.878539" xlink:href="#mb0e172d664" y="161.862701"/>
     <use style="fill:#0652ff;stroke:#000000;stroke-linejoin:miter;" x="604.596243" xlink:href="#mb0e172d664" y="142.148759"/>
     <use style="fill:#0652ff;stroke:#000000;stroke-linejoin:miter;" x="647.313946" xlink:href="#mb0e172d664" y="146.108102"/>
     <use style="fill:#0652ff;stroke:#000000;stroke-linejoin:miter;" x="690.031649" xlink:href="#mb0e172d664" y="135.526861"/>
     <use style="fill:#0652ff;stroke:#000000;stroke-linejoin:miter;" x="732.749353" xlink:href="#mb0e172d664" y="122.062336"/>
     <use style="fill:#0652ff;stroke:#000000;stroke-linejoin:miter;" x="775.467056" xlink:href="#mb0e172d664" y="113.964307"/>
     <use style="fill:#0652ff;stroke:#000000;stroke-linejoin:miter;" x="818.184759" xlink:href="#mb0e172d664" y="107.425182"/>
     <use style="fill:#0652ff;stroke:#000000;stroke-linejoin:miter;" x="860.902463" xlink:href="#mb0e172d664" y="95.947226"/>
     <use style="fill:#0652ff;stroke:#000000;stroke-linejoin:miter;" x="903.620166" xlink:href="#mb0e172d664" y="90.13927"/>
     <use style="fill:#0652ff;stroke:#000000;stroke-linejoin:miter;" x="946.337869" xlink:href="#mb0e172d664" y="89.670219"/>
    </g>
   </g>
   <g id="line2d_30">
    <path clip-path="url(#p3423c02639)" d="M 134.701506 902.563358 
L 177.419209 854.513212 
L 220.136912 827.666934 
L 262.854616 806.490657 
L 305.572319 786.845693 
L 348.290022 778.057883 
L 391.007726 769.43562 
L 433.725429 755.791752 
L 476.443132 746.75562 
L 519.160836 744.175839 
L 561.878539 737.278029 
L 604.596243 725.551752 
L 647.313946 728.641971 
L 690.031649 723.565182 
L 732.749353 715.549927 
L 775.467056 712.514891 
L 818.184759 709.259124 
L 860.902463 703.395985 
L 903.620166 700.04365 
L 946.337869 701.809489 
" style="fill:none;stroke:#0652ff;stroke-dasharray:5.55,2.4;stroke-dashoffset:0;stroke-width:1.5;"/>
    <defs>
     <path d="M -2.25 4.5 
L 0 2.25 
L 2.25 4.5 
L 4.5 2.25 
L 2.25 0 
L 4.5 -2.25 
L 2.25 -4.5 
L 0 -2.25 
L -2.25 -4.5 
L -4.5 -2.25 
L -2.25 0 
L -4.5 2.25 
z
" id="m32c980a099" style="stroke:#000000;stroke-linejoin:miter;"/>
    </defs>
    <g clip-path="url(#p3423c02639)">
     <use style="fill:#0652ff;stroke:#000000;stroke-linejoin:miter;" x="134.701506" xlink:href="#m32c980a099" y="902.563358"/>
     <use style="fill:#0652ff;stroke:#000000;stroke-linejoin:miter;" x="177.419209" xlink:href="#m32c980a099" y="854.513212"/>
     <use style="fill:#0652ff;stroke:#000000;stroke-linejoin:miter;" x="220.136912" xlink:href="#m32c980a099" y="827.666934"/>
     <use style="fill:#0652ff;stroke:#000000;stroke-linejoin:miter;" x="262.854616" xlink:href="#m32c980a099" y="806.490657"/>
     <use style="fill:#0652ff;stroke:#000000;stroke-linejoin:miter;" x="305.572319" xlink:href="#m32c980a099" y="786.845693"/>
     <use style="fill:#0652ff;stroke:#000000;stroke-linejoin:miter;" x="348.290022" xlink:href="#m32c980a099" y="778.057883"/>
     <use style="fill:#0652ff;stroke:#000000;stroke-linejoin:miter;" x="391.007726" xlink:href="#m32c980a099" y="769.43562"/>
     <use style="fill:#0652ff;stroke:#000000;stroke-linejoin:miter;" x="433.725429" xlink:href="#m32c980a099" y="755.791752"/>
     <use style="fill:#0652ff;stroke:#000000;stroke-linejoin:miter;" x="476.443132" xlink:href="#m32c980a099" y="746.75562"/>
     <use style="fill:#0652ff;stroke:#000000;stroke-linejoin:miter;" x="519.160836" xlink:href="#m32c980a099" y="744.175839"/>
     <use style="fill:#0652ff;stroke:#000000;stroke-linejoin:miter;" x="561.878539" xlink:href="#m32c980a099" y="737.278029"/>
     <use style="fill:#0652ff;stroke:#000000;stroke-linejoin:miter;" x="604.596243" xlink:href="#m32c980a099" y="725.551752"/>
     <use style="fill:#0652ff;stroke:#000000;stroke-linejoin:miter;" x="647.313946" xlink:href="#m32c980a099" y="728.641971"/>
     <use style="fill:#0652ff;stroke:#000000;stroke-linejoin:miter;" x="690.031649" xlink:href="#m32c980a099" y="723.565182"/>
     <use style="fill:#0652ff;stroke:#000000;stroke-linejoin:miter;" x="732.749353" xlink:href="#m32c980a099" y="715.549927"/>
     <use style="fill:#0652ff;stroke:#000000;stroke-linejoin:miter;" x="775.467056" xlink:href="#m32c980a099" y="712.514891"/>
     <use style="fill:#0652ff;stroke:#000000;stroke-linejoin:miter;" x="818.184759" xlink:href="#m32c980a099" y="709.259124"/>
     <use style="fill:#0652ff;stroke:#000000;stroke-linejoin:miter;" x="860.902463" xlink:href="#m32c980a099" y="703.395985"/>
     <use style="fill:#0652ff;stroke:#000000;stroke-linejoin:miter;" x="903.620166" xlink:href="#m32c980a099" y="700.04365"/>
     <use style="fill:#0652ff;stroke:#000000;stroke-linejoin:miter;" x="946.337869" xlink:href="#m32c980a099" y="701.809489"/>
    </g>
   </g>
   <g id="patch_3">
    <path d="M 94.119688 1005.12 
L 94.119688 7.2 
" style="fill:none;stroke:#000000;stroke-linecap:square;stroke-linejoin:miter;stroke-width:0.8;"/>
   </g>
   <g id="patch_4">
    <path d="M 986.919688 1005.12 
L 986.919688 7.2 
" style="fill:none;stroke:#000000;stroke-linecap:square;stroke-linejoin:miter;stroke-width:0.8;"/>
   </g>
   <g id="patch_5">
    <path d="M 94.119688 1005.12 
L 986.919687 1005.12 
" style="fill:none;stroke:#000000;stroke-linecap:square;stroke-linejoin:miter;stroke-width:0.8;"/>
   </g>
   <g id="patch_6">
    <path d="M 94.119688 7.2 
L 986.919687 7.2 
" style="fill:none;stroke:#000000;stroke-linecap:square;stroke-linejoin:miter;stroke-width:0.8;"/>
   </g>
   <g id="legend_1">
    <g id="patch_7">
     <path d="M 115.119688 295.40625 
L 527.2025 295.40625 
Q 533.2025 295.40625 533.2025 289.40625 
L 533.2025 28.2 
Q 533.2025 22.2 527.2025 22.2 
L 115.119688 22.2 
Q 109.119688 22.2 109.119688 28.2 
L 109.119688 289.40625 
Q 109.119688 295.40625 115.119688 295.40625 
z
" style="fill:#ffffff;opacity:0.8;stroke:#cccccc;stroke-linejoin:miter;"/>
    </g>
    <g id="line2d_31">
     <path d="M 121.119688 46.495312 
L 181.119688 46.495312 
" style="fill:none;stroke:#fe0002;stroke-linecap:square;stroke-width:1.5;"/>
    </g>
    <g id="line2d_32">
     <g>
      <use style="fill:#fe0002;stroke:#000000;" x="151.119688" xlink:href="#m5fedadfa5a" y="46.495312"/>
     </g>
    </g>
    <g id="text_15">
     <!-- Pairing comparisons -->
     <g transform="translate(205.119688 56.995312)scale(0.3 -0.3)">
      <defs>
       <path d="M 19.671875 64.796875 
L 19.671875 37.40625 
L 32.078125 37.40625 
Q 38.96875 37.40625 42.71875 40.96875 
Q 46.484375 44.53125 46.484375 51.125 
Q 46.484375 57.671875 42.71875 61.234375 
Q 38.96875 64.796875 32.078125 64.796875 
z
M 9.8125 72.90625 
L 32.078125 72.90625 
Q 44.34375 72.90625 50.609375 67.359375 
Q 56.890625 61.8125 56.890625 51.125 
Q 56.890625 40.328125 50.609375 34.8125 
Q 44.34375 29.296875 32.078125 29.296875 
L 19.671875 29.296875 
L 19.671875 0 
L 9.8125 0 
z
" id="DejaVuSans-80"/>
       <path d="M 48.78125 52.59375 
L 48.78125 44.1875 
Q 44.96875 46.296875 41.140625 47.34375 
Q 37.3125 48.390625 33.40625 48.390625 
Q 24.65625 48.390625 19.8125 42.84375 
Q 14.984375 37.3125 14.984375 27.296875 
Q 14.984375 17.28125 19.8125 11.734375 
Q 24.65625 6.203125 33.40625 6.203125 
Q 37.3125 6.203125 41.140625 7.25 
Q 44.96875 8.296875 48.78125 10.40625 
L 48.78125 2.09375 
Q 45.015625 0.34375 40.984375 -0.53125 
Q 36.96875 -1.421875 32.421875 -1.421875 
Q 20.0625 -1.421875 12.78125 6.34375 
Q 5.515625 14.109375 5.515625 27.296875 
Q 5.515625 40.671875 12.859375 48.328125 
Q 20.21875 56 33.015625 56 
Q 37.15625 56 41.109375 55.140625 
Q 45.0625 54.296875 48.78125 52.59375 
z
" id="DejaVuSans-99"/>
      </defs>
      <use xlink:href="#DejaVuSans-80"/>
      <use x="55.802734" xlink:href="#DejaVuSans-97"/>
      <use x="117.082031" xlink:href="#DejaVuSans-105"/>
      <use x="144.865234" xlink:href="#DejaVuSans-114"/>
      <use x="185.978516" xlink:href="#DejaVuSans-105"/>
      <use x="213.761719" xlink:href="#DejaVuSans-110"/>
      <use x="277.140625" xlink:href="#DejaVuSans-103"/>
      <use x="340.617188" xlink:href="#DejaVuSans-32"/>
      <use x="372.404297" xlink:href="#DejaVuSans-99"/>
      <use x="427.384766" xlink:href="#DejaVuSans-111"/>
      <use x="488.566406" xlink:href="#DejaVuSans-109"/>
      <use x="585.978516" xlink:href="#DejaVuSans-112"/>
      <use x="649.455078" xlink:href="#DejaVuSans-97"/>
      <use x="710.734375" xlink:href="#DejaVuSans-114"/>
      <use x="751.847656" xlink:href="#DejaVuSans-105"/>
      <use x="779.630859" xlink:href="#DejaVuSans-115"/>
      <use x="831.730469" xlink:href="#DejaVuSans-111"/>
      <use x="892.912109" xlink:href="#DejaVuSans-110"/>
      <use x="956.291016" xlink:href="#DejaVuSans-115"/>
     </g>
    </g>
    <g id="line2d_33">
     <path d="M 121.119688 90.529687 
L 181.119688 90.529687 
" style="fill:none;stroke:#fe0002;stroke-dasharray:5.55,2.4;stroke-dashoffset:0;stroke-width:1.5;"/>
    </g>
    <g id="line2d_34">
     <g>
      <use style="fill:#fe0002;stroke:#000000;" x="151.119688" xlink:href="#m5fedadfa5a" y="90.529687"/>
     </g>
    </g>
    <g id="text_16">
     <!-- Pairing links -->
     <g transform="translate(205.119688 101.029687)scale(0.3 -0.3)">
      <defs>
       <path d="M 9.078125 75.984375 
L 18.109375 75.984375 
L 18.109375 31.109375 
L 44.921875 54.6875 
L 56.390625 54.6875 
L 27.390625 29.109375 
L 57.625 0 
L 45.90625 0 
L 18.109375 26.703125 
L 18.109375 0 
L 9.078125 0 
z
" id="DejaVuSans-107"/>
      </defs>
      <use xlink:href="#DejaVuSans-80"/>
      <use x="55.802734" xlink:href="#DejaVuSans-97"/>
      <use x="117.082031" xlink:href="#DejaVuSans-105"/>
      <use x="144.865234" xlink:href="#DejaVuSans-114"/>
      <use x="185.978516" xlink:href="#DejaVuSans-105"/>
      <use x="213.761719" xlink:href="#DejaVuSans-110"/>
      <use x="277.140625" xlink:href="#DejaVuSans-103"/>
      <use x="340.617188" xlink:href="#DejaVuSans-32"/>
      <use x="372.404297" xlink:href="#DejaVuSans-108"/>
      <use x="400.1875" xlink:href="#DejaVuSans-105"/>
      <use x="427.970703" xlink:href="#DejaVuSans-110"/>
      <use x="491.349609" xlink:href="#DejaVuSans-107"/>
      <use x="549.259766" xlink:href="#DejaVuSans-115"/>
     </g>
    </g>
    <g id="line2d_35">
     <path d="M 121.119688 134.564062 
L 181.119688 134.564062 
" style="fill:none;stroke:#53fca1;stroke-linecap:square;stroke-width:1.5;"/>
    </g>
    <g id="line2d_36">
     <g>
      <use style="fill:#53fca1;stroke:#000000;stroke-linejoin:miter;" x="151.119688" xlink:href="#m5853f4abec" y="134.564062"/>
     </g>
    </g>
    <g id="text_17">
     <!-- Smooth comparisons -->
     <g transform="translate(205.119688 145.064062)scale(0.3 -0.3)">
      <defs>
       <path d="M 53.515625 70.515625 
L 53.515625 60.890625 
Q 47.90625 63.578125 42.921875 64.890625 
Q 37.9375 66.21875 33.296875 66.21875 
Q 25.25 66.21875 20.875 63.09375 
Q 16.5 59.96875 16.5 54.203125 
Q 16.5 49.359375 19.40625 46.890625 
Q 22.3125 44.4375 30.421875 42.921875 
L 36.375 41.703125 
Q 47.40625 39.59375 52.65625 34.296875 
Q 57.90625 29 57.90625 20.125 
Q 57.90625 9.515625 50.796875 4.046875 
Q 43.703125 -1.421875 29.984375 -1.421875 
Q 24.8125 -1.421875 18.96875 -0.25 
Q 13.140625 0.921875 6.890625 3.21875 
L 6.890625 13.375 
Q 12.890625 10.015625 18.65625 8.296875 
Q 24.421875 6.59375 29.984375 6.59375 
Q 38.421875 6.59375 43.015625 9.90625 
Q 47.609375 13.234375 47.609375 19.390625 
Q 47.609375 24.75 44.3125 27.78125 
Q 41.015625 30.8125 33.5 32.328125 
L 27.484375 33.5 
Q 16.453125 35.6875 11.515625 40.375 
Q 6.59375 45.0625 6.59375 53.421875 
Q 6.59375 63.09375 13.40625 68.65625 
Q 20.21875 74.21875 32.171875 74.21875 
Q 37.3125 74.21875 42.625 73.28125 
Q 47.953125 72.359375 53.515625 70.515625 
z
" id="DejaVuSans-83"/>
       <path d="M 54.890625 33.015625 
L 54.890625 0 
L 45.90625 0 
L 45.90625 32.71875 
Q 45.90625 40.484375 42.875 44.328125 
Q 39.84375 48.1875 33.796875 48.1875 
Q 26.515625 48.1875 22.3125 43.546875 
Q 18.109375 38.921875 18.109375 30.90625 
L 18.109375 0 
L 9.078125 0 
L 9.078125 75.984375 
L 18.109375 75.984375 
L 18.109375 46.1875 
Q 21.34375 51.125 25.703125 53.5625 
Q 30.078125 56 35.796875 56 
Q 45.21875 56 50.046875 50.171875 
Q 54.890625 44.34375 54.890625 33.015625 
z
" id="DejaVuSans-104"/>
      </defs>
      <use xlink:href="#DejaVuSans-83"/>
      <use x="63.476562" xlink:href="#DejaVuSans-109"/>
      <use x="160.888672" xlink:href="#DejaVuSans-111"/>
      <use x="222.070312" xlink:href="#DejaVuSans-111"/>
      <use x="283.251953" xlink:href="#DejaVuSans-116"/>
      <use x="322.460938" xlink:href="#DejaVuSans-104"/>
      <use x="385.839844" xlink:href="#DejaVuSans-32"/>
      <use x="417.626953" xlink:href="#DejaVuSans-99"/>
      <use x="472.607422" xlink:href="#DejaVuSans-111"/>
      <use x="533.789062" xlink:href="#DejaVuSans-109"/>
      <use x="631.201172" xlink:href="#DejaVuSans-112"/>
      <use x="694.677734" xlink:href="#DejaVuSans-97"/>
      <use x="755.957031" xlink:href="#DejaVuSans-114"/>
      <use x="797.070312" xlink:href="#DejaVuSans-105"/>
      <use x="824.853516" xlink:href="#DejaVuSans-115"/>
      <use x="876.953125" xlink:href="#DejaVuSans-111"/>
      <use x="938.134766" xlink:href="#DejaVuSans-110"/>
      <use x="1001.513672" xlink:href="#DejaVuSans-115"/>
     </g>
    </g>
    <g id="line2d_37">
     <path d="M 121.119688 178.598437 
L 181.119688 178.598437 
" style="fill:none;stroke:#53fca1;stroke-dasharray:5.55,2.4;stroke-dashoffset:0;stroke-width:1.5;"/>
    </g>
    <g id="line2d_38">
     <g>
      <use style="fill:#53fca1;stroke:#000000;stroke-linejoin:miter;" x="151.119688" xlink:href="#m2c056b7690" y="178.598437"/>
     </g>
    </g>
    <g id="text_18">
     <!-- Smooth links -->
     <g transform="translate(205.119688 189.098437)scale(0.3 -0.3)">
      <use xlink:href="#DejaVuSans-83"/>
      <use x="63.476562" xlink:href="#DejaVuSans-109"/>
      <use x="160.888672" xlink:href="#DejaVuSans-111"/>
      <use x="222.070312" xlink:href="#DejaVuSans-111"/>
      <use x="283.251953" xlink:href="#DejaVuSans-116"/>
      <use x="322.460938" xlink:href="#DejaVuSans-104"/>
      <use x="385.839844" xlink:href="#DejaVuSans-32"/>
      <use x="417.626953" xlink:href="#DejaVuSans-108"/>
      <use x="445.410156" xlink:href="#DejaVuSans-105"/>
      <use x="473.193359" xlink:href="#DejaVuSans-110"/>
      <use x="536.572266" xlink:href="#DejaVuSans-107"/>
      <use x="594.482422" xlink:href="#DejaVuSans-115"/>
     </g>
    </g>
    <g id="line2d_39">
     <path d="M 121.119688 222.632812 
L 181.119688 222.632812 
" style="fill:none;stroke:#0652ff;stroke-linecap:square;stroke-width:1.5;"/>
    </g>
    <g id="line2d_40">
     <g>
      <use style="fill:#0652ff;stroke:#000000;stroke-linejoin:miter;" x="151.119688" xlink:href="#mb0e172d664" y="222.632812"/>
     </g>
    </g>
    <g id="text_19">
     <!-- Slim comparisons -->
     <g transform="translate(205.119688 233.132812)scale(0.3 -0.3)">
      <use xlink:href="#DejaVuSans-83"/>
      <use x="63.476562" xlink:href="#DejaVuSans-108"/>
      <use x="91.259766" xlink:href="#DejaVuSans-105"/>
      <use x="119.042969" xlink:href="#DejaVuSans-109"/>
      <use x="216.455078" xlink:href="#DejaVuSans-32"/>
      <use x="248.242188" xlink:href="#DejaVuSans-99"/>
      <use x="303.222656" xlink:href="#DejaVuSans-111"/>
      <use x="364.404297" xlink:href="#DejaVuSans-109"/>
      <use x="461.816406" xlink:href="#DejaVuSans-112"/>
      <use x="525.292969" xlink:href="#DejaVuSans-97"/>
      <use x="586.572266" xlink:href="#DejaVuSans-114"/>
      <use x="627.685547" xlink:href="#DejaVuSans-105"/>
      <use x="655.46875" xlink:href="#DejaVuSans-115"/>
      <use x="707.568359" xlink:href="#DejaVuSans-111"/>
      <use x="768.75" xlink:href="#DejaVuSans-110"/>
      <use x="832.128906" xlink:href="#DejaVuSans-115"/>
     </g>
    </g>
    <g id="line2d_41">
     <path d="M 121.119688 266.667187 
L 181.119688 266.667187 
" style="fill:none;stroke:#0652ff;stroke-dasharray:5.55,2.4;stroke-dashoffset:0;stroke-width:1.5;"/>
    </g>
    <g id="line2d_42">
     <g>
      <use style="fill:#0652ff;stroke:#000000;stroke-linejoin:miter;" x="151.119688" xlink:href="#m32c980a099" y="266.667187"/>
     </g>
    </g>
    <g id="text_20">
     <!-- Slim links -->
     <g transform="translate(205.119688 277.167187)scale(0.3 -0.3)">
      <use xlink:href="#DejaVuSans-83"/>
      <use x="63.476562" xlink:href="#DejaVuSans-108"/>
      <use x="91.259766" xlink:href="#DejaVuSans-105"/>
      <use x="119.042969" xlink:href="#DejaVuSans-109"/>
      <use x="216.455078" xlink:href="#DejaVuSans-32"/>
      <use x="248.242188" xlink:href="#DejaVuSans-108"/>
      <use x="276.025391" xlink:href="#DejaVuSans-105"/>
      <use x="303.808594" xlink:href="#DejaVuSans-110"/>
      <use x="367.1875" xlink:href="#DejaVuSans-107"/>
      <use x="425.097656" xlink:href="#DejaVuSans-115"/>
     </g>
    </g>
   </g>
  </g>
 </g>
 <defs>
  <clipPath id="p3423c02639">
   <rect height="997.92" width="892.8" x="94.119688" y="7.2"/>
  </clipPath>
 </defs>
</svg>
