<?xml version="1.0" encoding="utf-8" standalone="no"?>
<!DOCTYPE svg PUBLIC "-//W3C//DTD SVG 1.1//EN"
  "http://www.w3.org/Graphics/SVG/1.1/DTD/svg11.dtd">
<svg height="1091.258319pt" version="1.1" viewBox="0 0 994.119687 1091.258319" width="994.119687pt" xmlns="http://www.w3.org/2000/svg" xmlns:xlink="http://www.w3.org/1999/xlink">
 <metadata>
  <rdf:RDF xmlns:cc="http://creativecommons.org/ns#" xmlns:dc="http://purl.org/dc/elements/1.1/" xmlns:rdf="http://www.w3.org/1999/02/22-rdf-syntax-ns#">
   <cc:Work>
    <dc:type rdf:resource="http://purl.org/dc/dcmitype/StillImage"/>
    <dc:date>2021-06-14T17:15:45.707803</dc:date>
    <dc:format>image/svg+xml</dc:format>
    <dc:creator>
     <cc:Agent>
      <dc:title>Matplotlib v3.4.2, https://matplotlib.org/</dc:title>
     </cc:Agent>
    </dc:creator>
   </cc:Work>
  </rdf:RDF>
 </metadata>
 <defs>
  <style type="text/css">*{stroke-linecap:butt;stroke-linejoin:round;}</style>
 </defs>
 <g id="figure_1">
  <g id="patch_1">
   <path d="M 0 1091.258319 
L 994.119687 1091.258319 
L 994.119687 0 
L 0 0 
z
" style="fill:#ffffff;"/>
  </g>
  <g id="axes_1">
   <g id="patch_2">
    <path d="M 94.119688 1006.279256 
L 986.919688 1006.279256 
L 986.919688 8.359256 
L 94.119688 8.359256 
z
" style="fill:#ffffff;"/>
   </g>
   <g id="PolyCollection_1">
    <defs>
     <path d="M 134.701506 -288.321462 
L 134.701506 -265.900663 
L 177.419209 -322.665463 
L 220.136912 -353.769462 
L 262.854616 -389.020662 
L 305.572319 -391.612662 
L 348.290022 -407.164663 
L 391.007726 -417.403062 
L 433.725429 -433.862262 
L 476.443132 -446.692663 
L 519.160836 -455.505463 
L 561.878539 -457.449463 
L 604.596243 -465.614262 
L 647.313946 -463.281463 
L 690.031649 -466.262262 
L 732.749353 -484.147063 
L 775.467056 -482.851062 
L 818.184759 -480.129462 
L 860.902463 -491.145462 
L 903.620166 -499.439863 
L 946.337869 -489.979062 
L 946.337869 -548.947063 
L 946.337869 -548.947063 
L 903.620166 -534.172662 
L 860.902463 -530.284662 
L 818.184759 -505.660663 
L 775.467056 -523.027063 
L 732.749353 -504.364663 
L 690.031649 -502.031863 
L 647.313946 -514.603063 
L 604.596243 -499.180662 
L 561.878539 -493.348662 
L 519.160836 -488.812663 
L 476.443132 -468.724662 
L 433.725429 -463.929462 
L 391.007726 -450.710262 
L 348.290022 -438.657463 
L 305.572319 -424.401463 
L 262.854616 -412.089462 
L 220.136912 -378.652662 
L 177.419209 -342.364663 
L 134.701506 -288.321462 
z
" id="m6da79ebc86" style="stroke:#fe0002;stroke-opacity:0.3;"/>
    </defs>
    <g clip-path="url(#pbeb1515e76)">
     <use style="fill:#fe0002;fill-opacity:0.3;stroke:#fe0002;stroke-opacity:0.3;" x="0" xlink:href="#m6da79ebc86" y="1091.258319"/>
    </g>
   </g>
   <g id="PolyCollection_2">
    <g clip-path="url(#pbeb1515e76)">
     <use style="fill:#fe0002;fill-opacity:0.3;stroke:#fe0002;stroke-opacity:0.3;" x="0" xlink:href="#m6da79ebc86" y="1091.258319"/>
    </g>
   </g>
   <g id="PolyCollection_3">
    <defs>
     <path d="M 134.701506 -571.367863 
L 134.701506 -542.078262 
L 177.419209 -623.467063 
L 220.136912 -676.343863 
L 262.854616 -719.759863 
L 305.572319 -735.441463 
L 348.290022 -757.732663 
L 391.007726 -759.158263 
L 433.725429 -804.907062 
L 476.443132 -801.148663 
L 519.160836 -820.329463 
L 561.878539 -835.103863 
L 604.596243 -840.028663 
L 647.313946 -845.212663 
L 690.031649 -847.156663 
L 732.749353 -863.745463 
L 775.467056 -872.169463 
L 818.184759 -873.076663 
L 860.902463 -892.646263 
L 903.620166 -893.294263 
L 946.337869 -898.348663 
L 946.337869 -935.414263 
L 946.337869 -935.414263 
L 903.620166 -928.545463 
L 860.902463 -917.011062 
L 818.184759 -906.643063 
L 775.467056 -917.399863 
L 732.749353 -905.995063 
L 690.031649 -891.998263 
L 647.313946 -891.091063 
L 604.596243 -868.799863 
L 561.878539 -863.615863 
L 519.160836 -855.580663 
L 476.443132 -836.529463 
L 433.725429 -826.291063 
L 391.007726 -825.643063 
L 348.290022 -781.579062 
L 305.572319 -772.766263 
L 262.854616 -757.084663 
L 220.136912 -719.111863 
L 177.419209 -669.734263 
L 134.701506 -571.367863 
z
" id="m3df2a5b8bd" style="stroke:#53fca1;stroke-opacity:0.3;"/>
    </defs>
    <g clip-path="url(#pbeb1515e76)">
     <use style="fill:#53fca1;fill-opacity:0.3;stroke:#53fca1;stroke-opacity:0.3;" x="0" xlink:href="#m3df2a5b8bd" y="1091.258319"/>
    </g>
   </g>
   <g id="PolyCollection_4">
    <defs>
     <path d="M 134.701506 -159.239862 
L 134.701506 -143.947062 
L 177.419209 -186.455862 
L 220.136912 -212.116663 
L 262.854616 -232.982262 
L 305.572319 -242.313462 
L 348.290022 -252.681463 
L 391.007726 -253.588662 
L 433.725429 -279.767862 
L 476.443132 -280.027062 
L 519.160836 -288.710262 
L 561.878539 -294.931062 
L 604.596243 -297.652662 
L 647.313946 -300.374263 
L 690.031649 -300.633463 
L 732.749353 -313.723063 
L 775.467056 -316.963062 
L 818.184759 -312.815862 
L 860.902463 -325.646262 
L 903.620166 -327.979062 
L 946.337869 -331.219063 
L 946.337869 -348.067062 
L 946.337869 -348.067062 
L 903.620166 -347.937462 
L 860.902463 -342.364663 
L 818.184759 -330.700663 
L 775.467056 -339.254263 
L 732.749353 -333.681463 
L 690.031649 -325.257462 
L 647.313946 -328.238262 
L 604.596243 -312.038263 
L 561.878539 -309.964662 
L 519.160836 -304.780663 
L 476.443132 -295.190263 
L 433.725429 -291.561463 
L 391.007726 -293.764663 
L 348.290022 -269.399862 
L 305.572319 -264.086263 
L 262.854616 -259.031863 
L 220.136912 -232.204662 
L 177.419209 -209.783862 
L 134.701506 -159.239862 
z
" id="me10b8ad185" style="stroke:#53fca1;stroke-opacity:0.3;"/>
    </defs>
    <g clip-path="url(#pbeb1515e76)">
     <use style="fill:#53fca1;fill-opacity:0.3;stroke:#53fca1;stroke-opacity:0.3;" x="0" xlink:href="#me10b8ad185" y="1091.258319"/>
    </g>
   </g>
   <g id="PolyCollection_5">
    <defs>
     <path d="M 134.701506 -617.375863 
L 134.701506 -580.958263 
L 177.419209 -654.182263 
L 220.136912 -720.019063 
L 262.854616 -754.622263 
L 305.572319 -776.524663 
L 348.290022 -792.076663 
L 391.007726 -813.460663 
L 433.725429 -837.825463 
L 476.443132 -846.379063 
L 519.160836 -873.335863 
L 561.878539 -885.777463 
L 604.596243 -893.423863 
L 647.313946 -905.606263 
L 690.031649 -869.188663 
L 732.749353 -917.659063 
L 775.467056 -938.524663 
L 818.184759 -930.878263 
L 860.902463 -945.134263 
L 903.620166 -928.804663 
L 946.337869 -952.780663 
L 946.337869 -993.604663 
L 946.337869 -993.604663 
L 903.620166 -999.047863 
L 860.902463 -977.534263 
L 818.184759 -958.223863 
L 775.467056 -966.129463 
L 732.749353 -952.521463 
L 690.031649 -953.947063 
L 647.313946 -954.076663 
L 604.596243 -934.377463 
L 561.878539 -912.604663 
L 519.160836 -921.417463 
L 476.443132 -891.609463 
L 433.725429 -884.092663 
L 391.007726 -863.486263 
L 348.290022 -840.028663 
L 305.572319 -819.551863 
L 262.854616 -792.724663 
L 220.136912 -745.420663 
L 177.419209 -696.043063 
L 134.701506 -617.375863 
z
" id="m163ca28573" style="stroke:#0652ff;stroke-opacity:0.3;"/>
    </defs>
    <g clip-path="url(#pbeb1515e76)">
     <use style="fill:#0652ff;fill-opacity:0.3;stroke:#0652ff;stroke-opacity:0.3;" x="0" xlink:href="#m163ca28573" y="1091.258319"/>
    </g>
   </g>
   <g id="PolyCollection_6">
    <defs>
     <path d="M 134.701506 -216.782262 
L 134.701506 -193.843063 
L 177.419209 -235.055862 
L 220.136912 -264.734262 
L 262.854616 -285.340662 
L 305.572319 -297.652662 
L 348.290022 -301.540662 
L 391.007726 -318.259062 
L 433.725429 -327.590263 
L 476.443132 -328.886262 
L 519.160836 -345.345462 
L 561.878539 -350.659063 
L 604.596243 -352.084663 
L 647.313946 -359.990263 
L 690.031649 -342.364663 
L 732.749353 -365.692662 
L 775.467056 -379.430262 
L 818.184759 -375.801463 
L 860.902463 -381.115062 
L 903.620166 -371.524662 
L 946.337869 -382.929462 
L 946.337869 -410.015862 
L 946.337869 -410.015862 
L 903.620166 -408.849463 
L 860.902463 -401.073462 
L 818.184759 -386.687862 
L 775.467056 -393.427063 
L 732.749353 -385.132662 
L 690.031649 -385.003062 
L 647.313946 -390.187062 
L 604.596243 -379.689462 
L 561.878539 -369.580662 
L 519.160836 -375.931062 
L 476.443132 -351.436662 
L 433.725429 -350.659063 
L 391.007726 -341.846262 
L 348.290022 -333.551862 
L 305.572319 -317.092663 
L 262.854616 -309.187062 
L 220.136912 -281.193462 
L 177.419209 -255.662262 
L 134.701506 -216.782262 
z
" id="m2778b255bd" style="stroke:#0652ff;stroke-opacity:0.3;"/>
    </defs>
    <g clip-path="url(#pbeb1515e76)">
     <use style="fill:#0652ff;fill-opacity:0.3;stroke:#0652ff;stroke-opacity:0.3;" x="0" xlink:href="#m2778b255bd" y="1091.258319"/>
    </g>
   </g>
   <g id="PolyCollection_7">
    <defs>
     <path d="M 134.701506 -791.039863 
L 134.701506 -743.217463 
L 177.419209 -815.015863 
L 220.136912 -864.134263 
L 262.854616 -891.739063 
L 305.572319 -911.956663 
L 348.290022 -930.230263 
L 391.007726 -934.377463 
L 433.725429 -950.318262 
L 476.443132 -964.444663 
L 519.160836 -955.113463 
L 561.878539 -976.627063 
L 604.596243 -972.868663 
L 647.313946 -982.459063 
L 690.031649 -986.217463 
L 732.749353 -994.382263 
L 775.467056 -1005.398263 
L 818.184759 -982.718263 
L 860.902463 -996.974263 
L 903.620166 -999.177463 
L 946.337869 -992.567863 
L 946.337869 -1030.151863 
L 946.337869 -1030.151863 
L 903.620166 -1028.467063 
L 860.902463 -1037.539062 
L 818.184759 -1022.116663 
L 775.467056 -1034.428663 
L 732.749353 -1036.891063 
L 690.031649 -1012.915063 
L 647.313946 -1013.044662 
L 604.596243 -1008.508663 
L 561.878539 -1012.267063 
L 519.160836 -1028.985463 
L 476.443132 -981.422262 
L 433.725429 -992.697463 
L 391.007726 -989.587063 
L 348.290022 -959.779063 
L 305.572319 -955.502263 
L 262.854616 -932.303863 
L 220.136912 -915.844663 
L 177.419209 -861.671863 
L 134.701506 -791.039863 
z
" id="mbc23269498" style="stroke:#ae7181;stroke-opacity:0.3;"/>
    </defs>
    <g clip-path="url(#pbeb1515e76)">
     <use style="fill:#ae7181;fill-opacity:0.3;stroke:#ae7181;stroke-opacity:0.3;" x="0" xlink:href="#mbc23269498" y="1091.258319"/>
    </g>
   </g>
   <g id="PolyCollection_8">
    <defs>
     <path d="M 134.701506 -154.250262 
L 134.701506 -130.339063 
L 177.419209 -166.238262 
L 220.136912 -190.797462 
L 262.854616 -204.599862 
L 305.572319 -214.708663 
L 348.290022 -223.845462 
L 391.007726 -225.919062 
L 433.725429 -233.889462 
L 476.443132 -240.952662 
L 519.160836 -236.287062 
L 561.878539 -247.043862 
L 604.596243 -245.164663 
L 647.313946 -249.959863 
L 690.031649 -251.839063 
L 732.749353 -255.921463 
L 775.467056 -261.429462 
L 818.184759 -250.089462 
L 860.902463 -257.217462 
L 903.620166 -258.319062 
L 946.337869 -255.014262 
L 946.337869 -273.806263 
L 946.337869 -273.806263 
L 903.620166 -272.963863 
L 860.902463 -277.499862 
L 818.184759 -269.788662 
L 775.467056 -275.944662 
L 732.749353 -277.175862 
L 690.031649 -265.187862 
L 647.313946 -265.252662 
L 604.596243 -262.984663 
L 561.878539 -264.863863 
L 519.160836 -273.223063 
L 476.443132 -249.441462 
L 433.725429 -255.079062 
L 391.007726 -253.523863 
L 348.290022 -238.619862 
L 305.572319 -236.481462 
L 262.854616 -224.882262 
L 220.136912 -216.652662 
L 177.419209 -189.566262 
L 134.701506 -154.250262 
z
" id="me5b64f5c59" style="stroke:#ae7181;stroke-opacity:0.3;"/>
    </defs>
    <g clip-path="url(#pbeb1515e76)">
     <use style="fill:#ae7181;fill-opacity:0.3;stroke:#ae7181;stroke-opacity:0.3;" x="0" xlink:href="#me5b64f5c59" y="1091.258319"/>
    </g>
   </g>
   <g id="matplotlib.axis_1">
    <g id="xtick_1">
     <g id="line2d_1">
      <path clip-path="url(#pbeb1515e76)" d="M 262.854616 1006.279256 
L 262.854616 8.359256 
" style="fill:none;stroke:#b0b0b0;stroke-linecap:square;stroke-width:0.8;"/>
     </g>
     <g id="line2d_2">
      <defs>
       <path d="M 0 0 
L 0 3.5 
" id="mfc9a687db6" style="stroke:#000000;stroke-width:0.8;"/>
      </defs>
      <g>
       <use style="stroke:#000000;stroke-width:0.8;" x="262.854616" xlink:href="#mfc9a687db6" y="1006.279256"/>
      </g>
     </g>
     <g id="text_1">
      <!-- 0.2 -->
      <g transform="translate(238.999928 1036.074569)scale(0.3 -0.3)">
       <defs>
        <path d="M 2034 4250 
Q 1547 4250 1301 3770 
Q 1056 3291 1056 2328 
Q 1056 1369 1301 889 
Q 1547 409 2034 409 
Q 2525 409 2770 889 
Q 3016 1369 3016 2328 
Q 3016 3291 2770 3770 
Q 2525 4250 2034 4250 
z
M 2034 4750 
Q 2819 4750 3233 4129 
Q 3647 3509 3647 2328 
Q 3647 1150 3233 529 
Q 2819 -91 2034 -91 
Q 1250 -91 836 529 
Q 422 1150 422 2328 
Q 422 3509 836 4129 
Q 1250 4750 2034 4750 
z
" id="DejaVuSans-30" transform="scale(0.015625)"/>
        <path d="M 684 794 
L 1344 794 
L 1344 0 
L 684 0 
L 684 794 
z
" id="DejaVuSans-2e" transform="scale(0.015625)"/>
        <path d="M 1228 531 
L 3431 531 
L 3431 0 
L 469 0 
L 469 531 
Q 828 903 1448 1529 
Q 2069 2156 2228 2338 
Q 2531 2678 2651 2914 
Q 2772 3150 2772 3378 
Q 2772 3750 2511 3984 
Q 2250 4219 1831 4219 
Q 1534 4219 1204 4116 
Q 875 4013 500 3803 
L 500 4441 
Q 881 4594 1212 4672 
Q 1544 4750 1819 4750 
Q 2544 4750 2975 4387 
Q 3406 4025 3406 3419 
Q 3406 3131 3298 2873 
Q 3191 2616 2906 2266 
Q 2828 2175 2409 1742 
Q 1991 1309 1228 531 
z
" id="DejaVuSans-32" transform="scale(0.015625)"/>
       </defs>
       <use xlink:href="#DejaVuSans-30"/>
       <use x="63.623047" xlink:href="#DejaVuSans-2e"/>
       <use x="95.410156" xlink:href="#DejaVuSans-32"/>
      </g>
     </g>
    </g>
    <g id="xtick_2">
     <g id="line2d_3">
      <path clip-path="url(#pbeb1515e76)" d="M 433.725429 1006.279256 
L 433.725429 8.359256 
" style="fill:none;stroke:#b0b0b0;stroke-linecap:square;stroke-width:0.8;"/>
     </g>
     <g id="line2d_4">
      <g>
       <use style="stroke:#000000;stroke-width:0.8;" x="433.725429" xlink:href="#mfc9a687db6" y="1006.279256"/>
      </g>
     </g>
     <g id="text_2">
      <!-- 0.4 -->
      <g transform="translate(409.870742 1036.074569)scale(0.3 -0.3)">
       <defs>
        <path d="M 2419 4116 
L 825 1625 
L 2419 1625 
L 2419 4116 
z
M 2253 4666 
L 3047 4666 
L 3047 1625 
L 3713 1625 
L 3713 1100 
L 3047 1100 
L 3047 0 
L 2419 0 
L 2419 1100 
L 313 1100 
L 313 1709 
L 2253 4666 
z
" id="DejaVuSans-34" transform="scale(0.015625)"/>
       </defs>
       <use xlink:href="#DejaVuSans-30"/>
       <use x="63.623047" xlink:href="#DejaVuSans-2e"/>
       <use x="95.410156" xlink:href="#DejaVuSans-34"/>
      </g>
     </g>
    </g>
    <g id="xtick_3">
     <g id="line2d_5">
      <path clip-path="url(#pbeb1515e76)" d="M 604.596243 1006.279256 
L 604.596243 8.359256 
" style="fill:none;stroke:#b0b0b0;stroke-linecap:square;stroke-width:0.8;"/>
     </g>
     <g id="line2d_6">
      <g>
       <use style="stroke:#000000;stroke-width:0.8;" x="604.596243" xlink:href="#mfc9a687db6" y="1006.279256"/>
      </g>
     </g>
     <g id="text_3">
      <!-- 0.6 -->
      <g transform="translate(580.741555 1036.074569)scale(0.3 -0.3)">
       <defs>
        <path d="M 2113 2584 
Q 1688 2584 1439 2293 
Q 1191 2003 1191 1497 
Q 1191 994 1439 701 
Q 1688 409 2113 409 
Q 2538 409 2786 701 
Q 3034 994 3034 1497 
Q 3034 2003 2786 2293 
Q 2538 2584 2113 2584 
z
M 3366 4563 
L 3366 3988 
Q 3128 4100 2886 4159 
Q 2644 4219 2406 4219 
Q 1781 4219 1451 3797 
Q 1122 3375 1075 2522 
Q 1259 2794 1537 2939 
Q 1816 3084 2150 3084 
Q 2853 3084 3261 2657 
Q 3669 2231 3669 1497 
Q 3669 778 3244 343 
Q 2819 -91 2113 -91 
Q 1303 -91 875 529 
Q 447 1150 447 2328 
Q 447 3434 972 4092 
Q 1497 4750 2381 4750 
Q 2619 4750 2861 4703 
Q 3103 4656 3366 4563 
z
" id="DejaVuSans-36" transform="scale(0.015625)"/>
       </defs>
       <use xlink:href="#DejaVuSans-30"/>
       <use x="63.623047" xlink:href="#DejaVuSans-2e"/>
       <use x="95.410156" xlink:href="#DejaVuSans-36"/>
      </g>
     </g>
    </g>
    <g id="xtick_4">
     <g id="line2d_7">
      <path clip-path="url(#pbeb1515e76)" d="M 775.467056 1006.279256 
L 775.467056 8.359256 
" style="fill:none;stroke:#b0b0b0;stroke-linecap:square;stroke-width:0.8;"/>
     </g>
     <g id="line2d_8">
      <g>
       <use style="stroke:#000000;stroke-width:0.8;" x="775.467056" xlink:href="#mfc9a687db6" y="1006.279256"/>
      </g>
     </g>
     <g id="text_4">
      <!-- 0.8 -->
      <g transform="translate(751.612368 1036.074569)scale(0.3 -0.3)">
       <defs>
        <path d="M 2034 2216 
Q 1584 2216 1326 1975 
Q 1069 1734 1069 1313 
Q 1069 891 1326 650 
Q 1584 409 2034 409 
Q 2484 409 2743 651 
Q 3003 894 3003 1313 
Q 3003 1734 2745 1975 
Q 2488 2216 2034 2216 
z
M 1403 2484 
Q 997 2584 770 2862 
Q 544 3141 544 3541 
Q 544 4100 942 4425 
Q 1341 4750 2034 4750 
Q 2731 4750 3128 4425 
Q 3525 4100 3525 3541 
Q 3525 3141 3298 2862 
Q 3072 2584 2669 2484 
Q 3125 2378 3379 2068 
Q 3634 1759 3634 1313 
Q 3634 634 3220 271 
Q 2806 -91 2034 -91 
Q 1263 -91 848 271 
Q 434 634 434 1313 
Q 434 1759 690 2068 
Q 947 2378 1403 2484 
z
M 1172 3481 
Q 1172 3119 1398 2916 
Q 1625 2713 2034 2713 
Q 2441 2713 2670 2916 
Q 2900 3119 2900 3481 
Q 2900 3844 2670 4047 
Q 2441 4250 2034 4250 
Q 1625 4250 1398 4047 
Q 1172 3844 1172 3481 
z
" id="DejaVuSans-38" transform="scale(0.015625)"/>
       </defs>
       <use xlink:href="#DejaVuSans-30"/>
       <use x="63.623047" xlink:href="#DejaVuSans-2e"/>
       <use x="95.410156" xlink:href="#DejaVuSans-38"/>
      </g>
     </g>
    </g>
    <g id="xtick_5">
     <g id="line2d_9">
      <path clip-path="url(#pbeb1515e76)" d="M 946.337869 1006.279256 
L 946.337869 8.359256 
" style="fill:none;stroke:#b0b0b0;stroke-linecap:square;stroke-width:0.8;"/>
     </g>
     <g id="line2d_10">
      <g>
       <use style="stroke:#000000;stroke-width:0.8;" x="946.337869" xlink:href="#mfc9a687db6" y="1006.279256"/>
      </g>
     </g>
     <g id="text_5">
      <!-- 1.0 -->
      <g transform="translate(922.483182 1036.074569)scale(0.3 -0.3)">
       <defs>
        <path d="M 794 531 
L 1825 531 
L 1825 4091 
L 703 3866 
L 703 4441 
L 1819 4666 
L 2450 4666 
L 2450 531 
L 3481 531 
L 3481 0 
L 794 0 
L 794 531 
z
" id="DejaVuSans-31" transform="scale(0.015625)"/>
       </defs>
       <use xlink:href="#DejaVuSans-31"/>
       <use x="63.623047" xlink:href="#DejaVuSans-2e"/>
       <use x="95.410156" xlink:href="#DejaVuSans-30"/>
      </g>
     </g>
    </g>
    <g id="text_6">
     <!-- Edge probability -->
     <g transform="translate(381.207734 1075.947537)scale(0.39 -0.39)">
      <defs>
       <path d="M 628 4666 
L 3578 4666 
L 3578 4134 
L 1259 4134 
L 1259 2753 
L 3481 2753 
L 3481 2222 
L 1259 2222 
L 1259 531 
L 3634 531 
L 3634 0 
L 628 0 
L 628 4666 
z
" id="DejaVuSans-45" transform="scale(0.015625)"/>
       <path d="M 2906 2969 
L 2906 4863 
L 3481 4863 
L 3481 0 
L 2906 0 
L 2906 525 
Q 2725 213 2448 61 
Q 2172 -91 1784 -91 
Q 1150 -91 751 415 
Q 353 922 353 1747 
Q 353 2572 751 3078 
Q 1150 3584 1784 3584 
Q 2172 3584 2448 3432 
Q 2725 3281 2906 2969 
z
M 947 1747 
Q 947 1113 1208 752 
Q 1469 391 1925 391 
Q 2381 391 2643 752 
Q 2906 1113 2906 1747 
Q 2906 2381 2643 2742 
Q 2381 3103 1925 3103 
Q 1469 3103 1208 2742 
Q 947 2381 947 1747 
z
" id="DejaVuSans-64" transform="scale(0.015625)"/>
       <path d="M 2906 1791 
Q 2906 2416 2648 2759 
Q 2391 3103 1925 3103 
Q 1463 3103 1205 2759 
Q 947 2416 947 1791 
Q 947 1169 1205 825 
Q 1463 481 1925 481 
Q 2391 481 2648 825 
Q 2906 1169 2906 1791 
z
M 3481 434 
Q 3481 -459 3084 -895 
Q 2688 -1331 1869 -1331 
Q 1566 -1331 1297 -1286 
Q 1028 -1241 775 -1147 
L 775 -588 
Q 1028 -725 1275 -790 
Q 1522 -856 1778 -856 
Q 2344 -856 2625 -561 
Q 2906 -266 2906 331 
L 2906 616 
Q 2728 306 2450 153 
Q 2172 0 1784 0 
Q 1141 0 747 490 
Q 353 981 353 1791 
Q 353 2603 747 3093 
Q 1141 3584 1784 3584 
Q 2172 3584 2450 3431 
Q 2728 3278 2906 2969 
L 2906 3500 
L 3481 3500 
L 3481 434 
z
" id="DejaVuSans-67" transform="scale(0.015625)"/>
       <path d="M 3597 1894 
L 3597 1613 
L 953 1613 
Q 991 1019 1311 708 
Q 1631 397 2203 397 
Q 2534 397 2845 478 
Q 3156 559 3463 722 
L 3463 178 
Q 3153 47 2828 -22 
Q 2503 -91 2169 -91 
Q 1331 -91 842 396 
Q 353 884 353 1716 
Q 353 2575 817 3079 
Q 1281 3584 2069 3584 
Q 2775 3584 3186 3129 
Q 3597 2675 3597 1894 
z
M 3022 2063 
Q 3016 2534 2758 2815 
Q 2500 3097 2075 3097 
Q 1594 3097 1305 2825 
Q 1016 2553 972 2059 
L 3022 2063 
z
" id="DejaVuSans-65" transform="scale(0.015625)"/>
       <path id="DejaVuSans-20" transform="scale(0.015625)"/>
       <path d="M 1159 525 
L 1159 -1331 
L 581 -1331 
L 581 3500 
L 1159 3500 
L 1159 2969 
Q 1341 3281 1617 3432 
Q 1894 3584 2278 3584 
Q 2916 3584 3314 3078 
Q 3713 2572 3713 1747 
Q 3713 922 3314 415 
Q 2916 -91 2278 -91 
Q 1894 -91 1617 61 
Q 1341 213 1159 525 
z
M 3116 1747 
Q 3116 2381 2855 2742 
Q 2594 3103 2138 3103 
Q 1681 3103 1420 2742 
Q 1159 2381 1159 1747 
Q 1159 1113 1420 752 
Q 1681 391 2138 391 
Q 2594 391 2855 752 
Q 3116 1113 3116 1747 
z
" id="DejaVuSans-70" transform="scale(0.015625)"/>
       <path d="M 2631 2963 
Q 2534 3019 2420 3045 
Q 2306 3072 2169 3072 
Q 1681 3072 1420 2755 
Q 1159 2438 1159 1844 
L 1159 0 
L 581 0 
L 581 3500 
L 1159 3500 
L 1159 2956 
Q 1341 3275 1631 3429 
Q 1922 3584 2338 3584 
Q 2397 3584 2469 3576 
Q 2541 3569 2628 3553 
L 2631 2963 
z
" id="DejaVuSans-72" transform="scale(0.015625)"/>
       <path d="M 1959 3097 
Q 1497 3097 1228 2736 
Q 959 2375 959 1747 
Q 959 1119 1226 758 
Q 1494 397 1959 397 
Q 2419 397 2687 759 
Q 2956 1122 2956 1747 
Q 2956 2369 2687 2733 
Q 2419 3097 1959 3097 
z
M 1959 3584 
Q 2709 3584 3137 3096 
Q 3566 2609 3566 1747 
Q 3566 888 3137 398 
Q 2709 -91 1959 -91 
Q 1206 -91 779 398 
Q 353 888 353 1747 
Q 353 2609 779 3096 
Q 1206 3584 1959 3584 
z
" id="DejaVuSans-6f" transform="scale(0.015625)"/>
       <path d="M 3116 1747 
Q 3116 2381 2855 2742 
Q 2594 3103 2138 3103 
Q 1681 3103 1420 2742 
Q 1159 2381 1159 1747 
Q 1159 1113 1420 752 
Q 1681 391 2138 391 
Q 2594 391 2855 752 
Q 3116 1113 3116 1747 
z
M 1159 2969 
Q 1341 3281 1617 3432 
Q 1894 3584 2278 3584 
Q 2916 3584 3314 3078 
Q 3713 2572 3713 1747 
Q 3713 922 3314 415 
Q 2916 -91 2278 -91 
Q 1894 -91 1617 61 
Q 1341 213 1159 525 
L 1159 0 
L 581 0 
L 581 4863 
L 1159 4863 
L 1159 2969 
z
" id="DejaVuSans-62" transform="scale(0.015625)"/>
       <path d="M 2194 1759 
Q 1497 1759 1228 1600 
Q 959 1441 959 1056 
Q 959 750 1161 570 
Q 1363 391 1709 391 
Q 2188 391 2477 730 
Q 2766 1069 2766 1631 
L 2766 1759 
L 2194 1759 
z
M 3341 1997 
L 3341 0 
L 2766 0 
L 2766 531 
Q 2569 213 2275 61 
Q 1981 -91 1556 -91 
Q 1019 -91 701 211 
Q 384 513 384 1019 
Q 384 1609 779 1909 
Q 1175 2209 1959 2209 
L 2766 2209 
L 2766 2266 
Q 2766 2663 2505 2880 
Q 2244 3097 1772 3097 
Q 1472 3097 1187 3025 
Q 903 2953 641 2809 
L 641 3341 
Q 956 3463 1253 3523 
Q 1550 3584 1831 3584 
Q 2591 3584 2966 3190 
Q 3341 2797 3341 1997 
z
" id="DejaVuSans-61" transform="scale(0.015625)"/>
       <path d="M 603 3500 
L 1178 3500 
L 1178 0 
L 603 0 
L 603 3500 
z
M 603 4863 
L 1178 4863 
L 1178 4134 
L 603 4134 
L 603 4863 
z
" id="DejaVuSans-69" transform="scale(0.015625)"/>
       <path d="M 603 4863 
L 1178 4863 
L 1178 0 
L 603 0 
L 603 4863 
z
" id="DejaVuSans-6c" transform="scale(0.015625)"/>
       <path d="M 1172 4494 
L 1172 3500 
L 2356 3500 
L 2356 3053 
L 1172 3053 
L 1172 1153 
Q 1172 725 1289 603 
Q 1406 481 1766 481 
L 2356 481 
L 2356 0 
L 1766 0 
Q 1100 0 847 248 
Q 594 497 594 1153 
L 594 3053 
L 172 3053 
L 172 3500 
L 594 3500 
L 594 4494 
L 1172 4494 
z
" id="DejaVuSans-74" transform="scale(0.015625)"/>
       <path d="M 2059 -325 
Q 1816 -950 1584 -1140 
Q 1353 -1331 966 -1331 
L 506 -1331 
L 506 -850 
L 844 -850 
Q 1081 -850 1212 -737 
Q 1344 -625 1503 -206 
L 1606 56 
L 191 3500 
L 800 3500 
L 1894 763 
L 2988 3500 
L 3597 3500 
L 2059 -325 
z
" id="DejaVuSans-79" transform="scale(0.015625)"/>
      </defs>
      <use xlink:href="#DejaVuSans-45"/>
      <use x="63.183594" xlink:href="#DejaVuSans-64"/>
      <use x="126.660156" xlink:href="#DejaVuSans-67"/>
      <use x="190.136719" xlink:href="#DejaVuSans-65"/>
      <use x="251.660156" xlink:href="#DejaVuSans-20"/>
      <use x="283.447266" xlink:href="#DejaVuSans-70"/>
      <use x="346.923828" xlink:href="#DejaVuSans-72"/>
      <use x="385.787109" xlink:href="#DejaVuSans-6f"/>
      <use x="446.96875" xlink:href="#DejaVuSans-62"/>
      <use x="510.445312" xlink:href="#DejaVuSans-61"/>
      <use x="571.724609" xlink:href="#DejaVuSans-62"/>
      <use x="635.201172" xlink:href="#DejaVuSans-69"/>
      <use x="662.984375" xlink:href="#DejaVuSans-6c"/>
      <use x="690.767578" xlink:href="#DejaVuSans-69"/>
      <use x="718.550781" xlink:href="#DejaVuSans-74"/>
      <use x="757.759766" xlink:href="#DejaVuSans-79"/>
     </g>
    </g>
   </g>
   <g id="matplotlib.axis_2">
    <g id="ytick_1">
     <g id="line2d_11">
      <path clip-path="url(#pbeb1515e76)" d="M 94.119688 925.797656 
L 986.919688 925.797656 
" style="fill:none;stroke:#b0b0b0;stroke-linecap:square;stroke-width:0.8;"/>
     </g>
     <g id="line2d_12">
      <defs>
       <path d="M 0 0 
L -3.5 0 
" id="mb4c53239ba" style="stroke:#000000;stroke-width:0.8;"/>
      </defs>
      <g>
       <use style="stroke:#000000;stroke-width:0.8;" x="94.119688" xlink:href="#mb4c53239ba" y="925.797656"/>
      </g>
     </g>
     <g id="text_7">
      <!-- 10 -->
      <g transform="translate(48.944688 937.195312)scale(0.3 -0.3)">
       <use xlink:href="#DejaVuSans-31"/>
       <use x="63.623047" xlink:href="#DejaVuSans-30"/>
      </g>
     </g>
    </g>
    <g id="ytick_2">
     <g id="line2d_13">
      <path clip-path="url(#pbeb1515e76)" d="M 94.119688 796.197656 
L 986.919688 796.197656 
" style="fill:none;stroke:#b0b0b0;stroke-linecap:square;stroke-width:0.8;"/>
     </g>
     <g id="line2d_14">
      <g>
       <use style="stroke:#000000;stroke-width:0.8;" x="94.119688" xlink:href="#mb4c53239ba" y="796.197656"/>
      </g>
     </g>
     <g id="text_8">
      <!-- 12 -->
      <g transform="translate(48.944688 807.595312)scale(0.3 -0.3)">
       <use xlink:href="#DejaVuSans-31"/>
       <use x="63.623047" xlink:href="#DejaVuSans-32"/>
      </g>
     </g>
    </g>
    <g id="ytick_3">
     <g id="line2d_15">
      <path clip-path="url(#pbeb1515e76)" d="M 94.119688 666.597656 
L 986.919688 666.597656 
" style="fill:none;stroke:#b0b0b0;stroke-linecap:square;stroke-width:0.8;"/>
     </g>
     <g id="line2d_16">
      <g>
       <use style="stroke:#000000;stroke-width:0.8;" x="94.119688" xlink:href="#mb4c53239ba" y="666.597656"/>
      </g>
     </g>
     <g id="text_9">
      <!-- 14 -->
      <g transform="translate(48.944688 677.995312)scale(0.3 -0.3)">
       <use xlink:href="#DejaVuSans-31"/>
       <use x="63.623047" xlink:href="#DejaVuSans-34"/>
      </g>
     </g>
    </g>
    <g id="ytick_4">
     <g id="line2d_17">
      <path clip-path="url(#pbeb1515e76)" d="M 94.119688 536.997656 
L 986.919688 536.997656 
" style="fill:none;stroke:#b0b0b0;stroke-linecap:square;stroke-width:0.8;"/>
     </g>
     <g id="line2d_18">
      <g>
       <use style="stroke:#000000;stroke-width:0.8;" x="94.119688" xlink:href="#mb4c53239ba" y="536.997656"/>
      </g>
     </g>
     <g id="text_10">
      <!-- 16 -->
      <g transform="translate(48.944688 548.395312)scale(0.3 -0.3)">
       <use xlink:href="#DejaVuSans-31"/>
       <use x="63.623047" xlink:href="#DejaVuSans-36"/>
      </g>
     </g>
    </g>
    <g id="ytick_5">
     <g id="line2d_19">
      <path clip-path="url(#pbeb1515e76)" d="M 94.119688 407.397656 
L 986.919688 407.397656 
" style="fill:none;stroke:#b0b0b0;stroke-linecap:square;stroke-width:0.8;"/>
     </g>
     <g id="line2d_20">
      <g>
       <use style="stroke:#000000;stroke-width:0.8;" x="94.119688" xlink:href="#mb4c53239ba" y="407.397656"/>
      </g>
     </g>
     <g id="text_11">
      <!-- 18 -->
      <g transform="translate(48.944688 418.795312)scale(0.3 -0.3)">
       <use xlink:href="#DejaVuSans-31"/>
       <use x="63.623047" xlink:href="#DejaVuSans-38"/>
      </g>
     </g>
    </g>
    <g id="ytick_6">
     <g id="line2d_21">
      <path clip-path="url(#pbeb1515e76)" d="M 94.119688 277.797656 
L 986.919688 277.797656 
" style="fill:none;stroke:#b0b0b0;stroke-linecap:square;stroke-width:0.8;"/>
     </g>
     <g id="line2d_22">
      <g>
       <use style="stroke:#000000;stroke-width:0.8;" x="94.119688" xlink:href="#mb4c53239ba" y="277.797656"/>
      </g>
     </g>
     <g id="text_12">
      <!-- 20 -->
      <g transform="translate(48.944688 289.195312)scale(0.3 -0.3)">
       <use xlink:href="#DejaVuSans-32"/>
       <use x="63.623047" xlink:href="#DejaVuSans-30"/>
      </g>
     </g>
    </g>
    <g id="ytick_7">
     <g id="line2d_23">
      <path clip-path="url(#pbeb1515e76)" d="M 94.119688 148.197656 
L 986.919688 148.197656 
" style="fill:none;stroke:#b0b0b0;stroke-linecap:square;stroke-width:0.8;"/>
     </g>
     <g id="line2d_24">
      <g>
       <use style="stroke:#000000;stroke-width:0.8;" x="94.119688" xlink:href="#mb4c53239ba" y="148.197656"/>
      </g>
     </g>
     <g id="text_13">
      <!-- 22 -->
      <g transform="translate(48.944688 159.595312)scale(0.3 -0.3)">
       <use xlink:href="#DejaVuSans-32"/>
       <use x="63.623047" xlink:href="#DejaVuSans-32"/>
      </g>
     </g>
    </g>
    <g id="ytick_8">
     <g id="line2d_25">
      <path clip-path="url(#pbeb1515e76)" d="M 94.119688 18.597656 
L 986.919688 18.597656 
" style="fill:none;stroke:#b0b0b0;stroke-linecap:square;stroke-width:0.8;"/>
     </g>
     <g id="line2d_26">
      <g>
       <use style="stroke:#000000;stroke-width:0.8;" x="94.119688" xlink:href="#mb4c53239ba" y="18.597656"/>
      </g>
     </g>
     <g id="text_14">
      <!-- 24 -->
      <g transform="translate(48.944688 29.995312)scale(0.3 -0.3)">
       <use xlink:href="#DejaVuSans-32"/>
       <use x="63.623047" xlink:href="#DejaVuSans-34"/>
      </g>
     </g>
    </g>
    <g id="text_15">
     <!-- Avg. number of operations / size -->
     <g transform="translate(36.833906 823.682381)rotate(-90)scale(0.39 -0.39)">
      <defs>
       <path d="M 2188 4044 
L 1331 1722 
L 3047 1722 
L 2188 4044 
z
M 1831 4666 
L 2547 4666 
L 4325 0 
L 3669 0 
L 3244 1197 
L 1141 1197 
L 716 0 
L 50 0 
L 1831 4666 
z
" id="DejaVuSans-41" transform="scale(0.015625)"/>
       <path d="M 191 3500 
L 800 3500 
L 1894 563 
L 2988 3500 
L 3597 3500 
L 2284 0 
L 1503 0 
L 191 3500 
z
" id="DejaVuSans-76" transform="scale(0.015625)"/>
       <path d="M 3513 2113 
L 3513 0 
L 2938 0 
L 2938 2094 
Q 2938 2591 2744 2837 
Q 2550 3084 2163 3084 
Q 1697 3084 1428 2787 
Q 1159 2491 1159 1978 
L 1159 0 
L 581 0 
L 581 3500 
L 1159 3500 
L 1159 2956 
Q 1366 3272 1645 3428 
Q 1925 3584 2291 3584 
Q 2894 3584 3203 3211 
Q 3513 2838 3513 2113 
z
" id="DejaVuSans-6e" transform="scale(0.015625)"/>
       <path d="M 544 1381 
L 544 3500 
L 1119 3500 
L 1119 1403 
Q 1119 906 1312 657 
Q 1506 409 1894 409 
Q 2359 409 2629 706 
Q 2900 1003 2900 1516 
L 2900 3500 
L 3475 3500 
L 3475 0 
L 2900 0 
L 2900 538 
Q 2691 219 2414 64 
Q 2138 -91 1772 -91 
Q 1169 -91 856 284 
Q 544 659 544 1381 
z
M 1991 3584 
L 1991 3584 
z
" id="DejaVuSans-75" transform="scale(0.015625)"/>
       <path d="M 3328 2828 
Q 3544 3216 3844 3400 
Q 4144 3584 4550 3584 
Q 5097 3584 5394 3201 
Q 5691 2819 5691 2113 
L 5691 0 
L 5113 0 
L 5113 2094 
Q 5113 2597 4934 2840 
Q 4756 3084 4391 3084 
Q 3944 3084 3684 2787 
Q 3425 2491 3425 1978 
L 3425 0 
L 2847 0 
L 2847 2094 
Q 2847 2600 2669 2842 
Q 2491 3084 2119 3084 
Q 1678 3084 1418 2786 
Q 1159 2488 1159 1978 
L 1159 0 
L 581 0 
L 581 3500 
L 1159 3500 
L 1159 2956 
Q 1356 3278 1631 3431 
Q 1906 3584 2284 3584 
Q 2666 3584 2933 3390 
Q 3200 3197 3328 2828 
z
" id="DejaVuSans-6d" transform="scale(0.015625)"/>
       <path d="M 2375 4863 
L 2375 4384 
L 1825 4384 
Q 1516 4384 1395 4259 
Q 1275 4134 1275 3809 
L 1275 3500 
L 2222 3500 
L 2222 3053 
L 1275 3053 
L 1275 0 
L 697 0 
L 697 3053 
L 147 3053 
L 147 3500 
L 697 3500 
L 697 3744 
Q 697 4328 969 4595 
Q 1241 4863 1831 4863 
L 2375 4863 
z
" id="DejaVuSans-66" transform="scale(0.015625)"/>
       <path d="M 2834 3397 
L 2834 2853 
Q 2591 2978 2328 3040 
Q 2066 3103 1784 3103 
Q 1356 3103 1142 2972 
Q 928 2841 928 2578 
Q 928 2378 1081 2264 
Q 1234 2150 1697 2047 
L 1894 2003 
Q 2506 1872 2764 1633 
Q 3022 1394 3022 966 
Q 3022 478 2636 193 
Q 2250 -91 1575 -91 
Q 1294 -91 989 -36 
Q 684 19 347 128 
L 347 722 
Q 666 556 975 473 
Q 1284 391 1588 391 
Q 1994 391 2212 530 
Q 2431 669 2431 922 
Q 2431 1156 2273 1281 
Q 2116 1406 1581 1522 
L 1381 1569 
Q 847 1681 609 1914 
Q 372 2147 372 2553 
Q 372 3047 722 3315 
Q 1072 3584 1716 3584 
Q 2034 3584 2315 3537 
Q 2597 3491 2834 3397 
z
" id="DejaVuSans-73" transform="scale(0.015625)"/>
       <path d="M 1625 4666 
L 2156 4666 
L 531 -594 
L 0 -594 
L 1625 4666 
z
" id="DejaVuSans-2f" transform="scale(0.015625)"/>
       <path d="M 353 3500 
L 3084 3500 
L 3084 2975 
L 922 459 
L 3084 459 
L 3084 0 
L 275 0 
L 275 525 
L 2438 3041 
L 353 3041 
L 353 3500 
z
" id="DejaVuSans-7a" transform="scale(0.015625)"/>
      </defs>
      <use xlink:href="#DejaVuSans-41"/>
      <use x="62.533203" xlink:href="#DejaVuSans-76"/>
      <use x="121.712891" xlink:href="#DejaVuSans-67"/>
      <use x="185.189453" xlink:href="#DejaVuSans-2e"/>
      <use x="216.976562" xlink:href="#DejaVuSans-20"/>
      <use x="248.763672" xlink:href="#DejaVuSans-6e"/>
      <use x="312.142578" xlink:href="#DejaVuSans-75"/>
      <use x="375.521484" xlink:href="#DejaVuSans-6d"/>
      <use x="472.933594" xlink:href="#DejaVuSans-62"/>
      <use x="536.410156" xlink:href="#DejaVuSans-65"/>
      <use x="597.933594" xlink:href="#DejaVuSans-72"/>
      <use x="639.046875" xlink:href="#DejaVuSans-20"/>
      <use x="670.833984" xlink:href="#DejaVuSans-6f"/>
      <use x="732.015625" xlink:href="#DejaVuSans-66"/>
      <use x="767.220703" xlink:href="#DejaVuSans-20"/>
      <use x="799.007812" xlink:href="#DejaVuSans-6f"/>
      <use x="860.189453" xlink:href="#DejaVuSans-70"/>
      <use x="923.666016" xlink:href="#DejaVuSans-65"/>
      <use x="985.189453" xlink:href="#DejaVuSans-72"/>
      <use x="1026.302734" xlink:href="#DejaVuSans-61"/>
      <use x="1087.582031" xlink:href="#DejaVuSans-74"/>
      <use x="1126.791016" xlink:href="#DejaVuSans-69"/>
      <use x="1154.574219" xlink:href="#DejaVuSans-6f"/>
      <use x="1215.755859" xlink:href="#DejaVuSans-6e"/>
      <use x="1279.134766" xlink:href="#DejaVuSans-73"/>
      <use x="1331.234375" xlink:href="#DejaVuSans-20"/>
      <use x="1363.021484" xlink:href="#DejaVuSans-2f"/>
      <use x="1396.712891" xlink:href="#DejaVuSans-20"/>
      <use x="1428.5" xlink:href="#DejaVuSans-73"/>
      <use x="1480.599609" xlink:href="#DejaVuSans-69"/>
      <use x="1508.382812" xlink:href="#DejaVuSans-7a"/>
      <use x="1560.873047" xlink:href="#DejaVuSans-65"/>
     </g>
    </g>
   </g>
   <g id="line2d_27">
    <path clip-path="url(#pbeb1515e76)" d="M 134.701506 812.086616 
L 177.419209 758.134136 
L 220.136912 724.865816 
L 262.854616 696.379736 
L 305.572319 682.992056 
L 348.290022 667.349336 
L 391.007726 656.748056 
L 433.725429 639.407576 
L 476.443132 629.635736 
L 519.160836 622.689176 
L 561.878539 616.960856 
L 604.596243 609.988376 
L 647.313946 604.480376 
L 690.031649 603.067736 
L 732.749353 598.544696 
L 775.467056 585.727256 
L 818.184759 595.460216 
L 860.902463 579.778616 
L 903.620166 578.184536 
L 946.337869 571.639736 
" style="fill:none;stroke:#fe0002;stroke-linecap:square;stroke-width:1.5;"/>
    <defs>
     <path d="M 0 4.5 
C 1.193414 4.5 2.338109 4.025852 3.181981 3.181981 
C 4.025852 2.338109 4.5 1.193414 4.5 0 
C 4.5 -1.193414 4.025852 -2.338109 3.181981 -3.181981 
C 2.338109 -4.025852 1.193414 -4.5 0 -4.5 
C -1.193414 -4.5 -2.338109 -4.025852 -3.181981 -3.181981 
C -4.025852 -2.338109 -4.5 -1.193414 -4.5 0 
C -4.5 1.193414 -4.025852 2.338109 -3.181981 3.181981 
C -2.338109 4.025852 -1.193414 4.5 0 4.5 
z
" id="mfc3828dec5" style="stroke:#000000;"/>
    </defs>
    <g clip-path="url(#pbeb1515e76)">
     <use style="fill:#fe0002;stroke:#000000;" x="134.701506" xlink:href="#mfc3828dec5" y="812.086616"/>
     <use style="fill:#fe0002;stroke:#000000;" x="177.419209" xlink:href="#mfc3828dec5" y="758.134136"/>
     <use style="fill:#fe0002;stroke:#000000;" x="220.136912" xlink:href="#mfc3828dec5" y="724.865816"/>
     <use style="fill:#fe0002;stroke:#000000;" x="262.854616" xlink:href="#mfc3828dec5" y="696.379736"/>
     <use style="fill:#fe0002;stroke:#000000;" x="305.572319" xlink:href="#mfc3828dec5" y="682.992056"/>
     <use style="fill:#fe0002;stroke:#000000;" x="348.290022" xlink:href="#mfc3828dec5" y="667.349336"/>
     <use style="fill:#fe0002;stroke:#000000;" x="391.007726" xlink:href="#mfc3828dec5" y="656.748056"/>
     <use style="fill:#fe0002;stroke:#000000;" x="433.725429" xlink:href="#mfc3828dec5" y="639.407576"/>
     <use style="fill:#fe0002;stroke:#000000;" x="476.443132" xlink:href="#mfc3828dec5" y="629.635736"/>
     <use style="fill:#fe0002;stroke:#000000;" x="519.160836" xlink:href="#mfc3828dec5" y="622.689176"/>
     <use style="fill:#fe0002;stroke:#000000;" x="561.878539" xlink:href="#mfc3828dec5" y="616.960856"/>
     <use style="fill:#fe0002;stroke:#000000;" x="604.596243" xlink:href="#mfc3828dec5" y="609.988376"/>
     <use style="fill:#fe0002;stroke:#000000;" x="647.313946" xlink:href="#mfc3828dec5" y="604.480376"/>
     <use style="fill:#fe0002;stroke:#000000;" x="690.031649" xlink:href="#mfc3828dec5" y="603.067736"/>
     <use style="fill:#fe0002;stroke:#000000;" x="732.749353" xlink:href="#mfc3828dec5" y="598.544696"/>
     <use style="fill:#fe0002;stroke:#000000;" x="775.467056" xlink:href="#mfc3828dec5" y="585.727256"/>
     <use style="fill:#fe0002;stroke:#000000;" x="818.184759" xlink:href="#mfc3828dec5" y="595.460216"/>
     <use style="fill:#fe0002;stroke:#000000;" x="860.902463" xlink:href="#mfc3828dec5" y="579.778616"/>
     <use style="fill:#fe0002;stroke:#000000;" x="903.620166" xlink:href="#mfc3828dec5" y="578.184536"/>
     <use style="fill:#fe0002;stroke:#000000;" x="946.337869" xlink:href="#mfc3828dec5" y="571.639736"/>
    </g>
   </g>
   <g id="line2d_28">
    <path clip-path="url(#pbeb1515e76)" d="M 134.701506 812.086616 
L 177.419209 758.134136 
L 220.136912 724.865816 
L 262.854616 696.379736 
L 305.572319 682.992056 
L 348.290022 667.349336 
L 391.007726 656.748056 
L 433.725429 639.407576 
L 476.443132 629.635736 
L 519.160836 622.689176 
L 561.878539 616.960856 
L 604.596243 609.988376 
L 647.313946 604.480376 
L 690.031649 603.067736 
L 732.749353 598.544696 
L 775.467056 585.727256 
L 818.184759 595.460216 
L 860.902463 579.778616 
L 903.620166 578.184536 
L 946.337869 571.639736 
" style="fill:none;stroke:#fe0002;stroke-dasharray:5.55,2.4;stroke-dashoffset:0;stroke-width:1.5;"/>
    <g clip-path="url(#pbeb1515e76)">
     <use style="fill:#fe0002;stroke:#000000;" x="134.701506" xlink:href="#mfc3828dec5" y="812.086616"/>
     <use style="fill:#fe0002;stroke:#000000;" x="177.419209" xlink:href="#mfc3828dec5" y="758.134136"/>
     <use style="fill:#fe0002;stroke:#000000;" x="220.136912" xlink:href="#mfc3828dec5" y="724.865816"/>
     <use style="fill:#fe0002;stroke:#000000;" x="262.854616" xlink:href="#mfc3828dec5" y="696.379736"/>
     <use style="fill:#fe0002;stroke:#000000;" x="305.572319" xlink:href="#mfc3828dec5" y="682.992056"/>
     <use style="fill:#fe0002;stroke:#000000;" x="348.290022" xlink:href="#mfc3828dec5" y="667.349336"/>
     <use style="fill:#fe0002;stroke:#000000;" x="391.007726" xlink:href="#mfc3828dec5" y="656.748056"/>
     <use style="fill:#fe0002;stroke:#000000;" x="433.725429" xlink:href="#mfc3828dec5" y="639.407576"/>
     <use style="fill:#fe0002;stroke:#000000;" x="476.443132" xlink:href="#mfc3828dec5" y="629.635736"/>
     <use style="fill:#fe0002;stroke:#000000;" x="519.160836" xlink:href="#mfc3828dec5" y="622.689176"/>
     <use style="fill:#fe0002;stroke:#000000;" x="561.878539" xlink:href="#mfc3828dec5" y="616.960856"/>
     <use style="fill:#fe0002;stroke:#000000;" x="604.596243" xlink:href="#mfc3828dec5" y="609.988376"/>
     <use style="fill:#fe0002;stroke:#000000;" x="647.313946" xlink:href="#mfc3828dec5" y="604.480376"/>
     <use style="fill:#fe0002;stroke:#000000;" x="690.031649" xlink:href="#mfc3828dec5" y="603.067736"/>
     <use style="fill:#fe0002;stroke:#000000;" x="732.749353" xlink:href="#mfc3828dec5" y="598.544696"/>
     <use style="fill:#fe0002;stroke:#000000;" x="775.467056" xlink:href="#mfc3828dec5" y="585.727256"/>
     <use style="fill:#fe0002;stroke:#000000;" x="818.184759" xlink:href="#mfc3828dec5" y="595.460216"/>
     <use style="fill:#fe0002;stroke:#000000;" x="860.902463" xlink:href="#mfc3828dec5" y="579.778616"/>
     <use style="fill:#fe0002;stroke:#000000;" x="903.620166" xlink:href="#mfc3828dec5" y="578.184536"/>
     <use style="fill:#fe0002;stroke:#000000;" x="946.337869" xlink:href="#mfc3828dec5" y="571.639736"/>
    </g>
   </g>
   <g id="line2d_29">
    <path clip-path="url(#pbeb1515e76)" d="M 134.701506 533.096696 
L 177.419209 446.666456 
L 220.136912 396.355736 
L 262.854616 358.408856 
L 305.572319 332.825816 
L 348.290022 319.736216 
L 391.007726 298.689176 
L 433.725429 276.281336 
L 476.443132 266.379896 
L 519.160836 252.629336 
L 561.878539 242.896376 
L 604.596243 237.051416 
L 647.313946 227.098136 
L 690.031649 215.965496 
L 732.749353 205.364216 
L 775.467056 198.650936 
L 818.184759 202.435256 
L 860.902463 185.937176 
L 903.620166 175.711736 
L 946.337869 175.750616 
" style="fill:none;stroke:#53fca1;stroke-linecap:square;stroke-width:1.5;"/>
    <defs>
     <path d="M 0 -4.5 
L -4.5 4.5 
L 4.5 4.5 
z
" id="m7bc4e6b9ce" style="stroke:#000000;stroke-linejoin:miter;"/>
    </defs>
    <g clip-path="url(#pbeb1515e76)">
     <use style="fill:#53fca1;stroke:#000000;stroke-linejoin:miter;" x="134.701506" xlink:href="#m7bc4e6b9ce" y="533.096696"/>
     <use style="fill:#53fca1;stroke:#000000;stroke-linejoin:miter;" x="177.419209" xlink:href="#m7bc4e6b9ce" y="446.666456"/>
     <use style="fill:#53fca1;stroke:#000000;stroke-linejoin:miter;" x="220.136912" xlink:href="#m7bc4e6b9ce" y="396.355736"/>
     <use style="fill:#53fca1;stroke:#000000;stroke-linejoin:miter;" x="262.854616" xlink:href="#m7bc4e6b9ce" y="358.408856"/>
     <use style="fill:#53fca1;stroke:#000000;stroke-linejoin:miter;" x="305.572319" xlink:href="#m7bc4e6b9ce" y="332.825816"/>
     <use style="fill:#53fca1;stroke:#000000;stroke-linejoin:miter;" x="348.290022" xlink:href="#m7bc4e6b9ce" y="319.736216"/>
     <use style="fill:#53fca1;stroke:#000000;stroke-linejoin:miter;" x="391.007726" xlink:href="#m7bc4e6b9ce" y="298.689176"/>
     <use style="fill:#53fca1;stroke:#000000;stroke-linejoin:miter;" x="433.725429" xlink:href="#m7bc4e6b9ce" y="276.281336"/>
     <use style="fill:#53fca1;stroke:#000000;stroke-linejoin:miter;" x="476.443132" xlink:href="#m7bc4e6b9ce" y="266.379896"/>
     <use style="fill:#53fca1;stroke:#000000;stroke-linejoin:miter;" x="519.160836" xlink:href="#m7bc4e6b9ce" y="252.629336"/>
     <use style="fill:#53fca1;stroke:#000000;stroke-linejoin:miter;" x="561.878539" xlink:href="#m7bc4e6b9ce" y="242.896376"/>
     <use style="fill:#53fca1;stroke:#000000;stroke-linejoin:miter;" x="604.596243" xlink:href="#m7bc4e6b9ce" y="237.051416"/>
     <use style="fill:#53fca1;stroke:#000000;stroke-linejoin:miter;" x="647.313946" xlink:href="#m7bc4e6b9ce" y="227.098136"/>
     <use style="fill:#53fca1;stroke:#000000;stroke-linejoin:miter;" x="690.031649" xlink:href="#m7bc4e6b9ce" y="215.965496"/>
     <use style="fill:#53fca1;stroke:#000000;stroke-linejoin:miter;" x="732.749353" xlink:href="#m7bc4e6b9ce" y="205.364216"/>
     <use style="fill:#53fca1;stroke:#000000;stroke-linejoin:miter;" x="775.467056" xlink:href="#m7bc4e6b9ce" y="198.650936"/>
     <use style="fill:#53fca1;stroke:#000000;stroke-linejoin:miter;" x="818.184759" xlink:href="#m7bc4e6b9ce" y="202.435256"/>
     <use style="fill:#53fca1;stroke:#000000;stroke-linejoin:miter;" x="860.902463" xlink:href="#m7bc4e6b9ce" y="185.937176"/>
     <use style="fill:#53fca1;stroke:#000000;stroke-linejoin:miter;" x="903.620166" xlink:href="#m7bc4e6b9ce" y="175.711736"/>
     <use style="fill:#53fca1;stroke:#000000;stroke-linejoin:miter;" x="946.337869" xlink:href="#m7bc4e6b9ce" y="175.750616"/>
    </g>
   </g>
   <g id="line2d_30">
    <path clip-path="url(#pbeb1515e76)" d="M 134.701506 939.353816 
L 177.419209 894.680696 
L 220.136912 869.486456 
L 262.854616 848.996696 
L 305.572319 836.153336 
L 348.290022 828.610616 
L 391.007726 818.138936 
L 433.725429 806.384216 
L 476.443132 802.703576 
L 519.160836 794.253656 
L 561.878539 789.186296 
L 604.596243 786.166616 
L 647.313946 779.608856 
L 690.031649 774.735896 
L 732.749353 768.865016 
L 775.467056 764.264216 
L 818.184759 766.998776 
L 860.902463 757.849016 
L 903.620166 752.755736 
L 946.337869 752.535416 
" style="fill:none;stroke:#53fca1;stroke-dasharray:5.55,2.4;stroke-dashoffset:0;stroke-width:1.5;"/>
    <defs>
     <path d="M 0 6.363961 
L 6.363961 0 
L 0 -6.363961 
L -6.363961 0 
z
" id="m51d8b2fad8" style="stroke:#000000;stroke-linejoin:miter;"/>
    </defs>
    <g clip-path="url(#pbeb1515e76)">
     <use style="fill:#53fca1;stroke:#000000;stroke-linejoin:miter;" x="134.701506" xlink:href="#m51d8b2fad8" y="939.353816"/>
     <use style="fill:#53fca1;stroke:#000000;stroke-linejoin:miter;" x="177.419209" xlink:href="#m51d8b2fad8" y="894.680696"/>
     <use style="fill:#53fca1;stroke:#000000;stroke-linejoin:miter;" x="220.136912" xlink:href="#m51d8b2fad8" y="869.486456"/>
     <use style="fill:#53fca1;stroke:#000000;stroke-linejoin:miter;" x="262.854616" xlink:href="#m51d8b2fad8" y="848.996696"/>
     <use style="fill:#53fca1;stroke:#000000;stroke-linejoin:miter;" x="305.572319" xlink:href="#m51d8b2fad8" y="836.153336"/>
     <use style="fill:#53fca1;stroke:#000000;stroke-linejoin:miter;" x="348.290022" xlink:href="#m51d8b2fad8" y="828.610616"/>
     <use style="fill:#53fca1;stroke:#000000;stroke-linejoin:miter;" x="391.007726" xlink:href="#m51d8b2fad8" y="818.138936"/>
     <use style="fill:#53fca1;stroke:#000000;stroke-linejoin:miter;" x="433.725429" xlink:href="#m51d8b2fad8" y="806.384216"/>
     <use style="fill:#53fca1;stroke:#000000;stroke-linejoin:miter;" x="476.443132" xlink:href="#m51d8b2fad8" y="802.703576"/>
     <use style="fill:#53fca1;stroke:#000000;stroke-linejoin:miter;" x="519.160836" xlink:href="#m51d8b2fad8" y="794.253656"/>
     <use style="fill:#53fca1;stroke:#000000;stroke-linejoin:miter;" x="561.878539" xlink:href="#m51d8b2fad8" y="789.186296"/>
     <use style="fill:#53fca1;stroke:#000000;stroke-linejoin:miter;" x="604.596243" xlink:href="#m51d8b2fad8" y="786.166616"/>
     <use style="fill:#53fca1;stroke:#000000;stroke-linejoin:miter;" x="647.313946" xlink:href="#m51d8b2fad8" y="779.608856"/>
     <use style="fill:#53fca1;stroke:#000000;stroke-linejoin:miter;" x="690.031649" xlink:href="#m51d8b2fad8" y="774.735896"/>
     <use style="fill:#53fca1;stroke:#000000;stroke-linejoin:miter;" x="732.749353" xlink:href="#m51d8b2fad8" y="768.865016"/>
     <use style="fill:#53fca1;stroke:#000000;stroke-linejoin:miter;" x="775.467056" xlink:href="#m51d8b2fad8" y="764.264216"/>
     <use style="fill:#53fca1;stroke:#000000;stroke-linejoin:miter;" x="818.184759" xlink:href="#m51d8b2fad8" y="766.998776"/>
     <use style="fill:#53fca1;stroke:#000000;stroke-linejoin:miter;" x="860.902463" xlink:href="#m51d8b2fad8" y="757.849016"/>
     <use style="fill:#53fca1;stroke:#000000;stroke-linejoin:miter;" x="903.620166" xlink:href="#m51d8b2fad8" y="752.755736"/>
     <use style="fill:#53fca1;stroke:#000000;stroke-linejoin:miter;" x="946.337869" xlink:href="#m51d8b2fad8" y="752.535416"/>
    </g>
   </g>
   <g id="line2d_31">
    <path clip-path="url(#pbeb1515e76)" d="M 134.701506 493.128056 
L 177.419209 414.616376 
L 220.136912 361.998776 
L 262.854616 317.533016 
L 305.572319 293.790296 
L 348.290022 279.949016 
L 391.007726 252.253496 
L 433.725429 232.930136 
L 476.443132 221.810456 
L 519.160836 198.417656 
L 561.878539 191.704376 
L 604.596243 181.841816 
L 647.313946 169.128056 
L 690.031649 167.521016 
L 732.749353 157.153016 
L 775.467056 140.240216 
L 818.184759 147.977336 
L 860.902463 127.954136 
L 903.620166 118.182296 
L 946.337869 118.739576 
" style="fill:none;stroke:#0652ff;stroke-linecap:square;stroke-width:1.5;"/>
    <defs>
     <path d="M 0 -4.5 
L -4.279754 -1.390576 
L -2.645034 3.640576 
L 2.645034 3.640576 
L 4.279754 -1.390576 
z
" id="mb1ea84165c" style="stroke:#000000;stroke-linejoin:miter;"/>
    </defs>
    <g clip-path="url(#pbeb1515e76)">
     <use style="fill:#0652ff;stroke:#000000;stroke-linejoin:miter;" x="134.701506" xlink:href="#mb1ea84165c" y="493.128056"/>
     <use style="fill:#0652ff;stroke:#000000;stroke-linejoin:miter;" x="177.419209" xlink:href="#mb1ea84165c" y="414.616376"/>
     <use style="fill:#0652ff;stroke:#000000;stroke-linejoin:miter;" x="220.136912" xlink:href="#mb1ea84165c" y="361.998776"/>
     <use style="fill:#0652ff;stroke:#000000;stroke-linejoin:miter;" x="262.854616" xlink:href="#mb1ea84165c" y="317.533016"/>
     <use style="fill:#0652ff;stroke:#000000;stroke-linejoin:miter;" x="305.572319" xlink:href="#mb1ea84165c" y="293.790296"/>
     <use style="fill:#0652ff;stroke:#000000;stroke-linejoin:miter;" x="348.290022" xlink:href="#mb1ea84165c" y="279.949016"/>
     <use style="fill:#0652ff;stroke:#000000;stroke-linejoin:miter;" x="391.007726" xlink:href="#mb1ea84165c" y="252.253496"/>
     <use style="fill:#0652ff;stroke:#000000;stroke-linejoin:miter;" x="433.725429" xlink:href="#mb1ea84165c" y="232.930136"/>
     <use style="fill:#0652ff;stroke:#000000;stroke-linejoin:miter;" x="476.443132" xlink:href="#mb1ea84165c" y="221.810456"/>
     <use style="fill:#0652ff;stroke:#000000;stroke-linejoin:miter;" x="519.160836" xlink:href="#mb1ea84165c" y="198.417656"/>
     <use style="fill:#0652ff;stroke:#000000;stroke-linejoin:miter;" x="561.878539" xlink:href="#mb1ea84165c" y="191.704376"/>
     <use style="fill:#0652ff;stroke:#000000;stroke-linejoin:miter;" x="604.596243" xlink:href="#mb1ea84165c" y="181.841816"/>
     <use style="fill:#0652ff;stroke:#000000;stroke-linejoin:miter;" x="647.313946" xlink:href="#mb1ea84165c" y="169.128056"/>
     <use style="fill:#0652ff;stroke:#000000;stroke-linejoin:miter;" x="690.031649" xlink:href="#mb1ea84165c" y="167.521016"/>
     <use style="fill:#0652ff;stroke:#000000;stroke-linejoin:miter;" x="732.749353" xlink:href="#mb1ea84165c" y="157.153016"/>
     <use style="fill:#0652ff;stroke:#000000;stroke-linejoin:miter;" x="775.467056" xlink:href="#mb1ea84165c" y="140.240216"/>
     <use style="fill:#0652ff;stroke:#000000;stroke-linejoin:miter;" x="818.184759" xlink:href="#mb1ea84165c" y="147.977336"/>
     <use style="fill:#0652ff;stroke:#000000;stroke-linejoin:miter;" x="860.902463" xlink:href="#mb1ea84165c" y="127.954136"/>
     <use style="fill:#0652ff;stroke:#000000;stroke-linejoin:miter;" x="903.620166" xlink:href="#mb1ea84165c" y="118.182296"/>
     <use style="fill:#0652ff;stroke:#000000;stroke-linejoin:miter;" x="946.337869" xlink:href="#mb1ea84165c" y="118.739576"/>
    </g>
   </g>
   <g id="line2d_32">
    <path clip-path="url(#pbeb1515e76)" d="M 134.701506 886.191896 
L 177.419209 845.199416 
L 220.136912 818.385176 
L 262.854616 795.342296 
L 305.572319 782.732216 
L 348.290022 777.470456 
L 391.007726 762.657176 
L 433.725429 752.470616 
L 476.443132 748.569656 
L 519.160836 733.600856 
L 561.878539 731.423576 
L 604.596243 727.924376 
L 647.313946 721.690616 
L 690.031649 721.249976 
L 732.749353 715.832696 
L 775.467056 705.322136 
L 818.184759 710.661656 
L 860.902463 700.410296 
L 903.620166 695.239256 
L 946.337869 695.291096 
" style="fill:none;stroke:#0652ff;stroke-dasharray:5.55,2.4;stroke-dashoffset:0;stroke-width:1.5;"/>
    <defs>
     <path d="M -2.25 4.5 
L 0 2.25 
L 2.25 4.5 
L 4.5 2.25 
L 2.25 0 
L 4.5 -2.25 
L 2.25 -4.5 
L 0 -2.25 
L -2.25 -4.5 
L -4.5 -2.25 
L -2.25 0 
L -4.5 2.25 
z
" id="mcd25b10c75" style="stroke:#000000;stroke-linejoin:miter;"/>
    </defs>
    <g clip-path="url(#pbeb1515e76)">
     <use style="fill:#0652ff;stroke:#000000;stroke-linejoin:miter;" x="134.701506" xlink:href="#mcd25b10c75" y="886.191896"/>
     <use style="fill:#0652ff;stroke:#000000;stroke-linejoin:miter;" x="177.419209" xlink:href="#mcd25b10c75" y="845.199416"/>
     <use style="fill:#0652ff;stroke:#000000;stroke-linejoin:miter;" x="220.136912" xlink:href="#mcd25b10c75" y="818.385176"/>
     <use style="fill:#0652ff;stroke:#000000;stroke-linejoin:miter;" x="262.854616" xlink:href="#mcd25b10c75" y="795.342296"/>
     <use style="fill:#0652ff;stroke:#000000;stroke-linejoin:miter;" x="305.572319" xlink:href="#mcd25b10c75" y="782.732216"/>
     <use style="fill:#0652ff;stroke:#000000;stroke-linejoin:miter;" x="348.290022" xlink:href="#mcd25b10c75" y="777.470456"/>
     <use style="fill:#0652ff;stroke:#000000;stroke-linejoin:miter;" x="391.007726" xlink:href="#mcd25b10c75" y="762.657176"/>
     <use style="fill:#0652ff;stroke:#000000;stroke-linejoin:miter;" x="433.725429" xlink:href="#mcd25b10c75" y="752.470616"/>
     <use style="fill:#0652ff;stroke:#000000;stroke-linejoin:miter;" x="476.443132" xlink:href="#mcd25b10c75" y="748.569656"/>
     <use style="fill:#0652ff;stroke:#000000;stroke-linejoin:miter;" x="519.160836" xlink:href="#mcd25b10c75" y="733.600856"/>
     <use style="fill:#0652ff;stroke:#000000;stroke-linejoin:miter;" x="561.878539" xlink:href="#mcd25b10c75" y="731.423576"/>
     <use style="fill:#0652ff;stroke:#000000;stroke-linejoin:miter;" x="604.596243" xlink:href="#mcd25b10c75" y="727.924376"/>
     <use style="fill:#0652ff;stroke:#000000;stroke-linejoin:miter;" x="647.313946" xlink:href="#mcd25b10c75" y="721.690616"/>
     <use style="fill:#0652ff;stroke:#000000;stroke-linejoin:miter;" x="690.031649" xlink:href="#mcd25b10c75" y="721.249976"/>
     <use style="fill:#0652ff;stroke:#000000;stroke-linejoin:miter;" x="732.749353" xlink:href="#mcd25b10c75" y="715.832696"/>
     <use style="fill:#0652ff;stroke:#000000;stroke-linejoin:miter;" x="775.467056" xlink:href="#mcd25b10c75" y="705.322136"/>
     <use style="fill:#0652ff;stroke:#000000;stroke-linejoin:miter;" x="818.184759" xlink:href="#mcd25b10c75" y="710.661656"/>
     <use style="fill:#0652ff;stroke:#000000;stroke-linejoin:miter;" x="860.902463" xlink:href="#mcd25b10c75" y="700.410296"/>
     <use style="fill:#0652ff;stroke:#000000;stroke-linejoin:miter;" x="903.620166" xlink:href="#mcd25b10c75" y="695.239256"/>
     <use style="fill:#0652ff;stroke:#000000;stroke-linejoin:miter;" x="946.337869" xlink:href="#mcd25b10c75" y="695.291096"/>
    </g>
   </g>
   <g id="line2d_33">
    <path clip-path="url(#pbeb1515e76)" d="M 134.701506 327.797336 
L 177.419209 254.132696 
L 220.136912 211.092536 
L 262.854616 176.878136 
L 305.572319 157.697336 
L 348.290022 145.385336 
L 391.007726 127.591256 
L 433.725429 117.637976 
L 476.443132 116.030936 
L 519.160836 94.906136 
L 561.878539 96.953816 
L 604.596243 93.260216 
L 647.313946 94.024856 
L 690.031649 90.862616 
L 732.749353 78.317336 
L 775.467056 75.608696 
L 818.184759 86.832056 
L 860.902463 75.569816 
L 903.620166 75.401336 
L 946.337869 80.740856 
" style="fill:none;stroke:#ae7181;stroke-linecap:square;stroke-width:1.5;"/>
    <defs>
     <path d="M -4.5 4.5 
L 4.5 4.5 
L 4.5 -4.5 
L -4.5 -4.5 
z
" id="m6c59e471bd" style="stroke:#000000;stroke-linejoin:miter;"/>
    </defs>
    <g clip-path="url(#pbeb1515e76)">
     <use style="fill:#ae7181;stroke:#000000;stroke-linejoin:miter;" x="134.701506" xlink:href="#m6c59e471bd" y="327.797336"/>
     <use style="fill:#ae7181;stroke:#000000;stroke-linejoin:miter;" x="177.419209" xlink:href="#m6c59e471bd" y="254.132696"/>
     <use style="fill:#ae7181;stroke:#000000;stroke-linejoin:miter;" x="220.136912" xlink:href="#m6c59e471bd" y="211.092536"/>
     <use style="fill:#ae7181;stroke:#000000;stroke-linejoin:miter;" x="262.854616" xlink:href="#m6c59e471bd" y="176.878136"/>
     <use style="fill:#ae7181;stroke:#000000;stroke-linejoin:miter;" x="305.572319" xlink:href="#m6c59e471bd" y="157.697336"/>
     <use style="fill:#ae7181;stroke:#000000;stroke-linejoin:miter;" x="348.290022" xlink:href="#m6c59e471bd" y="145.385336"/>
     <use style="fill:#ae7181;stroke:#000000;stroke-linejoin:miter;" x="391.007726" xlink:href="#m6c59e471bd" y="127.591256"/>
     <use style="fill:#ae7181;stroke:#000000;stroke-linejoin:miter;" x="433.725429" xlink:href="#m6c59e471bd" y="117.637976"/>
     <use style="fill:#ae7181;stroke:#000000;stroke-linejoin:miter;" x="476.443132" xlink:href="#m6c59e471bd" y="116.030936"/>
     <use style="fill:#ae7181;stroke:#000000;stroke-linejoin:miter;" x="519.160836" xlink:href="#m6c59e471bd" y="94.906136"/>
     <use style="fill:#ae7181;stroke:#000000;stroke-linejoin:miter;" x="561.878539" xlink:href="#m6c59e471bd" y="96.953816"/>
     <use style="fill:#ae7181;stroke:#000000;stroke-linejoin:miter;" x="604.596243" xlink:href="#m6c59e471bd" y="93.260216"/>
     <use style="fill:#ae7181;stroke:#000000;stroke-linejoin:miter;" x="647.313946" xlink:href="#m6c59e471bd" y="94.024856"/>
     <use style="fill:#ae7181;stroke:#000000;stroke-linejoin:miter;" x="690.031649" xlink:href="#m6c59e471bd" y="90.862616"/>
     <use style="fill:#ae7181;stroke:#000000;stroke-linejoin:miter;" x="732.749353" xlink:href="#m6c59e471bd" y="78.317336"/>
     <use style="fill:#ae7181;stroke:#000000;stroke-linejoin:miter;" x="775.467056" xlink:href="#m6c59e471bd" y="75.608696"/>
     <use style="fill:#ae7181;stroke:#000000;stroke-linejoin:miter;" x="818.184759" xlink:href="#m6c59e471bd" y="86.832056"/>
     <use style="fill:#ae7181;stroke:#000000;stroke-linejoin:miter;" x="860.902463" xlink:href="#m6c59e471bd" y="75.569816"/>
     <use style="fill:#ae7181;stroke:#000000;stroke-linejoin:miter;" x="903.620166" xlink:href="#m6c59e471bd" y="75.401336"/>
     <use style="fill:#ae7181;stroke:#000000;stroke-linejoin:miter;" x="946.337869" xlink:href="#m6c59e471bd" y="80.740856"/>
    </g>
   </g>
   <g id="line2d_34">
    <path clip-path="url(#pbeb1515e76)" d="M 134.701506 950.797496 
L 177.419209 913.965176 
L 220.136912 892.445096 
L 262.854616 875.337896 
L 305.572319 865.747496 
L 348.290022 859.591496 
L 391.007726 850.694456 
L 433.725429 845.717816 
L 476.443132 844.914296 
L 519.160836 834.351896 
L 561.878539 835.375736 
L 604.596243 833.528936 
L 647.313946 833.911256 
L 690.031649 832.330136 
L 732.749353 826.057496 
L 775.467056 824.703176 
L 818.184759 830.314856 
L 860.902463 824.683736 
L 903.620166 824.599496 
L 946.337869 827.269256 
" style="fill:none;stroke:#ae7181;stroke-dasharray:5.55,2.4;stroke-dashoffset:0;stroke-width:1.5;"/>
    <defs>
     <path d="M 0 -4.5 
L -1.010313 -1.390576 
L -4.279754 -1.390576 
L -1.634721 0.531153 
L -2.645034 3.640576 
L -0 1.718847 
L 2.645034 3.640576 
L 1.634721 0.531153 
L 4.279754 -1.390576 
L 1.010313 -1.390576 
z
" id="mb125179b50" style="stroke:#000000;stroke-linejoin:bevel;"/>
    </defs>
    <g clip-path="url(#pbeb1515e76)">
     <use style="fill:#ae7181;stroke:#000000;stroke-linejoin:bevel;" x="134.701506" xlink:href="#mb125179b50" y="950.797496"/>
     <use style="fill:#ae7181;stroke:#000000;stroke-linejoin:bevel;" x="177.419209" xlink:href="#mb125179b50" y="913.965176"/>
     <use style="fill:#ae7181;stroke:#000000;stroke-linejoin:bevel;" x="220.136912" xlink:href="#mb125179b50" y="892.445096"/>
     <use style="fill:#ae7181;stroke:#000000;stroke-linejoin:bevel;" x="262.854616" xlink:href="#mb125179b50" y="875.337896"/>
     <use style="fill:#ae7181;stroke:#000000;stroke-linejoin:bevel;" x="305.572319" xlink:href="#mb125179b50" y="865.747496"/>
     <use style="fill:#ae7181;stroke:#000000;stroke-linejoin:bevel;" x="348.290022" xlink:href="#mb125179b50" y="859.591496"/>
     <use style="fill:#ae7181;stroke:#000000;stroke-linejoin:bevel;" x="391.007726" xlink:href="#mb125179b50" y="850.694456"/>
     <use style="fill:#ae7181;stroke:#000000;stroke-linejoin:bevel;" x="433.725429" xlink:href="#mb125179b50" y="845.717816"/>
     <use style="fill:#ae7181;stroke:#000000;stroke-linejoin:bevel;" x="476.443132" xlink:href="#mb125179b50" y="844.914296"/>
     <use style="fill:#ae7181;stroke:#000000;stroke-linejoin:bevel;" x="519.160836" xlink:href="#mb125179b50" y="834.351896"/>
     <use style="fill:#ae7181;stroke:#000000;stroke-linejoin:bevel;" x="561.878539" xlink:href="#mb125179b50" y="835.375736"/>
     <use style="fill:#ae7181;stroke:#000000;stroke-linejoin:bevel;" x="604.596243" xlink:href="#mb125179b50" y="833.528936"/>
     <use style="fill:#ae7181;stroke:#000000;stroke-linejoin:bevel;" x="647.313946" xlink:href="#mb125179b50" y="833.911256"/>
     <use style="fill:#ae7181;stroke:#000000;stroke-linejoin:bevel;" x="690.031649" xlink:href="#mb125179b50" y="832.330136"/>
     <use style="fill:#ae7181;stroke:#000000;stroke-linejoin:bevel;" x="732.749353" xlink:href="#mb125179b50" y="826.057496"/>
     <use style="fill:#ae7181;stroke:#000000;stroke-linejoin:bevel;" x="775.467056" xlink:href="#mb125179b50" y="824.703176"/>
     <use style="fill:#ae7181;stroke:#000000;stroke-linejoin:bevel;" x="818.184759" xlink:href="#mb125179b50" y="830.314856"/>
     <use style="fill:#ae7181;stroke:#000000;stroke-linejoin:bevel;" x="860.902463" xlink:href="#mb125179b50" y="824.683736"/>
     <use style="fill:#ae7181;stroke:#000000;stroke-linejoin:bevel;" x="903.620166" xlink:href="#mb125179b50" y="824.599496"/>
     <use style="fill:#ae7181;stroke:#000000;stroke-linejoin:bevel;" x="946.337869" xlink:href="#mb125179b50" y="827.269256"/>
    </g>
   </g>
   <g id="patch_3">
    <path d="M 94.119688 1006.279256 
L 94.119688 8.359256 
" style="fill:none;stroke:#000000;stroke-linecap:square;stroke-linejoin:miter;stroke-width:0.8;"/>
   </g>
   <g id="patch_4">
    <path d="M 986.919688 1006.279256 
L 986.919688 8.359256 
" style="fill:none;stroke:#000000;stroke-linecap:square;stroke-linejoin:miter;stroke-width:0.8;"/>
   </g>
   <g id="patch_5">
    <path d="M 94.119688 1006.279256 
L 986.919687 1006.279256 
" style="fill:none;stroke:#000000;stroke-linecap:square;stroke-linejoin:miter;stroke-width:0.8;"/>
   </g>
   <g id="patch_6">
    <path d="M 94.119688 8.359256 
L 986.919687 8.359256 
" style="fill:none;stroke:#000000;stroke-linecap:square;stroke-linejoin:miter;stroke-width:0.8;"/>
   </g>
   <g id="legend_1">
    <g id="patch_7">
     <path d="M 489.27125 687.956756 
L 965.919688 687.956756 
Q 971.919688 687.956756 971.919688 681.956756 
L 971.919688 332.681756 
Q 971.919688 326.681756 965.919688 326.681756 
L 489.27125 326.681756 
Q 483.27125 326.681756 483.27125 332.681756 
L 483.27125 681.956756 
Q 483.27125 687.956756 489.27125 687.956756 
z
" style="fill:#ffffff;opacity:0.8;stroke:#cccccc;stroke-linejoin:miter;"/>
    </g>
    <g id="line2d_35">
     <path d="M 495.27125 350.977069 
L 555.27125 350.977069 
" style="fill:none;stroke:#fe0002;stroke-linecap:square;stroke-width:1.5;"/>
    </g>
    <g id="line2d_36">
     <g>
      <use style="fill:#fe0002;stroke:#000000;" x="525.27125" xlink:href="#mfc3828dec5" y="350.977069"/>
     </g>
    </g>
    <g id="text_16">
     <!-- Pairing comparisons -->
     <g transform="translate(579.27125 361.477069)scale(0.3 -0.3)">
      <defs>
       <path d="M 1259 4147 
L 1259 2394 
L 2053 2394 
Q 2494 2394 2734 2622 
Q 2975 2850 2975 3272 
Q 2975 3691 2734 3919 
Q 2494 4147 2053 4147 
L 1259 4147 
z
M 628 4666 
L 2053 4666 
Q 2838 4666 3239 4311 
Q 3641 3956 3641 3272 
Q 3641 2581 3239 2228 
Q 2838 1875 2053 1875 
L 1259 1875 
L 1259 0 
L 628 0 
L 628 4666 
z
" id="DejaVuSans-50" transform="scale(0.015625)"/>
       <path d="M 3122 3366 
L 3122 2828 
Q 2878 2963 2633 3030 
Q 2388 3097 2138 3097 
Q 1578 3097 1268 2742 
Q 959 2388 959 1747 
Q 959 1106 1268 751 
Q 1578 397 2138 397 
Q 2388 397 2633 464 
Q 2878 531 3122 666 
L 3122 134 
Q 2881 22 2623 -34 
Q 2366 -91 2075 -91 
Q 1284 -91 818 406 
Q 353 903 353 1747 
Q 353 2603 823 3093 
Q 1294 3584 2113 3584 
Q 2378 3584 2631 3529 
Q 2884 3475 3122 3366 
z
" id="DejaVuSans-63" transform="scale(0.015625)"/>
      </defs>
      <use xlink:href="#DejaVuSans-50"/>
      <use x="55.802734" xlink:href="#DejaVuSans-61"/>
      <use x="117.082031" xlink:href="#DejaVuSans-69"/>
      <use x="144.865234" xlink:href="#DejaVuSans-72"/>
      <use x="185.978516" xlink:href="#DejaVuSans-69"/>
      <use x="213.761719" xlink:href="#DejaVuSans-6e"/>
      <use x="277.140625" xlink:href="#DejaVuSans-67"/>
      <use x="340.617188" xlink:href="#DejaVuSans-20"/>
      <use x="372.404297" xlink:href="#DejaVuSans-63"/>
      <use x="427.384766" xlink:href="#DejaVuSans-6f"/>
      <use x="488.566406" xlink:href="#DejaVuSans-6d"/>
      <use x="585.978516" xlink:href="#DejaVuSans-70"/>
      <use x="649.455078" xlink:href="#DejaVuSans-61"/>
      <use x="710.734375" xlink:href="#DejaVuSans-72"/>
      <use x="751.847656" xlink:href="#DejaVuSans-69"/>
      <use x="779.630859" xlink:href="#DejaVuSans-73"/>
      <use x="831.730469" xlink:href="#DejaVuSans-6f"/>
      <use x="892.912109" xlink:href="#DejaVuSans-6e"/>
      <use x="956.291016" xlink:href="#DejaVuSans-73"/>
     </g>
    </g>
    <g id="line2d_37">
     <path d="M 495.27125 395.011444 
L 555.27125 395.011444 
" style="fill:none;stroke:#fe0002;stroke-dasharray:5.55,2.4;stroke-dashoffset:0;stroke-width:1.5;"/>
    </g>
    <g id="line2d_38">
     <g>
      <use style="fill:#fe0002;stroke:#000000;" x="525.27125" xlink:href="#mfc3828dec5" y="395.011444"/>
     </g>
    </g>
    <g id="text_17">
     <!-- Pairing links -->
     <g transform="translate(579.27125 405.511444)scale(0.3 -0.3)">
      <defs>
       <path d="M 581 4863 
L 1159 4863 
L 1159 1991 
L 2875 3500 
L 3609 3500 
L 1753 1863 
L 3688 0 
L 2938 0 
L 1159 1709 
L 1159 0 
L 581 0 
L 581 4863 
z
" id="DejaVuSans-6b" transform="scale(0.015625)"/>
      </defs>
      <use xlink:href="#DejaVuSans-50"/>
      <use x="55.802734" xlink:href="#DejaVuSans-61"/>
      <use x="117.082031" xlink:href="#DejaVuSans-69"/>
      <use x="144.865234" xlink:href="#DejaVuSans-72"/>
      <use x="185.978516" xlink:href="#DejaVuSans-69"/>
      <use x="213.761719" xlink:href="#DejaVuSans-6e"/>
      <use x="277.140625" xlink:href="#DejaVuSans-67"/>
      <use x="340.617188" xlink:href="#DejaVuSans-20"/>
      <use x="372.404297" xlink:href="#DejaVuSans-6c"/>
      <use x="400.1875" xlink:href="#DejaVuSans-69"/>
      <use x="427.970703" xlink:href="#DejaVuSans-6e"/>
      <use x="491.349609" xlink:href="#DejaVuSans-6b"/>
      <use x="549.259766" xlink:href="#DejaVuSans-73"/>
     </g>
    </g>
    <g id="line2d_39">
     <path d="M 495.27125 439.045819 
L 555.27125 439.045819 
" style="fill:none;stroke:#53fca1;stroke-linecap:square;stroke-width:1.5;"/>
    </g>
    <g id="line2d_40">
     <g>
      <use style="fill:#53fca1;stroke:#000000;stroke-linejoin:miter;" x="525.27125" xlink:href="#m7bc4e6b9ce" y="439.045819"/>
     </g>
    </g>
    <g id="text_18">
     <!-- Smooth comparisons -->
     <g transform="translate(579.27125 449.545819)scale(0.3 -0.3)">
      <defs>
       <path d="M 3425 4513 
L 3425 3897 
Q 3066 4069 2747 4153 
Q 2428 4238 2131 4238 
Q 1616 4238 1336 4038 
Q 1056 3838 1056 3469 
Q 1056 3159 1242 3001 
Q 1428 2844 1947 2747 
L 2328 2669 
Q 3034 2534 3370 2195 
Q 3706 1856 3706 1288 
Q 3706 609 3251 259 
Q 2797 -91 1919 -91 
Q 1588 -91 1214 -16 
Q 841 59 441 206 
L 441 856 
Q 825 641 1194 531 
Q 1563 422 1919 422 
Q 2459 422 2753 634 
Q 3047 847 3047 1241 
Q 3047 1584 2836 1778 
Q 2625 1972 2144 2069 
L 1759 2144 
Q 1053 2284 737 2584 
Q 422 2884 422 3419 
Q 422 4038 858 4394 
Q 1294 4750 2059 4750 
Q 2388 4750 2728 4690 
Q 3069 4631 3425 4513 
z
" id="DejaVuSans-53" transform="scale(0.015625)"/>
       <path d="M 3513 2113 
L 3513 0 
L 2938 0 
L 2938 2094 
Q 2938 2591 2744 2837 
Q 2550 3084 2163 3084 
Q 1697 3084 1428 2787 
Q 1159 2491 1159 1978 
L 1159 0 
L 581 0 
L 581 4863 
L 1159 4863 
L 1159 2956 
Q 1366 3272 1645 3428 
Q 1925 3584 2291 3584 
Q 2894 3584 3203 3211 
Q 3513 2838 3513 2113 
z
" id="DejaVuSans-68" transform="scale(0.015625)"/>
      </defs>
      <use xlink:href="#DejaVuSans-53"/>
      <use x="63.476562" xlink:href="#DejaVuSans-6d"/>
      <use x="160.888672" xlink:href="#DejaVuSans-6f"/>
      <use x="222.070312" xlink:href="#DejaVuSans-6f"/>
      <use x="283.251953" xlink:href="#DejaVuSans-74"/>
      <use x="322.460938" xlink:href="#DejaVuSans-68"/>
      <use x="385.839844" xlink:href="#DejaVuSans-20"/>
      <use x="417.626953" xlink:href="#DejaVuSans-63"/>
      <use x="472.607422" xlink:href="#DejaVuSans-6f"/>
      <use x="533.789062" xlink:href="#DejaVuSans-6d"/>
      <use x="631.201172" xlink:href="#DejaVuSans-70"/>
      <use x="694.677734" xlink:href="#DejaVuSans-61"/>
      <use x="755.957031" xlink:href="#DejaVuSans-72"/>
      <use x="797.070312" xlink:href="#DejaVuSans-69"/>
      <use x="824.853516" xlink:href="#DejaVuSans-73"/>
      <use x="876.953125" xlink:href="#DejaVuSans-6f"/>
      <use x="938.134766" xlink:href="#DejaVuSans-6e"/>
      <use x="1001.513672" xlink:href="#DejaVuSans-73"/>
     </g>
    </g>
    <g id="line2d_41">
     <path d="M 495.27125 483.080194 
L 555.27125 483.080194 
" style="fill:none;stroke:#53fca1;stroke-dasharray:5.55,2.4;stroke-dashoffset:0;stroke-width:1.5;"/>
    </g>
    <g id="line2d_42">
     <g>
      <use style="fill:#53fca1;stroke:#000000;stroke-linejoin:miter;" x="525.27125" xlink:href="#m51d8b2fad8" y="483.080194"/>
     </g>
    </g>
    <g id="text_19">
     <!-- Smooth links -->
     <g transform="translate(579.27125 493.580194)scale(0.3 -0.3)">
      <use xlink:href="#DejaVuSans-53"/>
      <use x="63.476562" xlink:href="#DejaVuSans-6d"/>
      <use x="160.888672" xlink:href="#DejaVuSans-6f"/>
      <use x="222.070312" xlink:href="#DejaVuSans-6f"/>
      <use x="283.251953" xlink:href="#DejaVuSans-74"/>
      <use x="322.460938" xlink:href="#DejaVuSans-68"/>
      <use x="385.839844" xlink:href="#DejaVuSans-20"/>
      <use x="417.626953" xlink:href="#DejaVuSans-6c"/>
      <use x="445.410156" xlink:href="#DejaVuSans-69"/>
      <use x="473.193359" xlink:href="#DejaVuSans-6e"/>
      <use x="536.572266" xlink:href="#DejaVuSans-6b"/>
      <use x="594.482422" xlink:href="#DejaVuSans-73"/>
     </g>
    </g>
    <g id="line2d_43">
     <path d="M 495.27125 527.114569 
L 555.27125 527.114569 
" style="fill:none;stroke:#0652ff;stroke-linecap:square;stroke-width:1.5;"/>
    </g>
    <g id="line2d_44">
     <g>
      <use style="fill:#0652ff;stroke:#000000;stroke-linejoin:miter;" x="525.27125" xlink:href="#mb1ea84165c" y="527.114569"/>
     </g>
    </g>
    <g id="text_20">
     <!-- Slim comparisons -->
     <g transform="translate(579.27125 537.614569)scale(0.3 -0.3)">
      <use xlink:href="#DejaVuSans-53"/>
      <use x="63.476562" xlink:href="#DejaVuSans-6c"/>
      <use x="91.259766" xlink:href="#DejaVuSans-69"/>
      <use x="119.042969" xlink:href="#DejaVuSans-6d"/>
      <use x="216.455078" xlink:href="#DejaVuSans-20"/>
      <use x="248.242188" xlink:href="#DejaVuSans-63"/>
      <use x="303.222656" xlink:href="#DejaVuSans-6f"/>
      <use x="364.404297" xlink:href="#DejaVuSans-6d"/>
      <use x="461.816406" xlink:href="#DejaVuSans-70"/>
      <use x="525.292969" xlink:href="#DejaVuSans-61"/>
      <use x="586.572266" xlink:href="#DejaVuSans-72"/>
      <use x="627.685547" xlink:href="#DejaVuSans-69"/>
      <use x="655.46875" xlink:href="#DejaVuSans-73"/>
      <use x="707.568359" xlink:href="#DejaVuSans-6f"/>
      <use x="768.75" xlink:href="#DejaVuSans-6e"/>
      <use x="832.128906" xlink:href="#DejaVuSans-73"/>
     </g>
    </g>
    <g id="line2d_45">
     <path d="M 495.27125 571.148944 
L 555.27125 571.148944 
" style="fill:none;stroke:#0652ff;stroke-dasharray:5.55,2.4;stroke-dashoffset:0;stroke-width:1.5;"/>
    </g>
    <g id="line2d_46">
     <g>
      <use style="fill:#0652ff;stroke:#000000;stroke-linejoin:miter;" x="525.27125" xlink:href="#mcd25b10c75" y="571.148944"/>
     </g>
    </g>
    <g id="text_21">
     <!-- Slim links -->
     <g transform="translate(579.27125 581.648944)scale(0.3 -0.3)">
      <use xlink:href="#DejaVuSans-53"/>
      <use x="63.476562" xlink:href="#DejaVuSans-6c"/>
      <use x="91.259766" xlink:href="#DejaVuSans-69"/>
      <use x="119.042969" xlink:href="#DejaVuSans-6d"/>
      <use x="216.455078" xlink:href="#DejaVuSans-20"/>
      <use x="248.242188" xlink:href="#DejaVuSans-6c"/>
      <use x="276.025391" xlink:href="#DejaVuSans-69"/>
      <use x="303.808594" xlink:href="#DejaVuSans-6e"/>
      <use x="367.1875" xlink:href="#DejaVuSans-6b"/>
      <use x="425.097656" xlink:href="#DejaVuSans-73"/>
     </g>
    </g>
    <g id="line2d_47">
     <path d="M 495.27125 615.183319 
L 555.27125 615.183319 
" style="fill:none;stroke:#ae7181;stroke-linecap:square;stroke-width:1.5;"/>
    </g>
    <g id="line2d_48">
     <g>
      <use style="fill:#ae7181;stroke:#000000;stroke-linejoin:miter;" x="525.27125" xlink:href="#m6c59e471bd" y="615.183319"/>
     </g>
    </g>
    <g id="text_22">
     <!-- Pairing Lazy comparisons -->
     <g transform="translate(579.27125 625.683319)scale(0.3 -0.3)">
      <defs>
       <path d="M 628 4666 
L 1259 4666 
L 1259 531 
L 3531 531 
L 3531 0 
L 628 0 
L 628 4666 
z
" id="DejaVuSans-4c" transform="scale(0.015625)"/>
      </defs>
      <use xlink:href="#DejaVuSans-50"/>
      <use x="55.802734" xlink:href="#DejaVuSans-61"/>
      <use x="117.082031" xlink:href="#DejaVuSans-69"/>
      <use x="144.865234" xlink:href="#DejaVuSans-72"/>
      <use x="185.978516" xlink:href="#DejaVuSans-69"/>
      <use x="213.761719" xlink:href="#DejaVuSans-6e"/>
      <use x="277.140625" xlink:href="#DejaVuSans-67"/>
      <use x="340.617188" xlink:href="#DejaVuSans-20"/>
      <use x="372.404297" xlink:href="#DejaVuSans-4c"/>
      <use x="428.117188" xlink:href="#DejaVuSans-61"/>
      <use x="489.396484" xlink:href="#DejaVuSans-7a"/>
      <use x="541.886719" xlink:href="#DejaVuSans-79"/>
      <use x="601.066406" xlink:href="#DejaVuSans-20"/>
      <use x="632.853516" xlink:href="#DejaVuSans-63"/>
      <use x="687.833984" xlink:href="#DejaVuSans-6f"/>
      <use x="749.015625" xlink:href="#DejaVuSans-6d"/>
      <use x="846.427734" xlink:href="#DejaVuSans-70"/>
      <use x="909.904297" xlink:href="#DejaVuSans-61"/>
      <use x="971.183594" xlink:href="#DejaVuSans-72"/>
      <use x="1012.296875" xlink:href="#DejaVuSans-69"/>
      <use x="1040.080078" xlink:href="#DejaVuSans-73"/>
      <use x="1092.179688" xlink:href="#DejaVuSans-6f"/>
      <use x="1153.361328" xlink:href="#DejaVuSans-6e"/>
      <use x="1216.740234" xlink:href="#DejaVuSans-73"/>
     </g>
    </g>
    <g id="line2d_49">
     <path d="M 495.27125 659.217694 
L 555.27125 659.217694 
" style="fill:none;stroke:#ae7181;stroke-dasharray:5.55,2.4;stroke-dashoffset:0;stroke-width:1.5;"/>
    </g>
    <g id="line2d_50">
     <g>
      <use style="fill:#ae7181;stroke:#000000;stroke-linejoin:bevel;" x="525.27125" xlink:href="#mb125179b50" y="659.217694"/>
     </g>
    </g>
    <g id="text_23">
     <!-- Pairing Lazy links -->
     <g transform="translate(579.27125 669.717694)scale(0.3 -0.3)">
      <use xlink:href="#DejaVuSans-50"/>
      <use x="55.802734" xlink:href="#DejaVuSans-61"/>
      <use x="117.082031" xlink:href="#DejaVuSans-69"/>
      <use x="144.865234" xlink:href="#DejaVuSans-72"/>
      <use x="185.978516" xlink:href="#DejaVuSans-69"/>
      <use x="213.761719" xlink:href="#DejaVuSans-6e"/>
      <use x="277.140625" xlink:href="#DejaVuSans-67"/>
      <use x="340.617188" xlink:href="#DejaVuSans-20"/>
      <use x="372.404297" xlink:href="#DejaVuSans-4c"/>
      <use x="428.117188" xlink:href="#DejaVuSans-61"/>
      <use x="489.396484" xlink:href="#DejaVuSans-7a"/>
      <use x="541.886719" xlink:href="#DejaVuSans-79"/>
      <use x="601.066406" xlink:href="#DejaVuSans-20"/>
      <use x="632.853516" xlink:href="#DejaVuSans-6c"/>
      <use x="660.636719" xlink:href="#DejaVuSans-69"/>
      <use x="688.419922" xlink:href="#DejaVuSans-6e"/>
      <use x="751.798828" xlink:href="#DejaVuSans-6b"/>
      <use x="809.708984" xlink:href="#DejaVuSans-73"/>
     </g>
    </g>
   </g>
  </g>
 </g>
 <defs>
  <clipPath id="pbeb1515e76">
   <rect height="997.92" width="892.8" x="94.119688" y="8.359256"/>
  </clipPath>
 </defs>
</svg>
