<?xml version="1.0" encoding="utf-8" standalone="no"?>
<!DOCTYPE svg PUBLIC "-//W3C//DTD SVG 1.1//EN"
  "http://www.w3.org/Graphics/SVG/1.1/DTD/svg11.dtd">
<svg height="1090.099062pt" version="1.1" viewBox="0 0 975.032188 1090.099062" width="975.032188pt" xmlns="http://www.w3.org/2000/svg" xmlns:xlink="http://www.w3.org/1999/xlink">
 <metadata>
  <rdf:RDF xmlns:cc="http://creativecommons.org/ns#" xmlns:dc="http://purl.org/dc/elements/1.1/" xmlns:rdf="http://www.w3.org/1999/02/22-rdf-syntax-ns#">
   <cc:Work>
    <dc:type rdf:resource="http://purl.org/dc/dcmitype/StillImage"/>
    <dc:date>2021-07-04T19:50:37.595833</dc:date>
    <dc:format>image/svg+xml</dc:format>
    <dc:creator>
     <cc:Agent>
      <dc:title>Matplotlib v3.4.2, https://matplotlib.org/</dc:title>
     </cc:Agent>
    </dc:creator>
   </cc:Work>
  </rdf:RDF>
 </metadata>
 <defs>
  <style type="text/css">*{stroke-linecap:butt;stroke-linejoin:round;}</style>
 </defs>
 <g id="figure_1">
  <g id="patch_1">
   <path d="M 0 1090.099062 
L 975.032188 1090.099062 
L 975.032188 0 
L 0 0 
z
" style="fill:#ffffff;"/>
  </g>
  <g id="axes_1">
   <g id="patch_2">
    <path d="M 75.032188 1005.12 
L 967.832188 1005.12 
L 967.832188 7.2 
L 75.032188 7.2 
z
" style="fill:#ffffff;"/>
   </g>
   <g id="PolyCollection_1">
    <defs>
     <path d="M 115.614006 -277.112271 
L 115.614006 -152.919556 
L 115.713094 -186.790297 
L 115.911272 -237.596407 
L 116.307627 -334.974786 
L 117.100338 -367.434246 
L 118.685758 -410.478312 
L 121.8566 -451.405457 
L 128.198283 -467.811597 
L 140.88165 -503.005413 
L 166.248383 -510.083869 
L 216.981848 -516.379504 
L 318.44878 -530.194621 
L 521.382643 -515.475403 
L 927.250369 -518.463349 
L 927.250369 -582.804801 
L 927.250369 -582.804801 
L 521.382643 -590.259506 
L 318.44878 -585.399959 
L 216.981848 -579.501246 
L 166.248383 -582.103295 
L 140.88165 -571.981765 
L 128.198283 -566.072026 
L 121.8566 -528.320264 
L 118.685758 -527.614623 
L 117.100338 -506.44541 
L 116.307627 -461.990063 
L 115.911272 -426.708042 
L 115.713094 -361.789123 
L 115.614006 -277.112271 
z
" id="m8c99d3e8cf" style="stroke:#fe0002;stroke-opacity:0.3;"/>
    </defs>
    <g clip-path="url(#p5603a3fbd7)">
     <use style="fill:#fe0002;fill-opacity:0.3;stroke:#fe0002;stroke-opacity:0.3;" x="0" xlink:href="#m8c99d3e8cf" y="1090.099062"/>
    </g>
   </g>
   <g id="PolyCollection_2">
    <defs>
     <path d="M 115.614006 -288.402518 
L 115.614006 -130.339063 
L 115.713094 -220.661037 
L 115.911272 -296.870203 
L 116.307627 -375.901931 
L 117.100338 -411.183953 
L 118.685758 -438.351109 
L 121.8566 -480.336714 
L 128.198283 -486.863888 
L 140.88165 -506.401308 
L 166.248383 -508.01105 
L 216.981848 -519.79745 
L 318.44878 -524.428216 
L 521.382643 -527.049559 
L 927.250369 -528.735103 
L 927.250369 -531.987664 
L 927.250369 -531.987664 
L 521.382643 -531.388146 
L 318.44878 -530.806543 
L 216.981848 -528.121802 
L 166.248383 -525.277189 
L 140.88165 -519.676168 
L 128.198283 -517.823862 
L 121.8566 -505.21054 
L 118.685758 -501.505927 
L 117.100338 -474.691591 
L 116.307627 -453.522378 
L 115.911272 -401.304987 
L 115.713094 -350.498876 
L 115.614006 -288.402518 
z
" id="m6fe53bcdc0" style="stroke:#53fca1;stroke-opacity:0.3;"/>
    </defs>
    <g clip-path="url(#p5603a3fbd7)">
     <use style="fill:#53fca1;fill-opacity:0.3;stroke:#53fca1;stroke-opacity:0.3;" x="0" xlink:href="#m6fe53bcdc0" y="1090.099062"/>
    </g>
   </g>
   <g id="PolyCollection_3">
    <defs>
     <path d="M 115.614006 -277.112271 
L 115.614006 -130.339063 
L 115.713094 -220.661037 
L 115.911272 -296.870203 
L 116.307627 -377.313212 
L 117.100338 -413.300874 
L 118.685758 -441.879311 
L 121.8566 -482.277226 
L 128.198283 -486.863888 
L 140.88165 -506.79823 
L 166.248383 -506.62182 
L 216.981848 -518.4854 
L 318.44878 -521.881295 
L 521.382643 -524.998792 
L 927.250369 -526.416964 
L 927.250369 -529.589589 
L 927.250369 -529.589589 
L 521.382643 -529.070006 
L 318.44878 -528.436033 
L 216.981848 -525.828471 
L 166.248383 -522.895653 
L 140.88165 -518.353092 
L 128.198283 -516.677196 
L 121.8566 -502.211568 
L 118.685758 -501.858747 
L 117.100338 -475.397231 
L 116.307627 -459.167502 
L 115.911272 -409.772672 
L 115.713094 -356.143999 
L 115.614006 -277.112271 
z
" id="mea501671a7" style="stroke:#0652ff;stroke-opacity:0.3;"/>
    </defs>
    <g clip-path="url(#p5603a3fbd7)">
     <use style="fill:#0652ff;fill-opacity:0.3;stroke:#0652ff;stroke-opacity:0.3;" x="0" xlink:href="#mea501671a7" y="1090.099062"/>
    </g>
   </g>
   <g id="PolyCollection_4">
    <defs>
     <path d="M 115.614006 -604.52943 
L 115.614006 -457.756221 
L 115.713094 -677.916034 
L 115.911272 -782.350817 
L 116.307627 -879.729196 
L 117.100338 -934.76915 
L 118.685758 -967.228609 
L 121.8566 -986.457311 
L 128.198283 -994.483971 
L 140.88165 -1010.449085 
L 166.248383 -1012.191135 
L 216.981848 -1014.462415 
L 318.44878 -1012.433699 
L 521.382643 -1014.16748 
L 927.250369 -1012.808571 
L 927.250369 -1037.012589 
L 927.250369 -1037.012589 
L 521.382643 -1037.539063 
L 318.44878 -1034.110091 
L 216.981848 -1031.276504 
L 166.248383 -1031.552144 
L 140.88165 -1031.618298 
L 128.198283 -1023.591638 
L 121.8566 -1022.621383 
L 118.685758 -1009.214215 
L 117.100338 -987.692182 
L 116.307627 -946.059396 
L 115.911272 -875.495354 
L 115.713094 -773.883132 
L 115.614006 -604.52943 
z
" id="m0e7649c05f" style="stroke:#ae7181;stroke-opacity:0.3;"/>
    </defs>
    <g clip-path="url(#p5603a3fbd7)">
     <use style="fill:#ae7181;fill-opacity:0.3;stroke:#ae7181;stroke-opacity:0.3;" x="0" xlink:href="#m0e7649c05f" y="1090.099062"/>
    </g>
   </g>
   <g id="PolyCollection_5">
    <defs>
     <path d="M 115.614006 -401.304987 
L 115.614006 -186.790297 
L 115.713094 -277.112271 
L 115.911272 -333.563506 
L 116.307627 -367.434246 
L 117.100338 -396.365504 
L 118.685758 -427.060862 
L 121.8566 -503.975669 
L 128.198283 -519.764373 
L 140.88165 -530.304877 
L 166.248383 -531.385389 
L 216.981848 -562.257158 
L 318.44878 -576.959838 
L 521.382643 -579.876117 
L 927.250369 -583.338166 
L 927.250369 -593.542388 
L 927.250369 -593.542388 
L 521.382643 -592.649312 
L 318.44878 -592.064953 
L 216.981848 -591.265595 
L 166.248383 -590.57098 
L 140.88165 -578.553041 
L 128.198283 -574.539711 
L 121.8566 -578.773554 
L 118.685758 -571.36433 
L 117.100338 -550.195117 
L 116.307627 -519.852578 
L 115.911272 -508.562332 
L 115.713094 -440.820851 
L 115.614006 -401.304987 
z
" id="mc26e98b530" style="stroke:#ff9408;stroke-opacity:0.3;"/>
    </defs>
    <g clip-path="url(#p5603a3fbd7)">
     <use style="fill:#ff9408;fill-opacity:0.3;stroke:#ff9408;stroke-opacity:0.3;" x="0" xlink:href="#mc26e98b530" y="1090.099062"/>
    </g>
   </g>
   <g id="PolyCollection_6">
    <defs>
     <path d="M 115.614006 -378.724493 
L 115.614006 -186.790297 
L 115.713094 -277.112271 
L 115.911272 -339.208629 
L 116.307627 -361.789123 
L 117.100338 -408.361391 
L 118.685758 -428.472143 
L 121.8566 -495.507984 
L 128.198283 -505.298745 
L 140.88165 -514.163352 
L 166.248383 -515.177711 
L 216.981848 -534.869489 
L 318.44878 -544.941403 
L 521.382643 -545.387941 
L 927.250369 -548.017554 
L 927.250369 -553.235435 
L 927.250369 -553.235435 
L 521.382643 -552.587679 
L 318.44878 -554.362806 
L 216.981848 -551.760756 
L 166.248383 -551.143321 
L 140.88165 -549.533579 
L 128.198283 -546.843325 
L 121.8566 -544.549993 
L 118.685758 -557.957161 
L 117.100338 -514.207455 
L 116.307627 -495.860804 
L 115.911272 -483.159276 
L 115.713094 -429.530604 
L 115.614006 -378.724493 
z
" id="m6ee4674027" style="stroke:#ff81c0;stroke-opacity:0.3;"/>
    </defs>
    <g clip-path="url(#p5603a3fbd7)">
     <use style="fill:#ff81c0;fill-opacity:0.3;stroke:#ff81c0;stroke-opacity:0.3;" x="0" xlink:href="#m6ee4674027" y="1090.099062"/>
    </g>
   </g>
   <g id="matplotlib.axis_1">
    <g id="xtick_1">
     <g id="line2d_1">
      <path clip-path="url(#p5603a3fbd7)" d="M 115.514917 1005.12 
L 115.514917 7.2 
" style="fill:none;stroke:#b0b0b0;stroke-linecap:square;stroke-width:0.8;"/>
     </g>
     <g id="line2d_2">
      <defs>
       <path d="M 0 0 
L 0 3.5 
" id="m60159cd5aa" style="stroke:#000000;stroke-width:0.8;"/>
      </defs>
      <g>
       <use style="stroke:#000000;stroke-width:0.8;" x="115.514917" xlink:href="#m60159cd5aa" y="1005.12"/>
      </g>
     </g>
     <g id="text_1">
      <!-- 0 -->
      <g transform="translate(105.971167 1034.915313)scale(0.3 -0.3)">
       <defs>
        <path d="M 2034 4250 
Q 1547 4250 1301 3770 
Q 1056 3291 1056 2328 
Q 1056 1369 1301 889 
Q 1547 409 2034 409 
Q 2525 409 2770 889 
Q 3016 1369 3016 2328 
Q 3016 3291 2770 3770 
Q 2525 4250 2034 4250 
z
M 2034 4750 
Q 2819 4750 3233 4129 
Q 3647 3509 3647 2328 
Q 3647 1150 3233 529 
Q 2819 -91 2034 -91 
Q 1250 -91 836 529 
Q 422 1150 422 2328 
Q 422 3509 836 4129 
Q 1250 4750 2034 4750 
z
" id="DejaVuSans-30" transform="scale(0.015625)"/>
       </defs>
       <use xlink:href="#DejaVuSans-30"/>
      </g>
     </g>
    </g>
    <g id="xtick_2">
     <g id="line2d_3">
      <path clip-path="url(#p5603a3fbd7)" d="M 239.375917 1005.12 
L 239.375917 7.2 
" style="fill:none;stroke:#b0b0b0;stroke-linecap:square;stroke-width:0.8;"/>
     </g>
     <g id="line2d_4">
      <g>
       <use style="stroke:#000000;stroke-width:0.8;" x="239.375917" xlink:href="#m60159cd5aa" y="1005.12"/>
      </g>
     </g>
     <g id="text_2">
      <!-- 20000 -->
      <g transform="translate(191.657167 1034.915313)scale(0.3 -0.3)">
       <defs>
        <path d="M 1228 531 
L 3431 531 
L 3431 0 
L 469 0 
L 469 531 
Q 828 903 1448 1529 
Q 2069 2156 2228 2338 
Q 2531 2678 2651 2914 
Q 2772 3150 2772 3378 
Q 2772 3750 2511 3984 
Q 2250 4219 1831 4219 
Q 1534 4219 1204 4116 
Q 875 4013 500 3803 
L 500 4441 
Q 881 4594 1212 4672 
Q 1544 4750 1819 4750 
Q 2544 4750 2975 4387 
Q 3406 4025 3406 3419 
Q 3406 3131 3298 2873 
Q 3191 2616 2906 2266 
Q 2828 2175 2409 1742 
Q 1991 1309 1228 531 
z
" id="DejaVuSans-32" transform="scale(0.015625)"/>
       </defs>
       <use xlink:href="#DejaVuSans-32"/>
       <use x="63.623047" xlink:href="#DejaVuSans-30"/>
       <use x="127.246094" xlink:href="#DejaVuSans-30"/>
       <use x="190.869141" xlink:href="#DejaVuSans-30"/>
       <use x="254.492188" xlink:href="#DejaVuSans-30"/>
      </g>
     </g>
    </g>
    <g id="xtick_3">
     <g id="line2d_5">
      <path clip-path="url(#p5603a3fbd7)" d="M 363.236918 1005.12 
L 363.236918 7.2 
" style="fill:none;stroke:#b0b0b0;stroke-linecap:square;stroke-width:0.8;"/>
     </g>
     <g id="line2d_6">
      <g>
       <use style="stroke:#000000;stroke-width:0.8;" x="363.236918" xlink:href="#m60159cd5aa" y="1005.12"/>
      </g>
     </g>
     <g id="text_3">
      <!-- 40000 -->
      <g transform="translate(315.518168 1034.915313)scale(0.3 -0.3)">
       <defs>
        <path d="M 2419 4116 
L 825 1625 
L 2419 1625 
L 2419 4116 
z
M 2253 4666 
L 3047 4666 
L 3047 1625 
L 3713 1625 
L 3713 1100 
L 3047 1100 
L 3047 0 
L 2419 0 
L 2419 1100 
L 313 1100 
L 313 1709 
L 2253 4666 
z
" id="DejaVuSans-34" transform="scale(0.015625)"/>
       </defs>
       <use xlink:href="#DejaVuSans-34"/>
       <use x="63.623047" xlink:href="#DejaVuSans-30"/>
       <use x="127.246094" xlink:href="#DejaVuSans-30"/>
       <use x="190.869141" xlink:href="#DejaVuSans-30"/>
       <use x="254.492188" xlink:href="#DejaVuSans-30"/>
      </g>
     </g>
    </g>
    <g id="xtick_4">
     <g id="line2d_7">
      <path clip-path="url(#p5603a3fbd7)" d="M 487.097918 1005.12 
L 487.097918 7.2 
" style="fill:none;stroke:#b0b0b0;stroke-linecap:square;stroke-width:0.8;"/>
     </g>
     <g id="line2d_8">
      <g>
       <use style="stroke:#000000;stroke-width:0.8;" x="487.097918" xlink:href="#m60159cd5aa" y="1005.12"/>
      </g>
     </g>
     <g id="text_4">
      <!-- 60000 -->
      <g transform="translate(439.379168 1034.915313)scale(0.3 -0.3)">
       <defs>
        <path d="M 2113 2584 
Q 1688 2584 1439 2293 
Q 1191 2003 1191 1497 
Q 1191 994 1439 701 
Q 1688 409 2113 409 
Q 2538 409 2786 701 
Q 3034 994 3034 1497 
Q 3034 2003 2786 2293 
Q 2538 2584 2113 2584 
z
M 3366 4563 
L 3366 3988 
Q 3128 4100 2886 4159 
Q 2644 4219 2406 4219 
Q 1781 4219 1451 3797 
Q 1122 3375 1075 2522 
Q 1259 2794 1537 2939 
Q 1816 3084 2150 3084 
Q 2853 3084 3261 2657 
Q 3669 2231 3669 1497 
Q 3669 778 3244 343 
Q 2819 -91 2113 -91 
Q 1303 -91 875 529 
Q 447 1150 447 2328 
Q 447 3434 972 4092 
Q 1497 4750 2381 4750 
Q 2619 4750 2861 4703 
Q 3103 4656 3366 4563 
z
" id="DejaVuSans-36" transform="scale(0.015625)"/>
       </defs>
       <use xlink:href="#DejaVuSans-36"/>
       <use x="63.623047" xlink:href="#DejaVuSans-30"/>
       <use x="127.246094" xlink:href="#DejaVuSans-30"/>
       <use x="190.869141" xlink:href="#DejaVuSans-30"/>
       <use x="254.492188" xlink:href="#DejaVuSans-30"/>
      </g>
     </g>
    </g>
    <g id="xtick_5">
     <g id="line2d_9">
      <path clip-path="url(#p5603a3fbd7)" d="M 610.958919 1005.12 
L 610.958919 7.2 
" style="fill:none;stroke:#b0b0b0;stroke-linecap:square;stroke-width:0.8;"/>
     </g>
     <g id="line2d_10">
      <g>
       <use style="stroke:#000000;stroke-width:0.8;" x="610.958919" xlink:href="#m60159cd5aa" y="1005.12"/>
      </g>
     </g>
     <g id="text_5">
      <!-- 80000 -->
      <g transform="translate(563.240169 1034.915313)scale(0.3 -0.3)">
       <defs>
        <path d="M 2034 2216 
Q 1584 2216 1326 1975 
Q 1069 1734 1069 1313 
Q 1069 891 1326 650 
Q 1584 409 2034 409 
Q 2484 409 2743 651 
Q 3003 894 3003 1313 
Q 3003 1734 2745 1975 
Q 2488 2216 2034 2216 
z
M 1403 2484 
Q 997 2584 770 2862 
Q 544 3141 544 3541 
Q 544 4100 942 4425 
Q 1341 4750 2034 4750 
Q 2731 4750 3128 4425 
Q 3525 4100 3525 3541 
Q 3525 3141 3298 2862 
Q 3072 2584 2669 2484 
Q 3125 2378 3379 2068 
Q 3634 1759 3634 1313 
Q 3634 634 3220 271 
Q 2806 -91 2034 -91 
Q 1263 -91 848 271 
Q 434 634 434 1313 
Q 434 1759 690 2068 
Q 947 2378 1403 2484 
z
M 1172 3481 
Q 1172 3119 1398 2916 
Q 1625 2713 2034 2713 
Q 2441 2713 2670 2916 
Q 2900 3119 2900 3481 
Q 2900 3844 2670 4047 
Q 2441 4250 2034 4250 
Q 1625 4250 1398 4047 
Q 1172 3844 1172 3481 
z
" id="DejaVuSans-38" transform="scale(0.015625)"/>
       </defs>
       <use xlink:href="#DejaVuSans-38"/>
       <use x="63.623047" xlink:href="#DejaVuSans-30"/>
       <use x="127.246094" xlink:href="#DejaVuSans-30"/>
       <use x="190.869141" xlink:href="#DejaVuSans-30"/>
       <use x="254.492188" xlink:href="#DejaVuSans-30"/>
      </g>
     </g>
    </g>
    <g id="xtick_6">
     <g id="line2d_11">
      <path clip-path="url(#p5603a3fbd7)" d="M 734.819919 1005.12 
L 734.819919 7.2 
" style="fill:none;stroke:#b0b0b0;stroke-linecap:square;stroke-width:0.8;"/>
     </g>
     <g id="line2d_12">
      <g>
       <use style="stroke:#000000;stroke-width:0.8;" x="734.819919" xlink:href="#m60159cd5aa" y="1005.12"/>
      </g>
     </g>
     <g id="text_6">
      <!-- 100000 -->
      <g transform="translate(677.557419 1034.915313)scale(0.3 -0.3)">
       <defs>
        <path d="M 794 531 
L 1825 531 
L 1825 4091 
L 703 3866 
L 703 4441 
L 1819 4666 
L 2450 4666 
L 2450 531 
L 3481 531 
L 3481 0 
L 794 0 
L 794 531 
z
" id="DejaVuSans-31" transform="scale(0.015625)"/>
       </defs>
       <use xlink:href="#DejaVuSans-31"/>
       <use x="63.623047" xlink:href="#DejaVuSans-30"/>
       <use x="127.246094" xlink:href="#DejaVuSans-30"/>
       <use x="190.869141" xlink:href="#DejaVuSans-30"/>
       <use x="254.492188" xlink:href="#DejaVuSans-30"/>
       <use x="318.115234" xlink:href="#DejaVuSans-30"/>
      </g>
     </g>
    </g>
    <g id="xtick_7">
     <g id="line2d_13">
      <path clip-path="url(#p5603a3fbd7)" d="M 858.680919 1005.12 
L 858.680919 7.2 
" style="fill:none;stroke:#b0b0b0;stroke-linecap:square;stroke-width:0.8;"/>
     </g>
     <g id="line2d_14">
      <g>
       <use style="stroke:#000000;stroke-width:0.8;" x="858.680919" xlink:href="#m60159cd5aa" y="1005.12"/>
      </g>
     </g>
     <g id="text_7">
      <!-- 120000 -->
      <g transform="translate(801.418419 1034.915313)scale(0.3 -0.3)">
       <use xlink:href="#DejaVuSans-31"/>
       <use x="63.623047" xlink:href="#DejaVuSans-32"/>
       <use x="127.246094" xlink:href="#DejaVuSans-30"/>
       <use x="190.869141" xlink:href="#DejaVuSans-30"/>
       <use x="254.492188" xlink:href="#DejaVuSans-30"/>
       <use x="318.115234" xlink:href="#DejaVuSans-30"/>
      </g>
     </g>
    </g>
    <g id="text_8">
     <!-- Input size -->
     <g transform="translate(426.933359 1074.788281)scale(0.39 -0.39)">
      <defs>
       <path d="M 628 4666 
L 1259 4666 
L 1259 0 
L 628 0 
L 628 4666 
z
" id="DejaVuSans-49" transform="scale(0.015625)"/>
       <path d="M 3513 2113 
L 3513 0 
L 2938 0 
L 2938 2094 
Q 2938 2591 2744 2837 
Q 2550 3084 2163 3084 
Q 1697 3084 1428 2787 
Q 1159 2491 1159 1978 
L 1159 0 
L 581 0 
L 581 3500 
L 1159 3500 
L 1159 2956 
Q 1366 3272 1645 3428 
Q 1925 3584 2291 3584 
Q 2894 3584 3203 3211 
Q 3513 2838 3513 2113 
z
" id="DejaVuSans-6e" transform="scale(0.015625)"/>
       <path d="M 1159 525 
L 1159 -1331 
L 581 -1331 
L 581 3500 
L 1159 3500 
L 1159 2969 
Q 1341 3281 1617 3432 
Q 1894 3584 2278 3584 
Q 2916 3584 3314 3078 
Q 3713 2572 3713 1747 
Q 3713 922 3314 415 
Q 2916 -91 2278 -91 
Q 1894 -91 1617 61 
Q 1341 213 1159 525 
z
M 3116 1747 
Q 3116 2381 2855 2742 
Q 2594 3103 2138 3103 
Q 1681 3103 1420 2742 
Q 1159 2381 1159 1747 
Q 1159 1113 1420 752 
Q 1681 391 2138 391 
Q 2594 391 2855 752 
Q 3116 1113 3116 1747 
z
" id="DejaVuSans-70" transform="scale(0.015625)"/>
       <path d="M 544 1381 
L 544 3500 
L 1119 3500 
L 1119 1403 
Q 1119 906 1312 657 
Q 1506 409 1894 409 
Q 2359 409 2629 706 
Q 2900 1003 2900 1516 
L 2900 3500 
L 3475 3500 
L 3475 0 
L 2900 0 
L 2900 538 
Q 2691 219 2414 64 
Q 2138 -91 1772 -91 
Q 1169 -91 856 284 
Q 544 659 544 1381 
z
M 1991 3584 
L 1991 3584 
z
" id="DejaVuSans-75" transform="scale(0.015625)"/>
       <path d="M 1172 4494 
L 1172 3500 
L 2356 3500 
L 2356 3053 
L 1172 3053 
L 1172 1153 
Q 1172 725 1289 603 
Q 1406 481 1766 481 
L 2356 481 
L 2356 0 
L 1766 0 
Q 1100 0 847 248 
Q 594 497 594 1153 
L 594 3053 
L 172 3053 
L 172 3500 
L 594 3500 
L 594 4494 
L 1172 4494 
z
" id="DejaVuSans-74" transform="scale(0.015625)"/>
       <path id="DejaVuSans-20" transform="scale(0.015625)"/>
       <path d="M 2834 3397 
L 2834 2853 
Q 2591 2978 2328 3040 
Q 2066 3103 1784 3103 
Q 1356 3103 1142 2972 
Q 928 2841 928 2578 
Q 928 2378 1081 2264 
Q 1234 2150 1697 2047 
L 1894 2003 
Q 2506 1872 2764 1633 
Q 3022 1394 3022 966 
Q 3022 478 2636 193 
Q 2250 -91 1575 -91 
Q 1294 -91 989 -36 
Q 684 19 347 128 
L 347 722 
Q 666 556 975 473 
Q 1284 391 1588 391 
Q 1994 391 2212 530 
Q 2431 669 2431 922 
Q 2431 1156 2273 1281 
Q 2116 1406 1581 1522 
L 1381 1569 
Q 847 1681 609 1914 
Q 372 2147 372 2553 
Q 372 3047 722 3315 
Q 1072 3584 1716 3584 
Q 2034 3584 2315 3537 
Q 2597 3491 2834 3397 
z
" id="DejaVuSans-73" transform="scale(0.015625)"/>
       <path d="M 603 3500 
L 1178 3500 
L 1178 0 
L 603 0 
L 603 3500 
z
M 603 4863 
L 1178 4863 
L 1178 4134 
L 603 4134 
L 603 4863 
z
" id="DejaVuSans-69" transform="scale(0.015625)"/>
       <path d="M 353 3500 
L 3084 3500 
L 3084 2975 
L 922 459 
L 3084 459 
L 3084 0 
L 275 0 
L 275 525 
L 2438 3041 
L 353 3041 
L 353 3500 
z
" id="DejaVuSans-7a" transform="scale(0.015625)"/>
       <path d="M 3597 1894 
L 3597 1613 
L 953 1613 
Q 991 1019 1311 708 
Q 1631 397 2203 397 
Q 2534 397 2845 478 
Q 3156 559 3463 722 
L 3463 178 
Q 3153 47 2828 -22 
Q 2503 -91 2169 -91 
Q 1331 -91 842 396 
Q 353 884 353 1716 
Q 353 2575 817 3079 
Q 1281 3584 2069 3584 
Q 2775 3584 3186 3129 
Q 3597 2675 3597 1894 
z
M 3022 2063 
Q 3016 2534 2758 2815 
Q 2500 3097 2075 3097 
Q 1594 3097 1305 2825 
Q 1016 2553 972 2059 
L 3022 2063 
z
" id="DejaVuSans-65" transform="scale(0.015625)"/>
      </defs>
      <use xlink:href="#DejaVuSans-49"/>
      <use x="29.492188" xlink:href="#DejaVuSans-6e"/>
      <use x="92.871094" xlink:href="#DejaVuSans-70"/>
      <use x="156.347656" xlink:href="#DejaVuSans-75"/>
      <use x="219.726562" xlink:href="#DejaVuSans-74"/>
      <use x="258.935547" xlink:href="#DejaVuSans-20"/>
      <use x="290.722656" xlink:href="#DejaVuSans-73"/>
      <use x="342.822266" xlink:href="#DejaVuSans-69"/>
      <use x="370.605469" xlink:href="#DejaVuSans-7a"/>
      <use x="423.095703" xlink:href="#DejaVuSans-65"/>
     </g>
    </g>
   </g>
   <g id="matplotlib.axis_2">
    <g id="ytick_1">
     <g id="line2d_15">
      <path clip-path="url(#p5603a3fbd7)" d="M 75.032188 993.630741 
L 967.832188 993.630741 
" style="fill:none;stroke:#b0b0b0;stroke-linecap:square;stroke-width:0.8;"/>
     </g>
     <g id="line2d_16">
      <defs>
       <path d="M 0 0 
L -3.5 0 
" id="m2e5eb06905" style="stroke:#000000;stroke-width:0.8;"/>
      </defs>
      <g>
       <use style="stroke:#000000;stroke-width:0.8;" x="75.032188" xlink:href="#m2e5eb06905" y="993.630741"/>
      </g>
     </g>
     <g id="text_9">
      <!-- 1 -->
      <g transform="translate(48.944688 1005.028397)scale(0.3 -0.3)">
       <use xlink:href="#DejaVuSans-31"/>
      </g>
     </g>
    </g>
    <g id="ytick_2">
     <g id="line2d_17">
      <path clip-path="url(#p5603a3fbd7)" d="M 75.032188 812.986791 
L 967.832188 812.986791 
" style="fill:none;stroke:#b0b0b0;stroke-linecap:square;stroke-width:0.8;"/>
     </g>
     <g id="line2d_18">
      <g>
       <use style="stroke:#000000;stroke-width:0.8;" x="75.032188" xlink:href="#m2e5eb06905" y="812.986791"/>
      </g>
     </g>
     <g id="text_10">
      <!-- 2 -->
      <g transform="translate(48.944688 824.384447)scale(0.3 -0.3)">
       <use xlink:href="#DejaVuSans-32"/>
      </g>
     </g>
    </g>
    <g id="ytick_3">
     <g id="line2d_19">
      <path clip-path="url(#p5603a3fbd7)" d="M 75.032188 632.342842 
L 967.832188 632.342842 
" style="fill:none;stroke:#b0b0b0;stroke-linecap:square;stroke-width:0.8;"/>
     </g>
     <g id="line2d_20">
      <g>
       <use style="stroke:#000000;stroke-width:0.8;" x="75.032188" xlink:href="#m2e5eb06905" y="632.342842"/>
      </g>
     </g>
     <g id="text_11">
      <!-- 3 -->
      <g transform="translate(48.944688 643.740498)scale(0.3 -0.3)">
       <defs>
        <path d="M 2597 2516 
Q 3050 2419 3304 2112 
Q 3559 1806 3559 1356 
Q 3559 666 3084 287 
Q 2609 -91 1734 -91 
Q 1441 -91 1130 -33 
Q 819 25 488 141 
L 488 750 
Q 750 597 1062 519 
Q 1375 441 1716 441 
Q 2309 441 2620 675 
Q 2931 909 2931 1356 
Q 2931 1769 2642 2001 
Q 2353 2234 1838 2234 
L 1294 2234 
L 1294 2753 
L 1863 2753 
Q 2328 2753 2575 2939 
Q 2822 3125 2822 3475 
Q 2822 3834 2567 4026 
Q 2313 4219 1838 4219 
Q 1578 4219 1281 4162 
Q 984 4106 628 3988 
L 628 4550 
Q 988 4650 1302 4700 
Q 1616 4750 1894 4750 
Q 2613 4750 3031 4423 
Q 3450 4097 3450 3541 
Q 3450 3153 3228 2886 
Q 3006 2619 2597 2516 
z
" id="DejaVuSans-33" transform="scale(0.015625)"/>
       </defs>
       <use xlink:href="#DejaVuSans-33"/>
      </g>
     </g>
    </g>
    <g id="ytick_4">
     <g id="line2d_21">
      <path clip-path="url(#p5603a3fbd7)" d="M 75.032188 451.698892 
L 967.832188 451.698892 
" style="fill:none;stroke:#b0b0b0;stroke-linecap:square;stroke-width:0.8;"/>
     </g>
     <g id="line2d_22">
      <g>
       <use style="stroke:#000000;stroke-width:0.8;" x="75.032188" xlink:href="#m2e5eb06905" y="451.698892"/>
      </g>
     </g>
     <g id="text_12">
      <!-- 4 -->
      <g transform="translate(48.944688 463.096549)scale(0.3 -0.3)">
       <use xlink:href="#DejaVuSans-34"/>
      </g>
     </g>
    </g>
    <g id="ytick_5">
     <g id="line2d_23">
      <path clip-path="url(#p5603a3fbd7)" d="M 75.032188 271.054943 
L 967.832188 271.054943 
" style="fill:none;stroke:#b0b0b0;stroke-linecap:square;stroke-width:0.8;"/>
     </g>
     <g id="line2d_24">
      <g>
       <use style="stroke:#000000;stroke-width:0.8;" x="75.032188" xlink:href="#m2e5eb06905" y="271.054943"/>
      </g>
     </g>
     <g id="text_13">
      <!-- 5 -->
      <g transform="translate(48.944688 282.452599)scale(0.3 -0.3)">
       <defs>
        <path d="M 691 4666 
L 3169 4666 
L 3169 4134 
L 1269 4134 
L 1269 2991 
Q 1406 3038 1543 3061 
Q 1681 3084 1819 3084 
Q 2600 3084 3056 2656 
Q 3513 2228 3513 1497 
Q 3513 744 3044 326 
Q 2575 -91 1722 -91 
Q 1428 -91 1123 -41 
Q 819 9 494 109 
L 494 744 
Q 775 591 1075 516 
Q 1375 441 1709 441 
Q 2250 441 2565 725 
Q 2881 1009 2881 1497 
Q 2881 1984 2565 2268 
Q 2250 2553 1709 2553 
Q 1456 2553 1204 2497 
Q 953 2441 691 2322 
L 691 4666 
z
" id="DejaVuSans-35" transform="scale(0.015625)"/>
       </defs>
       <use xlink:href="#DejaVuSans-35"/>
      </g>
     </g>
    </g>
    <g id="ytick_6">
     <g id="line2d_25">
      <path clip-path="url(#p5603a3fbd7)" d="M 75.032188 90.410994 
L 967.832188 90.410994 
" style="fill:none;stroke:#b0b0b0;stroke-linecap:square;stroke-width:0.8;"/>
     </g>
     <g id="line2d_26">
      <g>
       <use style="stroke:#000000;stroke-width:0.8;" x="75.032188" xlink:href="#m2e5eb06905" y="90.410994"/>
      </g>
     </g>
     <g id="text_14">
      <!-- 6 -->
      <g transform="translate(48.944688 101.80865)scale(0.3 -0.3)">
       <use xlink:href="#DejaVuSans-36"/>
      </g>
     </g>
    </g>
    <g id="text_15">
     <!-- Avg. number of comps / size -->
     <g transform="translate(36.833906 782.922891)rotate(-90)scale(0.39 -0.39)">
      <defs>
       <path d="M 2188 4044 
L 1331 1722 
L 3047 1722 
L 2188 4044 
z
M 1831 4666 
L 2547 4666 
L 4325 0 
L 3669 0 
L 3244 1197 
L 1141 1197 
L 716 0 
L 50 0 
L 1831 4666 
z
" id="DejaVuSans-41" transform="scale(0.015625)"/>
       <path d="M 191 3500 
L 800 3500 
L 1894 563 
L 2988 3500 
L 3597 3500 
L 2284 0 
L 1503 0 
L 191 3500 
z
" id="DejaVuSans-76" transform="scale(0.015625)"/>
       <path d="M 2906 1791 
Q 2906 2416 2648 2759 
Q 2391 3103 1925 3103 
Q 1463 3103 1205 2759 
Q 947 2416 947 1791 
Q 947 1169 1205 825 
Q 1463 481 1925 481 
Q 2391 481 2648 825 
Q 2906 1169 2906 1791 
z
M 3481 434 
Q 3481 -459 3084 -895 
Q 2688 -1331 1869 -1331 
Q 1566 -1331 1297 -1286 
Q 1028 -1241 775 -1147 
L 775 -588 
Q 1028 -725 1275 -790 
Q 1522 -856 1778 -856 
Q 2344 -856 2625 -561 
Q 2906 -266 2906 331 
L 2906 616 
Q 2728 306 2450 153 
Q 2172 0 1784 0 
Q 1141 0 747 490 
Q 353 981 353 1791 
Q 353 2603 747 3093 
Q 1141 3584 1784 3584 
Q 2172 3584 2450 3431 
Q 2728 3278 2906 2969 
L 2906 3500 
L 3481 3500 
L 3481 434 
z
" id="DejaVuSans-67" transform="scale(0.015625)"/>
       <path d="M 684 794 
L 1344 794 
L 1344 0 
L 684 0 
L 684 794 
z
" id="DejaVuSans-2e" transform="scale(0.015625)"/>
       <path d="M 3328 2828 
Q 3544 3216 3844 3400 
Q 4144 3584 4550 3584 
Q 5097 3584 5394 3201 
Q 5691 2819 5691 2113 
L 5691 0 
L 5113 0 
L 5113 2094 
Q 5113 2597 4934 2840 
Q 4756 3084 4391 3084 
Q 3944 3084 3684 2787 
Q 3425 2491 3425 1978 
L 3425 0 
L 2847 0 
L 2847 2094 
Q 2847 2600 2669 2842 
Q 2491 3084 2119 3084 
Q 1678 3084 1418 2786 
Q 1159 2488 1159 1978 
L 1159 0 
L 581 0 
L 581 3500 
L 1159 3500 
L 1159 2956 
Q 1356 3278 1631 3431 
Q 1906 3584 2284 3584 
Q 2666 3584 2933 3390 
Q 3200 3197 3328 2828 
z
" id="DejaVuSans-6d" transform="scale(0.015625)"/>
       <path d="M 3116 1747 
Q 3116 2381 2855 2742 
Q 2594 3103 2138 3103 
Q 1681 3103 1420 2742 
Q 1159 2381 1159 1747 
Q 1159 1113 1420 752 
Q 1681 391 2138 391 
Q 2594 391 2855 752 
Q 3116 1113 3116 1747 
z
M 1159 2969 
Q 1341 3281 1617 3432 
Q 1894 3584 2278 3584 
Q 2916 3584 3314 3078 
Q 3713 2572 3713 1747 
Q 3713 922 3314 415 
Q 2916 -91 2278 -91 
Q 1894 -91 1617 61 
Q 1341 213 1159 525 
L 1159 0 
L 581 0 
L 581 4863 
L 1159 4863 
L 1159 2969 
z
" id="DejaVuSans-62" transform="scale(0.015625)"/>
       <path d="M 2631 2963 
Q 2534 3019 2420 3045 
Q 2306 3072 2169 3072 
Q 1681 3072 1420 2755 
Q 1159 2438 1159 1844 
L 1159 0 
L 581 0 
L 581 3500 
L 1159 3500 
L 1159 2956 
Q 1341 3275 1631 3429 
Q 1922 3584 2338 3584 
Q 2397 3584 2469 3576 
Q 2541 3569 2628 3553 
L 2631 2963 
z
" id="DejaVuSans-72" transform="scale(0.015625)"/>
       <path d="M 1959 3097 
Q 1497 3097 1228 2736 
Q 959 2375 959 1747 
Q 959 1119 1226 758 
Q 1494 397 1959 397 
Q 2419 397 2687 759 
Q 2956 1122 2956 1747 
Q 2956 2369 2687 2733 
Q 2419 3097 1959 3097 
z
M 1959 3584 
Q 2709 3584 3137 3096 
Q 3566 2609 3566 1747 
Q 3566 888 3137 398 
Q 2709 -91 1959 -91 
Q 1206 -91 779 398 
Q 353 888 353 1747 
Q 353 2609 779 3096 
Q 1206 3584 1959 3584 
z
" id="DejaVuSans-6f" transform="scale(0.015625)"/>
       <path d="M 2375 4863 
L 2375 4384 
L 1825 4384 
Q 1516 4384 1395 4259 
Q 1275 4134 1275 3809 
L 1275 3500 
L 2222 3500 
L 2222 3053 
L 1275 3053 
L 1275 0 
L 697 0 
L 697 3053 
L 147 3053 
L 147 3500 
L 697 3500 
L 697 3744 
Q 697 4328 969 4595 
Q 1241 4863 1831 4863 
L 2375 4863 
z
" id="DejaVuSans-66" transform="scale(0.015625)"/>
       <path d="M 3122 3366 
L 3122 2828 
Q 2878 2963 2633 3030 
Q 2388 3097 2138 3097 
Q 1578 3097 1268 2742 
Q 959 2388 959 1747 
Q 959 1106 1268 751 
Q 1578 397 2138 397 
Q 2388 397 2633 464 
Q 2878 531 3122 666 
L 3122 134 
Q 2881 22 2623 -34 
Q 2366 -91 2075 -91 
Q 1284 -91 818 406 
Q 353 903 353 1747 
Q 353 2603 823 3093 
Q 1294 3584 2113 3584 
Q 2378 3584 2631 3529 
Q 2884 3475 3122 3366 
z
" id="DejaVuSans-63" transform="scale(0.015625)"/>
       <path d="M 1625 4666 
L 2156 4666 
L 531 -594 
L 0 -594 
L 1625 4666 
z
" id="DejaVuSans-2f" transform="scale(0.015625)"/>
      </defs>
      <use xlink:href="#DejaVuSans-41"/>
      <use x="62.533203" xlink:href="#DejaVuSans-76"/>
      <use x="121.712891" xlink:href="#DejaVuSans-67"/>
      <use x="185.189453" xlink:href="#DejaVuSans-2e"/>
      <use x="216.976562" xlink:href="#DejaVuSans-20"/>
      <use x="248.763672" xlink:href="#DejaVuSans-6e"/>
      <use x="312.142578" xlink:href="#DejaVuSans-75"/>
      <use x="375.521484" xlink:href="#DejaVuSans-6d"/>
      <use x="472.933594" xlink:href="#DejaVuSans-62"/>
      <use x="536.410156" xlink:href="#DejaVuSans-65"/>
      <use x="597.933594" xlink:href="#DejaVuSans-72"/>
      <use x="639.046875" xlink:href="#DejaVuSans-20"/>
      <use x="670.833984" xlink:href="#DejaVuSans-6f"/>
      <use x="732.015625" xlink:href="#DejaVuSans-66"/>
      <use x="767.220703" xlink:href="#DejaVuSans-20"/>
      <use x="799.007812" xlink:href="#DejaVuSans-63"/>
      <use x="853.988281" xlink:href="#DejaVuSans-6f"/>
      <use x="915.169922" xlink:href="#DejaVuSans-6d"/>
      <use x="1012.582031" xlink:href="#DejaVuSans-70"/>
      <use x="1076.058594" xlink:href="#DejaVuSans-73"/>
      <use x="1128.158203" xlink:href="#DejaVuSans-20"/>
      <use x="1159.945312" xlink:href="#DejaVuSans-2f"/>
      <use x="1193.636719" xlink:href="#DejaVuSans-20"/>
      <use x="1225.423828" xlink:href="#DejaVuSans-73"/>
      <use x="1277.523438" xlink:href="#DejaVuSans-69"/>
      <use x="1305.306641" xlink:href="#DejaVuSans-7a"/>
      <use x="1357.796875" xlink:href="#DejaVuSans-65"/>
     </g>
    </g>
   </g>
   <g id="line2d_27">
    <path clip-path="url(#p5603a3fbd7)" d="M 115.614006 869.438025 
L 115.713094 792.664347 
L 115.911272 719.701127 
L 116.307627 667.130915 
L 117.100338 628.99105 
L 118.685758 609.162554 
L 121.8566 587.843392 
L 128.198283 568.936639 
L 140.88165 562.513106 
L 166.248383 545.719966 
L 216.981848 547.154401 
L 318.44878 529.516698 
L 521.382643 541.656746 
L 927.250369 540.92106 
" style="fill:none;stroke:#fe0002;stroke-linecap:square;stroke-width:1.5;"/>
    <defs>
     <path d="M 0 4.5 
C 1.193414 4.5 2.338109 4.025852 3.181981 3.181981 
C 4.025852 2.338109 4.5 1.193414 4.5 0 
C 4.5 -1.193414 4.025852 -2.338109 3.181981 -3.181981 
C 2.338109 -4.025852 1.193414 -4.5 0 -4.5 
C -1.193414 -4.5 -2.338109 -4.025852 -3.181981 -3.181981 
C -4.025852 -2.338109 -4.5 -1.193414 -4.5 0 
C -4.5 1.193414 -4.025852 2.338109 -3.181981 3.181981 
C -2.338109 4.025852 -1.193414 4.5 0 4.5 
z
" id="m2a4eaee0e2" style="stroke:#000000;"/>
    </defs>
    <g clip-path="url(#p5603a3fbd7)">
     <use style="fill:#fe0002;stroke:#000000;" x="115.614006" xlink:href="#m2a4eaee0e2" y="869.438025"/>
     <use style="fill:#fe0002;stroke:#000000;" x="115.713094" xlink:href="#m2a4eaee0e2" y="792.664347"/>
     <use style="fill:#fe0002;stroke:#000000;" x="115.911272" xlink:href="#m2a4eaee0e2" y="719.701127"/>
     <use style="fill:#fe0002;stroke:#000000;" x="116.307627" xlink:href="#m2a4eaee0e2" y="667.130915"/>
     <use style="fill:#fe0002;stroke:#000000;" x="117.100338" xlink:href="#m2a4eaee0e2" y="628.99105"/>
     <use style="fill:#fe0002;stroke:#000000;" x="118.685758" xlink:href="#m2a4eaee0e2" y="609.162554"/>
     <use style="fill:#fe0002;stroke:#000000;" x="121.8566" xlink:href="#m2a4eaee0e2" y="587.843392"/>
     <use style="fill:#fe0002;stroke:#000000;" x="128.198283" xlink:href="#m2a4eaee0e2" y="568.936639"/>
     <use style="fill:#fe0002;stroke:#000000;" x="140.88165" xlink:href="#m2a4eaee0e2" y="562.513106"/>
     <use style="fill:#fe0002;stroke:#000000;" x="166.248383" xlink:href="#m2a4eaee0e2" y="545.719966"/>
     <use style="fill:#fe0002;stroke:#000000;" x="216.981848" xlink:href="#m2a4eaee0e2" y="547.154401"/>
     <use style="fill:#fe0002;stroke:#000000;" x="318.44878" xlink:href="#m2a4eaee0e2" y="529.516698"/>
     <use style="fill:#fe0002;stroke:#000000;" x="521.382643" xlink:href="#m2a4eaee0e2" y="541.656746"/>
     <use style="fill:#fe0002;stroke:#000000;" x="927.250369" xlink:href="#m2a4eaee0e2" y="540.92106"/>
    </g>
   </g>
   <g id="line2d_28">
    <path clip-path="url(#p5603a3fbd7)" d="M 115.614006 863.792902 
L 115.713094 785.607943 
L 115.911272 721.535792 
L 116.307627 674.046191 
L 117.100338 638.552477 
L 118.685758 615.672087 
L 121.8566 596.443385 
L 128.198283 585.430984 
L 140.88165 575.249916 
L 166.248383 569.383177 
L 216.981848 565.77118 
L 318.44878 562.220927 
L 521.382643 560.422508 
L 927.250369 559.22857 
" style="fill:none;stroke:#53fca1;stroke-linecap:square;stroke-width:1.5;"/>
    <defs>
     <path d="M 0 -4.5 
L -4.5 4.5 
L 4.5 4.5 
z
" id="m2703178a7b" style="stroke:#000000;stroke-linejoin:miter;"/>
    </defs>
    <g clip-path="url(#p5603a3fbd7)">
     <use style="fill:#53fca1;stroke:#000000;stroke-linejoin:miter;" x="115.614006" xlink:href="#m2703178a7b" y="863.792902"/>
     <use style="fill:#53fca1;stroke:#000000;stroke-linejoin:miter;" x="115.713094" xlink:href="#m2703178a7b" y="785.607943"/>
     <use style="fill:#53fca1;stroke:#000000;stroke-linejoin:miter;" x="115.911272" xlink:href="#m2703178a7b" y="721.535792"/>
     <use style="fill:#53fca1;stroke:#000000;stroke-linejoin:miter;" x="116.307627" xlink:href="#m2703178a7b" y="674.046191"/>
     <use style="fill:#53fca1;stroke:#000000;stroke-linejoin:miter;" x="117.100338" xlink:href="#m2703178a7b" y="638.552477"/>
     <use style="fill:#53fca1;stroke:#000000;stroke-linejoin:miter;" x="118.685758" xlink:href="#m2703178a7b" y="615.672087"/>
     <use style="fill:#53fca1;stroke:#000000;stroke-linejoin:miter;" x="121.8566" xlink:href="#m2703178a7b" y="596.443385"/>
     <use style="fill:#53fca1;stroke:#000000;stroke-linejoin:miter;" x="128.198283" xlink:href="#m2703178a7b" y="585.430984"/>
     <use style="fill:#53fca1;stroke:#000000;stroke-linejoin:miter;" x="140.88165" xlink:href="#m2703178a7b" y="575.249916"/>
     <use style="fill:#53fca1;stroke:#000000;stroke-linejoin:miter;" x="166.248383" xlink:href="#m2703178a7b" y="569.383177"/>
     <use style="fill:#53fca1;stroke:#000000;stroke-linejoin:miter;" x="216.981848" xlink:href="#m2703178a7b" y="565.77118"/>
     <use style="fill:#53fca1;stroke:#000000;stroke-linejoin:miter;" x="318.44878" xlink:href="#m2703178a7b" y="562.220927"/>
     <use style="fill:#53fca1;stroke:#000000;stroke-linejoin:miter;" x="521.382643" xlink:href="#m2703178a7b" y="560.422508"/>
     <use style="fill:#53fca1;stroke:#000000;stroke-linejoin:miter;" x="927.250369" xlink:href="#m2703178a7b" y="559.22857"/>
    </g>
   </g>
   <g id="line2d_29">
    <path clip-path="url(#p5603a3fbd7)" d="M 115.614006 863.792902 
L 115.713094 782.785381 
L 115.911272 718.71323 
L 116.307627 671.364757 
L 117.100338 639.152272 
L 118.685758 615.689728 
L 121.8566 597.343077 
L 128.198283 586.652624 
L 140.88165 576.575197 
L 166.248383 571.298329 
L 216.981848 567.80155 
L 318.44878 564.630303 
L 521.382643 562.668705 
L 927.250369 561.561456 
" style="fill:none;stroke:#0652ff;stroke-linecap:square;stroke-width:1.5;"/>
    <defs>
     <path d="M 0 -4.5 
L -4.279754 -1.390576 
L -2.645034 3.640576 
L 2.645034 3.640576 
L 4.279754 -1.390576 
z
" id="m6675e85197" style="stroke:#000000;stroke-linejoin:miter;"/>
    </defs>
    <g clip-path="url(#p5603a3fbd7)">
     <use style="fill:#0652ff;stroke:#000000;stroke-linejoin:miter;" x="115.614006" xlink:href="#m6675e85197" y="863.792902"/>
     <use style="fill:#0652ff;stroke:#000000;stroke-linejoin:miter;" x="115.713094" xlink:href="#m6675e85197" y="782.785381"/>
     <use style="fill:#0652ff;stroke:#000000;stroke-linejoin:miter;" x="115.911272" xlink:href="#m6675e85197" y="718.71323"/>
     <use style="fill:#0652ff;stroke:#000000;stroke-linejoin:miter;" x="116.307627" xlink:href="#m6675e85197" y="671.364757"/>
     <use style="fill:#0652ff;stroke:#000000;stroke-linejoin:miter;" x="117.100338" xlink:href="#m6675e85197" y="639.152272"/>
     <use style="fill:#0652ff;stroke:#000000;stroke-linejoin:miter;" x="118.685758" xlink:href="#m6675e85197" y="615.689728"/>
     <use style="fill:#0652ff;stroke:#000000;stroke-linejoin:miter;" x="121.8566" xlink:href="#m6675e85197" y="597.343077"/>
     <use style="fill:#0652ff;stroke:#000000;stroke-linejoin:miter;" x="128.198283" xlink:href="#m6675e85197" y="586.652624"/>
     <use style="fill:#0652ff;stroke:#000000;stroke-linejoin:miter;" x="140.88165" xlink:href="#m6675e85197" y="576.575197"/>
     <use style="fill:#0652ff;stroke:#000000;stroke-linejoin:miter;" x="166.248383" xlink:href="#m6675e85197" y="571.298329"/>
     <use style="fill:#0652ff;stroke:#000000;stroke-linejoin:miter;" x="216.981848" xlink:href="#m6675e85197" y="567.80155"/>
     <use style="fill:#0652ff;stroke:#000000;stroke-linejoin:miter;" x="318.44878" xlink:href="#m6675e85197" y="564.630303"/>
     <use style="fill:#0652ff;stroke:#000000;stroke-linejoin:miter;" x="521.382643" xlink:href="#m6675e85197" y="562.668705"/>
     <use style="fill:#0652ff;stroke:#000000;stroke-linejoin:miter;" x="927.250369" xlink:href="#m6675e85197" y="561.561456"/>
    </g>
   </g>
   <g id="line2d_30">
    <path clip-path="url(#p5603a3fbd7)" d="M 115.614006 545.972453 
L 115.713094 371.53814 
L 115.911272 251.297011 
L 116.307627 176.92251 
L 117.100338 129.150653 
L 118.685758 100.025344 
L 121.8566 85.250998 
L 128.198283 78.340132 
L 140.88165 68.904396 
L 166.248383 68.585756 
L 216.981848 67.637551 
L 318.44878 65.437662 
L 521.382643 64.095429 
L 927.250369 64.824224 
" style="fill:none;stroke:#ae7181;stroke-linecap:square;stroke-width:1.5;"/>
    <defs>
     <path d="M -4.5 4.5 
L 4.5 4.5 
L 4.5 -4.5 
L -4.5 -4.5 
z
" id="m7e1b479060" style="stroke:#000000;stroke-linejoin:miter;"/>
    </defs>
    <g clip-path="url(#p5603a3fbd7)">
     <use style="fill:#ae7181;stroke:#000000;stroke-linejoin:miter;" x="115.614006" xlink:href="#m7e1b479060" y="545.972453"/>
     <use style="fill:#ae7181;stroke:#000000;stroke-linejoin:miter;" x="115.713094" xlink:href="#m7e1b479060" y="371.53814"/>
     <use style="fill:#ae7181;stroke:#000000;stroke-linejoin:miter;" x="115.911272" xlink:href="#m7e1b479060" y="251.297011"/>
     <use style="fill:#ae7181;stroke:#000000;stroke-linejoin:miter;" x="116.307627" xlink:href="#m7e1b479060" y="176.92251"/>
     <use style="fill:#ae7181;stroke:#000000;stroke-linejoin:miter;" x="117.100338" xlink:href="#m7e1b479060" y="129.150653"/>
     <use style="fill:#ae7181;stroke:#000000;stroke-linejoin:miter;" x="118.685758" xlink:href="#m7e1b479060" y="100.025344"/>
     <use style="fill:#ae7181;stroke:#000000;stroke-linejoin:miter;" x="121.8566" xlink:href="#m7e1b479060" y="85.250998"/>
     <use style="fill:#ae7181;stroke:#000000;stroke-linejoin:miter;" x="128.198283" xlink:href="#m7e1b479060" y="78.340132"/>
     <use style="fill:#ae7181;stroke:#000000;stroke-linejoin:miter;" x="140.88165" xlink:href="#m7e1b479060" y="68.904396"/>
     <use style="fill:#ae7181;stroke:#000000;stroke-linejoin:miter;" x="166.248383" xlink:href="#m7e1b479060" y="68.585756"/>
     <use style="fill:#ae7181;stroke:#000000;stroke-linejoin:miter;" x="216.981848" xlink:href="#m7e1b479060" y="67.637551"/>
     <use style="fill:#ae7181;stroke:#000000;stroke-linejoin:miter;" x="318.44878" xlink:href="#m7e1b479060" y="65.437662"/>
     <use style="fill:#ae7181;stroke:#000000;stroke-linejoin:miter;" x="521.382643" xlink:href="#m7e1b479060" y="64.095429"/>
     <use style="fill:#ae7181;stroke:#000000;stroke-linejoin:miter;" x="927.250369" xlink:href="#m7e1b479060" y="64.824224"/>
    </g>
   </g>
   <g id="line2d_31">
    <path clip-path="url(#p5603a3fbd7)" d="M 115.614006 774.03544 
L 115.713094 704.600421 
L 115.911272 669.459528 
L 116.307627 632.48397 
L 117.100338 601.894457 
L 118.685758 579.631502 
L 121.8566 555.50742 
L 128.198283 544.887531 
L 140.88165 531.641337 
L 166.248383 518.163605 
L 216.981848 511.432457 
L 318.44878 506.351019 
L 521.382643 502.337 
L 927.250369 500.236824 
" style="fill:none;stroke:#ff9408;stroke-linecap:square;stroke-width:1.5;"/>
    <defs>
     <path d="M 0 2.25 
C 0.596707 2.25 1.169055 2.012926 1.59099 1.59099 
C 2.012926 1.169055 2.25 0.596707 2.25 0 
C 2.25 -0.596707 2.012926 -1.169055 1.59099 -1.59099 
C 1.169055 -2.012926 0.596707 -2.25 0 -2.25 
C -0.596707 -2.25 -1.169055 -2.012926 -1.59099 -1.59099 
C -2.012926 -1.169055 -2.25 -0.596707 -2.25 0 
C -2.25 0.596707 -2.012926 1.169055 -1.59099 1.59099 
C -1.169055 2.012926 -0.596707 2.25 0 2.25 
z
" id="m89a8af4818" style="stroke:#000000;"/>
    </defs>
    <g clip-path="url(#p5603a3fbd7)">
     <use style="fill:#ff9408;stroke:#000000;" x="115.614006" xlink:href="#m89a8af4818" y="774.03544"/>
     <use style="fill:#ff9408;stroke:#000000;" x="115.713094" xlink:href="#m89a8af4818" y="704.600421"/>
     <use style="fill:#ff9408;stroke:#000000;" x="115.911272" xlink:href="#m89a8af4818" y="669.459528"/>
     <use style="fill:#ff9408;stroke:#000000;" x="116.307627" xlink:href="#m89a8af4818" y="632.48397"/>
     <use style="fill:#ff9408;stroke:#000000;" x="117.100338" xlink:href="#m89a8af4818" y="601.894457"/>
     <use style="fill:#ff9408;stroke:#000000;" x="118.685758" xlink:href="#m89a8af4818" y="579.631502"/>
     <use style="fill:#ff9408;stroke:#000000;" x="121.8566" xlink:href="#m89a8af4818" y="555.50742"/>
     <use style="fill:#ff9408;stroke:#000000;" x="128.198283" xlink:href="#m89a8af4818" y="544.887531"/>
     <use style="fill:#ff9408;stroke:#000000;" x="140.88165" xlink:href="#m89a8af4818" y="531.641337"/>
     <use style="fill:#ff9408;stroke:#000000;" x="166.248383" xlink:href="#m89a8af4818" y="518.163605"/>
     <use style="fill:#ff9408;stroke:#000000;" x="216.981848" xlink:href="#m89a8af4818" y="511.432457"/>
     <use style="fill:#ff9408;stroke:#000000;" x="318.44878" xlink:href="#m89a8af4818" y="506.351019"/>
     <use style="fill:#ff9408;stroke:#000000;" x="521.382643" xlink:href="#m89a8af4818" y="502.337"/>
     <use style="fill:#ff9408;stroke:#000000;" x="927.250369" xlink:href="#m89a8af4818" y="500.236824"/>
    </g>
   </g>
   <g id="line2d_32">
    <path clip-path="url(#p5603a3fbd7)" d="M 115.614006 789.277273 
L 115.713094 713.068107 
L 115.911272 668.330504 
L 116.307627 637.494017 
L 117.100338 612.090961 
L 118.685758 593.956002 
L 121.8566 575.92689 
L 128.198283 566.855 
L 140.88165 556.144701 
L 166.248383 549.597681 
L 216.981848 545.376518 
L 318.44878 542.000194 
L 521.382643 540.170904 
L 927.250369 539.318347 
" style="fill:none;stroke:#ff81c0;stroke-linecap:square;stroke-width:1.5;"/>
    <defs>
     <path d="M 4.5 0 
L -4.5 -4.5 
L -4.5 4.5 
z
" id="m0adfb1c49d" style="stroke:#000000;stroke-linejoin:miter;"/>
    </defs>
    <g clip-path="url(#p5603a3fbd7)">
     <use style="fill:#ff81c0;stroke:#000000;stroke-linejoin:miter;" x="115.614006" xlink:href="#m0adfb1c49d" y="789.277273"/>
     <use style="fill:#ff81c0;stroke:#000000;stroke-linejoin:miter;" x="115.713094" xlink:href="#m0adfb1c49d" y="713.068107"/>
     <use style="fill:#ff81c0;stroke:#000000;stroke-linejoin:miter;" x="115.911272" xlink:href="#m0adfb1c49d" y="668.330504"/>
     <use style="fill:#ff81c0;stroke:#000000;stroke-linejoin:miter;" x="116.307627" xlink:href="#m0adfb1c49d" y="637.494017"/>
     <use style="fill:#ff81c0;stroke:#000000;stroke-linejoin:miter;" x="117.100338" xlink:href="#m0adfb1c49d" y="612.090961"/>
     <use style="fill:#ff81c0;stroke:#000000;stroke-linejoin:miter;" x="118.685758" xlink:href="#m0adfb1c49d" y="593.956002"/>
     <use style="fill:#ff81c0;stroke:#000000;stroke-linejoin:miter;" x="121.8566" xlink:href="#m0adfb1c49d" y="575.92689"/>
     <use style="fill:#ff81c0;stroke:#000000;stroke-linejoin:miter;" x="128.198283" xlink:href="#m0adfb1c49d" y="566.855"/>
     <use style="fill:#ff81c0;stroke:#000000;stroke-linejoin:miter;" x="140.88165" xlink:href="#m0adfb1c49d" y="556.144701"/>
     <use style="fill:#ff81c0;stroke:#000000;stroke-linejoin:miter;" x="166.248383" xlink:href="#m0adfb1c49d" y="549.597681"/>
     <use style="fill:#ff81c0;stroke:#000000;stroke-linejoin:miter;" x="216.981848" xlink:href="#m0adfb1c49d" y="545.376518"/>
     <use style="fill:#ff81c0;stroke:#000000;stroke-linejoin:miter;" x="318.44878" xlink:href="#m0adfb1c49d" y="542.000194"/>
     <use style="fill:#ff81c0;stroke:#000000;stroke-linejoin:miter;" x="521.382643" xlink:href="#m0adfb1c49d" y="540.170904"/>
     <use style="fill:#ff81c0;stroke:#000000;stroke-linejoin:miter;" x="927.250369" xlink:href="#m0adfb1c49d" y="539.318347"/>
    </g>
   </g>
   <g id="patch_3">
    <path d="M 75.032188 1005.12 
L 75.032188 7.2 
" style="fill:none;stroke:#000000;stroke-linecap:square;stroke-linejoin:miter;stroke-width:0.8;"/>
   </g>
   <g id="patch_4">
    <path d="M 967.832188 1005.12 
L 967.832188 7.2 
" style="fill:none;stroke:#000000;stroke-linecap:square;stroke-linejoin:miter;stroke-width:0.8;"/>
   </g>
   <g id="patch_5">
    <path d="M 75.032188 1005.12 
L 967.832188 1005.12 
" style="fill:none;stroke:#000000;stroke-linecap:square;stroke-linejoin:miter;stroke-width:0.8;"/>
   </g>
   <g id="patch_6">
    <path d="M 75.032188 7.2 
L 967.832188 7.2 
" style="fill:none;stroke:#000000;stroke-linecap:square;stroke-linejoin:miter;stroke-width:0.8;"/>
   </g>
  </g>
 </g>
 <defs>
  <clipPath id="p5603a3fbd7">
   <rect height="997.92" width="892.8" x="75.032188" y="7.2"/>
  </clipPath>
 </defs>
</svg>
