<?xml version="1.0" encoding="utf-8" standalone="no"?>
<!DOCTYPE svg PUBLIC "-//W3C//DTD SVG 1.1//EN"
  "http://www.w3.org/Graphics/SVG/1.1/DTD/svg11.dtd">
<!-- Created with matplotlib (https://matplotlib.org/) -->
<svg height="1090.099062pt" version="1.1" viewBox="0 0 1001.800955 1090.099062" width="1001.800955pt" xmlns="http://www.w3.org/2000/svg" xmlns:xlink="http://www.w3.org/1999/xlink">
 <metadata>
  <rdf:RDF xmlns:cc="http://creativecommons.org/ns#" xmlns:dc="http://purl.org/dc/elements/1.1/" xmlns:rdf="http://www.w3.org/1999/02/22-rdf-syntax-ns#">
   <cc:Work>
    <dc:type rdf:resource="http://purl.org/dc/dcmitype/StillImage"/>
    <dc:date>2021-05-03T17:12:23.369790</dc:date>
    <dc:format>image/svg+xml</dc:format>
    <dc:creator>
     <cc:Agent>
      <dc:title>Matplotlib v3.3.2, https://matplotlib.org/</dc:title>
     </cc:Agent>
    </dc:creator>
   </cc:Work>
  </rdf:RDF>
 </metadata>
 <defs>
  <style type="text/css">*{stroke-linecap:butt;stroke-linejoin:round;}</style>
 </defs>
 <g id="figure_1">
  <g id="patch_1">
   <path d="M 0 1090.099062 
L 1001.800955 1090.099062 
L 1001.800955 0 
L 0 0 
z
" style="fill:#ffffff;"/>
  </g>
  <g id="axes_1">
   <g id="patch_2">
    <path d="M 80.996875 1005.12 
L 973.796875 1005.12 
L 973.796875 7.2 
L 80.996875 7.2 
z
" style="fill:#ffffff;"/>
   </g>
   <g id="PolyCollection_1">
    <defs>
     <path d="M 121.578693 -242.334994 
L 121.578693 -242.334994 
L 149.566154 -549.718083 
L 177.553615 -606.617366 
L 205.541076 -639.733505 
L 233.528536 -662.091987 
L 261.515997 -680.38485 
L 289.503458 -694.19051 
L 317.490919 -705.791334 
L 345.47838 -715.473226 
L 373.465841 -724.152038 
L 401.453301 -731.037908 
L 429.440762 -738.762099 
L 457.428223 -744.325068 
L 485.415684 -748.347075 
L 513.403145 -754.423697 
L 541.390605 -758.697685 
L 569.378066 -763.180042 
L 597.365527 -766.387956 
L 625.352988 -770.346968 
L 653.340449 -773.23506 
L 681.327909 -774.780867 
L 709.31537 -777.882174 
L 737.302831 -780.901102 
L 765.290292 -782.325764 
L 793.277753 -785.11694 
L 821.265214 -786.846888 
L 849.252674 -789.34247 
L 877.240135 -790.844666 
L 905.227596 -791.503693 
L 933.215057 -794.057425 
L 933.215057 -796.393097 
L 933.215057 -796.393097 
L 905.227596 -795.21557 
L 877.240135 -794.78914 
L 849.252674 -791.750829 
L 821.265214 -789.565377 
L 793.277753 -788.702826 
L 765.290292 -785.460991 
L 737.302831 -784.918263 
L 709.31537 -780.363219 
L 681.327909 -777.988781 
L 653.340449 -776.762796 
L 625.352988 -772.697177 
L 597.365527 -768.704245 
L 569.378066 -765.835536 
L 541.390605 -761.648772 
L 513.403145 -758.421475 
L 485.415684 -752.480535 
L 457.428223 -746.796421 
L 429.440762 -741.601733 
L 401.453301 -734.870929 
L 373.465841 -727.461714 
L 345.47838 -717.973654 
L 317.490919 -708.369295 
L 289.503458 -696.356578 
L 261.515997 -682.807745 
L 233.528536 -664.723252 
L 205.541076 -642.611905 
L 177.553615 -610.455233 
L 149.566154 -552.402652 
L 121.578693 -242.334994 
z
" id="me814162cd5" style="stroke:#fe0002;stroke-opacity:0.3;"/>
    </defs>
    <g clip-path="url(#p554e728a6e)">
     <use style="fill:#fe0002;fill-opacity:0.3;stroke:#fe0002;stroke-opacity:0.3;" x="0" xlink:href="#me814162cd5" y="1090.099062"/>
    </g>
   </g>
   <g id="PolyCollection_2">
    <g clip-path="url(#p554e728a6e)">
     <use style="fill:#fe0002;fill-opacity:0.3;stroke:#fe0002;stroke-opacity:0.3;" x="0" xlink:href="#me814162cd5" y="1090.099062"/>
    </g>
   </g>
   <g id="PolyCollection_3">
    <defs>
     <path d="M 121.578693 -130.339063 
L 121.578693 -130.339063 
L 149.566154 -563.717575 
L 177.553615 -643.653751 
L 205.541076 -689.587008 
L 233.528536 -722.417245 
L 261.515997 -745.153698 
L 289.503458 -766.601171 
L 317.490919 -782.427526 
L 345.47838 -796.490013 
L 373.465841 -808.35251 
L 401.453301 -816.304454 
L 429.440762 -827.236559 
L 457.428223 -835.614933 
L 485.415684 -844.284054 
L 513.403145 -848.582271 
L 541.390605 -856.088402 
L 569.378066 -862.819206 
L 597.365527 -867.127115 
L 625.352988 -872.6707 
L 653.340449 -876.542487 
L 681.327909 -880.908546 
L 709.31537 -882.46889 
L 737.302831 -887.634504 
L 765.290292 -890.663124 
L 793.277753 -892.557828 
L 821.265214 -896.18248 
L 849.252674 -898.159563 
L 877.240135 -902.336635 
L 905.227596 -904.100503 
L 933.215057 -904.943671 
L 933.215057 -910.269196 
L 933.215057 -910.269196 
L 905.227596 -907.851146 
L 877.240135 -907.211502 
L 849.252674 -903.552929 
L 821.265214 -899.666604 
L 793.277753 -898.595684 
L 765.290292 -894.389537 
L 737.302831 -892.69351 
L 709.31537 -888.521284 
L 681.327909 -883.438049 
L 653.340449 -880.923083 
L 625.352988 -875.248661 
L 597.365527 -872.985677 
L 569.378066 -866.734606 
L 541.390605 -863.105108 
L 513.403145 -854.305151 
L 485.415684 -848.776102 
L 457.428223 -840.441341 
L 429.440762 -834.897756 
L 401.453301 -822.536142 
L 373.465841 -813.70711 
L 345.47838 -801.941528 
L 317.490919 -787.467149 
L 289.503458 -771.170752 
L 261.515997 -751.419306 
L 233.528536 -726.473172 
L 205.541076 -693.541173 
L 177.553615 -649.386322 
L 149.566154 -569.760277 
L 121.578693 -130.339063 
z
" id="mf2d3d45da2" style="stroke:#53fca1;stroke-opacity:0.3;"/>
    </defs>
    <g clip-path="url(#p554e728a6e)">
     <use style="fill:#53fca1;fill-opacity:0.3;stroke:#53fca1;stroke-opacity:0.3;" x="0" xlink:href="#mf2d3d45da2" y="1090.099062"/>
    </g>
   </g>
   <g id="PolyCollection_4">
    <defs>
     <path d="M 121.578693 -130.339063 
L 121.578693 -130.339063 
L 149.566154 -386.264692 
L 177.553615 -428.156559 
L 205.541076 -451.726489 
L 233.528536 -468.861207 
L 261.515997 -480.394191 
L 289.503458 -490.759339 
L 317.490919 -499.326698 
L 345.47838 -506.561465 
L 373.465841 -512.647779 
L 401.453301 -516.771547 
L 429.440762 -521.888703 
L 457.428223 -526.070621 
L 485.415684 -530.363992 
L 513.403145 -533.067944 
L 541.390605 -536.624755 
L 569.378066 -539.973197 
L 597.365527 -542.056887 
L 625.352988 -544.785068 
L 653.340449 -547.038361 
L 681.327909 -549.015444 
L 709.31537 -550.226891 
L 737.302831 -552.368731 
L 765.290292 -554.059912 
L 793.277753 -554.888543 
L 821.265214 -556.749327 
L 849.252674 -557.955929 
L 877.240135 -559.79733 
L 905.227596 -560.645343 
L 933.215057 -561.51274 
L 933.215057 -563.83872 
L 933.215057 -563.83872 
L 905.227596 -562.457669 
L 877.240135 -562.254146 
L 849.252674 -560.553273 
L 821.265214 -558.915395 
L 793.277753 -558.285443 
L 765.290292 -556.507037 
L 737.302831 -554.646253 
L 709.31537 -553.207053 
L 681.327909 -550.551559 
L 653.340449 -548.87007 
L 625.352988 -546.684618 
L 597.365527 -545.172731 
L 569.378066 -542.115037 
L 541.390605 -539.968351 
L 513.403145 -535.95119 
L 485.415684 -532.767505 
L 457.428223 -528.352989 
L 429.440762 -525.838023 
L 401.453301 -519.751709 
L 373.465841 -515.153053 
L 345.47838 -509.04251 
L 317.490919 -501.749594 
L 289.503458 -493.458445 
L 261.515997 -483.272591 
L 233.528536 -470.266487 
L 205.541076 -453.882866 
L 177.553615 -431.001039 
L 149.566154 -388.934723 
L 121.578693 -130.339063 
z
" id="m9bdcd6834b" style="stroke:#53fca1;stroke-opacity:0.3;"/>
    </defs>
    <g clip-path="url(#p554e728a6e)">
     <use style="fill:#53fca1;fill-opacity:0.3;stroke:#53fca1;stroke-opacity:0.3;" x="0" xlink:href="#m9bdcd6834b" y="1090.099062"/>
    </g>
   </g>
   <g id="PolyCollection_5">
    <defs>
     <path d="M 121.578693 -130.339063 
L 121.578693 -130.339063 
L 149.566154 -600.061011 
L 177.553615 -697.912077 
L 205.541076 -756.037346 
L 233.528536 -793.936281 
L 261.515997 -826.931275 
L 289.503458 -852.836876 
L 317.490919 -873.823998 
L 345.47838 -888.506747 
L 373.465841 -907.923833 
L 401.453301 -918.642724 
L 429.440762 -931.367772 
L 457.428223 -941.243495 
L 485.415684 -947.334655 
L 513.403145 -959.042087 
L 541.390605 -965.816503 
L 569.378066 -976.365791 
L 597.365527 -982.418185 
L 625.352988 -987.414196 
L 653.340449 -994.934864 
L 681.327909 -996.611508 
L 709.31537 -1002.416766 
L 737.302831 -1006.390315 
L 765.290292 -1011.449321 
L 793.277753 -1013.407021 
L 821.265214 -1018.781004 
L 849.252674 -1020.806545 
L 877.240135 -1025.347051 
L 905.227596 -1027.508274 
L 933.215057 -1030.187997 
L 933.215057 -1037.539062 
L 933.215057 -1037.539062 
L 905.227596 -1032.320145 
L 877.240135 -1031.195921 
L 849.252674 -1027.280522 
L 821.265214 -1023.578337 
L 793.277753 -1023.670407 
L 765.290292 -1017.773079 
L 737.302831 -1016.120664 
L 709.31537 -1008.876206 
L 681.327909 -1006.957273 
L 653.340449 -997.953792 
L 625.352988 -993.733108 
L 597.365527 -987.530495 
L 569.378066 -980.416873 
L 541.390605 -974.669764 
L 513.403145 -966.25747 
L 485.415684 -957.409055 
L 457.428223 -949.825392 
L 429.440762 -937.948357 
L 401.453301 -925.451061 
L 373.465841 -914.504418 
L 345.47838 -898.261325 
L 317.490919 -882.10061 
L 289.503458 -858.080022 
L 261.515997 -833.468247 
L 233.528536 -802.309808 
L 205.541076 -760.606927 
L 177.553615 -707.046394 
L 149.566154 -603.685663 
L 121.578693 -130.339063 
z
" id="mbd34b9c09d" style="stroke:#0652ff;stroke-opacity:0.3;"/>
    </defs>
    <g clip-path="url(#p554e728a6e)">
     <use style="fill:#0652ff;fill-opacity:0.3;stroke:#0652ff;stroke-opacity:0.3;" x="0" xlink:href="#mbd34b9c09d" y="1090.099062"/>
    </g>
   </g>
   <g id="PolyCollection_6">
    <defs>
     <path d="M 121.578693 -130.339063 
L 121.578693 -130.339063 
L 149.566154 -429.426156 
L 177.553615 -488.704723 
L 205.541076 -524.510276 
L 233.528536 -546.582856 
L 261.515997 -566.712274 
L 289.503458 -581.695461 
L 317.490919 -594.284827 
L 345.47838 -603.370686 
L 373.465841 -614.651689 
L 401.453301 -620.515096 
L 429.440762 -629.140605 
L 457.428223 -635.512821 
L 485.415684 -638.066553 
L 513.403145 -644.821586 
L 541.390605 -649.546233 
L 569.378066 -655.627701 
L 597.365527 -658.447952 
L 625.352988 -661.810931 
L 653.340449 -666.632494 
L 681.327909 -667.441741 
L 709.31537 -671.153617 
L 737.302831 -672.602509 
L 765.290292 -675.708661 
L 793.277753 -677.094557 
L 821.265214 -680.69498 
L 849.252674 -681.780438 
L 877.240135 -684.217871 
L 905.227596 -685.855748 
L 933.215057 -687.299794 
L 933.215057 -691.074666 
L 933.215057 -691.074666 
L 905.227596 -688.331948 
L 877.240135 -687.207724 
L 849.252674 -686.500238 
L 821.265214 -682.807745 
L 793.277753 -682.909507 
L 765.290292 -679.740359 
L 737.302831 -678.625827 
L 709.31537 -674.376068 
L 681.327909 -673.353606 
L 653.340449 -668.464203 
L 625.352988 -666.041307 
L 597.365527 -661.723707 
L 569.378066 -657.822845 
L 541.390605 -653.747534 
L 513.403145 -649.492929 
L 485.415684 -644.748899 
L 457.428223 -639.21016 
L 429.440762 -633.162612 
L 401.453301 -624.890846 
L 373.465841 -618.906294 
L 345.47838 -609.074183 
L 317.490919 -599.222689 
L 289.503458 -585.518791 
L 261.515997 -569.895959 
L 233.528536 -551.733933 
L 205.541076 -527.19969 
L 177.553615 -494.568131 
L 149.566154 -431.815132 
L 121.578693 -130.339063 
z
" id="m8ca9a4af21" style="stroke:#0652ff;stroke-opacity:0.3;"/>
    </defs>
    <g clip-path="url(#p554e728a6e)">
     <use style="fill:#0652ff;fill-opacity:0.3;stroke:#0652ff;stroke-opacity:0.3;" x="0" xlink:href="#m8ca9a4af21" y="1090.099062"/>
    </g>
   </g>
   <g id="matplotlib.axis_1">
    <g id="xtick_1">
     <g id="line2d_1">
      <path clip-path="url(#p554e728a6e)" d="M 121.578693 1005.12 
L 121.578693 7.2 
" style="fill:none;stroke:#b0b0b0;stroke-linecap:square;stroke-width:0.8;"/>
     </g>
     <g id="line2d_2">
      <defs>
       <path d="M 0 0 
L 0 3.5 
" id="m9a5693501c" style="stroke:#000000;stroke-width:0.8;"/>
      </defs>
      <g>
       <use style="stroke:#000000;stroke-width:0.8;" x="121.578693" xlink:href="#m9a5693501c" y="1005.12"/>
      </g>
     </g>
     <g id="text_1">
      <!-- 0.00 -->
      <g transform="translate(88.180256 1034.915313)scale(0.3 -0.3)">
       <defs>
        <path d="M 31.78125 66.40625 
Q 24.171875 66.40625 20.328125 58.90625 
Q 16.5 51.421875 16.5 36.375 
Q 16.5 21.390625 20.328125 13.890625 
Q 24.171875 6.390625 31.78125 6.390625 
Q 39.453125 6.390625 43.28125 13.890625 
Q 47.125 21.390625 47.125 36.375 
Q 47.125 51.421875 43.28125 58.90625 
Q 39.453125 66.40625 31.78125 66.40625 
z
M 31.78125 74.21875 
Q 44.046875 74.21875 50.515625 64.515625 
Q 56.984375 54.828125 56.984375 36.375 
Q 56.984375 17.96875 50.515625 8.265625 
Q 44.046875 -1.421875 31.78125 -1.421875 
Q 19.53125 -1.421875 13.0625 8.265625 
Q 6.59375 17.96875 6.59375 36.375 
Q 6.59375 54.828125 13.0625 64.515625 
Q 19.53125 74.21875 31.78125 74.21875 
z
" id="DejaVuSans-48"/>
        <path d="M 10.6875 12.40625 
L 21 12.40625 
L 21 0 
L 10.6875 0 
z
" id="DejaVuSans-46"/>
       </defs>
       <use xlink:href="#DejaVuSans-48"/>
       <use x="63.623047" xlink:href="#DejaVuSans-46"/>
       <use x="95.410156" xlink:href="#DejaVuSans-48"/>
       <use x="159.033203" xlink:href="#DejaVuSans-48"/>
      </g>
     </g>
    </g>
    <g id="xtick_2">
     <g id="line2d_3">
      <path clip-path="url(#p554e728a6e)" d="M 261.515997 1005.12 
L 261.515997 7.2 
" style="fill:none;stroke:#b0b0b0;stroke-linecap:square;stroke-width:0.8;"/>
     </g>
     <g id="line2d_4">
      <g>
       <use style="stroke:#000000;stroke-width:0.8;" x="261.515997" xlink:href="#m9a5693501c" y="1005.12"/>
      </g>
     </g>
     <g id="text_2">
      <!-- 0.05 -->
      <g transform="translate(228.11756 1034.915313)scale(0.3 -0.3)">
       <defs>
        <path d="M 10.796875 72.90625 
L 49.515625 72.90625 
L 49.515625 64.59375 
L 19.828125 64.59375 
L 19.828125 46.734375 
Q 21.96875 47.46875 24.109375 47.828125 
Q 26.265625 48.1875 28.421875 48.1875 
Q 40.625 48.1875 47.75 41.5 
Q 54.890625 34.8125 54.890625 23.390625 
Q 54.890625 11.625 47.5625 5.09375 
Q 40.234375 -1.421875 26.90625 -1.421875 
Q 22.3125 -1.421875 17.546875 -0.640625 
Q 12.796875 0.140625 7.71875 1.703125 
L 7.71875 11.625 
Q 12.109375 9.234375 16.796875 8.0625 
Q 21.484375 6.890625 26.703125 6.890625 
Q 35.15625 6.890625 40.078125 11.328125 
Q 45.015625 15.765625 45.015625 23.390625 
Q 45.015625 31 40.078125 35.4375 
Q 35.15625 39.890625 26.703125 39.890625 
Q 22.75 39.890625 18.8125 39.015625 
Q 14.890625 38.140625 10.796875 36.28125 
z
" id="DejaVuSans-53"/>
       </defs>
       <use xlink:href="#DejaVuSans-48"/>
       <use x="63.623047" xlink:href="#DejaVuSans-46"/>
       <use x="95.410156" xlink:href="#DejaVuSans-48"/>
       <use x="159.033203" xlink:href="#DejaVuSans-53"/>
      </g>
     </g>
    </g>
    <g id="xtick_3">
     <g id="line2d_5">
      <path clip-path="url(#p554e728a6e)" d="M 401.453301 1005.12 
L 401.453301 7.2 
" style="fill:none;stroke:#b0b0b0;stroke-linecap:square;stroke-width:0.8;"/>
     </g>
     <g id="line2d_6">
      <g>
       <use style="stroke:#000000;stroke-width:0.8;" x="401.453301" xlink:href="#m9a5693501c" y="1005.12"/>
      </g>
     </g>
     <g id="text_3">
      <!-- 0.10 -->
      <g transform="translate(368.054864 1034.915313)scale(0.3 -0.3)">
       <defs>
        <path d="M 12.40625 8.296875 
L 28.515625 8.296875 
L 28.515625 63.921875 
L 10.984375 60.40625 
L 10.984375 69.390625 
L 28.421875 72.90625 
L 38.28125 72.90625 
L 38.28125 8.296875 
L 54.390625 8.296875 
L 54.390625 0 
L 12.40625 0 
z
" id="DejaVuSans-49"/>
       </defs>
       <use xlink:href="#DejaVuSans-48"/>
       <use x="63.623047" xlink:href="#DejaVuSans-46"/>
       <use x="95.410156" xlink:href="#DejaVuSans-49"/>
       <use x="159.033203" xlink:href="#DejaVuSans-48"/>
      </g>
     </g>
    </g>
    <g id="xtick_4">
     <g id="line2d_7">
      <path clip-path="url(#p554e728a6e)" d="M 541.390605 1005.12 
L 541.390605 7.2 
" style="fill:none;stroke:#b0b0b0;stroke-linecap:square;stroke-width:0.8;"/>
     </g>
     <g id="line2d_8">
      <g>
       <use style="stroke:#000000;stroke-width:0.8;" x="541.390605" xlink:href="#m9a5693501c" y="1005.12"/>
      </g>
     </g>
     <g id="text_4">
      <!-- 0.15 -->
      <g transform="translate(507.992168 1034.915313)scale(0.3 -0.3)">
       <use xlink:href="#DejaVuSans-48"/>
       <use x="63.623047" xlink:href="#DejaVuSans-46"/>
       <use x="95.410156" xlink:href="#DejaVuSans-49"/>
       <use x="159.033203" xlink:href="#DejaVuSans-53"/>
      </g>
     </g>
    </g>
    <g id="xtick_5">
     <g id="line2d_9">
      <path clip-path="url(#p554e728a6e)" d="M 681.327909 1005.12 
L 681.327909 7.2 
" style="fill:none;stroke:#b0b0b0;stroke-linecap:square;stroke-width:0.8;"/>
     </g>
     <g id="line2d_10">
      <g>
       <use style="stroke:#000000;stroke-width:0.8;" x="681.327909" xlink:href="#m9a5693501c" y="1005.12"/>
      </g>
     </g>
     <g id="text_5">
      <!-- 0.20 -->
      <g transform="translate(647.929472 1034.915313)scale(0.3 -0.3)">
       <defs>
        <path d="M 19.1875 8.296875 
L 53.609375 8.296875 
L 53.609375 0 
L 7.328125 0 
L 7.328125 8.296875 
Q 12.9375 14.109375 22.625 23.890625 
Q 32.328125 33.6875 34.8125 36.53125 
Q 39.546875 41.84375 41.421875 45.53125 
Q 43.3125 49.21875 43.3125 52.78125 
Q 43.3125 58.59375 39.234375 62.25 
Q 35.15625 65.921875 28.609375 65.921875 
Q 23.96875 65.921875 18.8125 64.3125 
Q 13.671875 62.703125 7.8125 59.421875 
L 7.8125 69.390625 
Q 13.765625 71.78125 18.9375 73 
Q 24.125 74.21875 28.421875 74.21875 
Q 39.75 74.21875 46.484375 68.546875 
Q 53.21875 62.890625 53.21875 53.421875 
Q 53.21875 48.921875 51.53125 44.890625 
Q 49.859375 40.875 45.40625 35.40625 
Q 44.1875 33.984375 37.640625 27.21875 
Q 31.109375 20.453125 19.1875 8.296875 
z
" id="DejaVuSans-50"/>
       </defs>
       <use xlink:href="#DejaVuSans-48"/>
       <use x="63.623047" xlink:href="#DejaVuSans-46"/>
       <use x="95.410156" xlink:href="#DejaVuSans-50"/>
       <use x="159.033203" xlink:href="#DejaVuSans-48"/>
      </g>
     </g>
    </g>
    <g id="xtick_6">
     <g id="line2d_11">
      <path clip-path="url(#p554e728a6e)" d="M 821.265214 1005.12 
L 821.265214 7.2 
" style="fill:none;stroke:#b0b0b0;stroke-linecap:square;stroke-width:0.8;"/>
     </g>
     <g id="line2d_12">
      <g>
       <use style="stroke:#000000;stroke-width:0.8;" x="821.265214" xlink:href="#m9a5693501c" y="1005.12"/>
      </g>
     </g>
     <g id="text_6">
      <!-- 0.25 -->
      <g transform="translate(787.866776 1034.915313)scale(0.3 -0.3)">
       <use xlink:href="#DejaVuSans-48"/>
       <use x="63.623047" xlink:href="#DejaVuSans-46"/>
       <use x="95.410156" xlink:href="#DejaVuSans-50"/>
       <use x="159.033203" xlink:href="#DejaVuSans-53"/>
      </g>
     </g>
    </g>
    <g id="xtick_7">
     <g id="line2d_13">
      <path clip-path="url(#p554e728a6e)" d="M 961.202518 1005.12 
L 961.202518 7.2 
" style="fill:none;stroke:#b0b0b0;stroke-linecap:square;stroke-width:0.8;"/>
     </g>
     <g id="line2d_14">
      <g>
       <use style="stroke:#000000;stroke-width:0.8;" x="961.202518" xlink:href="#m9a5693501c" y="1005.12"/>
      </g>
     </g>
     <g id="text_7">
      <!-- 0.30 -->
      <g transform="translate(927.80408 1034.915313)scale(0.3 -0.3)">
       <defs>
        <path d="M 40.578125 39.3125 
Q 47.65625 37.796875 51.625 33 
Q 55.609375 28.21875 55.609375 21.1875 
Q 55.609375 10.40625 48.1875 4.484375 
Q 40.765625 -1.421875 27.09375 -1.421875 
Q 22.515625 -1.421875 17.65625 -0.515625 
Q 12.796875 0.390625 7.625 2.203125 
L 7.625 11.71875 
Q 11.71875 9.328125 16.59375 8.109375 
Q 21.484375 6.890625 26.8125 6.890625 
Q 36.078125 6.890625 40.9375 10.546875 
Q 45.796875 14.203125 45.796875 21.1875 
Q 45.796875 27.640625 41.28125 31.265625 
Q 36.765625 34.90625 28.71875 34.90625 
L 20.21875 34.90625 
L 20.21875 43.015625 
L 29.109375 43.015625 
Q 36.375 43.015625 40.234375 45.921875 
Q 44.09375 48.828125 44.09375 54.296875 
Q 44.09375 59.90625 40.109375 62.90625 
Q 36.140625 65.921875 28.71875 65.921875 
Q 24.65625 65.921875 20.015625 65.03125 
Q 15.375 64.15625 9.8125 62.3125 
L 9.8125 71.09375 
Q 15.4375 72.65625 20.34375 73.4375 
Q 25.25 74.21875 29.59375 74.21875 
Q 40.828125 74.21875 47.359375 69.109375 
Q 53.90625 64.015625 53.90625 55.328125 
Q 53.90625 49.265625 50.4375 45.09375 
Q 46.96875 40.921875 40.578125 39.3125 
z
" id="DejaVuSans-51"/>
       </defs>
       <use xlink:href="#DejaVuSans-48"/>
       <use x="63.623047" xlink:href="#DejaVuSans-46"/>
       <use x="95.410156" xlink:href="#DejaVuSans-51"/>
       <use x="159.033203" xlink:href="#DejaVuSans-48"/>
      </g>
     </g>
    </g>
    <g id="text_8">
     <!-- Locality parameter -->
     <g transform="translate(343.103594 1074.788281)scale(0.39 -0.39)">
      <defs>
       <path d="M 9.8125 72.90625 
L 19.671875 72.90625 
L 19.671875 8.296875 
L 55.171875 8.296875 
L 55.171875 0 
L 9.8125 0 
z
" id="DejaVuSans-76"/>
       <path d="M 30.609375 48.390625 
Q 23.390625 48.390625 19.1875 42.75 
Q 14.984375 37.109375 14.984375 27.296875 
Q 14.984375 17.484375 19.15625 11.84375 
Q 23.34375 6.203125 30.609375 6.203125 
Q 37.796875 6.203125 41.984375 11.859375 
Q 46.1875 17.53125 46.1875 27.296875 
Q 46.1875 37.015625 41.984375 42.703125 
Q 37.796875 48.390625 30.609375 48.390625 
z
M 30.609375 56 
Q 42.328125 56 49.015625 48.375 
Q 55.71875 40.765625 55.71875 27.296875 
Q 55.71875 13.875 49.015625 6.21875 
Q 42.328125 -1.421875 30.609375 -1.421875 
Q 18.84375 -1.421875 12.171875 6.21875 
Q 5.515625 13.875 5.515625 27.296875 
Q 5.515625 40.765625 12.171875 48.375 
Q 18.84375 56 30.609375 56 
z
" id="DejaVuSans-111"/>
       <path d="M 48.78125 52.59375 
L 48.78125 44.1875 
Q 44.96875 46.296875 41.140625 47.34375 
Q 37.3125 48.390625 33.40625 48.390625 
Q 24.65625 48.390625 19.8125 42.84375 
Q 14.984375 37.3125 14.984375 27.296875 
Q 14.984375 17.28125 19.8125 11.734375 
Q 24.65625 6.203125 33.40625 6.203125 
Q 37.3125 6.203125 41.140625 7.25 
Q 44.96875 8.296875 48.78125 10.40625 
L 48.78125 2.09375 
Q 45.015625 0.34375 40.984375 -0.53125 
Q 36.96875 -1.421875 32.421875 -1.421875 
Q 20.0625 -1.421875 12.78125 6.34375 
Q 5.515625 14.109375 5.515625 27.296875 
Q 5.515625 40.671875 12.859375 48.328125 
Q 20.21875 56 33.015625 56 
Q 37.15625 56 41.109375 55.140625 
Q 45.0625 54.296875 48.78125 52.59375 
z
" id="DejaVuSans-99"/>
       <path d="M 34.28125 27.484375 
Q 23.390625 27.484375 19.1875 25 
Q 14.984375 22.515625 14.984375 16.5 
Q 14.984375 11.71875 18.140625 8.90625 
Q 21.296875 6.109375 26.703125 6.109375 
Q 34.1875 6.109375 38.703125 11.40625 
Q 43.21875 16.703125 43.21875 25.484375 
L 43.21875 27.484375 
z
M 52.203125 31.203125 
L 52.203125 0 
L 43.21875 0 
L 43.21875 8.296875 
Q 40.140625 3.328125 35.546875 0.953125 
Q 30.953125 -1.421875 24.3125 -1.421875 
Q 15.921875 -1.421875 10.953125 3.296875 
Q 6 8.015625 6 15.921875 
Q 6 25.140625 12.171875 29.828125 
Q 18.359375 34.515625 30.609375 34.515625 
L 43.21875 34.515625 
L 43.21875 35.40625 
Q 43.21875 41.609375 39.140625 45 
Q 35.0625 48.390625 27.6875 48.390625 
Q 23 48.390625 18.546875 47.265625 
Q 14.109375 46.140625 10.015625 43.890625 
L 10.015625 52.203125 
Q 14.9375 54.109375 19.578125 55.046875 
Q 24.21875 56 28.609375 56 
Q 40.484375 56 46.34375 49.84375 
Q 52.203125 43.703125 52.203125 31.203125 
z
" id="DejaVuSans-97"/>
       <path d="M 9.421875 75.984375 
L 18.40625 75.984375 
L 18.40625 0 
L 9.421875 0 
z
" id="DejaVuSans-108"/>
       <path d="M 9.421875 54.6875 
L 18.40625 54.6875 
L 18.40625 0 
L 9.421875 0 
z
M 9.421875 75.984375 
L 18.40625 75.984375 
L 18.40625 64.59375 
L 9.421875 64.59375 
z
" id="DejaVuSans-105"/>
       <path d="M 18.3125 70.21875 
L 18.3125 54.6875 
L 36.8125 54.6875 
L 36.8125 47.703125 
L 18.3125 47.703125 
L 18.3125 18.015625 
Q 18.3125 11.328125 20.140625 9.421875 
Q 21.96875 7.515625 27.59375 7.515625 
L 36.8125 7.515625 
L 36.8125 0 
L 27.59375 0 
Q 17.1875 0 13.234375 3.875 
Q 9.28125 7.765625 9.28125 18.015625 
L 9.28125 47.703125 
L 2.6875 47.703125 
L 2.6875 54.6875 
L 9.28125 54.6875 
L 9.28125 70.21875 
z
" id="DejaVuSans-116"/>
       <path d="M 32.171875 -5.078125 
Q 28.375 -14.84375 24.75 -17.8125 
Q 21.140625 -20.796875 15.09375 -20.796875 
L 7.90625 -20.796875 
L 7.90625 -13.28125 
L 13.1875 -13.28125 
Q 16.890625 -13.28125 18.9375 -11.515625 
Q 21 -9.765625 23.484375 -3.21875 
L 25.09375 0.875 
L 2.984375 54.6875 
L 12.5 54.6875 
L 29.59375 11.921875 
L 46.6875 54.6875 
L 56.203125 54.6875 
z
" id="DejaVuSans-121"/>
       <path id="DejaVuSans-32"/>
       <path d="M 18.109375 8.203125 
L 18.109375 -20.796875 
L 9.078125 -20.796875 
L 9.078125 54.6875 
L 18.109375 54.6875 
L 18.109375 46.390625 
Q 20.953125 51.265625 25.265625 53.625 
Q 29.59375 56 35.59375 56 
Q 45.5625 56 51.78125 48.09375 
Q 58.015625 40.1875 58.015625 27.296875 
Q 58.015625 14.40625 51.78125 6.484375 
Q 45.5625 -1.421875 35.59375 -1.421875 
Q 29.59375 -1.421875 25.265625 0.953125 
Q 20.953125 3.328125 18.109375 8.203125 
z
M 48.6875 27.296875 
Q 48.6875 37.203125 44.609375 42.84375 
Q 40.53125 48.484375 33.40625 48.484375 
Q 26.265625 48.484375 22.1875 42.84375 
Q 18.109375 37.203125 18.109375 27.296875 
Q 18.109375 17.390625 22.1875 11.75 
Q 26.265625 6.109375 33.40625 6.109375 
Q 40.53125 6.109375 44.609375 11.75 
Q 48.6875 17.390625 48.6875 27.296875 
z
" id="DejaVuSans-112"/>
       <path d="M 41.109375 46.296875 
Q 39.59375 47.171875 37.8125 47.578125 
Q 36.03125 48 33.890625 48 
Q 26.265625 48 22.1875 43.046875 
Q 18.109375 38.09375 18.109375 28.8125 
L 18.109375 0 
L 9.078125 0 
L 9.078125 54.6875 
L 18.109375 54.6875 
L 18.109375 46.1875 
Q 20.953125 51.171875 25.484375 53.578125 
Q 30.03125 56 36.53125 56 
Q 37.453125 56 38.578125 55.875 
Q 39.703125 55.765625 41.0625 55.515625 
z
" id="DejaVuSans-114"/>
       <path d="M 52 44.1875 
Q 55.375 50.25 60.0625 53.125 
Q 64.75 56 71.09375 56 
Q 79.640625 56 84.28125 50.015625 
Q 88.921875 44.046875 88.921875 33.015625 
L 88.921875 0 
L 79.890625 0 
L 79.890625 32.71875 
Q 79.890625 40.578125 77.09375 44.375 
Q 74.3125 48.1875 68.609375 48.1875 
Q 61.625 48.1875 57.5625 43.546875 
Q 53.515625 38.921875 53.515625 30.90625 
L 53.515625 0 
L 44.484375 0 
L 44.484375 32.71875 
Q 44.484375 40.625 41.703125 44.40625 
Q 38.921875 48.1875 33.109375 48.1875 
Q 26.21875 48.1875 22.15625 43.53125 
Q 18.109375 38.875 18.109375 30.90625 
L 18.109375 0 
L 9.078125 0 
L 9.078125 54.6875 
L 18.109375 54.6875 
L 18.109375 46.1875 
Q 21.1875 51.21875 25.484375 53.609375 
Q 29.78125 56 35.6875 56 
Q 41.65625 56 45.828125 52.96875 
Q 50 49.953125 52 44.1875 
z
" id="DejaVuSans-109"/>
       <path d="M 56.203125 29.59375 
L 56.203125 25.203125 
L 14.890625 25.203125 
Q 15.484375 15.921875 20.484375 11.0625 
Q 25.484375 6.203125 34.421875 6.203125 
Q 39.59375 6.203125 44.453125 7.46875 
Q 49.3125 8.734375 54.109375 11.28125 
L 54.109375 2.78125 
Q 49.265625 0.734375 44.1875 -0.34375 
Q 39.109375 -1.421875 33.890625 -1.421875 
Q 20.796875 -1.421875 13.15625 6.1875 
Q 5.515625 13.8125 5.515625 26.8125 
Q 5.515625 40.234375 12.765625 48.109375 
Q 20.015625 56 32.328125 56 
Q 43.359375 56 49.78125 48.890625 
Q 56.203125 41.796875 56.203125 29.59375 
z
M 47.21875 32.234375 
Q 47.125 39.59375 43.09375 43.984375 
Q 39.0625 48.390625 32.421875 48.390625 
Q 24.90625 48.390625 20.390625 44.140625 
Q 15.875 39.890625 15.1875 32.171875 
z
" id="DejaVuSans-101"/>
      </defs>
      <use xlink:href="#DejaVuSans-76"/>
      <use x="53.962891" xlink:href="#DejaVuSans-111"/>
      <use x="115.144531" xlink:href="#DejaVuSans-99"/>
      <use x="170.125" xlink:href="#DejaVuSans-97"/>
      <use x="231.404297" xlink:href="#DejaVuSans-108"/>
      <use x="259.1875" xlink:href="#DejaVuSans-105"/>
      <use x="286.970703" xlink:href="#DejaVuSans-116"/>
      <use x="326.179688" xlink:href="#DejaVuSans-121"/>
      <use x="385.359375" xlink:href="#DejaVuSans-32"/>
      <use x="417.146484" xlink:href="#DejaVuSans-112"/>
      <use x="480.623047" xlink:href="#DejaVuSans-97"/>
      <use x="541.902344" xlink:href="#DejaVuSans-114"/>
      <use x="583.015625" xlink:href="#DejaVuSans-97"/>
      <use x="644.294922" xlink:href="#DejaVuSans-109"/>
      <use x="741.707031" xlink:href="#DejaVuSans-101"/>
      <use x="803.230469" xlink:href="#DejaVuSans-116"/>
      <use x="842.439453" xlink:href="#DejaVuSans-101"/>
      <use x="903.962891" xlink:href="#DejaVuSans-114"/>
     </g>
    </g>
   </g>
   <g id="matplotlib.axis_2">
    <g id="ytick_1">
     <g id="line2d_15">
      <path clip-path="url(#p554e728a6e)" d="M 80.996875 887.063437 
L 973.796875 887.063437 
" style="fill:none;stroke:#b0b0b0;stroke-linecap:square;stroke-width:0.8;"/>
     </g>
     <g id="line2d_16">
      <defs>
       <path d="M 0 0 
L -3.5 0 
" id="mdd7619616e" style="stroke:#000000;stroke-width:0.8;"/>
      </defs>
      <g>
       <use style="stroke:#000000;stroke-width:0.8;" x="80.996875" xlink:href="#mdd7619616e" y="887.063437"/>
      </g>
     </g>
     <g id="text_9">
      <!-- 2.5 -->
      <g transform="translate(26.2875 898.461093)scale(0.3 -0.3)">
       <use xlink:href="#DejaVuSans-50"/>
       <use x="63.623047" xlink:href="#DejaVuSans-46"/>
       <use x="95.410156" xlink:href="#DejaVuSans-53"/>
      </g>
     </g>
    </g>
    <g id="ytick_2">
     <g id="line2d_17">
      <path clip-path="url(#p554e728a6e)" d="M 80.996875 765.918651 
L 973.796875 765.918651 
" style="fill:none;stroke:#b0b0b0;stroke-linecap:square;stroke-width:0.8;"/>
     </g>
     <g id="line2d_18">
      <g>
       <use style="stroke:#000000;stroke-width:0.8;" x="80.996875" xlink:href="#mdd7619616e" y="765.918651"/>
      </g>
     </g>
     <g id="text_10">
      <!-- 5.0 -->
      <g transform="translate(26.2875 777.316307)scale(0.3 -0.3)">
       <use xlink:href="#DejaVuSans-53"/>
       <use x="63.623047" xlink:href="#DejaVuSans-46"/>
       <use x="95.410156" xlink:href="#DejaVuSans-48"/>
      </g>
     </g>
    </g>
    <g id="ytick_3">
     <g id="line2d_19">
      <path clip-path="url(#p554e728a6e)" d="M 80.996875 644.773864 
L 973.796875 644.773864 
" style="fill:none;stroke:#b0b0b0;stroke-linecap:square;stroke-width:0.8;"/>
     </g>
     <g id="line2d_20">
      <g>
       <use style="stroke:#000000;stroke-width:0.8;" x="80.996875" xlink:href="#mdd7619616e" y="644.773864"/>
      </g>
     </g>
     <g id="text_11">
      <!-- 7.5 -->
      <g transform="translate(26.2875 656.171521)scale(0.3 -0.3)">
       <defs>
        <path d="M 8.203125 72.90625 
L 55.078125 72.90625 
L 55.078125 68.703125 
L 28.609375 0 
L 18.3125 0 
L 43.21875 64.59375 
L 8.203125 64.59375 
z
" id="DejaVuSans-55"/>
       </defs>
       <use xlink:href="#DejaVuSans-55"/>
       <use x="63.623047" xlink:href="#DejaVuSans-46"/>
       <use x="95.410156" xlink:href="#DejaVuSans-53"/>
      </g>
     </g>
    </g>
    <g id="ytick_4">
     <g id="line2d_21">
      <path clip-path="url(#p554e728a6e)" d="M 80.996875 523.629078 
L 973.796875 523.629078 
" style="fill:none;stroke:#b0b0b0;stroke-linecap:square;stroke-width:0.8;"/>
     </g>
     <g id="line2d_22">
      <g>
       <use style="stroke:#000000;stroke-width:0.8;" x="80.996875" xlink:href="#mdd7619616e" y="523.629078"/>
      </g>
     </g>
     <g id="text_12">
      <!-- 10.0 -->
      <g transform="translate(7.2 535.026734)scale(0.3 -0.3)">
       <use xlink:href="#DejaVuSans-49"/>
       <use x="63.623047" xlink:href="#DejaVuSans-48"/>
       <use x="127.246094" xlink:href="#DejaVuSans-46"/>
       <use x="159.033203" xlink:href="#DejaVuSans-48"/>
      </g>
     </g>
    </g>
    <g id="ytick_5">
     <g id="line2d_23">
      <path clip-path="url(#p554e728a6e)" d="M 80.996875 402.484292 
L 973.796875 402.484292 
" style="fill:none;stroke:#b0b0b0;stroke-linecap:square;stroke-width:0.8;"/>
     </g>
     <g id="line2d_24">
      <g>
       <use style="stroke:#000000;stroke-width:0.8;" x="80.996875" xlink:href="#mdd7619616e" y="402.484292"/>
      </g>
     </g>
     <g id="text_13">
      <!-- 12.5 -->
      <g transform="translate(7.2 413.881948)scale(0.3 -0.3)">
       <use xlink:href="#DejaVuSans-49"/>
       <use x="63.623047" xlink:href="#DejaVuSans-50"/>
       <use x="127.246094" xlink:href="#DejaVuSans-46"/>
       <use x="159.033203" xlink:href="#DejaVuSans-53"/>
      </g>
     </g>
    </g>
    <g id="ytick_6">
     <g id="line2d_25">
      <path clip-path="url(#p554e728a6e)" d="M 80.996875 281.339506 
L 973.796875 281.339506 
" style="fill:none;stroke:#b0b0b0;stroke-linecap:square;stroke-width:0.8;"/>
     </g>
     <g id="line2d_26">
      <g>
       <use style="stroke:#000000;stroke-width:0.8;" x="80.996875" xlink:href="#mdd7619616e" y="281.339506"/>
      </g>
     </g>
     <g id="text_14">
      <!-- 15.0 -->
      <g transform="translate(7.2 292.737162)scale(0.3 -0.3)">
       <use xlink:href="#DejaVuSans-49"/>
       <use x="63.623047" xlink:href="#DejaVuSans-53"/>
       <use x="127.246094" xlink:href="#DejaVuSans-46"/>
       <use x="159.033203" xlink:href="#DejaVuSans-48"/>
      </g>
     </g>
    </g>
    <g id="ytick_7">
     <g id="line2d_27">
      <path clip-path="url(#p554e728a6e)" d="M 80.996875 160.19472 
L 973.796875 160.19472 
" style="fill:none;stroke:#b0b0b0;stroke-linecap:square;stroke-width:0.8;"/>
     </g>
     <g id="line2d_28">
      <g>
       <use style="stroke:#000000;stroke-width:0.8;" x="80.996875" xlink:href="#mdd7619616e" y="160.19472"/>
      </g>
     </g>
     <g id="text_15">
      <!-- 17.5 -->
      <g transform="translate(7.2 171.592376)scale(0.3 -0.3)">
       <use xlink:href="#DejaVuSans-49"/>
       <use x="63.623047" xlink:href="#DejaVuSans-55"/>
       <use x="127.246094" xlink:href="#DejaVuSans-46"/>
       <use x="159.033203" xlink:href="#DejaVuSans-53"/>
      </g>
     </g>
    </g>
    <g id="ytick_8">
     <g id="line2d_29">
      <path clip-path="url(#p554e728a6e)" d="M 80.996875 39.049933 
L 973.796875 39.049933 
" style="fill:none;stroke:#b0b0b0;stroke-linecap:square;stroke-width:0.8;"/>
     </g>
     <g id="line2d_30">
      <g>
       <use style="stroke:#000000;stroke-width:0.8;" x="80.996875" xlink:href="#mdd7619616e" y="39.049933"/>
      </g>
     </g>
     <g id="text_16">
      <!-- 20.0 -->
      <g transform="translate(7.2 50.44759)scale(0.3 -0.3)">
       <use xlink:href="#DejaVuSans-50"/>
       <use x="63.623047" xlink:href="#DejaVuSans-48"/>
       <use x="127.246094" xlink:href="#DejaVuSans-46"/>
       <use x="159.033203" xlink:href="#DejaVuSans-48"/>
      </g>
     </g>
    </g>
   </g>
   <g id="line2d_31">
    <path clip-path="url(#p554e728a6e)" d="M 121.578693 847.764068 
L 149.566154 539.244641 
L 177.553615 482.04395 
L 205.541076 449.027634 
L 233.528536 426.521356 
L 261.515997 408.597742 
L 289.503458 394.743625 
L 317.490919 382.831216 
L 345.47838 373.500644 
L 373.465841 364.10417 
L 401.453301 357.435876 
L 429.440762 349.881288 
L 457.428223 344.665762 
L 485.415684 339.334422 
L 513.403145 334.211452 
L 541.390605 330.231119 
L 569.378066 325.742462 
L 597.365527 322.79186 
L 625.352988 318.691835 
L 653.340449 315.251808 
L 681.327909 313.46468 
L 709.31537 310.781081 
L 737.302831 307.642946 
L 765.290292 305.666348 
L 793.277753 303.460544 
L 821.265214 301.928789 
L 849.252674 299.751575 
L 877.240135 297.406697 
L 905.227596 296.959915 
L 933.215057 295.151465 
" style="fill:none;stroke:#fe0002;stroke-linecap:square;stroke-width:1.5;"/>
    <defs>
     <path d="M 0 4.5 
C 1.193414 4.5 2.338109 4.025852 3.181981 3.181981 
C 4.025852 2.338109 4.5 1.193414 4.5 0 
C 4.5 -1.193414 4.025852 -2.338109 3.181981 -3.181981 
C 2.338109 -4.025852 1.193414 -4.5 0 -4.5 
C -1.193414 -4.5 -2.338109 -4.025852 -3.181981 -3.181981 
C -4.025852 -2.338109 -4.5 -1.193414 -4.5 0 
C -4.5 1.193414 -4.025852 2.338109 -3.181981 3.181981 
C -2.338109 4.025852 -1.193414 4.5 0 4.5 
z
" id="ma8e5f2c0ce" style="stroke:#000000;"/>
    </defs>
    <g clip-path="url(#p554e728a6e)">
     <use style="fill:#fe0002;stroke:#000000;" x="121.578693" xlink:href="#ma8e5f2c0ce" y="847.764068"/>
     <use style="fill:#fe0002;stroke:#000000;" x="149.566154" xlink:href="#ma8e5f2c0ce" y="539.244641"/>
     <use style="fill:#fe0002;stroke:#000000;" x="177.553615" xlink:href="#ma8e5f2c0ce" y="482.04395"/>
     <use style="fill:#fe0002;stroke:#000000;" x="205.541076" xlink:href="#ma8e5f2c0ce" y="449.027634"/>
     <use style="fill:#fe0002;stroke:#000000;" x="233.528536" xlink:href="#ma8e5f2c0ce" y="426.521356"/>
     <use style="fill:#fe0002;stroke:#000000;" x="261.515997" xlink:href="#ma8e5f2c0ce" y="408.597742"/>
     <use style="fill:#fe0002;stroke:#000000;" x="289.503458" xlink:href="#ma8e5f2c0ce" y="394.743625"/>
     <use style="fill:#fe0002;stroke:#000000;" x="317.490919" xlink:href="#ma8e5f2c0ce" y="382.831216"/>
     <use style="fill:#fe0002;stroke:#000000;" x="345.47838" xlink:href="#ma8e5f2c0ce" y="373.500644"/>
     <use style="fill:#fe0002;stroke:#000000;" x="373.465841" xlink:href="#ma8e5f2c0ce" y="364.10417"/>
     <use style="fill:#fe0002;stroke:#000000;" x="401.453301" xlink:href="#ma8e5f2c0ce" y="357.435876"/>
     <use style="fill:#fe0002;stroke:#000000;" x="429.440762" xlink:href="#ma8e5f2c0ce" y="349.881288"/>
     <use style="fill:#fe0002;stroke:#000000;" x="457.428223" xlink:href="#ma8e5f2c0ce" y="344.665762"/>
     <use style="fill:#fe0002;stroke:#000000;" x="485.415684" xlink:href="#ma8e5f2c0ce" y="339.334422"/>
     <use style="fill:#fe0002;stroke:#000000;" x="513.403145" xlink:href="#ma8e5f2c0ce" y="334.211452"/>
     <use style="fill:#fe0002;stroke:#000000;" x="541.390605" xlink:href="#ma8e5f2c0ce" y="330.231119"/>
     <use style="fill:#fe0002;stroke:#000000;" x="569.378066" xlink:href="#ma8e5f2c0ce" y="325.742462"/>
     <use style="fill:#fe0002;stroke:#000000;" x="597.365527" xlink:href="#ma8e5f2c0ce" y="322.79186"/>
     <use style="fill:#fe0002;stroke:#000000;" x="625.352988" xlink:href="#ma8e5f2c0ce" y="318.691835"/>
     <use style="fill:#fe0002;stroke:#000000;" x="653.340449" xlink:href="#ma8e5f2c0ce" y="315.251808"/>
     <use style="fill:#fe0002;stroke:#000000;" x="681.327909" xlink:href="#ma8e5f2c0ce" y="313.46468"/>
     <use style="fill:#fe0002;stroke:#000000;" x="709.31537" xlink:href="#ma8e5f2c0ce" y="310.781081"/>
     <use style="fill:#fe0002;stroke:#000000;" x="737.302831" xlink:href="#ma8e5f2c0ce" y="307.642946"/>
     <use style="fill:#fe0002;stroke:#000000;" x="765.290292" xlink:href="#ma8e5f2c0ce" y="305.666348"/>
     <use style="fill:#fe0002;stroke:#000000;" x="793.277753" xlink:href="#ma8e5f2c0ce" y="303.460544"/>
     <use style="fill:#fe0002;stroke:#000000;" x="821.265214" xlink:href="#ma8e5f2c0ce" y="301.928789"/>
     <use style="fill:#fe0002;stroke:#000000;" x="849.252674" xlink:href="#ma8e5f2c0ce" y="299.751575"/>
     <use style="fill:#fe0002;stroke:#000000;" x="877.240135" xlink:href="#ma8e5f2c0ce" y="297.406697"/>
     <use style="fill:#fe0002;stroke:#000000;" x="905.227596" xlink:href="#ma8e5f2c0ce" y="296.959915"/>
     <use style="fill:#fe0002;stroke:#000000;" x="933.215057" xlink:href="#ma8e5f2c0ce" y="295.151465"/>
    </g>
   </g>
   <g id="line2d_32">
    <path clip-path="url(#p554e728a6e)" d="M 121.578693 847.764068 
L 149.566154 539.244641 
L 177.553615 482.04395 
L 205.541076 449.027634 
L 233.528536 426.521356 
L 261.515997 408.597742 
L 289.503458 394.743625 
L 317.490919 382.831216 
L 345.47838 373.500644 
L 373.465841 364.10417 
L 401.453301 357.435876 
L 429.440762 349.881288 
L 457.428223 344.665762 
L 485.415684 339.334422 
L 513.403145 334.211452 
L 541.390605 330.231119 
L 569.378066 325.742462 
L 597.365527 322.79186 
L 625.352988 318.691835 
L 653.340449 315.251808 
L 681.327909 313.46468 
L 709.31537 310.781081 
L 737.302831 307.642946 
L 765.290292 305.666348 
L 793.277753 303.460544 
L 821.265214 301.928789 
L 849.252674 299.751575 
L 877.240135 297.406697 
L 905.227596 296.959915 
L 933.215057 295.151465 
" style="fill:none;stroke:#fe0002;stroke-dasharray:5.55,2.4;stroke-dashoffset:0;stroke-width:1.5;"/>
    <g clip-path="url(#p554e728a6e)">
     <use style="fill:#fe0002;stroke:#000000;" x="121.578693" xlink:href="#ma8e5f2c0ce" y="847.764068"/>
     <use style="fill:#fe0002;stroke:#000000;" x="149.566154" xlink:href="#ma8e5f2c0ce" y="539.244641"/>
     <use style="fill:#fe0002;stroke:#000000;" x="177.553615" xlink:href="#ma8e5f2c0ce" y="482.04395"/>
     <use style="fill:#fe0002;stroke:#000000;" x="205.541076" xlink:href="#ma8e5f2c0ce" y="449.027634"/>
     <use style="fill:#fe0002;stroke:#000000;" x="233.528536" xlink:href="#ma8e5f2c0ce" y="426.521356"/>
     <use style="fill:#fe0002;stroke:#000000;" x="261.515997" xlink:href="#ma8e5f2c0ce" y="408.597742"/>
     <use style="fill:#fe0002;stroke:#000000;" x="289.503458" xlink:href="#ma8e5f2c0ce" y="394.743625"/>
     <use style="fill:#fe0002;stroke:#000000;" x="317.490919" xlink:href="#ma8e5f2c0ce" y="382.831216"/>
     <use style="fill:#fe0002;stroke:#000000;" x="345.47838" xlink:href="#ma8e5f2c0ce" y="373.500644"/>
     <use style="fill:#fe0002;stroke:#000000;" x="373.465841" xlink:href="#ma8e5f2c0ce" y="364.10417"/>
     <use style="fill:#fe0002;stroke:#000000;" x="401.453301" xlink:href="#ma8e5f2c0ce" y="357.435876"/>
     <use style="fill:#fe0002;stroke:#000000;" x="429.440762" xlink:href="#ma8e5f2c0ce" y="349.881288"/>
     <use style="fill:#fe0002;stroke:#000000;" x="457.428223" xlink:href="#ma8e5f2c0ce" y="344.665762"/>
     <use style="fill:#fe0002;stroke:#000000;" x="485.415684" xlink:href="#ma8e5f2c0ce" y="339.334422"/>
     <use style="fill:#fe0002;stroke:#000000;" x="513.403145" xlink:href="#ma8e5f2c0ce" y="334.211452"/>
     <use style="fill:#fe0002;stroke:#000000;" x="541.390605" xlink:href="#ma8e5f2c0ce" y="330.231119"/>
     <use style="fill:#fe0002;stroke:#000000;" x="569.378066" xlink:href="#ma8e5f2c0ce" y="325.742462"/>
     <use style="fill:#fe0002;stroke:#000000;" x="597.365527" xlink:href="#ma8e5f2c0ce" y="322.79186"/>
     <use style="fill:#fe0002;stroke:#000000;" x="625.352988" xlink:href="#ma8e5f2c0ce" y="318.691835"/>
     <use style="fill:#fe0002;stroke:#000000;" x="653.340449" xlink:href="#ma8e5f2c0ce" y="315.251808"/>
     <use style="fill:#fe0002;stroke:#000000;" x="681.327909" xlink:href="#ma8e5f2c0ce" y="313.46468"/>
     <use style="fill:#fe0002;stroke:#000000;" x="709.31537" xlink:href="#ma8e5f2c0ce" y="310.781081"/>
     <use style="fill:#fe0002;stroke:#000000;" x="737.302831" xlink:href="#ma8e5f2c0ce" y="307.642946"/>
     <use style="fill:#fe0002;stroke:#000000;" x="765.290292" xlink:href="#ma8e5f2c0ce" y="305.666348"/>
     <use style="fill:#fe0002;stroke:#000000;" x="793.277753" xlink:href="#ma8e5f2c0ce" y="303.460544"/>
     <use style="fill:#fe0002;stroke:#000000;" x="821.265214" xlink:href="#ma8e5f2c0ce" y="301.928789"/>
     <use style="fill:#fe0002;stroke:#000000;" x="849.252674" xlink:href="#ma8e5f2c0ce" y="299.751575"/>
     <use style="fill:#fe0002;stroke:#000000;" x="877.240135" xlink:href="#ma8e5f2c0ce" y="297.406697"/>
     <use style="fill:#fe0002;stroke:#000000;" x="905.227596" xlink:href="#ma8e5f2c0ce" y="296.959915"/>
     <use style="fill:#fe0002;stroke:#000000;" x="933.215057" xlink:href="#ma8e5f2c0ce" y="295.151465"/>
    </g>
   </g>
   <g id="line2d_33">
    <path clip-path="url(#p554e728a6e)" d="M 121.578693 959.76 
L 149.566154 523.570929 
L 177.553615 443.976866 
L 205.541076 398.296074 
L 233.528536 365.815219 
L 261.515997 342.058726 
L 289.503458 321.770367 
L 317.490919 306.202293 
L 345.47838 291.302453 
L 373.465841 278.904011 
L 401.453301 270.082732 
L 429.440762 259.752474 
L 457.428223 252.775988 
L 485.415684 244.532328 
L 513.403145 238.2139 
L 541.390605 231.577589 
L 569.378066 224.790573 
L 597.365527 220.696849 
L 625.352988 216.192201 
L 653.340449 210.911742 
L 681.327909 207.894752 
L 709.31537 204.754195 
L 737.302831 200.820381 
L 765.290292 197.916299 
L 793.277753 194.836314 
L 821.265214 191.998133 
L 849.252674 189.214226 
L 877.240135 186.205959 
L 905.227596 184.24729 
L 933.215057 182.421396 
" style="fill:none;stroke:#53fca1;stroke-linecap:square;stroke-width:1.5;"/>
    <defs>
     <path d="M 0 -4.5 
L -4.5 4.5 
L 4.5 4.5 
z
" id="mebf147b44e" style="stroke:#000000;stroke-linejoin:miter;"/>
    </defs>
    <g clip-path="url(#p554e728a6e)">
     <use style="fill:#53fca1;stroke:#000000;stroke-linejoin:miter;" x="121.578693" xlink:href="#mebf147b44e" y="959.76"/>
     <use style="fill:#53fca1;stroke:#000000;stroke-linejoin:miter;" x="149.566154" xlink:href="#mebf147b44e" y="523.570929"/>
     <use style="fill:#53fca1;stroke:#000000;stroke-linejoin:miter;" x="177.553615" xlink:href="#mebf147b44e" y="443.976866"/>
     <use style="fill:#53fca1;stroke:#000000;stroke-linejoin:miter;" x="205.541076" xlink:href="#mebf147b44e" y="398.296074"/>
     <use style="fill:#53fca1;stroke:#000000;stroke-linejoin:miter;" x="233.528536" xlink:href="#mebf147b44e" y="365.815219"/>
     <use style="fill:#53fca1;stroke:#000000;stroke-linejoin:miter;" x="261.515997" xlink:href="#mebf147b44e" y="342.058726"/>
     <use style="fill:#53fca1;stroke:#000000;stroke-linejoin:miter;" x="289.503458" xlink:href="#mebf147b44e" y="321.770367"/>
     <use style="fill:#53fca1;stroke:#000000;stroke-linejoin:miter;" x="317.490919" xlink:href="#mebf147b44e" y="306.202293"/>
     <use style="fill:#53fca1;stroke:#000000;stroke-linejoin:miter;" x="345.47838" xlink:href="#mebf147b44e" y="291.302453"/>
     <use style="fill:#53fca1;stroke:#000000;stroke-linejoin:miter;" x="373.465841" xlink:href="#mebf147b44e" y="278.904011"/>
     <use style="fill:#53fca1;stroke:#000000;stroke-linejoin:miter;" x="401.453301" xlink:href="#mebf147b44e" y="270.082732"/>
     <use style="fill:#53fca1;stroke:#000000;stroke-linejoin:miter;" x="429.440762" xlink:href="#mebf147b44e" y="259.752474"/>
     <use style="fill:#53fca1;stroke:#000000;stroke-linejoin:miter;" x="457.428223" xlink:href="#mebf147b44e" y="252.775988"/>
     <use style="fill:#53fca1;stroke:#000000;stroke-linejoin:miter;" x="485.415684" xlink:href="#mebf147b44e" y="244.532328"/>
     <use style="fill:#53fca1;stroke:#000000;stroke-linejoin:miter;" x="513.403145" xlink:href="#mebf147b44e" y="238.2139"/>
     <use style="fill:#53fca1;stroke:#000000;stroke-linejoin:miter;" x="541.390605" xlink:href="#mebf147b44e" y="231.577589"/>
     <use style="fill:#53fca1;stroke:#000000;stroke-linejoin:miter;" x="569.378066" xlink:href="#mebf147b44e" y="224.790573"/>
     <use style="fill:#53fca1;stroke:#000000;stroke-linejoin:miter;" x="597.365527" xlink:href="#mebf147b44e" y="220.696849"/>
     <use style="fill:#53fca1;stroke:#000000;stroke-linejoin:miter;" x="625.352988" xlink:href="#mebf147b44e" y="216.192201"/>
     <use style="fill:#53fca1;stroke:#000000;stroke-linejoin:miter;" x="653.340449" xlink:href="#mebf147b44e" y="210.911742"/>
     <use style="fill:#53fca1;stroke:#000000;stroke-linejoin:miter;" x="681.327909" xlink:href="#mebf147b44e" y="207.894752"/>
     <use style="fill:#53fca1;stroke:#000000;stroke-linejoin:miter;" x="709.31537" xlink:href="#mebf147b44e" y="204.754195"/>
     <use style="fill:#53fca1;stroke:#000000;stroke-linejoin:miter;" x="737.302831" xlink:href="#mebf147b44e" y="200.820381"/>
     <use style="fill:#53fca1;stroke:#000000;stroke-linejoin:miter;" x="765.290292" xlink:href="#mebf147b44e" y="197.916299"/>
     <use style="fill:#53fca1;stroke:#000000;stroke-linejoin:miter;" x="793.277753" xlink:href="#mebf147b44e" y="194.836314"/>
     <use style="fill:#53fca1;stroke:#000000;stroke-linejoin:miter;" x="821.265214" xlink:href="#mebf147b44e" y="191.998133"/>
     <use style="fill:#53fca1;stroke:#000000;stroke-linejoin:miter;" x="849.252674" xlink:href="#mebf147b44e" y="189.214226"/>
     <use style="fill:#53fca1;stroke:#000000;stroke-linejoin:miter;" x="877.240135" xlink:href="#mebf147b44e" y="186.205959"/>
     <use style="fill:#53fca1;stroke:#000000;stroke-linejoin:miter;" x="905.227596" xlink:href="#mebf147b44e" y="184.24729"/>
     <use style="fill:#53fca1;stroke:#000000;stroke-linejoin:miter;" x="933.215057" xlink:href="#mebf147b44e" y="182.421396"/>
    </g>
   </g>
   <g id="line2d_34">
    <path clip-path="url(#p554e728a6e)" d="M 121.578693 959.76 
L 149.566154 702.718385 
L 177.553615 660.848324 
L 205.541076 637.244474 
L 233.528536 620.581251 
L 261.515997 608.31316 
L 289.503458 598.163166 
L 317.490919 590.199592 
L 345.47838 582.420643 
L 373.465841 576.220937 
L 401.453301 571.773955 
L 429.440762 566.671336 
L 457.428223 563.03457 
L 485.415684 558.896264 
L 513.403145 555.524077 
L 541.390605 552.136869 
L 569.378066 548.890674 
L 597.365527 546.736235 
L 625.352988 544.470343 
L 653.340449 541.858461 
L 681.327909 540.215253 
L 709.31537 538.583675 
L 737.302831 536.737429 
L 765.290292 535.119903 
L 793.277753 533.69088 
L 821.265214 532.249257 
L 849.252674 530.885166 
L 877.240135 529.430944 
L 905.227596 528.517997 
L 933.215057 527.461615 
" style="fill:none;stroke:#53fca1;stroke-dasharray:5.55,2.4;stroke-dashoffset:0;stroke-width:1.5;"/>
    <defs>
     <path d="M -0 6.363961 
L 6.363961 0 
L 0 -6.363961 
L -6.363961 -0 
z
" id="m9ba5c0f97d" style="stroke:#000000;stroke-linejoin:miter;"/>
    </defs>
    <g clip-path="url(#p554e728a6e)">
     <use style="fill:#53fca1;stroke:#000000;stroke-linejoin:miter;" x="121.578693" xlink:href="#m9ba5c0f97d" y="959.76"/>
     <use style="fill:#53fca1;stroke:#000000;stroke-linejoin:miter;" x="149.566154" xlink:href="#m9ba5c0f97d" y="702.718385"/>
     <use style="fill:#53fca1;stroke:#000000;stroke-linejoin:miter;" x="177.553615" xlink:href="#m9ba5c0f97d" y="660.848324"/>
     <use style="fill:#53fca1;stroke:#000000;stroke-linejoin:miter;" x="205.541076" xlink:href="#m9ba5c0f97d" y="637.244474"/>
     <use style="fill:#53fca1;stroke:#000000;stroke-linejoin:miter;" x="233.528536" xlink:href="#m9ba5c0f97d" y="620.581251"/>
     <use style="fill:#53fca1;stroke:#000000;stroke-linejoin:miter;" x="261.515997" xlink:href="#m9ba5c0f97d" y="608.31316"/>
     <use style="fill:#53fca1;stroke:#000000;stroke-linejoin:miter;" x="289.503458" xlink:href="#m9ba5c0f97d" y="598.163166"/>
     <use style="fill:#53fca1;stroke:#000000;stroke-linejoin:miter;" x="317.490919" xlink:href="#m9ba5c0f97d" y="590.199592"/>
     <use style="fill:#53fca1;stroke:#000000;stroke-linejoin:miter;" x="345.47838" xlink:href="#m9ba5c0f97d" y="582.420643"/>
     <use style="fill:#53fca1;stroke:#000000;stroke-linejoin:miter;" x="373.465841" xlink:href="#m9ba5c0f97d" y="576.220937"/>
     <use style="fill:#53fca1;stroke:#000000;stroke-linejoin:miter;" x="401.453301" xlink:href="#m9ba5c0f97d" y="571.773955"/>
     <use style="fill:#53fca1;stroke:#000000;stroke-linejoin:miter;" x="429.440762" xlink:href="#m9ba5c0f97d" y="566.671336"/>
     <use style="fill:#53fca1;stroke:#000000;stroke-linejoin:miter;" x="457.428223" xlink:href="#m9ba5c0f97d" y="563.03457"/>
     <use style="fill:#53fca1;stroke:#000000;stroke-linejoin:miter;" x="485.415684" xlink:href="#m9ba5c0f97d" y="558.896264"/>
     <use style="fill:#53fca1;stroke:#000000;stroke-linejoin:miter;" x="513.403145" xlink:href="#m9ba5c0f97d" y="555.524077"/>
     <use style="fill:#53fca1;stroke:#000000;stroke-linejoin:miter;" x="541.390605" xlink:href="#m9ba5c0f97d" y="552.136869"/>
     <use style="fill:#53fca1;stroke:#000000;stroke-linejoin:miter;" x="569.378066" xlink:href="#m9ba5c0f97d" y="548.890674"/>
     <use style="fill:#53fca1;stroke:#000000;stroke-linejoin:miter;" x="597.365527" xlink:href="#m9ba5c0f97d" y="546.736235"/>
     <use style="fill:#53fca1;stroke:#000000;stroke-linejoin:miter;" x="625.352988" xlink:href="#m9ba5c0f97d" y="544.470343"/>
     <use style="fill:#53fca1;stroke:#000000;stroke-linejoin:miter;" x="653.340449" xlink:href="#m9ba5c0f97d" y="541.858461"/>
     <use style="fill:#53fca1;stroke:#000000;stroke-linejoin:miter;" x="681.327909" xlink:href="#m9ba5c0f97d" y="540.215253"/>
     <use style="fill:#53fca1;stroke:#000000;stroke-linejoin:miter;" x="709.31537" xlink:href="#m9ba5c0f97d" y="538.583675"/>
     <use style="fill:#53fca1;stroke:#000000;stroke-linejoin:miter;" x="737.302831" xlink:href="#m9ba5c0f97d" y="536.737429"/>
     <use style="fill:#53fca1;stroke:#000000;stroke-linejoin:miter;" x="765.290292" xlink:href="#m9ba5c0f97d" y="535.119903"/>
     <use style="fill:#53fca1;stroke:#000000;stroke-linejoin:miter;" x="793.277753" xlink:href="#m9ba5c0f97d" y="533.69088"/>
     <use style="fill:#53fca1;stroke:#000000;stroke-linejoin:miter;" x="821.265214" xlink:href="#m9ba5c0f97d" y="532.249257"/>
     <use style="fill:#53fca1;stroke:#000000;stroke-linejoin:miter;" x="849.252674" xlink:href="#m9ba5c0f97d" y="530.885166"/>
     <use style="fill:#53fca1;stroke:#000000;stroke-linejoin:miter;" x="877.240135" xlink:href="#m9ba5c0f97d" y="529.430944"/>
     <use style="fill:#53fca1;stroke:#000000;stroke-linejoin:miter;" x="905.227596" xlink:href="#m9ba5c0f97d" y="528.517997"/>
     <use style="fill:#53fca1;stroke:#000000;stroke-linejoin:miter;" x="933.215057" xlink:href="#m9ba5c0f97d" y="527.461615"/>
    </g>
   </g>
   <g id="line2d_35">
    <path clip-path="url(#p554e728a6e)" d="M 121.578693 959.76 
L 149.566154 488.653125 
L 177.553615 389.876512 
L 205.541076 331.701816 
L 233.528536 291.387739 
L 261.515997 259.969081 
L 289.503458 234.370218 
L 317.490919 213.208647 
L 345.47838 196.097673 
L 373.465841 179.695154 
L 401.453301 168.32305 
L 429.440762 154.909415 
L 457.428223 144.581095 
L 485.415684 135.696336 
L 513.403145 127.935801 
L 541.390605 120.331785 
L 569.378066 110.951302 
L 597.365527 105.296748 
L 625.352988 100.587124 
L 653.340449 93.566056 
L 681.327909 89.053655 
L 709.31537 84.228216 
L 737.302831 80.138853 
L 765.290292 76.154643 
L 793.277753 73.171574 
L 821.265214 68.893709 
L 849.252674 65.73183 
L 877.240135 61.69044 
L 905.227596 59.832564 
L 933.215057 57.008921 
" style="fill:none;stroke:#0652ff;stroke-linecap:square;stroke-width:1.5;"/>
    <defs>
     <path d="M 0 -4.5 
L -4.279754 -1.390576 
L -2.645034 3.640576 
L 2.645034 3.640576 
L 4.279754 -1.390576 
z
" id="m537959892a" style="stroke:#000000;stroke-linejoin:miter;"/>
    </defs>
    <g clip-path="url(#p554e728a6e)">
     <use style="fill:#0652ff;stroke:#000000;stroke-linejoin:miter;" x="121.578693" xlink:href="#m537959892a" y="959.76"/>
     <use style="fill:#0652ff;stroke:#000000;stroke-linejoin:miter;" x="149.566154" xlink:href="#m537959892a" y="488.653125"/>
     <use style="fill:#0652ff;stroke:#000000;stroke-linejoin:miter;" x="177.553615" xlink:href="#m537959892a" y="389.876512"/>
     <use style="fill:#0652ff;stroke:#000000;stroke-linejoin:miter;" x="205.541076" xlink:href="#m537959892a" y="331.701816"/>
     <use style="fill:#0652ff;stroke:#000000;stroke-linejoin:miter;" x="233.528536" xlink:href="#m537959892a" y="291.387739"/>
     <use style="fill:#0652ff;stroke:#000000;stroke-linejoin:miter;" x="261.515997" xlink:href="#m537959892a" y="259.969081"/>
     <use style="fill:#0652ff;stroke:#000000;stroke-linejoin:miter;" x="289.503458" xlink:href="#m537959892a" y="234.370218"/>
     <use style="fill:#0652ff;stroke:#000000;stroke-linejoin:miter;" x="317.490919" xlink:href="#m537959892a" y="213.208647"/>
     <use style="fill:#0652ff;stroke:#000000;stroke-linejoin:miter;" x="345.47838" xlink:href="#m537959892a" y="196.097673"/>
     <use style="fill:#0652ff;stroke:#000000;stroke-linejoin:miter;" x="373.465841" xlink:href="#m537959892a" y="179.695154"/>
     <use style="fill:#0652ff;stroke:#000000;stroke-linejoin:miter;" x="401.453301" xlink:href="#m537959892a" y="168.32305"/>
     <use style="fill:#0652ff;stroke:#000000;stroke-linejoin:miter;" x="429.440762" xlink:href="#m537959892a" y="154.909415"/>
     <use style="fill:#0652ff;stroke:#000000;stroke-linejoin:miter;" x="457.428223" xlink:href="#m537959892a" y="144.581095"/>
     <use style="fill:#0652ff;stroke:#000000;stroke-linejoin:miter;" x="485.415684" xlink:href="#m537959892a" y="135.696336"/>
     <use style="fill:#0652ff;stroke:#000000;stroke-linejoin:miter;" x="513.403145" xlink:href="#m537959892a" y="127.935801"/>
     <use style="fill:#0652ff;stroke:#000000;stroke-linejoin:miter;" x="541.390605" xlink:href="#m537959892a" y="120.331785"/>
     <use style="fill:#0652ff;stroke:#000000;stroke-linejoin:miter;" x="569.378066" xlink:href="#m537959892a" y="110.951302"/>
     <use style="fill:#0652ff;stroke:#000000;stroke-linejoin:miter;" x="597.365527" xlink:href="#m537959892a" y="105.296748"/>
     <use style="fill:#0652ff;stroke:#000000;stroke-linejoin:miter;" x="625.352988" xlink:href="#m537959892a" y="100.587124"/>
     <use style="fill:#0652ff;stroke:#000000;stroke-linejoin:miter;" x="653.340449" xlink:href="#m537959892a" y="93.566056"/>
     <use style="fill:#0652ff;stroke:#000000;stroke-linejoin:miter;" x="681.327909" xlink:href="#m537959892a" y="89.053655"/>
     <use style="fill:#0652ff;stroke:#000000;stroke-linejoin:miter;" x="709.31537" xlink:href="#m537959892a" y="84.228216"/>
     <use style="fill:#0652ff;stroke:#000000;stroke-linejoin:miter;" x="737.302831" xlink:href="#m537959892a" y="80.138853"/>
     <use style="fill:#0652ff;stroke:#000000;stroke-linejoin:miter;" x="765.290292" xlink:href="#m537959892a" y="76.154643"/>
     <use style="fill:#0652ff;stroke:#000000;stroke-linejoin:miter;" x="793.277753" xlink:href="#m537959892a" y="73.171574"/>
     <use style="fill:#0652ff;stroke:#000000;stroke-linejoin:miter;" x="821.265214" xlink:href="#m537959892a" y="68.893709"/>
     <use style="fill:#0652ff;stroke:#000000;stroke-linejoin:miter;" x="849.252674" xlink:href="#m537959892a" y="65.73183"/>
     <use style="fill:#0652ff;stroke:#000000;stroke-linejoin:miter;" x="877.240135" xlink:href="#m537959892a" y="61.69044"/>
     <use style="fill:#0652ff;stroke:#000000;stroke-linejoin:miter;" x="905.227596" xlink:href="#m537959892a" y="59.832564"/>
     <use style="fill:#0652ff;stroke:#000000;stroke-linejoin:miter;" x="933.215057" xlink:href="#m537959892a" y="57.008921"/>
    </g>
   </g>
   <g id="line2d_36">
    <path clip-path="url(#p554e728a6e)" d="M 121.578693 959.76 
L 149.566154 659.704717 
L 177.553615 599.711881 
L 205.541076 564.317251 
L 233.528536 540.354327 
L 261.515997 521.63552 
L 289.503458 506.329118 
L 317.490919 493.831337 
L 345.47838 483.730285 
L 373.465841 473.830818 
L 401.453301 467.18433 
L 429.440762 459.038555 
L 457.428223 452.849995 
L 485.415684 447.781297 
L 513.403145 443.233037 
L 541.390605 438.593192 
L 569.378066 433.051544 
L 597.365527 429.832001 
L 625.352988 426.713249 
L 653.340449 422.698511 
L 681.327909 420.280461 
L 709.31537 417.218405 
L 737.302831 414.925862 
L 765.290292 412.778691 
L 793.277753 410.882533 
L 821.265214 408.384528 
L 849.252674 406.284362 
L 877.240135 404.204548 
L 905.227596 403.015391 
L 933.215057 401.472491 
" style="fill:none;stroke:#0652ff;stroke-dasharray:5.55,2.4;stroke-dashoffset:0;stroke-width:1.5;"/>
    <defs>
     <path d="M -2.25 4.5 
L 0 2.25 
L 2.25 4.5 
L 4.5 2.25 
L 2.25 0 
L 4.5 -2.25 
L 2.25 -4.5 
L 0 -2.25 
L -2.25 -4.5 
L -4.5 -2.25 
L -2.25 0 
L -4.5 2.25 
z
" id="m16dff419aa" style="stroke:#000000;stroke-linejoin:miter;"/>
    </defs>
    <g clip-path="url(#p554e728a6e)">
     <use style="fill:#0652ff;stroke:#000000;stroke-linejoin:miter;" x="121.578693" xlink:href="#m16dff419aa" y="959.76"/>
     <use style="fill:#0652ff;stroke:#000000;stroke-linejoin:miter;" x="149.566154" xlink:href="#m16dff419aa" y="659.704717"/>
     <use style="fill:#0652ff;stroke:#000000;stroke-linejoin:miter;" x="177.553615" xlink:href="#m16dff419aa" y="599.711881"/>
     <use style="fill:#0652ff;stroke:#000000;stroke-linejoin:miter;" x="205.541076" xlink:href="#m16dff419aa" y="564.317251"/>
     <use style="fill:#0652ff;stroke:#000000;stroke-linejoin:miter;" x="233.528536" xlink:href="#m16dff419aa" y="540.354327"/>
     <use style="fill:#0652ff;stroke:#000000;stroke-linejoin:miter;" x="261.515997" xlink:href="#m16dff419aa" y="521.63552"/>
     <use style="fill:#0652ff;stroke:#000000;stroke-linejoin:miter;" x="289.503458" xlink:href="#m16dff419aa" y="506.329118"/>
     <use style="fill:#0652ff;stroke:#000000;stroke-linejoin:miter;" x="317.490919" xlink:href="#m16dff419aa" y="493.831337"/>
     <use style="fill:#0652ff;stroke:#000000;stroke-linejoin:miter;" x="345.47838" xlink:href="#m16dff419aa" y="483.730285"/>
     <use style="fill:#0652ff;stroke:#000000;stroke-linejoin:miter;" x="373.465841" xlink:href="#m16dff419aa" y="473.830818"/>
     <use style="fill:#0652ff;stroke:#000000;stroke-linejoin:miter;" x="401.453301" xlink:href="#m16dff419aa" y="467.18433"/>
     <use style="fill:#0652ff;stroke:#000000;stroke-linejoin:miter;" x="429.440762" xlink:href="#m16dff419aa" y="459.038555"/>
     <use style="fill:#0652ff;stroke:#000000;stroke-linejoin:miter;" x="457.428223" xlink:href="#m16dff419aa" y="452.849995"/>
     <use style="fill:#0652ff;stroke:#000000;stroke-linejoin:miter;" x="485.415684" xlink:href="#m16dff419aa" y="447.781297"/>
     <use style="fill:#0652ff;stroke:#000000;stroke-linejoin:miter;" x="513.403145" xlink:href="#m16dff419aa" y="443.233037"/>
     <use style="fill:#0652ff;stroke:#000000;stroke-linejoin:miter;" x="541.390605" xlink:href="#m16dff419aa" y="438.593192"/>
     <use style="fill:#0652ff;stroke:#000000;stroke-linejoin:miter;" x="569.378066" xlink:href="#m16dff419aa" y="433.051544"/>
     <use style="fill:#0652ff;stroke:#000000;stroke-linejoin:miter;" x="597.365527" xlink:href="#m16dff419aa" y="429.832001"/>
     <use style="fill:#0652ff;stroke:#000000;stroke-linejoin:miter;" x="625.352988" xlink:href="#m16dff419aa" y="426.713249"/>
     <use style="fill:#0652ff;stroke:#000000;stroke-linejoin:miter;" x="653.340449" xlink:href="#m16dff419aa" y="422.698511"/>
     <use style="fill:#0652ff;stroke:#000000;stroke-linejoin:miter;" x="681.327909" xlink:href="#m16dff419aa" y="420.280461"/>
     <use style="fill:#0652ff;stroke:#000000;stroke-linejoin:miter;" x="709.31537" xlink:href="#m16dff419aa" y="417.218405"/>
     <use style="fill:#0652ff;stroke:#000000;stroke-linejoin:miter;" x="737.302831" xlink:href="#m16dff419aa" y="414.925862"/>
     <use style="fill:#0652ff;stroke:#000000;stroke-linejoin:miter;" x="765.290292" xlink:href="#m16dff419aa" y="412.778691"/>
     <use style="fill:#0652ff;stroke:#000000;stroke-linejoin:miter;" x="793.277753" xlink:href="#m16dff419aa" y="410.882533"/>
     <use style="fill:#0652ff;stroke:#000000;stroke-linejoin:miter;" x="821.265214" xlink:href="#m16dff419aa" y="408.384528"/>
     <use style="fill:#0652ff;stroke:#000000;stroke-linejoin:miter;" x="849.252674" xlink:href="#m16dff419aa" y="406.284362"/>
     <use style="fill:#0652ff;stroke:#000000;stroke-linejoin:miter;" x="877.240135" xlink:href="#m16dff419aa" y="404.204548"/>
     <use style="fill:#0652ff;stroke:#000000;stroke-linejoin:miter;" x="905.227596" xlink:href="#m16dff419aa" y="403.015391"/>
     <use style="fill:#0652ff;stroke:#000000;stroke-linejoin:miter;" x="933.215057" xlink:href="#m16dff419aa" y="401.472491"/>
    </g>
   </g>
   <g id="patch_3">
    <path d="M 80.996875 1005.12 
L 80.996875 7.2 
" style="fill:none;stroke:#000000;stroke-linecap:square;stroke-linejoin:miter;stroke-width:0.8;"/>
   </g>
   <g id="patch_4">
    <path d="M 973.796875 1005.12 
L 973.796875 7.2 
" style="fill:none;stroke:#000000;stroke-linecap:square;stroke-linejoin:miter;stroke-width:0.8;"/>
   </g>
   <g id="patch_5">
    <path d="M 80.996875 1005.12 
L 973.796875 1005.12 
" style="fill:none;stroke:#000000;stroke-linecap:square;stroke-linejoin:miter;stroke-width:0.8;"/>
   </g>
   <g id="patch_6">
    <path d="M 80.996875 7.2 
L 973.796875 7.2 
" style="fill:none;stroke:#000000;stroke-linecap:square;stroke-linejoin:miter;stroke-width:0.8;"/>
   </g>
  </g>
 </g>
 <defs>
  <clipPath id="p554e728a6e">
   <rect height="997.92" width="892.8" x="80.996875" y="7.2"/>
  </clipPath>
 </defs>
</svg>
