<?xml version="1.0" encoding="utf-8" standalone="no"?>
<!DOCTYPE svg PUBLIC "-//W3C//DTD SVG 1.1//EN"
  "http://www.w3.org/Graphics/SVG/1.1/DTD/svg11.dtd">
<!-- Created with matplotlib (https://matplotlib.org/) -->
<svg height="1090.099062pt" version="1.1" viewBox="0 0 958.657578 1090.099062" width="958.657578pt" xmlns="http://www.w3.org/2000/svg" xmlns:xlink="http://www.w3.org/1999/xlink">
 <metadata>
  <rdf:RDF xmlns:cc="http://creativecommons.org/ns#" xmlns:dc="http://purl.org/dc/elements/1.1/" xmlns:rdf="http://www.w3.org/1999/02/22-rdf-syntax-ns#">
   <cc:Work>
    <dc:type rdf:resource="http://purl.org/dc/dcmitype/StillImage"/>
    <dc:date>2021-05-03T14:14:31.766710</dc:date>
    <dc:format>image/svg+xml</dc:format>
    <dc:creator>
     <cc:Agent>
      <dc:title>Matplotlib v3.3.2, https://matplotlib.org/</dc:title>
     </cc:Agent>
    </dc:creator>
   </cc:Work>
  </rdf:RDF>
 </metadata>
 <defs>
  <style type="text/css">*{stroke-linecap:butt;stroke-linejoin:round;}</style>
 </defs>
 <g id="figure_1">
  <g id="patch_1">
   <path d="M 0 1090.099062 
L 958.657578 1090.099062 
L 958.657578 0 
L 0 0 
z
" style="fill:#ffffff;"/>
  </g>
  <g id="axes_1">
   <g id="patch_2">
    <path d="M 52.375 1005.12 
L 945.175 1005.12 
L 945.175 7.2 
L 52.375 7.2 
z
" style="fill:#ffffff;"/>
   </g>
   <g id="PolyCollection_1">
    <defs>
     <path d="M 92.956818 -284.618401 
L 92.956818 -245.564664 
L 135.674522 -309.503983 
L 178.392225 -345.597214 
L 221.109928 -371.360487 
L 263.827632 -393.013352 
L 306.545335 -440.326465 
L 349.263038 -446.267452 
L 391.980742 -452.841101 
L 434.698445 -457.957178 
L 477.416148 -470.652209 
L 520.133852 -474.962411 
L 562.851555 -489.222219 
L 605.569258 -506.340217 
L 648.286962 -507.803887 
L 691.004665 -518.753278 
L 733.722368 -519.67259 
L 776.440072 -534.472111 
L 819.157775 -539.94034 
L 861.875478 -534.831914 
L 904.593182 -536.42351 
L 904.593182 -597.548888 
L 904.593182 -597.548888 
L 861.875478 -582.000908 
L 819.157775 -586.575387 
L 776.440072 -580.42176 
L 733.722368 -569.106712 
L 691.004665 -556.810784 
L 648.286962 -556.710432 
L 605.569258 -553.196201 
L 562.851555 -538.662348 
L 520.133852 -537.256668 
L 477.416148 -517.721094 
L 434.698445 -510.746486 
L 391.980742 -499.121921 
L 349.263038 -483.093634 
L 306.545335 -471.829931 
L 263.827632 -458.022017 
L 221.109928 -420.617375 
L 178.392225 -395.74356 
L 135.674522 -358.315799 
L 92.956818 -284.618401 
z
" id="mc9ba47e4e8" style="stroke:#fe0002;stroke-opacity:0.3;"/>
    </defs>
    <g clip-path="url(#pe41ef12733)">
     <use style="fill:#fe0002;fill-opacity:0.3;stroke:#fe0002;stroke-opacity:0.3;" x="0" xlink:href="#mc9ba47e4e8" y="1090.099062"/>
    </g>
   </g>
   <g id="PolyCollection_2">
    <g clip-path="url(#pe41ef12733)">
     <use style="fill:#fe0002;fill-opacity:0.3;stroke:#fe0002;stroke-opacity:0.3;" x="0" xlink:href="#mc9ba47e4e8" y="1090.099062"/>
    </g>
   </g>
   <g id="PolyCollection_3">
    <defs>
     <path d="M 92.956818 -460.644864 
L 92.956818 -396.883661 
L 135.674522 -512.397857 
L 178.392225 -570.179009 
L 221.109928 -629.431915 
L 263.827632 -655.754779 
L 306.545335 -677.30661 
L 349.263038 -705.638915 
L 391.980742 -738.953881 
L 434.698445 -754.465705 
L 477.416148 -775.098997 
L 520.133852 -780.331788 
L 562.851555 -798.365538 
L 605.569258 -800.615062 
L 648.286962 -826.856135 
L 691.004665 -833.705814 
L 733.722368 -836.503336 
L 776.440072 -846.955655 
L 819.157775 -849.467895 
L 861.875478 -872.390947 
L 904.593182 -871.026505 
L 904.593182 -924.807787 
L 904.593182 -924.807787 
L 861.875478 -915.83527 
L 819.157775 -907.155886 
L 776.440072 -890.523892 
L 733.722368 -885.741722 
L 691.004665 -875.791755 
L 648.286962 -877.021791 
L 605.569258 -849.745608 
L 562.851555 -842.675178 
L 520.133852 -835.133029 
L 477.416148 -819.223904 
L 434.698445 -810.885886 
L 391.980742 -779.500282 
L 349.263038 -752.755252 
L 306.545335 -716.719703 
L 263.827632 -711.995371 
L 221.109928 -677.966562 
L 178.392225 -629.247097 
L 135.674522 -562.072072 
L 92.956818 -460.644864 
z
" id="mba094485e9" style="stroke:#53fca1;stroke-opacity:0.3;"/>
    </defs>
    <g clip-path="url(#pe41ef12733)">
     <use style="fill:#53fca1;fill-opacity:0.3;stroke:#53fca1;stroke-opacity:0.3;" x="0" xlink:href="#mba094485e9" y="1090.099062"/>
    </g>
   </g>
   <g id="PolyCollection_4">
    <defs>
     <path d="M 92.956818 -144.685333 
L 92.956818 -130.339063 
L 135.674522 -189.342976 
L 178.392225 -224.192295 
L 221.109928 -247.799365 
L 263.827632 -270.098393 
L 306.545335 -283.021345 
L 349.263038 -295.604363 
L 391.980742 -306.845097 
L 434.698445 -318.129891 
L 477.416148 -326.710203 
L 520.133852 -334.481538 
L 562.851555 -341.771407 
L 605.569258 -347.914722 
L 648.286962 -352.311891 
L 691.004665 -359.440632 
L 733.722368 -365.367665 
L 776.440072 -367.861985 
L 819.157775 -374.223514 
L 861.875478 -378.548364 
L 904.593182 -383.276509 
L 904.593182 -387.795506 
L 904.593182 -387.795506 
L 861.875478 -382.614973 
L 819.157775 -378.083988 
L 776.440072 -372.290456 
L 733.722368 -368.738668 
L 691.004665 -364.288672 
L 648.286962 -357.803937 
L 605.569258 -351.857296 
L 562.851555 -346.737643 
L 520.133852 -338.728634 
L 477.416148 -331.995456 
L 434.698445 -322.687797 
L 391.980742 -313.911756 
L 349.263038 -302.089476 
L 306.545335 -292.918024 
L 263.827632 -274.054436 
L 221.109928 -254.530659 
L 178.392225 -234.806092 
L 135.674522 -197.794492 
L 92.956818 -144.685333 
z
" id="m281108f21a" style="stroke:#53fca1;stroke-opacity:0.3;"/>
    </defs>
    <g clip-path="url(#pe41ef12733)">
     <use style="fill:#53fca1;fill-opacity:0.3;stroke:#53fca1;stroke-opacity:0.3;" x="0" xlink:href="#m281108f21a" y="1090.099062"/>
    </g>
   </g>
   <g id="PolyCollection_5">
    <defs>
     <path d="M 92.956818 -478.634632 
L 92.956818 -417.83377 
L 135.674522 -552.068237 
L 178.392225 -625.363063 
L 221.109928 -690.822465 
L 263.827632 -714.146903 
L 306.545335 -746.583369 
L 349.263038 -782.60001 
L 391.980742 -814.370186 
L 434.698445 -831.15183 
L 477.416148 -859.477595 
L 520.133852 -866.833439 
L 562.851555 -883.593479 
L 605.569258 -895.022778 
L 648.286962 -920.659948 
L 691.004665 -935.831684 
L 733.722368 -937.401431 
L 776.440072 -954.460366 
L 819.157775 -956.040191 
L 861.875478 -983.294565 
L 904.593182 -982.667188 
L 904.593182 -1037.539062 
L 904.593182 -1037.539062 
L 861.875478 -1023.166867 
L 819.157775 -1019.535006 
L 776.440072 -991.669073 
L 733.722368 -987.111032 
L 691.004665 -972.876282 
L 648.286962 -970.79247 
L 605.569258 -946.187051 
L 562.851555 -940.386342 
L 520.133852 -917.766977 
L 477.416148 -906.256718 
L 434.698445 -888.074154 
L 391.980742 -856.523962 
L 349.263038 -820.484986 
L 306.545335 -788.4851 
L 263.827632 -772.700971 
L 221.109928 -735.13922 
L 178.392225 -680.662484 
L 135.674522 -598.982774 
L 92.956818 -478.634632 
z
" id="ma257024cd5" style="stroke:#0652ff;stroke-opacity:0.3;"/>
    </defs>
    <g clip-path="url(#pe41ef12733)">
     <use style="fill:#0652ff;fill-opacity:0.3;stroke:#0652ff;stroke-opacity:0.3;" x="0" xlink:href="#ma257024cd5" y="1090.099062"/>
    </g>
   </g>
   <g id="PolyCollection_6">
    <defs>
     <path d="M 92.956818 -189.432034 
L 92.956818 -172.239281 
L 135.674522 -249.883426 
L 178.392225 -294.220283 
L 221.109928 -326.032593 
L 263.827632 -347.113996 
L 306.545335 -369.56424 
L 349.263038 -389.042941 
L 391.980742 -405.097714 
L 434.698445 -414.579818 
L 477.416148 -427.906568 
L 520.133852 -438.435276 
L 562.851555 -449.328084 
L 605.569258 -457.182912 
L 648.286962 -466.717088 
L 691.004665 -474.81936 
L 733.722368 -481.199664 
L 776.440072 -488.126697 
L 819.157775 -493.72421 
L 861.875478 -502.26241 
L 904.593182 -507.604029 
L 904.593182 -513.184613 
L 904.593182 -513.184613 
L 861.875478 -506.072565 
L 819.157775 -500.878011 
L 776.440072 -493.742462 
L 733.722368 -485.984313 
L 691.004665 -480.340095 
L 648.286962 -470.610394 
L 605.569258 -463.212732 
L 562.851555 -455.917524 
L 520.133852 -443.799475 
L 477.416148 -433.655439 
L 434.698445 -421.236421 
L 391.980742 -410.9335 
L 349.263038 -392.649458 
L 306.545335 -378.843583 
L 263.827632 -355.164891 
L 221.109928 -333.34168 
L 178.392225 -305.718563 
L 135.674522 -257.760009 
L 92.956818 -189.432034 
z
" id="mbff7816a64" style="stroke:#0652ff;stroke-opacity:0.3;"/>
    </defs>
    <g clip-path="url(#pe41ef12733)">
     <use style="fill:#0652ff;fill-opacity:0.3;stroke:#0652ff;stroke-opacity:0.3;" x="0" xlink:href="#mbff7816a64" y="1090.099062"/>
    </g>
   </g>
   <g id="matplotlib.axis_1">
    <g id="xtick_1">
     <g id="line2d_1">
      <path clip-path="url(#pe41ef12733)" d="M 220.255574 1005.12 
L 220.255574 7.2 
" style="fill:none;stroke:#b0b0b0;stroke-linecap:square;stroke-width:0.8;"/>
     </g>
     <g id="line2d_2">
      <defs>
       <path d="M 0 0 
L 0 3.5 
" id="ma76aaec3a2" style="stroke:#000000;stroke-width:0.8;"/>
      </defs>
      <g>
       <use style="stroke:#000000;stroke-width:0.8;" x="220.255574" xlink:href="#ma76aaec3a2" y="1005.12"/>
      </g>
     </g>
     <g id="text_1">
      <!-- 2000 -->
      <g transform="translate(182.080574 1034.915313)scale(0.3 -0.3)">
       <defs>
        <path d="M 19.1875 8.296875 
L 53.609375 8.296875 
L 53.609375 0 
L 7.328125 0 
L 7.328125 8.296875 
Q 12.9375 14.109375 22.625 23.890625 
Q 32.328125 33.6875 34.8125 36.53125 
Q 39.546875 41.84375 41.421875 45.53125 
Q 43.3125 49.21875 43.3125 52.78125 
Q 43.3125 58.59375 39.234375 62.25 
Q 35.15625 65.921875 28.609375 65.921875 
Q 23.96875 65.921875 18.8125 64.3125 
Q 13.671875 62.703125 7.8125 59.421875 
L 7.8125 69.390625 
Q 13.765625 71.78125 18.9375 73 
Q 24.125 74.21875 28.421875 74.21875 
Q 39.75 74.21875 46.484375 68.546875 
Q 53.21875 62.890625 53.21875 53.421875 
Q 53.21875 48.921875 51.53125 44.890625 
Q 49.859375 40.875 45.40625 35.40625 
Q 44.1875 33.984375 37.640625 27.21875 
Q 31.109375 20.453125 19.1875 8.296875 
z
" id="DejaVuSans-50"/>
        <path d="M 31.78125 66.40625 
Q 24.171875 66.40625 20.328125 58.90625 
Q 16.5 51.421875 16.5 36.375 
Q 16.5 21.390625 20.328125 13.890625 
Q 24.171875 6.390625 31.78125 6.390625 
Q 39.453125 6.390625 43.28125 13.890625 
Q 47.125 21.390625 47.125 36.375 
Q 47.125 51.421875 43.28125 58.90625 
Q 39.453125 66.40625 31.78125 66.40625 
z
M 31.78125 74.21875 
Q 44.046875 74.21875 50.515625 64.515625 
Q 56.984375 54.828125 56.984375 36.375 
Q 56.984375 17.96875 50.515625 8.265625 
Q 44.046875 -1.421875 31.78125 -1.421875 
Q 19.53125 -1.421875 13.0625 8.265625 
Q 6.59375 17.96875 6.59375 36.375 
Q 6.59375 54.828125 13.0625 64.515625 
Q 19.53125 74.21875 31.78125 74.21875 
z
" id="DejaVuSans-48"/>
       </defs>
       <use xlink:href="#DejaVuSans-50"/>
       <use x="63.623047" xlink:href="#DejaVuSans-48"/>
       <use x="127.246094" xlink:href="#DejaVuSans-48"/>
       <use x="190.869141" xlink:href="#DejaVuSans-48"/>
      </g>
     </g>
    </g>
    <g id="xtick_2">
     <g id="line2d_3">
      <path clip-path="url(#pe41ef12733)" d="M 391.126388 1005.12 
L 391.126388 7.2 
" style="fill:none;stroke:#b0b0b0;stroke-linecap:square;stroke-width:0.8;"/>
     </g>
     <g id="line2d_4">
      <g>
       <use style="stroke:#000000;stroke-width:0.8;" x="391.126388" xlink:href="#ma76aaec3a2" y="1005.12"/>
      </g>
     </g>
     <g id="text_2">
      <!-- 4000 -->
      <g transform="translate(352.951388 1034.915313)scale(0.3 -0.3)">
       <defs>
        <path d="M 37.796875 64.3125 
L 12.890625 25.390625 
L 37.796875 25.390625 
z
M 35.203125 72.90625 
L 47.609375 72.90625 
L 47.609375 25.390625 
L 58.015625 25.390625 
L 58.015625 17.1875 
L 47.609375 17.1875 
L 47.609375 0 
L 37.796875 0 
L 37.796875 17.1875 
L 4.890625 17.1875 
L 4.890625 26.703125 
z
" id="DejaVuSans-52"/>
       </defs>
       <use xlink:href="#DejaVuSans-52"/>
       <use x="63.623047" xlink:href="#DejaVuSans-48"/>
       <use x="127.246094" xlink:href="#DejaVuSans-48"/>
       <use x="190.869141" xlink:href="#DejaVuSans-48"/>
      </g>
     </g>
    </g>
    <g id="xtick_3">
     <g id="line2d_5">
      <path clip-path="url(#pe41ef12733)" d="M 561.997201 1005.12 
L 561.997201 7.2 
" style="fill:none;stroke:#b0b0b0;stroke-linecap:square;stroke-width:0.8;"/>
     </g>
     <g id="line2d_6">
      <g>
       <use style="stroke:#000000;stroke-width:0.8;" x="561.997201" xlink:href="#ma76aaec3a2" y="1005.12"/>
      </g>
     </g>
     <g id="text_3">
      <!-- 6000 -->
      <g transform="translate(523.822201 1034.915313)scale(0.3 -0.3)">
       <defs>
        <path d="M 33.015625 40.375 
Q 26.375 40.375 22.484375 35.828125 
Q 18.609375 31.296875 18.609375 23.390625 
Q 18.609375 15.53125 22.484375 10.953125 
Q 26.375 6.390625 33.015625 6.390625 
Q 39.65625 6.390625 43.53125 10.953125 
Q 47.40625 15.53125 47.40625 23.390625 
Q 47.40625 31.296875 43.53125 35.828125 
Q 39.65625 40.375 33.015625 40.375 
z
M 52.59375 71.296875 
L 52.59375 62.3125 
Q 48.875 64.0625 45.09375 64.984375 
Q 41.3125 65.921875 37.59375 65.921875 
Q 27.828125 65.921875 22.671875 59.328125 
Q 17.53125 52.734375 16.796875 39.40625 
Q 19.671875 43.65625 24.015625 45.921875 
Q 28.375 48.1875 33.59375 48.1875 
Q 44.578125 48.1875 50.953125 41.515625 
Q 57.328125 34.859375 57.328125 23.390625 
Q 57.328125 12.15625 50.6875 5.359375 
Q 44.046875 -1.421875 33.015625 -1.421875 
Q 20.359375 -1.421875 13.671875 8.265625 
Q 6.984375 17.96875 6.984375 36.375 
Q 6.984375 53.65625 15.1875 63.9375 
Q 23.390625 74.21875 37.203125 74.21875 
Q 40.921875 74.21875 44.703125 73.484375 
Q 48.484375 72.75 52.59375 71.296875 
z
" id="DejaVuSans-54"/>
       </defs>
       <use xlink:href="#DejaVuSans-54"/>
       <use x="63.623047" xlink:href="#DejaVuSans-48"/>
       <use x="127.246094" xlink:href="#DejaVuSans-48"/>
       <use x="190.869141" xlink:href="#DejaVuSans-48"/>
      </g>
     </g>
    </g>
    <g id="xtick_4">
     <g id="line2d_7">
      <path clip-path="url(#pe41ef12733)" d="M 732.868014 1005.12 
L 732.868014 7.2 
" style="fill:none;stroke:#b0b0b0;stroke-linecap:square;stroke-width:0.8;"/>
     </g>
     <g id="line2d_8">
      <g>
       <use style="stroke:#000000;stroke-width:0.8;" x="732.868014" xlink:href="#ma76aaec3a2" y="1005.12"/>
      </g>
     </g>
     <g id="text_4">
      <!-- 8000 -->
      <g transform="translate(694.693014 1034.915313)scale(0.3 -0.3)">
       <defs>
        <path d="M 31.78125 34.625 
Q 24.75 34.625 20.71875 30.859375 
Q 16.703125 27.09375 16.703125 20.515625 
Q 16.703125 13.921875 20.71875 10.15625 
Q 24.75 6.390625 31.78125 6.390625 
Q 38.8125 6.390625 42.859375 10.171875 
Q 46.921875 13.96875 46.921875 20.515625 
Q 46.921875 27.09375 42.890625 30.859375 
Q 38.875 34.625 31.78125 34.625 
z
M 21.921875 38.8125 
Q 15.578125 40.375 12.03125 44.71875 
Q 8.5 49.078125 8.5 55.328125 
Q 8.5 64.0625 14.71875 69.140625 
Q 20.953125 74.21875 31.78125 74.21875 
Q 42.671875 74.21875 48.875 69.140625 
Q 55.078125 64.0625 55.078125 55.328125 
Q 55.078125 49.078125 51.53125 44.71875 
Q 48 40.375 41.703125 38.8125 
Q 48.828125 37.15625 52.796875 32.3125 
Q 56.78125 27.484375 56.78125 20.515625 
Q 56.78125 9.90625 50.3125 4.234375 
Q 43.84375 -1.421875 31.78125 -1.421875 
Q 19.734375 -1.421875 13.25 4.234375 
Q 6.78125 9.90625 6.78125 20.515625 
Q 6.78125 27.484375 10.78125 32.3125 
Q 14.796875 37.15625 21.921875 38.8125 
z
M 18.3125 54.390625 
Q 18.3125 48.734375 21.84375 45.5625 
Q 25.390625 42.390625 31.78125 42.390625 
Q 38.140625 42.390625 41.71875 45.5625 
Q 45.3125 48.734375 45.3125 54.390625 
Q 45.3125 60.0625 41.71875 63.234375 
Q 38.140625 66.40625 31.78125 66.40625 
Q 25.390625 66.40625 21.84375 63.234375 
Q 18.3125 60.0625 18.3125 54.390625 
z
" id="DejaVuSans-56"/>
       </defs>
       <use xlink:href="#DejaVuSans-56"/>
       <use x="63.623047" xlink:href="#DejaVuSans-48"/>
       <use x="127.246094" xlink:href="#DejaVuSans-48"/>
       <use x="190.869141" xlink:href="#DejaVuSans-48"/>
      </g>
     </g>
    </g>
    <g id="xtick_5">
     <g id="line2d_9">
      <path clip-path="url(#pe41ef12733)" d="M 903.738828 1005.12 
L 903.738828 7.2 
" style="fill:none;stroke:#b0b0b0;stroke-linecap:square;stroke-width:0.8;"/>
     </g>
     <g id="line2d_10">
      <g>
       <use style="stroke:#000000;stroke-width:0.8;" x="903.738828" xlink:href="#ma76aaec3a2" y="1005.12"/>
      </g>
     </g>
     <g id="text_5">
      <!-- 10000 -->
      <g transform="translate(856.020078 1034.915313)scale(0.3 -0.3)">
       <defs>
        <path d="M 12.40625 8.296875 
L 28.515625 8.296875 
L 28.515625 63.921875 
L 10.984375 60.40625 
L 10.984375 69.390625 
L 28.421875 72.90625 
L 38.28125 72.90625 
L 38.28125 8.296875 
L 54.390625 8.296875 
L 54.390625 0 
L 12.40625 0 
z
" id="DejaVuSans-49"/>
       </defs>
       <use xlink:href="#DejaVuSans-49"/>
       <use x="63.623047" xlink:href="#DejaVuSans-48"/>
       <use x="127.246094" xlink:href="#DejaVuSans-48"/>
       <use x="190.869141" xlink:href="#DejaVuSans-48"/>
       <use x="254.492188" xlink:href="#DejaVuSans-48"/>
      </g>
     </g>
    </g>
    <g id="text_6">
     <!-- Graph size -->
     <g transform="translate(394.955781 1074.788281)scale(0.39 -0.39)">
      <defs>
       <path d="M 59.515625 10.40625 
L 59.515625 29.984375 
L 43.40625 29.984375 
L 43.40625 38.09375 
L 69.28125 38.09375 
L 69.28125 6.78125 
Q 63.578125 2.734375 56.6875 0.65625 
Q 49.8125 -1.421875 42 -1.421875 
Q 24.90625 -1.421875 15.25 8.5625 
Q 5.609375 18.5625 5.609375 36.375 
Q 5.609375 54.25 15.25 64.234375 
Q 24.90625 74.21875 42 74.21875 
Q 49.125 74.21875 55.546875 72.453125 
Q 61.96875 70.703125 67.390625 67.28125 
L 67.390625 56.78125 
Q 61.921875 61.421875 55.765625 63.765625 
Q 49.609375 66.109375 42.828125 66.109375 
Q 29.4375 66.109375 22.71875 58.640625 
Q 16.015625 51.171875 16.015625 36.375 
Q 16.015625 21.625 22.71875 14.15625 
Q 29.4375 6.6875 42.828125 6.6875 
Q 48.046875 6.6875 52.140625 7.59375 
Q 56.25 8.5 59.515625 10.40625 
z
" id="DejaVuSans-71"/>
       <path d="M 41.109375 46.296875 
Q 39.59375 47.171875 37.8125 47.578125 
Q 36.03125 48 33.890625 48 
Q 26.265625 48 22.1875 43.046875 
Q 18.109375 38.09375 18.109375 28.8125 
L 18.109375 0 
L 9.078125 0 
L 9.078125 54.6875 
L 18.109375 54.6875 
L 18.109375 46.1875 
Q 20.953125 51.171875 25.484375 53.578125 
Q 30.03125 56 36.53125 56 
Q 37.453125 56 38.578125 55.875 
Q 39.703125 55.765625 41.0625 55.515625 
z
" id="DejaVuSans-114"/>
       <path d="M 34.28125 27.484375 
Q 23.390625 27.484375 19.1875 25 
Q 14.984375 22.515625 14.984375 16.5 
Q 14.984375 11.71875 18.140625 8.90625 
Q 21.296875 6.109375 26.703125 6.109375 
Q 34.1875 6.109375 38.703125 11.40625 
Q 43.21875 16.703125 43.21875 25.484375 
L 43.21875 27.484375 
z
M 52.203125 31.203125 
L 52.203125 0 
L 43.21875 0 
L 43.21875 8.296875 
Q 40.140625 3.328125 35.546875 0.953125 
Q 30.953125 -1.421875 24.3125 -1.421875 
Q 15.921875 -1.421875 10.953125 3.296875 
Q 6 8.015625 6 15.921875 
Q 6 25.140625 12.171875 29.828125 
Q 18.359375 34.515625 30.609375 34.515625 
L 43.21875 34.515625 
L 43.21875 35.40625 
Q 43.21875 41.609375 39.140625 45 
Q 35.0625 48.390625 27.6875 48.390625 
Q 23 48.390625 18.546875 47.265625 
Q 14.109375 46.140625 10.015625 43.890625 
L 10.015625 52.203125 
Q 14.9375 54.109375 19.578125 55.046875 
Q 24.21875 56 28.609375 56 
Q 40.484375 56 46.34375 49.84375 
Q 52.203125 43.703125 52.203125 31.203125 
z
" id="DejaVuSans-97"/>
       <path d="M 18.109375 8.203125 
L 18.109375 -20.796875 
L 9.078125 -20.796875 
L 9.078125 54.6875 
L 18.109375 54.6875 
L 18.109375 46.390625 
Q 20.953125 51.265625 25.265625 53.625 
Q 29.59375 56 35.59375 56 
Q 45.5625 56 51.78125 48.09375 
Q 58.015625 40.1875 58.015625 27.296875 
Q 58.015625 14.40625 51.78125 6.484375 
Q 45.5625 -1.421875 35.59375 -1.421875 
Q 29.59375 -1.421875 25.265625 0.953125 
Q 20.953125 3.328125 18.109375 8.203125 
z
M 48.6875 27.296875 
Q 48.6875 37.203125 44.609375 42.84375 
Q 40.53125 48.484375 33.40625 48.484375 
Q 26.265625 48.484375 22.1875 42.84375 
Q 18.109375 37.203125 18.109375 27.296875 
Q 18.109375 17.390625 22.1875 11.75 
Q 26.265625 6.109375 33.40625 6.109375 
Q 40.53125 6.109375 44.609375 11.75 
Q 48.6875 17.390625 48.6875 27.296875 
z
" id="DejaVuSans-112"/>
       <path d="M 54.890625 33.015625 
L 54.890625 0 
L 45.90625 0 
L 45.90625 32.71875 
Q 45.90625 40.484375 42.875 44.328125 
Q 39.84375 48.1875 33.796875 48.1875 
Q 26.515625 48.1875 22.3125 43.546875 
Q 18.109375 38.921875 18.109375 30.90625 
L 18.109375 0 
L 9.078125 0 
L 9.078125 75.984375 
L 18.109375 75.984375 
L 18.109375 46.1875 
Q 21.34375 51.125 25.703125 53.5625 
Q 30.078125 56 35.796875 56 
Q 45.21875 56 50.046875 50.171875 
Q 54.890625 44.34375 54.890625 33.015625 
z
" id="DejaVuSans-104"/>
       <path id="DejaVuSans-32"/>
       <path d="M 44.28125 53.078125 
L 44.28125 44.578125 
Q 40.484375 46.53125 36.375 47.5 
Q 32.28125 48.484375 27.875 48.484375 
Q 21.1875 48.484375 17.84375 46.4375 
Q 14.5 44.390625 14.5 40.28125 
Q 14.5 37.15625 16.890625 35.375 
Q 19.28125 33.59375 26.515625 31.984375 
L 29.59375 31.296875 
Q 39.15625 29.25 43.1875 25.515625 
Q 47.21875 21.78125 47.21875 15.09375 
Q 47.21875 7.46875 41.1875 3.015625 
Q 35.15625 -1.421875 24.609375 -1.421875 
Q 20.21875 -1.421875 15.453125 -0.5625 
Q 10.6875 0.296875 5.421875 2 
L 5.421875 11.28125 
Q 10.40625 8.6875 15.234375 7.390625 
Q 20.0625 6.109375 24.8125 6.109375 
Q 31.15625 6.109375 34.5625 8.28125 
Q 37.984375 10.453125 37.984375 14.40625 
Q 37.984375 18.0625 35.515625 20.015625 
Q 33.0625 21.96875 24.703125 23.78125 
L 21.578125 24.515625 
Q 13.234375 26.265625 9.515625 29.90625 
Q 5.8125 33.546875 5.8125 39.890625 
Q 5.8125 47.609375 11.28125 51.796875 
Q 16.75 56 26.8125 56 
Q 31.78125 56 36.171875 55.265625 
Q 40.578125 54.546875 44.28125 53.078125 
z
" id="DejaVuSans-115"/>
       <path d="M 9.421875 54.6875 
L 18.40625 54.6875 
L 18.40625 0 
L 9.421875 0 
z
M 9.421875 75.984375 
L 18.40625 75.984375 
L 18.40625 64.59375 
L 9.421875 64.59375 
z
" id="DejaVuSans-105"/>
       <path d="M 5.515625 54.6875 
L 48.1875 54.6875 
L 48.1875 46.484375 
L 14.40625 7.171875 
L 48.1875 7.171875 
L 48.1875 0 
L 4.296875 0 
L 4.296875 8.203125 
L 38.09375 47.515625 
L 5.515625 47.515625 
z
" id="DejaVuSans-122"/>
       <path d="M 56.203125 29.59375 
L 56.203125 25.203125 
L 14.890625 25.203125 
Q 15.484375 15.921875 20.484375 11.0625 
Q 25.484375 6.203125 34.421875 6.203125 
Q 39.59375 6.203125 44.453125 7.46875 
Q 49.3125 8.734375 54.109375 11.28125 
L 54.109375 2.78125 
Q 49.265625 0.734375 44.1875 -0.34375 
Q 39.109375 -1.421875 33.890625 -1.421875 
Q 20.796875 -1.421875 13.15625 6.1875 
Q 5.515625 13.8125 5.515625 26.8125 
Q 5.515625 40.234375 12.765625 48.109375 
Q 20.015625 56 32.328125 56 
Q 43.359375 56 49.78125 48.890625 
Q 56.203125 41.796875 56.203125 29.59375 
z
M 47.21875 32.234375 
Q 47.125 39.59375 43.09375 43.984375 
Q 39.0625 48.390625 32.421875 48.390625 
Q 24.90625 48.390625 20.390625 44.140625 
Q 15.875 39.890625 15.1875 32.171875 
z
" id="DejaVuSans-101"/>
      </defs>
      <use xlink:href="#DejaVuSans-71"/>
      <use x="77.490234" xlink:href="#DejaVuSans-114"/>
      <use x="118.603516" xlink:href="#DejaVuSans-97"/>
      <use x="179.882812" xlink:href="#DejaVuSans-112"/>
      <use x="243.359375" xlink:href="#DejaVuSans-104"/>
      <use x="306.738281" xlink:href="#DejaVuSans-32"/>
      <use x="338.525391" xlink:href="#DejaVuSans-115"/>
      <use x="390.625" xlink:href="#DejaVuSans-105"/>
      <use x="418.408203" xlink:href="#DejaVuSans-122"/>
      <use x="470.898438" xlink:href="#DejaVuSans-101"/>
     </g>
    </g>
   </g>
   <g id="matplotlib.axis_2">
    <g id="ytick_1">
     <g id="line2d_11">
      <path clip-path="url(#pe41ef12733)" d="M 52.375 897.478968 
L 945.175 897.478968 
" style="fill:none;stroke:#b0b0b0;stroke-linecap:square;stroke-width:0.8;"/>
     </g>
     <g id="line2d_12">
      <defs>
       <path d="M 0 0 
L -3.5 0 
" id="mb3c2a34401" style="stroke:#000000;stroke-width:0.8;"/>
      </defs>
      <g>
       <use style="stroke:#000000;stroke-width:0.8;" x="52.375" xlink:href="#mb3c2a34401" y="897.478968"/>
      </g>
     </g>
     <g id="text_7">
      <!-- 10 -->
      <g transform="translate(7.2 908.876624)scale(0.3 -0.3)">
       <use xlink:href="#DejaVuSans-49"/>
       <use x="63.623047" xlink:href="#DejaVuSans-48"/>
      </g>
     </g>
    </g>
    <g id="ytick_2">
     <g id="line2d_13">
      <path clip-path="url(#pe41ef12733)" d="M 52.375 781.342492 
L 945.175 781.342492 
" style="fill:none;stroke:#b0b0b0;stroke-linecap:square;stroke-width:0.8;"/>
     </g>
     <g id="line2d_14">
      <g>
       <use style="stroke:#000000;stroke-width:0.8;" x="52.375" xlink:href="#mb3c2a34401" y="781.342492"/>
      </g>
     </g>
     <g id="text_8">
      <!-- 12 -->
      <g transform="translate(7.2 792.740148)scale(0.3 -0.3)">
       <use xlink:href="#DejaVuSans-49"/>
       <use x="63.623047" xlink:href="#DejaVuSans-50"/>
      </g>
     </g>
    </g>
    <g id="ytick_3">
     <g id="line2d_15">
      <path clip-path="url(#pe41ef12733)" d="M 52.375 665.206016 
L 945.175 665.206016 
" style="fill:none;stroke:#b0b0b0;stroke-linecap:square;stroke-width:0.8;"/>
     </g>
     <g id="line2d_16">
      <g>
       <use style="stroke:#000000;stroke-width:0.8;" x="52.375" xlink:href="#mb3c2a34401" y="665.206016"/>
      </g>
     </g>
     <g id="text_9">
      <!-- 14 -->
      <g transform="translate(7.2 676.603672)scale(0.3 -0.3)">
       <use xlink:href="#DejaVuSans-49"/>
       <use x="63.623047" xlink:href="#DejaVuSans-52"/>
      </g>
     </g>
    </g>
    <g id="ytick_4">
     <g id="line2d_17">
      <path clip-path="url(#pe41ef12733)" d="M 52.375 549.06954 
L 945.175 549.06954 
" style="fill:none;stroke:#b0b0b0;stroke-linecap:square;stroke-width:0.8;"/>
     </g>
     <g id="line2d_18">
      <g>
       <use style="stroke:#000000;stroke-width:0.8;" x="52.375" xlink:href="#mb3c2a34401" y="549.06954"/>
      </g>
     </g>
     <g id="text_10">
      <!-- 16 -->
      <g transform="translate(7.2 560.467196)scale(0.3 -0.3)">
       <use xlink:href="#DejaVuSans-49"/>
       <use x="63.623047" xlink:href="#DejaVuSans-54"/>
      </g>
     </g>
    </g>
    <g id="ytick_5">
     <g id="line2d_19">
      <path clip-path="url(#pe41ef12733)" d="M 52.375 432.933064 
L 945.175 432.933064 
" style="fill:none;stroke:#b0b0b0;stroke-linecap:square;stroke-width:0.8;"/>
     </g>
     <g id="line2d_20">
      <g>
       <use style="stroke:#000000;stroke-width:0.8;" x="52.375" xlink:href="#mb3c2a34401" y="432.933064"/>
      </g>
     </g>
     <g id="text_11">
      <!-- 18 -->
      <g transform="translate(7.2 444.33072)scale(0.3 -0.3)">
       <use xlink:href="#DejaVuSans-49"/>
       <use x="63.623047" xlink:href="#DejaVuSans-56"/>
      </g>
     </g>
    </g>
    <g id="ytick_6">
     <g id="line2d_21">
      <path clip-path="url(#pe41ef12733)" d="M 52.375 316.796588 
L 945.175 316.796588 
" style="fill:none;stroke:#b0b0b0;stroke-linecap:square;stroke-width:0.8;"/>
     </g>
     <g id="line2d_22">
      <g>
       <use style="stroke:#000000;stroke-width:0.8;" x="52.375" xlink:href="#mb3c2a34401" y="316.796588"/>
      </g>
     </g>
     <g id="text_12">
      <!-- 20 -->
      <g transform="translate(7.2 328.194244)scale(0.3 -0.3)">
       <use xlink:href="#DejaVuSans-50"/>
       <use x="63.623047" xlink:href="#DejaVuSans-48"/>
      </g>
     </g>
    </g>
    <g id="ytick_7">
     <g id="line2d_23">
      <path clip-path="url(#pe41ef12733)" d="M 52.375 200.660112 
L 945.175 200.660112 
" style="fill:none;stroke:#b0b0b0;stroke-linecap:square;stroke-width:0.8;"/>
     </g>
     <g id="line2d_24">
      <g>
       <use style="stroke:#000000;stroke-width:0.8;" x="52.375" xlink:href="#mb3c2a34401" y="200.660112"/>
      </g>
     </g>
     <g id="text_13">
      <!-- 22 -->
      <g transform="translate(7.2 212.057768)scale(0.3 -0.3)">
       <use xlink:href="#DejaVuSans-50"/>
       <use x="63.623047" xlink:href="#DejaVuSans-50"/>
      </g>
     </g>
    </g>
    <g id="ytick_8">
     <g id="line2d_25">
      <path clip-path="url(#pe41ef12733)" d="M 52.375 84.523636 
L 945.175 84.523636 
" style="fill:none;stroke:#b0b0b0;stroke-linecap:square;stroke-width:0.8;"/>
     </g>
     <g id="line2d_26">
      <g>
       <use style="stroke:#000000;stroke-width:0.8;" x="52.375" xlink:href="#mb3c2a34401" y="84.523636"/>
      </g>
     </g>
     <g id="text_14">
      <!-- 24 -->
      <g transform="translate(7.2 95.921292)scale(0.3 -0.3)">
       <use xlink:href="#DejaVuSans-50"/>
       <use x="63.623047" xlink:href="#DejaVuSans-52"/>
      </g>
     </g>
    </g>
   </g>
   <g id="line2d_27">
    <path clip-path="url(#pe41ef12733)" d="M 92.956818 822.229363 
L 135.674522 755.734974 
L 178.392225 713.233448 
L 221.109928 703.285491 
L 263.827632 653.710356 
L 306.545335 629.170912 
L 349.263038 619.103805 
L 391.980742 614.759053 
L 434.698445 608.689269 
L 477.416148 590.969077 
L 520.133852 580.296762 
L 562.851555 568.852355 
L 605.569258 560.587745 
L 648.286962 561.106481 
L 691.004665 550.377042 
L 733.722368 547.342717 
L 776.440072 538.80081 
L 819.157775 523.324236 
L 861.875478 537.536492 
L 904.593182 528.600051 
" style="fill:none;stroke:#fe0002;stroke-linecap:square;stroke-width:1.5;"/>
    <defs>
     <path d="M 0 4.5 
C 1.193414 4.5 2.338109 4.025852 3.181981 3.181981 
C 4.025852 2.338109 4.5 1.193414 4.5 0 
C 4.5 -1.193414 4.025852 -2.338109 3.181981 -3.181981 
C 2.338109 -4.025852 1.193414 -4.5 0 -4.5 
C -1.193414 -4.5 -2.338109 -4.025852 -3.181981 -3.181981 
C -4.025852 -2.338109 -4.5 -1.193414 -4.5 0 
C -4.5 1.193414 -4.025852 2.338109 -3.181981 3.181981 
C -2.338109 4.025852 -1.193414 4.5 0 4.5 
z
" id="md50ceb273f" style="stroke:#000000;"/>
    </defs>
    <g clip-path="url(#pe41ef12733)">
     <use style="fill:#fe0002;stroke:#000000;" x="92.956818" xlink:href="#md50ceb273f" y="822.229363"/>
     <use style="fill:#fe0002;stroke:#000000;" x="135.674522" xlink:href="#md50ceb273f" y="755.734974"/>
     <use style="fill:#fe0002;stroke:#000000;" x="178.392225" xlink:href="#md50ceb273f" y="713.233448"/>
     <use style="fill:#fe0002;stroke:#000000;" x="221.109928" xlink:href="#md50ceb273f" y="703.285491"/>
     <use style="fill:#fe0002;stroke:#000000;" x="263.827632" xlink:href="#md50ceb273f" y="653.710356"/>
     <use style="fill:#fe0002;stroke:#000000;" x="306.545335" xlink:href="#md50ceb273f" y="629.170912"/>
     <use style="fill:#fe0002;stroke:#000000;" x="349.263038" xlink:href="#md50ceb273f" y="619.103805"/>
     <use style="fill:#fe0002;stroke:#000000;" x="391.980742" xlink:href="#md50ceb273f" y="614.759053"/>
     <use style="fill:#fe0002;stroke:#000000;" x="434.698445" xlink:href="#md50ceb273f" y="608.689269"/>
     <use style="fill:#fe0002;stroke:#000000;" x="477.416148" xlink:href="#md50ceb273f" y="590.969077"/>
     <use style="fill:#fe0002;stroke:#000000;" x="520.133852" xlink:href="#md50ceb273f" y="580.296762"/>
     <use style="fill:#fe0002;stroke:#000000;" x="562.851555" xlink:href="#md50ceb273f" y="568.852355"/>
     <use style="fill:#fe0002;stroke:#000000;" x="605.569258" xlink:href="#md50ceb273f" y="560.587745"/>
     <use style="fill:#fe0002;stroke:#000000;" x="648.286962" xlink:href="#md50ceb273f" y="561.106481"/>
     <use style="fill:#fe0002;stroke:#000000;" x="691.004665" xlink:href="#md50ceb273f" y="550.377042"/>
     <use style="fill:#fe0002;stroke:#000000;" x="733.722368" xlink:href="#md50ceb273f" y="547.342717"/>
     <use style="fill:#fe0002;stroke:#000000;" x="776.440072" xlink:href="#md50ceb273f" y="538.80081"/>
     <use style="fill:#fe0002;stroke:#000000;" x="819.157775" xlink:href="#md50ceb273f" y="523.324236"/>
     <use style="fill:#fe0002;stroke:#000000;" x="861.875478" xlink:href="#md50ceb273f" y="537.536492"/>
     <use style="fill:#fe0002;stroke:#000000;" x="904.593182" xlink:href="#md50ceb273f" y="528.600051"/>
    </g>
   </g>
   <g id="line2d_28">
    <path clip-path="url(#pe41ef12733)" d="M 92.956818 822.229363 
L 135.674522 755.734974 
L 178.392225 713.233448 
L 221.109928 703.285491 
L 263.827632 653.710356 
L 306.545335 629.170912 
L 349.263038 619.103805 
L 391.980742 614.759053 
L 434.698445 608.689269 
L 477.416148 590.969077 
L 520.133852 580.296762 
L 562.851555 568.852355 
L 605.569258 560.587745 
L 648.286962 561.106481 
L 691.004665 550.377042 
L 733.722368 547.342717 
L 776.440072 538.80081 
L 819.157775 523.324236 
L 861.875478 537.536492 
L 904.593182 528.600051 
" style="fill:none;stroke:#fe0002;stroke-dasharray:5.55,2.4;stroke-dashoffset:0;stroke-width:1.5;"/>
    <g clip-path="url(#pe41ef12733)">
     <use style="fill:#fe0002;stroke:#000000;" x="92.956818" xlink:href="#md50ceb273f" y="822.229363"/>
     <use style="fill:#fe0002;stroke:#000000;" x="135.674522" xlink:href="#md50ceb273f" y="755.734974"/>
     <use style="fill:#fe0002;stroke:#000000;" x="178.392225" xlink:href="#md50ceb273f" y="713.233448"/>
     <use style="fill:#fe0002;stroke:#000000;" x="221.109928" xlink:href="#md50ceb273f" y="703.285491"/>
     <use style="fill:#fe0002;stroke:#000000;" x="263.827632" xlink:href="#md50ceb273f" y="653.710356"/>
     <use style="fill:#fe0002;stroke:#000000;" x="306.545335" xlink:href="#md50ceb273f" y="629.170912"/>
     <use style="fill:#fe0002;stroke:#000000;" x="349.263038" xlink:href="#md50ceb273f" y="619.103805"/>
     <use style="fill:#fe0002;stroke:#000000;" x="391.980742" xlink:href="#md50ceb273f" y="614.759053"/>
     <use style="fill:#fe0002;stroke:#000000;" x="434.698445" xlink:href="#md50ceb273f" y="608.689269"/>
     <use style="fill:#fe0002;stroke:#000000;" x="477.416148" xlink:href="#md50ceb273f" y="590.969077"/>
     <use style="fill:#fe0002;stroke:#000000;" x="520.133852" xlink:href="#md50ceb273f" y="580.296762"/>
     <use style="fill:#fe0002;stroke:#000000;" x="562.851555" xlink:href="#md50ceb273f" y="568.852355"/>
     <use style="fill:#fe0002;stroke:#000000;" x="605.569258" xlink:href="#md50ceb273f" y="560.587745"/>
     <use style="fill:#fe0002;stroke:#000000;" x="648.286962" xlink:href="#md50ceb273f" y="561.106481"/>
     <use style="fill:#fe0002;stroke:#000000;" x="691.004665" xlink:href="#md50ceb273f" y="550.377042"/>
     <use style="fill:#fe0002;stroke:#000000;" x="733.722368" xlink:href="#md50ceb273f" y="547.342717"/>
     <use style="fill:#fe0002;stroke:#000000;" x="776.440072" xlink:href="#md50ceb273f" y="538.80081"/>
     <use style="fill:#fe0002;stroke:#000000;" x="819.157775" xlink:href="#md50ceb273f" y="523.324236"/>
     <use style="fill:#fe0002;stroke:#000000;" x="861.875478" xlink:href="#md50ceb273f" y="537.536492"/>
     <use style="fill:#fe0002;stroke:#000000;" x="904.593182" xlink:href="#md50ceb273f" y="528.600051"/>
    </g>
   </g>
   <g id="line2d_29">
    <path clip-path="url(#pe41ef12733)" d="M 92.956818 667.82478 
L 135.674522 553.818487 
L 178.392225 494.631528 
L 221.109928 429.619419 
L 263.827632 416.708659 
L 306.545335 389.931701 
L 349.263038 365.484572 
L 391.980742 331.93922 
L 434.698445 309.170464 
L 477.416148 297.561049 
L 520.133852 282.694408 
L 562.851555 275.172966 
L 605.569258 260.643442 
L 648.286962 243.272755 
L 691.004665 234.918826 
L 733.722368 223.920029 
L 776.440072 217.837665 
L 819.157775 216.199971 
L 861.875478 188.887708 
L 904.593182 184.208991 
" style="fill:none;stroke:#53fca1;stroke-linecap:square;stroke-width:1.5;"/>
    <defs>
     <path d="M 0 -4.5 
L -4.5 4.5 
L 4.5 4.5 
z
" id="m6bf9a3af5b" style="stroke:#000000;stroke-linejoin:miter;"/>
    </defs>
    <g clip-path="url(#pe41ef12733)">
     <use style="fill:#53fca1;stroke:#000000;stroke-linejoin:miter;" x="92.956818" xlink:href="#m6bf9a3af5b" y="667.82478"/>
     <use style="fill:#53fca1;stroke:#000000;stroke-linejoin:miter;" x="135.674522" xlink:href="#m6bf9a3af5b" y="553.818487"/>
     <use style="fill:#53fca1;stroke:#000000;stroke-linejoin:miter;" x="178.392225" xlink:href="#m6bf9a3af5b" y="494.631528"/>
     <use style="fill:#53fca1;stroke:#000000;stroke-linejoin:miter;" x="221.109928" xlink:href="#m6bf9a3af5b" y="429.619419"/>
     <use style="fill:#53fca1;stroke:#000000;stroke-linejoin:miter;" x="263.827632" xlink:href="#m6bf9a3af5b" y="416.708659"/>
     <use style="fill:#53fca1;stroke:#000000;stroke-linejoin:miter;" x="306.545335" xlink:href="#m6bf9a3af5b" y="389.931701"/>
     <use style="fill:#53fca1;stroke:#000000;stroke-linejoin:miter;" x="349.263038" xlink:href="#m6bf9a3af5b" y="365.484572"/>
     <use style="fill:#53fca1;stroke:#000000;stroke-linejoin:miter;" x="391.980742" xlink:href="#m6bf9a3af5b" y="331.93922"/>
     <use style="fill:#53fca1;stroke:#000000;stroke-linejoin:miter;" x="434.698445" xlink:href="#m6bf9a3af5b" y="309.170464"/>
     <use style="fill:#53fca1;stroke:#000000;stroke-linejoin:miter;" x="477.416148" xlink:href="#m6bf9a3af5b" y="297.561049"/>
     <use style="fill:#53fca1;stroke:#000000;stroke-linejoin:miter;" x="520.133852" xlink:href="#m6bf9a3af5b" y="282.694408"/>
     <use style="fill:#53fca1;stroke:#000000;stroke-linejoin:miter;" x="562.851555" xlink:href="#m6bf9a3af5b" y="275.172966"/>
     <use style="fill:#53fca1;stroke:#000000;stroke-linejoin:miter;" x="605.569258" xlink:href="#m6bf9a3af5b" y="260.643442"/>
     <use style="fill:#53fca1;stroke:#000000;stroke-linejoin:miter;" x="648.286962" xlink:href="#m6bf9a3af5b" y="243.272755"/>
     <use style="fill:#53fca1;stroke:#000000;stroke-linejoin:miter;" x="691.004665" xlink:href="#m6bf9a3af5b" y="234.918826"/>
     <use style="fill:#53fca1;stroke:#000000;stroke-linejoin:miter;" x="733.722368" xlink:href="#m6bf9a3af5b" y="223.920029"/>
     <use style="fill:#53fca1;stroke:#000000;stroke-linejoin:miter;" x="776.440072" xlink:href="#m6bf9a3af5b" y="217.837665"/>
     <use style="fill:#53fca1;stroke:#000000;stroke-linejoin:miter;" x="819.157775" xlink:href="#m6bf9a3af5b" y="216.199971"/>
     <use style="fill:#53fca1;stroke:#000000;stroke-linejoin:miter;" x="861.875478" xlink:href="#m6bf9a3af5b" y="188.887708"/>
     <use style="fill:#53fca1;stroke:#000000;stroke-linejoin:miter;" x="904.593182" xlink:href="#m6bf9a3af5b" y="184.208991"/>
    </g>
   </g>
   <g id="line2d_30">
    <path clip-path="url(#pe41ef12733)" d="M 92.956818 954.476929 
L 135.674522 895.472452 
L 178.392225 861.149786 
L 221.109928 837.885356 
L 263.827632 817.941676 
L 306.545335 801.683738 
L 349.263038 790.726055 
L 391.980742 779.567139 
L 434.698445 769.695368 
L 477.416148 761.22376 
L 520.133852 753.613064 
L 562.851555 746.54696 
L 605.569258 740.009681 
L 648.286962 734.263316 
L 691.004665 728.001674 
L 733.722368 723.285853 
L 776.440072 718.961101 
L 819.157775 713.737787 
L 861.875478 709.177899 
L 904.593182 705.434949 
" style="fill:none;stroke:#53fca1;stroke-dasharray:5.55,2.4;stroke-dashoffset:0;stroke-width:1.5;"/>
    <defs>
     <path d="M -0 6.363961 
L 6.363961 0 
L 0 -6.363961 
L -6.363961 -0 
z
" id="m9881c61974" style="stroke:#000000;stroke-linejoin:miter;"/>
    </defs>
    <g clip-path="url(#pe41ef12733)">
     <use style="fill:#53fca1;stroke:#000000;stroke-linejoin:miter;" x="92.956818" xlink:href="#m9881c61974" y="954.476929"/>
     <use style="fill:#53fca1;stroke:#000000;stroke-linejoin:miter;" x="135.674522" xlink:href="#m9881c61974" y="895.472452"/>
     <use style="fill:#53fca1;stroke:#000000;stroke-linejoin:miter;" x="178.392225" xlink:href="#m9881c61974" y="861.149786"/>
     <use style="fill:#53fca1;stroke:#000000;stroke-linejoin:miter;" x="221.109928" xlink:href="#m9881c61974" y="837.885356"/>
     <use style="fill:#53fca1;stroke:#000000;stroke-linejoin:miter;" x="263.827632" xlink:href="#m9881c61974" y="817.941676"/>
     <use style="fill:#53fca1;stroke:#000000;stroke-linejoin:miter;" x="306.545335" xlink:href="#m9881c61974" y="801.683738"/>
     <use style="fill:#53fca1;stroke:#000000;stroke-linejoin:miter;" x="349.263038" xlink:href="#m9881c61974" y="790.726055"/>
     <use style="fill:#53fca1;stroke:#000000;stroke-linejoin:miter;" x="391.980742" xlink:href="#m9881c61974" y="779.567139"/>
     <use style="fill:#53fca1;stroke:#000000;stroke-linejoin:miter;" x="434.698445" xlink:href="#m9881c61974" y="769.695368"/>
     <use style="fill:#53fca1;stroke:#000000;stroke-linejoin:miter;" x="477.416148" xlink:href="#m9881c61974" y="761.22376"/>
     <use style="fill:#53fca1;stroke:#000000;stroke-linejoin:miter;" x="520.133852" xlink:href="#m9881c61974" y="753.613064"/>
     <use style="fill:#53fca1;stroke:#000000;stroke-linejoin:miter;" x="562.851555" xlink:href="#m9881c61974" y="746.54696"/>
     <use style="fill:#53fca1;stroke:#000000;stroke-linejoin:miter;" x="605.569258" xlink:href="#m9881c61974" y="740.009681"/>
     <use style="fill:#53fca1;stroke:#000000;stroke-linejoin:miter;" x="648.286962" xlink:href="#m9881c61974" y="734.263316"/>
     <use style="fill:#53fca1;stroke:#000000;stroke-linejoin:miter;" x="691.004665" xlink:href="#m9881c61974" y="728.001674"/>
     <use style="fill:#53fca1;stroke:#000000;stroke-linejoin:miter;" x="733.722368" xlink:href="#m9881c61974" y="723.285853"/>
     <use style="fill:#53fca1;stroke:#000000;stroke-linejoin:miter;" x="776.440072" xlink:href="#m9881c61974" y="718.961101"/>
     <use style="fill:#53fca1;stroke:#000000;stroke-linejoin:miter;" x="819.157775" xlink:href="#m9881c61974" y="713.737787"/>
     <use style="fill:#53fca1;stroke:#000000;stroke-linejoin:miter;" x="861.875478" xlink:href="#m9881c61974" y="709.177899"/>
     <use style="fill:#53fca1;stroke:#000000;stroke-linejoin:miter;" x="904.593182" xlink:href="#m9881c61974" y="705.434949"/>
    </g>
   </g>
   <g id="line2d_31">
    <path clip-path="url(#pe41ef12733)" d="M 92.956818 640.817356 
L 135.674522 515.096746 
L 178.392225 443.86989 
L 221.109928 371.117835 
L 263.827632 357.4351 
L 306.545335 323.209173 
L 349.263038 291.878531 
L 391.980742 253.302372 
L 434.698445 228.164628 
L 477.416148 212.424435 
L 520.133852 195.960905 
L 562.851555 183.730467 
L 605.569258 165.95921 
L 648.286962 146.563045 
L 691.004665 134.978053 
L 733.722368 122.204195 
L 776.440072 111.564602 
L 819.157775 108.61841 
L 861.875478 80.019226 
L 904.593182 72.717394 
" style="fill:none;stroke:#0652ff;stroke-linecap:square;stroke-width:1.5;"/>
    <defs>
     <path d="M 0 -4.5 
L -4.279754 -1.390576 
L -2.645034 3.640576 
L 2.645034 3.640576 
L 4.279754 -1.390576 
z
" id="m0fd9cc1a72" style="stroke:#000000;stroke-linejoin:miter;"/>
    </defs>
    <g clip-path="url(#pe41ef12733)">
     <use style="fill:#0652ff;stroke:#000000;stroke-linejoin:miter;" x="92.956818" xlink:href="#m0fd9cc1a72" y="640.817356"/>
     <use style="fill:#0652ff;stroke:#000000;stroke-linejoin:miter;" x="135.674522" xlink:href="#m0fd9cc1a72" y="515.096746"/>
     <use style="fill:#0652ff;stroke:#000000;stroke-linejoin:miter;" x="178.392225" xlink:href="#m0fd9cc1a72" y="443.86989"/>
     <use style="fill:#0652ff;stroke:#000000;stroke-linejoin:miter;" x="221.109928" xlink:href="#m0fd9cc1a72" y="371.117835"/>
     <use style="fill:#0652ff;stroke:#000000;stroke-linejoin:miter;" x="263.827632" xlink:href="#m0fd9cc1a72" y="357.4351"/>
     <use style="fill:#0652ff;stroke:#000000;stroke-linejoin:miter;" x="306.545335" xlink:href="#m0fd9cc1a72" y="323.209173"/>
     <use style="fill:#0652ff;stroke:#000000;stroke-linejoin:miter;" x="349.263038" xlink:href="#m0fd9cc1a72" y="291.878531"/>
     <use style="fill:#0652ff;stroke:#000000;stroke-linejoin:miter;" x="391.980742" xlink:href="#m0fd9cc1a72" y="253.302372"/>
     <use style="fill:#0652ff;stroke:#000000;stroke-linejoin:miter;" x="434.698445" xlink:href="#m0fd9cc1a72" y="228.164628"/>
     <use style="fill:#0652ff;stroke:#000000;stroke-linejoin:miter;" x="477.416148" xlink:href="#m0fd9cc1a72" y="212.424435"/>
     <use style="fill:#0652ff;stroke:#000000;stroke-linejoin:miter;" x="520.133852" xlink:href="#m0fd9cc1a72" y="195.960905"/>
     <use style="fill:#0652ff;stroke:#000000;stroke-linejoin:miter;" x="562.851555" xlink:href="#m0fd9cc1a72" y="183.730467"/>
     <use style="fill:#0652ff;stroke:#000000;stroke-linejoin:miter;" x="605.569258" xlink:href="#m0fd9cc1a72" y="165.95921"/>
     <use style="fill:#0652ff;stroke:#000000;stroke-linejoin:miter;" x="648.286962" xlink:href="#m0fd9cc1a72" y="146.563045"/>
     <use style="fill:#0652ff;stroke:#000000;stroke-linejoin:miter;" x="691.004665" xlink:href="#m0fd9cc1a72" y="134.978053"/>
     <use style="fill:#0652ff;stroke:#000000;stroke-linejoin:miter;" x="733.722368" xlink:href="#m0fd9cc1a72" y="122.204195"/>
     <use style="fill:#0652ff;stroke:#000000;stroke-linejoin:miter;" x="776.440072" xlink:href="#m0fd9cc1a72" y="111.564602"/>
     <use style="fill:#0652ff;stroke:#000000;stroke-linejoin:miter;" x="819.157775" xlink:href="#m0fd9cc1a72" y="108.61841"/>
     <use style="fill:#0652ff;stroke:#000000;stroke-linejoin:miter;" x="861.875478" xlink:href="#m0fd9cc1a72" y="80.019226"/>
     <use style="fill:#0652ff;stroke:#000000;stroke-linejoin:miter;" x="904.593182" xlink:href="#m0fd9cc1a72" y="72.717394"/>
    </g>
   </g>
   <g id="line2d_32">
    <path clip-path="url(#pe41ef12733)" d="M 92.956818 910.561401 
L 135.674522 836.898273 
L 178.392225 791.687099 
L 221.109928 760.489928 
L 263.827632 738.10826 
L 306.545335 714.969146 
L 349.263038 698.926953 
L 391.980742 683.199929 
L 434.698445 670.769494 
L 477.416148 658.608722 
L 520.133852 648.763536 
L 562.851555 638.088825 
L 605.569258 629.308071 
L 648.286962 621.153678 
L 691.004665 613.013418 
L 733.722368 606.49185 
L 776.440072 598.851283 
L 819.157775 592.44993 
L 861.875478 585.968211 
L 904.593182 580.484979 
" style="fill:none;stroke:#0652ff;stroke-dasharray:5.55,2.4;stroke-dashoffset:0;stroke-width:1.5;"/>
    <defs>
     <path d="M -2.25 4.5 
L 0 2.25 
L 2.25 4.5 
L 4.5 2.25 
L 2.25 0 
L 4.5 -2.25 
L 2.25 -4.5 
L 0 -2.25 
L -2.25 -4.5 
L -4.5 -2.25 
L -2.25 0 
L -4.5 2.25 
z
" id="mebd8458edc" style="stroke:#000000;stroke-linejoin:miter;"/>
    </defs>
    <g clip-path="url(#pe41ef12733)">
     <use style="fill:#0652ff;stroke:#000000;stroke-linejoin:miter;" x="92.956818" xlink:href="#mebd8458edc" y="910.561401"/>
     <use style="fill:#0652ff;stroke:#000000;stroke-linejoin:miter;" x="135.674522" xlink:href="#mebd8458edc" y="836.898273"/>
     <use style="fill:#0652ff;stroke:#000000;stroke-linejoin:miter;" x="178.392225" xlink:href="#mebd8458edc" y="791.687099"/>
     <use style="fill:#0652ff;stroke:#000000;stroke-linejoin:miter;" x="221.109928" xlink:href="#mebd8458edc" y="760.489928"/>
     <use style="fill:#0652ff;stroke:#000000;stroke-linejoin:miter;" x="263.827632" xlink:href="#mebd8458edc" y="738.10826"/>
     <use style="fill:#0652ff;stroke:#000000;stroke-linejoin:miter;" x="306.545335" xlink:href="#mebd8458edc" y="714.969146"/>
     <use style="fill:#0652ff;stroke:#000000;stroke-linejoin:miter;" x="349.263038" xlink:href="#mebd8458edc" y="698.926953"/>
     <use style="fill:#0652ff;stroke:#000000;stroke-linejoin:miter;" x="391.980742" xlink:href="#mebd8458edc" y="683.199929"/>
     <use style="fill:#0652ff;stroke:#000000;stroke-linejoin:miter;" x="434.698445" xlink:href="#mebd8458edc" y="670.769494"/>
     <use style="fill:#0652ff;stroke:#000000;stroke-linejoin:miter;" x="477.416148" xlink:href="#mebd8458edc" y="658.608722"/>
     <use style="fill:#0652ff;stroke:#000000;stroke-linejoin:miter;" x="520.133852" xlink:href="#mebd8458edc" y="648.763536"/>
     <use style="fill:#0652ff;stroke:#000000;stroke-linejoin:miter;" x="562.851555" xlink:href="#mebd8458edc" y="638.088825"/>
     <use style="fill:#0652ff;stroke:#000000;stroke-linejoin:miter;" x="605.569258" xlink:href="#mebd8458edc" y="629.308071"/>
     <use style="fill:#0652ff;stroke:#000000;stroke-linejoin:miter;" x="648.286962" xlink:href="#mebd8458edc" y="621.153678"/>
     <use style="fill:#0652ff;stroke:#000000;stroke-linejoin:miter;" x="691.004665" xlink:href="#mebd8458edc" y="613.013418"/>
     <use style="fill:#0652ff;stroke:#000000;stroke-linejoin:miter;" x="733.722368" xlink:href="#mebd8458edc" y="606.49185"/>
     <use style="fill:#0652ff;stroke:#000000;stroke-linejoin:miter;" x="776.440072" xlink:href="#mebd8458edc" y="598.851283"/>
     <use style="fill:#0652ff;stroke:#000000;stroke-linejoin:miter;" x="819.157775" xlink:href="#mebd8458edc" y="592.44993"/>
     <use style="fill:#0652ff;stroke:#000000;stroke-linejoin:miter;" x="861.875478" xlink:href="#mebd8458edc" y="585.968211"/>
     <use style="fill:#0652ff;stroke:#000000;stroke-linejoin:miter;" x="904.593182" xlink:href="#mebd8458edc" y="580.484979"/>
    </g>
   </g>
   <g id="patch_3">
    <path d="M 52.375 1005.12 
L 52.375 7.2 
" style="fill:none;stroke:#000000;stroke-linecap:square;stroke-linejoin:miter;stroke-width:0.8;"/>
   </g>
   <g id="patch_4">
    <path d="M 945.175 1005.12 
L 945.175 7.2 
" style="fill:none;stroke:#000000;stroke-linecap:square;stroke-linejoin:miter;stroke-width:0.8;"/>
   </g>
   <g id="patch_5">
    <path d="M 52.375 1005.12 
L 945.175 1005.12 
" style="fill:none;stroke:#000000;stroke-linecap:square;stroke-linejoin:miter;stroke-width:0.8;"/>
   </g>
   <g id="patch_6">
    <path d="M 52.375 7.2 
L 945.175 7.2 
" style="fill:none;stroke:#000000;stroke-linecap:square;stroke-linejoin:miter;stroke-width:0.8;"/>
   </g>
  </g>
 </g>
 <defs>
  <clipPath id="pe41ef12733">
   <rect height="997.92" width="892.8" x="52.375" y="7.2"/>
  </clipPath>
 </defs>
</svg>
