<?xml version="1.0" encoding="utf-8" standalone="no"?>
<!DOCTYPE svg PUBLIC "-//W3C//DTD SVG 1.1//EN"
  "http://www.w3.org/Graphics/SVG/1.1/DTD/svg11.dtd">
<svg height="1090.099063pt" version="1.1" viewBox="0 0 994.119687 1090.099063" width="994.119687pt" xmlns="http://www.w3.org/2000/svg" xmlns:xlink="http://www.w3.org/1999/xlink">
 <metadata>
  <rdf:RDF xmlns:cc="http://creativecommons.org/ns#" xmlns:dc="http://purl.org/dc/elements/1.1/" xmlns:rdf="http://www.w3.org/1999/02/22-rdf-syntax-ns#">
   <cc:Work>
    <dc:type rdf:resource="http://purl.org/dc/dcmitype/StillImage"/>
    <dc:date>2021-06-12T20:32:40.907522</dc:date>
    <dc:format>image/svg+xml</dc:format>
    <dc:creator>
     <cc:Agent>
      <dc:title>Matplotlib v3.4.2, https://matplotlib.org/</dc:title>
     </cc:Agent>
    </dc:creator>
   </cc:Work>
  </rdf:RDF>
 </metadata>
 <defs>
  <style type="text/css">*{stroke-linecap:butt;stroke-linejoin:round;}</style>
 </defs>
 <g id="figure_1">
  <g id="patch_1">
   <path d="M 0 1090.099063 
L 994.119687 1090.099063 
L 994.119687 0 
L 0 0 
z
" style="fill:#ffffff;"/>
  </g>
  <g id="axes_1">
   <g id="patch_2">
    <path d="M 94.119688 1005.12 
L 986.919688 1005.12 
L 986.919688 7.2 
L 94.119688 7.2 
z
" style="fill:#ffffff;"/>
   </g>
   <g id="PolyCollection_1">
    <defs>
     <path d="M 134.701506 -289.364778 
L 134.701506 -268.242073 
L 177.419209 -329.726635 
L 220.136912 -358.652632 
L 262.854616 -392.825671 
L 305.572319 -413.813836 
L 348.290022 -414.486534 
L 391.007726 -423.231603 
L 433.725429 -435.474699 
L 476.443132 -449.063191 
L 519.160836 -469.782278 
L 561.878539 -461.575367 
L 604.596243 -480.007281 
L 647.313946 -480.679979 
L 690.031649 -482.698072 
L 732.749353 -480.141821 
L 775.467056 -492.788536 
L 818.184759 -506.915186 
L 860.902463 -497.766498 
L 903.620166 -507.453344 
L 946.337869 -503.01354 
L 946.337869 -543.644476 
L 946.337869 -543.644476 
L 903.620166 -533.554011 
L 860.902463 -545.931647 
L 818.184759 -539.877369 
L 775.467056 -533.015853 
L 732.749353 -529.786905 
L 690.031649 -522.65631 
L 647.313946 -530.190523 
L 604.596243 -507.991502 
L 561.878539 -505.70433 
L 519.160836 -496.286564 
L 476.443132 -488.483271 
L 433.725429 -473.280305 
L 391.007726 -473.953003 
L 348.290022 -443.008913 
L 305.572319 -438.838188 
L 262.854616 -410.181269 
L 220.136912 -390.403959 
L 177.419209 -352.598354 
L 134.701506 -289.364778 
z
" id="m2ee60d2f64" style="stroke:#fe0002;stroke-opacity:0.3;"/>
    </defs>
    <g clip-path="url(#p1177238bbe)">
     <use style="fill:#fe0002;fill-opacity:0.3;stroke:#fe0002;stroke-opacity:0.3;" x="0" xlink:href="#m2ee60d2f64" y="1090.099063"/>
    </g>
   </g>
   <g id="PolyCollection_2">
    <g clip-path="url(#p1177238bbe)">
     <use style="fill:#fe0002;fill-opacity:0.3;stroke:#fe0002;stroke-opacity:0.3;" x="0" xlink:href="#m2ee60d2f64" y="1090.099063"/>
    </g>
   </g>
   <g id="PolyCollection_3">
    <defs>
     <path d="M 134.701506 -598.132982 
L 134.701506 -566.785273 
L 177.419209 -651.545173 
L 220.136912 -706.706377 
L 262.854616 -743.704745 
L 305.572319 -761.194883 
L 348.290022 -777.608705 
L 391.007726 -794.829764 
L 433.725429 -823.083064 
L 476.443132 -831.693593 
L 519.160836 -845.416624 
L 561.878539 -858.870577 
L 604.596243 -860.350511 
L 647.313946 -852.547219 
L 690.031649 -887.662034 
L 732.749353 -883.894928 
L 775.467056 -898.021578 
L 818.184759 -905.69033 
L 860.902463 -908.6502 
L 903.620166 -908.6502 
L 946.337869 -914.973558 
L 946.337869 -960.044298 
L 946.337869 -960.044298 
L 903.620166 -954.528177 
L 860.902463 -954.797256 
L 818.184759 -949.146596 
L 775.467056 -943.899555 
L 732.749353 -925.46764 
L 690.031649 -938.787053 
L 647.313946 -913.897241 
L 604.596243 -903.268619 
L 561.878539 -889.949206 
L 519.160836 -874.342622 
L 476.443132 -863.713999 
L 433.725429 -855.372549 
L 391.007726 -844.878466 
L 348.290022 -813.799837 
L 305.572319 -793.618908 
L 262.854616 -778.415942 
L 220.136912 -740.072178 
L 177.419209 -694.59782 
L 134.701506 -598.132982 
z
" id="m1f9870486c" style="stroke:#53fca1;stroke-opacity:0.3;"/>
    </defs>
    <g clip-path="url(#p1177238bbe)">
     <use style="fill:#53fca1;fill-opacity:0.3;stroke:#53fca1;stroke-opacity:0.3;" x="0" xlink:href="#m1f9870486c" y="1090.099063"/>
    </g>
   </g>
   <g id="PolyCollection_4">
    <defs>
     <path d="M 134.701506 -163.839404 
L 134.701506 -146.752884 
L 177.419209 -190.34369 
L 220.136912 -218.058831 
L 262.854616 -235.683509 
L 305.572319 -251.155554 
L 348.290022 -258.555227 
L 391.007726 -266.627599 
L 433.725429 -280.619709 
L 476.443132 -286.00129 
L 519.160836 -293.266424 
L 561.878539 -296.898991 
L 604.596243 -299.9934 
L 647.313946 -299.724321 
L 690.031649 -315.465445 
L 732.749353 -312.371036 
L 775.467056 -319.77071 
L 818.184759 -326.363147 
L 860.902463 -327.304923 
L 903.620166 -325.286831 
L 946.337869 -327.708542 
L 946.337869 -357.172697 
L 946.337869 -357.172697 
L 903.620166 -351.791116 
L 860.902463 -348.158549 
L 818.184759 -348.965787 
L 775.467056 -345.871377 
L 732.749353 -336.991769 
L 690.031649 -342.104271 
L 647.313946 -326.901305 
L 604.596243 -322.192422 
L 561.878539 -317.214459 
L 519.160836 -306.316758 
L 476.443132 -299.589782 
L 433.725429 -296.360833 
L 391.007726 -288.288462 
L 348.290022 -279.408853 
L 305.572319 -262.053255 
L 262.854616 -256.402595 
L 220.136912 -238.374299 
L 177.419209 -211.062776 
L 134.701506 -163.839404 
z
" id="mb3f1f1febf" style="stroke:#53fca1;stroke-opacity:0.3;"/>
    </defs>
    <g clip-path="url(#p1177238bbe)">
     <use style="fill:#53fca1;fill-opacity:0.3;stroke:#53fca1;stroke-opacity:0.3;" x="0" xlink:href="#mb3f1f1febf" y="1090.099063"/>
    </g>
   </g>
   <g id="PolyCollection_5">
    <defs>
     <path d="M 134.701506 -627.597138 
L 134.701506 -595.98035 
L 177.419209 -686.525448 
L 220.136912 -738.323165 
L 262.854616 -788.640946 
L 305.572319 -798.86595 
L 348.290022 -818.105101 
L 391.007726 -842.322215 
L 433.725429 -857.256102 
L 476.443132 -869.633738 
L 519.160836 -887.931114 
L 561.878539 -911.47553 
L 604.596243 -914.031781 
L 647.313946 -920.355138 
L 690.031649 -933.001854 
L 732.749353 -929.638365 
L 775.467056 -958.295284 
L 818.184759 -969.058446 
L 860.902463 -955.469954 
L 903.620166 -975.516343 
L 946.337869 -973.632789 
L 946.337869 -1026.641361 
L 946.337869 -1026.641361 
L 903.620166 -1025.161426 
L 860.902463 -1037.539063 
L 818.184759 -1012.91833 
L 775.467056 -1001.213391 
L 732.749353 -993.14102 
L 690.031649 -985.203188 
L 647.313946 -971.480157 
L 604.596243 -947.801201 
L 561.878539 -949.819294 
L 519.160836 -928.965668 
L 476.443132 -911.744609 
L 433.725429 -904.479475 
L 391.007726 -893.716313 
L 348.290022 -867.615646 
L 305.572319 -826.715631 
L 262.854616 -819.585036 
L 220.136912 -767.78732 
L 177.419209 -712.357037 
L 134.701506 -627.597138 
z
" id="ma0bbbbeee3" style="stroke:#0652ff;stroke-opacity:0.3;"/>
    </defs>
    <g clip-path="url(#p1177238bbe)">
     <use style="fill:#0652ff;fill-opacity:0.3;stroke:#0652ff;stroke-opacity:0.3;" x="0" xlink:href="#ma0bbbbeee3" y="1090.099063"/>
    </g>
   </g>
   <g id="PolyCollection_6">
    <defs>
     <path d="M 134.701506 -217.117054 
L 134.701506 -195.994349 
L 177.419209 -243.352261 
L 220.136912 -269.452929 
L 262.854616 -297.033531 
L 305.572319 -300.800637 
L 348.290022 -308.60393 
L 391.007726 -322.999659 
L 433.725429 -331.475649 
L 476.443132 -335.915453 
L 519.160836 -342.507889 
L 561.878539 -353.809209 
L 604.596243 -357.307237 
L 647.313946 -362.554278 
L 690.031649 -369.146715 
L 732.749353 -364.437832 
L 775.467056 -380.986193 
L 818.184759 -387.44409 
L 860.902463 -380.044416 
L 903.620166 -388.116788 
L 946.337869 -382.869746 
L 946.337869 -419.329957 
L 946.337869 -419.329957 
L 903.620166 -414.486534 
L 860.902463 -428.747723 
L 818.184759 -413.141139 
L 775.467056 -402.647056 
L 732.749353 -397.130936 
L 690.031649 -397.265475 
L 647.313946 -389.327643 
L 604.596243 -378.295402 
L 561.878539 -377.622705 
L 519.160836 -366.859543 
L 476.443132 -358.518093 
L 433.725429 -352.598354 
L 391.007726 -346.678615 
L 348.290022 -338.471704 
L 305.572319 -316.676301 
L 262.854616 -313.312813 
L 220.136912 -288.288462 
L 177.419209 -259.093386 
L 134.701506 -217.117054 
z
" id="m98e94e8ff5" style="stroke:#0652ff;stroke-opacity:0.3;"/>
    </defs>
    <g clip-path="url(#p1177238bbe)">
     <use style="fill:#0652ff;fill-opacity:0.3;stroke:#0652ff;stroke-opacity:0.3;" x="0" xlink:href="#m98e94e8ff5" y="1090.099063"/>
    </g>
   </g>
   <g id="PolyCollection_7">
    <defs>
     <path d="M 134.701506 -146.483805 
L 134.701506 -130.339063 
L 177.419209 -170.028222 
L 220.136912 -192.361782 
L 262.854616 -211.533664 
L 305.572319 -212.946329 
L 348.290022 -222.767714 
L 391.007726 -234.338113 
L 433.725429 -245.235815 
L 476.443132 -243.486801 
L 519.160836 -242.746834 
L 561.878539 -247.657526 
L 604.596243 -249.877428 
L 647.313946 -239.719694 
L 690.031649 -256.200786 
L 732.749353 -252.971837 
L 775.467056 -263.39865 
L 818.184759 -259.160655 
L 860.902463 -251.962791 
L 903.620166 -249.137461 
L 946.337869 -253.106377 
L 946.337869 -275.238128 
L 946.337869 -275.238128 
L 903.620166 -271.471022 
L 860.902463 -282.503262 
L 818.184759 -274.901779 
L 775.467056 -285.261323 
L 732.749353 -267.972994 
L 690.031649 -273.960003 
L 647.313946 -270.394705 
L 604.596243 -271.94191 
L 561.878539 -267.367566 
L 519.160836 -267.434836 
L 476.443132 -255.0572 
L 433.725429 -257.9498 
L 391.007726 -247.993875 
L 348.290022 -241.737787 
L 305.572319 -231.512783 
L 262.854616 -230.436467 
L 220.136912 -204.3358 
L 177.419209 -187.114741 
L 134.701506 -146.483805 
z
" id="m35813765f1" style="stroke:#ae7181;stroke-opacity:0.3;"/>
    </defs>
    <g clip-path="url(#p1177238bbe)">
     <use style="fill:#ae7181;fill-opacity:0.3;stroke:#ae7181;stroke-opacity:0.3;" x="0" xlink:href="#m35813765f1" y="1090.099063"/>
    </g>
   </g>
   <g id="PolyCollection_8">
    <g clip-path="url(#p1177238bbe)">
     <use style="fill:#ae7181;fill-opacity:0.3;stroke:#ae7181;stroke-opacity:0.3;" x="0" xlink:href="#m35813765f1" y="1090.099063"/>
    </g>
   </g>
   <g id="matplotlib.axis_1">
    <g id="xtick_1">
     <g id="line2d_1">
      <path clip-path="url(#p1177238bbe)" d="M 262.854616 1005.12 
L 262.854616 7.2 
" style="fill:none;stroke:#b0b0b0;stroke-linecap:square;stroke-width:0.8;"/>
     </g>
     <g id="line2d_2">
      <defs>
       <path d="M 0 0 
L 0 3.5 
" id="m576c2b0732" style="stroke:#000000;stroke-width:0.8;"/>
      </defs>
      <g>
       <use style="stroke:#000000;stroke-width:0.8;" x="262.854616" xlink:href="#m576c2b0732" y="1005.12"/>
      </g>
     </g>
     <g id="text_1">
      <!-- 0.2 -->
      <g transform="translate(238.999928 1034.915313)scale(0.3 -0.3)">
       <defs>
        <path d="M 2034 4250 
Q 1547 4250 1301 3770 
Q 1056 3291 1056 2328 
Q 1056 1369 1301 889 
Q 1547 409 2034 409 
Q 2525 409 2770 889 
Q 3016 1369 3016 2328 
Q 3016 3291 2770 3770 
Q 2525 4250 2034 4250 
z
M 2034 4750 
Q 2819 4750 3233 4129 
Q 3647 3509 3647 2328 
Q 3647 1150 3233 529 
Q 2819 -91 2034 -91 
Q 1250 -91 836 529 
Q 422 1150 422 2328 
Q 422 3509 836 4129 
Q 1250 4750 2034 4750 
z
" id="DejaVuSans-30" transform="scale(0.015625)"/>
        <path d="M 684 794 
L 1344 794 
L 1344 0 
L 684 0 
L 684 794 
z
" id="DejaVuSans-2e" transform="scale(0.015625)"/>
        <path d="M 1228 531 
L 3431 531 
L 3431 0 
L 469 0 
L 469 531 
Q 828 903 1448 1529 
Q 2069 2156 2228 2338 
Q 2531 2678 2651 2914 
Q 2772 3150 2772 3378 
Q 2772 3750 2511 3984 
Q 2250 4219 1831 4219 
Q 1534 4219 1204 4116 
Q 875 4013 500 3803 
L 500 4441 
Q 881 4594 1212 4672 
Q 1544 4750 1819 4750 
Q 2544 4750 2975 4387 
Q 3406 4025 3406 3419 
Q 3406 3131 3298 2873 
Q 3191 2616 2906 2266 
Q 2828 2175 2409 1742 
Q 1991 1309 1228 531 
z
" id="DejaVuSans-32" transform="scale(0.015625)"/>
       </defs>
       <use xlink:href="#DejaVuSans-30"/>
       <use x="63.623047" xlink:href="#DejaVuSans-2e"/>
       <use x="95.410156" xlink:href="#DejaVuSans-32"/>
      </g>
     </g>
    </g>
    <g id="xtick_2">
     <g id="line2d_3">
      <path clip-path="url(#p1177238bbe)" d="M 433.725429 1005.12 
L 433.725429 7.2 
" style="fill:none;stroke:#b0b0b0;stroke-linecap:square;stroke-width:0.8;"/>
     </g>
     <g id="line2d_4">
      <g>
       <use style="stroke:#000000;stroke-width:0.8;" x="433.725429" xlink:href="#m576c2b0732" y="1005.12"/>
      </g>
     </g>
     <g id="text_2">
      <!-- 0.4 -->
      <g transform="translate(409.870742 1034.915313)scale(0.3 -0.3)">
       <defs>
        <path d="M 2419 4116 
L 825 1625 
L 2419 1625 
L 2419 4116 
z
M 2253 4666 
L 3047 4666 
L 3047 1625 
L 3713 1625 
L 3713 1100 
L 3047 1100 
L 3047 0 
L 2419 0 
L 2419 1100 
L 313 1100 
L 313 1709 
L 2253 4666 
z
" id="DejaVuSans-34" transform="scale(0.015625)"/>
       </defs>
       <use xlink:href="#DejaVuSans-30"/>
       <use x="63.623047" xlink:href="#DejaVuSans-2e"/>
       <use x="95.410156" xlink:href="#DejaVuSans-34"/>
      </g>
     </g>
    </g>
    <g id="xtick_3">
     <g id="line2d_5">
      <path clip-path="url(#p1177238bbe)" d="M 604.596243 1005.12 
L 604.596243 7.2 
" style="fill:none;stroke:#b0b0b0;stroke-linecap:square;stroke-width:0.8;"/>
     </g>
     <g id="line2d_6">
      <g>
       <use style="stroke:#000000;stroke-width:0.8;" x="604.596243" xlink:href="#m576c2b0732" y="1005.12"/>
      </g>
     </g>
     <g id="text_3">
      <!-- 0.6 -->
      <g transform="translate(580.741555 1034.915313)scale(0.3 -0.3)">
       <defs>
        <path d="M 2113 2584 
Q 1688 2584 1439 2293 
Q 1191 2003 1191 1497 
Q 1191 994 1439 701 
Q 1688 409 2113 409 
Q 2538 409 2786 701 
Q 3034 994 3034 1497 
Q 3034 2003 2786 2293 
Q 2538 2584 2113 2584 
z
M 3366 4563 
L 3366 3988 
Q 3128 4100 2886 4159 
Q 2644 4219 2406 4219 
Q 1781 4219 1451 3797 
Q 1122 3375 1075 2522 
Q 1259 2794 1537 2939 
Q 1816 3084 2150 3084 
Q 2853 3084 3261 2657 
Q 3669 2231 3669 1497 
Q 3669 778 3244 343 
Q 2819 -91 2113 -91 
Q 1303 -91 875 529 
Q 447 1150 447 2328 
Q 447 3434 972 4092 
Q 1497 4750 2381 4750 
Q 2619 4750 2861 4703 
Q 3103 4656 3366 4563 
z
" id="DejaVuSans-36" transform="scale(0.015625)"/>
       </defs>
       <use xlink:href="#DejaVuSans-30"/>
       <use x="63.623047" xlink:href="#DejaVuSans-2e"/>
       <use x="95.410156" xlink:href="#DejaVuSans-36"/>
      </g>
     </g>
    </g>
    <g id="xtick_4">
     <g id="line2d_7">
      <path clip-path="url(#p1177238bbe)" d="M 775.467056 1005.12 
L 775.467056 7.2 
" style="fill:none;stroke:#b0b0b0;stroke-linecap:square;stroke-width:0.8;"/>
     </g>
     <g id="line2d_8">
      <g>
       <use style="stroke:#000000;stroke-width:0.8;" x="775.467056" xlink:href="#m576c2b0732" y="1005.12"/>
      </g>
     </g>
     <g id="text_4">
      <!-- 0.8 -->
      <g transform="translate(751.612368 1034.915313)scale(0.3 -0.3)">
       <defs>
        <path d="M 2034 2216 
Q 1584 2216 1326 1975 
Q 1069 1734 1069 1313 
Q 1069 891 1326 650 
Q 1584 409 2034 409 
Q 2484 409 2743 651 
Q 3003 894 3003 1313 
Q 3003 1734 2745 1975 
Q 2488 2216 2034 2216 
z
M 1403 2484 
Q 997 2584 770 2862 
Q 544 3141 544 3541 
Q 544 4100 942 4425 
Q 1341 4750 2034 4750 
Q 2731 4750 3128 4425 
Q 3525 4100 3525 3541 
Q 3525 3141 3298 2862 
Q 3072 2584 2669 2484 
Q 3125 2378 3379 2068 
Q 3634 1759 3634 1313 
Q 3634 634 3220 271 
Q 2806 -91 2034 -91 
Q 1263 -91 848 271 
Q 434 634 434 1313 
Q 434 1759 690 2068 
Q 947 2378 1403 2484 
z
M 1172 3481 
Q 1172 3119 1398 2916 
Q 1625 2713 2034 2713 
Q 2441 2713 2670 2916 
Q 2900 3119 2900 3481 
Q 2900 3844 2670 4047 
Q 2441 4250 2034 4250 
Q 1625 4250 1398 4047 
Q 1172 3844 1172 3481 
z
" id="DejaVuSans-38" transform="scale(0.015625)"/>
       </defs>
       <use xlink:href="#DejaVuSans-30"/>
       <use x="63.623047" xlink:href="#DejaVuSans-2e"/>
       <use x="95.410156" xlink:href="#DejaVuSans-38"/>
      </g>
     </g>
    </g>
    <g id="xtick_5">
     <g id="line2d_9">
      <path clip-path="url(#p1177238bbe)" d="M 946.337869 1005.12 
L 946.337869 7.2 
" style="fill:none;stroke:#b0b0b0;stroke-linecap:square;stroke-width:0.8;"/>
     </g>
     <g id="line2d_10">
      <g>
       <use style="stroke:#000000;stroke-width:0.8;" x="946.337869" xlink:href="#m576c2b0732" y="1005.12"/>
      </g>
     </g>
     <g id="text_5">
      <!-- 1.0 -->
      <g transform="translate(922.483182 1034.915313)scale(0.3 -0.3)">
       <defs>
        <path d="M 794 531 
L 1825 531 
L 1825 4091 
L 703 3866 
L 703 4441 
L 1819 4666 
L 2450 4666 
L 2450 531 
L 3481 531 
L 3481 0 
L 794 0 
L 794 531 
z
" id="DejaVuSans-31" transform="scale(0.015625)"/>
       </defs>
       <use xlink:href="#DejaVuSans-31"/>
       <use x="63.623047" xlink:href="#DejaVuSans-2e"/>
       <use x="95.410156" xlink:href="#DejaVuSans-30"/>
      </g>
     </g>
    </g>
    <g id="text_6">
     <!-- Edge probability -->
     <g transform="translate(381.207734 1074.788281)scale(0.39 -0.39)">
      <defs>
       <path d="M 628 4666 
L 3578 4666 
L 3578 4134 
L 1259 4134 
L 1259 2753 
L 3481 2753 
L 3481 2222 
L 1259 2222 
L 1259 531 
L 3634 531 
L 3634 0 
L 628 0 
L 628 4666 
z
" id="DejaVuSans-45" transform="scale(0.015625)"/>
       <path d="M 2906 2969 
L 2906 4863 
L 3481 4863 
L 3481 0 
L 2906 0 
L 2906 525 
Q 2725 213 2448 61 
Q 2172 -91 1784 -91 
Q 1150 -91 751 415 
Q 353 922 353 1747 
Q 353 2572 751 3078 
Q 1150 3584 1784 3584 
Q 2172 3584 2448 3432 
Q 2725 3281 2906 2969 
z
M 947 1747 
Q 947 1113 1208 752 
Q 1469 391 1925 391 
Q 2381 391 2643 752 
Q 2906 1113 2906 1747 
Q 2906 2381 2643 2742 
Q 2381 3103 1925 3103 
Q 1469 3103 1208 2742 
Q 947 2381 947 1747 
z
" id="DejaVuSans-64" transform="scale(0.015625)"/>
       <path d="M 2906 1791 
Q 2906 2416 2648 2759 
Q 2391 3103 1925 3103 
Q 1463 3103 1205 2759 
Q 947 2416 947 1791 
Q 947 1169 1205 825 
Q 1463 481 1925 481 
Q 2391 481 2648 825 
Q 2906 1169 2906 1791 
z
M 3481 434 
Q 3481 -459 3084 -895 
Q 2688 -1331 1869 -1331 
Q 1566 -1331 1297 -1286 
Q 1028 -1241 775 -1147 
L 775 -588 
Q 1028 -725 1275 -790 
Q 1522 -856 1778 -856 
Q 2344 -856 2625 -561 
Q 2906 -266 2906 331 
L 2906 616 
Q 2728 306 2450 153 
Q 2172 0 1784 0 
Q 1141 0 747 490 
Q 353 981 353 1791 
Q 353 2603 747 3093 
Q 1141 3584 1784 3584 
Q 2172 3584 2450 3431 
Q 2728 3278 2906 2969 
L 2906 3500 
L 3481 3500 
L 3481 434 
z
" id="DejaVuSans-67" transform="scale(0.015625)"/>
       <path d="M 3597 1894 
L 3597 1613 
L 953 1613 
Q 991 1019 1311 708 
Q 1631 397 2203 397 
Q 2534 397 2845 478 
Q 3156 559 3463 722 
L 3463 178 
Q 3153 47 2828 -22 
Q 2503 -91 2169 -91 
Q 1331 -91 842 396 
Q 353 884 353 1716 
Q 353 2575 817 3079 
Q 1281 3584 2069 3584 
Q 2775 3584 3186 3129 
Q 3597 2675 3597 1894 
z
M 3022 2063 
Q 3016 2534 2758 2815 
Q 2500 3097 2075 3097 
Q 1594 3097 1305 2825 
Q 1016 2553 972 2059 
L 3022 2063 
z
" id="DejaVuSans-65" transform="scale(0.015625)"/>
       <path id="DejaVuSans-20" transform="scale(0.015625)"/>
       <path d="M 1159 525 
L 1159 -1331 
L 581 -1331 
L 581 3500 
L 1159 3500 
L 1159 2969 
Q 1341 3281 1617 3432 
Q 1894 3584 2278 3584 
Q 2916 3584 3314 3078 
Q 3713 2572 3713 1747 
Q 3713 922 3314 415 
Q 2916 -91 2278 -91 
Q 1894 -91 1617 61 
Q 1341 213 1159 525 
z
M 3116 1747 
Q 3116 2381 2855 2742 
Q 2594 3103 2138 3103 
Q 1681 3103 1420 2742 
Q 1159 2381 1159 1747 
Q 1159 1113 1420 752 
Q 1681 391 2138 391 
Q 2594 391 2855 752 
Q 3116 1113 3116 1747 
z
" id="DejaVuSans-70" transform="scale(0.015625)"/>
       <path d="M 2631 2963 
Q 2534 3019 2420 3045 
Q 2306 3072 2169 3072 
Q 1681 3072 1420 2755 
Q 1159 2438 1159 1844 
L 1159 0 
L 581 0 
L 581 3500 
L 1159 3500 
L 1159 2956 
Q 1341 3275 1631 3429 
Q 1922 3584 2338 3584 
Q 2397 3584 2469 3576 
Q 2541 3569 2628 3553 
L 2631 2963 
z
" id="DejaVuSans-72" transform="scale(0.015625)"/>
       <path d="M 1959 3097 
Q 1497 3097 1228 2736 
Q 959 2375 959 1747 
Q 959 1119 1226 758 
Q 1494 397 1959 397 
Q 2419 397 2687 759 
Q 2956 1122 2956 1747 
Q 2956 2369 2687 2733 
Q 2419 3097 1959 3097 
z
M 1959 3584 
Q 2709 3584 3137 3096 
Q 3566 2609 3566 1747 
Q 3566 888 3137 398 
Q 2709 -91 1959 -91 
Q 1206 -91 779 398 
Q 353 888 353 1747 
Q 353 2609 779 3096 
Q 1206 3584 1959 3584 
z
" id="DejaVuSans-6f" transform="scale(0.015625)"/>
       <path d="M 3116 1747 
Q 3116 2381 2855 2742 
Q 2594 3103 2138 3103 
Q 1681 3103 1420 2742 
Q 1159 2381 1159 1747 
Q 1159 1113 1420 752 
Q 1681 391 2138 391 
Q 2594 391 2855 752 
Q 3116 1113 3116 1747 
z
M 1159 2969 
Q 1341 3281 1617 3432 
Q 1894 3584 2278 3584 
Q 2916 3584 3314 3078 
Q 3713 2572 3713 1747 
Q 3713 922 3314 415 
Q 2916 -91 2278 -91 
Q 1894 -91 1617 61 
Q 1341 213 1159 525 
L 1159 0 
L 581 0 
L 581 4863 
L 1159 4863 
L 1159 2969 
z
" id="DejaVuSans-62" transform="scale(0.015625)"/>
       <path d="M 2194 1759 
Q 1497 1759 1228 1600 
Q 959 1441 959 1056 
Q 959 750 1161 570 
Q 1363 391 1709 391 
Q 2188 391 2477 730 
Q 2766 1069 2766 1631 
L 2766 1759 
L 2194 1759 
z
M 3341 1997 
L 3341 0 
L 2766 0 
L 2766 531 
Q 2569 213 2275 61 
Q 1981 -91 1556 -91 
Q 1019 -91 701 211 
Q 384 513 384 1019 
Q 384 1609 779 1909 
Q 1175 2209 1959 2209 
L 2766 2209 
L 2766 2266 
Q 2766 2663 2505 2880 
Q 2244 3097 1772 3097 
Q 1472 3097 1187 3025 
Q 903 2953 641 2809 
L 641 3341 
Q 956 3463 1253 3523 
Q 1550 3584 1831 3584 
Q 2591 3584 2966 3190 
Q 3341 2797 3341 1997 
z
" id="DejaVuSans-61" transform="scale(0.015625)"/>
       <path d="M 603 3500 
L 1178 3500 
L 1178 0 
L 603 0 
L 603 3500 
z
M 603 4863 
L 1178 4863 
L 1178 4134 
L 603 4134 
L 603 4863 
z
" id="DejaVuSans-69" transform="scale(0.015625)"/>
       <path d="M 603 4863 
L 1178 4863 
L 1178 0 
L 603 0 
L 603 4863 
z
" id="DejaVuSans-6c" transform="scale(0.015625)"/>
       <path d="M 1172 4494 
L 1172 3500 
L 2356 3500 
L 2356 3053 
L 1172 3053 
L 1172 1153 
Q 1172 725 1289 603 
Q 1406 481 1766 481 
L 2356 481 
L 2356 0 
L 1766 0 
Q 1100 0 847 248 
Q 594 497 594 1153 
L 594 3053 
L 172 3053 
L 172 3500 
L 594 3500 
L 594 4494 
L 1172 4494 
z
" id="DejaVuSans-74" transform="scale(0.015625)"/>
       <path d="M 2059 -325 
Q 1816 -950 1584 -1140 
Q 1353 -1331 966 -1331 
L 506 -1331 
L 506 -850 
L 844 -850 
Q 1081 -850 1212 -737 
Q 1344 -625 1503 -206 
L 1606 56 
L 191 3500 
L 800 3500 
L 1894 763 
L 2988 3500 
L 3597 3500 
L 2059 -325 
z
" id="DejaVuSans-79" transform="scale(0.015625)"/>
      </defs>
      <use xlink:href="#DejaVuSans-45"/>
      <use x="63.183594" xlink:href="#DejaVuSans-64"/>
      <use x="126.660156" xlink:href="#DejaVuSans-67"/>
      <use x="190.136719" xlink:href="#DejaVuSans-65"/>
      <use x="251.660156" xlink:href="#DejaVuSans-20"/>
      <use x="283.447266" xlink:href="#DejaVuSans-70"/>
      <use x="346.923828" xlink:href="#DejaVuSans-72"/>
      <use x="385.787109" xlink:href="#DejaVuSans-6f"/>
      <use x="446.96875" xlink:href="#DejaVuSans-62"/>
      <use x="510.445312" xlink:href="#DejaVuSans-61"/>
      <use x="571.724609" xlink:href="#DejaVuSans-62"/>
      <use x="635.201172" xlink:href="#DejaVuSans-69"/>
      <use x="662.984375" xlink:href="#DejaVuSans-6c"/>
      <use x="690.767578" xlink:href="#DejaVuSans-69"/>
      <use x="718.550781" xlink:href="#DejaVuSans-74"/>
      <use x="757.759766" xlink:href="#DejaVuSans-79"/>
     </g>
    </g>
   </g>
   <g id="matplotlib.axis_2">
    <g id="ytick_1">
     <g id="line2d_11">
      <path clip-path="url(#p1177238bbe)" d="M 94.119688 925.048803 
L 986.919688 925.048803 
" style="fill:none;stroke:#b0b0b0;stroke-linecap:square;stroke-width:0.8;"/>
     </g>
     <g id="line2d_12">
      <defs>
       <path d="M 0 0 
L -3.5 0 
" id="m6428565116" style="stroke:#000000;stroke-width:0.8;"/>
      </defs>
      <g>
       <use style="stroke:#000000;stroke-width:0.8;" x="94.119688" xlink:href="#m6428565116" y="925.048803"/>
      </g>
     </g>
     <g id="text_7">
      <!-- 10 -->
      <g transform="translate(48.944688 936.446459)scale(0.3 -0.3)">
       <use xlink:href="#DejaVuSans-31"/>
       <use x="63.623047" xlink:href="#DejaVuSans-30"/>
      </g>
     </g>
    </g>
    <g id="ytick_2">
     <g id="line2d_13">
      <path clip-path="url(#p1177238bbe)" d="M 94.119688 790.509281 
L 986.919688 790.509281 
" style="fill:none;stroke:#b0b0b0;stroke-linecap:square;stroke-width:0.8;"/>
     </g>
     <g id="line2d_14">
      <g>
       <use style="stroke:#000000;stroke-width:0.8;" x="94.119688" xlink:href="#m6428565116" y="790.509281"/>
      </g>
     </g>
     <g id="text_8">
      <!-- 12 -->
      <g transform="translate(48.944688 801.906937)scale(0.3 -0.3)">
       <use xlink:href="#DejaVuSans-31"/>
       <use x="63.623047" xlink:href="#DejaVuSans-32"/>
      </g>
     </g>
    </g>
    <g id="ytick_3">
     <g id="line2d_15">
      <path clip-path="url(#p1177238bbe)" d="M 94.119688 655.969758 
L 986.919688 655.969758 
" style="fill:none;stroke:#b0b0b0;stroke-linecap:square;stroke-width:0.8;"/>
     </g>
     <g id="line2d_16">
      <g>
       <use style="stroke:#000000;stroke-width:0.8;" x="94.119688" xlink:href="#m6428565116" y="655.969758"/>
      </g>
     </g>
     <g id="text_9">
      <!-- 14 -->
      <g transform="translate(48.944688 667.367415)scale(0.3 -0.3)">
       <use xlink:href="#DejaVuSans-31"/>
       <use x="63.623047" xlink:href="#DejaVuSans-34"/>
      </g>
     </g>
    </g>
    <g id="ytick_4">
     <g id="line2d_17">
      <path clip-path="url(#p1177238bbe)" d="M 94.119688 521.430236 
L 986.919688 521.430236 
" style="fill:none;stroke:#b0b0b0;stroke-linecap:square;stroke-width:0.8;"/>
     </g>
     <g id="line2d_18">
      <g>
       <use style="stroke:#000000;stroke-width:0.8;" x="94.119688" xlink:href="#m6428565116" y="521.430236"/>
      </g>
     </g>
     <g id="text_10">
      <!-- 16 -->
      <g transform="translate(48.944688 532.827892)scale(0.3 -0.3)">
       <use xlink:href="#DejaVuSans-31"/>
       <use x="63.623047" xlink:href="#DejaVuSans-36"/>
      </g>
     </g>
    </g>
    <g id="ytick_5">
     <g id="line2d_19">
      <path clip-path="url(#p1177238bbe)" d="M 94.119688 386.890713 
L 986.919688 386.890713 
" style="fill:none;stroke:#b0b0b0;stroke-linecap:square;stroke-width:0.8;"/>
     </g>
     <g id="line2d_20">
      <g>
       <use style="stroke:#000000;stroke-width:0.8;" x="94.119688" xlink:href="#m6428565116" y="386.890713"/>
      </g>
     </g>
     <g id="text_11">
      <!-- 18 -->
      <g transform="translate(48.944688 398.28837)scale(0.3 -0.3)">
       <use xlink:href="#DejaVuSans-31"/>
       <use x="63.623047" xlink:href="#DejaVuSans-38"/>
      </g>
     </g>
    </g>
    <g id="ytick_6">
     <g id="line2d_21">
      <path clip-path="url(#p1177238bbe)" d="M 94.119688 252.351191 
L 986.919688 252.351191 
" style="fill:none;stroke:#b0b0b0;stroke-linecap:square;stroke-width:0.8;"/>
     </g>
     <g id="line2d_22">
      <g>
       <use style="stroke:#000000;stroke-width:0.8;" x="94.119688" xlink:href="#m6428565116" y="252.351191"/>
      </g>
     </g>
     <g id="text_12">
      <!-- 20 -->
      <g transform="translate(48.944688 263.748847)scale(0.3 -0.3)">
       <use xlink:href="#DejaVuSans-32"/>
       <use x="63.623047" xlink:href="#DejaVuSans-30"/>
      </g>
     </g>
    </g>
    <g id="ytick_7">
     <g id="line2d_23">
      <path clip-path="url(#p1177238bbe)" d="M 94.119688 117.811668 
L 986.919688 117.811668 
" style="fill:none;stroke:#b0b0b0;stroke-linecap:square;stroke-width:0.8;"/>
     </g>
     <g id="line2d_24">
      <g>
       <use style="stroke:#000000;stroke-width:0.8;" x="94.119688" xlink:href="#m6428565116" y="117.811668"/>
      </g>
     </g>
     <g id="text_13">
      <!-- 22 -->
      <g transform="translate(48.944688 129.209325)scale(0.3 -0.3)">
       <use xlink:href="#DejaVuSans-32"/>
       <use x="63.623047" xlink:href="#DejaVuSans-32"/>
      </g>
     </g>
    </g>
    <g id="text_14">
     <!-- Avg. number of operations / size -->
     <g transform="translate(36.833906 822.523125)rotate(-90)scale(0.39 -0.39)">
      <defs>
       <path d="M 2188 4044 
L 1331 1722 
L 3047 1722 
L 2188 4044 
z
M 1831 4666 
L 2547 4666 
L 4325 0 
L 3669 0 
L 3244 1197 
L 1141 1197 
L 716 0 
L 50 0 
L 1831 4666 
z
" id="DejaVuSans-41" transform="scale(0.015625)"/>
       <path d="M 191 3500 
L 800 3500 
L 1894 563 
L 2988 3500 
L 3597 3500 
L 2284 0 
L 1503 0 
L 191 3500 
z
" id="DejaVuSans-76" transform="scale(0.015625)"/>
       <path d="M 3513 2113 
L 3513 0 
L 2938 0 
L 2938 2094 
Q 2938 2591 2744 2837 
Q 2550 3084 2163 3084 
Q 1697 3084 1428 2787 
Q 1159 2491 1159 1978 
L 1159 0 
L 581 0 
L 581 3500 
L 1159 3500 
L 1159 2956 
Q 1366 3272 1645 3428 
Q 1925 3584 2291 3584 
Q 2894 3584 3203 3211 
Q 3513 2838 3513 2113 
z
" id="DejaVuSans-6e" transform="scale(0.015625)"/>
       <path d="M 544 1381 
L 544 3500 
L 1119 3500 
L 1119 1403 
Q 1119 906 1312 657 
Q 1506 409 1894 409 
Q 2359 409 2629 706 
Q 2900 1003 2900 1516 
L 2900 3500 
L 3475 3500 
L 3475 0 
L 2900 0 
L 2900 538 
Q 2691 219 2414 64 
Q 2138 -91 1772 -91 
Q 1169 -91 856 284 
Q 544 659 544 1381 
z
M 1991 3584 
L 1991 3584 
z
" id="DejaVuSans-75" transform="scale(0.015625)"/>
       <path d="M 3328 2828 
Q 3544 3216 3844 3400 
Q 4144 3584 4550 3584 
Q 5097 3584 5394 3201 
Q 5691 2819 5691 2113 
L 5691 0 
L 5113 0 
L 5113 2094 
Q 5113 2597 4934 2840 
Q 4756 3084 4391 3084 
Q 3944 3084 3684 2787 
Q 3425 2491 3425 1978 
L 3425 0 
L 2847 0 
L 2847 2094 
Q 2847 2600 2669 2842 
Q 2491 3084 2119 3084 
Q 1678 3084 1418 2786 
Q 1159 2488 1159 1978 
L 1159 0 
L 581 0 
L 581 3500 
L 1159 3500 
L 1159 2956 
Q 1356 3278 1631 3431 
Q 1906 3584 2284 3584 
Q 2666 3584 2933 3390 
Q 3200 3197 3328 2828 
z
" id="DejaVuSans-6d" transform="scale(0.015625)"/>
       <path d="M 2375 4863 
L 2375 4384 
L 1825 4384 
Q 1516 4384 1395 4259 
Q 1275 4134 1275 3809 
L 1275 3500 
L 2222 3500 
L 2222 3053 
L 1275 3053 
L 1275 0 
L 697 0 
L 697 3053 
L 147 3053 
L 147 3500 
L 697 3500 
L 697 3744 
Q 697 4328 969 4595 
Q 1241 4863 1831 4863 
L 2375 4863 
z
" id="DejaVuSans-66" transform="scale(0.015625)"/>
       <path d="M 2834 3397 
L 2834 2853 
Q 2591 2978 2328 3040 
Q 2066 3103 1784 3103 
Q 1356 3103 1142 2972 
Q 928 2841 928 2578 
Q 928 2378 1081 2264 
Q 1234 2150 1697 2047 
L 1894 2003 
Q 2506 1872 2764 1633 
Q 3022 1394 3022 966 
Q 3022 478 2636 193 
Q 2250 -91 1575 -91 
Q 1294 -91 989 -36 
Q 684 19 347 128 
L 347 722 
Q 666 556 975 473 
Q 1284 391 1588 391 
Q 1994 391 2212 530 
Q 2431 669 2431 922 
Q 2431 1156 2273 1281 
Q 2116 1406 1581 1522 
L 1381 1569 
Q 847 1681 609 1914 
Q 372 2147 372 2553 
Q 372 3047 722 3315 
Q 1072 3584 1716 3584 
Q 2034 3584 2315 3537 
Q 2597 3491 2834 3397 
z
" id="DejaVuSans-73" transform="scale(0.015625)"/>
       <path d="M 1625 4666 
L 2156 4666 
L 531 -594 
L 0 -594 
L 1625 4666 
z
" id="DejaVuSans-2f" transform="scale(0.015625)"/>
       <path d="M 353 3500 
L 3084 3500 
L 3084 2975 
L 922 459 
L 3084 459 
L 3084 0 
L 275 0 
L 275 525 
L 2438 3041 
L 353 3041 
L 353 3500 
z
" id="DejaVuSans-7a" transform="scale(0.015625)"/>
      </defs>
      <use xlink:href="#DejaVuSans-41"/>
      <use x="62.533203" xlink:href="#DejaVuSans-76"/>
      <use x="121.712891" xlink:href="#DejaVuSans-67"/>
      <use x="185.189453" xlink:href="#DejaVuSans-2e"/>
      <use x="216.976562" xlink:href="#DejaVuSans-20"/>
      <use x="248.763672" xlink:href="#DejaVuSans-6e"/>
      <use x="312.142578" xlink:href="#DejaVuSans-75"/>
      <use x="375.521484" xlink:href="#DejaVuSans-6d"/>
      <use x="472.933594" xlink:href="#DejaVuSans-62"/>
      <use x="536.410156" xlink:href="#DejaVuSans-65"/>
      <use x="597.933594" xlink:href="#DejaVuSans-72"/>
      <use x="639.046875" xlink:href="#DejaVuSans-20"/>
      <use x="670.833984" xlink:href="#DejaVuSans-6f"/>
      <use x="732.015625" xlink:href="#DejaVuSans-66"/>
      <use x="767.220703" xlink:href="#DejaVuSans-20"/>
      <use x="799.007812" xlink:href="#DejaVuSans-6f"/>
      <use x="860.189453" xlink:href="#DejaVuSans-70"/>
      <use x="923.666016" xlink:href="#DejaVuSans-65"/>
      <use x="985.189453" xlink:href="#DejaVuSans-72"/>
      <use x="1026.302734" xlink:href="#DejaVuSans-61"/>
      <use x="1087.582031" xlink:href="#DejaVuSans-74"/>
      <use x="1126.791016" xlink:href="#DejaVuSans-69"/>
      <use x="1154.574219" xlink:href="#DejaVuSans-6f"/>
      <use x="1215.755859" xlink:href="#DejaVuSans-6e"/>
      <use x="1279.134766" xlink:href="#DejaVuSans-73"/>
      <use x="1331.234375" xlink:href="#DejaVuSans-20"/>
      <use x="1363.021484" xlink:href="#DejaVuSans-2f"/>
      <use x="1396.712891" xlink:href="#DejaVuSans-20"/>
      <use x="1428.5" xlink:href="#DejaVuSans-73"/>
      <use x="1480.599609" xlink:href="#DejaVuSans-69"/>
      <use x="1508.382812" xlink:href="#DejaVuSans-7a"/>
      <use x="1560.873047" xlink:href="#DejaVuSans-65"/>
     </g>
    </g>
   </g>
   <g id="line2d_25">
    <path clip-path="url(#p1177238bbe)" d="M 134.701506 809.519715 
L 177.419209 749.192193 
L 220.136912 714.467543 
L 262.854616 687.922895 
L 305.572319 667.701605 
L 348.290022 657.67841 
L 391.007726 638.049094 
L 433.725429 631.752644 
L 476.443132 622.267608 
L 519.160836 612.177144 
L 561.878539 603.795331 
L 604.596243 603.10918 
L 647.313946 592.130755 
L 690.031649 587.031707 
L 732.749353 584.636903 
L 775.467056 572.138182 
L 818.184759 570.685155 
L 860.902463 565.814824 
L 903.620166 569.016865 
L 946.337869 562.303343 
" style="fill:none;stroke:#fe0002;stroke-linecap:square;stroke-width:1.5;"/>
    <defs>
     <path d="M 0 4.5 
C 1.193414 4.5 2.338109 4.025852 3.181981 3.181981 
C 4.025852 2.338109 4.5 1.193414 4.5 0 
C 4.5 -1.193414 4.025852 -2.338109 3.181981 -3.181981 
C 2.338109 -4.025852 1.193414 -4.5 0 -4.5 
C -1.193414 -4.5 -2.338109 -4.025852 -3.181981 -3.181981 
C -4.025852 -2.338109 -4.5 -1.193414 -4.5 0 
C -4.5 1.193414 -4.025852 2.338109 -3.181981 3.181981 
C -2.338109 4.025852 -1.193414 4.5 0 4.5 
z
" id="m80a34538f0" style="stroke:#000000;"/>
    </defs>
    <g clip-path="url(#p1177238bbe)">
     <use style="fill:#fe0002;stroke:#000000;" x="134.701506" xlink:href="#m80a34538f0" y="809.519715"/>
     <use style="fill:#fe0002;stroke:#000000;" x="177.419209" xlink:href="#m80a34538f0" y="749.192193"/>
     <use style="fill:#fe0002;stroke:#000000;" x="220.136912" xlink:href="#m80a34538f0" y="714.467543"/>
     <use style="fill:#fe0002;stroke:#000000;" x="262.854616" xlink:href="#m80a34538f0" y="687.922895"/>
     <use style="fill:#fe0002;stroke:#000000;" x="305.572319" xlink:href="#m80a34538f0" y="667.701605"/>
     <use style="fill:#fe0002;stroke:#000000;" x="348.290022" xlink:href="#m80a34538f0" y="657.67841"/>
     <use style="fill:#fe0002;stroke:#000000;" x="391.007726" xlink:href="#m80a34538f0" y="638.049094"/>
     <use style="fill:#fe0002;stroke:#000000;" x="433.725429" xlink:href="#m80a34538f0" y="631.752644"/>
     <use style="fill:#fe0002;stroke:#000000;" x="476.443132" xlink:href="#m80a34538f0" y="622.267608"/>
     <use style="fill:#fe0002;stroke:#000000;" x="519.160836" xlink:href="#m80a34538f0" y="612.177144"/>
     <use style="fill:#fe0002;stroke:#000000;" x="561.878539" xlink:href="#m80a34538f0" y="603.795331"/>
     <use style="fill:#fe0002;stroke:#000000;" x="604.596243" xlink:href="#m80a34538f0" y="603.10918"/>
     <use style="fill:#fe0002;stroke:#000000;" x="647.313946" xlink:href="#m80a34538f0" y="592.130755"/>
     <use style="fill:#fe0002;stroke:#000000;" x="690.031649" xlink:href="#m80a34538f0" y="587.031707"/>
     <use style="fill:#fe0002;stroke:#000000;" x="732.749353" xlink:href="#m80a34538f0" y="584.636903"/>
     <use style="fill:#fe0002;stroke:#000000;" x="775.467056" xlink:href="#m80a34538f0" y="572.138182"/>
     <use style="fill:#fe0002;stroke:#000000;" x="818.184759" xlink:href="#m80a34538f0" y="570.685155"/>
     <use style="fill:#fe0002;stroke:#000000;" x="860.902463" xlink:href="#m80a34538f0" y="565.814824"/>
     <use style="fill:#fe0002;stroke:#000000;" x="903.620166" xlink:href="#m80a34538f0" y="569.016865"/>
     <use style="fill:#fe0002;stroke:#000000;" x="946.337869" xlink:href="#m80a34538f0" y="562.303343"/>
    </g>
   </g>
   <g id="line2d_26">
    <path clip-path="url(#p1177238bbe)" d="M 134.701506 809.519715 
L 177.419209 749.192193 
L 220.136912 714.467543 
L 262.854616 687.922895 
L 305.572319 667.701605 
L 348.290022 657.67841 
L 391.007726 638.049094 
L 433.725429 631.752644 
L 476.443132 622.267608 
L 519.160836 612.177144 
L 561.878539 603.795331 
L 604.596243 603.10918 
L 647.313946 592.130755 
L 690.031649 587.031707 
L 732.749353 584.636903 
L 775.467056 572.138182 
L 818.184759 570.685155 
L 860.902463 565.814824 
L 903.620166 569.016865 
L 946.337869 562.303343 
" style="fill:none;stroke:#fe0002;stroke-dasharray:5.55,2.4;stroke-dashoffset:0;stroke-width:1.5;"/>
    <g clip-path="url(#p1177238bbe)">
     <use style="fill:#fe0002;stroke:#000000;" x="134.701506" xlink:href="#m80a34538f0" y="809.519715"/>
     <use style="fill:#fe0002;stroke:#000000;" x="177.419209" xlink:href="#m80a34538f0" y="749.192193"/>
     <use style="fill:#fe0002;stroke:#000000;" x="220.136912" xlink:href="#m80a34538f0" y="714.467543"/>
     <use style="fill:#fe0002;stroke:#000000;" x="262.854616" xlink:href="#m80a34538f0" y="687.922895"/>
     <use style="fill:#fe0002;stroke:#000000;" x="305.572319" xlink:href="#m80a34538f0" y="667.701605"/>
     <use style="fill:#fe0002;stroke:#000000;" x="348.290022" xlink:href="#m80a34538f0" y="657.67841"/>
     <use style="fill:#fe0002;stroke:#000000;" x="391.007726" xlink:href="#m80a34538f0" y="638.049094"/>
     <use style="fill:#fe0002;stroke:#000000;" x="433.725429" xlink:href="#m80a34538f0" y="631.752644"/>
     <use style="fill:#fe0002;stroke:#000000;" x="476.443132" xlink:href="#m80a34538f0" y="622.267608"/>
     <use style="fill:#fe0002;stroke:#000000;" x="519.160836" xlink:href="#m80a34538f0" y="612.177144"/>
     <use style="fill:#fe0002;stroke:#000000;" x="561.878539" xlink:href="#m80a34538f0" y="603.795331"/>
     <use style="fill:#fe0002;stroke:#000000;" x="604.596243" xlink:href="#m80a34538f0" y="603.10918"/>
     <use style="fill:#fe0002;stroke:#000000;" x="647.313946" xlink:href="#m80a34538f0" y="592.130755"/>
     <use style="fill:#fe0002;stroke:#000000;" x="690.031649" xlink:href="#m80a34538f0" y="587.031707"/>
     <use style="fill:#fe0002;stroke:#000000;" x="732.749353" xlink:href="#m80a34538f0" y="584.636903"/>
     <use style="fill:#fe0002;stroke:#000000;" x="775.467056" xlink:href="#m80a34538f0" y="572.138182"/>
     <use style="fill:#fe0002;stroke:#000000;" x="818.184759" xlink:href="#m80a34538f0" y="570.685155"/>
     <use style="fill:#fe0002;stroke:#000000;" x="860.902463" xlink:href="#m80a34538f0" y="565.814824"/>
     <use style="fill:#fe0002;stroke:#000000;" x="903.620166" xlink:href="#m80a34538f0" y="569.016865"/>
     <use style="fill:#fe0002;stroke:#000000;" x="946.337869" xlink:href="#m80a34538f0" y="562.303343"/>
    </g>
   </g>
   <g id="line2d_27">
    <path clip-path="url(#p1177238bbe)" d="M 134.701506 513.290595 
L 177.419209 423.081845 
L 220.136912 372.320083 
L 262.854616 331.783325 
L 305.572319 310.297363 
L 348.290022 294.502423 
L 391.007726 272.020869 
L 433.725429 251.987934 
L 476.443132 243.162141 
L 519.160836 226.371609 
L 561.878539 216.308053 
L 604.596243 207.293905 
L 647.313946 199.113902 
L 690.031649 182.404093 
L 732.749353 184.933436 
L 775.467056 167.106949 
L 818.184759 156.76086 
L 860.902463 152.347964 
L 903.620166 161.012309 
L 946.337869 154.51405 
" style="fill:none;stroke:#53fca1;stroke-linecap:square;stroke-width:1.5;"/>
    <defs>
     <path d="M 0 -4.5 
L -4.5 4.5 
L 4.5 4.5 
z
" id="m554c5ffb14" style="stroke:#000000;stroke-linejoin:miter;"/>
    </defs>
    <g clip-path="url(#p1177238bbe)">
     <use style="fill:#53fca1;stroke:#000000;stroke-linejoin:miter;" x="134.701506" xlink:href="#m554c5ffb14" y="513.290595"/>
     <use style="fill:#53fca1;stroke:#000000;stroke-linejoin:miter;" x="177.419209" xlink:href="#m554c5ffb14" y="423.081845"/>
     <use style="fill:#53fca1;stroke:#000000;stroke-linejoin:miter;" x="220.136912" xlink:href="#m554c5ffb14" y="372.320083"/>
     <use style="fill:#53fca1;stroke:#000000;stroke-linejoin:miter;" x="262.854616" xlink:href="#m554c5ffb14" y="331.783325"/>
     <use style="fill:#53fca1;stroke:#000000;stroke-linejoin:miter;" x="305.572319" xlink:href="#m554c5ffb14" y="310.297363"/>
     <use style="fill:#53fca1;stroke:#000000;stroke-linejoin:miter;" x="348.290022" xlink:href="#m554c5ffb14" y="294.502423"/>
     <use style="fill:#53fca1;stroke:#000000;stroke-linejoin:miter;" x="391.007726" xlink:href="#m554c5ffb14" y="272.020869"/>
     <use style="fill:#53fca1;stroke:#000000;stroke-linejoin:miter;" x="433.725429" xlink:href="#m554c5ffb14" y="251.987934"/>
     <use style="fill:#53fca1;stroke:#000000;stroke-linejoin:miter;" x="476.443132" xlink:href="#m554c5ffb14" y="243.162141"/>
     <use style="fill:#53fca1;stroke:#000000;stroke-linejoin:miter;" x="519.160836" xlink:href="#m554c5ffb14" y="226.371609"/>
     <use style="fill:#53fca1;stroke:#000000;stroke-linejoin:miter;" x="561.878539" xlink:href="#m554c5ffb14" y="216.308053"/>
     <use style="fill:#53fca1;stroke:#000000;stroke-linejoin:miter;" x="604.596243" xlink:href="#m554c5ffb14" y="207.293905"/>
     <use style="fill:#53fca1;stroke:#000000;stroke-linejoin:miter;" x="647.313946" xlink:href="#m554c5ffb14" y="199.113902"/>
     <use style="fill:#53fca1;stroke:#000000;stroke-linejoin:miter;" x="690.031649" xlink:href="#m554c5ffb14" y="182.404093"/>
     <use style="fill:#53fca1;stroke:#000000;stroke-linejoin:miter;" x="732.749353" xlink:href="#m554c5ffb14" y="184.933436"/>
     <use style="fill:#53fca1;stroke:#000000;stroke-linejoin:miter;" x="775.467056" xlink:href="#m554c5ffb14" y="167.106949"/>
     <use style="fill:#53fca1;stroke:#000000;stroke-linejoin:miter;" x="818.184759" xlink:href="#m554c5ffb14" y="156.76086"/>
     <use style="fill:#53fca1;stroke:#000000;stroke-linejoin:miter;" x="860.902463" xlink:href="#m554c5ffb14" y="152.347964"/>
     <use style="fill:#53fca1;stroke:#000000;stroke-linejoin:miter;" x="903.620166" xlink:href="#m554c5ffb14" y="161.012309"/>
     <use style="fill:#53fca1;stroke:#000000;stroke-linejoin:miter;" x="946.337869" xlink:href="#m554c5ffb14" y="154.51405"/>
    </g>
   </g>
   <g id="line2d_28">
    <path clip-path="url(#p1177238bbe)" d="M 134.701506 936.901735 
L 177.419209 891.44083 
L 220.136912 864.465656 
L 262.854616 844.540353 
L 305.572319 832.862322 
L 348.290022 824.076892 
L 391.007726 813.017743 
L 433.725429 802.564022 
L 476.443132 797.142079 
L 519.160836 788.679543 
L 561.878539 783.042337 
L 604.596243 778.952336 
L 647.313946 773.099867 
L 690.031649 764.354798 
L 732.749353 766.561246 
L 775.467056 756.134433 
L 818.184759 751.990615 
L 860.902463 749.340187 
L 903.620166 753.847261 
L 946.337869 748.156239 
" style="fill:none;stroke:#53fca1;stroke-dasharray:5.55,2.4;stroke-dashoffset:0;stroke-width:1.5;"/>
    <defs>
     <path d="M 0 6.363961 
L 6.363961 0 
L 0 -6.363961 
L -6.363961 0 
z
" id="mf5e66ebcb1" style="stroke:#000000;stroke-linejoin:miter;"/>
    </defs>
    <g clip-path="url(#p1177238bbe)">
     <use style="fill:#53fca1;stroke:#000000;stroke-linejoin:miter;" x="134.701506" xlink:href="#mf5e66ebcb1" y="936.901735"/>
     <use style="fill:#53fca1;stroke:#000000;stroke-linejoin:miter;" x="177.419209" xlink:href="#mf5e66ebcb1" y="891.44083"/>
     <use style="fill:#53fca1;stroke:#000000;stroke-linejoin:miter;" x="220.136912" xlink:href="#mf5e66ebcb1" y="864.465656"/>
     <use style="fill:#53fca1;stroke:#000000;stroke-linejoin:miter;" x="262.854616" xlink:href="#mf5e66ebcb1" y="844.540353"/>
     <use style="fill:#53fca1;stroke:#000000;stroke-linejoin:miter;" x="305.572319" xlink:href="#mf5e66ebcb1" y="832.862322"/>
     <use style="fill:#53fca1;stroke:#000000;stroke-linejoin:miter;" x="348.290022" xlink:href="#mf5e66ebcb1" y="824.076892"/>
     <use style="fill:#53fca1;stroke:#000000;stroke-linejoin:miter;" x="391.007726" xlink:href="#mf5e66ebcb1" y="813.017743"/>
     <use style="fill:#53fca1;stroke:#000000;stroke-linejoin:miter;" x="433.725429" xlink:href="#mf5e66ebcb1" y="802.564022"/>
     <use style="fill:#53fca1;stroke:#000000;stroke-linejoin:miter;" x="476.443132" xlink:href="#mf5e66ebcb1" y="797.142079"/>
     <use style="fill:#53fca1;stroke:#000000;stroke-linejoin:miter;" x="519.160836" xlink:href="#mf5e66ebcb1" y="788.679543"/>
     <use style="fill:#53fca1;stroke:#000000;stroke-linejoin:miter;" x="561.878539" xlink:href="#mf5e66ebcb1" y="783.042337"/>
     <use style="fill:#53fca1;stroke:#000000;stroke-linejoin:miter;" x="604.596243" xlink:href="#mf5e66ebcb1" y="778.952336"/>
     <use style="fill:#53fca1;stroke:#000000;stroke-linejoin:miter;" x="647.313946" xlink:href="#mf5e66ebcb1" y="773.099867"/>
     <use style="fill:#53fca1;stroke:#000000;stroke-linejoin:miter;" x="690.031649" xlink:href="#mf5e66ebcb1" y="764.354798"/>
     <use style="fill:#53fca1;stroke:#000000;stroke-linejoin:miter;" x="732.749353" xlink:href="#mf5e66ebcb1" y="766.561246"/>
     <use style="fill:#53fca1;stroke:#000000;stroke-linejoin:miter;" x="775.467056" xlink:href="#mf5e66ebcb1" y="756.134433"/>
     <use style="fill:#53fca1;stroke:#000000;stroke-linejoin:miter;" x="818.184759" xlink:href="#mf5e66ebcb1" y="751.990615"/>
     <use style="fill:#53fca1;stroke:#000000;stroke-linejoin:miter;" x="860.902463" xlink:href="#mf5e66ebcb1" y="749.340187"/>
     <use style="fill:#53fca1;stroke:#000000;stroke-linejoin:miter;" x="903.620166" xlink:href="#mf5e66ebcb1" y="753.847261"/>
     <use style="fill:#53fca1;stroke:#000000;stroke-linejoin:miter;" x="946.337869" xlink:href="#mf5e66ebcb1" y="748.156239"/>
    </g>
   </g>
   <g id="line2d_29">
    <path clip-path="url(#p1177238bbe)" d="M 134.701506 477.099463 
L 177.419209 389.029892 
L 220.136912 334.393392 
L 262.854616 289.591731 
L 305.572319 272.518665 
L 348.290022 251.234513 
L 391.007726 221.877989 
L 433.725429 206.25795 
L 476.443132 195.279525 
L 519.160836 175.138959 
L 561.878539 164.496883 
L 604.596243 162.801685 
L 647.313946 138.638386 
L 690.031649 130.714009 
L 732.749353 127.511968 
L 775.467056 109.631665 
L 818.184759 98.65324 
L 860.902463 90.325244 
L 903.620166 94.509423 
L 946.337869 87.876625 
" style="fill:none;stroke:#0652ff;stroke-linecap:square;stroke-width:1.5;"/>
    <defs>
     <path d="M 0 -4.5 
L -4.279754 -1.390576 
L -2.645034 3.640576 
L 2.645034 3.640576 
L 4.279754 -1.390576 
z
" id="mebbbe12a65" style="stroke:#000000;stroke-linejoin:miter;"/>
    </defs>
    <g clip-path="url(#p1177238bbe)">
     <use style="fill:#0652ff;stroke:#000000;stroke-linejoin:miter;" x="134.701506" xlink:href="#mebbbe12a65" y="477.099463"/>
     <use style="fill:#0652ff;stroke:#000000;stroke-linejoin:miter;" x="177.419209" xlink:href="#mebbbe12a65" y="389.029892"/>
     <use style="fill:#0652ff;stroke:#000000;stroke-linejoin:miter;" x="220.136912" xlink:href="#mebbbe12a65" y="334.393392"/>
     <use style="fill:#0652ff;stroke:#000000;stroke-linejoin:miter;" x="262.854616" xlink:href="#mebbbe12a65" y="289.591731"/>
     <use style="fill:#0652ff;stroke:#000000;stroke-linejoin:miter;" x="305.572319" xlink:href="#mebbbe12a65" y="272.518665"/>
     <use style="fill:#0652ff;stroke:#000000;stroke-linejoin:miter;" x="348.290022" xlink:href="#mebbbe12a65" y="251.234513"/>
     <use style="fill:#0652ff;stroke:#000000;stroke-linejoin:miter;" x="391.007726" xlink:href="#mebbbe12a65" y="221.877989"/>
     <use style="fill:#0652ff;stroke:#000000;stroke-linejoin:miter;" x="433.725429" xlink:href="#mebbbe12a65" y="206.25795"/>
     <use style="fill:#0652ff;stroke:#000000;stroke-linejoin:miter;" x="476.443132" xlink:href="#mebbbe12a65" y="195.279525"/>
     <use style="fill:#0652ff;stroke:#000000;stroke-linejoin:miter;" x="519.160836" xlink:href="#mebbbe12a65" y="175.138959"/>
     <use style="fill:#0652ff;stroke:#000000;stroke-linejoin:miter;" x="561.878539" xlink:href="#mebbbe12a65" y="164.496883"/>
     <use style="fill:#0652ff;stroke:#000000;stroke-linejoin:miter;" x="604.596243" xlink:href="#mebbbe12a65" y="162.801685"/>
     <use style="fill:#0652ff;stroke:#000000;stroke-linejoin:miter;" x="647.313946" xlink:href="#mebbbe12a65" y="138.638386"/>
     <use style="fill:#0652ff;stroke:#000000;stroke-linejoin:miter;" x="690.031649" xlink:href="#mebbbe12a65" y="130.714009"/>
     <use style="fill:#0652ff;stroke:#000000;stroke-linejoin:miter;" x="732.749353" xlink:href="#mebbbe12a65" y="127.511968"/>
     <use style="fill:#0652ff;stroke:#000000;stroke-linejoin:miter;" x="775.467056" xlink:href="#mebbbe12a65" y="109.631665"/>
     <use style="fill:#0652ff;stroke:#000000;stroke-linejoin:miter;" x="818.184759" xlink:href="#mebbbe12a65" y="98.65324"/>
     <use style="fill:#0652ff;stroke:#000000;stroke-linejoin:miter;" x="860.902463" xlink:href="#mebbbe12a65" y="90.325244"/>
     <use style="fill:#0652ff;stroke:#000000;stroke-linejoin:miter;" x="903.620166" xlink:href="#mebbbe12a65" y="94.509423"/>
     <use style="fill:#0652ff;stroke:#000000;stroke-linejoin:miter;" x="946.337869" xlink:href="#mebbbe12a65" y="87.876625"/>
    </g>
   </g>
   <g id="line2d_30">
    <path clip-path="url(#p1177238bbe)" d="M 134.701506 883.260828 
L 177.419209 838.795515 
L 220.136912 810.99965 
L 262.854616 786.903622 
L 305.572319 779.611579 
L 348.290022 769.696017 
L 391.007726 754.398873 
L 433.725429 746.111238 
L 476.443132 740.823835 
L 519.160836 730.760279 
L 561.878539 724.558007 
L 604.596243 724.235112 
L 647.313946 711.373134 
L 690.031649 707.229316 
L 732.749353 707.054415 
L 775.467056 698.026813 
L 818.184759 691.837995 
L 860.902463 686.066249 
L 903.620166 690.250429 
L 946.337869 685.783716 
" style="fill:none;stroke:#0652ff;stroke-dasharray:5.55,2.4;stroke-dashoffset:0;stroke-width:1.5;"/>
    <defs>
     <path d="M -2.25 4.5 
L 0 2.25 
L 2.25 4.5 
L 4.5 2.25 
L 2.25 0 
L 4.5 -2.25 
L 2.25 -4.5 
L 0 -2.25 
L -2.25 -4.5 
L -4.5 -2.25 
L -2.25 0 
L -4.5 2.25 
z
" id="m96b735eeac" style="stroke:#000000;stroke-linejoin:miter;"/>
    </defs>
    <g clip-path="url(#p1177238bbe)">
     <use style="fill:#0652ff;stroke:#000000;stroke-linejoin:miter;" x="134.701506" xlink:href="#m96b735eeac" y="883.260828"/>
     <use style="fill:#0652ff;stroke:#000000;stroke-linejoin:miter;" x="177.419209" xlink:href="#m96b735eeac" y="838.795515"/>
     <use style="fill:#0652ff;stroke:#000000;stroke-linejoin:miter;" x="220.136912" xlink:href="#m96b735eeac" y="810.99965"/>
     <use style="fill:#0652ff;stroke:#000000;stroke-linejoin:miter;" x="262.854616" xlink:href="#m96b735eeac" y="786.903622"/>
     <use style="fill:#0652ff;stroke:#000000;stroke-linejoin:miter;" x="305.572319" xlink:href="#m96b735eeac" y="779.611579"/>
     <use style="fill:#0652ff;stroke:#000000;stroke-linejoin:miter;" x="348.290022" xlink:href="#m96b735eeac" y="769.696017"/>
     <use style="fill:#0652ff;stroke:#000000;stroke-linejoin:miter;" x="391.007726" xlink:href="#m96b735eeac" y="754.398873"/>
     <use style="fill:#0652ff;stroke:#000000;stroke-linejoin:miter;" x="433.725429" xlink:href="#m96b735eeac" y="746.111238"/>
     <use style="fill:#0652ff;stroke:#000000;stroke-linejoin:miter;" x="476.443132" xlink:href="#m96b735eeac" y="740.823835"/>
     <use style="fill:#0652ff;stroke:#000000;stroke-linejoin:miter;" x="519.160836" xlink:href="#m96b735eeac" y="730.760279"/>
     <use style="fill:#0652ff;stroke:#000000;stroke-linejoin:miter;" x="561.878539" xlink:href="#m96b735eeac" y="724.558007"/>
     <use style="fill:#0652ff;stroke:#000000;stroke-linejoin:miter;" x="604.596243" xlink:href="#m96b735eeac" y="724.235112"/>
     <use style="fill:#0652ff;stroke:#000000;stroke-linejoin:miter;" x="647.313946" xlink:href="#m96b735eeac" y="711.373134"/>
     <use style="fill:#0652ff;stroke:#000000;stroke-linejoin:miter;" x="690.031649" xlink:href="#m96b735eeac" y="707.229316"/>
     <use style="fill:#0652ff;stroke:#000000;stroke-linejoin:miter;" x="732.749353" xlink:href="#m96b735eeac" y="707.054415"/>
     <use style="fill:#0652ff;stroke:#000000;stroke-linejoin:miter;" x="775.467056" xlink:href="#m96b735eeac" y="698.026813"/>
     <use style="fill:#0652ff;stroke:#000000;stroke-linejoin:miter;" x="818.184759" xlink:href="#m96b735eeac" y="691.837995"/>
     <use style="fill:#0652ff;stroke:#000000;stroke-linejoin:miter;" x="860.902463" xlink:href="#m96b735eeac" y="686.066249"/>
     <use style="fill:#0652ff;stroke:#000000;stroke-linejoin:miter;" x="903.620166" xlink:href="#m96b735eeac" y="690.250429"/>
     <use style="fill:#0652ff;stroke:#000000;stroke-linejoin:miter;" x="946.337869" xlink:href="#m96b735eeac" y="685.783716"/>
    </g>
   </g>
   <g id="line2d_31">
    <path clip-path="url(#p1177238bbe)" d="M 134.701506 952.057612 
L 177.419209 908.453353 
L 220.136912 891.252475 
L 262.854616 871.004277 
L 305.572319 865.831232 
L 348.290022 854.839353 
L 391.007726 848.435272 
L 433.725429 839.152045 
L 476.443132 839.925647 
L 519.160836 835.943277 
L 561.878539 830.790414 
L 604.596243 831.227667 
L 647.313946 829.249936 
L 690.031649 824.655412 
L 732.749353 828.0189 
L 775.467056 819.024933 
L 818.184759 822.617138 
L 860.902463 818.924028 
L 903.620166 827.413472 
L 946.337869 824.48051 
" style="fill:none;stroke:#ae7181;stroke-linecap:square;stroke-width:1.5;"/>
    <defs>
     <path d="M -4.5 4.5 
L 4.5 4.5 
L 4.5 -4.5 
L -4.5 -4.5 
z
" id="m7ad8bb048e" style="stroke:#000000;stroke-linejoin:miter;"/>
    </defs>
    <g clip-path="url(#p1177238bbe)">
     <use style="fill:#ae7181;stroke:#000000;stroke-linejoin:miter;" x="134.701506" xlink:href="#m7ad8bb048e" y="952.057612"/>
     <use style="fill:#ae7181;stroke:#000000;stroke-linejoin:miter;" x="177.419209" xlink:href="#m7ad8bb048e" y="908.453353"/>
     <use style="fill:#ae7181;stroke:#000000;stroke-linejoin:miter;" x="220.136912" xlink:href="#m7ad8bb048e" y="891.252475"/>
     <use style="fill:#ae7181;stroke:#000000;stroke-linejoin:miter;" x="262.854616" xlink:href="#m7ad8bb048e" y="871.004277"/>
     <use style="fill:#ae7181;stroke:#000000;stroke-linejoin:miter;" x="305.572319" xlink:href="#m7ad8bb048e" y="865.831232"/>
     <use style="fill:#ae7181;stroke:#000000;stroke-linejoin:miter;" x="348.290022" xlink:href="#m7ad8bb048e" y="854.839353"/>
     <use style="fill:#ae7181;stroke:#000000;stroke-linejoin:miter;" x="391.007726" xlink:href="#m7ad8bb048e" y="848.435272"/>
     <use style="fill:#ae7181;stroke:#000000;stroke-linejoin:miter;" x="433.725429" xlink:href="#m7ad8bb048e" y="839.152045"/>
     <use style="fill:#ae7181;stroke:#000000;stroke-linejoin:miter;" x="476.443132" xlink:href="#m7ad8bb048e" y="839.925647"/>
     <use style="fill:#ae7181;stroke:#000000;stroke-linejoin:miter;" x="519.160836" xlink:href="#m7ad8bb048e" y="835.943277"/>
     <use style="fill:#ae7181;stroke:#000000;stroke-linejoin:miter;" x="561.878539" xlink:href="#m7ad8bb048e" y="830.790414"/>
     <use style="fill:#ae7181;stroke:#000000;stroke-linejoin:miter;" x="604.596243" xlink:href="#m7ad8bb048e" y="831.227667"/>
     <use style="fill:#ae7181;stroke:#000000;stroke-linejoin:miter;" x="647.313946" xlink:href="#m7ad8bb048e" y="829.249936"/>
     <use style="fill:#ae7181;stroke:#000000;stroke-linejoin:miter;" x="690.031649" xlink:href="#m7ad8bb048e" y="824.655412"/>
     <use style="fill:#ae7181;stroke:#000000;stroke-linejoin:miter;" x="732.749353" xlink:href="#m7ad8bb048e" y="828.0189"/>
     <use style="fill:#ae7181;stroke:#000000;stroke-linejoin:miter;" x="775.467056" xlink:href="#m7ad8bb048e" y="819.024933"/>
     <use style="fill:#ae7181;stroke:#000000;stroke-linejoin:miter;" x="818.184759" xlink:href="#m7ad8bb048e" y="822.617138"/>
     <use style="fill:#ae7181;stroke:#000000;stroke-linejoin:miter;" x="860.902463" xlink:href="#m7ad8bb048e" y="818.924028"/>
     <use style="fill:#ae7181;stroke:#000000;stroke-linejoin:miter;" x="903.620166" xlink:href="#m7ad8bb048e" y="827.413472"/>
     <use style="fill:#ae7181;stroke:#000000;stroke-linejoin:miter;" x="946.337869" xlink:href="#m7ad8bb048e" y="824.48051"/>
    </g>
   </g>
   <g id="line2d_32">
    <path clip-path="url(#p1177238bbe)" d="M 134.701506 952.057612 
L 177.419209 908.453353 
L 220.136912 891.252475 
L 262.854616 871.004277 
L 305.572319 865.831232 
L 348.290022 854.839353 
L 391.007726 848.435272 
L 433.725429 839.152045 
L 476.443132 839.925647 
L 519.160836 835.943277 
L 561.878539 830.790414 
L 604.596243 831.227667 
L 647.313946 829.249936 
L 690.031649 824.655412 
L 732.749353 828.0189 
L 775.467056 819.024933 
L 818.184759 822.617138 
L 860.902463 818.924028 
L 903.620166 827.413472 
L 946.337869 824.48051 
" style="fill:none;stroke:#ae7181;stroke-dasharray:5.55,2.4;stroke-dashoffset:0;stroke-width:1.5;"/>
    <defs>
     <path d="M 0 -4.5 
L -1.010313 -1.390576 
L -4.279754 -1.390576 
L -1.634721 0.531153 
L -2.645034 3.640576 
L -0 1.718847 
L 2.645034 3.640576 
L 1.634721 0.531153 
L 4.279754 -1.390576 
L 1.010313 -1.390576 
z
" id="mf0e815d5df" style="stroke:#000000;stroke-linejoin:bevel;"/>
    </defs>
    <g clip-path="url(#p1177238bbe)">
     <use style="fill:#ae7181;stroke:#000000;stroke-linejoin:bevel;" x="134.701506" xlink:href="#mf0e815d5df" y="952.057612"/>
     <use style="fill:#ae7181;stroke:#000000;stroke-linejoin:bevel;" x="177.419209" xlink:href="#mf0e815d5df" y="908.453353"/>
     <use style="fill:#ae7181;stroke:#000000;stroke-linejoin:bevel;" x="220.136912" xlink:href="#mf0e815d5df" y="891.252475"/>
     <use style="fill:#ae7181;stroke:#000000;stroke-linejoin:bevel;" x="262.854616" xlink:href="#mf0e815d5df" y="871.004277"/>
     <use style="fill:#ae7181;stroke:#000000;stroke-linejoin:bevel;" x="305.572319" xlink:href="#mf0e815d5df" y="865.831232"/>
     <use style="fill:#ae7181;stroke:#000000;stroke-linejoin:bevel;" x="348.290022" xlink:href="#mf0e815d5df" y="854.839353"/>
     <use style="fill:#ae7181;stroke:#000000;stroke-linejoin:bevel;" x="391.007726" xlink:href="#mf0e815d5df" y="848.435272"/>
     <use style="fill:#ae7181;stroke:#000000;stroke-linejoin:bevel;" x="433.725429" xlink:href="#mf0e815d5df" y="839.152045"/>
     <use style="fill:#ae7181;stroke:#000000;stroke-linejoin:bevel;" x="476.443132" xlink:href="#mf0e815d5df" y="839.925647"/>
     <use style="fill:#ae7181;stroke:#000000;stroke-linejoin:bevel;" x="519.160836" xlink:href="#mf0e815d5df" y="835.943277"/>
     <use style="fill:#ae7181;stroke:#000000;stroke-linejoin:bevel;" x="561.878539" xlink:href="#mf0e815d5df" y="830.790414"/>
     <use style="fill:#ae7181;stroke:#000000;stroke-linejoin:bevel;" x="604.596243" xlink:href="#mf0e815d5df" y="831.227667"/>
     <use style="fill:#ae7181;stroke:#000000;stroke-linejoin:bevel;" x="647.313946" xlink:href="#mf0e815d5df" y="829.249936"/>
     <use style="fill:#ae7181;stroke:#000000;stroke-linejoin:bevel;" x="690.031649" xlink:href="#mf0e815d5df" y="824.655412"/>
     <use style="fill:#ae7181;stroke:#000000;stroke-linejoin:bevel;" x="732.749353" xlink:href="#mf0e815d5df" y="828.0189"/>
     <use style="fill:#ae7181;stroke:#000000;stroke-linejoin:bevel;" x="775.467056" xlink:href="#mf0e815d5df" y="819.024933"/>
     <use style="fill:#ae7181;stroke:#000000;stroke-linejoin:bevel;" x="818.184759" xlink:href="#mf0e815d5df" y="822.617138"/>
     <use style="fill:#ae7181;stroke:#000000;stroke-linejoin:bevel;" x="860.902463" xlink:href="#mf0e815d5df" y="818.924028"/>
     <use style="fill:#ae7181;stroke:#000000;stroke-linejoin:bevel;" x="903.620166" xlink:href="#mf0e815d5df" y="827.413472"/>
     <use style="fill:#ae7181;stroke:#000000;stroke-linejoin:bevel;" x="946.337869" xlink:href="#mf0e815d5df" y="824.48051"/>
    </g>
   </g>
   <g id="patch_3">
    <path d="M 94.119688 1005.12 
L 94.119688 7.2 
" style="fill:none;stroke:#000000;stroke-linecap:square;stroke-linejoin:miter;stroke-width:0.8;"/>
   </g>
   <g id="patch_4">
    <path d="M 986.919688 1005.12 
L 986.919688 7.2 
" style="fill:none;stroke:#000000;stroke-linecap:square;stroke-linejoin:miter;stroke-width:0.8;"/>
   </g>
   <g id="patch_5">
    <path d="M 94.119688 1005.12 
L 986.919687 1005.12 
" style="fill:none;stroke:#000000;stroke-linecap:square;stroke-linejoin:miter;stroke-width:0.8;"/>
   </g>
   <g id="patch_6">
    <path d="M 94.119688 7.2 
L 986.919687 7.2 
" style="fill:none;stroke:#000000;stroke-linecap:square;stroke-linejoin:miter;stroke-width:0.8;"/>
   </g>
   <g id="legend_1">
    <g id="patch_7">
     <path d="M 115.119688 383.475 
L 591.768125 383.475 
Q 597.768125 383.475 597.768125 377.475 
L 597.768125 28.2 
Q 597.768125 22.2 591.768125 22.2 
L 115.119688 22.2 
Q 109.119688 22.2 109.119688 28.2 
L 109.119688 377.475 
Q 109.119688 383.475 115.119688 383.475 
z
" style="fill:#ffffff;opacity:0.8;stroke:#cccccc;stroke-linejoin:miter;"/>
    </g>
    <g id="line2d_33">
     <path d="M 121.119688 46.495313 
L 181.119688 46.495313 
" style="fill:none;stroke:#fe0002;stroke-linecap:square;stroke-width:1.5;"/>
    </g>
    <g id="line2d_34">
     <g>
      <use style="fill:#fe0002;stroke:#000000;" x="151.119688" xlink:href="#m80a34538f0" y="46.495313"/>
     </g>
    </g>
    <g id="text_15">
     <!-- Pairing comparisons -->
     <g transform="translate(205.119688 56.995313)scale(0.3 -0.3)">
      <defs>
       <path d="M 1259 4147 
L 1259 2394 
L 2053 2394 
Q 2494 2394 2734 2622 
Q 2975 2850 2975 3272 
Q 2975 3691 2734 3919 
Q 2494 4147 2053 4147 
L 1259 4147 
z
M 628 4666 
L 2053 4666 
Q 2838 4666 3239 4311 
Q 3641 3956 3641 3272 
Q 3641 2581 3239 2228 
Q 2838 1875 2053 1875 
L 1259 1875 
L 1259 0 
L 628 0 
L 628 4666 
z
" id="DejaVuSans-50" transform="scale(0.015625)"/>
       <path d="M 3122 3366 
L 3122 2828 
Q 2878 2963 2633 3030 
Q 2388 3097 2138 3097 
Q 1578 3097 1268 2742 
Q 959 2388 959 1747 
Q 959 1106 1268 751 
Q 1578 397 2138 397 
Q 2388 397 2633 464 
Q 2878 531 3122 666 
L 3122 134 
Q 2881 22 2623 -34 
Q 2366 -91 2075 -91 
Q 1284 -91 818 406 
Q 353 903 353 1747 
Q 353 2603 823 3093 
Q 1294 3584 2113 3584 
Q 2378 3584 2631 3529 
Q 2884 3475 3122 3366 
z
" id="DejaVuSans-63" transform="scale(0.015625)"/>
      </defs>
      <use xlink:href="#DejaVuSans-50"/>
      <use x="55.802734" xlink:href="#DejaVuSans-61"/>
      <use x="117.082031" xlink:href="#DejaVuSans-69"/>
      <use x="144.865234" xlink:href="#DejaVuSans-72"/>
      <use x="185.978516" xlink:href="#DejaVuSans-69"/>
      <use x="213.761719" xlink:href="#DejaVuSans-6e"/>
      <use x="277.140625" xlink:href="#DejaVuSans-67"/>
      <use x="340.617188" xlink:href="#DejaVuSans-20"/>
      <use x="372.404297" xlink:href="#DejaVuSans-63"/>
      <use x="427.384766" xlink:href="#DejaVuSans-6f"/>
      <use x="488.566406" xlink:href="#DejaVuSans-6d"/>
      <use x="585.978516" xlink:href="#DejaVuSans-70"/>
      <use x="649.455078" xlink:href="#DejaVuSans-61"/>
      <use x="710.734375" xlink:href="#DejaVuSans-72"/>
      <use x="751.847656" xlink:href="#DejaVuSans-69"/>
      <use x="779.630859" xlink:href="#DejaVuSans-73"/>
      <use x="831.730469" xlink:href="#DejaVuSans-6f"/>
      <use x="892.912109" xlink:href="#DejaVuSans-6e"/>
      <use x="956.291016" xlink:href="#DejaVuSans-73"/>
     </g>
    </g>
    <g id="line2d_35">
     <path d="M 121.119688 90.529688 
L 181.119688 90.529688 
" style="fill:none;stroke:#fe0002;stroke-dasharray:5.55,2.4;stroke-dashoffset:0;stroke-width:1.5;"/>
    </g>
    <g id="line2d_36">
     <g>
      <use style="fill:#fe0002;stroke:#000000;" x="151.119688" xlink:href="#m80a34538f0" y="90.529688"/>
     </g>
    </g>
    <g id="text_16">
     <!-- Pairing links -->
     <g transform="translate(205.119688 101.029688)scale(0.3 -0.3)">
      <defs>
       <path d="M 581 4863 
L 1159 4863 
L 1159 1991 
L 2875 3500 
L 3609 3500 
L 1753 1863 
L 3688 0 
L 2938 0 
L 1159 1709 
L 1159 0 
L 581 0 
L 581 4863 
z
" id="DejaVuSans-6b" transform="scale(0.015625)"/>
      </defs>
      <use xlink:href="#DejaVuSans-50"/>
      <use x="55.802734" xlink:href="#DejaVuSans-61"/>
      <use x="117.082031" xlink:href="#DejaVuSans-69"/>
      <use x="144.865234" xlink:href="#DejaVuSans-72"/>
      <use x="185.978516" xlink:href="#DejaVuSans-69"/>
      <use x="213.761719" xlink:href="#DejaVuSans-6e"/>
      <use x="277.140625" xlink:href="#DejaVuSans-67"/>
      <use x="340.617188" xlink:href="#DejaVuSans-20"/>
      <use x="372.404297" xlink:href="#DejaVuSans-6c"/>
      <use x="400.1875" xlink:href="#DejaVuSans-69"/>
      <use x="427.970703" xlink:href="#DejaVuSans-6e"/>
      <use x="491.349609" xlink:href="#DejaVuSans-6b"/>
      <use x="549.259766" xlink:href="#DejaVuSans-73"/>
     </g>
    </g>
    <g id="line2d_37">
     <path d="M 121.119688 134.564063 
L 181.119688 134.564063 
" style="fill:none;stroke:#53fca1;stroke-linecap:square;stroke-width:1.5;"/>
    </g>
    <g id="line2d_38">
     <g>
      <use style="fill:#53fca1;stroke:#000000;stroke-linejoin:miter;" x="151.119688" xlink:href="#m554c5ffb14" y="134.564063"/>
     </g>
    </g>
    <g id="text_17">
     <!-- Smooth comparisons -->
     <g transform="translate(205.119688 145.064063)scale(0.3 -0.3)">
      <defs>
       <path d="M 3425 4513 
L 3425 3897 
Q 3066 4069 2747 4153 
Q 2428 4238 2131 4238 
Q 1616 4238 1336 4038 
Q 1056 3838 1056 3469 
Q 1056 3159 1242 3001 
Q 1428 2844 1947 2747 
L 2328 2669 
Q 3034 2534 3370 2195 
Q 3706 1856 3706 1288 
Q 3706 609 3251 259 
Q 2797 -91 1919 -91 
Q 1588 -91 1214 -16 
Q 841 59 441 206 
L 441 856 
Q 825 641 1194 531 
Q 1563 422 1919 422 
Q 2459 422 2753 634 
Q 3047 847 3047 1241 
Q 3047 1584 2836 1778 
Q 2625 1972 2144 2069 
L 1759 2144 
Q 1053 2284 737 2584 
Q 422 2884 422 3419 
Q 422 4038 858 4394 
Q 1294 4750 2059 4750 
Q 2388 4750 2728 4690 
Q 3069 4631 3425 4513 
z
" id="DejaVuSans-53" transform="scale(0.015625)"/>
       <path d="M 3513 2113 
L 3513 0 
L 2938 0 
L 2938 2094 
Q 2938 2591 2744 2837 
Q 2550 3084 2163 3084 
Q 1697 3084 1428 2787 
Q 1159 2491 1159 1978 
L 1159 0 
L 581 0 
L 581 4863 
L 1159 4863 
L 1159 2956 
Q 1366 3272 1645 3428 
Q 1925 3584 2291 3584 
Q 2894 3584 3203 3211 
Q 3513 2838 3513 2113 
z
" id="DejaVuSans-68" transform="scale(0.015625)"/>
      </defs>
      <use xlink:href="#DejaVuSans-53"/>
      <use x="63.476562" xlink:href="#DejaVuSans-6d"/>
      <use x="160.888672" xlink:href="#DejaVuSans-6f"/>
      <use x="222.070312" xlink:href="#DejaVuSans-6f"/>
      <use x="283.251953" xlink:href="#DejaVuSans-74"/>
      <use x="322.460938" xlink:href="#DejaVuSans-68"/>
      <use x="385.839844" xlink:href="#DejaVuSans-20"/>
      <use x="417.626953" xlink:href="#DejaVuSans-63"/>
      <use x="472.607422" xlink:href="#DejaVuSans-6f"/>
      <use x="533.789062" xlink:href="#DejaVuSans-6d"/>
      <use x="631.201172" xlink:href="#DejaVuSans-70"/>
      <use x="694.677734" xlink:href="#DejaVuSans-61"/>
      <use x="755.957031" xlink:href="#DejaVuSans-72"/>
      <use x="797.070312" xlink:href="#DejaVuSans-69"/>
      <use x="824.853516" xlink:href="#DejaVuSans-73"/>
      <use x="876.953125" xlink:href="#DejaVuSans-6f"/>
      <use x="938.134766" xlink:href="#DejaVuSans-6e"/>
      <use x="1001.513672" xlink:href="#DejaVuSans-73"/>
     </g>
    </g>
    <g id="line2d_39">
     <path d="M 121.119688 178.598438 
L 181.119688 178.598438 
" style="fill:none;stroke:#53fca1;stroke-dasharray:5.55,2.4;stroke-dashoffset:0;stroke-width:1.5;"/>
    </g>
    <g id="line2d_40">
     <g>
      <use style="fill:#53fca1;stroke:#000000;stroke-linejoin:miter;" x="151.119688" xlink:href="#mf5e66ebcb1" y="178.598438"/>
     </g>
    </g>
    <g id="text_18">
     <!-- Smooth links -->
     <g transform="translate(205.119688 189.098438)scale(0.3 -0.3)">
      <use xlink:href="#DejaVuSans-53"/>
      <use x="63.476562" xlink:href="#DejaVuSans-6d"/>
      <use x="160.888672" xlink:href="#DejaVuSans-6f"/>
      <use x="222.070312" xlink:href="#DejaVuSans-6f"/>
      <use x="283.251953" xlink:href="#DejaVuSans-74"/>
      <use x="322.460938" xlink:href="#DejaVuSans-68"/>
      <use x="385.839844" xlink:href="#DejaVuSans-20"/>
      <use x="417.626953" xlink:href="#DejaVuSans-6c"/>
      <use x="445.410156" xlink:href="#DejaVuSans-69"/>
      <use x="473.193359" xlink:href="#DejaVuSans-6e"/>
      <use x="536.572266" xlink:href="#DejaVuSans-6b"/>
      <use x="594.482422" xlink:href="#DejaVuSans-73"/>
     </g>
    </g>
    <g id="line2d_41">
     <path d="M 121.119688 222.632813 
L 181.119688 222.632813 
" style="fill:none;stroke:#0652ff;stroke-linecap:square;stroke-width:1.5;"/>
    </g>
    <g id="line2d_42">
     <g>
      <use style="fill:#0652ff;stroke:#000000;stroke-linejoin:miter;" x="151.119688" xlink:href="#mebbbe12a65" y="222.632813"/>
     </g>
    </g>
    <g id="text_19">
     <!-- Slim comparisons -->
     <g transform="translate(205.119688 233.132813)scale(0.3 -0.3)">
      <use xlink:href="#DejaVuSans-53"/>
      <use x="63.476562" xlink:href="#DejaVuSans-6c"/>
      <use x="91.259766" xlink:href="#DejaVuSans-69"/>
      <use x="119.042969" xlink:href="#DejaVuSans-6d"/>
      <use x="216.455078" xlink:href="#DejaVuSans-20"/>
      <use x="248.242188" xlink:href="#DejaVuSans-63"/>
      <use x="303.222656" xlink:href="#DejaVuSans-6f"/>
      <use x="364.404297" xlink:href="#DejaVuSans-6d"/>
      <use x="461.816406" xlink:href="#DejaVuSans-70"/>
      <use x="525.292969" xlink:href="#DejaVuSans-61"/>
      <use x="586.572266" xlink:href="#DejaVuSans-72"/>
      <use x="627.685547" xlink:href="#DejaVuSans-69"/>
      <use x="655.46875" xlink:href="#DejaVuSans-73"/>
      <use x="707.568359" xlink:href="#DejaVuSans-6f"/>
      <use x="768.75" xlink:href="#DejaVuSans-6e"/>
      <use x="832.128906" xlink:href="#DejaVuSans-73"/>
     </g>
    </g>
    <g id="line2d_43">
     <path d="M 121.119688 266.667188 
L 181.119688 266.667188 
" style="fill:none;stroke:#0652ff;stroke-dasharray:5.55,2.4;stroke-dashoffset:0;stroke-width:1.5;"/>
    </g>
    <g id="line2d_44">
     <g>
      <use style="fill:#0652ff;stroke:#000000;stroke-linejoin:miter;" x="151.119688" xlink:href="#m96b735eeac" y="266.667188"/>
     </g>
    </g>
    <g id="text_20">
     <!-- Slim links -->
     <g transform="translate(205.119688 277.167188)scale(0.3 -0.3)">
      <use xlink:href="#DejaVuSans-53"/>
      <use x="63.476562" xlink:href="#DejaVuSans-6c"/>
      <use x="91.259766" xlink:href="#DejaVuSans-69"/>
      <use x="119.042969" xlink:href="#DejaVuSans-6d"/>
      <use x="216.455078" xlink:href="#DejaVuSans-20"/>
      <use x="248.242188" xlink:href="#DejaVuSans-6c"/>
      <use x="276.025391" xlink:href="#DejaVuSans-69"/>
      <use x="303.808594" xlink:href="#DejaVuSans-6e"/>
      <use x="367.1875" xlink:href="#DejaVuSans-6b"/>
      <use x="425.097656" xlink:href="#DejaVuSans-73"/>
     </g>
    </g>
    <g id="line2d_45">
     <path d="M 121.119688 310.701563 
L 181.119688 310.701563 
" style="fill:none;stroke:#ae7181;stroke-linecap:square;stroke-width:1.5;"/>
    </g>
    <g id="line2d_46">
     <g>
      <use style="fill:#ae7181;stroke:#000000;stroke-linejoin:miter;" x="151.119688" xlink:href="#m7ad8bb048e" y="310.701563"/>
     </g>
    </g>
    <g id="text_21">
     <!-- Pairing Lazy comparisons -->
     <g transform="translate(205.119688 321.201563)scale(0.3 -0.3)">
      <defs>
       <path d="M 628 4666 
L 1259 4666 
L 1259 531 
L 3531 531 
L 3531 0 
L 628 0 
L 628 4666 
z
" id="DejaVuSans-4c" transform="scale(0.015625)"/>
      </defs>
      <use xlink:href="#DejaVuSans-50"/>
      <use x="55.802734" xlink:href="#DejaVuSans-61"/>
      <use x="117.082031" xlink:href="#DejaVuSans-69"/>
      <use x="144.865234" xlink:href="#DejaVuSans-72"/>
      <use x="185.978516" xlink:href="#DejaVuSans-69"/>
      <use x="213.761719" xlink:href="#DejaVuSans-6e"/>
      <use x="277.140625" xlink:href="#DejaVuSans-67"/>
      <use x="340.617188" xlink:href="#DejaVuSans-20"/>
      <use x="372.404297" xlink:href="#DejaVuSans-4c"/>
      <use x="428.117188" xlink:href="#DejaVuSans-61"/>
      <use x="489.396484" xlink:href="#DejaVuSans-7a"/>
      <use x="541.886719" xlink:href="#DejaVuSans-79"/>
      <use x="601.066406" xlink:href="#DejaVuSans-20"/>
      <use x="632.853516" xlink:href="#DejaVuSans-63"/>
      <use x="687.833984" xlink:href="#DejaVuSans-6f"/>
      <use x="749.015625" xlink:href="#DejaVuSans-6d"/>
      <use x="846.427734" xlink:href="#DejaVuSans-70"/>
      <use x="909.904297" xlink:href="#DejaVuSans-61"/>
      <use x="971.183594" xlink:href="#DejaVuSans-72"/>
      <use x="1012.296875" xlink:href="#DejaVuSans-69"/>
      <use x="1040.080078" xlink:href="#DejaVuSans-73"/>
      <use x="1092.179688" xlink:href="#DejaVuSans-6f"/>
      <use x="1153.361328" xlink:href="#DejaVuSans-6e"/>
      <use x="1216.740234" xlink:href="#DejaVuSans-73"/>
     </g>
    </g>
    <g id="line2d_47">
     <path d="M 121.119688 354.735938 
L 181.119688 354.735938 
" style="fill:none;stroke:#ae7181;stroke-dasharray:5.55,2.4;stroke-dashoffset:0;stroke-width:1.5;"/>
    </g>
    <g id="line2d_48">
     <g>
      <use style="fill:#ae7181;stroke:#000000;stroke-linejoin:bevel;" x="151.119688" xlink:href="#mf0e815d5df" y="354.735938"/>
     </g>
    </g>
    <g id="text_22">
     <!-- Pairing Lazy links -->
     <g transform="translate(205.119688 365.235938)scale(0.3 -0.3)">
      <use xlink:href="#DejaVuSans-50"/>
      <use x="55.802734" xlink:href="#DejaVuSans-61"/>
      <use x="117.082031" xlink:href="#DejaVuSans-69"/>
      <use x="144.865234" xlink:href="#DejaVuSans-72"/>
      <use x="185.978516" xlink:href="#DejaVuSans-69"/>
      <use x="213.761719" xlink:href="#DejaVuSans-6e"/>
      <use x="277.140625" xlink:href="#DejaVuSans-67"/>
      <use x="340.617188" xlink:href="#DejaVuSans-20"/>
      <use x="372.404297" xlink:href="#DejaVuSans-4c"/>
      <use x="428.117188" xlink:href="#DejaVuSans-61"/>
      <use x="489.396484" xlink:href="#DejaVuSans-7a"/>
      <use x="541.886719" xlink:href="#DejaVuSans-79"/>
      <use x="601.066406" xlink:href="#DejaVuSans-20"/>
      <use x="632.853516" xlink:href="#DejaVuSans-6c"/>
      <use x="660.636719" xlink:href="#DejaVuSans-69"/>
      <use x="688.419922" xlink:href="#DejaVuSans-6e"/>
      <use x="751.798828" xlink:href="#DejaVuSans-6b"/>
      <use x="809.708984" xlink:href="#DejaVuSans-73"/>
     </g>
    </g>
   </g>
  </g>
 </g>
 <defs>
  <clipPath id="p1177238bbe">
   <rect height="997.92" width="892.8" x="94.119688" y="7.2"/>
  </clipPath>
 </defs>
</svg>
