<?xml version="1.0" encoding="utf-8" standalone="no"?>
<!DOCTYPE svg PUBLIC "-//W3C//DTD SVG 1.1//EN"
  "http://www.w3.org/Graphics/SVG/1.1/DTD/svg11.dtd">
<svg height="1090.099062pt" version="1.1" viewBox="0 0 1019.489765 1090.099062" width="1019.489765pt" xmlns="http://www.w3.org/2000/svg" xmlns:xlink="http://www.w3.org/1999/xlink">
 <metadata>
  <rdf:RDF xmlns:cc="http://creativecommons.org/ns#" xmlns:dc="http://purl.org/dc/elements/1.1/" xmlns:rdf="http://www.w3.org/1999/02/22-rdf-syntax-ns#">
   <cc:Work>
    <dc:type rdf:resource="http://purl.org/dc/dcmitype/StillImage"/>
    <dc:date>2021-07-04T14:01:55.685229</dc:date>
    <dc:format>image/svg+xml</dc:format>
    <dc:creator>
     <cc:Agent>
      <dc:title>Matplotlib v3.4.2, https://matplotlib.org/</dc:title>
     </cc:Agent>
    </dc:creator>
   </cc:Work>
  </rdf:RDF>
 </metadata>
 <defs>
  <style type="text/css">*{stroke-linecap:butt;stroke-linejoin:round;}</style>
 </defs>
 <g id="figure_1">
  <g id="patch_1">
   <path d="M 0 1090.099062 
L 1019.489765 1090.099062 
L 1019.489765 0 
L 0 0 
z
" style="fill:#ffffff;"/>
  </g>
  <g id="axes_1">
   <g id="patch_2">
    <path d="M 113.207188 1005.12 
L 1006.007187 1005.12 
L 1006.007187 7.2 
L 113.207188 7.2 
z
" style="fill:#ffffff;"/>
   </g>
   <g id="PolyCollection_1">
    <defs>
     <path d="M 153.789006 -137.562424 
L 153.789006 -135.964833 
L 196.506709 -167.437877 
L 239.224412 -202.384584 
L 281.942116 -238.22047 
L 324.659819 -277.354138 
L 367.377522 -311.89534 
L 410.095226 -354.214419 
L 452.812929 -388.62371 
L 495.530632 -429.125346 
L 538.248336 -469.822406 
L 580.966039 -509.097756 
L 623.683743 -551.206754 
L 666.401446 -590.08637 
L 709.119149 -632.444535 
L 751.836853 -676.038756 
L 794.554556 -718.929451 
L 837.272259 -761.092192 
L 879.989963 -815.444507 
L 922.707666 -849.741429 
L 965.425369 -895.832193 
L 965.425369 -935.190598 
L 965.425369 -935.190598 
L 922.707666 -891.601262 
L 879.989963 -843.893364 
L 837.272259 -798.212991 
L 794.554556 -753.783332 
L 751.836853 -706.627507 
L 709.119149 -667.005279 
L 666.401446 -624.290466 
L 623.683743 -580.114858 
L 580.966039 -537.292562 
L 538.248336 -488.690599 
L 495.530632 -448.389272 
L 452.812929 -407.706869 
L 410.095226 -368.035786 
L 367.377522 -326.879479 
L 324.659819 -283.06052 
L 281.942116 -246.447823 
L 239.224412 -207.651262 
L 196.506709 -172.489589 
L 153.789006 -137.562424 
z
" id="m5389a5c699" style="stroke:#fe0002;stroke-opacity:0.3;"/>
    </defs>
    <g clip-path="url(#p887693cdb7)">
     <use style="fill:#fe0002;fill-opacity:0.3;stroke:#fe0002;stroke-opacity:0.3;" x="0" xlink:href="#m5389a5c699" y="1090.099062"/>
    </g>
   </g>
   <g id="PolyCollection_2">
    <defs>
     <path d="M 153.789006 -131.206257 
L 153.789006 -130.927777 
L 196.506709 -157.544534 
L 239.224412 -186.418438 
L 281.942116 -216.176637 
L 324.659819 -247.190435 
L 367.377522 -278.888217 
L 410.095226 -311.426322 
L 452.812929 -343.353727 
L 495.530632 -376.380393 
L 538.248336 -409.421715 
L 580.966039 -443.376645 
L 623.683743 -476.720875 
L 666.401446 -510.177474 
L 709.119149 -546.589861 
L 751.836853 -581.819933 
L 794.554556 -616.419762 
L 837.272259 -650.975621 
L 879.989963 -686.982504 
L 922.707666 -723.072441 
L 965.425369 -757.379134 
L 965.425369 -761.478154 
L 965.425369 -761.478154 
L 922.707666 -725.715552 
L 879.989963 -690.094632 
L 837.272259 -655.177238 
L 794.554556 -618.628054 
L 751.836853 -583.612949 
L 709.119149 -548.788382 
L 666.401446 -513.885645 
L 623.683743 -480.922492 
L 580.966039 -445.355314 
L 538.248336 -411.854745 
L 495.530632 -378.266235 
L 452.812929 -344.975747 
L 410.095226 -312.686807 
L 367.377522 -280.559092 
L 324.659819 -248.949251 
L 281.942116 -217.613004 
L 239.224412 -187.488385 
L 196.506709 -158.756163 
L 153.789006 -131.206257 
z
" id="mc8eefa3b0b" style="stroke:#53fca1;stroke-opacity:0.3;"/>
    </defs>
    <g clip-path="url(#p887693cdb7)">
     <use style="fill:#53fca1;fill-opacity:0.3;stroke:#53fca1;stroke-opacity:0.3;" x="0" xlink:href="#mc8eefa3b0b" y="1090.099062"/>
    </g>
   </g>
   <g id="PolyCollection_3">
    <defs>
     <path d="M 153.789006 -133.785854 
L 153.789006 -132.618196 
L 196.506709 -162.474106 
L 239.224412 -195.251606 
L 281.942116 -229.392189 
L 324.659819 -264.104387 
L 367.377522 -301.195873 
L 410.095226 -338.091935 
L 452.812929 -374.97334 
L 495.530632 -413.852956 
L 538.248336 -451.906905 
L 580.966039 -492.183804 
L 623.683743 -531.737633 
L 666.401446 -572.317438 
L 709.119149 -610.244362 
L 751.836853 -653.716443 
L 794.554556 -695.556734 
L 837.272259 -736.092569 
L 879.989963 -778.040343 
L 922.707666 -819.401845 
L 965.425369 -862.09223 
L 965.425369 -867.358908 
L 965.425369 -867.358908 
L 922.707666 -823.950339 
L 879.989963 -782.471583 
L 837.272259 -740.528695 
L 794.554556 -699.562927 
L 751.836853 -656.247185 
L 709.119149 -616.028914 
L 666.401446 -575.107117 
L 623.683743 -535.509317 
L 580.966039 -494.499579 
L 538.248336 -456.4896 
L 495.530632 -416.075905 
L 452.812929 -378.051269 
L 410.095226 -339.572272 
L 367.377522 -303.526305 
L 324.659819 -265.872974 
L 281.942116 -230.633131 
L 239.224412 -196.575604 
L 196.506709 -163.900701 
L 153.789006 -133.785854 
z
" id="mc481f824e9" style="stroke:#0652ff;stroke-opacity:0.3;"/>
    </defs>
    <g clip-path="url(#p887693cdb7)">
     <use style="fill:#0652ff;fill-opacity:0.3;stroke:#0652ff;stroke-opacity:0.3;" x="0" xlink:href="#mc481f824e9" y="1090.099062"/>
    </g>
   </g>
   <g id="PolyCollection_4">
    <defs>
     <path d="M 153.789006 -130.925335 
L 153.789006 -130.339063 
L 196.506709 -158.492341 
L 239.224412 -189.476825 
L 281.942116 -223.185032 
L 324.659819 -256.133528 
L 367.377522 -292.790195 
L 410.095226 -329.029144 
L 452.812929 -366.48705 
L 495.530632 -404.284506 
L 538.248336 -442.2383 
L 580.966039 -481.94114 
L 623.683743 -522.398806 
L 666.401446 -559.544033 
L 709.119149 -602.788934 
L 751.836853 -644.169978 
L 794.554556 -686.821279 
L 837.272259 -726.702443 
L 879.989963 -770.123226 
L 922.707666 -811.553126 
L 965.425369 -855.369642 
L 965.425369 -859.588359 
L 965.425369 -859.588359 
L 922.707666 -816.108949 
L 879.989963 -772.524499 
L 837.272259 -730.483899 
L 794.554556 -689.178581 
L 751.836853 -648.185943 
L 709.119149 -606.172213 
L 666.401446 -564.859568 
L 623.683743 -526.490497 
L 580.966039 -485.055711 
L 538.248336 -446.725725 
L 495.530632 -407.482132 
L 452.812929 -369.191231 
L 410.095226 -331.840808 
L 367.377522 -294.910546 
L 324.659819 -258.89145 
L 281.942116 -224.093754 
L 239.224412 -191.010904 
L 196.506709 -159.652671 
L 153.789006 -130.925335 
z
" id="mcabc49f520" style="stroke:#ae7181;stroke-opacity:0.3;"/>
    </defs>
    <g clip-path="url(#p887693cdb7)">
     <use style="fill:#ae7181;fill-opacity:0.3;stroke:#ae7181;stroke-opacity:0.3;" x="0" xlink:href="#mcabc49f520" y="1090.099062"/>
    </g>
   </g>
   <g id="PolyCollection_5">
    <defs>
     <path d="M 153.789006 -138.585958 
L 153.789006 -137.633265 
L 196.506709 -173.627934 
L 239.224412 -214.197968 
L 281.942116 -255.092895 
L 324.659819 -298.867884 
L 367.377522 -343.961985 
L 410.095226 -389.0512 
L 452.812929 -434.108659 
L 495.530632 -482.187863 
L 538.248336 -528.796501 
L 580.966039 -576.057366 
L 623.683743 -626.10791 
L 666.401446 -675.042094 
L 709.119149 -724.269414 
L 751.836853 -774.527595 
L 794.554556 -825.284109 
L 837.272259 -874.953576 
L 879.989963 -926.806906 
L 922.707666 -979.70087 
L 965.425369 -1031.107168 
L 965.425369 -1037.539062 
L 965.425369 -1037.539062 
L 922.707666 -984.156539 
L 879.989963 -931.802434 
L 837.272259 -879.147864 
L 794.554556 -830.054898 
L 751.836853 -778.607073 
L 709.119149 -729.856099 
L 666.401446 -678.115137 
L 623.683743 -630.925113 
L 580.966039 -579.96829 
L 538.248336 -532.575513 
L 495.530632 -484.352184 
L 452.812929 -437.755761 
L 410.095226 -391.017655 
L 367.377522 -345.999281 
L 324.659819 -300.118598 
L 281.942116 -257.296301 
L 239.224412 -215.678305 
L 196.506709 -175.535761 
L 153.789006 -138.585958 
z
" id="md44fa8c7af" style="stroke:#ff81c0;stroke-opacity:0.3;"/>
    </defs>
    <g clip-path="url(#p887693cdb7)">
     <use style="fill:#ff81c0;fill-opacity:0.3;stroke:#ff81c0;stroke-opacity:0.3;" x="0" xlink:href="#md44fa8c7af" y="1090.099062"/>
    </g>
   </g>
   <g id="PolyCollection_6">
    <defs>
     <path d="M 153.789006 -136.766071 
L 153.789006 -136.284839 
L 196.506709 -169.946633 
L 239.224412 -207.250643 
L 281.942116 -245.846894 
L 324.659819 -285.688974 
L 367.377522 -326.974749 
L 410.095226 -367.55944 
L 452.812929 -411.060835 
L 495.530632 -453.712135 
L 538.248336 -496.265724 
L 580.966039 -540.873707 
L 623.683743 -585.906738 
L 666.401446 -630.175173 
L 709.119149 -676.256166 
L 751.836853 -722.63518 
L 794.554556 -768.65266 
L 837.272259 -815.251526 
L 879.989963 -861.672068 
L 922.707666 -907.897186 
L 965.425369 -956.70923 
L 965.425369 -960.744737 
L 965.425369 -960.744737 
L 922.707666 -913.525399 
L 879.989963 -867.226997 
L 837.272259 -818.317241 
L 794.554556 -772.937332 
L 751.836853 -725.893876 
L 709.119149 -681.774452 
L 666.401446 -634.474502 
L 623.683743 -589.133678 
L 580.966039 -547.20789 
L 538.248336 -499.993437 
L 495.530632 -457.278624 
L 452.812929 -413.112787 
L 410.095226 -370.801036 
L 367.377522 -328.435543 
L 324.659819 -287.252366 
L 281.942116 -247.122036 
L 239.224412 -208.572198 
L 196.506709 -171.30483 
L 153.789006 -136.766071 
z
" id="m0e88fedd28" style="stroke:#f97306;stroke-opacity:0.3;"/>
    </defs>
    <g clip-path="url(#p887693cdb7)">
     <use style="fill:#f97306;fill-opacity:0.3;stroke:#f97306;stroke-opacity:0.3;" x="0" xlink:href="#m0e88fedd28" y="1090.099062"/>
    </g>
   </g>
   <g id="matplotlib.axis_1">
    <g id="xtick_1">
     <g id="line2d_1">
      <path clip-path="url(#p887693cdb7)" d="M 281.087762 1005.12 
L 281.087762 7.2 
" style="fill:none;stroke:#b0b0b0;stroke-linecap:square;stroke-width:0.8;"/>
     </g>
     <g id="line2d_2">
      <defs>
       <path d="M 0 0 
L 0 3.5 
" id="me5d152a94f" style="stroke:#000000;stroke-width:0.8;"/>
      </defs>
      <g>
       <use style="stroke:#000000;stroke-width:0.8;" x="281.087762" xlink:href="#me5d152a94f" y="1005.12"/>
      </g>
     </g>
     <g id="text_1">
      <!-- 2000 -->
      <g transform="translate(242.912762 1034.915313)scale(0.3 -0.3)">
       <defs>
        <path d="M 1228 531 
L 3431 531 
L 3431 0 
L 469 0 
L 469 531 
Q 828 903 1448 1529 
Q 2069 2156 2228 2338 
Q 2531 2678 2651 2914 
Q 2772 3150 2772 3378 
Q 2772 3750 2511 3984 
Q 2250 4219 1831 4219 
Q 1534 4219 1204 4116 
Q 875 4013 500 3803 
L 500 4441 
Q 881 4594 1212 4672 
Q 1544 4750 1819 4750 
Q 2544 4750 2975 4387 
Q 3406 4025 3406 3419 
Q 3406 3131 3298 2873 
Q 3191 2616 2906 2266 
Q 2828 2175 2409 1742 
Q 1991 1309 1228 531 
z
" id="DejaVuSans-32" transform="scale(0.015625)"/>
        <path d="M 2034 4250 
Q 1547 4250 1301 3770 
Q 1056 3291 1056 2328 
Q 1056 1369 1301 889 
Q 1547 409 2034 409 
Q 2525 409 2770 889 
Q 3016 1369 3016 2328 
Q 3016 3291 2770 3770 
Q 2525 4250 2034 4250 
z
M 2034 4750 
Q 2819 4750 3233 4129 
Q 3647 3509 3647 2328 
Q 3647 1150 3233 529 
Q 2819 -91 2034 -91 
Q 1250 -91 836 529 
Q 422 1150 422 2328 
Q 422 3509 836 4129 
Q 1250 4750 2034 4750 
z
" id="DejaVuSans-30" transform="scale(0.015625)"/>
       </defs>
       <use xlink:href="#DejaVuSans-32"/>
       <use x="63.623047" xlink:href="#DejaVuSans-30"/>
       <use x="127.246094" xlink:href="#DejaVuSans-30"/>
       <use x="190.869141" xlink:href="#DejaVuSans-30"/>
      </g>
     </g>
    </g>
    <g id="xtick_2">
     <g id="line2d_3">
      <path clip-path="url(#p887693cdb7)" d="M 451.958575 1005.12 
L 451.958575 7.2 
" style="fill:none;stroke:#b0b0b0;stroke-linecap:square;stroke-width:0.8;"/>
     </g>
     <g id="line2d_4">
      <g>
       <use style="stroke:#000000;stroke-width:0.8;" x="451.958575" xlink:href="#me5d152a94f" y="1005.12"/>
      </g>
     </g>
     <g id="text_2">
      <!-- 4000 -->
      <g transform="translate(413.783575 1034.915313)scale(0.3 -0.3)">
       <defs>
        <path d="M 2419 4116 
L 825 1625 
L 2419 1625 
L 2419 4116 
z
M 2253 4666 
L 3047 4666 
L 3047 1625 
L 3713 1625 
L 3713 1100 
L 3047 1100 
L 3047 0 
L 2419 0 
L 2419 1100 
L 313 1100 
L 313 1709 
L 2253 4666 
z
" id="DejaVuSans-34" transform="scale(0.015625)"/>
       </defs>
       <use xlink:href="#DejaVuSans-34"/>
       <use x="63.623047" xlink:href="#DejaVuSans-30"/>
       <use x="127.246094" xlink:href="#DejaVuSans-30"/>
       <use x="190.869141" xlink:href="#DejaVuSans-30"/>
      </g>
     </g>
    </g>
    <g id="xtick_3">
     <g id="line2d_5">
      <path clip-path="url(#p887693cdb7)" d="M 622.829388 1005.12 
L 622.829388 7.2 
" style="fill:none;stroke:#b0b0b0;stroke-linecap:square;stroke-width:0.8;"/>
     </g>
     <g id="line2d_6">
      <g>
       <use style="stroke:#000000;stroke-width:0.8;" x="622.829388" xlink:href="#me5d152a94f" y="1005.12"/>
      </g>
     </g>
     <g id="text_3">
      <!-- 6000 -->
      <g transform="translate(584.654388 1034.915313)scale(0.3 -0.3)">
       <defs>
        <path d="M 2113 2584 
Q 1688 2584 1439 2293 
Q 1191 2003 1191 1497 
Q 1191 994 1439 701 
Q 1688 409 2113 409 
Q 2538 409 2786 701 
Q 3034 994 3034 1497 
Q 3034 2003 2786 2293 
Q 2538 2584 2113 2584 
z
M 3366 4563 
L 3366 3988 
Q 3128 4100 2886 4159 
Q 2644 4219 2406 4219 
Q 1781 4219 1451 3797 
Q 1122 3375 1075 2522 
Q 1259 2794 1537 2939 
Q 1816 3084 2150 3084 
Q 2853 3084 3261 2657 
Q 3669 2231 3669 1497 
Q 3669 778 3244 343 
Q 2819 -91 2113 -91 
Q 1303 -91 875 529 
Q 447 1150 447 2328 
Q 447 3434 972 4092 
Q 1497 4750 2381 4750 
Q 2619 4750 2861 4703 
Q 3103 4656 3366 4563 
z
" id="DejaVuSans-36" transform="scale(0.015625)"/>
       </defs>
       <use xlink:href="#DejaVuSans-36"/>
       <use x="63.623047" xlink:href="#DejaVuSans-30"/>
       <use x="127.246094" xlink:href="#DejaVuSans-30"/>
       <use x="190.869141" xlink:href="#DejaVuSans-30"/>
      </g>
     </g>
    </g>
    <g id="xtick_4">
     <g id="line2d_7">
      <path clip-path="url(#p887693cdb7)" d="M 793.700202 1005.12 
L 793.700202 7.2 
" style="fill:none;stroke:#b0b0b0;stroke-linecap:square;stroke-width:0.8;"/>
     </g>
     <g id="line2d_8">
      <g>
       <use style="stroke:#000000;stroke-width:0.8;" x="793.700202" xlink:href="#me5d152a94f" y="1005.12"/>
      </g>
     </g>
     <g id="text_4">
      <!-- 8000 -->
      <g transform="translate(755.525202 1034.915313)scale(0.3 -0.3)">
       <defs>
        <path d="M 2034 2216 
Q 1584 2216 1326 1975 
Q 1069 1734 1069 1313 
Q 1069 891 1326 650 
Q 1584 409 2034 409 
Q 2484 409 2743 651 
Q 3003 894 3003 1313 
Q 3003 1734 2745 1975 
Q 2488 2216 2034 2216 
z
M 1403 2484 
Q 997 2584 770 2862 
Q 544 3141 544 3541 
Q 544 4100 942 4425 
Q 1341 4750 2034 4750 
Q 2731 4750 3128 4425 
Q 3525 4100 3525 3541 
Q 3525 3141 3298 2862 
Q 3072 2584 2669 2484 
Q 3125 2378 3379 2068 
Q 3634 1759 3634 1313 
Q 3634 634 3220 271 
Q 2806 -91 2034 -91 
Q 1263 -91 848 271 
Q 434 634 434 1313 
Q 434 1759 690 2068 
Q 947 2378 1403 2484 
z
M 1172 3481 
Q 1172 3119 1398 2916 
Q 1625 2713 2034 2713 
Q 2441 2713 2670 2916 
Q 2900 3119 2900 3481 
Q 2900 3844 2670 4047 
Q 2441 4250 2034 4250 
Q 1625 4250 1398 4047 
Q 1172 3844 1172 3481 
z
" id="DejaVuSans-38" transform="scale(0.015625)"/>
       </defs>
       <use xlink:href="#DejaVuSans-38"/>
       <use x="63.623047" xlink:href="#DejaVuSans-30"/>
       <use x="127.246094" xlink:href="#DejaVuSans-30"/>
       <use x="190.869141" xlink:href="#DejaVuSans-30"/>
      </g>
     </g>
    </g>
    <g id="xtick_5">
     <g id="line2d_9">
      <path clip-path="url(#p887693cdb7)" d="M 964.571015 1005.12 
L 964.571015 7.2 
" style="fill:none;stroke:#b0b0b0;stroke-linecap:square;stroke-width:0.8;"/>
     </g>
     <g id="line2d_10">
      <g>
       <use style="stroke:#000000;stroke-width:0.8;" x="964.571015" xlink:href="#me5d152a94f" y="1005.12"/>
      </g>
     </g>
     <g id="text_5">
      <!-- 10000 -->
      <g transform="translate(916.852265 1034.915313)scale(0.3 -0.3)">
       <defs>
        <path d="M 794 531 
L 1825 531 
L 1825 4091 
L 703 3866 
L 703 4441 
L 1819 4666 
L 2450 4666 
L 2450 531 
L 3481 531 
L 3481 0 
L 794 0 
L 794 531 
z
" id="DejaVuSans-31" transform="scale(0.015625)"/>
       </defs>
       <use xlink:href="#DejaVuSans-31"/>
       <use x="63.623047" xlink:href="#DejaVuSans-30"/>
       <use x="127.246094" xlink:href="#DejaVuSans-30"/>
       <use x="190.869141" xlink:href="#DejaVuSans-30"/>
       <use x="254.492188" xlink:href="#DejaVuSans-30"/>
      </g>
     </g>
    </g>
    <g id="text_6">
     <!-- Graph size -->
     <g transform="translate(455.787969 1074.788281)scale(0.39 -0.39)">
      <defs>
       <path d="M 3809 666 
L 3809 1919 
L 2778 1919 
L 2778 2438 
L 4434 2438 
L 4434 434 
Q 4069 175 3628 42 
Q 3188 -91 2688 -91 
Q 1594 -91 976 548 
Q 359 1188 359 2328 
Q 359 3472 976 4111 
Q 1594 4750 2688 4750 
Q 3144 4750 3555 4637 
Q 3966 4525 4313 4306 
L 4313 3634 
Q 3963 3931 3569 4081 
Q 3175 4231 2741 4231 
Q 1884 4231 1454 3753 
Q 1025 3275 1025 2328 
Q 1025 1384 1454 906 
Q 1884 428 2741 428 
Q 3075 428 3337 486 
Q 3600 544 3809 666 
z
" id="DejaVuSans-47" transform="scale(0.015625)"/>
       <path d="M 2631 2963 
Q 2534 3019 2420 3045 
Q 2306 3072 2169 3072 
Q 1681 3072 1420 2755 
Q 1159 2438 1159 1844 
L 1159 0 
L 581 0 
L 581 3500 
L 1159 3500 
L 1159 2956 
Q 1341 3275 1631 3429 
Q 1922 3584 2338 3584 
Q 2397 3584 2469 3576 
Q 2541 3569 2628 3553 
L 2631 2963 
z
" id="DejaVuSans-72" transform="scale(0.015625)"/>
       <path d="M 2194 1759 
Q 1497 1759 1228 1600 
Q 959 1441 959 1056 
Q 959 750 1161 570 
Q 1363 391 1709 391 
Q 2188 391 2477 730 
Q 2766 1069 2766 1631 
L 2766 1759 
L 2194 1759 
z
M 3341 1997 
L 3341 0 
L 2766 0 
L 2766 531 
Q 2569 213 2275 61 
Q 1981 -91 1556 -91 
Q 1019 -91 701 211 
Q 384 513 384 1019 
Q 384 1609 779 1909 
Q 1175 2209 1959 2209 
L 2766 2209 
L 2766 2266 
Q 2766 2663 2505 2880 
Q 2244 3097 1772 3097 
Q 1472 3097 1187 3025 
Q 903 2953 641 2809 
L 641 3341 
Q 956 3463 1253 3523 
Q 1550 3584 1831 3584 
Q 2591 3584 2966 3190 
Q 3341 2797 3341 1997 
z
" id="DejaVuSans-61" transform="scale(0.015625)"/>
       <path d="M 1159 525 
L 1159 -1331 
L 581 -1331 
L 581 3500 
L 1159 3500 
L 1159 2969 
Q 1341 3281 1617 3432 
Q 1894 3584 2278 3584 
Q 2916 3584 3314 3078 
Q 3713 2572 3713 1747 
Q 3713 922 3314 415 
Q 2916 -91 2278 -91 
Q 1894 -91 1617 61 
Q 1341 213 1159 525 
z
M 3116 1747 
Q 3116 2381 2855 2742 
Q 2594 3103 2138 3103 
Q 1681 3103 1420 2742 
Q 1159 2381 1159 1747 
Q 1159 1113 1420 752 
Q 1681 391 2138 391 
Q 2594 391 2855 752 
Q 3116 1113 3116 1747 
z
" id="DejaVuSans-70" transform="scale(0.015625)"/>
       <path d="M 3513 2113 
L 3513 0 
L 2938 0 
L 2938 2094 
Q 2938 2591 2744 2837 
Q 2550 3084 2163 3084 
Q 1697 3084 1428 2787 
Q 1159 2491 1159 1978 
L 1159 0 
L 581 0 
L 581 4863 
L 1159 4863 
L 1159 2956 
Q 1366 3272 1645 3428 
Q 1925 3584 2291 3584 
Q 2894 3584 3203 3211 
Q 3513 2838 3513 2113 
z
" id="DejaVuSans-68" transform="scale(0.015625)"/>
       <path id="DejaVuSans-20" transform="scale(0.015625)"/>
       <path d="M 2834 3397 
L 2834 2853 
Q 2591 2978 2328 3040 
Q 2066 3103 1784 3103 
Q 1356 3103 1142 2972 
Q 928 2841 928 2578 
Q 928 2378 1081 2264 
Q 1234 2150 1697 2047 
L 1894 2003 
Q 2506 1872 2764 1633 
Q 3022 1394 3022 966 
Q 3022 478 2636 193 
Q 2250 -91 1575 -91 
Q 1294 -91 989 -36 
Q 684 19 347 128 
L 347 722 
Q 666 556 975 473 
Q 1284 391 1588 391 
Q 1994 391 2212 530 
Q 2431 669 2431 922 
Q 2431 1156 2273 1281 
Q 2116 1406 1581 1522 
L 1381 1569 
Q 847 1681 609 1914 
Q 372 2147 372 2553 
Q 372 3047 722 3315 
Q 1072 3584 1716 3584 
Q 2034 3584 2315 3537 
Q 2597 3491 2834 3397 
z
" id="DejaVuSans-73" transform="scale(0.015625)"/>
       <path d="M 603 3500 
L 1178 3500 
L 1178 0 
L 603 0 
L 603 3500 
z
M 603 4863 
L 1178 4863 
L 1178 4134 
L 603 4134 
L 603 4863 
z
" id="DejaVuSans-69" transform="scale(0.015625)"/>
       <path d="M 353 3500 
L 3084 3500 
L 3084 2975 
L 922 459 
L 3084 459 
L 3084 0 
L 275 0 
L 275 525 
L 2438 3041 
L 353 3041 
L 353 3500 
z
" id="DejaVuSans-7a" transform="scale(0.015625)"/>
       <path d="M 3597 1894 
L 3597 1613 
L 953 1613 
Q 991 1019 1311 708 
Q 1631 397 2203 397 
Q 2534 397 2845 478 
Q 3156 559 3463 722 
L 3463 178 
Q 3153 47 2828 -22 
Q 2503 -91 2169 -91 
Q 1331 -91 842 396 
Q 353 884 353 1716 
Q 353 2575 817 3079 
Q 1281 3584 2069 3584 
Q 2775 3584 3186 3129 
Q 3597 2675 3597 1894 
z
M 3022 2063 
Q 3016 2534 2758 2815 
Q 2500 3097 2075 3097 
Q 1594 3097 1305 2825 
Q 1016 2553 972 2059 
L 3022 2063 
z
" id="DejaVuSans-65" transform="scale(0.015625)"/>
      </defs>
      <use xlink:href="#DejaVuSans-47"/>
      <use x="77.490234" xlink:href="#DejaVuSans-72"/>
      <use x="118.603516" xlink:href="#DejaVuSans-61"/>
      <use x="179.882812" xlink:href="#DejaVuSans-70"/>
      <use x="243.359375" xlink:href="#DejaVuSans-68"/>
      <use x="306.738281" xlink:href="#DejaVuSans-20"/>
      <use x="338.525391" xlink:href="#DejaVuSans-73"/>
      <use x="390.625" xlink:href="#DejaVuSans-69"/>
      <use x="418.408203" xlink:href="#DejaVuSans-7a"/>
      <use x="470.898438" xlink:href="#DejaVuSans-65"/>
     </g>
    </g>
   </g>
   <g id="matplotlib.axis_2">
    <g id="ytick_1">
     <g id="line2d_11">
      <path clip-path="url(#p887693cdb7)" d="M 113.207188 981.400772 
L 1006.007187 981.400772 
" style="fill:none;stroke:#b0b0b0;stroke-linecap:square;stroke-width:0.8;"/>
     </g>
     <g id="line2d_12">
      <defs>
       <path d="M 0 0 
L -3.5 0 
" id="ma3b1e1a427" style="stroke:#000000;stroke-width:0.8;"/>
      </defs>
      <g>
       <use style="stroke:#000000;stroke-width:0.8;" x="113.207188" xlink:href="#ma3b1e1a427" y="981.400772"/>
      </g>
     </g>
     <g id="text_7">
      <!-- 0 -->
      <g transform="translate(87.119687 992.798428)scale(0.3 -0.3)">
       <use xlink:href="#DejaVuSans-30"/>
      </g>
     </g>
    </g>
    <g id="ytick_2">
     <g id="line2d_13">
      <path clip-path="url(#p887693cdb7)" d="M 113.207188 859.260736 
L 1006.007187 859.260736 
" style="fill:none;stroke:#b0b0b0;stroke-linecap:square;stroke-width:0.8;"/>
     </g>
     <g id="line2d_14">
      <g>
       <use style="stroke:#000000;stroke-width:0.8;" x="113.207188" xlink:href="#ma3b1e1a427" y="859.260736"/>
      </g>
     </g>
     <g id="text_8">
      <!-- 50 -->
      <g transform="translate(68.032188 870.658392)scale(0.3 -0.3)">
       <defs>
        <path d="M 691 4666 
L 3169 4666 
L 3169 4134 
L 1269 4134 
L 1269 2991 
Q 1406 3038 1543 3061 
Q 1681 3084 1819 3084 
Q 2600 3084 3056 2656 
Q 3513 2228 3513 1497 
Q 3513 744 3044 326 
Q 2575 -91 1722 -91 
Q 1428 -91 1123 -41 
Q 819 9 494 109 
L 494 744 
Q 775 591 1075 516 
Q 1375 441 1709 441 
Q 2250 441 2565 725 
Q 2881 1009 2881 1497 
Q 2881 1984 2565 2268 
Q 2250 2553 1709 2553 
Q 1456 2553 1204 2497 
Q 953 2441 691 2322 
L 691 4666 
z
" id="DejaVuSans-35" transform="scale(0.015625)"/>
       </defs>
       <use xlink:href="#DejaVuSans-35"/>
       <use x="63.623047" xlink:href="#DejaVuSans-30"/>
      </g>
     </g>
    </g>
    <g id="ytick_3">
     <g id="line2d_15">
      <path clip-path="url(#p887693cdb7)" d="M 113.207188 737.1207 
L 1006.007187 737.1207 
" style="fill:none;stroke:#b0b0b0;stroke-linecap:square;stroke-width:0.8;"/>
     </g>
     <g id="line2d_16">
      <g>
       <use style="stroke:#000000;stroke-width:0.8;" x="113.207188" xlink:href="#ma3b1e1a427" y="737.1207"/>
      </g>
     </g>
     <g id="text_9">
      <!-- 100 -->
      <g transform="translate(48.944688 748.518357)scale(0.3 -0.3)">
       <use xlink:href="#DejaVuSans-31"/>
       <use x="63.623047" xlink:href="#DejaVuSans-30"/>
       <use x="127.246094" xlink:href="#DejaVuSans-30"/>
      </g>
     </g>
    </g>
    <g id="ytick_4">
     <g id="line2d_17">
      <path clip-path="url(#p887693cdb7)" d="M 113.207188 614.980665 
L 1006.007187 614.980665 
" style="fill:none;stroke:#b0b0b0;stroke-linecap:square;stroke-width:0.8;"/>
     </g>
     <g id="line2d_18">
      <g>
       <use style="stroke:#000000;stroke-width:0.8;" x="113.207188" xlink:href="#ma3b1e1a427" y="614.980665"/>
      </g>
     </g>
     <g id="text_10">
      <!-- 150 -->
      <g transform="translate(48.944688 626.378321)scale(0.3 -0.3)">
       <use xlink:href="#DejaVuSans-31"/>
       <use x="63.623047" xlink:href="#DejaVuSans-35"/>
       <use x="127.246094" xlink:href="#DejaVuSans-30"/>
      </g>
     </g>
    </g>
    <g id="ytick_5">
     <g id="line2d_19">
      <path clip-path="url(#p887693cdb7)" d="M 113.207188 492.840629 
L 1006.007187 492.840629 
" style="fill:none;stroke:#b0b0b0;stroke-linecap:square;stroke-width:0.8;"/>
     </g>
     <g id="line2d_20">
      <g>
       <use style="stroke:#000000;stroke-width:0.8;" x="113.207188" xlink:href="#ma3b1e1a427" y="492.840629"/>
      </g>
     </g>
     <g id="text_11">
      <!-- 200 -->
      <g transform="translate(48.944688 504.238285)scale(0.3 -0.3)">
       <use xlink:href="#DejaVuSans-32"/>
       <use x="63.623047" xlink:href="#DejaVuSans-30"/>
       <use x="127.246094" xlink:href="#DejaVuSans-30"/>
      </g>
     </g>
    </g>
    <g id="ytick_6">
     <g id="line2d_21">
      <path clip-path="url(#p887693cdb7)" d="M 113.207188 370.700594 
L 1006.007187 370.700594 
" style="fill:none;stroke:#b0b0b0;stroke-linecap:square;stroke-width:0.8;"/>
     </g>
     <g id="line2d_22">
      <g>
       <use style="stroke:#000000;stroke-width:0.8;" x="113.207188" xlink:href="#ma3b1e1a427" y="370.700594"/>
      </g>
     </g>
     <g id="text_12">
      <!-- 250 -->
      <g transform="translate(48.944688 382.09825)scale(0.3 -0.3)">
       <use xlink:href="#DejaVuSans-32"/>
       <use x="63.623047" xlink:href="#DejaVuSans-35"/>
       <use x="127.246094" xlink:href="#DejaVuSans-30"/>
      </g>
     </g>
    </g>
    <g id="ytick_7">
     <g id="line2d_23">
      <path clip-path="url(#p887693cdb7)" d="M 113.207188 248.560558 
L 1006.007187 248.560558 
" style="fill:none;stroke:#b0b0b0;stroke-linecap:square;stroke-width:0.8;"/>
     </g>
     <g id="line2d_24">
      <g>
       <use style="stroke:#000000;stroke-width:0.8;" x="113.207188" xlink:href="#ma3b1e1a427" y="248.560558"/>
      </g>
     </g>
     <g id="text_13">
      <!-- 300 -->
      <g transform="translate(48.944688 259.958214)scale(0.3 -0.3)">
       <defs>
        <path d="M 2597 2516 
Q 3050 2419 3304 2112 
Q 3559 1806 3559 1356 
Q 3559 666 3084 287 
Q 2609 -91 1734 -91 
Q 1441 -91 1130 -33 
Q 819 25 488 141 
L 488 750 
Q 750 597 1062 519 
Q 1375 441 1716 441 
Q 2309 441 2620 675 
Q 2931 909 2931 1356 
Q 2931 1769 2642 2001 
Q 2353 2234 1838 2234 
L 1294 2234 
L 1294 2753 
L 1863 2753 
Q 2328 2753 2575 2939 
Q 2822 3125 2822 3475 
Q 2822 3834 2567 4026 
Q 2313 4219 1838 4219 
Q 1578 4219 1281 4162 
Q 984 4106 628 3988 
L 628 4550 
Q 988 4650 1302 4700 
Q 1616 4750 1894 4750 
Q 2613 4750 3031 4423 
Q 3450 4097 3450 3541 
Q 3450 3153 3228 2886 
Q 3006 2619 2597 2516 
z
" id="DejaVuSans-33" transform="scale(0.015625)"/>
       </defs>
       <use xlink:href="#DejaVuSans-33"/>
       <use x="63.623047" xlink:href="#DejaVuSans-30"/>
       <use x="127.246094" xlink:href="#DejaVuSans-30"/>
      </g>
     </g>
    </g>
    <g id="ytick_8">
     <g id="line2d_25">
      <path clip-path="url(#p887693cdb7)" d="M 113.207188 126.420522 
L 1006.007187 126.420522 
" style="fill:none;stroke:#b0b0b0;stroke-linecap:square;stroke-width:0.8;"/>
     </g>
     <g id="line2d_26">
      <g>
       <use style="stroke:#000000;stroke-width:0.8;" x="113.207188" xlink:href="#ma3b1e1a427" y="126.420522"/>
      </g>
     </g>
     <g id="text_14">
      <!-- 350 -->
      <g transform="translate(48.944688 137.818179)scale(0.3 -0.3)">
       <use xlink:href="#DejaVuSans-33"/>
       <use x="63.623047" xlink:href="#DejaVuSans-35"/>
       <use x="127.246094" xlink:href="#DejaVuSans-30"/>
      </g>
     </g>
    </g>
    <g id="text_15">
     <!-- Avg. number of links / size -->
     <g transform="translate(36.833906 763.380234)rotate(-90)scale(0.39 -0.39)">
      <defs>
       <path d="M 2188 4044 
L 1331 1722 
L 3047 1722 
L 2188 4044 
z
M 1831 4666 
L 2547 4666 
L 4325 0 
L 3669 0 
L 3244 1197 
L 1141 1197 
L 716 0 
L 50 0 
L 1831 4666 
z
" id="DejaVuSans-41" transform="scale(0.015625)"/>
       <path d="M 191 3500 
L 800 3500 
L 1894 563 
L 2988 3500 
L 3597 3500 
L 2284 0 
L 1503 0 
L 191 3500 
z
" id="DejaVuSans-76" transform="scale(0.015625)"/>
       <path d="M 2906 1791 
Q 2906 2416 2648 2759 
Q 2391 3103 1925 3103 
Q 1463 3103 1205 2759 
Q 947 2416 947 1791 
Q 947 1169 1205 825 
Q 1463 481 1925 481 
Q 2391 481 2648 825 
Q 2906 1169 2906 1791 
z
M 3481 434 
Q 3481 -459 3084 -895 
Q 2688 -1331 1869 -1331 
Q 1566 -1331 1297 -1286 
Q 1028 -1241 775 -1147 
L 775 -588 
Q 1028 -725 1275 -790 
Q 1522 -856 1778 -856 
Q 2344 -856 2625 -561 
Q 2906 -266 2906 331 
L 2906 616 
Q 2728 306 2450 153 
Q 2172 0 1784 0 
Q 1141 0 747 490 
Q 353 981 353 1791 
Q 353 2603 747 3093 
Q 1141 3584 1784 3584 
Q 2172 3584 2450 3431 
Q 2728 3278 2906 2969 
L 2906 3500 
L 3481 3500 
L 3481 434 
z
" id="DejaVuSans-67" transform="scale(0.015625)"/>
       <path d="M 684 794 
L 1344 794 
L 1344 0 
L 684 0 
L 684 794 
z
" id="DejaVuSans-2e" transform="scale(0.015625)"/>
       <path d="M 3513 2113 
L 3513 0 
L 2938 0 
L 2938 2094 
Q 2938 2591 2744 2837 
Q 2550 3084 2163 3084 
Q 1697 3084 1428 2787 
Q 1159 2491 1159 1978 
L 1159 0 
L 581 0 
L 581 3500 
L 1159 3500 
L 1159 2956 
Q 1366 3272 1645 3428 
Q 1925 3584 2291 3584 
Q 2894 3584 3203 3211 
Q 3513 2838 3513 2113 
z
" id="DejaVuSans-6e" transform="scale(0.015625)"/>
       <path d="M 544 1381 
L 544 3500 
L 1119 3500 
L 1119 1403 
Q 1119 906 1312 657 
Q 1506 409 1894 409 
Q 2359 409 2629 706 
Q 2900 1003 2900 1516 
L 2900 3500 
L 3475 3500 
L 3475 0 
L 2900 0 
L 2900 538 
Q 2691 219 2414 64 
Q 2138 -91 1772 -91 
Q 1169 -91 856 284 
Q 544 659 544 1381 
z
M 1991 3584 
L 1991 3584 
z
" id="DejaVuSans-75" transform="scale(0.015625)"/>
       <path d="M 3328 2828 
Q 3544 3216 3844 3400 
Q 4144 3584 4550 3584 
Q 5097 3584 5394 3201 
Q 5691 2819 5691 2113 
L 5691 0 
L 5113 0 
L 5113 2094 
Q 5113 2597 4934 2840 
Q 4756 3084 4391 3084 
Q 3944 3084 3684 2787 
Q 3425 2491 3425 1978 
L 3425 0 
L 2847 0 
L 2847 2094 
Q 2847 2600 2669 2842 
Q 2491 3084 2119 3084 
Q 1678 3084 1418 2786 
Q 1159 2488 1159 1978 
L 1159 0 
L 581 0 
L 581 3500 
L 1159 3500 
L 1159 2956 
Q 1356 3278 1631 3431 
Q 1906 3584 2284 3584 
Q 2666 3584 2933 3390 
Q 3200 3197 3328 2828 
z
" id="DejaVuSans-6d" transform="scale(0.015625)"/>
       <path d="M 3116 1747 
Q 3116 2381 2855 2742 
Q 2594 3103 2138 3103 
Q 1681 3103 1420 2742 
Q 1159 2381 1159 1747 
Q 1159 1113 1420 752 
Q 1681 391 2138 391 
Q 2594 391 2855 752 
Q 3116 1113 3116 1747 
z
M 1159 2969 
Q 1341 3281 1617 3432 
Q 1894 3584 2278 3584 
Q 2916 3584 3314 3078 
Q 3713 2572 3713 1747 
Q 3713 922 3314 415 
Q 2916 -91 2278 -91 
Q 1894 -91 1617 61 
Q 1341 213 1159 525 
L 1159 0 
L 581 0 
L 581 4863 
L 1159 4863 
L 1159 2969 
z
" id="DejaVuSans-62" transform="scale(0.015625)"/>
       <path d="M 1959 3097 
Q 1497 3097 1228 2736 
Q 959 2375 959 1747 
Q 959 1119 1226 758 
Q 1494 397 1959 397 
Q 2419 397 2687 759 
Q 2956 1122 2956 1747 
Q 2956 2369 2687 2733 
Q 2419 3097 1959 3097 
z
M 1959 3584 
Q 2709 3584 3137 3096 
Q 3566 2609 3566 1747 
Q 3566 888 3137 398 
Q 2709 -91 1959 -91 
Q 1206 -91 779 398 
Q 353 888 353 1747 
Q 353 2609 779 3096 
Q 1206 3584 1959 3584 
z
" id="DejaVuSans-6f" transform="scale(0.015625)"/>
       <path d="M 2375 4863 
L 2375 4384 
L 1825 4384 
Q 1516 4384 1395 4259 
Q 1275 4134 1275 3809 
L 1275 3500 
L 2222 3500 
L 2222 3053 
L 1275 3053 
L 1275 0 
L 697 0 
L 697 3053 
L 147 3053 
L 147 3500 
L 697 3500 
L 697 3744 
Q 697 4328 969 4595 
Q 1241 4863 1831 4863 
L 2375 4863 
z
" id="DejaVuSans-66" transform="scale(0.015625)"/>
       <path d="M 603 4863 
L 1178 4863 
L 1178 0 
L 603 0 
L 603 4863 
z
" id="DejaVuSans-6c" transform="scale(0.015625)"/>
       <path d="M 581 4863 
L 1159 4863 
L 1159 1991 
L 2875 3500 
L 3609 3500 
L 1753 1863 
L 3688 0 
L 2938 0 
L 1159 1709 
L 1159 0 
L 581 0 
L 581 4863 
z
" id="DejaVuSans-6b" transform="scale(0.015625)"/>
       <path d="M 1625 4666 
L 2156 4666 
L 531 -594 
L 0 -594 
L 1625 4666 
z
" id="DejaVuSans-2f" transform="scale(0.015625)"/>
      </defs>
      <use xlink:href="#DejaVuSans-41"/>
      <use x="62.533203" xlink:href="#DejaVuSans-76"/>
      <use x="121.712891" xlink:href="#DejaVuSans-67"/>
      <use x="185.189453" xlink:href="#DejaVuSans-2e"/>
      <use x="216.976562" xlink:href="#DejaVuSans-20"/>
      <use x="248.763672" xlink:href="#DejaVuSans-6e"/>
      <use x="312.142578" xlink:href="#DejaVuSans-75"/>
      <use x="375.521484" xlink:href="#DejaVuSans-6d"/>
      <use x="472.933594" xlink:href="#DejaVuSans-62"/>
      <use x="536.410156" xlink:href="#DejaVuSans-65"/>
      <use x="597.933594" xlink:href="#DejaVuSans-72"/>
      <use x="639.046875" xlink:href="#DejaVuSans-20"/>
      <use x="670.833984" xlink:href="#DejaVuSans-6f"/>
      <use x="732.015625" xlink:href="#DejaVuSans-66"/>
      <use x="767.220703" xlink:href="#DejaVuSans-20"/>
      <use x="799.007812" xlink:href="#DejaVuSans-6c"/>
      <use x="826.791016" xlink:href="#DejaVuSans-69"/>
      <use x="854.574219" xlink:href="#DejaVuSans-6e"/>
      <use x="917.953125" xlink:href="#DejaVuSans-6b"/>
      <use x="975.863281" xlink:href="#DejaVuSans-73"/>
      <use x="1027.962891" xlink:href="#DejaVuSans-20"/>
      <use x="1059.75" xlink:href="#DejaVuSans-2f"/>
      <use x="1093.441406" xlink:href="#DejaVuSans-20"/>
      <use x="1125.228516" xlink:href="#DejaVuSans-73"/>
      <use x="1177.328125" xlink:href="#DejaVuSans-69"/>
      <use x="1205.111328" xlink:href="#DejaVuSans-7a"/>
      <use x="1257.601562" xlink:href="#DejaVuSans-65"/>
     </g>
    </g>
   </g>
   <g id="line2d_27">
    <path clip-path="url(#p887693cdb7)" d="M 153.789006 953.351068 
L 196.506709 921.37725 
L 239.224412 884.788003 
L 281.942116 848.213903 
L 324.659819 809.788647 
L 367.377522 771.058531 
L 410.095226 729.78839 
L 452.812929 689.261837 
L 495.530632 650.827299 
L 538.248336 609.957778 
L 580.966039 567.12913 
L 623.683743 523.72789 
L 666.401446 483.935643 
L 709.119149 440.099585 
L 751.836853 399.918444 
L 794.554556 355.248413 
L 837.272259 307.008473 
L 879.989963 257.61602 
L 922.707666 213.76677 
L 965.425369 175.106518 
" style="fill:none;stroke:#fe0002;stroke-dasharray:5.55,2.4;stroke-dashoffset:0;stroke-width:1.5;"/>
    <defs>
     <path d="M 0 4.5 
C 1.193414 4.5 2.338109 4.025852 3.181981 3.181981 
C 4.025852 2.338109 4.5 1.193414 4.5 0 
C 4.5 -1.193414 4.025852 -2.338109 3.181981 -3.181981 
C 2.338109 -4.025852 1.193414 -4.5 0 -4.5 
C -1.193414 -4.5 -2.338109 -4.025852 -3.181981 -3.181981 
C -4.025852 -2.338109 -4.5 -1.193414 -4.5 0 
C -4.5 1.193414 -4.025852 2.338109 -3.181981 3.181981 
C -2.338109 4.025852 -1.193414 4.5 0 4.5 
z
" id="mabb9a912cf" style="stroke:#000000;"/>
    </defs>
    <g clip-path="url(#p887693cdb7)">
     <use style="fill:#fe0002;stroke:#000000;" x="153.789006" xlink:href="#mabb9a912cf" y="953.351068"/>
     <use style="fill:#fe0002;stroke:#000000;" x="196.506709" xlink:href="#mabb9a912cf" y="921.37725"/>
     <use style="fill:#fe0002;stroke:#000000;" x="239.224412" xlink:href="#mabb9a912cf" y="884.788003"/>
     <use style="fill:#fe0002;stroke:#000000;" x="281.942116" xlink:href="#mabb9a912cf" y="848.213903"/>
     <use style="fill:#fe0002;stroke:#000000;" x="324.659819" xlink:href="#mabb9a912cf" y="809.788647"/>
     <use style="fill:#fe0002;stroke:#000000;" x="367.377522" xlink:href="#mabb9a912cf" y="771.058531"/>
     <use style="fill:#fe0002;stroke:#000000;" x="410.095226" xlink:href="#mabb9a912cf" y="729.78839"/>
     <use style="fill:#fe0002;stroke:#000000;" x="452.812929" xlink:href="#mabb9a912cf" y="689.261837"/>
     <use style="fill:#fe0002;stroke:#000000;" x="495.530632" xlink:href="#mabb9a912cf" y="650.827299"/>
     <use style="fill:#fe0002;stroke:#000000;" x="538.248336" xlink:href="#mabb9a912cf" y="609.957778"/>
     <use style="fill:#fe0002;stroke:#000000;" x="580.966039" xlink:href="#mabb9a912cf" y="567.12913"/>
     <use style="fill:#fe0002;stroke:#000000;" x="623.683743" xlink:href="#mabb9a912cf" y="523.72789"/>
     <use style="fill:#fe0002;stroke:#000000;" x="666.401446" xlink:href="#mabb9a912cf" y="483.935643"/>
     <use style="fill:#fe0002;stroke:#000000;" x="709.119149" xlink:href="#mabb9a912cf" y="440.099585"/>
     <use style="fill:#fe0002;stroke:#000000;" x="751.836853" xlink:href="#mabb9a912cf" y="399.918444"/>
     <use style="fill:#fe0002;stroke:#000000;" x="794.554556" xlink:href="#mabb9a912cf" y="355.248413"/>
     <use style="fill:#fe0002;stroke:#000000;" x="837.272259" xlink:href="#mabb9a912cf" y="307.008473"/>
     <use style="fill:#fe0002;stroke:#000000;" x="879.989963" xlink:href="#mabb9a912cf" y="257.61602"/>
     <use style="fill:#fe0002;stroke:#000000;" x="922.707666" xlink:href="#mabb9a912cf" y="213.76677"/>
     <use style="fill:#fe0002;stroke:#000000;" x="965.425369" xlink:href="#mabb9a912cf" y="175.106518"/>
    </g>
   </g>
   <g id="line2d_28">
    <path clip-path="url(#p887693cdb7)" d="M 153.789006 959.056962 
L 196.506709 931.928194 
L 239.224412 903.165682 
L 281.942116 873.036178 
L 324.659819 842.230995 
L 367.377522 810.255711 
L 410.095226 778.0894 
L 452.812929 745.700794 
L 495.530632 712.741549 
L 538.248336 679.192613 
L 580.966039 645.566484 
L 623.683743 611.411244 
L 666.401446 577.330754 
L 709.119149 542.258488 
L 751.836853 507.506716 
L 794.554556 472.645019 
L 837.272259 437.687075 
L 879.989963 402.030001 
L 922.707666 365.875574 
L 965.425369 330.45252 
" style="fill:none;stroke:#53fca1;stroke-dasharray:5.55,2.4;stroke-dashoffset:0;stroke-width:1.5;"/>
    <defs>
     <path d="M 0 6.363961 
L 6.363961 0 
L 0 -6.363961 
L -6.363961 0 
z
" id="m6d5c6e4512" style="stroke:#000000;stroke-linejoin:miter;"/>
    </defs>
    <g clip-path="url(#p887693cdb7)">
     <use style="fill:#53fca1;stroke:#000000;stroke-linejoin:miter;" x="153.789006" xlink:href="#m6d5c6e4512" y="959.056962"/>
     <use style="fill:#53fca1;stroke:#000000;stroke-linejoin:miter;" x="196.506709" xlink:href="#m6d5c6e4512" y="931.928194"/>
     <use style="fill:#53fca1;stroke:#000000;stroke-linejoin:miter;" x="239.224412" xlink:href="#m6d5c6e4512" y="903.165682"/>
     <use style="fill:#53fca1;stroke:#000000;stroke-linejoin:miter;" x="281.942116" xlink:href="#m6d5c6e4512" y="873.036178"/>
     <use style="fill:#53fca1;stroke:#000000;stroke-linejoin:miter;" x="324.659819" xlink:href="#m6d5c6e4512" y="842.230995"/>
     <use style="fill:#53fca1;stroke:#000000;stroke-linejoin:miter;" x="367.377522" xlink:href="#m6d5c6e4512" y="810.255711"/>
     <use style="fill:#53fca1;stroke:#000000;stroke-linejoin:miter;" x="410.095226" xlink:href="#m6d5c6e4512" y="778.0894"/>
     <use style="fill:#53fca1;stroke:#000000;stroke-linejoin:miter;" x="452.812929" xlink:href="#m6d5c6e4512" y="745.700794"/>
     <use style="fill:#53fca1;stroke:#000000;stroke-linejoin:miter;" x="495.530632" xlink:href="#m6d5c6e4512" y="712.741549"/>
     <use style="fill:#53fca1;stroke:#000000;stroke-linejoin:miter;" x="538.248336" xlink:href="#m6d5c6e4512" y="679.192613"/>
     <use style="fill:#53fca1;stroke:#000000;stroke-linejoin:miter;" x="580.966039" xlink:href="#m6d5c6e4512" y="645.566484"/>
     <use style="fill:#53fca1;stroke:#000000;stroke-linejoin:miter;" x="623.683743" xlink:href="#m6d5c6e4512" y="611.411244"/>
     <use style="fill:#53fca1;stroke:#000000;stroke-linejoin:miter;" x="666.401446" xlink:href="#m6d5c6e4512" y="577.330754"/>
     <use style="fill:#53fca1;stroke:#000000;stroke-linejoin:miter;" x="709.119149" xlink:href="#m6d5c6e4512" y="542.258488"/>
     <use style="fill:#53fca1;stroke:#000000;stroke-linejoin:miter;" x="751.836853" xlink:href="#m6d5c6e4512" y="507.506716"/>
     <use style="fill:#53fca1;stroke:#000000;stroke-linejoin:miter;" x="794.554556" xlink:href="#m6d5c6e4512" y="472.645019"/>
     <use style="fill:#53fca1;stroke:#000000;stroke-linejoin:miter;" x="837.272259" xlink:href="#m6d5c6e4512" y="437.687075"/>
     <use style="fill:#53fca1;stroke:#000000;stroke-linejoin:miter;" x="879.989963" xlink:href="#m6d5c6e4512" y="402.030001"/>
     <use style="fill:#53fca1;stroke:#000000;stroke-linejoin:miter;" x="922.707666" xlink:href="#m6d5c6e4512" y="365.875574"/>
     <use style="fill:#53fca1;stroke:#000000;stroke-linejoin:miter;" x="965.425369" xlink:href="#m6d5c6e4512" y="330.45252"/>
    </g>
   </g>
   <g id="line2d_29">
    <path clip-path="url(#p887693cdb7)" d="M 153.789006 956.984978 
L 196.506709 926.813458 
L 239.224412 894.404333 
L 281.942116 860.025821 
L 324.659819 825.033189 
L 367.377522 787.972971 
L 410.095226 751.160942 
L 452.812929 713.588224 
L 495.530632 675.160526 
L 538.248336 636.13825 
L 580.966039 596.887817 
L 623.683743 556.762372 
L 666.401446 516.566087 
L 709.119149 475.658457 
L 751.836853 435.41869 
L 794.554556 392.86901 
L 837.272259 352.597486 
L 879.989963 310.23981 
L 922.707666 268.058993 
L 965.425369 225.33734 
" style="fill:none;stroke:#0652ff;stroke-dasharray:5.55,2.4;stroke-dashoffset:0;stroke-width:1.5;"/>
    <defs>
     <path d="M -2.25 4.5 
L 0 2.25 
L 2.25 4.5 
L 4.5 2.25 
L 2.25 0 
L 4.5 -2.25 
L 2.25 -4.5 
L 0 -2.25 
L -2.25 -4.5 
L -4.5 -2.25 
L -2.25 0 
L -4.5 2.25 
z
" id="md106b36459" style="stroke:#000000;stroke-linejoin:miter;"/>
    </defs>
    <g clip-path="url(#p887693cdb7)">
     <use style="fill:#0652ff;stroke:#000000;stroke-linejoin:miter;" x="153.789006" xlink:href="#md106b36459" y="956.984978"/>
     <use style="fill:#0652ff;stroke:#000000;stroke-linejoin:miter;" x="196.506709" xlink:href="#md106b36459" y="926.813458"/>
     <use style="fill:#0652ff;stroke:#000000;stroke-linejoin:miter;" x="239.224412" xlink:href="#md106b36459" y="894.404333"/>
     <use style="fill:#0652ff;stroke:#000000;stroke-linejoin:miter;" x="281.942116" xlink:href="#md106b36459" y="860.025821"/>
     <use style="fill:#0652ff;stroke:#000000;stroke-linejoin:miter;" x="324.659819" xlink:href="#md106b36459" y="825.033189"/>
     <use style="fill:#0652ff;stroke:#000000;stroke-linejoin:miter;" x="367.377522" xlink:href="#md106b36459" y="787.972971"/>
     <use style="fill:#0652ff;stroke:#000000;stroke-linejoin:miter;" x="410.095226" xlink:href="#md106b36459" y="751.160942"/>
     <use style="fill:#0652ff;stroke:#000000;stroke-linejoin:miter;" x="452.812929" xlink:href="#md106b36459" y="713.588224"/>
     <use style="fill:#0652ff;stroke:#000000;stroke-linejoin:miter;" x="495.530632" xlink:href="#md106b36459" y="675.160526"/>
     <use style="fill:#0652ff;stroke:#000000;stroke-linejoin:miter;" x="538.248336" xlink:href="#md106b36459" y="636.13825"/>
     <use style="fill:#0652ff;stroke:#000000;stroke-linejoin:miter;" x="580.966039" xlink:href="#md106b36459" y="596.887817"/>
     <use style="fill:#0652ff;stroke:#000000;stroke-linejoin:miter;" x="623.683743" xlink:href="#md106b36459" y="556.762372"/>
     <use style="fill:#0652ff;stroke:#000000;stroke-linejoin:miter;" x="666.401446" xlink:href="#md106b36459" y="516.566087"/>
     <use style="fill:#0652ff;stroke:#000000;stroke-linejoin:miter;" x="709.119149" xlink:href="#md106b36459" y="475.658457"/>
     <use style="fill:#0652ff;stroke:#000000;stroke-linejoin:miter;" x="751.836853" xlink:href="#md106b36459" y="435.41869"/>
     <use style="fill:#0652ff;stroke:#000000;stroke-linejoin:miter;" x="794.554556" xlink:href="#md106b36459" y="392.86901"/>
     <use style="fill:#0652ff;stroke:#000000;stroke-linejoin:miter;" x="837.272259" xlink:href="#md106b36459" y="352.597486"/>
     <use style="fill:#0652ff;stroke:#000000;stroke-linejoin:miter;" x="879.989963" xlink:href="#md106b36459" y="310.23981"/>
     <use style="fill:#0652ff;stroke:#000000;stroke-linejoin:miter;" x="922.707666" xlink:href="#md106b36459" y="268.058993"/>
     <use style="fill:#0652ff;stroke:#000000;stroke-linejoin:miter;" x="965.425369" xlink:href="#md106b36459" y="225.33734"/>
    </g>
   </g>
   <g id="line2d_30">
    <path clip-path="url(#p887693cdb7)" d="M 153.789006 959.474681 
L 196.506709 930.911256 
L 239.224412 899.990285 
L 281.942116 866.417165 
L 324.659819 832.225039 
L 367.377522 795.968502 
L 410.095226 760.081561 
L 452.812929 722.371558 
L 495.530632 684.405794 
L 538.248336 645.628287 
L 580.966039 606.922109 
L 623.683743 566.050634 
L 666.401446 526.410574 
L 709.119149 485.535922 
L 751.836853 444.252102 
L 794.554556 402.166309 
L 837.272259 361.157304 
L 879.989963 318.687504 
L 922.707666 276.439021 
L 965.425369 233.133294 
" style="fill:none;stroke:#ae7181;stroke-dasharray:5.55,2.4;stroke-dashoffset:0;stroke-width:1.5;"/>
    <defs>
     <path d="M 0 -4.5 
L -1.010313 -1.390576 
L -4.279754 -1.390576 
L -1.634721 0.531153 
L -2.645034 3.640576 
L -0 1.718847 
L 2.645034 3.640576 
L 1.634721 0.531153 
L 4.279754 -1.390576 
L 1.010313 -1.390576 
z
" id="m54fd2d8f90" style="stroke:#000000;stroke-linejoin:bevel;"/>
    </defs>
    <g clip-path="url(#p887693cdb7)">
     <use style="fill:#ae7181;stroke:#000000;stroke-linejoin:bevel;" x="153.789006" xlink:href="#m54fd2d8f90" y="959.474681"/>
     <use style="fill:#ae7181;stroke:#000000;stroke-linejoin:bevel;" x="196.506709" xlink:href="#m54fd2d8f90" y="930.911256"/>
     <use style="fill:#ae7181;stroke:#000000;stroke-linejoin:bevel;" x="239.224412" xlink:href="#m54fd2d8f90" y="899.990285"/>
     <use style="fill:#ae7181;stroke:#000000;stroke-linejoin:bevel;" x="281.942116" xlink:href="#m54fd2d8f90" y="866.417165"/>
     <use style="fill:#ae7181;stroke:#000000;stroke-linejoin:bevel;" x="324.659819" xlink:href="#m54fd2d8f90" y="832.225039"/>
     <use style="fill:#ae7181;stroke:#000000;stroke-linejoin:bevel;" x="367.377522" xlink:href="#m54fd2d8f90" y="795.968502"/>
     <use style="fill:#ae7181;stroke:#000000;stroke-linejoin:bevel;" x="410.095226" xlink:href="#m54fd2d8f90" y="760.081561"/>
     <use style="fill:#ae7181;stroke:#000000;stroke-linejoin:bevel;" x="452.812929" xlink:href="#m54fd2d8f90" y="722.371558"/>
     <use style="fill:#ae7181;stroke:#000000;stroke-linejoin:bevel;" x="495.530632" xlink:href="#m54fd2d8f90" y="684.405794"/>
     <use style="fill:#ae7181;stroke:#000000;stroke-linejoin:bevel;" x="538.248336" xlink:href="#m54fd2d8f90" y="645.628287"/>
     <use style="fill:#ae7181;stroke:#000000;stroke-linejoin:bevel;" x="580.966039" xlink:href="#m54fd2d8f90" y="606.922109"/>
     <use style="fill:#ae7181;stroke:#000000;stroke-linejoin:bevel;" x="623.683743" xlink:href="#m54fd2d8f90" y="566.050634"/>
     <use style="fill:#ae7181;stroke:#000000;stroke-linejoin:bevel;" x="666.401446" xlink:href="#m54fd2d8f90" y="526.410574"/>
     <use style="fill:#ae7181;stroke:#000000;stroke-linejoin:bevel;" x="709.119149" xlink:href="#m54fd2d8f90" y="485.535922"/>
     <use style="fill:#ae7181;stroke:#000000;stroke-linejoin:bevel;" x="751.836853" xlink:href="#m54fd2d8f90" y="444.252102"/>
     <use style="fill:#ae7181;stroke:#000000;stroke-linejoin:bevel;" x="794.554556" xlink:href="#m54fd2d8f90" y="402.166309"/>
     <use style="fill:#ae7181;stroke:#000000;stroke-linejoin:bevel;" x="837.272259" xlink:href="#m54fd2d8f90" y="361.157304"/>
     <use style="fill:#ae7181;stroke:#000000;stroke-linejoin:bevel;" x="879.989963" xlink:href="#m54fd2d8f90" y="318.687504"/>
     <use style="fill:#ae7181;stroke:#000000;stroke-linejoin:bevel;" x="922.707666" xlink:href="#m54fd2d8f90" y="276.439021"/>
     <use style="fill:#ae7181;stroke:#000000;stroke-linejoin:bevel;" x="965.425369" xlink:href="#m54fd2d8f90" y="233.133294"/>
    </g>
   </g>
   <g id="line2d_31">
    <path clip-path="url(#p887693cdb7)" d="M 153.789006 952.187806 
L 196.506709 915.274156 
L 239.224412 875.452108 
L 281.942116 833.519968 
L 324.659819 790.525698 
L 367.377522 745.551783 
L 410.095226 700.39539 
L 452.812929 654.389636 
L 495.530632 606.96095 
L 538.248336 559.471438 
L 580.966039 511.247132 
L 623.683743 461.621147 
L 666.401446 413.414185 
L 709.119149 363.435216 
L 751.836853 313.082253 
L 794.554556 261.864539 
L 837.272259 212.164782 
L 879.989963 161.132965 
L 922.707666 108.444929 
L 965.425369 56.221514 
" style="fill:none;stroke:#ff81c0;stroke-dasharray:5.55,2.4;stroke-dashoffset:0;stroke-width:1.5;"/>
    <defs>
     <path d="M -4.5 -0 
L 4.5 4.5 
L 4.5 -4.5 
z
" id="m535f7f63fa" style="stroke:#000000;stroke-linejoin:miter;"/>
    </defs>
    <g clip-path="url(#p887693cdb7)">
     <use style="fill:#ff81c0;stroke:#000000;stroke-linejoin:miter;" x="153.789006" xlink:href="#m535f7f63fa" y="952.187806"/>
     <use style="fill:#ff81c0;stroke:#000000;stroke-linejoin:miter;" x="196.506709" xlink:href="#m535f7f63fa" y="915.274156"/>
     <use style="fill:#ff81c0;stroke:#000000;stroke-linejoin:miter;" x="239.224412" xlink:href="#m535f7f63fa" y="875.452108"/>
     <use style="fill:#ff81c0;stroke:#000000;stroke-linejoin:miter;" x="281.942116" xlink:href="#m535f7f63fa" y="833.519968"/>
     <use style="fill:#ff81c0;stroke:#000000;stroke-linejoin:miter;" x="324.659819" xlink:href="#m535f7f63fa" y="790.525698"/>
     <use style="fill:#ff81c0;stroke:#000000;stroke-linejoin:miter;" x="367.377522" xlink:href="#m535f7f63fa" y="745.551783"/>
     <use style="fill:#ff81c0;stroke:#000000;stroke-linejoin:miter;" x="410.095226" xlink:href="#m535f7f63fa" y="700.39539"/>
     <use style="fill:#ff81c0;stroke:#000000;stroke-linejoin:miter;" x="452.812929" xlink:href="#m535f7f63fa" y="654.389636"/>
     <use style="fill:#ff81c0;stroke:#000000;stroke-linejoin:miter;" x="495.530632" xlink:href="#m535f7f63fa" y="606.96095"/>
     <use style="fill:#ff81c0;stroke:#000000;stroke-linejoin:miter;" x="538.248336" xlink:href="#m535f7f63fa" y="559.471438"/>
     <use style="fill:#ff81c0;stroke:#000000;stroke-linejoin:miter;" x="580.966039" xlink:href="#m535f7f63fa" y="511.247132"/>
     <use style="fill:#ff81c0;stroke:#000000;stroke-linejoin:miter;" x="623.683743" xlink:href="#m535f7f63fa" y="461.621147"/>
     <use style="fill:#ff81c0;stroke:#000000;stroke-linejoin:miter;" x="666.401446" xlink:href="#m535f7f63fa" y="413.414185"/>
     <use style="fill:#ff81c0;stroke:#000000;stroke-linejoin:miter;" x="709.119149" xlink:href="#m535f7f63fa" y="363.435216"/>
     <use style="fill:#ff81c0;stroke:#000000;stroke-linejoin:miter;" x="751.836853" xlink:href="#m535f7f63fa" y="313.082253"/>
     <use style="fill:#ff81c0;stroke:#000000;stroke-linejoin:miter;" x="794.554556" xlink:href="#m535f7f63fa" y="261.864539"/>
     <use style="fill:#ff81c0;stroke:#000000;stroke-linejoin:miter;" x="837.272259" xlink:href="#m535f7f63fa" y="212.164782"/>
     <use style="fill:#ff81c0;stroke:#000000;stroke-linejoin:miter;" x="879.989963" xlink:href="#m535f7f63fa" y="161.132965"/>
     <use style="fill:#ff81c0;stroke:#000000;stroke-linejoin:miter;" x="922.707666" xlink:href="#m535f7f63fa" y="108.444929"/>
     <use style="fill:#ff81c0;stroke:#000000;stroke-linejoin:miter;" x="965.425369" xlink:href="#m535f7f63fa" y="56.221514"/>
    </g>
   </g>
   <g id="line2d_32">
    <path clip-path="url(#p887693cdb7)" d="M 153.789006 953.507163 
L 196.506709 919.356565 
L 239.224412 882.111182 
L 281.942116 843.74089 
L 324.659819 803.49184 
L 367.377522 762.356542 
L 410.095226 720.706789 
L 452.812929 677.88205 
L 495.530632 634.900483 
L 538.248336 591.262535 
L 580.966039 546.578581 
L 623.683743 502.501662 
L 666.401446 457.280046 
L 709.119149 411.093036 
L 751.836853 366.14306 
L 794.554556 319.310662 
L 837.272259 273.463201 
L 879.989963 226.12954 
L 922.707666 179.172315 
L 965.425369 131.50912 
" style="fill:none;stroke:#f97306;stroke-dasharray:5.55,2.4;stroke-dashoffset:0;stroke-width:1.5;"/>
    <defs>
     <path d="M 0 6.363961 
L 3.818377 0 
L 0 -6.363961 
L -3.818377 0 
z
" id="m50cfab0b1d" style="stroke:#000000;stroke-linejoin:miter;"/>
    </defs>
    <g clip-path="url(#p887693cdb7)">
     <use style="fill:#f97306;stroke:#000000;stroke-linejoin:miter;" x="153.789006" xlink:href="#m50cfab0b1d" y="953.507163"/>
     <use style="fill:#f97306;stroke:#000000;stroke-linejoin:miter;" x="196.506709" xlink:href="#m50cfab0b1d" y="919.356565"/>
     <use style="fill:#f97306;stroke:#000000;stroke-linejoin:miter;" x="239.224412" xlink:href="#m50cfab0b1d" y="882.111182"/>
     <use style="fill:#f97306;stroke:#000000;stroke-linejoin:miter;" x="281.942116" xlink:href="#m50cfab0b1d" y="843.74089"/>
     <use style="fill:#f97306;stroke:#000000;stroke-linejoin:miter;" x="324.659819" xlink:href="#m50cfab0b1d" y="803.49184"/>
     <use style="fill:#f97306;stroke:#000000;stroke-linejoin:miter;" x="367.377522" xlink:href="#m50cfab0b1d" y="762.356542"/>
     <use style="fill:#f97306;stroke:#000000;stroke-linejoin:miter;" x="410.095226" xlink:href="#m50cfab0b1d" y="720.706789"/>
     <use style="fill:#f97306;stroke:#000000;stroke-linejoin:miter;" x="452.812929" xlink:href="#m50cfab0b1d" y="677.88205"/>
     <use style="fill:#f97306;stroke:#000000;stroke-linejoin:miter;" x="495.530632" xlink:href="#m50cfab0b1d" y="634.900483"/>
     <use style="fill:#f97306;stroke:#000000;stroke-linejoin:miter;" x="538.248336" xlink:href="#m50cfab0b1d" y="591.262535"/>
     <use style="fill:#f97306;stroke:#000000;stroke-linejoin:miter;" x="580.966039" xlink:href="#m50cfab0b1d" y="546.578581"/>
     <use style="fill:#f97306;stroke:#000000;stroke-linejoin:miter;" x="623.683743" xlink:href="#m50cfab0b1d" y="502.501662"/>
     <use style="fill:#f97306;stroke:#000000;stroke-linejoin:miter;" x="666.401446" xlink:href="#m50cfab0b1d" y="457.280046"/>
     <use style="fill:#f97306;stroke:#000000;stroke-linejoin:miter;" x="709.119149" xlink:href="#m50cfab0b1d" y="411.093036"/>
     <use style="fill:#f97306;stroke:#000000;stroke-linejoin:miter;" x="751.836853" xlink:href="#m50cfab0b1d" y="366.14306"/>
     <use style="fill:#f97306;stroke:#000000;stroke-linejoin:miter;" x="794.554556" xlink:href="#m50cfab0b1d" y="319.310662"/>
     <use style="fill:#f97306;stroke:#000000;stroke-linejoin:miter;" x="837.272259" xlink:href="#m50cfab0b1d" y="273.463201"/>
     <use style="fill:#f97306;stroke:#000000;stroke-linejoin:miter;" x="879.989963" xlink:href="#m50cfab0b1d" y="226.12954"/>
     <use style="fill:#f97306;stroke:#000000;stroke-linejoin:miter;" x="922.707666" xlink:href="#m50cfab0b1d" y="179.172315"/>
     <use style="fill:#f97306;stroke:#000000;stroke-linejoin:miter;" x="965.425369" xlink:href="#m50cfab0b1d" y="131.50912"/>
    </g>
   </g>
   <g id="patch_3">
    <path d="M 113.207188 1005.12 
L 113.207188 7.2 
" style="fill:none;stroke:#000000;stroke-linecap:square;stroke-linejoin:miter;stroke-width:0.8;"/>
   </g>
   <g id="patch_4">
    <path d="M 1006.007187 1005.12 
L 1006.007187 7.2 
" style="fill:none;stroke:#000000;stroke-linecap:square;stroke-linejoin:miter;stroke-width:0.8;"/>
   </g>
   <g id="patch_5">
    <path d="M 113.207188 1005.12 
L 1006.007187 1005.12 
" style="fill:none;stroke:#000000;stroke-linecap:square;stroke-linejoin:miter;stroke-width:0.8;"/>
   </g>
   <g id="patch_6">
    <path d="M 113.207188 7.2 
L 1006.007187 7.2 
" style="fill:none;stroke:#000000;stroke-linecap:square;stroke-linejoin:miter;stroke-width:0.8;"/>
   </g>
   <g id="legend_1">
    <g id="patch_7">
     <path d="M 140.507188 381.868125 
L 662.698906 381.868125 
Q 670.498906 381.868125 670.498906 374.068125 
L 670.498906 34.5 
Q 670.498906 26.7 662.698906 26.7 
L 140.507188 26.7 
Q 132.707188 26.7 132.707188 34.5 
L 132.707188 374.068125 
Q 132.707188 381.868125 140.507188 381.868125 
z
" style="fill:#ffffff;opacity:0.8;stroke:#cccccc;stroke-linejoin:miter;"/>
    </g>
    <g id="line2d_33">
     <path d="M 148.307187 58.283906 
L 226.307187 58.283906 
" style="fill:none;stroke:#fe0002;stroke-dasharray:5.55,2.4;stroke-dashoffset:0;stroke-width:1.5;"/>
    </g>
    <g id="line2d_34">
     <g>
      <use style="fill:#fe0002;stroke:#000000;" x="187.307187" xlink:href="#mabb9a912cf" y="58.283906"/>
     </g>
    </g>
    <g id="text_16">
     <!-- Pairing links -->
     <g transform="translate(257.507187 71.933906)scale(0.39 -0.39)">
      <defs>
       <path d="M 1259 4147 
L 1259 2394 
L 2053 2394 
Q 2494 2394 2734 2622 
Q 2975 2850 2975 3272 
Q 2975 3691 2734 3919 
Q 2494 4147 2053 4147 
L 1259 4147 
z
M 628 4666 
L 2053 4666 
Q 2838 4666 3239 4311 
Q 3641 3956 3641 3272 
Q 3641 2581 3239 2228 
Q 2838 1875 2053 1875 
L 1259 1875 
L 1259 0 
L 628 0 
L 628 4666 
z
" id="DejaVuSans-50" transform="scale(0.015625)"/>
      </defs>
      <use xlink:href="#DejaVuSans-50"/>
      <use x="55.802734" xlink:href="#DejaVuSans-61"/>
      <use x="117.082031" xlink:href="#DejaVuSans-69"/>
      <use x="144.865234" xlink:href="#DejaVuSans-72"/>
      <use x="185.978516" xlink:href="#DejaVuSans-69"/>
      <use x="213.761719" xlink:href="#DejaVuSans-6e"/>
      <use x="277.140625" xlink:href="#DejaVuSans-67"/>
      <use x="340.617188" xlink:href="#DejaVuSans-20"/>
      <use x="372.404297" xlink:href="#DejaVuSans-6c"/>
      <use x="400.1875" xlink:href="#DejaVuSans-69"/>
      <use x="427.970703" xlink:href="#DejaVuSans-6e"/>
      <use x="491.349609" xlink:href="#DejaVuSans-6b"/>
      <use x="549.259766" xlink:href="#DejaVuSans-73"/>
     </g>
    </g>
    <g id="line2d_35">
     <path d="M 148.307187 115.528594 
L 226.307187 115.528594 
" style="fill:none;stroke:#53fca1;stroke-dasharray:5.55,2.4;stroke-dashoffset:0;stroke-width:1.5;"/>
    </g>
    <g id="line2d_36">
     <g>
      <use style="fill:#53fca1;stroke:#000000;stroke-linejoin:miter;" x="187.307187" xlink:href="#m6d5c6e4512" y="115.528594"/>
     </g>
    </g>
    <g id="text_17">
     <!-- Smooth links -->
     <g transform="translate(257.507187 129.178594)scale(0.39 -0.39)">
      <defs>
       <path d="M 3425 4513 
L 3425 3897 
Q 3066 4069 2747 4153 
Q 2428 4238 2131 4238 
Q 1616 4238 1336 4038 
Q 1056 3838 1056 3469 
Q 1056 3159 1242 3001 
Q 1428 2844 1947 2747 
L 2328 2669 
Q 3034 2534 3370 2195 
Q 3706 1856 3706 1288 
Q 3706 609 3251 259 
Q 2797 -91 1919 -91 
Q 1588 -91 1214 -16 
Q 841 59 441 206 
L 441 856 
Q 825 641 1194 531 
Q 1563 422 1919 422 
Q 2459 422 2753 634 
Q 3047 847 3047 1241 
Q 3047 1584 2836 1778 
Q 2625 1972 2144 2069 
L 1759 2144 
Q 1053 2284 737 2584 
Q 422 2884 422 3419 
Q 422 4038 858 4394 
Q 1294 4750 2059 4750 
Q 2388 4750 2728 4690 
Q 3069 4631 3425 4513 
z
" id="DejaVuSans-53" transform="scale(0.015625)"/>
       <path d="M 1172 4494 
L 1172 3500 
L 2356 3500 
L 2356 3053 
L 1172 3053 
L 1172 1153 
Q 1172 725 1289 603 
Q 1406 481 1766 481 
L 2356 481 
L 2356 0 
L 1766 0 
Q 1100 0 847 248 
Q 594 497 594 1153 
L 594 3053 
L 172 3053 
L 172 3500 
L 594 3500 
L 594 4494 
L 1172 4494 
z
" id="DejaVuSans-74" transform="scale(0.015625)"/>
      </defs>
      <use xlink:href="#DejaVuSans-53"/>
      <use x="63.476562" xlink:href="#DejaVuSans-6d"/>
      <use x="160.888672" xlink:href="#DejaVuSans-6f"/>
      <use x="222.070312" xlink:href="#DejaVuSans-6f"/>
      <use x="283.251953" xlink:href="#DejaVuSans-74"/>
      <use x="322.460938" xlink:href="#DejaVuSans-68"/>
      <use x="385.839844" xlink:href="#DejaVuSans-20"/>
      <use x="417.626953" xlink:href="#DejaVuSans-6c"/>
      <use x="445.410156" xlink:href="#DejaVuSans-69"/>
      <use x="473.193359" xlink:href="#DejaVuSans-6e"/>
      <use x="536.572266" xlink:href="#DejaVuSans-6b"/>
      <use x="594.482422" xlink:href="#DejaVuSans-73"/>
     </g>
    </g>
    <g id="line2d_37">
     <path d="M 148.307187 172.773281 
L 226.307187 172.773281 
" style="fill:none;stroke:#0652ff;stroke-dasharray:5.55,2.4;stroke-dashoffset:0;stroke-width:1.5;"/>
    </g>
    <g id="line2d_38">
     <g>
      <use style="fill:#0652ff;stroke:#000000;stroke-linejoin:miter;" x="187.307187" xlink:href="#md106b36459" y="172.773281"/>
     </g>
    </g>
    <g id="text_18">
     <!-- Slim links -->
     <g transform="translate(257.507187 186.423281)scale(0.39 -0.39)">
      <use xlink:href="#DejaVuSans-53"/>
      <use x="63.476562" xlink:href="#DejaVuSans-6c"/>
      <use x="91.259766" xlink:href="#DejaVuSans-69"/>
      <use x="119.042969" xlink:href="#DejaVuSans-6d"/>
      <use x="216.455078" xlink:href="#DejaVuSans-20"/>
      <use x="248.242188" xlink:href="#DejaVuSans-6c"/>
      <use x="276.025391" xlink:href="#DejaVuSans-69"/>
      <use x="303.808594" xlink:href="#DejaVuSans-6e"/>
      <use x="367.1875" xlink:href="#DejaVuSans-6b"/>
      <use x="425.097656" xlink:href="#DejaVuSans-73"/>
     </g>
    </g>
    <g id="line2d_39">
     <path d="M 148.307187 230.017969 
L 226.307187 230.017969 
" style="fill:none;stroke:#ae7181;stroke-dasharray:5.55,2.4;stroke-dashoffset:0;stroke-width:1.5;"/>
    </g>
    <g id="line2d_40">
     <g>
      <use style="fill:#ae7181;stroke:#000000;stroke-linejoin:bevel;" x="187.307187" xlink:href="#m54fd2d8f90" y="230.017969"/>
     </g>
    </g>
    <g id="text_19">
     <!-- Pairing Lazy links -->
     <g transform="translate(257.507187 243.667969)scale(0.39 -0.39)">
      <defs>
       <path d="M 628 4666 
L 1259 4666 
L 1259 531 
L 3531 531 
L 3531 0 
L 628 0 
L 628 4666 
z
" id="DejaVuSans-4c" transform="scale(0.015625)"/>
       <path d="M 2059 -325 
Q 1816 -950 1584 -1140 
Q 1353 -1331 966 -1331 
L 506 -1331 
L 506 -850 
L 844 -850 
Q 1081 -850 1212 -737 
Q 1344 -625 1503 -206 
L 1606 56 
L 191 3500 
L 800 3500 
L 1894 763 
L 2988 3500 
L 3597 3500 
L 2059 -325 
z
" id="DejaVuSans-79" transform="scale(0.015625)"/>
      </defs>
      <use xlink:href="#DejaVuSans-50"/>
      <use x="55.802734" xlink:href="#DejaVuSans-61"/>
      <use x="117.082031" xlink:href="#DejaVuSans-69"/>
      <use x="144.865234" xlink:href="#DejaVuSans-72"/>
      <use x="185.978516" xlink:href="#DejaVuSans-69"/>
      <use x="213.761719" xlink:href="#DejaVuSans-6e"/>
      <use x="277.140625" xlink:href="#DejaVuSans-67"/>
      <use x="340.617188" xlink:href="#DejaVuSans-20"/>
      <use x="372.404297" xlink:href="#DejaVuSans-4c"/>
      <use x="428.117188" xlink:href="#DejaVuSans-61"/>
      <use x="489.396484" xlink:href="#DejaVuSans-7a"/>
      <use x="541.886719" xlink:href="#DejaVuSans-79"/>
      <use x="601.066406" xlink:href="#DejaVuSans-20"/>
      <use x="632.853516" xlink:href="#DejaVuSans-6c"/>
      <use x="660.636719" xlink:href="#DejaVuSans-69"/>
      <use x="688.419922" xlink:href="#DejaVuSans-6e"/>
      <use x="751.798828" xlink:href="#DejaVuSans-6b"/>
      <use x="809.708984" xlink:href="#DejaVuSans-73"/>
     </g>
    </g>
    <g id="line2d_41">
     <path d="M 148.307187 287.262656 
L 226.307187 287.262656 
" style="fill:none;stroke:#ff81c0;stroke-dasharray:5.55,2.4;stroke-dashoffset:0;stroke-width:1.5;"/>
    </g>
    <g id="line2d_42">
     <g>
      <use style="fill:#ff81c0;stroke:#000000;stroke-linejoin:miter;" x="187.307187" xlink:href="#m535f7f63fa" y="287.262656"/>
     </g>
    </g>
    <g id="text_20">
     <!-- Pairing Slim links -->
     <g transform="translate(257.507187 300.912656)scale(0.39 -0.39)">
      <use xlink:href="#DejaVuSans-50"/>
      <use x="55.802734" xlink:href="#DejaVuSans-61"/>
      <use x="117.082031" xlink:href="#DejaVuSans-69"/>
      <use x="144.865234" xlink:href="#DejaVuSans-72"/>
      <use x="185.978516" xlink:href="#DejaVuSans-69"/>
      <use x="213.761719" xlink:href="#DejaVuSans-6e"/>
      <use x="277.140625" xlink:href="#DejaVuSans-67"/>
      <use x="340.617188" xlink:href="#DejaVuSans-20"/>
      <use x="372.404297" xlink:href="#DejaVuSans-53"/>
      <use x="435.880859" xlink:href="#DejaVuSans-6c"/>
      <use x="463.664062" xlink:href="#DejaVuSans-69"/>
      <use x="491.447266" xlink:href="#DejaVuSans-6d"/>
      <use x="588.859375" xlink:href="#DejaVuSans-20"/>
      <use x="620.646484" xlink:href="#DejaVuSans-6c"/>
      <use x="648.429688" xlink:href="#DejaVuSans-69"/>
      <use x="676.212891" xlink:href="#DejaVuSans-6e"/>
      <use x="739.591797" xlink:href="#DejaVuSans-6b"/>
      <use x="797.501953" xlink:href="#DejaVuSans-73"/>
     </g>
    </g>
    <g id="line2d_43">
     <path d="M 148.307187 344.507344 
L 226.307187 344.507344 
" style="fill:none;stroke:#f97306;stroke-dasharray:5.55,2.4;stroke-dashoffset:0;stroke-width:1.5;"/>
    </g>
    <g id="line2d_44">
     <g>
      <use style="fill:#f97306;stroke:#000000;stroke-linejoin:miter;" x="187.307187" xlink:href="#m50cfab0b1d" y="344.507344"/>
     </g>
    </g>
    <g id="text_21">
     <!-- Pairing Smooth links -->
     <g transform="translate(257.507187 358.157344)scale(0.39 -0.39)">
      <use xlink:href="#DejaVuSans-50"/>
      <use x="55.802734" xlink:href="#DejaVuSans-61"/>
      <use x="117.082031" xlink:href="#DejaVuSans-69"/>
      <use x="144.865234" xlink:href="#DejaVuSans-72"/>
      <use x="185.978516" xlink:href="#DejaVuSans-69"/>
      <use x="213.761719" xlink:href="#DejaVuSans-6e"/>
      <use x="277.140625" xlink:href="#DejaVuSans-67"/>
      <use x="340.617188" xlink:href="#DejaVuSans-20"/>
      <use x="372.404297" xlink:href="#DejaVuSans-53"/>
      <use x="435.880859" xlink:href="#DejaVuSans-6d"/>
      <use x="533.292969" xlink:href="#DejaVuSans-6f"/>
      <use x="594.474609" xlink:href="#DejaVuSans-6f"/>
      <use x="655.65625" xlink:href="#DejaVuSans-74"/>
      <use x="694.865234" xlink:href="#DejaVuSans-68"/>
      <use x="758.244141" xlink:href="#DejaVuSans-20"/>
      <use x="790.03125" xlink:href="#DejaVuSans-6c"/>
      <use x="817.814453" xlink:href="#DejaVuSans-69"/>
      <use x="845.597656" xlink:href="#DejaVuSans-6e"/>
      <use x="908.976562" xlink:href="#DejaVuSans-6b"/>
      <use x="966.886719" xlink:href="#DejaVuSans-73"/>
     </g>
    </g>
   </g>
  </g>
 </g>
 <defs>
  <clipPath id="p887693cdb7">
   <rect height="997.92" width="892.8" x="113.207188" y="7.2"/>
  </clipPath>
 </defs>
</svg>
