<?xml version="1.0" encoding="utf-8" standalone="no"?>
<!DOCTYPE svg PUBLIC "-//W3C//DTD SVG 1.1//EN"
  "http://www.w3.org/Graphics/SVG/1.1/DTD/svg11.dtd">
<svg height="1090.099062pt" version="1.1" viewBox="0 0 958.657578 1090.099062" width="958.657578pt" xmlns="http://www.w3.org/2000/svg" xmlns:xlink="http://www.w3.org/1999/xlink">
 <metadata>
  <rdf:RDF xmlns:cc="http://creativecommons.org/ns#" xmlns:dc="http://purl.org/dc/elements/1.1/" xmlns:rdf="http://www.w3.org/1999/02/22-rdf-syntax-ns#">
   <cc:Work>
    <dc:type rdf:resource="http://purl.org/dc/dcmitype/StillImage"/>
    <dc:date>2021-06-14T17:24:49.069754</dc:date>
    <dc:format>image/svg+xml</dc:format>
    <dc:creator>
     <cc:Agent>
      <dc:title>Matplotlib v3.4.2, https://matplotlib.org/</dc:title>
     </cc:Agent>
    </dc:creator>
   </cc:Work>
  </rdf:RDF>
 </metadata>
 <defs>
  <style type="text/css">*{stroke-linecap:butt;stroke-linejoin:round;}</style>
 </defs>
 <g id="figure_1">
  <g id="patch_1">
   <path d="M 0 1090.099062 
L 958.657578 1090.099062 
L 958.657578 0 
L 0 0 
z
" style="fill:#ffffff;"/>
  </g>
  <g id="axes_1">
   <g id="patch_2">
    <path d="M 52.375 1005.12 
L 945.175 1005.12 
L 945.175 7.2 
L 52.375 7.2 
z
" style="fill:#ffffff;"/>
   </g>
   <g id="PolyCollection_1">
    <defs>
     <path d="M 92.956818 -253.192729 
L 92.956818 -228.025071 
L 135.674522 -263.386941 
L 178.392225 -291.704396 
L 221.109928 -325.193374 
L 263.827632 -332.785224 
L 306.545335 -351.153429 
L 349.263038 -354.337704 
L 391.980742 -368.505472 
L 434.698445 -373.128305 
L 477.416148 -386.263391 
L 520.133852 -396.14852 
L 562.851555 -399.549337 
L 605.569258 -397.915687 
L 648.286962 -405.136173 
L 691.004665 -419.540929 
L 733.722368 -415.552888 
L 776.440072 -427.991328 
L 819.157775 -431.492562 
L 861.875478 -433.107237 
L 904.593182 -432.583775 
L 904.593182 -466.378943 
L 904.593182 -466.378943 
L 861.875478 -468.64462 
L 819.157775 -456.806332 
L 776.440072 -462.280641 
L 733.722368 -457.473004 
L 691.004665 -451.444538 
L 648.286962 -446.651211 
L 605.569258 -434.56202 
L 562.851555 -436.670667 
L 520.133852 -427.857995 
L 477.416148 -404.607805 
L 434.698445 -410.83794 
L 391.980742 -398.49315 
L 349.263038 -397.282125 
L 306.545335 -377.244856 
L 263.827632 -368.974821 
L 221.109928 -355.464635 
L 178.392225 -330.364574 
L 135.674522 -302.93783 
L 92.956818 -253.192729 
z
" id="me415c602fc" style="stroke:#fe0002;stroke-opacity:0.3;"/>
    </defs>
    <g clip-path="url(#pddc29a27e2)">
     <use style="fill:#fe0002;fill-opacity:0.3;stroke:#fe0002;stroke-opacity:0.3;" x="0" xlink:href="#me415c602fc" y="1090.099062"/>
    </g>
   </g>
   <g id="PolyCollection_2">
    <g clip-path="url(#pddc29a27e2)">
     <use style="fill:#fe0002;fill-opacity:0.3;stroke:#fe0002;stroke-opacity:0.3;" x="0" xlink:href="#me415c602fc" y="1090.099062"/>
    </g>
   </g>
   <g id="PolyCollection_3">
    <defs>
     <path d="M 92.956818 -362.252583 
L 92.956818 -329.583026 
L 135.674522 -412.833091 
L 178.392225 -461.874565 
L 221.109928 -485.944208 
L 263.827632 -515.224717 
L 306.545335 -546.025908 
L 349.263038 -553.412753 
L 391.980742 -574.407866 
L 434.698445 -580.066083 
L 477.416148 -609.590617 
L 520.133852 -601.046833 
L 562.851555 -612.995273 
L 605.569258 -624.410117 
L 648.286962 -636.033491 
L 691.004665 -637.114344 
L 733.722368 -642.169067 
L 776.440072 -650.908125 
L 819.157775 -662.293506 
L 861.875478 -660.771437 
L 904.593182 -672.717287 
L 904.593182 -704.87674 
L 904.593182 -704.87674 
L 861.875478 -692.238136 
L 819.157775 -691.543147 
L 776.440072 -688.5234 
L 733.722368 -682.656236 
L 691.004665 -668.552328 
L 648.286962 -667.953238 
L 605.569258 -662.90804 
L 562.851555 -648.357396 
L 520.133852 -634.495961 
L 477.416148 -632.106455 
L 434.698445 -622.008246 
L 391.980742 -602.353961 
L 349.263038 -588.105844 
L 306.545335 -568.905451 
L 263.827632 -549.185245 
L 221.109928 -519.920066 
L 178.392225 -495.766926 
L 135.674522 -447.211001 
L 92.956818 -362.252583 
z
" id="m388e07aef3" style="stroke:#53fca1;stroke-opacity:0.3;"/>
    </defs>
    <g clip-path="url(#pddc29a27e2)">
     <use style="fill:#53fca1;fill-opacity:0.3;stroke:#53fca1;stroke-opacity:0.3;" x="0" xlink:href="#m388e07aef3" y="1090.099062"/>
    </g>
   </g>
   <g id="PolyCollection_4">
    <defs>
     <path d="M 92.956818 -146.472177 
L 92.956818 -139.212275 
L 135.674522 -183.389056 
L 178.392225 -208.444705 
L 221.109928 -226.028899 
L 263.827632 -240.442748 
L 306.545335 -249.903932 
L 349.263038 -260.49055 
L 391.980742 -267.770265 
L 434.698445 -274.630812 
L 477.416148 -281.485092 
L 520.133852 -287.214862 
L 562.851555 -292.662085 
L 605.569258 -296.691174 
L 648.286962 -300.779318 
L 691.004665 -304.712036 
L 733.722368 -308.672516 
L 776.440072 -311.38929 
L 819.157775 -314.85471 
L 861.875478 -316.952121 
L 904.593182 -320.894917 
L 904.593182 -323.669055 
L 904.593182 -323.669055 
L 861.875478 -320.053801 
L 819.157775 -318.087421 
L 776.440072 -314.715252 
L 733.722368 -310.583112 
L 691.004665 -307.034689 
L 648.286962 -303.455436 
L 605.569258 -299.421165 
L 562.851555 -295.413841 
L 520.133852 -290.216324 
L 477.416148 -284.293413 
L 434.698445 -277.878183 
L 391.980742 -270.612067 
L 349.263038 -264.663098 
L 306.545335 -255.41197 
L 263.827632 -244.179717 
L 221.109928 -232.087244 
L 178.392225 -213.239766 
L 135.674522 -188.27691 
L 92.956818 -146.472177 
z
" id="m1d6ece84da" style="stroke:#53fca1;stroke-opacity:0.3;"/>
    </defs>
    <g clip-path="url(#pddc29a27e2)">
     <use style="fill:#53fca1;fill-opacity:0.3;stroke:#53fca1;stroke-opacity:0.3;" x="0" xlink:href="#m1d6ece84da" y="1090.099062"/>
    </g>
   </g>
   <g id="PolyCollection_5">
    <defs>
     <path d="M 92.956818 -373.465097 
L 92.956818 -353.218039 
L 135.674522 -441.141915 
L 178.392225 -494.649895 
L 221.109928 -527.349726 
L 263.827632 -561.018981 
L 306.545335 -592.782729 
L 349.263038 -606.272834 
L 391.980742 -624.226601 
L 434.698445 -634.787926 
L 477.416148 -669.485045 
L 520.133852 -659.724668 
L 562.851555 -677.107089 
L 605.569258 -693.538282 
L 648.286962 -702.402386 
L 691.004665 -706.366651 
L 733.722368 -710.616676 
L 776.440072 -724.567546 
L 819.157775 -731.883543 
L 861.875478 -739.485768 
L 904.593182 -752.731652 
L 904.593182 -784.208873 
L 904.593182 -784.208873 
L 861.875478 -772.405973 
L 819.157775 -768.014109 
L 776.440072 -761.143459 
L 733.722368 -753.687257 
L 691.004665 -737.185626 
L 648.286962 -731.851418 
L 605.569258 -729.280937 
L 562.851555 -711.024882 
L 520.133852 -695.921404 
L 477.416148 -691.155103 
L 434.698445 -676.164536 
L 391.980742 -663.447571 
L 349.263038 -639.395359 
L 306.545335 -613.106433 
L 263.827632 -592.406244 
L 221.109928 -556.556683 
L 178.392225 -532.6562 
L 135.674522 -476.456664 
L 92.956818 -373.465097 
z
" id="mb8d3a7b744" style="stroke:#0652ff;stroke-opacity:0.3;"/>
    </defs>
    <g clip-path="url(#pddc29a27e2)">
     <use style="fill:#0652ff;fill-opacity:0.3;stroke:#0652ff;stroke-opacity:0.3;" x="0" xlink:href="#mb8d3a7b744" y="1090.099062"/>
    </g>
   </g>
   <g id="PolyCollection_6">
    <defs>
     <path d="M 92.956818 -179.787058 
L 92.956818 -171.155842 
L 135.674522 -223.591659 
L 178.392225 -255.741441 
L 221.109928 -280.328868 
L 263.827632 -295.382752 
L 306.545335 -310.806707 
L 349.263038 -323.149085 
L 391.980742 -335.306661 
L 434.698445 -344.330696 
L 477.416148 -355.084457 
L 520.133852 -360.496826 
L 562.851555 -369.197875 
L 605.569258 -373.465841 
L 648.286962 -379.812822 
L 691.004665 -385.57213 
L 733.722368 -388.896995 
L 776.440072 -396.254496 
L 819.157775 -398.28422 
L 861.875478 -406.014038 
L 904.593182 -409.14128 
L 904.593182 -413.592231 
L 904.593182 -413.592231 
L 861.875478 -407.567041 
L 819.157775 -403.763391 
L 776.440072 -399.304906 
L 733.722368 -394.464431 
L 691.004665 -389.390264 
L 648.286962 -383.234262 
L 605.569258 -378.710962 
L 562.851555 -372.271354 
L 520.133852 -364.580905 
L 477.416148 -357.523262 
L 434.698445 -349.831158 
L 391.980742 -342.74459 
L 349.263038 -330.064262 
L 306.545335 -317.640502 
L 263.827632 -303.561469 
L 221.109928 -285.200106 
L 178.392225 -261.980469 
L 135.674522 -230.760512 
L 92.956818 -179.787058 
z
" id="m2ededfd1a0" style="stroke:#0652ff;stroke-opacity:0.3;"/>
    </defs>
    <g clip-path="url(#pddc29a27e2)">
     <use style="fill:#0652ff;fill-opacity:0.3;stroke:#0652ff;stroke-opacity:0.3;" x="0" xlink:href="#m2ededfd1a0" y="1090.099062"/>
    </g>
   </g>
   <g id="PolyCollection_7">
    <defs>
     <path d="M 92.956818 -501.642692 
L 92.956818 -485.83224 
L 135.674522 -607.125307 
L 178.392225 -672.312345 
L 221.109928 -728.339437 
L 263.827632 -771.518523 
L 306.545335 -808.04725 
L 349.263038 -831.3677 
L 391.980742 -858.064831 
L 434.698445 -878.559643 
L 477.416148 -901.311138 
L 520.133852 -916.319804 
L 562.851555 -933.157332 
L 605.569258 -946.372065 
L 648.286962 -963.898998 
L 691.004665 -976.851634 
L 733.722368 -986.410153 
L 776.440072 -999.964928 
L 819.157775 -1008.166172 
L 861.875478 -1018.321205 
L 904.593182 -1028.768676 
L 904.593182 -1037.539062 
L 904.593182 -1037.539062 
L 861.875478 -1025.735821 
L 819.157775 -1015.261699 
L 776.440072 -1008.178314 
L 733.722368 -996.538365 
L 691.004665 -982.269332 
L 648.286962 -971.892139 
L 605.569258 -957.393139 
L 562.851555 -942.747409 
L 520.133852 -926.19775 
L 477.416148 -909.834639 
L 434.698445 -889.332522 
L 391.980742 -864.06647 
L 349.263038 -841.916275 
L 306.545335 -817.081526 
L 263.827632 -785.302695 
L 221.109928 -742.359595 
L 178.392225 -693.971853 
L 135.674522 -622.847906 
L 92.956818 -501.642692 
z
" id="m3c3998aef6" style="stroke:#ae7181;stroke-opacity:0.3;"/>
    </defs>
    <g clip-path="url(#pddc29a27e2)">
     <use style="fill:#ae7181;fill-opacity:0.3;stroke:#ae7181;stroke-opacity:0.3;" x="0" xlink:href="#m3c3998aef6" y="1090.099062"/>
    </g>
   </g>
   <g id="PolyCollection_8">
    <defs>
     <path d="M 92.956818 -138.244289 
L 92.956818 -130.339063 
L 135.674522 -190.985596 
L 178.392225 -223.579115 
L 221.109928 -251.592661 
L 263.827632 -273.182204 
L 306.545335 -291.446568 
L 349.263038 -303.106793 
L 391.980742 -316.455358 
L 434.698445 -326.702764 
L 477.416148 -338.078512 
L 520.133852 -345.582845 
L 562.851555 -354.001609 
L 605.569258 -360.608975 
L 648.286962 -369.372442 
L 691.004665 -375.84876 
L 733.722368 -380.628019 
L 776.440072 -387.405407 
L 819.157775 -391.506029 
L 861.875478 -396.583545 
L 904.593182 -401.807281 
L 904.593182 -406.192474 
L 904.593182 -406.192474 
L 861.875478 -400.290853 
L 819.157775 -395.053792 
L 776.440072 -391.5121 
L 733.722368 -385.692125 
L 691.004665 -378.557608 
L 648.286962 -373.369012 
L 605.569258 -366.119512 
L 562.851555 -358.796647 
L 520.133852 -350.521818 
L 477.416148 -342.340262 
L 434.698445 -332.089203 
L 391.980742 -319.456178 
L 349.263038 -308.38108 
L 306.545335 -295.963706 
L 263.827632 -280.07429 
L 221.109928 -258.60274 
L 178.392225 -234.408869 
L 135.674522 -198.846895 
L 92.956818 -138.244289 
z
" id="m08cd316986" style="stroke:#ae7181;stroke-opacity:0.3;"/>
    </defs>
    <g clip-path="url(#pddc29a27e2)">
     <use style="fill:#ae7181;fill-opacity:0.3;stroke:#ae7181;stroke-opacity:0.3;" x="0" xlink:href="#m08cd316986" y="1090.099062"/>
    </g>
   </g>
   <g id="matplotlib.axis_1">
    <g id="xtick_1">
     <g id="line2d_1">
      <path clip-path="url(#pddc29a27e2)" d="M 220.255574 1005.12 
L 220.255574 7.2 
" style="fill:none;stroke:#b0b0b0;stroke-linecap:square;stroke-width:0.8;"/>
     </g>
     <g id="line2d_2">
      <defs>
       <path d="M 0 0 
L 0 3.5 
" id="ma1dd7bd581" style="stroke:#000000;stroke-width:0.8;"/>
      </defs>
      <g>
       <use style="stroke:#000000;stroke-width:0.8;" x="220.255574" xlink:href="#ma1dd7bd581" y="1005.12"/>
      </g>
     </g>
     <g id="text_1">
      <!-- 2000 -->
      <g transform="translate(182.080574 1034.915313)scale(0.3 -0.3)">
       <defs>
        <path d="M 1228 531 
L 3431 531 
L 3431 0 
L 469 0 
L 469 531 
Q 828 903 1448 1529 
Q 2069 2156 2228 2338 
Q 2531 2678 2651 2914 
Q 2772 3150 2772 3378 
Q 2772 3750 2511 3984 
Q 2250 4219 1831 4219 
Q 1534 4219 1204 4116 
Q 875 4013 500 3803 
L 500 4441 
Q 881 4594 1212 4672 
Q 1544 4750 1819 4750 
Q 2544 4750 2975 4387 
Q 3406 4025 3406 3419 
Q 3406 3131 3298 2873 
Q 3191 2616 2906 2266 
Q 2828 2175 2409 1742 
Q 1991 1309 1228 531 
z
" id="DejaVuSans-32" transform="scale(0.015625)"/>
        <path d="M 2034 4250 
Q 1547 4250 1301 3770 
Q 1056 3291 1056 2328 
Q 1056 1369 1301 889 
Q 1547 409 2034 409 
Q 2525 409 2770 889 
Q 3016 1369 3016 2328 
Q 3016 3291 2770 3770 
Q 2525 4250 2034 4250 
z
M 2034 4750 
Q 2819 4750 3233 4129 
Q 3647 3509 3647 2328 
Q 3647 1150 3233 529 
Q 2819 -91 2034 -91 
Q 1250 -91 836 529 
Q 422 1150 422 2328 
Q 422 3509 836 4129 
Q 1250 4750 2034 4750 
z
" id="DejaVuSans-30" transform="scale(0.015625)"/>
       </defs>
       <use xlink:href="#DejaVuSans-32"/>
       <use x="63.623047" xlink:href="#DejaVuSans-30"/>
       <use x="127.246094" xlink:href="#DejaVuSans-30"/>
       <use x="190.869141" xlink:href="#DejaVuSans-30"/>
      </g>
     </g>
    </g>
    <g id="xtick_2">
     <g id="line2d_3">
      <path clip-path="url(#pddc29a27e2)" d="M 391.126388 1005.12 
L 391.126388 7.2 
" style="fill:none;stroke:#b0b0b0;stroke-linecap:square;stroke-width:0.8;"/>
     </g>
     <g id="line2d_4">
      <g>
       <use style="stroke:#000000;stroke-width:0.8;" x="391.126388" xlink:href="#ma1dd7bd581" y="1005.12"/>
      </g>
     </g>
     <g id="text_2">
      <!-- 4000 -->
      <g transform="translate(352.951388 1034.915313)scale(0.3 -0.3)">
       <defs>
        <path d="M 2419 4116 
L 825 1625 
L 2419 1625 
L 2419 4116 
z
M 2253 4666 
L 3047 4666 
L 3047 1625 
L 3713 1625 
L 3713 1100 
L 3047 1100 
L 3047 0 
L 2419 0 
L 2419 1100 
L 313 1100 
L 313 1709 
L 2253 4666 
z
" id="DejaVuSans-34" transform="scale(0.015625)"/>
       </defs>
       <use xlink:href="#DejaVuSans-34"/>
       <use x="63.623047" xlink:href="#DejaVuSans-30"/>
       <use x="127.246094" xlink:href="#DejaVuSans-30"/>
       <use x="190.869141" xlink:href="#DejaVuSans-30"/>
      </g>
     </g>
    </g>
    <g id="xtick_3">
     <g id="line2d_5">
      <path clip-path="url(#pddc29a27e2)" d="M 561.997201 1005.12 
L 561.997201 7.2 
" style="fill:none;stroke:#b0b0b0;stroke-linecap:square;stroke-width:0.8;"/>
     </g>
     <g id="line2d_6">
      <g>
       <use style="stroke:#000000;stroke-width:0.8;" x="561.997201" xlink:href="#ma1dd7bd581" y="1005.12"/>
      </g>
     </g>
     <g id="text_3">
      <!-- 6000 -->
      <g transform="translate(523.822201 1034.915313)scale(0.3 -0.3)">
       <defs>
        <path d="M 2113 2584 
Q 1688 2584 1439 2293 
Q 1191 2003 1191 1497 
Q 1191 994 1439 701 
Q 1688 409 2113 409 
Q 2538 409 2786 701 
Q 3034 994 3034 1497 
Q 3034 2003 2786 2293 
Q 2538 2584 2113 2584 
z
M 3366 4563 
L 3366 3988 
Q 3128 4100 2886 4159 
Q 2644 4219 2406 4219 
Q 1781 4219 1451 3797 
Q 1122 3375 1075 2522 
Q 1259 2794 1537 2939 
Q 1816 3084 2150 3084 
Q 2853 3084 3261 2657 
Q 3669 2231 3669 1497 
Q 3669 778 3244 343 
Q 2819 -91 2113 -91 
Q 1303 -91 875 529 
Q 447 1150 447 2328 
Q 447 3434 972 4092 
Q 1497 4750 2381 4750 
Q 2619 4750 2861 4703 
Q 3103 4656 3366 4563 
z
" id="DejaVuSans-36" transform="scale(0.015625)"/>
       </defs>
       <use xlink:href="#DejaVuSans-36"/>
       <use x="63.623047" xlink:href="#DejaVuSans-30"/>
       <use x="127.246094" xlink:href="#DejaVuSans-30"/>
       <use x="190.869141" xlink:href="#DejaVuSans-30"/>
      </g>
     </g>
    </g>
    <g id="xtick_4">
     <g id="line2d_7">
      <path clip-path="url(#pddc29a27e2)" d="M 732.868014 1005.12 
L 732.868014 7.2 
" style="fill:none;stroke:#b0b0b0;stroke-linecap:square;stroke-width:0.8;"/>
     </g>
     <g id="line2d_8">
      <g>
       <use style="stroke:#000000;stroke-width:0.8;" x="732.868014" xlink:href="#ma1dd7bd581" y="1005.12"/>
      </g>
     </g>
     <g id="text_4">
      <!-- 8000 -->
      <g transform="translate(694.693014 1034.915313)scale(0.3 -0.3)">
       <defs>
        <path d="M 2034 2216 
Q 1584 2216 1326 1975 
Q 1069 1734 1069 1313 
Q 1069 891 1326 650 
Q 1584 409 2034 409 
Q 2484 409 2743 651 
Q 3003 894 3003 1313 
Q 3003 1734 2745 1975 
Q 2488 2216 2034 2216 
z
M 1403 2484 
Q 997 2584 770 2862 
Q 544 3141 544 3541 
Q 544 4100 942 4425 
Q 1341 4750 2034 4750 
Q 2731 4750 3128 4425 
Q 3525 4100 3525 3541 
Q 3525 3141 3298 2862 
Q 3072 2584 2669 2484 
Q 3125 2378 3379 2068 
Q 3634 1759 3634 1313 
Q 3634 634 3220 271 
Q 2806 -91 2034 -91 
Q 1263 -91 848 271 
Q 434 634 434 1313 
Q 434 1759 690 2068 
Q 947 2378 1403 2484 
z
M 1172 3481 
Q 1172 3119 1398 2916 
Q 1625 2713 2034 2713 
Q 2441 2713 2670 2916 
Q 2900 3119 2900 3481 
Q 2900 3844 2670 4047 
Q 2441 4250 2034 4250 
Q 1625 4250 1398 4047 
Q 1172 3844 1172 3481 
z
" id="DejaVuSans-38" transform="scale(0.015625)"/>
       </defs>
       <use xlink:href="#DejaVuSans-38"/>
       <use x="63.623047" xlink:href="#DejaVuSans-30"/>
       <use x="127.246094" xlink:href="#DejaVuSans-30"/>
       <use x="190.869141" xlink:href="#DejaVuSans-30"/>
      </g>
     </g>
    </g>
    <g id="xtick_5">
     <g id="line2d_9">
      <path clip-path="url(#pddc29a27e2)" d="M 903.738828 1005.12 
L 903.738828 7.2 
" style="fill:none;stroke:#b0b0b0;stroke-linecap:square;stroke-width:0.8;"/>
     </g>
     <g id="line2d_10">
      <g>
       <use style="stroke:#000000;stroke-width:0.8;" x="903.738828" xlink:href="#ma1dd7bd581" y="1005.12"/>
      </g>
     </g>
     <g id="text_5">
      <!-- 10000 -->
      <g transform="translate(856.020078 1034.915313)scale(0.3 -0.3)">
       <defs>
        <path d="M 794 531 
L 1825 531 
L 1825 4091 
L 703 3866 
L 703 4441 
L 1819 4666 
L 2450 4666 
L 2450 531 
L 3481 531 
L 3481 0 
L 794 0 
L 794 531 
z
" id="DejaVuSans-31" transform="scale(0.015625)"/>
       </defs>
       <use xlink:href="#DejaVuSans-31"/>
       <use x="63.623047" xlink:href="#DejaVuSans-30"/>
       <use x="127.246094" xlink:href="#DejaVuSans-30"/>
       <use x="190.869141" xlink:href="#DejaVuSans-30"/>
       <use x="254.492188" xlink:href="#DejaVuSans-30"/>
      </g>
     </g>
    </g>
    <g id="text_6">
     <!-- Graph size -->
     <g transform="translate(394.955781 1074.788281)scale(0.39 -0.39)">
      <defs>
       <path d="M 3809 666 
L 3809 1919 
L 2778 1919 
L 2778 2438 
L 4434 2438 
L 4434 434 
Q 4069 175 3628 42 
Q 3188 -91 2688 -91 
Q 1594 -91 976 548 
Q 359 1188 359 2328 
Q 359 3472 976 4111 
Q 1594 4750 2688 4750 
Q 3144 4750 3555 4637 
Q 3966 4525 4313 4306 
L 4313 3634 
Q 3963 3931 3569 4081 
Q 3175 4231 2741 4231 
Q 1884 4231 1454 3753 
Q 1025 3275 1025 2328 
Q 1025 1384 1454 906 
Q 1884 428 2741 428 
Q 3075 428 3337 486 
Q 3600 544 3809 666 
z
" id="DejaVuSans-47" transform="scale(0.015625)"/>
       <path d="M 2631 2963 
Q 2534 3019 2420 3045 
Q 2306 3072 2169 3072 
Q 1681 3072 1420 2755 
Q 1159 2438 1159 1844 
L 1159 0 
L 581 0 
L 581 3500 
L 1159 3500 
L 1159 2956 
Q 1341 3275 1631 3429 
Q 1922 3584 2338 3584 
Q 2397 3584 2469 3576 
Q 2541 3569 2628 3553 
L 2631 2963 
z
" id="DejaVuSans-72" transform="scale(0.015625)"/>
       <path d="M 2194 1759 
Q 1497 1759 1228 1600 
Q 959 1441 959 1056 
Q 959 750 1161 570 
Q 1363 391 1709 391 
Q 2188 391 2477 730 
Q 2766 1069 2766 1631 
L 2766 1759 
L 2194 1759 
z
M 3341 1997 
L 3341 0 
L 2766 0 
L 2766 531 
Q 2569 213 2275 61 
Q 1981 -91 1556 -91 
Q 1019 -91 701 211 
Q 384 513 384 1019 
Q 384 1609 779 1909 
Q 1175 2209 1959 2209 
L 2766 2209 
L 2766 2266 
Q 2766 2663 2505 2880 
Q 2244 3097 1772 3097 
Q 1472 3097 1187 3025 
Q 903 2953 641 2809 
L 641 3341 
Q 956 3463 1253 3523 
Q 1550 3584 1831 3584 
Q 2591 3584 2966 3190 
Q 3341 2797 3341 1997 
z
" id="DejaVuSans-61" transform="scale(0.015625)"/>
       <path d="M 1159 525 
L 1159 -1331 
L 581 -1331 
L 581 3500 
L 1159 3500 
L 1159 2969 
Q 1341 3281 1617 3432 
Q 1894 3584 2278 3584 
Q 2916 3584 3314 3078 
Q 3713 2572 3713 1747 
Q 3713 922 3314 415 
Q 2916 -91 2278 -91 
Q 1894 -91 1617 61 
Q 1341 213 1159 525 
z
M 3116 1747 
Q 3116 2381 2855 2742 
Q 2594 3103 2138 3103 
Q 1681 3103 1420 2742 
Q 1159 2381 1159 1747 
Q 1159 1113 1420 752 
Q 1681 391 2138 391 
Q 2594 391 2855 752 
Q 3116 1113 3116 1747 
z
" id="DejaVuSans-70" transform="scale(0.015625)"/>
       <path d="M 3513 2113 
L 3513 0 
L 2938 0 
L 2938 2094 
Q 2938 2591 2744 2837 
Q 2550 3084 2163 3084 
Q 1697 3084 1428 2787 
Q 1159 2491 1159 1978 
L 1159 0 
L 581 0 
L 581 4863 
L 1159 4863 
L 1159 2956 
Q 1366 3272 1645 3428 
Q 1925 3584 2291 3584 
Q 2894 3584 3203 3211 
Q 3513 2838 3513 2113 
z
" id="DejaVuSans-68" transform="scale(0.015625)"/>
       <path id="DejaVuSans-20" transform="scale(0.015625)"/>
       <path d="M 2834 3397 
L 2834 2853 
Q 2591 2978 2328 3040 
Q 2066 3103 1784 3103 
Q 1356 3103 1142 2972 
Q 928 2841 928 2578 
Q 928 2378 1081 2264 
Q 1234 2150 1697 2047 
L 1894 2003 
Q 2506 1872 2764 1633 
Q 3022 1394 3022 966 
Q 3022 478 2636 193 
Q 2250 -91 1575 -91 
Q 1294 -91 989 -36 
Q 684 19 347 128 
L 347 722 
Q 666 556 975 473 
Q 1284 391 1588 391 
Q 1994 391 2212 530 
Q 2431 669 2431 922 
Q 2431 1156 2273 1281 
Q 2116 1406 1581 1522 
L 1381 1569 
Q 847 1681 609 1914 
Q 372 2147 372 2553 
Q 372 3047 722 3315 
Q 1072 3584 1716 3584 
Q 2034 3584 2315 3537 
Q 2597 3491 2834 3397 
z
" id="DejaVuSans-73" transform="scale(0.015625)"/>
       <path d="M 603 3500 
L 1178 3500 
L 1178 0 
L 603 0 
L 603 3500 
z
M 603 4863 
L 1178 4863 
L 1178 4134 
L 603 4134 
L 603 4863 
z
" id="DejaVuSans-69" transform="scale(0.015625)"/>
       <path d="M 353 3500 
L 3084 3500 
L 3084 2975 
L 922 459 
L 3084 459 
L 3084 0 
L 275 0 
L 275 525 
L 2438 3041 
L 353 3041 
L 353 3500 
z
" id="DejaVuSans-7a" transform="scale(0.015625)"/>
       <path d="M 3597 1894 
L 3597 1613 
L 953 1613 
Q 991 1019 1311 708 
Q 1631 397 2203 397 
Q 2534 397 2845 478 
Q 3156 559 3463 722 
L 3463 178 
Q 3153 47 2828 -22 
Q 2503 -91 2169 -91 
Q 1331 -91 842 396 
Q 353 884 353 1716 
Q 353 2575 817 3079 
Q 1281 3584 2069 3584 
Q 2775 3584 3186 3129 
Q 3597 2675 3597 1894 
z
M 3022 2063 
Q 3016 2534 2758 2815 
Q 2500 3097 2075 3097 
Q 1594 3097 1305 2825 
Q 1016 2553 972 2059 
L 3022 2063 
z
" id="DejaVuSans-65" transform="scale(0.015625)"/>
      </defs>
      <use xlink:href="#DejaVuSans-47"/>
      <use x="77.490234" xlink:href="#DejaVuSans-72"/>
      <use x="118.603516" xlink:href="#DejaVuSans-61"/>
      <use x="179.882812" xlink:href="#DejaVuSans-70"/>
      <use x="243.359375" xlink:href="#DejaVuSans-68"/>
      <use x="306.738281" xlink:href="#DejaVuSans-20"/>
      <use x="338.525391" xlink:href="#DejaVuSans-73"/>
      <use x="390.625" xlink:href="#DejaVuSans-69"/>
      <use x="418.408203" xlink:href="#DejaVuSans-7a"/>
      <use x="470.898438" xlink:href="#DejaVuSans-65"/>
     </g>
    </g>
   </g>
   <g id="matplotlib.axis_2">
    <g id="ytick_1">
     <g id="line2d_11">
      <path clip-path="url(#pddc29a27e2)" d="M 52.375 903.858758 
L 945.175 903.858758 
" style="fill:none;stroke:#b0b0b0;stroke-linecap:square;stroke-width:0.8;"/>
     </g>
     <g id="line2d_12">
      <defs>
       <path d="M 0 0 
L -3.5 0 
" id="mc8b021c0ae" style="stroke:#000000;stroke-width:0.8;"/>
      </defs>
      <g>
       <use style="stroke:#000000;stroke-width:0.8;" x="52.375" xlink:href="#mc8b021c0ae" y="903.858758"/>
      </g>
     </g>
     <g id="text_7">
      <!-- 10 -->
      <g transform="translate(7.2 915.256415)scale(0.3 -0.3)">
       <use xlink:href="#DejaVuSans-31"/>
       <use x="63.623047" xlink:href="#DejaVuSans-30"/>
      </g>
     </g>
    </g>
    <g id="ytick_2">
     <g id="line2d_13">
      <path clip-path="url(#pddc29a27e2)" d="M 52.375 698.161549 
L 945.175 698.161549 
" style="fill:none;stroke:#b0b0b0;stroke-linecap:square;stroke-width:0.8;"/>
     </g>
     <g id="line2d_14">
      <g>
       <use style="stroke:#000000;stroke-width:0.8;" x="52.375" xlink:href="#mc8b021c0ae" y="698.161549"/>
      </g>
     </g>
     <g id="text_8">
      <!-- 15 -->
      <g transform="translate(7.2 709.559205)scale(0.3 -0.3)">
       <defs>
        <path d="M 691 4666 
L 3169 4666 
L 3169 4134 
L 1269 4134 
L 1269 2991 
Q 1406 3038 1543 3061 
Q 1681 3084 1819 3084 
Q 2600 3084 3056 2656 
Q 3513 2228 3513 1497 
Q 3513 744 3044 326 
Q 2575 -91 1722 -91 
Q 1428 -91 1123 -41 
Q 819 9 494 109 
L 494 744 
Q 775 591 1075 516 
Q 1375 441 1709 441 
Q 2250 441 2565 725 
Q 2881 1009 2881 1497 
Q 2881 1984 2565 2268 
Q 2250 2553 1709 2553 
Q 1456 2553 1204 2497 
Q 953 2441 691 2322 
L 691 4666 
z
" id="DejaVuSans-35" transform="scale(0.015625)"/>
       </defs>
       <use xlink:href="#DejaVuSans-31"/>
       <use x="63.623047" xlink:href="#DejaVuSans-35"/>
      </g>
     </g>
    </g>
    <g id="ytick_3">
     <g id="line2d_15">
      <path clip-path="url(#pddc29a27e2)" d="M 52.375 492.46434 
L 945.175 492.46434 
" style="fill:none;stroke:#b0b0b0;stroke-linecap:square;stroke-width:0.8;"/>
     </g>
     <g id="line2d_16">
      <g>
       <use style="stroke:#000000;stroke-width:0.8;" x="52.375" xlink:href="#mc8b021c0ae" y="492.46434"/>
      </g>
     </g>
     <g id="text_9">
      <!-- 20 -->
      <g transform="translate(7.2 503.861996)scale(0.3 -0.3)">
       <use xlink:href="#DejaVuSans-32"/>
       <use x="63.623047" xlink:href="#DejaVuSans-30"/>
      </g>
     </g>
    </g>
    <g id="ytick_4">
     <g id="line2d_17">
      <path clip-path="url(#pddc29a27e2)" d="M 52.375 286.76713 
L 945.175 286.76713 
" style="fill:none;stroke:#b0b0b0;stroke-linecap:square;stroke-width:0.8;"/>
     </g>
     <g id="line2d_18">
      <g>
       <use style="stroke:#000000;stroke-width:0.8;" x="52.375" xlink:href="#mc8b021c0ae" y="286.76713"/>
      </g>
     </g>
     <g id="text_10">
      <!-- 25 -->
      <g transform="translate(7.2 298.164787)scale(0.3 -0.3)">
       <use xlink:href="#DejaVuSans-32"/>
       <use x="63.623047" xlink:href="#DejaVuSans-35"/>
      </g>
     </g>
    </g>
    <g id="ytick_5">
     <g id="line2d_19">
      <path clip-path="url(#pddc29a27e2)" d="M 52.375 81.069921 
L 945.175 81.069921 
" style="fill:none;stroke:#b0b0b0;stroke-linecap:square;stroke-width:0.8;"/>
     </g>
     <g id="line2d_20">
      <g>
       <use style="stroke:#000000;stroke-width:0.8;" x="52.375" xlink:href="#mc8b021c0ae" y="81.069921"/>
      </g>
     </g>
     <g id="text_11">
      <!-- 30 -->
      <g transform="translate(7.2 92.467577)scale(0.3 -0.3)">
       <defs>
        <path d="M 2597 2516 
Q 3050 2419 3304 2112 
Q 3559 1806 3559 1356 
Q 3559 666 3084 287 
Q 2609 -91 1734 -91 
Q 1441 -91 1130 -33 
Q 819 25 488 141 
L 488 750 
Q 750 597 1062 519 
Q 1375 441 1716 441 
Q 2309 441 2620 675 
Q 2931 909 2931 1356 
Q 2931 1769 2642 2001 
Q 2353 2234 1838 2234 
L 1294 2234 
L 1294 2753 
L 1863 2753 
Q 2328 2753 2575 2939 
Q 2822 3125 2822 3475 
Q 2822 3834 2567 4026 
Q 2313 4219 1838 4219 
Q 1578 4219 1281 4162 
Q 984 4106 628 3988 
L 628 4550 
Q 988 4650 1302 4700 
Q 1616 4750 1894 4750 
Q 2613 4750 3031 4423 
Q 3450 4097 3450 3541 
Q 3450 3153 3228 2886 
Q 3006 2619 2597 2516 
z
" id="DejaVuSans-33" transform="scale(0.015625)"/>
       </defs>
       <use xlink:href="#DejaVuSans-33"/>
       <use x="63.623047" xlink:href="#DejaVuSans-30"/>
      </g>
     </g>
    </g>
   </g>
   <g id="line2d_21">
    <path clip-path="url(#pddc29a27e2)" d="M 92.956818 847.150861 
L 135.674522 808.6515 
L 178.392225 774.30221 
L 221.109928 749.501935 
L 263.827632 736.408118 
L 306.545335 724.298079 
L 349.263038 707.341153 
L 391.980742 706.313519 
L 434.698445 697.689951 
L 477.416148 695.317097 
L 520.133852 679.592803 
L 562.851555 673.772226 
L 605.569258 674.499735 
L 648.286962 666.745922 
L 691.004665 653.816408 
L 733.722368 658.783245 
L 776.440072 640.712325 
L 819.157775 647.468259 
L 861.875478 637.414469 
L 904.593182 635.085866 
" style="fill:none;stroke:#fe0002;stroke-linecap:square;stroke-width:1.5;"/>
    <defs>
     <path d="M 0 4.5 
C 1.193414 4.5 2.338109 4.025852 3.181981 3.181981 
C 4.025852 2.338109 4.5 1.193414 4.5 0 
C 4.5 -1.193414 4.025852 -2.338109 3.181981 -3.181981 
C 2.338109 -4.025852 1.193414 -4.5 0 -4.5 
C -1.193414 -4.5 -2.338109 -4.025852 -3.181981 -3.181981 
C -4.025852 -2.338109 -4.5 -1.193414 -4.5 0 
C -4.5 1.193414 -4.025852 2.338109 -3.181981 3.181981 
C -2.338109 4.025852 -1.193414 4.5 0 4.5 
z
" id="mc73d8607bc" style="stroke:#000000;"/>
    </defs>
    <g clip-path="url(#pddc29a27e2)">
     <use style="fill:#fe0002;stroke:#000000;" x="92.956818" xlink:href="#mc73d8607bc" y="847.150861"/>
     <use style="fill:#fe0002;stroke:#000000;" x="135.674522" xlink:href="#mc73d8607bc" y="808.6515"/>
     <use style="fill:#fe0002;stroke:#000000;" x="178.392225" xlink:href="#mc73d8607bc" y="774.30221"/>
     <use style="fill:#fe0002;stroke:#000000;" x="221.109928" xlink:href="#mc73d8607bc" y="749.501935"/>
     <use style="fill:#fe0002;stroke:#000000;" x="263.827632" xlink:href="#mc73d8607bc" y="736.408118"/>
     <use style="fill:#fe0002;stroke:#000000;" x="306.545335" xlink:href="#mc73d8607bc" y="724.298079"/>
     <use style="fill:#fe0002;stroke:#000000;" x="349.263038" xlink:href="#mc73d8607bc" y="707.341153"/>
     <use style="fill:#fe0002;stroke:#000000;" x="391.980742" xlink:href="#mc73d8607bc" y="706.313519"/>
     <use style="fill:#fe0002;stroke:#000000;" x="434.698445" xlink:href="#mc73d8607bc" y="697.689951"/>
     <use style="fill:#fe0002;stroke:#000000;" x="477.416148" xlink:href="#mc73d8607bc" y="695.317097"/>
     <use style="fill:#fe0002;stroke:#000000;" x="520.133852" xlink:href="#mc73d8607bc" y="679.592803"/>
     <use style="fill:#fe0002;stroke:#000000;" x="562.851555" xlink:href="#mc73d8607bc" y="673.772226"/>
     <use style="fill:#fe0002;stroke:#000000;" x="605.569258" xlink:href="#mc73d8607bc" y="674.499735"/>
     <use style="fill:#fe0002;stroke:#000000;" x="648.286962" xlink:href="#mc73d8607bc" y="666.745922"/>
     <use style="fill:#fe0002;stroke:#000000;" x="691.004665" xlink:href="#mc73d8607bc" y="653.816408"/>
     <use style="fill:#fe0002;stroke:#000000;" x="733.722368" xlink:href="#mc73d8607bc" y="658.783245"/>
     <use style="fill:#fe0002;stroke:#000000;" x="776.440072" xlink:href="#mc73d8607bc" y="640.712325"/>
     <use style="fill:#fe0002;stroke:#000000;" x="819.157775" xlink:href="#mc73d8607bc" y="647.468259"/>
     <use style="fill:#fe0002;stroke:#000000;" x="861.875478" xlink:href="#mc73d8607bc" y="637.414469"/>
     <use style="fill:#fe0002;stroke:#000000;" x="904.593182" xlink:href="#mc73d8607bc" y="635.085866"/>
    </g>
   </g>
   <g id="line2d_22">
    <path clip-path="url(#pddc29a27e2)" d="M 92.956818 847.150861 
L 135.674522 808.6515 
L 178.392225 774.30221 
L 221.109928 749.501935 
L 263.827632 736.408118 
L 306.545335 724.298079 
L 349.263038 707.341153 
L 391.980742 706.313519 
L 434.698445 697.689951 
L 477.416148 695.317097 
L 520.133852 679.592803 
L 562.851555 673.772226 
L 605.569258 674.499735 
L 648.286962 666.745922 
L 691.004665 653.816408 
L 733.722368 658.783245 
L 776.440072 640.712325 
L 819.157775 647.468259 
L 861.875478 637.414469 
L 904.593182 635.085866 
" style="fill:none;stroke:#fe0002;stroke-dasharray:5.55,2.4;stroke-dashoffset:0;stroke-width:1.5;"/>
    <g clip-path="url(#pddc29a27e2)">
     <use style="fill:#fe0002;stroke:#000000;" x="92.956818" xlink:href="#mc73d8607bc" y="847.150861"/>
     <use style="fill:#fe0002;stroke:#000000;" x="135.674522" xlink:href="#mc73d8607bc" y="808.6515"/>
     <use style="fill:#fe0002;stroke:#000000;" x="178.392225" xlink:href="#mc73d8607bc" y="774.30221"/>
     <use style="fill:#fe0002;stroke:#000000;" x="221.109928" xlink:href="#mc73d8607bc" y="749.501935"/>
     <use style="fill:#fe0002;stroke:#000000;" x="263.827632" xlink:href="#mc73d8607bc" y="736.408118"/>
     <use style="fill:#fe0002;stroke:#000000;" x="306.545335" xlink:href="#mc73d8607bc" y="724.298079"/>
     <use style="fill:#fe0002;stroke:#000000;" x="349.263038" xlink:href="#mc73d8607bc" y="707.341153"/>
     <use style="fill:#fe0002;stroke:#000000;" x="391.980742" xlink:href="#mc73d8607bc" y="706.313519"/>
     <use style="fill:#fe0002;stroke:#000000;" x="434.698445" xlink:href="#mc73d8607bc" y="697.689951"/>
     <use style="fill:#fe0002;stroke:#000000;" x="477.416148" xlink:href="#mc73d8607bc" y="695.317097"/>
     <use style="fill:#fe0002;stroke:#000000;" x="520.133852" xlink:href="#mc73d8607bc" y="679.592803"/>
     <use style="fill:#fe0002;stroke:#000000;" x="562.851555" xlink:href="#mc73d8607bc" y="673.772226"/>
     <use style="fill:#fe0002;stroke:#000000;" x="605.569258" xlink:href="#mc73d8607bc" y="674.499735"/>
     <use style="fill:#fe0002;stroke:#000000;" x="648.286962" xlink:href="#mc73d8607bc" y="666.745922"/>
     <use style="fill:#fe0002;stroke:#000000;" x="691.004665" xlink:href="#mc73d8607bc" y="653.816408"/>
     <use style="fill:#fe0002;stroke:#000000;" x="733.722368" xlink:href="#mc73d8607bc" y="658.783245"/>
     <use style="fill:#fe0002;stroke:#000000;" x="776.440072" xlink:href="#mc73d8607bc" y="640.712325"/>
     <use style="fill:#fe0002;stroke:#000000;" x="819.157775" xlink:href="#mc73d8607bc" y="647.468259"/>
     <use style="fill:#fe0002;stroke:#000000;" x="861.875478" xlink:href="#mc73d8607bc" y="637.414469"/>
     <use style="fill:#fe0002;stroke:#000000;" x="904.593182" xlink:href="#mc73d8607bc" y="635.085866"/>
    </g>
   </g>
   <g id="line2d_23">
    <path clip-path="url(#pddc29a27e2)" d="M 92.956818 746.488293 
L 135.674522 658.639172 
L 178.392225 612.368104 
L 221.109928 585.040364 
L 263.827632 558.561163 
L 306.545335 536.512244 
L 349.263038 523.225156 
L 391.980742 502.353195 
L 434.698445 487.248479 
L 477.416148 470.093023 
L 520.133852 468.410086 
L 562.851555 459.755403 
L 605.569258 445.732841 
L 648.286962 438.623315 
L 691.004665 439.092077 
L 733.722368 422.501095 
L 776.440072 426.065957 
L 819.157775 411.719624 
L 861.875478 411.642856 
L 904.593182 404.970898 
" style="fill:none;stroke:#53fca1;stroke-linecap:square;stroke-width:1.5;"/>
    <defs>
     <path d="M 0 -4.5 
L -4.5 4.5 
L 4.5 4.5 
z
" id="m27865af34f" style="stroke:#000000;stroke-linejoin:miter;"/>
    </defs>
    <g clip-path="url(#pddc29a27e2)">
     <use style="fill:#53fca1;stroke:#000000;stroke-linejoin:miter;" x="92.956818" xlink:href="#m27865af34f" y="746.488293"/>
     <use style="fill:#53fca1;stroke:#000000;stroke-linejoin:miter;" x="135.674522" xlink:href="#m27865af34f" y="658.639172"/>
     <use style="fill:#53fca1;stroke:#000000;stroke-linejoin:miter;" x="178.392225" xlink:href="#m27865af34f" y="612.368104"/>
     <use style="fill:#53fca1;stroke:#000000;stroke-linejoin:miter;" x="221.109928" xlink:href="#m27865af34f" y="585.040364"/>
     <use style="fill:#53fca1;stroke:#000000;stroke-linejoin:miter;" x="263.827632" xlink:href="#m27865af34f" y="558.561163"/>
     <use style="fill:#53fca1;stroke:#000000;stroke-linejoin:miter;" x="306.545335" xlink:href="#m27865af34f" y="536.512244"/>
     <use style="fill:#53fca1;stroke:#000000;stroke-linejoin:miter;" x="349.263038" xlink:href="#m27865af34f" y="523.225156"/>
     <use style="fill:#53fca1;stroke:#000000;stroke-linejoin:miter;" x="391.980742" xlink:href="#m27865af34f" y="502.353195"/>
     <use style="fill:#53fca1;stroke:#000000;stroke-linejoin:miter;" x="434.698445" xlink:href="#m27865af34f" y="487.248479"/>
     <use style="fill:#53fca1;stroke:#000000;stroke-linejoin:miter;" x="477.416148" xlink:href="#m27865af34f" y="470.093023"/>
     <use style="fill:#53fca1;stroke:#000000;stroke-linejoin:miter;" x="520.133852" xlink:href="#m27865af34f" y="468.410086"/>
     <use style="fill:#53fca1;stroke:#000000;stroke-linejoin:miter;" x="562.851555" xlink:href="#m27865af34f" y="459.755403"/>
     <use style="fill:#53fca1;stroke:#000000;stroke-linejoin:miter;" x="605.569258" xlink:href="#m27865af34f" y="445.732841"/>
     <use style="fill:#53fca1;stroke:#000000;stroke-linejoin:miter;" x="648.286962" xlink:href="#m27865af34f" y="438.623315"/>
     <use style="fill:#53fca1;stroke:#000000;stroke-linejoin:miter;" x="691.004665" xlink:href="#m27865af34f" y="439.092077"/>
     <use style="fill:#53fca1;stroke:#000000;stroke-linejoin:miter;" x="733.722368" xlink:href="#m27865af34f" y="422.501095"/>
     <use style="fill:#53fca1;stroke:#000000;stroke-linejoin:miter;" x="776.440072" xlink:href="#m27865af34f" y="426.065957"/>
     <use style="fill:#53fca1;stroke:#000000;stroke-linejoin:miter;" x="819.157775" xlink:href="#m27865af34f" y="411.719624"/>
     <use style="fill:#53fca1;stroke:#000000;stroke-linejoin:miter;" x="861.875478" xlink:href="#m27865af34f" y="411.642856"/>
     <use style="fill:#53fca1;stroke:#000000;stroke-linejoin:miter;" x="904.593182" xlink:href="#m27865af34f" y="404.970898"/>
    </g>
   </g>
   <g id="line2d_24">
    <path clip-path="url(#pddc29a27e2)" d="M 92.956818 945.877455 
L 135.674522 903.891344 
L 178.392225 878.771872 
L 221.109928 860.752401 
L 263.827632 847.73702 
L 306.545335 836.697594 
L 349.263038 827.69336 
L 391.980742 820.470854 
L 434.698445 813.698616 
L 477.416148 807.406885 
L 520.133852 801.66271 
L 562.851555 796.380084 
L 605.569258 792.31842 
L 648.286962 787.887787 
L 691.004665 783.89757 
L 733.722368 780.136381 
L 776.440072 776.780908 
L 819.157775 773.832096 
L 861.875478 771.344766 
L 904.593182 767.913658 
" style="fill:none;stroke:#53fca1;stroke-dasharray:5.55,2.4;stroke-dashoffset:0;stroke-width:1.5;"/>
    <defs>
     <path d="M 0 6.363961 
L 6.363961 0 
L 0 -6.363961 
L -6.363961 0 
z
" id="m51ceed230f" style="stroke:#000000;stroke-linejoin:miter;"/>
    </defs>
    <g clip-path="url(#pddc29a27e2)">
     <use style="fill:#53fca1;stroke:#000000;stroke-linejoin:miter;" x="92.956818" xlink:href="#m51ceed230f" y="945.877455"/>
     <use style="fill:#53fca1;stroke:#000000;stroke-linejoin:miter;" x="135.674522" xlink:href="#m51ceed230f" y="903.891344"/>
     <use style="fill:#53fca1;stroke:#000000;stroke-linejoin:miter;" x="178.392225" xlink:href="#m51ceed230f" y="878.771872"/>
     <use style="fill:#53fca1;stroke:#000000;stroke-linejoin:miter;" x="221.109928" xlink:href="#m51ceed230f" y="860.752401"/>
     <use style="fill:#53fca1;stroke:#000000;stroke-linejoin:miter;" x="263.827632" xlink:href="#m51ceed230f" y="847.73702"/>
     <use style="fill:#53fca1;stroke:#000000;stroke-linejoin:miter;" x="306.545335" xlink:href="#m51ceed230f" y="836.697594"/>
     <use style="fill:#53fca1;stroke:#000000;stroke-linejoin:miter;" x="349.263038" xlink:href="#m51ceed230f" y="827.69336"/>
     <use style="fill:#53fca1;stroke:#000000;stroke-linejoin:miter;" x="391.980742" xlink:href="#m51ceed230f" y="820.470854"/>
     <use style="fill:#53fca1;stroke:#000000;stroke-linejoin:miter;" x="434.698445" xlink:href="#m51ceed230f" y="813.698616"/>
     <use style="fill:#53fca1;stroke:#000000;stroke-linejoin:miter;" x="477.416148" xlink:href="#m51ceed230f" y="807.406885"/>
     <use style="fill:#53fca1;stroke:#000000;stroke-linejoin:miter;" x="520.133852" xlink:href="#m51ceed230f" y="801.66271"/>
     <use style="fill:#53fca1;stroke:#000000;stroke-linejoin:miter;" x="562.851555" xlink:href="#m51ceed230f" y="796.380084"/>
     <use style="fill:#53fca1;stroke:#000000;stroke-linejoin:miter;" x="605.569258" xlink:href="#m51ceed230f" y="792.31842"/>
     <use style="fill:#53fca1;stroke:#000000;stroke-linejoin:miter;" x="648.286962" xlink:href="#m51ceed230f" y="787.887787"/>
     <use style="fill:#53fca1;stroke:#000000;stroke-linejoin:miter;" x="691.004665" xlink:href="#m51ceed230f" y="783.89757"/>
     <use style="fill:#53fca1;stroke:#000000;stroke-linejoin:miter;" x="733.722368" xlink:href="#m51ceed230f" y="780.136381"/>
     <use style="fill:#53fca1;stroke:#000000;stroke-linejoin:miter;" x="776.440072" xlink:href="#m51ceed230f" y="776.780908"/>
     <use style="fill:#53fca1;stroke:#000000;stroke-linejoin:miter;" x="819.157775" xlink:href="#m51ceed230f" y="773.832096"/>
     <use style="fill:#53fca1;stroke:#000000;stroke-linejoin:miter;" x="861.875478" xlink:href="#m51ceed230f" y="771.344766"/>
     <use style="fill:#53fca1;stroke:#000000;stroke-linejoin:miter;" x="904.593182" xlink:href="#m51ceed230f" y="767.913658"/>
    </g>
   </g>
   <g id="line2d_25">
    <path clip-path="url(#pddc29a27e2)" d="M 92.956818 727.031757 
L 135.674522 630.3833 
L 178.392225 578.110664 
L 221.109928 546.21169 
L 263.827632 514.028947 
L 306.545335 488.555409 
L 349.263038 471.649657 
L 391.980742 446.890866 
L 434.698445 429.811068 
L 477.416148 408.380576 
L 520.133852 407.297482 
L 562.851555 394.66336 
L 605.569258 378.661648 
L 648.286962 371.438675 
L 691.004665 368.625855 
L 733.722368 351.035567 
L 776.440072 351.799354 
L 819.157775 336.054556 
L 861.875478 332.088433 
L 904.593182 326.111397 
" style="fill:none;stroke:#0652ff;stroke-linecap:square;stroke-width:1.5;"/>
    <defs>
     <path d="M 0 -4.5 
L -4.279754 -1.390576 
L -2.645034 3.640576 
L 2.645034 3.640576 
L 4.279754 -1.390576 
z
" id="m0e1caa71ce" style="stroke:#000000;stroke-linejoin:miter;"/>
    </defs>
    <g clip-path="url(#pddc29a27e2)">
     <use style="fill:#0652ff;stroke:#000000;stroke-linejoin:miter;" x="92.956818" xlink:href="#m0e1caa71ce" y="727.031757"/>
     <use style="fill:#0652ff;stroke:#000000;stroke-linejoin:miter;" x="135.674522" xlink:href="#m0e1caa71ce" y="630.3833"/>
     <use style="fill:#0652ff;stroke:#000000;stroke-linejoin:miter;" x="178.392225" xlink:href="#m0e1caa71ce" y="578.110664"/>
     <use style="fill:#0652ff;stroke:#000000;stroke-linejoin:miter;" x="221.109928" xlink:href="#m0e1caa71ce" y="546.21169"/>
     <use style="fill:#0652ff;stroke:#000000;stroke-linejoin:miter;" x="263.827632" xlink:href="#m0e1caa71ce" y="514.028947"/>
     <use style="fill:#0652ff;stroke:#000000;stroke-linejoin:miter;" x="306.545335" xlink:href="#m0e1caa71ce" y="488.555409"/>
     <use style="fill:#0652ff;stroke:#000000;stroke-linejoin:miter;" x="349.263038" xlink:href="#m0e1caa71ce" y="471.649657"/>
     <use style="fill:#0652ff;stroke:#000000;stroke-linejoin:miter;" x="391.980742" xlink:href="#m0e1caa71ce" y="446.890866"/>
     <use style="fill:#0652ff;stroke:#000000;stroke-linejoin:miter;" x="434.698445" xlink:href="#m0e1caa71ce" y="429.811068"/>
     <use style="fill:#0652ff;stroke:#000000;stroke-linejoin:miter;" x="477.416148" xlink:href="#m0e1caa71ce" y="408.380576"/>
     <use style="fill:#0652ff;stroke:#000000;stroke-linejoin:miter;" x="520.133852" xlink:href="#m0e1caa71ce" y="407.297482"/>
     <use style="fill:#0652ff;stroke:#000000;stroke-linejoin:miter;" x="562.851555" xlink:href="#m0e1caa71ce" y="394.66336"/>
     <use style="fill:#0652ff;stroke:#000000;stroke-linejoin:miter;" x="605.569258" xlink:href="#m0e1caa71ce" y="378.661648"/>
     <use style="fill:#0652ff;stroke:#000000;stroke-linejoin:miter;" x="648.286962" xlink:href="#m0e1caa71ce" y="371.438675"/>
     <use style="fill:#0652ff;stroke:#000000;stroke-linejoin:miter;" x="691.004665" xlink:href="#m0e1caa71ce" y="368.625855"/>
     <use style="fill:#0652ff;stroke:#000000;stroke-linejoin:miter;" x="733.722368" xlink:href="#m0e1caa71ce" y="351.035567"/>
     <use style="fill:#0652ff;stroke:#000000;stroke-linejoin:miter;" x="776.440072" xlink:href="#m0e1caa71ce" y="351.799354"/>
     <use style="fill:#0652ff;stroke:#000000;stroke-linejoin:miter;" x="819.157775" xlink:href="#m0e1caa71ce" y="336.054556"/>
     <use style="fill:#0652ff;stroke:#000000;stroke-linejoin:miter;" x="861.875478" xlink:href="#m0e1caa71ce" y="332.088433"/>
     <use style="fill:#0652ff;stroke:#000000;stroke-linejoin:miter;" x="904.593182" xlink:href="#m0e1caa71ce" y="326.111397"/>
    </g>
   </g>
   <g id="line2d_26">
    <path clip-path="url(#pddc29a27e2)" d="M 92.956818 914.627612 
L 135.674522 862.320142 
L 178.392225 830.145597 
L 221.109928 807.543343 
L 263.827632 789.607481 
L 306.545335 775.429895 
L 349.263038 762.865335 
L 391.980742 752.726196 
L 434.698445 743.533519 
L 477.416148 733.709804 
L 520.133852 727.451189 
L 562.851555 719.276145 
L 605.569258 713.675732 
L 648.286962 708.928228 
L 691.004665 702.267824 
L 733.722368 697.512357 
L 776.440072 692.163215 
L 819.157775 688.112293 
L 861.875478 683.285596 
L 904.593182 679.506189 
" style="fill:none;stroke:#0652ff;stroke-dasharray:5.55,2.4;stroke-dashoffset:0;stroke-width:1.5;"/>
    <defs>
     <path d="M -2.25 4.5 
L 0 2.25 
L 2.25 4.5 
L 4.5 2.25 
L 2.25 0 
L 4.5 -2.25 
L 2.25 -4.5 
L 0 -2.25 
L -2.25 -4.5 
L -4.5 -2.25 
L -2.25 0 
L -4.5 2.25 
z
" id="m1fe2e63662" style="stroke:#000000;stroke-linejoin:miter;"/>
    </defs>
    <g clip-path="url(#pddc29a27e2)">
     <use style="fill:#0652ff;stroke:#000000;stroke-linejoin:miter;" x="92.956818" xlink:href="#m1fe2e63662" y="914.627612"/>
     <use style="fill:#0652ff;stroke:#000000;stroke-linejoin:miter;" x="135.674522" xlink:href="#m1fe2e63662" y="862.320142"/>
     <use style="fill:#0652ff;stroke:#000000;stroke-linejoin:miter;" x="178.392225" xlink:href="#m1fe2e63662" y="830.145597"/>
     <use style="fill:#0652ff;stroke:#000000;stroke-linejoin:miter;" x="221.109928" xlink:href="#m1fe2e63662" y="807.543343"/>
     <use style="fill:#0652ff;stroke:#000000;stroke-linejoin:miter;" x="263.827632" xlink:href="#m1fe2e63662" y="789.607481"/>
     <use style="fill:#0652ff;stroke:#000000;stroke-linejoin:miter;" x="306.545335" xlink:href="#m1fe2e63662" y="775.429895"/>
     <use style="fill:#0652ff;stroke:#000000;stroke-linejoin:miter;" x="349.263038" xlink:href="#m1fe2e63662" y="762.865335"/>
     <use style="fill:#0652ff;stroke:#000000;stroke-linejoin:miter;" x="391.980742" xlink:href="#m1fe2e63662" y="752.726196"/>
     <use style="fill:#0652ff;stroke:#000000;stroke-linejoin:miter;" x="434.698445" xlink:href="#m1fe2e63662" y="743.533519"/>
     <use style="fill:#0652ff;stroke:#000000;stroke-linejoin:miter;" x="477.416148" xlink:href="#m1fe2e63662" y="733.709804"/>
     <use style="fill:#0652ff;stroke:#000000;stroke-linejoin:miter;" x="520.133852" xlink:href="#m1fe2e63662" y="727.451189"/>
     <use style="fill:#0652ff;stroke:#000000;stroke-linejoin:miter;" x="562.851555" xlink:href="#m1fe2e63662" y="719.276145"/>
     <use style="fill:#0652ff;stroke:#000000;stroke-linejoin:miter;" x="605.569258" xlink:href="#m1fe2e63662" y="713.675732"/>
     <use style="fill:#0652ff;stroke:#000000;stroke-linejoin:miter;" x="648.286962" xlink:href="#m1fe2e63662" y="708.928228"/>
     <use style="fill:#0652ff;stroke:#000000;stroke-linejoin:miter;" x="691.004665" xlink:href="#m1fe2e63662" y="702.267824"/>
     <use style="fill:#0652ff;stroke:#000000;stroke-linejoin:miter;" x="733.722368" xlink:href="#m1fe2e63662" y="697.512357"/>
     <use style="fill:#0652ff;stroke:#000000;stroke-linejoin:miter;" x="776.440072" xlink:href="#m1fe2e63662" y="692.163215"/>
     <use style="fill:#0652ff;stroke:#000000;stroke-linejoin:miter;" x="819.157775" xlink:href="#m1fe2e63662" y="688.112293"/>
     <use style="fill:#0652ff;stroke:#000000;stroke-linejoin:miter;" x="861.875478" xlink:href="#m1fe2e63662" y="683.285596"/>
     <use style="fill:#0652ff;stroke:#000000;stroke-linejoin:miter;" x="904.593182" xlink:href="#m1fe2e63662" y="679.506189"/>
    </g>
   </g>
   <g id="line2d_27">
    <path clip-path="url(#pddc29a27e2)" d="M 92.956818 595.837271 
L 135.674522 475.719365 
L 178.392225 407.733436 
L 221.109928 352.772397 
L 263.827632 312.840686 
L 306.545335 278.449036 
L 349.263038 253.383235 
L 391.980742 229.19243 
L 434.698445 206.362782 
L 477.416148 184.765128 
L 520.133852 168.035416 
L 562.851555 151.099382 
L 605.569258 138.928659 
L 648.286962 123.767497 
L 691.004665 110.432307 
L 733.722368 98.471751 
L 776.440072 86.490079 
L 819.157775 78.945829 
L 861.875478 67.987924 
L 904.593182 56.644764 
" style="fill:none;stroke:#ae7181;stroke-linecap:square;stroke-width:1.5;"/>
    <defs>
     <path d="M -4.5 4.5 
L 4.5 4.5 
L 4.5 -4.5 
L -4.5 -4.5 
z
" id="med7896c935" style="stroke:#000000;stroke-linejoin:miter;"/>
    </defs>
    <g clip-path="url(#pddc29a27e2)">
     <use style="fill:#ae7181;stroke:#000000;stroke-linejoin:miter;" x="92.956818" xlink:href="#med7896c935" y="595.837271"/>
     <use style="fill:#ae7181;stroke:#000000;stroke-linejoin:miter;" x="135.674522" xlink:href="#med7896c935" y="475.719365"/>
     <use style="fill:#ae7181;stroke:#000000;stroke-linejoin:miter;" x="178.392225" xlink:href="#med7896c935" y="407.733436"/>
     <use style="fill:#ae7181;stroke:#000000;stroke-linejoin:miter;" x="221.109928" xlink:href="#med7896c935" y="352.772397"/>
     <use style="fill:#ae7181;stroke:#000000;stroke-linejoin:miter;" x="263.827632" xlink:href="#med7896c935" y="312.840686"/>
     <use style="fill:#ae7181;stroke:#000000;stroke-linejoin:miter;" x="306.545335" xlink:href="#med7896c935" y="278.449036"/>
     <use style="fill:#ae7181;stroke:#000000;stroke-linejoin:miter;" x="349.263038" xlink:href="#med7896c935" y="253.383235"/>
     <use style="fill:#ae7181;stroke:#000000;stroke-linejoin:miter;" x="391.980742" xlink:href="#med7896c935" y="229.19243"/>
     <use style="fill:#ae7181;stroke:#000000;stroke-linejoin:miter;" x="434.698445" xlink:href="#med7896c935" y="206.362782"/>
     <use style="fill:#ae7181;stroke:#000000;stroke-linejoin:miter;" x="477.416148" xlink:href="#med7896c935" y="184.765128"/>
     <use style="fill:#ae7181;stroke:#000000;stroke-linejoin:miter;" x="520.133852" xlink:href="#med7896c935" y="168.035416"/>
     <use style="fill:#ae7181;stroke:#000000;stroke-linejoin:miter;" x="562.851555" xlink:href="#med7896c935" y="151.099382"/>
     <use style="fill:#ae7181;stroke:#000000;stroke-linejoin:miter;" x="605.569258" xlink:href="#med7896c935" y="138.928659"/>
     <use style="fill:#ae7181;stroke:#000000;stroke-linejoin:miter;" x="648.286962" xlink:href="#med7896c935" y="123.767497"/>
     <use style="fill:#ae7181;stroke:#000000;stroke-linejoin:miter;" x="691.004665" xlink:href="#med7896c935" y="110.432307"/>
     <use style="fill:#ae7181;stroke:#000000;stroke-linejoin:miter;" x="733.722368" xlink:href="#med7896c935" y="98.471751"/>
     <use style="fill:#ae7181;stroke:#000000;stroke-linejoin:miter;" x="776.440072" xlink:href="#med7896c935" y="86.490079"/>
     <use style="fill:#ae7181;stroke:#000000;stroke-linejoin:miter;" x="819.157775" xlink:href="#med7896c935" y="78.945829"/>
     <use style="fill:#ae7181;stroke:#000000;stroke-linejoin:miter;" x="861.875478" xlink:href="#med7896c935" y="67.987924"/>
     <use style="fill:#ae7181;stroke:#000000;stroke-linejoin:miter;" x="904.593182" xlink:href="#med7896c935" y="56.644764"/>
    </g>
   </g>
   <g id="line2d_28">
    <path clip-path="url(#pddc29a27e2)" d="M 92.956818 955.545224 
L 135.674522 895.486271 
L 178.392225 861.493307 
L 221.109928 834.012787 
L 263.827632 814.046931 
L 306.545335 796.851106 
L 349.263038 784.318206 
L 391.980742 772.222804 
L 434.698445 760.80798 
L 477.416148 750.009152 
L 520.133852 741.644296 
L 562.851555 733.176279 
L 605.569258 727.090918 
L 648.286962 719.510337 
L 691.004665 712.842742 
L 733.722368 706.862464 
L 776.440072 700.871628 
L 819.157775 697.099503 
L 861.875478 691.620551 
L 904.593182 685.948971 
" style="fill:none;stroke:#ae7181;stroke-dasharray:5.55,2.4;stroke-dashoffset:0;stroke-width:1.5;"/>
    <defs>
     <path d="M 0 -4.5 
L -1.010313 -1.390576 
L -4.279754 -1.390576 
L -1.634721 0.531153 
L -2.645034 3.640576 
L -0 1.718847 
L 2.645034 3.640576 
L 1.634721 0.531153 
L 4.279754 -1.390576 
L 1.010313 -1.390576 
z
" id="m681a8a9916" style="stroke:#000000;stroke-linejoin:bevel;"/>
    </defs>
    <g clip-path="url(#pddc29a27e2)">
     <use style="fill:#ae7181;stroke:#000000;stroke-linejoin:bevel;" x="92.956818" xlink:href="#m681a8a9916" y="955.545224"/>
     <use style="fill:#ae7181;stroke:#000000;stroke-linejoin:bevel;" x="135.674522" xlink:href="#m681a8a9916" y="895.486271"/>
     <use style="fill:#ae7181;stroke:#000000;stroke-linejoin:bevel;" x="178.392225" xlink:href="#m681a8a9916" y="861.493307"/>
     <use style="fill:#ae7181;stroke:#000000;stroke-linejoin:bevel;" x="221.109928" xlink:href="#m681a8a9916" y="834.012787"/>
     <use style="fill:#ae7181;stroke:#000000;stroke-linejoin:bevel;" x="263.827632" xlink:href="#m681a8a9916" y="814.046931"/>
     <use style="fill:#ae7181;stroke:#000000;stroke-linejoin:bevel;" x="306.545335" xlink:href="#m681a8a9916" y="796.851106"/>
     <use style="fill:#ae7181;stroke:#000000;stroke-linejoin:bevel;" x="349.263038" xlink:href="#m681a8a9916" y="784.318206"/>
     <use style="fill:#ae7181;stroke:#000000;stroke-linejoin:bevel;" x="391.980742" xlink:href="#m681a8a9916" y="772.222804"/>
     <use style="fill:#ae7181;stroke:#000000;stroke-linejoin:bevel;" x="434.698445" xlink:href="#m681a8a9916" y="760.80798"/>
     <use style="fill:#ae7181;stroke:#000000;stroke-linejoin:bevel;" x="477.416148" xlink:href="#m681a8a9916" y="750.009152"/>
     <use style="fill:#ae7181;stroke:#000000;stroke-linejoin:bevel;" x="520.133852" xlink:href="#m681a8a9916" y="741.644296"/>
     <use style="fill:#ae7181;stroke:#000000;stroke-linejoin:bevel;" x="562.851555" xlink:href="#m681a8a9916" y="733.176279"/>
     <use style="fill:#ae7181;stroke:#000000;stroke-linejoin:bevel;" x="605.569258" xlink:href="#m681a8a9916" y="727.090918"/>
     <use style="fill:#ae7181;stroke:#000000;stroke-linejoin:bevel;" x="648.286962" xlink:href="#m681a8a9916" y="719.510337"/>
     <use style="fill:#ae7181;stroke:#000000;stroke-linejoin:bevel;" x="691.004665" xlink:href="#m681a8a9916" y="712.842742"/>
     <use style="fill:#ae7181;stroke:#000000;stroke-linejoin:bevel;" x="733.722368" xlink:href="#m681a8a9916" y="706.862464"/>
     <use style="fill:#ae7181;stroke:#000000;stroke-linejoin:bevel;" x="776.440072" xlink:href="#m681a8a9916" y="700.871628"/>
     <use style="fill:#ae7181;stroke:#000000;stroke-linejoin:bevel;" x="819.157775" xlink:href="#m681a8a9916" y="697.099503"/>
     <use style="fill:#ae7181;stroke:#000000;stroke-linejoin:bevel;" x="861.875478" xlink:href="#m681a8a9916" y="691.620551"/>
     <use style="fill:#ae7181;stroke:#000000;stroke-linejoin:bevel;" x="904.593182" xlink:href="#m681a8a9916" y="685.948971"/>
    </g>
   </g>
   <g id="patch_3">
    <path d="M 52.375 1005.12 
L 52.375 7.2 
" style="fill:none;stroke:#000000;stroke-linecap:square;stroke-linejoin:miter;stroke-width:0.8;"/>
   </g>
   <g id="patch_4">
    <path d="M 945.175 1005.12 
L 945.175 7.2 
" style="fill:none;stroke:#000000;stroke-linecap:square;stroke-linejoin:miter;stroke-width:0.8;"/>
   </g>
   <g id="patch_5">
    <path d="M 52.375 1005.12 
L 945.175 1005.12 
" style="fill:none;stroke:#000000;stroke-linecap:square;stroke-linejoin:miter;stroke-width:0.8;"/>
   </g>
   <g id="patch_6">
    <path d="M 52.375 7.2 
L 945.175 7.2 
" style="fill:none;stroke:#000000;stroke-linecap:square;stroke-linejoin:miter;stroke-width:0.8;"/>
   </g>
  </g>
 </g>
 <defs>
  <clipPath id="pddc29a27e2">
   <rect height="997.92" width="892.8" x="52.375" y="7.2"/>
  </clipPath>
 </defs>
</svg>
