<?xml version="1.0" encoding="utf-8" standalone="no"?>
<!DOCTYPE svg PUBLIC "-//W3C//DTD SVG 1.1//EN"
  "http://www.w3.org/Graphics/SVG/1.1/DTD/svg11.dtd">
<svg height="1090.099063pt" version="1.1" viewBox="0 0 994.119688 1090.099063" width="994.119688pt" xmlns="http://www.w3.org/2000/svg" xmlns:xlink="http://www.w3.org/1999/xlink">
 <metadata>
  <rdf:RDF xmlns:cc="http://creativecommons.org/ns#" xmlns:dc="http://purl.org/dc/elements/1.1/" xmlns:rdf="http://www.w3.org/1999/02/22-rdf-syntax-ns#">
   <cc:Work>
    <dc:type rdf:resource="http://purl.org/dc/dcmitype/StillImage"/>
    <dc:date>2021-07-05T14:51:32.210395</dc:date>
    <dc:format>image/svg+xml</dc:format>
    <dc:creator>
     <cc:Agent>
      <dc:title>Matplotlib v3.4.2, https://matplotlib.org/</dc:title>
     </cc:Agent>
    </dc:creator>
   </cc:Work>
  </rdf:RDF>
 </metadata>
 <defs>
  <style type="text/css">*{stroke-linecap:butt;stroke-linejoin:round;}</style>
 </defs>
 <g id="figure_1">
  <g id="patch_1">
   <path d="M 0 1090.099063 
L 994.119688 1090.099063 
L 994.119688 0 
L 0 0 
z
" style="fill:#ffffff;"/>
  </g>
  <g id="axes_1">
   <g id="patch_2">
    <path d="M 94.119688 1005.12 
L 986.919688 1005.12 
L 986.919688 7.2 
L 94.119688 7.2 
z
" style="fill:#ffffff;"/>
   </g>
   <g id="PolyCollection_1">
    <defs>
     <path d="M 134.701506 -184.765306 
L 134.701506 -171.158745 
L 134.800594 -217.421051 
L 134.998772 -293.617792 
L 135.395127 -355.187479 
L 136.187838 -414.886265 
L 137.773258 -471.353492 
L 140.9441 -533.81611 
L 147.285783 -589.135284 
L 159.96915 -643.370185 
L 185.335883 -696.334786 
L 236.069348 -753.094341 
L 337.53628 -808.142447 
L 540.470143 -862.243142 
L 946.337869 -916.36078 
L 946.337869 -916.765721 
L 946.337869 -916.765721 
L 540.470143 -863.027778 
L 337.53628 -808.760323 
L 236.069348 -754.6676 
L 185.335883 -700.390178 
L 159.96915 -646.484811 
L 147.285783 -591.303829 
L 140.9441 -535.644492 
L 137.773258 -479.60247 
L 136.187838 -421.349381 
L 135.395127 -365.052236 
L 134.998772 -303.822712 
L 134.800594 -241.912861 
L 134.701506 -184.765306 
z
" id="m5016febc7d" style="stroke:#fe0002;stroke-opacity:0.3;"/>
    </defs>
    <g clip-path="url(#p5a6d8e1f2a)">
     <use style="fill:#fe0002;fill-opacity:0.3;stroke:#fe0002;stroke-opacity:0.3;" x="0" xlink:href="#m5016febc7d" y="1090.099063"/>
    </g>
   </g>
   <g id="PolyCollection_2">
    <defs>
     <path d="M 134.701506 -152.10956 
L 134.701506 -135.781687 
L 134.800594 -172.519401 
L 134.998772 -214.019411 
L 135.395127 -251.777617 
L 136.187838 -293.277628 
L 137.773258 -334.607556 
L 140.9441 -372.578365 
L 147.285783 -411.357063 
L 159.96915 -449.455433 
L 185.335883 -486.990407 
L 236.069348 -525.296064 
L 337.53628 -563.750544 
L 540.470143 -601.756565 
L 946.337869 -639.838658 
L 946.337869 -640.342592 
L 946.337869 -640.342592 
L 540.470143 -602.404338 
L 337.53628 -565.019515 
L 236.069348 -526.622173 
L 185.335883 -489.010131 
L 159.96915 -451.018062 
L 147.285783 -415.630374 
L 140.9441 -374.66187 
L 137.773258 -337.073745 
L 136.187838 -301.271482 
L 135.395127 -258.580898 
L 134.998772 -228.986628 
L 134.800594 -186.125962 
L 134.701506 -152.10956 
z
" id="m55e5a6b02f" style="stroke:#53fca1;stroke-opacity:0.3;"/>
    </defs>
    <g clip-path="url(#p5a6d8e1f2a)">
     <use style="fill:#53fca1;fill-opacity:0.3;stroke:#53fca1;stroke-opacity:0.3;" x="0" xlink:href="#m55e5a6b02f" y="1090.099063"/>
    </g>
   </g>
   <g id="PolyCollection_3">
    <defs>
     <path d="M 134.701506 -146.666935 
L 134.701506 -130.339063 
L 134.800594 -179.322681 
L 134.998772 -210.617771 
L 135.395127 -273.888279 
L 136.187838 -324.062472 
L 137.773258 -376.022526 
L 140.9441 -433.042519 
L 147.285783 -491.019224 
L 159.96915 -546.019494 
L 185.335883 -603.294611 
L 236.069348 -659.692743 
L 337.53628 -716.392504 
L 540.470143 -772.19867 
L 946.337869 -827.328162 
L 946.337869 -828.352973 
L 946.337869 -828.352973 
L 540.470143 -773.451032 
L 337.53628 -717.832886 
L 236.069348 -661.425453 
L 185.335883 -605.936197 
L 159.96915 -548.889628 
L 147.285783 -496.291767 
L 140.9441 -437.889857 
L 137.773258 -380.954904 
L 136.187838 -328.654686 
L 135.395127 -281.371887 
L 134.998772 -235.789909 
L 134.800594 -195.650554 
L 134.701506 -146.666935 
z
" id="m3b54f3c8e2" style="stroke:#0652ff;stroke-opacity:0.3;"/>
    </defs>
    <g clip-path="url(#p5a6d8e1f2a)">
     <use style="fill:#0652ff;fill-opacity:0.3;stroke:#0652ff;stroke-opacity:0.3;" x="0" xlink:href="#m3b54f3c8e2" y="1090.099063"/>
    </g>
   </g>
   <g id="PolyCollection_4">
    <defs>
     <path d="M 134.701506 -137.142343 
L 134.701506 -130.339063 
L 134.800594 -165.035792 
L 134.998772 -204.834983 
L 135.395127 -247.865731 
L 136.187838 -294.893407 
L 137.773258 -343.834505 
L 140.9441 -402.959264 
L 147.285783 -463.040734 
L 159.96915 -528.788061 
L 185.335883 -596.982974 
L 236.069348 -668.547637 
L 337.53628 -742.822982 
L 540.470143 -819.247606 
L 946.337869 -898.344211 
L 946.337869 -899.409715 
L 946.337869 -899.409715 
L 540.470143 -820.515913 
L 337.53628 -743.967714 
L 236.069348 -670.393293 
L 185.335883 -598.431329 
L 159.96915 -531.67414 
L 147.285783 -469.418809 
L 140.9441 -407.849122 
L 137.773258 -354.081946 
L 136.187838 -300.25099 
L 135.395127 -252.628028 
L 134.998772 -214.699739 
L 134.800594 -173.199729 
L 134.701506 -137.142343 
z
" id="mf29728b26a" style="stroke:#ae7181;stroke-opacity:0.3;"/>
    </defs>
    <g clip-path="url(#p5a6d8e1f2a)">
     <use style="fill:#ae7181;fill-opacity:0.3;stroke:#ae7181;stroke-opacity:0.3;" x="0" xlink:href="#mf29728b26a" y="1090.099063"/>
    </g>
   </g>
   <g id="PolyCollection_5">
    <defs>
     <path d="M 134.701506 -184.765306 
L 134.701506 -177.962025 
L 134.800594 -214.699739 
L 134.998772 -259.261226 
L 135.395127 -335.79813 
L 136.187838 -410.549174 
L 137.773258 -468.589659 
L 140.9441 -547.38015 
L 147.285783 -616.73109 
L 159.96915 -687.091891 
L 185.335883 -757.333104 
L 236.069348 -827.821467 
L 337.53628 -898.383576 
L 540.470143 -967.766406 
L 946.337869 -1036.418747 
L 946.337869 -1037.539063 
L 946.337869 -1037.539063 
L 540.470143 -969.72999 
L 337.53628 -900.254478 
L 236.069348 -831.709435 
L 185.335883 -760.923429 
L 159.96915 -692.183721 
L 147.285783 -619.792566 
L 140.9441 -551.972365 
L 137.773258 -485.130135 
L 136.187838 -422.454914 
L 135.395127 -354.847315 
L 134.998772 -289.19566 
L 134.800594 -243.953845 
L 134.701506 -184.765306 
z
" id="mccf83c9c33" style="stroke:#ff9408;stroke-opacity:0.3;"/>
    </defs>
    <g clip-path="url(#p5a6d8e1f2a)">
     <use style="fill:#ff9408;fill-opacity:0.3;stroke:#ff9408;stroke-opacity:0.3;" x="0" xlink:href="#mccf83c9c33" y="1090.099063"/>
    </g>
   </g>
   <g id="PolyCollection_6">
    <defs>
     <path d="M 134.701506 -191.568586 
L 134.701506 -165.716121 
L 134.800594 -208.576787 
L 134.998772 -269.806311 
L 135.395127 -316.408781 
L 136.187838 -377.893428 
L 137.773258 -429.810961 
L 140.9441 -486.40575 
L 147.285783 -541.767444 
L 159.96915 -597.283275 
L 185.335883 -652.097518 
L 236.069348 -709.478936 
L 337.53628 -766.080368 
L 540.470143 -822.694092 
L 946.337869 -880.074846 
L 946.337869 -880.442249 
L 946.337869 -880.442249 
L 540.470143 -823.957084 
L 337.53628 -768.095442 
L 236.069348 -711.577057 
L 185.335883 -655.081926 
L 159.96915 -600.318176 
L 147.285783 -543.606456 
L 140.9441 -489.509747 
L 137.773258 -438.357582 
L 136.187838 -389.96925 
L 135.395127 -334.607556 
L 134.998772 -277.970247 
L 134.800594 -226.945644 
L 134.701506 -191.568586 
z
" id="m7348fcbf66" style="stroke:#ff81c0;stroke-opacity:0.3;"/>
    </defs>
    <g clip-path="url(#p5a6d8e1f2a)">
     <use style="fill:#ff81c0;fill-opacity:0.3;stroke:#ff81c0;stroke-opacity:0.3;" x="0" xlink:href="#m7348fcbf66" y="1090.099063"/>
    </g>
   </g>
   <g id="matplotlib.axis_1">
    <g id="xtick_1">
     <g id="line2d_1">
      <path clip-path="url(#p5a6d8e1f2a)" d="M 134.602417 1005.12 
L 134.602417 7.2 
" style="fill:none;stroke:#b0b0b0;stroke-linecap:square;stroke-width:0.8;"/>
     </g>
     <g id="line2d_2">
      <defs>
       <path d="M 0 0 
L 0 3.5 
" id="m77de01a3bf" style="stroke:#000000;stroke-width:0.8;"/>
      </defs>
      <g>
       <use style="stroke:#000000;stroke-width:0.8;" x="134.602417" xlink:href="#m77de01a3bf" y="1005.12"/>
      </g>
     </g>
     <g id="text_1">
      <!-- 0 -->
      <g transform="translate(125.058667 1034.915313)scale(0.3 -0.3)">
       <defs>
        <path d="M 2034 4250 
Q 1547 4250 1301 3770 
Q 1056 3291 1056 2328 
Q 1056 1369 1301 889 
Q 1547 409 2034 409 
Q 2525 409 2770 889 
Q 3016 1369 3016 2328 
Q 3016 3291 2770 3770 
Q 2525 4250 2034 4250 
z
M 2034 4750 
Q 2819 4750 3233 4129 
Q 3647 3509 3647 2328 
Q 3647 1150 3233 529 
Q 2819 -91 2034 -91 
Q 1250 -91 836 529 
Q 422 1150 422 2328 
Q 422 3509 836 4129 
Q 1250 4750 2034 4750 
z
" id="DejaVuSans-30" transform="scale(0.015625)"/>
       </defs>
       <use xlink:href="#DejaVuSans-30"/>
      </g>
     </g>
    </g>
    <g id="xtick_2">
     <g id="line2d_3">
      <path clip-path="url(#p5a6d8e1f2a)" d="M 258.463417 1005.12 
L 258.463417 7.2 
" style="fill:none;stroke:#b0b0b0;stroke-linecap:square;stroke-width:0.8;"/>
     </g>
     <g id="line2d_4">
      <g>
       <use style="stroke:#000000;stroke-width:0.8;" x="258.463417" xlink:href="#m77de01a3bf" y="1005.12"/>
      </g>
     </g>
     <g id="text_2">
      <!-- 20000 -->
      <g transform="translate(210.744667 1034.915313)scale(0.3 -0.3)">
       <defs>
        <path d="M 1228 531 
L 3431 531 
L 3431 0 
L 469 0 
L 469 531 
Q 828 903 1448 1529 
Q 2069 2156 2228 2338 
Q 2531 2678 2651 2914 
Q 2772 3150 2772 3378 
Q 2772 3750 2511 3984 
Q 2250 4219 1831 4219 
Q 1534 4219 1204 4116 
Q 875 4013 500 3803 
L 500 4441 
Q 881 4594 1212 4672 
Q 1544 4750 1819 4750 
Q 2544 4750 2975 4387 
Q 3406 4025 3406 3419 
Q 3406 3131 3298 2873 
Q 3191 2616 2906 2266 
Q 2828 2175 2409 1742 
Q 1991 1309 1228 531 
z
" id="DejaVuSans-32" transform="scale(0.015625)"/>
       </defs>
       <use xlink:href="#DejaVuSans-32"/>
       <use x="63.623047" xlink:href="#DejaVuSans-30"/>
       <use x="127.246094" xlink:href="#DejaVuSans-30"/>
       <use x="190.869141" xlink:href="#DejaVuSans-30"/>
       <use x="254.492188" xlink:href="#DejaVuSans-30"/>
      </g>
     </g>
    </g>
    <g id="xtick_3">
     <g id="line2d_5">
      <path clip-path="url(#p5a6d8e1f2a)" d="M 382.324418 1005.12 
L 382.324418 7.2 
" style="fill:none;stroke:#b0b0b0;stroke-linecap:square;stroke-width:0.8;"/>
     </g>
     <g id="line2d_6">
      <g>
       <use style="stroke:#000000;stroke-width:0.8;" x="382.324418" xlink:href="#m77de01a3bf" y="1005.12"/>
      </g>
     </g>
     <g id="text_3">
      <!-- 40000 -->
      <g transform="translate(334.605668 1034.915313)scale(0.3 -0.3)">
       <defs>
        <path d="M 2419 4116 
L 825 1625 
L 2419 1625 
L 2419 4116 
z
M 2253 4666 
L 3047 4666 
L 3047 1625 
L 3713 1625 
L 3713 1100 
L 3047 1100 
L 3047 0 
L 2419 0 
L 2419 1100 
L 313 1100 
L 313 1709 
L 2253 4666 
z
" id="DejaVuSans-34" transform="scale(0.015625)"/>
       </defs>
       <use xlink:href="#DejaVuSans-34"/>
       <use x="63.623047" xlink:href="#DejaVuSans-30"/>
       <use x="127.246094" xlink:href="#DejaVuSans-30"/>
       <use x="190.869141" xlink:href="#DejaVuSans-30"/>
       <use x="254.492188" xlink:href="#DejaVuSans-30"/>
      </g>
     </g>
    </g>
    <g id="xtick_4">
     <g id="line2d_7">
      <path clip-path="url(#p5a6d8e1f2a)" d="M 506.185418 1005.12 
L 506.185418 7.2 
" style="fill:none;stroke:#b0b0b0;stroke-linecap:square;stroke-width:0.8;"/>
     </g>
     <g id="line2d_8">
      <g>
       <use style="stroke:#000000;stroke-width:0.8;" x="506.185418" xlink:href="#m77de01a3bf" y="1005.12"/>
      </g>
     </g>
     <g id="text_4">
      <!-- 60000 -->
      <g transform="translate(458.466668 1034.915313)scale(0.3 -0.3)">
       <defs>
        <path d="M 2113 2584 
Q 1688 2584 1439 2293 
Q 1191 2003 1191 1497 
Q 1191 994 1439 701 
Q 1688 409 2113 409 
Q 2538 409 2786 701 
Q 3034 994 3034 1497 
Q 3034 2003 2786 2293 
Q 2538 2584 2113 2584 
z
M 3366 4563 
L 3366 3988 
Q 3128 4100 2886 4159 
Q 2644 4219 2406 4219 
Q 1781 4219 1451 3797 
Q 1122 3375 1075 2522 
Q 1259 2794 1537 2939 
Q 1816 3084 2150 3084 
Q 2853 3084 3261 2657 
Q 3669 2231 3669 1497 
Q 3669 778 3244 343 
Q 2819 -91 2113 -91 
Q 1303 -91 875 529 
Q 447 1150 447 2328 
Q 447 3434 972 4092 
Q 1497 4750 2381 4750 
Q 2619 4750 2861 4703 
Q 3103 4656 3366 4563 
z
" id="DejaVuSans-36" transform="scale(0.015625)"/>
       </defs>
       <use xlink:href="#DejaVuSans-36"/>
       <use x="63.623047" xlink:href="#DejaVuSans-30"/>
       <use x="127.246094" xlink:href="#DejaVuSans-30"/>
       <use x="190.869141" xlink:href="#DejaVuSans-30"/>
       <use x="254.492188" xlink:href="#DejaVuSans-30"/>
      </g>
     </g>
    </g>
    <g id="xtick_5">
     <g id="line2d_9">
      <path clip-path="url(#p5a6d8e1f2a)" d="M 630.046419 1005.12 
L 630.046419 7.2 
" style="fill:none;stroke:#b0b0b0;stroke-linecap:square;stroke-width:0.8;"/>
     </g>
     <g id="line2d_10">
      <g>
       <use style="stroke:#000000;stroke-width:0.8;" x="630.046419" xlink:href="#m77de01a3bf" y="1005.12"/>
      </g>
     </g>
     <g id="text_5">
      <!-- 80000 -->
      <g transform="translate(582.327669 1034.915313)scale(0.3 -0.3)">
       <defs>
        <path d="M 2034 2216 
Q 1584 2216 1326 1975 
Q 1069 1734 1069 1313 
Q 1069 891 1326 650 
Q 1584 409 2034 409 
Q 2484 409 2743 651 
Q 3003 894 3003 1313 
Q 3003 1734 2745 1975 
Q 2488 2216 2034 2216 
z
M 1403 2484 
Q 997 2584 770 2862 
Q 544 3141 544 3541 
Q 544 4100 942 4425 
Q 1341 4750 2034 4750 
Q 2731 4750 3128 4425 
Q 3525 4100 3525 3541 
Q 3525 3141 3298 2862 
Q 3072 2584 2669 2484 
Q 3125 2378 3379 2068 
Q 3634 1759 3634 1313 
Q 3634 634 3220 271 
Q 2806 -91 2034 -91 
Q 1263 -91 848 271 
Q 434 634 434 1313 
Q 434 1759 690 2068 
Q 947 2378 1403 2484 
z
M 1172 3481 
Q 1172 3119 1398 2916 
Q 1625 2713 2034 2713 
Q 2441 2713 2670 2916 
Q 2900 3119 2900 3481 
Q 2900 3844 2670 4047 
Q 2441 4250 2034 4250 
Q 1625 4250 1398 4047 
Q 1172 3844 1172 3481 
z
" id="DejaVuSans-38" transform="scale(0.015625)"/>
       </defs>
       <use xlink:href="#DejaVuSans-38"/>
       <use x="63.623047" xlink:href="#DejaVuSans-30"/>
       <use x="127.246094" xlink:href="#DejaVuSans-30"/>
       <use x="190.869141" xlink:href="#DejaVuSans-30"/>
       <use x="254.492188" xlink:href="#DejaVuSans-30"/>
      </g>
     </g>
    </g>
    <g id="xtick_6">
     <g id="line2d_11">
      <path clip-path="url(#p5a6d8e1f2a)" d="M 753.907419 1005.12 
L 753.907419 7.2 
" style="fill:none;stroke:#b0b0b0;stroke-linecap:square;stroke-width:0.8;"/>
     </g>
     <g id="line2d_12">
      <g>
       <use style="stroke:#000000;stroke-width:0.8;" x="753.907419" xlink:href="#m77de01a3bf" y="1005.12"/>
      </g>
     </g>
     <g id="text_6">
      <!-- 100000 -->
      <g transform="translate(696.644919 1034.915313)scale(0.3 -0.3)">
       <defs>
        <path d="M 794 531 
L 1825 531 
L 1825 4091 
L 703 3866 
L 703 4441 
L 1819 4666 
L 2450 4666 
L 2450 531 
L 3481 531 
L 3481 0 
L 794 0 
L 794 531 
z
" id="DejaVuSans-31" transform="scale(0.015625)"/>
       </defs>
       <use xlink:href="#DejaVuSans-31"/>
       <use x="63.623047" xlink:href="#DejaVuSans-30"/>
       <use x="127.246094" xlink:href="#DejaVuSans-30"/>
       <use x="190.869141" xlink:href="#DejaVuSans-30"/>
       <use x="254.492188" xlink:href="#DejaVuSans-30"/>
       <use x="318.115234" xlink:href="#DejaVuSans-30"/>
      </g>
     </g>
    </g>
    <g id="xtick_7">
     <g id="line2d_13">
      <path clip-path="url(#p5a6d8e1f2a)" d="M 877.768419 1005.12 
L 877.768419 7.2 
" style="fill:none;stroke:#b0b0b0;stroke-linecap:square;stroke-width:0.8;"/>
     </g>
     <g id="line2d_14">
      <g>
       <use style="stroke:#000000;stroke-width:0.8;" x="877.768419" xlink:href="#m77de01a3bf" y="1005.12"/>
      </g>
     </g>
     <g id="text_7">
      <!-- 120000 -->
      <g transform="translate(820.505919 1034.915313)scale(0.3 -0.3)">
       <use xlink:href="#DejaVuSans-31"/>
       <use x="63.623047" xlink:href="#DejaVuSans-32"/>
       <use x="127.246094" xlink:href="#DejaVuSans-30"/>
       <use x="190.869141" xlink:href="#DejaVuSans-30"/>
       <use x="254.492188" xlink:href="#DejaVuSans-30"/>
       <use x="318.115234" xlink:href="#DejaVuSans-30"/>
      </g>
     </g>
    </g>
    <g id="text_8">
     <!-- Input size -->
     <g transform="translate(446.020859 1074.788281)scale(0.39 -0.39)">
      <defs>
       <path d="M 628 4666 
L 1259 4666 
L 1259 0 
L 628 0 
L 628 4666 
z
" id="DejaVuSans-49" transform="scale(0.015625)"/>
       <path d="M 3513 2113 
L 3513 0 
L 2938 0 
L 2938 2094 
Q 2938 2591 2744 2837 
Q 2550 3084 2163 3084 
Q 1697 3084 1428 2787 
Q 1159 2491 1159 1978 
L 1159 0 
L 581 0 
L 581 3500 
L 1159 3500 
L 1159 2956 
Q 1366 3272 1645 3428 
Q 1925 3584 2291 3584 
Q 2894 3584 3203 3211 
Q 3513 2838 3513 2113 
z
" id="DejaVuSans-6e" transform="scale(0.015625)"/>
       <path d="M 1159 525 
L 1159 -1331 
L 581 -1331 
L 581 3500 
L 1159 3500 
L 1159 2969 
Q 1341 3281 1617 3432 
Q 1894 3584 2278 3584 
Q 2916 3584 3314 3078 
Q 3713 2572 3713 1747 
Q 3713 922 3314 415 
Q 2916 -91 2278 -91 
Q 1894 -91 1617 61 
Q 1341 213 1159 525 
z
M 3116 1747 
Q 3116 2381 2855 2742 
Q 2594 3103 2138 3103 
Q 1681 3103 1420 2742 
Q 1159 2381 1159 1747 
Q 1159 1113 1420 752 
Q 1681 391 2138 391 
Q 2594 391 2855 752 
Q 3116 1113 3116 1747 
z
" id="DejaVuSans-70" transform="scale(0.015625)"/>
       <path d="M 544 1381 
L 544 3500 
L 1119 3500 
L 1119 1403 
Q 1119 906 1312 657 
Q 1506 409 1894 409 
Q 2359 409 2629 706 
Q 2900 1003 2900 1516 
L 2900 3500 
L 3475 3500 
L 3475 0 
L 2900 0 
L 2900 538 
Q 2691 219 2414 64 
Q 2138 -91 1772 -91 
Q 1169 -91 856 284 
Q 544 659 544 1381 
z
M 1991 3584 
L 1991 3584 
z
" id="DejaVuSans-75" transform="scale(0.015625)"/>
       <path d="M 1172 4494 
L 1172 3500 
L 2356 3500 
L 2356 3053 
L 1172 3053 
L 1172 1153 
Q 1172 725 1289 603 
Q 1406 481 1766 481 
L 2356 481 
L 2356 0 
L 1766 0 
Q 1100 0 847 248 
Q 594 497 594 1153 
L 594 3053 
L 172 3053 
L 172 3500 
L 594 3500 
L 594 4494 
L 1172 4494 
z
" id="DejaVuSans-74" transform="scale(0.015625)"/>
       <path id="DejaVuSans-20" transform="scale(0.015625)"/>
       <path d="M 2834 3397 
L 2834 2853 
Q 2591 2978 2328 3040 
Q 2066 3103 1784 3103 
Q 1356 3103 1142 2972 
Q 928 2841 928 2578 
Q 928 2378 1081 2264 
Q 1234 2150 1697 2047 
L 1894 2003 
Q 2506 1872 2764 1633 
Q 3022 1394 3022 966 
Q 3022 478 2636 193 
Q 2250 -91 1575 -91 
Q 1294 -91 989 -36 
Q 684 19 347 128 
L 347 722 
Q 666 556 975 473 
Q 1284 391 1588 391 
Q 1994 391 2212 530 
Q 2431 669 2431 922 
Q 2431 1156 2273 1281 
Q 2116 1406 1581 1522 
L 1381 1569 
Q 847 1681 609 1914 
Q 372 2147 372 2553 
Q 372 3047 722 3315 
Q 1072 3584 1716 3584 
Q 2034 3584 2315 3537 
Q 2597 3491 2834 3397 
z
" id="DejaVuSans-73" transform="scale(0.015625)"/>
       <path d="M 603 3500 
L 1178 3500 
L 1178 0 
L 603 0 
L 603 3500 
z
M 603 4863 
L 1178 4863 
L 1178 4134 
L 603 4134 
L 603 4863 
z
" id="DejaVuSans-69" transform="scale(0.015625)"/>
       <path d="M 353 3500 
L 3084 3500 
L 3084 2975 
L 922 459 
L 3084 459 
L 3084 0 
L 275 0 
L 275 525 
L 2438 3041 
L 353 3041 
L 353 3500 
z
" id="DejaVuSans-7a" transform="scale(0.015625)"/>
       <path d="M 3597 1894 
L 3597 1613 
L 953 1613 
Q 991 1019 1311 708 
Q 1631 397 2203 397 
Q 2534 397 2845 478 
Q 3156 559 3463 722 
L 3463 178 
Q 3153 47 2828 -22 
Q 2503 -91 2169 -91 
Q 1331 -91 842 396 
Q 353 884 353 1716 
Q 353 2575 817 3079 
Q 1281 3584 2069 3584 
Q 2775 3584 3186 3129 
Q 3597 2675 3597 1894 
z
M 3022 2063 
Q 3016 2534 2758 2815 
Q 2500 3097 2075 3097 
Q 1594 3097 1305 2825 
Q 1016 2553 972 2059 
L 3022 2063 
z
" id="DejaVuSans-65" transform="scale(0.015625)"/>
      </defs>
      <use xlink:href="#DejaVuSans-49"/>
      <use x="29.492188" xlink:href="#DejaVuSans-6e"/>
      <use x="92.871094" xlink:href="#DejaVuSans-70"/>
      <use x="156.347656" xlink:href="#DejaVuSans-75"/>
      <use x="219.726562" xlink:href="#DejaVuSans-74"/>
      <use x="258.935547" xlink:href="#DejaVuSans-20"/>
      <use x="290.722656" xlink:href="#DejaVuSans-73"/>
      <use x="342.822266" xlink:href="#DejaVuSans-69"/>
      <use x="370.605469" xlink:href="#DejaVuSans-7a"/>
      <use x="423.095703" xlink:href="#DejaVuSans-65"/>
     </g>
    </g>
   </g>
   <g id="matplotlib.axis_2">
    <g id="ytick_1">
     <g id="line2d_15">
      <path clip-path="url(#p5a6d8e1f2a)" d="M 94.119688 823.694392 
L 986.919688 823.694392 
" style="fill:none;stroke:#b0b0b0;stroke-linecap:square;stroke-width:0.8;"/>
     </g>
     <g id="line2d_16">
      <defs>
       <path d="M 0 0 
L -3.5 0 
" id="m01e363e417" style="stroke:#000000;stroke-width:0.8;"/>
      </defs>
      <g>
       <use style="stroke:#000000;stroke-width:0.8;" x="94.119688" xlink:href="#m01e363e417" y="823.694392"/>
      </g>
     </g>
     <g id="text_9">
      <!-- 5 -->
      <g transform="translate(68.032188 835.092048)scale(0.3 -0.3)">
       <defs>
        <path d="M 691 4666 
L 3169 4666 
L 3169 4134 
L 1269 4134 
L 1269 2991 
Q 1406 3038 1543 3061 
Q 1681 3084 1819 3084 
Q 2600 3084 3056 2656 
Q 3513 2228 3513 1497 
Q 3513 744 3044 326 
Q 2575 -91 1722 -91 
Q 1428 -91 1123 -41 
Q 819 9 494 109 
L 494 744 
Q 775 591 1075 516 
Q 1375 441 1709 441 
Q 2250 441 2565 725 
Q 2881 1009 2881 1497 
Q 2881 1984 2565 2268 
Q 2250 2553 1709 2553 
Q 1456 2553 1204 2497 
Q 953 2441 691 2322 
L 691 4666 
z
" id="DejaVuSans-35" transform="scale(0.015625)"/>
       </defs>
       <use xlink:href="#DejaVuSans-35"/>
      </g>
     </g>
    </g>
    <g id="ytick_2">
     <g id="line2d_17">
      <path clip-path="url(#p5a6d8e1f2a)" d="M 94.119688 605.98942 
L 986.919688 605.98942 
" style="fill:none;stroke:#b0b0b0;stroke-linecap:square;stroke-width:0.8;"/>
     </g>
     <g id="line2d_18">
      <g>
       <use style="stroke:#000000;stroke-width:0.8;" x="94.119688" xlink:href="#m01e363e417" y="605.98942"/>
      </g>
     </g>
     <g id="text_10">
      <!-- 10 -->
      <g transform="translate(48.944688 617.387076)scale(0.3 -0.3)">
       <use xlink:href="#DejaVuSans-31"/>
       <use x="63.623047" xlink:href="#DejaVuSans-30"/>
      </g>
     </g>
    </g>
    <g id="ytick_3">
     <g id="line2d_19">
      <path clip-path="url(#p5a6d8e1f2a)" d="M 94.119688 388.284447 
L 986.919688 388.284447 
" style="fill:none;stroke:#b0b0b0;stroke-linecap:square;stroke-width:0.8;"/>
     </g>
     <g id="line2d_20">
      <g>
       <use style="stroke:#000000;stroke-width:0.8;" x="94.119688" xlink:href="#m01e363e417" y="388.284447"/>
      </g>
     </g>
     <g id="text_11">
      <!-- 15 -->
      <g transform="translate(48.944688 399.682103)scale(0.3 -0.3)">
       <use xlink:href="#DejaVuSans-31"/>
       <use x="63.623047" xlink:href="#DejaVuSans-35"/>
      </g>
     </g>
    </g>
    <g id="ytick_4">
     <g id="line2d_21">
      <path clip-path="url(#p5a6d8e1f2a)" d="M 94.119688 170.579475 
L 986.919688 170.579475 
" style="fill:none;stroke:#b0b0b0;stroke-linecap:square;stroke-width:0.8;"/>
     </g>
     <g id="line2d_22">
      <g>
       <use style="stroke:#000000;stroke-width:0.8;" x="94.119688" xlink:href="#m01e363e417" y="170.579475"/>
      </g>
     </g>
     <g id="text_12">
      <!-- 20 -->
      <g transform="translate(48.944688 181.977131)scale(0.3 -0.3)">
       <use xlink:href="#DejaVuSans-32"/>
       <use x="63.623047" xlink:href="#DejaVuSans-30"/>
      </g>
     </g>
    </g>
    <g id="text_13">
     <!-- Avg. number of links / size -->
     <g transform="translate(36.833906 763.380234)rotate(-90)scale(0.39 -0.39)">
      <defs>
       <path d="M 2188 4044 
L 1331 1722 
L 3047 1722 
L 2188 4044 
z
M 1831 4666 
L 2547 4666 
L 4325 0 
L 3669 0 
L 3244 1197 
L 1141 1197 
L 716 0 
L 50 0 
L 1831 4666 
z
" id="DejaVuSans-41" transform="scale(0.015625)"/>
       <path d="M 191 3500 
L 800 3500 
L 1894 563 
L 2988 3500 
L 3597 3500 
L 2284 0 
L 1503 0 
L 191 3500 
z
" id="DejaVuSans-76" transform="scale(0.015625)"/>
       <path d="M 2906 1791 
Q 2906 2416 2648 2759 
Q 2391 3103 1925 3103 
Q 1463 3103 1205 2759 
Q 947 2416 947 1791 
Q 947 1169 1205 825 
Q 1463 481 1925 481 
Q 2391 481 2648 825 
Q 2906 1169 2906 1791 
z
M 3481 434 
Q 3481 -459 3084 -895 
Q 2688 -1331 1869 -1331 
Q 1566 -1331 1297 -1286 
Q 1028 -1241 775 -1147 
L 775 -588 
Q 1028 -725 1275 -790 
Q 1522 -856 1778 -856 
Q 2344 -856 2625 -561 
Q 2906 -266 2906 331 
L 2906 616 
Q 2728 306 2450 153 
Q 2172 0 1784 0 
Q 1141 0 747 490 
Q 353 981 353 1791 
Q 353 2603 747 3093 
Q 1141 3584 1784 3584 
Q 2172 3584 2450 3431 
Q 2728 3278 2906 2969 
L 2906 3500 
L 3481 3500 
L 3481 434 
z
" id="DejaVuSans-67" transform="scale(0.015625)"/>
       <path d="M 684 794 
L 1344 794 
L 1344 0 
L 684 0 
L 684 794 
z
" id="DejaVuSans-2e" transform="scale(0.015625)"/>
       <path d="M 3328 2828 
Q 3544 3216 3844 3400 
Q 4144 3584 4550 3584 
Q 5097 3584 5394 3201 
Q 5691 2819 5691 2113 
L 5691 0 
L 5113 0 
L 5113 2094 
Q 5113 2597 4934 2840 
Q 4756 3084 4391 3084 
Q 3944 3084 3684 2787 
Q 3425 2491 3425 1978 
L 3425 0 
L 2847 0 
L 2847 2094 
Q 2847 2600 2669 2842 
Q 2491 3084 2119 3084 
Q 1678 3084 1418 2786 
Q 1159 2488 1159 1978 
L 1159 0 
L 581 0 
L 581 3500 
L 1159 3500 
L 1159 2956 
Q 1356 3278 1631 3431 
Q 1906 3584 2284 3584 
Q 2666 3584 2933 3390 
Q 3200 3197 3328 2828 
z
" id="DejaVuSans-6d" transform="scale(0.015625)"/>
       <path d="M 3116 1747 
Q 3116 2381 2855 2742 
Q 2594 3103 2138 3103 
Q 1681 3103 1420 2742 
Q 1159 2381 1159 1747 
Q 1159 1113 1420 752 
Q 1681 391 2138 391 
Q 2594 391 2855 752 
Q 3116 1113 3116 1747 
z
M 1159 2969 
Q 1341 3281 1617 3432 
Q 1894 3584 2278 3584 
Q 2916 3584 3314 3078 
Q 3713 2572 3713 1747 
Q 3713 922 3314 415 
Q 2916 -91 2278 -91 
Q 1894 -91 1617 61 
Q 1341 213 1159 525 
L 1159 0 
L 581 0 
L 581 4863 
L 1159 4863 
L 1159 2969 
z
" id="DejaVuSans-62" transform="scale(0.015625)"/>
       <path d="M 2631 2963 
Q 2534 3019 2420 3045 
Q 2306 3072 2169 3072 
Q 1681 3072 1420 2755 
Q 1159 2438 1159 1844 
L 1159 0 
L 581 0 
L 581 3500 
L 1159 3500 
L 1159 2956 
Q 1341 3275 1631 3429 
Q 1922 3584 2338 3584 
Q 2397 3584 2469 3576 
Q 2541 3569 2628 3553 
L 2631 2963 
z
" id="DejaVuSans-72" transform="scale(0.015625)"/>
       <path d="M 1959 3097 
Q 1497 3097 1228 2736 
Q 959 2375 959 1747 
Q 959 1119 1226 758 
Q 1494 397 1959 397 
Q 2419 397 2687 759 
Q 2956 1122 2956 1747 
Q 2956 2369 2687 2733 
Q 2419 3097 1959 3097 
z
M 1959 3584 
Q 2709 3584 3137 3096 
Q 3566 2609 3566 1747 
Q 3566 888 3137 398 
Q 2709 -91 1959 -91 
Q 1206 -91 779 398 
Q 353 888 353 1747 
Q 353 2609 779 3096 
Q 1206 3584 1959 3584 
z
" id="DejaVuSans-6f" transform="scale(0.015625)"/>
       <path d="M 2375 4863 
L 2375 4384 
L 1825 4384 
Q 1516 4384 1395 4259 
Q 1275 4134 1275 3809 
L 1275 3500 
L 2222 3500 
L 2222 3053 
L 1275 3053 
L 1275 0 
L 697 0 
L 697 3053 
L 147 3053 
L 147 3500 
L 697 3500 
L 697 3744 
Q 697 4328 969 4595 
Q 1241 4863 1831 4863 
L 2375 4863 
z
" id="DejaVuSans-66" transform="scale(0.015625)"/>
       <path d="M 603 4863 
L 1178 4863 
L 1178 0 
L 603 0 
L 603 4863 
z
" id="DejaVuSans-6c" transform="scale(0.015625)"/>
       <path d="M 581 4863 
L 1159 4863 
L 1159 1991 
L 2875 3500 
L 3609 3500 
L 1753 1863 
L 3688 0 
L 2938 0 
L 1159 1709 
L 1159 0 
L 581 0 
L 581 4863 
z
" id="DejaVuSans-6b" transform="scale(0.015625)"/>
       <path d="M 1625 4666 
L 2156 4666 
L 531 -594 
L 0 -594 
L 1625 4666 
z
" id="DejaVuSans-2f" transform="scale(0.015625)"/>
      </defs>
      <use xlink:href="#DejaVuSans-41"/>
      <use x="62.533203" xlink:href="#DejaVuSans-76"/>
      <use x="121.712891" xlink:href="#DejaVuSans-67"/>
      <use x="185.189453" xlink:href="#DejaVuSans-2e"/>
      <use x="216.976562" xlink:href="#DejaVuSans-20"/>
      <use x="248.763672" xlink:href="#DejaVuSans-6e"/>
      <use x="312.142578" xlink:href="#DejaVuSans-75"/>
      <use x="375.521484" xlink:href="#DejaVuSans-6d"/>
      <use x="472.933594" xlink:href="#DejaVuSans-62"/>
      <use x="536.410156" xlink:href="#DejaVuSans-65"/>
      <use x="597.933594" xlink:href="#DejaVuSans-72"/>
      <use x="639.046875" xlink:href="#DejaVuSans-20"/>
      <use x="670.833984" xlink:href="#DejaVuSans-6f"/>
      <use x="732.015625" xlink:href="#DejaVuSans-66"/>
      <use x="767.220703" xlink:href="#DejaVuSans-20"/>
      <use x="799.007812" xlink:href="#DejaVuSans-6c"/>
      <use x="826.791016" xlink:href="#DejaVuSans-69"/>
      <use x="854.574219" xlink:href="#DejaVuSans-6e"/>
      <use x="917.953125" xlink:href="#DejaVuSans-6b"/>
      <use x="975.863281" xlink:href="#DejaVuSans-73"/>
      <use x="1027.962891" xlink:href="#DejaVuSans-20"/>
      <use x="1059.75" xlink:href="#DejaVuSans-2f"/>
      <use x="1093.441406" xlink:href="#DejaVuSans-20"/>
      <use x="1125.228516" xlink:href="#DejaVuSans-73"/>
      <use x="1177.328125" xlink:href="#DejaVuSans-69"/>
      <use x="1205.111328" xlink:href="#DejaVuSans-7a"/>
      <use x="1257.601562" xlink:href="#DejaVuSans-65"/>
     </g>
    </g>
   </g>
   <g id="line2d_23">
    <path clip-path="url(#p5a6d8e1f2a)" d="M 134.701506 912.953431 
L 134.800594 857.710794 
L 134.998772 792.399302 
L 135.395127 731.509943 
L 136.187838 670.688616 
L 137.773258 614.952742 
L 140.9441 555.228444 
L 147.285783 500.087856 
L 159.96915 445.423498 
L 185.335883 390.862253 
L 236.069348 336.04801 
L 337.53628 281.641698 
L 540.470143 227.599601 
L 946.337869 173.537174 
" style="fill:none;stroke:#fe0002;stroke-dasharray:5.55,2.4;stroke-dashoffset:0;stroke-width:1.5;"/>
    <defs>
     <path d="M 0 4.5 
C 1.193414 4.5 2.338109 4.025852 3.181981 3.181981 
C 4.025852 2.338109 4.5 1.193414 4.5 0 
C 4.5 -1.193414 4.025852 -2.338109 3.181981 -3.181981 
C 2.338109 -4.025852 1.193414 -4.5 0 -4.5 
C -1.193414 -4.5 -2.338109 -4.025852 -3.181981 -3.181981 
C -4.025852 -2.338109 -4.5 -1.193414 -4.5 0 
C -4.5 1.193414 -4.025852 2.338109 -3.181981 3.181981 
C -2.338109 4.025852 -1.193414 4.5 0 4.5 
z
" id="m170bbb4b2d" style="stroke:#000000;"/>
    </defs>
    <g clip-path="url(#p5a6d8e1f2a)">
     <use style="fill:#fe0002;stroke:#000000;" x="134.701506" xlink:href="#m170bbb4b2d" y="912.953431"/>
     <use style="fill:#fe0002;stroke:#000000;" x="134.800594" xlink:href="#m170bbb4b2d" y="857.710794"/>
     <use style="fill:#fe0002;stroke:#000000;" x="134.998772" xlink:href="#m170bbb4b2d" y="792.399302"/>
     <use style="fill:#fe0002;stroke:#000000;" x="135.395127" xlink:href="#m170bbb4b2d" y="731.509943"/>
     <use style="fill:#fe0002;stroke:#000000;" x="136.187838" xlink:href="#m170bbb4b2d" y="670.688616"/>
     <use style="fill:#fe0002;stroke:#000000;" x="137.773258" xlink:href="#m170bbb4b2d" y="614.952742"/>
     <use style="fill:#fe0002;stroke:#000000;" x="140.9441" xlink:href="#m170bbb4b2d" y="555.228444"/>
     <use style="fill:#fe0002;stroke:#000000;" x="147.285783" xlink:href="#m170bbb4b2d" y="500.087856"/>
     <use style="fill:#fe0002;stroke:#000000;" x="159.96915" xlink:href="#m170bbb4b2d" y="445.423498"/>
     <use style="fill:#fe0002;stroke:#000000;" x="185.335883" xlink:href="#m170bbb4b2d" y="390.862253"/>
     <use style="fill:#fe0002;stroke:#000000;" x="236.069348" xlink:href="#m170bbb4b2d" y="336.04801"/>
     <use style="fill:#fe0002;stroke:#000000;" x="337.53628" xlink:href="#m170bbb4b2d" y="281.641698"/>
     <use style="fill:#fe0002;stroke:#000000;" x="540.470143" xlink:href="#m170bbb4b2d" y="227.599601"/>
     <use style="fill:#fe0002;stroke:#000000;" x="946.337869" xlink:href="#m170bbb4b2d" y="173.537174"/>
    </g>
   </g>
   <g id="line2d_24">
    <path clip-path="url(#p5a6d8e1f2a)" d="M 134.701506 947.786227 
L 134.800594 911.864906 
L 134.998772 869.548502 
L 135.395127 833.83128 
L 136.187838 793.07963 
L 137.773258 754.028801 
L 140.9441 715.98996 
L 147.285783 676.841333 
L 159.96915 639.716682 
L 185.335883 602.26675 
L 236.069348 564.130643 
L 337.53628 525.822062 
L 540.470143 487.993032 
L 946.337869 449.971199 
" style="fill:none;stroke:#53fca1;stroke-dasharray:5.55,2.4;stroke-dashoffset:0;stroke-width:1.5;"/>
    <defs>
     <path d="M 0 6.363961 
L 6.363961 0 
L 0 -6.363961 
L -6.363961 0 
z
" id="me0fa999480" style="stroke:#000000;stroke-linejoin:miter;"/>
    </defs>
    <g clip-path="url(#p5a6d8e1f2a)">
     <use style="fill:#53fca1;stroke:#000000;stroke-linejoin:miter;" x="134.701506" xlink:href="#me0fa999480" y="947.786227"/>
     <use style="fill:#53fca1;stroke:#000000;stroke-linejoin:miter;" x="134.800594" xlink:href="#me0fa999480" y="911.864906"/>
     <use style="fill:#53fca1;stroke:#000000;stroke-linejoin:miter;" x="134.998772" xlink:href="#me0fa999480" y="869.548502"/>
     <use style="fill:#53fca1;stroke:#000000;stroke-linejoin:miter;" x="135.395127" xlink:href="#me0fa999480" y="833.83128"/>
     <use style="fill:#53fca1;stroke:#000000;stroke-linejoin:miter;" x="136.187838" xlink:href="#me0fa999480" y="793.07963"/>
     <use style="fill:#53fca1;stroke:#000000;stroke-linejoin:miter;" x="137.773258" xlink:href="#me0fa999480" y="754.028801"/>
     <use style="fill:#53fca1;stroke:#000000;stroke-linejoin:miter;" x="140.9441" xlink:href="#me0fa999480" y="715.98996"/>
     <use style="fill:#53fca1;stroke:#000000;stroke-linejoin:miter;" x="147.285783" xlink:href="#me0fa999480" y="676.841333"/>
     <use style="fill:#53fca1;stroke:#000000;stroke-linejoin:miter;" x="159.96915" xlink:href="#me0fa999480" y="639.716682"/>
     <use style="fill:#53fca1;stroke:#000000;stroke-linejoin:miter;" x="185.335883" xlink:href="#me0fa999480" y="602.26675"/>
     <use style="fill:#53fca1;stroke:#000000;stroke-linejoin:miter;" x="236.069348" xlink:href="#me0fa999480" y="564.130643"/>
     <use style="fill:#53fca1;stroke:#000000;stroke-linejoin:miter;" x="337.53628" xlink:href="#me0fa999480" y="525.822062"/>
     <use style="fill:#53fca1;stroke:#000000;stroke-linejoin:miter;" x="540.470143" xlink:href="#me0fa999480" y="487.993032"/>
     <use style="fill:#53fca1;stroke:#000000;stroke-linejoin:miter;" x="946.337869" xlink:href="#me0fa999480" y="449.971199"/>
    </g>
   </g>
   <g id="line2d_25">
    <path clip-path="url(#p5a6d8e1f2a)" d="M 134.701506 949.963276 
L 134.800594 905.333757 
L 134.998772 869.820633 
L 135.395127 811.584553 
L 136.187838 762.737 
L 137.773258 711.100102 
L 140.9441 654.598858 
L 147.285783 596.792235 
L 159.96915 542.778441 
L 185.335883 485.720179 
L 236.069348 429.52083 
L 337.53628 372.825056 
L 540.470143 317.233884 
L 946.337869 262.076022 
" style="fill:none;stroke:#0652ff;stroke-dasharray:5.55,2.4;stroke-dashoffset:0;stroke-width:1.5;"/>
    <defs>
     <path d="M -2.25 4.5 
L 0 2.25 
L 2.25 4.5 
L 4.5 2.25 
L 2.25 0 
L 4.5 -2.25 
L 2.25 -4.5 
L 0 -2.25 
L -2.25 -4.5 
L -4.5 -2.25 
L -2.25 0 
L -4.5 2.25 
z
" id="m29eba116ac" style="stroke:#000000;stroke-linejoin:miter;"/>
    </defs>
    <g clip-path="url(#p5a6d8e1f2a)">
     <use style="fill:#0652ff;stroke:#000000;stroke-linejoin:miter;" x="134.701506" xlink:href="#m29eba116ac" y="949.963276"/>
     <use style="fill:#0652ff;stroke:#000000;stroke-linejoin:miter;" x="134.800594" xlink:href="#m29eba116ac" y="905.333757"/>
     <use style="fill:#0652ff;stroke:#000000;stroke-linejoin:miter;" x="134.998772" xlink:href="#m29eba116ac" y="869.820633"/>
     <use style="fill:#0652ff;stroke:#000000;stroke-linejoin:miter;" x="135.395127" xlink:href="#m29eba116ac" y="811.584553"/>
     <use style="fill:#0652ff;stroke:#000000;stroke-linejoin:miter;" x="136.187838" xlink:href="#m29eba116ac" y="762.737"/>
     <use style="fill:#0652ff;stroke:#000000;stroke-linejoin:miter;" x="137.773258" xlink:href="#m29eba116ac" y="711.100102"/>
     <use style="fill:#0652ff;stroke:#000000;stroke-linejoin:miter;" x="140.9441" xlink:href="#m29eba116ac" y="654.598858"/>
     <use style="fill:#0652ff;stroke:#000000;stroke-linejoin:miter;" x="147.285783" xlink:href="#m29eba116ac" y="596.792235"/>
     <use style="fill:#0652ff;stroke:#000000;stroke-linejoin:miter;" x="159.96915" xlink:href="#m29eba116ac" y="542.778441"/>
     <use style="fill:#0652ff;stroke:#000000;stroke-linejoin:miter;" x="185.335883" xlink:href="#m29eba116ac" y="485.720179"/>
     <use style="fill:#0652ff;stroke:#000000;stroke-linejoin:miter;" x="236.069348" xlink:href="#m29eba116ac" y="429.52083"/>
     <use style="fill:#0652ff;stroke:#000000;stroke-linejoin:miter;" x="337.53628" xlink:href="#m29eba116ac" y="372.825056"/>
     <use style="fill:#0652ff;stroke:#000000;stroke-linejoin:miter;" x="540.470143" xlink:href="#m29eba116ac" y="317.233884"/>
     <use style="fill:#0652ff;stroke:#000000;stroke-linejoin:miter;" x="946.337869" xlink:href="#m29eba116ac" y="262.076022"/>
    </g>
   </g>
   <g id="line2d_26">
    <path clip-path="url(#p5a6d8e1f2a)" d="M 134.701506 956.766557 
L 134.800594 921.933761 
L 134.998772 882.338669 
L 135.395127 839.8862 
L 136.187838 792.450327 
L 137.773258 740.651851 
L 140.9441 684.34195 
L 147.285783 622.515013 
L 159.96915 559.543212 
L 185.335883 492.043509 
L 236.069348 420.823793 
L 337.53628 346.616348 
L 540.470143 270.013603 
L 946.337869 191.200523 
" style="fill:none;stroke:#ae7181;stroke-dasharray:5.55,2.4;stroke-dashoffset:0;stroke-width:1.5;"/>
    <defs>
     <path d="M 0 -4.5 
L -1.010313 -1.390576 
L -4.279754 -1.390576 
L -1.634721 0.531153 
L -2.645034 3.640576 
L -0 1.718847 
L 2.645034 3.640576 
L 1.634721 0.531153 
L 4.279754 -1.390576 
L 1.010313 -1.390576 
z
" id="m2e7248a68d" style="stroke:#000000;stroke-linejoin:bevel;"/>
    </defs>
    <g clip-path="url(#p5a6d8e1f2a)">
     <use style="fill:#ae7181;stroke:#000000;stroke-linejoin:bevel;" x="134.701506" xlink:href="#m2e7248a68d" y="956.766557"/>
     <use style="fill:#ae7181;stroke:#000000;stroke-linejoin:bevel;" x="134.800594" xlink:href="#m2e7248a68d" y="921.933761"/>
     <use style="fill:#ae7181;stroke:#000000;stroke-linejoin:bevel;" x="134.998772" xlink:href="#m2e7248a68d" y="882.338669"/>
     <use style="fill:#ae7181;stroke:#000000;stroke-linejoin:bevel;" x="135.395127" xlink:href="#m2e7248a68d" y="839.8862"/>
     <use style="fill:#ae7181;stroke:#000000;stroke-linejoin:bevel;" x="136.187838" xlink:href="#m2e7248a68d" y="792.450327"/>
     <use style="fill:#ae7181;stroke:#000000;stroke-linejoin:bevel;" x="137.773258" xlink:href="#m2e7248a68d" y="740.651851"/>
     <use style="fill:#ae7181;stroke:#000000;stroke-linejoin:bevel;" x="140.9441" xlink:href="#m2e7248a68d" y="684.34195"/>
     <use style="fill:#ae7181;stroke:#000000;stroke-linejoin:bevel;" x="147.285783" xlink:href="#m2e7248a68d" y="622.515013"/>
     <use style="fill:#ae7181;stroke:#000000;stroke-linejoin:bevel;" x="159.96915" xlink:href="#m2e7248a68d" y="559.543212"/>
     <use style="fill:#ae7181;stroke:#000000;stroke-linejoin:bevel;" x="185.335883" xlink:href="#m2e7248a68d" y="492.043509"/>
     <use style="fill:#ae7181;stroke:#000000;stroke-linejoin:bevel;" x="236.069348" xlink:href="#m2e7248a68d" y="420.823793"/>
     <use style="fill:#ae7181;stroke:#000000;stroke-linejoin:bevel;" x="337.53628" xlink:href="#m2e7248a68d" y="346.616348"/>
     <use style="fill:#ae7181;stroke:#000000;stroke-linejoin:bevel;" x="540.470143" xlink:href="#m2e7248a68d" y="270.013603"/>
     <use style="fill:#ae7181;stroke:#000000;stroke-linejoin:bevel;" x="946.337869" xlink:href="#m2e7248a68d" y="191.200523"/>
    </g>
   </g>
   <g id="line2d_27">
    <path clip-path="url(#p5a6d8e1f2a)" d="M 134.701506 908.599331 
L 134.800594 865.330468 
L 134.998772 813.489472 
L 135.395127 743.313634 
L 136.187838 673.341896 
L 137.773258 613.141368 
L 140.9441 540.877774 
L 147.285783 471.30998 
L 159.96915 401.269146 
L 185.335883 331.195358 
L 236.069348 260.259998 
L 337.53628 190.923808 
L 540.470143 121.459458 
L 946.337869 53.185417 
" style="fill:none;stroke:#ff9408;stroke-dasharray:5.55,2.4;stroke-dashoffset:0;stroke-width:1.5;"/>
    <defs>
     <path d="M -4.5 4.5 
L 4.5 4.5 
L 4.5 -4.5 
L -4.5 -4.5 
z
" id="m48b11fd381" style="stroke:#000000;stroke-linejoin:miter;"/>
    </defs>
    <g clip-path="url(#p5a6d8e1f2a)">
     <use style="fill:#ff9408;stroke:#000000;stroke-linejoin:miter;" x="134.701506" xlink:href="#m48b11fd381" y="908.599331"/>
     <use style="fill:#ff9408;stroke:#000000;stroke-linejoin:miter;" x="134.800594" xlink:href="#m48b11fd381" y="865.330468"/>
     <use style="fill:#ff9408;stroke:#000000;stroke-linejoin:miter;" x="134.998772" xlink:href="#m48b11fd381" y="813.489472"/>
     <use style="fill:#ff9408;stroke:#000000;stroke-linejoin:miter;" x="135.395127" xlink:href="#m48b11fd381" y="743.313634"/>
     <use style="fill:#ff9408;stroke:#000000;stroke-linejoin:miter;" x="136.187838" xlink:href="#m48b11fd381" y="673.341896"/>
     <use style="fill:#ff9408;stroke:#000000;stroke-linejoin:miter;" x="137.773258" xlink:href="#m48b11fd381" y="613.141368"/>
     <use style="fill:#ff9408;stroke:#000000;stroke-linejoin:miter;" x="140.9441" xlink:href="#m48b11fd381" y="540.877774"/>
     <use style="fill:#ff9408;stroke:#000000;stroke-linejoin:miter;" x="147.285783" xlink:href="#m48b11fd381" y="471.30998"/>
     <use style="fill:#ff9408;stroke:#000000;stroke-linejoin:miter;" x="159.96915" xlink:href="#m48b11fd381" y="401.269146"/>
     <use style="fill:#ff9408;stroke:#000000;stroke-linejoin:miter;" x="185.335883" xlink:href="#m48b11fd381" y="331.195358"/>
     <use style="fill:#ff9408;stroke:#000000;stroke-linejoin:miter;" x="236.069348" xlink:href="#m48b11fd381" y="260.259998"/>
     <use style="fill:#ff9408;stroke:#000000;stroke-linejoin:miter;" x="337.53628" xlink:href="#m48b11fd381" y="190.923808"/>
     <use style="fill:#ff9408;stroke:#000000;stroke-linejoin:miter;" x="540.470143" xlink:href="#m48b11fd381" y="121.459458"/>
     <use style="fill:#ff9408;stroke:#000000;stroke-linejoin:miter;" x="946.337869" xlink:href="#m48b11fd381" y="53.185417"/>
    </g>
   </g>
   <g id="line2d_28">
    <path clip-path="url(#p5a6d8e1f2a)" d="M 134.701506 909.415725 
L 134.800594 870.773092 
L 134.998772 817.367341 
L 135.395127 762.771016 
L 136.187838 708.803995 
L 137.773258 656.699371 
L 140.9441 601.796898 
L 147.285783 547.466326 
L 159.96915 491.097959 
L 185.335883 436.341651 
L 236.069348 379.264254 
L 337.53628 322.683285 
L 540.470143 266.696539 
L 946.337869 209.808591 
" style="fill:none;stroke:#ff81c0;stroke-dasharray:5.55,2.4;stroke-dashoffset:0;stroke-width:1.5;"/>
    <defs>
     <path d="M -0 4.5 
L 4.5 -4.5 
L -4.5 -4.5 
z
" id="m2f3aa74d62" style="stroke:#000000;stroke-linejoin:miter;"/>
    </defs>
    <g clip-path="url(#p5a6d8e1f2a)">
     <use style="fill:#ff81c0;stroke:#000000;stroke-linejoin:miter;" x="134.701506" xlink:href="#m2f3aa74d62" y="909.415725"/>
     <use style="fill:#ff81c0;stroke:#000000;stroke-linejoin:miter;" x="134.800594" xlink:href="#m2f3aa74d62" y="870.773092"/>
     <use style="fill:#ff81c0;stroke:#000000;stroke-linejoin:miter;" x="134.998772" xlink:href="#m2f3aa74d62" y="817.367341"/>
     <use style="fill:#ff81c0;stroke:#000000;stroke-linejoin:miter;" x="135.395127" xlink:href="#m2f3aa74d62" y="762.771016"/>
     <use style="fill:#ff81c0;stroke:#000000;stroke-linejoin:miter;" x="136.187838" xlink:href="#m2f3aa74d62" y="708.803995"/>
     <use style="fill:#ff81c0;stroke:#000000;stroke-linejoin:miter;" x="137.773258" xlink:href="#m2f3aa74d62" y="656.699371"/>
     <use style="fill:#ff81c0;stroke:#000000;stroke-linejoin:miter;" x="140.9441" xlink:href="#m2f3aa74d62" y="601.796898"/>
     <use style="fill:#ff81c0;stroke:#000000;stroke-linejoin:miter;" x="147.285783" xlink:href="#m2f3aa74d62" y="547.466326"/>
     <use style="fill:#ff81c0;stroke:#000000;stroke-linejoin:miter;" x="159.96915" xlink:href="#m2f3aa74d62" y="491.097959"/>
     <use style="fill:#ff81c0;stroke:#000000;stroke-linejoin:miter;" x="185.335883" xlink:href="#m2f3aa74d62" y="436.341651"/>
     <use style="fill:#ff81c0;stroke:#000000;stroke-linejoin:miter;" x="236.069348" xlink:href="#m2f3aa74d62" y="379.264254"/>
     <use style="fill:#ff81c0;stroke:#000000;stroke-linejoin:miter;" x="337.53628" xlink:href="#m2f3aa74d62" y="322.683285"/>
     <use style="fill:#ff81c0;stroke:#000000;stroke-linejoin:miter;" x="540.470143" xlink:href="#m2f3aa74d62" y="266.696539"/>
     <use style="fill:#ff81c0;stroke:#000000;stroke-linejoin:miter;" x="946.337869" xlink:href="#m2f3aa74d62" y="209.808591"/>
    </g>
   </g>
   <g id="patch_3">
    <path d="M 94.119688 1005.12 
L 94.119688 7.2 
" style="fill:none;stroke:#000000;stroke-linecap:square;stroke-linejoin:miter;stroke-width:0.8;"/>
   </g>
   <g id="patch_4">
    <path d="M 986.919688 1005.12 
L 986.919688 7.2 
" style="fill:none;stroke:#000000;stroke-linecap:square;stroke-linejoin:miter;stroke-width:0.8;"/>
   </g>
   <g id="patch_5">
    <path d="M 94.119688 1005.12 
L 986.919688 1005.12 
" style="fill:none;stroke:#000000;stroke-linecap:square;stroke-linejoin:miter;stroke-width:0.8;"/>
   </g>
   <g id="patch_6">
    <path d="M 94.119688 7.2 
L 986.919688 7.2 
" style="fill:none;stroke:#000000;stroke-linecap:square;stroke-linejoin:miter;stroke-width:0.8;"/>
   </g>
   <g id="legend_1">
    <g id="patch_7">
     <path d="M 564.23375 990.12 
L 965.919688 990.12 
Q 971.919688 990.12 971.919688 984.12 
L 971.919688 722.91375 
Q 971.919688 716.91375 965.919688 716.91375 
L 564.23375 716.91375 
Q 558.23375 716.91375 558.23375 722.91375 
L 558.23375 984.12 
Q 558.23375 990.12 564.23375 990.12 
z
" style="fill:#ffffff;opacity:0.8;stroke:#cccccc;stroke-linejoin:miter;"/>
    </g>
    <g id="line2d_29">
     <path d="M 570.23375 741.209063 
L 630.23375 741.209063 
" style="fill:none;stroke:#fe0002;stroke-dasharray:5.55,2.4;stroke-dashoffset:0;stroke-width:1.5;"/>
    </g>
    <g id="line2d_30">
     <g>
      <use style="fill:#fe0002;stroke:#000000;" x="600.23375" xlink:href="#m170bbb4b2d" y="741.209063"/>
     </g>
    </g>
    <g id="text_14">
     <!-- Pairing links -->
     <g transform="translate(654.23375 751.709063)scale(0.3 -0.3)">
      <defs>
       <path d="M 1259 4147 
L 1259 2394 
L 2053 2394 
Q 2494 2394 2734 2622 
Q 2975 2850 2975 3272 
Q 2975 3691 2734 3919 
Q 2494 4147 2053 4147 
L 1259 4147 
z
M 628 4666 
L 2053 4666 
Q 2838 4666 3239 4311 
Q 3641 3956 3641 3272 
Q 3641 2581 3239 2228 
Q 2838 1875 2053 1875 
L 1259 1875 
L 1259 0 
L 628 0 
L 628 4666 
z
" id="DejaVuSans-50" transform="scale(0.015625)"/>
       <path d="M 2194 1759 
Q 1497 1759 1228 1600 
Q 959 1441 959 1056 
Q 959 750 1161 570 
Q 1363 391 1709 391 
Q 2188 391 2477 730 
Q 2766 1069 2766 1631 
L 2766 1759 
L 2194 1759 
z
M 3341 1997 
L 3341 0 
L 2766 0 
L 2766 531 
Q 2569 213 2275 61 
Q 1981 -91 1556 -91 
Q 1019 -91 701 211 
Q 384 513 384 1019 
Q 384 1609 779 1909 
Q 1175 2209 1959 2209 
L 2766 2209 
L 2766 2266 
Q 2766 2663 2505 2880 
Q 2244 3097 1772 3097 
Q 1472 3097 1187 3025 
Q 903 2953 641 2809 
L 641 3341 
Q 956 3463 1253 3523 
Q 1550 3584 1831 3584 
Q 2591 3584 2966 3190 
Q 3341 2797 3341 1997 
z
" id="DejaVuSans-61" transform="scale(0.015625)"/>
      </defs>
      <use xlink:href="#DejaVuSans-50"/>
      <use x="55.802734" xlink:href="#DejaVuSans-61"/>
      <use x="117.082031" xlink:href="#DejaVuSans-69"/>
      <use x="144.865234" xlink:href="#DejaVuSans-72"/>
      <use x="185.978516" xlink:href="#DejaVuSans-69"/>
      <use x="213.761719" xlink:href="#DejaVuSans-6e"/>
      <use x="277.140625" xlink:href="#DejaVuSans-67"/>
      <use x="340.617188" xlink:href="#DejaVuSans-20"/>
      <use x="372.404297" xlink:href="#DejaVuSans-6c"/>
      <use x="400.1875" xlink:href="#DejaVuSans-69"/>
      <use x="427.970703" xlink:href="#DejaVuSans-6e"/>
      <use x="491.349609" xlink:href="#DejaVuSans-6b"/>
      <use x="549.259766" xlink:href="#DejaVuSans-73"/>
     </g>
    </g>
    <g id="line2d_31">
     <path d="M 570.23375 785.243438 
L 630.23375 785.243438 
" style="fill:none;stroke:#53fca1;stroke-dasharray:5.55,2.4;stroke-dashoffset:0;stroke-width:1.5;"/>
    </g>
    <g id="line2d_32">
     <g>
      <use style="fill:#53fca1;stroke:#000000;stroke-linejoin:miter;" x="600.23375" xlink:href="#me0fa999480" y="785.243438"/>
     </g>
    </g>
    <g id="text_15">
     <!-- Smooth links -->
     <g transform="translate(654.23375 795.743438)scale(0.3 -0.3)">
      <defs>
       <path d="M 3425 4513 
L 3425 3897 
Q 3066 4069 2747 4153 
Q 2428 4238 2131 4238 
Q 1616 4238 1336 4038 
Q 1056 3838 1056 3469 
Q 1056 3159 1242 3001 
Q 1428 2844 1947 2747 
L 2328 2669 
Q 3034 2534 3370 2195 
Q 3706 1856 3706 1288 
Q 3706 609 3251 259 
Q 2797 -91 1919 -91 
Q 1588 -91 1214 -16 
Q 841 59 441 206 
L 441 856 
Q 825 641 1194 531 
Q 1563 422 1919 422 
Q 2459 422 2753 634 
Q 3047 847 3047 1241 
Q 3047 1584 2836 1778 
Q 2625 1972 2144 2069 
L 1759 2144 
Q 1053 2284 737 2584 
Q 422 2884 422 3419 
Q 422 4038 858 4394 
Q 1294 4750 2059 4750 
Q 2388 4750 2728 4690 
Q 3069 4631 3425 4513 
z
" id="DejaVuSans-53" transform="scale(0.015625)"/>
       <path d="M 3513 2113 
L 3513 0 
L 2938 0 
L 2938 2094 
Q 2938 2591 2744 2837 
Q 2550 3084 2163 3084 
Q 1697 3084 1428 2787 
Q 1159 2491 1159 1978 
L 1159 0 
L 581 0 
L 581 4863 
L 1159 4863 
L 1159 2956 
Q 1366 3272 1645 3428 
Q 1925 3584 2291 3584 
Q 2894 3584 3203 3211 
Q 3513 2838 3513 2113 
z
" id="DejaVuSans-68" transform="scale(0.015625)"/>
      </defs>
      <use xlink:href="#DejaVuSans-53"/>
      <use x="63.476562" xlink:href="#DejaVuSans-6d"/>
      <use x="160.888672" xlink:href="#DejaVuSans-6f"/>
      <use x="222.070312" xlink:href="#DejaVuSans-6f"/>
      <use x="283.251953" xlink:href="#DejaVuSans-74"/>
      <use x="322.460938" xlink:href="#DejaVuSans-68"/>
      <use x="385.839844" xlink:href="#DejaVuSans-20"/>
      <use x="417.626953" xlink:href="#DejaVuSans-6c"/>
      <use x="445.410156" xlink:href="#DejaVuSans-69"/>
      <use x="473.193359" xlink:href="#DejaVuSans-6e"/>
      <use x="536.572266" xlink:href="#DejaVuSans-6b"/>
      <use x="594.482422" xlink:href="#DejaVuSans-73"/>
     </g>
    </g>
    <g id="line2d_33">
     <path d="M 570.23375 829.277813 
L 630.23375 829.277813 
" style="fill:none;stroke:#0652ff;stroke-dasharray:5.55,2.4;stroke-dashoffset:0;stroke-width:1.5;"/>
    </g>
    <g id="line2d_34">
     <g>
      <use style="fill:#0652ff;stroke:#000000;stroke-linejoin:miter;" x="600.23375" xlink:href="#m29eba116ac" y="829.277813"/>
     </g>
    </g>
    <g id="text_16">
     <!-- Slim links -->
     <g transform="translate(654.23375 839.777813)scale(0.3 -0.3)">
      <use xlink:href="#DejaVuSans-53"/>
      <use x="63.476562" xlink:href="#DejaVuSans-6c"/>
      <use x="91.259766" xlink:href="#DejaVuSans-69"/>
      <use x="119.042969" xlink:href="#DejaVuSans-6d"/>
      <use x="216.455078" xlink:href="#DejaVuSans-20"/>
      <use x="248.242188" xlink:href="#DejaVuSans-6c"/>
      <use x="276.025391" xlink:href="#DejaVuSans-69"/>
      <use x="303.808594" xlink:href="#DejaVuSans-6e"/>
      <use x="367.1875" xlink:href="#DejaVuSans-6b"/>
      <use x="425.097656" xlink:href="#DejaVuSans-73"/>
     </g>
    </g>
    <g id="line2d_35">
     <path d="M 570.23375 873.312188 
L 630.23375 873.312188 
" style="fill:none;stroke:#ae7181;stroke-dasharray:5.55,2.4;stroke-dashoffset:0;stroke-width:1.5;"/>
    </g>
    <g id="line2d_36">
     <g>
      <use style="fill:#ae7181;stroke:#000000;stroke-linejoin:bevel;" x="600.23375" xlink:href="#m2e7248a68d" y="873.312188"/>
     </g>
    </g>
    <g id="text_17">
     <!-- Pairing Lazy links -->
     <g transform="translate(654.23375 883.812188)scale(0.3 -0.3)">
      <defs>
       <path d="M 628 4666 
L 1259 4666 
L 1259 531 
L 3531 531 
L 3531 0 
L 628 0 
L 628 4666 
z
" id="DejaVuSans-4c" transform="scale(0.015625)"/>
       <path d="M 2059 -325 
Q 1816 -950 1584 -1140 
Q 1353 -1331 966 -1331 
L 506 -1331 
L 506 -850 
L 844 -850 
Q 1081 -850 1212 -737 
Q 1344 -625 1503 -206 
L 1606 56 
L 191 3500 
L 800 3500 
L 1894 763 
L 2988 3500 
L 3597 3500 
L 2059 -325 
z
" id="DejaVuSans-79" transform="scale(0.015625)"/>
      </defs>
      <use xlink:href="#DejaVuSans-50"/>
      <use x="55.802734" xlink:href="#DejaVuSans-61"/>
      <use x="117.082031" xlink:href="#DejaVuSans-69"/>
      <use x="144.865234" xlink:href="#DejaVuSans-72"/>
      <use x="185.978516" xlink:href="#DejaVuSans-69"/>
      <use x="213.761719" xlink:href="#DejaVuSans-6e"/>
      <use x="277.140625" xlink:href="#DejaVuSans-67"/>
      <use x="340.617188" xlink:href="#DejaVuSans-20"/>
      <use x="372.404297" xlink:href="#DejaVuSans-4c"/>
      <use x="428.117188" xlink:href="#DejaVuSans-61"/>
      <use x="489.396484" xlink:href="#DejaVuSans-7a"/>
      <use x="541.886719" xlink:href="#DejaVuSans-79"/>
      <use x="601.066406" xlink:href="#DejaVuSans-20"/>
      <use x="632.853516" xlink:href="#DejaVuSans-6c"/>
      <use x="660.636719" xlink:href="#DejaVuSans-69"/>
      <use x="688.419922" xlink:href="#DejaVuSans-6e"/>
      <use x="751.798828" xlink:href="#DejaVuSans-6b"/>
      <use x="809.708984" xlink:href="#DejaVuSans-73"/>
     </g>
    </g>
    <g id="line2d_37">
     <path d="M 570.23375 917.346563 
L 630.23375 917.346563 
" style="fill:none;stroke:#ff9408;stroke-dasharray:5.55,2.4;stroke-dashoffset:0;stroke-width:1.5;"/>
    </g>
    <g id="line2d_38">
     <g>
      <use style="fill:#ff9408;stroke:#000000;stroke-linejoin:miter;" x="600.23375" xlink:href="#m48b11fd381" y="917.346563"/>
     </g>
    </g>
    <g id="text_18">
     <!-- Pairing Slim links -->
     <g transform="translate(654.23375 927.846563)scale(0.3 -0.3)">
      <use xlink:href="#DejaVuSans-50"/>
      <use x="55.802734" xlink:href="#DejaVuSans-61"/>
      <use x="117.082031" xlink:href="#DejaVuSans-69"/>
      <use x="144.865234" xlink:href="#DejaVuSans-72"/>
      <use x="185.978516" xlink:href="#DejaVuSans-69"/>
      <use x="213.761719" xlink:href="#DejaVuSans-6e"/>
      <use x="277.140625" xlink:href="#DejaVuSans-67"/>
      <use x="340.617188" xlink:href="#DejaVuSans-20"/>
      <use x="372.404297" xlink:href="#DejaVuSans-53"/>
      <use x="435.880859" xlink:href="#DejaVuSans-6c"/>
      <use x="463.664062" xlink:href="#DejaVuSans-69"/>
      <use x="491.447266" xlink:href="#DejaVuSans-6d"/>
      <use x="588.859375" xlink:href="#DejaVuSans-20"/>
      <use x="620.646484" xlink:href="#DejaVuSans-6c"/>
      <use x="648.429688" xlink:href="#DejaVuSans-69"/>
      <use x="676.212891" xlink:href="#DejaVuSans-6e"/>
      <use x="739.591797" xlink:href="#DejaVuSans-6b"/>
      <use x="797.501953" xlink:href="#DejaVuSans-73"/>
     </g>
    </g>
    <g id="line2d_39">
     <path d="M 570.23375 961.380938 
L 630.23375 961.380938 
" style="fill:none;stroke:#ff81c0;stroke-dasharray:5.55,2.4;stroke-dashoffset:0;stroke-width:1.5;"/>
    </g>
    <g id="line2d_40">
     <g>
      <use style="fill:#ff81c0;stroke:#000000;stroke-linejoin:miter;" x="600.23375" xlink:href="#m2f3aa74d62" y="961.380938"/>
     </g>
    </g>
    <g id="text_19">
     <!-- Pairing Smooth links -->
     <g transform="translate(654.23375 971.880938)scale(0.3 -0.3)">
      <use xlink:href="#DejaVuSans-50"/>
      <use x="55.802734" xlink:href="#DejaVuSans-61"/>
      <use x="117.082031" xlink:href="#DejaVuSans-69"/>
      <use x="144.865234" xlink:href="#DejaVuSans-72"/>
      <use x="185.978516" xlink:href="#DejaVuSans-69"/>
      <use x="213.761719" xlink:href="#DejaVuSans-6e"/>
      <use x="277.140625" xlink:href="#DejaVuSans-67"/>
      <use x="340.617188" xlink:href="#DejaVuSans-20"/>
      <use x="372.404297" xlink:href="#DejaVuSans-53"/>
      <use x="435.880859" xlink:href="#DejaVuSans-6d"/>
      <use x="533.292969" xlink:href="#DejaVuSans-6f"/>
      <use x="594.474609" xlink:href="#DejaVuSans-6f"/>
      <use x="655.65625" xlink:href="#DejaVuSans-74"/>
      <use x="694.865234" xlink:href="#DejaVuSans-68"/>
      <use x="758.244141" xlink:href="#DejaVuSans-20"/>
      <use x="790.03125" xlink:href="#DejaVuSans-6c"/>
      <use x="817.814453" xlink:href="#DejaVuSans-69"/>
      <use x="845.597656" xlink:href="#DejaVuSans-6e"/>
      <use x="908.976562" xlink:href="#DejaVuSans-6b"/>
      <use x="966.886719" xlink:href="#DejaVuSans-73"/>
     </g>
    </g>
   </g>
  </g>
 </g>
 <defs>
  <clipPath id="p5a6d8e1f2a">
   <rect height="997.92" width="892.8" x="94.119688" y="7.2"/>
  </clipPath>
 </defs>
</svg>
