<?xml version="1.0" encoding="utf-8" standalone="no"?>
<!DOCTYPE svg PUBLIC "-//W3C//DTD SVG 1.1//EN"
  "http://www.w3.org/Graphics/SVG/1.1/DTD/svg11.dtd">
<!-- Created with matplotlib (https://matplotlib.org/) -->
<svg height="1090.099063pt" version="1.1" viewBox="0 0 952.375 1090.099063" width="952.375pt" xmlns="http://www.w3.org/2000/svg" xmlns:xlink="http://www.w3.org/1999/xlink">
 <metadata>
  <rdf:RDF xmlns:cc="http://creativecommons.org/ns#" xmlns:dc="http://purl.org/dc/elements/1.1/" xmlns:rdf="http://www.w3.org/1999/02/22-rdf-syntax-ns#">
   <cc:Work>
    <dc:type rdf:resource="http://purl.org/dc/dcmitype/StillImage"/>
    <dc:date>2021-05-03T14:50:38.447661</dc:date>
    <dc:format>image/svg+xml</dc:format>
    <dc:creator>
     <cc:Agent>
      <dc:title>Matplotlib v3.3.2, https://matplotlib.org/</dc:title>
     </cc:Agent>
    </dc:creator>
   </cc:Work>
  </rdf:RDF>
 </metadata>
 <defs>
  <style type="text/css">*{stroke-linecap:butt;stroke-linejoin:round;}</style>
 </defs>
 <g id="figure_1">
  <g id="patch_1">
   <path d="M 0 1090.099063 
L 952.375 1090.099063 
L 952.375 0 
L 0 0 
z
" style="fill:#ffffff;"/>
  </g>
  <g id="axes_1">
   <g id="patch_2">
    <path d="M 52.375 1005.12 
L 945.175 1005.12 
L 945.175 7.2 
L 52.375 7.2 
z
" style="fill:#ffffff;"/>
   </g>
   <g id="PolyCollection_1">
    <defs>
     <path d="M 92.956818 -495.572647 
L 92.956818 -388.009538 
L 138.047727 -406.64993 
L 183.138636 -399.743229 
L 228.229545 -415.139953 
L 273.320455 -418.631817 
L 318.411364 -442.518564 
L 363.502273 -454.577478 
L 408.593182 -456.237825 
L 453.684091 -481.819153 
L 498.775 -492.200602 
L 543.865909 -516.190051 
L 588.956818 -534.79621 
L 634.047727 -549.850595 
L 679.138636 -578.273342 
L 724.229545 -603.255576 
L 769.320455 -636.428285 
L 814.411364 -683.491425 
L 859.502273 -747.791364 
L 904.593182 -845.700496 
L 904.593182 -863.039998 
L 904.593182 -863.039998 
L 859.502273 -774.459621 
L 814.411364 -716.441613 
L 769.320455 -671.860436 
L 724.229545 -635.349915 
L 679.138636 -608.133915 
L 634.047727 -595.167802 
L 588.956818 -589.271002 
L 543.865909 -563.578413 
L 498.775 -545.537115 
L 453.684091 -545.151983 
L 408.593182 -527.940859 
L 363.502273 -506.399138 
L 318.411364 -497.053266 
L 273.320455 -489.573146 
L 228.229545 -473.945342 
L 183.138636 -470.795817 
L 138.047727 -473.654353 
L 92.956818 -495.572647 
z
" id="m81793edb76" style="stroke:#fe0002;stroke-opacity:0.3;"/>
    </defs>
    <g clip-path="url(#p428cafa5c4)">
     <use style="fill:#fe0002;fill-opacity:0.3;stroke:#fe0002;stroke-opacity:0.3;" x="0" xlink:href="#m81793edb76" y="1090.099063"/>
    </g>
   </g>
   <g id="PolyCollection_2">
    <g clip-path="url(#p428cafa5c4)">
     <use style="fill:#fe0002;fill-opacity:0.3;stroke:#fe0002;stroke-opacity:0.3;" x="0" xlink:href="#m81793edb76" y="1090.099063"/>
    </g>
   </g>
   <g id="PolyCollection_3">
    <defs>
     <path d="M 92.956818 -419.718746 
L 92.956818 -271.682534 
L 138.047727 -295.081447 
L 183.138636 -307.20027 
L 228.229545 -311.838972 
L 273.320455 -308.338549 
L 318.411364 -348.058504 
L 363.502273 -356.103485 
L 408.593182 -372.612813 
L 453.684091 -396.550912 
L 498.775 -405.776964 
L 543.865909 -439.771289 
L 588.956818 -467.637734 
L 634.047727 -492.5515 
L 679.138636 -521.710278 
L 724.229545 -555.824421 
L 769.320455 -598.608315 
L 814.411364 -673.187002 
L 859.502273 -758.515153 
L 904.593182 -891.633915 
L 904.593182 -924.926444 
L 904.593182 -924.926444 
L 859.502273 -794.957206 
L 814.411364 -721.131666 
L 769.320455 -657.405146 
L 724.229545 -610.307772 
L 679.138636 -573.737342 
L 634.047727 -557.382066 
L 588.956818 -549.302851 
L 543.865909 -518.680572 
L 498.775 -492.388889 
L 453.684091 -491.47313 
L 408.593182 -472.550308 
L 363.502273 -438.881206 
L 318.411364 -422.568723 
L 273.320455 -417.279576 
L 228.229545 -389.1307 
L 183.138636 -401.874293 
L 138.047727 -393.427063 
L 92.956818 -419.718746 
z
" id="m3e137be8a4" style="stroke:#53fca1;stroke-opacity:0.3;"/>
    </defs>
    <g clip-path="url(#p428cafa5c4)">
     <use style="fill:#53fca1;fill-opacity:0.3;stroke:#53fca1;stroke-opacity:0.3;" x="0" xlink:href="#m3e137be8a4" y="1090.099063"/>
    </g>
   </g>
   <g id="PolyCollection_4">
    <defs>
     <path d="M 92.956818 -214.854157 
L 92.956818 -130.339063 
L 138.047727 -141.850232 
L 183.138636 -148.209191 
L 228.229545 -151.769523 
L 273.320455 -155.201478 
L 318.411364 -173.516647 
L 363.502273 -182.674232 
L 408.593182 -190.120119 
L 453.684091 -202.778127 
L 498.775 -208.469523 
L 543.865909 -228.333779 
L 588.956818 -244.825991 
L 634.047727 -256.525447 
L 679.138636 -274.866293 
L 724.229545 -292.839123 
L 769.320455 -316.006957 
L 814.411364 -355.726912 
L 859.502273 -400.385115 
L 904.593182 -470.693115 
L 904.593182 -487.296587 
L 904.593182 -487.296587 
L 859.502273 -419.58181 
L 814.411364 -380.555093 
L 769.320455 -347.031485 
L 724.229545 -321.578534 
L 679.138636 -301.603017 
L 634.047727 -293.883259 
L 588.956818 -288.191863 
L 543.865909 -272.033432 
L 498.775 -256.953372 
L 453.684091 -257.518232 
L 408.593182 -247.128225 
L 363.502273 -227.546398 
L 318.411364 -218.791063 
L 273.320455 -214.066776 
L 228.229545 -199.80833 
L 183.138636 -205.576753 
L 138.047727 -200.424542 
L 92.956818 -214.854157 
z
" id="m957aeac29b" style="stroke:#53fca1;stroke-opacity:0.3;"/>
    </defs>
    <g clip-path="url(#p428cafa5c4)">
     <use style="fill:#53fca1;fill-opacity:0.3;stroke:#53fca1;stroke-opacity:0.3;" x="0" xlink:href="#m957aeac29b" y="1090.099063"/>
    </g>
   </g>
   <g id="PolyCollection_5">
    <defs>
     <path d="M 92.956818 -439.951017 
L 92.956818 -278.315364 
L 138.047727 -303.74264 
L 183.138636 -307.208829 
L 228.229545 -312.694821 
L 273.320455 -317.898383 
L 318.411364 -349.915696 
L 363.502273 -360.451198 
L 408.593182 -378.227183 
L 453.684091 -411.69944 
L 498.775 -418.999832 
L 543.865909 -461.176074 
L 588.956818 -490.985296 
L 634.047727 -511.696844 
L 679.138636 -548.85781 
L 724.229545 -588.509296 
L 769.320455 -643.780029 
L 814.411364 -725.162715 
L 859.502273 -835.002383 
L 904.593182 -1008.679832 
L 904.593182 -1037.539062 
L 904.593182 -1037.539062 
L 859.502273 -883.049749 
L 814.411364 -784.584315 
L 769.320455 -703.458383 
L 724.229545 -652.04753 
L 679.138636 -605.908708 
L 634.047727 -586.72913 
L 588.956818 -579.676934 
L 543.865909 -540.530398 
L 498.775 -511.6027 
L 453.684091 -506.433372 
L 408.593182 -481.014655 
L 363.502273 -445.933402 
L 318.411364 -434.83304 
L 273.320455 -430.827666 
L 228.229545 -400.650429 
L 183.138636 -401.215289 
L 138.047727 -404.484632 
L 92.956818 -439.951017 
z
" id="m18838be9d1" style="stroke:#0652ff;stroke-opacity:0.3;"/>
    </defs>
    <g clip-path="url(#p428cafa5c4)">
     <use style="fill:#0652ff;fill-opacity:0.3;stroke:#0652ff;stroke-opacity:0.3;" x="0" xlink:href="#m18838be9d1" y="1090.099063"/>
    </g>
   </g>
   <g id="PolyCollection_6">
    <defs>
     <path d="M 92.956818 -243.559334 
L 92.956818 -140.16421 
L 138.047727 -156.065885 
L 183.138636 -154.088874 
L 228.229545 -158.821719 
L 273.320455 -168.663983 
L 318.411364 -185.772406 
L 363.502273 -195.315123 
L 408.593182 -205.713689 
L 453.684091 -224.345523 
L 498.775 -229.840074 
L 543.865909 -256.320044 
L 588.956818 -279.231123 
L 634.047727 -289.441402 
L 679.138636 -314.278142 
L 724.229545 -337.574353 
L 769.320455 -373.040738 
L 814.411364 -421.978187 
L 859.502273 -488.700179 
L 904.593182 -593.558806 
L 904.593182 -611.942444 
L 904.593182 -611.942444 
L 859.502273 -518.4067 
L 814.411364 -458.625644 
L 769.320455 -408.618383 
L 724.229545 -376.780798 
L 679.138636 -348.084179 
L 634.047727 -337.154987 
L 588.956818 -331.104134 
L 543.865909 -307.893508 
L 498.775 -288.191863 
L 453.684091 -286.625659 
L 408.593182 -271.203259 
L 363.502273 -248.223712 
L 318.411364 -241.051696 
L 273.320455 -237.037764 
L 228.229545 -219.860874 
L 183.138636 -218.517191 
L 138.047727 -219.980693 
L 92.956818 -243.559334 
z
" id="m3844e9a3dd" style="stroke:#0652ff;stroke-opacity:0.3;"/>
    </defs>
    <g clip-path="url(#p428cafa5c4)">
     <use style="fill:#0652ff;fill-opacity:0.3;stroke:#0652ff;stroke-opacity:0.3;" x="0" xlink:href="#m3844e9a3dd" y="1090.099063"/>
    </g>
   </g>
   <g id="matplotlib.axis_1">
    <g id="xtick_1">
     <g id="line2d_1">
      <path clip-path="url(#p428cafa5c4)" d="M 769.320455 1005.12 
L 769.320455 7.2 
" style="fill:none;stroke:#b0b0b0;stroke-linecap:square;stroke-width:0.8;"/>
     </g>
     <g id="line2d_2">
      <defs>
       <path d="M 0 0 
L 0 3.5 
" id="m7d30edfd99" style="stroke:#000000;stroke-width:0.8;"/>
      </defs>
      <g>
       <use style="stroke:#000000;stroke-width:0.8;" x="769.320455" xlink:href="#m7d30edfd99" y="1005.12"/>
      </g>
     </g>
     <g id="text_1">
      <!-- 2 -->
      <g transform="translate(759.776705 1034.915313)scale(0.3 -0.3)">
       <defs>
        <path d="M 19.1875 8.296875 
L 53.609375 8.296875 
L 53.609375 0 
L 7.328125 0 
L 7.328125 8.296875 
Q 12.9375 14.109375 22.625 23.890625 
Q 32.328125 33.6875 34.8125 36.53125 
Q 39.546875 41.84375 41.421875 45.53125 
Q 43.3125 49.21875 43.3125 52.78125 
Q 43.3125 58.59375 39.234375 62.25 
Q 35.15625 65.921875 28.609375 65.921875 
Q 23.96875 65.921875 18.8125 64.3125 
Q 13.671875 62.703125 7.8125 59.421875 
L 7.8125 69.390625 
Q 13.765625 71.78125 18.9375 73 
Q 24.125 74.21875 28.421875 74.21875 
Q 39.75 74.21875 46.484375 68.546875 
Q 53.21875 62.890625 53.21875 53.421875 
Q 53.21875 48.921875 51.53125 44.890625 
Q 49.859375 40.875 45.40625 35.40625 
Q 44.1875 33.984375 37.640625 27.21875 
Q 31.109375 20.453125 19.1875 8.296875 
z
" id="DejaVuSans-50"/>
       </defs>
       <use xlink:href="#DejaVuSans-50"/>
      </g>
     </g>
    </g>
    <g id="xtick_2">
     <g id="line2d_3">
      <path clip-path="url(#p428cafa5c4)" d="M 588.956818 1005.12 
L 588.956818 7.2 
" style="fill:none;stroke:#b0b0b0;stroke-linecap:square;stroke-width:0.8;"/>
     </g>
     <g id="line2d_4">
      <g>
       <use style="stroke:#000000;stroke-width:0.8;" x="588.956818" xlink:href="#m7d30edfd99" y="1005.12"/>
      </g>
     </g>
     <g id="text_2">
      <!-- 4 -->
      <g transform="translate(579.413068 1034.915313)scale(0.3 -0.3)">
       <defs>
        <path d="M 37.796875 64.3125 
L 12.890625 25.390625 
L 37.796875 25.390625 
z
M 35.203125 72.90625 
L 47.609375 72.90625 
L 47.609375 25.390625 
L 58.015625 25.390625 
L 58.015625 17.1875 
L 47.609375 17.1875 
L 47.609375 0 
L 37.796875 0 
L 37.796875 17.1875 
L 4.890625 17.1875 
L 4.890625 26.703125 
z
" id="DejaVuSans-52"/>
       </defs>
       <use xlink:href="#DejaVuSans-52"/>
      </g>
     </g>
    </g>
    <g id="xtick_3">
     <g id="line2d_5">
      <path clip-path="url(#p428cafa5c4)" d="M 408.593182 1005.12 
L 408.593182 7.2 
" style="fill:none;stroke:#b0b0b0;stroke-linecap:square;stroke-width:0.8;"/>
     </g>
     <g id="line2d_6">
      <g>
       <use style="stroke:#000000;stroke-width:0.8;" x="408.593182" xlink:href="#m7d30edfd99" y="1005.12"/>
      </g>
     </g>
     <g id="text_3">
      <!-- 6 -->
      <g transform="translate(399.049432 1034.915313)scale(0.3 -0.3)">
       <defs>
        <path d="M 33.015625 40.375 
Q 26.375 40.375 22.484375 35.828125 
Q 18.609375 31.296875 18.609375 23.390625 
Q 18.609375 15.53125 22.484375 10.953125 
Q 26.375 6.390625 33.015625 6.390625 
Q 39.65625 6.390625 43.53125 10.953125 
Q 47.40625 15.53125 47.40625 23.390625 
Q 47.40625 31.296875 43.53125 35.828125 
Q 39.65625 40.375 33.015625 40.375 
z
M 52.59375 71.296875 
L 52.59375 62.3125 
Q 48.875 64.0625 45.09375 64.984375 
Q 41.3125 65.921875 37.59375 65.921875 
Q 27.828125 65.921875 22.671875 59.328125 
Q 17.53125 52.734375 16.796875 39.40625 
Q 19.671875 43.65625 24.015625 45.921875 
Q 28.375 48.1875 33.59375 48.1875 
Q 44.578125 48.1875 50.953125 41.515625 
Q 57.328125 34.859375 57.328125 23.390625 
Q 57.328125 12.15625 50.6875 5.359375 
Q 44.046875 -1.421875 33.015625 -1.421875 
Q 20.359375 -1.421875 13.671875 8.265625 
Q 6.984375 17.96875 6.984375 36.375 
Q 6.984375 53.65625 15.1875 63.9375 
Q 23.390625 74.21875 37.203125 74.21875 
Q 40.921875 74.21875 44.703125 73.484375 
Q 48.484375 72.75 52.59375 71.296875 
z
" id="DejaVuSans-54"/>
       </defs>
       <use xlink:href="#DejaVuSans-54"/>
      </g>
     </g>
    </g>
    <g id="xtick_4">
     <g id="line2d_7">
      <path clip-path="url(#p428cafa5c4)" d="M 228.229545 1005.12 
L 228.229545 7.2 
" style="fill:none;stroke:#b0b0b0;stroke-linecap:square;stroke-width:0.8;"/>
     </g>
     <g id="line2d_8">
      <g>
       <use style="stroke:#000000;stroke-width:0.8;" x="228.229545" xlink:href="#m7d30edfd99" y="1005.12"/>
      </g>
     </g>
     <g id="text_4">
      <!-- 8 -->
      <g transform="translate(218.685795 1034.915313)scale(0.3 -0.3)">
       <defs>
        <path d="M 31.78125 34.625 
Q 24.75 34.625 20.71875 30.859375 
Q 16.703125 27.09375 16.703125 20.515625 
Q 16.703125 13.921875 20.71875 10.15625 
Q 24.75 6.390625 31.78125 6.390625 
Q 38.8125 6.390625 42.859375 10.171875 
Q 46.921875 13.96875 46.921875 20.515625 
Q 46.921875 27.09375 42.890625 30.859375 
Q 38.875 34.625 31.78125 34.625 
z
M 21.921875 38.8125 
Q 15.578125 40.375 12.03125 44.71875 
Q 8.5 49.078125 8.5 55.328125 
Q 8.5 64.0625 14.71875 69.140625 
Q 20.953125 74.21875 31.78125 74.21875 
Q 42.671875 74.21875 48.875 69.140625 
Q 55.078125 64.0625 55.078125 55.328125 
Q 55.078125 49.078125 51.53125 44.71875 
Q 48 40.375 41.703125 38.8125 
Q 48.828125 37.15625 52.796875 32.3125 
Q 56.78125 27.484375 56.78125 20.515625 
Q 56.78125 9.90625 50.3125 4.234375 
Q 43.84375 -1.421875 31.78125 -1.421875 
Q 19.734375 -1.421875 13.25 4.234375 
Q 6.78125 9.90625 6.78125 20.515625 
Q 6.78125 27.484375 10.78125 32.3125 
Q 14.796875 37.15625 21.921875 38.8125 
z
M 18.3125 54.390625 
Q 18.3125 48.734375 21.84375 45.5625 
Q 25.390625 42.390625 31.78125 42.390625 
Q 38.140625 42.390625 41.71875 45.5625 
Q 45.3125 48.734375 45.3125 54.390625 
Q 45.3125 60.0625 41.71875 63.234375 
Q 38.140625 66.40625 31.78125 66.40625 
Q 25.390625 66.40625 21.84375 63.234375 
Q 18.3125 60.0625 18.3125 54.390625 
z
" id="DejaVuSans-56"/>
       </defs>
       <use xlink:href="#DejaVuSans-56"/>
      </g>
     </g>
    </g>
    <g id="text_5">
     <!-- Avg. length of sorted blocks, % of size -->
     <g transform="translate(126.769844 1074.788281)scale(0.39 -0.39)">
      <defs>
       <path d="M 34.1875 63.1875 
L 20.796875 26.90625 
L 47.609375 26.90625 
z
M 28.609375 72.90625 
L 39.796875 72.90625 
L 67.578125 0 
L 57.328125 0 
L 50.6875 18.703125 
L 17.828125 18.703125 
L 11.1875 0 
L 0.78125 0 
z
" id="DejaVuSans-65"/>
       <path d="M 2.984375 54.6875 
L 12.5 54.6875 
L 29.59375 8.796875 
L 46.6875 54.6875 
L 56.203125 54.6875 
L 35.6875 0 
L 23.484375 0 
z
" id="DejaVuSans-118"/>
       <path d="M 45.40625 27.984375 
Q 45.40625 37.75 41.375 43.109375 
Q 37.359375 48.484375 30.078125 48.484375 
Q 22.859375 48.484375 18.828125 43.109375 
Q 14.796875 37.75 14.796875 27.984375 
Q 14.796875 18.265625 18.828125 12.890625 
Q 22.859375 7.515625 30.078125 7.515625 
Q 37.359375 7.515625 41.375 12.890625 
Q 45.40625 18.265625 45.40625 27.984375 
z
M 54.390625 6.78125 
Q 54.390625 -7.171875 48.1875 -13.984375 
Q 42 -20.796875 29.203125 -20.796875 
Q 24.46875 -20.796875 20.265625 -20.09375 
Q 16.0625 -19.390625 12.109375 -17.921875 
L 12.109375 -9.1875 
Q 16.0625 -11.328125 19.921875 -12.34375 
Q 23.78125 -13.375 27.78125 -13.375 
Q 36.625 -13.375 41.015625 -8.765625 
Q 45.40625 -4.15625 45.40625 5.171875 
L 45.40625 9.625 
Q 42.625 4.78125 38.28125 2.390625 
Q 33.9375 0 27.875 0 
Q 17.828125 0 11.671875 7.65625 
Q 5.515625 15.328125 5.515625 27.984375 
Q 5.515625 40.671875 11.671875 48.328125 
Q 17.828125 56 27.875 56 
Q 33.9375 56 38.28125 53.609375 
Q 42.625 51.21875 45.40625 46.390625 
L 45.40625 54.6875 
L 54.390625 54.6875 
z
" id="DejaVuSans-103"/>
       <path d="M 10.6875 12.40625 
L 21 12.40625 
L 21 0 
L 10.6875 0 
z
" id="DejaVuSans-46"/>
       <path id="DejaVuSans-32"/>
       <path d="M 9.421875 75.984375 
L 18.40625 75.984375 
L 18.40625 0 
L 9.421875 0 
z
" id="DejaVuSans-108"/>
       <path d="M 56.203125 29.59375 
L 56.203125 25.203125 
L 14.890625 25.203125 
Q 15.484375 15.921875 20.484375 11.0625 
Q 25.484375 6.203125 34.421875 6.203125 
Q 39.59375 6.203125 44.453125 7.46875 
Q 49.3125 8.734375 54.109375 11.28125 
L 54.109375 2.78125 
Q 49.265625 0.734375 44.1875 -0.34375 
Q 39.109375 -1.421875 33.890625 -1.421875 
Q 20.796875 -1.421875 13.15625 6.1875 
Q 5.515625 13.8125 5.515625 26.8125 
Q 5.515625 40.234375 12.765625 48.109375 
Q 20.015625 56 32.328125 56 
Q 43.359375 56 49.78125 48.890625 
Q 56.203125 41.796875 56.203125 29.59375 
z
M 47.21875 32.234375 
Q 47.125 39.59375 43.09375 43.984375 
Q 39.0625 48.390625 32.421875 48.390625 
Q 24.90625 48.390625 20.390625 44.140625 
Q 15.875 39.890625 15.1875 32.171875 
z
" id="DejaVuSans-101"/>
       <path d="M 54.890625 33.015625 
L 54.890625 0 
L 45.90625 0 
L 45.90625 32.71875 
Q 45.90625 40.484375 42.875 44.328125 
Q 39.84375 48.1875 33.796875 48.1875 
Q 26.515625 48.1875 22.3125 43.546875 
Q 18.109375 38.921875 18.109375 30.90625 
L 18.109375 0 
L 9.078125 0 
L 9.078125 54.6875 
L 18.109375 54.6875 
L 18.109375 46.1875 
Q 21.34375 51.125 25.703125 53.5625 
Q 30.078125 56 35.796875 56 
Q 45.21875 56 50.046875 50.171875 
Q 54.890625 44.34375 54.890625 33.015625 
z
" id="DejaVuSans-110"/>
       <path d="M 18.3125 70.21875 
L 18.3125 54.6875 
L 36.8125 54.6875 
L 36.8125 47.703125 
L 18.3125 47.703125 
L 18.3125 18.015625 
Q 18.3125 11.328125 20.140625 9.421875 
Q 21.96875 7.515625 27.59375 7.515625 
L 36.8125 7.515625 
L 36.8125 0 
L 27.59375 0 
Q 17.1875 0 13.234375 3.875 
Q 9.28125 7.765625 9.28125 18.015625 
L 9.28125 47.703125 
L 2.6875 47.703125 
L 2.6875 54.6875 
L 9.28125 54.6875 
L 9.28125 70.21875 
z
" id="DejaVuSans-116"/>
       <path d="M 54.890625 33.015625 
L 54.890625 0 
L 45.90625 0 
L 45.90625 32.71875 
Q 45.90625 40.484375 42.875 44.328125 
Q 39.84375 48.1875 33.796875 48.1875 
Q 26.515625 48.1875 22.3125 43.546875 
Q 18.109375 38.921875 18.109375 30.90625 
L 18.109375 0 
L 9.078125 0 
L 9.078125 75.984375 
L 18.109375 75.984375 
L 18.109375 46.1875 
Q 21.34375 51.125 25.703125 53.5625 
Q 30.078125 56 35.796875 56 
Q 45.21875 56 50.046875 50.171875 
Q 54.890625 44.34375 54.890625 33.015625 
z
" id="DejaVuSans-104"/>
       <path d="M 30.609375 48.390625 
Q 23.390625 48.390625 19.1875 42.75 
Q 14.984375 37.109375 14.984375 27.296875 
Q 14.984375 17.484375 19.15625 11.84375 
Q 23.34375 6.203125 30.609375 6.203125 
Q 37.796875 6.203125 41.984375 11.859375 
Q 46.1875 17.53125 46.1875 27.296875 
Q 46.1875 37.015625 41.984375 42.703125 
Q 37.796875 48.390625 30.609375 48.390625 
z
M 30.609375 56 
Q 42.328125 56 49.015625 48.375 
Q 55.71875 40.765625 55.71875 27.296875 
Q 55.71875 13.875 49.015625 6.21875 
Q 42.328125 -1.421875 30.609375 -1.421875 
Q 18.84375 -1.421875 12.171875 6.21875 
Q 5.515625 13.875 5.515625 27.296875 
Q 5.515625 40.765625 12.171875 48.375 
Q 18.84375 56 30.609375 56 
z
" id="DejaVuSans-111"/>
       <path d="M 37.109375 75.984375 
L 37.109375 68.5 
L 28.515625 68.5 
Q 23.6875 68.5 21.796875 66.546875 
Q 19.921875 64.59375 19.921875 59.515625 
L 19.921875 54.6875 
L 34.71875 54.6875 
L 34.71875 47.703125 
L 19.921875 47.703125 
L 19.921875 0 
L 10.890625 0 
L 10.890625 47.703125 
L 2.296875 47.703125 
L 2.296875 54.6875 
L 10.890625 54.6875 
L 10.890625 58.5 
Q 10.890625 67.625 15.140625 71.796875 
Q 19.390625 75.984375 28.609375 75.984375 
z
" id="DejaVuSans-102"/>
       <path d="M 44.28125 53.078125 
L 44.28125 44.578125 
Q 40.484375 46.53125 36.375 47.5 
Q 32.28125 48.484375 27.875 48.484375 
Q 21.1875 48.484375 17.84375 46.4375 
Q 14.5 44.390625 14.5 40.28125 
Q 14.5 37.15625 16.890625 35.375 
Q 19.28125 33.59375 26.515625 31.984375 
L 29.59375 31.296875 
Q 39.15625 29.25 43.1875 25.515625 
Q 47.21875 21.78125 47.21875 15.09375 
Q 47.21875 7.46875 41.1875 3.015625 
Q 35.15625 -1.421875 24.609375 -1.421875 
Q 20.21875 -1.421875 15.453125 -0.5625 
Q 10.6875 0.296875 5.421875 2 
L 5.421875 11.28125 
Q 10.40625 8.6875 15.234375 7.390625 
Q 20.0625 6.109375 24.8125 6.109375 
Q 31.15625 6.109375 34.5625 8.28125 
Q 37.984375 10.453125 37.984375 14.40625 
Q 37.984375 18.0625 35.515625 20.015625 
Q 33.0625 21.96875 24.703125 23.78125 
L 21.578125 24.515625 
Q 13.234375 26.265625 9.515625 29.90625 
Q 5.8125 33.546875 5.8125 39.890625 
Q 5.8125 47.609375 11.28125 51.796875 
Q 16.75 56 26.8125 56 
Q 31.78125 56 36.171875 55.265625 
Q 40.578125 54.546875 44.28125 53.078125 
z
" id="DejaVuSans-115"/>
       <path d="M 41.109375 46.296875 
Q 39.59375 47.171875 37.8125 47.578125 
Q 36.03125 48 33.890625 48 
Q 26.265625 48 22.1875 43.046875 
Q 18.109375 38.09375 18.109375 28.8125 
L 18.109375 0 
L 9.078125 0 
L 9.078125 54.6875 
L 18.109375 54.6875 
L 18.109375 46.1875 
Q 20.953125 51.171875 25.484375 53.578125 
Q 30.03125 56 36.53125 56 
Q 37.453125 56 38.578125 55.875 
Q 39.703125 55.765625 41.0625 55.515625 
z
" id="DejaVuSans-114"/>
       <path d="M 45.40625 46.390625 
L 45.40625 75.984375 
L 54.390625 75.984375 
L 54.390625 0 
L 45.40625 0 
L 45.40625 8.203125 
Q 42.578125 3.328125 38.25 0.953125 
Q 33.9375 -1.421875 27.875 -1.421875 
Q 17.96875 -1.421875 11.734375 6.484375 
Q 5.515625 14.40625 5.515625 27.296875 
Q 5.515625 40.1875 11.734375 48.09375 
Q 17.96875 56 27.875 56 
Q 33.9375 56 38.25 53.625 
Q 42.578125 51.265625 45.40625 46.390625 
z
M 14.796875 27.296875 
Q 14.796875 17.390625 18.875 11.75 
Q 22.953125 6.109375 30.078125 6.109375 
Q 37.203125 6.109375 41.296875 11.75 
Q 45.40625 17.390625 45.40625 27.296875 
Q 45.40625 37.203125 41.296875 42.84375 
Q 37.203125 48.484375 30.078125 48.484375 
Q 22.953125 48.484375 18.875 42.84375 
Q 14.796875 37.203125 14.796875 27.296875 
z
" id="DejaVuSans-100"/>
       <path d="M 48.6875 27.296875 
Q 48.6875 37.203125 44.609375 42.84375 
Q 40.53125 48.484375 33.40625 48.484375 
Q 26.265625 48.484375 22.1875 42.84375 
Q 18.109375 37.203125 18.109375 27.296875 
Q 18.109375 17.390625 22.1875 11.75 
Q 26.265625 6.109375 33.40625 6.109375 
Q 40.53125 6.109375 44.609375 11.75 
Q 48.6875 17.390625 48.6875 27.296875 
z
M 18.109375 46.390625 
Q 20.953125 51.265625 25.265625 53.625 
Q 29.59375 56 35.59375 56 
Q 45.5625 56 51.78125 48.09375 
Q 58.015625 40.1875 58.015625 27.296875 
Q 58.015625 14.40625 51.78125 6.484375 
Q 45.5625 -1.421875 35.59375 -1.421875 
Q 29.59375 -1.421875 25.265625 0.953125 
Q 20.953125 3.328125 18.109375 8.203125 
L 18.109375 0 
L 9.078125 0 
L 9.078125 75.984375 
L 18.109375 75.984375 
z
" id="DejaVuSans-98"/>
       <path d="M 48.78125 52.59375 
L 48.78125 44.1875 
Q 44.96875 46.296875 41.140625 47.34375 
Q 37.3125 48.390625 33.40625 48.390625 
Q 24.65625 48.390625 19.8125 42.84375 
Q 14.984375 37.3125 14.984375 27.296875 
Q 14.984375 17.28125 19.8125 11.734375 
Q 24.65625 6.203125 33.40625 6.203125 
Q 37.3125 6.203125 41.140625 7.25 
Q 44.96875 8.296875 48.78125 10.40625 
L 48.78125 2.09375 
Q 45.015625 0.34375 40.984375 -0.53125 
Q 36.96875 -1.421875 32.421875 -1.421875 
Q 20.0625 -1.421875 12.78125 6.34375 
Q 5.515625 14.109375 5.515625 27.296875 
Q 5.515625 40.671875 12.859375 48.328125 
Q 20.21875 56 33.015625 56 
Q 37.15625 56 41.109375 55.140625 
Q 45.0625 54.296875 48.78125 52.59375 
z
" id="DejaVuSans-99"/>
       <path d="M 9.078125 75.984375 
L 18.109375 75.984375 
L 18.109375 31.109375 
L 44.921875 54.6875 
L 56.390625 54.6875 
L 27.390625 29.109375 
L 57.625 0 
L 45.90625 0 
L 18.109375 26.703125 
L 18.109375 0 
L 9.078125 0 
z
" id="DejaVuSans-107"/>
       <path d="M 11.71875 12.40625 
L 22.015625 12.40625 
L 22.015625 4 
L 14.015625 -11.625 
L 7.71875 -11.625 
L 11.71875 4 
z
" id="DejaVuSans-44"/>
       <path d="M 72.703125 32.078125 
Q 68.453125 32.078125 66.03125 28.46875 
Q 63.625 24.859375 63.625 18.40625 
Q 63.625 12.0625 66.03125 8.421875 
Q 68.453125 4.78125 72.703125 4.78125 
Q 76.859375 4.78125 79.265625 8.421875 
Q 81.6875 12.0625 81.6875 18.40625 
Q 81.6875 24.8125 79.265625 28.4375 
Q 76.859375 32.078125 72.703125 32.078125 
z
M 72.703125 38.28125 
Q 80.421875 38.28125 84.953125 32.90625 
Q 89.5 27.546875 89.5 18.40625 
Q 89.5 9.28125 84.9375 3.921875 
Q 80.375 -1.421875 72.703125 -1.421875 
Q 64.890625 -1.421875 60.34375 3.921875 
Q 55.8125 9.28125 55.8125 18.40625 
Q 55.8125 27.59375 60.375 32.9375 
Q 64.9375 38.28125 72.703125 38.28125 
z
M 22.3125 68.015625 
Q 18.109375 68.015625 15.6875 64.375 
Q 13.28125 60.75 13.28125 54.390625 
Q 13.28125 47.953125 15.671875 44.328125 
Q 18.0625 40.71875 22.3125 40.71875 
Q 26.5625 40.71875 28.96875 44.328125 
Q 31.390625 47.953125 31.390625 54.390625 
Q 31.390625 60.6875 28.953125 64.34375 
Q 26.515625 68.015625 22.3125 68.015625 
z
M 66.40625 74.21875 
L 74.21875 74.21875 
L 28.609375 -1.421875 
L 20.796875 -1.421875 
z
M 22.3125 74.21875 
Q 30.03125 74.21875 34.609375 68.875 
Q 39.203125 63.53125 39.203125 54.390625 
Q 39.203125 45.171875 34.640625 39.84375 
Q 30.078125 34.515625 22.3125 34.515625 
Q 14.546875 34.515625 10.03125 39.859375 
Q 5.515625 45.21875 5.515625 54.390625 
Q 5.515625 63.484375 10.046875 68.84375 
Q 14.59375 74.21875 22.3125 74.21875 
z
" id="DejaVuSans-37"/>
       <path d="M 9.421875 54.6875 
L 18.40625 54.6875 
L 18.40625 0 
L 9.421875 0 
z
M 9.421875 75.984375 
L 18.40625 75.984375 
L 18.40625 64.59375 
L 9.421875 64.59375 
z
" id="DejaVuSans-105"/>
       <path d="M 5.515625 54.6875 
L 48.1875 54.6875 
L 48.1875 46.484375 
L 14.40625 7.171875 
L 48.1875 7.171875 
L 48.1875 0 
L 4.296875 0 
L 4.296875 8.203125 
L 38.09375 47.515625 
L 5.515625 47.515625 
z
" id="DejaVuSans-122"/>
      </defs>
      <use xlink:href="#DejaVuSans-65"/>
      <use x="62.533203" xlink:href="#DejaVuSans-118"/>
      <use x="121.712891" xlink:href="#DejaVuSans-103"/>
      <use x="185.189453" xlink:href="#DejaVuSans-46"/>
      <use x="216.976562" xlink:href="#DejaVuSans-32"/>
      <use x="248.763672" xlink:href="#DejaVuSans-108"/>
      <use x="276.546875" xlink:href="#DejaVuSans-101"/>
      <use x="338.070312" xlink:href="#DejaVuSans-110"/>
      <use x="401.449219" xlink:href="#DejaVuSans-103"/>
      <use x="464.925781" xlink:href="#DejaVuSans-116"/>
      <use x="504.134766" xlink:href="#DejaVuSans-104"/>
      <use x="567.513672" xlink:href="#DejaVuSans-32"/>
      <use x="599.300781" xlink:href="#DejaVuSans-111"/>
      <use x="660.482422" xlink:href="#DejaVuSans-102"/>
      <use x="695.6875" xlink:href="#DejaVuSans-32"/>
      <use x="727.474609" xlink:href="#DejaVuSans-115"/>
      <use x="779.574219" xlink:href="#DejaVuSans-111"/>
      <use x="840.755859" xlink:href="#DejaVuSans-114"/>
      <use x="881.869141" xlink:href="#DejaVuSans-116"/>
      <use x="921.078125" xlink:href="#DejaVuSans-101"/>
      <use x="982.601562" xlink:href="#DejaVuSans-100"/>
      <use x="1046.078125" xlink:href="#DejaVuSans-32"/>
      <use x="1077.865234" xlink:href="#DejaVuSans-98"/>
      <use x="1141.341797" xlink:href="#DejaVuSans-108"/>
      <use x="1169.125" xlink:href="#DejaVuSans-111"/>
      <use x="1230.306641" xlink:href="#DejaVuSans-99"/>
      <use x="1285.287109" xlink:href="#DejaVuSans-107"/>
      <use x="1343.197266" xlink:href="#DejaVuSans-115"/>
      <use x="1395.296875" xlink:href="#DejaVuSans-44"/>
      <use x="1427.083984" xlink:href="#DejaVuSans-32"/>
      <use x="1458.871094" xlink:href="#DejaVuSans-37"/>
      <use x="1553.890625" xlink:href="#DejaVuSans-32"/>
      <use x="1585.677734" xlink:href="#DejaVuSans-111"/>
      <use x="1646.859375" xlink:href="#DejaVuSans-102"/>
      <use x="1682.064453" xlink:href="#DejaVuSans-32"/>
      <use x="1713.851562" xlink:href="#DejaVuSans-115"/>
      <use x="1765.951172" xlink:href="#DejaVuSans-105"/>
      <use x="1793.734375" xlink:href="#DejaVuSans-122"/>
      <use x="1846.224609" xlink:href="#DejaVuSans-101"/>
     </g>
    </g>
   </g>
   <g id="matplotlib.axis_2">
    <g id="ytick_1">
     <g id="line2d_9">
      <path clip-path="url(#p428cafa5c4)" d="M 52.375 933.62237 
L 945.175 933.62237 
" style="fill:none;stroke:#b0b0b0;stroke-linecap:square;stroke-width:0.8;"/>
     </g>
     <g id="line2d_10">
      <defs>
       <path d="M 0 0 
L -3.5 0 
" id="m848ae87aac" style="stroke:#000000;stroke-width:0.8;"/>
      </defs>
      <g>
       <use style="stroke:#000000;stroke-width:0.8;" x="52.375" xlink:href="#m848ae87aac" y="933.62237"/>
      </g>
     </g>
     <g id="text_6">
      <!-- 4 -->
      <g transform="translate(26.2875 945.020026)scale(0.3 -0.3)">
       <use xlink:href="#DejaVuSans-52"/>
      </g>
     </g>
    </g>
    <g id="ytick_2">
     <g id="line2d_11">
      <path clip-path="url(#p428cafa5c4)" d="M 52.375 762.452558 
L 945.175 762.452558 
" style="fill:none;stroke:#b0b0b0;stroke-linecap:square;stroke-width:0.8;"/>
     </g>
     <g id="line2d_12">
      <g>
       <use style="stroke:#000000;stroke-width:0.8;" x="52.375" xlink:href="#m848ae87aac" y="762.452558"/>
      </g>
     </g>
     <g id="text_7">
      <!-- 6 -->
      <g transform="translate(26.2875 773.850215)scale(0.3 -0.3)">
       <use xlink:href="#DejaVuSans-54"/>
      </g>
     </g>
    </g>
    <g id="ytick_3">
     <g id="line2d_13">
      <path clip-path="url(#p428cafa5c4)" d="M 52.375 591.282747 
L 945.175 591.282747 
" style="fill:none;stroke:#b0b0b0;stroke-linecap:square;stroke-width:0.8;"/>
     </g>
     <g id="line2d_14">
      <g>
       <use style="stroke:#000000;stroke-width:0.8;" x="52.375" xlink:href="#m848ae87aac" y="591.282747"/>
      </g>
     </g>
     <g id="text_8">
      <!-- 8 -->
      <g transform="translate(26.2875 602.680403)scale(0.3 -0.3)">
       <use xlink:href="#DejaVuSans-56"/>
      </g>
     </g>
    </g>
    <g id="ytick_4">
     <g id="line2d_15">
      <path clip-path="url(#p428cafa5c4)" d="M 52.375 420.112936 
L 945.175 420.112936 
" style="fill:none;stroke:#b0b0b0;stroke-linecap:square;stroke-width:0.8;"/>
     </g>
     <g id="line2d_16">
      <g>
       <use style="stroke:#000000;stroke-width:0.8;" x="52.375" xlink:href="#m848ae87aac" y="420.112936"/>
      </g>
     </g>
     <g id="text_9">
      <!-- 10 -->
      <g transform="translate(7.2 431.510592)scale(0.3 -0.3)">
       <defs>
        <path d="M 12.40625 8.296875 
L 28.515625 8.296875 
L 28.515625 63.921875 
L 10.984375 60.40625 
L 10.984375 69.390625 
L 28.421875 72.90625 
L 38.28125 72.90625 
L 38.28125 8.296875 
L 54.390625 8.296875 
L 54.390625 0 
L 12.40625 0 
z
" id="DejaVuSans-49"/>
        <path d="M 31.78125 66.40625 
Q 24.171875 66.40625 20.328125 58.90625 
Q 16.5 51.421875 16.5 36.375 
Q 16.5 21.390625 20.328125 13.890625 
Q 24.171875 6.390625 31.78125 6.390625 
Q 39.453125 6.390625 43.28125 13.890625 
Q 47.125 21.390625 47.125 36.375 
Q 47.125 51.421875 43.28125 58.90625 
Q 39.453125 66.40625 31.78125 66.40625 
z
M 31.78125 74.21875 
Q 44.046875 74.21875 50.515625 64.515625 
Q 56.984375 54.828125 56.984375 36.375 
Q 56.984375 17.96875 50.515625 8.265625 
Q 44.046875 -1.421875 31.78125 -1.421875 
Q 19.53125 -1.421875 13.0625 8.265625 
Q 6.59375 17.96875 6.59375 36.375 
Q 6.59375 54.828125 13.0625 64.515625 
Q 19.53125 74.21875 31.78125 74.21875 
z
" id="DejaVuSans-48"/>
       </defs>
       <use xlink:href="#DejaVuSans-49"/>
       <use x="63.623047" xlink:href="#DejaVuSans-48"/>
      </g>
     </g>
    </g>
    <g id="ytick_5">
     <g id="line2d_17">
      <path clip-path="url(#p428cafa5c4)" d="M 52.375 248.943125 
L 945.175 248.943125 
" style="fill:none;stroke:#b0b0b0;stroke-linecap:square;stroke-width:0.8;"/>
     </g>
     <g id="line2d_18">
      <g>
       <use style="stroke:#000000;stroke-width:0.8;" x="52.375" xlink:href="#m848ae87aac" y="248.943125"/>
      </g>
     </g>
     <g id="text_10">
      <!-- 12 -->
      <g transform="translate(7.2 260.340781)scale(0.3 -0.3)">
       <use xlink:href="#DejaVuSans-49"/>
       <use x="63.623047" xlink:href="#DejaVuSans-50"/>
      </g>
     </g>
    </g>
    <g id="ytick_6">
     <g id="line2d_19">
      <path clip-path="url(#p428cafa5c4)" d="M 52.375 77.773313 
L 945.175 77.773313 
" style="fill:none;stroke:#b0b0b0;stroke-linecap:square;stroke-width:0.8;"/>
     </g>
     <g id="line2d_20">
      <g>
       <use style="stroke:#000000;stroke-width:0.8;" x="52.375" xlink:href="#m848ae87aac" y="77.773313"/>
      </g>
     </g>
     <g id="text_11">
      <!-- 14 -->
      <g transform="translate(7.2 89.170969)scale(0.3 -0.3)">
       <use xlink:href="#DejaVuSans-49"/>
       <use x="63.623047" xlink:href="#DejaVuSans-52"/>
      </g>
     </g>
    </g>
   </g>
   <g id="line2d_21">
    <path clip-path="url(#p428cafa5c4)" d="M 92.956818 663.767599 
L 138.047727 658.015438 
L 183.138636 654.817986 
L 228.229545 643.319226 
L 273.320455 633.261715 
L 318.411364 627.058094 
L 363.502273 605.20356 
L 408.593182 597.769227 
L 453.684091 588.305248 
L 498.775 573.639847 
L 543.865909 550.276023 
L 588.956818 534.615697 
L 634.047727 517.348943 
L 679.138636 494.062574 
L 724.229545 469.525381 
L 769.320455 434.319602 
L 814.411364 389.953243 
L 859.502273 332.734598 
L 904.593182 237.099885 
" style="fill:none;stroke:#fe0002;stroke-linecap:square;stroke-width:1.5;"/>
    <defs>
     <path d="M 0 4.5 
C 1.193414 4.5 2.338109 4.025852 3.181981 3.181981 
C 4.025852 2.338109 4.5 1.193414 4.5 0 
C 4.5 -1.193414 4.025852 -2.338109 3.181981 -3.181981 
C 2.338109 -4.025852 1.193414 -4.5 0 -4.5 
C -1.193414 -4.5 -2.338109 -4.025852 -3.181981 -3.181981 
C -4.025852 -2.338109 -4.5 -1.193414 -4.5 0 
C -4.5 1.193414 -4.025852 2.338109 -3.181981 3.181981 
C -2.338109 4.025852 -1.193414 4.5 0 4.5 
z
" id="m06a0edec31" style="stroke:#000000;"/>
    </defs>
    <g clip-path="url(#p428cafa5c4)">
     <use style="fill:#fe0002;stroke:#000000;" x="92.956818" xlink:href="#m06a0edec31" y="663.767599"/>
     <use style="fill:#fe0002;stroke:#000000;" x="138.047727" xlink:href="#m06a0edec31" y="658.015438"/>
     <use style="fill:#fe0002;stroke:#000000;" x="183.138636" xlink:href="#m06a0edec31" y="654.817986"/>
     <use style="fill:#fe0002;stroke:#000000;" x="228.229545" xlink:href="#m06a0edec31" y="643.319226"/>
     <use style="fill:#fe0002;stroke:#000000;" x="273.320455" xlink:href="#m06a0edec31" y="633.261715"/>
     <use style="fill:#fe0002;stroke:#000000;" x="318.411364" xlink:href="#m06a0edec31" y="627.058094"/>
     <use style="fill:#fe0002;stroke:#000000;" x="363.502273" xlink:href="#m06a0edec31" y="605.20356"/>
     <use style="fill:#fe0002;stroke:#000000;" x="408.593182" xlink:href="#m06a0edec31" y="597.769227"/>
     <use style="fill:#fe0002;stroke:#000000;" x="453.684091" xlink:href="#m06a0edec31" y="588.305248"/>
     <use style="fill:#fe0002;stroke:#000000;" x="498.775" xlink:href="#m06a0edec31" y="573.639847"/>
     <use style="fill:#fe0002;stroke:#000000;" x="543.865909" xlink:href="#m06a0edec31" y="550.276023"/>
     <use style="fill:#fe0002;stroke:#000000;" x="588.956818" xlink:href="#m06a0edec31" y="534.615697"/>
     <use style="fill:#fe0002;stroke:#000000;" x="634.047727" xlink:href="#m06a0edec31" y="517.348943"/>
     <use style="fill:#fe0002;stroke:#000000;" x="679.138636" xlink:href="#m06a0edec31" y="494.062574"/>
     <use style="fill:#fe0002;stroke:#000000;" x="724.229545" xlink:href="#m06a0edec31" y="469.525381"/>
     <use style="fill:#fe0002;stroke:#000000;" x="769.320455" xlink:href="#m06a0edec31" y="434.319602"/>
     <use style="fill:#fe0002;stroke:#000000;" x="814.411364" xlink:href="#m06a0edec31" y="389.953243"/>
     <use style="fill:#fe0002;stroke:#000000;" x="859.502273" xlink:href="#m06a0edec31" y="332.734598"/>
     <use style="fill:#fe0002;stroke:#000000;" x="904.593182" xlink:href="#m06a0edec31" y="237.099885"/>
    </g>
   </g>
   <g id="line2d_22">
    <path clip-path="url(#p428cafa5c4)" d="M 92.956818 663.767599 
L 138.047727 658.015438 
L 183.138636 654.817986 
L 228.229545 643.319226 
L 273.320455 633.261715 
L 318.411364 627.058094 
L 363.502273 605.20356 
L 408.593182 597.769227 
L 453.684091 588.305248 
L 498.775 573.639847 
L 543.865909 550.276023 
L 588.956818 534.615697 
L 634.047727 517.348943 
L 679.138636 494.062574 
L 724.229545 469.525381 
L 769.320455 434.319602 
L 814.411364 389.953243 
L 859.502273 332.734598 
L 904.593182 237.099885 
" style="fill:none;stroke:#fe0002;stroke-dasharray:5.55,2.4;stroke-dashoffset:0;stroke-width:1.5;"/>
    <g clip-path="url(#p428cafa5c4)">
     <use style="fill:#fe0002;stroke:#000000;" x="92.956818" xlink:href="#m06a0edec31" y="663.767599"/>
     <use style="fill:#fe0002;stroke:#000000;" x="138.047727" xlink:href="#m06a0edec31" y="658.015438"/>
     <use style="fill:#fe0002;stroke:#000000;" x="183.138636" xlink:href="#m06a0edec31" y="654.817986"/>
     <use style="fill:#fe0002;stroke:#000000;" x="228.229545" xlink:href="#m06a0edec31" y="643.319226"/>
     <use style="fill:#fe0002;stroke:#000000;" x="273.320455" xlink:href="#m06a0edec31" y="633.261715"/>
     <use style="fill:#fe0002;stroke:#000000;" x="318.411364" xlink:href="#m06a0edec31" y="627.058094"/>
     <use style="fill:#fe0002;stroke:#000000;" x="363.502273" xlink:href="#m06a0edec31" y="605.20356"/>
     <use style="fill:#fe0002;stroke:#000000;" x="408.593182" xlink:href="#m06a0edec31" y="597.769227"/>
     <use style="fill:#fe0002;stroke:#000000;" x="453.684091" xlink:href="#m06a0edec31" y="588.305248"/>
     <use style="fill:#fe0002;stroke:#000000;" x="498.775" xlink:href="#m06a0edec31" y="573.639847"/>
     <use style="fill:#fe0002;stroke:#000000;" x="543.865909" xlink:href="#m06a0edec31" y="550.276023"/>
     <use style="fill:#fe0002;stroke:#000000;" x="588.956818" xlink:href="#m06a0edec31" y="534.615697"/>
     <use style="fill:#fe0002;stroke:#000000;" x="634.047727" xlink:href="#m06a0edec31" y="517.348943"/>
     <use style="fill:#fe0002;stroke:#000000;" x="679.138636" xlink:href="#m06a0edec31" y="494.062574"/>
     <use style="fill:#fe0002;stroke:#000000;" x="724.229545" xlink:href="#m06a0edec31" y="469.525381"/>
     <use style="fill:#fe0002;stroke:#000000;" x="769.320455" xlink:href="#m06a0edec31" y="434.319602"/>
     <use style="fill:#fe0002;stroke:#000000;" x="814.411364" xlink:href="#m06a0edec31" y="389.953243"/>
     <use style="fill:#fe0002;stroke:#000000;" x="859.502273" xlink:href="#m06a0edec31" y="332.734598"/>
     <use style="fill:#fe0002;stroke:#000000;" x="904.593182" xlink:href="#m06a0edec31" y="237.099885"/>
    </g>
   </g>
   <g id="line2d_23">
    <path clip-path="url(#p428cafa5c4)" d="M 92.956818 757.476652 
L 138.047727 751.690257 
L 183.138636 745.866204 
L 228.229545 734.517217 
L 273.320455 722.059051 
L 318.411364 713.601978 
L 363.502273 682.692134 
L 408.593182 672.429648 
L 453.684091 662.141486 
L 498.775 643.414225 
L 543.865909 610.447775 
L 588.956818 591.647767 
L 634.047727 567.291586 
L 679.138636 537.755808 
L 724.229545 504.530463 
L 769.320455 456.157019 
L 814.411364 395.554347 
L 859.502273 317.697331 
L 904.593182 184.233661 
" style="fill:none;stroke:#53fca1;stroke-linecap:square;stroke-width:1.5;"/>
    <defs>
     <path d="M 0 -4.5 
L -4.5 4.5 
L 4.5 4.5 
z
" id="me18080c385" style="stroke:#000000;stroke-linejoin:miter;"/>
    </defs>
    <g clip-path="url(#p428cafa5c4)">
     <use style="fill:#53fca1;stroke:#000000;stroke-linejoin:miter;" x="92.956818" xlink:href="#me18080c385" y="757.476652"/>
     <use style="fill:#53fca1;stroke:#000000;stroke-linejoin:miter;" x="138.047727" xlink:href="#me18080c385" y="751.690257"/>
     <use style="fill:#53fca1;stroke:#000000;stroke-linejoin:miter;" x="183.138636" xlink:href="#me18080c385" y="745.866204"/>
     <use style="fill:#53fca1;stroke:#000000;stroke-linejoin:miter;" x="228.229545" xlink:href="#me18080c385" y="734.517217"/>
     <use style="fill:#53fca1;stroke:#000000;stroke-linejoin:miter;" x="273.320455" xlink:href="#me18080c385" y="722.059051"/>
     <use style="fill:#53fca1;stroke:#000000;stroke-linejoin:miter;" x="318.411364" xlink:href="#me18080c385" y="713.601978"/>
     <use style="fill:#53fca1;stroke:#000000;stroke-linejoin:miter;" x="363.502273" xlink:href="#me18080c385" y="682.692134"/>
     <use style="fill:#53fca1;stroke:#000000;stroke-linejoin:miter;" x="408.593182" xlink:href="#me18080c385" y="672.429648"/>
     <use style="fill:#53fca1;stroke:#000000;stroke-linejoin:miter;" x="453.684091" xlink:href="#me18080c385" y="662.141486"/>
     <use style="fill:#53fca1;stroke:#000000;stroke-linejoin:miter;" x="498.775" xlink:href="#me18080c385" y="643.414225"/>
     <use style="fill:#53fca1;stroke:#000000;stroke-linejoin:miter;" x="543.865909" xlink:href="#me18080c385" y="610.447775"/>
     <use style="fill:#53fca1;stroke:#000000;stroke-linejoin:miter;" x="588.956818" xlink:href="#me18080c385" y="591.647767"/>
     <use style="fill:#53fca1;stroke:#000000;stroke-linejoin:miter;" x="634.047727" xlink:href="#me18080c385" y="567.291586"/>
     <use style="fill:#53fca1;stroke:#000000;stroke-linejoin:miter;" x="679.138636" xlink:href="#me18080c385" y="537.755808"/>
     <use style="fill:#53fca1;stroke:#000000;stroke-linejoin:miter;" x="724.229545" xlink:href="#me18080c385" y="504.530463"/>
     <use style="fill:#53fca1;stroke:#000000;stroke-linejoin:miter;" x="769.320455" xlink:href="#me18080c385" y="456.157019"/>
     <use style="fill:#53fca1;stroke:#000000;stroke-linejoin:miter;" x="814.411364" xlink:href="#me18080c385" y="395.554347"/>
     <use style="fill:#53fca1;stroke:#000000;stroke-linejoin:miter;" x="859.502273" xlink:href="#me18080c385" y="317.697331"/>
     <use style="fill:#53fca1;stroke:#000000;stroke-linejoin:miter;" x="904.593182" xlink:href="#me18080c385" y="184.233661"/>
    </g>
   </g>
   <g id="line2d_24">
    <path clip-path="url(#p428cafa5c4)" d="M 92.956818 924.267084 
L 138.047727 920.606189 
L 183.138636 916.594825 
L 228.229545 910.264965 
L 273.320455 903.097229 
L 318.411364 898.40846 
L 363.502273 880.422792 
L 408.593182 874.895291 
L 453.684091 869.025023 
L 498.775 857.730811 
L 543.865909 839.91674 
L 588.956818 828.972571 
L 634.047727 815.614906 
L 679.138636 799.393999 
L 724.229545 781.458398 
L 769.320455 755.39266 
L 814.411364 723.256383 
L 859.502273 682.424253 
L 904.593182 612.977237 
" style="fill:none;stroke:#53fca1;stroke-dasharray:5.55,2.4;stroke-dashoffset:0;stroke-width:1.5;"/>
    <defs>
     <path d="M -0 6.363961 
L 6.363961 0 
L 0 -6.363961 
L -6.363961 -0 
z
" id="m663caac44f" style="stroke:#000000;stroke-linejoin:miter;"/>
    </defs>
    <g clip-path="url(#p428cafa5c4)">
     <use style="fill:#53fca1;stroke:#000000;stroke-linejoin:miter;" x="92.956818" xlink:href="#m663caac44f" y="924.267084"/>
     <use style="fill:#53fca1;stroke:#000000;stroke-linejoin:miter;" x="138.047727" xlink:href="#m663caac44f" y="920.606189"/>
     <use style="fill:#53fca1;stroke:#000000;stroke-linejoin:miter;" x="183.138636" xlink:href="#m663caac44f" y="916.594825"/>
     <use style="fill:#53fca1;stroke:#000000;stroke-linejoin:miter;" x="228.229545" xlink:href="#m663caac44f" y="910.264965"/>
     <use style="fill:#53fca1;stroke:#000000;stroke-linejoin:miter;" x="273.320455" xlink:href="#m663caac44f" y="903.097229"/>
     <use style="fill:#53fca1;stroke:#000000;stroke-linejoin:miter;" x="318.411364" xlink:href="#m663caac44f" y="898.40846"/>
     <use style="fill:#53fca1;stroke:#000000;stroke-linejoin:miter;" x="363.502273" xlink:href="#m663caac44f" y="880.422792"/>
     <use style="fill:#53fca1;stroke:#000000;stroke-linejoin:miter;" x="408.593182" xlink:href="#m663caac44f" y="874.895291"/>
     <use style="fill:#53fca1;stroke:#000000;stroke-linejoin:miter;" x="453.684091" xlink:href="#m663caac44f" y="869.025023"/>
     <use style="fill:#53fca1;stroke:#000000;stroke-linejoin:miter;" x="498.775" xlink:href="#m663caac44f" y="857.730811"/>
     <use style="fill:#53fca1;stroke:#000000;stroke-linejoin:miter;" x="543.865909" xlink:href="#m663caac44f" y="839.91674"/>
     <use style="fill:#53fca1;stroke:#000000;stroke-linejoin:miter;" x="588.956818" xlink:href="#m663caac44f" y="828.972571"/>
     <use style="fill:#53fca1;stroke:#000000;stroke-linejoin:miter;" x="634.047727" xlink:href="#m663caac44f" y="815.614906"/>
     <use style="fill:#53fca1;stroke:#000000;stroke-linejoin:miter;" x="679.138636" xlink:href="#m663caac44f" y="799.393999"/>
     <use style="fill:#53fca1;stroke:#000000;stroke-linejoin:miter;" x="724.229545" xlink:href="#m663caac44f" y="781.458398"/>
     <use style="fill:#53fca1;stroke:#000000;stroke-linejoin:miter;" x="769.320455" xlink:href="#m663caac44f" y="755.39266"/>
     <use style="fill:#53fca1;stroke:#000000;stroke-linejoin:miter;" x="814.411364" xlink:href="#m663caac44f" y="723.256383"/>
     <use style="fill:#53fca1;stroke:#000000;stroke-linejoin:miter;" x="859.502273" xlink:href="#m663caac44f" y="682.424253"/>
     <use style="fill:#53fca1;stroke:#000000;stroke-linejoin:miter;" x="904.593182" xlink:href="#m663caac44f" y="612.977237"/>
    </g>
   </g>
   <g id="line2d_25">
    <path clip-path="url(#p428cafa5c4)" d="M 92.956818 753.348036 
L 138.047727 746.697661 
L 183.138636 742.212584 
L 228.229545 727.317387 
L 273.320455 713.440651 
L 318.411364 706.695276 
L 363.502273 672.747168 
L 408.593182 662.104257 
L 453.684091 649.589604 
L 498.775 628.139031 
L 543.865909 593.314105 
L 588.956818 568.864637 
L 634.047727 542.804889 
L 679.138636 507.289721 
L 724.229545 467.780305 
L 769.320455 408.605617 
L 814.411364 334.113371 
L 859.502273 236.219217 
L 904.593182 65.520122 
" style="fill:none;stroke:#0652ff;stroke-linecap:square;stroke-width:1.5;"/>
    <defs>
     <path d="M 0 -4.5 
L -4.279754 -1.390576 
L -2.645034 3.640576 
L 2.645034 3.640576 
L 4.279754 -1.390576 
z
" id="m2849de4626" style="stroke:#000000;stroke-linejoin:miter;"/>
    </defs>
    <g clip-path="url(#p428cafa5c4)">
     <use style="fill:#0652ff;stroke:#000000;stroke-linejoin:miter;" x="92.956818" xlink:href="#m2849de4626" y="753.348036"/>
     <use style="fill:#0652ff;stroke:#000000;stroke-linejoin:miter;" x="138.047727" xlink:href="#m2849de4626" y="746.697661"/>
     <use style="fill:#0652ff;stroke:#000000;stroke-linejoin:miter;" x="183.138636" xlink:href="#m2849de4626" y="742.212584"/>
     <use style="fill:#0652ff;stroke:#000000;stroke-linejoin:miter;" x="228.229545" xlink:href="#m2849de4626" y="727.317387"/>
     <use style="fill:#0652ff;stroke:#000000;stroke-linejoin:miter;" x="273.320455" xlink:href="#m2849de4626" y="713.440651"/>
     <use style="fill:#0652ff;stroke:#000000;stroke-linejoin:miter;" x="318.411364" xlink:href="#m2849de4626" y="706.695276"/>
     <use style="fill:#0652ff;stroke:#000000;stroke-linejoin:miter;" x="363.502273" xlink:href="#m2849de4626" y="672.747168"/>
     <use style="fill:#0652ff;stroke:#000000;stroke-linejoin:miter;" x="408.593182" xlink:href="#m2849de4626" y="662.104257"/>
     <use style="fill:#0652ff;stroke:#000000;stroke-linejoin:miter;" x="453.684091" xlink:href="#m2849de4626" y="649.589604"/>
     <use style="fill:#0652ff;stroke:#000000;stroke-linejoin:miter;" x="498.775" xlink:href="#m2849de4626" y="628.139031"/>
     <use style="fill:#0652ff;stroke:#000000;stroke-linejoin:miter;" x="543.865909" xlink:href="#m2849de4626" y="593.314105"/>
     <use style="fill:#0652ff;stroke:#000000;stroke-linejoin:miter;" x="588.956818" xlink:href="#m2849de4626" y="568.864637"/>
     <use style="fill:#0652ff;stroke:#000000;stroke-linejoin:miter;" x="634.047727" xlink:href="#m2849de4626" y="542.804889"/>
     <use style="fill:#0652ff;stroke:#000000;stroke-linejoin:miter;" x="679.138636" xlink:href="#m2849de4626" y="507.289721"/>
     <use style="fill:#0652ff;stroke:#000000;stroke-linejoin:miter;" x="724.229545" xlink:href="#m2849de4626" y="467.780305"/>
     <use style="fill:#0652ff;stroke:#000000;stroke-linejoin:miter;" x="769.320455" xlink:href="#m2849de4626" y="408.605617"/>
     <use style="fill:#0652ff;stroke:#000000;stroke-linejoin:miter;" x="814.411364" xlink:href="#m2849de4626" y="334.113371"/>
     <use style="fill:#0652ff;stroke:#000000;stroke-linejoin:miter;" x="859.502273" xlink:href="#m2849de4626" y="236.219217"/>
     <use style="fill:#0652ff;stroke:#000000;stroke-linejoin:miter;" x="904.593182" xlink:href="#m2849de4626" y="65.520122"/>
    </g>
   </g>
   <g id="line2d_26">
    <path clip-path="url(#p428cafa5c4)" d="M 92.956818 912.858616 
L 138.047727 908.450565 
L 183.138636 904.93003 
L 228.229545 895.338102 
L 273.320455 886.834814 
L 318.411364 882.473407 
L 363.502273 860.401488 
L 408.593182 853.983475 
L 453.684091 845.856333 
L 498.775 831.675342 
L 543.865909 810.261998 
L 588.956818 794.348769 
L 634.047727 777.759847 
L 679.138636 755.701621 
L 724.229545 731.242739 
L 769.320455 694.62866 
L 814.411364 649.05427 
L 859.502273 589.552648 
L 904.593182 486.666754 
" style="fill:none;stroke:#0652ff;stroke-dasharray:5.55,2.4;stroke-dashoffset:0;stroke-width:1.5;"/>
    <defs>
     <path d="M -2.25 4.5 
L 0 2.25 
L 2.25 4.5 
L 4.5 2.25 
L 2.25 0 
L 4.5 -2.25 
L 2.25 -4.5 
L 0 -2.25 
L -2.25 -4.5 
L -4.5 -2.25 
L -2.25 0 
L -4.5 2.25 
z
" id="m6b022f3e32" style="stroke:#000000;stroke-linejoin:miter;"/>
    </defs>
    <g clip-path="url(#p428cafa5c4)">
     <use style="fill:#0652ff;stroke:#000000;stroke-linejoin:miter;" x="92.956818" xlink:href="#m6b022f3e32" y="912.858616"/>
     <use style="fill:#0652ff;stroke:#000000;stroke-linejoin:miter;" x="138.047727" xlink:href="#m6b022f3e32" y="908.450565"/>
     <use style="fill:#0652ff;stroke:#000000;stroke-linejoin:miter;" x="183.138636" xlink:href="#m6b022f3e32" y="904.93003"/>
     <use style="fill:#0652ff;stroke:#000000;stroke-linejoin:miter;" x="228.229545" xlink:href="#m6b022f3e32" y="895.338102"/>
     <use style="fill:#0652ff;stroke:#000000;stroke-linejoin:miter;" x="273.320455" xlink:href="#m6b022f3e32" y="886.834814"/>
     <use style="fill:#0652ff;stroke:#000000;stroke-linejoin:miter;" x="318.411364" xlink:href="#m6b022f3e32" y="882.473407"/>
     <use style="fill:#0652ff;stroke:#000000;stroke-linejoin:miter;" x="363.502273" xlink:href="#m6b022f3e32" y="860.401488"/>
     <use style="fill:#0652ff;stroke:#000000;stroke-linejoin:miter;" x="408.593182" xlink:href="#m6b022f3e32" y="853.983475"/>
     <use style="fill:#0652ff;stroke:#000000;stroke-linejoin:miter;" x="453.684091" xlink:href="#m6b022f3e32" y="845.856333"/>
     <use style="fill:#0652ff;stroke:#000000;stroke-linejoin:miter;" x="498.775" xlink:href="#m6b022f3e32" y="831.675342"/>
     <use style="fill:#0652ff;stroke:#000000;stroke-linejoin:miter;" x="543.865909" xlink:href="#m6b022f3e32" y="810.261998"/>
     <use style="fill:#0652ff;stroke:#000000;stroke-linejoin:miter;" x="588.956818" xlink:href="#m6b022f3e32" y="794.348769"/>
     <use style="fill:#0652ff;stroke:#000000;stroke-linejoin:miter;" x="634.047727" xlink:href="#m6b022f3e32" y="777.759847"/>
     <use style="fill:#0652ff;stroke:#000000;stroke-linejoin:miter;" x="679.138636" xlink:href="#m6b022f3e32" y="755.701621"/>
     <use style="fill:#0652ff;stroke:#000000;stroke-linejoin:miter;" x="724.229545" xlink:href="#m6b022f3e32" y="731.242739"/>
     <use style="fill:#0652ff;stroke:#000000;stroke-linejoin:miter;" x="769.320455" xlink:href="#m6b022f3e32" y="694.62866"/>
     <use style="fill:#0652ff;stroke:#000000;stroke-linejoin:miter;" x="814.411364" xlink:href="#m6b022f3e32" y="649.05427"/>
     <use style="fill:#0652ff;stroke:#000000;stroke-linejoin:miter;" x="859.502273" xlink:href="#m6b022f3e32" y="589.552648"/>
     <use style="fill:#0652ff;stroke:#000000;stroke-linejoin:miter;" x="904.593182" xlink:href="#m6b022f3e32" y="486.666754"/>
    </g>
   </g>
   <g id="patch_3">
    <path d="M 52.375 1005.12 
L 52.375 7.2 
" style="fill:none;stroke:#000000;stroke-linecap:square;stroke-linejoin:miter;stroke-width:0.8;"/>
   </g>
   <g id="patch_4">
    <path d="M 945.175 1005.12 
L 945.175 7.2 
" style="fill:none;stroke:#000000;stroke-linecap:square;stroke-linejoin:miter;stroke-width:0.8;"/>
   </g>
   <g id="patch_5">
    <path d="M 52.375 1005.12 
L 945.175 1005.12 
" style="fill:none;stroke:#000000;stroke-linecap:square;stroke-linejoin:miter;stroke-width:0.8;"/>
   </g>
   <g id="patch_6">
    <path d="M 52.375 7.2 
L 945.175 7.2 
" style="fill:none;stroke:#000000;stroke-linecap:square;stroke-linejoin:miter;stroke-width:0.8;"/>
   </g>
  </g>
 </g>
 <defs>
  <clipPath id="p428cafa5c4">
   <rect height="997.92" width="892.8" x="52.375" y="7.2"/>
  </clipPath>
 </defs>
</svg>
