<?xml version="1.0" encoding="utf-8" standalone="no"?>
<!DOCTYPE svg PUBLIC "-//W3C//DTD SVG 1.1//EN"
  "http://www.w3.org/Graphics/SVG/1.1/DTD/svg11.dtd">
<svg height="1090.099063pt" version="1.1" viewBox="0 0 1019.489765 1090.099063" width="1019.489765pt" xmlns="http://www.w3.org/2000/svg" xmlns:xlink="http://www.w3.org/1999/xlink">
 <metadata>
  <rdf:RDF xmlns:cc="http://creativecommons.org/ns#" xmlns:dc="http://purl.org/dc/elements/1.1/" xmlns:rdf="http://www.w3.org/1999/02/22-rdf-syntax-ns#">
   <cc:Work>
    <dc:type rdf:resource="http://purl.org/dc/dcmitype/StillImage"/>
    <dc:date>2021-07-04T14:01:57.187975</dc:date>
    <dc:format>image/svg+xml</dc:format>
    <dc:creator>
     <cc:Agent>
      <dc:title>Matplotlib v3.4.2, https://matplotlib.org/</dc:title>
     </cc:Agent>
    </dc:creator>
   </cc:Work>
  </rdf:RDF>
 </metadata>
 <defs>
  <style type="text/css">*{stroke-linecap:butt;stroke-linejoin:round;}</style>
 </defs>
 <g id="figure_1">
  <g id="patch_1">
   <path d="M 0 1090.099063 
L 1019.489765 1090.099063 
L 1019.489765 0 
L 0 0 
z
" style="fill:#ffffff;"/>
  </g>
  <g id="axes_1">
   <g id="patch_2">
    <path d="M 113.207188 1005.12 
L 1006.007187 1005.12 
L 1006.007187 7.2 
L 113.207188 7.2 
z
" style="fill:#ffffff;"/>
   </g>
   <g id="PolyCollection_1">
    <defs>
     <path d="M 153.789006 -131.321987 
L 153.789006 -130.339063 
L 196.506709 -149.702971 
L 239.224412 -171.204063 
L 281.942116 -193.252226 
L 324.659819 -217.329361 
L 367.377522 -238.580965 
L 410.095226 -264.617936 
L 452.812929 -285.788381 
L 495.530632 -310.707164 
L 538.248336 -335.746182 
L 580.966039 -359.910488 
L 623.683743 -385.818207 
L 666.401446 -409.739036 
L 709.119149 -435.800055 
L 751.836853 -462.621563 
L 794.554556 -489.010223 
L 837.272259 -514.951007 
L 879.989963 -548.391472 
L 922.707666 -569.492781 
L 965.425369 -597.850296 
L 965.425369 -622.065702 
L 965.425369 -622.065702 
L 922.707666 -595.2472 
L 879.989963 -565.894738 
L 837.272259 -537.789717 
L 794.554556 -510.454203 
L 751.836853 -481.441406 
L 709.119149 -457.063682 
L 666.401446 -430.783234 
L 623.683743 -403.604026 
L 580.966039 -377.257448 
L 538.248336 -347.354908 
L 495.530632 -322.559367 
L 452.812929 -297.529366 
L 410.095226 -273.121584 
L 367.377522 -247.800013 
L 324.659819 -220.840234 
L 281.942116 -198.314135 
L 239.224412 -174.444406 
L 196.506709 -152.811055 
L 153.789006 -131.321987 
z
" id="ma469bd3b51" style="stroke:#fe0002;stroke-opacity:0.3;"/>
    </defs>
    <g clip-path="url(#p59ac9b7961)">
     <use style="fill:#fe0002;fill-opacity:0.3;stroke:#fe0002;stroke-opacity:0.3;" x="0" xlink:href="#ma469bd3b51" y="1090.099063"/>
    </g>
   </g>
   <g id="PolyCollection_2">
    <defs>
     <path d="M 153.789006 -135.376925 
L 153.789006 -134.213648 
L 196.506709 -160.421955 
L 239.224412 -189.197288 
L 281.942116 -219.454521 
L 324.659819 -250.953185 
L 367.377522 -281.928826 
L 410.095226 -312.679024 
L 452.812929 -345.969196 
L 495.530632 -378.486854 
L 538.248336 -415.41114 
L 580.966039 -446.167351 
L 623.683743 -480.455476 
L 666.401446 -521.173188 
L 709.119149 -551.406374 
L 751.836853 -589.566078 
L 794.554556 -621.966508 
L 837.272259 -658.283605 
L 879.989963 -693.840213 
L 922.707666 -730.698369 
L 965.425369 -766.65476 
L 965.425369 -788.249034 
L 965.425369 -788.249034 
L 922.707666 -757.081018 
L 879.989963 -711.623026 
L 837.272259 -678.897961 
L 794.554556 -643.960565 
L 751.836853 -606.429091 
L 709.119149 -571.3414 
L 666.401446 -535.150551 
L 623.683743 -498.301412 
L 580.966039 -462.110562 
L 538.248336 -425.023959 
L 495.530632 -392.175653 
L 452.812929 -355.918673 
L 410.095226 -321.822925 
L 367.377522 -289.966561 
L 324.659819 -254.722565 
L 281.942116 -223.668771 
L 239.224412 -192.630008 
L 196.506709 -164.302552 
L 153.789006 -135.376925 
z
" id="m5ac07b7e56" style="stroke:#53fca1;stroke-opacity:0.3;"/>
    </defs>
    <g clip-path="url(#p59ac9b7961)">
     <use style="fill:#53fca1;fill-opacity:0.3;stroke:#53fca1;stroke-opacity:0.3;" x="0" xlink:href="#m5ac07b7e56" y="1090.099063"/>
    </g>
   </g>
   <g id="PolyCollection_3">
    <defs>
     <path d="M 153.789006 -136.828767 
L 153.789006 -134.81783 
L 196.506709 -162.889786 
L 239.224412 -193.225173 
L 281.942116 -225.177725 
L 324.659819 -259.574062 
L 367.377522 -292.686886 
L 410.095226 -325.910928 
L 452.812929 -361.759107 
L 495.530632 -396.570256 
L 538.248336 -437.717809 
L 580.966039 -470.710398 
L 623.683743 -509.224796 
L 666.401446 -553.38124 
L 709.119149 -586.656382 
L 751.836853 -627.978277 
L 794.554556 -665.79531 
L 837.272259 -703.726567 
L 879.989963 -745.21078 
L 922.707666 -783.881484 
L 965.425369 -824.683361 
L 965.425369 -846.1574 
L 965.425369 -846.1574 
L 922.707666 -805.902594 
L 879.989963 -761.947545 
L 837.272259 -724.881983 
L 794.554556 -686.021907 
L 751.836853 -645.764096 
L 709.119149 -606.260761 
L 666.401446 -567.92371 
L 623.683743 -528.24904 
L 580.966039 -487.534334 
L 538.248336 -447.156287 
L 495.530632 -411.647773 
L 452.812929 -374.813664 
L 410.095226 -334.790311 
L 367.377522 -301.39794 
L 324.659819 -262.588964 
L 281.942116 -229.734646 
L 239.224412 -196.32424 
L 196.506709 -166.196259 
L 153.789006 -136.828767 
z
" id="m76a784cf2c" style="stroke:#0652ff;stroke-opacity:0.3;"/>
    </defs>
    <g clip-path="url(#p59ac9b7961)">
     <use style="fill:#0652ff;fill-opacity:0.3;stroke:#0652ff;stroke-opacity:0.3;" x="0" xlink:href="#m76a784cf2c" y="1090.099063"/>
    </g>
   </g>
   <g id="PolyCollection_4">
    <defs>
     <path d="M 153.789006 -140.913764 
L 153.789006 -140.192352 
L 196.506709 -174.835171 
L 239.224412 -212.961811 
L 281.942116 -254.440011 
L 324.659819 -294.983382 
L 367.377522 -340.089685 
L 410.095226 -384.681983 
L 452.812929 -430.774216 
L 495.530632 -477.284267 
L 538.248336 -523.986695 
L 580.966039 -572.841337 
L 623.683743 -622.624796 
L 666.401446 -668.332277 
L 709.119149 -721.545451 
L 751.836853 -772.465135 
L 794.554556 -824.947879 
L 837.272259 -874.02195 
L 879.989963 -927.451547 
L 922.707666 -978.431349 
L 965.425369 -1032.3479 
L 965.425369 -1037.539063 
L 965.425369 -1037.539063 
L 922.707666 -984.037324 
L 879.989963 -930.406332 
L 837.272259 -878.675059 
L 794.554556 -827.848557 
L 751.836853 -777.406809 
L 709.119149 -725.708601 
L 666.401446 -674.873081 
L 623.683743 -627.659653 
L 580.966039 -576.67384 
L 538.248336 -529.508505 
L 495.530632 -481.21897 
L 452.812929 -434.10173 
L 410.095226 -388.141756 
L 367.377522 -342.698793 
L 324.659819 -298.377026 
L 281.942116 -255.5582 
L 239.224412 -214.849506 
L 196.506709 -176.262966 
L 153.789006 -140.913764 
z
" id="mc25051da73" style="stroke:#ae7181;stroke-opacity:0.3;"/>
    </defs>
    <g clip-path="url(#p59ac9b7961)">
     <use style="fill:#ae7181;fill-opacity:0.3;stroke:#ae7181;stroke-opacity:0.3;" x="0" xlink:href="#mc25051da73" y="1090.099063"/>
    </g>
   </g>
   <g id="PolyCollection_5">
    <defs>
     <path d="M 153.789006 -134.86893 
L 153.789006 -134.201624 
L 196.506709 -160.584273 
L 239.224412 -190.210271 
L 281.942116 -220.801158 
L 324.659819 -253.65247 
L 367.377522 -285.361546 
L 410.095226 -318.504429 
L 452.812929 -352.083165 
L 495.530632 -386.428401 
L 538.248336 -422.535086 
L 580.966039 -458.317136 
L 623.683743 -493.131291 
L 666.401446 -533.368061 
L 709.119149 -566.802515 
L 751.836853 -605.755772 
L 794.554556 -644.137912 
L 837.272259 -679.318785 
L 879.989963 -716.642853 
L 922.707666 -756.095088 
L 965.425369 -795.333904 
L 965.425369 -807.51976 
L 965.425369 -807.51976 
L 922.707666 -768.572514 
L 879.989963 -727.244608 
L 837.272259 -691.173993 
L 794.554556 -654.673537 
L 751.836853 -615.85855 
L 709.119149 -578.597606 
L 666.401446 -540.32969 
L 623.683743 -503.477545 
L 580.966039 -466.186542 
L 538.248336 -429.25925 
L 495.530632 -394.751696 
L 452.812929 -357.595957 
L 410.095226 -323.085397 
L 367.377522 -290.28819 
L 324.659819 -255.0472 
L 281.942116 -224.104625 
L 239.224412 -192.434625 
L 196.506709 -163.115227 
L 153.789006 -134.86893 
z
" id="m2ffcec5a4f" style="stroke:#ff81c0;stroke-opacity:0.3;"/>
    </defs>
    <g clip-path="url(#p59ac9b7961)">
     <use style="fill:#ff81c0;fill-opacity:0.3;stroke:#ff81c0;stroke-opacity:0.3;" x="0" xlink:href="#m2ffcec5a4f" y="1090.099063"/>
    </g>
   </g>
   <g id="PolyCollection_6">
    <defs>
     <path d="M 153.789006 -134.574354 
L 153.789006 -134.060348 
L 196.506709 -159.856849 
L 239.224412 -188.478881 
L 281.942116 -218.270203 
L 324.659819 -250.433167 
L 367.377522 -282.094149 
L 410.095226 -314.729038 
L 452.812929 -348.349856 
L 495.530632 -381.634016 
L 538.248336 -416.956165 
L 580.966039 -452.161084 
L 623.683743 -486.193709 
L 666.401446 -526.193015 
L 709.119149 -561.551234 
L 751.836853 -597.648902 
L 794.554556 -632.318774 
L 837.272259 -671.133761 
L 879.989963 -708.490894 
L 922.707666 -743.551531 
L 965.425369 -782.973707 
L 965.425369 -795.670563 
L 965.425369 -795.670563 
L 922.707666 -758.136083 
L 879.989963 -716.375329 
L 837.272259 -682.267557 
L 794.554556 -643.428523 
L 751.836853 -607.036279 
L 709.119149 -571.801301 
L 666.401446 -533.836979 
L 623.683743 -496.615111 
L 580.966039 -463.009322 
L 538.248336 -423.641252 
L 495.530632 -390.762887 
L 452.812929 -354.899679 
L 410.095226 -319.5625 
L 367.377522 -286.792347 
L 324.659819 -252.919034 
L 281.942116 -221.182905 
L 239.224412 -190.877577 
L 196.506709 -161.777609 
L 153.789006 -134.574354 
z
" id="m73c4043176" style="stroke:#f97306;stroke-opacity:0.3;"/>
    </defs>
    <g clip-path="url(#p59ac9b7961)">
     <use style="fill:#f97306;fill-opacity:0.3;stroke:#f97306;stroke-opacity:0.3;" x="0" xlink:href="#m73c4043176" y="1090.099063"/>
    </g>
   </g>
   <g id="matplotlib.axis_1">
    <g id="xtick_1">
     <g id="line2d_1">
      <path clip-path="url(#p59ac9b7961)" d="M 281.087762 1005.12 
L 281.087762 7.2 
" style="fill:none;stroke:#b0b0b0;stroke-linecap:square;stroke-width:0.8;"/>
     </g>
     <g id="line2d_2">
      <defs>
       <path d="M 0 0 
L 0 3.5 
" id="me6c3022d92" style="stroke:#000000;stroke-width:0.8;"/>
      </defs>
      <g>
       <use style="stroke:#000000;stroke-width:0.8;" x="281.087762" xlink:href="#me6c3022d92" y="1005.12"/>
      </g>
     </g>
     <g id="text_1">
      <!-- 2000 -->
      <g transform="translate(242.912762 1034.915313)scale(0.3 -0.3)">
       <defs>
        <path d="M 1228 531 
L 3431 531 
L 3431 0 
L 469 0 
L 469 531 
Q 828 903 1448 1529 
Q 2069 2156 2228 2338 
Q 2531 2678 2651 2914 
Q 2772 3150 2772 3378 
Q 2772 3750 2511 3984 
Q 2250 4219 1831 4219 
Q 1534 4219 1204 4116 
Q 875 4013 500 3803 
L 500 4441 
Q 881 4594 1212 4672 
Q 1544 4750 1819 4750 
Q 2544 4750 2975 4387 
Q 3406 4025 3406 3419 
Q 3406 3131 3298 2873 
Q 3191 2616 2906 2266 
Q 2828 2175 2409 1742 
Q 1991 1309 1228 531 
z
" id="DejaVuSans-32" transform="scale(0.015625)"/>
        <path d="M 2034 4250 
Q 1547 4250 1301 3770 
Q 1056 3291 1056 2328 
Q 1056 1369 1301 889 
Q 1547 409 2034 409 
Q 2525 409 2770 889 
Q 3016 1369 3016 2328 
Q 3016 3291 2770 3770 
Q 2525 4250 2034 4250 
z
M 2034 4750 
Q 2819 4750 3233 4129 
Q 3647 3509 3647 2328 
Q 3647 1150 3233 529 
Q 2819 -91 2034 -91 
Q 1250 -91 836 529 
Q 422 1150 422 2328 
Q 422 3509 836 4129 
Q 1250 4750 2034 4750 
z
" id="DejaVuSans-30" transform="scale(0.015625)"/>
       </defs>
       <use xlink:href="#DejaVuSans-32"/>
       <use x="63.623047" xlink:href="#DejaVuSans-30"/>
       <use x="127.246094" xlink:href="#DejaVuSans-30"/>
       <use x="190.869141" xlink:href="#DejaVuSans-30"/>
      </g>
     </g>
    </g>
    <g id="xtick_2">
     <g id="line2d_3">
      <path clip-path="url(#p59ac9b7961)" d="M 451.958575 1005.12 
L 451.958575 7.2 
" style="fill:none;stroke:#b0b0b0;stroke-linecap:square;stroke-width:0.8;"/>
     </g>
     <g id="line2d_4">
      <g>
       <use style="stroke:#000000;stroke-width:0.8;" x="451.958575" xlink:href="#me6c3022d92" y="1005.12"/>
      </g>
     </g>
     <g id="text_2">
      <!-- 4000 -->
      <g transform="translate(413.783575 1034.915313)scale(0.3 -0.3)">
       <defs>
        <path d="M 2419 4116 
L 825 1625 
L 2419 1625 
L 2419 4116 
z
M 2253 4666 
L 3047 4666 
L 3047 1625 
L 3713 1625 
L 3713 1100 
L 3047 1100 
L 3047 0 
L 2419 0 
L 2419 1100 
L 313 1100 
L 313 1709 
L 2253 4666 
z
" id="DejaVuSans-34" transform="scale(0.015625)"/>
       </defs>
       <use xlink:href="#DejaVuSans-34"/>
       <use x="63.623047" xlink:href="#DejaVuSans-30"/>
       <use x="127.246094" xlink:href="#DejaVuSans-30"/>
       <use x="190.869141" xlink:href="#DejaVuSans-30"/>
      </g>
     </g>
    </g>
    <g id="xtick_3">
     <g id="line2d_5">
      <path clip-path="url(#p59ac9b7961)" d="M 622.829388 1005.12 
L 622.829388 7.2 
" style="fill:none;stroke:#b0b0b0;stroke-linecap:square;stroke-width:0.8;"/>
     </g>
     <g id="line2d_6">
      <g>
       <use style="stroke:#000000;stroke-width:0.8;" x="622.829388" xlink:href="#me6c3022d92" y="1005.12"/>
      </g>
     </g>
     <g id="text_3">
      <!-- 6000 -->
      <g transform="translate(584.654388 1034.915313)scale(0.3 -0.3)">
       <defs>
        <path d="M 2113 2584 
Q 1688 2584 1439 2293 
Q 1191 2003 1191 1497 
Q 1191 994 1439 701 
Q 1688 409 2113 409 
Q 2538 409 2786 701 
Q 3034 994 3034 1497 
Q 3034 2003 2786 2293 
Q 2538 2584 2113 2584 
z
M 3366 4563 
L 3366 3988 
Q 3128 4100 2886 4159 
Q 2644 4219 2406 4219 
Q 1781 4219 1451 3797 
Q 1122 3375 1075 2522 
Q 1259 2794 1537 2939 
Q 1816 3084 2150 3084 
Q 2853 3084 3261 2657 
Q 3669 2231 3669 1497 
Q 3669 778 3244 343 
Q 2819 -91 2113 -91 
Q 1303 -91 875 529 
Q 447 1150 447 2328 
Q 447 3434 972 4092 
Q 1497 4750 2381 4750 
Q 2619 4750 2861 4703 
Q 3103 4656 3366 4563 
z
" id="DejaVuSans-36" transform="scale(0.015625)"/>
       </defs>
       <use xlink:href="#DejaVuSans-36"/>
       <use x="63.623047" xlink:href="#DejaVuSans-30"/>
       <use x="127.246094" xlink:href="#DejaVuSans-30"/>
       <use x="190.869141" xlink:href="#DejaVuSans-30"/>
      </g>
     </g>
    </g>
    <g id="xtick_4">
     <g id="line2d_7">
      <path clip-path="url(#p59ac9b7961)" d="M 793.700202 1005.12 
L 793.700202 7.2 
" style="fill:none;stroke:#b0b0b0;stroke-linecap:square;stroke-width:0.8;"/>
     </g>
     <g id="line2d_8">
      <g>
       <use style="stroke:#000000;stroke-width:0.8;" x="793.700202" xlink:href="#me6c3022d92" y="1005.12"/>
      </g>
     </g>
     <g id="text_4">
      <!-- 8000 -->
      <g transform="translate(755.525202 1034.915313)scale(0.3 -0.3)">
       <defs>
        <path d="M 2034 2216 
Q 1584 2216 1326 1975 
Q 1069 1734 1069 1313 
Q 1069 891 1326 650 
Q 1584 409 2034 409 
Q 2484 409 2743 651 
Q 3003 894 3003 1313 
Q 3003 1734 2745 1975 
Q 2488 2216 2034 2216 
z
M 1403 2484 
Q 997 2584 770 2862 
Q 544 3141 544 3541 
Q 544 4100 942 4425 
Q 1341 4750 2034 4750 
Q 2731 4750 3128 4425 
Q 3525 4100 3525 3541 
Q 3525 3141 3298 2862 
Q 3072 2584 2669 2484 
Q 3125 2378 3379 2068 
Q 3634 1759 3634 1313 
Q 3634 634 3220 271 
Q 2806 -91 2034 -91 
Q 1263 -91 848 271 
Q 434 634 434 1313 
Q 434 1759 690 2068 
Q 947 2378 1403 2484 
z
M 1172 3481 
Q 1172 3119 1398 2916 
Q 1625 2713 2034 2713 
Q 2441 2713 2670 2916 
Q 2900 3119 2900 3481 
Q 2900 3844 2670 4047 
Q 2441 4250 2034 4250 
Q 1625 4250 1398 4047 
Q 1172 3844 1172 3481 
z
" id="DejaVuSans-38" transform="scale(0.015625)"/>
       </defs>
       <use xlink:href="#DejaVuSans-38"/>
       <use x="63.623047" xlink:href="#DejaVuSans-30"/>
       <use x="127.246094" xlink:href="#DejaVuSans-30"/>
       <use x="190.869141" xlink:href="#DejaVuSans-30"/>
      </g>
     </g>
    </g>
    <g id="xtick_5">
     <g id="line2d_9">
      <path clip-path="url(#p59ac9b7961)" d="M 964.571015 1005.12 
L 964.571015 7.2 
" style="fill:none;stroke:#b0b0b0;stroke-linecap:square;stroke-width:0.8;"/>
     </g>
     <g id="line2d_10">
      <g>
       <use style="stroke:#000000;stroke-width:0.8;" x="964.571015" xlink:href="#me6c3022d92" y="1005.12"/>
      </g>
     </g>
     <g id="text_5">
      <!-- 10000 -->
      <g transform="translate(916.852265 1034.915313)scale(0.3 -0.3)">
       <defs>
        <path d="M 794 531 
L 1825 531 
L 1825 4091 
L 703 3866 
L 703 4441 
L 1819 4666 
L 2450 4666 
L 2450 531 
L 3481 531 
L 3481 0 
L 794 0 
L 794 531 
z
" id="DejaVuSans-31" transform="scale(0.015625)"/>
       </defs>
       <use xlink:href="#DejaVuSans-31"/>
       <use x="63.623047" xlink:href="#DejaVuSans-30"/>
       <use x="127.246094" xlink:href="#DejaVuSans-30"/>
       <use x="190.869141" xlink:href="#DejaVuSans-30"/>
       <use x="254.492188" xlink:href="#DejaVuSans-30"/>
      </g>
     </g>
    </g>
    <g id="text_6">
     <!-- Edge probability -->
     <g transform="translate(400.295234 1074.788281)scale(0.39 -0.39)">
      <defs>
       <path d="M 628 4666 
L 3578 4666 
L 3578 4134 
L 1259 4134 
L 1259 2753 
L 3481 2753 
L 3481 2222 
L 1259 2222 
L 1259 531 
L 3634 531 
L 3634 0 
L 628 0 
L 628 4666 
z
" id="DejaVuSans-45" transform="scale(0.015625)"/>
       <path d="M 2906 2969 
L 2906 4863 
L 3481 4863 
L 3481 0 
L 2906 0 
L 2906 525 
Q 2725 213 2448 61 
Q 2172 -91 1784 -91 
Q 1150 -91 751 415 
Q 353 922 353 1747 
Q 353 2572 751 3078 
Q 1150 3584 1784 3584 
Q 2172 3584 2448 3432 
Q 2725 3281 2906 2969 
z
M 947 1747 
Q 947 1113 1208 752 
Q 1469 391 1925 391 
Q 2381 391 2643 752 
Q 2906 1113 2906 1747 
Q 2906 2381 2643 2742 
Q 2381 3103 1925 3103 
Q 1469 3103 1208 2742 
Q 947 2381 947 1747 
z
" id="DejaVuSans-64" transform="scale(0.015625)"/>
       <path d="M 2906 1791 
Q 2906 2416 2648 2759 
Q 2391 3103 1925 3103 
Q 1463 3103 1205 2759 
Q 947 2416 947 1791 
Q 947 1169 1205 825 
Q 1463 481 1925 481 
Q 2391 481 2648 825 
Q 2906 1169 2906 1791 
z
M 3481 434 
Q 3481 -459 3084 -895 
Q 2688 -1331 1869 -1331 
Q 1566 -1331 1297 -1286 
Q 1028 -1241 775 -1147 
L 775 -588 
Q 1028 -725 1275 -790 
Q 1522 -856 1778 -856 
Q 2344 -856 2625 -561 
Q 2906 -266 2906 331 
L 2906 616 
Q 2728 306 2450 153 
Q 2172 0 1784 0 
Q 1141 0 747 490 
Q 353 981 353 1791 
Q 353 2603 747 3093 
Q 1141 3584 1784 3584 
Q 2172 3584 2450 3431 
Q 2728 3278 2906 2969 
L 2906 3500 
L 3481 3500 
L 3481 434 
z
" id="DejaVuSans-67" transform="scale(0.015625)"/>
       <path d="M 3597 1894 
L 3597 1613 
L 953 1613 
Q 991 1019 1311 708 
Q 1631 397 2203 397 
Q 2534 397 2845 478 
Q 3156 559 3463 722 
L 3463 178 
Q 3153 47 2828 -22 
Q 2503 -91 2169 -91 
Q 1331 -91 842 396 
Q 353 884 353 1716 
Q 353 2575 817 3079 
Q 1281 3584 2069 3584 
Q 2775 3584 3186 3129 
Q 3597 2675 3597 1894 
z
M 3022 2063 
Q 3016 2534 2758 2815 
Q 2500 3097 2075 3097 
Q 1594 3097 1305 2825 
Q 1016 2553 972 2059 
L 3022 2063 
z
" id="DejaVuSans-65" transform="scale(0.015625)"/>
       <path id="DejaVuSans-20" transform="scale(0.015625)"/>
       <path d="M 1159 525 
L 1159 -1331 
L 581 -1331 
L 581 3500 
L 1159 3500 
L 1159 2969 
Q 1341 3281 1617 3432 
Q 1894 3584 2278 3584 
Q 2916 3584 3314 3078 
Q 3713 2572 3713 1747 
Q 3713 922 3314 415 
Q 2916 -91 2278 -91 
Q 1894 -91 1617 61 
Q 1341 213 1159 525 
z
M 3116 1747 
Q 3116 2381 2855 2742 
Q 2594 3103 2138 3103 
Q 1681 3103 1420 2742 
Q 1159 2381 1159 1747 
Q 1159 1113 1420 752 
Q 1681 391 2138 391 
Q 2594 391 2855 752 
Q 3116 1113 3116 1747 
z
" id="DejaVuSans-70" transform="scale(0.015625)"/>
       <path d="M 2631 2963 
Q 2534 3019 2420 3045 
Q 2306 3072 2169 3072 
Q 1681 3072 1420 2755 
Q 1159 2438 1159 1844 
L 1159 0 
L 581 0 
L 581 3500 
L 1159 3500 
L 1159 2956 
Q 1341 3275 1631 3429 
Q 1922 3584 2338 3584 
Q 2397 3584 2469 3576 
Q 2541 3569 2628 3553 
L 2631 2963 
z
" id="DejaVuSans-72" transform="scale(0.015625)"/>
       <path d="M 1959 3097 
Q 1497 3097 1228 2736 
Q 959 2375 959 1747 
Q 959 1119 1226 758 
Q 1494 397 1959 397 
Q 2419 397 2687 759 
Q 2956 1122 2956 1747 
Q 2956 2369 2687 2733 
Q 2419 3097 1959 3097 
z
M 1959 3584 
Q 2709 3584 3137 3096 
Q 3566 2609 3566 1747 
Q 3566 888 3137 398 
Q 2709 -91 1959 -91 
Q 1206 -91 779 398 
Q 353 888 353 1747 
Q 353 2609 779 3096 
Q 1206 3584 1959 3584 
z
" id="DejaVuSans-6f" transform="scale(0.015625)"/>
       <path d="M 3116 1747 
Q 3116 2381 2855 2742 
Q 2594 3103 2138 3103 
Q 1681 3103 1420 2742 
Q 1159 2381 1159 1747 
Q 1159 1113 1420 752 
Q 1681 391 2138 391 
Q 2594 391 2855 752 
Q 3116 1113 3116 1747 
z
M 1159 2969 
Q 1341 3281 1617 3432 
Q 1894 3584 2278 3584 
Q 2916 3584 3314 3078 
Q 3713 2572 3713 1747 
Q 3713 922 3314 415 
Q 2916 -91 2278 -91 
Q 1894 -91 1617 61 
Q 1341 213 1159 525 
L 1159 0 
L 581 0 
L 581 4863 
L 1159 4863 
L 1159 2969 
z
" id="DejaVuSans-62" transform="scale(0.015625)"/>
       <path d="M 2194 1759 
Q 1497 1759 1228 1600 
Q 959 1441 959 1056 
Q 959 750 1161 570 
Q 1363 391 1709 391 
Q 2188 391 2477 730 
Q 2766 1069 2766 1631 
L 2766 1759 
L 2194 1759 
z
M 3341 1997 
L 3341 0 
L 2766 0 
L 2766 531 
Q 2569 213 2275 61 
Q 1981 -91 1556 -91 
Q 1019 -91 701 211 
Q 384 513 384 1019 
Q 384 1609 779 1909 
Q 1175 2209 1959 2209 
L 2766 2209 
L 2766 2266 
Q 2766 2663 2505 2880 
Q 2244 3097 1772 3097 
Q 1472 3097 1187 3025 
Q 903 2953 641 2809 
L 641 3341 
Q 956 3463 1253 3523 
Q 1550 3584 1831 3584 
Q 2591 3584 2966 3190 
Q 3341 2797 3341 1997 
z
" id="DejaVuSans-61" transform="scale(0.015625)"/>
       <path d="M 603 3500 
L 1178 3500 
L 1178 0 
L 603 0 
L 603 3500 
z
M 603 4863 
L 1178 4863 
L 1178 4134 
L 603 4134 
L 603 4863 
z
" id="DejaVuSans-69" transform="scale(0.015625)"/>
       <path d="M 603 4863 
L 1178 4863 
L 1178 0 
L 603 0 
L 603 4863 
z
" id="DejaVuSans-6c" transform="scale(0.015625)"/>
       <path d="M 1172 4494 
L 1172 3500 
L 2356 3500 
L 2356 3053 
L 1172 3053 
L 1172 1153 
Q 1172 725 1289 603 
Q 1406 481 1766 481 
L 2356 481 
L 2356 0 
L 1766 0 
Q 1100 0 847 248 
Q 594 497 594 1153 
L 594 3053 
L 172 3053 
L 172 3500 
L 594 3500 
L 594 4494 
L 1172 4494 
z
" id="DejaVuSans-74" transform="scale(0.015625)"/>
       <path d="M 2059 -325 
Q 1816 -950 1584 -1140 
Q 1353 -1331 966 -1331 
L 506 -1331 
L 506 -850 
L 844 -850 
Q 1081 -850 1212 -737 
Q 1344 -625 1503 -206 
L 1606 56 
L 191 3500 
L 800 3500 
L 1894 763 
L 2988 3500 
L 3597 3500 
L 2059 -325 
z
" id="DejaVuSans-79" transform="scale(0.015625)"/>
      </defs>
      <use xlink:href="#DejaVuSans-45"/>
      <use x="63.183594" xlink:href="#DejaVuSans-64"/>
      <use x="126.660156" xlink:href="#DejaVuSans-67"/>
      <use x="190.136719" xlink:href="#DejaVuSans-65"/>
      <use x="251.660156" xlink:href="#DejaVuSans-20"/>
      <use x="283.447266" xlink:href="#DejaVuSans-70"/>
      <use x="346.923828" xlink:href="#DejaVuSans-72"/>
      <use x="385.787109" xlink:href="#DejaVuSans-6f"/>
      <use x="446.96875" xlink:href="#DejaVuSans-62"/>
      <use x="510.445312" xlink:href="#DejaVuSans-61"/>
      <use x="571.724609" xlink:href="#DejaVuSans-62"/>
      <use x="635.201172" xlink:href="#DejaVuSans-69"/>
      <use x="662.984375" xlink:href="#DejaVuSans-6c"/>
      <use x="690.767578" xlink:href="#DejaVuSans-69"/>
      <use x="718.550781" xlink:href="#DejaVuSans-74"/>
      <use x="757.759766" xlink:href="#DejaVuSans-79"/>
     </g>
    </g>
   </g>
   <g id="matplotlib.axis_2">
    <g id="ytick_1">
     <g id="line2d_11">
      <path clip-path="url(#p59ac9b7961)" d="M 113.207188 976.535842 
L 1006.007187 976.535842 
" style="fill:none;stroke:#b0b0b0;stroke-linecap:square;stroke-width:0.8;"/>
     </g>
     <g id="line2d_12">
      <defs>
       <path d="M 0 0 
L -3.5 0 
" id="m37041123d5" style="stroke:#000000;stroke-width:0.8;"/>
      </defs>
      <g>
       <use style="stroke:#000000;stroke-width:0.8;" x="113.207188" xlink:href="#m37041123d5" y="976.535842"/>
      </g>
     </g>
     <g id="text_7">
      <!-- 0 -->
      <g transform="translate(87.119688 987.933498)scale(0.3 -0.3)">
       <use xlink:href="#DejaVuSans-30"/>
      </g>
     </g>
    </g>
    <g id="ytick_2">
     <g id="line2d_13">
      <path clip-path="url(#p59ac9b7961)" d="M 113.207188 826.241615 
L 1006.007187 826.241615 
" style="fill:none;stroke:#b0b0b0;stroke-linecap:square;stroke-width:0.8;"/>
     </g>
     <g id="line2d_14">
      <g>
       <use style="stroke:#000000;stroke-width:0.8;" x="113.207188" xlink:href="#m37041123d5" y="826.241615"/>
      </g>
     </g>
     <g id="text_8">
      <!-- 100 -->
      <g transform="translate(48.944688 837.639271)scale(0.3 -0.3)">
       <use xlink:href="#DejaVuSans-31"/>
       <use x="63.623047" xlink:href="#DejaVuSans-30"/>
       <use x="127.246094" xlink:href="#DejaVuSans-30"/>
      </g>
     </g>
    </g>
    <g id="ytick_3">
     <g id="line2d_15">
      <path clip-path="url(#p59ac9b7961)" d="M 113.207188 675.947388 
L 1006.007187 675.947388 
" style="fill:none;stroke:#b0b0b0;stroke-linecap:square;stroke-width:0.8;"/>
     </g>
     <g id="line2d_16">
      <g>
       <use style="stroke:#000000;stroke-width:0.8;" x="113.207188" xlink:href="#m37041123d5" y="675.947388"/>
      </g>
     </g>
     <g id="text_9">
      <!-- 200 -->
      <g transform="translate(48.944688 687.345044)scale(0.3 -0.3)">
       <use xlink:href="#DejaVuSans-32"/>
       <use x="63.623047" xlink:href="#DejaVuSans-30"/>
       <use x="127.246094" xlink:href="#DejaVuSans-30"/>
      </g>
     </g>
    </g>
    <g id="ytick_4">
     <g id="line2d_17">
      <path clip-path="url(#p59ac9b7961)" d="M 113.207188 525.653161 
L 1006.007187 525.653161 
" style="fill:none;stroke:#b0b0b0;stroke-linecap:square;stroke-width:0.8;"/>
     </g>
     <g id="line2d_18">
      <g>
       <use style="stroke:#000000;stroke-width:0.8;" x="113.207188" xlink:href="#m37041123d5" y="525.653161"/>
      </g>
     </g>
     <g id="text_10">
      <!-- 300 -->
      <g transform="translate(48.944688 537.050817)scale(0.3 -0.3)">
       <defs>
        <path d="M 2597 2516 
Q 3050 2419 3304 2112 
Q 3559 1806 3559 1356 
Q 3559 666 3084 287 
Q 2609 -91 1734 -91 
Q 1441 -91 1130 -33 
Q 819 25 488 141 
L 488 750 
Q 750 597 1062 519 
Q 1375 441 1716 441 
Q 2309 441 2620 675 
Q 2931 909 2931 1356 
Q 2931 1769 2642 2001 
Q 2353 2234 1838 2234 
L 1294 2234 
L 1294 2753 
L 1863 2753 
Q 2328 2753 2575 2939 
Q 2822 3125 2822 3475 
Q 2822 3834 2567 4026 
Q 2313 4219 1838 4219 
Q 1578 4219 1281 4162 
Q 984 4106 628 3988 
L 628 4550 
Q 988 4650 1302 4700 
Q 1616 4750 1894 4750 
Q 2613 4750 3031 4423 
Q 3450 4097 3450 3541 
Q 3450 3153 3228 2886 
Q 3006 2619 2597 2516 
z
" id="DejaVuSans-33" transform="scale(0.015625)"/>
       </defs>
       <use xlink:href="#DejaVuSans-33"/>
       <use x="63.623047" xlink:href="#DejaVuSans-30"/>
       <use x="127.246094" xlink:href="#DejaVuSans-30"/>
      </g>
     </g>
    </g>
    <g id="ytick_5">
     <g id="line2d_19">
      <path clip-path="url(#p59ac9b7961)" d="M 113.207188 375.358934 
L 1006.007187 375.358934 
" style="fill:none;stroke:#b0b0b0;stroke-linecap:square;stroke-width:0.8;"/>
     </g>
     <g id="line2d_20">
      <g>
       <use style="stroke:#000000;stroke-width:0.8;" x="113.207188" xlink:href="#m37041123d5" y="375.358934"/>
      </g>
     </g>
     <g id="text_11">
      <!-- 400 -->
      <g transform="translate(48.944688 386.756591)scale(0.3 -0.3)">
       <use xlink:href="#DejaVuSans-34"/>
       <use x="63.623047" xlink:href="#DejaVuSans-30"/>
       <use x="127.246094" xlink:href="#DejaVuSans-30"/>
      </g>
     </g>
    </g>
    <g id="ytick_6">
     <g id="line2d_21">
      <path clip-path="url(#p59ac9b7961)" d="M 113.207188 225.064708 
L 1006.007187 225.064708 
" style="fill:none;stroke:#b0b0b0;stroke-linecap:square;stroke-width:0.8;"/>
     </g>
     <g id="line2d_22">
      <g>
       <use style="stroke:#000000;stroke-width:0.8;" x="113.207188" xlink:href="#m37041123d5" y="225.064708"/>
      </g>
     </g>
     <g id="text_12">
      <!-- 500 -->
      <g transform="translate(48.944688 236.462364)scale(0.3 -0.3)">
       <defs>
        <path d="M 691 4666 
L 3169 4666 
L 3169 4134 
L 1269 4134 
L 1269 2991 
Q 1406 3038 1543 3061 
Q 1681 3084 1819 3084 
Q 2600 3084 3056 2656 
Q 3513 2228 3513 1497 
Q 3513 744 3044 326 
Q 2575 -91 1722 -91 
Q 1428 -91 1123 -41 
Q 819 9 494 109 
L 494 744 
Q 775 591 1075 516 
Q 1375 441 1709 441 
Q 2250 441 2565 725 
Q 2881 1009 2881 1497 
Q 2881 1984 2565 2268 
Q 2250 2553 1709 2553 
Q 1456 2553 1204 2497 
Q 953 2441 691 2322 
L 691 4666 
z
" id="DejaVuSans-35" transform="scale(0.015625)"/>
       </defs>
       <use xlink:href="#DejaVuSans-35"/>
       <use x="63.623047" xlink:href="#DejaVuSans-30"/>
       <use x="127.246094" xlink:href="#DejaVuSans-30"/>
      </g>
     </g>
    </g>
    <g id="ytick_7">
     <g id="line2d_23">
      <path clip-path="url(#p59ac9b7961)" d="M 113.207188 74.770481 
L 1006.007187 74.770481 
" style="fill:none;stroke:#b0b0b0;stroke-linecap:square;stroke-width:0.8;"/>
     </g>
     <g id="line2d_24">
      <g>
       <use style="stroke:#000000;stroke-width:0.8;" x="113.207188" xlink:href="#m37041123d5" y="74.770481"/>
      </g>
     </g>
     <g id="text_13">
      <!-- 600 -->
      <g transform="translate(48.944688 86.168137)scale(0.3 -0.3)">
       <use xlink:href="#DejaVuSans-36"/>
       <use x="63.623047" xlink:href="#DejaVuSans-30"/>
       <use x="127.246094" xlink:href="#DejaVuSans-30"/>
      </g>
     </g>
    </g>
    <g id="text_14">
     <!-- Avg. number of comparisons / size -->
     <g transform="translate(36.833906 842.754375)rotate(-90)scale(0.39 -0.39)">
      <defs>
       <path d="M 2188 4044 
L 1331 1722 
L 3047 1722 
L 2188 4044 
z
M 1831 4666 
L 2547 4666 
L 4325 0 
L 3669 0 
L 3244 1197 
L 1141 1197 
L 716 0 
L 50 0 
L 1831 4666 
z
" id="DejaVuSans-41" transform="scale(0.015625)"/>
       <path d="M 191 3500 
L 800 3500 
L 1894 563 
L 2988 3500 
L 3597 3500 
L 2284 0 
L 1503 0 
L 191 3500 
z
" id="DejaVuSans-76" transform="scale(0.015625)"/>
       <path d="M 684 794 
L 1344 794 
L 1344 0 
L 684 0 
L 684 794 
z
" id="DejaVuSans-2e" transform="scale(0.015625)"/>
       <path d="M 3513 2113 
L 3513 0 
L 2938 0 
L 2938 2094 
Q 2938 2591 2744 2837 
Q 2550 3084 2163 3084 
Q 1697 3084 1428 2787 
Q 1159 2491 1159 1978 
L 1159 0 
L 581 0 
L 581 3500 
L 1159 3500 
L 1159 2956 
Q 1366 3272 1645 3428 
Q 1925 3584 2291 3584 
Q 2894 3584 3203 3211 
Q 3513 2838 3513 2113 
z
" id="DejaVuSans-6e" transform="scale(0.015625)"/>
       <path d="M 544 1381 
L 544 3500 
L 1119 3500 
L 1119 1403 
Q 1119 906 1312 657 
Q 1506 409 1894 409 
Q 2359 409 2629 706 
Q 2900 1003 2900 1516 
L 2900 3500 
L 3475 3500 
L 3475 0 
L 2900 0 
L 2900 538 
Q 2691 219 2414 64 
Q 2138 -91 1772 -91 
Q 1169 -91 856 284 
Q 544 659 544 1381 
z
M 1991 3584 
L 1991 3584 
z
" id="DejaVuSans-75" transform="scale(0.015625)"/>
       <path d="M 3328 2828 
Q 3544 3216 3844 3400 
Q 4144 3584 4550 3584 
Q 5097 3584 5394 3201 
Q 5691 2819 5691 2113 
L 5691 0 
L 5113 0 
L 5113 2094 
Q 5113 2597 4934 2840 
Q 4756 3084 4391 3084 
Q 3944 3084 3684 2787 
Q 3425 2491 3425 1978 
L 3425 0 
L 2847 0 
L 2847 2094 
Q 2847 2600 2669 2842 
Q 2491 3084 2119 3084 
Q 1678 3084 1418 2786 
Q 1159 2488 1159 1978 
L 1159 0 
L 581 0 
L 581 3500 
L 1159 3500 
L 1159 2956 
Q 1356 3278 1631 3431 
Q 1906 3584 2284 3584 
Q 2666 3584 2933 3390 
Q 3200 3197 3328 2828 
z
" id="DejaVuSans-6d" transform="scale(0.015625)"/>
       <path d="M 2375 4863 
L 2375 4384 
L 1825 4384 
Q 1516 4384 1395 4259 
Q 1275 4134 1275 3809 
L 1275 3500 
L 2222 3500 
L 2222 3053 
L 1275 3053 
L 1275 0 
L 697 0 
L 697 3053 
L 147 3053 
L 147 3500 
L 697 3500 
L 697 3744 
Q 697 4328 969 4595 
Q 1241 4863 1831 4863 
L 2375 4863 
z
" id="DejaVuSans-66" transform="scale(0.015625)"/>
       <path d="M 3122 3366 
L 3122 2828 
Q 2878 2963 2633 3030 
Q 2388 3097 2138 3097 
Q 1578 3097 1268 2742 
Q 959 2388 959 1747 
Q 959 1106 1268 751 
Q 1578 397 2138 397 
Q 2388 397 2633 464 
Q 2878 531 3122 666 
L 3122 134 
Q 2881 22 2623 -34 
Q 2366 -91 2075 -91 
Q 1284 -91 818 406 
Q 353 903 353 1747 
Q 353 2603 823 3093 
Q 1294 3584 2113 3584 
Q 2378 3584 2631 3529 
Q 2884 3475 3122 3366 
z
" id="DejaVuSans-63" transform="scale(0.015625)"/>
       <path d="M 2834 3397 
L 2834 2853 
Q 2591 2978 2328 3040 
Q 2066 3103 1784 3103 
Q 1356 3103 1142 2972 
Q 928 2841 928 2578 
Q 928 2378 1081 2264 
Q 1234 2150 1697 2047 
L 1894 2003 
Q 2506 1872 2764 1633 
Q 3022 1394 3022 966 
Q 3022 478 2636 193 
Q 2250 -91 1575 -91 
Q 1294 -91 989 -36 
Q 684 19 347 128 
L 347 722 
Q 666 556 975 473 
Q 1284 391 1588 391 
Q 1994 391 2212 530 
Q 2431 669 2431 922 
Q 2431 1156 2273 1281 
Q 2116 1406 1581 1522 
L 1381 1569 
Q 847 1681 609 1914 
Q 372 2147 372 2553 
Q 372 3047 722 3315 
Q 1072 3584 1716 3584 
Q 2034 3584 2315 3537 
Q 2597 3491 2834 3397 
z
" id="DejaVuSans-73" transform="scale(0.015625)"/>
       <path d="M 1625 4666 
L 2156 4666 
L 531 -594 
L 0 -594 
L 1625 4666 
z
" id="DejaVuSans-2f" transform="scale(0.015625)"/>
       <path d="M 353 3500 
L 3084 3500 
L 3084 2975 
L 922 459 
L 3084 459 
L 3084 0 
L 275 0 
L 275 525 
L 2438 3041 
L 353 3041 
L 353 3500 
z
" id="DejaVuSans-7a" transform="scale(0.015625)"/>
      </defs>
      <use xlink:href="#DejaVuSans-41"/>
      <use x="62.533203" xlink:href="#DejaVuSans-76"/>
      <use x="121.712891" xlink:href="#DejaVuSans-67"/>
      <use x="185.189453" xlink:href="#DejaVuSans-2e"/>
      <use x="216.976562" xlink:href="#DejaVuSans-20"/>
      <use x="248.763672" xlink:href="#DejaVuSans-6e"/>
      <use x="312.142578" xlink:href="#DejaVuSans-75"/>
      <use x="375.521484" xlink:href="#DejaVuSans-6d"/>
      <use x="472.933594" xlink:href="#DejaVuSans-62"/>
      <use x="536.410156" xlink:href="#DejaVuSans-65"/>
      <use x="597.933594" xlink:href="#DejaVuSans-72"/>
      <use x="639.046875" xlink:href="#DejaVuSans-20"/>
      <use x="670.833984" xlink:href="#DejaVuSans-6f"/>
      <use x="732.015625" xlink:href="#DejaVuSans-66"/>
      <use x="767.220703" xlink:href="#DejaVuSans-20"/>
      <use x="799.007812" xlink:href="#DejaVuSans-63"/>
      <use x="853.988281" xlink:href="#DejaVuSans-6f"/>
      <use x="915.169922" xlink:href="#DejaVuSans-6d"/>
      <use x="1012.582031" xlink:href="#DejaVuSans-70"/>
      <use x="1076.058594" xlink:href="#DejaVuSans-61"/>
      <use x="1137.337891" xlink:href="#DejaVuSans-72"/>
      <use x="1178.451172" xlink:href="#DejaVuSans-69"/>
      <use x="1206.234375" xlink:href="#DejaVuSans-73"/>
      <use x="1258.333984" xlink:href="#DejaVuSans-6f"/>
      <use x="1319.515625" xlink:href="#DejaVuSans-6e"/>
      <use x="1382.894531" xlink:href="#DejaVuSans-73"/>
      <use x="1434.994141" xlink:href="#DejaVuSans-20"/>
      <use x="1466.78125" xlink:href="#DejaVuSans-2f"/>
      <use x="1500.472656" xlink:href="#DejaVuSans-20"/>
      <use x="1532.259766" xlink:href="#DejaVuSans-73"/>
      <use x="1584.359375" xlink:href="#DejaVuSans-69"/>
      <use x="1612.142578" xlink:href="#DejaVuSans-7a"/>
      <use x="1664.632812" xlink:href="#DejaVuSans-65"/>
     </g>
    </g>
   </g>
   <g id="line2d_25">
    <path clip-path="url(#p59ac9b7961)" d="M 153.789006 959.278157 
L 196.506709 939.606145 
L 239.224412 917.094475 
L 281.942116 894.592123 
L 324.659819 870.950841 
L 367.377522 847.121992 
L 410.095226 821.730383 
L 452.812929 796.79627 
L 495.530632 773.149277 
L 538.248336 748.004152 
L 580.966039 721.653666 
L 623.683743 694.950891 
L 666.401446 670.468562 
L 709.119149 643.498263 
L 751.836853 618.776666 
L 794.554556 591.293263 
L 837.272259 561.61346 
L 879.989963 531.224568 
L 922.707666 504.246153 
L 965.425369 480.460288 
" style="fill:none;stroke:#fe0002;stroke-linecap:square;stroke-width:1.5;"/>
    <defs>
     <path d="M 0 4.5 
C 1.193414 4.5 2.338109 4.025852 3.181981 3.181981 
C 4.025852 2.338109 4.5 1.193414 4.5 0 
C 4.5 -1.193414 4.025852 -2.338109 3.181981 -3.181981 
C 2.338109 -4.025852 1.193414 -4.5 0 -4.5 
C -1.193414 -4.5 -2.338109 -4.025852 -3.181981 -3.181981 
C -4.025852 -2.338109 -4.5 -1.193414 -4.5 0 
C -4.5 1.193414 -4.025852 2.338109 -3.181981 3.181981 
C -2.338109 4.025852 -1.193414 4.5 0 4.5 
z
" id="mba1891f438" style="stroke:#000000;"/>
    </defs>
    <g clip-path="url(#p59ac9b7961)">
     <use style="fill:#fe0002;stroke:#000000;" x="153.789006" xlink:href="#mba1891f438" y="959.278157"/>
     <use style="fill:#fe0002;stroke:#000000;" x="196.506709" xlink:href="#mba1891f438" y="939.606145"/>
     <use style="fill:#fe0002;stroke:#000000;" x="239.224412" xlink:href="#mba1891f438" y="917.094475"/>
     <use style="fill:#fe0002;stroke:#000000;" x="281.942116" xlink:href="#mba1891f438" y="894.592123"/>
     <use style="fill:#fe0002;stroke:#000000;" x="324.659819" xlink:href="#mba1891f438" y="870.950841"/>
     <use style="fill:#fe0002;stroke:#000000;" x="367.377522" xlink:href="#mba1891f438" y="847.121992"/>
     <use style="fill:#fe0002;stroke:#000000;" x="410.095226" xlink:href="#mba1891f438" y="821.730383"/>
     <use style="fill:#fe0002;stroke:#000000;" x="452.812929" xlink:href="#mba1891f438" y="796.79627"/>
     <use style="fill:#fe0002;stroke:#000000;" x="495.530632" xlink:href="#mba1891f438" y="773.149277"/>
     <use style="fill:#fe0002;stroke:#000000;" x="538.248336" xlink:href="#mba1891f438" y="748.004152"/>
     <use style="fill:#fe0002;stroke:#000000;" x="580.966039" xlink:href="#mba1891f438" y="721.653666"/>
     <use style="fill:#fe0002;stroke:#000000;" x="623.683743" xlink:href="#mba1891f438" y="694.950891"/>
     <use style="fill:#fe0002;stroke:#000000;" x="666.401446" xlink:href="#mba1891f438" y="670.468562"/>
     <use style="fill:#fe0002;stroke:#000000;" x="709.119149" xlink:href="#mba1891f438" y="643.498263"/>
     <use style="fill:#fe0002;stroke:#000000;" x="751.836853" xlink:href="#mba1891f438" y="618.776666"/>
     <use style="fill:#fe0002;stroke:#000000;" x="794.554556" xlink:href="#mba1891f438" y="591.293263"/>
     <use style="fill:#fe0002;stroke:#000000;" x="837.272259" xlink:href="#mba1891f438" y="561.61346"/>
     <use style="fill:#fe0002;stroke:#000000;" x="879.989963" xlink:href="#mba1891f438" y="531.224568"/>
     <use style="fill:#fe0002;stroke:#000000;" x="922.707666" xlink:href="#mba1891f438" y="504.246153"/>
     <use style="fill:#fe0002;stroke:#000000;" x="965.425369" xlink:href="#mba1891f438" y="480.460288"/>
    </g>
   </g>
   <g id="line2d_26">
    <path clip-path="url(#p59ac9b7961)" d="M 153.789006 955.313996 
L 196.506709 927.448845 
L 239.224412 899.221185 
L 281.942116 868.280413 
L 324.659819 837.22662 
L 367.377522 803.764211 
L 410.095226 772.063552 
L 452.812929 739.502007 
L 495.530632 704.336465 
L 538.248336 669.566196 
L 580.966039 635.261839 
L 623.683743 600.560104 
L 666.401446 563.510774 
L 709.119149 527.431743 
L 751.836853 490.78971 
L 794.554556 455.168475 
L 837.272259 422.369466 
L 879.989963 388.543045 
L 922.707666 350.30639 
L 965.425369 309.859207 
" style="fill:none;stroke:#53fca1;stroke-linecap:square;stroke-width:1.5;"/>
    <defs>
     <path d="M 0 -4.5 
L -4.5 4.5 
L 4.5 4.5 
z
" id="me6acdffe18" style="stroke:#000000;stroke-linejoin:miter;"/>
    </defs>
    <g clip-path="url(#p59ac9b7961)">
     <use style="fill:#53fca1;stroke:#000000;stroke-linejoin:miter;" x="153.789006" xlink:href="#me6acdffe18" y="955.313996"/>
     <use style="fill:#53fca1;stroke:#000000;stroke-linejoin:miter;" x="196.506709" xlink:href="#me6acdffe18" y="927.448845"/>
     <use style="fill:#53fca1;stroke:#000000;stroke-linejoin:miter;" x="239.224412" xlink:href="#me6acdffe18" y="899.221185"/>
     <use style="fill:#53fca1;stroke:#000000;stroke-linejoin:miter;" x="281.942116" xlink:href="#me6acdffe18" y="868.280413"/>
     <use style="fill:#53fca1;stroke:#000000;stroke-linejoin:miter;" x="324.659819" xlink:href="#me6acdffe18" y="837.22662"/>
     <use style="fill:#53fca1;stroke:#000000;stroke-linejoin:miter;" x="367.377522" xlink:href="#me6acdffe18" y="803.764211"/>
     <use style="fill:#53fca1;stroke:#000000;stroke-linejoin:miter;" x="410.095226" xlink:href="#me6acdffe18" y="772.063552"/>
     <use style="fill:#53fca1;stroke:#000000;stroke-linejoin:miter;" x="452.812929" xlink:href="#me6acdffe18" y="739.502007"/>
     <use style="fill:#53fca1;stroke:#000000;stroke-linejoin:miter;" x="495.530632" xlink:href="#me6acdffe18" y="704.336465"/>
     <use style="fill:#53fca1;stroke:#000000;stroke-linejoin:miter;" x="538.248336" xlink:href="#me6acdffe18" y="669.566196"/>
     <use style="fill:#53fca1;stroke:#000000;stroke-linejoin:miter;" x="580.966039" xlink:href="#me6acdffe18" y="635.261839"/>
     <use style="fill:#53fca1;stroke:#000000;stroke-linejoin:miter;" x="623.683743" xlink:href="#me6acdffe18" y="600.560104"/>
     <use style="fill:#53fca1;stroke:#000000;stroke-linejoin:miter;" x="666.401446" xlink:href="#me6acdffe18" y="563.510774"/>
     <use style="fill:#53fca1;stroke:#000000;stroke-linejoin:miter;" x="709.119149" xlink:href="#me6acdffe18" y="527.431743"/>
     <use style="fill:#53fca1;stroke:#000000;stroke-linejoin:miter;" x="751.836853" xlink:href="#me6acdffe18" y="490.78971"/>
     <use style="fill:#53fca1;stroke:#000000;stroke-linejoin:miter;" x="794.554556" xlink:href="#me6acdffe18" y="455.168475"/>
     <use style="fill:#53fca1;stroke:#000000;stroke-linejoin:miter;" x="837.272259" xlink:href="#me6acdffe18" y="422.369466"/>
     <use style="fill:#53fca1;stroke:#000000;stroke-linejoin:miter;" x="879.989963" xlink:href="#me6acdffe18" y="388.543045"/>
     <use style="fill:#53fca1;stroke:#000000;stroke-linejoin:miter;" x="922.707666" xlink:href="#me6acdffe18" y="350.30639"/>
     <use style="fill:#53fca1;stroke:#000000;stroke-linejoin:miter;" x="965.425369" xlink:href="#me6acdffe18" y="309.859207"/>
    </g>
   </g>
   <g id="line2d_27">
    <path clip-path="url(#p59ac9b7961)" d="M 153.789006 954.38638 
L 196.506709 925.270481 
L 239.224412 895.32616 
L 281.942116 862.264436 
L 324.659819 829.142594 
L 367.377522 792.984508 
L 410.095226 759.065506 
L 452.812929 723.561501 
L 495.530632 685.353702 
L 538.248336 647.794875 
L 580.966039 610.328929 
L 623.683743 572.09047 
L 666.401446 531.21014 
L 709.119149 492.334133 
L 751.836853 452.99492 
L 794.554556 411.601185 
L 837.272259 376.345165 
L 879.989963 338.512201 
L 922.707666 297.100129 
L 965.425369 252.172075 
" style="fill:none;stroke:#0652ff;stroke-linecap:square;stroke-width:1.5;"/>
    <defs>
     <path d="M 0 -4.5 
L -4.279754 -1.390576 
L -2.645034 3.640576 
L 2.645034 3.640576 
L 4.279754 -1.390576 
z
" id="mccbf8982c7" style="stroke:#000000;stroke-linejoin:miter;"/>
    </defs>
    <g clip-path="url(#p59ac9b7961)">
     <use style="fill:#0652ff;stroke:#000000;stroke-linejoin:miter;" x="153.789006" xlink:href="#mccbf8982c7" y="954.38638"/>
     <use style="fill:#0652ff;stroke:#000000;stroke-linejoin:miter;" x="196.506709" xlink:href="#mccbf8982c7" y="925.270481"/>
     <use style="fill:#0652ff;stroke:#000000;stroke-linejoin:miter;" x="239.224412" xlink:href="#mccbf8982c7" y="895.32616"/>
     <use style="fill:#0652ff;stroke:#000000;stroke-linejoin:miter;" x="281.942116" xlink:href="#mccbf8982c7" y="862.264436"/>
     <use style="fill:#0652ff;stroke:#000000;stroke-linejoin:miter;" x="324.659819" xlink:href="#mccbf8982c7" y="829.142594"/>
     <use style="fill:#0652ff;stroke:#000000;stroke-linejoin:miter;" x="367.377522" xlink:href="#mccbf8982c7" y="792.984508"/>
     <use style="fill:#0652ff;stroke:#000000;stroke-linejoin:miter;" x="410.095226" xlink:href="#mccbf8982c7" y="759.065506"/>
     <use style="fill:#0652ff;stroke:#000000;stroke-linejoin:miter;" x="452.812929" xlink:href="#mccbf8982c7" y="723.561501"/>
     <use style="fill:#0652ff;stroke:#000000;stroke-linejoin:miter;" x="495.530632" xlink:href="#mccbf8982c7" y="685.353702"/>
     <use style="fill:#0652ff;stroke:#000000;stroke-linejoin:miter;" x="538.248336" xlink:href="#mccbf8982c7" y="647.794875"/>
     <use style="fill:#0652ff;stroke:#000000;stroke-linejoin:miter;" x="580.966039" xlink:href="#mccbf8982c7" y="610.328929"/>
     <use style="fill:#0652ff;stroke:#000000;stroke-linejoin:miter;" x="623.683743" xlink:href="#mccbf8982c7" y="572.09047"/>
     <use style="fill:#0652ff;stroke:#000000;stroke-linejoin:miter;" x="666.401446" xlink:href="#mccbf8982c7" y="531.21014"/>
     <use style="fill:#0652ff;stroke:#000000;stroke-linejoin:miter;" x="709.119149" xlink:href="#mccbf8982c7" y="492.334133"/>
     <use style="fill:#0652ff;stroke:#000000;stroke-linejoin:miter;" x="751.836853" xlink:href="#mccbf8982c7" y="452.99492"/>
     <use style="fill:#0652ff;stroke:#000000;stroke-linejoin:miter;" x="794.554556" xlink:href="#mccbf8982c7" y="411.601185"/>
     <use style="fill:#0652ff;stroke:#000000;stroke-linejoin:miter;" x="837.272259" xlink:href="#mccbf8982c7" y="376.345165"/>
     <use style="fill:#0652ff;stroke:#000000;stroke-linejoin:miter;" x="879.989963" xlink:href="#mccbf8982c7" y="338.512201"/>
     <use style="fill:#0652ff;stroke:#000000;stroke-linejoin:miter;" x="922.707666" xlink:href="#mccbf8982c7" y="297.100129"/>
     <use style="fill:#0652ff;stroke:#000000;stroke-linejoin:miter;" x="965.425369" xlink:href="#mccbf8982c7" y="252.172075"/>
    </g>
   </g>
   <g id="line2d_28">
    <path clip-path="url(#p59ac9b7961)" d="M 153.789006 949.555623 
L 196.506709 914.408116 
L 239.224412 876.359629 
L 281.942116 835.047654 
L 324.659819 792.973988 
L 367.377522 748.360048 
L 410.095226 704.200899 
L 452.812929 657.798458 
L 495.530632 611.081301 
L 538.248336 563.365289 
L 580.966039 515.737049 
L 623.683743 465.444392 
L 666.401446 416.667002 
L 709.119149 366.370438 
L 751.836853 315.570388 
L 794.554556 263.783506 
L 837.272259 213.321619 
L 879.989963 161.062212 
L 922.707666 109.075138 
L 965.425369 55.787118 
" style="fill:none;stroke:#ae7181;stroke-linecap:square;stroke-width:1.5;"/>
    <defs>
     <path d="M -4.5 4.5 
L 4.5 4.5 
L 4.5 -4.5 
L -4.5 -4.5 
z
" id="ma259c822b8" style="stroke:#000000;stroke-linejoin:miter;"/>
    </defs>
    <g clip-path="url(#p59ac9b7961)">
     <use style="fill:#ae7181;stroke:#000000;stroke-linejoin:miter;" x="153.789006" xlink:href="#ma259c822b8" y="949.555623"/>
     <use style="fill:#ae7181;stroke:#000000;stroke-linejoin:miter;" x="196.506709" xlink:href="#ma259c822b8" y="914.408116"/>
     <use style="fill:#ae7181;stroke:#000000;stroke-linejoin:miter;" x="239.224412" xlink:href="#ma259c822b8" y="876.359629"/>
     <use style="fill:#ae7181;stroke:#000000;stroke-linejoin:miter;" x="281.942116" xlink:href="#ma259c822b8" y="835.047654"/>
     <use style="fill:#ae7181;stroke:#000000;stroke-linejoin:miter;" x="324.659819" xlink:href="#ma259c822b8" y="792.973988"/>
     <use style="fill:#ae7181;stroke:#000000;stroke-linejoin:miter;" x="367.377522" xlink:href="#ma259c822b8" y="748.360048"/>
     <use style="fill:#ae7181;stroke:#000000;stroke-linejoin:miter;" x="410.095226" xlink:href="#ma259c822b8" y="704.200899"/>
     <use style="fill:#ae7181;stroke:#000000;stroke-linejoin:miter;" x="452.812929" xlink:href="#ma259c822b8" y="657.798458"/>
     <use style="fill:#ae7181;stroke:#000000;stroke-linejoin:miter;" x="495.530632" xlink:href="#ma259c822b8" y="611.081301"/>
     <use style="fill:#ae7181;stroke:#000000;stroke-linejoin:miter;" x="538.248336" xlink:href="#ma259c822b8" y="563.365289"/>
     <use style="fill:#ae7181;stroke:#000000;stroke-linejoin:miter;" x="580.966039" xlink:href="#ma259c822b8" y="515.737049"/>
     <use style="fill:#ae7181;stroke:#000000;stroke-linejoin:miter;" x="623.683743" xlink:href="#ma259c822b8" y="465.444392"/>
     <use style="fill:#ae7181;stroke:#000000;stroke-linejoin:miter;" x="666.401446" xlink:href="#ma259c822b8" y="416.667002"/>
     <use style="fill:#ae7181;stroke:#000000;stroke-linejoin:miter;" x="709.119149" xlink:href="#ma259c822b8" y="366.370438"/>
     <use style="fill:#ae7181;stroke:#000000;stroke-linejoin:miter;" x="751.836853" xlink:href="#ma259c822b8" y="315.570388"/>
     <use style="fill:#ae7181;stroke:#000000;stroke-linejoin:miter;" x="794.554556" xlink:href="#ma259c822b8" y="263.783506"/>
     <use style="fill:#ae7181;stroke:#000000;stroke-linejoin:miter;" x="837.272259" xlink:href="#ma259c822b8" y="213.321619"/>
     <use style="fill:#ae7181;stroke:#000000;stroke-linejoin:miter;" x="879.989963" xlink:href="#ma259c822b8" y="161.062212"/>
     <use style="fill:#ae7181;stroke:#000000;stroke-linejoin:miter;" x="922.707666" xlink:href="#ma259c822b8" y="109.075138"/>
     <use style="fill:#ae7181;stroke:#000000;stroke-linejoin:miter;" x="965.425369" xlink:href="#ma259c822b8" y="55.787118"/>
    </g>
   </g>
   <g id="line2d_29">
    <path clip-path="url(#p59ac9b7961)" d="M 153.789006 955.597451 
L 196.506709 928.03379 
L 239.224412 898.952759 
L 281.942116 867.604089 
L 324.659819 835.799726 
L 367.377522 802.028614 
L 410.095226 769.139728 
L 452.812929 735.139266 
L 495.530632 699.202113 
L 538.248336 663.574867 
L 580.966039 627.754943 
L 623.683743 591.083452 
L 666.401446 554.07891 
L 709.119149 516.628293 
L 751.836853 478.95404 
L 794.554556 440.723096 
L 837.272259 405.526593 
L 879.989963 368.503414 
L 922.707666 329.107088 
L 965.425369 288.360821 
" style="fill:none;stroke:#ff81c0;stroke-linecap:square;stroke-width:1.5;"/>
    <defs>
     <path d="M 0 2.25 
C 0.596707 2.25 1.169055 2.012926 1.59099 1.59099 
C 2.012926 1.169055 2.25 0.596707 2.25 0 
C 2.25 -0.596707 2.012926 -1.169055 1.59099 -1.59099 
C 1.169055 -2.012926 0.596707 -2.25 0 -2.25 
C -0.596707 -2.25 -1.169055 -2.012926 -1.59099 -1.59099 
C -2.012926 -1.169055 -2.25 -0.596707 -2.25 0 
C -2.25 0.596707 -2.012926 1.169055 -1.59099 1.59099 
C -1.169055 2.012926 -0.596707 2.25 0 2.25 
z
" id="m6001c13170" style="stroke:#000000;"/>
    </defs>
    <g clip-path="url(#p59ac9b7961)">
     <use style="fill:#ff81c0;stroke:#000000;" x="153.789006" xlink:href="#m6001c13170" y="955.597451"/>
     <use style="fill:#ff81c0;stroke:#000000;" x="196.506709" xlink:href="#m6001c13170" y="928.03379"/>
     <use style="fill:#ff81c0;stroke:#000000;" x="239.224412" xlink:href="#m6001c13170" y="898.952759"/>
     <use style="fill:#ff81c0;stroke:#000000;" x="281.942116" xlink:href="#m6001c13170" y="867.604089"/>
     <use style="fill:#ff81c0;stroke:#000000;" x="324.659819" xlink:href="#m6001c13170" y="835.799726"/>
     <use style="fill:#ff81c0;stroke:#000000;" x="367.377522" xlink:href="#m6001c13170" y="802.028614"/>
     <use style="fill:#ff81c0;stroke:#000000;" x="410.095226" xlink:href="#m6001c13170" y="769.139728"/>
     <use style="fill:#ff81c0;stroke:#000000;" x="452.812929" xlink:href="#m6001c13170" y="735.139266"/>
     <use style="fill:#ff81c0;stroke:#000000;" x="495.530632" xlink:href="#m6001c13170" y="699.202113"/>
     <use style="fill:#ff81c0;stroke:#000000;" x="538.248336" xlink:href="#m6001c13170" y="663.574867"/>
     <use style="fill:#ff81c0;stroke:#000000;" x="580.966039" xlink:href="#m6001c13170" y="627.754943"/>
     <use style="fill:#ff81c0;stroke:#000000;" x="623.683743" xlink:href="#m6001c13170" y="591.083452"/>
     <use style="fill:#ff81c0;stroke:#000000;" x="666.401446" xlink:href="#m6001c13170" y="554.07891"/>
     <use style="fill:#ff81c0;stroke:#000000;" x="709.119149" xlink:href="#m6001c13170" y="516.628293"/>
     <use style="fill:#ff81c0;stroke:#000000;" x="751.836853" xlink:href="#m6001c13170" y="478.95404"/>
     <use style="fill:#ff81c0;stroke:#000000;" x="794.554556" xlink:href="#m6001c13170" y="440.723096"/>
     <use style="fill:#ff81c0;stroke:#000000;" x="837.272259" xlink:href="#m6001c13170" y="405.526593"/>
     <use style="fill:#ff81c0;stroke:#000000;" x="879.989963" xlink:href="#m6001c13170" y="368.503414"/>
     <use style="fill:#ff81c0;stroke:#000000;" x="922.707666" xlink:href="#m6001c13170" y="329.107088"/>
     <use style="fill:#ff81c0;stroke:#000000;" x="965.425369" xlink:href="#m6001c13170" y="288.360821"/>
    </g>
   </g>
   <g id="line2d_30">
    <path clip-path="url(#p59ac9b7961)" d="M 153.789006 955.86257 
L 196.506709 929.170315 
L 239.224412 900.326148 
L 281.942116 870.03104 
L 324.659819 838.327375 
L 367.377522 805.470351 
L 410.095226 772.879349 
L 452.812929 739.088397 
L 495.530632 704.069843 
L 538.248336 669.109602 
L 580.966039 633.394584 
L 623.683743 598.393463 
L 666.401446 560.854173 
L 709.119149 523.828289 
L 751.836853 487.667197 
L 794.554556 449.876916 
L 837.272259 414.490742 
L 879.989963 378.042889 
L 922.707666 339.697421 
L 965.425369 299.259857 
" style="fill:none;stroke:#f97306;stroke-linecap:square;stroke-width:1.5;"/>
    <defs>
     <path d="M 4.5 0 
L -4.5 -4.5 
L -4.5 4.5 
z
" id="m22f0306b57" style="stroke:#000000;stroke-linejoin:miter;"/>
    </defs>
    <g clip-path="url(#p59ac9b7961)">
     <use style="fill:#f97306;stroke:#000000;stroke-linejoin:miter;" x="153.789006" xlink:href="#m22f0306b57" y="955.86257"/>
     <use style="fill:#f97306;stroke:#000000;stroke-linejoin:miter;" x="196.506709" xlink:href="#m22f0306b57" y="929.170315"/>
     <use style="fill:#f97306;stroke:#000000;stroke-linejoin:miter;" x="239.224412" xlink:href="#m22f0306b57" y="900.326148"/>
     <use style="fill:#f97306;stroke:#000000;stroke-linejoin:miter;" x="281.942116" xlink:href="#m22f0306b57" y="870.03104"/>
     <use style="fill:#f97306;stroke:#000000;stroke-linejoin:miter;" x="324.659819" xlink:href="#m22f0306b57" y="838.327375"/>
     <use style="fill:#f97306;stroke:#000000;stroke-linejoin:miter;" x="367.377522" xlink:href="#m22f0306b57" y="805.470351"/>
     <use style="fill:#f97306;stroke:#000000;stroke-linejoin:miter;" x="410.095226" xlink:href="#m22f0306b57" y="772.879349"/>
     <use style="fill:#f97306;stroke:#000000;stroke-linejoin:miter;" x="452.812929" xlink:href="#m22f0306b57" y="739.088397"/>
     <use style="fill:#f97306;stroke:#000000;stroke-linejoin:miter;" x="495.530632" xlink:href="#m22f0306b57" y="704.069843"/>
     <use style="fill:#f97306;stroke:#000000;stroke-linejoin:miter;" x="538.248336" xlink:href="#m22f0306b57" y="669.109602"/>
     <use style="fill:#f97306;stroke:#000000;stroke-linejoin:miter;" x="580.966039" xlink:href="#m22f0306b57" y="633.394584"/>
     <use style="fill:#f97306;stroke:#000000;stroke-linejoin:miter;" x="623.683743" xlink:href="#m22f0306b57" y="598.393463"/>
     <use style="fill:#f97306;stroke:#000000;stroke-linejoin:miter;" x="666.401446" xlink:href="#m22f0306b57" y="560.854173"/>
     <use style="fill:#f97306;stroke:#000000;stroke-linejoin:miter;" x="709.119149" xlink:href="#m22f0306b57" y="523.828289"/>
     <use style="fill:#f97306;stroke:#000000;stroke-linejoin:miter;" x="751.836853" xlink:href="#m22f0306b57" y="487.667197"/>
     <use style="fill:#f97306;stroke:#000000;stroke-linejoin:miter;" x="794.554556" xlink:href="#m22f0306b57" y="449.876916"/>
     <use style="fill:#f97306;stroke:#000000;stroke-linejoin:miter;" x="837.272259" xlink:href="#m22f0306b57" y="414.490742"/>
     <use style="fill:#f97306;stroke:#000000;stroke-linejoin:miter;" x="879.989963" xlink:href="#m22f0306b57" y="378.042889"/>
     <use style="fill:#f97306;stroke:#000000;stroke-linejoin:miter;" x="922.707666" xlink:href="#m22f0306b57" y="339.697421"/>
     <use style="fill:#f97306;stroke:#000000;stroke-linejoin:miter;" x="965.425369" xlink:href="#m22f0306b57" y="299.259857"/>
    </g>
   </g>
   <g id="patch_3">
    <path d="M 113.207188 1005.12 
L 113.207188 7.2 
" style="fill:none;stroke:#000000;stroke-linecap:square;stroke-linejoin:miter;stroke-width:0.8;"/>
   </g>
   <g id="patch_4">
    <path d="M 1006.007187 1005.12 
L 1006.007187 7.2 
" style="fill:none;stroke:#000000;stroke-linecap:square;stroke-linejoin:miter;stroke-width:0.8;"/>
   </g>
   <g id="patch_5">
    <path d="M 113.207188 1005.12 
L 1006.007187 1005.12 
" style="fill:none;stroke:#000000;stroke-linecap:square;stroke-linejoin:miter;stroke-width:0.8;"/>
   </g>
   <g id="patch_6">
    <path d="M 113.207188 7.2 
L 1006.007187 7.2 
" style="fill:none;stroke:#000000;stroke-linecap:square;stroke-linejoin:miter;stroke-width:0.8;"/>
   </g>
   <g id="legend_1">
    <g id="patch_7">
     <path d="M 134.207188 295.40625 
L 658.007187 295.40625 
Q 664.007187 295.40625 664.007187 289.40625 
L 664.007187 28.2 
Q 664.007187 22.2 658.007187 22.2 
L 134.207188 22.2 
Q 128.207188 22.2 128.207188 28.2 
L 128.207188 289.40625 
Q 128.207188 295.40625 134.207188 295.40625 
z
" style="fill:#ffffff;opacity:0.8;stroke:#cccccc;stroke-linejoin:miter;"/>
    </g>
    <g id="line2d_31">
     <path d="M 140.207188 46.495313 
L 200.207188 46.495313 
" style="fill:none;stroke:#fe0002;stroke-linecap:square;stroke-width:1.5;"/>
    </g>
    <g id="line2d_32">
     <g>
      <use style="fill:#fe0002;stroke:#000000;" x="170.207188" xlink:href="#mba1891f438" y="46.495313"/>
     </g>
    </g>
    <g id="text_15">
     <!-- Pairing comparisons -->
     <g transform="translate(224.207188 56.995313)scale(0.3 -0.3)">
      <defs>
       <path d="M 1259 4147 
L 1259 2394 
L 2053 2394 
Q 2494 2394 2734 2622 
Q 2975 2850 2975 3272 
Q 2975 3691 2734 3919 
Q 2494 4147 2053 4147 
L 1259 4147 
z
M 628 4666 
L 2053 4666 
Q 2838 4666 3239 4311 
Q 3641 3956 3641 3272 
Q 3641 2581 3239 2228 
Q 2838 1875 2053 1875 
L 1259 1875 
L 1259 0 
L 628 0 
L 628 4666 
z
" id="DejaVuSans-50" transform="scale(0.015625)"/>
      </defs>
      <use xlink:href="#DejaVuSans-50"/>
      <use x="55.802734" xlink:href="#DejaVuSans-61"/>
      <use x="117.082031" xlink:href="#DejaVuSans-69"/>
      <use x="144.865234" xlink:href="#DejaVuSans-72"/>
      <use x="185.978516" xlink:href="#DejaVuSans-69"/>
      <use x="213.761719" xlink:href="#DejaVuSans-6e"/>
      <use x="277.140625" xlink:href="#DejaVuSans-67"/>
      <use x="340.617188" xlink:href="#DejaVuSans-20"/>
      <use x="372.404297" xlink:href="#DejaVuSans-63"/>
      <use x="427.384766" xlink:href="#DejaVuSans-6f"/>
      <use x="488.566406" xlink:href="#DejaVuSans-6d"/>
      <use x="585.978516" xlink:href="#DejaVuSans-70"/>
      <use x="649.455078" xlink:href="#DejaVuSans-61"/>
      <use x="710.734375" xlink:href="#DejaVuSans-72"/>
      <use x="751.847656" xlink:href="#DejaVuSans-69"/>
      <use x="779.630859" xlink:href="#DejaVuSans-73"/>
      <use x="831.730469" xlink:href="#DejaVuSans-6f"/>
      <use x="892.912109" xlink:href="#DejaVuSans-6e"/>
      <use x="956.291016" xlink:href="#DejaVuSans-73"/>
     </g>
    </g>
    <g id="line2d_33">
     <path d="M 140.207188 90.529688 
L 200.207188 90.529688 
" style="fill:none;stroke:#53fca1;stroke-linecap:square;stroke-width:1.5;"/>
    </g>
    <g id="line2d_34">
     <g>
      <use style="fill:#53fca1;stroke:#000000;stroke-linejoin:miter;" x="170.207188" xlink:href="#me6acdffe18" y="90.529688"/>
     </g>
    </g>
    <g id="text_16">
     <!-- Smooth comparisons -->
     <g transform="translate(224.207188 101.029688)scale(0.3 -0.3)">
      <defs>
       <path d="M 3425 4513 
L 3425 3897 
Q 3066 4069 2747 4153 
Q 2428 4238 2131 4238 
Q 1616 4238 1336 4038 
Q 1056 3838 1056 3469 
Q 1056 3159 1242 3001 
Q 1428 2844 1947 2747 
L 2328 2669 
Q 3034 2534 3370 2195 
Q 3706 1856 3706 1288 
Q 3706 609 3251 259 
Q 2797 -91 1919 -91 
Q 1588 -91 1214 -16 
Q 841 59 441 206 
L 441 856 
Q 825 641 1194 531 
Q 1563 422 1919 422 
Q 2459 422 2753 634 
Q 3047 847 3047 1241 
Q 3047 1584 2836 1778 
Q 2625 1972 2144 2069 
L 1759 2144 
Q 1053 2284 737 2584 
Q 422 2884 422 3419 
Q 422 4038 858 4394 
Q 1294 4750 2059 4750 
Q 2388 4750 2728 4690 
Q 3069 4631 3425 4513 
z
" id="DejaVuSans-53" transform="scale(0.015625)"/>
       <path d="M 3513 2113 
L 3513 0 
L 2938 0 
L 2938 2094 
Q 2938 2591 2744 2837 
Q 2550 3084 2163 3084 
Q 1697 3084 1428 2787 
Q 1159 2491 1159 1978 
L 1159 0 
L 581 0 
L 581 4863 
L 1159 4863 
L 1159 2956 
Q 1366 3272 1645 3428 
Q 1925 3584 2291 3584 
Q 2894 3584 3203 3211 
Q 3513 2838 3513 2113 
z
" id="DejaVuSans-68" transform="scale(0.015625)"/>
      </defs>
      <use xlink:href="#DejaVuSans-53"/>
      <use x="63.476562" xlink:href="#DejaVuSans-6d"/>
      <use x="160.888672" xlink:href="#DejaVuSans-6f"/>
      <use x="222.070312" xlink:href="#DejaVuSans-6f"/>
      <use x="283.251953" xlink:href="#DejaVuSans-74"/>
      <use x="322.460938" xlink:href="#DejaVuSans-68"/>
      <use x="385.839844" xlink:href="#DejaVuSans-20"/>
      <use x="417.626953" xlink:href="#DejaVuSans-63"/>
      <use x="472.607422" xlink:href="#DejaVuSans-6f"/>
      <use x="533.789062" xlink:href="#DejaVuSans-6d"/>
      <use x="631.201172" xlink:href="#DejaVuSans-70"/>
      <use x="694.677734" xlink:href="#DejaVuSans-61"/>
      <use x="755.957031" xlink:href="#DejaVuSans-72"/>
      <use x="797.070312" xlink:href="#DejaVuSans-69"/>
      <use x="824.853516" xlink:href="#DejaVuSans-73"/>
      <use x="876.953125" xlink:href="#DejaVuSans-6f"/>
      <use x="938.134766" xlink:href="#DejaVuSans-6e"/>
      <use x="1001.513672" xlink:href="#DejaVuSans-73"/>
     </g>
    </g>
    <g id="line2d_35">
     <path d="M 140.207188 134.564063 
L 200.207188 134.564063 
" style="fill:none;stroke:#0652ff;stroke-linecap:square;stroke-width:1.5;"/>
    </g>
    <g id="line2d_36">
     <g>
      <use style="fill:#0652ff;stroke:#000000;stroke-linejoin:miter;" x="170.207188" xlink:href="#mccbf8982c7" y="134.564063"/>
     </g>
    </g>
    <g id="text_17">
     <!-- Slim comparisons -->
     <g transform="translate(224.207188 145.064063)scale(0.3 -0.3)">
      <use xlink:href="#DejaVuSans-53"/>
      <use x="63.476562" xlink:href="#DejaVuSans-6c"/>
      <use x="91.259766" xlink:href="#DejaVuSans-69"/>
      <use x="119.042969" xlink:href="#DejaVuSans-6d"/>
      <use x="216.455078" xlink:href="#DejaVuSans-20"/>
      <use x="248.242188" xlink:href="#DejaVuSans-63"/>
      <use x="303.222656" xlink:href="#DejaVuSans-6f"/>
      <use x="364.404297" xlink:href="#DejaVuSans-6d"/>
      <use x="461.816406" xlink:href="#DejaVuSans-70"/>
      <use x="525.292969" xlink:href="#DejaVuSans-61"/>
      <use x="586.572266" xlink:href="#DejaVuSans-72"/>
      <use x="627.685547" xlink:href="#DejaVuSans-69"/>
      <use x="655.46875" xlink:href="#DejaVuSans-73"/>
      <use x="707.568359" xlink:href="#DejaVuSans-6f"/>
      <use x="768.75" xlink:href="#DejaVuSans-6e"/>
      <use x="832.128906" xlink:href="#DejaVuSans-73"/>
     </g>
    </g>
    <g id="line2d_37">
     <path d="M 140.207188 178.598438 
L 200.207188 178.598438 
" style="fill:none;stroke:#ae7181;stroke-linecap:square;stroke-width:1.5;"/>
    </g>
    <g id="line2d_38">
     <g>
      <use style="fill:#ae7181;stroke:#000000;stroke-linejoin:miter;" x="170.207188" xlink:href="#ma259c822b8" y="178.598438"/>
     </g>
    </g>
    <g id="text_18">
     <!-- Pairing Lazy comparisons -->
     <g transform="translate(224.207188 189.098438)scale(0.3 -0.3)">
      <defs>
       <path d="M 628 4666 
L 1259 4666 
L 1259 531 
L 3531 531 
L 3531 0 
L 628 0 
L 628 4666 
z
" id="DejaVuSans-4c" transform="scale(0.015625)"/>
      </defs>
      <use xlink:href="#DejaVuSans-50"/>
      <use x="55.802734" xlink:href="#DejaVuSans-61"/>
      <use x="117.082031" xlink:href="#DejaVuSans-69"/>
      <use x="144.865234" xlink:href="#DejaVuSans-72"/>
      <use x="185.978516" xlink:href="#DejaVuSans-69"/>
      <use x="213.761719" xlink:href="#DejaVuSans-6e"/>
      <use x="277.140625" xlink:href="#DejaVuSans-67"/>
      <use x="340.617188" xlink:href="#DejaVuSans-20"/>
      <use x="372.404297" xlink:href="#DejaVuSans-4c"/>
      <use x="428.117188" xlink:href="#DejaVuSans-61"/>
      <use x="489.396484" xlink:href="#DejaVuSans-7a"/>
      <use x="541.886719" xlink:href="#DejaVuSans-79"/>
      <use x="601.066406" xlink:href="#DejaVuSans-20"/>
      <use x="632.853516" xlink:href="#DejaVuSans-63"/>
      <use x="687.833984" xlink:href="#DejaVuSans-6f"/>
      <use x="749.015625" xlink:href="#DejaVuSans-6d"/>
      <use x="846.427734" xlink:href="#DejaVuSans-70"/>
      <use x="909.904297" xlink:href="#DejaVuSans-61"/>
      <use x="971.183594" xlink:href="#DejaVuSans-72"/>
      <use x="1012.296875" xlink:href="#DejaVuSans-69"/>
      <use x="1040.080078" xlink:href="#DejaVuSans-73"/>
      <use x="1092.179688" xlink:href="#DejaVuSans-6f"/>
      <use x="1153.361328" xlink:href="#DejaVuSans-6e"/>
      <use x="1216.740234" xlink:href="#DejaVuSans-73"/>
     </g>
    </g>
    <g id="line2d_39">
     <path d="M 140.207188 222.632813 
L 200.207188 222.632813 
" style="fill:none;stroke:#ff81c0;stroke-linecap:square;stroke-width:1.5;"/>
    </g>
    <g id="line2d_40">
     <g>
      <use style="fill:#ff81c0;stroke:#000000;" x="170.207188" xlink:href="#m6001c13170" y="222.632813"/>
     </g>
    </g>
    <g id="text_19">
     <!-- Pairing Slim comparisons -->
     <g transform="translate(224.207188 233.132813)scale(0.3 -0.3)">
      <use xlink:href="#DejaVuSans-50"/>
      <use x="55.802734" xlink:href="#DejaVuSans-61"/>
      <use x="117.082031" xlink:href="#DejaVuSans-69"/>
      <use x="144.865234" xlink:href="#DejaVuSans-72"/>
      <use x="185.978516" xlink:href="#DejaVuSans-69"/>
      <use x="213.761719" xlink:href="#DejaVuSans-6e"/>
      <use x="277.140625" xlink:href="#DejaVuSans-67"/>
      <use x="340.617188" xlink:href="#DejaVuSans-20"/>
      <use x="372.404297" xlink:href="#DejaVuSans-53"/>
      <use x="435.880859" xlink:href="#DejaVuSans-6c"/>
      <use x="463.664062" xlink:href="#DejaVuSans-69"/>
      <use x="491.447266" xlink:href="#DejaVuSans-6d"/>
      <use x="588.859375" xlink:href="#DejaVuSans-20"/>
      <use x="620.646484" xlink:href="#DejaVuSans-63"/>
      <use x="675.626953" xlink:href="#DejaVuSans-6f"/>
      <use x="736.808594" xlink:href="#DejaVuSans-6d"/>
      <use x="834.220703" xlink:href="#DejaVuSans-70"/>
      <use x="897.697266" xlink:href="#DejaVuSans-61"/>
      <use x="958.976562" xlink:href="#DejaVuSans-72"/>
      <use x="1000.089844" xlink:href="#DejaVuSans-69"/>
      <use x="1027.873047" xlink:href="#DejaVuSans-73"/>
      <use x="1079.972656" xlink:href="#DejaVuSans-6f"/>
      <use x="1141.154297" xlink:href="#DejaVuSans-6e"/>
      <use x="1204.533203" xlink:href="#DejaVuSans-73"/>
     </g>
    </g>
    <g id="line2d_41">
     <path d="M 140.207188 266.667188 
L 200.207188 266.667188 
" style="fill:none;stroke:#f97306;stroke-linecap:square;stroke-width:1.5;"/>
    </g>
    <g id="line2d_42">
     <g>
      <use style="fill:#f97306;stroke:#000000;stroke-linejoin:miter;" x="170.207188" xlink:href="#m22f0306b57" y="266.667188"/>
     </g>
    </g>
    <g id="text_20">
     <!-- Pairing Smooth comparisons -->
     <g transform="translate(224.207188 277.167188)scale(0.3 -0.3)">
      <use xlink:href="#DejaVuSans-50"/>
      <use x="55.802734" xlink:href="#DejaVuSans-61"/>
      <use x="117.082031" xlink:href="#DejaVuSans-69"/>
      <use x="144.865234" xlink:href="#DejaVuSans-72"/>
      <use x="185.978516" xlink:href="#DejaVuSans-69"/>
      <use x="213.761719" xlink:href="#DejaVuSans-6e"/>
      <use x="277.140625" xlink:href="#DejaVuSans-67"/>
      <use x="340.617188" xlink:href="#DejaVuSans-20"/>
      <use x="372.404297" xlink:href="#DejaVuSans-53"/>
      <use x="435.880859" xlink:href="#DejaVuSans-6d"/>
      <use x="533.292969" xlink:href="#DejaVuSans-6f"/>
      <use x="594.474609" xlink:href="#DejaVuSans-6f"/>
      <use x="655.65625" xlink:href="#DejaVuSans-74"/>
      <use x="694.865234" xlink:href="#DejaVuSans-68"/>
      <use x="758.244141" xlink:href="#DejaVuSans-20"/>
      <use x="790.03125" xlink:href="#DejaVuSans-63"/>
      <use x="845.011719" xlink:href="#DejaVuSans-6f"/>
      <use x="906.193359" xlink:href="#DejaVuSans-6d"/>
      <use x="1003.605469" xlink:href="#DejaVuSans-70"/>
      <use x="1067.082031" xlink:href="#DejaVuSans-61"/>
      <use x="1128.361328" xlink:href="#DejaVuSans-72"/>
      <use x="1169.474609" xlink:href="#DejaVuSans-69"/>
      <use x="1197.257812" xlink:href="#DejaVuSans-73"/>
      <use x="1249.357422" xlink:href="#DejaVuSans-6f"/>
      <use x="1310.539062" xlink:href="#DejaVuSans-6e"/>
      <use x="1373.917969" xlink:href="#DejaVuSans-73"/>
     </g>
    </g>
   </g>
  </g>
 </g>
 <defs>
  <clipPath id="p59ac9b7961">
   <rect height="997.92" width="892.8" x="113.207188" y="7.2"/>
  </clipPath>
 </defs>
</svg>
