<?xml version="1.0" encoding="utf-8" standalone="no"?>
<!DOCTYPE svg PUBLIC "-//W3C//DTD SVG 1.1//EN"
  "http://www.w3.org/Graphics/SVG/1.1/DTD/svg11.dtd">
<svg height="1090.099062pt" version="1.1" viewBox="0 0 994.119688 1090.099062" width="994.119688pt" xmlns="http://www.w3.org/2000/svg" xmlns:xlink="http://www.w3.org/1999/xlink">
 <metadata>
  <rdf:RDF xmlns:cc="http://creativecommons.org/ns#" xmlns:dc="http://purl.org/dc/elements/1.1/" xmlns:rdf="http://www.w3.org/1999/02/22-rdf-syntax-ns#">
   <cc:Work>
    <dc:type rdf:resource="http://purl.org/dc/dcmitype/StillImage"/>
    <dc:date>2021-07-05T13:36:50.799775</dc:date>
    <dc:format>image/svg+xml</dc:format>
    <dc:creator>
     <cc:Agent>
      <dc:title>Matplotlib v3.4.2, https://matplotlib.org/</dc:title>
     </cc:Agent>
    </dc:creator>
   </cc:Work>
  </rdf:RDF>
 </metadata>
 <defs>
  <style type="text/css">*{stroke-linecap:butt;stroke-linejoin:round;}</style>
 </defs>
 <g id="figure_1">
  <g id="patch_1">
   <path d="M 0 1090.099062 
L 994.119688 1090.099062 
L 994.119688 0 
L 0 0 
z
" style="fill:#ffffff;"/>
  </g>
  <g id="axes_1">
   <g id="patch_2">
    <path d="M 94.119688 1005.12 
L 986.919688 1005.12 
L 986.919688 7.2 
L 94.119688 7.2 
z
" style="fill:#ffffff;"/>
   </g>
   <g id="PolyCollection_1">
    <defs>
     <path d="M 134.701506 -281.257419 
L 134.701506 -218.09031 
L 179.792415 -223.322128 
L 224.883324 -245.182206 
L 269.974233 -254.138484 
L 315.065142 -251.238678 
L 360.156051 -263.142079 
L 405.24696 -262.993371 
L 450.337869 -280.020438 
L 495.428778 -291.072147 
L 540.519688 -300.461031 
L 585.610597 -318.508776 
L 630.701506 -331.534246 
L 675.792415 -341.632872 
L 720.883324 -360.701295 
L 765.974233 -383.764556 
L 811.065142 -417.264416 
L 856.156051 -453.549172 
L 901.24696 -499.891997 
L 946.337869 -578.855952 
L 946.337869 -591.083807 
L 946.337869 -591.083807 
L 901.24696 -512.917467 
L 856.156051 -476.963925 
L 811.065142 -444.342794 
L 765.974233 -413.141149 
L 720.883324 -398.094601 
L 675.792415 -390.077888 
L 630.701506 -370.833719 
L 585.610597 -359.099305 
L 540.519688 -343.674228 
L 495.428778 -325.998252 
L 450.337869 -332.953732 
L 405.24696 -309.876952 
L 360.156051 -323.943378 
L 315.065142 -296.391839 
L 269.974233 -290.66658 
L 224.883324 -282.048275 
L 179.792415 -278.742901 
L 134.701506 -281.257419 
z
" id="mf5bf87c44e" style="stroke:#fe0002;stroke-opacity:0.3;"/>
    </defs>
    <g clip-path="url(#p522ecfc02d)">
     <use style="fill:#fe0002;fill-opacity:0.3;stroke:#fe0002;stroke-opacity:0.3;" x="0" xlink:href="#mf5bf87c44e" y="1090.099062"/>
    </g>
   </g>
   <g id="PolyCollection_2">
    <defs>
     <path d="M 134.701506 -216.738419 
L 134.701506 -132.076242 
L 179.792415 -130.339063 
L 224.883324 -158.465156 
L 269.974233 -177.438946 
L 315.065142 -167.184853 
L 360.156051 -190.329227 
L 405.24696 -193.256071 
L 450.337869 -211.648549 
L 495.428778 -224.653741 
L 540.519688 -239.55158 
L 585.610597 -264.669715 
L 630.701506 -274.53852 
L 675.792415 -296.62842 
L 720.883324 -310.992262 
L 765.974233 -347.148588 
L 811.065142 -394.532369 
L 856.156051 -439.901832 
L 901.24696 -512.2618 
L 946.337869 -621.467558 
L 946.337869 -635.574541 
L 946.337869 -635.574541 
L 901.24696 -530.647518 
L 856.156051 -479.431126 
L 811.065142 -437.400833 
L 765.974233 -390.402341 
L 720.883324 -379.533138 
L 675.792415 -363.364521 
L 630.701506 -338.158512 
L 585.610597 -321.043572 
L 540.519688 -303.313521 
L 495.428778 -271.388614 
L 450.337869 -284.049074 
L 405.24696 -247.264118 
L 360.156051 -273.396172 
L 315.065142 -244.01958 
L 269.974233 -228.709414 
L 224.883324 -225.512192 
L 179.792415 -203.0708 
L 134.701506 -216.738419 
z
" id="mf8eafc9993" style="stroke:#53fca1;stroke-opacity:0.3;"/>
    </defs>
    <g clip-path="url(#p522ecfc02d)">
     <use style="fill:#53fca1;fill-opacity:0.3;stroke:#53fca1;stroke-opacity:0.3;" x="0" xlink:href="#mf8eafc9993" y="1090.099062"/>
    </g>
   </g>
   <g id="PolyCollection_3">
    <defs>
     <path d="M 134.701506 -221.43624 
L 134.701506 -132.549404 
L 179.792415 -132.502088 
L 224.883324 -163.12918 
L 269.974233 -179.885869 
L 315.065142 -173.876713 
L 360.156051 -196.291067 
L 405.24696 -200.238589 
L 450.337869 -216.630267 
L 495.428778 -231.507828 
L 540.519688 -244.38459 
L 585.610597 -276.904329 
L 630.701506 -289.747294 
L 675.792415 -307.882913 
L 720.883324 -334.758506 
L 765.974233 -371.894953 
L 811.065142 -425.740773 
L 856.156051 -490.340886 
L 901.24696 -570.149774 
L 946.337869 -710.280039 
L 946.337869 -733.120239 
L 946.337869 -733.120239 
L 901.24696 -593.64564 
L 856.156051 -531.012528 
L 811.065142 -476.071677 
L 765.974233 -420.427841 
L 720.883324 -406.192429 
L 675.792415 -389.827788 
L 630.701506 -355.341047 
L 585.610597 -339.003444 
L 540.519688 -320.489296 
L 495.428778 -287.205739 
L 450.337869 -301.447911 
L 405.24696 -259.113443 
L 360.156051 -282.703942 
L 315.065142 -250.069292 
L 269.974233 -237.185771 
L 224.883324 -227.438636 
L 179.792415 -214.11575 
L 134.701506 -221.43624 
z
" id="m93021d991a" style="stroke:#0652ff;stroke-opacity:0.3;"/>
    </defs>
    <g clip-path="url(#p522ecfc02d)">
     <use style="fill:#0652ff;fill-opacity:0.3;stroke:#0652ff;stroke-opacity:0.3;" x="0" xlink:href="#m93021d991a" y="1090.099062"/>
    </g>
   </g>
   <g id="PolyCollection_4">
    <defs>
     <path d="M 134.701506 -437.252125 
L 134.701506 -340.199868 
L 179.792415 -349.717181 
L 224.883324 -385.021815 
L 269.974233 -393.362983 
L 315.065142 -392.768151 
L 360.156051 -405.753064 
L 405.24696 -412.836973 
L 450.337869 -433.852119 
L 495.428778 -449.385347 
L 540.519688 -465.547205 
L 585.610597 -498.168336 
L 630.701506 -518.453461 
L 675.792415 -537.069 
L 720.883324 -567.020146 
L 765.974233 -612.078674 
L 811.065142 -671.501045 
L 856.156051 -742.191427 
L 901.24696 -844.367352 
L 946.337869 -1011.123112 
L 946.337869 -1037.539062 
L 946.337869 -1037.539062 
L 901.24696 -868.816301 
L 856.156051 -791.927499 
L 811.065142 -733.627198 
L 765.974233 -666.025886 
L 720.883324 -649.248919 
L 675.792415 -629.491031 
L 630.701506 -587.832509 
L 585.610597 -572.164092 
L 540.519688 -550.060673 
L 495.428778 -510.89639 
L 450.337869 -527.065007 
L 405.24696 -483.534115 
L 360.156051 -507.476105 
L 315.065142 -468.656554 
L 269.974233 -455.232276 
L 224.883324 -443.558697 
L 179.792415 -435.683932 
L 134.701506 -437.252125 
z
" id="m620db5812e" style="stroke:#ae7181;stroke-opacity:0.3;"/>
    </defs>
    <g clip-path="url(#p522ecfc02d)">
     <use style="fill:#ae7181;fill-opacity:0.3;stroke:#ae7181;stroke-opacity:0.3;" x="0" xlink:href="#m620db5812e" y="1090.099062"/>
    </g>
   </g>
   <g id="PolyCollection_5">
    <defs>
     <path d="M 134.701506 -244.235882 
L 134.701506 -160.283449 
L 179.792415 -167.732369 
L 224.883324 -189.862825 
L 269.974233 -206.822298 
L 315.065142 -201.468809 
L 360.156051 -216.244979 
L 405.24696 -220.706219 
L 450.337869 -239.565099 
L 495.428778 -253.590968 
L 540.519688 -262.75679 
L 585.610597 -296.905557 
L 630.701506 -310.708365 
L 675.792415 -328.742591 
L 720.883324 -353.130706 
L 765.974233 -387.840508 
L 811.065142 -439.361075 
L 856.156051 -499.540505 
L 901.24696 -582.066693 
L 946.337869 -715.315834 
L 946.337869 -739.406532 
L 946.337869 -739.406532 
L 901.24696 -604.616236 
L 856.156051 -542.645551 
L 811.065142 -492.395761 
L 765.974233 -438.8068 
L 720.883324 -419.420683 
L 675.792415 -406.009924 
L 630.701506 -373.861955 
L 585.610597 -357.199898 
L 540.519688 -337.746186 
L 495.428778 -307.558459 
L 450.337869 -323.571608 
L 405.24696 -278.918647 
L 360.156051 -302.928232 
L 315.065142 -270.273304 
L 269.974233 -262.479652 
L 224.883324 -249.744838 
L 179.792415 -241.66053 
L 134.701506 -244.235882 
z
" id="m996e50ffbe" style="stroke:#ff9408;stroke-opacity:0.3;"/>
    </defs>
    <g clip-path="url(#p522ecfc02d)">
     <use style="fill:#ff9408;fill-opacity:0.3;stroke:#ff9408;stroke-opacity:0.3;" x="0" xlink:href="#m996e50ffbe" y="1090.099062"/>
    </g>
   </g>
   <g id="PolyCollection_6">
    <defs>
     <path d="M 134.701506 -236.672052 
L 134.701506 -159.64806 
L 179.792415 -165.60314 
L 224.883324 -187.091448 
L 269.974233 -203.733227 
L 315.065142 -197.669996 
L 360.156051 -212.027078 
L 405.24696 -215.792095 
L 450.337869 -233.265287 
L 495.428778 -245.837873 
L 540.519688 -256.071688 
L 585.610597 -284.9616 
L 630.701506 -298.169575 
L 675.792415 -315.095251 
L 720.883324 -338.246385 
L 765.974233 -369.975268 
L 811.065142 -419.461239 
L 856.156051 -472.097117 
L 901.24696 -544.26782 
L 946.337869 -669.534044 
L 946.337869 -690.508633 
L 946.337869 -690.508633 
L 901.24696 -566.641617 
L 856.156051 -512.552456 
L 811.065142 -462.052567 
L 765.974233 -413.959043 
L 720.883324 -398.581282 
L 675.792415 -384.393186 
L 630.701506 -356.314409 
L 585.610597 -341.585556 
L 540.519688 -321.793871 
L 495.428778 -293.039149 
L 450.337869 -307.551699 
L 405.24696 -269.185032 
L 360.156051 -292.741733 
L 315.065142 -261.060166 
L 269.974233 -249.136487 
L 224.883324 -242.113414 
L 179.792415 -231.521347 
L 134.701506 -236.672052 
z
" id="m443b8a3b98" style="stroke:#ff81c0;stroke-opacity:0.3;"/>
    </defs>
    <g clip-path="url(#p522ecfc02d)">
     <use style="fill:#ff81c0;fill-opacity:0.3;stroke:#ff81c0;stroke-opacity:0.3;" x="0" xlink:href="#m443b8a3b98" y="1090.099062"/>
    </g>
   </g>
   <g id="matplotlib.axis_1">
    <g id="xtick_1">
     <g id="line2d_1">
      <path clip-path="url(#p522ecfc02d)" d="M 811.065142 1005.12 
L 811.065142 7.2 
" style="fill:none;stroke:#b0b0b0;stroke-linecap:square;stroke-width:0.8;"/>
     </g>
     <g id="line2d_2">
      <defs>
       <path d="M 0 0 
L 0 3.5 
" id="m02c8efabc8" style="stroke:#000000;stroke-width:0.8;"/>
      </defs>
      <g>
       <use style="stroke:#000000;stroke-width:0.8;" x="811.065142" xlink:href="#m02c8efabc8" y="1005.12"/>
      </g>
     </g>
     <g id="text_1">
      <!-- 2 -->
      <g transform="translate(801.521392 1034.915313)scale(0.3 -0.3)">
       <defs>
        <path d="M 1228 531 
L 3431 531 
L 3431 0 
L 469 0 
L 469 531 
Q 828 903 1448 1529 
Q 2069 2156 2228 2338 
Q 2531 2678 2651 2914 
Q 2772 3150 2772 3378 
Q 2772 3750 2511 3984 
Q 2250 4219 1831 4219 
Q 1534 4219 1204 4116 
Q 875 4013 500 3803 
L 500 4441 
Q 881 4594 1212 4672 
Q 1544 4750 1819 4750 
Q 2544 4750 2975 4387 
Q 3406 4025 3406 3419 
Q 3406 3131 3298 2873 
Q 3191 2616 2906 2266 
Q 2828 2175 2409 1742 
Q 1991 1309 1228 531 
z
" id="DejaVuSans-32" transform="scale(0.015625)"/>
       </defs>
       <use xlink:href="#DejaVuSans-32"/>
      </g>
     </g>
    </g>
    <g id="xtick_2">
     <g id="line2d_3">
      <path clip-path="url(#p522ecfc02d)" d="M 630.701506 1005.12 
L 630.701506 7.2 
" style="fill:none;stroke:#b0b0b0;stroke-linecap:square;stroke-width:0.8;"/>
     </g>
     <g id="line2d_4">
      <g>
       <use style="stroke:#000000;stroke-width:0.8;" x="630.701506" xlink:href="#m02c8efabc8" y="1005.12"/>
      </g>
     </g>
     <g id="text_2">
      <!-- 4 -->
      <g transform="translate(621.157756 1034.915313)scale(0.3 -0.3)">
       <defs>
        <path d="M 2419 4116 
L 825 1625 
L 2419 1625 
L 2419 4116 
z
M 2253 4666 
L 3047 4666 
L 3047 1625 
L 3713 1625 
L 3713 1100 
L 3047 1100 
L 3047 0 
L 2419 0 
L 2419 1100 
L 313 1100 
L 313 1709 
L 2253 4666 
z
" id="DejaVuSans-34" transform="scale(0.015625)"/>
       </defs>
       <use xlink:href="#DejaVuSans-34"/>
      </g>
     </g>
    </g>
    <g id="xtick_3">
     <g id="line2d_5">
      <path clip-path="url(#p522ecfc02d)" d="M 450.337869 1005.12 
L 450.337869 7.2 
" style="fill:none;stroke:#b0b0b0;stroke-linecap:square;stroke-width:0.8;"/>
     </g>
     <g id="line2d_6">
      <g>
       <use style="stroke:#000000;stroke-width:0.8;" x="450.337869" xlink:href="#m02c8efabc8" y="1005.12"/>
      </g>
     </g>
     <g id="text_3">
      <!-- 6 -->
      <g transform="translate(440.794119 1034.915313)scale(0.3 -0.3)">
       <defs>
        <path d="M 2113 2584 
Q 1688 2584 1439 2293 
Q 1191 2003 1191 1497 
Q 1191 994 1439 701 
Q 1688 409 2113 409 
Q 2538 409 2786 701 
Q 3034 994 3034 1497 
Q 3034 2003 2786 2293 
Q 2538 2584 2113 2584 
z
M 3366 4563 
L 3366 3988 
Q 3128 4100 2886 4159 
Q 2644 4219 2406 4219 
Q 1781 4219 1451 3797 
Q 1122 3375 1075 2522 
Q 1259 2794 1537 2939 
Q 1816 3084 2150 3084 
Q 2853 3084 3261 2657 
Q 3669 2231 3669 1497 
Q 3669 778 3244 343 
Q 2819 -91 2113 -91 
Q 1303 -91 875 529 
Q 447 1150 447 2328 
Q 447 3434 972 4092 
Q 1497 4750 2381 4750 
Q 2619 4750 2861 4703 
Q 3103 4656 3366 4563 
z
" id="DejaVuSans-36" transform="scale(0.015625)"/>
       </defs>
       <use xlink:href="#DejaVuSans-36"/>
      </g>
     </g>
    </g>
    <g id="xtick_4">
     <g id="line2d_7">
      <path clip-path="url(#p522ecfc02d)" d="M 269.974233 1005.12 
L 269.974233 7.2 
" style="fill:none;stroke:#b0b0b0;stroke-linecap:square;stroke-width:0.8;"/>
     </g>
     <g id="line2d_8">
      <g>
       <use style="stroke:#000000;stroke-width:0.8;" x="269.974233" xlink:href="#m02c8efabc8" y="1005.12"/>
      </g>
     </g>
     <g id="text_4">
      <!-- 8 -->
      <g transform="translate(260.430483 1034.915313)scale(0.3 -0.3)">
       <defs>
        <path d="M 2034 2216 
Q 1584 2216 1326 1975 
Q 1069 1734 1069 1313 
Q 1069 891 1326 650 
Q 1584 409 2034 409 
Q 2484 409 2743 651 
Q 3003 894 3003 1313 
Q 3003 1734 2745 1975 
Q 2488 2216 2034 2216 
z
M 1403 2484 
Q 997 2584 770 2862 
Q 544 3141 544 3541 
Q 544 4100 942 4425 
Q 1341 4750 2034 4750 
Q 2731 4750 3128 4425 
Q 3525 4100 3525 3541 
Q 3525 3141 3298 2862 
Q 3072 2584 2669 2484 
Q 3125 2378 3379 2068 
Q 3634 1759 3634 1313 
Q 3634 634 3220 271 
Q 2806 -91 2034 -91 
Q 1263 -91 848 271 
Q 434 634 434 1313 
Q 434 1759 690 2068 
Q 947 2378 1403 2484 
z
M 1172 3481 
Q 1172 3119 1398 2916 
Q 1625 2713 2034 2713 
Q 2441 2713 2670 2916 
Q 2900 3119 2900 3481 
Q 2900 3844 2670 4047 
Q 2441 4250 2034 4250 
Q 1625 4250 1398 4047 
Q 1172 3844 1172 3481 
z
" id="DejaVuSans-38" transform="scale(0.015625)"/>
       </defs>
       <use xlink:href="#DejaVuSans-38"/>
      </g>
     </g>
    </g>
    <g id="text_5">
     <!-- Avg. length of sorted blocks, % of size -->
     <g transform="translate(168.514531 1074.788281)scale(0.39 -0.39)">
      <defs>
       <path d="M 2188 4044 
L 1331 1722 
L 3047 1722 
L 2188 4044 
z
M 1831 4666 
L 2547 4666 
L 4325 0 
L 3669 0 
L 3244 1197 
L 1141 1197 
L 716 0 
L 50 0 
L 1831 4666 
z
" id="DejaVuSans-41" transform="scale(0.015625)"/>
       <path d="M 191 3500 
L 800 3500 
L 1894 563 
L 2988 3500 
L 3597 3500 
L 2284 0 
L 1503 0 
L 191 3500 
z
" id="DejaVuSans-76" transform="scale(0.015625)"/>
       <path d="M 2906 1791 
Q 2906 2416 2648 2759 
Q 2391 3103 1925 3103 
Q 1463 3103 1205 2759 
Q 947 2416 947 1791 
Q 947 1169 1205 825 
Q 1463 481 1925 481 
Q 2391 481 2648 825 
Q 2906 1169 2906 1791 
z
M 3481 434 
Q 3481 -459 3084 -895 
Q 2688 -1331 1869 -1331 
Q 1566 -1331 1297 -1286 
Q 1028 -1241 775 -1147 
L 775 -588 
Q 1028 -725 1275 -790 
Q 1522 -856 1778 -856 
Q 2344 -856 2625 -561 
Q 2906 -266 2906 331 
L 2906 616 
Q 2728 306 2450 153 
Q 2172 0 1784 0 
Q 1141 0 747 490 
Q 353 981 353 1791 
Q 353 2603 747 3093 
Q 1141 3584 1784 3584 
Q 2172 3584 2450 3431 
Q 2728 3278 2906 2969 
L 2906 3500 
L 3481 3500 
L 3481 434 
z
" id="DejaVuSans-67" transform="scale(0.015625)"/>
       <path d="M 684 794 
L 1344 794 
L 1344 0 
L 684 0 
L 684 794 
z
" id="DejaVuSans-2e" transform="scale(0.015625)"/>
       <path id="DejaVuSans-20" transform="scale(0.015625)"/>
       <path d="M 603 4863 
L 1178 4863 
L 1178 0 
L 603 0 
L 603 4863 
z
" id="DejaVuSans-6c" transform="scale(0.015625)"/>
       <path d="M 3597 1894 
L 3597 1613 
L 953 1613 
Q 991 1019 1311 708 
Q 1631 397 2203 397 
Q 2534 397 2845 478 
Q 3156 559 3463 722 
L 3463 178 
Q 3153 47 2828 -22 
Q 2503 -91 2169 -91 
Q 1331 -91 842 396 
Q 353 884 353 1716 
Q 353 2575 817 3079 
Q 1281 3584 2069 3584 
Q 2775 3584 3186 3129 
Q 3597 2675 3597 1894 
z
M 3022 2063 
Q 3016 2534 2758 2815 
Q 2500 3097 2075 3097 
Q 1594 3097 1305 2825 
Q 1016 2553 972 2059 
L 3022 2063 
z
" id="DejaVuSans-65" transform="scale(0.015625)"/>
       <path d="M 3513 2113 
L 3513 0 
L 2938 0 
L 2938 2094 
Q 2938 2591 2744 2837 
Q 2550 3084 2163 3084 
Q 1697 3084 1428 2787 
Q 1159 2491 1159 1978 
L 1159 0 
L 581 0 
L 581 3500 
L 1159 3500 
L 1159 2956 
Q 1366 3272 1645 3428 
Q 1925 3584 2291 3584 
Q 2894 3584 3203 3211 
Q 3513 2838 3513 2113 
z
" id="DejaVuSans-6e" transform="scale(0.015625)"/>
       <path d="M 1172 4494 
L 1172 3500 
L 2356 3500 
L 2356 3053 
L 1172 3053 
L 1172 1153 
Q 1172 725 1289 603 
Q 1406 481 1766 481 
L 2356 481 
L 2356 0 
L 1766 0 
Q 1100 0 847 248 
Q 594 497 594 1153 
L 594 3053 
L 172 3053 
L 172 3500 
L 594 3500 
L 594 4494 
L 1172 4494 
z
" id="DejaVuSans-74" transform="scale(0.015625)"/>
       <path d="M 3513 2113 
L 3513 0 
L 2938 0 
L 2938 2094 
Q 2938 2591 2744 2837 
Q 2550 3084 2163 3084 
Q 1697 3084 1428 2787 
Q 1159 2491 1159 1978 
L 1159 0 
L 581 0 
L 581 4863 
L 1159 4863 
L 1159 2956 
Q 1366 3272 1645 3428 
Q 1925 3584 2291 3584 
Q 2894 3584 3203 3211 
Q 3513 2838 3513 2113 
z
" id="DejaVuSans-68" transform="scale(0.015625)"/>
       <path d="M 1959 3097 
Q 1497 3097 1228 2736 
Q 959 2375 959 1747 
Q 959 1119 1226 758 
Q 1494 397 1959 397 
Q 2419 397 2687 759 
Q 2956 1122 2956 1747 
Q 2956 2369 2687 2733 
Q 2419 3097 1959 3097 
z
M 1959 3584 
Q 2709 3584 3137 3096 
Q 3566 2609 3566 1747 
Q 3566 888 3137 398 
Q 2709 -91 1959 -91 
Q 1206 -91 779 398 
Q 353 888 353 1747 
Q 353 2609 779 3096 
Q 1206 3584 1959 3584 
z
" id="DejaVuSans-6f" transform="scale(0.015625)"/>
       <path d="M 2375 4863 
L 2375 4384 
L 1825 4384 
Q 1516 4384 1395 4259 
Q 1275 4134 1275 3809 
L 1275 3500 
L 2222 3500 
L 2222 3053 
L 1275 3053 
L 1275 0 
L 697 0 
L 697 3053 
L 147 3053 
L 147 3500 
L 697 3500 
L 697 3744 
Q 697 4328 969 4595 
Q 1241 4863 1831 4863 
L 2375 4863 
z
" id="DejaVuSans-66" transform="scale(0.015625)"/>
       <path d="M 2834 3397 
L 2834 2853 
Q 2591 2978 2328 3040 
Q 2066 3103 1784 3103 
Q 1356 3103 1142 2972 
Q 928 2841 928 2578 
Q 928 2378 1081 2264 
Q 1234 2150 1697 2047 
L 1894 2003 
Q 2506 1872 2764 1633 
Q 3022 1394 3022 966 
Q 3022 478 2636 193 
Q 2250 -91 1575 -91 
Q 1294 -91 989 -36 
Q 684 19 347 128 
L 347 722 
Q 666 556 975 473 
Q 1284 391 1588 391 
Q 1994 391 2212 530 
Q 2431 669 2431 922 
Q 2431 1156 2273 1281 
Q 2116 1406 1581 1522 
L 1381 1569 
Q 847 1681 609 1914 
Q 372 2147 372 2553 
Q 372 3047 722 3315 
Q 1072 3584 1716 3584 
Q 2034 3584 2315 3537 
Q 2597 3491 2834 3397 
z
" id="DejaVuSans-73" transform="scale(0.015625)"/>
       <path d="M 2631 2963 
Q 2534 3019 2420 3045 
Q 2306 3072 2169 3072 
Q 1681 3072 1420 2755 
Q 1159 2438 1159 1844 
L 1159 0 
L 581 0 
L 581 3500 
L 1159 3500 
L 1159 2956 
Q 1341 3275 1631 3429 
Q 1922 3584 2338 3584 
Q 2397 3584 2469 3576 
Q 2541 3569 2628 3553 
L 2631 2963 
z
" id="DejaVuSans-72" transform="scale(0.015625)"/>
       <path d="M 2906 2969 
L 2906 4863 
L 3481 4863 
L 3481 0 
L 2906 0 
L 2906 525 
Q 2725 213 2448 61 
Q 2172 -91 1784 -91 
Q 1150 -91 751 415 
Q 353 922 353 1747 
Q 353 2572 751 3078 
Q 1150 3584 1784 3584 
Q 2172 3584 2448 3432 
Q 2725 3281 2906 2969 
z
M 947 1747 
Q 947 1113 1208 752 
Q 1469 391 1925 391 
Q 2381 391 2643 752 
Q 2906 1113 2906 1747 
Q 2906 2381 2643 2742 
Q 2381 3103 1925 3103 
Q 1469 3103 1208 2742 
Q 947 2381 947 1747 
z
" id="DejaVuSans-64" transform="scale(0.015625)"/>
       <path d="M 3116 1747 
Q 3116 2381 2855 2742 
Q 2594 3103 2138 3103 
Q 1681 3103 1420 2742 
Q 1159 2381 1159 1747 
Q 1159 1113 1420 752 
Q 1681 391 2138 391 
Q 2594 391 2855 752 
Q 3116 1113 3116 1747 
z
M 1159 2969 
Q 1341 3281 1617 3432 
Q 1894 3584 2278 3584 
Q 2916 3584 3314 3078 
Q 3713 2572 3713 1747 
Q 3713 922 3314 415 
Q 2916 -91 2278 -91 
Q 1894 -91 1617 61 
Q 1341 213 1159 525 
L 1159 0 
L 581 0 
L 581 4863 
L 1159 4863 
L 1159 2969 
z
" id="DejaVuSans-62" transform="scale(0.015625)"/>
       <path d="M 3122 3366 
L 3122 2828 
Q 2878 2963 2633 3030 
Q 2388 3097 2138 3097 
Q 1578 3097 1268 2742 
Q 959 2388 959 1747 
Q 959 1106 1268 751 
Q 1578 397 2138 397 
Q 2388 397 2633 464 
Q 2878 531 3122 666 
L 3122 134 
Q 2881 22 2623 -34 
Q 2366 -91 2075 -91 
Q 1284 -91 818 406 
Q 353 903 353 1747 
Q 353 2603 823 3093 
Q 1294 3584 2113 3584 
Q 2378 3584 2631 3529 
Q 2884 3475 3122 3366 
z
" id="DejaVuSans-63" transform="scale(0.015625)"/>
       <path d="M 581 4863 
L 1159 4863 
L 1159 1991 
L 2875 3500 
L 3609 3500 
L 1753 1863 
L 3688 0 
L 2938 0 
L 1159 1709 
L 1159 0 
L 581 0 
L 581 4863 
z
" id="DejaVuSans-6b" transform="scale(0.015625)"/>
       <path d="M 750 794 
L 1409 794 
L 1409 256 
L 897 -744 
L 494 -744 
L 750 256 
L 750 794 
z
" id="DejaVuSans-2c" transform="scale(0.015625)"/>
       <path d="M 4653 2053 
Q 4381 2053 4226 1822 
Q 4072 1591 4072 1178 
Q 4072 772 4226 539 
Q 4381 306 4653 306 
Q 4919 306 5073 539 
Q 5228 772 5228 1178 
Q 5228 1588 5073 1820 
Q 4919 2053 4653 2053 
z
M 4653 2450 
Q 5147 2450 5437 2106 
Q 5728 1763 5728 1178 
Q 5728 594 5436 251 
Q 5144 -91 4653 -91 
Q 4153 -91 3862 251 
Q 3572 594 3572 1178 
Q 3572 1766 3864 2108 
Q 4156 2450 4653 2450 
z
M 1428 4353 
Q 1159 4353 1004 4120 
Q 850 3888 850 3481 
Q 850 3069 1003 2837 
Q 1156 2606 1428 2606 
Q 1700 2606 1854 2837 
Q 2009 3069 2009 3481 
Q 2009 3884 1853 4118 
Q 1697 4353 1428 4353 
z
M 4250 4750 
L 4750 4750 
L 1831 -91 
L 1331 -91 
L 4250 4750 
z
M 1428 4750 
Q 1922 4750 2215 4408 
Q 2509 4066 2509 3481 
Q 2509 2891 2217 2550 
Q 1925 2209 1428 2209 
Q 931 2209 642 2551 
Q 353 2894 353 3481 
Q 353 4063 643 4406 
Q 934 4750 1428 4750 
z
" id="DejaVuSans-25" transform="scale(0.015625)"/>
       <path d="M 603 3500 
L 1178 3500 
L 1178 0 
L 603 0 
L 603 3500 
z
M 603 4863 
L 1178 4863 
L 1178 4134 
L 603 4134 
L 603 4863 
z
" id="DejaVuSans-69" transform="scale(0.015625)"/>
       <path d="M 353 3500 
L 3084 3500 
L 3084 2975 
L 922 459 
L 3084 459 
L 3084 0 
L 275 0 
L 275 525 
L 2438 3041 
L 353 3041 
L 353 3500 
z
" id="DejaVuSans-7a" transform="scale(0.015625)"/>
      </defs>
      <use xlink:href="#DejaVuSans-41"/>
      <use x="62.533203" xlink:href="#DejaVuSans-76"/>
      <use x="121.712891" xlink:href="#DejaVuSans-67"/>
      <use x="185.189453" xlink:href="#DejaVuSans-2e"/>
      <use x="216.976562" xlink:href="#DejaVuSans-20"/>
      <use x="248.763672" xlink:href="#DejaVuSans-6c"/>
      <use x="276.546875" xlink:href="#DejaVuSans-65"/>
      <use x="338.070312" xlink:href="#DejaVuSans-6e"/>
      <use x="401.449219" xlink:href="#DejaVuSans-67"/>
      <use x="464.925781" xlink:href="#DejaVuSans-74"/>
      <use x="504.134766" xlink:href="#DejaVuSans-68"/>
      <use x="567.513672" xlink:href="#DejaVuSans-20"/>
      <use x="599.300781" xlink:href="#DejaVuSans-6f"/>
      <use x="660.482422" xlink:href="#DejaVuSans-66"/>
      <use x="695.6875" xlink:href="#DejaVuSans-20"/>
      <use x="727.474609" xlink:href="#DejaVuSans-73"/>
      <use x="779.574219" xlink:href="#DejaVuSans-6f"/>
      <use x="840.755859" xlink:href="#DejaVuSans-72"/>
      <use x="881.869141" xlink:href="#DejaVuSans-74"/>
      <use x="921.078125" xlink:href="#DejaVuSans-65"/>
      <use x="982.601562" xlink:href="#DejaVuSans-64"/>
      <use x="1046.078125" xlink:href="#DejaVuSans-20"/>
      <use x="1077.865234" xlink:href="#DejaVuSans-62"/>
      <use x="1141.341797" xlink:href="#DejaVuSans-6c"/>
      <use x="1169.125" xlink:href="#DejaVuSans-6f"/>
      <use x="1230.306641" xlink:href="#DejaVuSans-63"/>
      <use x="1285.287109" xlink:href="#DejaVuSans-6b"/>
      <use x="1343.197266" xlink:href="#DejaVuSans-73"/>
      <use x="1395.296875" xlink:href="#DejaVuSans-2c"/>
      <use x="1427.083984" xlink:href="#DejaVuSans-20"/>
      <use x="1458.871094" xlink:href="#DejaVuSans-25"/>
      <use x="1553.890625" xlink:href="#DejaVuSans-20"/>
      <use x="1585.677734" xlink:href="#DejaVuSans-6f"/>
      <use x="1646.859375" xlink:href="#DejaVuSans-66"/>
      <use x="1682.064453" xlink:href="#DejaVuSans-20"/>
      <use x="1713.851562" xlink:href="#DejaVuSans-73"/>
      <use x="1765.951172" xlink:href="#DejaVuSans-69"/>
      <use x="1793.734375" xlink:href="#DejaVuSans-7a"/>
      <use x="1846.224609" xlink:href="#DejaVuSans-65"/>
     </g>
    </g>
   </g>
   <g id="matplotlib.axis_2">
    <g id="ytick_1">
     <g id="line2d_9">
      <path clip-path="url(#p522ecfc02d)" d="M 94.119688 920.730906 
L 986.919688 920.730906 
" style="fill:none;stroke:#b0b0b0;stroke-linecap:square;stroke-width:0.8;"/>
     </g>
     <g id="line2d_10">
      <defs>
       <path d="M 0 0 
L -3.5 0 
" id="m3b5f21922e" style="stroke:#000000;stroke-width:0.8;"/>
      </defs>
      <g>
       <use style="stroke:#000000;stroke-width:0.8;" x="94.119688" xlink:href="#m3b5f21922e" y="920.730906"/>
      </g>
     </g>
     <g id="text_6">
      <!-- 6 -->
      <g transform="translate(68.032188 932.128562)scale(0.3 -0.3)">
       <use xlink:href="#DejaVuSans-36"/>
      </g>
     </g>
    </g>
    <g id="ytick_2">
     <g id="line2d_11">
      <path clip-path="url(#p522ecfc02d)" d="M 94.119688 785.541802 
L 986.919688 785.541802 
" style="fill:none;stroke:#b0b0b0;stroke-linecap:square;stroke-width:0.8;"/>
     </g>
     <g id="line2d_12">
      <g>
       <use style="stroke:#000000;stroke-width:0.8;" x="94.119688" xlink:href="#m3b5f21922e" y="785.541802"/>
      </g>
     </g>
     <g id="text_7">
      <!-- 8 -->
      <g transform="translate(68.032188 796.939458)scale(0.3 -0.3)">
       <use xlink:href="#DejaVuSans-38"/>
      </g>
     </g>
    </g>
    <g id="ytick_3">
     <g id="line2d_13">
      <path clip-path="url(#p522ecfc02d)" d="M 94.119688 650.352698 
L 986.919688 650.352698 
" style="fill:none;stroke:#b0b0b0;stroke-linecap:square;stroke-width:0.8;"/>
     </g>
     <g id="line2d_14">
      <g>
       <use style="stroke:#000000;stroke-width:0.8;" x="94.119688" xlink:href="#m3b5f21922e" y="650.352698"/>
      </g>
     </g>
     <g id="text_8">
      <!-- 10 -->
      <g transform="translate(48.944688 661.750354)scale(0.3 -0.3)">
       <defs>
        <path d="M 794 531 
L 1825 531 
L 1825 4091 
L 703 3866 
L 703 4441 
L 1819 4666 
L 2450 4666 
L 2450 531 
L 3481 531 
L 3481 0 
L 794 0 
L 794 531 
z
" id="DejaVuSans-31" transform="scale(0.015625)"/>
        <path d="M 2034 4250 
Q 1547 4250 1301 3770 
Q 1056 3291 1056 2328 
Q 1056 1369 1301 889 
Q 1547 409 2034 409 
Q 2525 409 2770 889 
Q 3016 1369 3016 2328 
Q 3016 3291 2770 3770 
Q 2525 4250 2034 4250 
z
M 2034 4750 
Q 2819 4750 3233 4129 
Q 3647 3509 3647 2328 
Q 3647 1150 3233 529 
Q 2819 -91 2034 -91 
Q 1250 -91 836 529 
Q 422 1150 422 2328 
Q 422 3509 836 4129 
Q 1250 4750 2034 4750 
z
" id="DejaVuSans-30" transform="scale(0.015625)"/>
       </defs>
       <use xlink:href="#DejaVuSans-31"/>
       <use x="63.623047" xlink:href="#DejaVuSans-30"/>
      </g>
     </g>
    </g>
    <g id="ytick_4">
     <g id="line2d_15">
      <path clip-path="url(#p522ecfc02d)" d="M 94.119688 515.163594 
L 986.919688 515.163594 
" style="fill:none;stroke:#b0b0b0;stroke-linecap:square;stroke-width:0.8;"/>
     </g>
     <g id="line2d_16">
      <g>
       <use style="stroke:#000000;stroke-width:0.8;" x="94.119688" xlink:href="#m3b5f21922e" y="515.163594"/>
      </g>
     </g>
     <g id="text_9">
      <!-- 12 -->
      <g transform="translate(48.944688 526.561251)scale(0.3 -0.3)">
       <use xlink:href="#DejaVuSans-31"/>
       <use x="63.623047" xlink:href="#DejaVuSans-32"/>
      </g>
     </g>
    </g>
    <g id="ytick_5">
     <g id="line2d_17">
      <path clip-path="url(#p522ecfc02d)" d="M 94.119688 379.974491 
L 986.919688 379.974491 
" style="fill:none;stroke:#b0b0b0;stroke-linecap:square;stroke-width:0.8;"/>
     </g>
     <g id="line2d_18">
      <g>
       <use style="stroke:#000000;stroke-width:0.8;" x="94.119688" xlink:href="#m3b5f21922e" y="379.974491"/>
      </g>
     </g>
     <g id="text_10">
      <!-- 14 -->
      <g transform="translate(48.944688 391.372147)scale(0.3 -0.3)">
       <use xlink:href="#DejaVuSans-31"/>
       <use x="63.623047" xlink:href="#DejaVuSans-34"/>
      </g>
     </g>
    </g>
    <g id="ytick_6">
     <g id="line2d_19">
      <path clip-path="url(#p522ecfc02d)" d="M 94.119688 244.785387 
L 986.919688 244.785387 
" style="fill:none;stroke:#b0b0b0;stroke-linecap:square;stroke-width:0.8;"/>
     </g>
     <g id="line2d_20">
      <g>
       <use style="stroke:#000000;stroke-width:0.8;" x="94.119688" xlink:href="#m3b5f21922e" y="244.785387"/>
      </g>
     </g>
     <g id="text_11">
      <!-- 16 -->
      <g transform="translate(48.944688 256.183043)scale(0.3 -0.3)">
       <use xlink:href="#DejaVuSans-31"/>
       <use x="63.623047" xlink:href="#DejaVuSans-36"/>
      </g>
     </g>
    </g>
    <g id="ytick_7">
     <g id="line2d_21">
      <path clip-path="url(#p522ecfc02d)" d="M 94.119688 109.596283 
L 986.919688 109.596283 
" style="fill:none;stroke:#b0b0b0;stroke-linecap:square;stroke-width:0.8;"/>
     </g>
     <g id="line2d_22">
      <g>
       <use style="stroke:#000000;stroke-width:0.8;" x="94.119688" xlink:href="#m3b5f21922e" y="109.596283"/>
      </g>
     </g>
     <g id="text_12">
      <!-- 18 -->
      <g transform="translate(48.944688 120.993939)scale(0.3 -0.3)">
       <use xlink:href="#DejaVuSans-31"/>
       <use x="63.623047" xlink:href="#DejaVuSans-38"/>
      </g>
     </g>
    </g>
    <g id="text_13">
     <!-- Avg. number of comps / size -->
     <g transform="translate(36.833906 782.922891)rotate(-90)scale(0.39 -0.39)">
      <defs>
       <path d="M 544 1381 
L 544 3500 
L 1119 3500 
L 1119 1403 
Q 1119 906 1312 657 
Q 1506 409 1894 409 
Q 2359 409 2629 706 
Q 2900 1003 2900 1516 
L 2900 3500 
L 3475 3500 
L 3475 0 
L 2900 0 
L 2900 538 
Q 2691 219 2414 64 
Q 2138 -91 1772 -91 
Q 1169 -91 856 284 
Q 544 659 544 1381 
z
M 1991 3584 
L 1991 3584 
z
" id="DejaVuSans-75" transform="scale(0.015625)"/>
       <path d="M 3328 2828 
Q 3544 3216 3844 3400 
Q 4144 3584 4550 3584 
Q 5097 3584 5394 3201 
Q 5691 2819 5691 2113 
L 5691 0 
L 5113 0 
L 5113 2094 
Q 5113 2597 4934 2840 
Q 4756 3084 4391 3084 
Q 3944 3084 3684 2787 
Q 3425 2491 3425 1978 
L 3425 0 
L 2847 0 
L 2847 2094 
Q 2847 2600 2669 2842 
Q 2491 3084 2119 3084 
Q 1678 3084 1418 2786 
Q 1159 2488 1159 1978 
L 1159 0 
L 581 0 
L 581 3500 
L 1159 3500 
L 1159 2956 
Q 1356 3278 1631 3431 
Q 1906 3584 2284 3584 
Q 2666 3584 2933 3390 
Q 3200 3197 3328 2828 
z
" id="DejaVuSans-6d" transform="scale(0.015625)"/>
       <path d="M 1159 525 
L 1159 -1331 
L 581 -1331 
L 581 3500 
L 1159 3500 
L 1159 2969 
Q 1341 3281 1617 3432 
Q 1894 3584 2278 3584 
Q 2916 3584 3314 3078 
Q 3713 2572 3713 1747 
Q 3713 922 3314 415 
Q 2916 -91 2278 -91 
Q 1894 -91 1617 61 
Q 1341 213 1159 525 
z
M 3116 1747 
Q 3116 2381 2855 2742 
Q 2594 3103 2138 3103 
Q 1681 3103 1420 2742 
Q 1159 2381 1159 1747 
Q 1159 1113 1420 752 
Q 1681 391 2138 391 
Q 2594 391 2855 752 
Q 3116 1113 3116 1747 
z
" id="DejaVuSans-70" transform="scale(0.015625)"/>
       <path d="M 1625 4666 
L 2156 4666 
L 531 -594 
L 0 -594 
L 1625 4666 
z
" id="DejaVuSans-2f" transform="scale(0.015625)"/>
      </defs>
      <use xlink:href="#DejaVuSans-41"/>
      <use x="62.533203" xlink:href="#DejaVuSans-76"/>
      <use x="121.712891" xlink:href="#DejaVuSans-67"/>
      <use x="185.189453" xlink:href="#DejaVuSans-2e"/>
      <use x="216.976562" xlink:href="#DejaVuSans-20"/>
      <use x="248.763672" xlink:href="#DejaVuSans-6e"/>
      <use x="312.142578" xlink:href="#DejaVuSans-75"/>
      <use x="375.521484" xlink:href="#DejaVuSans-6d"/>
      <use x="472.933594" xlink:href="#DejaVuSans-62"/>
      <use x="536.410156" xlink:href="#DejaVuSans-65"/>
      <use x="597.933594" xlink:href="#DejaVuSans-72"/>
      <use x="639.046875" xlink:href="#DejaVuSans-20"/>
      <use x="670.833984" xlink:href="#DejaVuSans-6f"/>
      <use x="732.015625" xlink:href="#DejaVuSans-66"/>
      <use x="767.220703" xlink:href="#DejaVuSans-20"/>
      <use x="799.007812" xlink:href="#DejaVuSans-63"/>
      <use x="853.988281" xlink:href="#DejaVuSans-6f"/>
      <use x="915.169922" xlink:href="#DejaVuSans-6d"/>
      <use x="1012.582031" xlink:href="#DejaVuSans-70"/>
      <use x="1076.058594" xlink:href="#DejaVuSans-73"/>
      <use x="1128.158203" xlink:href="#DejaVuSans-20"/>
      <use x="1159.945312" xlink:href="#DejaVuSans-2f"/>
      <use x="1193.636719" xlink:href="#DejaVuSans-20"/>
      <use x="1225.423828" xlink:href="#DejaVuSans-73"/>
      <use x="1277.523438" xlink:href="#DejaVuSans-69"/>
      <use x="1305.306641" xlink:href="#DejaVuSans-7a"/>
      <use x="1357.796875" xlink:href="#DejaVuSans-65"/>
     </g>
    </g>
   </g>
   <g id="line2d_23">
    <path clip-path="url(#p522ecfc02d)" d="M 134.701506 843.500412 
L 179.792415 839.976033 
L 224.883324 828.135833 
L 269.974233 819.78216 
L 315.065142 816.648139 
L 360.156051 801.86521 
L 405.24696 798.143792 
L 450.337869 790.10849 
L 495.428778 784.624206 
L 540.519688 769.954836 
L 585.610597 752.948385 
L 630.701506 742.420196 
L 675.792415 725.250165 
L 720.883324 709.404989 
L 765.974233 688.457775 
L 811.065142 660.313769 
L 856.156051 627.663911 
L 901.24696 582.137628 
L 946.337869 504.465067 
" style="fill:none;stroke:#fe0002;stroke-linecap:square;stroke-width:1.5;"/>
    <defs>
     <path d="M 0 4.5 
C 1.193414 4.5 2.338109 4.025852 3.181981 3.181981 
C 4.025852 2.338109 4.5 1.193414 4.5 0 
C 4.5 -1.193414 4.025852 -2.338109 3.181981 -3.181981 
C 2.338109 -4.025852 1.193414 -4.5 0 -4.5 
C -1.193414 -4.5 -2.338109 -4.025852 -3.181981 -3.181981 
C -4.025852 -2.338109 -4.5 -1.193414 -4.5 0 
C -4.5 1.193414 -4.025852 2.338109 -3.181981 3.181981 
C -2.338109 4.025852 -1.193414 4.5 0 4.5 
z
" id="m881325a45f" style="stroke:#000000;"/>
    </defs>
    <g clip-path="url(#p522ecfc02d)">
     <use style="fill:#fe0002;stroke:#000000;" x="134.701506" xlink:href="#m881325a45f" y="843.500412"/>
     <use style="fill:#fe0002;stroke:#000000;" x="179.792415" xlink:href="#m881325a45f" y="839.976033"/>
     <use style="fill:#fe0002;stroke:#000000;" x="224.883324" xlink:href="#m881325a45f" y="828.135833"/>
     <use style="fill:#fe0002;stroke:#000000;" x="269.974233" xlink:href="#m881325a45f" y="819.78216"/>
     <use style="fill:#fe0002;stroke:#000000;" x="315.065142" xlink:href="#m881325a45f" y="816.648139"/>
     <use style="fill:#fe0002;stroke:#000000;" x="360.156051" xlink:href="#m881325a45f" y="801.86521"/>
     <use style="fill:#fe0002;stroke:#000000;" x="405.24696" xlink:href="#m881325a45f" y="798.143792"/>
     <use style="fill:#fe0002;stroke:#000000;" x="450.337869" xlink:href="#m881325a45f" y="790.10849"/>
     <use style="fill:#fe0002;stroke:#000000;" x="495.428778" xlink:href="#m881325a45f" y="784.624206"/>
     <use style="fill:#fe0002;stroke:#000000;" x="540.519688" xlink:href="#m881325a45f" y="769.954836"/>
     <use style="fill:#fe0002;stroke:#000000;" x="585.610597" xlink:href="#m881325a45f" y="752.948385"/>
     <use style="fill:#fe0002;stroke:#000000;" x="630.701506" xlink:href="#m881325a45f" y="742.420196"/>
     <use style="fill:#fe0002;stroke:#000000;" x="675.792415" xlink:href="#m881325a45f" y="725.250165"/>
     <use style="fill:#fe0002;stroke:#000000;" x="720.883324" xlink:href="#m881325a45f" y="709.404989"/>
     <use style="fill:#fe0002;stroke:#000000;" x="765.974233" xlink:href="#m881325a45f" y="688.457775"/>
     <use style="fill:#fe0002;stroke:#000000;" x="811.065142" xlink:href="#m881325a45f" y="660.313769"/>
     <use style="fill:#fe0002;stroke:#000000;" x="856.156051" xlink:href="#m881325a45f" y="627.663911"/>
     <use style="fill:#fe0002;stroke:#000000;" x="901.24696" xlink:href="#m881325a45f" y="582.137628"/>
     <use style="fill:#fe0002;stroke:#000000;" x="946.337869" xlink:href="#m881325a45f" y="504.465067"/>
    </g>
   </g>
   <g id="line2d_24">
    <path clip-path="url(#p522ecfc02d)" d="M 134.701506 915.647457 
L 179.792415 913.514511 
L 224.883324 897.977566 
L 269.974233 890.244411 
L 315.065142 883.598853 
L 360.156051 862.957166 
L 405.24696 861.681657 
L 450.337869 850.893229 
L 495.428778 843.723812 
L 540.519688 822.899959 
L 585.610597 800.291609 
L 630.701506 788.312503 
L 675.792415 763.137588 
L 720.883324 743.697395 
L 765.974233 716.000189 
L 811.065142 677.148192 
L 856.156051 632.444198 
L 901.24696 570.534347 
L 946.337869 461.631751 
" style="fill:none;stroke:#53fca1;stroke-linecap:square;stroke-width:1.5;"/>
    <defs>
     <path d="M 0 -4.5 
L -4.5 4.5 
L 4.5 4.5 
z
" id="maf2b04a25e" style="stroke:#000000;stroke-linejoin:miter;"/>
    </defs>
    <g clip-path="url(#p522ecfc02d)">
     <use style="fill:#53fca1;stroke:#000000;stroke-linejoin:miter;" x="134.701506" xlink:href="#maf2b04a25e" y="915.647457"/>
     <use style="fill:#53fca1;stroke:#000000;stroke-linejoin:miter;" x="179.792415" xlink:href="#maf2b04a25e" y="913.514511"/>
     <use style="fill:#53fca1;stroke:#000000;stroke-linejoin:miter;" x="224.883324" xlink:href="#maf2b04a25e" y="897.977566"/>
     <use style="fill:#53fca1;stroke:#000000;stroke-linejoin:miter;" x="269.974233" xlink:href="#maf2b04a25e" y="890.244411"/>
     <use style="fill:#53fca1;stroke:#000000;stroke-linejoin:miter;" x="315.065142" xlink:href="#maf2b04a25e" y="883.598853"/>
     <use style="fill:#53fca1;stroke:#000000;stroke-linejoin:miter;" x="360.156051" xlink:href="#maf2b04a25e" y="862.957166"/>
     <use style="fill:#53fca1;stroke:#000000;stroke-linejoin:miter;" x="405.24696" xlink:href="#maf2b04a25e" y="861.681657"/>
     <use style="fill:#53fca1;stroke:#000000;stroke-linejoin:miter;" x="450.337869" xlink:href="#maf2b04a25e" y="850.893229"/>
     <use style="fill:#53fca1;stroke:#000000;stroke-linejoin:miter;" x="495.428778" xlink:href="#maf2b04a25e" y="843.723812"/>
     <use style="fill:#53fca1;stroke:#000000;stroke-linejoin:miter;" x="540.519688" xlink:href="#maf2b04a25e" y="822.899959"/>
     <use style="fill:#53fca1;stroke:#000000;stroke-linejoin:miter;" x="585.610597" xlink:href="#maf2b04a25e" y="800.291609"/>
     <use style="fill:#53fca1;stroke:#000000;stroke-linejoin:miter;" x="630.701506" xlink:href="#maf2b04a25e" y="788.312503"/>
     <use style="fill:#53fca1;stroke:#000000;stroke-linejoin:miter;" x="675.792415" xlink:href="#maf2b04a25e" y="763.137588"/>
     <use style="fill:#53fca1;stroke:#000000;stroke-linejoin:miter;" x="720.883324" xlink:href="#maf2b04a25e" y="743.697395"/>
     <use style="fill:#53fca1;stroke:#000000;stroke-linejoin:miter;" x="765.974233" xlink:href="#maf2b04a25e" y="716.000189"/>
     <use style="fill:#53fca1;stroke:#000000;stroke-linejoin:miter;" x="811.065142" xlink:href="#maf2b04a25e" y="677.148192"/>
     <use style="fill:#53fca1;stroke:#000000;stroke-linejoin:miter;" x="856.156051" xlink:href="#maf2b04a25e" y="632.444198"/>
     <use style="fill:#53fca1;stroke:#000000;stroke-linejoin:miter;" x="901.24696" xlink:href="#maf2b04a25e" y="570.534347"/>
     <use style="fill:#53fca1;stroke:#000000;stroke-linejoin:miter;" x="946.337869" xlink:href="#maf2b04a25e" y="461.631751"/>
    </g>
   </g>
   <g id="line2d_25">
    <path clip-path="url(#p522ecfc02d)" d="M 134.701506 913.371549 
L 179.792415 910.370351 
L 224.883324 893.795153 
L 269.974233 883.442371 
L 315.065142 877.697172 
L 360.156051 856.897653 
L 405.24696 853.581802 
L 450.337869 840.353548 
L 495.428778 834.331549 
L 540.519688 810.823178 
L 585.610597 785.900729 
L 630.701506 770.774082 
L 675.792415 743.776818 
L 720.883324 719.136914 
L 765.974233 686.780754 
L 811.065142 639.818087 
L 856.156051 583.846081 
L 901.24696 507.611931 
L 946.337869 367.271446 
" style="fill:none;stroke:#0652ff;stroke-linecap:square;stroke-width:1.5;"/>
    <defs>
     <path d="M 0 -4.5 
L -4.279754 -1.390576 
L -2.645034 3.640576 
L 2.645034 3.640576 
L 4.279754 -1.390576 
z
" id="m31cbaefad8" style="stroke:#000000;stroke-linejoin:miter;"/>
    </defs>
    <g clip-path="url(#p522ecfc02d)">
     <use style="fill:#0652ff;stroke:#000000;stroke-linejoin:miter;" x="134.701506" xlink:href="#m31cbaefad8" y="913.371549"/>
     <use style="fill:#0652ff;stroke:#000000;stroke-linejoin:miter;" x="179.792415" xlink:href="#m31cbaefad8" y="910.370351"/>
     <use style="fill:#0652ff;stroke:#000000;stroke-linejoin:miter;" x="224.883324" xlink:href="#m31cbaefad8" y="893.795153"/>
     <use style="fill:#0652ff;stroke:#000000;stroke-linejoin:miter;" x="269.974233" xlink:href="#m31cbaefad8" y="883.442371"/>
     <use style="fill:#0652ff;stroke:#000000;stroke-linejoin:miter;" x="315.065142" xlink:href="#m31cbaefad8" y="877.697172"/>
     <use style="fill:#0652ff;stroke:#000000;stroke-linejoin:miter;" x="360.156051" xlink:href="#m31cbaefad8" y="856.897653"/>
     <use style="fill:#0652ff;stroke:#000000;stroke-linejoin:miter;" x="405.24696" xlink:href="#m31cbaefad8" y="853.581802"/>
     <use style="fill:#0652ff;stroke:#000000;stroke-linejoin:miter;" x="450.337869" xlink:href="#m31cbaefad8" y="840.353548"/>
     <use style="fill:#0652ff;stroke:#000000;stroke-linejoin:miter;" x="495.428778" xlink:href="#m31cbaefad8" y="834.331549"/>
     <use style="fill:#0652ff;stroke:#000000;stroke-linejoin:miter;" x="540.519688" xlink:href="#m31cbaefad8" y="810.823178"/>
     <use style="fill:#0652ff;stroke:#000000;stroke-linejoin:miter;" x="585.610597" xlink:href="#m31cbaefad8" y="785.900729"/>
     <use style="fill:#0652ff;stroke:#000000;stroke-linejoin:miter;" x="630.701506" xlink:href="#m31cbaefad8" y="770.774082"/>
     <use style="fill:#0652ff;stroke:#000000;stroke-linejoin:miter;" x="675.792415" xlink:href="#m31cbaefad8" y="743.776818"/>
     <use style="fill:#0652ff;stroke:#000000;stroke-linejoin:miter;" x="720.883324" xlink:href="#m31cbaefad8" y="719.136914"/>
     <use style="fill:#0652ff;stroke:#000000;stroke-linejoin:miter;" x="765.974233" xlink:href="#m31cbaefad8" y="686.780754"/>
     <use style="fill:#0652ff;stroke:#000000;stroke-linejoin:miter;" x="811.065142" xlink:href="#m31cbaefad8" y="639.818087"/>
     <use style="fill:#0652ff;stroke:#000000;stroke-linejoin:miter;" x="856.156051" xlink:href="#m31cbaefad8" y="583.846081"/>
     <use style="fill:#0652ff;stroke:#000000;stroke-linejoin:miter;" x="901.24696" xlink:href="#m31cbaefad8" y="507.611931"/>
     <use style="fill:#0652ff;stroke:#000000;stroke-linejoin:miter;" x="946.337869" xlink:href="#m31cbaefad8" y="367.271446"/>
    </g>
   </g>
   <g id="line2d_26">
    <path clip-path="url(#p522ecfc02d)" d="M 134.701506 702.778019 
L 179.792415 698.205247 
L 224.883324 678.846844 
L 269.974233 667.379428 
L 315.065142 661.219198 
L 360.156051 639.397649 
L 405.24696 633.772768 
L 450.337869 620.0869 
L 495.428778 612.594043 
L 540.519688 587.84396 
L 585.610597 559.028403 
L 630.701506 541.194594 
L 675.792415 510.442115 
L 720.883324 482.146697 
L 765.974233 444.392774 
L 811.065142 392.068508 
L 856.156051 326.462926 
L 901.24696 234.51676 
L 946.337869 64.318072 
" style="fill:none;stroke:#ae7181;stroke-linecap:square;stroke-width:1.5;"/>
    <defs>
     <path d="M -4.5 4.5 
L 4.5 4.5 
L 4.5 -4.5 
L -4.5 -4.5 
z
" id="m5e93082bfe" style="stroke:#000000;stroke-linejoin:miter;"/>
    </defs>
    <g clip-path="url(#p522ecfc02d)">
     <use style="fill:#ae7181;stroke:#000000;stroke-linejoin:miter;" x="134.701506" xlink:href="#m5e93082bfe" y="702.778019"/>
     <use style="fill:#ae7181;stroke:#000000;stroke-linejoin:miter;" x="179.792415" xlink:href="#m5e93082bfe" y="698.205247"/>
     <use style="fill:#ae7181;stroke:#000000;stroke-linejoin:miter;" x="224.883324" xlink:href="#m5e93082bfe" y="678.846844"/>
     <use style="fill:#ae7181;stroke:#000000;stroke-linejoin:miter;" x="269.974233" xlink:href="#m5e93082bfe" y="667.379428"/>
     <use style="fill:#ae7181;stroke:#000000;stroke-linejoin:miter;" x="315.065142" xlink:href="#m5e93082bfe" y="661.219198"/>
     <use style="fill:#ae7181;stroke:#000000;stroke-linejoin:miter;" x="360.156051" xlink:href="#m5e93082bfe" y="639.397649"/>
     <use style="fill:#ae7181;stroke:#000000;stroke-linejoin:miter;" x="405.24696" xlink:href="#m5e93082bfe" y="633.772768"/>
     <use style="fill:#ae7181;stroke:#000000;stroke-linejoin:miter;" x="450.337869" xlink:href="#m5e93082bfe" y="620.0869"/>
     <use style="fill:#ae7181;stroke:#000000;stroke-linejoin:miter;" x="495.428778" xlink:href="#m5e93082bfe" y="612.594043"/>
     <use style="fill:#ae7181;stroke:#000000;stroke-linejoin:miter;" x="540.519688" xlink:href="#m5e93082bfe" y="587.84396"/>
     <use style="fill:#ae7181;stroke:#000000;stroke-linejoin:miter;" x="585.610597" xlink:href="#m5e93082bfe" y="559.028403"/>
     <use style="fill:#ae7181;stroke:#000000;stroke-linejoin:miter;" x="630.701506" xlink:href="#m5e93082bfe" y="541.194594"/>
     <use style="fill:#ae7181;stroke:#000000;stroke-linejoin:miter;" x="675.792415" xlink:href="#m5e93082bfe" y="510.442115"/>
     <use style="fill:#ae7181;stroke:#000000;stroke-linejoin:miter;" x="720.883324" xlink:href="#m5e93082bfe" y="482.146697"/>
     <use style="fill:#ae7181;stroke:#000000;stroke-linejoin:miter;" x="765.974233" xlink:href="#m5e93082bfe" y="444.392774"/>
     <use style="fill:#ae7181;stroke:#000000;stroke-linejoin:miter;" x="811.065142" xlink:href="#m5e93082bfe" y="392.068508"/>
     <use style="fill:#ae7181;stroke:#000000;stroke-linejoin:miter;" x="856.156051" xlink:href="#m5e93082bfe" y="326.462926"/>
     <use style="fill:#ae7181;stroke:#000000;stroke-linejoin:miter;" x="901.24696" xlink:href="#m5e93082bfe" y="234.51676"/>
     <use style="fill:#ae7181;stroke:#000000;stroke-linejoin:miter;" x="946.337869" xlink:href="#m5e93082bfe" y="64.318072"/>
    </g>
   </g>
   <g id="line2d_27">
    <path clip-path="url(#p522ecfc02d)" d="M 134.701506 888.543394 
L 179.792415 884.410663 
L 224.883324 870.095489 
L 269.974233 859.832608 
L 315.065142 854.15399 
L 360.156051 835.112943 
L 405.24696 831.4456 
L 450.337869 818.484683 
L 495.428778 813.382308 
L 540.519688 791.091653 
L 585.610597 767.601194 
L 630.701506 752.668543 
L 675.792415 726.080227 
L 720.883324 703.591857 
L 765.974233 671.985996 
L 811.065142 626.185618 
L 856.156051 572.919421 
L 901.24696 497.972272 
L 946.337869 361.706049 
" style="fill:none;stroke:#ff9408;stroke-linecap:square;stroke-width:1.5;"/>
    <defs>
     <path d="M -1.5 4.5 
L 1.5 4.5 
L 1.5 1.5 
L 4.5 1.5 
L 4.5 -1.5 
L 1.5 -1.5 
L 1.5 -4.5 
L -1.5 -4.5 
L -1.5 -1.5 
L -4.5 -1.5 
L -4.5 1.5 
L -1.5 1.5 
z
" id="m47e84d05f5" style="stroke:#000000;stroke-linejoin:miter;"/>
    </defs>
    <g clip-path="url(#p522ecfc02d)">
     <use style="fill:#ff9408;stroke:#000000;stroke-linejoin:miter;" x="134.701506" xlink:href="#m47e84d05f5" y="888.543394"/>
     <use style="fill:#ff9408;stroke:#000000;stroke-linejoin:miter;" x="179.792415" xlink:href="#m47e84d05f5" y="884.410663"/>
     <use style="fill:#ff9408;stroke:#000000;stroke-linejoin:miter;" x="224.883324" xlink:href="#m47e84d05f5" y="870.095489"/>
     <use style="fill:#ff9408;stroke:#000000;stroke-linejoin:miter;" x="269.974233" xlink:href="#m47e84d05f5" y="859.832608"/>
     <use style="fill:#ff9408;stroke:#000000;stroke-linejoin:miter;" x="315.065142" xlink:href="#m47e84d05f5" y="854.15399"/>
     <use style="fill:#ff9408;stroke:#000000;stroke-linejoin:miter;" x="360.156051" xlink:href="#m47e84d05f5" y="835.112943"/>
     <use style="fill:#ff9408;stroke:#000000;stroke-linejoin:miter;" x="405.24696" xlink:href="#m47e84d05f5" y="831.4456"/>
     <use style="fill:#ff9408;stroke:#000000;stroke-linejoin:miter;" x="450.337869" xlink:href="#m47e84d05f5" y="818.484683"/>
     <use style="fill:#ff9408;stroke:#000000;stroke-linejoin:miter;" x="495.428778" xlink:href="#m47e84d05f5" y="813.382308"/>
     <use style="fill:#ff9408;stroke:#000000;stroke-linejoin:miter;" x="540.519688" xlink:href="#m47e84d05f5" y="791.091653"/>
     <use style="fill:#ff9408;stroke:#000000;stroke-linejoin:miter;" x="585.610597" xlink:href="#m47e84d05f5" y="767.601194"/>
     <use style="fill:#ff9408;stroke:#000000;stroke-linejoin:miter;" x="630.701506" xlink:href="#m47e84d05f5" y="752.668543"/>
     <use style="fill:#ff9408;stroke:#000000;stroke-linejoin:miter;" x="675.792415" xlink:href="#m47e84d05f5" y="726.080227"/>
     <use style="fill:#ff9408;stroke:#000000;stroke-linejoin:miter;" x="720.883324" xlink:href="#m47e84d05f5" y="703.591857"/>
     <use style="fill:#ff9408;stroke:#000000;stroke-linejoin:miter;" x="765.974233" xlink:href="#m47e84d05f5" y="671.985996"/>
     <use style="fill:#ff9408;stroke:#000000;stroke-linejoin:miter;" x="811.065142" xlink:href="#m47e84d05f5" y="626.185618"/>
     <use style="fill:#ff9408;stroke:#000000;stroke-linejoin:miter;" x="856.156051" xlink:href="#m47e84d05f5" y="572.919421"/>
     <use style="fill:#ff9408;stroke:#000000;stroke-linejoin:miter;" x="901.24696" xlink:href="#m47e84d05f5" y="497.972272"/>
     <use style="fill:#ff9408;stroke:#000000;stroke-linejoin:miter;" x="946.337869" xlink:href="#m47e84d05f5" y="361.706049"/>
    </g>
   </g>
   <g id="line2d_28">
    <path clip-path="url(#p522ecfc02d)" d="M 134.701506 893.630898 
L 179.792415 890.27618 
L 224.883324 875.481085 
L 269.974233 866.735364 
L 315.065142 861.525514 
L 360.156051 843.675482 
L 405.24696 840.046669 
L 450.337869 828.344024 
L 495.428778 823.149383 
L 540.519688 802.631057 
L 585.610597 780.694935 
L 630.701506 766.808648 
L 675.792415 742.64123 
L 720.883324 721.750457 
L 765.974233 692.397185 
L 811.065142 651.207431 
L 856.156051 602.166232 
L 901.24696 534.259731 
L 946.337869 409.40651 
" style="fill:none;stroke:#ff81c0;stroke-linecap:square;stroke-width:1.5;"/>
    <defs>
     <path d="M 0 -4.5 
L -1.010313 -1.390576 
L -4.279754 -1.390576 
L -1.634721 0.531153 
L -2.645034 3.640576 
L -0 1.718847 
L 2.645034 3.640576 
L 1.634721 0.531153 
L 4.279754 -1.390576 
L 1.010313 -1.390576 
z
" id="m749a9be5d4" style="stroke:#000000;stroke-linejoin:bevel;"/>
    </defs>
    <g clip-path="url(#p522ecfc02d)">
     <use style="fill:#ff81c0;stroke:#000000;stroke-linejoin:bevel;" x="134.701506" xlink:href="#m749a9be5d4" y="893.630898"/>
     <use style="fill:#ff81c0;stroke:#000000;stroke-linejoin:bevel;" x="179.792415" xlink:href="#m749a9be5d4" y="890.27618"/>
     <use style="fill:#ff81c0;stroke:#000000;stroke-linejoin:bevel;" x="224.883324" xlink:href="#m749a9be5d4" y="875.481085"/>
     <use style="fill:#ff81c0;stroke:#000000;stroke-linejoin:bevel;" x="269.974233" xlink:href="#m749a9be5d4" y="866.735364"/>
     <use style="fill:#ff81c0;stroke:#000000;stroke-linejoin:bevel;" x="315.065142" xlink:href="#m749a9be5d4" y="861.525514"/>
     <use style="fill:#ff81c0;stroke:#000000;stroke-linejoin:bevel;" x="360.156051" xlink:href="#m749a9be5d4" y="843.675482"/>
     <use style="fill:#ff81c0;stroke:#000000;stroke-linejoin:bevel;" x="405.24696" xlink:href="#m749a9be5d4" y="840.046669"/>
     <use style="fill:#ff81c0;stroke:#000000;stroke-linejoin:bevel;" x="450.337869" xlink:href="#m749a9be5d4" y="828.344024"/>
     <use style="fill:#ff81c0;stroke:#000000;stroke-linejoin:bevel;" x="495.428778" xlink:href="#m749a9be5d4" y="823.149383"/>
     <use style="fill:#ff81c0;stroke:#000000;stroke-linejoin:bevel;" x="540.519688" xlink:href="#m749a9be5d4" y="802.631057"/>
     <use style="fill:#ff81c0;stroke:#000000;stroke-linejoin:bevel;" x="585.610597" xlink:href="#m749a9be5d4" y="780.694935"/>
     <use style="fill:#ff81c0;stroke:#000000;stroke-linejoin:bevel;" x="630.701506" xlink:href="#m749a9be5d4" y="766.808648"/>
     <use style="fill:#ff81c0;stroke:#000000;stroke-linejoin:bevel;" x="675.792415" xlink:href="#m749a9be5d4" y="742.64123"/>
     <use style="fill:#ff81c0;stroke:#000000;stroke-linejoin:bevel;" x="720.883324" xlink:href="#m749a9be5d4" y="721.750457"/>
     <use style="fill:#ff81c0;stroke:#000000;stroke-linejoin:bevel;" x="765.974233" xlink:href="#m749a9be5d4" y="692.397185"/>
     <use style="fill:#ff81c0;stroke:#000000;stroke-linejoin:bevel;" x="811.065142" xlink:href="#m749a9be5d4" y="651.207431"/>
     <use style="fill:#ff81c0;stroke:#000000;stroke-linejoin:bevel;" x="856.156051" xlink:href="#m749a9be5d4" y="602.166232"/>
     <use style="fill:#ff81c0;stroke:#000000;stroke-linejoin:bevel;" x="901.24696" xlink:href="#m749a9be5d4" y="534.259731"/>
     <use style="fill:#ff81c0;stroke:#000000;stroke-linejoin:bevel;" x="946.337869" xlink:href="#m749a9be5d4" y="409.40651"/>
    </g>
   </g>
   <g id="patch_3">
    <path d="M 94.119688 1005.12 
L 94.119688 7.2 
" style="fill:none;stroke:#000000;stroke-linecap:square;stroke-linejoin:miter;stroke-width:0.8;"/>
   </g>
   <g id="patch_4">
    <path d="M 986.919688 1005.12 
L 986.919688 7.2 
" style="fill:none;stroke:#000000;stroke-linecap:square;stroke-linejoin:miter;stroke-width:0.8;"/>
   </g>
   <g id="patch_5">
    <path d="M 94.119688 1005.12 
L 986.919688 1005.12 
" style="fill:none;stroke:#000000;stroke-linecap:square;stroke-linejoin:miter;stroke-width:0.8;"/>
   </g>
   <g id="patch_6">
    <path d="M 94.119688 7.2 
L 986.919688 7.2 
" style="fill:none;stroke:#000000;stroke-linecap:square;stroke-linejoin:miter;stroke-width:0.8;"/>
   </g>
  </g>
 </g>
 <defs>
  <clipPath id="p522ecfc02d">
   <rect height="997.92" width="892.8" x="94.119688" y="7.2"/>
  </clipPath>
 </defs>
</svg>
