<?xml version="1.0" encoding="utf-8" standalone="no"?>
<!DOCTYPE svg PUBLIC "-//W3C//DTD SVG 1.1//EN"
  "http://www.w3.org/Graphics/SVG/1.1/DTD/svg11.dtd">
<svg height="1090.099062pt" version="1.1" viewBox="0 0 994.119687 1090.099062" width="994.119687pt" xmlns="http://www.w3.org/2000/svg" xmlns:xlink="http://www.w3.org/1999/xlink">
 <metadata>
  <rdf:RDF xmlns:cc="http://creativecommons.org/ns#" xmlns:dc="http://purl.org/dc/elements/1.1/" xmlns:rdf="http://www.w3.org/1999/02/22-rdf-syntax-ns#">
   <cc:Work>
    <dc:type rdf:resource="http://purl.org/dc/dcmitype/StillImage"/>
    <dc:date>2021-06-24T16:46:32.557602</dc:date>
    <dc:format>image/svg+xml</dc:format>
    <dc:creator>
     <cc:Agent>
      <dc:title>Matplotlib v3.4.2, https://matplotlib.org/</dc:title>
     </cc:Agent>
    </dc:creator>
   </cc:Work>
  </rdf:RDF>
 </metadata>
 <defs>
  <style type="text/css">*{stroke-linecap:butt;stroke-linejoin:round;}</style>
 </defs>
 <g id="figure_1">
  <g id="patch_1">
   <path d="M 0 1090.099062 
L 994.119687 1090.099062 
L 994.119687 0 
L 0 0 
z
" style="fill:#ffffff;"/>
  </g>
  <g id="axes_1">
   <g id="patch_2">
    <path d="M 94.119688 1005.12 
L 986.919688 1005.12 
L 986.919688 7.2 
L 94.119688 7.2 
z
" style="fill:#ffffff;"/>
   </g>
   <g id="PolyCollection_1">
    <defs>
     <path d="M 134.701506 -284.672239 
L 134.701506 -268.263438 
L 177.419209 -325.629641 
L 220.136912 -362.323339 
L 262.854616 -377.181703 
L 305.572319 -401.730304 
L 348.290022 -417.363886 
L 391.007726 -415.167433 
L 433.725429 -429.508983 
L 476.443132 -435.969142 
L 519.160836 -457.15846 
L 561.878539 -458.062882 
L 604.596243 -447.080613 
L 647.313946 -471.370808 
L 690.031649 -481.707061 
L 732.749353 -481.190248 
L 775.467056 -482.353077 
L 818.184759 -493.981361 
L 860.902463 -490.105266 
L 903.620166 -492.430923 
L 946.337869 -504.188411 
L 946.337869 -537.26442 
L 946.337869 -537.26442 
L 903.620166 -528.349402 
L 860.902463 -520.855619 
L 818.184759 -530.804262 
L 775.467056 -527.961793 
L 732.749353 -514.007851 
L 690.031649 -511.036179 
L 647.313946 -503.025582 
L 604.596243 -491.784907 
L 561.878539 -503.800801 
L 519.160836 -478.864591 
L 476.443132 -481.577858 
L 433.725429 -458.967304 
L 391.007726 -437.777986 
L 348.290022 -441.008065 
L 305.572319 -426.666514 
L 262.854616 -401.084288 
L 220.136912 -377.181703 
L 177.419209 -359.997682 
L 134.701506 -284.672239 
z
" id="m97e481b16c" style="stroke:#fe0002;stroke-opacity:0.3;"/>
    </defs>
    <g clip-path="url(#pd1adc0326e)">
     <use style="fill:#fe0002;fill-opacity:0.3;stroke:#fe0002;stroke-opacity:0.3;" x="0" xlink:href="#m97e481b16c" y="1090.099062"/>
    </g>
   </g>
   <g id="PolyCollection_2">
    <g clip-path="url(#pd1adc0326e)">
     <use style="fill:#fe0002;fill-opacity:0.3;stroke:#fe0002;stroke-opacity:0.3;" x="0" xlink:href="#m97e481b16c" y="1090.099062"/>
    </g>
   </g>
   <g id="PolyCollection_3">
    <defs>
     <path d="M 134.701506 -566.205929 
L 134.701506 -549.538721 
L 177.419209 -630.549103 
L 220.136912 -672.669334 
L 262.854616 -703.16128 
L 305.572319 -735.720477 
L 348.290022 -762.982344 
L 391.007726 -774.352222 
L 433.725429 -807.428231 
L 476.443132 -798.38401 
L 519.160836 -820.736157 
L 561.878539 -817.118469 
L 604.596243 -829.134363 
L 647.313946 -852.778541 
L 690.031649 -855.233401 
L 732.749353 -854.974995 
L 775.467056 -869.445749 
L 818.184759 -881.720049 
L 860.902463 -886.758973 
L 903.620166 -875.259891 
L 946.337869 -891.15188 
L 946.337869 -934.822549 
L 946.337869 -934.822549 
L 903.620166 -918.155341 
L 860.902463 -922.548249 
L 818.184759 -917.121716 
L 775.467056 -908.077494 
L 732.749353 -904.072196 
L 690.031649 -886.500566 
L 647.313946 -881.461643 
L 604.596243 -877.327142 
L 561.878539 -876.42272 
L 519.160836 -858.721887 
L 476.443132 -847.093602 
L 433.725429 -838.953803 
L 391.007726 -812.079545 
L 348.290022 -800.709667 
L 305.572319 -766.987642 
L 262.854616 -733.653226 
L 220.136912 -714.143549 
L 177.419209 -669.439255 
L 134.701506 -566.205929 
z
" id="mc928f81cd4" style="stroke:#53fca1;stroke-opacity:0.3;"/>
    </defs>
    <g clip-path="url(#pd1adc0326e)">
     <use style="fill:#53fca1;fill-opacity:0.3;stroke:#53fca1;stroke-opacity:0.3;" x="0" xlink:href="#mc928f81cd4" y="1090.099062"/>
    </g>
   </g>
   <g id="PolyCollection_4">
    <defs>
     <path d="M 134.701506 -156.3735 
L 134.701506 -145.520434 
L 177.419209 -190.741541 
L 220.136912 -214.127313 
L 262.854616 -228.468864 
L 305.572319 -238.805117 
L 348.290022 -257.022763 
L 391.007726 -261.544873 
L 433.725429 -281.82977 
L 476.443132 -280.020925 
L 519.160836 -291.2616 
L 561.878539 -290.227975 
L 604.596243 -295.008492 
L 647.313946 -305.603151 
L 690.031649 -305.861558 
L 732.749353 -306.249167 
L 775.467056 -311.158887 
L 818.184759 -320.719921 
L 860.902463 -324.983626 
L 903.620166 -315.551795 
L 946.337869 -328.988924 
L 946.337869 -351.987086 
L 946.337869 -351.987086 
L 903.620166 -339.45438 
L 860.902463 -340.488005 
L 818.184759 -337.774739 
L 775.467056 -334.803066 
L 732.749353 -335.319879 
L 690.031649 -321.88275 
L 647.313946 -319.815499 
L 604.596243 -318.523468 
L 561.878539 -319.686296 
L 519.160836 -304.698729 
L 476.443132 -305.473948 
L 433.725429 -297.980165 
L 391.007726 -284.155427 
L 348.290022 -275.240408 
L 305.572319 -259.606826 
L 262.854616 -243.84404 
L 220.136912 -232.990974 
L 177.419209 -204.953888 
L 134.701506 -156.3735 
z
" id="m4ec1e7d437" style="stroke:#53fca1;stroke-opacity:0.3;"/>
    </defs>
    <g clip-path="url(#pd1adc0326e)">
     <use style="fill:#53fca1;fill-opacity:0.3;stroke:#53fca1;stroke-opacity:0.3;" x="0" xlink:href="#m4ec1e7d437" y="1090.099062"/>
    </g>
   </g>
   <g id="PolyCollection_5">
    <defs>
     <path d="M 134.701506 -608.584566 
L 134.701506 -568.789992 
L 177.419209 -669.956067 
L 220.136912 -708.717016 
L 262.854616 -742.955854 
L 305.572319 -776.548676 
L 348.290022 -798.38401 
L 391.007726 -817.506078 
L 433.725429 -835.336114 
L 476.443132 -837.015756 
L 519.160836 -872.417422 
L 561.878539 -876.939532 
L 604.596243 -871.383797 
L 647.313946 -902.909368 
L 690.031649 -900.325305 
L 732.749353 -918.413747 
L 775.467056 -926.165937 
L 818.184759 -940.249082 
L 860.902463 -933.272111 
L 903.620166 -941.024301 
L 946.337869 -949.034897 
L 946.337869 -975.392342 
L 946.337869 -975.392342 
L 903.620166 -980.818875 
L 860.902463 -980.431265 
L 818.184759 -976.038358 
L 775.467056 -977.847202 
L 732.749353 -941.670317 
L 690.031649 -960.533978 
L 647.313946 -924.357093 
L 604.596243 -925.778328 
L 561.878539 -929.008407 
L 519.160836 -910.661558 
L 476.443132 -906.010244 
L 433.725429 -878.48997 
L 391.007726 -864.923638 
L 348.290022 -842.183882 
L 305.572319 -813.371577 
L 262.854616 -777.453098 
L 220.136912 -752.258481 
L 177.419209 -700.189607 
L 134.701506 -608.584566 
z
" id="m74da23186b" style="stroke:#0652ff;stroke-opacity:0.3;"/>
    </defs>
    <g clip-path="url(#pd1adc0326e)">
     <use style="fill:#0652ff;fill-opacity:0.3;stroke:#0652ff;stroke-opacity:0.3;" x="0" xlink:href="#m74da23186b" y="1090.099062"/>
    </g>
   </g>
   <g id="PolyCollection_6">
    <defs>
     <path d="M 134.701506 -209.863609 
L 134.701506 -190.999947 
L 177.419209 -241.518383 
L 220.136912 -261.028061 
L 262.854616 -278.9873 
L 305.572319 -291.520007 
L 348.290022 -305.086339 
L 391.007726 -315.164185 
L 433.725429 -324.208407 
L 476.443132 -326.40486 
L 519.160836 -345.139319 
L 561.878539 -344.880913 
L 604.596243 -344.880913 
L 647.313946 -361.54812 
L 690.031649 -357.284416 
L 732.749353 -369.946326 
L 775.467056 -371.109154 
L 818.184759 -379.894969 
L 860.902463 -372.401186 
L 903.620166 -376.148078 
L 946.337869 -381.57461 
L 946.337869 -396.174568 
L 946.337869 -396.174568 
L 903.620166 -400.955085 
L 860.902463 -397.983412 
L 818.184759 -396.562177 
L 775.467056 -402.117913 
L 732.749353 -382.608236 
L 690.031649 -394.62413 
L 647.313946 -373.434811 
L 604.596243 -372.788795 
L 561.878539 -373.434811 
L 519.160836 -365.295012 
L 476.443132 -364.39059 
L 433.725429 -355.346369 
L 391.007726 -340.875615 
L 348.290022 -330.022549 
L 305.572319 -314.001357 
L 262.854616 -299.272196 
L 220.136912 -284.672239 
L 177.419209 -259.994435 
L 134.701506 -209.863609 
z
" id="m4e441d11a1" style="stroke:#0652ff;stroke-opacity:0.3;"/>
    </defs>
    <g clip-path="url(#pd1adc0326e)">
     <use style="fill:#0652ff;fill-opacity:0.3;stroke:#0652ff;stroke-opacity:0.3;" x="0" xlink:href="#m4e441d11a1" y="1090.099062"/>
    </g>
   </g>
   <g id="PolyCollection_7">
    <defs>
     <path d="M 134.701506 -768.796486 
L 134.701506 -741.405416 
L 177.419209 -826.808706 
L 220.136912 -849.677665 
L 262.854616 -880.040408 
L 305.572319 -913.762434 
L 348.290022 -929.396016 
L 391.007726 -931.980079 
L 433.725429 -956.141071 
L 476.443132 -966.994136 
L 519.160836 -971.257841 
L 561.878539 -965.702105 
L 604.596243 -961.82601 
L 647.313946 -974.48792 
L 690.031649 -983.91975 
L 732.749353 -983.402938 
L 775.467056 -989.863096 
L 818.184759 -994.643613 
L 860.902463 -994.385206 
L 903.620166 -989.992299 
L 946.337869 -985.340985 
L 946.337869 -1035.471812 
L 946.337869 -1035.471812 
L 903.620166 -1022.422293 
L 860.902463 -1027.332013 
L 818.184759 -1027.590419 
L 775.467056 -1037.539062 
L 732.749353 -1026.8152 
L 690.031649 -1015.962134 
L 647.313946 -1008.080742 
L 604.596243 -1013.894884 
L 561.878539 -1008.339148 
L 519.160836 -1011.052414 
L 476.443132 -989.60469 
L 433.725429 -994.385206 
L 391.007726 -964.151667 
L 348.290022 -975.263139 
L 305.572319 -946.967646 
L 262.854616 -921.256217 
L 220.136912 -891.281083 
L 177.419209 -855.491808 
L 134.701506 -768.796486 
z
" id="m8816523a69" style="stroke:#ae7181;stroke-opacity:0.3;"/>
    </defs>
    <g clip-path="url(#pd1adc0326e)">
     <use style="fill:#ae7181;fill-opacity:0.3;stroke:#ae7181;stroke-opacity:0.3;" x="0" xlink:href="#m8816523a69" y="1090.099062"/>
    </g>
   </g>
   <g id="PolyCollection_8">
    <defs>
     <path d="M 134.701506 -144.034598 
L 134.701506 -130.339063 
L 177.419209 -173.040707 
L 220.136912 -184.475187 
L 262.854616 -199.656559 
L 305.572319 -216.517571 
L 348.290022 -224.334363 
L 391.007726 -225.626394 
L 433.725429 -237.70689 
L 476.443132 -243.133423 
L 519.160836 -245.265275 
L 561.878539 -242.487407 
L 604.596243 -240.549359 
L 647.313946 -246.880314 
L 690.031649 -251.59623 
L 732.749353 -251.337823 
L 775.467056 -254.567902 
L 818.184759 -256.958161 
L 860.902463 -256.828958 
L 903.620166 -254.632504 
L 946.337869 -252.306847 
L 946.337869 -277.372261 
L 946.337869 -277.372261 
L 903.620166 -270.847501 
L 860.902463 -273.302361 
L 818.184759 -273.431564 
L 775.467056 -278.405886 
L 732.749353 -273.043955 
L 690.031649 -267.617422 
L 647.313946 -263.676725 
L 604.596243 -266.583797 
L 561.878539 -263.805929 
L 519.160836 -265.162562 
L 476.443132 -254.438699 
L 433.725429 -256.828958 
L 391.007726 -241.712188 
L 348.290022 -247.267924 
L 305.572319 -233.120178 
L 262.854616 -220.264463 
L 220.136912 -205.276896 
L 177.419209 -187.382258 
L 134.701506 -144.034598 
z
" id="m6ef848dc56" style="stroke:#ae7181;stroke-opacity:0.3;"/>
    </defs>
    <g clip-path="url(#pd1adc0326e)">
     <use style="fill:#ae7181;fill-opacity:0.3;stroke:#ae7181;stroke-opacity:0.3;" x="0" xlink:href="#m6ef848dc56" y="1090.099062"/>
    </g>
   </g>
   <g id="matplotlib.axis_1">
    <g id="xtick_1">
     <g id="line2d_1">
      <path clip-path="url(#pd1adc0326e)" d="M 262.854616 1005.12 
L 262.854616 7.2 
" style="fill:none;stroke:#b0b0b0;stroke-linecap:square;stroke-width:0.8;"/>
     </g>
     <g id="line2d_2">
      <defs>
       <path d="M 0 0 
L 0 3.5 
" id="m0cce099bfb" style="stroke:#000000;stroke-width:0.8;"/>
      </defs>
      <g>
       <use style="stroke:#000000;stroke-width:0.8;" x="262.854616" xlink:href="#m0cce099bfb" y="1005.12"/>
      </g>
     </g>
     <g id="text_1">
      <!-- 0.2 -->
      <g transform="translate(238.999928 1034.915313)scale(0.3 -0.3)">
       <defs>
        <path d="M 2034 4250 
Q 1547 4250 1301 3770 
Q 1056 3291 1056 2328 
Q 1056 1369 1301 889 
Q 1547 409 2034 409 
Q 2525 409 2770 889 
Q 3016 1369 3016 2328 
Q 3016 3291 2770 3770 
Q 2525 4250 2034 4250 
z
M 2034 4750 
Q 2819 4750 3233 4129 
Q 3647 3509 3647 2328 
Q 3647 1150 3233 529 
Q 2819 -91 2034 -91 
Q 1250 -91 836 529 
Q 422 1150 422 2328 
Q 422 3509 836 4129 
Q 1250 4750 2034 4750 
z
" id="DejaVuSans-30" transform="scale(0.015625)"/>
        <path d="M 684 794 
L 1344 794 
L 1344 0 
L 684 0 
L 684 794 
z
" id="DejaVuSans-2e" transform="scale(0.015625)"/>
        <path d="M 1228 531 
L 3431 531 
L 3431 0 
L 469 0 
L 469 531 
Q 828 903 1448 1529 
Q 2069 2156 2228 2338 
Q 2531 2678 2651 2914 
Q 2772 3150 2772 3378 
Q 2772 3750 2511 3984 
Q 2250 4219 1831 4219 
Q 1534 4219 1204 4116 
Q 875 4013 500 3803 
L 500 4441 
Q 881 4594 1212 4672 
Q 1544 4750 1819 4750 
Q 2544 4750 2975 4387 
Q 3406 4025 3406 3419 
Q 3406 3131 3298 2873 
Q 3191 2616 2906 2266 
Q 2828 2175 2409 1742 
Q 1991 1309 1228 531 
z
" id="DejaVuSans-32" transform="scale(0.015625)"/>
       </defs>
       <use xlink:href="#DejaVuSans-30"/>
       <use x="63.623047" xlink:href="#DejaVuSans-2e"/>
       <use x="95.410156" xlink:href="#DejaVuSans-32"/>
      </g>
     </g>
    </g>
    <g id="xtick_2">
     <g id="line2d_3">
      <path clip-path="url(#pd1adc0326e)" d="M 433.725429 1005.12 
L 433.725429 7.2 
" style="fill:none;stroke:#b0b0b0;stroke-linecap:square;stroke-width:0.8;"/>
     </g>
     <g id="line2d_4">
      <g>
       <use style="stroke:#000000;stroke-width:0.8;" x="433.725429" xlink:href="#m0cce099bfb" y="1005.12"/>
      </g>
     </g>
     <g id="text_2">
      <!-- 0.4 -->
      <g transform="translate(409.870742 1034.915313)scale(0.3 -0.3)">
       <defs>
        <path d="M 2419 4116 
L 825 1625 
L 2419 1625 
L 2419 4116 
z
M 2253 4666 
L 3047 4666 
L 3047 1625 
L 3713 1625 
L 3713 1100 
L 3047 1100 
L 3047 0 
L 2419 0 
L 2419 1100 
L 313 1100 
L 313 1709 
L 2253 4666 
z
" id="DejaVuSans-34" transform="scale(0.015625)"/>
       </defs>
       <use xlink:href="#DejaVuSans-30"/>
       <use x="63.623047" xlink:href="#DejaVuSans-2e"/>
       <use x="95.410156" xlink:href="#DejaVuSans-34"/>
      </g>
     </g>
    </g>
    <g id="xtick_3">
     <g id="line2d_5">
      <path clip-path="url(#pd1adc0326e)" d="M 604.596243 1005.12 
L 604.596243 7.2 
" style="fill:none;stroke:#b0b0b0;stroke-linecap:square;stroke-width:0.8;"/>
     </g>
     <g id="line2d_6">
      <g>
       <use style="stroke:#000000;stroke-width:0.8;" x="604.596243" xlink:href="#m0cce099bfb" y="1005.12"/>
      </g>
     </g>
     <g id="text_3">
      <!-- 0.6 -->
      <g transform="translate(580.741555 1034.915313)scale(0.3 -0.3)">
       <defs>
        <path d="M 2113 2584 
Q 1688 2584 1439 2293 
Q 1191 2003 1191 1497 
Q 1191 994 1439 701 
Q 1688 409 2113 409 
Q 2538 409 2786 701 
Q 3034 994 3034 1497 
Q 3034 2003 2786 2293 
Q 2538 2584 2113 2584 
z
M 3366 4563 
L 3366 3988 
Q 3128 4100 2886 4159 
Q 2644 4219 2406 4219 
Q 1781 4219 1451 3797 
Q 1122 3375 1075 2522 
Q 1259 2794 1537 2939 
Q 1816 3084 2150 3084 
Q 2853 3084 3261 2657 
Q 3669 2231 3669 1497 
Q 3669 778 3244 343 
Q 2819 -91 2113 -91 
Q 1303 -91 875 529 
Q 447 1150 447 2328 
Q 447 3434 972 4092 
Q 1497 4750 2381 4750 
Q 2619 4750 2861 4703 
Q 3103 4656 3366 4563 
z
" id="DejaVuSans-36" transform="scale(0.015625)"/>
       </defs>
       <use xlink:href="#DejaVuSans-30"/>
       <use x="63.623047" xlink:href="#DejaVuSans-2e"/>
       <use x="95.410156" xlink:href="#DejaVuSans-36"/>
      </g>
     </g>
    </g>
    <g id="xtick_4">
     <g id="line2d_7">
      <path clip-path="url(#pd1adc0326e)" d="M 775.467056 1005.12 
L 775.467056 7.2 
" style="fill:none;stroke:#b0b0b0;stroke-linecap:square;stroke-width:0.8;"/>
     </g>
     <g id="line2d_8">
      <g>
       <use style="stroke:#000000;stroke-width:0.8;" x="775.467056" xlink:href="#m0cce099bfb" y="1005.12"/>
      </g>
     </g>
     <g id="text_4">
      <!-- 0.8 -->
      <g transform="translate(751.612368 1034.915313)scale(0.3 -0.3)">
       <defs>
        <path d="M 2034 2216 
Q 1584 2216 1326 1975 
Q 1069 1734 1069 1313 
Q 1069 891 1326 650 
Q 1584 409 2034 409 
Q 2484 409 2743 651 
Q 3003 894 3003 1313 
Q 3003 1734 2745 1975 
Q 2488 2216 2034 2216 
z
M 1403 2484 
Q 997 2584 770 2862 
Q 544 3141 544 3541 
Q 544 4100 942 4425 
Q 1341 4750 2034 4750 
Q 2731 4750 3128 4425 
Q 3525 4100 3525 3541 
Q 3525 3141 3298 2862 
Q 3072 2584 2669 2484 
Q 3125 2378 3379 2068 
Q 3634 1759 3634 1313 
Q 3634 634 3220 271 
Q 2806 -91 2034 -91 
Q 1263 -91 848 271 
Q 434 634 434 1313 
Q 434 1759 690 2068 
Q 947 2378 1403 2484 
z
M 1172 3481 
Q 1172 3119 1398 2916 
Q 1625 2713 2034 2713 
Q 2441 2713 2670 2916 
Q 2900 3119 2900 3481 
Q 2900 3844 2670 4047 
Q 2441 4250 2034 4250 
Q 1625 4250 1398 4047 
Q 1172 3844 1172 3481 
z
" id="DejaVuSans-38" transform="scale(0.015625)"/>
       </defs>
       <use xlink:href="#DejaVuSans-30"/>
       <use x="63.623047" xlink:href="#DejaVuSans-2e"/>
       <use x="95.410156" xlink:href="#DejaVuSans-38"/>
      </g>
     </g>
    </g>
    <g id="xtick_5">
     <g id="line2d_9">
      <path clip-path="url(#pd1adc0326e)" d="M 946.337869 1005.12 
L 946.337869 7.2 
" style="fill:none;stroke:#b0b0b0;stroke-linecap:square;stroke-width:0.8;"/>
     </g>
     <g id="line2d_10">
      <g>
       <use style="stroke:#000000;stroke-width:0.8;" x="946.337869" xlink:href="#m0cce099bfb" y="1005.12"/>
      </g>
     </g>
     <g id="text_5">
      <!-- 1.0 -->
      <g transform="translate(922.483182 1034.915313)scale(0.3 -0.3)">
       <defs>
        <path d="M 794 531 
L 1825 531 
L 1825 4091 
L 703 3866 
L 703 4441 
L 1819 4666 
L 2450 4666 
L 2450 531 
L 3481 531 
L 3481 0 
L 794 0 
L 794 531 
z
" id="DejaVuSans-31" transform="scale(0.015625)"/>
       </defs>
       <use xlink:href="#DejaVuSans-31"/>
       <use x="63.623047" xlink:href="#DejaVuSans-2e"/>
       <use x="95.410156" xlink:href="#DejaVuSans-30"/>
      </g>
     </g>
    </g>
    <g id="text_6">
     <!-- Edge probability -->
     <g transform="translate(381.207734 1074.788281)scale(0.39 -0.39)">
      <defs>
       <path d="M 628 4666 
L 3578 4666 
L 3578 4134 
L 1259 4134 
L 1259 2753 
L 3481 2753 
L 3481 2222 
L 1259 2222 
L 1259 531 
L 3634 531 
L 3634 0 
L 628 0 
L 628 4666 
z
" id="DejaVuSans-45" transform="scale(0.015625)"/>
       <path d="M 2906 2969 
L 2906 4863 
L 3481 4863 
L 3481 0 
L 2906 0 
L 2906 525 
Q 2725 213 2448 61 
Q 2172 -91 1784 -91 
Q 1150 -91 751 415 
Q 353 922 353 1747 
Q 353 2572 751 3078 
Q 1150 3584 1784 3584 
Q 2172 3584 2448 3432 
Q 2725 3281 2906 2969 
z
M 947 1747 
Q 947 1113 1208 752 
Q 1469 391 1925 391 
Q 2381 391 2643 752 
Q 2906 1113 2906 1747 
Q 2906 2381 2643 2742 
Q 2381 3103 1925 3103 
Q 1469 3103 1208 2742 
Q 947 2381 947 1747 
z
" id="DejaVuSans-64" transform="scale(0.015625)"/>
       <path d="M 2906 1791 
Q 2906 2416 2648 2759 
Q 2391 3103 1925 3103 
Q 1463 3103 1205 2759 
Q 947 2416 947 1791 
Q 947 1169 1205 825 
Q 1463 481 1925 481 
Q 2391 481 2648 825 
Q 2906 1169 2906 1791 
z
M 3481 434 
Q 3481 -459 3084 -895 
Q 2688 -1331 1869 -1331 
Q 1566 -1331 1297 -1286 
Q 1028 -1241 775 -1147 
L 775 -588 
Q 1028 -725 1275 -790 
Q 1522 -856 1778 -856 
Q 2344 -856 2625 -561 
Q 2906 -266 2906 331 
L 2906 616 
Q 2728 306 2450 153 
Q 2172 0 1784 0 
Q 1141 0 747 490 
Q 353 981 353 1791 
Q 353 2603 747 3093 
Q 1141 3584 1784 3584 
Q 2172 3584 2450 3431 
Q 2728 3278 2906 2969 
L 2906 3500 
L 3481 3500 
L 3481 434 
z
" id="DejaVuSans-67" transform="scale(0.015625)"/>
       <path d="M 3597 1894 
L 3597 1613 
L 953 1613 
Q 991 1019 1311 708 
Q 1631 397 2203 397 
Q 2534 397 2845 478 
Q 3156 559 3463 722 
L 3463 178 
Q 3153 47 2828 -22 
Q 2503 -91 2169 -91 
Q 1331 -91 842 396 
Q 353 884 353 1716 
Q 353 2575 817 3079 
Q 1281 3584 2069 3584 
Q 2775 3584 3186 3129 
Q 3597 2675 3597 1894 
z
M 3022 2063 
Q 3016 2534 2758 2815 
Q 2500 3097 2075 3097 
Q 1594 3097 1305 2825 
Q 1016 2553 972 2059 
L 3022 2063 
z
" id="DejaVuSans-65" transform="scale(0.015625)"/>
       <path id="DejaVuSans-20" transform="scale(0.015625)"/>
       <path d="M 1159 525 
L 1159 -1331 
L 581 -1331 
L 581 3500 
L 1159 3500 
L 1159 2969 
Q 1341 3281 1617 3432 
Q 1894 3584 2278 3584 
Q 2916 3584 3314 3078 
Q 3713 2572 3713 1747 
Q 3713 922 3314 415 
Q 2916 -91 2278 -91 
Q 1894 -91 1617 61 
Q 1341 213 1159 525 
z
M 3116 1747 
Q 3116 2381 2855 2742 
Q 2594 3103 2138 3103 
Q 1681 3103 1420 2742 
Q 1159 2381 1159 1747 
Q 1159 1113 1420 752 
Q 1681 391 2138 391 
Q 2594 391 2855 752 
Q 3116 1113 3116 1747 
z
" id="DejaVuSans-70" transform="scale(0.015625)"/>
       <path d="M 2631 2963 
Q 2534 3019 2420 3045 
Q 2306 3072 2169 3072 
Q 1681 3072 1420 2755 
Q 1159 2438 1159 1844 
L 1159 0 
L 581 0 
L 581 3500 
L 1159 3500 
L 1159 2956 
Q 1341 3275 1631 3429 
Q 1922 3584 2338 3584 
Q 2397 3584 2469 3576 
Q 2541 3569 2628 3553 
L 2631 2963 
z
" id="DejaVuSans-72" transform="scale(0.015625)"/>
       <path d="M 1959 3097 
Q 1497 3097 1228 2736 
Q 959 2375 959 1747 
Q 959 1119 1226 758 
Q 1494 397 1959 397 
Q 2419 397 2687 759 
Q 2956 1122 2956 1747 
Q 2956 2369 2687 2733 
Q 2419 3097 1959 3097 
z
M 1959 3584 
Q 2709 3584 3137 3096 
Q 3566 2609 3566 1747 
Q 3566 888 3137 398 
Q 2709 -91 1959 -91 
Q 1206 -91 779 398 
Q 353 888 353 1747 
Q 353 2609 779 3096 
Q 1206 3584 1959 3584 
z
" id="DejaVuSans-6f" transform="scale(0.015625)"/>
       <path d="M 3116 1747 
Q 3116 2381 2855 2742 
Q 2594 3103 2138 3103 
Q 1681 3103 1420 2742 
Q 1159 2381 1159 1747 
Q 1159 1113 1420 752 
Q 1681 391 2138 391 
Q 2594 391 2855 752 
Q 3116 1113 3116 1747 
z
M 1159 2969 
Q 1341 3281 1617 3432 
Q 1894 3584 2278 3584 
Q 2916 3584 3314 3078 
Q 3713 2572 3713 1747 
Q 3713 922 3314 415 
Q 2916 -91 2278 -91 
Q 1894 -91 1617 61 
Q 1341 213 1159 525 
L 1159 0 
L 581 0 
L 581 4863 
L 1159 4863 
L 1159 2969 
z
" id="DejaVuSans-62" transform="scale(0.015625)"/>
       <path d="M 2194 1759 
Q 1497 1759 1228 1600 
Q 959 1441 959 1056 
Q 959 750 1161 570 
Q 1363 391 1709 391 
Q 2188 391 2477 730 
Q 2766 1069 2766 1631 
L 2766 1759 
L 2194 1759 
z
M 3341 1997 
L 3341 0 
L 2766 0 
L 2766 531 
Q 2569 213 2275 61 
Q 1981 -91 1556 -91 
Q 1019 -91 701 211 
Q 384 513 384 1019 
Q 384 1609 779 1909 
Q 1175 2209 1959 2209 
L 2766 2209 
L 2766 2266 
Q 2766 2663 2505 2880 
Q 2244 3097 1772 3097 
Q 1472 3097 1187 3025 
Q 903 2953 641 2809 
L 641 3341 
Q 956 3463 1253 3523 
Q 1550 3584 1831 3584 
Q 2591 3584 2966 3190 
Q 3341 2797 3341 1997 
z
" id="DejaVuSans-61" transform="scale(0.015625)"/>
       <path d="M 603 3500 
L 1178 3500 
L 1178 0 
L 603 0 
L 603 3500 
z
M 603 4863 
L 1178 4863 
L 1178 4134 
L 603 4134 
L 603 4863 
z
" id="DejaVuSans-69" transform="scale(0.015625)"/>
       <path d="M 603 4863 
L 1178 4863 
L 1178 0 
L 603 0 
L 603 4863 
z
" id="DejaVuSans-6c" transform="scale(0.015625)"/>
       <path d="M 1172 4494 
L 1172 3500 
L 2356 3500 
L 2356 3053 
L 1172 3053 
L 1172 1153 
Q 1172 725 1289 603 
Q 1406 481 1766 481 
L 2356 481 
L 2356 0 
L 1766 0 
Q 1100 0 847 248 
Q 594 497 594 1153 
L 594 3053 
L 172 3053 
L 172 3500 
L 594 3500 
L 594 4494 
L 1172 4494 
z
" id="DejaVuSans-74" transform="scale(0.015625)"/>
       <path d="M 2059 -325 
Q 1816 -950 1584 -1140 
Q 1353 -1331 966 -1331 
L 506 -1331 
L 506 -850 
L 844 -850 
Q 1081 -850 1212 -737 
Q 1344 -625 1503 -206 
L 1606 56 
L 191 3500 
L 800 3500 
L 1894 763 
L 2988 3500 
L 3597 3500 
L 2059 -325 
z
" id="DejaVuSans-79" transform="scale(0.015625)"/>
      </defs>
      <use xlink:href="#DejaVuSans-45"/>
      <use x="63.183594" xlink:href="#DejaVuSans-64"/>
      <use x="126.660156" xlink:href="#DejaVuSans-67"/>
      <use x="190.136719" xlink:href="#DejaVuSans-65"/>
      <use x="251.660156" xlink:href="#DejaVuSans-20"/>
      <use x="283.447266" xlink:href="#DejaVuSans-70"/>
      <use x="346.923828" xlink:href="#DejaVuSans-72"/>
      <use x="385.787109" xlink:href="#DejaVuSans-6f"/>
      <use x="446.96875" xlink:href="#DejaVuSans-62"/>
      <use x="510.445312" xlink:href="#DejaVuSans-61"/>
      <use x="571.724609" xlink:href="#DejaVuSans-62"/>
      <use x="635.201172" xlink:href="#DejaVuSans-69"/>
      <use x="662.984375" xlink:href="#DejaVuSans-6c"/>
      <use x="690.767578" xlink:href="#DejaVuSans-69"/>
      <use x="718.550781" xlink:href="#DejaVuSans-74"/>
      <use x="757.759766" xlink:href="#DejaVuSans-79"/>
     </g>
    </g>
   </g>
   <g id="matplotlib.axis_2">
    <g id="ytick_1">
     <g id="line2d_11">
      <path clip-path="url(#pd1adc0326e)" d="M 94.119688 924.810545 
L 986.919688 924.810545 
" style="fill:none;stroke:#b0b0b0;stroke-linecap:square;stroke-width:0.8;"/>
     </g>
     <g id="line2d_12">
      <defs>
       <path d="M 0 0 
L -3.5 0 
" id="m6afbfc60ef" style="stroke:#000000;stroke-width:0.8;"/>
      </defs>
      <g>
       <use style="stroke:#000000;stroke-width:0.8;" x="94.119688" xlink:href="#m6afbfc60ef" y="924.810545"/>
      </g>
     </g>
     <g id="text_7">
      <!-- 10 -->
      <g transform="translate(48.944688 936.208201)scale(0.3 -0.3)">
       <use xlink:href="#DejaVuSans-31"/>
       <use x="63.623047" xlink:href="#DejaVuSans-30"/>
      </g>
     </g>
    </g>
    <g id="ytick_2">
     <g id="line2d_13">
      <path clip-path="url(#pd1adc0326e)" d="M 94.119688 795.607383 
L 986.919688 795.607383 
" style="fill:none;stroke:#b0b0b0;stroke-linecap:square;stroke-width:0.8;"/>
     </g>
     <g id="line2d_14">
      <g>
       <use style="stroke:#000000;stroke-width:0.8;" x="94.119688" xlink:href="#m6afbfc60ef" y="795.607383"/>
      </g>
     </g>
     <g id="text_8">
      <!-- 12 -->
      <g transform="translate(48.944688 807.005039)scale(0.3 -0.3)">
       <use xlink:href="#DejaVuSans-31"/>
       <use x="63.623047" xlink:href="#DejaVuSans-32"/>
      </g>
     </g>
    </g>
    <g id="ytick_3">
     <g id="line2d_15">
      <path clip-path="url(#pd1adc0326e)" d="M 94.119688 666.404221 
L 986.919688 666.404221 
" style="fill:none;stroke:#b0b0b0;stroke-linecap:square;stroke-width:0.8;"/>
     </g>
     <g id="line2d_16">
      <g>
       <use style="stroke:#000000;stroke-width:0.8;" x="94.119688" xlink:href="#m6afbfc60ef" y="666.404221"/>
      </g>
     </g>
     <g id="text_9">
      <!-- 14 -->
      <g transform="translate(48.944688 677.801878)scale(0.3 -0.3)">
       <use xlink:href="#DejaVuSans-31"/>
       <use x="63.623047" xlink:href="#DejaVuSans-34"/>
      </g>
     </g>
    </g>
    <g id="ytick_4">
     <g id="line2d_17">
      <path clip-path="url(#pd1adc0326e)" d="M 94.119688 537.20106 
L 986.919688 537.20106 
" style="fill:none;stroke:#b0b0b0;stroke-linecap:square;stroke-width:0.8;"/>
     </g>
     <g id="line2d_18">
      <g>
       <use style="stroke:#000000;stroke-width:0.8;" x="94.119688" xlink:href="#m6afbfc60ef" y="537.20106"/>
      </g>
     </g>
     <g id="text_10">
      <!-- 16 -->
      <g transform="translate(48.944688 548.598716)scale(0.3 -0.3)">
       <use xlink:href="#DejaVuSans-31"/>
       <use x="63.623047" xlink:href="#DejaVuSans-36"/>
      </g>
     </g>
    </g>
    <g id="ytick_5">
     <g id="line2d_19">
      <path clip-path="url(#pd1adc0326e)" d="M 94.119688 407.997898 
L 986.919688 407.997898 
" style="fill:none;stroke:#b0b0b0;stroke-linecap:square;stroke-width:0.8;"/>
     </g>
     <g id="line2d_20">
      <g>
       <use style="stroke:#000000;stroke-width:0.8;" x="94.119688" xlink:href="#m6afbfc60ef" y="407.997898"/>
      </g>
     </g>
     <g id="text_11">
      <!-- 18 -->
      <g transform="translate(48.944688 419.395554)scale(0.3 -0.3)">
       <use xlink:href="#DejaVuSans-31"/>
       <use x="63.623047" xlink:href="#DejaVuSans-38"/>
      </g>
     </g>
    </g>
    <g id="ytick_6">
     <g id="line2d_21">
      <path clip-path="url(#pd1adc0326e)" d="M 94.119688 278.794736 
L 986.919688 278.794736 
" style="fill:none;stroke:#b0b0b0;stroke-linecap:square;stroke-width:0.8;"/>
     </g>
     <g id="line2d_22">
      <g>
       <use style="stroke:#000000;stroke-width:0.8;" x="94.119688" xlink:href="#m6afbfc60ef" y="278.794736"/>
      </g>
     </g>
     <g id="text_12">
      <!-- 20 -->
      <g transform="translate(48.944688 290.192392)scale(0.3 -0.3)">
       <use xlink:href="#DejaVuSans-32"/>
       <use x="63.623047" xlink:href="#DejaVuSans-30"/>
      </g>
     </g>
    </g>
    <g id="ytick_7">
     <g id="line2d_23">
      <path clip-path="url(#pd1adc0326e)" d="M 94.119688 149.591574 
L 986.919688 149.591574 
" style="fill:none;stroke:#b0b0b0;stroke-linecap:square;stroke-width:0.8;"/>
     </g>
     <g id="line2d_24">
      <g>
       <use style="stroke:#000000;stroke-width:0.8;" x="94.119688" xlink:href="#m6afbfc60ef" y="149.591574"/>
      </g>
     </g>
     <g id="text_13">
      <!-- 22 -->
      <g transform="translate(48.944688 160.989231)scale(0.3 -0.3)">
       <use xlink:href="#DejaVuSans-32"/>
       <use x="63.623047" xlink:href="#DejaVuSans-32"/>
      </g>
     </g>
    </g>
    <g id="ytick_8">
     <g id="line2d_25">
      <path clip-path="url(#pd1adc0326e)" d="M 94.119688 20.388413 
L 986.919688 20.388413 
" style="fill:none;stroke:#b0b0b0;stroke-linecap:square;stroke-width:0.8;"/>
     </g>
     <g id="line2d_26">
      <g>
       <use style="stroke:#000000;stroke-width:0.8;" x="94.119688" xlink:href="#m6afbfc60ef" y="20.388413"/>
      </g>
     </g>
     <g id="text_14">
      <!-- 24 -->
      <g transform="translate(48.944688 31.786069)scale(0.3 -0.3)">
       <use xlink:href="#DejaVuSans-32"/>
       <use x="63.623047" xlink:href="#DejaVuSans-34"/>
      </g>
     </g>
    </g>
    <g id="text_15">
     <!-- Avg. number of operations / size -->
     <g transform="translate(36.833906 822.523125)rotate(-90)scale(0.39 -0.39)">
      <defs>
       <path d="M 2188 4044 
L 1331 1722 
L 3047 1722 
L 2188 4044 
z
M 1831 4666 
L 2547 4666 
L 4325 0 
L 3669 0 
L 3244 1197 
L 1141 1197 
L 716 0 
L 50 0 
L 1831 4666 
z
" id="DejaVuSans-41" transform="scale(0.015625)"/>
       <path d="M 191 3500 
L 800 3500 
L 1894 563 
L 2988 3500 
L 3597 3500 
L 2284 0 
L 1503 0 
L 191 3500 
z
" id="DejaVuSans-76" transform="scale(0.015625)"/>
       <path d="M 3513 2113 
L 3513 0 
L 2938 0 
L 2938 2094 
Q 2938 2591 2744 2837 
Q 2550 3084 2163 3084 
Q 1697 3084 1428 2787 
Q 1159 2491 1159 1978 
L 1159 0 
L 581 0 
L 581 3500 
L 1159 3500 
L 1159 2956 
Q 1366 3272 1645 3428 
Q 1925 3584 2291 3584 
Q 2894 3584 3203 3211 
Q 3513 2838 3513 2113 
z
" id="DejaVuSans-6e" transform="scale(0.015625)"/>
       <path d="M 544 1381 
L 544 3500 
L 1119 3500 
L 1119 1403 
Q 1119 906 1312 657 
Q 1506 409 1894 409 
Q 2359 409 2629 706 
Q 2900 1003 2900 1516 
L 2900 3500 
L 3475 3500 
L 3475 0 
L 2900 0 
L 2900 538 
Q 2691 219 2414 64 
Q 2138 -91 1772 -91 
Q 1169 -91 856 284 
Q 544 659 544 1381 
z
M 1991 3584 
L 1991 3584 
z
" id="DejaVuSans-75" transform="scale(0.015625)"/>
       <path d="M 3328 2828 
Q 3544 3216 3844 3400 
Q 4144 3584 4550 3584 
Q 5097 3584 5394 3201 
Q 5691 2819 5691 2113 
L 5691 0 
L 5113 0 
L 5113 2094 
Q 5113 2597 4934 2840 
Q 4756 3084 4391 3084 
Q 3944 3084 3684 2787 
Q 3425 2491 3425 1978 
L 3425 0 
L 2847 0 
L 2847 2094 
Q 2847 2600 2669 2842 
Q 2491 3084 2119 3084 
Q 1678 3084 1418 2786 
Q 1159 2488 1159 1978 
L 1159 0 
L 581 0 
L 581 3500 
L 1159 3500 
L 1159 2956 
Q 1356 3278 1631 3431 
Q 1906 3584 2284 3584 
Q 2666 3584 2933 3390 
Q 3200 3197 3328 2828 
z
" id="DejaVuSans-6d" transform="scale(0.015625)"/>
       <path d="M 2375 4863 
L 2375 4384 
L 1825 4384 
Q 1516 4384 1395 4259 
Q 1275 4134 1275 3809 
L 1275 3500 
L 2222 3500 
L 2222 3053 
L 1275 3053 
L 1275 0 
L 697 0 
L 697 3053 
L 147 3053 
L 147 3500 
L 697 3500 
L 697 3744 
Q 697 4328 969 4595 
Q 1241 4863 1831 4863 
L 2375 4863 
z
" id="DejaVuSans-66" transform="scale(0.015625)"/>
       <path d="M 2834 3397 
L 2834 2853 
Q 2591 2978 2328 3040 
Q 2066 3103 1784 3103 
Q 1356 3103 1142 2972 
Q 928 2841 928 2578 
Q 928 2378 1081 2264 
Q 1234 2150 1697 2047 
L 1894 2003 
Q 2506 1872 2764 1633 
Q 3022 1394 3022 966 
Q 3022 478 2636 193 
Q 2250 -91 1575 -91 
Q 1294 -91 989 -36 
Q 684 19 347 128 
L 347 722 
Q 666 556 975 473 
Q 1284 391 1588 391 
Q 1994 391 2212 530 
Q 2431 669 2431 922 
Q 2431 1156 2273 1281 
Q 2116 1406 1581 1522 
L 1381 1569 
Q 847 1681 609 1914 
Q 372 2147 372 2553 
Q 372 3047 722 3315 
Q 1072 3584 1716 3584 
Q 2034 3584 2315 3537 
Q 2597 3491 2834 3397 
z
" id="DejaVuSans-73" transform="scale(0.015625)"/>
       <path d="M 1625 4666 
L 2156 4666 
L 531 -594 
L 0 -594 
L 1625 4666 
z
" id="DejaVuSans-2f" transform="scale(0.015625)"/>
       <path d="M 353 3500 
L 3084 3500 
L 3084 2975 
L 922 459 
L 3084 459 
L 3084 0 
L 275 0 
L 275 525 
L 2438 3041 
L 353 3041 
L 353 3500 
z
" id="DejaVuSans-7a" transform="scale(0.015625)"/>
      </defs>
      <use xlink:href="#DejaVuSans-41"/>
      <use x="62.533203" xlink:href="#DejaVuSans-76"/>
      <use x="121.712891" xlink:href="#DejaVuSans-67"/>
      <use x="185.189453" xlink:href="#DejaVuSans-2e"/>
      <use x="216.976562" xlink:href="#DejaVuSans-20"/>
      <use x="248.763672" xlink:href="#DejaVuSans-6e"/>
      <use x="312.142578" xlink:href="#DejaVuSans-75"/>
      <use x="375.521484" xlink:href="#DejaVuSans-6d"/>
      <use x="472.933594" xlink:href="#DejaVuSans-62"/>
      <use x="536.410156" xlink:href="#DejaVuSans-65"/>
      <use x="597.933594" xlink:href="#DejaVuSans-72"/>
      <use x="639.046875" xlink:href="#DejaVuSans-20"/>
      <use x="670.833984" xlink:href="#DejaVuSans-6f"/>
      <use x="732.015625" xlink:href="#DejaVuSans-66"/>
      <use x="767.220703" xlink:href="#DejaVuSans-20"/>
      <use x="799.007812" xlink:href="#DejaVuSans-6f"/>
      <use x="860.189453" xlink:href="#DejaVuSans-70"/>
      <use x="923.666016" xlink:href="#DejaVuSans-65"/>
      <use x="985.189453" xlink:href="#DejaVuSans-72"/>
      <use x="1026.302734" xlink:href="#DejaVuSans-61"/>
      <use x="1087.582031" xlink:href="#DejaVuSans-74"/>
      <use x="1126.791016" xlink:href="#DejaVuSans-69"/>
      <use x="1154.574219" xlink:href="#DejaVuSans-6f"/>
      <use x="1215.755859" xlink:href="#DejaVuSans-6e"/>
      <use x="1279.134766" xlink:href="#DejaVuSans-73"/>
      <use x="1331.234375" xlink:href="#DejaVuSans-20"/>
      <use x="1363.021484" xlink:href="#DejaVuSans-2f"/>
      <use x="1396.712891" xlink:href="#DejaVuSans-20"/>
      <use x="1428.5" xlink:href="#DejaVuSans-73"/>
      <use x="1480.599609" xlink:href="#DejaVuSans-69"/>
      <use x="1508.382812" xlink:href="#DejaVuSans-7a"/>
      <use x="1560.873047" xlink:href="#DejaVuSans-65"/>
     </g>
    </g>
   </g>
   <g id="line2d_27">
    <path clip-path="url(#pd1adc0326e)" d="M 134.701506 814.910335 
L 177.419209 752.324324 
L 220.136912 722.129545 
L 262.854616 702.064294 
L 305.572319 677.141004 
L 348.290022 662.709011 
L 391.007726 658.58743 
L 433.725429 646.829942 
L 476.443132 630.524503 
L 519.160836 621.157274 
L 561.878539 612.113053 
L 604.596243 617.888434 
L 647.313946 603.740688 
L 690.031649 596.389028 
L 732.749353 596.350267 
L 775.467056 581.853672 
L 818.184759 585.264636 
L 860.902463 586.026934 
L 903.620166 579.889784 
L 946.337869 571.349455 
" style="fill:none;stroke:#fe0002;stroke-linecap:square;stroke-width:1.5;"/>
    <defs>
     <path d="M 0 4.5 
C 1.193414 4.5 2.338109 4.025852 3.181981 3.181981 
C 4.025852 2.338109 4.5 1.193414 4.5 0 
C 4.5 -1.193414 4.025852 -2.338109 3.181981 -3.181981 
C 2.338109 -4.025852 1.193414 -4.5 0 -4.5 
C -1.193414 -4.5 -2.338109 -4.025852 -3.181981 -3.181981 
C -4.025852 -2.338109 -4.5 -1.193414 -4.5 0 
C -4.5 1.193414 -4.025852 2.338109 -3.181981 3.181981 
C -2.338109 4.025852 -1.193414 4.5 0 4.5 
z
" id="ma17187f803" style="stroke:#000000;"/>
    </defs>
    <g clip-path="url(#pd1adc0326e)">
     <use style="fill:#fe0002;stroke:#000000;" x="134.701506" xlink:href="#ma17187f803" y="814.910335"/>
     <use style="fill:#fe0002;stroke:#000000;" x="177.419209" xlink:href="#ma17187f803" y="752.324324"/>
     <use style="fill:#fe0002;stroke:#000000;" x="220.136912" xlink:href="#ma17187f803" y="722.129545"/>
     <use style="fill:#fe0002;stroke:#000000;" x="262.854616" xlink:href="#ma17187f803" y="702.064294"/>
     <use style="fill:#fe0002;stroke:#000000;" x="305.572319" xlink:href="#ma17187f803" y="677.141004"/>
     <use style="fill:#fe0002;stroke:#000000;" x="348.290022" xlink:href="#ma17187f803" y="662.709011"/>
     <use style="fill:#fe0002;stroke:#000000;" x="391.007726" xlink:href="#ma17187f803" y="658.58743"/>
     <use style="fill:#fe0002;stroke:#000000;" x="433.725429" xlink:href="#ma17187f803" y="646.829942"/>
     <use style="fill:#fe0002;stroke:#000000;" x="476.443132" xlink:href="#ma17187f803" y="630.524503"/>
     <use style="fill:#fe0002;stroke:#000000;" x="519.160836" xlink:href="#ma17187f803" y="621.157274"/>
     <use style="fill:#fe0002;stroke:#000000;" x="561.878539" xlink:href="#ma17187f803" y="612.113053"/>
     <use style="fill:#fe0002;stroke:#000000;" x="604.596243" xlink:href="#ma17187f803" y="617.888434"/>
     <use style="fill:#fe0002;stroke:#000000;" x="647.313946" xlink:href="#ma17187f803" y="603.740688"/>
     <use style="fill:#fe0002;stroke:#000000;" x="690.031649" xlink:href="#ma17187f803" y="596.389028"/>
     <use style="fill:#fe0002;stroke:#000000;" x="732.749353" xlink:href="#ma17187f803" y="596.350267"/>
     <use style="fill:#fe0002;stroke:#000000;" x="775.467056" xlink:href="#ma17187f803" y="581.853672"/>
     <use style="fill:#fe0002;stroke:#000000;" x="818.184759" xlink:href="#ma17187f803" y="585.264636"/>
     <use style="fill:#fe0002;stroke:#000000;" x="860.902463" xlink:href="#ma17187f803" y="586.026934"/>
     <use style="fill:#fe0002;stroke:#000000;" x="903.620166" xlink:href="#ma17187f803" y="579.889784"/>
     <use style="fill:#fe0002;stroke:#000000;" x="946.337869" xlink:href="#ma17187f803" y="571.349455"/>
    </g>
   </g>
   <g id="line2d_28">
    <path clip-path="url(#pd1adc0326e)" d="M 134.701506 814.910335 
L 177.419209 752.324324 
L 220.136912 722.129545 
L 262.854616 702.064294 
L 305.572319 677.141004 
L 348.290022 662.709011 
L 391.007726 658.58743 
L 433.725429 646.829942 
L 476.443132 630.524503 
L 519.160836 621.157274 
L 561.878539 612.113053 
L 604.596243 617.888434 
L 647.313946 603.740688 
L 690.031649 596.389028 
L 732.749353 596.350267 
L 775.467056 581.853672 
L 818.184759 585.264636 
L 860.902463 586.026934 
L 903.620166 579.889784 
L 946.337869 571.349455 
" style="fill:none;stroke:#fe0002;stroke-dasharray:5.55,2.4;stroke-dashoffset:0;stroke-width:1.5;"/>
    <g clip-path="url(#pd1adc0326e)">
     <use style="fill:#fe0002;stroke:#000000;" x="134.701506" xlink:href="#ma17187f803" y="814.910335"/>
     <use style="fill:#fe0002;stroke:#000000;" x="177.419209" xlink:href="#ma17187f803" y="752.324324"/>
     <use style="fill:#fe0002;stroke:#000000;" x="220.136912" xlink:href="#ma17187f803" y="722.129545"/>
     <use style="fill:#fe0002;stroke:#000000;" x="262.854616" xlink:href="#ma17187f803" y="702.064294"/>
     <use style="fill:#fe0002;stroke:#000000;" x="305.572319" xlink:href="#ma17187f803" y="677.141004"/>
     <use style="fill:#fe0002;stroke:#000000;" x="348.290022" xlink:href="#ma17187f803" y="662.709011"/>
     <use style="fill:#fe0002;stroke:#000000;" x="391.007726" xlink:href="#ma17187f803" y="658.58743"/>
     <use style="fill:#fe0002;stroke:#000000;" x="433.725429" xlink:href="#ma17187f803" y="646.829942"/>
     <use style="fill:#fe0002;stroke:#000000;" x="476.443132" xlink:href="#ma17187f803" y="630.524503"/>
     <use style="fill:#fe0002;stroke:#000000;" x="519.160836" xlink:href="#ma17187f803" y="621.157274"/>
     <use style="fill:#fe0002;stroke:#000000;" x="561.878539" xlink:href="#ma17187f803" y="612.113053"/>
     <use style="fill:#fe0002;stroke:#000000;" x="604.596243" xlink:href="#ma17187f803" y="617.888434"/>
     <use style="fill:#fe0002;stroke:#000000;" x="647.313946" xlink:href="#ma17187f803" y="603.740688"/>
     <use style="fill:#fe0002;stroke:#000000;" x="690.031649" xlink:href="#ma17187f803" y="596.389028"/>
     <use style="fill:#fe0002;stroke:#000000;" x="732.749353" xlink:href="#ma17187f803" y="596.350267"/>
     <use style="fill:#fe0002;stroke:#000000;" x="775.467056" xlink:href="#ma17187f803" y="581.853672"/>
     <use style="fill:#fe0002;stroke:#000000;" x="818.184759" xlink:href="#ma17187f803" y="585.264636"/>
     <use style="fill:#fe0002;stroke:#000000;" x="860.902463" xlink:href="#ma17187f803" y="586.026934"/>
     <use style="fill:#fe0002;stroke:#000000;" x="903.620166" xlink:href="#ma17187f803" y="579.889784"/>
     <use style="fill:#fe0002;stroke:#000000;" x="946.337869" xlink:href="#ma17187f803" y="571.349455"/>
    </g>
   </g>
   <g id="line2d_29">
    <path clip-path="url(#pd1adc0326e)" d="M 134.701506 532.898594 
L 177.419209 442.856911 
L 220.136912 396.976868 
L 262.854616 367.505627 
L 305.572319 335.863773 
L 348.290022 309.803495 
L 391.007726 299.906533 
L 433.725429 274.195104 
L 476.443132 264.24646 
L 519.160836 249.995351 
L 561.878539 240.576441 
L 604.596243 238.651314 
L 647.313946 226.054006 
L 690.031649 221.33809 
L 732.749353 204.890528 
L 775.467056 198.985943 
L 818.184759 195.768784 
L 860.902463 185.884743 
L 903.620166 188.300842 
L 946.337869 178.235915 
" style="fill:none;stroke:#53fca1;stroke-linecap:square;stroke-width:1.5;"/>
    <defs>
     <path d="M 0 -4.5 
L -4.5 4.5 
L 4.5 4.5 
z
" id="m2d29b00fcf" style="stroke:#000000;stroke-linejoin:miter;"/>
    </defs>
    <g clip-path="url(#pd1adc0326e)">
     <use style="fill:#53fca1;stroke:#000000;stroke-linejoin:miter;" x="134.701506" xlink:href="#m2d29b00fcf" y="532.898594"/>
     <use style="fill:#53fca1;stroke:#000000;stroke-linejoin:miter;" x="177.419209" xlink:href="#m2d29b00fcf" y="442.856911"/>
     <use style="fill:#53fca1;stroke:#000000;stroke-linejoin:miter;" x="220.136912" xlink:href="#m2d29b00fcf" y="396.976868"/>
     <use style="fill:#53fca1;stroke:#000000;stroke-linejoin:miter;" x="262.854616" xlink:href="#m2d29b00fcf" y="367.505627"/>
     <use style="fill:#53fca1;stroke:#000000;stroke-linejoin:miter;" x="305.572319" xlink:href="#m2d29b00fcf" y="335.863773"/>
     <use style="fill:#53fca1;stroke:#000000;stroke-linejoin:miter;" x="348.290022" xlink:href="#m2d29b00fcf" y="309.803495"/>
     <use style="fill:#53fca1;stroke:#000000;stroke-linejoin:miter;" x="391.007726" xlink:href="#m2d29b00fcf" y="299.906533"/>
     <use style="fill:#53fca1;stroke:#000000;stroke-linejoin:miter;" x="433.725429" xlink:href="#m2d29b00fcf" y="274.195104"/>
     <use style="fill:#53fca1;stroke:#000000;stroke-linejoin:miter;" x="476.443132" xlink:href="#m2d29b00fcf" y="264.24646"/>
     <use style="fill:#53fca1;stroke:#000000;stroke-linejoin:miter;" x="519.160836" xlink:href="#m2d29b00fcf" y="249.995351"/>
     <use style="fill:#53fca1;stroke:#000000;stroke-linejoin:miter;" x="561.878539" xlink:href="#m2d29b00fcf" y="240.576441"/>
     <use style="fill:#53fca1;stroke:#000000;stroke-linejoin:miter;" x="604.596243" xlink:href="#m2d29b00fcf" y="238.651314"/>
     <use style="fill:#53fca1;stroke:#000000;stroke-linejoin:miter;" x="647.313946" xlink:href="#m2d29b00fcf" y="226.054006"/>
     <use style="fill:#53fca1;stroke:#000000;stroke-linejoin:miter;" x="690.031649" xlink:href="#m2d29b00fcf" y="221.33809"/>
     <use style="fill:#53fca1;stroke:#000000;stroke-linejoin:miter;" x="732.749353" xlink:href="#m2d29b00fcf" y="204.890528"/>
     <use style="fill:#53fca1;stroke:#000000;stroke-linejoin:miter;" x="775.467056" xlink:href="#m2d29b00fcf" y="198.985943"/>
     <use style="fill:#53fca1;stroke:#000000;stroke-linejoin:miter;" x="818.184759" xlink:href="#m2d29b00fcf" y="195.768784"/>
     <use style="fill:#53fca1;stroke:#000000;stroke-linejoin:miter;" x="860.902463" xlink:href="#m2d29b00fcf" y="185.884743"/>
     <use style="fill:#53fca1;stroke:#000000;stroke-linejoin:miter;" x="903.620166" xlink:href="#m2d29b00fcf" y="188.300842"/>
     <use style="fill:#53fca1;stroke:#000000;stroke-linejoin:miter;" x="946.337869" xlink:href="#m2d29b00fcf" y="178.235915"/>
    </g>
   </g>
   <g id="line2d_30">
    <path clip-path="url(#pd1adc0326e)" d="M 134.701506 938.286435 
L 177.419209 892.561436 
L 220.136912 867.263457 
L 262.854616 852.70226 
L 305.572319 837.792215 
L 348.290022 822.985533 
L 391.007726 818.321299 
L 433.725429 804.431959 
L 476.443132 798.953745 
L 519.160836 791.162794 
L 561.878539 786.214313 
L 604.596243 785.361572 
L 647.313946 778.462123 
L 690.031649 776.394873 
L 732.749353 767.337731 
L 775.467056 763.797565 
L 818.184759 761.57527 
L 860.902463 757.660414 
L 903.620166 758.177227 
L 946.337869 752.854057 
" style="fill:none;stroke:#53fca1;stroke-dasharray:5.55,2.4;stroke-dashoffset:0;stroke-width:1.5;"/>
    <defs>
     <path d="M 0 6.363961 
L 6.363961 0 
L 0 -6.363961 
L -6.363961 0 
z
" id="md6cd59a7d1" style="stroke:#000000;stroke-linejoin:miter;"/>
    </defs>
    <g clip-path="url(#pd1adc0326e)">
     <use style="fill:#53fca1;stroke:#000000;stroke-linejoin:miter;" x="134.701506" xlink:href="#md6cd59a7d1" y="938.286435"/>
     <use style="fill:#53fca1;stroke:#000000;stroke-linejoin:miter;" x="177.419209" xlink:href="#md6cd59a7d1" y="892.561436"/>
     <use style="fill:#53fca1;stroke:#000000;stroke-linejoin:miter;" x="220.136912" xlink:href="#md6cd59a7d1" y="867.263457"/>
     <use style="fill:#53fca1;stroke:#000000;stroke-linejoin:miter;" x="262.854616" xlink:href="#md6cd59a7d1" y="852.70226"/>
     <use style="fill:#53fca1;stroke:#000000;stroke-linejoin:miter;" x="305.572319" xlink:href="#md6cd59a7d1" y="837.792215"/>
     <use style="fill:#53fca1;stroke:#000000;stroke-linejoin:miter;" x="348.290022" xlink:href="#md6cd59a7d1" y="822.985533"/>
     <use style="fill:#53fca1;stroke:#000000;stroke-linejoin:miter;" x="391.007726" xlink:href="#md6cd59a7d1" y="818.321299"/>
     <use style="fill:#53fca1;stroke:#000000;stroke-linejoin:miter;" x="433.725429" xlink:href="#md6cd59a7d1" y="804.431959"/>
     <use style="fill:#53fca1;stroke:#000000;stroke-linejoin:miter;" x="476.443132" xlink:href="#md6cd59a7d1" y="798.953745"/>
     <use style="fill:#53fca1;stroke:#000000;stroke-linejoin:miter;" x="519.160836" xlink:href="#md6cd59a7d1" y="791.162794"/>
     <use style="fill:#53fca1;stroke:#000000;stroke-linejoin:miter;" x="561.878539" xlink:href="#md6cd59a7d1" y="786.214313"/>
     <use style="fill:#53fca1;stroke:#000000;stroke-linejoin:miter;" x="604.596243" xlink:href="#md6cd59a7d1" y="785.361572"/>
     <use style="fill:#53fca1;stroke:#000000;stroke-linejoin:miter;" x="647.313946" xlink:href="#md6cd59a7d1" y="778.462123"/>
     <use style="fill:#53fca1;stroke:#000000;stroke-linejoin:miter;" x="690.031649" xlink:href="#md6cd59a7d1" y="776.394873"/>
     <use style="fill:#53fca1;stroke:#000000;stroke-linejoin:miter;" x="732.749353" xlink:href="#md6cd59a7d1" y="767.337731"/>
     <use style="fill:#53fca1;stroke:#000000;stroke-linejoin:miter;" x="775.467056" xlink:href="#md6cd59a7d1" y="763.797565"/>
     <use style="fill:#53fca1;stroke:#000000;stroke-linejoin:miter;" x="818.184759" xlink:href="#md6cd59a7d1" y="761.57527"/>
     <use style="fill:#53fca1;stroke:#000000;stroke-linejoin:miter;" x="860.902463" xlink:href="#md6cd59a7d1" y="757.660414"/>
     <use style="fill:#53fca1;stroke:#000000;stroke-linejoin:miter;" x="903.620166" xlink:href="#md6cd59a7d1" y="758.177227"/>
     <use style="fill:#53fca1;stroke:#000000;stroke-linejoin:miter;" x="946.337869" xlink:href="#md6cd59a7d1" y="752.854057"/>
    </g>
   </g>
   <g id="line2d_31">
    <path clip-path="url(#pd1adc0326e)" d="M 134.701506 498.711438 
L 177.419209 402.35172 
L 220.136912 362.337501 
L 262.854616 324.235488 
L 305.572319 294.958052 
L 348.290022 266.223269 
L 391.007726 255.383123 
L 433.725429 228.211698 
L 476.443132 218.805708 
L 519.160836 197.991079 
L 561.878539 190.27765 
L 604.596243 191.10455 
L 647.313946 177.124768 
L 690.031649 159.772784 
L 732.749353 156.155095 
L 775.467056 143.234779 
L 818.184759 134.151797 
L 860.902463 134.125956 
L 903.620166 130.146499 
L 946.337869 123.815544 
" style="fill:none;stroke:#0652ff;stroke-linecap:square;stroke-width:1.5;"/>
    <defs>
     <path d="M 0 -4.5 
L -4.279754 -1.390576 
L -2.645034 3.640576 
L 2.645034 3.640576 
L 4.279754 -1.390576 
z
" id="md1c5ee006d" style="stroke:#000000;stroke-linejoin:miter;"/>
    </defs>
    <g clip-path="url(#pd1adc0326e)">
     <use style="fill:#0652ff;stroke:#000000;stroke-linejoin:miter;" x="134.701506" xlink:href="#md1c5ee006d" y="498.711438"/>
     <use style="fill:#0652ff;stroke:#000000;stroke-linejoin:miter;" x="177.419209" xlink:href="#md1c5ee006d" y="402.35172"/>
     <use style="fill:#0652ff;stroke:#000000;stroke-linejoin:miter;" x="220.136912" xlink:href="#md1c5ee006d" y="362.337501"/>
     <use style="fill:#0652ff;stroke:#000000;stroke-linejoin:miter;" x="262.854616" xlink:href="#md1c5ee006d" y="324.235488"/>
     <use style="fill:#0652ff;stroke:#000000;stroke-linejoin:miter;" x="305.572319" xlink:href="#md1c5ee006d" y="294.958052"/>
     <use style="fill:#0652ff;stroke:#000000;stroke-linejoin:miter;" x="348.290022" xlink:href="#md1c5ee006d" y="266.223269"/>
     <use style="fill:#0652ff;stroke:#000000;stroke-linejoin:miter;" x="391.007726" xlink:href="#md1c5ee006d" y="255.383123"/>
     <use style="fill:#0652ff;stroke:#000000;stroke-linejoin:miter;" x="433.725429" xlink:href="#md1c5ee006d" y="228.211698"/>
     <use style="fill:#0652ff;stroke:#000000;stroke-linejoin:miter;" x="476.443132" xlink:href="#md1c5ee006d" y="218.805708"/>
     <use style="fill:#0652ff;stroke:#000000;stroke-linejoin:miter;" x="519.160836" xlink:href="#md1c5ee006d" y="197.991079"/>
     <use style="fill:#0652ff;stroke:#000000;stroke-linejoin:miter;" x="561.878539" xlink:href="#md1c5ee006d" y="190.27765"/>
     <use style="fill:#0652ff;stroke:#000000;stroke-linejoin:miter;" x="604.596243" xlink:href="#md1c5ee006d" y="191.10455"/>
     <use style="fill:#0652ff;stroke:#000000;stroke-linejoin:miter;" x="647.313946" xlink:href="#md1c5ee006d" y="177.124768"/>
     <use style="fill:#0652ff;stroke:#000000;stroke-linejoin:miter;" x="690.031649" xlink:href="#md1c5ee006d" y="159.772784"/>
     <use style="fill:#0652ff;stroke:#000000;stroke-linejoin:miter;" x="732.749353" xlink:href="#md1c5ee006d" y="156.155095"/>
     <use style="fill:#0652ff;stroke:#000000;stroke-linejoin:miter;" x="775.467056" xlink:href="#md1c5ee006d" y="143.234779"/>
     <use style="fill:#0652ff;stroke:#000000;stroke-linejoin:miter;" x="818.184759" xlink:href="#md1c5ee006d" y="134.151797"/>
     <use style="fill:#0652ff;stroke:#000000;stroke-linejoin:miter;" x="860.902463" xlink:href="#md1c5ee006d" y="134.125956"/>
     <use style="fill:#0652ff;stroke:#000000;stroke-linejoin:miter;" x="903.620166" xlink:href="#md1c5ee006d" y="130.146499"/>
     <use style="fill:#0652ff;stroke:#000000;stroke-linejoin:miter;" x="946.337869" xlink:href="#md1c5ee006d" y="123.815544"/>
    </g>
   </g>
   <g id="line2d_32">
    <path clip-path="url(#pd1adc0326e)" d="M 134.701506 887.793839 
L 177.419209 837.120359 
L 220.136912 818.540944 
L 262.854616 798.398171 
L 305.572319 784.638035 
L 348.290022 769.883034 
L 391.007726 763.978449 
L 433.725429 749.081325 
L 476.443132 744.40417 
L 519.160836 734.959419 
L 561.878539 731.147926 
L 604.596243 730.333946 
L 647.313946 722.478394 
L 690.031649 715.204256 
L 732.749353 713.072403 
L 775.467056 706.444281 
L 818.184759 701.960931 
L 860.902463 702.245178 
L 903.620166 700.578458 
L 946.337869 698.549968 
" style="fill:none;stroke:#0652ff;stroke-dasharray:5.55,2.4;stroke-dashoffset:0;stroke-width:1.5;"/>
    <defs>
     <path d="M -2.25 4.5 
L 0 2.25 
L 2.25 4.5 
L 4.5 2.25 
L 2.25 0 
L 4.5 -2.25 
L 2.25 -4.5 
L 0 -2.25 
L -2.25 -4.5 
L -4.5 -2.25 
L -2.25 0 
L -4.5 2.25 
z
" id="m08789399c2" style="stroke:#000000;stroke-linejoin:miter;"/>
    </defs>
    <g clip-path="url(#pd1adc0326e)">
     <use style="fill:#0652ff;stroke:#000000;stroke-linejoin:miter;" x="134.701506" xlink:href="#m08789399c2" y="887.793839"/>
     <use style="fill:#0652ff;stroke:#000000;stroke-linejoin:miter;" x="177.419209" xlink:href="#m08789399c2" y="837.120359"/>
     <use style="fill:#0652ff;stroke:#000000;stroke-linejoin:miter;" x="220.136912" xlink:href="#m08789399c2" y="818.540944"/>
     <use style="fill:#0652ff;stroke:#000000;stroke-linejoin:miter;" x="262.854616" xlink:href="#m08789399c2" y="798.398171"/>
     <use style="fill:#0652ff;stroke:#000000;stroke-linejoin:miter;" x="305.572319" xlink:href="#m08789399c2" y="784.638035"/>
     <use style="fill:#0652ff;stroke:#000000;stroke-linejoin:miter;" x="348.290022" xlink:href="#m08789399c2" y="769.883034"/>
     <use style="fill:#0652ff;stroke:#000000;stroke-linejoin:miter;" x="391.007726" xlink:href="#m08789399c2" y="763.978449"/>
     <use style="fill:#0652ff;stroke:#000000;stroke-linejoin:miter;" x="433.725429" xlink:href="#m08789399c2" y="749.081325"/>
     <use style="fill:#0652ff;stroke:#000000;stroke-linejoin:miter;" x="476.443132" xlink:href="#m08789399c2" y="744.40417"/>
     <use style="fill:#0652ff;stroke:#000000;stroke-linejoin:miter;" x="519.160836" xlink:href="#m08789399c2" y="734.959419"/>
     <use style="fill:#0652ff;stroke:#000000;stroke-linejoin:miter;" x="561.878539" xlink:href="#m08789399c2" y="731.147926"/>
     <use style="fill:#0652ff;stroke:#000000;stroke-linejoin:miter;" x="604.596243" xlink:href="#m08789399c2" y="730.333946"/>
     <use style="fill:#0652ff;stroke:#000000;stroke-linejoin:miter;" x="647.313946" xlink:href="#m08789399c2" y="722.478394"/>
     <use style="fill:#0652ff;stroke:#000000;stroke-linejoin:miter;" x="690.031649" xlink:href="#m08789399c2" y="715.204256"/>
     <use style="fill:#0652ff;stroke:#000000;stroke-linejoin:miter;" x="732.749353" xlink:href="#m08789399c2" y="713.072403"/>
     <use style="fill:#0652ff;stroke:#000000;stroke-linejoin:miter;" x="775.467056" xlink:href="#m08789399c2" y="706.444281"/>
     <use style="fill:#0652ff;stroke:#000000;stroke-linejoin:miter;" x="818.184759" xlink:href="#m08789399c2" y="701.960931"/>
     <use style="fill:#0652ff;stroke:#000000;stroke-linejoin:miter;" x="860.902463" xlink:href="#m08789399c2" y="702.245178"/>
     <use style="fill:#0652ff;stroke:#000000;stroke-linejoin:miter;" x="903.620166" xlink:href="#m08789399c2" y="700.578458"/>
     <use style="fill:#0652ff;stroke:#000000;stroke-linejoin:miter;" x="946.337869" xlink:href="#m08789399c2" y="698.549968"/>
    </g>
   </g>
   <g id="line2d_33">
    <path clip-path="url(#pd1adc0326e)" d="M 134.701506 329.571579 
L 177.419209 245.098552 
L 220.136912 210.097415 
L 262.854616 179.463345 
L 305.572319 157.498808 
L 348.290022 142.291596 
L 391.007726 133.363657 
L 433.725429 118.466533 
L 476.443132 113.8669 
L 519.160836 104.331707 
L 561.878539 97.92323 
L 604.596243 98.982696 
L 647.313946 93.788729 
L 690.031649 87.780782 
L 732.749353 86.424149 
L 775.467056 79.292134 
L 818.184759 81.501508 
L 860.902463 77.457449 
L 903.620166 84.499022 
L 946.337869 82.018321 
" style="fill:none;stroke:#ae7181;stroke-linecap:square;stroke-width:1.5;"/>
    <defs>
     <path d="M -4.5 4.5 
L 4.5 4.5 
L 4.5 -4.5 
L -4.5 -4.5 
z
" id="me807dea522" style="stroke:#000000;stroke-linejoin:miter;"/>
    </defs>
    <g clip-path="url(#pd1adc0326e)">
     <use style="fill:#ae7181;stroke:#000000;stroke-linejoin:miter;" x="134.701506" xlink:href="#me807dea522" y="329.571579"/>
     <use style="fill:#ae7181;stroke:#000000;stroke-linejoin:miter;" x="177.419209" xlink:href="#me807dea522" y="245.098552"/>
     <use style="fill:#ae7181;stroke:#000000;stroke-linejoin:miter;" x="220.136912" xlink:href="#me807dea522" y="210.097415"/>
     <use style="fill:#ae7181;stroke:#000000;stroke-linejoin:miter;" x="262.854616" xlink:href="#me807dea522" y="179.463345"/>
     <use style="fill:#ae7181;stroke:#000000;stroke-linejoin:miter;" x="305.572319" xlink:href="#me807dea522" y="157.498808"/>
     <use style="fill:#ae7181;stroke:#000000;stroke-linejoin:miter;" x="348.290022" xlink:href="#me807dea522" y="142.291596"/>
     <use style="fill:#ae7181;stroke:#000000;stroke-linejoin:miter;" x="391.007726" xlink:href="#me807dea522" y="133.363657"/>
     <use style="fill:#ae7181;stroke:#000000;stroke-linejoin:miter;" x="433.725429" xlink:href="#me807dea522" y="118.466533"/>
     <use style="fill:#ae7181;stroke:#000000;stroke-linejoin:miter;" x="476.443132" xlink:href="#me807dea522" y="113.8669"/>
     <use style="fill:#ae7181;stroke:#000000;stroke-linejoin:miter;" x="519.160836" xlink:href="#me807dea522" y="104.331707"/>
     <use style="fill:#ae7181;stroke:#000000;stroke-linejoin:miter;" x="561.878539" xlink:href="#me807dea522" y="97.92323"/>
     <use style="fill:#ae7181;stroke:#000000;stroke-linejoin:miter;" x="604.596243" xlink:href="#me807dea522" y="98.982696"/>
     <use style="fill:#ae7181;stroke:#000000;stroke-linejoin:miter;" x="647.313946" xlink:href="#me807dea522" y="93.788729"/>
     <use style="fill:#ae7181;stroke:#000000;stroke-linejoin:miter;" x="690.031649" xlink:href="#me807dea522" y="87.780782"/>
     <use style="fill:#ae7181;stroke:#000000;stroke-linejoin:miter;" x="732.749353" xlink:href="#me807dea522" y="86.424149"/>
     <use style="fill:#ae7181;stroke:#000000;stroke-linejoin:miter;" x="775.467056" xlink:href="#me807dea522" y="79.292134"/>
     <use style="fill:#ae7181;stroke:#000000;stroke-linejoin:miter;" x="818.184759" xlink:href="#me807dea522" y="81.501508"/>
     <use style="fill:#ae7181;stroke:#000000;stroke-linejoin:miter;" x="860.902463" xlink:href="#me807dea522" y="77.457449"/>
     <use style="fill:#ae7181;stroke:#000000;stroke-linejoin:miter;" x="903.620166" xlink:href="#me807dea522" y="84.499022"/>
     <use style="fill:#ae7181;stroke:#000000;stroke-linejoin:miter;" x="946.337869" xlink:href="#me807dea522" y="82.018321"/>
    </g>
   </g>
   <g id="line2d_34">
    <path clip-path="url(#pd1adc0326e)" d="M 134.701506 950.198966 
L 177.419209 907.962452 
L 220.136912 890.461884 
L 262.854616 875.144849 
L 305.572319 864.162581 
L 348.290022 856.558975 
L 391.007726 852.095005 
L 433.725429 844.646443 
L 476.443132 842.346627 
L 519.160836 837.57903 
L 561.878539 834.374792 
L 604.596243 834.904525 
L 647.313946 832.307541 
L 690.031649 829.303568 
L 732.749353 828.625251 
L 775.467056 825.059244 
L 818.184759 826.163931 
L 860.902463 824.141901 
L 903.620166 827.662687 
L 946.337869 826.422337 
" style="fill:none;stroke:#ae7181;stroke-dasharray:5.55,2.4;stroke-dashoffset:0;stroke-width:1.5;"/>
    <defs>
     <path d="M 0 -4.5 
L -1.010313 -1.390576 
L -4.279754 -1.390576 
L -1.634721 0.531153 
L -2.645034 3.640576 
L -0 1.718847 
L 2.645034 3.640576 
L 1.634721 0.531153 
L 4.279754 -1.390576 
L 1.010313 -1.390576 
z
" id="mb1734cdf6e" style="stroke:#000000;stroke-linejoin:bevel;"/>
    </defs>
    <g clip-path="url(#pd1adc0326e)">
     <use style="fill:#ae7181;stroke:#000000;stroke-linejoin:bevel;" x="134.701506" xlink:href="#mb1734cdf6e" y="950.198966"/>
     <use style="fill:#ae7181;stroke:#000000;stroke-linejoin:bevel;" x="177.419209" xlink:href="#mb1734cdf6e" y="907.962452"/>
     <use style="fill:#ae7181;stroke:#000000;stroke-linejoin:bevel;" x="220.136912" xlink:href="#mb1734cdf6e" y="890.461884"/>
     <use style="fill:#ae7181;stroke:#000000;stroke-linejoin:bevel;" x="262.854616" xlink:href="#mb1734cdf6e" y="875.144849"/>
     <use style="fill:#ae7181;stroke:#000000;stroke-linejoin:bevel;" x="305.572319" xlink:href="#mb1734cdf6e" y="864.162581"/>
     <use style="fill:#ae7181;stroke:#000000;stroke-linejoin:bevel;" x="348.290022" xlink:href="#mb1734cdf6e" y="856.558975"/>
     <use style="fill:#ae7181;stroke:#000000;stroke-linejoin:bevel;" x="391.007726" xlink:href="#mb1734cdf6e" y="852.095005"/>
     <use style="fill:#ae7181;stroke:#000000;stroke-linejoin:bevel;" x="433.725429" xlink:href="#mb1734cdf6e" y="844.646443"/>
     <use style="fill:#ae7181;stroke:#000000;stroke-linejoin:bevel;" x="476.443132" xlink:href="#mb1734cdf6e" y="842.346627"/>
     <use style="fill:#ae7181;stroke:#000000;stroke-linejoin:bevel;" x="519.160836" xlink:href="#mb1734cdf6e" y="837.57903"/>
     <use style="fill:#ae7181;stroke:#000000;stroke-linejoin:bevel;" x="561.878539" xlink:href="#mb1734cdf6e" y="834.374792"/>
     <use style="fill:#ae7181;stroke:#000000;stroke-linejoin:bevel;" x="604.596243" xlink:href="#mb1734cdf6e" y="834.904525"/>
     <use style="fill:#ae7181;stroke:#000000;stroke-linejoin:bevel;" x="647.313946" xlink:href="#mb1734cdf6e" y="832.307541"/>
     <use style="fill:#ae7181;stroke:#000000;stroke-linejoin:bevel;" x="690.031649" xlink:href="#mb1734cdf6e" y="829.303568"/>
     <use style="fill:#ae7181;stroke:#000000;stroke-linejoin:bevel;" x="732.749353" xlink:href="#mb1734cdf6e" y="828.625251"/>
     <use style="fill:#ae7181;stroke:#000000;stroke-linejoin:bevel;" x="775.467056" xlink:href="#mb1734cdf6e" y="825.059244"/>
     <use style="fill:#ae7181;stroke:#000000;stroke-linejoin:bevel;" x="818.184759" xlink:href="#mb1734cdf6e" y="826.163931"/>
     <use style="fill:#ae7181;stroke:#000000;stroke-linejoin:bevel;" x="860.902463" xlink:href="#mb1734cdf6e" y="824.141901"/>
     <use style="fill:#ae7181;stroke:#000000;stroke-linejoin:bevel;" x="903.620166" xlink:href="#mb1734cdf6e" y="827.662687"/>
     <use style="fill:#ae7181;stroke:#000000;stroke-linejoin:bevel;" x="946.337869" xlink:href="#mb1734cdf6e" y="826.422337"/>
    </g>
   </g>
   <g id="patch_3">
    <path d="M 94.119688 1005.12 
L 94.119688 7.2 
" style="fill:none;stroke:#000000;stroke-linecap:square;stroke-linejoin:miter;stroke-width:0.8;"/>
   </g>
   <g id="patch_4">
    <path d="M 986.919688 1005.12 
L 986.919688 7.2 
" style="fill:none;stroke:#000000;stroke-linecap:square;stroke-linejoin:miter;stroke-width:0.8;"/>
   </g>
   <g id="patch_5">
    <path d="M 94.119688 1005.12 
L 986.919687 1005.12 
" style="fill:none;stroke:#000000;stroke-linecap:square;stroke-linejoin:miter;stroke-width:0.8;"/>
   </g>
   <g id="patch_6">
    <path d="M 94.119688 7.2 
L 986.919687 7.2 
" style="fill:none;stroke:#000000;stroke-linecap:square;stroke-linejoin:miter;stroke-width:0.8;"/>
   </g>
   <g id="legend_1">
    <g id="patch_7">
     <path d="M 489.27125 686.7975 
L 965.919688 686.7975 
Q 971.919688 686.7975 971.919688 680.7975 
L 971.919688 331.5225 
Q 971.919688 325.5225 965.919688 325.5225 
L 489.27125 325.5225 
Q 483.27125 325.5225 483.27125 331.5225 
L 483.27125 680.7975 
Q 483.27125 686.7975 489.27125 686.7975 
z
" style="fill:#ffffff;opacity:0.8;stroke:#cccccc;stroke-linejoin:miter;"/>
    </g>
    <g id="line2d_35">
     <path d="M 495.27125 349.817812 
L 555.27125 349.817812 
" style="fill:none;stroke:#fe0002;stroke-linecap:square;stroke-width:1.5;"/>
    </g>
    <g id="line2d_36">
     <g>
      <use style="fill:#fe0002;stroke:#000000;" x="525.27125" xlink:href="#ma17187f803" y="349.817812"/>
     </g>
    </g>
    <g id="text_16">
     <!-- Pairing comparisons -->
     <g transform="translate(579.27125 360.317812)scale(0.3 -0.3)">
      <defs>
       <path d="M 1259 4147 
L 1259 2394 
L 2053 2394 
Q 2494 2394 2734 2622 
Q 2975 2850 2975 3272 
Q 2975 3691 2734 3919 
Q 2494 4147 2053 4147 
L 1259 4147 
z
M 628 4666 
L 2053 4666 
Q 2838 4666 3239 4311 
Q 3641 3956 3641 3272 
Q 3641 2581 3239 2228 
Q 2838 1875 2053 1875 
L 1259 1875 
L 1259 0 
L 628 0 
L 628 4666 
z
" id="DejaVuSans-50" transform="scale(0.015625)"/>
       <path d="M 3122 3366 
L 3122 2828 
Q 2878 2963 2633 3030 
Q 2388 3097 2138 3097 
Q 1578 3097 1268 2742 
Q 959 2388 959 1747 
Q 959 1106 1268 751 
Q 1578 397 2138 397 
Q 2388 397 2633 464 
Q 2878 531 3122 666 
L 3122 134 
Q 2881 22 2623 -34 
Q 2366 -91 2075 -91 
Q 1284 -91 818 406 
Q 353 903 353 1747 
Q 353 2603 823 3093 
Q 1294 3584 2113 3584 
Q 2378 3584 2631 3529 
Q 2884 3475 3122 3366 
z
" id="DejaVuSans-63" transform="scale(0.015625)"/>
      </defs>
      <use xlink:href="#DejaVuSans-50"/>
      <use x="55.802734" xlink:href="#DejaVuSans-61"/>
      <use x="117.082031" xlink:href="#DejaVuSans-69"/>
      <use x="144.865234" xlink:href="#DejaVuSans-72"/>
      <use x="185.978516" xlink:href="#DejaVuSans-69"/>
      <use x="213.761719" xlink:href="#DejaVuSans-6e"/>
      <use x="277.140625" xlink:href="#DejaVuSans-67"/>
      <use x="340.617188" xlink:href="#DejaVuSans-20"/>
      <use x="372.404297" xlink:href="#DejaVuSans-63"/>
      <use x="427.384766" xlink:href="#DejaVuSans-6f"/>
      <use x="488.566406" xlink:href="#DejaVuSans-6d"/>
      <use x="585.978516" xlink:href="#DejaVuSans-70"/>
      <use x="649.455078" xlink:href="#DejaVuSans-61"/>
      <use x="710.734375" xlink:href="#DejaVuSans-72"/>
      <use x="751.847656" xlink:href="#DejaVuSans-69"/>
      <use x="779.630859" xlink:href="#DejaVuSans-73"/>
      <use x="831.730469" xlink:href="#DejaVuSans-6f"/>
      <use x="892.912109" xlink:href="#DejaVuSans-6e"/>
      <use x="956.291016" xlink:href="#DejaVuSans-73"/>
     </g>
    </g>
    <g id="line2d_37">
     <path d="M 495.27125 393.852187 
L 555.27125 393.852187 
" style="fill:none;stroke:#fe0002;stroke-dasharray:5.55,2.4;stroke-dashoffset:0;stroke-width:1.5;"/>
    </g>
    <g id="line2d_38">
     <g>
      <use style="fill:#fe0002;stroke:#000000;" x="525.27125" xlink:href="#ma17187f803" y="393.852187"/>
     </g>
    </g>
    <g id="text_17">
     <!-- Pairing links -->
     <g transform="translate(579.27125 404.352187)scale(0.3 -0.3)">
      <defs>
       <path d="M 581 4863 
L 1159 4863 
L 1159 1991 
L 2875 3500 
L 3609 3500 
L 1753 1863 
L 3688 0 
L 2938 0 
L 1159 1709 
L 1159 0 
L 581 0 
L 581 4863 
z
" id="DejaVuSans-6b" transform="scale(0.015625)"/>
      </defs>
      <use xlink:href="#DejaVuSans-50"/>
      <use x="55.802734" xlink:href="#DejaVuSans-61"/>
      <use x="117.082031" xlink:href="#DejaVuSans-69"/>
      <use x="144.865234" xlink:href="#DejaVuSans-72"/>
      <use x="185.978516" xlink:href="#DejaVuSans-69"/>
      <use x="213.761719" xlink:href="#DejaVuSans-6e"/>
      <use x="277.140625" xlink:href="#DejaVuSans-67"/>
      <use x="340.617188" xlink:href="#DejaVuSans-20"/>
      <use x="372.404297" xlink:href="#DejaVuSans-6c"/>
      <use x="400.1875" xlink:href="#DejaVuSans-69"/>
      <use x="427.970703" xlink:href="#DejaVuSans-6e"/>
      <use x="491.349609" xlink:href="#DejaVuSans-6b"/>
      <use x="549.259766" xlink:href="#DejaVuSans-73"/>
     </g>
    </g>
    <g id="line2d_39">
     <path d="M 495.27125 437.886562 
L 555.27125 437.886562 
" style="fill:none;stroke:#53fca1;stroke-linecap:square;stroke-width:1.5;"/>
    </g>
    <g id="line2d_40">
     <g>
      <use style="fill:#53fca1;stroke:#000000;stroke-linejoin:miter;" x="525.27125" xlink:href="#m2d29b00fcf" y="437.886562"/>
     </g>
    </g>
    <g id="text_18">
     <!-- Smooth comparisons -->
     <g transform="translate(579.27125 448.386562)scale(0.3 -0.3)">
      <defs>
       <path d="M 3425 4513 
L 3425 3897 
Q 3066 4069 2747 4153 
Q 2428 4238 2131 4238 
Q 1616 4238 1336 4038 
Q 1056 3838 1056 3469 
Q 1056 3159 1242 3001 
Q 1428 2844 1947 2747 
L 2328 2669 
Q 3034 2534 3370 2195 
Q 3706 1856 3706 1288 
Q 3706 609 3251 259 
Q 2797 -91 1919 -91 
Q 1588 -91 1214 -16 
Q 841 59 441 206 
L 441 856 
Q 825 641 1194 531 
Q 1563 422 1919 422 
Q 2459 422 2753 634 
Q 3047 847 3047 1241 
Q 3047 1584 2836 1778 
Q 2625 1972 2144 2069 
L 1759 2144 
Q 1053 2284 737 2584 
Q 422 2884 422 3419 
Q 422 4038 858 4394 
Q 1294 4750 2059 4750 
Q 2388 4750 2728 4690 
Q 3069 4631 3425 4513 
z
" id="DejaVuSans-53" transform="scale(0.015625)"/>
       <path d="M 3513 2113 
L 3513 0 
L 2938 0 
L 2938 2094 
Q 2938 2591 2744 2837 
Q 2550 3084 2163 3084 
Q 1697 3084 1428 2787 
Q 1159 2491 1159 1978 
L 1159 0 
L 581 0 
L 581 4863 
L 1159 4863 
L 1159 2956 
Q 1366 3272 1645 3428 
Q 1925 3584 2291 3584 
Q 2894 3584 3203 3211 
Q 3513 2838 3513 2113 
z
" id="DejaVuSans-68" transform="scale(0.015625)"/>
      </defs>
      <use xlink:href="#DejaVuSans-53"/>
      <use x="63.476562" xlink:href="#DejaVuSans-6d"/>
      <use x="160.888672" xlink:href="#DejaVuSans-6f"/>
      <use x="222.070312" xlink:href="#DejaVuSans-6f"/>
      <use x="283.251953" xlink:href="#DejaVuSans-74"/>
      <use x="322.460938" xlink:href="#DejaVuSans-68"/>
      <use x="385.839844" xlink:href="#DejaVuSans-20"/>
      <use x="417.626953" xlink:href="#DejaVuSans-63"/>
      <use x="472.607422" xlink:href="#DejaVuSans-6f"/>
      <use x="533.789062" xlink:href="#DejaVuSans-6d"/>
      <use x="631.201172" xlink:href="#DejaVuSans-70"/>
      <use x="694.677734" xlink:href="#DejaVuSans-61"/>
      <use x="755.957031" xlink:href="#DejaVuSans-72"/>
      <use x="797.070312" xlink:href="#DejaVuSans-69"/>
      <use x="824.853516" xlink:href="#DejaVuSans-73"/>
      <use x="876.953125" xlink:href="#DejaVuSans-6f"/>
      <use x="938.134766" xlink:href="#DejaVuSans-6e"/>
      <use x="1001.513672" xlink:href="#DejaVuSans-73"/>
     </g>
    </g>
    <g id="line2d_41">
     <path d="M 495.27125 481.920937 
L 555.27125 481.920937 
" style="fill:none;stroke:#53fca1;stroke-dasharray:5.55,2.4;stroke-dashoffset:0;stroke-width:1.5;"/>
    </g>
    <g id="line2d_42">
     <g>
      <use style="fill:#53fca1;stroke:#000000;stroke-linejoin:miter;" x="525.27125" xlink:href="#md6cd59a7d1" y="481.920937"/>
     </g>
    </g>
    <g id="text_19">
     <!-- Smooth links -->
     <g transform="translate(579.27125 492.420937)scale(0.3 -0.3)">
      <use xlink:href="#DejaVuSans-53"/>
      <use x="63.476562" xlink:href="#DejaVuSans-6d"/>
      <use x="160.888672" xlink:href="#DejaVuSans-6f"/>
      <use x="222.070312" xlink:href="#DejaVuSans-6f"/>
      <use x="283.251953" xlink:href="#DejaVuSans-74"/>
      <use x="322.460938" xlink:href="#DejaVuSans-68"/>
      <use x="385.839844" xlink:href="#DejaVuSans-20"/>
      <use x="417.626953" xlink:href="#DejaVuSans-6c"/>
      <use x="445.410156" xlink:href="#DejaVuSans-69"/>
      <use x="473.193359" xlink:href="#DejaVuSans-6e"/>
      <use x="536.572266" xlink:href="#DejaVuSans-6b"/>
      <use x="594.482422" xlink:href="#DejaVuSans-73"/>
     </g>
    </g>
    <g id="line2d_43">
     <path d="M 495.27125 525.955312 
L 555.27125 525.955312 
" style="fill:none;stroke:#0652ff;stroke-linecap:square;stroke-width:1.5;"/>
    </g>
    <g id="line2d_44">
     <g>
      <use style="fill:#0652ff;stroke:#000000;stroke-linejoin:miter;" x="525.27125" xlink:href="#md1c5ee006d" y="525.955312"/>
     </g>
    </g>
    <g id="text_20">
     <!-- Slim comparisons -->
     <g transform="translate(579.27125 536.455312)scale(0.3 -0.3)">
      <use xlink:href="#DejaVuSans-53"/>
      <use x="63.476562" xlink:href="#DejaVuSans-6c"/>
      <use x="91.259766" xlink:href="#DejaVuSans-69"/>
      <use x="119.042969" xlink:href="#DejaVuSans-6d"/>
      <use x="216.455078" xlink:href="#DejaVuSans-20"/>
      <use x="248.242188" xlink:href="#DejaVuSans-63"/>
      <use x="303.222656" xlink:href="#DejaVuSans-6f"/>
      <use x="364.404297" xlink:href="#DejaVuSans-6d"/>
      <use x="461.816406" xlink:href="#DejaVuSans-70"/>
      <use x="525.292969" xlink:href="#DejaVuSans-61"/>
      <use x="586.572266" xlink:href="#DejaVuSans-72"/>
      <use x="627.685547" xlink:href="#DejaVuSans-69"/>
      <use x="655.46875" xlink:href="#DejaVuSans-73"/>
      <use x="707.568359" xlink:href="#DejaVuSans-6f"/>
      <use x="768.75" xlink:href="#DejaVuSans-6e"/>
      <use x="832.128906" xlink:href="#DejaVuSans-73"/>
     </g>
    </g>
    <g id="line2d_45">
     <path d="M 495.27125 569.989687 
L 555.27125 569.989687 
" style="fill:none;stroke:#0652ff;stroke-dasharray:5.55,2.4;stroke-dashoffset:0;stroke-width:1.5;"/>
    </g>
    <g id="line2d_46">
     <g>
      <use style="fill:#0652ff;stroke:#000000;stroke-linejoin:miter;" x="525.27125" xlink:href="#m08789399c2" y="569.989687"/>
     </g>
    </g>
    <g id="text_21">
     <!-- Slim links -->
     <g transform="translate(579.27125 580.489687)scale(0.3 -0.3)">
      <use xlink:href="#DejaVuSans-53"/>
      <use x="63.476562" xlink:href="#DejaVuSans-6c"/>
      <use x="91.259766" xlink:href="#DejaVuSans-69"/>
      <use x="119.042969" xlink:href="#DejaVuSans-6d"/>
      <use x="216.455078" xlink:href="#DejaVuSans-20"/>
      <use x="248.242188" xlink:href="#DejaVuSans-6c"/>
      <use x="276.025391" xlink:href="#DejaVuSans-69"/>
      <use x="303.808594" xlink:href="#DejaVuSans-6e"/>
      <use x="367.1875" xlink:href="#DejaVuSans-6b"/>
      <use x="425.097656" xlink:href="#DejaVuSans-73"/>
     </g>
    </g>
    <g id="line2d_47">
     <path d="M 495.27125 614.024062 
L 555.27125 614.024062 
" style="fill:none;stroke:#ae7181;stroke-linecap:square;stroke-width:1.5;"/>
    </g>
    <g id="line2d_48">
     <g>
      <use style="fill:#ae7181;stroke:#000000;stroke-linejoin:miter;" x="525.27125" xlink:href="#me807dea522" y="614.024062"/>
     </g>
    </g>
    <g id="text_22">
     <!-- Pairing Lazy comparisons -->
     <g transform="translate(579.27125 624.524062)scale(0.3 -0.3)">
      <defs>
       <path d="M 628 4666 
L 1259 4666 
L 1259 531 
L 3531 531 
L 3531 0 
L 628 0 
L 628 4666 
z
" id="DejaVuSans-4c" transform="scale(0.015625)"/>
      </defs>
      <use xlink:href="#DejaVuSans-50"/>
      <use x="55.802734" xlink:href="#DejaVuSans-61"/>
      <use x="117.082031" xlink:href="#DejaVuSans-69"/>
      <use x="144.865234" xlink:href="#DejaVuSans-72"/>
      <use x="185.978516" xlink:href="#DejaVuSans-69"/>
      <use x="213.761719" xlink:href="#DejaVuSans-6e"/>
      <use x="277.140625" xlink:href="#DejaVuSans-67"/>
      <use x="340.617188" xlink:href="#DejaVuSans-20"/>
      <use x="372.404297" xlink:href="#DejaVuSans-4c"/>
      <use x="428.117188" xlink:href="#DejaVuSans-61"/>
      <use x="489.396484" xlink:href="#DejaVuSans-7a"/>
      <use x="541.886719" xlink:href="#DejaVuSans-79"/>
      <use x="601.066406" xlink:href="#DejaVuSans-20"/>
      <use x="632.853516" xlink:href="#DejaVuSans-63"/>
      <use x="687.833984" xlink:href="#DejaVuSans-6f"/>
      <use x="749.015625" xlink:href="#DejaVuSans-6d"/>
      <use x="846.427734" xlink:href="#DejaVuSans-70"/>
      <use x="909.904297" xlink:href="#DejaVuSans-61"/>
      <use x="971.183594" xlink:href="#DejaVuSans-72"/>
      <use x="1012.296875" xlink:href="#DejaVuSans-69"/>
      <use x="1040.080078" xlink:href="#DejaVuSans-73"/>
      <use x="1092.179688" xlink:href="#DejaVuSans-6f"/>
      <use x="1153.361328" xlink:href="#DejaVuSans-6e"/>
      <use x="1216.740234" xlink:href="#DejaVuSans-73"/>
     </g>
    </g>
    <g id="line2d_49">
     <path d="M 495.27125 658.058437 
L 555.27125 658.058437 
" style="fill:none;stroke:#ae7181;stroke-dasharray:5.55,2.4;stroke-dashoffset:0;stroke-width:1.5;"/>
    </g>
    <g id="line2d_50">
     <g>
      <use style="fill:#ae7181;stroke:#000000;stroke-linejoin:bevel;" x="525.27125" xlink:href="#mb1734cdf6e" y="658.058437"/>
     </g>
    </g>
    <g id="text_23">
     <!-- Pairing Lazy links -->
     <g transform="translate(579.27125 668.558437)scale(0.3 -0.3)">
      <use xlink:href="#DejaVuSans-50"/>
      <use x="55.802734" xlink:href="#DejaVuSans-61"/>
      <use x="117.082031" xlink:href="#DejaVuSans-69"/>
      <use x="144.865234" xlink:href="#DejaVuSans-72"/>
      <use x="185.978516" xlink:href="#DejaVuSans-69"/>
      <use x="213.761719" xlink:href="#DejaVuSans-6e"/>
      <use x="277.140625" xlink:href="#DejaVuSans-67"/>
      <use x="340.617188" xlink:href="#DejaVuSans-20"/>
      <use x="372.404297" xlink:href="#DejaVuSans-4c"/>
      <use x="428.117188" xlink:href="#DejaVuSans-61"/>
      <use x="489.396484" xlink:href="#DejaVuSans-7a"/>
      <use x="541.886719" xlink:href="#DejaVuSans-79"/>
      <use x="601.066406" xlink:href="#DejaVuSans-20"/>
      <use x="632.853516" xlink:href="#DejaVuSans-6c"/>
      <use x="660.636719" xlink:href="#DejaVuSans-69"/>
      <use x="688.419922" xlink:href="#DejaVuSans-6e"/>
      <use x="751.798828" xlink:href="#DejaVuSans-6b"/>
      <use x="809.708984" xlink:href="#DejaVuSans-73"/>
     </g>
    </g>
   </g>
  </g>
 </g>
 <defs>
  <clipPath id="pd1adc0326e">
   <rect height="997.92" width="892.8" x="94.119688" y="7.2"/>
  </clipPath>
 </defs>
</svg>
