<?xml version="1.0" encoding="utf-8" standalone="no"?>
<!DOCTYPE svg PUBLIC "-//W3C//DTD SVG 1.1//EN"
  "http://www.w3.org/Graphics/SVG/1.1/DTD/svg11.dtd">
<!-- Created with matplotlib (https://matplotlib.org/) -->
<svg height="1067.839375pt" version="1.1" viewBox="0 0 968.813125 1067.839375" width="968.813125pt" xmlns="http://www.w3.org/2000/svg" xmlns:xlink="http://www.w3.org/1999/xlink">
 <defs>
  <style type="text/css">
*{stroke-linecap:butt;stroke-linejoin:round;}
  </style>
 </defs>
 <g id="figure_1">
  <g id="patch_1">
   <path d="M 0 1067.839375 
L 968.813125 1067.839375 
L 968.813125 0 
L 0 0 
z
" style="fill:#ffffff;"/>
  </g>
  <g id="axes_1">
   <g id="patch_2">
    <path d="M 68.813125 1005.12 
L 961.613125 1005.12 
L 961.613125 7.2 
L 68.813125 7.2 
z
" style="fill:#ffffff;"/>
   </g>
   <g id="PolyCollection_1">
    <defs>
     <path d="M 109.394943 -297.948337 
L 109.394943 -237.447718 
L 152.112647 -308.669449 
L 194.83035 -374.461969 
L 237.548053 -390.864529 
L 280.265757 -424.821164 
L 322.98346 -450.179216 
L 365.701163 -455.145424 
L 408.418867 -474.802619 
L 451.13657 -491.149299 
L 493.854273 -498.415119 
L 536.571977 -513.667605 
L 579.28968 -514.890827 
L 622.007383 -523.761748 
L 664.725087 -534.457698 
L 707.44279 -548.62473 
L 750.160493 -550.089689 
L 792.878197 -568.647346 
L 835.5959 -570.696587 
L 878.313603 -575.174278 
L 921.031307 -583.192156 
L 921.031307 -645.339576 
L 921.031307 -645.339576 
L 878.313603 -639.153307 
L 835.5959 -625.01599 
L 792.878197 -623.743644 
L 750.160493 -615.255735 
L 707.44279 -608.338774 
L 664.725087 -603.450659 
L 622.007383 -587.596159 
L 579.28968 -584.636707 
L 536.571977 -569.571045 
L 493.854273 -562.387451 
L 451.13657 -551.573139 
L 408.418867 -528.222736 
L 365.701163 -518.681525 
L 322.98346 -498.140507 
L 280.265757 -481.473375 
L 237.548053 -437.929745 
L 194.83035 -419.242827 
L 152.112647 -373.474061 
L 109.394943 -297.948337 
z
" id="m13e135a40e" style="stroke:#fe4d4e;stroke-opacity:0.3;"/>
    </defs>
    <g clip-path="url(#p65dd5189cc)">
     <use style="fill:#fe4d4e;fill-opacity:0.3;stroke:#fe4d4e;stroke-opacity:0.3;" x="0" xlink:href="#m13e135a40e" y="1067.839375"/>
    </g>
   </g>
   <g id="PolyCollection_2">
    <g clip-path="url(#p65dd5189cc)">
     <use style="fill:#fe4d4e;fill-opacity:0.3;stroke:#fe4d4e;stroke-opacity:0.3;" x="0" xlink:href="#m13e135a40e" y="1067.839375"/>
    </g>
   </g>
   <g id="PolyCollection_3">
    <defs>
     <path d="M 109.394943 -473.400129 
L 109.394943 -423.454938 
L 152.112647 -547.608019 
L 194.83035 -618.887195 
L 237.548053 -681.780474 
L 280.265757 -702.066516 
L 322.98346 -749.986359 
L 365.701163 -773.218705 
L 408.418867 -798.040983 
L 451.13657 -810.474228 
L 493.854273 -829.847357 
L 536.571977 -850.27971 
L 579.28968 -872.828651 
L 622.007383 -883.987495 
L 664.725087 -892.074801 
L 707.44279 -907.354813 
L 750.160493 -912.957442 
L 792.878197 -923.216939 
L 835.5959 -938.735133 
L 878.313603 -944.738076 
L 921.031307 -958.503286 
L 921.031307 -1015.279375 
L 921.031307 -1015.279375 
L 878.313603 -1012.348197 
L 835.5959 -1003.685255 
L 792.878197 -975.034614 
L 750.160493 -981.205167 
L 707.44279 -961.255676 
L 664.725087 -952.863902 
L 622.007383 -944.988182 
L 579.28968 -928.854746 
L 536.571977 -912.104721 
L 493.854273 -895.13006 
L 451.13657 -879.326255 
L 408.418867 -851.542957 
L 365.701163 -837.877022 
L 322.98346 -796.180999 
L 280.265757 -762.877407 
L 237.548053 -739.98326 
L 194.83035 -672.145982 
L 152.112647 -610.007645 
L 109.394943 -473.400129 
z
" id="m248d3e8500" style="stroke:#58ab8e;stroke-opacity:0.3;"/>
    </defs>
    <g clip-path="url(#p65dd5189cc)">
     <use style="fill:#58ab8e;fill-opacity:0.3;stroke:#58ab8e;stroke-opacity:0.3;" x="0" xlink:href="#m248d3e8500" y="1067.839375"/>
    </g>
   </g>
   <g id="PolyCollection_4">
    <defs>
     <path d="M 109.394943 -127.645532 
L 109.394943 -108.079375 
L 152.112647 -183.2202 
L 194.83035 -222.902677 
L 237.548053 -252.053171 
L 280.265757 -272.100823 
L 322.98346 -291.180666 
L 365.701163 -304.170031 
L 408.418867 -318.013021 
L 451.13657 -328.029677 
L 493.854273 -338.327046 
L 536.571977 -347.661076 
L 579.28968 -356.883911 
L 622.007383 -362.138668 
L 664.725087 -370.736381 
L 707.44279 -374.640159 
L 750.160493 -381.252997 
L 792.878197 -386.193897 
L 835.5959 -392.364275 
L 878.313603 -396.940082 
L 921.031307 -402.619666 
L 921.031307 -407.400741 
L 921.031307 -407.400741 
L 878.313603 -402.87685 
L 835.5959 -397.726996 
L 792.878197 -391.331692 
L 750.160493 -386.088611 
L 707.44279 -380.540756 
L 664.725087 -374.604183 
L 622.007383 -366.706912 
L 579.28968 -361.733898 
L 536.571977 -353.30861 
L 493.854273 -342.756101 
L 451.13657 -334.230726 
L 408.418867 -323.939495 
L 365.701163 -311.483136 
L 322.98346 -297.898301 
L 280.265757 -279.162733 
L 237.548053 -262.243558 
L 194.83035 -231.076271 
L 152.112647 -193.16514 
L 109.394943 -127.645532 
z
" id="mc397cc52bd" style="stroke:#58ab8e;stroke-opacity:0.3;"/>
    </defs>
    <g clip-path="url(#p65dd5189cc)">
     <use style="fill:#58ab8e;fill-opacity:0.3;stroke:#58ab8e;stroke-opacity:0.3;" x="0" xlink:href="#mc397cc52bd" y="1067.839375"/>
    </g>
   </g>
   <g id="matplotlib.axis_1">
    <g id="xtick_1">
     <g id="line2d_1">
      <path clip-path="url(#p65dd5189cc)" d="M 236.693699 1005.12 
L 236.693699 7.2 
" style="fill:none;stroke:#b0b0b0;stroke-linecap:square;stroke-width:0.8;"/>
     </g>
     <g id="line2d_2">
      <defs>
       <path d="M 0 0 
L 0 3.5 
" id="m47305c18bf" style="stroke:#000000;stroke-width:0.8;"/>
      </defs>
      <g>
       <use style="stroke:#000000;stroke-width:0.8;" x="236.693699" xlink:href="#m47305c18bf" y="1005.12"/>
      </g>
     </g>
     <g id="text_1">
      <!-- 2000 -->
      <defs>
       <path d="M 19.1875 8.296875 
L 53.609375 8.296875 
L 53.609375 0 
L 7.328125 0 
L 7.328125 8.296875 
Q 12.9375 14.109375 22.625 23.890625 
Q 32.328125 33.6875 34.8125 36.53125 
Q 39.546875 41.84375 41.421875 45.53125 
Q 43.3125 49.21875 43.3125 52.78125 
Q 43.3125 58.59375 39.234375 62.25 
Q 35.15625 65.921875 28.609375 65.921875 
Q 23.96875 65.921875 18.8125 64.3125 
Q 13.671875 62.703125 7.8125 59.421875 
L 7.8125 69.390625 
Q 13.765625 71.78125 18.9375 73 
Q 24.125 74.21875 28.421875 74.21875 
Q 39.75 74.21875 46.484375 68.546875 
Q 53.21875 62.890625 53.21875 53.421875 
Q 53.21875 48.921875 51.53125 44.890625 
Q 49.859375 40.875 45.40625 35.40625 
Q 44.1875 33.984375 37.640625 27.21875 
Q 31.109375 20.453125 19.1875 8.296875 
z
" id="DejaVuSans-50"/>
       <path d="M 31.78125 66.40625 
Q 24.171875 66.40625 20.328125 58.90625 
Q 16.5 51.421875 16.5 36.375 
Q 16.5 21.390625 20.328125 13.890625 
Q 24.171875 6.390625 31.78125 6.390625 
Q 39.453125 6.390625 43.28125 13.890625 
Q 47.125 21.390625 47.125 36.375 
Q 47.125 51.421875 43.28125 58.90625 
Q 39.453125 66.40625 31.78125 66.40625 
z
M 31.78125 74.21875 
Q 44.046875 74.21875 50.515625 64.515625 
Q 56.984375 54.828125 56.984375 36.375 
Q 56.984375 17.96875 50.515625 8.265625 
Q 44.046875 -1.421875 31.78125 -1.421875 
Q 19.53125 -1.421875 13.0625 8.265625 
Q 6.59375 17.96875 6.59375 36.375 
Q 6.59375 54.828125 13.0625 64.515625 
Q 19.53125 74.21875 31.78125 74.21875 
z
" id="DejaVuSans-48"/>
      </defs>
      <g transform="translate(211.243699 1027.316875)scale(0.2 -0.2)">
       <use xlink:href="#DejaVuSans-50"/>
       <use x="63.623047" xlink:href="#DejaVuSans-48"/>
       <use x="127.246094" xlink:href="#DejaVuSans-48"/>
       <use x="190.869141" xlink:href="#DejaVuSans-48"/>
      </g>
     </g>
    </g>
    <g id="xtick_2">
     <g id="line2d_3">
      <path clip-path="url(#p65dd5189cc)" d="M 407.564513 1005.12 
L 407.564513 7.2 
" style="fill:none;stroke:#b0b0b0;stroke-linecap:square;stroke-width:0.8;"/>
     </g>
     <g id="line2d_4">
      <g>
       <use style="stroke:#000000;stroke-width:0.8;" x="407.564513" xlink:href="#m47305c18bf" y="1005.12"/>
      </g>
     </g>
     <g id="text_2">
      <!-- 4000 -->
      <defs>
       <path d="M 37.796875 64.3125 
L 12.890625 25.390625 
L 37.796875 25.390625 
z
M 35.203125 72.90625 
L 47.609375 72.90625 
L 47.609375 25.390625 
L 58.015625 25.390625 
L 58.015625 17.1875 
L 47.609375 17.1875 
L 47.609375 0 
L 37.796875 0 
L 37.796875 17.1875 
L 4.890625 17.1875 
L 4.890625 26.703125 
z
" id="DejaVuSans-52"/>
      </defs>
      <g transform="translate(382.114513 1027.316875)scale(0.2 -0.2)">
       <use xlink:href="#DejaVuSans-52"/>
       <use x="63.623047" xlink:href="#DejaVuSans-48"/>
       <use x="127.246094" xlink:href="#DejaVuSans-48"/>
       <use x="190.869141" xlink:href="#DejaVuSans-48"/>
      </g>
     </g>
    </g>
    <g id="xtick_3">
     <g id="line2d_5">
      <path clip-path="url(#p65dd5189cc)" d="M 578.435326 1005.12 
L 578.435326 7.2 
" style="fill:none;stroke:#b0b0b0;stroke-linecap:square;stroke-width:0.8;"/>
     </g>
     <g id="line2d_6">
      <g>
       <use style="stroke:#000000;stroke-width:0.8;" x="578.435326" xlink:href="#m47305c18bf" y="1005.12"/>
      </g>
     </g>
     <g id="text_3">
      <!-- 6000 -->
      <defs>
       <path d="M 33.015625 40.375 
Q 26.375 40.375 22.484375 35.828125 
Q 18.609375 31.296875 18.609375 23.390625 
Q 18.609375 15.53125 22.484375 10.953125 
Q 26.375 6.390625 33.015625 6.390625 
Q 39.65625 6.390625 43.53125 10.953125 
Q 47.40625 15.53125 47.40625 23.390625 
Q 47.40625 31.296875 43.53125 35.828125 
Q 39.65625 40.375 33.015625 40.375 
z
M 52.59375 71.296875 
L 52.59375 62.3125 
Q 48.875 64.0625 45.09375 64.984375 
Q 41.3125 65.921875 37.59375 65.921875 
Q 27.828125 65.921875 22.671875 59.328125 
Q 17.53125 52.734375 16.796875 39.40625 
Q 19.671875 43.65625 24.015625 45.921875 
Q 28.375 48.1875 33.59375 48.1875 
Q 44.578125 48.1875 50.953125 41.515625 
Q 57.328125 34.859375 57.328125 23.390625 
Q 57.328125 12.15625 50.6875 5.359375 
Q 44.046875 -1.421875 33.015625 -1.421875 
Q 20.359375 -1.421875 13.671875 8.265625 
Q 6.984375 17.96875 6.984375 36.375 
Q 6.984375 53.65625 15.1875 63.9375 
Q 23.390625 74.21875 37.203125 74.21875 
Q 40.921875 74.21875 44.703125 73.484375 
Q 48.484375 72.75 52.59375 71.296875 
z
" id="DejaVuSans-54"/>
      </defs>
      <g transform="translate(552.985326 1027.316875)scale(0.2 -0.2)">
       <use xlink:href="#DejaVuSans-54"/>
       <use x="63.623047" xlink:href="#DejaVuSans-48"/>
       <use x="127.246094" xlink:href="#DejaVuSans-48"/>
       <use x="190.869141" xlink:href="#DejaVuSans-48"/>
      </g>
     </g>
    </g>
    <g id="xtick_4">
     <g id="line2d_7">
      <path clip-path="url(#p65dd5189cc)" d="M 749.306139 1005.12 
L 749.306139 7.2 
" style="fill:none;stroke:#b0b0b0;stroke-linecap:square;stroke-width:0.8;"/>
     </g>
     <g id="line2d_8">
      <g>
       <use style="stroke:#000000;stroke-width:0.8;" x="749.306139" xlink:href="#m47305c18bf" y="1005.12"/>
      </g>
     </g>
     <g id="text_4">
      <!-- 8000 -->
      <defs>
       <path d="M 31.78125 34.625 
Q 24.75 34.625 20.71875 30.859375 
Q 16.703125 27.09375 16.703125 20.515625 
Q 16.703125 13.921875 20.71875 10.15625 
Q 24.75 6.390625 31.78125 6.390625 
Q 38.8125 6.390625 42.859375 10.171875 
Q 46.921875 13.96875 46.921875 20.515625 
Q 46.921875 27.09375 42.890625 30.859375 
Q 38.875 34.625 31.78125 34.625 
z
M 21.921875 38.8125 
Q 15.578125 40.375 12.03125 44.71875 
Q 8.5 49.078125 8.5 55.328125 
Q 8.5 64.0625 14.71875 69.140625 
Q 20.953125 74.21875 31.78125 74.21875 
Q 42.671875 74.21875 48.875 69.140625 
Q 55.078125 64.0625 55.078125 55.328125 
Q 55.078125 49.078125 51.53125 44.71875 
Q 48 40.375 41.703125 38.8125 
Q 48.828125 37.15625 52.796875 32.3125 
Q 56.78125 27.484375 56.78125 20.515625 
Q 56.78125 9.90625 50.3125 4.234375 
Q 43.84375 -1.421875 31.78125 -1.421875 
Q 19.734375 -1.421875 13.25 4.234375 
Q 6.78125 9.90625 6.78125 20.515625 
Q 6.78125 27.484375 10.78125 32.3125 
Q 14.796875 37.15625 21.921875 38.8125 
z
M 18.3125 54.390625 
Q 18.3125 48.734375 21.84375 45.5625 
Q 25.390625 42.390625 31.78125 42.390625 
Q 38.140625 42.390625 41.71875 45.5625 
Q 45.3125 48.734375 45.3125 54.390625 
Q 45.3125 60.0625 41.71875 63.234375 
Q 38.140625 66.40625 31.78125 66.40625 
Q 25.390625 66.40625 21.84375 63.234375 
Q 18.3125 60.0625 18.3125 54.390625 
z
" id="DejaVuSans-56"/>
      </defs>
      <g transform="translate(723.856139 1027.316875)scale(0.2 -0.2)">
       <use xlink:href="#DejaVuSans-56"/>
       <use x="63.623047" xlink:href="#DejaVuSans-48"/>
       <use x="127.246094" xlink:href="#DejaVuSans-48"/>
       <use x="190.869141" xlink:href="#DejaVuSans-48"/>
      </g>
     </g>
    </g>
    <g id="xtick_5">
     <g id="line2d_9">
      <path clip-path="url(#p65dd5189cc)" d="M 920.176953 1005.12 
L 920.176953 7.2 
" style="fill:none;stroke:#b0b0b0;stroke-linecap:square;stroke-width:0.8;"/>
     </g>
     <g id="line2d_10">
      <g>
       <use style="stroke:#000000;stroke-width:0.8;" x="920.176953" xlink:href="#m47305c18bf" y="1005.12"/>
      </g>
     </g>
     <g id="text_5">
      <!-- 10000 -->
      <defs>
       <path d="M 12.40625 8.296875 
L 28.515625 8.296875 
L 28.515625 63.921875 
L 10.984375 60.40625 
L 10.984375 69.390625 
L 28.421875 72.90625 
L 38.28125 72.90625 
L 38.28125 8.296875 
L 54.390625 8.296875 
L 54.390625 0 
L 12.40625 0 
z
" id="DejaVuSans-49"/>
      </defs>
      <g transform="translate(888.364453 1027.316875)scale(0.2 -0.2)">
       <use xlink:href="#DejaVuSans-49"/>
       <use x="63.623047" xlink:href="#DejaVuSans-48"/>
       <use x="127.246094" xlink:href="#DejaVuSans-48"/>
       <use x="190.869141" xlink:href="#DejaVuSans-48"/>
       <use x="254.492188" xlink:href="#DejaVuSans-48"/>
      </g>
     </g>
    </g>
    <g id="text_6">
     <!-- Graph size -->
     <defs>
      <path d="M 59.515625 10.40625 
L 59.515625 29.984375 
L 43.40625 29.984375 
L 43.40625 38.09375 
L 69.28125 38.09375 
L 69.28125 6.78125 
Q 63.578125 2.734375 56.6875 0.65625 
Q 49.8125 -1.421875 42 -1.421875 
Q 24.90625 -1.421875 15.25 8.5625 
Q 5.609375 18.5625 5.609375 36.375 
Q 5.609375 54.25 15.25 64.234375 
Q 24.90625 74.21875 42 74.21875 
Q 49.125 74.21875 55.546875 72.453125 
Q 61.96875 70.703125 67.390625 67.28125 
L 67.390625 56.78125 
Q 61.921875 61.421875 55.765625 63.765625 
Q 49.609375 66.109375 42.828125 66.109375 
Q 29.4375 66.109375 22.71875 58.640625 
Q 16.015625 51.171875 16.015625 36.375 
Q 16.015625 21.625 22.71875 14.15625 
Q 29.4375 6.6875 42.828125 6.6875 
Q 48.046875 6.6875 52.140625 7.59375 
Q 56.25 8.5 59.515625 10.40625 
z
" id="DejaVuSans-71"/>
      <path d="M 41.109375 46.296875 
Q 39.59375 47.171875 37.8125 47.578125 
Q 36.03125 48 33.890625 48 
Q 26.265625 48 22.1875 43.046875 
Q 18.109375 38.09375 18.109375 28.8125 
L 18.109375 0 
L 9.078125 0 
L 9.078125 54.6875 
L 18.109375 54.6875 
L 18.109375 46.1875 
Q 20.953125 51.171875 25.484375 53.578125 
Q 30.03125 56 36.53125 56 
Q 37.453125 56 38.578125 55.875 
Q 39.703125 55.765625 41.0625 55.515625 
z
" id="DejaVuSans-114"/>
      <path d="M 34.28125 27.484375 
Q 23.390625 27.484375 19.1875 25 
Q 14.984375 22.515625 14.984375 16.5 
Q 14.984375 11.71875 18.140625 8.90625 
Q 21.296875 6.109375 26.703125 6.109375 
Q 34.1875 6.109375 38.703125 11.40625 
Q 43.21875 16.703125 43.21875 25.484375 
L 43.21875 27.484375 
z
M 52.203125 31.203125 
L 52.203125 0 
L 43.21875 0 
L 43.21875 8.296875 
Q 40.140625 3.328125 35.546875 0.953125 
Q 30.953125 -1.421875 24.3125 -1.421875 
Q 15.921875 -1.421875 10.953125 3.296875 
Q 6 8.015625 6 15.921875 
Q 6 25.140625 12.171875 29.828125 
Q 18.359375 34.515625 30.609375 34.515625 
L 43.21875 34.515625 
L 43.21875 35.40625 
Q 43.21875 41.609375 39.140625 45 
Q 35.0625 48.390625 27.6875 48.390625 
Q 23 48.390625 18.546875 47.265625 
Q 14.109375 46.140625 10.015625 43.890625 
L 10.015625 52.203125 
Q 14.9375 54.109375 19.578125 55.046875 
Q 24.21875 56 28.609375 56 
Q 40.484375 56 46.34375 49.84375 
Q 52.203125 43.703125 52.203125 31.203125 
z
" id="DejaVuSans-97"/>
      <path d="M 18.109375 8.203125 
L 18.109375 -20.796875 
L 9.078125 -20.796875 
L 9.078125 54.6875 
L 18.109375 54.6875 
L 18.109375 46.390625 
Q 20.953125 51.265625 25.265625 53.625 
Q 29.59375 56 35.59375 56 
Q 45.5625 56 51.78125 48.09375 
Q 58.015625 40.1875 58.015625 27.296875 
Q 58.015625 14.40625 51.78125 6.484375 
Q 45.5625 -1.421875 35.59375 -1.421875 
Q 29.59375 -1.421875 25.265625 0.953125 
Q 20.953125 3.328125 18.109375 8.203125 
z
M 48.6875 27.296875 
Q 48.6875 37.203125 44.609375 42.84375 
Q 40.53125 48.484375 33.40625 48.484375 
Q 26.265625 48.484375 22.1875 42.84375 
Q 18.109375 37.203125 18.109375 27.296875 
Q 18.109375 17.390625 22.1875 11.75 
Q 26.265625 6.109375 33.40625 6.109375 
Q 40.53125 6.109375 44.609375 11.75 
Q 48.6875 17.390625 48.6875 27.296875 
z
" id="DejaVuSans-112"/>
      <path d="M 54.890625 33.015625 
L 54.890625 0 
L 45.90625 0 
L 45.90625 32.71875 
Q 45.90625 40.484375 42.875 44.328125 
Q 39.84375 48.1875 33.796875 48.1875 
Q 26.515625 48.1875 22.3125 43.546875 
Q 18.109375 38.921875 18.109375 30.90625 
L 18.109375 0 
L 9.078125 0 
L 9.078125 75.984375 
L 18.109375 75.984375 
L 18.109375 46.1875 
Q 21.34375 51.125 25.703125 53.5625 
Q 30.078125 56 35.796875 56 
Q 45.21875 56 50.046875 50.171875 
Q 54.890625 44.34375 54.890625 33.015625 
z
" id="DejaVuSans-104"/>
      <path id="DejaVuSans-32"/>
      <path d="M 44.28125 53.078125 
L 44.28125 44.578125 
Q 40.484375 46.53125 36.375 47.5 
Q 32.28125 48.484375 27.875 48.484375 
Q 21.1875 48.484375 17.84375 46.4375 
Q 14.5 44.390625 14.5 40.28125 
Q 14.5 37.15625 16.890625 35.375 
Q 19.28125 33.59375 26.515625 31.984375 
L 29.59375 31.296875 
Q 39.15625 29.25 43.1875 25.515625 
Q 47.21875 21.78125 47.21875 15.09375 
Q 47.21875 7.46875 41.1875 3.015625 
Q 35.15625 -1.421875 24.609375 -1.421875 
Q 20.21875 -1.421875 15.453125 -0.5625 
Q 10.6875 0.296875 5.421875 2 
L 5.421875 11.28125 
Q 10.40625 8.6875 15.234375 7.390625 
Q 20.0625 6.109375 24.8125 6.109375 
Q 31.15625 6.109375 34.5625 8.28125 
Q 37.984375 10.453125 37.984375 14.40625 
Q 37.984375 18.0625 35.515625 20.015625 
Q 33.0625 21.96875 24.703125 23.78125 
L 21.578125 24.515625 
Q 13.234375 26.265625 9.515625 29.90625 
Q 5.8125 33.546875 5.8125 39.890625 
Q 5.8125 47.609375 11.28125 51.796875 
Q 16.75 56 26.8125 56 
Q 31.78125 56 36.171875 55.265625 
Q 40.578125 54.546875 44.28125 53.078125 
z
" id="DejaVuSans-115"/>
      <path d="M 9.421875 54.6875 
L 18.40625 54.6875 
L 18.40625 0 
L 9.421875 0 
z
M 9.421875 75.984375 
L 18.40625 75.984375 
L 18.40625 64.59375 
L 9.421875 64.59375 
z
" id="DejaVuSans-105"/>
      <path d="M 5.515625 54.6875 
L 48.1875 54.6875 
L 48.1875 46.484375 
L 14.40625 7.171875 
L 48.1875 7.171875 
L 48.1875 0 
L 4.296875 0 
L 4.296875 8.203125 
L 38.09375 47.515625 
L 5.515625 47.515625 
z
" id="DejaVuSans-122"/>
      <path d="M 56.203125 29.59375 
L 56.203125 25.203125 
L 14.890625 25.203125 
Q 15.484375 15.921875 20.484375 11.0625 
Q 25.484375 6.203125 34.421875 6.203125 
Q 39.59375 6.203125 44.453125 7.46875 
Q 49.3125 8.734375 54.109375 11.28125 
L 54.109375 2.78125 
Q 49.265625 0.734375 44.1875 -0.34375 
Q 39.109375 -1.421875 33.890625 -1.421875 
Q 20.796875 -1.421875 13.15625 6.1875 
Q 5.515625 13.8125 5.515625 26.8125 
Q 5.515625 40.234375 12.765625 48.109375 
Q 20.015625 56 32.328125 56 
Q 43.359375 56 49.78125 48.890625 
Q 56.203125 41.796875 56.203125 29.59375 
z
M 47.21875 32.234375 
Q 47.125 39.59375 43.09375 43.984375 
Q 39.0625 48.390625 32.421875 48.390625 
Q 24.90625 48.390625 20.390625 44.140625 
Q 15.875 39.890625 15.1875 32.171875 
z
" id="DejaVuSans-101"/>
     </defs>
     <g transform="translate(446.000313 1055.232188)scale(0.26 -0.26)">
      <use xlink:href="#DejaVuSans-71"/>
      <use x="77.490234" xlink:href="#DejaVuSans-114"/>
      <use x="118.603516" xlink:href="#DejaVuSans-97"/>
      <use x="179.882812" xlink:href="#DejaVuSans-112"/>
      <use x="243.359375" xlink:href="#DejaVuSans-104"/>
      <use x="306.738281" xlink:href="#DejaVuSans-32"/>
      <use x="338.525391" xlink:href="#DejaVuSans-115"/>
      <use x="390.625" xlink:href="#DejaVuSans-105"/>
      <use x="418.408203" xlink:href="#DejaVuSans-122"/>
      <use x="470.898438" xlink:href="#DejaVuSans-101"/>
     </g>
    </g>
   </g>
   <g id="matplotlib.axis_2">
    <g id="ytick_1">
     <g id="line2d_11">
      <path clip-path="url(#p65dd5189cc)" d="M 68.813125 881.109196 
L 961.613125 881.109196 
" style="fill:none;stroke:#b0b0b0;stroke-linecap:square;stroke-width:0.8;"/>
     </g>
     <g id="line2d_12">
      <defs>
       <path d="M 0 0 
L -3.5 0 
" id="mea981df77e" style="stroke:#000000;stroke-width:0.8;"/>
      </defs>
      <g>
       <use style="stroke:#000000;stroke-width:0.8;" x="68.813125" xlink:href="#mea981df77e" y="881.109196"/>
      </g>
     </g>
     <g id="text_7">
      <!-- 10 -->
      <g transform="translate(36.363125 888.707634)scale(0.2 -0.2)">
       <use xlink:href="#DejaVuSans-49"/>
       <use x="63.623047" xlink:href="#DejaVuSans-48"/>
      </g>
     </g>
    </g>
    <g id="ytick_2">
     <g id="line2d_13">
      <path clip-path="url(#p65dd5189cc)" d="M 68.813125 749.809982 
L 961.613125 749.809982 
" style="fill:none;stroke:#b0b0b0;stroke-linecap:square;stroke-width:0.8;"/>
     </g>
     <g id="line2d_14">
      <g>
       <use style="stroke:#000000;stroke-width:0.8;" x="68.813125" xlink:href="#mea981df77e" y="749.809982"/>
      </g>
     </g>
     <g id="text_8">
      <!-- 12 -->
      <g transform="translate(36.363125 757.40842)scale(0.2 -0.2)">
       <use xlink:href="#DejaVuSans-49"/>
       <use x="63.623047" xlink:href="#DejaVuSans-50"/>
      </g>
     </g>
    </g>
    <g id="ytick_3">
     <g id="line2d_15">
      <path clip-path="url(#p65dd5189cc)" d="M 68.813125 618.510768 
L 961.613125 618.510768 
" style="fill:none;stroke:#b0b0b0;stroke-linecap:square;stroke-width:0.8;"/>
     </g>
     <g id="line2d_16">
      <g>
       <use style="stroke:#000000;stroke-width:0.8;" x="68.813125" xlink:href="#mea981df77e" y="618.510768"/>
      </g>
     </g>
     <g id="text_9">
      <!-- 14 -->
      <g transform="translate(36.363125 626.109206)scale(0.2 -0.2)">
       <use xlink:href="#DejaVuSans-49"/>
       <use x="63.623047" xlink:href="#DejaVuSans-52"/>
      </g>
     </g>
    </g>
    <g id="ytick_4">
     <g id="line2d_17">
      <path clip-path="url(#p65dd5189cc)" d="M 68.813125 487.211554 
L 961.613125 487.211554 
" style="fill:none;stroke:#b0b0b0;stroke-linecap:square;stroke-width:0.8;"/>
     </g>
     <g id="line2d_18">
      <g>
       <use style="stroke:#000000;stroke-width:0.8;" x="68.813125" xlink:href="#mea981df77e" y="487.211554"/>
      </g>
     </g>
     <g id="text_10">
      <!-- 16 -->
      <g transform="translate(36.363125 494.809992)scale(0.2 -0.2)">
       <use xlink:href="#DejaVuSans-49"/>
       <use x="63.623047" xlink:href="#DejaVuSans-54"/>
      </g>
     </g>
    </g>
    <g id="ytick_5">
     <g id="line2d_19">
      <path clip-path="url(#p65dd5189cc)" d="M 68.813125 355.91234 
L 961.613125 355.91234 
" style="fill:none;stroke:#b0b0b0;stroke-linecap:square;stroke-width:0.8;"/>
     </g>
     <g id="line2d_20">
      <g>
       <use style="stroke:#000000;stroke-width:0.8;" x="68.813125" xlink:href="#mea981df77e" y="355.91234"/>
      </g>
     </g>
     <g id="text_11">
      <!-- 18 -->
      <g transform="translate(36.363125 363.510778)scale(0.2 -0.2)">
       <use xlink:href="#DejaVuSans-49"/>
       <use x="63.623047" xlink:href="#DejaVuSans-56"/>
      </g>
     </g>
    </g>
    <g id="ytick_6">
     <g id="line2d_21">
      <path clip-path="url(#p65dd5189cc)" d="M 68.813125 224.613126 
L 961.613125 224.613126 
" style="fill:none;stroke:#b0b0b0;stroke-linecap:square;stroke-width:0.8;"/>
     </g>
     <g id="line2d_22">
      <g>
       <use style="stroke:#000000;stroke-width:0.8;" x="68.813125" xlink:href="#mea981df77e" y="224.613126"/>
      </g>
     </g>
     <g id="text_12">
      <!-- 20 -->
      <g transform="translate(36.363125 232.211563)scale(0.2 -0.2)">
       <use xlink:href="#DejaVuSans-50"/>
       <use x="63.623047" xlink:href="#DejaVuSans-48"/>
      </g>
     </g>
    </g>
    <g id="ytick_7">
     <g id="line2d_23">
      <path clip-path="url(#p65dd5189cc)" d="M 68.813125 93.313912 
L 961.613125 93.313912 
" style="fill:none;stroke:#b0b0b0;stroke-linecap:square;stroke-width:0.8;"/>
     </g>
     <g id="line2d_24">
      <g>
       <use style="stroke:#000000;stroke-width:0.8;" x="68.813125" xlink:href="#mea981df77e" y="93.313912"/>
      </g>
     </g>
     <g id="text_13">
      <!-- 22 -->
      <g transform="translate(36.363125 100.912349)scale(0.2 -0.2)">
       <use xlink:href="#DejaVuSans-50"/>
       <use x="63.623047" xlink:href="#DejaVuSans-50"/>
      </g>
     </g>
    </g>
    <g id="text_14">
     <!-- Avg. number of operations / size -->
     <defs>
      <path d="M 34.1875 63.1875 
L 20.796875 26.90625 
L 47.609375 26.90625 
z
M 28.609375 72.90625 
L 39.796875 72.90625 
L 67.578125 0 
L 57.328125 0 
L 50.6875 18.703125 
L 17.828125 18.703125 
L 11.1875 0 
L 0.78125 0 
z
" id="DejaVuSans-65"/>
      <path d="M 2.984375 54.6875 
L 12.5 54.6875 
L 29.59375 8.796875 
L 46.6875 54.6875 
L 56.203125 54.6875 
L 35.6875 0 
L 23.484375 0 
z
" id="DejaVuSans-118"/>
      <path d="M 45.40625 27.984375 
Q 45.40625 37.75 41.375 43.109375 
Q 37.359375 48.484375 30.078125 48.484375 
Q 22.859375 48.484375 18.828125 43.109375 
Q 14.796875 37.75 14.796875 27.984375 
Q 14.796875 18.265625 18.828125 12.890625 
Q 22.859375 7.515625 30.078125 7.515625 
Q 37.359375 7.515625 41.375 12.890625 
Q 45.40625 18.265625 45.40625 27.984375 
z
M 54.390625 6.78125 
Q 54.390625 -7.171875 48.1875 -13.984375 
Q 42 -20.796875 29.203125 -20.796875 
Q 24.46875 -20.796875 20.265625 -20.09375 
Q 16.0625 -19.390625 12.109375 -17.921875 
L 12.109375 -9.1875 
Q 16.0625 -11.328125 19.921875 -12.34375 
Q 23.78125 -13.375 27.78125 -13.375 
Q 36.625 -13.375 41.015625 -8.765625 
Q 45.40625 -4.15625 45.40625 5.171875 
L 45.40625 9.625 
Q 42.625 4.78125 38.28125 2.390625 
Q 33.9375 0 27.875 0 
Q 17.828125 0 11.671875 7.65625 
Q 5.515625 15.328125 5.515625 27.984375 
Q 5.515625 40.671875 11.671875 48.328125 
Q 17.828125 56 27.875 56 
Q 33.9375 56 38.28125 53.609375 
Q 42.625 51.21875 45.40625 46.390625 
L 45.40625 54.6875 
L 54.390625 54.6875 
z
" id="DejaVuSans-103"/>
      <path d="M 10.6875 12.40625 
L 21 12.40625 
L 21 0 
L 10.6875 0 
z
" id="DejaVuSans-46"/>
      <path d="M 54.890625 33.015625 
L 54.890625 0 
L 45.90625 0 
L 45.90625 32.71875 
Q 45.90625 40.484375 42.875 44.328125 
Q 39.84375 48.1875 33.796875 48.1875 
Q 26.515625 48.1875 22.3125 43.546875 
Q 18.109375 38.921875 18.109375 30.90625 
L 18.109375 0 
L 9.078125 0 
L 9.078125 54.6875 
L 18.109375 54.6875 
L 18.109375 46.1875 
Q 21.34375 51.125 25.703125 53.5625 
Q 30.078125 56 35.796875 56 
Q 45.21875 56 50.046875 50.171875 
Q 54.890625 44.34375 54.890625 33.015625 
z
" id="DejaVuSans-110"/>
      <path d="M 8.5 21.578125 
L 8.5 54.6875 
L 17.484375 54.6875 
L 17.484375 21.921875 
Q 17.484375 14.15625 20.5 10.265625 
Q 23.53125 6.390625 29.59375 6.390625 
Q 36.859375 6.390625 41.078125 11.03125 
Q 45.3125 15.671875 45.3125 23.6875 
L 45.3125 54.6875 
L 54.296875 54.6875 
L 54.296875 0 
L 45.3125 0 
L 45.3125 8.40625 
Q 42.046875 3.421875 37.71875 1 
Q 33.40625 -1.421875 27.6875 -1.421875 
Q 18.265625 -1.421875 13.375 4.4375 
Q 8.5 10.296875 8.5 21.578125 
z
M 31.109375 56 
z
" id="DejaVuSans-117"/>
      <path d="M 52 44.1875 
Q 55.375 50.25 60.0625 53.125 
Q 64.75 56 71.09375 56 
Q 79.640625 56 84.28125 50.015625 
Q 88.921875 44.046875 88.921875 33.015625 
L 88.921875 0 
L 79.890625 0 
L 79.890625 32.71875 
Q 79.890625 40.578125 77.09375 44.375 
Q 74.3125 48.1875 68.609375 48.1875 
Q 61.625 48.1875 57.5625 43.546875 
Q 53.515625 38.921875 53.515625 30.90625 
L 53.515625 0 
L 44.484375 0 
L 44.484375 32.71875 
Q 44.484375 40.625 41.703125 44.40625 
Q 38.921875 48.1875 33.109375 48.1875 
Q 26.21875 48.1875 22.15625 43.53125 
Q 18.109375 38.875 18.109375 30.90625 
L 18.109375 0 
L 9.078125 0 
L 9.078125 54.6875 
L 18.109375 54.6875 
L 18.109375 46.1875 
Q 21.1875 51.21875 25.484375 53.609375 
Q 29.78125 56 35.6875 56 
Q 41.65625 56 45.828125 52.96875 
Q 50 49.953125 52 44.1875 
z
" id="DejaVuSans-109"/>
      <path d="M 48.6875 27.296875 
Q 48.6875 37.203125 44.609375 42.84375 
Q 40.53125 48.484375 33.40625 48.484375 
Q 26.265625 48.484375 22.1875 42.84375 
Q 18.109375 37.203125 18.109375 27.296875 
Q 18.109375 17.390625 22.1875 11.75 
Q 26.265625 6.109375 33.40625 6.109375 
Q 40.53125 6.109375 44.609375 11.75 
Q 48.6875 17.390625 48.6875 27.296875 
z
M 18.109375 46.390625 
Q 20.953125 51.265625 25.265625 53.625 
Q 29.59375 56 35.59375 56 
Q 45.5625 56 51.78125 48.09375 
Q 58.015625 40.1875 58.015625 27.296875 
Q 58.015625 14.40625 51.78125 6.484375 
Q 45.5625 -1.421875 35.59375 -1.421875 
Q 29.59375 -1.421875 25.265625 0.953125 
Q 20.953125 3.328125 18.109375 8.203125 
L 18.109375 0 
L 9.078125 0 
L 9.078125 75.984375 
L 18.109375 75.984375 
z
" id="DejaVuSans-98"/>
      <path d="M 30.609375 48.390625 
Q 23.390625 48.390625 19.1875 42.75 
Q 14.984375 37.109375 14.984375 27.296875 
Q 14.984375 17.484375 19.15625 11.84375 
Q 23.34375 6.203125 30.609375 6.203125 
Q 37.796875 6.203125 41.984375 11.859375 
Q 46.1875 17.53125 46.1875 27.296875 
Q 46.1875 37.015625 41.984375 42.703125 
Q 37.796875 48.390625 30.609375 48.390625 
z
M 30.609375 56 
Q 42.328125 56 49.015625 48.375 
Q 55.71875 40.765625 55.71875 27.296875 
Q 55.71875 13.875 49.015625 6.21875 
Q 42.328125 -1.421875 30.609375 -1.421875 
Q 18.84375 -1.421875 12.171875 6.21875 
Q 5.515625 13.875 5.515625 27.296875 
Q 5.515625 40.765625 12.171875 48.375 
Q 18.84375 56 30.609375 56 
z
" id="DejaVuSans-111"/>
      <path d="M 37.109375 75.984375 
L 37.109375 68.5 
L 28.515625 68.5 
Q 23.6875 68.5 21.796875 66.546875 
Q 19.921875 64.59375 19.921875 59.515625 
L 19.921875 54.6875 
L 34.71875 54.6875 
L 34.71875 47.703125 
L 19.921875 47.703125 
L 19.921875 0 
L 10.890625 0 
L 10.890625 47.703125 
L 2.296875 47.703125 
L 2.296875 54.6875 
L 10.890625 54.6875 
L 10.890625 58.5 
Q 10.890625 67.625 15.140625 71.796875 
Q 19.390625 75.984375 28.609375 75.984375 
z
" id="DejaVuSans-102"/>
      <path d="M 18.3125 70.21875 
L 18.3125 54.6875 
L 36.8125 54.6875 
L 36.8125 47.703125 
L 18.3125 47.703125 
L 18.3125 18.015625 
Q 18.3125 11.328125 20.140625 9.421875 
Q 21.96875 7.515625 27.59375 7.515625 
L 36.8125 7.515625 
L 36.8125 0 
L 27.59375 0 
Q 17.1875 0 13.234375 3.875 
Q 9.28125 7.765625 9.28125 18.015625 
L 9.28125 47.703125 
L 2.6875 47.703125 
L 2.6875 54.6875 
L 9.28125 54.6875 
L 9.28125 70.21875 
z
" id="DejaVuSans-116"/>
      <path d="M 25.390625 72.90625 
L 33.6875 72.90625 
L 8.296875 -9.28125 
L 0 -9.28125 
z
" id="DejaVuSans-47"/>
     </defs>
     <g transform="translate(26.955938 717.06875)rotate(-90)scale(0.26 -0.26)">
      <use xlink:href="#DejaVuSans-65"/>
      <use x="62.533203" xlink:href="#DejaVuSans-118"/>
      <use x="121.712891" xlink:href="#DejaVuSans-103"/>
      <use x="185.189453" xlink:href="#DejaVuSans-46"/>
      <use x="216.976562" xlink:href="#DejaVuSans-32"/>
      <use x="248.763672" xlink:href="#DejaVuSans-110"/>
      <use x="312.142578" xlink:href="#DejaVuSans-117"/>
      <use x="375.521484" xlink:href="#DejaVuSans-109"/>
      <use x="472.933594" xlink:href="#DejaVuSans-98"/>
      <use x="536.410156" xlink:href="#DejaVuSans-101"/>
      <use x="597.933594" xlink:href="#DejaVuSans-114"/>
      <use x="639.046875" xlink:href="#DejaVuSans-32"/>
      <use x="670.833984" xlink:href="#DejaVuSans-111"/>
      <use x="732.015625" xlink:href="#DejaVuSans-102"/>
      <use x="767.220703" xlink:href="#DejaVuSans-32"/>
      <use x="799.007812" xlink:href="#DejaVuSans-111"/>
      <use x="860.189453" xlink:href="#DejaVuSans-112"/>
      <use x="923.666016" xlink:href="#DejaVuSans-101"/>
      <use x="985.189453" xlink:href="#DejaVuSans-114"/>
      <use x="1026.302734" xlink:href="#DejaVuSans-97"/>
      <use x="1087.582031" xlink:href="#DejaVuSans-116"/>
      <use x="1126.791016" xlink:href="#DejaVuSans-105"/>
      <use x="1154.574219" xlink:href="#DejaVuSans-111"/>
      <use x="1215.755859" xlink:href="#DejaVuSans-110"/>
      <use x="1279.134766" xlink:href="#DejaVuSans-115"/>
      <use x="1331.234375" xlink:href="#DejaVuSans-32"/>
      <use x="1363.021484" xlink:href="#DejaVuSans-47"/>
      <use x="1396.712891" xlink:href="#DejaVuSans-32"/>
      <use x="1428.5" xlink:href="#DejaVuSans-115"/>
      <use x="1480.599609" xlink:href="#DejaVuSans-105"/>
      <use x="1508.382812" xlink:href="#DejaVuSans-122"/>
      <use x="1560.873047" xlink:href="#DejaVuSans-101"/>
     </g>
    </g>
   </g>
   <g id="line2d_25">
    <path clip-path="url(#p65dd5189cc)" d="M 109.394943 803.4367 
L 152.112647 732.045589 
L 194.83035 671.695645 
L 237.548053 655.764471 
L 280.265757 613.269262 
L 322.98346 592.975034 
L 365.701163 585.175357 
L 408.418867 565.192155 
L 451.13657 546.874092 
L 493.854273 543.611249 
L 536.571977 516.013979 
L 579.28968 511.659206 
L 622.007383 510.596327 
L 664.725087 501.157179 
L 707.44279 486.989517 
L 750.160493 478.957407 
L 792.878197 470.800695 
L 835.5959 467.48024 
L 878.313603 472.033448 
L 921.031307 460.284722 
" style="fill:none;stroke:#fe0002;stroke-linecap:square;stroke-width:1.5;"/>
    <defs>
     <path d="M 0 4.5 
C 1.193414 4.5 2.338109 4.025852 3.181981 3.181981 
C 4.025852 2.338109 4.5 1.193414 4.5 0 
C 4.5 -1.193414 4.025852 -2.338109 3.181981 -3.181981 
C 2.338109 -4.025852 1.193414 -4.5 0 -4.5 
C -1.193414 -4.5 -2.338109 -4.025852 -3.181981 -3.181981 
C -4.025852 -2.338109 -4.5 -1.193414 -4.5 0 
C -4.5 1.193414 -4.025852 2.338109 -3.181981 3.181981 
C -2.338109 4.025852 -1.193414 4.5 0 4.5 
z
" id="m6c43c69ac6" style="stroke:#000000;"/>
    </defs>
    <g clip-path="url(#p65dd5189cc)">
     <use style="fill:#fe0002;stroke:#000000;" x="109.394943" xlink:href="#m6c43c69ac6" y="803.4367"/>
     <use style="fill:#fe0002;stroke:#000000;" x="152.112647" xlink:href="#m6c43c69ac6" y="732.045589"/>
     <use style="fill:#fe0002;stroke:#000000;" x="194.83035" xlink:href="#m6c43c69ac6" y="671.695645"/>
     <use style="fill:#fe0002;stroke:#000000;" x="237.548053" xlink:href="#m6c43c69ac6" y="655.764471"/>
     <use style="fill:#fe0002;stroke:#000000;" x="280.265757" xlink:href="#m6c43c69ac6" y="613.269262"/>
     <use style="fill:#fe0002;stroke:#000000;" x="322.98346" xlink:href="#m6c43c69ac6" y="592.975034"/>
     <use style="fill:#fe0002;stroke:#000000;" x="365.701163" xlink:href="#m6c43c69ac6" y="585.175357"/>
     <use style="fill:#fe0002;stroke:#000000;" x="408.418867" xlink:href="#m6c43c69ac6" y="565.192155"/>
     <use style="fill:#fe0002;stroke:#000000;" x="451.13657" xlink:href="#m6c43c69ac6" y="546.874092"/>
     <use style="fill:#fe0002;stroke:#000000;" x="493.854273" xlink:href="#m6c43c69ac6" y="543.611249"/>
     <use style="fill:#fe0002;stroke:#000000;" x="536.571977" xlink:href="#m6c43c69ac6" y="516.013979"/>
     <use style="fill:#fe0002;stroke:#000000;" x="579.28968" xlink:href="#m6c43c69ac6" y="511.659206"/>
     <use style="fill:#fe0002;stroke:#000000;" x="622.007383" xlink:href="#m6c43c69ac6" y="510.596327"/>
     <use style="fill:#fe0002;stroke:#000000;" x="664.725087" xlink:href="#m6c43c69ac6" y="501.157179"/>
     <use style="fill:#fe0002;stroke:#000000;" x="707.44279" xlink:href="#m6c43c69ac6" y="486.989517"/>
     <use style="fill:#fe0002;stroke:#000000;" x="750.160493" xlink:href="#m6c43c69ac6" y="478.957407"/>
     <use style="fill:#fe0002;stroke:#000000;" x="792.878197" xlink:href="#m6c43c69ac6" y="470.800695"/>
     <use style="fill:#fe0002;stroke:#000000;" x="835.5959" xlink:href="#m6c43c69ac6" y="467.48024"/>
     <use style="fill:#fe0002;stroke:#000000;" x="878.313603" xlink:href="#m6c43c69ac6" y="472.033448"/>
     <use style="fill:#fe0002;stroke:#000000;" x="921.031307" xlink:href="#m6c43c69ac6" y="460.284722"/>
    </g>
   </g>
   <g id="line2d_26">
    <path clip-path="url(#p65dd5189cc)" d="M 109.394943 803.4367 
L 152.112647 732.045589 
L 194.83035 671.695645 
L 237.548053 655.764471 
L 280.265757 613.269262 
L 322.98346 592.975034 
L 365.701163 585.175357 
L 408.418867 565.192155 
L 451.13657 546.874092 
L 493.854273 543.611249 
L 536.571977 516.013979 
L 579.28968 511.659206 
L 622.007383 510.596327 
L 664.725087 501.157179 
L 707.44279 486.989517 
L 750.160493 478.957407 
L 792.878197 470.800695 
L 835.5959 467.48024 
L 878.313603 472.033448 
L 921.031307 460.284722 
" style="fill:none;stroke:#fe0002;stroke-dasharray:5.55,2.4;stroke-dashoffset:0;stroke-width:1.5;"/>
    <g clip-path="url(#p65dd5189cc)">
     <use style="fill:#fe0002;stroke:#000000;" x="109.394943" xlink:href="#m6c43c69ac6" y="803.4367"/>
     <use style="fill:#fe0002;stroke:#000000;" x="152.112647" xlink:href="#m6c43c69ac6" y="732.045589"/>
     <use style="fill:#fe0002;stroke:#000000;" x="194.83035" xlink:href="#m6c43c69ac6" y="671.695645"/>
     <use style="fill:#fe0002;stroke:#000000;" x="237.548053" xlink:href="#m6c43c69ac6" y="655.764471"/>
     <use style="fill:#fe0002;stroke:#000000;" x="280.265757" xlink:href="#m6c43c69ac6" y="613.269262"/>
     <use style="fill:#fe0002;stroke:#000000;" x="322.98346" xlink:href="#m6c43c69ac6" y="592.975034"/>
     <use style="fill:#fe0002;stroke:#000000;" x="365.701163" xlink:href="#m6c43c69ac6" y="585.175357"/>
     <use style="fill:#fe0002;stroke:#000000;" x="408.418867" xlink:href="#m6c43c69ac6" y="565.192155"/>
     <use style="fill:#fe0002;stroke:#000000;" x="451.13657" xlink:href="#m6c43c69ac6" y="546.874092"/>
     <use style="fill:#fe0002;stroke:#000000;" x="493.854273" xlink:href="#m6c43c69ac6" y="543.611249"/>
     <use style="fill:#fe0002;stroke:#000000;" x="536.571977" xlink:href="#m6c43c69ac6" y="516.013979"/>
     <use style="fill:#fe0002;stroke:#000000;" x="579.28968" xlink:href="#m6c43c69ac6" y="511.659206"/>
     <use style="fill:#fe0002;stroke:#000000;" x="622.007383" xlink:href="#m6c43c69ac6" y="510.596327"/>
     <use style="fill:#fe0002;stroke:#000000;" x="664.725087" xlink:href="#m6c43c69ac6" y="501.157179"/>
     <use style="fill:#fe0002;stroke:#000000;" x="707.44279" xlink:href="#m6c43c69ac6" y="486.989517"/>
     <use style="fill:#fe0002;stroke:#000000;" x="750.160493" xlink:href="#m6c43c69ac6" y="478.957407"/>
     <use style="fill:#fe0002;stroke:#000000;" x="792.878197" xlink:href="#m6c43c69ac6" y="470.800695"/>
     <use style="fill:#fe0002;stroke:#000000;" x="835.5959" xlink:href="#m6c43c69ac6" y="467.48024"/>
     <use style="fill:#fe0002;stroke:#000000;" x="878.313603" xlink:href="#m6c43c69ac6" y="472.033448"/>
     <use style="fill:#fe0002;stroke:#000000;" x="921.031307" xlink:href="#m6c43c69ac6" y="460.284722"/>
    </g>
   </g>
   <g id="line2d_27">
    <path clip-path="url(#p65dd5189cc)" d="M 109.394943 618.060232 
L 152.112647 486.061061 
L 194.83035 423.848814 
L 237.548053 355.922138 
L 280.265757 332.317714 
L 322.98346 297.181024 
L 365.701163 257.265856 
L 408.418867 239.530812 
L 451.13657 223.206973 
L 493.854273 194.17844 
L 536.571977 194.190312 
L 579.28968 172.819846 
L 622.007383 152.29368 
L 664.725087 138.874365 
L 707.44279 136.820982 
L 750.160493 126.064952 
L 792.878197 114.904224 
L 835.5959 99.641339 
L 878.313603 80.754887 
L 921.031307 78.278775 
" style="fill:none;stroke:#53fca1;stroke-linecap:square;stroke-width:1.5;"/>
    <defs>
     <path d="M 0 -4.5 
L -4.5 4.5 
L 4.5 4.5 
z
" id="m3352ae4cfa" style="stroke:#000000;stroke-linejoin:miter;"/>
    </defs>
    <g clip-path="url(#p65dd5189cc)">
     <use style="fill:#53fca1;stroke:#000000;stroke-linejoin:miter;" x="109.394943" xlink:href="#m3352ae4cfa" y="618.060232"/>
     <use style="fill:#53fca1;stroke:#000000;stroke-linejoin:miter;" x="152.112647" xlink:href="#m3352ae4cfa" y="486.061061"/>
     <use style="fill:#53fca1;stroke:#000000;stroke-linejoin:miter;" x="194.83035" xlink:href="#m3352ae4cfa" y="423.848814"/>
     <use style="fill:#53fca1;stroke:#000000;stroke-linejoin:miter;" x="237.548053" xlink:href="#m3352ae4cfa" y="355.922138"/>
     <use style="fill:#53fca1;stroke:#000000;stroke-linejoin:miter;" x="280.265757" xlink:href="#m3352ae4cfa" y="332.317714"/>
     <use style="fill:#53fca1;stroke:#000000;stroke-linejoin:miter;" x="322.98346" xlink:href="#m3352ae4cfa" y="297.181024"/>
     <use style="fill:#53fca1;stroke:#000000;stroke-linejoin:miter;" x="365.701163" xlink:href="#m3352ae4cfa" y="257.265856"/>
     <use style="fill:#53fca1;stroke:#000000;stroke-linejoin:miter;" x="408.418867" xlink:href="#m3352ae4cfa" y="239.530812"/>
     <use style="fill:#53fca1;stroke:#000000;stroke-linejoin:miter;" x="451.13657" xlink:href="#m3352ae4cfa" y="223.206973"/>
     <use style="fill:#53fca1;stroke:#000000;stroke-linejoin:miter;" x="493.854273" xlink:href="#m3352ae4cfa" y="194.17844"/>
     <use style="fill:#53fca1;stroke:#000000;stroke-linejoin:miter;" x="536.571977" xlink:href="#m3352ae4cfa" y="194.190312"/>
     <use style="fill:#53fca1;stroke:#000000;stroke-linejoin:miter;" x="579.28968" xlink:href="#m3352ae4cfa" y="172.819846"/>
     <use style="fill:#53fca1;stroke:#000000;stroke-linejoin:miter;" x="622.007383" xlink:href="#m3352ae4cfa" y="152.29368"/>
     <use style="fill:#53fca1;stroke:#000000;stroke-linejoin:miter;" x="664.725087" xlink:href="#m3352ae4cfa" y="138.874365"/>
     <use style="fill:#53fca1;stroke:#000000;stroke-linejoin:miter;" x="707.44279" xlink:href="#m3352ae4cfa" y="136.820982"/>
     <use style="fill:#53fca1;stroke:#000000;stroke-linejoin:miter;" x="750.160493" xlink:href="#m3352ae4cfa" y="126.064952"/>
     <use style="fill:#53fca1;stroke:#000000;stroke-linejoin:miter;" x="792.878197" xlink:href="#m3352ae4cfa" y="114.904224"/>
     <use style="fill:#53fca1;stroke:#000000;stroke-linejoin:miter;" x="835.5959" xlink:href="#m3352ae4cfa" y="99.641339"/>
     <use style="fill:#53fca1;stroke:#000000;stroke-linejoin:miter;" x="878.313603" xlink:href="#m3352ae4cfa" y="80.754887"/>
     <use style="fill:#53fca1;stroke:#000000;stroke-linejoin:miter;" x="921.031307" xlink:href="#m3352ae4cfa" y="78.278775"/>
    </g>
   </g>
   <g id="line2d_28">
    <path clip-path="url(#p65dd5189cc)" d="M 109.394943 948.805526 
L 152.112647 878.665211 
L 194.83035 840.484698 
L 237.548053 812.980582 
L 280.265757 792.775165 
L 322.98346 773.928034 
L 365.701163 758.91302 
L 408.418867 746.555333 
L 451.13657 736.873662 
L 493.854273 726.865379 
L 536.571977 717.524911 
L 579.28968 709.186967 
L 622.007383 703.344985 
L 664.725087 695.485635 
L 707.44279 691.110842 
L 750.160493 684.181685 
L 792.878197 678.555858 
L 835.5959 672.345632 
L 878.313603 667.980612 
L 921.031307 663.166929 
" style="fill:none;stroke:#53fca1;stroke-dasharray:5.55,2.4;stroke-dashoffset:0;stroke-width:1.5;"/>
    <defs>
     <path d="M -0 6.363961 
L 6.363961 0 
L 0 -6.363961 
L -6.363961 -0 
z
" id="m3254b320ea" style="stroke:#000000;stroke-linejoin:miter;"/>
    </defs>
    <g clip-path="url(#p65dd5189cc)">
     <use style="fill:#53fca1;stroke:#000000;stroke-linejoin:miter;" x="109.394943" xlink:href="#m3254b320ea" y="948.805526"/>
     <use style="fill:#53fca1;stroke:#000000;stroke-linejoin:miter;" x="152.112647" xlink:href="#m3254b320ea" y="878.665211"/>
     <use style="fill:#53fca1;stroke:#000000;stroke-linejoin:miter;" x="194.83035" xlink:href="#m3254b320ea" y="840.484698"/>
     <use style="fill:#53fca1;stroke:#000000;stroke-linejoin:miter;" x="237.548053" xlink:href="#m3254b320ea" y="812.980582"/>
     <use style="fill:#53fca1;stroke:#000000;stroke-linejoin:miter;" x="280.265757" xlink:href="#m3254b320ea" y="792.775165"/>
     <use style="fill:#53fca1;stroke:#000000;stroke-linejoin:miter;" x="322.98346" xlink:href="#m3254b320ea" y="773.928034"/>
     <use style="fill:#53fca1;stroke:#000000;stroke-linejoin:miter;" x="365.701163" xlink:href="#m3254b320ea" y="758.91302"/>
     <use style="fill:#53fca1;stroke:#000000;stroke-linejoin:miter;" x="408.418867" xlink:href="#m3254b320ea" y="746.555333"/>
     <use style="fill:#53fca1;stroke:#000000;stroke-linejoin:miter;" x="451.13657" xlink:href="#m3254b320ea" y="736.873662"/>
     <use style="fill:#53fca1;stroke:#000000;stroke-linejoin:miter;" x="493.854273" xlink:href="#m3254b320ea" y="726.865379"/>
     <use style="fill:#53fca1;stroke:#000000;stroke-linejoin:miter;" x="536.571977" xlink:href="#m3254b320ea" y="717.524911"/>
     <use style="fill:#53fca1;stroke:#000000;stroke-linejoin:miter;" x="579.28968" xlink:href="#m3254b320ea" y="709.186967"/>
     <use style="fill:#53fca1;stroke:#000000;stroke-linejoin:miter;" x="622.007383" xlink:href="#m3254b320ea" y="703.344985"/>
     <use style="fill:#53fca1;stroke:#000000;stroke-linejoin:miter;" x="664.725087" xlink:href="#m3254b320ea" y="695.485635"/>
     <use style="fill:#53fca1;stroke:#000000;stroke-linejoin:miter;" x="707.44279" xlink:href="#m3254b320ea" y="691.110842"/>
     <use style="fill:#53fca1;stroke:#000000;stroke-linejoin:miter;" x="750.160493" xlink:href="#m3254b320ea" y="684.181685"/>
     <use style="fill:#53fca1;stroke:#000000;stroke-linejoin:miter;" x="792.878197" xlink:href="#m3254b320ea" y="678.555858"/>
     <use style="fill:#53fca1;stroke:#000000;stroke-linejoin:miter;" x="835.5959" xlink:href="#m3254b320ea" y="672.345632"/>
     <use style="fill:#53fca1;stroke:#000000;stroke-linejoin:miter;" x="878.313603" xlink:href="#m3254b320ea" y="667.980612"/>
     <use style="fill:#53fca1;stroke:#000000;stroke-linejoin:miter;" x="921.031307" xlink:href="#m3254b320ea" y="663.166929"/>
    </g>
   </g>
   <g id="patch_3">
    <path d="M 68.813125 1005.12 
L 68.813125 7.2 
" style="fill:none;stroke:#000000;stroke-linecap:square;stroke-linejoin:miter;stroke-width:0.8;"/>
   </g>
   <g id="patch_4">
    <path d="M 961.613125 1005.12 
L 961.613125 7.2 
" style="fill:none;stroke:#000000;stroke-linecap:square;stroke-linejoin:miter;stroke-width:0.8;"/>
   </g>
   <g id="patch_5">
    <path d="M 68.813125 1005.12 
L 961.613125 1005.12 
" style="fill:none;stroke:#000000;stroke-linecap:square;stroke-linejoin:miter;stroke-width:0.8;"/>
   </g>
   <g id="patch_6">
    <path d="M 68.813125 7.2 
L 961.613125 7.2 
" style="fill:none;stroke:#000000;stroke-linecap:square;stroke-linejoin:miter;stroke-width:0.8;"/>
   </g>
   <g id="legend_1">
    <g id="patch_7">
     <path d="M 87.013125 180.6525 
L 444.151563 180.6525 
Q 449.351563 180.6525 449.351563 175.4525 
L 449.351563 25.4 
Q 449.351563 20.2 444.151563 20.2 
L 87.013125 20.2 
Q 81.813125 20.2 81.813125 25.4 
L 81.813125 175.4525 
Q 81.813125 180.6525 87.013125 180.6525 
z
" style="fill:#ffffff;opacity:0.8;stroke:#cccccc;stroke-linejoin:miter;"/>
    </g>
    <g id="line2d_29">
     <path d="M 92.213125 41.255937 
L 144.213125 41.255937 
" style="fill:none;stroke:#fe0002;stroke-linecap:square;stroke-width:1.5;"/>
    </g>
    <g id="line2d_30">
     <g>
      <use style="fill:#fe0002;stroke:#000000;" x="118.213125" xlink:href="#m6c43c69ac6" y="41.255937"/>
     </g>
    </g>
    <g id="text_15">
     <!-- Pairing comparisons -->
     <defs>
      <path d="M 19.671875 64.796875 
L 19.671875 37.40625 
L 32.078125 37.40625 
Q 38.96875 37.40625 42.71875 40.96875 
Q 46.484375 44.53125 46.484375 51.125 
Q 46.484375 57.671875 42.71875 61.234375 
Q 38.96875 64.796875 32.078125 64.796875 
z
M 9.8125 72.90625 
L 32.078125 72.90625 
Q 44.34375 72.90625 50.609375 67.359375 
Q 56.890625 61.8125 56.890625 51.125 
Q 56.890625 40.328125 50.609375 34.8125 
Q 44.34375 29.296875 32.078125 29.296875 
L 19.671875 29.296875 
L 19.671875 0 
L 9.8125 0 
z
" id="DejaVuSans-80"/>
      <path d="M 48.78125 52.59375 
L 48.78125 44.1875 
Q 44.96875 46.296875 41.140625 47.34375 
Q 37.3125 48.390625 33.40625 48.390625 
Q 24.65625 48.390625 19.8125 42.84375 
Q 14.984375 37.3125 14.984375 27.296875 
Q 14.984375 17.28125 19.8125 11.734375 
Q 24.65625 6.203125 33.40625 6.203125 
Q 37.3125 6.203125 41.140625 7.25 
Q 44.96875 8.296875 48.78125 10.40625 
L 48.78125 2.09375 
Q 45.015625 0.34375 40.984375 -0.53125 
Q 36.96875 -1.421875 32.421875 -1.421875 
Q 20.0625 -1.421875 12.78125 6.34375 
Q 5.515625 14.109375 5.515625 27.296875 
Q 5.515625 40.671875 12.859375 48.328125 
Q 20.21875 56 33.015625 56 
Q 37.15625 56 41.109375 55.140625 
Q 45.0625 54.296875 48.78125 52.59375 
z
" id="DejaVuSans-99"/>
     </defs>
     <g transform="translate(165.013125 50.355937)scale(0.26 -0.26)">
      <use xlink:href="#DejaVuSans-80"/>
      <use x="55.802734" xlink:href="#DejaVuSans-97"/>
      <use x="117.082031" xlink:href="#DejaVuSans-105"/>
      <use x="144.865234" xlink:href="#DejaVuSans-114"/>
      <use x="185.978516" xlink:href="#DejaVuSans-105"/>
      <use x="213.761719" xlink:href="#DejaVuSans-110"/>
      <use x="277.140625" xlink:href="#DejaVuSans-103"/>
      <use x="340.617188" xlink:href="#DejaVuSans-32"/>
      <use x="372.404297" xlink:href="#DejaVuSans-99"/>
      <use x="427.384766" xlink:href="#DejaVuSans-111"/>
      <use x="488.566406" xlink:href="#DejaVuSans-109"/>
      <use x="585.978516" xlink:href="#DejaVuSans-112"/>
      <use x="649.455078" xlink:href="#DejaVuSans-97"/>
      <use x="710.734375" xlink:href="#DejaVuSans-114"/>
      <use x="751.847656" xlink:href="#DejaVuSans-105"/>
      <use x="779.630859" xlink:href="#DejaVuSans-115"/>
      <use x="831.730469" xlink:href="#DejaVuSans-111"/>
      <use x="892.912109" xlink:href="#DejaVuSans-110"/>
      <use x="956.291016" xlink:href="#DejaVuSans-115"/>
     </g>
    </g>
    <g id="line2d_31">
     <path d="M 92.213125 79.419063 
L 144.213125 79.419063 
" style="fill:none;stroke:#fe0002;stroke-dasharray:5.55,2.4;stroke-dashoffset:0;stroke-width:1.5;"/>
    </g>
    <g id="line2d_32">
     <g>
      <use style="fill:#fe0002;stroke:#000000;" x="118.213125" xlink:href="#m6c43c69ac6" y="79.419063"/>
     </g>
    </g>
    <g id="text_16">
     <!-- Pairing links -->
     <defs>
      <path d="M 9.421875 75.984375 
L 18.40625 75.984375 
L 18.40625 0 
L 9.421875 0 
z
" id="DejaVuSans-108"/>
      <path d="M 9.078125 75.984375 
L 18.109375 75.984375 
L 18.109375 31.109375 
L 44.921875 54.6875 
L 56.390625 54.6875 
L 27.390625 29.109375 
L 57.625 0 
L 45.90625 0 
L 18.109375 26.703125 
L 18.109375 0 
L 9.078125 0 
z
" id="DejaVuSans-107"/>
     </defs>
     <g transform="translate(165.013125 88.519063)scale(0.26 -0.26)">
      <use xlink:href="#DejaVuSans-80"/>
      <use x="55.802734" xlink:href="#DejaVuSans-97"/>
      <use x="117.082031" xlink:href="#DejaVuSans-105"/>
      <use x="144.865234" xlink:href="#DejaVuSans-114"/>
      <use x="185.978516" xlink:href="#DejaVuSans-105"/>
      <use x="213.761719" xlink:href="#DejaVuSans-110"/>
      <use x="277.140625" xlink:href="#DejaVuSans-103"/>
      <use x="340.617188" xlink:href="#DejaVuSans-32"/>
      <use x="372.404297" xlink:href="#DejaVuSans-108"/>
      <use x="400.1875" xlink:href="#DejaVuSans-105"/>
      <use x="427.970703" xlink:href="#DejaVuSans-110"/>
      <use x="491.349609" xlink:href="#DejaVuSans-107"/>
      <use x="549.259766" xlink:href="#DejaVuSans-115"/>
     </g>
    </g>
    <g id="line2d_33">
     <path d="M 92.213125 117.582187 
L 144.213125 117.582187 
" style="fill:none;stroke:#53fca1;stroke-linecap:square;stroke-width:1.5;"/>
    </g>
    <g id="line2d_34">
     <g>
      <use style="fill:#53fca1;stroke:#000000;stroke-linejoin:miter;" x="118.213125" xlink:href="#m3352ae4cfa" y="117.582187"/>
     </g>
    </g>
    <g id="text_17">
     <!-- Smooth comparisons -->
     <defs>
      <path d="M 53.515625 70.515625 
L 53.515625 60.890625 
Q 47.90625 63.578125 42.921875 64.890625 
Q 37.9375 66.21875 33.296875 66.21875 
Q 25.25 66.21875 20.875 63.09375 
Q 16.5 59.96875 16.5 54.203125 
Q 16.5 49.359375 19.40625 46.890625 
Q 22.3125 44.4375 30.421875 42.921875 
L 36.375 41.703125 
Q 47.40625 39.59375 52.65625 34.296875 
Q 57.90625 29 57.90625 20.125 
Q 57.90625 9.515625 50.796875 4.046875 
Q 43.703125 -1.421875 29.984375 -1.421875 
Q 24.8125 -1.421875 18.96875 -0.25 
Q 13.140625 0.921875 6.890625 3.21875 
L 6.890625 13.375 
Q 12.890625 10.015625 18.65625 8.296875 
Q 24.421875 6.59375 29.984375 6.59375 
Q 38.421875 6.59375 43.015625 9.90625 
Q 47.609375 13.234375 47.609375 19.390625 
Q 47.609375 24.75 44.3125 27.78125 
Q 41.015625 30.8125 33.5 32.328125 
L 27.484375 33.5 
Q 16.453125 35.6875 11.515625 40.375 
Q 6.59375 45.0625 6.59375 53.421875 
Q 6.59375 63.09375 13.40625 68.65625 
Q 20.21875 74.21875 32.171875 74.21875 
Q 37.3125 74.21875 42.625 73.28125 
Q 47.953125 72.359375 53.515625 70.515625 
z
" id="DejaVuSans-83"/>
     </defs>
     <g transform="translate(165.013125 126.682187)scale(0.26 -0.26)">
      <use xlink:href="#DejaVuSans-83"/>
      <use x="63.476562" xlink:href="#DejaVuSans-109"/>
      <use x="160.888672" xlink:href="#DejaVuSans-111"/>
      <use x="222.070312" xlink:href="#DejaVuSans-111"/>
      <use x="283.251953" xlink:href="#DejaVuSans-116"/>
      <use x="322.460938" xlink:href="#DejaVuSans-104"/>
      <use x="385.839844" xlink:href="#DejaVuSans-32"/>
      <use x="417.626953" xlink:href="#DejaVuSans-99"/>
      <use x="472.607422" xlink:href="#DejaVuSans-111"/>
      <use x="533.789062" xlink:href="#DejaVuSans-109"/>
      <use x="631.201172" xlink:href="#DejaVuSans-112"/>
      <use x="694.677734" xlink:href="#DejaVuSans-97"/>
      <use x="755.957031" xlink:href="#DejaVuSans-114"/>
      <use x="797.070312" xlink:href="#DejaVuSans-105"/>
      <use x="824.853516" xlink:href="#DejaVuSans-115"/>
      <use x="876.953125" xlink:href="#DejaVuSans-111"/>
      <use x="938.134766" xlink:href="#DejaVuSans-110"/>
      <use x="1001.513672" xlink:href="#DejaVuSans-115"/>
     </g>
    </g>
    <g id="line2d_35">
     <path d="M 92.213125 155.745312 
L 144.213125 155.745312 
" style="fill:none;stroke:#53fca1;stroke-dasharray:5.55,2.4;stroke-dashoffset:0;stroke-width:1.5;"/>
    </g>
    <g id="line2d_36">
     <g>
      <use style="fill:#53fca1;stroke:#000000;stroke-linejoin:miter;" x="118.213125" xlink:href="#m3254b320ea" y="155.745312"/>
     </g>
    </g>
    <g id="text_18">
     <!-- Smooth links -->
     <g transform="translate(165.013125 164.845312)scale(0.26 -0.26)">
      <use xlink:href="#DejaVuSans-83"/>
      <use x="63.476562" xlink:href="#DejaVuSans-109"/>
      <use x="160.888672" xlink:href="#DejaVuSans-111"/>
      <use x="222.070312" xlink:href="#DejaVuSans-111"/>
      <use x="283.251953" xlink:href="#DejaVuSans-116"/>
      <use x="322.460938" xlink:href="#DejaVuSans-104"/>
      <use x="385.839844" xlink:href="#DejaVuSans-32"/>
      <use x="417.626953" xlink:href="#DejaVuSans-108"/>
      <use x="445.410156" xlink:href="#DejaVuSans-105"/>
      <use x="473.193359" xlink:href="#DejaVuSans-110"/>
      <use x="536.572266" xlink:href="#DejaVuSans-107"/>
      <use x="594.482422" xlink:href="#DejaVuSans-115"/>
     </g>
    </g>
   </g>
  </g>
 </g>
 <defs>
  <clipPath id="p65dd5189cc">
   <rect height="997.92" width="892.8" x="68.813125" y="7.2"/>
  </clipPath>
 </defs>
</svg>
