<?xml version="1.0" encoding="utf-8" standalone="no"?>
<!DOCTYPE svg PUBLIC "-//W3C//DTD SVG 1.1//EN"
  "http://www.w3.org/Graphics/SVG/1.1/DTD/svg11.dtd">
<!-- Created with matplotlib (https://matplotlib.org/) -->
<svg height="1099.149682pt" version="1.1" viewBox="0 0 994.119688 1099.149682" width="994.119688pt" xmlns="http://www.w3.org/2000/svg" xmlns:xlink="http://www.w3.org/1999/xlink">
 <metadata>
  <rdf:RDF xmlns:cc="http://creativecommons.org/ns#" xmlns:dc="http://purl.org/dc/elements/1.1/" xmlns:rdf="http://www.w3.org/1999/02/22-rdf-syntax-ns#">
   <cc:Work>
    <dc:type rdf:resource="http://purl.org/dc/dcmitype/StillImage"/>
    <dc:date>2021-05-03T14:42:34.429209</dc:date>
    <dc:format>image/svg+xml</dc:format>
    <dc:creator>
     <cc:Agent>
      <dc:title>Matplotlib v3.3.2, https://matplotlib.org/</dc:title>
     </cc:Agent>
    </dc:creator>
   </cc:Work>
  </rdf:RDF>
 </metadata>
 <defs>
  <style type="text/css">*{stroke-linecap:butt;stroke-linejoin:round;}</style>
 </defs>
 <g id="figure_1">
  <g id="patch_1">
   <path d="M 0 1099.149682 
L 994.119688 1099.149682 
L 994.119688 0 
L 0 0 
z
" style="fill:#ffffff;"/>
  </g>
  <g id="axes_1">
   <g id="patch_2">
    <path d="M 94.119688 1014.170619 
L 986.919688 1014.170619 
L 986.919688 16.250619 
L 94.119688 16.250619 
z
" style="fill:#ffffff;"/>
   </g>
   <g id="PolyCollection_1">
    <defs>
     <path d="M 134.701506 -176.793918 
L 134.701506 -153.56649 
L 134.800594 -203.188723 
L 134.998772 -249.115683 
L 135.395127 -300.057656 
L 136.187838 -351.131602 
L 137.773258 -395.804809 
L 140.9441 -439.554198 
L 147.285783 -485.464661 
L 159.96915 -528.694402 
L 185.335883 -571.346756 
L 236.069348 -613.926937 
L 337.53628 -656.539081 
L 540.470143 -698.434647 
L 946.337869 -740.163183 
L 946.337869 -740.872028 
L 946.337869 -740.872028 
L 540.470143 -698.875419 
L 337.53628 -656.881388 
L 236.069348 -615.026033 
L 185.335883 -572.480908 
L 159.96915 -531.003947 
L 147.285783 -487.262807 
L 140.9441 -444.206282 
L 137.773258 -399.434095 
L 136.187838 -358.2582 
L 135.395127 -312.727162 
L 134.998772 -265.480462 
L 134.800594 -222.192982 
L 134.701506 -176.793918 
z
" id="mcf0c9289bc" style="stroke:#fe0002;stroke-opacity:0.3;"/>
    </defs>
    <g clip-path="url(#pe07d4745fc)">
     <use style="fill:#fe0002;fill-opacity:0.3;stroke:#fe0002;stroke-opacity:0.3;" x="0" xlink:href="#mcf0c9289bc" y="1099.149682"/>
    </g>
   </g>
   <g id="PolyCollection_2">
    <g clip-path="url(#pe07d4745fc)">
     <use style="fill:#fe0002;fill-opacity:0.3;stroke:#fe0002;stroke-opacity:0.3;" x="0" xlink:href="#mcf0c9289bc" y="1099.149682"/>
    </g>
   </g>
   <g id="PolyCollection_3">
    <defs>
     <path d="M 134.701506 -178.905503 
L 134.701506 -155.678075 
L 134.800594 -204.244515 
L 134.998772 -247.004099 
L 135.395127 -311.143474 
L 136.187838 -360.369784 
L 137.773258 -420.022042 
L 140.9441 -478.816469 
L 147.285783 -537.379942 
L 159.96915 -594.532942 
L 185.335883 -653.826396 
L 236.069348 -711.195916 
L 337.53628 -770.232639 
L 540.470143 -829.636415 
L 946.337869 -888.578282 
L 946.337869 -889.48715 
L 946.337869 -889.48715 
L 540.470143 -830.821604 
L 337.53628 -772.012226 
L 236.069348 -714.563316 
L 185.335883 -656.758694 
L 159.96915 -599.226268 
L 147.285783 -542.196994 
L 140.9441 -484.65632 
L 137.773258 -426.884691 
L 136.187838 -379.506017 
L 135.395127 -318.534019 
L 134.998772 -277.094176 
L 134.800594 -216.914021 
L 134.701506 -178.905503 
z
" id="m14743dd012" style="stroke:#53fca1;stroke-opacity:0.3;"/>
    </defs>
    <g clip-path="url(#pe07d4745fc)">
     <use style="fill:#53fca1;fill-opacity:0.3;stroke:#53fca1;stroke-opacity:0.3;" x="0" xlink:href="#m14743dd012" y="1099.149682"/>
    </g>
   </g>
   <g id="PolyCollection_4">
    <defs>
     <path d="M 134.701506 -151.454906 
L 134.701506 -130.339063 
L 134.800594 -164.124412 
L 134.998772 -188.407632 
L 135.395127 -225.624307 
L 136.187838 -253.998722 
L 137.773258 -286.992227 
L 140.9441 -317.51122 
L 147.285783 -348.459128 
L 159.96915 -377.947074 
L 185.335883 -407.802073 
L 236.069348 -436.555913 
L 337.53628 -466.353173 
L 540.470143 -496.157134 
L 946.337869 -525.624974 
L 946.337869 -526.106731 
L 946.337869 -526.106731 
L 540.470143 -496.536044 
L 337.53628 -467.284208 
L 236.069348 -438.081862 
L 185.335883 -409.233166 
L 159.96915 -379.802959 
L 147.285783 -350.521223 
L 140.9441 -320.810571 
L 137.773258 -291.611318 
L 136.187838 -263.236903 
L 135.395127 -229.847476 
L 134.998772 -207.411892 
L 134.800594 -174.682334 
L 134.701506 -151.454906 
z
" id="m106b020d7d" style="stroke:#53fca1;stroke-opacity:0.3;"/>
    </defs>
    <g clip-path="url(#pe07d4745fc)">
     <use style="fill:#53fca1;fill-opacity:0.3;stroke:#53fca1;stroke-opacity:0.3;" x="0" xlink:href="#m106b020d7d" y="1099.149682"/>
    </g>
   </g>
   <g id="PolyCollection_5">
    <defs>
     <path d="M 134.701506 -181.017087 
L 134.701506 -159.901244 
L 134.800594 -198.965554 
L 134.998772 -257.56202 
L 135.395127 -314.574798 
L 136.187838 -382.145498 
L 137.773258 -444.833158 
L 140.9441 -518.54065 
L 147.285783 -596.735259 
L 159.96915 -665.468979 
L 185.335883 -742.974848 
L 236.069348 -817.577289 
L 337.53628 -890.365086 
L 540.470143 -963.755016 
L 946.337869 -1036.63767 
L 946.337869 -1037.539062 
L 946.337869 -1037.539062 
L 540.470143 -964.782454 
L 337.53628 -892.880841 
L 236.069348 -820.431227 
L 185.335883 -747.404226 
L 159.96915 -673.321434 
L 147.285783 -603.053515 
L 140.9441 -528.471695 
L 137.773258 -458.228522 
L 136.187838 -388.348277 
L 135.395127 -333.579057 
L 134.998772 -285.540513 
L 134.800594 -216.914021 
L 134.701506 -181.017087 
z
" id="m34e318b8bd" style="stroke:#0652ff;stroke-opacity:0.3;"/>
    </defs>
    <g clip-path="url(#pe07d4745fc)">
     <use style="fill:#0652ff;fill-opacity:0.3;stroke:#0652ff;stroke-opacity:0.3;" x="0" xlink:href="#m34e318b8bd" y="1099.149682"/>
    </g>
   </g>
   <g id="PolyCollection_6">
    <defs>
     <path d="M 134.701506 -151.454906 
L 134.701506 -132.450647 
L 134.800594 -165.180204 
L 134.998772 -200.549243 
L 135.395127 -240.405397 
L 136.187838 -279.997604 
L 137.773258 -319.457837 
L 140.9441 -363.636141 
L 147.285783 -410.915835 
L 159.96915 -452.116475 
L 185.335883 -497.573277 
L 236.069348 -541.718588 
L 337.53628 -585.060713 
L 540.470143 -628.328087 
L 946.337869 -671.35368 
L 946.337869 -671.91457 
L 946.337869 -671.91457 
L 540.470143 -628.979709 
L 337.53628 -586.35777 
L 236.069348 -543.316711 
L 185.335883 -500.146771 
L 159.96915 -455.762257 
L 147.285783 -413.852257 
L 140.9441 -369.904907 
L 137.773258 -326.650421 
L 136.187838 -283.824851 
L 135.395127 -249.115683 
L 134.998772 -220.609294 
L 134.800594 -175.738126 
L 134.701506 -151.454906 
z
" id="maa7e269bdf" style="stroke:#0652ff;stroke-opacity:0.3;"/>
    </defs>
    <g clip-path="url(#pe07d4745fc)">
     <use style="fill:#0652ff;fill-opacity:0.3;stroke:#0652ff;stroke-opacity:0.3;" x="0" xlink:href="#maa7e269bdf" y="1099.149682"/>
    </g>
   </g>
   <g id="matplotlib.axis_1">
    <g id="xtick_1">
     <g id="line2d_1">
      <path clip-path="url(#pe07d4745fc)" d="M 134.602417 1014.170619 
L 134.602417 16.250619 
" style="fill:none;stroke:#b0b0b0;stroke-linecap:square;stroke-width:0.8;"/>
     </g>
     <g id="line2d_2">
      <defs>
       <path d="M 0 0 
L 0 3.5 
" id="me7516e06cd" style="stroke:#000000;stroke-width:0.8;"/>
      </defs>
      <g>
       <use style="stroke:#000000;stroke-width:0.8;" x="134.602417" xlink:href="#me7516e06cd" y="1014.170619"/>
      </g>
     </g>
     <g id="text_1">
      <!-- 0 -->
      <g transform="translate(125.058667 1043.965932)scale(0.3 -0.3)">
       <defs>
        <path d="M 31.78125 66.40625 
Q 24.171875 66.40625 20.328125 58.90625 
Q 16.5 51.421875 16.5 36.375 
Q 16.5 21.390625 20.328125 13.890625 
Q 24.171875 6.390625 31.78125 6.390625 
Q 39.453125 6.390625 43.28125 13.890625 
Q 47.125 21.390625 47.125 36.375 
Q 47.125 51.421875 43.28125 58.90625 
Q 39.453125 66.40625 31.78125 66.40625 
z
M 31.78125 74.21875 
Q 44.046875 74.21875 50.515625 64.515625 
Q 56.984375 54.828125 56.984375 36.375 
Q 56.984375 17.96875 50.515625 8.265625 
Q 44.046875 -1.421875 31.78125 -1.421875 
Q 19.53125 -1.421875 13.0625 8.265625 
Q 6.59375 17.96875 6.59375 36.375 
Q 6.59375 54.828125 13.0625 64.515625 
Q 19.53125 74.21875 31.78125 74.21875 
z
" id="DejaVuSans-48"/>
       </defs>
       <use xlink:href="#DejaVuSans-48"/>
      </g>
     </g>
    </g>
    <g id="xtick_2">
     <g id="line2d_3">
      <path clip-path="url(#pe07d4745fc)" d="M 258.463417 1014.170619 
L 258.463417 16.250619 
" style="fill:none;stroke:#b0b0b0;stroke-linecap:square;stroke-width:0.8;"/>
     </g>
     <g id="line2d_4">
      <g>
       <use style="stroke:#000000;stroke-width:0.8;" x="258.463417" xlink:href="#me7516e06cd" y="1014.170619"/>
      </g>
     </g>
     <g id="text_2">
      <!-- 20000 -->
      <g transform="translate(210.744667 1043.965932)scale(0.3 -0.3)">
       <defs>
        <path d="M 19.1875 8.296875 
L 53.609375 8.296875 
L 53.609375 0 
L 7.328125 0 
L 7.328125 8.296875 
Q 12.9375 14.109375 22.625 23.890625 
Q 32.328125 33.6875 34.8125 36.53125 
Q 39.546875 41.84375 41.421875 45.53125 
Q 43.3125 49.21875 43.3125 52.78125 
Q 43.3125 58.59375 39.234375 62.25 
Q 35.15625 65.921875 28.609375 65.921875 
Q 23.96875 65.921875 18.8125 64.3125 
Q 13.671875 62.703125 7.8125 59.421875 
L 7.8125 69.390625 
Q 13.765625 71.78125 18.9375 73 
Q 24.125 74.21875 28.421875 74.21875 
Q 39.75 74.21875 46.484375 68.546875 
Q 53.21875 62.890625 53.21875 53.421875 
Q 53.21875 48.921875 51.53125 44.890625 
Q 49.859375 40.875 45.40625 35.40625 
Q 44.1875 33.984375 37.640625 27.21875 
Q 31.109375 20.453125 19.1875 8.296875 
z
" id="DejaVuSans-50"/>
       </defs>
       <use xlink:href="#DejaVuSans-50"/>
       <use x="63.623047" xlink:href="#DejaVuSans-48"/>
       <use x="127.246094" xlink:href="#DejaVuSans-48"/>
       <use x="190.869141" xlink:href="#DejaVuSans-48"/>
       <use x="254.492188" xlink:href="#DejaVuSans-48"/>
      </g>
     </g>
    </g>
    <g id="xtick_3">
     <g id="line2d_5">
      <path clip-path="url(#pe07d4745fc)" d="M 382.324418 1014.170619 
L 382.324418 16.250619 
" style="fill:none;stroke:#b0b0b0;stroke-linecap:square;stroke-width:0.8;"/>
     </g>
     <g id="line2d_6">
      <g>
       <use style="stroke:#000000;stroke-width:0.8;" x="382.324418" xlink:href="#me7516e06cd" y="1014.170619"/>
      </g>
     </g>
     <g id="text_3">
      <!-- 40000 -->
      <g transform="translate(334.605668 1043.965932)scale(0.3 -0.3)">
       <defs>
        <path d="M 37.796875 64.3125 
L 12.890625 25.390625 
L 37.796875 25.390625 
z
M 35.203125 72.90625 
L 47.609375 72.90625 
L 47.609375 25.390625 
L 58.015625 25.390625 
L 58.015625 17.1875 
L 47.609375 17.1875 
L 47.609375 0 
L 37.796875 0 
L 37.796875 17.1875 
L 4.890625 17.1875 
L 4.890625 26.703125 
z
" id="DejaVuSans-52"/>
       </defs>
       <use xlink:href="#DejaVuSans-52"/>
       <use x="63.623047" xlink:href="#DejaVuSans-48"/>
       <use x="127.246094" xlink:href="#DejaVuSans-48"/>
       <use x="190.869141" xlink:href="#DejaVuSans-48"/>
       <use x="254.492188" xlink:href="#DejaVuSans-48"/>
      </g>
     </g>
    </g>
    <g id="xtick_4">
     <g id="line2d_7">
      <path clip-path="url(#pe07d4745fc)" d="M 506.185418 1014.170619 
L 506.185418 16.250619 
" style="fill:none;stroke:#b0b0b0;stroke-linecap:square;stroke-width:0.8;"/>
     </g>
     <g id="line2d_8">
      <g>
       <use style="stroke:#000000;stroke-width:0.8;" x="506.185418" xlink:href="#me7516e06cd" y="1014.170619"/>
      </g>
     </g>
     <g id="text_4">
      <!-- 60000 -->
      <g transform="translate(458.466668 1043.965932)scale(0.3 -0.3)">
       <defs>
        <path d="M 33.015625 40.375 
Q 26.375 40.375 22.484375 35.828125 
Q 18.609375 31.296875 18.609375 23.390625 
Q 18.609375 15.53125 22.484375 10.953125 
Q 26.375 6.390625 33.015625 6.390625 
Q 39.65625 6.390625 43.53125 10.953125 
Q 47.40625 15.53125 47.40625 23.390625 
Q 47.40625 31.296875 43.53125 35.828125 
Q 39.65625 40.375 33.015625 40.375 
z
M 52.59375 71.296875 
L 52.59375 62.3125 
Q 48.875 64.0625 45.09375 64.984375 
Q 41.3125 65.921875 37.59375 65.921875 
Q 27.828125 65.921875 22.671875 59.328125 
Q 17.53125 52.734375 16.796875 39.40625 
Q 19.671875 43.65625 24.015625 45.921875 
Q 28.375 48.1875 33.59375 48.1875 
Q 44.578125 48.1875 50.953125 41.515625 
Q 57.328125 34.859375 57.328125 23.390625 
Q 57.328125 12.15625 50.6875 5.359375 
Q 44.046875 -1.421875 33.015625 -1.421875 
Q 20.359375 -1.421875 13.671875 8.265625 
Q 6.984375 17.96875 6.984375 36.375 
Q 6.984375 53.65625 15.1875 63.9375 
Q 23.390625 74.21875 37.203125 74.21875 
Q 40.921875 74.21875 44.703125 73.484375 
Q 48.484375 72.75 52.59375 71.296875 
z
" id="DejaVuSans-54"/>
       </defs>
       <use xlink:href="#DejaVuSans-54"/>
       <use x="63.623047" xlink:href="#DejaVuSans-48"/>
       <use x="127.246094" xlink:href="#DejaVuSans-48"/>
       <use x="190.869141" xlink:href="#DejaVuSans-48"/>
       <use x="254.492188" xlink:href="#DejaVuSans-48"/>
      </g>
     </g>
    </g>
    <g id="xtick_5">
     <g id="line2d_9">
      <path clip-path="url(#pe07d4745fc)" d="M 630.046419 1014.170619 
L 630.046419 16.250619 
" style="fill:none;stroke:#b0b0b0;stroke-linecap:square;stroke-width:0.8;"/>
     </g>
     <g id="line2d_10">
      <g>
       <use style="stroke:#000000;stroke-width:0.8;" x="630.046419" xlink:href="#me7516e06cd" y="1014.170619"/>
      </g>
     </g>
     <g id="text_5">
      <!-- 80000 -->
      <g transform="translate(582.327669 1043.965932)scale(0.3 -0.3)">
       <defs>
        <path d="M 31.78125 34.625 
Q 24.75 34.625 20.71875 30.859375 
Q 16.703125 27.09375 16.703125 20.515625 
Q 16.703125 13.921875 20.71875 10.15625 
Q 24.75 6.390625 31.78125 6.390625 
Q 38.8125 6.390625 42.859375 10.171875 
Q 46.921875 13.96875 46.921875 20.515625 
Q 46.921875 27.09375 42.890625 30.859375 
Q 38.875 34.625 31.78125 34.625 
z
M 21.921875 38.8125 
Q 15.578125 40.375 12.03125 44.71875 
Q 8.5 49.078125 8.5 55.328125 
Q 8.5 64.0625 14.71875 69.140625 
Q 20.953125 74.21875 31.78125 74.21875 
Q 42.671875 74.21875 48.875 69.140625 
Q 55.078125 64.0625 55.078125 55.328125 
Q 55.078125 49.078125 51.53125 44.71875 
Q 48 40.375 41.703125 38.8125 
Q 48.828125 37.15625 52.796875 32.3125 
Q 56.78125 27.484375 56.78125 20.515625 
Q 56.78125 9.90625 50.3125 4.234375 
Q 43.84375 -1.421875 31.78125 -1.421875 
Q 19.734375 -1.421875 13.25 4.234375 
Q 6.78125 9.90625 6.78125 20.515625 
Q 6.78125 27.484375 10.78125 32.3125 
Q 14.796875 37.15625 21.921875 38.8125 
z
M 18.3125 54.390625 
Q 18.3125 48.734375 21.84375 45.5625 
Q 25.390625 42.390625 31.78125 42.390625 
Q 38.140625 42.390625 41.71875 45.5625 
Q 45.3125 48.734375 45.3125 54.390625 
Q 45.3125 60.0625 41.71875 63.234375 
Q 38.140625 66.40625 31.78125 66.40625 
Q 25.390625 66.40625 21.84375 63.234375 
Q 18.3125 60.0625 18.3125 54.390625 
z
" id="DejaVuSans-56"/>
       </defs>
       <use xlink:href="#DejaVuSans-56"/>
       <use x="63.623047" xlink:href="#DejaVuSans-48"/>
       <use x="127.246094" xlink:href="#DejaVuSans-48"/>
       <use x="190.869141" xlink:href="#DejaVuSans-48"/>
       <use x="254.492188" xlink:href="#DejaVuSans-48"/>
      </g>
     </g>
    </g>
    <g id="xtick_6">
     <g id="line2d_11">
      <path clip-path="url(#pe07d4745fc)" d="M 753.907419 1014.170619 
L 753.907419 16.250619 
" style="fill:none;stroke:#b0b0b0;stroke-linecap:square;stroke-width:0.8;"/>
     </g>
     <g id="line2d_12">
      <g>
       <use style="stroke:#000000;stroke-width:0.8;" x="753.907419" xlink:href="#me7516e06cd" y="1014.170619"/>
      </g>
     </g>
     <g id="text_6">
      <!-- 100000 -->
      <g transform="translate(696.644919 1043.965932)scale(0.3 -0.3)">
       <defs>
        <path d="M 12.40625 8.296875 
L 28.515625 8.296875 
L 28.515625 63.921875 
L 10.984375 60.40625 
L 10.984375 69.390625 
L 28.421875 72.90625 
L 38.28125 72.90625 
L 38.28125 8.296875 
L 54.390625 8.296875 
L 54.390625 0 
L 12.40625 0 
z
" id="DejaVuSans-49"/>
       </defs>
       <use xlink:href="#DejaVuSans-49"/>
       <use x="63.623047" xlink:href="#DejaVuSans-48"/>
       <use x="127.246094" xlink:href="#DejaVuSans-48"/>
       <use x="190.869141" xlink:href="#DejaVuSans-48"/>
       <use x="254.492188" xlink:href="#DejaVuSans-48"/>
       <use x="318.115234" xlink:href="#DejaVuSans-48"/>
      </g>
     </g>
    </g>
    <g id="xtick_7">
     <g id="line2d_13">
      <path clip-path="url(#pe07d4745fc)" d="M 877.768419 1014.170619 
L 877.768419 16.250619 
" style="fill:none;stroke:#b0b0b0;stroke-linecap:square;stroke-width:0.8;"/>
     </g>
     <g id="line2d_14">
      <g>
       <use style="stroke:#000000;stroke-width:0.8;" x="877.768419" xlink:href="#me7516e06cd" y="1014.170619"/>
      </g>
     </g>
     <g id="text_7">
      <!-- 120000 -->
      <g transform="translate(820.505919 1043.965932)scale(0.3 -0.3)">
       <use xlink:href="#DejaVuSans-49"/>
       <use x="63.623047" xlink:href="#DejaVuSans-50"/>
       <use x="127.246094" xlink:href="#DejaVuSans-48"/>
       <use x="190.869141" xlink:href="#DejaVuSans-48"/>
       <use x="254.492188" xlink:href="#DejaVuSans-48"/>
       <use x="318.115234" xlink:href="#DejaVuSans-48"/>
      </g>
     </g>
    </g>
    <g id="text_8">
     <!-- Input size -->
     <g transform="translate(446.020859 1083.838901)scale(0.39 -0.39)">
      <defs>
       <path d="M 9.8125 72.90625 
L 19.671875 72.90625 
L 19.671875 0 
L 9.8125 0 
z
" id="DejaVuSans-73"/>
       <path d="M 54.890625 33.015625 
L 54.890625 0 
L 45.90625 0 
L 45.90625 32.71875 
Q 45.90625 40.484375 42.875 44.328125 
Q 39.84375 48.1875 33.796875 48.1875 
Q 26.515625 48.1875 22.3125 43.546875 
Q 18.109375 38.921875 18.109375 30.90625 
L 18.109375 0 
L 9.078125 0 
L 9.078125 54.6875 
L 18.109375 54.6875 
L 18.109375 46.1875 
Q 21.34375 51.125 25.703125 53.5625 
Q 30.078125 56 35.796875 56 
Q 45.21875 56 50.046875 50.171875 
Q 54.890625 44.34375 54.890625 33.015625 
z
" id="DejaVuSans-110"/>
       <path d="M 18.109375 8.203125 
L 18.109375 -20.796875 
L 9.078125 -20.796875 
L 9.078125 54.6875 
L 18.109375 54.6875 
L 18.109375 46.390625 
Q 20.953125 51.265625 25.265625 53.625 
Q 29.59375 56 35.59375 56 
Q 45.5625 56 51.78125 48.09375 
Q 58.015625 40.1875 58.015625 27.296875 
Q 58.015625 14.40625 51.78125 6.484375 
Q 45.5625 -1.421875 35.59375 -1.421875 
Q 29.59375 -1.421875 25.265625 0.953125 
Q 20.953125 3.328125 18.109375 8.203125 
z
M 48.6875 27.296875 
Q 48.6875 37.203125 44.609375 42.84375 
Q 40.53125 48.484375 33.40625 48.484375 
Q 26.265625 48.484375 22.1875 42.84375 
Q 18.109375 37.203125 18.109375 27.296875 
Q 18.109375 17.390625 22.1875 11.75 
Q 26.265625 6.109375 33.40625 6.109375 
Q 40.53125 6.109375 44.609375 11.75 
Q 48.6875 17.390625 48.6875 27.296875 
z
" id="DejaVuSans-112"/>
       <path d="M 8.5 21.578125 
L 8.5 54.6875 
L 17.484375 54.6875 
L 17.484375 21.921875 
Q 17.484375 14.15625 20.5 10.265625 
Q 23.53125 6.390625 29.59375 6.390625 
Q 36.859375 6.390625 41.078125 11.03125 
Q 45.3125 15.671875 45.3125 23.6875 
L 45.3125 54.6875 
L 54.296875 54.6875 
L 54.296875 0 
L 45.3125 0 
L 45.3125 8.40625 
Q 42.046875 3.421875 37.71875 1 
Q 33.40625 -1.421875 27.6875 -1.421875 
Q 18.265625 -1.421875 13.375 4.4375 
Q 8.5 10.296875 8.5 21.578125 
z
M 31.109375 56 
z
" id="DejaVuSans-117"/>
       <path d="M 18.3125 70.21875 
L 18.3125 54.6875 
L 36.8125 54.6875 
L 36.8125 47.703125 
L 18.3125 47.703125 
L 18.3125 18.015625 
Q 18.3125 11.328125 20.140625 9.421875 
Q 21.96875 7.515625 27.59375 7.515625 
L 36.8125 7.515625 
L 36.8125 0 
L 27.59375 0 
Q 17.1875 0 13.234375 3.875 
Q 9.28125 7.765625 9.28125 18.015625 
L 9.28125 47.703125 
L 2.6875 47.703125 
L 2.6875 54.6875 
L 9.28125 54.6875 
L 9.28125 70.21875 
z
" id="DejaVuSans-116"/>
       <path id="DejaVuSans-32"/>
       <path d="M 44.28125 53.078125 
L 44.28125 44.578125 
Q 40.484375 46.53125 36.375 47.5 
Q 32.28125 48.484375 27.875 48.484375 
Q 21.1875 48.484375 17.84375 46.4375 
Q 14.5 44.390625 14.5 40.28125 
Q 14.5 37.15625 16.890625 35.375 
Q 19.28125 33.59375 26.515625 31.984375 
L 29.59375 31.296875 
Q 39.15625 29.25 43.1875 25.515625 
Q 47.21875 21.78125 47.21875 15.09375 
Q 47.21875 7.46875 41.1875 3.015625 
Q 35.15625 -1.421875 24.609375 -1.421875 
Q 20.21875 -1.421875 15.453125 -0.5625 
Q 10.6875 0.296875 5.421875 2 
L 5.421875 11.28125 
Q 10.40625 8.6875 15.234375 7.390625 
Q 20.0625 6.109375 24.8125 6.109375 
Q 31.15625 6.109375 34.5625 8.28125 
Q 37.984375 10.453125 37.984375 14.40625 
Q 37.984375 18.0625 35.515625 20.015625 
Q 33.0625 21.96875 24.703125 23.78125 
L 21.578125 24.515625 
Q 13.234375 26.265625 9.515625 29.90625 
Q 5.8125 33.546875 5.8125 39.890625 
Q 5.8125 47.609375 11.28125 51.796875 
Q 16.75 56 26.8125 56 
Q 31.78125 56 36.171875 55.265625 
Q 40.578125 54.546875 44.28125 53.078125 
z
" id="DejaVuSans-115"/>
       <path d="M 9.421875 54.6875 
L 18.40625 54.6875 
L 18.40625 0 
L 9.421875 0 
z
M 9.421875 75.984375 
L 18.40625 75.984375 
L 18.40625 64.59375 
L 9.421875 64.59375 
z
" id="DejaVuSans-105"/>
       <path d="M 5.515625 54.6875 
L 48.1875 54.6875 
L 48.1875 46.484375 
L 14.40625 7.171875 
L 48.1875 7.171875 
L 48.1875 0 
L 4.296875 0 
L 4.296875 8.203125 
L 38.09375 47.515625 
L 5.515625 47.515625 
z
" id="DejaVuSans-122"/>
       <path d="M 56.203125 29.59375 
L 56.203125 25.203125 
L 14.890625 25.203125 
Q 15.484375 15.921875 20.484375 11.0625 
Q 25.484375 6.203125 34.421875 6.203125 
Q 39.59375 6.203125 44.453125 7.46875 
Q 49.3125 8.734375 54.109375 11.28125 
L 54.109375 2.78125 
Q 49.265625 0.734375 44.1875 -0.34375 
Q 39.109375 -1.421875 33.890625 -1.421875 
Q 20.796875 -1.421875 13.15625 6.1875 
Q 5.515625 13.8125 5.515625 26.8125 
Q 5.515625 40.234375 12.765625 48.109375 
Q 20.015625 56 32.328125 56 
Q 43.359375 56 49.78125 48.890625 
Q 56.203125 41.796875 56.203125 29.59375 
z
M 47.21875 32.234375 
Q 47.125 39.59375 43.09375 43.984375 
Q 39.0625 48.390625 32.421875 48.390625 
Q 24.90625 48.390625 20.390625 44.140625 
Q 15.875 39.890625 15.1875 32.171875 
z
" id="DejaVuSans-101"/>
      </defs>
      <use xlink:href="#DejaVuSans-73"/>
      <use x="29.492188" xlink:href="#DejaVuSans-110"/>
      <use x="92.871094" xlink:href="#DejaVuSans-112"/>
      <use x="156.347656" xlink:href="#DejaVuSans-117"/>
      <use x="219.726562" xlink:href="#DejaVuSans-116"/>
      <use x="258.935547" xlink:href="#DejaVuSans-32"/>
      <use x="290.722656" xlink:href="#DejaVuSans-115"/>
      <use x="342.822266" xlink:href="#DejaVuSans-105"/>
      <use x="370.605469" xlink:href="#DejaVuSans-122"/>
      <use x="423.095703" xlink:href="#DejaVuSans-101"/>
     </g>
    </g>
   </g>
   <g id="matplotlib.axis_2">
    <g id="ytick_1">
     <g id="line2d_15">
      <path clip-path="url(#pe07d4745fc)" d="M 94.119688 863.231401 
L 986.919688 863.231401 
" style="fill:none;stroke:#b0b0b0;stroke-linecap:square;stroke-width:0.8;"/>
     </g>
     <g id="line2d_16">
      <defs>
       <path d="M 0 0 
L -3.5 0 
" id="md33724d70a" style="stroke:#000000;stroke-width:0.8;"/>
      </defs>
      <g>
       <use style="stroke:#000000;stroke-width:0.8;" x="94.119688" xlink:href="#md33724d70a" y="863.231401"/>
      </g>
     </g>
     <g id="text_9">
      <!-- 5 -->
      <g transform="translate(68.032188 874.629058)scale(0.3 -0.3)">
       <defs>
        <path d="M 10.796875 72.90625 
L 49.515625 72.90625 
L 49.515625 64.59375 
L 19.828125 64.59375 
L 19.828125 46.734375 
Q 21.96875 47.46875 24.109375 47.828125 
Q 26.265625 48.1875 28.421875 48.1875 
Q 40.625 48.1875 47.75 41.5 
Q 54.890625 34.8125 54.890625 23.390625 
Q 54.890625 11.625 47.5625 5.09375 
Q 40.234375 -1.421875 26.90625 -1.421875 
Q 22.3125 -1.421875 17.546875 -0.640625 
Q 12.796875 0.140625 7.71875 1.703125 
L 7.71875 11.625 
Q 12.109375 9.234375 16.796875 8.0625 
Q 21.484375 6.890625 26.703125 6.890625 
Q 35.15625 6.890625 40.078125 11.328125 
Q 45.015625 15.765625 45.015625 23.390625 
Q 45.015625 31 40.078125 35.4375 
Q 35.15625 39.890625 26.703125 39.890625 
Q 22.75 39.890625 18.8125 39.015625 
Q 14.890625 38.140625 10.796875 36.28125 
z
" id="DejaVuSans-53"/>
       </defs>
       <use xlink:href="#DejaVuSans-53"/>
      </g>
     </g>
    </g>
    <g id="ytick_2">
     <g id="line2d_17">
      <path clip-path="url(#pe07d4745fc)" d="M 94.119688 694.304652 
L 986.919688 694.304652 
" style="fill:none;stroke:#b0b0b0;stroke-linecap:square;stroke-width:0.8;"/>
     </g>
     <g id="line2d_18">
      <g>
       <use style="stroke:#000000;stroke-width:0.8;" x="94.119688" xlink:href="#md33724d70a" y="694.304652"/>
      </g>
     </g>
     <g id="text_10">
      <!-- 10 -->
      <g transform="translate(48.944688 705.702309)scale(0.3 -0.3)">
       <use xlink:href="#DejaVuSans-49"/>
       <use x="63.623047" xlink:href="#DejaVuSans-48"/>
      </g>
     </g>
    </g>
    <g id="ytick_3">
     <g id="line2d_19">
      <path clip-path="url(#pe07d4745fc)" d="M 94.119688 525.377903 
L 986.919688 525.377903 
" style="fill:none;stroke:#b0b0b0;stroke-linecap:square;stroke-width:0.8;"/>
     </g>
     <g id="line2d_20">
      <g>
       <use style="stroke:#000000;stroke-width:0.8;" x="94.119688" xlink:href="#md33724d70a" y="525.377903"/>
      </g>
     </g>
     <g id="text_11">
      <!-- 15 -->
      <g transform="translate(48.944688 536.77556)scale(0.3 -0.3)">
       <use xlink:href="#DejaVuSans-49"/>
       <use x="63.623047" xlink:href="#DejaVuSans-53"/>
      </g>
     </g>
    </g>
    <g id="ytick_4">
     <g id="line2d_21">
      <path clip-path="url(#pe07d4745fc)" d="M 94.119688 356.451154 
L 986.919688 356.451154 
" style="fill:none;stroke:#b0b0b0;stroke-linecap:square;stroke-width:0.8;"/>
     </g>
     <g id="line2d_22">
      <g>
       <use style="stroke:#000000;stroke-width:0.8;" x="94.119688" xlink:href="#md33724d70a" y="356.451154"/>
      </g>
     </g>
     <g id="text_12">
      <!-- 20 -->
      <g transform="translate(48.944688 367.848811)scale(0.3 -0.3)">
       <use xlink:href="#DejaVuSans-50"/>
       <use x="63.623047" xlink:href="#DejaVuSans-48"/>
      </g>
     </g>
    </g>
    <g id="ytick_5">
     <g id="line2d_23">
      <path clip-path="url(#pe07d4745fc)" d="M 94.119688 187.524405 
L 986.919688 187.524405 
" style="fill:none;stroke:#b0b0b0;stroke-linecap:square;stroke-width:0.8;"/>
     </g>
     <g id="line2d_24">
      <g>
       <use style="stroke:#000000;stroke-width:0.8;" x="94.119688" xlink:href="#md33724d70a" y="187.524405"/>
      </g>
     </g>
     <g id="text_13">
      <!-- 25 -->
      <g transform="translate(48.944688 198.922062)scale(0.3 -0.3)">
       <use xlink:href="#DejaVuSans-50"/>
       <use x="63.623047" xlink:href="#DejaVuSans-53"/>
      </g>
     </g>
    </g>
    <g id="ytick_6">
     <g id="line2d_25">
      <path clip-path="url(#pe07d4745fc)" d="M 94.119688 18.597656 
L 986.919688 18.597656 
" style="fill:none;stroke:#b0b0b0;stroke-linecap:square;stroke-width:0.8;"/>
     </g>
     <g id="line2d_26">
      <g>
       <use style="stroke:#000000;stroke-width:0.8;" x="94.119688" xlink:href="#md33724d70a" y="18.597656"/>
      </g>
     </g>
     <g id="text_14">
      <!-- 30 -->
      <g transform="translate(48.944688 29.995312)scale(0.3 -0.3)">
       <defs>
        <path d="M 40.578125 39.3125 
Q 47.65625 37.796875 51.625 33 
Q 55.609375 28.21875 55.609375 21.1875 
Q 55.609375 10.40625 48.1875 4.484375 
Q 40.765625 -1.421875 27.09375 -1.421875 
Q 22.515625 -1.421875 17.65625 -0.515625 
Q 12.796875 0.390625 7.625 2.203125 
L 7.625 11.71875 
Q 11.71875 9.328125 16.59375 8.109375 
Q 21.484375 6.890625 26.8125 6.890625 
Q 36.078125 6.890625 40.9375 10.546875 
Q 45.796875 14.203125 45.796875 21.1875 
Q 45.796875 27.640625 41.28125 31.265625 
Q 36.765625 34.90625 28.71875 34.90625 
L 20.21875 34.90625 
L 20.21875 43.015625 
L 29.109375 43.015625 
Q 36.375 43.015625 40.234375 45.921875 
Q 44.09375 48.828125 44.09375 54.296875 
Q 44.09375 59.90625 40.109375 62.90625 
Q 36.140625 65.921875 28.71875 65.921875 
Q 24.65625 65.921875 20.015625 65.03125 
Q 15.375 64.15625 9.8125 62.3125 
L 9.8125 71.09375 
Q 15.4375 72.65625 20.34375 73.4375 
Q 25.25 74.21875 29.59375 74.21875 
Q 40.828125 74.21875 47.359375 69.109375 
Q 53.90625 64.015625 53.90625 55.328125 
Q 53.90625 49.265625 50.4375 45.09375 
Q 46.96875 40.921875 40.578125 39.3125 
z
" id="DejaVuSans-51"/>
       </defs>
       <use xlink:href="#DejaVuSans-51"/>
       <use x="63.623047" xlink:href="#DejaVuSans-48"/>
      </g>
     </g>
    </g>
    <g id="text_15">
     <!-- Avg. number of operations / size -->
     <g transform="translate(36.833906 831.573744)rotate(-90)scale(0.39 -0.39)">
      <defs>
       <path d="M 34.1875 63.1875 
L 20.796875 26.90625 
L 47.609375 26.90625 
z
M 28.609375 72.90625 
L 39.796875 72.90625 
L 67.578125 0 
L 57.328125 0 
L 50.6875 18.703125 
L 17.828125 18.703125 
L 11.1875 0 
L 0.78125 0 
z
" id="DejaVuSans-65"/>
       <path d="M 2.984375 54.6875 
L 12.5 54.6875 
L 29.59375 8.796875 
L 46.6875 54.6875 
L 56.203125 54.6875 
L 35.6875 0 
L 23.484375 0 
z
" id="DejaVuSans-118"/>
       <path d="M 45.40625 27.984375 
Q 45.40625 37.75 41.375 43.109375 
Q 37.359375 48.484375 30.078125 48.484375 
Q 22.859375 48.484375 18.828125 43.109375 
Q 14.796875 37.75 14.796875 27.984375 
Q 14.796875 18.265625 18.828125 12.890625 
Q 22.859375 7.515625 30.078125 7.515625 
Q 37.359375 7.515625 41.375 12.890625 
Q 45.40625 18.265625 45.40625 27.984375 
z
M 54.390625 6.78125 
Q 54.390625 -7.171875 48.1875 -13.984375 
Q 42 -20.796875 29.203125 -20.796875 
Q 24.46875 -20.796875 20.265625 -20.09375 
Q 16.0625 -19.390625 12.109375 -17.921875 
L 12.109375 -9.1875 
Q 16.0625 -11.328125 19.921875 -12.34375 
Q 23.78125 -13.375 27.78125 -13.375 
Q 36.625 -13.375 41.015625 -8.765625 
Q 45.40625 -4.15625 45.40625 5.171875 
L 45.40625 9.625 
Q 42.625 4.78125 38.28125 2.390625 
Q 33.9375 0 27.875 0 
Q 17.828125 0 11.671875 7.65625 
Q 5.515625 15.328125 5.515625 27.984375 
Q 5.515625 40.671875 11.671875 48.328125 
Q 17.828125 56 27.875 56 
Q 33.9375 56 38.28125 53.609375 
Q 42.625 51.21875 45.40625 46.390625 
L 45.40625 54.6875 
L 54.390625 54.6875 
z
" id="DejaVuSans-103"/>
       <path d="M 10.6875 12.40625 
L 21 12.40625 
L 21 0 
L 10.6875 0 
z
" id="DejaVuSans-46"/>
       <path d="M 52 44.1875 
Q 55.375 50.25 60.0625 53.125 
Q 64.75 56 71.09375 56 
Q 79.640625 56 84.28125 50.015625 
Q 88.921875 44.046875 88.921875 33.015625 
L 88.921875 0 
L 79.890625 0 
L 79.890625 32.71875 
Q 79.890625 40.578125 77.09375 44.375 
Q 74.3125 48.1875 68.609375 48.1875 
Q 61.625 48.1875 57.5625 43.546875 
Q 53.515625 38.921875 53.515625 30.90625 
L 53.515625 0 
L 44.484375 0 
L 44.484375 32.71875 
Q 44.484375 40.625 41.703125 44.40625 
Q 38.921875 48.1875 33.109375 48.1875 
Q 26.21875 48.1875 22.15625 43.53125 
Q 18.109375 38.875 18.109375 30.90625 
L 18.109375 0 
L 9.078125 0 
L 9.078125 54.6875 
L 18.109375 54.6875 
L 18.109375 46.1875 
Q 21.1875 51.21875 25.484375 53.609375 
Q 29.78125 56 35.6875 56 
Q 41.65625 56 45.828125 52.96875 
Q 50 49.953125 52 44.1875 
z
" id="DejaVuSans-109"/>
       <path d="M 48.6875 27.296875 
Q 48.6875 37.203125 44.609375 42.84375 
Q 40.53125 48.484375 33.40625 48.484375 
Q 26.265625 48.484375 22.1875 42.84375 
Q 18.109375 37.203125 18.109375 27.296875 
Q 18.109375 17.390625 22.1875 11.75 
Q 26.265625 6.109375 33.40625 6.109375 
Q 40.53125 6.109375 44.609375 11.75 
Q 48.6875 17.390625 48.6875 27.296875 
z
M 18.109375 46.390625 
Q 20.953125 51.265625 25.265625 53.625 
Q 29.59375 56 35.59375 56 
Q 45.5625 56 51.78125 48.09375 
Q 58.015625 40.1875 58.015625 27.296875 
Q 58.015625 14.40625 51.78125 6.484375 
Q 45.5625 -1.421875 35.59375 -1.421875 
Q 29.59375 -1.421875 25.265625 0.953125 
Q 20.953125 3.328125 18.109375 8.203125 
L 18.109375 0 
L 9.078125 0 
L 9.078125 75.984375 
L 18.109375 75.984375 
z
" id="DejaVuSans-98"/>
       <path d="M 41.109375 46.296875 
Q 39.59375 47.171875 37.8125 47.578125 
Q 36.03125 48 33.890625 48 
Q 26.265625 48 22.1875 43.046875 
Q 18.109375 38.09375 18.109375 28.8125 
L 18.109375 0 
L 9.078125 0 
L 9.078125 54.6875 
L 18.109375 54.6875 
L 18.109375 46.1875 
Q 20.953125 51.171875 25.484375 53.578125 
Q 30.03125 56 36.53125 56 
Q 37.453125 56 38.578125 55.875 
Q 39.703125 55.765625 41.0625 55.515625 
z
" id="DejaVuSans-114"/>
       <path d="M 30.609375 48.390625 
Q 23.390625 48.390625 19.1875 42.75 
Q 14.984375 37.109375 14.984375 27.296875 
Q 14.984375 17.484375 19.15625 11.84375 
Q 23.34375 6.203125 30.609375 6.203125 
Q 37.796875 6.203125 41.984375 11.859375 
Q 46.1875 17.53125 46.1875 27.296875 
Q 46.1875 37.015625 41.984375 42.703125 
Q 37.796875 48.390625 30.609375 48.390625 
z
M 30.609375 56 
Q 42.328125 56 49.015625 48.375 
Q 55.71875 40.765625 55.71875 27.296875 
Q 55.71875 13.875 49.015625 6.21875 
Q 42.328125 -1.421875 30.609375 -1.421875 
Q 18.84375 -1.421875 12.171875 6.21875 
Q 5.515625 13.875 5.515625 27.296875 
Q 5.515625 40.765625 12.171875 48.375 
Q 18.84375 56 30.609375 56 
z
" id="DejaVuSans-111"/>
       <path d="M 37.109375 75.984375 
L 37.109375 68.5 
L 28.515625 68.5 
Q 23.6875 68.5 21.796875 66.546875 
Q 19.921875 64.59375 19.921875 59.515625 
L 19.921875 54.6875 
L 34.71875 54.6875 
L 34.71875 47.703125 
L 19.921875 47.703125 
L 19.921875 0 
L 10.890625 0 
L 10.890625 47.703125 
L 2.296875 47.703125 
L 2.296875 54.6875 
L 10.890625 54.6875 
L 10.890625 58.5 
Q 10.890625 67.625 15.140625 71.796875 
Q 19.390625 75.984375 28.609375 75.984375 
z
" id="DejaVuSans-102"/>
       <path d="M 34.28125 27.484375 
Q 23.390625 27.484375 19.1875 25 
Q 14.984375 22.515625 14.984375 16.5 
Q 14.984375 11.71875 18.140625 8.90625 
Q 21.296875 6.109375 26.703125 6.109375 
Q 34.1875 6.109375 38.703125 11.40625 
Q 43.21875 16.703125 43.21875 25.484375 
L 43.21875 27.484375 
z
M 52.203125 31.203125 
L 52.203125 0 
L 43.21875 0 
L 43.21875 8.296875 
Q 40.140625 3.328125 35.546875 0.953125 
Q 30.953125 -1.421875 24.3125 -1.421875 
Q 15.921875 -1.421875 10.953125 3.296875 
Q 6 8.015625 6 15.921875 
Q 6 25.140625 12.171875 29.828125 
Q 18.359375 34.515625 30.609375 34.515625 
L 43.21875 34.515625 
L 43.21875 35.40625 
Q 43.21875 41.609375 39.140625 45 
Q 35.0625 48.390625 27.6875 48.390625 
Q 23 48.390625 18.546875 47.265625 
Q 14.109375 46.140625 10.015625 43.890625 
L 10.015625 52.203125 
Q 14.9375 54.109375 19.578125 55.046875 
Q 24.21875 56 28.609375 56 
Q 40.484375 56 46.34375 49.84375 
Q 52.203125 43.703125 52.203125 31.203125 
z
" id="DejaVuSans-97"/>
       <path d="M 25.390625 72.90625 
L 33.6875 72.90625 
L 8.296875 -9.28125 
L 0 -9.28125 
z
" id="DejaVuSans-47"/>
      </defs>
      <use xlink:href="#DejaVuSans-65"/>
      <use x="62.533203" xlink:href="#DejaVuSans-118"/>
      <use x="121.712891" xlink:href="#DejaVuSans-103"/>
      <use x="185.189453" xlink:href="#DejaVuSans-46"/>
      <use x="216.976562" xlink:href="#DejaVuSans-32"/>
      <use x="248.763672" xlink:href="#DejaVuSans-110"/>
      <use x="312.142578" xlink:href="#DejaVuSans-117"/>
      <use x="375.521484" xlink:href="#DejaVuSans-109"/>
      <use x="472.933594" xlink:href="#DejaVuSans-98"/>
      <use x="536.410156" xlink:href="#DejaVuSans-101"/>
      <use x="597.933594" xlink:href="#DejaVuSans-114"/>
      <use x="639.046875" xlink:href="#DejaVuSans-32"/>
      <use x="670.833984" xlink:href="#DejaVuSans-111"/>
      <use x="732.015625" xlink:href="#DejaVuSans-102"/>
      <use x="767.220703" xlink:href="#DejaVuSans-32"/>
      <use x="799.007812" xlink:href="#DejaVuSans-111"/>
      <use x="860.189453" xlink:href="#DejaVuSans-112"/>
      <use x="923.666016" xlink:href="#DejaVuSans-101"/>
      <use x="985.189453" xlink:href="#DejaVuSans-114"/>
      <use x="1026.302734" xlink:href="#DejaVuSans-97"/>
      <use x="1087.582031" xlink:href="#DejaVuSans-116"/>
      <use x="1126.791016" xlink:href="#DejaVuSans-105"/>
      <use x="1154.574219" xlink:href="#DejaVuSans-111"/>
      <use x="1215.755859" xlink:href="#DejaVuSans-110"/>
      <use x="1279.134766" xlink:href="#DejaVuSans-115"/>
      <use x="1331.234375" xlink:href="#DejaVuSans-32"/>
      <use x="1363.021484" xlink:href="#DejaVuSans-47"/>
      <use x="1396.712891" xlink:href="#DejaVuSans-32"/>
      <use x="1428.5" xlink:href="#DejaVuSans-115"/>
      <use x="1480.599609" xlink:href="#DejaVuSans-105"/>
      <use x="1508.382812" xlink:href="#DejaVuSans-122"/>
      <use x="1560.873047" xlink:href="#DejaVuSans-101"/>
     </g>
    </g>
   </g>
   <g id="line2d_27">
    <path clip-path="url(#pe07d4745fc)" d="M 134.701506 930.379784 
L 134.800594 884.558403 
L 134.998772 841.270924 
L 135.395127 792.387746 
L 136.187838 744.903493 
L 137.773258 701.352065 
L 140.9441 656.461101 
L 147.285783 612.711713 
L 159.96915 569.54301 
L 185.335883 527.200794 
L 236.069348 484.84167 
L 337.53628 442.439035 
L 540.470143 400.540995 
L 946.337869 358.599186 
" style="fill:none;stroke:#fe0002;stroke-linecap:square;stroke-width:1.5;"/>
    <defs>
     <path d="M 0 4.5 
C 1.193414 4.5 2.338109 4.025852 3.181981 3.181981 
C 4.025852 2.338109 4.5 1.193414 4.5 0 
C 4.5 -1.193414 4.025852 -2.338109 3.181981 -3.181981 
C 2.338109 -4.025852 1.193414 -4.5 0 -4.5 
C -1.193414 -4.5 -2.338109 -4.025852 -3.181981 -3.181981 
C -4.025852 -2.338109 -4.5 -1.193414 -4.5 0 
C -4.5 1.193414 -4.025852 2.338109 -3.181981 3.181981 
C -2.338109 4.025852 -1.193414 4.5 0 4.5 
z
" id="m1351340bbd" style="stroke:#000000;"/>
    </defs>
    <g clip-path="url(#pe07d4745fc)">
     <use style="fill:#fe0002;stroke:#000000;" x="134.701506" xlink:href="#m1351340bbd" y="930.379784"/>
     <use style="fill:#fe0002;stroke:#000000;" x="134.800594" xlink:href="#m1351340bbd" y="884.558403"/>
     <use style="fill:#fe0002;stroke:#000000;" x="134.998772" xlink:href="#m1351340bbd" y="841.270924"/>
     <use style="fill:#fe0002;stroke:#000000;" x="135.395127" xlink:href="#m1351340bbd" y="792.387746"/>
     <use style="fill:#fe0002;stroke:#000000;" x="136.187838" xlink:href="#m1351340bbd" y="744.903493"/>
     <use style="fill:#fe0002;stroke:#000000;" x="137.773258" xlink:href="#m1351340bbd" y="701.352065"/>
     <use style="fill:#fe0002;stroke:#000000;" x="140.9441" xlink:href="#m1351340bbd" y="656.461101"/>
     <use style="fill:#fe0002;stroke:#000000;" x="147.285783" xlink:href="#m1351340bbd" y="612.711713"/>
     <use style="fill:#fe0002;stroke:#000000;" x="159.96915" xlink:href="#m1351340bbd" y="569.54301"/>
     <use style="fill:#fe0002;stroke:#000000;" x="185.335883" xlink:href="#m1351340bbd" y="527.200794"/>
     <use style="fill:#fe0002;stroke:#000000;" x="236.069348" xlink:href="#m1351340bbd" y="484.84167"/>
     <use style="fill:#fe0002;stroke:#000000;" x="337.53628" xlink:href="#m1351340bbd" y="442.439035"/>
     <use style="fill:#fe0002;stroke:#000000;" x="540.470143" xlink:href="#m1351340bbd" y="400.540995"/>
     <use style="fill:#fe0002;stroke:#000000;" x="946.337869" xlink:href="#m1351340bbd" y="358.599186"/>
    </g>
   </g>
   <g id="line2d_28">
    <path clip-path="url(#pe07d4745fc)" d="M 134.701506 930.379784 
L 134.800594 884.558403 
L 134.998772 841.270924 
L 135.395127 792.387746 
L 136.187838 744.903493 
L 137.773258 701.352065 
L 140.9441 656.461101 
L 147.285783 612.711713 
L 159.96915 569.54301 
L 185.335883 527.200794 
L 236.069348 484.84167 
L 337.53628 442.439035 
L 540.470143 400.540995 
L 946.337869 358.599186 
" style="fill:none;stroke:#fe0002;stroke-dasharray:5.55,2.4;stroke-dashoffset:0;stroke-width:1.5;"/>
    <g clip-path="url(#pe07d4745fc)">
     <use style="fill:#fe0002;stroke:#000000;" x="134.701506" xlink:href="#m1351340bbd" y="930.379784"/>
     <use style="fill:#fe0002;stroke:#000000;" x="134.800594" xlink:href="#m1351340bbd" y="884.558403"/>
     <use style="fill:#fe0002;stroke:#000000;" x="134.998772" xlink:href="#m1351340bbd" y="841.270924"/>
     <use style="fill:#fe0002;stroke:#000000;" x="135.395127" xlink:href="#m1351340bbd" y="792.387746"/>
     <use style="fill:#fe0002;stroke:#000000;" x="136.187838" xlink:href="#m1351340bbd" y="744.903493"/>
     <use style="fill:#fe0002;stroke:#000000;" x="137.773258" xlink:href="#m1351340bbd" y="701.352065"/>
     <use style="fill:#fe0002;stroke:#000000;" x="140.9441" xlink:href="#m1351340bbd" y="656.461101"/>
     <use style="fill:#fe0002;stroke:#000000;" x="147.285783" xlink:href="#m1351340bbd" y="612.711713"/>
     <use style="fill:#fe0002;stroke:#000000;" x="159.96915" xlink:href="#m1351340bbd" y="569.54301"/>
     <use style="fill:#fe0002;stroke:#000000;" x="185.335883" xlink:href="#m1351340bbd" y="527.200794"/>
     <use style="fill:#fe0002;stroke:#000000;" x="236.069348" xlink:href="#m1351340bbd" y="484.84167"/>
     <use style="fill:#fe0002;stroke:#000000;" x="337.53628" xlink:href="#m1351340bbd" y="442.439035"/>
     <use style="fill:#fe0002;stroke:#000000;" x="540.470143" xlink:href="#m1351340bbd" y="400.540995"/>
     <use style="fill:#fe0002;stroke:#000000;" x="946.337869" xlink:href="#m1351340bbd" y="358.599186"/>
    </g>
   </g>
   <g id="line2d_29">
    <path clip-path="url(#pe07d4745fc)" d="M 134.701506 930.802101 
L 134.800594 887.514621 
L 134.998772 836.731018 
L 135.395127 785.736255 
L 136.187838 727.509316 
L 137.773258 676.250606 
L 140.9441 618.307411 
L 147.285783 559.479991 
L 159.96915 502.698167 
L 185.335883 444.293064 
L 236.069348 386.265736 
L 337.53628 327.991369 
L 540.470143 268.916909 
L 946.337869 210.014789 
" style="fill:none;stroke:#53fca1;stroke-linecap:square;stroke-width:1.5;"/>
    <defs>
     <path d="M 0 -4.5 
L -4.5 4.5 
L 4.5 4.5 
z
" id="m2ede362ce6" style="stroke:#000000;stroke-linejoin:miter;"/>
    </defs>
    <g clip-path="url(#pe07d4745fc)">
     <use style="fill:#53fca1;stroke:#000000;stroke-linejoin:miter;" x="134.701506" xlink:href="#m2ede362ce6" y="930.802101"/>
     <use style="fill:#53fca1;stroke:#000000;stroke-linejoin:miter;" x="134.800594" xlink:href="#m2ede362ce6" y="887.514621"/>
     <use style="fill:#53fca1;stroke:#000000;stroke-linejoin:miter;" x="134.998772" xlink:href="#m2ede362ce6" y="836.731018"/>
     <use style="fill:#53fca1;stroke:#000000;stroke-linejoin:miter;" x="135.395127" xlink:href="#m2ede362ce6" y="785.736255"/>
     <use style="fill:#53fca1;stroke:#000000;stroke-linejoin:miter;" x="136.187838" xlink:href="#m2ede362ce6" y="727.509316"/>
     <use style="fill:#53fca1;stroke:#000000;stroke-linejoin:miter;" x="137.773258" xlink:href="#m2ede362ce6" y="676.250606"/>
     <use style="fill:#53fca1;stroke:#000000;stroke-linejoin:miter;" x="140.9441" xlink:href="#m2ede362ce6" y="618.307411"/>
     <use style="fill:#53fca1;stroke:#000000;stroke-linejoin:miter;" x="147.285783" xlink:href="#m2ede362ce6" y="559.479991"/>
     <use style="fill:#53fca1;stroke:#000000;stroke-linejoin:miter;" x="159.96915" xlink:href="#m2ede362ce6" y="502.698167"/>
     <use style="fill:#53fca1;stroke:#000000;stroke-linejoin:miter;" x="185.335883" xlink:href="#m2ede362ce6" y="444.293064"/>
     <use style="fill:#53fca1;stroke:#000000;stroke-linejoin:miter;" x="236.069348" xlink:href="#m2ede362ce6" y="386.265736"/>
     <use style="fill:#53fca1;stroke:#000000;stroke-linejoin:miter;" x="337.53628" xlink:href="#m2ede362ce6" y="327.991369"/>
     <use style="fill:#53fca1;stroke:#000000;stroke-linejoin:miter;" x="540.470143" xlink:href="#m2ede362ce6" y="268.916909"/>
     <use style="fill:#53fca1;stroke:#000000;stroke-linejoin:miter;" x="946.337869" xlink:href="#m2ede362ce6" y="210.014789"/>
    </g>
   </g>
   <g id="line2d_30">
    <path clip-path="url(#pe07d4745fc)" d="M 134.701506 957.408064 
L 134.800594 928.690517 
L 134.998772 900.923182 
L 135.395127 871.097053 
L 136.187838 839.027366 
L 137.773258 810.283423 
L 140.9441 780.239537 
L 147.285783 749.48629 
L 159.96915 720.491598 
L 185.335883 690.841159 
L 236.069348 661.602314 
L 337.53628 632.36615 
L 540.470143 602.757366 
L 946.337869 573.196938 
" style="fill:none;stroke:#53fca1;stroke-dasharray:5.55,2.4;stroke-dashoffset:0;stroke-width:1.5;"/>
    <defs>
     <path d="M -0 6.363961 
L 6.363961 0 
L 0 -6.363961 
L -6.363961 -0 
z
" id="mef6c664eca" style="stroke:#000000;stroke-linejoin:miter;"/>
    </defs>
    <g clip-path="url(#pe07d4745fc)">
     <use style="fill:#53fca1;stroke:#000000;stroke-linejoin:miter;" x="134.701506" xlink:href="#mef6c664eca" y="957.408064"/>
     <use style="fill:#53fca1;stroke:#000000;stroke-linejoin:miter;" x="134.800594" xlink:href="#mef6c664eca" y="928.690517"/>
     <use style="fill:#53fca1;stroke:#000000;stroke-linejoin:miter;" x="134.998772" xlink:href="#mef6c664eca" y="900.923182"/>
     <use style="fill:#53fca1;stroke:#000000;stroke-linejoin:miter;" x="135.395127" xlink:href="#mef6c664eca" y="871.097053"/>
     <use style="fill:#53fca1;stroke:#000000;stroke-linejoin:miter;" x="136.187838" xlink:href="#mef6c664eca" y="839.027366"/>
     <use style="fill:#53fca1;stroke:#000000;stroke-linejoin:miter;" x="137.773258" xlink:href="#mef6c664eca" y="810.283423"/>
     <use style="fill:#53fca1;stroke:#000000;stroke-linejoin:miter;" x="140.9441" xlink:href="#mef6c664eca" y="780.239537"/>
     <use style="fill:#53fca1;stroke:#000000;stroke-linejoin:miter;" x="147.285783" xlink:href="#mef6c664eca" y="749.48629"/>
     <use style="fill:#53fca1;stroke:#000000;stroke-linejoin:miter;" x="159.96915" xlink:href="#mef6c664eca" y="720.491598"/>
     <use style="fill:#53fca1;stroke:#000000;stroke-linejoin:miter;" x="185.335883" xlink:href="#mef6c664eca" y="690.841159"/>
     <use style="fill:#53fca1;stroke:#000000;stroke-linejoin:miter;" x="236.069348" xlink:href="#mef6c664eca" y="661.602314"/>
     <use style="fill:#53fca1;stroke:#000000;stroke-linejoin:miter;" x="337.53628" xlink:href="#mef6c664eca" y="632.36615"/>
     <use style="fill:#53fca1;stroke:#000000;stroke-linejoin:miter;" x="540.470143" xlink:href="#mef6c664eca" y="602.757366"/>
     <use style="fill:#53fca1;stroke:#000000;stroke-linejoin:miter;" x="946.337869" xlink:href="#mef6c664eca" y="573.196938"/>
    </g>
   </g>
   <g id="line2d_31">
    <path clip-path="url(#pe07d4745fc)" d="M 134.701506 929.112833 
L 134.800594 887.303463 
L 134.998772 829.023735 
L 135.395127 772.169326 
L 136.187838 713.757623 
L 137.773258 646.820399 
L 140.9441 574.670201 
L 147.285783 499.864025 
L 159.96915 430.074512 
L 185.335883 353.791053 
L 236.069348 280.365656 
L 337.53628 207.62941 
L 540.470143 134.71799 
L 946.337869 61.954834 
" style="fill:none;stroke:#0652ff;stroke-linecap:square;stroke-width:1.5;"/>
    <defs>
     <path d="M 0 -4.5 
L -4.279754 -1.390576 
L -2.645034 3.640576 
L 2.645034 3.640576 
L 4.279754 -1.390576 
z
" id="m4ef76ed219" style="stroke:#000000;stroke-linejoin:miter;"/>
    </defs>
    <g clip-path="url(#pe07d4745fc)">
     <use style="fill:#0652ff;stroke:#000000;stroke-linejoin:miter;" x="134.701506" xlink:href="#m4ef76ed219" y="929.112833"/>
     <use style="fill:#0652ff;stroke:#000000;stroke-linejoin:miter;" x="134.800594" xlink:href="#m4ef76ed219" y="887.303463"/>
     <use style="fill:#0652ff;stroke:#000000;stroke-linejoin:miter;" x="134.998772" xlink:href="#m4ef76ed219" y="829.023735"/>
     <use style="fill:#0652ff;stroke:#000000;stroke-linejoin:miter;" x="135.395127" xlink:href="#m4ef76ed219" y="772.169326"/>
     <use style="fill:#0652ff;stroke:#000000;stroke-linejoin:miter;" x="136.187838" xlink:href="#m4ef76ed219" y="713.757623"/>
     <use style="fill:#0652ff;stroke:#000000;stroke-linejoin:miter;" x="137.773258" xlink:href="#m4ef76ed219" y="646.820399"/>
     <use style="fill:#0652ff;stroke:#000000;stroke-linejoin:miter;" x="140.9441" xlink:href="#m4ef76ed219" y="574.670201"/>
     <use style="fill:#0652ff;stroke:#000000;stroke-linejoin:miter;" x="147.285783" xlink:href="#m4ef76ed219" y="499.864025"/>
     <use style="fill:#0652ff;stroke:#000000;stroke-linejoin:miter;" x="159.96915" xlink:href="#m4ef76ed219" y="430.074512"/>
     <use style="fill:#0652ff;stroke:#000000;stroke-linejoin:miter;" x="185.335883" xlink:href="#m4ef76ed219" y="353.791053"/>
     <use style="fill:#0652ff;stroke:#000000;stroke-linejoin:miter;" x="236.069348" xlink:href="#m4ef76ed219" y="280.365656"/>
     <use style="fill:#0652ff;stroke:#000000;stroke-linejoin:miter;" x="337.53628" xlink:href="#m4ef76ed219" y="207.62941"/>
     <use style="fill:#0652ff;stroke:#000000;stroke-linejoin:miter;" x="540.470143" xlink:href="#m4ef76ed219" y="134.71799"/>
     <use style="fill:#0652ff;stroke:#000000;stroke-linejoin:miter;" x="946.337869" xlink:href="#m4ef76ed219" y="61.954834"/>
    </g>
   </g>
   <g id="line2d_32">
    <path clip-path="url(#pe07d4745fc)" d="M 134.701506 956.141113 
L 134.800594 929.112833 
L 134.998772 890.36526 
L 135.395127 853.570903 
L 136.187838 817.198862 
L 137.773258 775.481874 
L 140.9441 731.930446 
L 147.285783 686.864617 
L 159.96915 645.317545 
L 185.335883 600.12469 
L 236.069348 556.68709 
L 337.53628 513.608914 
L 540.470143 470.425467 
L 946.337869 427.409565 
" style="fill:none;stroke:#0652ff;stroke-dasharray:5.55,2.4;stroke-dashoffset:0;stroke-width:1.5;"/>
    <defs>
     <path d="M -2.25 4.5 
L 0 2.25 
L 2.25 4.5 
L 4.5 2.25 
L 2.25 0 
L 4.5 -2.25 
L 2.25 -4.5 
L 0 -2.25 
L -2.25 -4.5 
L -4.5 -2.25 
L -2.25 0 
L -4.5 2.25 
z
" id="m871af77189" style="stroke:#000000;stroke-linejoin:miter;"/>
    </defs>
    <g clip-path="url(#pe07d4745fc)">
     <use style="fill:#0652ff;stroke:#000000;stroke-linejoin:miter;" x="134.701506" xlink:href="#m871af77189" y="956.141113"/>
     <use style="fill:#0652ff;stroke:#000000;stroke-linejoin:miter;" x="134.800594" xlink:href="#m871af77189" y="929.112833"/>
     <use style="fill:#0652ff;stroke:#000000;stroke-linejoin:miter;" x="134.998772" xlink:href="#m871af77189" y="890.36526"/>
     <use style="fill:#0652ff;stroke:#000000;stroke-linejoin:miter;" x="135.395127" xlink:href="#m871af77189" y="853.570903"/>
     <use style="fill:#0652ff;stroke:#000000;stroke-linejoin:miter;" x="136.187838" xlink:href="#m871af77189" y="817.198862"/>
     <use style="fill:#0652ff;stroke:#000000;stroke-linejoin:miter;" x="137.773258" xlink:href="#m871af77189" y="775.481874"/>
     <use style="fill:#0652ff;stroke:#000000;stroke-linejoin:miter;" x="140.9441" xlink:href="#m871af77189" y="731.930446"/>
     <use style="fill:#0652ff;stroke:#000000;stroke-linejoin:miter;" x="147.285783" xlink:href="#m871af77189" y="686.864617"/>
     <use style="fill:#0652ff;stroke:#000000;stroke-linejoin:miter;" x="159.96915" xlink:href="#m871af77189" y="645.317545"/>
     <use style="fill:#0652ff;stroke:#000000;stroke-linejoin:miter;" x="185.335883" xlink:href="#m871af77189" y="600.12469"/>
     <use style="fill:#0652ff;stroke:#000000;stroke-linejoin:miter;" x="236.069348" xlink:href="#m871af77189" y="556.68709"/>
     <use style="fill:#0652ff;stroke:#000000;stroke-linejoin:miter;" x="337.53628" xlink:href="#m871af77189" y="513.608914"/>
     <use style="fill:#0652ff;stroke:#000000;stroke-linejoin:miter;" x="540.470143" xlink:href="#m871af77189" y="470.425467"/>
     <use style="fill:#0652ff;stroke:#000000;stroke-linejoin:miter;" x="946.337869" xlink:href="#m871af77189" y="427.409565"/>
    </g>
   </g>
   <g id="patch_3">
    <path d="M 94.119688 1014.170619 
L 94.119688 16.250619 
" style="fill:none;stroke:#000000;stroke-linecap:square;stroke-linejoin:miter;stroke-width:0.8;"/>
   </g>
   <g id="patch_4">
    <path d="M 986.919688 1014.170619 
L 986.919688 16.250619 
" style="fill:none;stroke:#000000;stroke-linecap:square;stroke-linejoin:miter;stroke-width:0.8;"/>
   </g>
   <g id="patch_5">
    <path d="M 94.119688 1014.170619 
L 986.919688 1014.170619 
" style="fill:none;stroke:#000000;stroke-linecap:square;stroke-linejoin:miter;stroke-width:0.8;"/>
   </g>
   <g id="patch_6">
    <path d="M 94.119688 16.250619 
L 986.919688 16.250619 
" style="fill:none;stroke:#000000;stroke-linecap:square;stroke-linejoin:miter;stroke-width:0.8;"/>
   </g>
   <g id="legend_1">
    <g id="patch_7">
     <path d="M 553.836875 999.170619 
L 965.919688 999.170619 
Q 971.919688 999.170619 971.919688 993.170619 
L 971.919688 731.964369 
Q 971.919688 725.964369 965.919688 725.964369 
L 553.836875 725.964369 
Q 547.836875 725.964369 547.836875 731.964369 
L 547.836875 993.170619 
Q 547.836875 999.170619 553.836875 999.170619 
z
" style="fill:#ffffff;opacity:0.8;stroke:#cccccc;stroke-linejoin:miter;"/>
    </g>
    <g id="line2d_33">
     <path d="M 559.836875 750.259682 
L 619.836875 750.259682 
" style="fill:none;stroke:#fe0002;stroke-linecap:square;stroke-width:1.5;"/>
    </g>
    <g id="line2d_34">
     <g>
      <use style="fill:#fe0002;stroke:#000000;" x="589.836875" xlink:href="#m1351340bbd" y="750.259682"/>
     </g>
    </g>
    <g id="text_16">
     <!-- Pairing comparisons -->
     <g transform="translate(643.836875 760.759682)scale(0.3 -0.3)">
      <defs>
       <path d="M 19.671875 64.796875 
L 19.671875 37.40625 
L 32.078125 37.40625 
Q 38.96875 37.40625 42.71875 40.96875 
Q 46.484375 44.53125 46.484375 51.125 
Q 46.484375 57.671875 42.71875 61.234375 
Q 38.96875 64.796875 32.078125 64.796875 
z
M 9.8125 72.90625 
L 32.078125 72.90625 
Q 44.34375 72.90625 50.609375 67.359375 
Q 56.890625 61.8125 56.890625 51.125 
Q 56.890625 40.328125 50.609375 34.8125 
Q 44.34375 29.296875 32.078125 29.296875 
L 19.671875 29.296875 
L 19.671875 0 
L 9.8125 0 
z
" id="DejaVuSans-80"/>
       <path d="M 48.78125 52.59375 
L 48.78125 44.1875 
Q 44.96875 46.296875 41.140625 47.34375 
Q 37.3125 48.390625 33.40625 48.390625 
Q 24.65625 48.390625 19.8125 42.84375 
Q 14.984375 37.3125 14.984375 27.296875 
Q 14.984375 17.28125 19.8125 11.734375 
Q 24.65625 6.203125 33.40625 6.203125 
Q 37.3125 6.203125 41.140625 7.25 
Q 44.96875 8.296875 48.78125 10.40625 
L 48.78125 2.09375 
Q 45.015625 0.34375 40.984375 -0.53125 
Q 36.96875 -1.421875 32.421875 -1.421875 
Q 20.0625 -1.421875 12.78125 6.34375 
Q 5.515625 14.109375 5.515625 27.296875 
Q 5.515625 40.671875 12.859375 48.328125 
Q 20.21875 56 33.015625 56 
Q 37.15625 56 41.109375 55.140625 
Q 45.0625 54.296875 48.78125 52.59375 
z
" id="DejaVuSans-99"/>
      </defs>
      <use xlink:href="#DejaVuSans-80"/>
      <use x="55.802734" xlink:href="#DejaVuSans-97"/>
      <use x="117.082031" xlink:href="#DejaVuSans-105"/>
      <use x="144.865234" xlink:href="#DejaVuSans-114"/>
      <use x="185.978516" xlink:href="#DejaVuSans-105"/>
      <use x="213.761719" xlink:href="#DejaVuSans-110"/>
      <use x="277.140625" xlink:href="#DejaVuSans-103"/>
      <use x="340.617188" xlink:href="#DejaVuSans-32"/>
      <use x="372.404297" xlink:href="#DejaVuSans-99"/>
      <use x="427.384766" xlink:href="#DejaVuSans-111"/>
      <use x="488.566406" xlink:href="#DejaVuSans-109"/>
      <use x="585.978516" xlink:href="#DejaVuSans-112"/>
      <use x="649.455078" xlink:href="#DejaVuSans-97"/>
      <use x="710.734375" xlink:href="#DejaVuSans-114"/>
      <use x="751.847656" xlink:href="#DejaVuSans-105"/>
      <use x="779.630859" xlink:href="#DejaVuSans-115"/>
      <use x="831.730469" xlink:href="#DejaVuSans-111"/>
      <use x="892.912109" xlink:href="#DejaVuSans-110"/>
      <use x="956.291016" xlink:href="#DejaVuSans-115"/>
     </g>
    </g>
    <g id="line2d_35">
     <path d="M 559.836875 794.294057 
L 619.836875 794.294057 
" style="fill:none;stroke:#fe0002;stroke-dasharray:5.55,2.4;stroke-dashoffset:0;stroke-width:1.5;"/>
    </g>
    <g id="line2d_36">
     <g>
      <use style="fill:#fe0002;stroke:#000000;" x="589.836875" xlink:href="#m1351340bbd" y="794.294057"/>
     </g>
    </g>
    <g id="text_17">
     <!-- Pairing links -->
     <g transform="translate(643.836875 804.794057)scale(0.3 -0.3)">
      <defs>
       <path d="M 9.421875 75.984375 
L 18.40625 75.984375 
L 18.40625 0 
L 9.421875 0 
z
" id="DejaVuSans-108"/>
       <path d="M 9.078125 75.984375 
L 18.109375 75.984375 
L 18.109375 31.109375 
L 44.921875 54.6875 
L 56.390625 54.6875 
L 27.390625 29.109375 
L 57.625 0 
L 45.90625 0 
L 18.109375 26.703125 
L 18.109375 0 
L 9.078125 0 
z
" id="DejaVuSans-107"/>
      </defs>
      <use xlink:href="#DejaVuSans-80"/>
      <use x="55.802734" xlink:href="#DejaVuSans-97"/>
      <use x="117.082031" xlink:href="#DejaVuSans-105"/>
      <use x="144.865234" xlink:href="#DejaVuSans-114"/>
      <use x="185.978516" xlink:href="#DejaVuSans-105"/>
      <use x="213.761719" xlink:href="#DejaVuSans-110"/>
      <use x="277.140625" xlink:href="#DejaVuSans-103"/>
      <use x="340.617188" xlink:href="#DejaVuSans-32"/>
      <use x="372.404297" xlink:href="#DejaVuSans-108"/>
      <use x="400.1875" xlink:href="#DejaVuSans-105"/>
      <use x="427.970703" xlink:href="#DejaVuSans-110"/>
      <use x="491.349609" xlink:href="#DejaVuSans-107"/>
      <use x="549.259766" xlink:href="#DejaVuSans-115"/>
     </g>
    </g>
    <g id="line2d_37">
     <path d="M 559.836875 838.328432 
L 619.836875 838.328432 
" style="fill:none;stroke:#53fca1;stroke-linecap:square;stroke-width:1.5;"/>
    </g>
    <g id="line2d_38">
     <g>
      <use style="fill:#53fca1;stroke:#000000;stroke-linejoin:miter;" x="589.836875" xlink:href="#m2ede362ce6" y="838.328432"/>
     </g>
    </g>
    <g id="text_18">
     <!-- Smooth comparisons -->
     <g transform="translate(643.836875 848.828432)scale(0.3 -0.3)">
      <defs>
       <path d="M 53.515625 70.515625 
L 53.515625 60.890625 
Q 47.90625 63.578125 42.921875 64.890625 
Q 37.9375 66.21875 33.296875 66.21875 
Q 25.25 66.21875 20.875 63.09375 
Q 16.5 59.96875 16.5 54.203125 
Q 16.5 49.359375 19.40625 46.890625 
Q 22.3125 44.4375 30.421875 42.921875 
L 36.375 41.703125 
Q 47.40625 39.59375 52.65625 34.296875 
Q 57.90625 29 57.90625 20.125 
Q 57.90625 9.515625 50.796875 4.046875 
Q 43.703125 -1.421875 29.984375 -1.421875 
Q 24.8125 -1.421875 18.96875 -0.25 
Q 13.140625 0.921875 6.890625 3.21875 
L 6.890625 13.375 
Q 12.890625 10.015625 18.65625 8.296875 
Q 24.421875 6.59375 29.984375 6.59375 
Q 38.421875 6.59375 43.015625 9.90625 
Q 47.609375 13.234375 47.609375 19.390625 
Q 47.609375 24.75 44.3125 27.78125 
Q 41.015625 30.8125 33.5 32.328125 
L 27.484375 33.5 
Q 16.453125 35.6875 11.515625 40.375 
Q 6.59375 45.0625 6.59375 53.421875 
Q 6.59375 63.09375 13.40625 68.65625 
Q 20.21875 74.21875 32.171875 74.21875 
Q 37.3125 74.21875 42.625 73.28125 
Q 47.953125 72.359375 53.515625 70.515625 
z
" id="DejaVuSans-83"/>
       <path d="M 54.890625 33.015625 
L 54.890625 0 
L 45.90625 0 
L 45.90625 32.71875 
Q 45.90625 40.484375 42.875 44.328125 
Q 39.84375 48.1875 33.796875 48.1875 
Q 26.515625 48.1875 22.3125 43.546875 
Q 18.109375 38.921875 18.109375 30.90625 
L 18.109375 0 
L 9.078125 0 
L 9.078125 75.984375 
L 18.109375 75.984375 
L 18.109375 46.1875 
Q 21.34375 51.125 25.703125 53.5625 
Q 30.078125 56 35.796875 56 
Q 45.21875 56 50.046875 50.171875 
Q 54.890625 44.34375 54.890625 33.015625 
z
" id="DejaVuSans-104"/>
      </defs>
      <use xlink:href="#DejaVuSans-83"/>
      <use x="63.476562" xlink:href="#DejaVuSans-109"/>
      <use x="160.888672" xlink:href="#DejaVuSans-111"/>
      <use x="222.070312" xlink:href="#DejaVuSans-111"/>
      <use x="283.251953" xlink:href="#DejaVuSans-116"/>
      <use x="322.460938" xlink:href="#DejaVuSans-104"/>
      <use x="385.839844" xlink:href="#DejaVuSans-32"/>
      <use x="417.626953" xlink:href="#DejaVuSans-99"/>
      <use x="472.607422" xlink:href="#DejaVuSans-111"/>
      <use x="533.789062" xlink:href="#DejaVuSans-109"/>
      <use x="631.201172" xlink:href="#DejaVuSans-112"/>
      <use x="694.677734" xlink:href="#DejaVuSans-97"/>
      <use x="755.957031" xlink:href="#DejaVuSans-114"/>
      <use x="797.070312" xlink:href="#DejaVuSans-105"/>
      <use x="824.853516" xlink:href="#DejaVuSans-115"/>
      <use x="876.953125" xlink:href="#DejaVuSans-111"/>
      <use x="938.134766" xlink:href="#DejaVuSans-110"/>
      <use x="1001.513672" xlink:href="#DejaVuSans-115"/>
     </g>
    </g>
    <g id="line2d_39">
     <path d="M 559.836875 882.362807 
L 619.836875 882.362807 
" style="fill:none;stroke:#53fca1;stroke-dasharray:5.55,2.4;stroke-dashoffset:0;stroke-width:1.5;"/>
    </g>
    <g id="line2d_40">
     <g>
      <use style="fill:#53fca1;stroke:#000000;stroke-linejoin:miter;" x="589.836875" xlink:href="#mef6c664eca" y="882.362807"/>
     </g>
    </g>
    <g id="text_19">
     <!-- Smooth links -->
     <g transform="translate(643.836875 892.862807)scale(0.3 -0.3)">
      <use xlink:href="#DejaVuSans-83"/>
      <use x="63.476562" xlink:href="#DejaVuSans-109"/>
      <use x="160.888672" xlink:href="#DejaVuSans-111"/>
      <use x="222.070312" xlink:href="#DejaVuSans-111"/>
      <use x="283.251953" xlink:href="#DejaVuSans-116"/>
      <use x="322.460938" xlink:href="#DejaVuSans-104"/>
      <use x="385.839844" xlink:href="#DejaVuSans-32"/>
      <use x="417.626953" xlink:href="#DejaVuSans-108"/>
      <use x="445.410156" xlink:href="#DejaVuSans-105"/>
      <use x="473.193359" xlink:href="#DejaVuSans-110"/>
      <use x="536.572266" xlink:href="#DejaVuSans-107"/>
      <use x="594.482422" xlink:href="#DejaVuSans-115"/>
     </g>
    </g>
    <g id="line2d_41">
     <path d="M 559.836875 926.397182 
L 619.836875 926.397182 
" style="fill:none;stroke:#0652ff;stroke-linecap:square;stroke-width:1.5;"/>
    </g>
    <g id="line2d_42">
     <g>
      <use style="fill:#0652ff;stroke:#000000;stroke-linejoin:miter;" x="589.836875" xlink:href="#m4ef76ed219" y="926.397182"/>
     </g>
    </g>
    <g id="text_20">
     <!-- Slim comparisons -->
     <g transform="translate(643.836875 936.897182)scale(0.3 -0.3)">
      <use xlink:href="#DejaVuSans-83"/>
      <use x="63.476562" xlink:href="#DejaVuSans-108"/>
      <use x="91.259766" xlink:href="#DejaVuSans-105"/>
      <use x="119.042969" xlink:href="#DejaVuSans-109"/>
      <use x="216.455078" xlink:href="#DejaVuSans-32"/>
      <use x="248.242188" xlink:href="#DejaVuSans-99"/>
      <use x="303.222656" xlink:href="#DejaVuSans-111"/>
      <use x="364.404297" xlink:href="#DejaVuSans-109"/>
      <use x="461.816406" xlink:href="#DejaVuSans-112"/>
      <use x="525.292969" xlink:href="#DejaVuSans-97"/>
      <use x="586.572266" xlink:href="#DejaVuSans-114"/>
      <use x="627.685547" xlink:href="#DejaVuSans-105"/>
      <use x="655.46875" xlink:href="#DejaVuSans-115"/>
      <use x="707.568359" xlink:href="#DejaVuSans-111"/>
      <use x="768.75" xlink:href="#DejaVuSans-110"/>
      <use x="832.128906" xlink:href="#DejaVuSans-115"/>
     </g>
    </g>
    <g id="line2d_43">
     <path d="M 559.836875 970.431557 
L 619.836875 970.431557 
" style="fill:none;stroke:#0652ff;stroke-dasharray:5.55,2.4;stroke-dashoffset:0;stroke-width:1.5;"/>
    </g>
    <g id="line2d_44">
     <g>
      <use style="fill:#0652ff;stroke:#000000;stroke-linejoin:miter;" x="589.836875" xlink:href="#m871af77189" y="970.431557"/>
     </g>
    </g>
    <g id="text_21">
     <!-- Slim links -->
     <g transform="translate(643.836875 980.931557)scale(0.3 -0.3)">
      <use xlink:href="#DejaVuSans-83"/>
      <use x="63.476562" xlink:href="#DejaVuSans-108"/>
      <use x="91.259766" xlink:href="#DejaVuSans-105"/>
      <use x="119.042969" xlink:href="#DejaVuSans-109"/>
      <use x="216.455078" xlink:href="#DejaVuSans-32"/>
      <use x="248.242188" xlink:href="#DejaVuSans-108"/>
      <use x="276.025391" xlink:href="#DejaVuSans-105"/>
      <use x="303.808594" xlink:href="#DejaVuSans-110"/>
      <use x="367.1875" xlink:href="#DejaVuSans-107"/>
      <use x="425.097656" xlink:href="#DejaVuSans-115"/>
     </g>
    </g>
   </g>
  </g>
 </g>
 <defs>
  <clipPath id="pe07d4745fc">
   <rect height="997.92" width="892.8" x="94.119688" y="16.250619"/>
  </clipPath>
 </defs>
</svg>
