<?xml version="1.0" encoding="utf-8" standalone="no"?>
<!DOCTYPE svg PUBLIC "-//W3C//DTD SVG 1.1//EN"
  "http://www.w3.org/Graphics/SVG/1.1/DTD/svg11.dtd">
<svg height="1090.099062pt" version="1.1" viewBox="0 0 1014.923768 1090.099062" width="1014.923768pt" xmlns="http://www.w3.org/2000/svg" xmlns:xlink="http://www.w3.org/1999/xlink">
 <metadata>
  <rdf:RDF xmlns:cc="http://creativecommons.org/ns#" xmlns:dc="http://purl.org/dc/elements/1.1/" xmlns:rdf="http://www.w3.org/1999/02/22-rdf-syntax-ns#">
   <cc:Work>
    <dc:type rdf:resource="http://purl.org/dc/dcmitype/StillImage"/>
    <dc:date>2021-07-04T14:44:34.946271</dc:date>
    <dc:format>image/svg+xml</dc:format>
    <dc:creator>
     <cc:Agent>
      <dc:title>Matplotlib v3.4.2, https://matplotlib.org/</dc:title>
     </cc:Agent>
    </dc:creator>
   </cc:Work>
  </rdf:RDF>
 </metadata>
 <defs>
  <style type="text/css">*{stroke-linecap:butt;stroke-linejoin:round;}</style>
 </defs>
 <g id="figure_1">
  <g id="patch_1">
   <path d="M 0 1090.099062 
L 1014.923768 1090.099062 
L 1014.923768 0 
L 0 0 
z
" style="fill:#ffffff;"/>
  </g>
  <g id="axes_1">
   <g id="patch_2">
    <path d="M 94.119688 1005.12 
L 986.919688 1005.12 
L 986.919688 7.2 
L 94.119688 7.2 
z
" style="fill:#ffffff;"/>
   </g>
   <g id="PolyCollection_1">
    <defs>
     <path d="M 134.701506 -268.60094 
L 134.701506 -268.60094 
L 162.688966 -648.737353 
L 190.676427 -717.467481 
L 218.663888 -758.882633 
L 246.651349 -787.896569 
L 274.63881 -810.306097 
L 302.626271 -825.979605 
L 330.613731 -841.521503 
L 358.601192 -853.127078 
L 386.588653 -864.0088 
L 414.576114 -872.449762 
L 442.563575 -881.59663 
L 470.551035 -887.548974 
L 498.538496 -894.984917 
L 526.525957 -900.315106 
L 554.513418 -905.489756 
L 582.500879 -910.616549 
L 610.48834 -915.803164 
L 638.4758 -919.548056 
L 666.463261 -924.004836 
L 694.450722 -926.571223 
L 722.438183 -929.735836 
L 750.425644 -933.211526 
L 778.413104 -935.532641 
L 806.400565 -937.417051 
L 834.388026 -941.592665 
L 862.375487 -943.710384 
L 890.362948 -945.098267 
L 918.350409 -948.55601 
L 946.337869 -949.315757 
L 946.337869 -952.629926 
L 946.337869 -952.629926 
L 918.350409 -950.883107 
L 890.362948 -948.765389 
L 862.375487 -946.306682 
L 834.388026 -944.60174 
L 806.400565 -942.005441 
L 778.413104 -940.234694 
L 750.425644 -936.262476 
L 722.438183 -933.426887 
L 694.450722 -931.087826 
L 666.463261 -927.594189 
L 638.4758 -923.998853 
L 610.48834 -919.948867 
L 582.500879 -913.978576 
L 554.513418 -909.767069 
L 526.525957 -903.994193 
L 498.538496 -897.77863 
L 470.551035 -893.148364 
L 442.563575 -884.970622 
L 414.576114 -876.996276 
L 386.588653 -868.232272 
L 358.601192 -856.883934 
L 330.613731 -844.225483 
L 302.626271 -830.18513 
L 274.63881 -812.346046 
L 246.651349 -789.523743 
L 218.663888 -762.400199 
L 190.676427 -721.026923 
L 162.688966 -652.769393 
L 134.701506 -268.60094 
z
" id="m006c8fff1b" style="stroke:#fe0002;stroke-opacity:0.3;"/>
    </defs>
    <g clip-path="url(#p67d2fe3e39)">
     <use style="fill:#fe0002;fill-opacity:0.3;stroke:#fe0002;stroke-opacity:0.3;" x="0" xlink:href="#m006c8fff1b" y="1090.099062"/>
    </g>
   </g>
   <g id="PolyCollection_2">
    <defs>
     <path d="M 134.701506 -130.339063 
L 134.701506 -130.339063 
L 162.688966 -447.105448 
L 190.676427 -497.362372 
L 218.663888 -526.980517 
L 246.651349 -547.7868 
L 274.63881 -563.244947 
L 302.626271 -574.545427 
L 330.613731 -586.605653 
L 358.601192 -594.340708 
L 386.588653 -602.590238 
L 414.576114 -607.705066 
L 442.563575 -615.105116 
L 470.551035 -619.795204 
L 498.538496 -623.264911 
L 526.525957 -627.781514 
L 554.513418 -631.293098 
L 582.500879 -635.534516 
L 610.48834 -638.220549 
L 638.4758 -642.366252 
L 666.463261 -645.148 
L 694.450722 -647.660547 
L 722.438183 -649.826124 
L 750.425644 -651.160167 
L 778.413104 -653.170204 
L 806.400565 -654.175223 
L 834.388026 -656.939025 
L 862.375487 -658.4645 
L 890.362948 -660.522396 
L 918.350409 -661.970101 
L 946.337869 -663.603257 
L 946.337869 -666.349112 
L 946.337869 -666.349112 
L 918.350409 -664.560418 
L 890.362948 -662.454664 
L 862.375487 -661.347947 
L 834.388026 -661.096692 
L 806.400565 -658.326908 
L 778.413104 -657.549215 
L 750.425644 -653.888075 
L 722.438183 -652.871092 
L 694.450722 -649.987645 
L 666.463261 -647.271701 
L 638.4758 -643.849851 
L 610.48834 -641.409091 
L 582.500879 -639.47084 
L 554.513418 -635.971221 
L 526.525957 -630.479511 
L 498.538496 -626.489347 
L 470.551035 -623.067497 
L 442.563575 -616.798094 
L 414.576114 -611.126916 
L 386.588653 -606.113786 
L 358.601192 -596.775486 
L 330.613731 -588.609708 
L 302.626271 -577.81772 
L 274.63881 -566.002766 
L 246.651349 -551.220614 
L 218.663888 -529.116182 
L 190.676427 -500.066352 
L 162.688966 -449.845321 
L 134.701506 -130.339063 
z
" id="m92bd9ea6b3" style="stroke:#53fca1;stroke-opacity:0.3;"/>
    </defs>
    <g clip-path="url(#p67d2fe3e39)">
     <use style="fill:#53fca1;fill-opacity:0.3;stroke:#53fca1;stroke-opacity:0.3;" x="0" xlink:href="#m92bd9ea6b3" y="1090.099062"/>
    </g>
   </g>
   <g id="PolyCollection_3">
    <defs>
     <path d="M 134.701506 -130.339063 
L 134.701506 -130.339063 
L 162.688966 -499.342499 
L 190.676427 -572.266187 
L 218.663888 -616.09817 
L 246.651349 -644.90871 
L 274.63881 -669.334257 
L 302.626271 -686.820389 
L 330.613731 -702.667382 
L 358.601192 -715.648876 
L 386.588653 -727.374095 
L 414.576114 -734.833967 
L 442.563575 -746.942052 
L 470.551035 -750.824535 
L 498.538496 -760.719185 
L 526.525957 -767.000553 
L 554.513418 -771.702605 
L 582.500879 -776.069651 
L 610.48834 -780.711881 
L 638.4758 -786.622349 
L 666.463261 -791.091094 
L 694.450722 -794.566784 
L 722.438183 -797.940776 
L 750.425644 -799.819204 
L 778.413104 -802.72658 
L 806.400565 -806.022802 
L 834.388026 -809.606173 
L 862.375487 -810.455653 
L 890.362948 -814.445817 
L 918.350409 -815.002167 
L 946.337869 -817.143814 
L 946.337869 -824.220822 
L 946.337869 -824.220822 
L 918.350409 -818.388123 
L 890.362948 -818.531697 
L 862.375487 -815.253422 
L 834.388026 -815.48673 
L 806.400565 -811.610228 
L 778.413104 -808.469545 
L 750.425644 -805.879228 
L 722.438183 -802.672739 
L 694.450722 -799.023564 
L 666.463261 -795.990561 
L 638.4758 -791.485923 
L 610.48834 -785.210537 
L 582.500879 -783.595328 
L 554.513418 -777.122528 
L 526.525957 -773.048613 
L 498.538496 -764.009425 
L 470.551035 -759.038171 
L 442.563575 -752.320099 
L 414.576114 -741.384537 
L 386.588653 -733.852878 
L 358.601192 -720.315035 
L 330.613731 -706.920766 
L 302.626271 -691.929235 
L 274.63881 -674.443103 
L 246.651349 -650.914894 
L 218.663888 -620.872009 
L 190.676427 -575.843576 
L 162.688966 -503.386503 
L 134.701506 -130.339063 
z
" id="m512415abde" style="stroke:#0652ff;stroke-opacity:0.3;"/>
    </defs>
    <g clip-path="url(#p67d2fe3e39)">
     <use style="fill:#0652ff;fill-opacity:0.3;stroke:#0652ff;stroke-opacity:0.3;" x="0" xlink:href="#m512415abde" y="1090.099062"/>
    </g>
   </g>
   <g id="PolyCollection_4">
    <defs>
     <path d="M 134.701506 -201.441155 
L 134.701506 -201.441155 
L 162.688966 -466.816978 
L 190.676427 -535.741529 
L 218.663888 -578.535591 
L 246.651349 -611.820858 
L 274.63881 -637.442856 
L 302.626271 -655.183233 
L 330.613731 -674.870834 
L 358.601192 -688.235192 
L 386.588653 -701.417091 
L 414.576114 -710.611817 
L 442.563575 -721.074781 
L 470.551035 -728.519697 
L 498.538496 -738.357516 
L 526.525957 -746.439542 
L 554.513418 -752.993103 
L 582.500879 -757.62935 
L 610.48834 -762.540782 
L 638.4758 -769.282783 
L 666.463261 -775.160349 
L 694.450722 -779.943161 
L 722.438183 -783.323136 
L 750.425644 -786.063008 
L 778.413104 -789.583565 
L 806.400565 -793.678419 
L 834.388026 -793.579712 
L 862.375487 -799.238925 
L 890.362948 -801.766428 
L 918.350409 -804.892156 
L 946.337869 -807.021839 
L 946.337869 -812.600292 
L 946.337869 -812.600292 
L 918.350409 -809.743765 
L 890.362948 -806.103563 
L 862.375487 -804.655857 
L 834.388026 -804.428531 
L 806.400565 -798.299711 
L 778.413104 -794.019408 
L 750.425644 -791.064174 
L 722.438183 -786.861639 
L 694.450722 -782.898395 
L 666.463261 -778.465544 
L 638.4758 -776.075634 
L 610.48834 -767.996598 
L 582.500879 -765.499007 
L 554.513418 -756.552544 
L 526.525957 -751.919288 
L 498.538496 -744.459416 
L 470.551035 -734.816021 
L 442.563575 -725.405934 
L 414.576114 -717.243147 
L 386.588653 -705.790119 
L 358.601192 -691.486548 
L 330.613731 -676.764218 
L 302.626271 -660.740748 
L 274.63881 -640.317329 
L 246.651349 -616.636573 
L 218.663888 -581.733106 
L 190.676427 -540.632023 
L 162.688966 -469.562833 
L 134.701506 -201.441155 
z
" id="m2bdf28a862" style="stroke:#ae7181;stroke-opacity:0.3;"/>
    </defs>
    <g clip-path="url(#p67d2fe3e39)">
     <use style="fill:#ae7181;fill-opacity:0.3;stroke:#ae7181;stroke-opacity:0.3;" x="0" xlink:href="#m2bdf28a862" y="1090.099062"/>
    </g>
   </g>
   <g id="PolyCollection_5">
    <defs>
     <path d="M 134.701506 -160.250338 
L 134.701506 -160.250338 
L 162.688966 -632.627141 
L 190.676427 -724.391941 
L 218.663888 -777.610082 
L 246.651349 -816.075982 
L 274.63881 -846.869639 
L 302.626271 -869.060814 
L 330.613731 -887.471204 
L 358.601192 -902.609301 
L 386.588653 -916.060401 
L 414.576114 -926.424658 
L 442.563575 -941.63155 
L 470.551035 -950.225059 
L 498.538496 -960.071851 
L 526.525957 -966.209645 
L 554.513418 -972.745258 
L 582.500879 -978.906981 
L 610.48834 -985.795548 
L 638.4758 -992.145711 
L 666.463261 -997.227637 
L 694.450722 -999.479956 
L 722.438183 -1005.010551 
L 750.425644 -1006.796254 
L 778.413104 -1010.89709 
L 806.400565 -1018.099725 
L 834.388026 -1019.840561 
L 862.375487 -1022.454806 
L 890.362948 -1023.005174 
L 918.350409 -1027.24061 
L 946.337869 -1030.091155 
L 946.337869 -1037.539062 
L 946.337869 -1037.539062 
L 918.350409 -1034.227884 
L 890.362948 -1029.60061 
L 862.375487 -1029.795033 
L 834.388026 -1027.539723 
L 806.400565 -1024.518684 
L 778.413104 -1018.694959 
L 750.425644 -1014.656937 
L 722.438183 -1009.222058 
L 694.450722 -1007.627787 
L 666.463261 -1004.79519 
L 638.4758 -996.710172 
L 610.48834 -991.113772 
L 582.500879 -986.064749 
L 554.513418 -980.507234 
L 526.525957 -972.314536 
L 498.538496 -963.978264 
L 470.551035 -957.323005 
L 442.563575 -947.790282 
L 414.576114 -936.023186 
L 386.588653 -924.659893 
L 358.601192 -910.996422 
L 330.613731 -892.810367 
L 302.626271 -873.047987 
L 274.63881 -853.219803 
L 246.651349 -822.1719 
L 218.663888 -783.41586 
L 190.676427 -729.629406 
L 162.688966 -637.296291 
L 134.701506 -160.250338 
z
" id="mcd377d0b57" style="stroke:#ff9408;stroke-opacity:0.3;"/>
    </defs>
    <g clip-path="url(#p67d2fe3e39)">
     <use style="fill:#ff9408;fill-opacity:0.3;stroke:#ff9408;stroke-opacity:0.3;" x="0" xlink:href="#mcd377d0b57" y="1090.099062"/>
    </g>
   </g>
   <g id="PolyCollection_6">
    <defs>
     <path d="M 134.701506 -160.250338 
L 134.701506 -160.250338 
L 162.688966 -575.861523 
L 190.676427 -646.293602 
L 218.663888 -687.720718 
L 246.651349 -718.242183 
L 274.63881 -740.864081 
L 302.626271 -760.067119 
L 330.613731 -775.247091 
L 358.601192 -785.057989 
L 386.588653 -798.108279 
L 414.576114 -804.945996 
L 442.563575 -816.871622 
L 470.551035 -824.017425 
L 498.538496 -828.686575 
L 526.525957 -835.937068 
L 554.513418 -843.37002 
L 582.500879 -846.441908 
L 610.48834 -851.179854 
L 638.4758 -857.622743 
L 666.463261 -859.33965 
L 694.450722 -864.457469 
L 722.438183 -867.756683 
L 750.425644 -871.716936 
L 778.413104 -872.446771 
L 806.400565 -875.560535 
L 834.388026 -879.861776 
L 862.375487 -879.816909 
L 890.362948 -883.125096 
L 918.350409 -886.295691 
L 946.337869 -886.938784 
L 946.337869 -892.149328 
L 946.337869 -892.149328 
L 918.350409 -889.708568 
L 890.362948 -888.670646 
L 862.375487 -884.545882 
L 834.388026 -883.875869 
L 806.400565 -880.857821 
L 778.413104 -877.59151 
L 750.425644 -875.171688 
L 722.438183 -871.624211 
L 694.450722 -868.133565 
L 666.463261 -864.765555 
L 638.4758 -864.149383 
L 610.48834 -855.65159 
L 582.500879 -852.292554 
L 554.513418 -847.357193 
L 526.525957 -840.465635 
L 498.538496 -834.232126 
L 470.551035 -829.823204 
L 442.563575 -820.858795 
L 414.576114 -812.112738 
L 386.588653 -804.518265 
L 358.601192 -790.044199 
L 330.613731 -778.106609 
L 302.626271 -764.831985 
L 274.63881 -745.341798 
L 246.651349 -723.850547 
L 218.663888 -692.345001 
L 190.676427 -650.24189 
L 162.688966 -580.6563 
L 134.701506 -160.250338 
z
" id="m1c5ba15bf6" style="stroke:#ff81c0;stroke-opacity:0.3;"/>
    </defs>
    <g clip-path="url(#p67d2fe3e39)">
     <use style="fill:#ff81c0;fill-opacity:0.3;stroke:#ff81c0;stroke-opacity:0.3;" x="0" xlink:href="#m1c5ba15bf6" y="1090.099062"/>
    </g>
   </g>
   <g id="matplotlib.axis_1">
    <g id="xtick_1">
     <g id="line2d_1">
      <path clip-path="url(#p67d2fe3e39)" d="M 134.701506 1005.12 
L 134.701506 7.2 
" style="fill:none;stroke:#b0b0b0;stroke-linecap:square;stroke-width:0.8;"/>
     </g>
     <g id="line2d_2">
      <defs>
       <path d="M 0 0 
L 0 3.5 
" id="m8d324ffb6a" style="stroke:#000000;stroke-width:0.8;"/>
      </defs>
      <g>
       <use style="stroke:#000000;stroke-width:0.8;" x="134.701506" xlink:href="#m8d324ffb6a" y="1005.12"/>
      </g>
     </g>
     <g id="text_1">
      <!-- 0.00 -->
      <g transform="translate(101.303068 1034.915313)scale(0.3 -0.3)">
       <defs>
        <path d="M 2034 4250 
Q 1547 4250 1301 3770 
Q 1056 3291 1056 2328 
Q 1056 1369 1301 889 
Q 1547 409 2034 409 
Q 2525 409 2770 889 
Q 3016 1369 3016 2328 
Q 3016 3291 2770 3770 
Q 2525 4250 2034 4250 
z
M 2034 4750 
Q 2819 4750 3233 4129 
Q 3647 3509 3647 2328 
Q 3647 1150 3233 529 
Q 2819 -91 2034 -91 
Q 1250 -91 836 529 
Q 422 1150 422 2328 
Q 422 3509 836 4129 
Q 1250 4750 2034 4750 
z
" id="DejaVuSans-30" transform="scale(0.015625)"/>
        <path d="M 684 794 
L 1344 794 
L 1344 0 
L 684 0 
L 684 794 
z
" id="DejaVuSans-2e" transform="scale(0.015625)"/>
       </defs>
       <use xlink:href="#DejaVuSans-30"/>
       <use x="63.623047" xlink:href="#DejaVuSans-2e"/>
       <use x="95.410156" xlink:href="#DejaVuSans-30"/>
       <use x="159.033203" xlink:href="#DejaVuSans-30"/>
      </g>
     </g>
    </g>
    <g id="xtick_2">
     <g id="line2d_3">
      <path clip-path="url(#p67d2fe3e39)" d="M 274.63881 1005.12 
L 274.63881 7.2 
" style="fill:none;stroke:#b0b0b0;stroke-linecap:square;stroke-width:0.8;"/>
     </g>
     <g id="line2d_4">
      <g>
       <use style="stroke:#000000;stroke-width:0.8;" x="274.63881" xlink:href="#m8d324ffb6a" y="1005.12"/>
      </g>
     </g>
     <g id="text_2">
      <!-- 0.05 -->
      <g transform="translate(241.240372 1034.915313)scale(0.3 -0.3)">
       <defs>
        <path d="M 691 4666 
L 3169 4666 
L 3169 4134 
L 1269 4134 
L 1269 2991 
Q 1406 3038 1543 3061 
Q 1681 3084 1819 3084 
Q 2600 3084 3056 2656 
Q 3513 2228 3513 1497 
Q 3513 744 3044 326 
Q 2575 -91 1722 -91 
Q 1428 -91 1123 -41 
Q 819 9 494 109 
L 494 744 
Q 775 591 1075 516 
Q 1375 441 1709 441 
Q 2250 441 2565 725 
Q 2881 1009 2881 1497 
Q 2881 1984 2565 2268 
Q 2250 2553 1709 2553 
Q 1456 2553 1204 2497 
Q 953 2441 691 2322 
L 691 4666 
z
" id="DejaVuSans-35" transform="scale(0.015625)"/>
       </defs>
       <use xlink:href="#DejaVuSans-30"/>
       <use x="63.623047" xlink:href="#DejaVuSans-2e"/>
       <use x="95.410156" xlink:href="#DejaVuSans-30"/>
       <use x="159.033203" xlink:href="#DejaVuSans-35"/>
      </g>
     </g>
    </g>
    <g id="xtick_3">
     <g id="line2d_5">
      <path clip-path="url(#p67d2fe3e39)" d="M 414.576114 1005.12 
L 414.576114 7.2 
" style="fill:none;stroke:#b0b0b0;stroke-linecap:square;stroke-width:0.8;"/>
     </g>
     <g id="line2d_6">
      <g>
       <use style="stroke:#000000;stroke-width:0.8;" x="414.576114" xlink:href="#m8d324ffb6a" y="1005.12"/>
      </g>
     </g>
     <g id="text_3">
      <!-- 0.10 -->
      <g transform="translate(381.177676 1034.915313)scale(0.3 -0.3)">
       <defs>
        <path d="M 794 531 
L 1825 531 
L 1825 4091 
L 703 3866 
L 703 4441 
L 1819 4666 
L 2450 4666 
L 2450 531 
L 3481 531 
L 3481 0 
L 794 0 
L 794 531 
z
" id="DejaVuSans-31" transform="scale(0.015625)"/>
       </defs>
       <use xlink:href="#DejaVuSans-30"/>
       <use x="63.623047" xlink:href="#DejaVuSans-2e"/>
       <use x="95.410156" xlink:href="#DejaVuSans-31"/>
       <use x="159.033203" xlink:href="#DejaVuSans-30"/>
      </g>
     </g>
    </g>
    <g id="xtick_4">
     <g id="line2d_7">
      <path clip-path="url(#p67d2fe3e39)" d="M 554.513418 1005.12 
L 554.513418 7.2 
" style="fill:none;stroke:#b0b0b0;stroke-linecap:square;stroke-width:0.8;"/>
     </g>
     <g id="line2d_8">
      <g>
       <use style="stroke:#000000;stroke-width:0.8;" x="554.513418" xlink:href="#m8d324ffb6a" y="1005.12"/>
      </g>
     </g>
     <g id="text_4">
      <!-- 0.15 -->
      <g transform="translate(521.11498 1034.915313)scale(0.3 -0.3)">
       <use xlink:href="#DejaVuSans-30"/>
       <use x="63.623047" xlink:href="#DejaVuSans-2e"/>
       <use x="95.410156" xlink:href="#DejaVuSans-31"/>
       <use x="159.033203" xlink:href="#DejaVuSans-35"/>
      </g>
     </g>
    </g>
    <g id="xtick_5">
     <g id="line2d_9">
      <path clip-path="url(#p67d2fe3e39)" d="M 694.450722 1005.12 
L 694.450722 7.2 
" style="fill:none;stroke:#b0b0b0;stroke-linecap:square;stroke-width:0.8;"/>
     </g>
     <g id="line2d_10">
      <g>
       <use style="stroke:#000000;stroke-width:0.8;" x="694.450722" xlink:href="#m8d324ffb6a" y="1005.12"/>
      </g>
     </g>
     <g id="text_5">
      <!-- 0.20 -->
      <g transform="translate(661.052284 1034.915313)scale(0.3 -0.3)">
       <defs>
        <path d="M 1228 531 
L 3431 531 
L 3431 0 
L 469 0 
L 469 531 
Q 828 903 1448 1529 
Q 2069 2156 2228 2338 
Q 2531 2678 2651 2914 
Q 2772 3150 2772 3378 
Q 2772 3750 2511 3984 
Q 2250 4219 1831 4219 
Q 1534 4219 1204 4116 
Q 875 4013 500 3803 
L 500 4441 
Q 881 4594 1212 4672 
Q 1544 4750 1819 4750 
Q 2544 4750 2975 4387 
Q 3406 4025 3406 3419 
Q 3406 3131 3298 2873 
Q 3191 2616 2906 2266 
Q 2828 2175 2409 1742 
Q 1991 1309 1228 531 
z
" id="DejaVuSans-32" transform="scale(0.015625)"/>
       </defs>
       <use xlink:href="#DejaVuSans-30"/>
       <use x="63.623047" xlink:href="#DejaVuSans-2e"/>
       <use x="95.410156" xlink:href="#DejaVuSans-32"/>
       <use x="159.033203" xlink:href="#DejaVuSans-30"/>
      </g>
     </g>
    </g>
    <g id="xtick_6">
     <g id="line2d_11">
      <path clip-path="url(#p67d2fe3e39)" d="M 834.388026 1005.12 
L 834.388026 7.2 
" style="fill:none;stroke:#b0b0b0;stroke-linecap:square;stroke-width:0.8;"/>
     </g>
     <g id="line2d_12">
      <g>
       <use style="stroke:#000000;stroke-width:0.8;" x="834.388026" xlink:href="#m8d324ffb6a" y="1005.12"/>
      </g>
     </g>
     <g id="text_6">
      <!-- 0.25 -->
      <g transform="translate(800.989589 1034.915313)scale(0.3 -0.3)">
       <use xlink:href="#DejaVuSans-30"/>
       <use x="63.623047" xlink:href="#DejaVuSans-2e"/>
       <use x="95.410156" xlink:href="#DejaVuSans-32"/>
       <use x="159.033203" xlink:href="#DejaVuSans-35"/>
      </g>
     </g>
    </g>
    <g id="xtick_7">
     <g id="line2d_13">
      <path clip-path="url(#p67d2fe3e39)" d="M 974.32533 1005.12 
L 974.32533 7.2 
" style="fill:none;stroke:#b0b0b0;stroke-linecap:square;stroke-width:0.8;"/>
     </g>
     <g id="line2d_14">
      <g>
       <use style="stroke:#000000;stroke-width:0.8;" x="974.32533" xlink:href="#m8d324ffb6a" y="1005.12"/>
      </g>
     </g>
     <g id="text_7">
      <!-- 0.30 -->
      <g transform="translate(940.926893 1034.915313)scale(0.3 -0.3)">
       <defs>
        <path d="M 2597 2516 
Q 3050 2419 3304 2112 
Q 3559 1806 3559 1356 
Q 3559 666 3084 287 
Q 2609 -91 1734 -91 
Q 1441 -91 1130 -33 
Q 819 25 488 141 
L 488 750 
Q 750 597 1062 519 
Q 1375 441 1716 441 
Q 2309 441 2620 675 
Q 2931 909 2931 1356 
Q 2931 1769 2642 2001 
Q 2353 2234 1838 2234 
L 1294 2234 
L 1294 2753 
L 1863 2753 
Q 2328 2753 2575 2939 
Q 2822 3125 2822 3475 
Q 2822 3834 2567 4026 
Q 2313 4219 1838 4219 
Q 1578 4219 1281 4162 
Q 984 4106 628 3988 
L 628 4550 
Q 988 4650 1302 4700 
Q 1616 4750 1894 4750 
Q 2613 4750 3031 4423 
Q 3450 4097 3450 3541 
Q 3450 3153 3228 2886 
Q 3006 2619 2597 2516 
z
" id="DejaVuSans-33" transform="scale(0.015625)"/>
       </defs>
       <use xlink:href="#DejaVuSans-30"/>
       <use x="63.623047" xlink:href="#DejaVuSans-2e"/>
       <use x="95.410156" xlink:href="#DejaVuSans-33"/>
       <use x="159.033203" xlink:href="#DejaVuSans-30"/>
      </g>
     </g>
    </g>
    <g id="text_8">
     <!-- Locality parameter -->
     <g transform="translate(356.226406 1074.788281)scale(0.39 -0.39)">
      <defs>
       <path d="M 628 4666 
L 1259 4666 
L 1259 531 
L 3531 531 
L 3531 0 
L 628 0 
L 628 4666 
z
" id="DejaVuSans-4c" transform="scale(0.015625)"/>
       <path d="M 1959 3097 
Q 1497 3097 1228 2736 
Q 959 2375 959 1747 
Q 959 1119 1226 758 
Q 1494 397 1959 397 
Q 2419 397 2687 759 
Q 2956 1122 2956 1747 
Q 2956 2369 2687 2733 
Q 2419 3097 1959 3097 
z
M 1959 3584 
Q 2709 3584 3137 3096 
Q 3566 2609 3566 1747 
Q 3566 888 3137 398 
Q 2709 -91 1959 -91 
Q 1206 -91 779 398 
Q 353 888 353 1747 
Q 353 2609 779 3096 
Q 1206 3584 1959 3584 
z
" id="DejaVuSans-6f" transform="scale(0.015625)"/>
       <path d="M 3122 3366 
L 3122 2828 
Q 2878 2963 2633 3030 
Q 2388 3097 2138 3097 
Q 1578 3097 1268 2742 
Q 959 2388 959 1747 
Q 959 1106 1268 751 
Q 1578 397 2138 397 
Q 2388 397 2633 464 
Q 2878 531 3122 666 
L 3122 134 
Q 2881 22 2623 -34 
Q 2366 -91 2075 -91 
Q 1284 -91 818 406 
Q 353 903 353 1747 
Q 353 2603 823 3093 
Q 1294 3584 2113 3584 
Q 2378 3584 2631 3529 
Q 2884 3475 3122 3366 
z
" id="DejaVuSans-63" transform="scale(0.015625)"/>
       <path d="M 2194 1759 
Q 1497 1759 1228 1600 
Q 959 1441 959 1056 
Q 959 750 1161 570 
Q 1363 391 1709 391 
Q 2188 391 2477 730 
Q 2766 1069 2766 1631 
L 2766 1759 
L 2194 1759 
z
M 3341 1997 
L 3341 0 
L 2766 0 
L 2766 531 
Q 2569 213 2275 61 
Q 1981 -91 1556 -91 
Q 1019 -91 701 211 
Q 384 513 384 1019 
Q 384 1609 779 1909 
Q 1175 2209 1959 2209 
L 2766 2209 
L 2766 2266 
Q 2766 2663 2505 2880 
Q 2244 3097 1772 3097 
Q 1472 3097 1187 3025 
Q 903 2953 641 2809 
L 641 3341 
Q 956 3463 1253 3523 
Q 1550 3584 1831 3584 
Q 2591 3584 2966 3190 
Q 3341 2797 3341 1997 
z
" id="DejaVuSans-61" transform="scale(0.015625)"/>
       <path d="M 603 4863 
L 1178 4863 
L 1178 0 
L 603 0 
L 603 4863 
z
" id="DejaVuSans-6c" transform="scale(0.015625)"/>
       <path d="M 603 3500 
L 1178 3500 
L 1178 0 
L 603 0 
L 603 3500 
z
M 603 4863 
L 1178 4863 
L 1178 4134 
L 603 4134 
L 603 4863 
z
" id="DejaVuSans-69" transform="scale(0.015625)"/>
       <path d="M 1172 4494 
L 1172 3500 
L 2356 3500 
L 2356 3053 
L 1172 3053 
L 1172 1153 
Q 1172 725 1289 603 
Q 1406 481 1766 481 
L 2356 481 
L 2356 0 
L 1766 0 
Q 1100 0 847 248 
Q 594 497 594 1153 
L 594 3053 
L 172 3053 
L 172 3500 
L 594 3500 
L 594 4494 
L 1172 4494 
z
" id="DejaVuSans-74" transform="scale(0.015625)"/>
       <path d="M 2059 -325 
Q 1816 -950 1584 -1140 
Q 1353 -1331 966 -1331 
L 506 -1331 
L 506 -850 
L 844 -850 
Q 1081 -850 1212 -737 
Q 1344 -625 1503 -206 
L 1606 56 
L 191 3500 
L 800 3500 
L 1894 763 
L 2988 3500 
L 3597 3500 
L 2059 -325 
z
" id="DejaVuSans-79" transform="scale(0.015625)"/>
       <path id="DejaVuSans-20" transform="scale(0.015625)"/>
       <path d="M 1159 525 
L 1159 -1331 
L 581 -1331 
L 581 3500 
L 1159 3500 
L 1159 2969 
Q 1341 3281 1617 3432 
Q 1894 3584 2278 3584 
Q 2916 3584 3314 3078 
Q 3713 2572 3713 1747 
Q 3713 922 3314 415 
Q 2916 -91 2278 -91 
Q 1894 -91 1617 61 
Q 1341 213 1159 525 
z
M 3116 1747 
Q 3116 2381 2855 2742 
Q 2594 3103 2138 3103 
Q 1681 3103 1420 2742 
Q 1159 2381 1159 1747 
Q 1159 1113 1420 752 
Q 1681 391 2138 391 
Q 2594 391 2855 752 
Q 3116 1113 3116 1747 
z
" id="DejaVuSans-70" transform="scale(0.015625)"/>
       <path d="M 2631 2963 
Q 2534 3019 2420 3045 
Q 2306 3072 2169 3072 
Q 1681 3072 1420 2755 
Q 1159 2438 1159 1844 
L 1159 0 
L 581 0 
L 581 3500 
L 1159 3500 
L 1159 2956 
Q 1341 3275 1631 3429 
Q 1922 3584 2338 3584 
Q 2397 3584 2469 3576 
Q 2541 3569 2628 3553 
L 2631 2963 
z
" id="DejaVuSans-72" transform="scale(0.015625)"/>
       <path d="M 3328 2828 
Q 3544 3216 3844 3400 
Q 4144 3584 4550 3584 
Q 5097 3584 5394 3201 
Q 5691 2819 5691 2113 
L 5691 0 
L 5113 0 
L 5113 2094 
Q 5113 2597 4934 2840 
Q 4756 3084 4391 3084 
Q 3944 3084 3684 2787 
Q 3425 2491 3425 1978 
L 3425 0 
L 2847 0 
L 2847 2094 
Q 2847 2600 2669 2842 
Q 2491 3084 2119 3084 
Q 1678 3084 1418 2786 
Q 1159 2488 1159 1978 
L 1159 0 
L 581 0 
L 581 3500 
L 1159 3500 
L 1159 2956 
Q 1356 3278 1631 3431 
Q 1906 3584 2284 3584 
Q 2666 3584 2933 3390 
Q 3200 3197 3328 2828 
z
" id="DejaVuSans-6d" transform="scale(0.015625)"/>
       <path d="M 3597 1894 
L 3597 1613 
L 953 1613 
Q 991 1019 1311 708 
Q 1631 397 2203 397 
Q 2534 397 2845 478 
Q 3156 559 3463 722 
L 3463 178 
Q 3153 47 2828 -22 
Q 2503 -91 2169 -91 
Q 1331 -91 842 396 
Q 353 884 353 1716 
Q 353 2575 817 3079 
Q 1281 3584 2069 3584 
Q 2775 3584 3186 3129 
Q 3597 2675 3597 1894 
z
M 3022 2063 
Q 3016 2534 2758 2815 
Q 2500 3097 2075 3097 
Q 1594 3097 1305 2825 
Q 1016 2553 972 2059 
L 3022 2063 
z
" id="DejaVuSans-65" transform="scale(0.015625)"/>
      </defs>
      <use xlink:href="#DejaVuSans-4c"/>
      <use x="53.962891" xlink:href="#DejaVuSans-6f"/>
      <use x="115.144531" xlink:href="#DejaVuSans-63"/>
      <use x="170.125" xlink:href="#DejaVuSans-61"/>
      <use x="231.404297" xlink:href="#DejaVuSans-6c"/>
      <use x="259.1875" xlink:href="#DejaVuSans-69"/>
      <use x="286.970703" xlink:href="#DejaVuSans-74"/>
      <use x="326.179688" xlink:href="#DejaVuSans-79"/>
      <use x="385.359375" xlink:href="#DejaVuSans-20"/>
      <use x="417.146484" xlink:href="#DejaVuSans-70"/>
      <use x="480.623047" xlink:href="#DejaVuSans-61"/>
      <use x="541.902344" xlink:href="#DejaVuSans-72"/>
      <use x="583.015625" xlink:href="#DejaVuSans-61"/>
      <use x="644.294922" xlink:href="#DejaVuSans-6d"/>
      <use x="741.707031" xlink:href="#DejaVuSans-65"/>
      <use x="803.230469" xlink:href="#DejaVuSans-74"/>
      <use x="842.439453" xlink:href="#DejaVuSans-65"/>
      <use x="903.962891" xlink:href="#DejaVuSans-72"/>
     </g>
    </g>
   </g>
   <g id="matplotlib.axis_2">
    <g id="ytick_1">
     <g id="line2d_15">
      <path clip-path="url(#p67d2fe3e39)" d="M 94.119688 899.925485 
L 986.919688 899.925485 
" style="fill:none;stroke:#b0b0b0;stroke-linecap:square;stroke-width:0.8;"/>
     </g>
     <g id="line2d_16">
      <defs>
       <path d="M 0 0 
L -3.5 0 
" id="mc4b43b0189" style="stroke:#000000;stroke-width:0.8;"/>
      </defs>
      <g>
       <use style="stroke:#000000;stroke-width:0.8;" x="94.119688" xlink:href="#mc4b43b0189" y="899.925485"/>
      </g>
     </g>
     <g id="text_9">
      <!-- 2 -->
      <g transform="translate(68.032188 911.323142)scale(0.3 -0.3)">
       <use xlink:href="#DejaVuSans-32"/>
      </g>
     </g>
    </g>
    <g id="ytick_2">
     <g id="line2d_17">
      <path clip-path="url(#p67d2fe3e39)" d="M 94.119688 780.280385 
L 986.919688 780.280385 
" style="fill:none;stroke:#b0b0b0;stroke-linecap:square;stroke-width:0.8;"/>
     </g>
     <g id="line2d_18">
      <g>
       <use style="stroke:#000000;stroke-width:0.8;" x="94.119688" xlink:href="#mc4b43b0189" y="780.280385"/>
      </g>
     </g>
     <g id="text_10">
      <!-- 4 -->
      <g transform="translate(68.032188 791.678041)scale(0.3 -0.3)">
       <defs>
        <path d="M 2419 4116 
L 825 1625 
L 2419 1625 
L 2419 4116 
z
M 2253 4666 
L 3047 4666 
L 3047 1625 
L 3713 1625 
L 3713 1100 
L 3047 1100 
L 3047 0 
L 2419 0 
L 2419 1100 
L 313 1100 
L 313 1709 
L 2253 4666 
z
" id="DejaVuSans-34" transform="scale(0.015625)"/>
       </defs>
       <use xlink:href="#DejaVuSans-34"/>
      </g>
     </g>
    </g>
    <g id="ytick_3">
     <g id="line2d_19">
      <path clip-path="url(#p67d2fe3e39)" d="M 94.119688 660.635285 
L 986.919688 660.635285 
" style="fill:none;stroke:#b0b0b0;stroke-linecap:square;stroke-width:0.8;"/>
     </g>
     <g id="line2d_20">
      <g>
       <use style="stroke:#000000;stroke-width:0.8;" x="94.119688" xlink:href="#mc4b43b0189" y="660.635285"/>
      </g>
     </g>
     <g id="text_11">
      <!-- 6 -->
      <g transform="translate(68.032188 672.032941)scale(0.3 -0.3)">
       <defs>
        <path d="M 2113 2584 
Q 1688 2584 1439 2293 
Q 1191 2003 1191 1497 
Q 1191 994 1439 701 
Q 1688 409 2113 409 
Q 2538 409 2786 701 
Q 3034 994 3034 1497 
Q 3034 2003 2786 2293 
Q 2538 2584 2113 2584 
z
M 3366 4563 
L 3366 3988 
Q 3128 4100 2886 4159 
Q 2644 4219 2406 4219 
Q 1781 4219 1451 3797 
Q 1122 3375 1075 2522 
Q 1259 2794 1537 2939 
Q 1816 3084 2150 3084 
Q 2853 3084 3261 2657 
Q 3669 2231 3669 1497 
Q 3669 778 3244 343 
Q 2819 -91 2113 -91 
Q 1303 -91 875 529 
Q 447 1150 447 2328 
Q 447 3434 972 4092 
Q 1497 4750 2381 4750 
Q 2619 4750 2861 4703 
Q 3103 4656 3366 4563 
z
" id="DejaVuSans-36" transform="scale(0.015625)"/>
       </defs>
       <use xlink:href="#DejaVuSans-36"/>
      </g>
     </g>
    </g>
    <g id="ytick_4">
     <g id="line2d_21">
      <path clip-path="url(#p67d2fe3e39)" d="M 94.119688 540.990184 
L 986.919688 540.990184 
" style="fill:none;stroke:#b0b0b0;stroke-linecap:square;stroke-width:0.8;"/>
     </g>
     <g id="line2d_22">
      <g>
       <use style="stroke:#000000;stroke-width:0.8;" x="94.119688" xlink:href="#mc4b43b0189" y="540.990184"/>
      </g>
     </g>
     <g id="text_12">
      <!-- 8 -->
      <g transform="translate(68.032188 552.387841)scale(0.3 -0.3)">
       <defs>
        <path d="M 2034 2216 
Q 1584 2216 1326 1975 
Q 1069 1734 1069 1313 
Q 1069 891 1326 650 
Q 1584 409 2034 409 
Q 2484 409 2743 651 
Q 3003 894 3003 1313 
Q 3003 1734 2745 1975 
Q 2488 2216 2034 2216 
z
M 1403 2484 
Q 997 2584 770 2862 
Q 544 3141 544 3541 
Q 544 4100 942 4425 
Q 1341 4750 2034 4750 
Q 2731 4750 3128 4425 
Q 3525 4100 3525 3541 
Q 3525 3141 3298 2862 
Q 3072 2584 2669 2484 
Q 3125 2378 3379 2068 
Q 3634 1759 3634 1313 
Q 3634 634 3220 271 
Q 2806 -91 2034 -91 
Q 1263 -91 848 271 
Q 434 634 434 1313 
Q 434 1759 690 2068 
Q 947 2378 1403 2484 
z
M 1172 3481 
Q 1172 3119 1398 2916 
Q 1625 2713 2034 2713 
Q 2441 2713 2670 2916 
Q 2900 3119 2900 3481 
Q 2900 3844 2670 4047 
Q 2441 4250 2034 4250 
Q 1625 4250 1398 4047 
Q 1172 3844 1172 3481 
z
" id="DejaVuSans-38" transform="scale(0.015625)"/>
       </defs>
       <use xlink:href="#DejaVuSans-38"/>
      </g>
     </g>
    </g>
    <g id="ytick_5">
     <g id="line2d_23">
      <path clip-path="url(#p67d2fe3e39)" d="M 94.119688 421.345084 
L 986.919688 421.345084 
" style="fill:none;stroke:#b0b0b0;stroke-linecap:square;stroke-width:0.8;"/>
     </g>
     <g id="line2d_24">
      <g>
       <use style="stroke:#000000;stroke-width:0.8;" x="94.119688" xlink:href="#mc4b43b0189" y="421.345084"/>
      </g>
     </g>
     <g id="text_13">
      <!-- 10 -->
      <g transform="translate(48.944688 432.74274)scale(0.3 -0.3)">
       <use xlink:href="#DejaVuSans-31"/>
       <use x="63.623047" xlink:href="#DejaVuSans-30"/>
      </g>
     </g>
    </g>
    <g id="ytick_6">
     <g id="line2d_25">
      <path clip-path="url(#p67d2fe3e39)" d="M 94.119688 301.699984 
L 986.919688 301.699984 
" style="fill:none;stroke:#b0b0b0;stroke-linecap:square;stroke-width:0.8;"/>
     </g>
     <g id="line2d_26">
      <g>
       <use style="stroke:#000000;stroke-width:0.8;" x="94.119688" xlink:href="#mc4b43b0189" y="301.699984"/>
      </g>
     </g>
     <g id="text_14">
      <!-- 12 -->
      <g transform="translate(48.944688 313.09764)scale(0.3 -0.3)">
       <use xlink:href="#DejaVuSans-31"/>
       <use x="63.623047" xlink:href="#DejaVuSans-32"/>
      </g>
     </g>
    </g>
    <g id="ytick_7">
     <g id="line2d_27">
      <path clip-path="url(#p67d2fe3e39)" d="M 94.119688 182.054883 
L 986.919688 182.054883 
" style="fill:none;stroke:#b0b0b0;stroke-linecap:square;stroke-width:0.8;"/>
     </g>
     <g id="line2d_28">
      <g>
       <use style="stroke:#000000;stroke-width:0.8;" x="94.119688" xlink:href="#mc4b43b0189" y="182.054883"/>
      </g>
     </g>
     <g id="text_15">
      <!-- 14 -->
      <g transform="translate(48.944688 193.452539)scale(0.3 -0.3)">
       <use xlink:href="#DejaVuSans-31"/>
       <use x="63.623047" xlink:href="#DejaVuSans-34"/>
      </g>
     </g>
    </g>
    <g id="ytick_8">
     <g id="line2d_29">
      <path clip-path="url(#p67d2fe3e39)" d="M 94.119688 62.409783 
L 986.919688 62.409783 
" style="fill:none;stroke:#b0b0b0;stroke-linecap:square;stroke-width:0.8;"/>
     </g>
     <g id="line2d_30">
      <g>
       <use style="stroke:#000000;stroke-width:0.8;" x="94.119688" xlink:href="#mc4b43b0189" y="62.409783"/>
      </g>
     </g>
     <g id="text_16">
      <!-- 16 -->
      <g transform="translate(48.944688 73.807439)scale(0.3 -0.3)">
       <use xlink:href="#DejaVuSans-31"/>
       <use x="63.623047" xlink:href="#DejaVuSans-36"/>
      </g>
     </g>
    </g>
    <g id="text_17">
     <!-- Avg. number of links / size -->
     <g transform="translate(36.833906 763.380234)rotate(-90)scale(0.39 -0.39)">
      <defs>
       <path d="M 2188 4044 
L 1331 1722 
L 3047 1722 
L 2188 4044 
z
M 1831 4666 
L 2547 4666 
L 4325 0 
L 3669 0 
L 3244 1197 
L 1141 1197 
L 716 0 
L 50 0 
L 1831 4666 
z
" id="DejaVuSans-41" transform="scale(0.015625)"/>
       <path d="M 191 3500 
L 800 3500 
L 1894 563 
L 2988 3500 
L 3597 3500 
L 2284 0 
L 1503 0 
L 191 3500 
z
" id="DejaVuSans-76" transform="scale(0.015625)"/>
       <path d="M 2906 1791 
Q 2906 2416 2648 2759 
Q 2391 3103 1925 3103 
Q 1463 3103 1205 2759 
Q 947 2416 947 1791 
Q 947 1169 1205 825 
Q 1463 481 1925 481 
Q 2391 481 2648 825 
Q 2906 1169 2906 1791 
z
M 3481 434 
Q 3481 -459 3084 -895 
Q 2688 -1331 1869 -1331 
Q 1566 -1331 1297 -1286 
Q 1028 -1241 775 -1147 
L 775 -588 
Q 1028 -725 1275 -790 
Q 1522 -856 1778 -856 
Q 2344 -856 2625 -561 
Q 2906 -266 2906 331 
L 2906 616 
Q 2728 306 2450 153 
Q 2172 0 1784 0 
Q 1141 0 747 490 
Q 353 981 353 1791 
Q 353 2603 747 3093 
Q 1141 3584 1784 3584 
Q 2172 3584 2450 3431 
Q 2728 3278 2906 2969 
L 2906 3500 
L 3481 3500 
L 3481 434 
z
" id="DejaVuSans-67" transform="scale(0.015625)"/>
       <path d="M 3513 2113 
L 3513 0 
L 2938 0 
L 2938 2094 
Q 2938 2591 2744 2837 
Q 2550 3084 2163 3084 
Q 1697 3084 1428 2787 
Q 1159 2491 1159 1978 
L 1159 0 
L 581 0 
L 581 3500 
L 1159 3500 
L 1159 2956 
Q 1366 3272 1645 3428 
Q 1925 3584 2291 3584 
Q 2894 3584 3203 3211 
Q 3513 2838 3513 2113 
z
" id="DejaVuSans-6e" transform="scale(0.015625)"/>
       <path d="M 544 1381 
L 544 3500 
L 1119 3500 
L 1119 1403 
Q 1119 906 1312 657 
Q 1506 409 1894 409 
Q 2359 409 2629 706 
Q 2900 1003 2900 1516 
L 2900 3500 
L 3475 3500 
L 3475 0 
L 2900 0 
L 2900 538 
Q 2691 219 2414 64 
Q 2138 -91 1772 -91 
Q 1169 -91 856 284 
Q 544 659 544 1381 
z
M 1991 3584 
L 1991 3584 
z
" id="DejaVuSans-75" transform="scale(0.015625)"/>
       <path d="M 3116 1747 
Q 3116 2381 2855 2742 
Q 2594 3103 2138 3103 
Q 1681 3103 1420 2742 
Q 1159 2381 1159 1747 
Q 1159 1113 1420 752 
Q 1681 391 2138 391 
Q 2594 391 2855 752 
Q 3116 1113 3116 1747 
z
M 1159 2969 
Q 1341 3281 1617 3432 
Q 1894 3584 2278 3584 
Q 2916 3584 3314 3078 
Q 3713 2572 3713 1747 
Q 3713 922 3314 415 
Q 2916 -91 2278 -91 
Q 1894 -91 1617 61 
Q 1341 213 1159 525 
L 1159 0 
L 581 0 
L 581 4863 
L 1159 4863 
L 1159 2969 
z
" id="DejaVuSans-62" transform="scale(0.015625)"/>
       <path d="M 2375 4863 
L 2375 4384 
L 1825 4384 
Q 1516 4384 1395 4259 
Q 1275 4134 1275 3809 
L 1275 3500 
L 2222 3500 
L 2222 3053 
L 1275 3053 
L 1275 0 
L 697 0 
L 697 3053 
L 147 3053 
L 147 3500 
L 697 3500 
L 697 3744 
Q 697 4328 969 4595 
Q 1241 4863 1831 4863 
L 2375 4863 
z
" id="DejaVuSans-66" transform="scale(0.015625)"/>
       <path d="M 581 4863 
L 1159 4863 
L 1159 1991 
L 2875 3500 
L 3609 3500 
L 1753 1863 
L 3688 0 
L 2938 0 
L 1159 1709 
L 1159 0 
L 581 0 
L 581 4863 
z
" id="DejaVuSans-6b" transform="scale(0.015625)"/>
       <path d="M 2834 3397 
L 2834 2853 
Q 2591 2978 2328 3040 
Q 2066 3103 1784 3103 
Q 1356 3103 1142 2972 
Q 928 2841 928 2578 
Q 928 2378 1081 2264 
Q 1234 2150 1697 2047 
L 1894 2003 
Q 2506 1872 2764 1633 
Q 3022 1394 3022 966 
Q 3022 478 2636 193 
Q 2250 -91 1575 -91 
Q 1294 -91 989 -36 
Q 684 19 347 128 
L 347 722 
Q 666 556 975 473 
Q 1284 391 1588 391 
Q 1994 391 2212 530 
Q 2431 669 2431 922 
Q 2431 1156 2273 1281 
Q 2116 1406 1581 1522 
L 1381 1569 
Q 847 1681 609 1914 
Q 372 2147 372 2553 
Q 372 3047 722 3315 
Q 1072 3584 1716 3584 
Q 2034 3584 2315 3537 
Q 2597 3491 2834 3397 
z
" id="DejaVuSans-73" transform="scale(0.015625)"/>
       <path d="M 1625 4666 
L 2156 4666 
L 531 -594 
L 0 -594 
L 1625 4666 
z
" id="DejaVuSans-2f" transform="scale(0.015625)"/>
       <path d="M 353 3500 
L 3084 3500 
L 3084 2975 
L 922 459 
L 3084 459 
L 3084 0 
L 275 0 
L 275 525 
L 2438 3041 
L 353 3041 
L 353 3500 
z
" id="DejaVuSans-7a" transform="scale(0.015625)"/>
      </defs>
      <use xlink:href="#DejaVuSans-41"/>
      <use x="62.533203" xlink:href="#DejaVuSans-76"/>
      <use x="121.712891" xlink:href="#DejaVuSans-67"/>
      <use x="185.189453" xlink:href="#DejaVuSans-2e"/>
      <use x="216.976562" xlink:href="#DejaVuSans-20"/>
      <use x="248.763672" xlink:href="#DejaVuSans-6e"/>
      <use x="312.142578" xlink:href="#DejaVuSans-75"/>
      <use x="375.521484" xlink:href="#DejaVuSans-6d"/>
      <use x="472.933594" xlink:href="#DejaVuSans-62"/>
      <use x="536.410156" xlink:href="#DejaVuSans-65"/>
      <use x="597.933594" xlink:href="#DejaVuSans-72"/>
      <use x="639.046875" xlink:href="#DejaVuSans-20"/>
      <use x="670.833984" xlink:href="#DejaVuSans-6f"/>
      <use x="732.015625" xlink:href="#DejaVuSans-66"/>
      <use x="767.220703" xlink:href="#DejaVuSans-20"/>
      <use x="799.007812" xlink:href="#DejaVuSans-6c"/>
      <use x="826.791016" xlink:href="#DejaVuSans-69"/>
      <use x="854.574219" xlink:href="#DejaVuSans-6e"/>
      <use x="917.953125" xlink:href="#DejaVuSans-6b"/>
      <use x="975.863281" xlink:href="#DejaVuSans-73"/>
      <use x="1027.962891" xlink:href="#DejaVuSans-20"/>
      <use x="1059.75" xlink:href="#DejaVuSans-2f"/>
      <use x="1093.441406" xlink:href="#DejaVuSans-20"/>
      <use x="1125.228516" xlink:href="#DejaVuSans-73"/>
      <use x="1177.328125" xlink:href="#DejaVuSans-69"/>
      <use x="1205.111328" xlink:href="#DejaVuSans-7a"/>
      <use x="1257.601562" xlink:href="#DejaVuSans-65"/>
     </g>
    </g>
   </g>
   <g id="line2d_31">
    <path clip-path="url(#p67d2fe3e39)" d="M 134.701506 821.498122 
L 162.688966 439.547889 
L 190.676427 370.711876 
L 218.663888 330.044506 
L 246.651349 301.226189 
L 274.63881 278.676677 
L 302.626271 261.956872 
L 330.613731 247.09037 
L 358.601192 235.467447 
L 386.588653 224.177137 
L 414.576114 214.988992 
L 442.563575 206.919528 
L 470.551035 199.134221 
L 498.538496 193.788478 
L 526.525957 188.230963 
L 554.513418 182.266057 
L 582.500879 177.337277 
L 610.48834 172.650778 
L 638.4758 168.703686 
L 666.463261 164.423383 
L 694.450722 161.291074 
L 722.438183 158.421985 
L 750.425644 155.439232 
L 778.413104 152.443319 
L 806.400565 149.896075 
L 834.388026 146.594468 
L 862.375487 145.304096 
L 890.362948 142.564223 
L 918.350409 140.790485 
L 946.337869 138.721821 
" style="fill:none;stroke:#fe0002;stroke-dasharray:5.55,2.4;stroke-dashoffset:0;stroke-width:1.5;"/>
    <defs>
     <path d="M 0 4.5 
C 1.193414 4.5 2.338109 4.025852 3.181981 3.181981 
C 4.025852 2.338109 4.5 1.193414 4.5 0 
C 4.5 -1.193414 4.025852 -2.338109 3.181981 -3.181981 
C 2.338109 -4.025852 1.193414 -4.5 0 -4.5 
C -1.193414 -4.5 -2.338109 -4.025852 -3.181981 -3.181981 
C -4.025852 -2.338109 -4.5 -1.193414 -4.5 0 
C -4.5 1.193414 -4.025852 2.338109 -3.181981 3.181981 
C -2.338109 4.025852 -1.193414 4.5 0 4.5 
z
" id="m6cbe9d3e31" style="stroke:#000000;"/>
    </defs>
    <g clip-path="url(#p67d2fe3e39)">
     <use style="fill:#fe0002;stroke:#000000;" x="134.701506" xlink:href="#m6cbe9d3e31" y="821.498122"/>
     <use style="fill:#fe0002;stroke:#000000;" x="162.688966" xlink:href="#m6cbe9d3e31" y="439.547889"/>
     <use style="fill:#fe0002;stroke:#000000;" x="190.676427" xlink:href="#m6cbe9d3e31" y="370.711876"/>
     <use style="fill:#fe0002;stroke:#000000;" x="218.663888" xlink:href="#m6cbe9d3e31" y="330.044506"/>
     <use style="fill:#fe0002;stroke:#000000;" x="246.651349" xlink:href="#m6cbe9d3e31" y="301.226189"/>
     <use style="fill:#fe0002;stroke:#000000;" x="274.63881" xlink:href="#m6cbe9d3e31" y="278.676677"/>
     <use style="fill:#fe0002;stroke:#000000;" x="302.626271" xlink:href="#m6cbe9d3e31" y="261.956872"/>
     <use style="fill:#fe0002;stroke:#000000;" x="330.613731" xlink:href="#m6cbe9d3e31" y="247.09037"/>
     <use style="fill:#fe0002;stroke:#000000;" x="358.601192" xlink:href="#m6cbe9d3e31" y="235.467447"/>
     <use style="fill:#fe0002;stroke:#000000;" x="386.588653" xlink:href="#m6cbe9d3e31" y="224.177137"/>
     <use style="fill:#fe0002;stroke:#000000;" x="414.576114" xlink:href="#m6cbe9d3e31" y="214.988992"/>
     <use style="fill:#fe0002;stroke:#000000;" x="442.563575" xlink:href="#m6cbe9d3e31" y="206.919528"/>
     <use style="fill:#fe0002;stroke:#000000;" x="470.551035" xlink:href="#m6cbe9d3e31" y="199.134221"/>
     <use style="fill:#fe0002;stroke:#000000;" x="498.538496" xlink:href="#m6cbe9d3e31" y="193.788478"/>
     <use style="fill:#fe0002;stroke:#000000;" x="526.525957" xlink:href="#m6cbe9d3e31" y="188.230963"/>
     <use style="fill:#fe0002;stroke:#000000;" x="554.513418" xlink:href="#m6cbe9d3e31" y="182.266057"/>
     <use style="fill:#fe0002;stroke:#000000;" x="582.500879" xlink:href="#m6cbe9d3e31" y="177.337277"/>
     <use style="fill:#fe0002;stroke:#000000;" x="610.48834" xlink:href="#m6cbe9d3e31" y="172.650778"/>
     <use style="fill:#fe0002;stroke:#000000;" x="638.4758" xlink:href="#m6cbe9d3e31" y="168.703686"/>
     <use style="fill:#fe0002;stroke:#000000;" x="666.463261" xlink:href="#m6cbe9d3e31" y="164.423383"/>
     <use style="fill:#fe0002;stroke:#000000;" x="694.450722" xlink:href="#m6cbe9d3e31" y="161.291074"/>
     <use style="fill:#fe0002;stroke:#000000;" x="722.438183" xlink:href="#m6cbe9d3e31" y="158.421985"/>
     <use style="fill:#fe0002;stroke:#000000;" x="750.425644" xlink:href="#m6cbe9d3e31" y="155.439232"/>
     <use style="fill:#fe0002;stroke:#000000;" x="778.413104" xlink:href="#m6cbe9d3e31" y="152.443319"/>
     <use style="fill:#fe0002;stroke:#000000;" x="806.400565" xlink:href="#m6cbe9d3e31" y="149.896075"/>
     <use style="fill:#fe0002;stroke:#000000;" x="834.388026" xlink:href="#m6cbe9d3e31" y="146.594468"/>
     <use style="fill:#fe0002;stroke:#000000;" x="862.375487" xlink:href="#m6cbe9d3e31" y="145.304096"/>
     <use style="fill:#fe0002;stroke:#000000;" x="890.362948" xlink:href="#m6cbe9d3e31" y="142.564223"/>
     <use style="fill:#fe0002;stroke:#000000;" x="918.350409" xlink:href="#m6cbe9d3e31" y="140.790485"/>
     <use style="fill:#fe0002;stroke:#000000;" x="946.337869" xlink:href="#m6cbe9d3e31" y="138.721821"/>
    </g>
   </g>
   <g id="line2d_32">
    <path clip-path="url(#p67d2fe3e39)" d="M 134.701506 959.76 
L 162.688966 641.74452 
L 190.676427 591.283002 
L 218.663888 561.989694 
L 246.651349 540.845414 
L 274.63881 525.528448 
L 302.626271 513.756567 
L 330.613731 502.597866 
L 358.601192 494.41115 
L 386.588653 486.512181 
L 414.576114 480.373191 
L 442.563575 474.11635 
L 470.551035 468.736508 
L 498.538496 464.944955 
L 526.525957 460.782502 
L 554.513418 456.420242 
L 582.500879 453.060607 
L 610.48834 450.053926 
L 638.4758 447.014342 
L 666.463261 444.157815 
L 694.450722 441.42213 
L 722.438183 439.098024 
L 750.425644 437.801669 
L 778.413104 435.135976 
L 806.400565 433.057741 
L 834.388026 431.02856 
L 862.375487 429.996023 
L 890.362948 428.610533 
L 918.350409 427.302213 
L 946.337869 425.112708 
" style="fill:none;stroke:#53fca1;stroke-dasharray:5.55,2.4;stroke-dashoffset:0;stroke-width:1.5;"/>
    <defs>
     <path d="M 0 6.363961 
L 6.363961 0 
L 0 -6.363961 
L -6.363961 0 
z
" id="m0893c52789" style="stroke:#000000;stroke-linejoin:miter;"/>
    </defs>
    <g clip-path="url(#p67d2fe3e39)">
     <use style="fill:#53fca1;stroke:#000000;stroke-linejoin:miter;" x="134.701506" xlink:href="#m0893c52789" y="959.76"/>
     <use style="fill:#53fca1;stroke:#000000;stroke-linejoin:miter;" x="162.688966" xlink:href="#m0893c52789" y="641.74452"/>
     <use style="fill:#53fca1;stroke:#000000;stroke-linejoin:miter;" x="190.676427" xlink:href="#m0893c52789" y="591.283002"/>
     <use style="fill:#53fca1;stroke:#000000;stroke-linejoin:miter;" x="218.663888" xlink:href="#m0893c52789" y="561.989694"/>
     <use style="fill:#53fca1;stroke:#000000;stroke-linejoin:miter;" x="246.651349" xlink:href="#m0893c52789" y="540.845414"/>
     <use style="fill:#53fca1;stroke:#000000;stroke-linejoin:miter;" x="274.63881" xlink:href="#m0893c52789" y="525.528448"/>
     <use style="fill:#53fca1;stroke:#000000;stroke-linejoin:miter;" x="302.626271" xlink:href="#m0893c52789" y="513.756567"/>
     <use style="fill:#53fca1;stroke:#000000;stroke-linejoin:miter;" x="330.613731" xlink:href="#m0893c52789" y="502.597866"/>
     <use style="fill:#53fca1;stroke:#000000;stroke-linejoin:miter;" x="358.601192" xlink:href="#m0893c52789" y="494.41115"/>
     <use style="fill:#53fca1;stroke:#000000;stroke-linejoin:miter;" x="386.588653" xlink:href="#m0893c52789" y="486.512181"/>
     <use style="fill:#53fca1;stroke:#000000;stroke-linejoin:miter;" x="414.576114" xlink:href="#m0893c52789" y="480.373191"/>
     <use style="fill:#53fca1;stroke:#000000;stroke-linejoin:miter;" x="442.563575" xlink:href="#m0893c52789" y="474.11635"/>
     <use style="fill:#53fca1;stroke:#000000;stroke-linejoin:miter;" x="470.551035" xlink:href="#m0893c52789" y="468.736508"/>
     <use style="fill:#53fca1;stroke:#000000;stroke-linejoin:miter;" x="498.538496" xlink:href="#m0893c52789" y="464.944955"/>
     <use style="fill:#53fca1;stroke:#000000;stroke-linejoin:miter;" x="526.525957" xlink:href="#m0893c52789" y="460.782502"/>
     <use style="fill:#53fca1;stroke:#000000;stroke-linejoin:miter;" x="554.513418" xlink:href="#m0893c52789" y="456.420242"/>
     <use style="fill:#53fca1;stroke:#000000;stroke-linejoin:miter;" x="582.500879" xlink:href="#m0893c52789" y="453.060607"/>
     <use style="fill:#53fca1;stroke:#000000;stroke-linejoin:miter;" x="610.48834" xlink:href="#m0893c52789" y="450.053926"/>
     <use style="fill:#53fca1;stroke:#000000;stroke-linejoin:miter;" x="638.4758" xlink:href="#m0893c52789" y="447.014342"/>
     <use style="fill:#53fca1;stroke:#000000;stroke-linejoin:miter;" x="666.463261" xlink:href="#m0893c52789" y="444.157815"/>
     <use style="fill:#53fca1;stroke:#000000;stroke-linejoin:miter;" x="694.450722" xlink:href="#m0893c52789" y="441.42213"/>
     <use style="fill:#53fca1;stroke:#000000;stroke-linejoin:miter;" x="722.438183" xlink:href="#m0893c52789" y="439.098024"/>
     <use style="fill:#53fca1;stroke:#000000;stroke-linejoin:miter;" x="750.425644" xlink:href="#m0893c52789" y="437.801669"/>
     <use style="fill:#53fca1;stroke:#000000;stroke-linejoin:miter;" x="778.413104" xlink:href="#m0893c52789" y="435.135976"/>
     <use style="fill:#53fca1;stroke:#000000;stroke-linejoin:miter;" x="806.400565" xlink:href="#m0893c52789" y="433.057741"/>
     <use style="fill:#53fca1;stroke:#000000;stroke-linejoin:miter;" x="834.388026" xlink:href="#m0893c52789" y="431.02856"/>
     <use style="fill:#53fca1;stroke:#000000;stroke-linejoin:miter;" x="862.375487" xlink:href="#m0893c52789" y="429.996023"/>
     <use style="fill:#53fca1;stroke:#000000;stroke-linejoin:miter;" x="890.362948" xlink:href="#m0893c52789" y="428.610533"/>
     <use style="fill:#53fca1;stroke:#000000;stroke-linejoin:miter;" x="918.350409" xlink:href="#m0893c52789" y="427.302213"/>
     <use style="fill:#53fca1;stroke:#000000;stroke-linejoin:miter;" x="946.337869" xlink:href="#m0893c52789" y="425.112708"/>
    </g>
   </g>
   <g id="line2d_33">
    <path clip-path="url(#p67d2fe3e39)" d="M 134.701506 959.76 
L 162.688966 587.918582 
L 190.676427 515.718746 
L 218.663888 471.791646 
L 246.651349 441.451443 
L 274.63881 418.250463 
L 302.626271 400.505899 
L 330.613731 384.281425 
L 358.601192 372.432372 
L 386.588653 359.674017 
L 414.576114 350.939925 
L 442.563575 340.784449 
L 470.551035 333.999375 
L 498.538496 327.812527 
L 526.525957 320.996944 
L 554.513418 315.786998 
L 582.500879 311.378674 
L 610.48834 307.040343 
L 638.4758 301.152607 
L 666.463261 296.944091 
L 694.450722 293.473785 
L 722.438183 290.544873 
L 750.425644 286.686318 
L 778.413104 284.249147 
L 806.400565 281.079151 
L 834.388026 277.791303 
L 862.375487 276.793463 
L 890.362948 273.829854 
L 918.350409 272.851755 
L 946.337869 269.263599 
" style="fill:none;stroke:#0652ff;stroke-dasharray:5.55,2.4;stroke-dashoffset:0;stroke-width:1.5;"/>
    <defs>
     <path d="M -2.25 4.5 
L 0 2.25 
L 2.25 4.5 
L 4.5 2.25 
L 2.25 0 
L 4.5 -2.25 
L 2.25 -4.5 
L 0 -2.25 
L -2.25 -4.5 
L -4.5 -2.25 
L -2.25 0 
L -4.5 2.25 
z
" id="m3df12ed41c" style="stroke:#000000;stroke-linejoin:miter;"/>
    </defs>
    <g clip-path="url(#p67d2fe3e39)">
     <use style="fill:#0652ff;stroke:#000000;stroke-linejoin:miter;" x="134.701506" xlink:href="#m3df12ed41c" y="959.76"/>
     <use style="fill:#0652ff;stroke:#000000;stroke-linejoin:miter;" x="162.688966" xlink:href="#m3df12ed41c" y="587.918582"/>
     <use style="fill:#0652ff;stroke:#000000;stroke-linejoin:miter;" x="190.676427" xlink:href="#m3df12ed41c" y="515.718746"/>
     <use style="fill:#0652ff;stroke:#000000;stroke-linejoin:miter;" x="218.663888" xlink:href="#m3df12ed41c" y="471.791646"/>
     <use style="fill:#0652ff;stroke:#000000;stroke-linejoin:miter;" x="246.651349" xlink:href="#m3df12ed41c" y="441.451443"/>
     <use style="fill:#0652ff;stroke:#000000;stroke-linejoin:miter;" x="274.63881" xlink:href="#m3df12ed41c" y="418.250463"/>
     <use style="fill:#0652ff;stroke:#000000;stroke-linejoin:miter;" x="302.626271" xlink:href="#m3df12ed41c" y="400.505899"/>
     <use style="fill:#0652ff;stroke:#000000;stroke-linejoin:miter;" x="330.613731" xlink:href="#m3df12ed41c" y="384.281425"/>
     <use style="fill:#0652ff;stroke:#000000;stroke-linejoin:miter;" x="358.601192" xlink:href="#m3df12ed41c" y="372.432372"/>
     <use style="fill:#0652ff;stroke:#000000;stroke-linejoin:miter;" x="386.588653" xlink:href="#m3df12ed41c" y="359.674017"/>
     <use style="fill:#0652ff;stroke:#000000;stroke-linejoin:miter;" x="414.576114" xlink:href="#m3df12ed41c" y="350.939925"/>
     <use style="fill:#0652ff;stroke:#000000;stroke-linejoin:miter;" x="442.563575" xlink:href="#m3df12ed41c" y="340.784449"/>
     <use style="fill:#0652ff;stroke:#000000;stroke-linejoin:miter;" x="470.551035" xlink:href="#m3df12ed41c" y="333.999375"/>
     <use style="fill:#0652ff;stroke:#000000;stroke-linejoin:miter;" x="498.538496" xlink:href="#m3df12ed41c" y="327.812527"/>
     <use style="fill:#0652ff;stroke:#000000;stroke-linejoin:miter;" x="526.525957" xlink:href="#m3df12ed41c" y="320.996944"/>
     <use style="fill:#0652ff;stroke:#000000;stroke-linejoin:miter;" x="554.513418" xlink:href="#m3df12ed41c" y="315.786998"/>
     <use style="fill:#0652ff;stroke:#000000;stroke-linejoin:miter;" x="582.500879" xlink:href="#m3df12ed41c" y="311.378674"/>
     <use style="fill:#0652ff;stroke:#000000;stroke-linejoin:miter;" x="610.48834" xlink:href="#m3df12ed41c" y="307.040343"/>
     <use style="fill:#0652ff;stroke:#000000;stroke-linejoin:miter;" x="638.4758" xlink:href="#m3df12ed41c" y="301.152607"/>
     <use style="fill:#0652ff;stroke:#000000;stroke-linejoin:miter;" x="666.463261" xlink:href="#m3df12ed41c" y="296.944091"/>
     <use style="fill:#0652ff;stroke:#000000;stroke-linejoin:miter;" x="694.450722" xlink:href="#m3df12ed41c" y="293.473785"/>
     <use style="fill:#0652ff;stroke:#000000;stroke-linejoin:miter;" x="722.438183" xlink:href="#m3df12ed41c" y="290.544873"/>
     <use style="fill:#0652ff;stroke:#000000;stroke-linejoin:miter;" x="750.425644" xlink:href="#m3df12ed41c" y="286.686318"/>
     <use style="fill:#0652ff;stroke:#000000;stroke-linejoin:miter;" x="778.413104" xlink:href="#m3df12ed41c" y="284.249147"/>
     <use style="fill:#0652ff;stroke:#000000;stroke-linejoin:miter;" x="806.400565" xlink:href="#m3df12ed41c" y="281.079151"/>
     <use style="fill:#0652ff;stroke:#000000;stroke-linejoin:miter;" x="834.388026" xlink:href="#m3df12ed41c" y="277.791303"/>
     <use style="fill:#0652ff;stroke:#000000;stroke-linejoin:miter;" x="862.375487" xlink:href="#m3df12ed41c" y="276.793463"/>
     <use style="fill:#0652ff;stroke:#000000;stroke-linejoin:miter;" x="890.362948" xlink:href="#m3df12ed41c" y="273.829854"/>
     <use style="fill:#0652ff;stroke:#000000;stroke-linejoin:miter;" x="918.350409" xlink:href="#m3df12ed41c" y="272.851755"/>
     <use style="fill:#0652ff;stroke:#000000;stroke-linejoin:miter;" x="946.337869" xlink:href="#m3df12ed41c" y="269.263599"/>
    </g>
   </g>
   <g id="line2d_34">
    <path clip-path="url(#p67d2fe3e39)" d="M 134.701506 888.657908 
L 162.688966 621.660594 
L 190.676427 552.449792 
L 218.663888 509.356618 
L 246.651349 476.960613 
L 274.63881 451.402326 
L 302.626271 431.748824 
L 330.613731 414.509161 
L 358.601192 400.460134 
L 386.588653 386.96656 
L 414.576114 375.981943 
L 442.563575 365.673321 
L 470.551035 357.566469 
L 498.538496 349.031286 
L 526.525957 341.339303 
L 554.513418 334.922437 
L 582.500879 329.822265 
L 610.48834 324.751706 
L 638.4758 318.54392 
L 666.463261 313.226593 
L 694.450722 308.642391 
L 722.438183 304.539461 
L 750.425644 301.602772 
L 778.413104 298.018205 
L 806.400565 294.100127 
L 834.388026 290.604994 
L 862.375487 288.69845 
L 890.362948 285.68429 
L 918.350409 282.786785 
L 946.337869 280.086994 
" style="fill:none;stroke:#ae7181;stroke-dasharray:5.55,2.4;stroke-dashoffset:0;stroke-width:1.5;"/>
    <defs>
     <path d="M 0 -4.5 
L -1.010313 -1.390576 
L -4.279754 -1.390576 
L -1.634721 0.531153 
L -2.645034 3.640576 
L -0 1.718847 
L 2.645034 3.640576 
L 1.634721 0.531153 
L 4.279754 -1.390576 
L 1.010313 -1.390576 
z
" id="mbae73a3ce3" style="stroke:#000000;stroke-linejoin:bevel;"/>
    </defs>
    <g clip-path="url(#p67d2fe3e39)">
     <use style="fill:#ae7181;stroke:#000000;stroke-linejoin:bevel;" x="134.701506" xlink:href="#mbae73a3ce3" y="888.657908"/>
     <use style="fill:#ae7181;stroke:#000000;stroke-linejoin:bevel;" x="162.688966" xlink:href="#mbae73a3ce3" y="621.660594"/>
     <use style="fill:#ae7181;stroke:#000000;stroke-linejoin:bevel;" x="190.676427" xlink:href="#mbae73a3ce3" y="552.449792"/>
     <use style="fill:#ae7181;stroke:#000000;stroke-linejoin:bevel;" x="218.663888" xlink:href="#mbae73a3ce3" y="509.356618"/>
     <use style="fill:#ae7181;stroke:#000000;stroke-linejoin:bevel;" x="246.651349" xlink:href="#mbae73a3ce3" y="476.960613"/>
     <use style="fill:#ae7181;stroke:#000000;stroke-linejoin:bevel;" x="274.63881" xlink:href="#mbae73a3ce3" y="451.402326"/>
     <use style="fill:#ae7181;stroke:#000000;stroke-linejoin:bevel;" x="302.626271" xlink:href="#mbae73a3ce3" y="431.748824"/>
     <use style="fill:#ae7181;stroke:#000000;stroke-linejoin:bevel;" x="330.613731" xlink:href="#mbae73a3ce3" y="414.509161"/>
     <use style="fill:#ae7181;stroke:#000000;stroke-linejoin:bevel;" x="358.601192" xlink:href="#mbae73a3ce3" y="400.460134"/>
     <use style="fill:#ae7181;stroke:#000000;stroke-linejoin:bevel;" x="386.588653" xlink:href="#mbae73a3ce3" y="386.96656"/>
     <use style="fill:#ae7181;stroke:#000000;stroke-linejoin:bevel;" x="414.576114" xlink:href="#mbae73a3ce3" y="375.981943"/>
     <use style="fill:#ae7181;stroke:#000000;stroke-linejoin:bevel;" x="442.563575" xlink:href="#mbae73a3ce3" y="365.673321"/>
     <use style="fill:#ae7181;stroke:#000000;stroke-linejoin:bevel;" x="470.551035" xlink:href="#mbae73a3ce3" y="357.566469"/>
     <use style="fill:#ae7181;stroke:#000000;stroke-linejoin:bevel;" x="498.538496" xlink:href="#mbae73a3ce3" y="349.031286"/>
     <use style="fill:#ae7181;stroke:#000000;stroke-linejoin:bevel;" x="526.525957" xlink:href="#mbae73a3ce3" y="341.339303"/>
     <use style="fill:#ae7181;stroke:#000000;stroke-linejoin:bevel;" x="554.513418" xlink:href="#mbae73a3ce3" y="334.922437"/>
     <use style="fill:#ae7181;stroke:#000000;stroke-linejoin:bevel;" x="582.500879" xlink:href="#mbae73a3ce3" y="329.822265"/>
     <use style="fill:#ae7181;stroke:#000000;stroke-linejoin:bevel;" x="610.48834" xlink:href="#mbae73a3ce3" y="324.751706"/>
     <use style="fill:#ae7181;stroke:#000000;stroke-linejoin:bevel;" x="638.4758" xlink:href="#mbae73a3ce3" y="318.54392"/>
     <use style="fill:#ae7181;stroke:#000000;stroke-linejoin:bevel;" x="666.463261" xlink:href="#mbae73a3ce3" y="313.226593"/>
     <use style="fill:#ae7181;stroke:#000000;stroke-linejoin:bevel;" x="694.450722" xlink:href="#mbae73a3ce3" y="308.642391"/>
     <use style="fill:#ae7181;stroke:#000000;stroke-linejoin:bevel;" x="722.438183" xlink:href="#mbae73a3ce3" y="304.539461"/>
     <use style="fill:#ae7181;stroke:#000000;stroke-linejoin:bevel;" x="750.425644" xlink:href="#mbae73a3ce3" y="301.602772"/>
     <use style="fill:#ae7181;stroke:#000000;stroke-linejoin:bevel;" x="778.413104" xlink:href="#mbae73a3ce3" y="298.018205"/>
     <use style="fill:#ae7181;stroke:#000000;stroke-linejoin:bevel;" x="806.400565" xlink:href="#mbae73a3ce3" y="294.100127"/>
     <use style="fill:#ae7181;stroke:#000000;stroke-linejoin:bevel;" x="834.388026" xlink:href="#mbae73a3ce3" y="290.604994"/>
     <use style="fill:#ae7181;stroke:#000000;stroke-linejoin:bevel;" x="862.375487" xlink:href="#mbae73a3ce3" y="288.69845"/>
     <use style="fill:#ae7181;stroke:#000000;stroke-linejoin:bevel;" x="890.362948" xlink:href="#mbae73a3ce3" y="285.68429"/>
     <use style="fill:#ae7181;stroke:#000000;stroke-linejoin:bevel;" x="918.350409" xlink:href="#mbae73a3ce3" y="282.786785"/>
     <use style="fill:#ae7181;stroke:#000000;stroke-linejoin:bevel;" x="946.337869" xlink:href="#mbae73a3ce3" y="280.086994"/>
    </g>
   </g>
   <g id="line2d_35">
    <path clip-path="url(#p67d2fe3e39)" d="M 134.701506 929.848725 
L 162.688966 454.580997 
L 190.676427 363.216708 
L 218.663888 309.101229 
L 246.651349 270.789074 
L 274.63881 241.090468 
L 302.626271 218.68094 
L 330.613731 200.069846 
L 358.601192 184.315278 
L 386.588653 169.200214 
L 414.576114 156.754132 
L 442.563575 145.527533 
L 470.551035 136.096508 
L 498.538496 128.386279 
L 526.525957 120.079319 
L 554.513418 113.220963 
L 582.500879 107.414886 
L 610.48834 101.579495 
L 638.4758 95.61728 
L 666.463261 89.317368 
L 694.450722 85.883852 
L 722.438183 82.350434 
L 750.425644 78.443722 
L 778.413104 75.017385 
L 806.400565 70.438567 
L 834.388026 66.644023 
L 862.375487 64.558011 
L 890.362948 62.906908 
L 918.350409 59.734518 
L 946.337869 56.883974 
" style="fill:none;stroke:#ff9408;stroke-dasharray:5.55,2.4;stroke-dashoffset:0;stroke-width:1.5;"/>
    <defs>
     <path d="M 0 2.25 
C 0.596707 2.25 1.169055 2.012926 1.59099 1.59099 
C 2.012926 1.169055 2.25 0.596707 2.25 0 
C 2.25 -0.596707 2.012926 -1.169055 1.59099 -1.59099 
C 1.169055 -2.012926 0.596707 -2.25 0 -2.25 
C -0.596707 -2.25 -1.169055 -2.012926 -1.59099 -1.59099 
C -2.012926 -1.169055 -2.25 -0.596707 -2.25 0 
C -2.25 0.596707 -2.012926 1.169055 -1.59099 1.59099 
C -1.169055 2.012926 -0.596707 2.25 0 2.25 
z
" id="m3042f8f768" style="stroke:#000000;"/>
    </defs>
    <g clip-path="url(#p67d2fe3e39)">
     <use style="fill:#ff9408;stroke:#000000;" x="134.701506" xlink:href="#m3042f8f768" y="929.848725"/>
     <use style="fill:#ff9408;stroke:#000000;" x="162.688966" xlink:href="#m3042f8f768" y="454.580997"/>
     <use style="fill:#ff9408;stroke:#000000;" x="190.676427" xlink:href="#m3042f8f768" y="363.216708"/>
     <use style="fill:#ff9408;stroke:#000000;" x="218.663888" xlink:href="#m3042f8f768" y="309.101229"/>
     <use style="fill:#ff9408;stroke:#000000;" x="246.651349" xlink:href="#m3042f8f768" y="270.789074"/>
     <use style="fill:#ff9408;stroke:#000000;" x="274.63881" xlink:href="#m3042f8f768" y="241.090468"/>
     <use style="fill:#ff9408;stroke:#000000;" x="302.626271" xlink:href="#m3042f8f768" y="218.68094"/>
     <use style="fill:#ff9408;stroke:#000000;" x="330.613731" xlink:href="#m3042f8f768" y="200.069846"/>
     <use style="fill:#ff9408;stroke:#000000;" x="358.601192" xlink:href="#m3042f8f768" y="184.315278"/>
     <use style="fill:#ff9408;stroke:#000000;" x="386.588653" xlink:href="#m3042f8f768" y="169.200214"/>
     <use style="fill:#ff9408;stroke:#000000;" x="414.576114" xlink:href="#m3042f8f768" y="156.754132"/>
     <use style="fill:#ff9408;stroke:#000000;" x="442.563575" xlink:href="#m3042f8f768" y="145.527533"/>
     <use style="fill:#ff9408;stroke:#000000;" x="470.551035" xlink:href="#m3042f8f768" y="136.096508"/>
     <use style="fill:#ff9408;stroke:#000000;" x="498.538496" xlink:href="#m3042f8f768" y="128.386279"/>
     <use style="fill:#ff9408;stroke:#000000;" x="526.525957" xlink:href="#m3042f8f768" y="120.079319"/>
     <use style="fill:#ff9408;stroke:#000000;" x="554.513418" xlink:href="#m3042f8f768" y="113.220963"/>
     <use style="fill:#ff9408;stroke:#000000;" x="582.500879" xlink:href="#m3042f8f768" y="107.414886"/>
     <use style="fill:#ff9408;stroke:#000000;" x="610.48834" xlink:href="#m3042f8f768" y="101.579495"/>
     <use style="fill:#ff9408;stroke:#000000;" x="638.4758" xlink:href="#m3042f8f768" y="95.61728"/>
     <use style="fill:#ff9408;stroke:#000000;" x="666.463261" xlink:href="#m3042f8f768" y="89.317368"/>
     <use style="fill:#ff9408;stroke:#000000;" x="694.450722" xlink:href="#m3042f8f768" y="85.883852"/>
     <use style="fill:#ff9408;stroke:#000000;" x="722.438183" xlink:href="#m3042f8f768" y="82.350434"/>
     <use style="fill:#ff9408;stroke:#000000;" x="750.425644" xlink:href="#m3042f8f768" y="78.443722"/>
     <use style="fill:#ff9408;stroke:#000000;" x="778.413104" xlink:href="#m3042f8f768" y="75.017385"/>
     <use style="fill:#ff9408;stroke:#000000;" x="806.400565" xlink:href="#m3042f8f768" y="70.438567"/>
     <use style="fill:#ff9408;stroke:#000000;" x="834.388026" xlink:href="#m3042f8f768" y="66.644023"/>
     <use style="fill:#ff9408;stroke:#000000;" x="862.375487" xlink:href="#m3042f8f768" y="64.558011"/>
     <use style="fill:#ff9408;stroke:#000000;" x="890.362948" xlink:href="#m3042f8f768" y="62.906908"/>
     <use style="fill:#ff9408;stroke:#000000;" x="918.350409" xlink:href="#m3042f8f768" y="59.734518"/>
     <use style="fill:#ff9408;stroke:#000000;" x="946.337869" xlink:href="#m3042f8f768" y="56.883974"/>
    </g>
   </g>
   <g id="line2d_36">
    <path clip-path="url(#p67d2fe3e39)" d="M 134.701506 929.848725 
L 162.688966 512.806884 
L 190.676427 441.830419 
L 218.663888 399.107247 
L 246.651349 369.284211 
L 274.63881 346.796615 
L 302.626271 328.26329 
L 330.613731 313.433579 
L 358.601192 302.001788 
L 386.588653 289.106739 
L 414.576114 280.091779 
L 442.563575 271.652014 
L 470.551035 263.329501 
L 498.538496 258.09772 
L 526.525957 251.636884 
L 554.513418 245.327699 
L 582.500879 240.537109 
L 610.48834 236.419523 
L 638.4758 230.497689 
L 666.463261 227.37884 
L 694.450722 223.262151 
L 722.438183 220.489376 
L 750.425644 217.230244 
L 778.413104 214.671035 
L 806.400565 211.376607 
L 834.388026 208.735142 
L 862.375487 207.11096 
L 890.362948 204.148547 
L 918.350409 202.406515 
L 946.337869 200.291788 
" style="fill:none;stroke:#ff81c0;stroke-dasharray:5.55,2.4;stroke-dashoffset:0;stroke-width:1.5;"/>
    <defs>
     <path d="M 4.5 0 
L -4.5 -4.5 
L -4.5 4.5 
z
" id="mf87d106f64" style="stroke:#000000;stroke-linejoin:miter;"/>
    </defs>
    <g clip-path="url(#p67d2fe3e39)">
     <use style="fill:#ff81c0;stroke:#000000;stroke-linejoin:miter;" x="134.701506" xlink:href="#mf87d106f64" y="929.848725"/>
     <use style="fill:#ff81c0;stroke:#000000;stroke-linejoin:miter;" x="162.688966" xlink:href="#mf87d106f64" y="512.806884"/>
     <use style="fill:#ff81c0;stroke:#000000;stroke-linejoin:miter;" x="190.676427" xlink:href="#mf87d106f64" y="441.830419"/>
     <use style="fill:#ff81c0;stroke:#000000;stroke-linejoin:miter;" x="218.663888" xlink:href="#mf87d106f64" y="399.107247"/>
     <use style="fill:#ff81c0;stroke:#000000;stroke-linejoin:miter;" x="246.651349" xlink:href="#mf87d106f64" y="369.284211"/>
     <use style="fill:#ff81c0;stroke:#000000;stroke-linejoin:miter;" x="274.63881" xlink:href="#mf87d106f64" y="346.796615"/>
     <use style="fill:#ff81c0;stroke:#000000;stroke-linejoin:miter;" x="302.626271" xlink:href="#mf87d106f64" y="328.26329"/>
     <use style="fill:#ff81c0;stroke:#000000;stroke-linejoin:miter;" x="330.613731" xlink:href="#mf87d106f64" y="313.433579"/>
     <use style="fill:#ff81c0;stroke:#000000;stroke-linejoin:miter;" x="358.601192" xlink:href="#mf87d106f64" y="302.001788"/>
     <use style="fill:#ff81c0;stroke:#000000;stroke-linejoin:miter;" x="386.588653" xlink:href="#mf87d106f64" y="289.106739"/>
     <use style="fill:#ff81c0;stroke:#000000;stroke-linejoin:miter;" x="414.576114" xlink:href="#mf87d106f64" y="280.091779"/>
     <use style="fill:#ff81c0;stroke:#000000;stroke-linejoin:miter;" x="442.563575" xlink:href="#mf87d106f64" y="271.652014"/>
     <use style="fill:#ff81c0;stroke:#000000;stroke-linejoin:miter;" x="470.551035" xlink:href="#mf87d106f64" y="263.329501"/>
     <use style="fill:#ff81c0;stroke:#000000;stroke-linejoin:miter;" x="498.538496" xlink:href="#mf87d106f64" y="258.09772"/>
     <use style="fill:#ff81c0;stroke:#000000;stroke-linejoin:miter;" x="526.525957" xlink:href="#mf87d106f64" y="251.636884"/>
     <use style="fill:#ff81c0;stroke:#000000;stroke-linejoin:miter;" x="554.513418" xlink:href="#mf87d106f64" y="245.327699"/>
     <use style="fill:#ff81c0;stroke:#000000;stroke-linejoin:miter;" x="582.500879" xlink:href="#mf87d106f64" y="240.537109"/>
     <use style="fill:#ff81c0;stroke:#000000;stroke-linejoin:miter;" x="610.48834" xlink:href="#mf87d106f64" y="236.419523"/>
     <use style="fill:#ff81c0;stroke:#000000;stroke-linejoin:miter;" x="638.4758" xlink:href="#mf87d106f64" y="230.497689"/>
     <use style="fill:#ff81c0;stroke:#000000;stroke-linejoin:miter;" x="666.463261" xlink:href="#mf87d106f64" y="227.37884"/>
     <use style="fill:#ff81c0;stroke:#000000;stroke-linejoin:miter;" x="694.450722" xlink:href="#mf87d106f64" y="223.262151"/>
     <use style="fill:#ff81c0;stroke:#000000;stroke-linejoin:miter;" x="722.438183" xlink:href="#mf87d106f64" y="220.489376"/>
     <use style="fill:#ff81c0;stroke:#000000;stroke-linejoin:miter;" x="750.425644" xlink:href="#mf87d106f64" y="217.230244"/>
     <use style="fill:#ff81c0;stroke:#000000;stroke-linejoin:miter;" x="778.413104" xlink:href="#mf87d106f64" y="214.671035"/>
     <use style="fill:#ff81c0;stroke:#000000;stroke-linejoin:miter;" x="806.400565" xlink:href="#mf87d106f64" y="211.376607"/>
     <use style="fill:#ff81c0;stroke:#000000;stroke-linejoin:miter;" x="834.388026" xlink:href="#mf87d106f64" y="208.735142"/>
     <use style="fill:#ff81c0;stroke:#000000;stroke-linejoin:miter;" x="862.375487" xlink:href="#mf87d106f64" y="207.11096"/>
     <use style="fill:#ff81c0;stroke:#000000;stroke-linejoin:miter;" x="890.362948" xlink:href="#mf87d106f64" y="204.148547"/>
     <use style="fill:#ff81c0;stroke:#000000;stroke-linejoin:miter;" x="918.350409" xlink:href="#mf87d106f64" y="202.406515"/>
     <use style="fill:#ff81c0;stroke:#000000;stroke-linejoin:miter;" x="946.337869" xlink:href="#mf87d106f64" y="200.291788"/>
    </g>
   </g>
   <g id="patch_3">
    <path d="M 94.119688 1005.12 
L 94.119688 7.2 
" style="fill:none;stroke:#000000;stroke-linecap:square;stroke-linejoin:miter;stroke-width:0.8;"/>
   </g>
   <g id="patch_4">
    <path d="M 986.919688 1005.12 
L 986.919688 7.2 
" style="fill:none;stroke:#000000;stroke-linecap:square;stroke-linejoin:miter;stroke-width:0.8;"/>
   </g>
   <g id="patch_5">
    <path d="M 94.119688 1005.12 
L 986.919687 1005.12 
" style="fill:none;stroke:#000000;stroke-linecap:square;stroke-linejoin:miter;stroke-width:0.8;"/>
   </g>
   <g id="patch_6">
    <path d="M 94.119688 7.2 
L 986.919687 7.2 
" style="fill:none;stroke:#000000;stroke-linecap:square;stroke-linejoin:miter;stroke-width:0.8;"/>
   </g>
   <g id="legend_1">
    <g id="patch_7">
     <path d="M 437.427969 985.62 
L 959.619688 985.62 
Q 967.419688 985.62 967.419688 977.82 
L 967.419688 638.251875 
Q 967.419688 630.451875 959.619688 630.451875 
L 437.427969 630.451875 
Q 429.627969 630.451875 429.627969 638.251875 
L 429.627969 977.82 
Q 429.627969 985.62 437.427969 985.62 
z
" style="fill:#ffffff;opacity:0.8;stroke:#cccccc;stroke-linejoin:miter;"/>
    </g>
    <g id="line2d_37">
     <path d="M 445.227969 662.035781 
L 523.227969 662.035781 
" style="fill:none;stroke:#fe0002;stroke-dasharray:5.55,2.4;stroke-dashoffset:0;stroke-width:1.5;"/>
    </g>
    <g id="line2d_38">
     <g>
      <use style="fill:#fe0002;stroke:#000000;" x="484.227969" xlink:href="#m6cbe9d3e31" y="662.035781"/>
     </g>
    </g>
    <g id="text_18">
     <!-- Pairing links -->
     <g transform="translate(554.427969 675.685781)scale(0.39 -0.39)">
      <defs>
       <path d="M 1259 4147 
L 1259 2394 
L 2053 2394 
Q 2494 2394 2734 2622 
Q 2975 2850 2975 3272 
Q 2975 3691 2734 3919 
Q 2494 4147 2053 4147 
L 1259 4147 
z
M 628 4666 
L 2053 4666 
Q 2838 4666 3239 4311 
Q 3641 3956 3641 3272 
Q 3641 2581 3239 2228 
Q 2838 1875 2053 1875 
L 1259 1875 
L 1259 0 
L 628 0 
L 628 4666 
z
" id="DejaVuSans-50" transform="scale(0.015625)"/>
      </defs>
      <use xlink:href="#DejaVuSans-50"/>
      <use x="55.802734" xlink:href="#DejaVuSans-61"/>
      <use x="117.082031" xlink:href="#DejaVuSans-69"/>
      <use x="144.865234" xlink:href="#DejaVuSans-72"/>
      <use x="185.978516" xlink:href="#DejaVuSans-69"/>
      <use x="213.761719" xlink:href="#DejaVuSans-6e"/>
      <use x="277.140625" xlink:href="#DejaVuSans-67"/>
      <use x="340.617188" xlink:href="#DejaVuSans-20"/>
      <use x="372.404297" xlink:href="#DejaVuSans-6c"/>
      <use x="400.1875" xlink:href="#DejaVuSans-69"/>
      <use x="427.970703" xlink:href="#DejaVuSans-6e"/>
      <use x="491.349609" xlink:href="#DejaVuSans-6b"/>
      <use x="549.259766" xlink:href="#DejaVuSans-73"/>
     </g>
    </g>
    <g id="line2d_39">
     <path d="M 445.227969 719.280469 
L 523.227969 719.280469 
" style="fill:none;stroke:#53fca1;stroke-dasharray:5.55,2.4;stroke-dashoffset:0;stroke-width:1.5;"/>
    </g>
    <g id="line2d_40">
     <g>
      <use style="fill:#53fca1;stroke:#000000;stroke-linejoin:miter;" x="484.227969" xlink:href="#m0893c52789" y="719.280469"/>
     </g>
    </g>
    <g id="text_19">
     <!-- Smooth links -->
     <g transform="translate(554.427969 732.930469)scale(0.39 -0.39)">
      <defs>
       <path d="M 3425 4513 
L 3425 3897 
Q 3066 4069 2747 4153 
Q 2428 4238 2131 4238 
Q 1616 4238 1336 4038 
Q 1056 3838 1056 3469 
Q 1056 3159 1242 3001 
Q 1428 2844 1947 2747 
L 2328 2669 
Q 3034 2534 3370 2195 
Q 3706 1856 3706 1288 
Q 3706 609 3251 259 
Q 2797 -91 1919 -91 
Q 1588 -91 1214 -16 
Q 841 59 441 206 
L 441 856 
Q 825 641 1194 531 
Q 1563 422 1919 422 
Q 2459 422 2753 634 
Q 3047 847 3047 1241 
Q 3047 1584 2836 1778 
Q 2625 1972 2144 2069 
L 1759 2144 
Q 1053 2284 737 2584 
Q 422 2884 422 3419 
Q 422 4038 858 4394 
Q 1294 4750 2059 4750 
Q 2388 4750 2728 4690 
Q 3069 4631 3425 4513 
z
" id="DejaVuSans-53" transform="scale(0.015625)"/>
       <path d="M 3513 2113 
L 3513 0 
L 2938 0 
L 2938 2094 
Q 2938 2591 2744 2837 
Q 2550 3084 2163 3084 
Q 1697 3084 1428 2787 
Q 1159 2491 1159 1978 
L 1159 0 
L 581 0 
L 581 4863 
L 1159 4863 
L 1159 2956 
Q 1366 3272 1645 3428 
Q 1925 3584 2291 3584 
Q 2894 3584 3203 3211 
Q 3513 2838 3513 2113 
z
" id="DejaVuSans-68" transform="scale(0.015625)"/>
      </defs>
      <use xlink:href="#DejaVuSans-53"/>
      <use x="63.476562" xlink:href="#DejaVuSans-6d"/>
      <use x="160.888672" xlink:href="#DejaVuSans-6f"/>
      <use x="222.070312" xlink:href="#DejaVuSans-6f"/>
      <use x="283.251953" xlink:href="#DejaVuSans-74"/>
      <use x="322.460938" xlink:href="#DejaVuSans-68"/>
      <use x="385.839844" xlink:href="#DejaVuSans-20"/>
      <use x="417.626953" xlink:href="#DejaVuSans-6c"/>
      <use x="445.410156" xlink:href="#DejaVuSans-69"/>
      <use x="473.193359" xlink:href="#DejaVuSans-6e"/>
      <use x="536.572266" xlink:href="#DejaVuSans-6b"/>
      <use x="594.482422" xlink:href="#DejaVuSans-73"/>
     </g>
    </g>
    <g id="line2d_41">
     <path d="M 445.227969 776.525156 
L 523.227969 776.525156 
" style="fill:none;stroke:#0652ff;stroke-dasharray:5.55,2.4;stroke-dashoffset:0;stroke-width:1.5;"/>
    </g>
    <g id="line2d_42">
     <g>
      <use style="fill:#0652ff;stroke:#000000;stroke-linejoin:miter;" x="484.227969" xlink:href="#m3df12ed41c" y="776.525156"/>
     </g>
    </g>
    <g id="text_20">
     <!-- Slim links -->
     <g transform="translate(554.427969 790.175156)scale(0.39 -0.39)">
      <use xlink:href="#DejaVuSans-53"/>
      <use x="63.476562" xlink:href="#DejaVuSans-6c"/>
      <use x="91.259766" xlink:href="#DejaVuSans-69"/>
      <use x="119.042969" xlink:href="#DejaVuSans-6d"/>
      <use x="216.455078" xlink:href="#DejaVuSans-20"/>
      <use x="248.242188" xlink:href="#DejaVuSans-6c"/>
      <use x="276.025391" xlink:href="#DejaVuSans-69"/>
      <use x="303.808594" xlink:href="#DejaVuSans-6e"/>
      <use x="367.1875" xlink:href="#DejaVuSans-6b"/>
      <use x="425.097656" xlink:href="#DejaVuSans-73"/>
     </g>
    </g>
    <g id="line2d_43">
     <path d="M 445.227969 833.769844 
L 523.227969 833.769844 
" style="fill:none;stroke:#ae7181;stroke-dasharray:5.55,2.4;stroke-dashoffset:0;stroke-width:1.5;"/>
    </g>
    <g id="line2d_44">
     <g>
      <use style="fill:#ae7181;stroke:#000000;stroke-linejoin:bevel;" x="484.227969" xlink:href="#mbae73a3ce3" y="833.769844"/>
     </g>
    </g>
    <g id="text_21">
     <!-- Pairing Lazy links -->
     <g transform="translate(554.427969 847.419844)scale(0.39 -0.39)">
      <use xlink:href="#DejaVuSans-50"/>
      <use x="55.802734" xlink:href="#DejaVuSans-61"/>
      <use x="117.082031" xlink:href="#DejaVuSans-69"/>
      <use x="144.865234" xlink:href="#DejaVuSans-72"/>
      <use x="185.978516" xlink:href="#DejaVuSans-69"/>
      <use x="213.761719" xlink:href="#DejaVuSans-6e"/>
      <use x="277.140625" xlink:href="#DejaVuSans-67"/>
      <use x="340.617188" xlink:href="#DejaVuSans-20"/>
      <use x="372.404297" xlink:href="#DejaVuSans-4c"/>
      <use x="428.117188" xlink:href="#DejaVuSans-61"/>
      <use x="489.396484" xlink:href="#DejaVuSans-7a"/>
      <use x="541.886719" xlink:href="#DejaVuSans-79"/>
      <use x="601.066406" xlink:href="#DejaVuSans-20"/>
      <use x="632.853516" xlink:href="#DejaVuSans-6c"/>
      <use x="660.636719" xlink:href="#DejaVuSans-69"/>
      <use x="688.419922" xlink:href="#DejaVuSans-6e"/>
      <use x="751.798828" xlink:href="#DejaVuSans-6b"/>
      <use x="809.708984" xlink:href="#DejaVuSans-73"/>
     </g>
    </g>
    <g id="line2d_45">
     <path d="M 445.227969 891.014531 
L 523.227969 891.014531 
" style="fill:none;stroke:#ff9408;stroke-dasharray:5.55,2.4;stroke-dashoffset:0;stroke-width:1.5;"/>
    </g>
    <g id="line2d_46">
     <g>
      <use style="fill:#ff9408;stroke:#000000;" x="484.227969" xlink:href="#m3042f8f768" y="891.014531"/>
     </g>
    </g>
    <g id="text_22">
     <!-- Pairing Slim links -->
     <g transform="translate(554.427969 904.664531)scale(0.39 -0.39)">
      <use xlink:href="#DejaVuSans-50"/>
      <use x="55.802734" xlink:href="#DejaVuSans-61"/>
      <use x="117.082031" xlink:href="#DejaVuSans-69"/>
      <use x="144.865234" xlink:href="#DejaVuSans-72"/>
      <use x="185.978516" xlink:href="#DejaVuSans-69"/>
      <use x="213.761719" xlink:href="#DejaVuSans-6e"/>
      <use x="277.140625" xlink:href="#DejaVuSans-67"/>
      <use x="340.617188" xlink:href="#DejaVuSans-20"/>
      <use x="372.404297" xlink:href="#DejaVuSans-53"/>
      <use x="435.880859" xlink:href="#DejaVuSans-6c"/>
      <use x="463.664062" xlink:href="#DejaVuSans-69"/>
      <use x="491.447266" xlink:href="#DejaVuSans-6d"/>
      <use x="588.859375" xlink:href="#DejaVuSans-20"/>
      <use x="620.646484" xlink:href="#DejaVuSans-6c"/>
      <use x="648.429688" xlink:href="#DejaVuSans-69"/>
      <use x="676.212891" xlink:href="#DejaVuSans-6e"/>
      <use x="739.591797" xlink:href="#DejaVuSans-6b"/>
      <use x="797.501953" xlink:href="#DejaVuSans-73"/>
     </g>
    </g>
    <g id="line2d_47">
     <path d="M 445.227969 948.259219 
L 523.227969 948.259219 
" style="fill:none;stroke:#ff81c0;stroke-dasharray:5.55,2.4;stroke-dashoffset:0;stroke-width:1.5;"/>
    </g>
    <g id="line2d_48">
     <g>
      <use style="fill:#ff81c0;stroke:#000000;stroke-linejoin:miter;" x="484.227969" xlink:href="#mf87d106f64" y="948.259219"/>
     </g>
    </g>
    <g id="text_23">
     <!-- Pairing Smooth links -->
     <g transform="translate(554.427969 961.909219)scale(0.39 -0.39)">
      <use xlink:href="#DejaVuSans-50"/>
      <use x="55.802734" xlink:href="#DejaVuSans-61"/>
      <use x="117.082031" xlink:href="#DejaVuSans-69"/>
      <use x="144.865234" xlink:href="#DejaVuSans-72"/>
      <use x="185.978516" xlink:href="#DejaVuSans-69"/>
      <use x="213.761719" xlink:href="#DejaVuSans-6e"/>
      <use x="277.140625" xlink:href="#DejaVuSans-67"/>
      <use x="340.617188" xlink:href="#DejaVuSans-20"/>
      <use x="372.404297" xlink:href="#DejaVuSans-53"/>
      <use x="435.880859" xlink:href="#DejaVuSans-6d"/>
      <use x="533.292969" xlink:href="#DejaVuSans-6f"/>
      <use x="594.474609" xlink:href="#DejaVuSans-6f"/>
      <use x="655.65625" xlink:href="#DejaVuSans-74"/>
      <use x="694.865234" xlink:href="#DejaVuSans-68"/>
      <use x="758.244141" xlink:href="#DejaVuSans-20"/>
      <use x="790.03125" xlink:href="#DejaVuSans-6c"/>
      <use x="817.814453" xlink:href="#DejaVuSans-69"/>
      <use x="845.597656" xlink:href="#DejaVuSans-6e"/>
      <use x="908.976562" xlink:href="#DejaVuSans-6b"/>
      <use x="966.886719" xlink:href="#DejaVuSans-73"/>
     </g>
    </g>
   </g>
  </g>
 </g>
 <defs>
  <clipPath id="p67d2fe3e39">
   <rect height="997.92" width="892.8" x="94.119688" y="7.2"/>
  </clipPath>
 </defs>
</svg>
