<?xml version="1.0" encoding="utf-8" standalone="no"?>
<!DOCTYPE svg PUBLIC "-//W3C//DTD SVG 1.1//EN"
  "http://www.w3.org/Graphics/SVG/1.1/DTD/svg11.dtd">
<svg height="1093.382467pt" version="1.1" viewBox="0 0 994.119687 1093.382467" width="994.119687pt" xmlns="http://www.w3.org/2000/svg" xmlns:xlink="http://www.w3.org/1999/xlink">
 <metadata>
  <rdf:RDF xmlns:cc="http://creativecommons.org/ns#" xmlns:dc="http://purl.org/dc/elements/1.1/" xmlns:rdf="http://www.w3.org/1999/02/22-rdf-syntax-ns#">
   <cc:Work>
    <dc:type rdf:resource="http://purl.org/dc/dcmitype/StillImage"/>
    <dc:date>2021-06-24T16:03:00.497522</dc:date>
    <dc:format>image/svg+xml</dc:format>
    <dc:creator>
     <cc:Agent>
      <dc:title>Matplotlib v3.4.2, https://matplotlib.org/</dc:title>
     </cc:Agent>
    </dc:creator>
   </cc:Work>
  </rdf:RDF>
 </metadata>
 <defs>
  <style type="text/css">*{stroke-linecap:butt;stroke-linejoin:round;}</style>
 </defs>
 <g id="figure_1">
  <g id="patch_1">
   <path d="M 0 1093.382467 
L 994.119687 1093.382467 
L 994.119687 0 
L 0 0 
z
" style="fill:#ffffff;"/>
  </g>
  <g id="axes_1">
   <g id="patch_2">
    <path d="M 94.119688 1008.403404 
L 986.919688 1008.403404 
L 986.919688 10.483404 
L 94.119688 10.483404 
z
" style="fill:#ffffff;"/>
   </g>
   <g id="PolyCollection_1">
    <defs>
     <path d="M 134.701506 -285.48642 
L 134.701506 -267.836867 
L 177.419209 -326.236123 
L 220.136912 -353.878437 
L 262.854616 -381.520752 
L 305.572319 -388.788215 
L 348.290022 -413.315902 
L 391.007726 -430.446351 
L 433.725429 -429.018814 
L 476.443132 -444.851501 
L 519.160836 -448.874561 
L 561.878539 -460.29486 
L 604.596243 -473.532024 
L 647.313946 -468.081427 
L 690.031649 -467.172994 
L 732.749353 -477.425308 
L 775.467056 -484.173667 
L 818.184759 -486.379861 
L 860.902463 -483.265234 
L 903.620166 -501.82322 
L 946.337869 -495.334413 
L 946.337869 -527.908221 
L 946.337869 -527.908221 
L 903.620166 -542.183594 
L 860.902463 -529.984639 
L 818.184759 -527.518892 
L 775.467056 -531.022848 
L 732.749353 -517.266578 
L 690.031649 -511.426653 
L 647.313946 -504.418742 
L 604.596243 -503.250757 
L 561.878539 -486.769189 
L 519.160836 -480.410159 
L 476.443132 -482.875905 
L 433.725429 -464.577472 
L 391.007726 -467.172994 
L 348.290022 -439.920008 
L 305.572319 -445.240829 
L 262.854616 -405.399559 
L 220.136912 -376.589259 
L 177.419209 -348.42784 
L 134.701506 -285.48642 
z
" id="mc79f72241f" style="stroke:#fe0002;stroke-opacity:0.3;"/>
    </defs>
    <g clip-path="url(#pe278e4a93d)">
     <use style="fill:#fe0002;fill-opacity:0.3;stroke:#fe0002;stroke-opacity:0.3;" x="0" xlink:href="#mc79f72241f" y="1093.382467"/>
    </g>
   </g>
   <g id="PolyCollection_2">
    <g clip-path="url(#pe278e4a93d)">
     <use style="fill:#fe0002;fill-opacity:0.3;stroke:#fe0002;stroke-opacity:0.3;" x="0" xlink:href="#mc79f72241f" y="1093.382467"/>
    </g>
   </g>
   <g id="PolyCollection_3">
    <defs>
     <path d="M 134.701506 -577.612476 
L 134.701506 -547.115087 
L 177.419209 -638.347703 
L 220.136912 -670.142853 
L 262.854616 -709.465019 
L 305.572319 -733.992707 
L 348.290022 -771.627783 
L 391.007726 -794.468381 
L 433.725429 -786.292485 
L 476.443132 -795.247038 
L 519.160836 -824.446666 
L 561.878539 -816.530322 
L 604.596243 -849.363682 
L 647.313946 -854.554727 
L 690.031649 -854.944055 
L 732.749353 -868.8301 
L 775.467056 -876.486892 
L 818.184759 -884.792564 
L 860.902463 -884.273459 
L 903.620166 -896.472415 
L 946.337869 -894.136445 
L 946.337869 -946.176671 
L 946.337869 -946.176671 
L 903.620166 -928.527118 
L 860.902463 -925.801819 
L 818.184759 -926.061371 
L 775.467056 -905.167415 
L 732.749353 -895.044878 
L 690.031649 -895.693758 
L 647.313946 -889.853833 
L 604.596243 -881.418384 
L 561.878539 -859.875548 
L 519.160836 -853.516518 
L 476.443132 -840.019801 
L 433.725429 -829.767487 
L 391.007726 -818.476964 
L 348.290022 -794.208829 
L 305.572319 -768.902484 
L 262.854616 -741.649498 
L 220.136912 -709.075691 
L 177.419209 -676.242331 
L 134.701506 -577.612476 
z
" id="m85b70f013f" style="stroke:#53fca1;stroke-opacity:0.3;"/>
    </defs>
    <g clip-path="url(#pe278e4a93d)">
     <use style="fill:#53fca1;fill-opacity:0.3;stroke:#53fca1;stroke-opacity:0.3;" x="0" xlink:href="#m85b70f013f" y="1093.382467"/>
    </g>
   </g>
   <g id="PolyCollection_4">
    <defs>
     <path d="M 134.701506 -161.939549 
L 134.701506 -145.328205 
L 177.419209 -191.917834 
L 220.136912 -208.010073 
L 262.854616 -230.720895 
L 305.572319 -242.27097 
L 348.290022 -264.203135 
L 391.007726 -273.547016 
L 433.725429 -268.875076 
L 476.443132 -280.035822 
L 519.160836 -292.753883 
L 561.878539 -287.562838 
L 604.596243 -303.525301 
L 647.313946 -303.784853 
L 690.031649 -303.914629 
L 732.749353 -313.128734 
L 775.467056 -318.319779 
L 818.184759 -316.502913 
L 860.902463 -323.770376 
L 903.620166 -327.793436 
L 946.337869 -329.869854 
L 946.337869 -351.023363 
L 946.337869 -351.023363 
L 903.620166 -342.458138 
L 860.902463 -342.977243 
L 818.184759 -344.923885 
L 775.467056 -334.152466 
L 732.749353 -325.846794 
L 690.031649 -332.595153 
L 647.313946 -328.442317 
L 604.596243 -320.266421 
L 561.878539 -307.029256 
L 519.160836 -304.823062 
L 476.443132 -296.906719 
L 433.725429 -292.234778 
L 391.007726 -287.562838 
L 348.290022 -276.661643 
L 305.572319 -260.050299 
L 262.854616 -246.553582 
L 220.136912 -229.682686 
L 177.419209 -210.865148 
L 134.701506 -161.939549 
z
" id="m34c93c775b" style="stroke:#53fca1;stroke-opacity:0.3;"/>
    </defs>
    <g clip-path="url(#pe278e4a93d)">
     <use style="fill:#53fca1;fill-opacity:0.3;stroke:#53fca1;stroke-opacity:0.3;" x="0" xlink:href="#m34c93c775b" y="1093.382467"/>
    </g>
   </g>
   <g id="PolyCollection_5">
    <defs>
     <path d="M 134.701506 -611.094717 
L 134.701506 -567.489939 
L 177.419209 -679.61651 
L 220.136912 -706.609944 
L 262.854616 -751.252931 
L 305.572319 -780.193007 
L 348.290022 -810.56062 
L 391.007726 -835.737189 
L 433.725429 -831.973681 
L 476.443132 -850.661443 
L 519.160836 -863.898608 
L 561.878539 -875.708235 
L 604.596243 -885.052116 
L 647.313946 -898.548833 
L 690.031649 -907.503386 
L 732.749353 -913.213535 
L 775.467056 -921.000102 
L 818.184759 -941.115402 
L 860.902463 -949.680626 
L 903.620166 -945.398014 
L 946.337869 -962.139134 
L 946.337869 -998.865777 
L 946.337869 -998.865777 
L 903.620166 -978.880254 
L 860.902463 -982.254433 
L 818.184759 -979.139806 
L 775.467056 -951.757044 
L 732.749353 -955.520552 
L 690.031649 -950.848611 
L 647.313946 -943.19182 
L 604.596243 -930.863088 
L 561.878539 -915.809057 
L 519.160836 -898.419057 
L 476.443132 -903.220773 
L 433.725429 -883.365026 
L 391.007726 -883.754355 
L 348.290022 -855.982264 
L 305.572319 -808.873531 
L 262.854616 -780.452559 
L 220.136912 -737.496662 
L 177.419209 -704.40375 
L 134.701506 -611.094717 
z
" id="m24b4725dac" style="stroke:#0652ff;stroke-opacity:0.3;"/>
    </defs>
    <g clip-path="url(#pe278e4a93d)">
     <use style="fill:#0652ff;fill-opacity:0.3;stroke:#0652ff;stroke-opacity:0.3;" x="0" xlink:href="#m24b4725dac" y="1093.382467"/>
    </g>
   </g>
   <g id="PolyCollection_6">
    <defs>
     <path d="M 134.701506 -211.903357 
L 134.701506 -188.543654 
L 177.419209 -244.866493 
L 220.136912 -258.103657 
L 262.854616 -283.669554 
L 305.572319 -293.402763 
L 348.290022 -310.92254 
L 391.007726 -327.274332 
L 433.725429 -321.564182 
L 476.443132 -334.282243 
L 519.160836 -341.290153 
L 561.878539 -348.946945 
L 604.596243 -352.4509 
L 647.313946 -361.016124 
L 690.031649 -361.924557 
L 732.749353 -361.016124 
L 775.467056 -365.688065 
L 818.184759 -375.940379 
L 860.902463 -383.726946 
L 903.620166 -380.352767 
L 946.337869 -388.009558 
L 946.337869 -407.216425 
L 946.337869 -407.216425 
L 903.620166 -398.521424 
L 860.902463 -404.101798 
L 818.184759 -398.910753 
L 775.467056 -385.154483 
L 732.749353 -391.773066 
L 690.031649 -383.856722 
L 647.313946 -379.444334 
L 604.596243 -376.459483 
L 561.878539 -368.283587 
L 519.160836 -359.848139 
L 476.443132 -363.222318 
L 433.725429 -348.817169 
L 391.007726 -350.893586 
L 348.290022 -336.228884 
L 305.572319 -316.113585 
L 262.854616 -300.280898 
L 220.136912 -278.997613 
L 177.419209 -262.645822 
L 134.701506 -211.903357 
z
" id="m996dd6bb2a" style="stroke:#0652ff;stroke-opacity:0.3;"/>
    </defs>
    <g clip-path="url(#pe278e4a93d)">
     <use style="fill:#0652ff;fill-opacity:0.3;stroke:#0652ff;stroke-opacity:0.3;" x="0" xlink:href="#m996dd6bb2a" y="1093.382467"/>
    </g>
   </g>
   <g id="PolyCollection_7">
    <defs>
     <path d="M 134.701506 -778.246365 
L 134.701506 -743.206812 
L 177.419209 -826.003979 
L 220.136912 -874.799802 
L 262.854616 -895.563982 
L 305.572319 -919.183237 
L 348.290022 -932.031073 
L 391.007726 -942.023835 
L 433.725429 -951.367716 
L 476.443132 -967.330179 
L 519.160836 -975.246523 
L 561.878539 -967.200403 
L 604.596243 -992.506747 
L 647.313946 -994.583165 
L 690.031649 -987.315702 
L 732.749353 -991.72809 
L 775.467056 -987.705031 
L 818.184759 -998.606225 
L 860.902463 -1003.148389 
L 903.620166 -994.323613 
L 946.337869 -1004.965255 
L 946.337869 -1023.263689 
L 946.337869 -1023.263689 
L 903.620166 -1037.539063 
L 860.902463 -1034.94354 
L 818.184759 -1031.958689 
L 775.467056 -1029.492943 
L 732.749353 -1034.035107 
L 690.031649 -1035.462645 
L 647.313946 -1024.821002 
L 604.596243 -1030.2716 
L 561.878539 -1004.056822 
L 519.160836 -1001.850628 
L 476.443132 -999.12533 
L 433.725429 -996.919135 
L 391.007726 -980.178015 
L 348.290022 -971.612791 
L 305.572319 -943.19182 
L 262.854616 -935.275476 
L 220.136912 -891.28137 
L 177.419209 -869.738533 
L 134.701506 -778.246365 
z
" id="m6c568e3c14" style="stroke:#ae7181;stroke-opacity:0.3;"/>
    </defs>
    <g clip-path="url(#pe278e4a93d)">
     <use style="fill:#ae7181;fill-opacity:0.3;stroke:#ae7181;stroke-opacity:0.3;" x="0" xlink:href="#m6c568e3c14" y="1093.382467"/>
    </g>
   </g>
   <g id="PolyCollection_8">
    <defs>
     <path d="M 134.701506 -147.858839 
L 134.701506 -130.339063 
L 177.419209 -171.737646 
L 220.136912 -196.135558 
L 262.854616 -206.517648 
L 305.572319 -218.327275 
L 348.290022 -224.751193 
L 391.007726 -229.747574 
L 433.725429 -234.419515 
L 476.443132 -242.400746 
L 519.160836 -246.358918 
L 561.878539 -242.335858 
L 604.596243 -254.98903 
L 647.313946 -256.027239 
L 690.031649 -252.393508 
L 732.749353 -254.599702 
L 775.467056 -252.588172 
L 818.184759 -258.038769 
L 860.902463 -260.309851 
L 903.620166 -255.897463 
L 946.337869 -261.218284 
L 946.337869 -270.367501 
L 946.337869 -270.367501 
L 903.620166 -277.505188 
L 860.902463 -276.207427 
L 818.184759 -274.715001 
L 775.467056 -273.482128 
L 732.749353 -275.75321 
L 690.031649 -276.466979 
L 647.313946 -271.146158 
L 604.596243 -273.871456 
L 561.878539 -260.764068 
L 519.160836 -259.660971 
L 476.443132 -258.298321 
L 433.725429 -257.195224 
L 391.007726 -248.824664 
L 348.290022 -244.542052 
L 305.572319 -230.331567 
L 262.854616 -226.373395 
L 220.136912 -204.376342 
L 177.419209 -193.604923 
L 134.701506 -147.858839 
z
" id="mcd090199df" style="stroke:#ae7181;stroke-opacity:0.3;"/>
    </defs>
    <g clip-path="url(#pe278e4a93d)">
     <use style="fill:#ae7181;fill-opacity:0.3;stroke:#ae7181;stroke-opacity:0.3;" x="0" xlink:href="#mcd090199df" y="1093.382467"/>
    </g>
   </g>
   <g id="matplotlib.axis_1">
    <g id="xtick_1">
     <g id="line2d_1">
      <path clip-path="url(#pe278e4a93d)" d="M 262.854616 1008.403404 
L 262.854616 10.483404 
" style="fill:none;stroke:#b0b0b0;stroke-linecap:square;stroke-width:0.8;"/>
     </g>
     <g id="line2d_2">
      <defs>
       <path d="M 0 0 
L 0 3.5 
" id="mbe77bf4dac" style="stroke:#000000;stroke-width:0.8;"/>
      </defs>
      <g>
       <use style="stroke:#000000;stroke-width:0.8;" x="262.854616" xlink:href="#mbe77bf4dac" y="1008.403404"/>
      </g>
     </g>
     <g id="text_1">
      <!-- 0.2 -->
      <g transform="translate(238.999928 1038.198717)scale(0.3 -0.3)">
       <defs>
        <path d="M 2034 4250 
Q 1547 4250 1301 3770 
Q 1056 3291 1056 2328 
Q 1056 1369 1301 889 
Q 1547 409 2034 409 
Q 2525 409 2770 889 
Q 3016 1369 3016 2328 
Q 3016 3291 2770 3770 
Q 2525 4250 2034 4250 
z
M 2034 4750 
Q 2819 4750 3233 4129 
Q 3647 3509 3647 2328 
Q 3647 1150 3233 529 
Q 2819 -91 2034 -91 
Q 1250 -91 836 529 
Q 422 1150 422 2328 
Q 422 3509 836 4129 
Q 1250 4750 2034 4750 
z
" id="DejaVuSans-30" transform="scale(0.015625)"/>
        <path d="M 684 794 
L 1344 794 
L 1344 0 
L 684 0 
L 684 794 
z
" id="DejaVuSans-2e" transform="scale(0.015625)"/>
        <path d="M 1228 531 
L 3431 531 
L 3431 0 
L 469 0 
L 469 531 
Q 828 903 1448 1529 
Q 2069 2156 2228 2338 
Q 2531 2678 2651 2914 
Q 2772 3150 2772 3378 
Q 2772 3750 2511 3984 
Q 2250 4219 1831 4219 
Q 1534 4219 1204 4116 
Q 875 4013 500 3803 
L 500 4441 
Q 881 4594 1212 4672 
Q 1544 4750 1819 4750 
Q 2544 4750 2975 4387 
Q 3406 4025 3406 3419 
Q 3406 3131 3298 2873 
Q 3191 2616 2906 2266 
Q 2828 2175 2409 1742 
Q 1991 1309 1228 531 
z
" id="DejaVuSans-32" transform="scale(0.015625)"/>
       </defs>
       <use xlink:href="#DejaVuSans-30"/>
       <use x="63.623047" xlink:href="#DejaVuSans-2e"/>
       <use x="95.410156" xlink:href="#DejaVuSans-32"/>
      </g>
     </g>
    </g>
    <g id="xtick_2">
     <g id="line2d_3">
      <path clip-path="url(#pe278e4a93d)" d="M 433.725429 1008.403404 
L 433.725429 10.483404 
" style="fill:none;stroke:#b0b0b0;stroke-linecap:square;stroke-width:0.8;"/>
     </g>
     <g id="line2d_4">
      <g>
       <use style="stroke:#000000;stroke-width:0.8;" x="433.725429" xlink:href="#mbe77bf4dac" y="1008.403404"/>
      </g>
     </g>
     <g id="text_2">
      <!-- 0.4 -->
      <g transform="translate(409.870742 1038.198717)scale(0.3 -0.3)">
       <defs>
        <path d="M 2419 4116 
L 825 1625 
L 2419 1625 
L 2419 4116 
z
M 2253 4666 
L 3047 4666 
L 3047 1625 
L 3713 1625 
L 3713 1100 
L 3047 1100 
L 3047 0 
L 2419 0 
L 2419 1100 
L 313 1100 
L 313 1709 
L 2253 4666 
z
" id="DejaVuSans-34" transform="scale(0.015625)"/>
       </defs>
       <use xlink:href="#DejaVuSans-30"/>
       <use x="63.623047" xlink:href="#DejaVuSans-2e"/>
       <use x="95.410156" xlink:href="#DejaVuSans-34"/>
      </g>
     </g>
    </g>
    <g id="xtick_3">
     <g id="line2d_5">
      <path clip-path="url(#pe278e4a93d)" d="M 604.596243 1008.403404 
L 604.596243 10.483404 
" style="fill:none;stroke:#b0b0b0;stroke-linecap:square;stroke-width:0.8;"/>
     </g>
     <g id="line2d_6">
      <g>
       <use style="stroke:#000000;stroke-width:0.8;" x="604.596243" xlink:href="#mbe77bf4dac" y="1008.403404"/>
      </g>
     </g>
     <g id="text_3">
      <!-- 0.6 -->
      <g transform="translate(580.741555 1038.198717)scale(0.3 -0.3)">
       <defs>
        <path d="M 2113 2584 
Q 1688 2584 1439 2293 
Q 1191 2003 1191 1497 
Q 1191 994 1439 701 
Q 1688 409 2113 409 
Q 2538 409 2786 701 
Q 3034 994 3034 1497 
Q 3034 2003 2786 2293 
Q 2538 2584 2113 2584 
z
M 3366 4563 
L 3366 3988 
Q 3128 4100 2886 4159 
Q 2644 4219 2406 4219 
Q 1781 4219 1451 3797 
Q 1122 3375 1075 2522 
Q 1259 2794 1537 2939 
Q 1816 3084 2150 3084 
Q 2853 3084 3261 2657 
Q 3669 2231 3669 1497 
Q 3669 778 3244 343 
Q 2819 -91 2113 -91 
Q 1303 -91 875 529 
Q 447 1150 447 2328 
Q 447 3434 972 4092 
Q 1497 4750 2381 4750 
Q 2619 4750 2861 4703 
Q 3103 4656 3366 4563 
z
" id="DejaVuSans-36" transform="scale(0.015625)"/>
       </defs>
       <use xlink:href="#DejaVuSans-30"/>
       <use x="63.623047" xlink:href="#DejaVuSans-2e"/>
       <use x="95.410156" xlink:href="#DejaVuSans-36"/>
      </g>
     </g>
    </g>
    <g id="xtick_4">
     <g id="line2d_7">
      <path clip-path="url(#pe278e4a93d)" d="M 775.467056 1008.403404 
L 775.467056 10.483404 
" style="fill:none;stroke:#b0b0b0;stroke-linecap:square;stroke-width:0.8;"/>
     </g>
     <g id="line2d_8">
      <g>
       <use style="stroke:#000000;stroke-width:0.8;" x="775.467056" xlink:href="#mbe77bf4dac" y="1008.403404"/>
      </g>
     </g>
     <g id="text_4">
      <!-- 0.8 -->
      <g transform="translate(751.612368 1038.198717)scale(0.3 -0.3)">
       <defs>
        <path d="M 2034 2216 
Q 1584 2216 1326 1975 
Q 1069 1734 1069 1313 
Q 1069 891 1326 650 
Q 1584 409 2034 409 
Q 2484 409 2743 651 
Q 3003 894 3003 1313 
Q 3003 1734 2745 1975 
Q 2488 2216 2034 2216 
z
M 1403 2484 
Q 997 2584 770 2862 
Q 544 3141 544 3541 
Q 544 4100 942 4425 
Q 1341 4750 2034 4750 
Q 2731 4750 3128 4425 
Q 3525 4100 3525 3541 
Q 3525 3141 3298 2862 
Q 3072 2584 2669 2484 
Q 3125 2378 3379 2068 
Q 3634 1759 3634 1313 
Q 3634 634 3220 271 
Q 2806 -91 2034 -91 
Q 1263 -91 848 271 
Q 434 634 434 1313 
Q 434 1759 690 2068 
Q 947 2378 1403 2484 
z
M 1172 3481 
Q 1172 3119 1398 2916 
Q 1625 2713 2034 2713 
Q 2441 2713 2670 2916 
Q 2900 3119 2900 3481 
Q 2900 3844 2670 4047 
Q 2441 4250 2034 4250 
Q 1625 4250 1398 4047 
Q 1172 3844 1172 3481 
z
" id="DejaVuSans-38" transform="scale(0.015625)"/>
       </defs>
       <use xlink:href="#DejaVuSans-30"/>
       <use x="63.623047" xlink:href="#DejaVuSans-2e"/>
       <use x="95.410156" xlink:href="#DejaVuSans-38"/>
      </g>
     </g>
    </g>
    <g id="xtick_5">
     <g id="line2d_9">
      <path clip-path="url(#pe278e4a93d)" d="M 946.337869 1008.403404 
L 946.337869 10.483404 
" style="fill:none;stroke:#b0b0b0;stroke-linecap:square;stroke-width:0.8;"/>
     </g>
     <g id="line2d_10">
      <g>
       <use style="stroke:#000000;stroke-width:0.8;" x="946.337869" xlink:href="#mbe77bf4dac" y="1008.403404"/>
      </g>
     </g>
     <g id="text_5">
      <!-- 1.0 -->
      <g transform="translate(922.483182 1038.198717)scale(0.3 -0.3)">
       <defs>
        <path d="M 794 531 
L 1825 531 
L 1825 4091 
L 703 3866 
L 703 4441 
L 1819 4666 
L 2450 4666 
L 2450 531 
L 3481 531 
L 3481 0 
L 794 0 
L 794 531 
z
" id="DejaVuSans-31" transform="scale(0.015625)"/>
       </defs>
       <use xlink:href="#DejaVuSans-31"/>
       <use x="63.623047" xlink:href="#DejaVuSans-2e"/>
       <use x="95.410156" xlink:href="#DejaVuSans-30"/>
      </g>
     </g>
    </g>
    <g id="text_6">
     <!-- Edge probability -->
     <g transform="translate(381.207734 1078.071685)scale(0.39 -0.39)">
      <defs>
       <path d="M 628 4666 
L 3578 4666 
L 3578 4134 
L 1259 4134 
L 1259 2753 
L 3481 2753 
L 3481 2222 
L 1259 2222 
L 1259 531 
L 3634 531 
L 3634 0 
L 628 0 
L 628 4666 
z
" id="DejaVuSans-45" transform="scale(0.015625)"/>
       <path d="M 2906 2969 
L 2906 4863 
L 3481 4863 
L 3481 0 
L 2906 0 
L 2906 525 
Q 2725 213 2448 61 
Q 2172 -91 1784 -91 
Q 1150 -91 751 415 
Q 353 922 353 1747 
Q 353 2572 751 3078 
Q 1150 3584 1784 3584 
Q 2172 3584 2448 3432 
Q 2725 3281 2906 2969 
z
M 947 1747 
Q 947 1113 1208 752 
Q 1469 391 1925 391 
Q 2381 391 2643 752 
Q 2906 1113 2906 1747 
Q 2906 2381 2643 2742 
Q 2381 3103 1925 3103 
Q 1469 3103 1208 2742 
Q 947 2381 947 1747 
z
" id="DejaVuSans-64" transform="scale(0.015625)"/>
       <path d="M 2906 1791 
Q 2906 2416 2648 2759 
Q 2391 3103 1925 3103 
Q 1463 3103 1205 2759 
Q 947 2416 947 1791 
Q 947 1169 1205 825 
Q 1463 481 1925 481 
Q 2391 481 2648 825 
Q 2906 1169 2906 1791 
z
M 3481 434 
Q 3481 -459 3084 -895 
Q 2688 -1331 1869 -1331 
Q 1566 -1331 1297 -1286 
Q 1028 -1241 775 -1147 
L 775 -588 
Q 1028 -725 1275 -790 
Q 1522 -856 1778 -856 
Q 2344 -856 2625 -561 
Q 2906 -266 2906 331 
L 2906 616 
Q 2728 306 2450 153 
Q 2172 0 1784 0 
Q 1141 0 747 490 
Q 353 981 353 1791 
Q 353 2603 747 3093 
Q 1141 3584 1784 3584 
Q 2172 3584 2450 3431 
Q 2728 3278 2906 2969 
L 2906 3500 
L 3481 3500 
L 3481 434 
z
" id="DejaVuSans-67" transform="scale(0.015625)"/>
       <path d="M 3597 1894 
L 3597 1613 
L 953 1613 
Q 991 1019 1311 708 
Q 1631 397 2203 397 
Q 2534 397 2845 478 
Q 3156 559 3463 722 
L 3463 178 
Q 3153 47 2828 -22 
Q 2503 -91 2169 -91 
Q 1331 -91 842 396 
Q 353 884 353 1716 
Q 353 2575 817 3079 
Q 1281 3584 2069 3584 
Q 2775 3584 3186 3129 
Q 3597 2675 3597 1894 
z
M 3022 2063 
Q 3016 2534 2758 2815 
Q 2500 3097 2075 3097 
Q 1594 3097 1305 2825 
Q 1016 2553 972 2059 
L 3022 2063 
z
" id="DejaVuSans-65" transform="scale(0.015625)"/>
       <path id="DejaVuSans-20" transform="scale(0.015625)"/>
       <path d="M 1159 525 
L 1159 -1331 
L 581 -1331 
L 581 3500 
L 1159 3500 
L 1159 2969 
Q 1341 3281 1617 3432 
Q 1894 3584 2278 3584 
Q 2916 3584 3314 3078 
Q 3713 2572 3713 1747 
Q 3713 922 3314 415 
Q 2916 -91 2278 -91 
Q 1894 -91 1617 61 
Q 1341 213 1159 525 
z
M 3116 1747 
Q 3116 2381 2855 2742 
Q 2594 3103 2138 3103 
Q 1681 3103 1420 2742 
Q 1159 2381 1159 1747 
Q 1159 1113 1420 752 
Q 1681 391 2138 391 
Q 2594 391 2855 752 
Q 3116 1113 3116 1747 
z
" id="DejaVuSans-70" transform="scale(0.015625)"/>
       <path d="M 2631 2963 
Q 2534 3019 2420 3045 
Q 2306 3072 2169 3072 
Q 1681 3072 1420 2755 
Q 1159 2438 1159 1844 
L 1159 0 
L 581 0 
L 581 3500 
L 1159 3500 
L 1159 2956 
Q 1341 3275 1631 3429 
Q 1922 3584 2338 3584 
Q 2397 3584 2469 3576 
Q 2541 3569 2628 3553 
L 2631 2963 
z
" id="DejaVuSans-72" transform="scale(0.015625)"/>
       <path d="M 1959 3097 
Q 1497 3097 1228 2736 
Q 959 2375 959 1747 
Q 959 1119 1226 758 
Q 1494 397 1959 397 
Q 2419 397 2687 759 
Q 2956 1122 2956 1747 
Q 2956 2369 2687 2733 
Q 2419 3097 1959 3097 
z
M 1959 3584 
Q 2709 3584 3137 3096 
Q 3566 2609 3566 1747 
Q 3566 888 3137 398 
Q 2709 -91 1959 -91 
Q 1206 -91 779 398 
Q 353 888 353 1747 
Q 353 2609 779 3096 
Q 1206 3584 1959 3584 
z
" id="DejaVuSans-6f" transform="scale(0.015625)"/>
       <path d="M 3116 1747 
Q 3116 2381 2855 2742 
Q 2594 3103 2138 3103 
Q 1681 3103 1420 2742 
Q 1159 2381 1159 1747 
Q 1159 1113 1420 752 
Q 1681 391 2138 391 
Q 2594 391 2855 752 
Q 3116 1113 3116 1747 
z
M 1159 2969 
Q 1341 3281 1617 3432 
Q 1894 3584 2278 3584 
Q 2916 3584 3314 3078 
Q 3713 2572 3713 1747 
Q 3713 922 3314 415 
Q 2916 -91 2278 -91 
Q 1894 -91 1617 61 
Q 1341 213 1159 525 
L 1159 0 
L 581 0 
L 581 4863 
L 1159 4863 
L 1159 2969 
z
" id="DejaVuSans-62" transform="scale(0.015625)"/>
       <path d="M 2194 1759 
Q 1497 1759 1228 1600 
Q 959 1441 959 1056 
Q 959 750 1161 570 
Q 1363 391 1709 391 
Q 2188 391 2477 730 
Q 2766 1069 2766 1631 
L 2766 1759 
L 2194 1759 
z
M 3341 1997 
L 3341 0 
L 2766 0 
L 2766 531 
Q 2569 213 2275 61 
Q 1981 -91 1556 -91 
Q 1019 -91 701 211 
Q 384 513 384 1019 
Q 384 1609 779 1909 
Q 1175 2209 1959 2209 
L 2766 2209 
L 2766 2266 
Q 2766 2663 2505 2880 
Q 2244 3097 1772 3097 
Q 1472 3097 1187 3025 
Q 903 2953 641 2809 
L 641 3341 
Q 956 3463 1253 3523 
Q 1550 3584 1831 3584 
Q 2591 3584 2966 3190 
Q 3341 2797 3341 1997 
z
" id="DejaVuSans-61" transform="scale(0.015625)"/>
       <path d="M 603 3500 
L 1178 3500 
L 1178 0 
L 603 0 
L 603 3500 
z
M 603 4863 
L 1178 4863 
L 1178 4134 
L 603 4134 
L 603 4863 
z
" id="DejaVuSans-69" transform="scale(0.015625)"/>
       <path d="M 603 4863 
L 1178 4863 
L 1178 0 
L 603 0 
L 603 4863 
z
" id="DejaVuSans-6c" transform="scale(0.015625)"/>
       <path d="M 1172 4494 
L 1172 3500 
L 2356 3500 
L 2356 3053 
L 1172 3053 
L 1172 1153 
Q 1172 725 1289 603 
Q 1406 481 1766 481 
L 2356 481 
L 2356 0 
L 1766 0 
Q 1100 0 847 248 
Q 594 497 594 1153 
L 594 3053 
L 172 3053 
L 172 3500 
L 594 3500 
L 594 4494 
L 1172 4494 
z
" id="DejaVuSans-74" transform="scale(0.015625)"/>
       <path d="M 2059 -325 
Q 1816 -950 1584 -1140 
Q 1353 -1331 966 -1331 
L 506 -1331 
L 506 -850 
L 844 -850 
Q 1081 -850 1212 -737 
Q 1344 -625 1503 -206 
L 1606 56 
L 191 3500 
L 800 3500 
L 1894 763 
L 2988 3500 
L 3597 3500 
L 2059 -325 
z
" id="DejaVuSans-79" transform="scale(0.015625)"/>
      </defs>
      <use xlink:href="#DejaVuSans-45"/>
      <use x="63.183594" xlink:href="#DejaVuSans-64"/>
      <use x="126.660156" xlink:href="#DejaVuSans-67"/>
      <use x="190.136719" xlink:href="#DejaVuSans-65"/>
      <use x="251.660156" xlink:href="#DejaVuSans-20"/>
      <use x="283.447266" xlink:href="#DejaVuSans-70"/>
      <use x="346.923828" xlink:href="#DejaVuSans-72"/>
      <use x="385.787109" xlink:href="#DejaVuSans-6f"/>
      <use x="446.96875" xlink:href="#DejaVuSans-62"/>
      <use x="510.445312" xlink:href="#DejaVuSans-61"/>
      <use x="571.724609" xlink:href="#DejaVuSans-62"/>
      <use x="635.201172" xlink:href="#DejaVuSans-69"/>
      <use x="662.984375" xlink:href="#DejaVuSans-6c"/>
      <use x="690.767578" xlink:href="#DejaVuSans-69"/>
      <use x="718.550781" xlink:href="#DejaVuSans-74"/>
      <use x="757.759766" xlink:href="#DejaVuSans-79"/>
     </g>
    </g>
   </g>
   <g id="matplotlib.axis_2">
    <g id="ytick_1">
     <g id="line2d_11">
      <path clip-path="url(#pe278e4a93d)" d="M 94.119688 927.030529 
L 986.919688 927.030529 
" style="fill:none;stroke:#b0b0b0;stroke-linecap:square;stroke-width:0.8;"/>
     </g>
     <g id="line2d_12">
      <defs>
       <path d="M 0 0 
L -3.5 0 
" id="m602ed0a039" style="stroke:#000000;stroke-width:0.8;"/>
      </defs>
      <g>
       <use style="stroke:#000000;stroke-width:0.8;" x="94.119688" xlink:href="#m602ed0a039" y="927.030529"/>
      </g>
     </g>
     <g id="text_7">
      <!-- 10 -->
      <g transform="translate(48.944688 938.428186)scale(0.3 -0.3)">
       <use xlink:href="#DejaVuSans-31"/>
       <use x="63.623047" xlink:href="#DejaVuSans-30"/>
      </g>
     </g>
    </g>
    <g id="ytick_2">
     <g id="line2d_13">
      <path clip-path="url(#pe278e4a93d)" d="M 94.119688 797.254405 
L 986.919688 797.254405 
" style="fill:none;stroke:#b0b0b0;stroke-linecap:square;stroke-width:0.8;"/>
     </g>
     <g id="line2d_14">
      <g>
       <use style="stroke:#000000;stroke-width:0.8;" x="94.119688" xlink:href="#m602ed0a039" y="797.254405"/>
      </g>
     </g>
     <g id="text_8">
      <!-- 12 -->
      <g transform="translate(48.944688 808.652061)scale(0.3 -0.3)">
       <use xlink:href="#DejaVuSans-31"/>
       <use x="63.623047" xlink:href="#DejaVuSans-32"/>
      </g>
     </g>
    </g>
    <g id="ytick_3">
     <g id="line2d_15">
      <path clip-path="url(#pe278e4a93d)" d="M 94.119688 667.47828 
L 986.919688 667.47828 
" style="fill:none;stroke:#b0b0b0;stroke-linecap:square;stroke-width:0.8;"/>
     </g>
     <g id="line2d_16">
      <g>
       <use style="stroke:#000000;stroke-width:0.8;" x="94.119688" xlink:href="#m602ed0a039" y="667.47828"/>
      </g>
     </g>
     <g id="text_9">
      <!-- 14 -->
      <g transform="translate(48.944688 678.875936)scale(0.3 -0.3)">
       <use xlink:href="#DejaVuSans-31"/>
       <use x="63.623047" xlink:href="#DejaVuSans-34"/>
      </g>
     </g>
    </g>
    <g id="ytick_4">
     <g id="line2d_17">
      <path clip-path="url(#pe278e4a93d)" d="M 94.119688 537.702155 
L 986.919688 537.702155 
" style="fill:none;stroke:#b0b0b0;stroke-linecap:square;stroke-width:0.8;"/>
     </g>
     <g id="line2d_18">
      <g>
       <use style="stroke:#000000;stroke-width:0.8;" x="94.119688" xlink:href="#m602ed0a039" y="537.702155"/>
      </g>
     </g>
     <g id="text_10">
      <!-- 16 -->
      <g transform="translate(48.944688 549.099811)scale(0.3 -0.3)">
       <use xlink:href="#DejaVuSans-31"/>
       <use x="63.623047" xlink:href="#DejaVuSans-36"/>
      </g>
     </g>
    </g>
    <g id="ytick_5">
     <g id="line2d_19">
      <path clip-path="url(#pe278e4a93d)" d="M 94.119688 407.92603 
L 986.919688 407.92603 
" style="fill:none;stroke:#b0b0b0;stroke-linecap:square;stroke-width:0.8;"/>
     </g>
     <g id="line2d_20">
      <g>
       <use style="stroke:#000000;stroke-width:0.8;" x="94.119688" xlink:href="#m602ed0a039" y="407.92603"/>
      </g>
     </g>
     <g id="text_11">
      <!-- 18 -->
      <g transform="translate(48.944688 419.323687)scale(0.3 -0.3)">
       <use xlink:href="#DejaVuSans-31"/>
       <use x="63.623047" xlink:href="#DejaVuSans-38"/>
      </g>
     </g>
    </g>
    <g id="ytick_6">
     <g id="line2d_21">
      <path clip-path="url(#pe278e4a93d)" d="M 94.119688 278.149906 
L 986.919688 278.149906 
" style="fill:none;stroke:#b0b0b0;stroke-linecap:square;stroke-width:0.8;"/>
     </g>
     <g id="line2d_22">
      <g>
       <use style="stroke:#000000;stroke-width:0.8;" x="94.119688" xlink:href="#m602ed0a039" y="278.149906"/>
      </g>
     </g>
     <g id="text_12">
      <!-- 20 -->
      <g transform="translate(48.944688 289.547562)scale(0.3 -0.3)">
       <use xlink:href="#DejaVuSans-32"/>
       <use x="63.623047" xlink:href="#DejaVuSans-30"/>
      </g>
     </g>
    </g>
    <g id="ytick_7">
     <g id="line2d_23">
      <path clip-path="url(#pe278e4a93d)" d="M 94.119688 148.373781 
L 986.919688 148.373781 
" style="fill:none;stroke:#b0b0b0;stroke-linecap:square;stroke-width:0.8;"/>
     </g>
     <g id="line2d_24">
      <g>
       <use style="stroke:#000000;stroke-width:0.8;" x="94.119688" xlink:href="#m602ed0a039" y="148.373781"/>
      </g>
     </g>
     <g id="text_13">
      <!-- 22 -->
      <g transform="translate(48.944688 159.771437)scale(0.3 -0.3)">
       <use xlink:href="#DejaVuSans-32"/>
       <use x="63.623047" xlink:href="#DejaVuSans-32"/>
      </g>
     </g>
    </g>
    <g id="ytick_8">
     <g id="line2d_25">
      <path clip-path="url(#pe278e4a93d)" d="M 94.119688 18.597656 
L 986.919688 18.597656 
" style="fill:none;stroke:#b0b0b0;stroke-linecap:square;stroke-width:0.8;"/>
     </g>
     <g id="line2d_26">
      <g>
       <use style="stroke:#000000;stroke-width:0.8;" x="94.119688" xlink:href="#m602ed0a039" y="18.597656"/>
      </g>
     </g>
     <g id="text_14">
      <!-- 24 -->
      <g transform="translate(48.944688 29.995312)scale(0.3 -0.3)">
       <use xlink:href="#DejaVuSans-32"/>
       <use x="63.623047" xlink:href="#DejaVuSans-34"/>
      </g>
     </g>
    </g>
    <g id="text_15">
     <!-- Avg. number of operations / size -->
     <g transform="translate(36.833906 825.806529)rotate(-90)scale(0.39 -0.39)">
      <defs>
       <path d="M 2188 4044 
L 1331 1722 
L 3047 1722 
L 2188 4044 
z
M 1831 4666 
L 2547 4666 
L 4325 0 
L 3669 0 
L 3244 1197 
L 1141 1197 
L 716 0 
L 50 0 
L 1831 4666 
z
" id="DejaVuSans-41" transform="scale(0.015625)"/>
       <path d="M 191 3500 
L 800 3500 
L 1894 563 
L 2988 3500 
L 3597 3500 
L 2284 0 
L 1503 0 
L 191 3500 
z
" id="DejaVuSans-76" transform="scale(0.015625)"/>
       <path d="M 3513 2113 
L 3513 0 
L 2938 0 
L 2938 2094 
Q 2938 2591 2744 2837 
Q 2550 3084 2163 3084 
Q 1697 3084 1428 2787 
Q 1159 2491 1159 1978 
L 1159 0 
L 581 0 
L 581 3500 
L 1159 3500 
L 1159 2956 
Q 1366 3272 1645 3428 
Q 1925 3584 2291 3584 
Q 2894 3584 3203 3211 
Q 3513 2838 3513 2113 
z
" id="DejaVuSans-6e" transform="scale(0.015625)"/>
       <path d="M 544 1381 
L 544 3500 
L 1119 3500 
L 1119 1403 
Q 1119 906 1312 657 
Q 1506 409 1894 409 
Q 2359 409 2629 706 
Q 2900 1003 2900 1516 
L 2900 3500 
L 3475 3500 
L 3475 0 
L 2900 0 
L 2900 538 
Q 2691 219 2414 64 
Q 2138 -91 1772 -91 
Q 1169 -91 856 284 
Q 544 659 544 1381 
z
M 1991 3584 
L 1991 3584 
z
" id="DejaVuSans-75" transform="scale(0.015625)"/>
       <path d="M 3328 2828 
Q 3544 3216 3844 3400 
Q 4144 3584 4550 3584 
Q 5097 3584 5394 3201 
Q 5691 2819 5691 2113 
L 5691 0 
L 5113 0 
L 5113 2094 
Q 5113 2597 4934 2840 
Q 4756 3084 4391 3084 
Q 3944 3084 3684 2787 
Q 3425 2491 3425 1978 
L 3425 0 
L 2847 0 
L 2847 2094 
Q 2847 2600 2669 2842 
Q 2491 3084 2119 3084 
Q 1678 3084 1418 2786 
Q 1159 2488 1159 1978 
L 1159 0 
L 581 0 
L 581 3500 
L 1159 3500 
L 1159 2956 
Q 1356 3278 1631 3431 
Q 1906 3584 2284 3584 
Q 2666 3584 2933 3390 
Q 3200 3197 3328 2828 
z
" id="DejaVuSans-6d" transform="scale(0.015625)"/>
       <path d="M 2375 4863 
L 2375 4384 
L 1825 4384 
Q 1516 4384 1395 4259 
Q 1275 4134 1275 3809 
L 1275 3500 
L 2222 3500 
L 2222 3053 
L 1275 3053 
L 1275 0 
L 697 0 
L 697 3053 
L 147 3053 
L 147 3500 
L 697 3500 
L 697 3744 
Q 697 4328 969 4595 
Q 1241 4863 1831 4863 
L 2375 4863 
z
" id="DejaVuSans-66" transform="scale(0.015625)"/>
       <path d="M 2834 3397 
L 2834 2853 
Q 2591 2978 2328 3040 
Q 2066 3103 1784 3103 
Q 1356 3103 1142 2972 
Q 928 2841 928 2578 
Q 928 2378 1081 2264 
Q 1234 2150 1697 2047 
L 1894 2003 
Q 2506 1872 2764 1633 
Q 3022 1394 3022 966 
Q 3022 478 2636 193 
Q 2250 -91 1575 -91 
Q 1294 -91 989 -36 
Q 684 19 347 128 
L 347 722 
Q 666 556 975 473 
Q 1284 391 1588 391 
Q 1994 391 2212 530 
Q 2431 669 2431 922 
Q 2431 1156 2273 1281 
Q 2116 1406 1581 1522 
L 1381 1569 
Q 847 1681 609 1914 
Q 372 2147 372 2553 
Q 372 3047 722 3315 
Q 1072 3584 1716 3584 
Q 2034 3584 2315 3537 
Q 2597 3491 2834 3397 
z
" id="DejaVuSans-73" transform="scale(0.015625)"/>
       <path d="M 1625 4666 
L 2156 4666 
L 531 -594 
L 0 -594 
L 1625 4666 
z
" id="DejaVuSans-2f" transform="scale(0.015625)"/>
       <path d="M 353 3500 
L 3084 3500 
L 3084 2975 
L 922 459 
L 3084 459 
L 3084 0 
L 275 0 
L 275 525 
L 2438 3041 
L 353 3041 
L 353 3500 
z
" id="DejaVuSans-7a" transform="scale(0.015625)"/>
      </defs>
      <use xlink:href="#DejaVuSans-41"/>
      <use x="62.533203" xlink:href="#DejaVuSans-76"/>
      <use x="121.712891" xlink:href="#DejaVuSans-67"/>
      <use x="185.189453" xlink:href="#DejaVuSans-2e"/>
      <use x="216.976562" xlink:href="#DejaVuSans-20"/>
      <use x="248.763672" xlink:href="#DejaVuSans-6e"/>
      <use x="312.142578" xlink:href="#DejaVuSans-75"/>
      <use x="375.521484" xlink:href="#DejaVuSans-6d"/>
      <use x="472.933594" xlink:href="#DejaVuSans-62"/>
      <use x="536.410156" xlink:href="#DejaVuSans-65"/>
      <use x="597.933594" xlink:href="#DejaVuSans-72"/>
      <use x="639.046875" xlink:href="#DejaVuSans-20"/>
      <use x="670.833984" xlink:href="#DejaVuSans-6f"/>
      <use x="732.015625" xlink:href="#DejaVuSans-66"/>
      <use x="767.220703" xlink:href="#DejaVuSans-20"/>
      <use x="799.007812" xlink:href="#DejaVuSans-6f"/>
      <use x="860.189453" xlink:href="#DejaVuSans-70"/>
      <use x="923.666016" xlink:href="#DejaVuSans-65"/>
      <use x="985.189453" xlink:href="#DejaVuSans-72"/>
      <use x="1026.302734" xlink:href="#DejaVuSans-61"/>
      <use x="1087.582031" xlink:href="#DejaVuSans-74"/>
      <use x="1126.791016" xlink:href="#DejaVuSans-69"/>
      <use x="1154.574219" xlink:href="#DejaVuSans-6f"/>
      <use x="1215.755859" xlink:href="#DejaVuSans-6e"/>
      <use x="1279.134766" xlink:href="#DejaVuSans-73"/>
      <use x="1331.234375" xlink:href="#DejaVuSans-20"/>
      <use x="1363.021484" xlink:href="#DejaVuSans-2f"/>
      <use x="1396.712891" xlink:href="#DejaVuSans-20"/>
      <use x="1428.5" xlink:href="#DejaVuSans-73"/>
      <use x="1480.599609" xlink:href="#DejaVuSans-69"/>
      <use x="1508.382812" xlink:href="#DejaVuSans-7a"/>
      <use x="1560.873047" xlink:href="#DejaVuSans-65"/>
     </g>
    </g>
   </g>
   <g id="line2d_27">
    <path clip-path="url(#pe278e4a93d)" d="M 134.701506 814.112323 
L 177.419209 753.506873 
L 220.136912 726.980633 
L 262.854616 699.636804 
L 305.572319 682.623154 
L 348.290022 663.883481 
L 391.007726 648.920294 
L 433.725429 646.311794 
L 476.443132 636.241167 
L 519.160836 624.898733 
L 561.878539 620.758875 
L 604.596243 609.650039 
L 647.313946 606.963673 
L 690.031649 600.007673 
L 732.749353 597.580859 
L 775.467056 589.716426 
L 818.184759 585.732299 
L 860.902463 580.632097 
L 903.620166 579.697709 
L 946.337869 580.320635 
" style="fill:none;stroke:#fe0002;stroke-linecap:square;stroke-width:1.5;"/>
    <defs>
     <path d="M 0 4.5 
C 1.193414 4.5 2.338109 4.025852 3.181981 3.181981 
C 4.025852 2.338109 4.5 1.193414 4.5 0 
C 4.5 -1.193414 4.025852 -2.338109 3.181981 -3.181981 
C 2.338109 -4.025852 1.193414 -4.5 0 -4.5 
C -1.193414 -4.5 -2.338109 -4.025852 -3.181981 -3.181981 
C -4.025852 -2.338109 -4.5 -1.193414 -4.5 0 
C -4.5 1.193414 -4.025852 2.338109 -3.181981 3.181981 
C -2.338109 4.025852 -1.193414 4.5 0 4.5 
z
" id="m8c2e14d3d9" style="stroke:#000000;"/>
    </defs>
    <g clip-path="url(#pe278e4a93d)">
     <use style="fill:#fe0002;stroke:#000000;" x="134.701506" xlink:href="#m8c2e14d3d9" y="814.112323"/>
     <use style="fill:#fe0002;stroke:#000000;" x="177.419209" xlink:href="#m8c2e14d3d9" y="753.506873"/>
     <use style="fill:#fe0002;stroke:#000000;" x="220.136912" xlink:href="#m8c2e14d3d9" y="726.980633"/>
     <use style="fill:#fe0002;stroke:#000000;" x="262.854616" xlink:href="#m8c2e14d3d9" y="699.636804"/>
     <use style="fill:#fe0002;stroke:#000000;" x="305.572319" xlink:href="#m8c2e14d3d9" y="682.623154"/>
     <use style="fill:#fe0002;stroke:#000000;" x="348.290022" xlink:href="#m8c2e14d3d9" y="663.883481"/>
     <use style="fill:#fe0002;stroke:#000000;" x="391.007726" xlink:href="#m8c2e14d3d9" y="648.920294"/>
     <use style="fill:#fe0002;stroke:#000000;" x="433.725429" xlink:href="#m8c2e14d3d9" y="646.311794"/>
     <use style="fill:#fe0002;stroke:#000000;" x="476.443132" xlink:href="#m8c2e14d3d9" y="636.241167"/>
     <use style="fill:#fe0002;stroke:#000000;" x="519.160836" xlink:href="#m8c2e14d3d9" y="624.898733"/>
     <use style="fill:#fe0002;stroke:#000000;" x="561.878539" xlink:href="#m8c2e14d3d9" y="620.758875"/>
     <use style="fill:#fe0002;stroke:#000000;" x="604.596243" xlink:href="#m8c2e14d3d9" y="609.650039"/>
     <use style="fill:#fe0002;stroke:#000000;" x="647.313946" xlink:href="#m8c2e14d3d9" y="606.963673"/>
     <use style="fill:#fe0002;stroke:#000000;" x="690.031649" xlink:href="#m8c2e14d3d9" y="600.007673"/>
     <use style="fill:#fe0002;stroke:#000000;" x="732.749353" xlink:href="#m8c2e14d3d9" y="597.580859"/>
     <use style="fill:#fe0002;stroke:#000000;" x="775.467056" xlink:href="#m8c2e14d3d9" y="589.716426"/>
     <use style="fill:#fe0002;stroke:#000000;" x="818.184759" xlink:href="#m8c2e14d3d9" y="585.732299"/>
     <use style="fill:#fe0002;stroke:#000000;" x="860.902463" xlink:href="#m8c2e14d3d9" y="580.632097"/>
     <use style="fill:#fe0002;stroke:#000000;" x="903.620166" xlink:href="#m8c2e14d3d9" y="579.697709"/>
     <use style="fill:#fe0002;stroke:#000000;" x="946.337869" xlink:href="#m8c2e14d3d9" y="580.320635"/>
    </g>
   </g>
   <g id="line2d_28">
    <path clip-path="url(#pe278e4a93d)" d="M 134.701506 814.112323 
L 177.419209 753.506873 
L 220.136912 726.980633 
L 262.854616 699.636804 
L 305.572319 682.623154 
L 348.290022 663.883481 
L 391.007726 648.920294 
L 433.725429 646.311794 
L 476.443132 636.241167 
L 519.160836 624.898733 
L 561.878539 620.758875 
L 604.596243 609.650039 
L 647.313946 606.963673 
L 690.031649 600.007673 
L 732.749353 597.580859 
L 775.467056 589.716426 
L 818.184759 585.732299 
L 860.902463 580.632097 
L 903.620166 579.697709 
L 946.337869 580.320635 
" style="fill:none;stroke:#fe0002;stroke-dasharray:5.55,2.4;stroke-dashoffset:0;stroke-width:1.5;"/>
    <g clip-path="url(#pe278e4a93d)">
     <use style="fill:#fe0002;stroke:#000000;" x="134.701506" xlink:href="#m8c2e14d3d9" y="814.112323"/>
     <use style="fill:#fe0002;stroke:#000000;" x="177.419209" xlink:href="#m8c2e14d3d9" y="753.506873"/>
     <use style="fill:#fe0002;stroke:#000000;" x="220.136912" xlink:href="#m8c2e14d3d9" y="726.980633"/>
     <use style="fill:#fe0002;stroke:#000000;" x="262.854616" xlink:href="#m8c2e14d3d9" y="699.636804"/>
     <use style="fill:#fe0002;stroke:#000000;" x="305.572319" xlink:href="#m8c2e14d3d9" y="682.623154"/>
     <use style="fill:#fe0002;stroke:#000000;" x="348.290022" xlink:href="#m8c2e14d3d9" y="663.883481"/>
     <use style="fill:#fe0002;stroke:#000000;" x="391.007726" xlink:href="#m8c2e14d3d9" y="648.920294"/>
     <use style="fill:#fe0002;stroke:#000000;" x="433.725429" xlink:href="#m8c2e14d3d9" y="646.311794"/>
     <use style="fill:#fe0002;stroke:#000000;" x="476.443132" xlink:href="#m8c2e14d3d9" y="636.241167"/>
     <use style="fill:#fe0002;stroke:#000000;" x="519.160836" xlink:href="#m8c2e14d3d9" y="624.898733"/>
     <use style="fill:#fe0002;stroke:#000000;" x="561.878539" xlink:href="#m8c2e14d3d9" y="620.758875"/>
     <use style="fill:#fe0002;stroke:#000000;" x="604.596243" xlink:href="#m8c2e14d3d9" y="609.650039"/>
     <use style="fill:#fe0002;stroke:#000000;" x="647.313946" xlink:href="#m8c2e14d3d9" y="606.963673"/>
     <use style="fill:#fe0002;stroke:#000000;" x="690.031649" xlink:href="#m8c2e14d3d9" y="600.007673"/>
     <use style="fill:#fe0002;stroke:#000000;" x="732.749353" xlink:href="#m8c2e14d3d9" y="597.580859"/>
     <use style="fill:#fe0002;stroke:#000000;" x="775.467056" xlink:href="#m8c2e14d3d9" y="589.716426"/>
     <use style="fill:#fe0002;stroke:#000000;" x="818.184759" xlink:href="#m8c2e14d3d9" y="585.732299"/>
     <use style="fill:#fe0002;stroke:#000000;" x="860.902463" xlink:href="#m8c2e14d3d9" y="580.632097"/>
     <use style="fill:#fe0002;stroke:#000000;" x="903.620166" xlink:href="#m8c2e14d3d9" y="579.697709"/>
     <use style="fill:#fe0002;stroke:#000000;" x="946.337869" xlink:href="#m8c2e14d3d9" y="580.320635"/>
    </g>
   </g>
   <g id="line2d_29">
    <path clip-path="url(#pe278e4a93d)" d="M 134.701506 529.136931 
L 177.419209 441.57698 
L 220.136912 403.383866 
L 262.854616 367.708409 
L 305.572319 333.927684 
L 348.290022 313.29328 
L 391.007726 283.263085 
L 433.725429 283.873033 
L 476.443132 271.077107 
L 519.160836 253.193957 
L 561.878539 250.222084 
L 604.596243 230.612911 
L 647.313946 220.723971 
L 690.031649 214.58556 
L 732.749353 212.197679 
L 775.467056 201.413283 
L 818.184759 188.812021 
L 860.902463 186.670715 
L 903.620166 183.841596 
L 946.337869 175.12064 
" style="fill:none;stroke:#53fca1;stroke-linecap:square;stroke-width:1.5;"/>
    <defs>
     <path d="M 0 -4.5 
L -4.5 4.5 
L 4.5 4.5 
z
" id="m8eb38671b9" style="stroke:#000000;stroke-linejoin:miter;"/>
    </defs>
    <g clip-path="url(#pe278e4a93d)">
     <use style="fill:#53fca1;stroke:#000000;stroke-linejoin:miter;" x="134.701506" xlink:href="#m8eb38671b9" y="529.136931"/>
     <use style="fill:#53fca1;stroke:#000000;stroke-linejoin:miter;" x="177.419209" xlink:href="#m8eb38671b9" y="441.57698"/>
     <use style="fill:#53fca1;stroke:#000000;stroke-linejoin:miter;" x="220.136912" xlink:href="#m8eb38671b9" y="403.383866"/>
     <use style="fill:#53fca1;stroke:#000000;stroke-linejoin:miter;" x="262.854616" xlink:href="#m8eb38671b9" y="367.708409"/>
     <use style="fill:#53fca1;stroke:#000000;stroke-linejoin:miter;" x="305.572319" xlink:href="#m8eb38671b9" y="333.927684"/>
     <use style="fill:#53fca1;stroke:#000000;stroke-linejoin:miter;" x="348.290022" xlink:href="#m8eb38671b9" y="313.29328"/>
     <use style="fill:#53fca1;stroke:#000000;stroke-linejoin:miter;" x="391.007726" xlink:href="#m8eb38671b9" y="283.263085"/>
     <use style="fill:#53fca1;stroke:#000000;stroke-linejoin:miter;" x="433.725429" xlink:href="#m8eb38671b9" y="283.873033"/>
     <use style="fill:#53fca1;stroke:#000000;stroke-linejoin:miter;" x="476.443132" xlink:href="#m8eb38671b9" y="271.077107"/>
     <use style="fill:#53fca1;stroke:#000000;stroke-linejoin:miter;" x="519.160836" xlink:href="#m8eb38671b9" y="253.193957"/>
     <use style="fill:#53fca1;stroke:#000000;stroke-linejoin:miter;" x="561.878539" xlink:href="#m8eb38671b9" y="250.222084"/>
     <use style="fill:#53fca1;stroke:#000000;stroke-linejoin:miter;" x="604.596243" xlink:href="#m8eb38671b9" y="230.612911"/>
     <use style="fill:#53fca1;stroke:#000000;stroke-linejoin:miter;" x="647.313946" xlink:href="#m8eb38671b9" y="220.723971"/>
     <use style="fill:#53fca1;stroke:#000000;stroke-linejoin:miter;" x="690.031649" xlink:href="#m8eb38671b9" y="214.58556"/>
     <use style="fill:#53fca1;stroke:#000000;stroke-linejoin:miter;" x="732.749353" xlink:href="#m8eb38671b9" y="212.197679"/>
     <use style="fill:#53fca1;stroke:#000000;stroke-linejoin:miter;" x="775.467056" xlink:href="#m8eb38671b9" y="201.413283"/>
     <use style="fill:#53fca1;stroke:#000000;stroke-linejoin:miter;" x="818.184759" xlink:href="#m8eb38671b9" y="188.812021"/>
     <use style="fill:#53fca1;stroke:#000000;stroke-linejoin:miter;" x="860.902463" xlink:href="#m8eb38671b9" y="186.670715"/>
     <use style="fill:#53fca1;stroke:#000000;stroke-linejoin:miter;" x="903.620166" xlink:href="#m8eb38671b9" y="183.841596"/>
     <use style="fill:#53fca1;stroke:#000000;stroke-linejoin:miter;" x="946.337869" xlink:href="#m8eb38671b9" y="175.12064"/>
    </g>
   </g>
   <g id="line2d_30">
    <path clip-path="url(#pe278e4a93d)" d="M 134.701506 937.944702 
L 177.419209 893.223849 
L 220.136912 873.939117 
L 262.854616 855.108601 
L 305.572319 838.510235 
L 348.290022 826.596786 
L 391.007726 811.646577 
L 433.725429 812.567987 
L 476.443132 804.573778 
L 519.160836 795.346696 
L 561.878539 793.075613 
L 604.596243 782.589703 
L 647.313946 777.294837 
L 690.031649 774.919934 
L 732.749353 773.505374 
L 775.467056 767.405896 
L 818.184759 760.64456 
L 860.902463 759.385731 
L 903.620166 758.542187 
L 946.337869 753.221366 
" style="fill:none;stroke:#53fca1;stroke-dasharray:5.55,2.4;stroke-dashoffset:0;stroke-width:1.5;"/>
    <defs>
     <path d="M 0 6.363961 
L 6.363961 0 
L 0 -6.363961 
L -6.363961 0 
z
" id="m83fb57b662" style="stroke:#000000;stroke-linejoin:miter;"/>
    </defs>
    <g clip-path="url(#pe278e4a93d)">
     <use style="fill:#53fca1;stroke:#000000;stroke-linejoin:miter;" x="134.701506" xlink:href="#m83fb57b662" y="937.944702"/>
     <use style="fill:#53fca1;stroke:#000000;stroke-linejoin:miter;" x="177.419209" xlink:href="#m83fb57b662" y="893.223849"/>
     <use style="fill:#53fca1;stroke:#000000;stroke-linejoin:miter;" x="220.136912" xlink:href="#m83fb57b662" y="873.939117"/>
     <use style="fill:#53fca1;stroke:#000000;stroke-linejoin:miter;" x="262.854616" xlink:href="#m83fb57b662" y="855.108601"/>
     <use style="fill:#53fca1;stroke:#000000;stroke-linejoin:miter;" x="305.572319" xlink:href="#m83fb57b662" y="838.510235"/>
     <use style="fill:#53fca1;stroke:#000000;stroke-linejoin:miter;" x="348.290022" xlink:href="#m83fb57b662" y="826.596786"/>
     <use style="fill:#53fca1;stroke:#000000;stroke-linejoin:miter;" x="391.007726" xlink:href="#m83fb57b662" y="811.646577"/>
     <use style="fill:#53fca1;stroke:#000000;stroke-linejoin:miter;" x="433.725429" xlink:href="#m83fb57b662" y="812.567987"/>
     <use style="fill:#53fca1;stroke:#000000;stroke-linejoin:miter;" x="476.443132" xlink:href="#m83fb57b662" y="804.573778"/>
     <use style="fill:#53fca1;stroke:#000000;stroke-linejoin:miter;" x="519.160836" xlink:href="#m83fb57b662" y="795.346696"/>
     <use style="fill:#53fca1;stroke:#000000;stroke-linejoin:miter;" x="561.878539" xlink:href="#m83fb57b662" y="793.075613"/>
     <use style="fill:#53fca1;stroke:#000000;stroke-linejoin:miter;" x="604.596243" xlink:href="#m83fb57b662" y="782.589703"/>
     <use style="fill:#53fca1;stroke:#000000;stroke-linejoin:miter;" x="647.313946" xlink:href="#m83fb57b662" y="777.294837"/>
     <use style="fill:#53fca1;stroke:#000000;stroke-linejoin:miter;" x="690.031649" xlink:href="#m83fb57b662" y="774.919934"/>
     <use style="fill:#53fca1;stroke:#000000;stroke-linejoin:miter;" x="732.749353" xlink:href="#m83fb57b662" y="773.505374"/>
     <use style="fill:#53fca1;stroke:#000000;stroke-linejoin:miter;" x="775.467056" xlink:href="#m83fb57b662" y="767.405896"/>
     <use style="fill:#53fca1;stroke:#000000;stroke-linejoin:miter;" x="818.184759" xlink:href="#m83fb57b662" y="760.64456"/>
     <use style="fill:#53fca1;stroke:#000000;stroke-linejoin:miter;" x="860.902463" xlink:href="#m83fb57b662" y="759.385731"/>
     <use style="fill:#53fca1;stroke:#000000;stroke-linejoin:miter;" x="903.620166" xlink:href="#m83fb57b662" y="758.542187"/>
     <use style="fill:#53fca1;stroke:#000000;stroke-linejoin:miter;" x="946.337869" xlink:href="#m83fb57b662" y="753.221366"/>
    </g>
   </g>
   <g id="line2d_31">
    <path clip-path="url(#pe278e4a93d)" d="M 134.701506 494.914967 
L 177.419209 404.188478 
L 220.136912 369.161902 
L 262.854616 324.921221 
L 305.572319 300.458422 
L 348.290022 269.234286 
L 391.007726 239.515553 
L 433.725429 236.089464 
L 476.443132 219.919359 
L 519.160836 209.42047 
L 561.878539 194.509193 
L 604.596243 184.347723 
L 647.313946 171.292245 
L 690.031649 164.777483 
L 732.749353 161.026953 
L 775.467056 153.915222 
L 818.184759 137.56343 
L 860.902463 129.595176 
L 903.620166 128.466123 
L 946.337869 113.489959 
" style="fill:none;stroke:#0652ff;stroke-linecap:square;stroke-width:1.5;"/>
    <defs>
     <path d="M 0 -4.5 
L -4.279754 -1.390576 
L -2.645034 3.640576 
L 2.645034 3.640576 
L 4.279754 -1.390576 
z
" id="md9b775d33d" style="stroke:#000000;stroke-linejoin:miter;"/>
    </defs>
    <g clip-path="url(#pe278e4a93d)">
     <use style="fill:#0652ff;stroke:#000000;stroke-linejoin:miter;" x="134.701506" xlink:href="#md9b775d33d" y="494.914967"/>
     <use style="fill:#0652ff;stroke:#000000;stroke-linejoin:miter;" x="177.419209" xlink:href="#md9b775d33d" y="404.188478"/>
     <use style="fill:#0652ff;stroke:#000000;stroke-linejoin:miter;" x="220.136912" xlink:href="#md9b775d33d" y="369.161902"/>
     <use style="fill:#0652ff;stroke:#000000;stroke-linejoin:miter;" x="262.854616" xlink:href="#md9b775d33d" y="324.921221"/>
     <use style="fill:#0652ff;stroke:#000000;stroke-linejoin:miter;" x="305.572319" xlink:href="#md9b775d33d" y="300.458422"/>
     <use style="fill:#0652ff;stroke:#000000;stroke-linejoin:miter;" x="348.290022" xlink:href="#md9b775d33d" y="269.234286"/>
     <use style="fill:#0652ff;stroke:#000000;stroke-linejoin:miter;" x="391.007726" xlink:href="#md9b775d33d" y="239.515553"/>
     <use style="fill:#0652ff;stroke:#000000;stroke-linejoin:miter;" x="433.725429" xlink:href="#md9b775d33d" y="236.089464"/>
     <use style="fill:#0652ff;stroke:#000000;stroke-linejoin:miter;" x="476.443132" xlink:href="#md9b775d33d" y="219.919359"/>
     <use style="fill:#0652ff;stroke:#000000;stroke-linejoin:miter;" x="519.160836" xlink:href="#md9b775d33d" y="209.42047"/>
     <use style="fill:#0652ff;stroke:#000000;stroke-linejoin:miter;" x="561.878539" xlink:href="#md9b775d33d" y="194.509193"/>
     <use style="fill:#0652ff;stroke:#000000;stroke-linejoin:miter;" x="604.596243" xlink:href="#md9b775d33d" y="184.347723"/>
     <use style="fill:#0652ff;stroke:#000000;stroke-linejoin:miter;" x="647.313946" xlink:href="#md9b775d33d" y="171.292245"/>
     <use style="fill:#0652ff;stroke:#000000;stroke-linejoin:miter;" x="690.031649" xlink:href="#md9b775d33d" y="164.777483"/>
     <use style="fill:#0652ff;stroke:#000000;stroke-linejoin:miter;" x="732.749353" xlink:href="#md9b775d33d" y="161.026953"/>
     <use style="fill:#0652ff;stroke:#000000;stroke-linejoin:miter;" x="775.467056" xlink:href="#md9b775d33d" y="153.915222"/>
     <use style="fill:#0652ff;stroke:#000000;stroke-linejoin:miter;" x="818.184759" xlink:href="#md9b775d33d" y="137.56343"/>
     <use style="fill:#0652ff;stroke:#000000;stroke-linejoin:miter;" x="860.902463" xlink:href="#md9b775d33d" y="129.595176"/>
     <use style="fill:#0652ff;stroke:#000000;stroke-linejoin:miter;" x="903.620166" xlink:href="#md9b775d33d" y="128.466123"/>
     <use style="fill:#0652ff;stroke:#000000;stroke-linejoin:miter;" x="946.337869" xlink:href="#md9b775d33d" y="113.489959"/>
    </g>
   </g>
   <g id="line2d_32">
    <path clip-path="url(#pe278e4a93d)" d="M 134.701506 887.695386 
L 177.419209 839.976705 
L 220.136912 823.754689 
L 262.854616 801.0828 
L 305.572319 788.299852 
L 348.290022 773.219866 
L 391.007726 756.07644 
L 433.725429 756.193239 
L 476.443132 746.771492 
L 519.160836 741.852977 
L 561.878539 733.560283 
L 604.596243 729.524245 
L 647.313946 721.99723 
L 690.031649 720.050588 
L 732.749353 717.273379 
L 775.467056 714.431282 
L 818.184759 705.892013 
L 860.902463 701.077319 
L 903.620166 701.155184 
L 946.337869 694.822109 
" style="fill:none;stroke:#0652ff;stroke-dasharray:5.55,2.4;stroke-dashoffset:0;stroke-width:1.5;"/>
    <defs>
     <path d="M -2.25 4.5 
L 0 2.25 
L 2.25 4.5 
L 4.5 2.25 
L 2.25 0 
L 4.5 -2.25 
L 2.25 -4.5 
L 0 -2.25 
L -2.25 -4.5 
L -4.5 -2.25 
L -2.25 0 
L -4.5 2.25 
z
" id="mf5d8971063" style="stroke:#000000;stroke-linejoin:miter;"/>
    </defs>
    <g clip-path="url(#pe278e4a93d)">
     <use style="fill:#0652ff;stroke:#000000;stroke-linejoin:miter;" x="134.701506" xlink:href="#mf5d8971063" y="887.695386"/>
     <use style="fill:#0652ff;stroke:#000000;stroke-linejoin:miter;" x="177.419209" xlink:href="#mf5d8971063" y="839.976705"/>
     <use style="fill:#0652ff;stroke:#000000;stroke-linejoin:miter;" x="220.136912" xlink:href="#mf5d8971063" y="823.754689"/>
     <use style="fill:#0652ff;stroke:#000000;stroke-linejoin:miter;" x="262.854616" xlink:href="#mf5d8971063" y="801.0828"/>
     <use style="fill:#0652ff;stroke:#000000;stroke-linejoin:miter;" x="305.572319" xlink:href="#mf5d8971063" y="788.299852"/>
     <use style="fill:#0652ff;stroke:#000000;stroke-linejoin:miter;" x="348.290022" xlink:href="#mf5d8971063" y="773.219866"/>
     <use style="fill:#0652ff;stroke:#000000;stroke-linejoin:miter;" x="391.007726" xlink:href="#mf5d8971063" y="756.07644"/>
     <use style="fill:#0652ff;stroke:#000000;stroke-linejoin:miter;" x="433.725429" xlink:href="#mf5d8971063" y="756.193239"/>
     <use style="fill:#0652ff;stroke:#000000;stroke-linejoin:miter;" x="476.443132" xlink:href="#mf5d8971063" y="746.771492"/>
     <use style="fill:#0652ff;stroke:#000000;stroke-linejoin:miter;" x="519.160836" xlink:href="#mf5d8971063" y="741.852977"/>
     <use style="fill:#0652ff;stroke:#000000;stroke-linejoin:miter;" x="561.878539" xlink:href="#mf5d8971063" y="733.560283"/>
     <use style="fill:#0652ff;stroke:#000000;stroke-linejoin:miter;" x="604.596243" xlink:href="#mf5d8971063" y="729.524245"/>
     <use style="fill:#0652ff;stroke:#000000;stroke-linejoin:miter;" x="647.313946" xlink:href="#mf5d8971063" y="721.99723"/>
     <use style="fill:#0652ff;stroke:#000000;stroke-linejoin:miter;" x="690.031649" xlink:href="#mf5d8971063" y="720.050588"/>
     <use style="fill:#0652ff;stroke:#000000;stroke-linejoin:miter;" x="732.749353" xlink:href="#mf5d8971063" y="717.273379"/>
     <use style="fill:#0652ff;stroke:#000000;stroke-linejoin:miter;" x="775.467056" xlink:href="#mf5d8971063" y="714.431282"/>
     <use style="fill:#0652ff;stroke:#000000;stroke-linejoin:miter;" x="818.184759" xlink:href="#mf5d8971063" y="705.892013"/>
     <use style="fill:#0652ff;stroke:#000000;stroke-linejoin:miter;" x="860.902463" xlink:href="#mf5d8971063" y="701.077319"/>
     <use style="fill:#0652ff;stroke:#000000;stroke-linejoin:miter;" x="903.620166" xlink:href="#mf5d8971063" y="701.155184"/>
     <use style="fill:#0652ff;stroke:#000000;stroke-linejoin:miter;" x="946.337869" xlink:href="#mf5d8971063" y="694.822109"/>
    </g>
   </g>
   <g id="line2d_33">
    <path clip-path="url(#pe278e4a93d)" d="M 134.701506 330.774124 
L 177.419209 248.0678 
L 220.136912 210.328903 
L 262.854616 176.574133 
L 305.572319 159.365819 
L 348.290022 138.926079 
L 391.007726 128.985228 
L 433.725429 118.901623 
L 476.443132 113.087653 
L 519.160836 105.158331 
L 561.878539 102.017749 
L 604.596243 87.158383 
L 647.313946 84.731569 
L 690.031649 81.850539 
L 732.749353 83.252122 
L 775.467056 87.301137 
L 818.184759 77.204554 
L 860.902463 73.635711 
L 903.620166 75.569375 
L 946.337869 78.294674 
" style="fill:none;stroke:#ae7181;stroke-linecap:square;stroke-width:1.5;"/>
    <defs>
     <path d="M -4.5 4.5 
L 4.5 4.5 
L 4.5 -4.5 
L -4.5 -4.5 
z
" id="m4895afb9ad" style="stroke:#000000;stroke-linejoin:miter;"/>
    </defs>
    <g clip-path="url(#pe278e4a93d)">
     <use style="fill:#ae7181;stroke:#000000;stroke-linejoin:miter;" x="134.701506" xlink:href="#m4895afb9ad" y="330.774124"/>
     <use style="fill:#ae7181;stroke:#000000;stroke-linejoin:miter;" x="177.419209" xlink:href="#m4895afb9ad" y="248.0678"/>
     <use style="fill:#ae7181;stroke:#000000;stroke-linejoin:miter;" x="220.136912" xlink:href="#m4895afb9ad" y="210.328903"/>
     <use style="fill:#ae7181;stroke:#000000;stroke-linejoin:miter;" x="262.854616" xlink:href="#m4895afb9ad" y="176.574133"/>
     <use style="fill:#ae7181;stroke:#000000;stroke-linejoin:miter;" x="305.572319" xlink:href="#m4895afb9ad" y="159.365819"/>
     <use style="fill:#ae7181;stroke:#000000;stroke-linejoin:miter;" x="348.290022" xlink:href="#m4895afb9ad" y="138.926079"/>
     <use style="fill:#ae7181;stroke:#000000;stroke-linejoin:miter;" x="391.007726" xlink:href="#m4895afb9ad" y="128.985228"/>
     <use style="fill:#ae7181;stroke:#000000;stroke-linejoin:miter;" x="433.725429" xlink:href="#m4895afb9ad" y="118.901623"/>
     <use style="fill:#ae7181;stroke:#000000;stroke-linejoin:miter;" x="476.443132" xlink:href="#m4895afb9ad" y="113.087653"/>
     <use style="fill:#ae7181;stroke:#000000;stroke-linejoin:miter;" x="519.160836" xlink:href="#m4895afb9ad" y="105.158331"/>
     <use style="fill:#ae7181;stroke:#000000;stroke-linejoin:miter;" x="561.878539" xlink:href="#m4895afb9ad" y="102.017749"/>
     <use style="fill:#ae7181;stroke:#000000;stroke-linejoin:miter;" x="604.596243" xlink:href="#m4895afb9ad" y="87.158383"/>
     <use style="fill:#ae7181;stroke:#000000;stroke-linejoin:miter;" x="647.313946" xlink:href="#m4895afb9ad" y="84.731569"/>
     <use style="fill:#ae7181;stroke:#000000;stroke-linejoin:miter;" x="690.031649" xlink:href="#m4895afb9ad" y="81.850539"/>
     <use style="fill:#ae7181;stroke:#000000;stroke-linejoin:miter;" x="732.749353" xlink:href="#m4895afb9ad" y="83.252122"/>
     <use style="fill:#ae7181;stroke:#000000;stroke-linejoin:miter;" x="775.467056" xlink:href="#m4895afb9ad" y="87.301137"/>
     <use style="fill:#ae7181;stroke:#000000;stroke-linejoin:miter;" x="818.184759" xlink:href="#m4895afb9ad" y="77.204554"/>
     <use style="fill:#ae7181;stroke:#000000;stroke-linejoin:miter;" x="860.902463" xlink:href="#m4895afb9ad" y="73.635711"/>
     <use style="fill:#ae7181;stroke:#000000;stroke-linejoin:miter;" x="903.620166" xlink:href="#m4895afb9ad" y="75.569375"/>
     <use style="fill:#ae7181;stroke:#000000;stroke-linejoin:miter;" x="946.337869" xlink:href="#m4895afb9ad" y="78.294674"/>
    </g>
   </g>
   <g id="line2d_34">
    <path clip-path="url(#pe278e4a93d)" d="M 134.701506 953.342639 
L 177.419209 911.989477 
L 220.136912 893.120028 
L 262.854616 876.242643 
L 305.572319 867.638486 
L 348.290022 857.418616 
L 391.007726 852.448191 
L 433.725429 847.406388 
L 476.443132 844.499403 
L 519.160836 840.534742 
L 561.878539 838.964451 
L 604.596243 831.534768 
L 647.313946 830.321361 
L 690.031649 828.880846 
L 732.749353 829.581637 
L 775.467056 831.606145 
L 818.184759 826.557854 
L 860.902463 824.773432 
L 903.620166 825.740264 
L 946.337869 827.102913 
" style="fill:none;stroke:#ae7181;stroke-dasharray:5.55,2.4;stroke-dashoffset:0;stroke-width:1.5;"/>
    <defs>
     <path d="M 0 -4.5 
L -1.010313 -1.390576 
L -4.279754 -1.390576 
L -1.634721 0.531153 
L -2.645034 3.640576 
L -0 1.718847 
L 2.645034 3.640576 
L 1.634721 0.531153 
L 4.279754 -1.390576 
L 1.010313 -1.390576 
z
" id="m5cae51225a" style="stroke:#000000;stroke-linejoin:bevel;"/>
    </defs>
    <g clip-path="url(#pe278e4a93d)">
     <use style="fill:#ae7181;stroke:#000000;stroke-linejoin:bevel;" x="134.701506" xlink:href="#m5cae51225a" y="953.342639"/>
     <use style="fill:#ae7181;stroke:#000000;stroke-linejoin:bevel;" x="177.419209" xlink:href="#m5cae51225a" y="911.989477"/>
     <use style="fill:#ae7181;stroke:#000000;stroke-linejoin:bevel;" x="220.136912" xlink:href="#m5cae51225a" y="893.120028"/>
     <use style="fill:#ae7181;stroke:#000000;stroke-linejoin:bevel;" x="262.854616" xlink:href="#m5cae51225a" y="876.242643"/>
     <use style="fill:#ae7181;stroke:#000000;stroke-linejoin:bevel;" x="305.572319" xlink:href="#m5cae51225a" y="867.638486"/>
     <use style="fill:#ae7181;stroke:#000000;stroke-linejoin:bevel;" x="348.290022" xlink:href="#m5cae51225a" y="857.418616"/>
     <use style="fill:#ae7181;stroke:#000000;stroke-linejoin:bevel;" x="391.007726" xlink:href="#m5cae51225a" y="852.448191"/>
     <use style="fill:#ae7181;stroke:#000000;stroke-linejoin:bevel;" x="433.725429" xlink:href="#m5cae51225a" y="847.406388"/>
     <use style="fill:#ae7181;stroke:#000000;stroke-linejoin:bevel;" x="476.443132" xlink:href="#m5cae51225a" y="844.499403"/>
     <use style="fill:#ae7181;stroke:#000000;stroke-linejoin:bevel;" x="519.160836" xlink:href="#m5cae51225a" y="840.534742"/>
     <use style="fill:#ae7181;stroke:#000000;stroke-linejoin:bevel;" x="561.878539" xlink:href="#m5cae51225a" y="838.964451"/>
     <use style="fill:#ae7181;stroke:#000000;stroke-linejoin:bevel;" x="604.596243" xlink:href="#m5cae51225a" y="831.534768"/>
     <use style="fill:#ae7181;stroke:#000000;stroke-linejoin:bevel;" x="647.313946" xlink:href="#m5cae51225a" y="830.321361"/>
     <use style="fill:#ae7181;stroke:#000000;stroke-linejoin:bevel;" x="690.031649" xlink:href="#m5cae51225a" y="828.880846"/>
     <use style="fill:#ae7181;stroke:#000000;stroke-linejoin:bevel;" x="732.749353" xlink:href="#m5cae51225a" y="829.581637"/>
     <use style="fill:#ae7181;stroke:#000000;stroke-linejoin:bevel;" x="775.467056" xlink:href="#m5cae51225a" y="831.606145"/>
     <use style="fill:#ae7181;stroke:#000000;stroke-linejoin:bevel;" x="818.184759" xlink:href="#m5cae51225a" y="826.557854"/>
     <use style="fill:#ae7181;stroke:#000000;stroke-linejoin:bevel;" x="860.902463" xlink:href="#m5cae51225a" y="824.773432"/>
     <use style="fill:#ae7181;stroke:#000000;stroke-linejoin:bevel;" x="903.620166" xlink:href="#m5cae51225a" y="825.740264"/>
     <use style="fill:#ae7181;stroke:#000000;stroke-linejoin:bevel;" x="946.337869" xlink:href="#m5cae51225a" y="827.102913"/>
    </g>
   </g>
   <g id="patch_3">
    <path d="M 94.119688 1008.403404 
L 94.119688 10.483404 
" style="fill:none;stroke:#000000;stroke-linecap:square;stroke-linejoin:miter;stroke-width:0.8;"/>
   </g>
   <g id="patch_4">
    <path d="M 986.919688 1008.403404 
L 986.919688 10.483404 
" style="fill:none;stroke:#000000;stroke-linecap:square;stroke-linejoin:miter;stroke-width:0.8;"/>
   </g>
   <g id="patch_5">
    <path d="M 94.119688 1008.403404 
L 986.919687 1008.403404 
" style="fill:none;stroke:#000000;stroke-linecap:square;stroke-linejoin:miter;stroke-width:0.8;"/>
   </g>
   <g id="patch_6">
    <path d="M 94.119688 10.483404 
L 986.919687 10.483404 
" style="fill:none;stroke:#000000;stroke-linecap:square;stroke-linejoin:miter;stroke-width:0.8;"/>
   </g>
   <g id="legend_1">
    <g id="patch_7">
     <path d="M 489.27125 690.080904 
L 965.919688 690.080904 
Q 971.919688 690.080904 971.919688 684.080904 
L 971.919688 334.805904 
Q 971.919688 328.805904 965.919688 328.805904 
L 489.27125 328.805904 
Q 483.27125 328.805904 483.27125 334.805904 
L 483.27125 684.080904 
Q 483.27125 690.080904 489.27125 690.080904 
z
" style="fill:#ffffff;opacity:0.8;stroke:#cccccc;stroke-linejoin:miter;"/>
    </g>
    <g id="line2d_35">
     <path d="M 495.27125 353.101217 
L 555.27125 353.101217 
" style="fill:none;stroke:#fe0002;stroke-linecap:square;stroke-width:1.5;"/>
    </g>
    <g id="line2d_36">
     <g>
      <use style="fill:#fe0002;stroke:#000000;" x="525.27125" xlink:href="#m8c2e14d3d9" y="353.101217"/>
     </g>
    </g>
    <g id="text_16">
     <!-- Pairing comparisons -->
     <g transform="translate(579.27125 363.601217)scale(0.3 -0.3)">
      <defs>
       <path d="M 1259 4147 
L 1259 2394 
L 2053 2394 
Q 2494 2394 2734 2622 
Q 2975 2850 2975 3272 
Q 2975 3691 2734 3919 
Q 2494 4147 2053 4147 
L 1259 4147 
z
M 628 4666 
L 2053 4666 
Q 2838 4666 3239 4311 
Q 3641 3956 3641 3272 
Q 3641 2581 3239 2228 
Q 2838 1875 2053 1875 
L 1259 1875 
L 1259 0 
L 628 0 
L 628 4666 
z
" id="DejaVuSans-50" transform="scale(0.015625)"/>
       <path d="M 3122 3366 
L 3122 2828 
Q 2878 2963 2633 3030 
Q 2388 3097 2138 3097 
Q 1578 3097 1268 2742 
Q 959 2388 959 1747 
Q 959 1106 1268 751 
Q 1578 397 2138 397 
Q 2388 397 2633 464 
Q 2878 531 3122 666 
L 3122 134 
Q 2881 22 2623 -34 
Q 2366 -91 2075 -91 
Q 1284 -91 818 406 
Q 353 903 353 1747 
Q 353 2603 823 3093 
Q 1294 3584 2113 3584 
Q 2378 3584 2631 3529 
Q 2884 3475 3122 3366 
z
" id="DejaVuSans-63" transform="scale(0.015625)"/>
      </defs>
      <use xlink:href="#DejaVuSans-50"/>
      <use x="55.802734" xlink:href="#DejaVuSans-61"/>
      <use x="117.082031" xlink:href="#DejaVuSans-69"/>
      <use x="144.865234" xlink:href="#DejaVuSans-72"/>
      <use x="185.978516" xlink:href="#DejaVuSans-69"/>
      <use x="213.761719" xlink:href="#DejaVuSans-6e"/>
      <use x="277.140625" xlink:href="#DejaVuSans-67"/>
      <use x="340.617188" xlink:href="#DejaVuSans-20"/>
      <use x="372.404297" xlink:href="#DejaVuSans-63"/>
      <use x="427.384766" xlink:href="#DejaVuSans-6f"/>
      <use x="488.566406" xlink:href="#DejaVuSans-6d"/>
      <use x="585.978516" xlink:href="#DejaVuSans-70"/>
      <use x="649.455078" xlink:href="#DejaVuSans-61"/>
      <use x="710.734375" xlink:href="#DejaVuSans-72"/>
      <use x="751.847656" xlink:href="#DejaVuSans-69"/>
      <use x="779.630859" xlink:href="#DejaVuSans-73"/>
      <use x="831.730469" xlink:href="#DejaVuSans-6f"/>
      <use x="892.912109" xlink:href="#DejaVuSans-6e"/>
      <use x="956.291016" xlink:href="#DejaVuSans-73"/>
     </g>
    </g>
    <g id="line2d_37">
     <path d="M 495.27125 397.135592 
L 555.27125 397.135592 
" style="fill:none;stroke:#fe0002;stroke-dasharray:5.55,2.4;stroke-dashoffset:0;stroke-width:1.5;"/>
    </g>
    <g id="line2d_38">
     <g>
      <use style="fill:#fe0002;stroke:#000000;" x="525.27125" xlink:href="#m8c2e14d3d9" y="397.135592"/>
     </g>
    </g>
    <g id="text_17">
     <!-- Pairing links -->
     <g transform="translate(579.27125 407.635592)scale(0.3 -0.3)">
      <defs>
       <path d="M 581 4863 
L 1159 4863 
L 1159 1991 
L 2875 3500 
L 3609 3500 
L 1753 1863 
L 3688 0 
L 2938 0 
L 1159 1709 
L 1159 0 
L 581 0 
L 581 4863 
z
" id="DejaVuSans-6b" transform="scale(0.015625)"/>
      </defs>
      <use xlink:href="#DejaVuSans-50"/>
      <use x="55.802734" xlink:href="#DejaVuSans-61"/>
      <use x="117.082031" xlink:href="#DejaVuSans-69"/>
      <use x="144.865234" xlink:href="#DejaVuSans-72"/>
      <use x="185.978516" xlink:href="#DejaVuSans-69"/>
      <use x="213.761719" xlink:href="#DejaVuSans-6e"/>
      <use x="277.140625" xlink:href="#DejaVuSans-67"/>
      <use x="340.617188" xlink:href="#DejaVuSans-20"/>
      <use x="372.404297" xlink:href="#DejaVuSans-6c"/>
      <use x="400.1875" xlink:href="#DejaVuSans-69"/>
      <use x="427.970703" xlink:href="#DejaVuSans-6e"/>
      <use x="491.349609" xlink:href="#DejaVuSans-6b"/>
      <use x="549.259766" xlink:href="#DejaVuSans-73"/>
     </g>
    </g>
    <g id="line2d_39">
     <path d="M 495.27125 441.169967 
L 555.27125 441.169967 
" style="fill:none;stroke:#53fca1;stroke-linecap:square;stroke-width:1.5;"/>
    </g>
    <g id="line2d_40">
     <g>
      <use style="fill:#53fca1;stroke:#000000;stroke-linejoin:miter;" x="525.27125" xlink:href="#m8eb38671b9" y="441.169967"/>
     </g>
    </g>
    <g id="text_18">
     <!-- Smooth comparisons -->
     <g transform="translate(579.27125 451.669967)scale(0.3 -0.3)">
      <defs>
       <path d="M 3425 4513 
L 3425 3897 
Q 3066 4069 2747 4153 
Q 2428 4238 2131 4238 
Q 1616 4238 1336 4038 
Q 1056 3838 1056 3469 
Q 1056 3159 1242 3001 
Q 1428 2844 1947 2747 
L 2328 2669 
Q 3034 2534 3370 2195 
Q 3706 1856 3706 1288 
Q 3706 609 3251 259 
Q 2797 -91 1919 -91 
Q 1588 -91 1214 -16 
Q 841 59 441 206 
L 441 856 
Q 825 641 1194 531 
Q 1563 422 1919 422 
Q 2459 422 2753 634 
Q 3047 847 3047 1241 
Q 3047 1584 2836 1778 
Q 2625 1972 2144 2069 
L 1759 2144 
Q 1053 2284 737 2584 
Q 422 2884 422 3419 
Q 422 4038 858 4394 
Q 1294 4750 2059 4750 
Q 2388 4750 2728 4690 
Q 3069 4631 3425 4513 
z
" id="DejaVuSans-53" transform="scale(0.015625)"/>
       <path d="M 3513 2113 
L 3513 0 
L 2938 0 
L 2938 2094 
Q 2938 2591 2744 2837 
Q 2550 3084 2163 3084 
Q 1697 3084 1428 2787 
Q 1159 2491 1159 1978 
L 1159 0 
L 581 0 
L 581 4863 
L 1159 4863 
L 1159 2956 
Q 1366 3272 1645 3428 
Q 1925 3584 2291 3584 
Q 2894 3584 3203 3211 
Q 3513 2838 3513 2113 
z
" id="DejaVuSans-68" transform="scale(0.015625)"/>
      </defs>
      <use xlink:href="#DejaVuSans-53"/>
      <use x="63.476562" xlink:href="#DejaVuSans-6d"/>
      <use x="160.888672" xlink:href="#DejaVuSans-6f"/>
      <use x="222.070312" xlink:href="#DejaVuSans-6f"/>
      <use x="283.251953" xlink:href="#DejaVuSans-74"/>
      <use x="322.460938" xlink:href="#DejaVuSans-68"/>
      <use x="385.839844" xlink:href="#DejaVuSans-20"/>
      <use x="417.626953" xlink:href="#DejaVuSans-63"/>
      <use x="472.607422" xlink:href="#DejaVuSans-6f"/>
      <use x="533.789062" xlink:href="#DejaVuSans-6d"/>
      <use x="631.201172" xlink:href="#DejaVuSans-70"/>
      <use x="694.677734" xlink:href="#DejaVuSans-61"/>
      <use x="755.957031" xlink:href="#DejaVuSans-72"/>
      <use x="797.070312" xlink:href="#DejaVuSans-69"/>
      <use x="824.853516" xlink:href="#DejaVuSans-73"/>
      <use x="876.953125" xlink:href="#DejaVuSans-6f"/>
      <use x="938.134766" xlink:href="#DejaVuSans-6e"/>
      <use x="1001.513672" xlink:href="#DejaVuSans-73"/>
     </g>
    </g>
    <g id="line2d_41">
     <path d="M 495.27125 485.204342 
L 555.27125 485.204342 
" style="fill:none;stroke:#53fca1;stroke-dasharray:5.55,2.4;stroke-dashoffset:0;stroke-width:1.5;"/>
    </g>
    <g id="line2d_42">
     <g>
      <use style="fill:#53fca1;stroke:#000000;stroke-linejoin:miter;" x="525.27125" xlink:href="#m83fb57b662" y="485.204342"/>
     </g>
    </g>
    <g id="text_19">
     <!-- Smooth links -->
     <g transform="translate(579.27125 495.704342)scale(0.3 -0.3)">
      <use xlink:href="#DejaVuSans-53"/>
      <use x="63.476562" xlink:href="#DejaVuSans-6d"/>
      <use x="160.888672" xlink:href="#DejaVuSans-6f"/>
      <use x="222.070312" xlink:href="#DejaVuSans-6f"/>
      <use x="283.251953" xlink:href="#DejaVuSans-74"/>
      <use x="322.460938" xlink:href="#DejaVuSans-68"/>
      <use x="385.839844" xlink:href="#DejaVuSans-20"/>
      <use x="417.626953" xlink:href="#DejaVuSans-6c"/>
      <use x="445.410156" xlink:href="#DejaVuSans-69"/>
      <use x="473.193359" xlink:href="#DejaVuSans-6e"/>
      <use x="536.572266" xlink:href="#DejaVuSans-6b"/>
      <use x="594.482422" xlink:href="#DejaVuSans-73"/>
     </g>
    </g>
    <g id="line2d_43">
     <path d="M 495.27125 529.238717 
L 555.27125 529.238717 
" style="fill:none;stroke:#0652ff;stroke-linecap:square;stroke-width:1.5;"/>
    </g>
    <g id="line2d_44">
     <g>
      <use style="fill:#0652ff;stroke:#000000;stroke-linejoin:miter;" x="525.27125" xlink:href="#md9b775d33d" y="529.238717"/>
     </g>
    </g>
    <g id="text_20">
     <!-- Slim comparisons -->
     <g transform="translate(579.27125 539.738717)scale(0.3 -0.3)">
      <use xlink:href="#DejaVuSans-53"/>
      <use x="63.476562" xlink:href="#DejaVuSans-6c"/>
      <use x="91.259766" xlink:href="#DejaVuSans-69"/>
      <use x="119.042969" xlink:href="#DejaVuSans-6d"/>
      <use x="216.455078" xlink:href="#DejaVuSans-20"/>
      <use x="248.242188" xlink:href="#DejaVuSans-63"/>
      <use x="303.222656" xlink:href="#DejaVuSans-6f"/>
      <use x="364.404297" xlink:href="#DejaVuSans-6d"/>
      <use x="461.816406" xlink:href="#DejaVuSans-70"/>
      <use x="525.292969" xlink:href="#DejaVuSans-61"/>
      <use x="586.572266" xlink:href="#DejaVuSans-72"/>
      <use x="627.685547" xlink:href="#DejaVuSans-69"/>
      <use x="655.46875" xlink:href="#DejaVuSans-73"/>
      <use x="707.568359" xlink:href="#DejaVuSans-6f"/>
      <use x="768.75" xlink:href="#DejaVuSans-6e"/>
      <use x="832.128906" xlink:href="#DejaVuSans-73"/>
     </g>
    </g>
    <g id="line2d_45">
     <path d="M 495.27125 573.273092 
L 555.27125 573.273092 
" style="fill:none;stroke:#0652ff;stroke-dasharray:5.55,2.4;stroke-dashoffset:0;stroke-width:1.5;"/>
    </g>
    <g id="line2d_46">
     <g>
      <use style="fill:#0652ff;stroke:#000000;stroke-linejoin:miter;" x="525.27125" xlink:href="#mf5d8971063" y="573.273092"/>
     </g>
    </g>
    <g id="text_21">
     <!-- Slim links -->
     <g transform="translate(579.27125 583.773092)scale(0.3 -0.3)">
      <use xlink:href="#DejaVuSans-53"/>
      <use x="63.476562" xlink:href="#DejaVuSans-6c"/>
      <use x="91.259766" xlink:href="#DejaVuSans-69"/>
      <use x="119.042969" xlink:href="#DejaVuSans-6d"/>
      <use x="216.455078" xlink:href="#DejaVuSans-20"/>
      <use x="248.242188" xlink:href="#DejaVuSans-6c"/>
      <use x="276.025391" xlink:href="#DejaVuSans-69"/>
      <use x="303.808594" xlink:href="#DejaVuSans-6e"/>
      <use x="367.1875" xlink:href="#DejaVuSans-6b"/>
      <use x="425.097656" xlink:href="#DejaVuSans-73"/>
     </g>
    </g>
    <g id="line2d_47">
     <path d="M 495.27125 617.307467 
L 555.27125 617.307467 
" style="fill:none;stroke:#ae7181;stroke-linecap:square;stroke-width:1.5;"/>
    </g>
    <g id="line2d_48">
     <g>
      <use style="fill:#ae7181;stroke:#000000;stroke-linejoin:miter;" x="525.27125" xlink:href="#m4895afb9ad" y="617.307467"/>
     </g>
    </g>
    <g id="text_22">
     <!-- Pairing Lazy comparisons -->
     <g transform="translate(579.27125 627.807467)scale(0.3 -0.3)">
      <defs>
       <path d="M 628 4666 
L 1259 4666 
L 1259 531 
L 3531 531 
L 3531 0 
L 628 0 
L 628 4666 
z
" id="DejaVuSans-4c" transform="scale(0.015625)"/>
      </defs>
      <use xlink:href="#DejaVuSans-50"/>
      <use x="55.802734" xlink:href="#DejaVuSans-61"/>
      <use x="117.082031" xlink:href="#DejaVuSans-69"/>
      <use x="144.865234" xlink:href="#DejaVuSans-72"/>
      <use x="185.978516" xlink:href="#DejaVuSans-69"/>
      <use x="213.761719" xlink:href="#DejaVuSans-6e"/>
      <use x="277.140625" xlink:href="#DejaVuSans-67"/>
      <use x="340.617188" xlink:href="#DejaVuSans-20"/>
      <use x="372.404297" xlink:href="#DejaVuSans-4c"/>
      <use x="428.117188" xlink:href="#DejaVuSans-61"/>
      <use x="489.396484" xlink:href="#DejaVuSans-7a"/>
      <use x="541.886719" xlink:href="#DejaVuSans-79"/>
      <use x="601.066406" xlink:href="#DejaVuSans-20"/>
      <use x="632.853516" xlink:href="#DejaVuSans-63"/>
      <use x="687.833984" xlink:href="#DejaVuSans-6f"/>
      <use x="749.015625" xlink:href="#DejaVuSans-6d"/>
      <use x="846.427734" xlink:href="#DejaVuSans-70"/>
      <use x="909.904297" xlink:href="#DejaVuSans-61"/>
      <use x="971.183594" xlink:href="#DejaVuSans-72"/>
      <use x="1012.296875" xlink:href="#DejaVuSans-69"/>
      <use x="1040.080078" xlink:href="#DejaVuSans-73"/>
      <use x="1092.179688" xlink:href="#DejaVuSans-6f"/>
      <use x="1153.361328" xlink:href="#DejaVuSans-6e"/>
      <use x="1216.740234" xlink:href="#DejaVuSans-73"/>
     </g>
    </g>
    <g id="line2d_49">
     <path d="M 495.27125 661.341842 
L 555.27125 661.341842 
" style="fill:none;stroke:#ae7181;stroke-dasharray:5.55,2.4;stroke-dashoffset:0;stroke-width:1.5;"/>
    </g>
    <g id="line2d_50">
     <g>
      <use style="fill:#ae7181;stroke:#000000;stroke-linejoin:bevel;" x="525.27125" xlink:href="#m5cae51225a" y="661.341842"/>
     </g>
    </g>
    <g id="text_23">
     <!-- Pairing Lazy links -->
     <g transform="translate(579.27125 671.841842)scale(0.3 -0.3)">
      <use xlink:href="#DejaVuSans-50"/>
      <use x="55.802734" xlink:href="#DejaVuSans-61"/>
      <use x="117.082031" xlink:href="#DejaVuSans-69"/>
      <use x="144.865234" xlink:href="#DejaVuSans-72"/>
      <use x="185.978516" xlink:href="#DejaVuSans-69"/>
      <use x="213.761719" xlink:href="#DejaVuSans-6e"/>
      <use x="277.140625" xlink:href="#DejaVuSans-67"/>
      <use x="340.617188" xlink:href="#DejaVuSans-20"/>
      <use x="372.404297" xlink:href="#DejaVuSans-4c"/>
      <use x="428.117188" xlink:href="#DejaVuSans-61"/>
      <use x="489.396484" xlink:href="#DejaVuSans-7a"/>
      <use x="541.886719" xlink:href="#DejaVuSans-79"/>
      <use x="601.066406" xlink:href="#DejaVuSans-20"/>
      <use x="632.853516" xlink:href="#DejaVuSans-6c"/>
      <use x="660.636719" xlink:href="#DejaVuSans-69"/>
      <use x="688.419922" xlink:href="#DejaVuSans-6e"/>
      <use x="751.798828" xlink:href="#DejaVuSans-6b"/>
      <use x="809.708984" xlink:href="#DejaVuSans-73"/>
     </g>
    </g>
   </g>
  </g>
 </g>
 <defs>
  <clipPath id="pe278e4a93d">
   <rect height="997.92" width="892.8" x="94.119688" y="10.483404"/>
  </clipPath>
 </defs>
</svg>
