<?xml version="1.0" encoding="utf-8" standalone="no"?>
<!DOCTYPE svg PUBLIC "-//W3C//DTD SVG 1.1//EN"
  "http://www.w3.org/Graphics/SVG/1.1/DTD/svg11.dtd">
<svg height="1090.099062pt" version="1.1" viewBox="0 0 1014.923768 1090.099062" width="1014.923768pt" xmlns="http://www.w3.org/2000/svg" xmlns:xlink="http://www.w3.org/1999/xlink">
 <metadata>
  <rdf:RDF xmlns:cc="http://creativecommons.org/ns#" xmlns:dc="http://purl.org/dc/elements/1.1/" xmlns:rdf="http://www.w3.org/1999/02/22-rdf-syntax-ns#">
   <cc:Work>
    <dc:type rdf:resource="http://purl.org/dc/dcmitype/StillImage"/>
    <dc:date>2021-07-11T15:25:19.483416</dc:date>
    <dc:format>image/svg+xml</dc:format>
    <dc:creator>
     <cc:Agent>
      <dc:title>Matplotlib v3.4.2, https://matplotlib.org/</dc:title>
     </cc:Agent>
    </dc:creator>
   </cc:Work>
  </rdf:RDF>
 </metadata>
 <defs>
  <style type="text/css">*{stroke-linecap:butt;stroke-linejoin:round;}</style>
 </defs>
 <g id="figure_1">
  <g id="patch_1">
   <path d="M 0 1090.099062 
L 1014.923768 1090.099062 
L 1014.923768 0 
L 0 0 
z
" style="fill:#ffffff;"/>
  </g>
  <g id="axes_1">
   <g id="patch_2">
    <path d="M 94.119688 1005.12 
L 986.919688 1005.12 
L 986.919688 7.2 
L 94.119688 7.2 
z
" style="fill:#ffffff;"/>
   </g>
   <g id="PolyCollection_1">
    <defs>
     <path d="M 134.701506 -269.240728 
L 134.701506 -269.240728 
L 162.688966 -650.372907 
L 190.676427 -720.923558 
L 218.663888 -760.985799 
L 246.651349 -791.35401 
L 274.63881 -811.44523 
L 302.626271 -829.517111 
L 330.613731 -845.431424 
L 358.601192 -856.141132 
L 386.588653 -866.983059 
L 414.576114 -876.562898 
L 442.563575 -885.163118 
L 470.551035 -890.644181 
L 498.538496 -896.984664 
L 526.525957 -904.563195 
L 554.513418 -908.914389 
L 582.500879 -914.407472 
L 610.48834 -918.41009 
L 638.4758 -924.047411 
L 666.463261 -927.322827 
L 694.450722 -929.90109 
L 722.438183 -933.555131 
L 750.425644 -936.367782 
L 778.413104 -939.799456 
L 806.400565 -942.23949 
L 834.388026 -944.643465 
L 862.375487 -947.269808 
L 890.362948 -950.382955 
L 918.350409 -949.469445 
L 946.337869 -953.345854 
L 946.337869 -956.224614 
L 946.337869 -956.224614 
L 918.350409 -954.511782 
L 890.362948 -954.217295 
L 862.375487 -950.208667 
L 834.388026 -948.694163 
L 806.400565 -945.809393 
L 778.413104 -943.068862 
L 750.425644 -940.592768 
L 722.438183 -937.076955 
L 694.450722 -934.781159 
L 666.463261 -930.478044 
L 638.4758 -926.99829 
L 610.48834 -921.992012 
L 582.500879 -918.37403 
L 554.513418 -912.820849 
L 526.525957 -907.814571 
L 498.538496 -902.724154 
L 470.551035 -895.422081 
L 442.563575 -887.543053 
L 414.576114 -879.958513 
L 386.588653 -870.234434 
L 358.601192 -860.023551 
L 330.613731 -847.492833 
L 302.626271 -833.826236 
L 274.63881 -815.700266 
L 246.651349 -795.068152 
L 218.663888 -765.59542 
L 190.676427 -726.260382 
L 162.688966 -654.381535 
L 134.701506 -269.240728 
z
" id="m884cbb7fed" style="stroke:#fe0002;stroke-opacity:0.3;"/>
    </defs>
    <g clip-path="url(#p4ce1386112)">
     <use style="fill:#fe0002;fill-opacity:0.3;stroke:#fe0002;stroke-opacity:0.3;" x="0" xlink:href="#m884cbb7fed" y="1090.099062"/>
    </g>
   </g>
   <g id="PolyCollection_2">
    <defs>
     <path d="M 134.701506 -130.339063 
L 134.701506 -130.339063 
L 162.688966 -448.354882 
L 190.676427 -498.898453 
L 218.663888 -529.561152 
L 246.651349 -549.544193 
L 274.63881 -564.388737 
L 302.626271 -577.832966 
L 330.613731 -588.813121 
L 358.601192 -595.958937 
L 386.588653 -603.639636 
L 414.576114 -610.220517 
L 442.563575 -616.428782 
L 470.551035 -620.154943 
L 498.538496 -625.27541 
L 526.525957 -630.245628 
L 554.513418 -634.584802 
L 582.500879 -637.69795 
L 610.48834 -641.784707 
L 638.4758 -644.33893 
L 666.463261 -645.522888 
L 694.450722 -649.237029 
L 722.438183 -651.250358 
L 750.425644 -652.91511 
L 778.413104 -656.382844 
L 806.400565 -657.260295 
L 834.388026 -658.925047 
L 862.375487 -661.190794 
L 890.362948 -662.374751 
L 918.350409 -663.40245 
L 946.337869 -665.013114 
L 946.337869 -669.280169 
L 946.337869 -669.280169 
L 918.350409 -667.116591 
L 890.362948 -665.451839 
L 862.375487 -663.510629 
L 834.388026 -662.44086 
L 806.400565 -660.367432 
L 778.413104 -660.115015 
L 750.425644 -656.683341 
L 722.438183 -654.429614 
L 694.450722 -653.618273 
L 666.463261 -650.06039 
L 638.4758 -648.377608 
L 610.48834 -643.966314 
L 582.500879 -641.285882 
L 554.513418 -637.577751 
L 526.525957 -633.79149 
L 498.538496 -628.250328 
L 470.551035 -624.488108 
L 442.563575 -619.145274 
L 414.576114 -612.492273 
L 386.588653 -606.806873 
L 358.601192 -598.753557 
L 330.613731 -590.718272 
L 302.626271 -580.34512 
L 274.63881 -568.493524 
L 246.651349 -552.422953 
L 218.663888 -532.355773 
L 190.676427 -502.822942 
L 162.688966 -450.410281 
L 134.701506 -130.339063 
z
" id="m488534d254" style="stroke:#53fca1;stroke-opacity:0.3;"/>
    </defs>
    <g clip-path="url(#p4ce1386112)">
     <use style="fill:#53fca1;fill-opacity:0.3;stroke:#53fca1;stroke-opacity:0.3;" x="0" xlink:href="#m488534d254" y="1090.099062"/>
    </g>
   </g>
   <g id="PolyCollection_3">
    <defs>
     <path d="M 134.701506 -130.339063 
L 134.701506 -130.339063 
L 162.688966 -501.392577 
L 190.676427 -575.729488 
L 218.663888 -615.365023 
L 246.651349 -646.953253 
L 274.63881 -671.371627 
L 302.626271 -689.960362 
L 330.613731 -705.237622 
L 358.601192 -716.728622 
L 386.588653 -728.045333 
L 414.576114 -738.989429 
L 442.563575 -749.38061 
L 470.551035 -754.14649 
L 498.538496 -762.031528 
L 526.525957 -769.111233 
L 554.513418 -775.866403 
L 582.500879 -779.472365 
L 610.48834 -784.063957 
L 638.4758 -787.754058 
L 666.463261 -792.33964 
L 694.450722 -796.624725 
L 722.438183 -801.204297 
L 750.425644 -804.233306 
L 778.413104 -807.63493 
L 806.400565 -808.836917 
L 834.388026 -810.291322 
L 862.375487 -813.073923 
L 890.362948 -817.503247 
L 918.350409 -818.783363 
L 946.337869 -821.782322 
L 946.337869 -825.676761 
L 946.337869 -825.676761 
L 918.350409 -821.680153 
L 890.362948 -823.801661 
L 862.375487 -818.795383 
L 834.388026 -815.838494 
L 806.400565 -814.444189 
L 778.413104 -813.602798 
L 750.425644 -809.49801 
L 722.438183 -805.970177 
L 694.450722 -802.84501 
L 666.463261 -797.940902 
L 638.4758 -793.890204 
L 610.48834 -789.659208 
L 582.500879 -785.271954 
L 554.513418 -779.754832 
L 526.525957 -773.702825 
L 498.538496 -768.390041 
L 470.551035 -759.363115 
L 442.563575 -755.276358 
L 414.576114 -743.370673 
L 386.588653 -734.457936 
L 358.601192 -722.486142 
L 330.613731 -710.472277 
L 302.626271 -694.077169 
L 274.63881 -678.637641 
L 246.651349 -654.032958 
L 218.663888 -622.36059 
L 190.676427 -580.886014 
L 162.688966 -505.082678 
L 134.701506 -130.339063 
z
" id="mf29ef46580" style="stroke:#0652ff;stroke-opacity:0.3;"/>
    </defs>
    <g clip-path="url(#p4ce1386112)">
     <use style="fill:#0652ff;fill-opacity:0.3;stroke:#0652ff;stroke-opacity:0.3;" x="0" xlink:href="#mf29ef46580" y="1090.099062"/>
    </g>
   </g>
   <g id="PolyCollection_4">
    <defs>
     <path d="M 134.701506 -201.770169 
L 134.701506 -201.770169 
L 162.688966 -467.724909 
L 190.676427 -538.230486 
L 218.663888 -582.091007 
L 246.651349 -613.111297 
L 274.63881 -638.972056 
L 302.626271 -657.876313 
L 330.613731 -677.138162 
L 358.601192 -689.867208 
L 386.588653 -702.54517 
L 414.576114 -713.242858 
L 442.563575 -723.489801 
L 470.551035 -732.991512 
L 498.538496 -741.24015 
L 526.525957 -750.041703 
L 554.513418 -754.852658 
L 582.500879 -761.090972 
L 610.48834 -767.341307 
L 638.4758 -772.464778 
L 666.463261 -777.428986 
L 694.450722 -779.986215 
L 722.438183 -786.326698 
L 750.425644 -790.335326 
L 778.413104 -793.211081 
L 806.400565 -797.496166 
L 834.388026 -798.926531 
L 862.375487 -803.289746 
L 890.362948 -804.888389 
L 918.350409 -807.042951 
L 946.337869 -809.711363 
L 946.337869 -816.102931 
L 946.337869 -816.102931 
L 918.350409 -812.343716 
L 890.362948 -810.117034 
L 862.375487 -806.631271 
L 834.388026 -803.704431 
L 806.400565 -804.560847 
L 778.413104 -797.892822 
L 750.425644 -793.929269 
L 722.438183 -790.296262 
L 694.450722 -786.449902 
L 666.463261 -781.305396 
L 638.4758 -777.58224 
L 610.48834 -770.932244 
L 582.500879 -766.707259 
L 554.513418 -759.36612 
L 526.525957 -753.299089 
L 498.538496 -744.798033 
L 470.551035 -737.312656 
L 442.563575 -729.580872 
L 414.576114 -716.761677 
L 386.588653 -706.556803 
L 358.601192 -693.692533 
L 330.613731 -680.789198 
L 302.626271 -664.129653 
L 274.63881 -644.657457 
L 246.651349 -617.426432 
L 218.663888 -586.210819 
L 190.676427 -541.587036 
L 162.688966 -471.688463 
L 134.701506 -201.770169 
z
" id="mcdbf8a0cd2" style="stroke:#ae7181;stroke-opacity:0.3;"/>
    </defs>
    <g clip-path="url(#p4ce1386112)">
     <use style="fill:#ae7181;fill-opacity:0.3;stroke:#ae7181;stroke-opacity:0.3;" x="0" xlink:href="#mcdbf8a0cd2" y="1090.099062"/>
    </g>
   </g>
   <g id="PolyCollection_5">
    <defs>
     <path d="M 134.701506 -160.388748 
L 134.701506 -160.388748 
L 162.688966 -632.850935 
L 190.676427 -726.239347 
L 218.663888 -781.777176 
L 246.651349 -819.687859 
L 274.63881 -849.19064 
L 302.626271 -872.746588 
L 330.613731 -891.792079 
L 358.601192 -907.622253 
L 386.588653 -918.827781 
L 414.576114 -932.25999 
L 442.563575 -944.583366 
L 470.551035 -953.865714 
L 498.538496 -962.568103 
L 526.525957 -969.275192 
L 554.513418 -977.764228 
L 582.500879 -983.293371 
L 610.48834 -989.351387 
L 638.4758 -993.077548 
L 666.463261 -998.246094 
L 694.450722 -1003.739176 
L 722.438183 -1009.322408 
L 750.425644 -1013.300986 
L 778.413104 -1015.593777 
L 806.400565 -1019.908912 
L 834.388026 -1021.955296 
L 862.375487 -1024.41937 
L 890.362948 -1026.673096 
L 918.350409 -1030.753844 
L 946.337869 -1032.190219 
L 946.337869 -1037.539062 
L 946.337869 -1037.539062 
L 918.350409 -1036.877969 
L 890.362948 -1032.881361 
L 862.375487 -1029.741169 
L 834.388026 -1029.266384 
L 806.400565 -1026.670091 
L 778.413104 -1023.812366 
L 750.425644 -1019.788713 
L 722.438183 -1015.476584 
L 694.450722 -1012.681963 
L 666.463261 -1006.750155 
L 638.4758 -1004.529483 
L 610.48834 -995.583692 
L 582.500879 -991.313632 
L 554.513418 -984.020573 
L 526.525957 -977.439692 
L 498.538496 -968.283553 
L 470.551035 -960.94542 
L 442.563575 -948.739237 
L 414.576114 -938.158743 
L 386.588653 -926.775922 
L 358.601192 -913.412827 
L 330.613731 -896.260467 
L 302.626271 -879.189241 
L 274.63881 -856.82326 
L 246.651349 -827.68408 
L 218.663888 -789.334672 
L 190.676427 -733.917042 
L 162.688966 -639.615119 
L 134.701506 -160.388748 
z
" id="m11e0db222a" style="stroke:#ff9408;stroke-opacity:0.3;"/>
    </defs>
    <g clip-path="url(#p4ce1386112)">
     <use style="fill:#ff9408;fill-opacity:0.3;stroke:#ff9408;stroke-opacity:0.3;" x="0" xlink:href="#m11e0db222a" y="1090.099062"/>
    </g>
   </g>
   <g id="PolyCollection_6">
    <defs>
     <path d="M 134.701506 -160.388748 
L 134.701506 -160.388748 
L 162.688966 -577.562519 
L 190.676427 -649.1589 
L 218.663888 -691.736299 
L 246.651349 -721.758939 
L 274.63881 -744.443447 
L 302.626271 -762.27493 
L 330.613731 -777.765543 
L 358.601192 -789.196443 
L 386.588653 -801.555879 
L 414.576114 -809.606189 
L 442.563575 -819.07785 
L 470.551035 -826.25071 
L 498.538496 -833.495689 
L 526.525957 -841.101265 
L 554.513418 -846.083502 
L 582.500879 -851.576585 
L 610.48834 -854.341156 
L 638.4758 -859.963452 
L 666.463261 -863.341037 
L 694.450722 -867.704251 
L 722.438183 -871.129915 
L 750.425644 -874.612674 
L 778.413104 -876.553883 
L 806.400565 -879.201261 
L 834.388026 -881.575186 
L 862.375487 -885.43657 
L 890.362948 -886.220867 
L 918.350409 -888.81716 
L 946.337869 -889.787765 
L 946.337869 -895.04045 
L 946.337869 -895.04045 
L 918.350409 -893.61309 
L 890.362948 -890.614131 
L 862.375487 -887.89163 
L 834.388026 -887.125363 
L 806.400565 -883.140774 
L 778.413104 -881.322768 
L 750.425644 -878.032328 
L 722.438183 -874.645728 
L 694.450722 -871.58066 
L 666.463261 -866.859855 
L 638.4758 -866.352015 
L 610.48834 -859.383493 
L 582.500879 -854.91811 
L 554.513418 -849.446062 
L 526.525957 -845.100878 
L 498.538496 -837.570427 
L 470.551035 -829.832633 
L 442.563575 -823.029384 
L 414.576114 -815.459868 
L 386.588653 -805.636626 
L 358.601192 -793.583697 
L 330.613731 -781.506729 
L 302.626271 -768.149643 
L 274.63881 -748.004334 
L 246.651349 -727.357196 
L 218.663888 -697.8454 
L 190.676427 -654.504739 
L 162.688966 -580.519408 
L 134.701506 -160.388748 
z
" id="mc2d876d0b2" style="stroke:#ff81c0;stroke-opacity:0.3;"/>
    </defs>
    <g clip-path="url(#p4ce1386112)">
     <use style="fill:#ff81c0;fill-opacity:0.3;stroke:#ff81c0;stroke-opacity:0.3;" x="0" xlink:href="#mc2d876d0b2" y="1090.099062"/>
    </g>
   </g>
   <g id="matplotlib.axis_1">
    <g id="xtick_1">
     <g id="line2d_1">
      <path clip-path="url(#p4ce1386112)" d="M 134.701506 1005.12 
L 134.701506 7.2 
" style="fill:none;stroke:#b0b0b0;stroke-linecap:square;stroke-width:0.8;"/>
     </g>
     <g id="line2d_2">
      <defs>
       <path d="M 0 0 
L 0 3.5 
" id="ma037f01c34" style="stroke:#000000;stroke-width:0.8;"/>
      </defs>
      <g>
       <use style="stroke:#000000;stroke-width:0.8;" x="134.701506" xlink:href="#ma037f01c34" y="1005.12"/>
      </g>
     </g>
     <g id="text_1">
      <!-- 0.00 -->
      <g transform="translate(101.303068 1034.915313)scale(0.3 -0.3)">
       <defs>
        <path d="M 2034 4250 
Q 1547 4250 1301 3770 
Q 1056 3291 1056 2328 
Q 1056 1369 1301 889 
Q 1547 409 2034 409 
Q 2525 409 2770 889 
Q 3016 1369 3016 2328 
Q 3016 3291 2770 3770 
Q 2525 4250 2034 4250 
z
M 2034 4750 
Q 2819 4750 3233 4129 
Q 3647 3509 3647 2328 
Q 3647 1150 3233 529 
Q 2819 -91 2034 -91 
Q 1250 -91 836 529 
Q 422 1150 422 2328 
Q 422 3509 836 4129 
Q 1250 4750 2034 4750 
z
" id="DejaVuSans-30" transform="scale(0.015625)"/>
        <path d="M 684 794 
L 1344 794 
L 1344 0 
L 684 0 
L 684 794 
z
" id="DejaVuSans-2e" transform="scale(0.015625)"/>
       </defs>
       <use xlink:href="#DejaVuSans-30"/>
       <use x="63.623047" xlink:href="#DejaVuSans-2e"/>
       <use x="95.410156" xlink:href="#DejaVuSans-30"/>
       <use x="159.033203" xlink:href="#DejaVuSans-30"/>
      </g>
     </g>
    </g>
    <g id="xtick_2">
     <g id="line2d_3">
      <path clip-path="url(#p4ce1386112)" d="M 274.63881 1005.12 
L 274.63881 7.2 
" style="fill:none;stroke:#b0b0b0;stroke-linecap:square;stroke-width:0.8;"/>
     </g>
     <g id="line2d_4">
      <g>
       <use style="stroke:#000000;stroke-width:0.8;" x="274.63881" xlink:href="#ma037f01c34" y="1005.12"/>
      </g>
     </g>
     <g id="text_2">
      <!-- 0.05 -->
      <g transform="translate(241.240372 1034.915313)scale(0.3 -0.3)">
       <defs>
        <path d="M 691 4666 
L 3169 4666 
L 3169 4134 
L 1269 4134 
L 1269 2991 
Q 1406 3038 1543 3061 
Q 1681 3084 1819 3084 
Q 2600 3084 3056 2656 
Q 3513 2228 3513 1497 
Q 3513 744 3044 326 
Q 2575 -91 1722 -91 
Q 1428 -91 1123 -41 
Q 819 9 494 109 
L 494 744 
Q 775 591 1075 516 
Q 1375 441 1709 441 
Q 2250 441 2565 725 
Q 2881 1009 2881 1497 
Q 2881 1984 2565 2268 
Q 2250 2553 1709 2553 
Q 1456 2553 1204 2497 
Q 953 2441 691 2322 
L 691 4666 
z
" id="DejaVuSans-35" transform="scale(0.015625)"/>
       </defs>
       <use xlink:href="#DejaVuSans-30"/>
       <use x="63.623047" xlink:href="#DejaVuSans-2e"/>
       <use x="95.410156" xlink:href="#DejaVuSans-30"/>
       <use x="159.033203" xlink:href="#DejaVuSans-35"/>
      </g>
     </g>
    </g>
    <g id="xtick_3">
     <g id="line2d_5">
      <path clip-path="url(#p4ce1386112)" d="M 414.576114 1005.12 
L 414.576114 7.2 
" style="fill:none;stroke:#b0b0b0;stroke-linecap:square;stroke-width:0.8;"/>
     </g>
     <g id="line2d_6">
      <g>
       <use style="stroke:#000000;stroke-width:0.8;" x="414.576114" xlink:href="#ma037f01c34" y="1005.12"/>
      </g>
     </g>
     <g id="text_3">
      <!-- 0.10 -->
      <g transform="translate(381.177676 1034.915313)scale(0.3 -0.3)">
       <defs>
        <path d="M 794 531 
L 1825 531 
L 1825 4091 
L 703 3866 
L 703 4441 
L 1819 4666 
L 2450 4666 
L 2450 531 
L 3481 531 
L 3481 0 
L 794 0 
L 794 531 
z
" id="DejaVuSans-31" transform="scale(0.015625)"/>
       </defs>
       <use xlink:href="#DejaVuSans-30"/>
       <use x="63.623047" xlink:href="#DejaVuSans-2e"/>
       <use x="95.410156" xlink:href="#DejaVuSans-31"/>
       <use x="159.033203" xlink:href="#DejaVuSans-30"/>
      </g>
     </g>
    </g>
    <g id="xtick_4">
     <g id="line2d_7">
      <path clip-path="url(#p4ce1386112)" d="M 554.513418 1005.12 
L 554.513418 7.2 
" style="fill:none;stroke:#b0b0b0;stroke-linecap:square;stroke-width:0.8;"/>
     </g>
     <g id="line2d_8">
      <g>
       <use style="stroke:#000000;stroke-width:0.8;" x="554.513418" xlink:href="#ma037f01c34" y="1005.12"/>
      </g>
     </g>
     <g id="text_4">
      <!-- 0.15 -->
      <g transform="translate(521.11498 1034.915313)scale(0.3 -0.3)">
       <use xlink:href="#DejaVuSans-30"/>
       <use x="63.623047" xlink:href="#DejaVuSans-2e"/>
       <use x="95.410156" xlink:href="#DejaVuSans-31"/>
       <use x="159.033203" xlink:href="#DejaVuSans-35"/>
      </g>
     </g>
    </g>
    <g id="xtick_5">
     <g id="line2d_9">
      <path clip-path="url(#p4ce1386112)" d="M 694.450722 1005.12 
L 694.450722 7.2 
" style="fill:none;stroke:#b0b0b0;stroke-linecap:square;stroke-width:0.8;"/>
     </g>
     <g id="line2d_10">
      <g>
       <use style="stroke:#000000;stroke-width:0.8;" x="694.450722" xlink:href="#ma037f01c34" y="1005.12"/>
      </g>
     </g>
     <g id="text_5">
      <!-- 0.20 -->
      <g transform="translate(661.052284 1034.915313)scale(0.3 -0.3)">
       <defs>
        <path d="M 1228 531 
L 3431 531 
L 3431 0 
L 469 0 
L 469 531 
Q 828 903 1448 1529 
Q 2069 2156 2228 2338 
Q 2531 2678 2651 2914 
Q 2772 3150 2772 3378 
Q 2772 3750 2511 3984 
Q 2250 4219 1831 4219 
Q 1534 4219 1204 4116 
Q 875 4013 500 3803 
L 500 4441 
Q 881 4594 1212 4672 
Q 1544 4750 1819 4750 
Q 2544 4750 2975 4387 
Q 3406 4025 3406 3419 
Q 3406 3131 3298 2873 
Q 3191 2616 2906 2266 
Q 2828 2175 2409 1742 
Q 1991 1309 1228 531 
z
" id="DejaVuSans-32" transform="scale(0.015625)"/>
       </defs>
       <use xlink:href="#DejaVuSans-30"/>
       <use x="63.623047" xlink:href="#DejaVuSans-2e"/>
       <use x="95.410156" xlink:href="#DejaVuSans-32"/>
       <use x="159.033203" xlink:href="#DejaVuSans-30"/>
      </g>
     </g>
    </g>
    <g id="xtick_6">
     <g id="line2d_11">
      <path clip-path="url(#p4ce1386112)" d="M 834.388026 1005.12 
L 834.388026 7.2 
" style="fill:none;stroke:#b0b0b0;stroke-linecap:square;stroke-width:0.8;"/>
     </g>
     <g id="line2d_12">
      <g>
       <use style="stroke:#000000;stroke-width:0.8;" x="834.388026" xlink:href="#ma037f01c34" y="1005.12"/>
      </g>
     </g>
     <g id="text_6">
      <!-- 0.25 -->
      <g transform="translate(800.989589 1034.915313)scale(0.3 -0.3)">
       <use xlink:href="#DejaVuSans-30"/>
       <use x="63.623047" xlink:href="#DejaVuSans-2e"/>
       <use x="95.410156" xlink:href="#DejaVuSans-32"/>
       <use x="159.033203" xlink:href="#DejaVuSans-35"/>
      </g>
     </g>
    </g>
    <g id="xtick_7">
     <g id="line2d_13">
      <path clip-path="url(#p4ce1386112)" d="M 974.32533 1005.12 
L 974.32533 7.2 
" style="fill:none;stroke:#b0b0b0;stroke-linecap:square;stroke-width:0.8;"/>
     </g>
     <g id="line2d_14">
      <g>
       <use style="stroke:#000000;stroke-width:0.8;" x="974.32533" xlink:href="#ma037f01c34" y="1005.12"/>
      </g>
     </g>
     <g id="text_7">
      <!-- 0.30 -->
      <g transform="translate(940.926893 1034.915313)scale(0.3 -0.3)">
       <defs>
        <path d="M 2597 2516 
Q 3050 2419 3304 2112 
Q 3559 1806 3559 1356 
Q 3559 666 3084 287 
Q 2609 -91 1734 -91 
Q 1441 -91 1130 -33 
Q 819 25 488 141 
L 488 750 
Q 750 597 1062 519 
Q 1375 441 1716 441 
Q 2309 441 2620 675 
Q 2931 909 2931 1356 
Q 2931 1769 2642 2001 
Q 2353 2234 1838 2234 
L 1294 2234 
L 1294 2753 
L 1863 2753 
Q 2328 2753 2575 2939 
Q 2822 3125 2822 3475 
Q 2822 3834 2567 4026 
Q 2313 4219 1838 4219 
Q 1578 4219 1281 4162 
Q 984 4106 628 3988 
L 628 4550 
Q 988 4650 1302 4700 
Q 1616 4750 1894 4750 
Q 2613 4750 3031 4423 
Q 3450 4097 3450 3541 
Q 3450 3153 3228 2886 
Q 3006 2619 2597 2516 
z
" id="DejaVuSans-33" transform="scale(0.015625)"/>
       </defs>
       <use xlink:href="#DejaVuSans-30"/>
       <use x="63.623047" xlink:href="#DejaVuSans-2e"/>
       <use x="95.410156" xlink:href="#DejaVuSans-33"/>
       <use x="159.033203" xlink:href="#DejaVuSans-30"/>
      </g>
     </g>
    </g>
    <g id="text_8">
     <!-- Locality parameter -->
     <g transform="translate(356.226406 1074.788281)scale(0.39 -0.39)">
      <defs>
       <path d="M 628 4666 
L 1259 4666 
L 1259 531 
L 3531 531 
L 3531 0 
L 628 0 
L 628 4666 
z
" id="DejaVuSans-4c" transform="scale(0.015625)"/>
       <path d="M 1959 3097 
Q 1497 3097 1228 2736 
Q 959 2375 959 1747 
Q 959 1119 1226 758 
Q 1494 397 1959 397 
Q 2419 397 2687 759 
Q 2956 1122 2956 1747 
Q 2956 2369 2687 2733 
Q 2419 3097 1959 3097 
z
M 1959 3584 
Q 2709 3584 3137 3096 
Q 3566 2609 3566 1747 
Q 3566 888 3137 398 
Q 2709 -91 1959 -91 
Q 1206 -91 779 398 
Q 353 888 353 1747 
Q 353 2609 779 3096 
Q 1206 3584 1959 3584 
z
" id="DejaVuSans-6f" transform="scale(0.015625)"/>
       <path d="M 3122 3366 
L 3122 2828 
Q 2878 2963 2633 3030 
Q 2388 3097 2138 3097 
Q 1578 3097 1268 2742 
Q 959 2388 959 1747 
Q 959 1106 1268 751 
Q 1578 397 2138 397 
Q 2388 397 2633 464 
Q 2878 531 3122 666 
L 3122 134 
Q 2881 22 2623 -34 
Q 2366 -91 2075 -91 
Q 1284 -91 818 406 
Q 353 903 353 1747 
Q 353 2603 823 3093 
Q 1294 3584 2113 3584 
Q 2378 3584 2631 3529 
Q 2884 3475 3122 3366 
z
" id="DejaVuSans-63" transform="scale(0.015625)"/>
       <path d="M 2194 1759 
Q 1497 1759 1228 1600 
Q 959 1441 959 1056 
Q 959 750 1161 570 
Q 1363 391 1709 391 
Q 2188 391 2477 730 
Q 2766 1069 2766 1631 
L 2766 1759 
L 2194 1759 
z
M 3341 1997 
L 3341 0 
L 2766 0 
L 2766 531 
Q 2569 213 2275 61 
Q 1981 -91 1556 -91 
Q 1019 -91 701 211 
Q 384 513 384 1019 
Q 384 1609 779 1909 
Q 1175 2209 1959 2209 
L 2766 2209 
L 2766 2266 
Q 2766 2663 2505 2880 
Q 2244 3097 1772 3097 
Q 1472 3097 1187 3025 
Q 903 2953 641 2809 
L 641 3341 
Q 956 3463 1253 3523 
Q 1550 3584 1831 3584 
Q 2591 3584 2966 3190 
Q 3341 2797 3341 1997 
z
" id="DejaVuSans-61" transform="scale(0.015625)"/>
       <path d="M 603 4863 
L 1178 4863 
L 1178 0 
L 603 0 
L 603 4863 
z
" id="DejaVuSans-6c" transform="scale(0.015625)"/>
       <path d="M 603 3500 
L 1178 3500 
L 1178 0 
L 603 0 
L 603 3500 
z
M 603 4863 
L 1178 4863 
L 1178 4134 
L 603 4134 
L 603 4863 
z
" id="DejaVuSans-69" transform="scale(0.015625)"/>
       <path d="M 1172 4494 
L 1172 3500 
L 2356 3500 
L 2356 3053 
L 1172 3053 
L 1172 1153 
Q 1172 725 1289 603 
Q 1406 481 1766 481 
L 2356 481 
L 2356 0 
L 1766 0 
Q 1100 0 847 248 
Q 594 497 594 1153 
L 594 3053 
L 172 3053 
L 172 3500 
L 594 3500 
L 594 4494 
L 1172 4494 
z
" id="DejaVuSans-74" transform="scale(0.015625)"/>
       <path d="M 2059 -325 
Q 1816 -950 1584 -1140 
Q 1353 -1331 966 -1331 
L 506 -1331 
L 506 -850 
L 844 -850 
Q 1081 -850 1212 -737 
Q 1344 -625 1503 -206 
L 1606 56 
L 191 3500 
L 800 3500 
L 1894 763 
L 2988 3500 
L 3597 3500 
L 2059 -325 
z
" id="DejaVuSans-79" transform="scale(0.015625)"/>
       <path id="DejaVuSans-20" transform="scale(0.015625)"/>
       <path d="M 1159 525 
L 1159 -1331 
L 581 -1331 
L 581 3500 
L 1159 3500 
L 1159 2969 
Q 1341 3281 1617 3432 
Q 1894 3584 2278 3584 
Q 2916 3584 3314 3078 
Q 3713 2572 3713 1747 
Q 3713 922 3314 415 
Q 2916 -91 2278 -91 
Q 1894 -91 1617 61 
Q 1341 213 1159 525 
z
M 3116 1747 
Q 3116 2381 2855 2742 
Q 2594 3103 2138 3103 
Q 1681 3103 1420 2742 
Q 1159 2381 1159 1747 
Q 1159 1113 1420 752 
Q 1681 391 2138 391 
Q 2594 391 2855 752 
Q 3116 1113 3116 1747 
z
" id="DejaVuSans-70" transform="scale(0.015625)"/>
       <path d="M 2631 2963 
Q 2534 3019 2420 3045 
Q 2306 3072 2169 3072 
Q 1681 3072 1420 2755 
Q 1159 2438 1159 1844 
L 1159 0 
L 581 0 
L 581 3500 
L 1159 3500 
L 1159 2956 
Q 1341 3275 1631 3429 
Q 1922 3584 2338 3584 
Q 2397 3584 2469 3576 
Q 2541 3569 2628 3553 
L 2631 2963 
z
" id="DejaVuSans-72" transform="scale(0.015625)"/>
       <path d="M 3328 2828 
Q 3544 3216 3844 3400 
Q 4144 3584 4550 3584 
Q 5097 3584 5394 3201 
Q 5691 2819 5691 2113 
L 5691 0 
L 5113 0 
L 5113 2094 
Q 5113 2597 4934 2840 
Q 4756 3084 4391 3084 
Q 3944 3084 3684 2787 
Q 3425 2491 3425 1978 
L 3425 0 
L 2847 0 
L 2847 2094 
Q 2847 2600 2669 2842 
Q 2491 3084 2119 3084 
Q 1678 3084 1418 2786 
Q 1159 2488 1159 1978 
L 1159 0 
L 581 0 
L 581 3500 
L 1159 3500 
L 1159 2956 
Q 1356 3278 1631 3431 
Q 1906 3584 2284 3584 
Q 2666 3584 2933 3390 
Q 3200 3197 3328 2828 
z
" id="DejaVuSans-6d" transform="scale(0.015625)"/>
       <path d="M 3597 1894 
L 3597 1613 
L 953 1613 
Q 991 1019 1311 708 
Q 1631 397 2203 397 
Q 2534 397 2845 478 
Q 3156 559 3463 722 
L 3463 178 
Q 3153 47 2828 -22 
Q 2503 -91 2169 -91 
Q 1331 -91 842 396 
Q 353 884 353 1716 
Q 353 2575 817 3079 
Q 1281 3584 2069 3584 
Q 2775 3584 3186 3129 
Q 3597 2675 3597 1894 
z
M 3022 2063 
Q 3016 2534 2758 2815 
Q 2500 3097 2075 3097 
Q 1594 3097 1305 2825 
Q 1016 2553 972 2059 
L 3022 2063 
z
" id="DejaVuSans-65" transform="scale(0.015625)"/>
      </defs>
      <use xlink:href="#DejaVuSans-4c"/>
      <use x="53.962891" xlink:href="#DejaVuSans-6f"/>
      <use x="115.144531" xlink:href="#DejaVuSans-63"/>
      <use x="170.125" xlink:href="#DejaVuSans-61"/>
      <use x="231.404297" xlink:href="#DejaVuSans-6c"/>
      <use x="259.1875" xlink:href="#DejaVuSans-69"/>
      <use x="286.970703" xlink:href="#DejaVuSans-74"/>
      <use x="326.179688" xlink:href="#DejaVuSans-79"/>
      <use x="385.359375" xlink:href="#DejaVuSans-20"/>
      <use x="417.146484" xlink:href="#DejaVuSans-70"/>
      <use x="480.623047" xlink:href="#DejaVuSans-61"/>
      <use x="541.902344" xlink:href="#DejaVuSans-72"/>
      <use x="583.015625" xlink:href="#DejaVuSans-61"/>
      <use x="644.294922" xlink:href="#DejaVuSans-6d"/>
      <use x="741.707031" xlink:href="#DejaVuSans-65"/>
      <use x="803.230469" xlink:href="#DejaVuSans-74"/>
      <use x="842.439453" xlink:href="#DejaVuSans-65"/>
      <use x="903.962891" xlink:href="#DejaVuSans-72"/>
     </g>
    </g>
   </g>
   <g id="matplotlib.axis_2">
    <g id="ytick_1">
     <g id="line2d_15">
      <path clip-path="url(#p4ce1386112)" d="M 94.119688 899.648609 
L 986.919688 899.648609 
" style="fill:none;stroke:#b0b0b0;stroke-linecap:square;stroke-width:0.8;"/>
     </g>
     <g id="line2d_16">
      <defs>
       <path d="M 0 0 
L -3.5 0 
" id="md2c8184db4" style="stroke:#000000;stroke-width:0.8;"/>
      </defs>
      <g>
       <use style="stroke:#000000;stroke-width:0.8;" x="94.119688" xlink:href="#md2c8184db4" y="899.648609"/>
      </g>
     </g>
     <g id="text_9">
      <!-- 2 -->
      <g transform="translate(68.032188 911.046266)scale(0.3 -0.3)">
       <use xlink:href="#DejaVuSans-32"/>
      </g>
     </g>
    </g>
    <g id="ytick_2">
     <g id="line2d_17">
      <path clip-path="url(#p4ce1386112)" d="M 94.119688 779.449868 
L 986.919688 779.449868 
" style="fill:none;stroke:#b0b0b0;stroke-linecap:square;stroke-width:0.8;"/>
     </g>
     <g id="line2d_18">
      <g>
       <use style="stroke:#000000;stroke-width:0.8;" x="94.119688" xlink:href="#md2c8184db4" y="779.449868"/>
      </g>
     </g>
     <g id="text_10">
      <!-- 4 -->
      <g transform="translate(68.032188 790.847524)scale(0.3 -0.3)">
       <defs>
        <path d="M 2419 4116 
L 825 1625 
L 2419 1625 
L 2419 4116 
z
M 2253 4666 
L 3047 4666 
L 3047 1625 
L 3713 1625 
L 3713 1100 
L 3047 1100 
L 3047 0 
L 2419 0 
L 2419 1100 
L 313 1100 
L 313 1709 
L 2253 4666 
z
" id="DejaVuSans-34" transform="scale(0.015625)"/>
       </defs>
       <use xlink:href="#DejaVuSans-34"/>
      </g>
     </g>
    </g>
    <g id="ytick_3">
     <g id="line2d_19">
      <path clip-path="url(#p4ce1386112)" d="M 94.119688 659.251127 
L 986.919688 659.251127 
" style="fill:none;stroke:#b0b0b0;stroke-linecap:square;stroke-width:0.8;"/>
     </g>
     <g id="line2d_20">
      <g>
       <use style="stroke:#000000;stroke-width:0.8;" x="94.119688" xlink:href="#md2c8184db4" y="659.251127"/>
      </g>
     </g>
     <g id="text_11">
      <!-- 6 -->
      <g transform="translate(68.032188 670.648783)scale(0.3 -0.3)">
       <defs>
        <path d="M 2113 2584 
Q 1688 2584 1439 2293 
Q 1191 2003 1191 1497 
Q 1191 994 1439 701 
Q 1688 409 2113 409 
Q 2538 409 2786 701 
Q 3034 994 3034 1497 
Q 3034 2003 2786 2293 
Q 2538 2584 2113 2584 
z
M 3366 4563 
L 3366 3988 
Q 3128 4100 2886 4159 
Q 2644 4219 2406 4219 
Q 1781 4219 1451 3797 
Q 1122 3375 1075 2522 
Q 1259 2794 1537 2939 
Q 1816 3084 2150 3084 
Q 2853 3084 3261 2657 
Q 3669 2231 3669 1497 
Q 3669 778 3244 343 
Q 2819 -91 2113 -91 
Q 1303 -91 875 529 
Q 447 1150 447 2328 
Q 447 3434 972 4092 
Q 1497 4750 2381 4750 
Q 2619 4750 2861 4703 
Q 3103 4656 3366 4563 
z
" id="DejaVuSans-36" transform="scale(0.015625)"/>
       </defs>
       <use xlink:href="#DejaVuSans-36"/>
      </g>
     </g>
    </g>
    <g id="ytick_4">
     <g id="line2d_21">
      <path clip-path="url(#p4ce1386112)" d="M 94.119688 539.052386 
L 986.919688 539.052386 
" style="fill:none;stroke:#b0b0b0;stroke-linecap:square;stroke-width:0.8;"/>
     </g>
     <g id="line2d_22">
      <g>
       <use style="stroke:#000000;stroke-width:0.8;" x="94.119688" xlink:href="#md2c8184db4" y="539.052386"/>
      </g>
     </g>
     <g id="text_12">
      <!-- 8 -->
      <g transform="translate(68.032188 550.450042)scale(0.3 -0.3)">
       <defs>
        <path d="M 2034 2216 
Q 1584 2216 1326 1975 
Q 1069 1734 1069 1313 
Q 1069 891 1326 650 
Q 1584 409 2034 409 
Q 2484 409 2743 651 
Q 3003 894 3003 1313 
Q 3003 1734 2745 1975 
Q 2488 2216 2034 2216 
z
M 1403 2484 
Q 997 2584 770 2862 
Q 544 3141 544 3541 
Q 544 4100 942 4425 
Q 1341 4750 2034 4750 
Q 2731 4750 3128 4425 
Q 3525 4100 3525 3541 
Q 3525 3141 3298 2862 
Q 3072 2584 2669 2484 
Q 3125 2378 3379 2068 
Q 3634 1759 3634 1313 
Q 3634 634 3220 271 
Q 2806 -91 2034 -91 
Q 1263 -91 848 271 
Q 434 634 434 1313 
Q 434 1759 690 2068 
Q 947 2378 1403 2484 
z
M 1172 3481 
Q 1172 3119 1398 2916 
Q 1625 2713 2034 2713 
Q 2441 2713 2670 2916 
Q 2900 3119 2900 3481 
Q 2900 3844 2670 4047 
Q 2441 4250 2034 4250 
Q 1625 4250 1398 4047 
Q 1172 3844 1172 3481 
z
" id="DejaVuSans-38" transform="scale(0.015625)"/>
       </defs>
       <use xlink:href="#DejaVuSans-38"/>
      </g>
     </g>
    </g>
    <g id="ytick_5">
     <g id="line2d_23">
      <path clip-path="url(#p4ce1386112)" d="M 94.119688 418.853644 
L 986.919688 418.853644 
" style="fill:none;stroke:#b0b0b0;stroke-linecap:square;stroke-width:0.8;"/>
     </g>
     <g id="line2d_24">
      <g>
       <use style="stroke:#000000;stroke-width:0.8;" x="94.119688" xlink:href="#md2c8184db4" y="418.853644"/>
      </g>
     </g>
     <g id="text_13">
      <!-- 10 -->
      <g transform="translate(48.944688 430.251301)scale(0.3 -0.3)">
       <use xlink:href="#DejaVuSans-31"/>
       <use x="63.623047" xlink:href="#DejaVuSans-30"/>
      </g>
     </g>
    </g>
    <g id="ytick_6">
     <g id="line2d_25">
      <path clip-path="url(#p4ce1386112)" d="M 94.119688 298.654903 
L 986.919688 298.654903 
" style="fill:none;stroke:#b0b0b0;stroke-linecap:square;stroke-width:0.8;"/>
     </g>
     <g id="line2d_26">
      <g>
       <use style="stroke:#000000;stroke-width:0.8;" x="94.119688" xlink:href="#md2c8184db4" y="298.654903"/>
      </g>
     </g>
     <g id="text_14">
      <!-- 12 -->
      <g transform="translate(48.944688 310.052559)scale(0.3 -0.3)">
       <use xlink:href="#DejaVuSans-31"/>
       <use x="63.623047" xlink:href="#DejaVuSans-32"/>
      </g>
     </g>
    </g>
    <g id="ytick_7">
     <g id="line2d_27">
      <path clip-path="url(#p4ce1386112)" d="M 94.119688 178.456162 
L 986.919688 178.456162 
" style="fill:none;stroke:#b0b0b0;stroke-linecap:square;stroke-width:0.8;"/>
     </g>
     <g id="line2d_28">
      <g>
       <use style="stroke:#000000;stroke-width:0.8;" x="94.119688" xlink:href="#md2c8184db4" y="178.456162"/>
      </g>
     </g>
     <g id="text_15">
      <!-- 14 -->
      <g transform="translate(48.944688 189.853818)scale(0.3 -0.3)">
       <use xlink:href="#DejaVuSans-31"/>
       <use x="63.623047" xlink:href="#DejaVuSans-34"/>
      </g>
     </g>
    </g>
    <g id="ytick_8">
     <g id="line2d_29">
      <path clip-path="url(#p4ce1386112)" d="M 94.119688 58.25742 
L 986.919688 58.25742 
" style="fill:none;stroke:#b0b0b0;stroke-linecap:square;stroke-width:0.8;"/>
     </g>
     <g id="line2d_30">
      <g>
       <use style="stroke:#000000;stroke-width:0.8;" x="94.119688" xlink:href="#md2c8184db4" y="58.25742"/>
      </g>
     </g>
     <g id="text_16">
      <!-- 16 -->
      <g transform="translate(48.944688 69.655077)scale(0.3 -0.3)">
       <use xlink:href="#DejaVuSans-31"/>
       <use x="63.623047" xlink:href="#DejaVuSans-36"/>
      </g>
     </g>
    </g>
    <g id="text_17">
     <!-- Avg. number of links / size -->
     <g transform="translate(36.833906 763.380234)rotate(-90)scale(0.39 -0.39)">
      <defs>
       <path d="M 2188 4044 
L 1331 1722 
L 3047 1722 
L 2188 4044 
z
M 1831 4666 
L 2547 4666 
L 4325 0 
L 3669 0 
L 3244 1197 
L 1141 1197 
L 716 0 
L 50 0 
L 1831 4666 
z
" id="DejaVuSans-41" transform="scale(0.015625)"/>
       <path d="M 191 3500 
L 800 3500 
L 1894 563 
L 2988 3500 
L 3597 3500 
L 2284 0 
L 1503 0 
L 191 3500 
z
" id="DejaVuSans-76" transform="scale(0.015625)"/>
       <path d="M 2906 1791 
Q 2906 2416 2648 2759 
Q 2391 3103 1925 3103 
Q 1463 3103 1205 2759 
Q 947 2416 947 1791 
Q 947 1169 1205 825 
Q 1463 481 1925 481 
Q 2391 481 2648 825 
Q 2906 1169 2906 1791 
z
M 3481 434 
Q 3481 -459 3084 -895 
Q 2688 -1331 1869 -1331 
Q 1566 -1331 1297 -1286 
Q 1028 -1241 775 -1147 
L 775 -588 
Q 1028 -725 1275 -790 
Q 1522 -856 1778 -856 
Q 2344 -856 2625 -561 
Q 2906 -266 2906 331 
L 2906 616 
Q 2728 306 2450 153 
Q 2172 0 1784 0 
Q 1141 0 747 490 
Q 353 981 353 1791 
Q 353 2603 747 3093 
Q 1141 3584 1784 3584 
Q 2172 3584 2450 3431 
Q 2728 3278 2906 2969 
L 2906 3500 
L 3481 3500 
L 3481 434 
z
" id="DejaVuSans-67" transform="scale(0.015625)"/>
       <path d="M 3513 2113 
L 3513 0 
L 2938 0 
L 2938 2094 
Q 2938 2591 2744 2837 
Q 2550 3084 2163 3084 
Q 1697 3084 1428 2787 
Q 1159 2491 1159 1978 
L 1159 0 
L 581 0 
L 581 3500 
L 1159 3500 
L 1159 2956 
Q 1366 3272 1645 3428 
Q 1925 3584 2291 3584 
Q 2894 3584 3203 3211 
Q 3513 2838 3513 2113 
z
" id="DejaVuSans-6e" transform="scale(0.015625)"/>
       <path d="M 544 1381 
L 544 3500 
L 1119 3500 
L 1119 1403 
Q 1119 906 1312 657 
Q 1506 409 1894 409 
Q 2359 409 2629 706 
Q 2900 1003 2900 1516 
L 2900 3500 
L 3475 3500 
L 3475 0 
L 2900 0 
L 2900 538 
Q 2691 219 2414 64 
Q 2138 -91 1772 -91 
Q 1169 -91 856 284 
Q 544 659 544 1381 
z
M 1991 3584 
L 1991 3584 
z
" id="DejaVuSans-75" transform="scale(0.015625)"/>
       <path d="M 3116 1747 
Q 3116 2381 2855 2742 
Q 2594 3103 2138 3103 
Q 1681 3103 1420 2742 
Q 1159 2381 1159 1747 
Q 1159 1113 1420 752 
Q 1681 391 2138 391 
Q 2594 391 2855 752 
Q 3116 1113 3116 1747 
z
M 1159 2969 
Q 1341 3281 1617 3432 
Q 1894 3584 2278 3584 
Q 2916 3584 3314 3078 
Q 3713 2572 3713 1747 
Q 3713 922 3314 415 
Q 2916 -91 2278 -91 
Q 1894 -91 1617 61 
Q 1341 213 1159 525 
L 1159 0 
L 581 0 
L 581 4863 
L 1159 4863 
L 1159 2969 
z
" id="DejaVuSans-62" transform="scale(0.015625)"/>
       <path d="M 2375 4863 
L 2375 4384 
L 1825 4384 
Q 1516 4384 1395 4259 
Q 1275 4134 1275 3809 
L 1275 3500 
L 2222 3500 
L 2222 3053 
L 1275 3053 
L 1275 0 
L 697 0 
L 697 3053 
L 147 3053 
L 147 3500 
L 697 3500 
L 697 3744 
Q 697 4328 969 4595 
Q 1241 4863 1831 4863 
L 2375 4863 
z
" id="DejaVuSans-66" transform="scale(0.015625)"/>
       <path d="M 581 4863 
L 1159 4863 
L 1159 1991 
L 2875 3500 
L 3609 3500 
L 1753 1863 
L 3688 0 
L 2938 0 
L 1159 1709 
L 1159 0 
L 581 0 
L 581 4863 
z
" id="DejaVuSans-6b" transform="scale(0.015625)"/>
       <path d="M 2834 3397 
L 2834 2853 
Q 2591 2978 2328 3040 
Q 2066 3103 1784 3103 
Q 1356 3103 1142 2972 
Q 928 2841 928 2578 
Q 928 2378 1081 2264 
Q 1234 2150 1697 2047 
L 1894 2003 
Q 2506 1872 2764 1633 
Q 3022 1394 3022 966 
Q 3022 478 2636 193 
Q 2250 -91 1575 -91 
Q 1294 -91 989 -36 
Q 684 19 347 128 
L 347 722 
Q 666 556 975 473 
Q 1284 391 1588 391 
Q 1994 391 2212 530 
Q 2431 669 2431 922 
Q 2431 1156 2273 1281 
Q 2116 1406 1581 1522 
L 1381 1569 
Q 847 1681 609 1914 
Q 372 2147 372 2553 
Q 372 3047 722 3315 
Q 1072 3584 1716 3584 
Q 2034 3584 2315 3537 
Q 2597 3491 2834 3397 
z
" id="DejaVuSans-73" transform="scale(0.015625)"/>
       <path d="M 1625 4666 
L 2156 4666 
L 531 -594 
L 0 -594 
L 1625 4666 
z
" id="DejaVuSans-2f" transform="scale(0.015625)"/>
       <path d="M 353 3500 
L 3084 3500 
L 3084 2975 
L 922 459 
L 3084 459 
L 3084 0 
L 275 0 
L 275 525 
L 2438 3041 
L 353 3041 
L 353 3500 
z
" id="DejaVuSans-7a" transform="scale(0.015625)"/>
      </defs>
      <use xlink:href="#DejaVuSans-41"/>
      <use x="62.533203" xlink:href="#DejaVuSans-76"/>
      <use x="121.712891" xlink:href="#DejaVuSans-67"/>
      <use x="185.189453" xlink:href="#DejaVuSans-2e"/>
      <use x="216.976562" xlink:href="#DejaVuSans-20"/>
      <use x="248.763672" xlink:href="#DejaVuSans-6e"/>
      <use x="312.142578" xlink:href="#DejaVuSans-75"/>
      <use x="375.521484" xlink:href="#DejaVuSans-6d"/>
      <use x="472.933594" xlink:href="#DejaVuSans-62"/>
      <use x="536.410156" xlink:href="#DejaVuSans-65"/>
      <use x="597.933594" xlink:href="#DejaVuSans-72"/>
      <use x="639.046875" xlink:href="#DejaVuSans-20"/>
      <use x="670.833984" xlink:href="#DejaVuSans-6f"/>
      <use x="732.015625" xlink:href="#DejaVuSans-66"/>
      <use x="767.220703" xlink:href="#DejaVuSans-20"/>
      <use x="799.007812" xlink:href="#DejaVuSans-6c"/>
      <use x="826.791016" xlink:href="#DejaVuSans-69"/>
      <use x="854.574219" xlink:href="#DejaVuSans-6e"/>
      <use x="917.953125" xlink:href="#DejaVuSans-6b"/>
      <use x="975.863281" xlink:href="#DejaVuSans-73"/>
      <use x="1027.962891" xlink:href="#DejaVuSans-20"/>
      <use x="1059.75" xlink:href="#DejaVuSans-2f"/>
      <use x="1093.441406" xlink:href="#DejaVuSans-20"/>
      <use x="1125.228516" xlink:href="#DejaVuSans-73"/>
      <use x="1177.328125" xlink:href="#DejaVuSans-69"/>
      <use x="1205.111328" xlink:href="#DejaVuSans-7a"/>
      <use x="1257.601562" xlink:href="#DejaVuSans-65"/>
     </g>
    </g>
   </g>
   <g id="line2d_31">
    <path clip-path="url(#p4ce1386112)" d="M 134.701506 820.858335 
L 162.688966 437.652126 
L 190.676427 367.236098 
L 218.663888 326.299411 
L 246.651349 297.550277 
L 274.63881 276.439772 
L 302.626271 257.981452 
L 330.613731 243.528154 
L 358.601192 232.101461 
L 386.588653 221.297397 
L 414.576114 211.983197 
L 442.563575 203.747179 
L 470.551035 197.062927 
L 498.538496 190.110632 
L 526.525957 183.866908 
L 554.513418 178.56374 
L 582.500879 173.511786 
L 610.48834 169.193046 
L 638.4758 164.474644 
L 666.463261 161.339861 
L 694.450722 157.301784 
L 722.438183 154.343092 
L 750.425644 151.491978 
L 778.413104 148.515256 
L 806.400565 146.133518 
L 834.388026 143.257162 
L 862.375487 141.305135 
L 890.362948 138.602466 
L 918.350409 137.68535 
L 946.337869 135.47189 
" style="fill:none;stroke:#fe0002;stroke-dasharray:5.55,2.4;stroke-dashoffset:0;stroke-width:1.5;"/>
    <defs>
     <path d="M 0 4.5 
C 1.193414 4.5 2.338109 4.025852 3.181981 3.181981 
C 4.025852 2.338109 4.5 1.193414 4.5 0 
C 4.5 -1.193414 4.025852 -2.338109 3.181981 -3.181981 
C 2.338109 -4.025852 1.193414 -4.5 0 -4.5 
C -1.193414 -4.5 -2.338109 -4.025852 -3.181981 -3.181981 
C -4.025852 -2.338109 -4.5 -1.193414 -4.5 0 
C -4.5 1.193414 -4.025852 2.338109 -3.181981 3.181981 
C -2.338109 4.025852 -1.193414 4.5 0 4.5 
z
" id="md036f177f6" style="stroke:#000000;"/>
    </defs>
    <g clip-path="url(#p4ce1386112)">
     <use style="fill:#fe0002;stroke:#000000;" x="134.701506" xlink:href="#md036f177f6" y="820.858335"/>
     <use style="fill:#fe0002;stroke:#000000;" x="162.688966" xlink:href="#md036f177f6" y="437.652126"/>
     <use style="fill:#fe0002;stroke:#000000;" x="190.676427" xlink:href="#md036f177f6" y="367.236098"/>
     <use style="fill:#fe0002;stroke:#000000;" x="218.663888" xlink:href="#md036f177f6" y="326.299411"/>
     <use style="fill:#fe0002;stroke:#000000;" x="246.651349" xlink:href="#md036f177f6" y="297.550277"/>
     <use style="fill:#fe0002;stroke:#000000;" x="274.63881" xlink:href="#md036f177f6" y="276.439772"/>
     <use style="fill:#fe0002;stroke:#000000;" x="302.626271" xlink:href="#md036f177f6" y="257.981452"/>
     <use style="fill:#fe0002;stroke:#000000;" x="330.613731" xlink:href="#md036f177f6" y="243.528154"/>
     <use style="fill:#fe0002;stroke:#000000;" x="358.601192" xlink:href="#md036f177f6" y="232.101461"/>
     <use style="fill:#fe0002;stroke:#000000;" x="386.588653" xlink:href="#md036f177f6" y="221.297397"/>
     <use style="fill:#fe0002;stroke:#000000;" x="414.576114" xlink:href="#md036f177f6" y="211.983197"/>
     <use style="fill:#fe0002;stroke:#000000;" x="442.563575" xlink:href="#md036f177f6" y="203.747179"/>
     <use style="fill:#fe0002;stroke:#000000;" x="470.551035" xlink:href="#md036f177f6" y="197.062927"/>
     <use style="fill:#fe0002;stroke:#000000;" x="498.538496" xlink:href="#md036f177f6" y="190.110632"/>
     <use style="fill:#fe0002;stroke:#000000;" x="526.525957" xlink:href="#md036f177f6" y="183.866908"/>
     <use style="fill:#fe0002;stroke:#000000;" x="554.513418" xlink:href="#md036f177f6" y="178.56374"/>
     <use style="fill:#fe0002;stroke:#000000;" x="582.500879" xlink:href="#md036f177f6" y="173.511786"/>
     <use style="fill:#fe0002;stroke:#000000;" x="610.48834" xlink:href="#md036f177f6" y="169.193046"/>
     <use style="fill:#fe0002;stroke:#000000;" x="638.4758" xlink:href="#md036f177f6" y="164.474644"/>
     <use style="fill:#fe0002;stroke:#000000;" x="666.463261" xlink:href="#md036f177f6" y="161.339861"/>
     <use style="fill:#fe0002;stroke:#000000;" x="694.450722" xlink:href="#md036f177f6" y="157.301784"/>
     <use style="fill:#fe0002;stroke:#000000;" x="722.438183" xlink:href="#md036f177f6" y="154.343092"/>
     <use style="fill:#fe0002;stroke:#000000;" x="750.425644" xlink:href="#md036f177f6" y="151.491978"/>
     <use style="fill:#fe0002;stroke:#000000;" x="778.413104" xlink:href="#md036f177f6" y="148.515256"/>
     <use style="fill:#fe0002;stroke:#000000;" x="806.400565" xlink:href="#md036f177f6" y="146.133518"/>
     <use style="fill:#fe0002;stroke:#000000;" x="834.388026" xlink:href="#md036f177f6" y="143.257162"/>
     <use style="fill:#fe0002;stroke:#000000;" x="862.375487" xlink:href="#md036f177f6" y="141.305135"/>
     <use style="fill:#fe0002;stroke:#000000;" x="890.362948" xlink:href="#md036f177f6" y="138.602466"/>
     <use style="fill:#fe0002;stroke:#000000;" x="918.350409" xlink:href="#md036f177f6" y="137.68535"/>
     <use style="fill:#fe0002;stroke:#000000;" x="946.337869" xlink:href="#md036f177f6" y="135.47189"/>
    </g>
   </g>
   <g id="line2d_32">
    <path clip-path="url(#p4ce1386112)" d="M 134.701506 959.76 
L 162.688966 640.227873 
L 190.676427 588.886183 
L 218.663888 559.409244 
L 246.651349 538.882304 
L 274.63881 523.650119 
L 302.626271 511.013625 
L 330.613731 500.587586 
L 358.601192 492.678509 
L 386.588653 484.644425 
L 414.576114 478.650114 
L 442.563575 472.394371 
L 470.551035 467.713832 
L 498.538496 462.666686 
L 526.525957 458.174258 
L 554.513418 454.212508 
L 582.500879 450.800667 
L 610.48834 447.602779 
L 638.4758 444.109203 
L 666.463261 442.062218 
L 694.450722 438.860124 
L 722.438183 436.936343 
L 750.425644 435.22291 
L 778.413104 432.544281 
L 806.400565 431.145769 
L 834.388026 429.693167 
L 862.375487 427.63296 
L 890.362948 425.847408 
L 918.350409 424.897838 
L 946.337869 423.172385 
" style="fill:none;stroke:#53fca1;stroke-dasharray:5.55,2.4;stroke-dashoffset:0;stroke-width:1.5;"/>
    <defs>
     <path d="M 0 6.363961 
L 6.363961 0 
L 0 -6.363961 
L -6.363961 0 
z
" id="m099ad85d5f" style="stroke:#000000;stroke-linejoin:miter;"/>
    </defs>
    <g clip-path="url(#p4ce1386112)">
     <use style="fill:#53fca1;stroke:#000000;stroke-linejoin:miter;" x="134.701506" xlink:href="#m099ad85d5f" y="959.76"/>
     <use style="fill:#53fca1;stroke:#000000;stroke-linejoin:miter;" x="162.688966" xlink:href="#m099ad85d5f" y="640.227873"/>
     <use style="fill:#53fca1;stroke:#000000;stroke-linejoin:miter;" x="190.676427" xlink:href="#m099ad85d5f" y="588.886183"/>
     <use style="fill:#53fca1;stroke:#000000;stroke-linejoin:miter;" x="218.663888" xlink:href="#m099ad85d5f" y="559.409244"/>
     <use style="fill:#53fca1;stroke:#000000;stroke-linejoin:miter;" x="246.651349" xlink:href="#m099ad85d5f" y="538.882304"/>
     <use style="fill:#53fca1;stroke:#000000;stroke-linejoin:miter;" x="274.63881" xlink:href="#m099ad85d5f" y="523.650119"/>
     <use style="fill:#53fca1;stroke:#000000;stroke-linejoin:miter;" x="302.626271" xlink:href="#m099ad85d5f" y="511.013625"/>
     <use style="fill:#53fca1;stroke:#000000;stroke-linejoin:miter;" x="330.613731" xlink:href="#m099ad85d5f" y="500.587586"/>
     <use style="fill:#53fca1;stroke:#000000;stroke-linejoin:miter;" x="358.601192" xlink:href="#m099ad85d5f" y="492.678509"/>
     <use style="fill:#53fca1;stroke:#000000;stroke-linejoin:miter;" x="386.588653" xlink:href="#m099ad85d5f" y="484.644425"/>
     <use style="fill:#53fca1;stroke:#000000;stroke-linejoin:miter;" x="414.576114" xlink:href="#m099ad85d5f" y="478.650114"/>
     <use style="fill:#53fca1;stroke:#000000;stroke-linejoin:miter;" x="442.563575" xlink:href="#m099ad85d5f" y="472.394371"/>
     <use style="fill:#53fca1;stroke:#000000;stroke-linejoin:miter;" x="470.551035" xlink:href="#m099ad85d5f" y="467.713832"/>
     <use style="fill:#53fca1;stroke:#000000;stroke-linejoin:miter;" x="498.538496" xlink:href="#m099ad85d5f" y="462.666686"/>
     <use style="fill:#53fca1;stroke:#000000;stroke-linejoin:miter;" x="526.525957" xlink:href="#m099ad85d5f" y="458.174258"/>
     <use style="fill:#53fca1;stroke:#000000;stroke-linejoin:miter;" x="554.513418" xlink:href="#m099ad85d5f" y="454.212508"/>
     <use style="fill:#53fca1;stroke:#000000;stroke-linejoin:miter;" x="582.500879" xlink:href="#m099ad85d5f" y="450.800667"/>
     <use style="fill:#53fca1;stroke:#000000;stroke-linejoin:miter;" x="610.48834" xlink:href="#m099ad85d5f" y="447.602779"/>
     <use style="fill:#53fca1;stroke:#000000;stroke-linejoin:miter;" x="638.4758" xlink:href="#m099ad85d5f" y="444.109203"/>
     <use style="fill:#53fca1;stroke:#000000;stroke-linejoin:miter;" x="666.463261" xlink:href="#m099ad85d5f" y="442.062218"/>
     <use style="fill:#53fca1;stroke:#000000;stroke-linejoin:miter;" x="694.450722" xlink:href="#m099ad85d5f" y="438.860124"/>
     <use style="fill:#53fca1;stroke:#000000;stroke-linejoin:miter;" x="722.438183" xlink:href="#m099ad85d5f" y="436.936343"/>
     <use style="fill:#53fca1;stroke:#000000;stroke-linejoin:miter;" x="750.425644" xlink:href="#m099ad85d5f" y="435.22291"/>
     <use style="fill:#53fca1;stroke:#000000;stroke-linejoin:miter;" x="778.413104" xlink:href="#m099ad85d5f" y="432.544281"/>
     <use style="fill:#53fca1;stroke:#000000;stroke-linejoin:miter;" x="806.400565" xlink:href="#m099ad85d5f" y="431.145769"/>
     <use style="fill:#53fca1;stroke:#000000;stroke-linejoin:miter;" x="834.388026" xlink:href="#m099ad85d5f" y="429.693167"/>
     <use style="fill:#53fca1;stroke:#000000;stroke-linejoin:miter;" x="862.375487" xlink:href="#m099ad85d5f" y="427.63296"/>
     <use style="fill:#53fca1;stroke:#000000;stroke-linejoin:miter;" x="890.362948" xlink:href="#m099ad85d5f" y="425.847408"/>
     <use style="fill:#53fca1;stroke:#000000;stroke-linejoin:miter;" x="918.350409" xlink:href="#m099ad85d5f" y="424.897838"/>
     <use style="fill:#53fca1;stroke:#000000;stroke-linejoin:miter;" x="946.337869" xlink:href="#m099ad85d5f" y="423.172385"/>
    </g>
   </g>
   <g id="line2d_33">
    <path clip-path="url(#p4ce1386112)" d="M 134.701506 959.76 
L 162.688966 586.354196 
L 190.676427 513.02455 
L 218.663888 469.519818 
L 246.651349 439.222523 
L 274.63881 416.571671 
L 302.626271 397.783406 
L 330.613731 382.148555 
L 358.601192 370.302969 
L 386.588653 358.586596 
L 414.576114 348.784389 
L 442.563575 338.383592 
L 470.551035 332.72764 
L 498.538496 325.205603 
L 526.525957 318.452838 
L 554.513418 312.774649 
L 582.500879 307.777987 
L 610.48834 303.169568 
L 638.4758 298.332169 
L 666.463261 294.648078 
L 694.450722 290.209138 
L 722.438183 287.257658 
L 750.425644 283.360214 
L 778.413104 280.086 
L 806.400565 278.31367 
L 834.388026 276.386283 
L 862.375487 273.499109 
L 890.362948 270.575275 
L 918.350409 269.37449 
L 946.337869 266.401374 
" style="fill:none;stroke:#0652ff;stroke-dasharray:5.55,2.4;stroke-dashoffset:0;stroke-width:1.5;"/>
    <defs>
     <path d="M -2.25 4.5 
L 0 2.25 
L 2.25 4.5 
L 4.5 2.25 
L 2.25 0 
L 4.5 -2.25 
L 2.25 -4.5 
L 0 -2.25 
L -2.25 -4.5 
L -4.5 -2.25 
L -2.25 0 
L -4.5 2.25 
z
" id="m609dbe8bd5" style="stroke:#000000;stroke-linejoin:miter;"/>
    </defs>
    <g clip-path="url(#p4ce1386112)">
     <use style="fill:#0652ff;stroke:#000000;stroke-linejoin:miter;" x="134.701506" xlink:href="#m609dbe8bd5" y="959.76"/>
     <use style="fill:#0652ff;stroke:#000000;stroke-linejoin:miter;" x="162.688966" xlink:href="#m609dbe8bd5" y="586.354196"/>
     <use style="fill:#0652ff;stroke:#000000;stroke-linejoin:miter;" x="190.676427" xlink:href="#m609dbe8bd5" y="513.02455"/>
     <use style="fill:#0652ff;stroke:#000000;stroke-linejoin:miter;" x="218.663888" xlink:href="#m609dbe8bd5" y="469.519818"/>
     <use style="fill:#0652ff;stroke:#000000;stroke-linejoin:miter;" x="246.651349" xlink:href="#m609dbe8bd5" y="439.222523"/>
     <use style="fill:#0652ff;stroke:#000000;stroke-linejoin:miter;" x="274.63881" xlink:href="#m609dbe8bd5" y="416.571671"/>
     <use style="fill:#0652ff;stroke:#000000;stroke-linejoin:miter;" x="302.626271" xlink:href="#m609dbe8bd5" y="397.783406"/>
     <use style="fill:#0652ff;stroke:#000000;stroke-linejoin:miter;" x="330.613731" xlink:href="#m609dbe8bd5" y="382.148555"/>
     <use style="fill:#0652ff;stroke:#000000;stroke-linejoin:miter;" x="358.601192" xlink:href="#m609dbe8bd5" y="370.302969"/>
     <use style="fill:#0652ff;stroke:#000000;stroke-linejoin:miter;" x="386.588653" xlink:href="#m609dbe8bd5" y="358.586596"/>
     <use style="fill:#0652ff;stroke:#000000;stroke-linejoin:miter;" x="414.576114" xlink:href="#m609dbe8bd5" y="348.784389"/>
     <use style="fill:#0652ff;stroke:#000000;stroke-linejoin:miter;" x="442.563575" xlink:href="#m609dbe8bd5" y="338.383592"/>
     <use style="fill:#0652ff;stroke:#000000;stroke-linejoin:miter;" x="470.551035" xlink:href="#m609dbe8bd5" y="332.72764"/>
     <use style="fill:#0652ff;stroke:#000000;stroke-linejoin:miter;" x="498.538496" xlink:href="#m609dbe8bd5" y="325.205603"/>
     <use style="fill:#0652ff;stroke:#000000;stroke-linejoin:miter;" x="526.525957" xlink:href="#m609dbe8bd5" y="318.452838"/>
     <use style="fill:#0652ff;stroke:#000000;stroke-linejoin:miter;" x="554.513418" xlink:href="#m609dbe8bd5" y="312.774649"/>
     <use style="fill:#0652ff;stroke:#000000;stroke-linejoin:miter;" x="582.500879" xlink:href="#m609dbe8bd5" y="307.777987"/>
     <use style="fill:#0652ff;stroke:#000000;stroke-linejoin:miter;" x="610.48834" xlink:href="#m609dbe8bd5" y="303.169568"/>
     <use style="fill:#0652ff;stroke:#000000;stroke-linejoin:miter;" x="638.4758" xlink:href="#m609dbe8bd5" y="298.332169"/>
     <use style="fill:#0652ff;stroke:#000000;stroke-linejoin:miter;" x="666.463261" xlink:href="#m609dbe8bd5" y="294.648078"/>
     <use style="fill:#0652ff;stroke:#000000;stroke-linejoin:miter;" x="694.450722" xlink:href="#m609dbe8bd5" y="290.209138"/>
     <use style="fill:#0652ff;stroke:#000000;stroke-linejoin:miter;" x="722.438183" xlink:href="#m609dbe8bd5" y="287.257658"/>
     <use style="fill:#0652ff;stroke:#000000;stroke-linejoin:miter;" x="750.425644" xlink:href="#m609dbe8bd5" y="283.360214"/>
     <use style="fill:#0652ff;stroke:#000000;stroke-linejoin:miter;" x="778.413104" xlink:href="#m609dbe8bd5" y="280.086"/>
     <use style="fill:#0652ff;stroke:#000000;stroke-linejoin:miter;" x="806.400565" xlink:href="#m609dbe8bd5" y="278.31367"/>
     <use style="fill:#0652ff;stroke:#000000;stroke-linejoin:miter;" x="834.388026" xlink:href="#m609dbe8bd5" y="276.386283"/>
     <use style="fill:#0652ff;stroke:#000000;stroke-linejoin:miter;" x="862.375487" xlink:href="#m609dbe8bd5" y="273.499109"/>
     <use style="fill:#0652ff;stroke:#000000;stroke-linejoin:miter;" x="890.362948" xlink:href="#m609dbe8bd5" y="270.575275"/>
     <use style="fill:#0652ff;stroke:#000000;stroke-linejoin:miter;" x="918.350409" xlink:href="#m609dbe8bd5" y="269.37449"/>
     <use style="fill:#0652ff;stroke:#000000;stroke-linejoin:miter;" x="946.337869" xlink:href="#m609dbe8bd5" y="266.401374"/>
    </g>
   </g>
   <g id="line2d_34">
    <path clip-path="url(#p4ce1386112)" d="M 134.701506 888.328893 
L 162.688966 620.482826 
L 190.676427 550.711663 
L 218.663888 505.695131 
L 246.651349 474.644191 
L 274.63881 449.029238 
L 302.626271 428.581629 
L 330.613731 411.263094 
L 358.601192 398.211313 
L 386.588653 385.572416 
L 414.576114 374.904477 
L 442.563575 363.284564 
L 470.551035 354.655797 
L 498.538496 346.699241 
L 526.525957 338.558782 
L 554.513418 333.160957 
L 582.500879 326.4133 
L 610.48834 320.754043 
L 638.4758 314.695124 
L 666.463261 311.15437 
L 694.450722 306.173635 
L 722.438183 301.946545 
L 750.425644 298.203256 
L 778.413104 294.49843 
L 806.400565 290.678815 
L 834.388026 288.830158 
L 862.375487 285.071243 
L 890.362948 282.634815 
L 918.350409 280.130774 
L 946.337869 277.495718 
" style="fill:none;stroke:#ae7181;stroke-dasharray:5.55,2.4;stroke-dashoffset:0;stroke-width:1.5;"/>
    <defs>
     <path d="M 0 -4.5 
L -1.010313 -1.390576 
L -4.279754 -1.390576 
L -1.634721 0.531153 
L -2.645034 3.640576 
L -0 1.718847 
L 2.645034 3.640576 
L 1.634721 0.531153 
L 4.279754 -1.390576 
L 1.010313 -1.390576 
z
" id="m3441417f57" style="stroke:#000000;stroke-linejoin:bevel;"/>
    </defs>
    <g clip-path="url(#p4ce1386112)">
     <use style="fill:#ae7181;stroke:#000000;stroke-linejoin:bevel;" x="134.701506" xlink:href="#m3441417f57" y="888.328893"/>
     <use style="fill:#ae7181;stroke:#000000;stroke-linejoin:bevel;" x="162.688966" xlink:href="#m3441417f57" y="620.482826"/>
     <use style="fill:#ae7181;stroke:#000000;stroke-linejoin:bevel;" x="190.676427" xlink:href="#m3441417f57" y="550.711663"/>
     <use style="fill:#ae7181;stroke:#000000;stroke-linejoin:bevel;" x="218.663888" xlink:href="#m3441417f57" y="505.695131"/>
     <use style="fill:#ae7181;stroke:#000000;stroke-linejoin:bevel;" x="246.651349" xlink:href="#m3441417f57" y="474.644191"/>
     <use style="fill:#ae7181;stroke:#000000;stroke-linejoin:bevel;" x="274.63881" xlink:href="#m3441417f57" y="449.029238"/>
     <use style="fill:#ae7181;stroke:#000000;stroke-linejoin:bevel;" x="302.626271" xlink:href="#m3441417f57" y="428.581629"/>
     <use style="fill:#ae7181;stroke:#000000;stroke-linejoin:bevel;" x="330.613731" xlink:href="#m3441417f57" y="411.263094"/>
     <use style="fill:#ae7181;stroke:#000000;stroke-linejoin:bevel;" x="358.601192" xlink:href="#m3441417f57" y="398.211313"/>
     <use style="fill:#ae7181;stroke:#000000;stroke-linejoin:bevel;" x="386.588653" xlink:href="#m3441417f57" y="385.572416"/>
     <use style="fill:#ae7181;stroke:#000000;stroke-linejoin:bevel;" x="414.576114" xlink:href="#m3441417f57" y="374.904477"/>
     <use style="fill:#ae7181;stroke:#000000;stroke-linejoin:bevel;" x="442.563575" xlink:href="#m3441417f57" y="363.284564"/>
     <use style="fill:#ae7181;stroke:#000000;stroke-linejoin:bevel;" x="470.551035" xlink:href="#m3441417f57" y="354.655797"/>
     <use style="fill:#ae7181;stroke:#000000;stroke-linejoin:bevel;" x="498.538496" xlink:href="#m3441417f57" y="346.699241"/>
     <use style="fill:#ae7181;stroke:#000000;stroke-linejoin:bevel;" x="526.525957" xlink:href="#m3441417f57" y="338.558782"/>
     <use style="fill:#ae7181;stroke:#000000;stroke-linejoin:bevel;" x="554.513418" xlink:href="#m3441417f57" y="333.160957"/>
     <use style="fill:#ae7181;stroke:#000000;stroke-linejoin:bevel;" x="582.500879" xlink:href="#m3441417f57" y="326.4133"/>
     <use style="fill:#ae7181;stroke:#000000;stroke-linejoin:bevel;" x="610.48834" xlink:href="#m3441417f57" y="320.754043"/>
     <use style="fill:#ae7181;stroke:#000000;stroke-linejoin:bevel;" x="638.4758" xlink:href="#m3441417f57" y="314.695124"/>
     <use style="fill:#ae7181;stroke:#000000;stroke-linejoin:bevel;" x="666.463261" xlink:href="#m3441417f57" y="311.15437"/>
     <use style="fill:#ae7181;stroke:#000000;stroke-linejoin:bevel;" x="694.450722" xlink:href="#m3441417f57" y="306.173635"/>
     <use style="fill:#ae7181;stroke:#000000;stroke-linejoin:bevel;" x="722.438183" xlink:href="#m3441417f57" y="301.946545"/>
     <use style="fill:#ae7181;stroke:#000000;stroke-linejoin:bevel;" x="750.425644" xlink:href="#m3441417f57" y="298.203256"/>
     <use style="fill:#ae7181;stroke:#000000;stroke-linejoin:bevel;" x="778.413104" xlink:href="#m3441417f57" y="294.49843"/>
     <use style="fill:#ae7181;stroke:#000000;stroke-linejoin:bevel;" x="806.400565" xlink:href="#m3441417f57" y="290.678815"/>
     <use style="fill:#ae7181;stroke:#000000;stroke-linejoin:bevel;" x="834.388026" xlink:href="#m3441417f57" y="288.830158"/>
     <use style="fill:#ae7181;stroke:#000000;stroke-linejoin:bevel;" x="862.375487" xlink:href="#m3441417f57" y="285.071243"/>
     <use style="fill:#ae7181;stroke:#000000;stroke-linejoin:bevel;" x="890.362948" xlink:href="#m3441417f57" y="282.634815"/>
     <use style="fill:#ae7181;stroke:#000000;stroke-linejoin:bevel;" x="918.350409" xlink:href="#m3441417f57" y="280.130774"/>
     <use style="fill:#ae7181;stroke:#000000;stroke-linejoin:bevel;" x="946.337869" xlink:href="#m3441417f57" y="277.495718"/>
    </g>
   </g>
   <g id="line2d_35">
    <path clip-path="url(#p4ce1386112)" d="M 134.701506 929.710315 
L 162.688966 453.865434 
L 190.676427 359.092333 
L 218.663888 304.5801 
L 246.651349 266.675727 
L 274.63881 237.762822 
L 302.626271 213.751621 
L 330.613731 195.442948 
L 358.601192 179.735377 
L 386.588653 165.891186 
L 414.576114 154.006536 
L 442.563575 143.264374 
L 470.551035 133.537892 
L 498.538496 124.407596 
L 526.525957 115.803169 
L 554.513418 109.273673 
L 582.500879 102.971352 
L 610.48834 97.280242 
L 638.4758 91.651636 
L 666.463261 86.796508 
L 694.450722 81.984952 
L 722.438183 76.982882 
L 750.425644 73.709269 
L 778.413104 69.628221 
L 806.400565 66.286396 
L 834.388026 64.036876 
L 862.375487 62.068922 
L 890.362948 58.950366 
L 918.350409 56.623619 
L 946.337869 54.332631 
" style="fill:none;stroke:#ff9408;stroke-dasharray:5.55,2.4;stroke-dashoffset:0;stroke-width:1.5;"/>
    <defs>
     <path d="M 0 2.25 
C 0.596707 2.25 1.169055 2.012926 1.59099 1.59099 
C 2.012926 1.169055 2.25 0.596707 2.25 0 
C 2.25 -0.596707 2.012926 -1.169055 1.59099 -1.59099 
C 1.169055 -2.012926 0.596707 -2.25 0 -2.25 
C -0.596707 -2.25 -1.169055 -2.012926 -1.59099 -1.59099 
C -2.012926 -1.169055 -2.25 -0.596707 -2.25 0 
C -2.25 0.596707 -2.012926 1.169055 -1.59099 1.59099 
C -1.169055 2.012926 -0.596707 2.25 0 2.25 
z
" id="m0291bf7cbc" style="stroke:#000000;"/>
    </defs>
    <g clip-path="url(#p4ce1386112)">
     <use style="fill:#ff9408;stroke:#000000;" x="134.701506" xlink:href="#m0291bf7cbc" y="929.710315"/>
     <use style="fill:#ff9408;stroke:#000000;" x="162.688966" xlink:href="#m0291bf7cbc" y="453.865434"/>
     <use style="fill:#ff9408;stroke:#000000;" x="190.676427" xlink:href="#m0291bf7cbc" y="359.092333"/>
     <use style="fill:#ff9408;stroke:#000000;" x="218.663888" xlink:href="#m0291bf7cbc" y="304.5801"/>
     <use style="fill:#ff9408;stroke:#000000;" x="246.651349" xlink:href="#m0291bf7cbc" y="266.675727"/>
     <use style="fill:#ff9408;stroke:#000000;" x="274.63881" xlink:href="#m0291bf7cbc" y="237.762822"/>
     <use style="fill:#ff9408;stroke:#000000;" x="302.626271" xlink:href="#m0291bf7cbc" y="213.751621"/>
     <use style="fill:#ff9408;stroke:#000000;" x="330.613731" xlink:href="#m0291bf7cbc" y="195.442948"/>
     <use style="fill:#ff9408;stroke:#000000;" x="358.601192" xlink:href="#m0291bf7cbc" y="179.735377"/>
     <use style="fill:#ff9408;stroke:#000000;" x="386.588653" xlink:href="#m0291bf7cbc" y="165.891186"/>
     <use style="fill:#ff9408;stroke:#000000;" x="414.576114" xlink:href="#m0291bf7cbc" y="154.006536"/>
     <use style="fill:#ff9408;stroke:#000000;" x="442.563575" xlink:href="#m0291bf7cbc" y="143.264374"/>
     <use style="fill:#ff9408;stroke:#000000;" x="470.551035" xlink:href="#m0291bf7cbc" y="133.537892"/>
     <use style="fill:#ff9408;stroke:#000000;" x="498.538496" xlink:href="#m0291bf7cbc" y="124.407596"/>
     <use style="fill:#ff9408;stroke:#000000;" x="526.525957" xlink:href="#m0291bf7cbc" y="115.803169"/>
     <use style="fill:#ff9408;stroke:#000000;" x="554.513418" xlink:href="#m0291bf7cbc" y="109.273673"/>
     <use style="fill:#ff9408;stroke:#000000;" x="582.500879" xlink:href="#m0291bf7cbc" y="102.971352"/>
     <use style="fill:#ff9408;stroke:#000000;" x="610.48834" xlink:href="#m0291bf7cbc" y="97.280242"/>
     <use style="fill:#ff9408;stroke:#000000;" x="638.4758" xlink:href="#m0291bf7cbc" y="91.651636"/>
     <use style="fill:#ff9408;stroke:#000000;" x="666.463261" xlink:href="#m0291bf7cbc" y="86.796508"/>
     <use style="fill:#ff9408;stroke:#000000;" x="694.450722" xlink:href="#m0291bf7cbc" y="81.984952"/>
     <use style="fill:#ff9408;stroke:#000000;" x="722.438183" xlink:href="#m0291bf7cbc" y="76.982882"/>
     <use style="fill:#ff9408;stroke:#000000;" x="750.425644" xlink:href="#m0291bf7cbc" y="73.709269"/>
     <use style="fill:#ff9408;stroke:#000000;" x="778.413104" xlink:href="#m0291bf7cbc" y="69.628221"/>
     <use style="fill:#ff9408;stroke:#000000;" x="806.400565" xlink:href="#m0291bf7cbc" y="66.286396"/>
     <use style="fill:#ff9408;stroke:#000000;" x="834.388026" xlink:href="#m0291bf7cbc" y="64.036876"/>
     <use style="fill:#ff9408;stroke:#000000;" x="862.375487" xlink:href="#m0291bf7cbc" y="62.068922"/>
     <use style="fill:#ff9408;stroke:#000000;" x="890.362948" xlink:href="#m0291bf7cbc" y="58.950366"/>
     <use style="fill:#ff9408;stroke:#000000;" x="918.350409" xlink:href="#m0291bf7cbc" y="56.623619"/>
     <use style="fill:#ff9408;stroke:#000000;" x="946.337869" xlink:href="#m0291bf7cbc" y="54.332631"/>
    </g>
   </g>
   <g id="line2d_36">
    <path clip-path="url(#p4ce1386112)" d="M 134.701506 929.710315 
L 162.688966 511.523869 
L 190.676427 438.879055 
L 218.663888 396.242759 
L 246.651349 366.159718 
L 274.63881 343.341489 
L 302.626271 325.140395 
L 330.613731 309.97492 
L 358.601192 298.678943 
L 386.588653 287.117627 
L 414.576114 277.057593 
L 442.563575 268.810757 
L 470.551035 261.622272 
L 498.538496 254.350548 
L 526.525957 247.334548 
L 554.513418 242.422025 
L 582.500879 236.920829 
L 610.48834 232.825959 
L 638.4758 227.939279 
L 666.463261 224.633213 
L 694.450722 220.192771 
L 722.438183 217.291173 
L 750.425644 213.500405 
L 778.413104 210.472899 
L 806.400565 208.790718 
L 834.388026 205.670359 
L 862.375487 203.355932 
L 890.362948 201.225109 
L 918.350409 199.583795 
L 946.337869 197.963516 
" style="fill:none;stroke:#ff81c0;stroke-dasharray:5.55,2.4;stroke-dashoffset:0;stroke-width:1.5;"/>
    <defs>
     <path d="M 4.5 0 
L -4.5 -4.5 
L -4.5 4.5 
z
" id="m0c31524ff0" style="stroke:#000000;stroke-linejoin:miter;"/>
    </defs>
    <g clip-path="url(#p4ce1386112)">
     <use style="fill:#ff81c0;stroke:#000000;stroke-linejoin:miter;" x="134.701506" xlink:href="#m0c31524ff0" y="929.710315"/>
     <use style="fill:#ff81c0;stroke:#000000;stroke-linejoin:miter;" x="162.688966" xlink:href="#m0c31524ff0" y="511.523869"/>
     <use style="fill:#ff81c0;stroke:#000000;stroke-linejoin:miter;" x="190.676427" xlink:href="#m0c31524ff0" y="438.879055"/>
     <use style="fill:#ff81c0;stroke:#000000;stroke-linejoin:miter;" x="218.663888" xlink:href="#m0c31524ff0" y="396.242759"/>
     <use style="fill:#ff81c0;stroke:#000000;stroke-linejoin:miter;" x="246.651349" xlink:href="#m0c31524ff0" y="366.159718"/>
     <use style="fill:#ff81c0;stroke:#000000;stroke-linejoin:miter;" x="274.63881" xlink:href="#m0c31524ff0" y="343.341489"/>
     <use style="fill:#ff81c0;stroke:#000000;stroke-linejoin:miter;" x="302.626271" xlink:href="#m0c31524ff0" y="325.140395"/>
     <use style="fill:#ff81c0;stroke:#000000;stroke-linejoin:miter;" x="330.613731" xlink:href="#m0c31524ff0" y="309.97492"/>
     <use style="fill:#ff81c0;stroke:#000000;stroke-linejoin:miter;" x="358.601192" xlink:href="#m0c31524ff0" y="298.678943"/>
     <use style="fill:#ff81c0;stroke:#000000;stroke-linejoin:miter;" x="386.588653" xlink:href="#m0c31524ff0" y="287.117627"/>
     <use style="fill:#ff81c0;stroke:#000000;stroke-linejoin:miter;" x="414.576114" xlink:href="#m0c31524ff0" y="277.057593"/>
     <use style="fill:#ff81c0;stroke:#000000;stroke-linejoin:miter;" x="442.563575" xlink:href="#m0c31524ff0" y="268.810757"/>
     <use style="fill:#ff81c0;stroke:#000000;stroke-linejoin:miter;" x="470.551035" xlink:href="#m0c31524ff0" y="261.622272"/>
     <use style="fill:#ff81c0;stroke:#000000;stroke-linejoin:miter;" x="498.538496" xlink:href="#m0c31524ff0" y="254.350548"/>
     <use style="fill:#ff81c0;stroke:#000000;stroke-linejoin:miter;" x="526.525957" xlink:href="#m0c31524ff0" y="247.334548"/>
     <use style="fill:#ff81c0;stroke:#000000;stroke-linejoin:miter;" x="554.513418" xlink:href="#m0c31524ff0" y="242.422025"/>
     <use style="fill:#ff81c0;stroke:#000000;stroke-linejoin:miter;" x="582.500879" xlink:href="#m0c31524ff0" y="236.920829"/>
     <use style="fill:#ff81c0;stroke:#000000;stroke-linejoin:miter;" x="610.48834" xlink:href="#m0c31524ff0" y="232.825959"/>
     <use style="fill:#ff81c0;stroke:#000000;stroke-linejoin:miter;" x="638.4758" xlink:href="#m0c31524ff0" y="227.939279"/>
     <use style="fill:#ff81c0;stroke:#000000;stroke-linejoin:miter;" x="666.463261" xlink:href="#m0c31524ff0" y="224.633213"/>
     <use style="fill:#ff81c0;stroke:#000000;stroke-linejoin:miter;" x="694.450722" xlink:href="#m0c31524ff0" y="220.192771"/>
     <use style="fill:#ff81c0;stroke:#000000;stroke-linejoin:miter;" x="722.438183" xlink:href="#m0c31524ff0" y="217.291173"/>
     <use style="fill:#ff81c0;stroke:#000000;stroke-linejoin:miter;" x="750.425644" xlink:href="#m0c31524ff0" y="213.500405"/>
     <use style="fill:#ff81c0;stroke:#000000;stroke-linejoin:miter;" x="778.413104" xlink:href="#m0c31524ff0" y="210.472899"/>
     <use style="fill:#ff81c0;stroke:#000000;stroke-linejoin:miter;" x="806.400565" xlink:href="#m0c31524ff0" y="208.790718"/>
     <use style="fill:#ff81c0;stroke:#000000;stroke-linejoin:miter;" x="834.388026" xlink:href="#m0c31524ff0" y="205.670359"/>
     <use style="fill:#ff81c0;stroke:#000000;stroke-linejoin:miter;" x="862.375487" xlink:href="#m0c31524ff0" y="203.355932"/>
     <use style="fill:#ff81c0;stroke:#000000;stroke-linejoin:miter;" x="890.362948" xlink:href="#m0c31524ff0" y="201.225109"/>
     <use style="fill:#ff81c0;stroke:#000000;stroke-linejoin:miter;" x="918.350409" xlink:href="#m0c31524ff0" y="199.583795"/>
     <use style="fill:#ff81c0;stroke:#000000;stroke-linejoin:miter;" x="946.337869" xlink:href="#m0c31524ff0" y="197.963516"/>
    </g>
   </g>
   <g id="patch_3">
    <path d="M 94.119688 1005.12 
L 94.119688 7.2 
" style="fill:none;stroke:#000000;stroke-linecap:square;stroke-linejoin:miter;stroke-width:0.8;"/>
   </g>
   <g id="patch_4">
    <path d="M 986.919688 1005.12 
L 986.919688 7.2 
" style="fill:none;stroke:#000000;stroke-linecap:square;stroke-linejoin:miter;stroke-width:0.8;"/>
   </g>
   <g id="patch_5">
    <path d="M 94.119688 1005.12 
L 986.919687 1005.12 
" style="fill:none;stroke:#000000;stroke-linecap:square;stroke-linejoin:miter;stroke-width:0.8;"/>
   </g>
   <g id="patch_6">
    <path d="M 94.119688 7.2 
L 986.919687 7.2 
" style="fill:none;stroke:#000000;stroke-linecap:square;stroke-linejoin:miter;stroke-width:0.8;"/>
   </g>
   <g id="legend_1">
    <g id="patch_7">
     <path d="M 437.427969 985.62 
L 959.619688 985.62 
Q 967.419688 985.62 967.419688 977.82 
L 967.419688 638.251875 
Q 967.419688 630.451875 959.619688 630.451875 
L 437.427969 630.451875 
Q 429.627969 630.451875 429.627969 638.251875 
L 429.627969 977.82 
Q 429.627969 985.62 437.427969 985.62 
z
" style="fill:#ffffff;opacity:0.8;stroke:#cccccc;stroke-linejoin:miter;"/>
    </g>
    <g id="line2d_37">
     <path d="M 445.227969 662.035781 
L 523.227969 662.035781 
" style="fill:none;stroke:#fe0002;stroke-dasharray:5.55,2.4;stroke-dashoffset:0;stroke-width:1.5;"/>
    </g>
    <g id="line2d_38">
     <g>
      <use style="fill:#fe0002;stroke:#000000;" x="484.227969" xlink:href="#md036f177f6" y="662.035781"/>
     </g>
    </g>
    <g id="text_18">
     <!-- Pairing links -->
     <g transform="translate(554.427969 675.685781)scale(0.39 -0.39)">
      <defs>
       <path d="M 1259 4147 
L 1259 2394 
L 2053 2394 
Q 2494 2394 2734 2622 
Q 2975 2850 2975 3272 
Q 2975 3691 2734 3919 
Q 2494 4147 2053 4147 
L 1259 4147 
z
M 628 4666 
L 2053 4666 
Q 2838 4666 3239 4311 
Q 3641 3956 3641 3272 
Q 3641 2581 3239 2228 
Q 2838 1875 2053 1875 
L 1259 1875 
L 1259 0 
L 628 0 
L 628 4666 
z
" id="DejaVuSans-50" transform="scale(0.015625)"/>
      </defs>
      <use xlink:href="#DejaVuSans-50"/>
      <use x="55.802734" xlink:href="#DejaVuSans-61"/>
      <use x="117.082031" xlink:href="#DejaVuSans-69"/>
      <use x="144.865234" xlink:href="#DejaVuSans-72"/>
      <use x="185.978516" xlink:href="#DejaVuSans-69"/>
      <use x="213.761719" xlink:href="#DejaVuSans-6e"/>
      <use x="277.140625" xlink:href="#DejaVuSans-67"/>
      <use x="340.617188" xlink:href="#DejaVuSans-20"/>
      <use x="372.404297" xlink:href="#DejaVuSans-6c"/>
      <use x="400.1875" xlink:href="#DejaVuSans-69"/>
      <use x="427.970703" xlink:href="#DejaVuSans-6e"/>
      <use x="491.349609" xlink:href="#DejaVuSans-6b"/>
      <use x="549.259766" xlink:href="#DejaVuSans-73"/>
     </g>
    </g>
    <g id="line2d_39">
     <path d="M 445.227969 719.280469 
L 523.227969 719.280469 
" style="fill:none;stroke:#53fca1;stroke-dasharray:5.55,2.4;stroke-dashoffset:0;stroke-width:1.5;"/>
    </g>
    <g id="line2d_40">
     <g>
      <use style="fill:#53fca1;stroke:#000000;stroke-linejoin:miter;" x="484.227969" xlink:href="#m099ad85d5f" y="719.280469"/>
     </g>
    </g>
    <g id="text_19">
     <!-- Smooth links -->
     <g transform="translate(554.427969 732.930469)scale(0.39 -0.39)">
      <defs>
       <path d="M 3425 4513 
L 3425 3897 
Q 3066 4069 2747 4153 
Q 2428 4238 2131 4238 
Q 1616 4238 1336 4038 
Q 1056 3838 1056 3469 
Q 1056 3159 1242 3001 
Q 1428 2844 1947 2747 
L 2328 2669 
Q 3034 2534 3370 2195 
Q 3706 1856 3706 1288 
Q 3706 609 3251 259 
Q 2797 -91 1919 -91 
Q 1588 -91 1214 -16 
Q 841 59 441 206 
L 441 856 
Q 825 641 1194 531 
Q 1563 422 1919 422 
Q 2459 422 2753 634 
Q 3047 847 3047 1241 
Q 3047 1584 2836 1778 
Q 2625 1972 2144 2069 
L 1759 2144 
Q 1053 2284 737 2584 
Q 422 2884 422 3419 
Q 422 4038 858 4394 
Q 1294 4750 2059 4750 
Q 2388 4750 2728 4690 
Q 3069 4631 3425 4513 
z
" id="DejaVuSans-53" transform="scale(0.015625)"/>
       <path d="M 3513 2113 
L 3513 0 
L 2938 0 
L 2938 2094 
Q 2938 2591 2744 2837 
Q 2550 3084 2163 3084 
Q 1697 3084 1428 2787 
Q 1159 2491 1159 1978 
L 1159 0 
L 581 0 
L 581 4863 
L 1159 4863 
L 1159 2956 
Q 1366 3272 1645 3428 
Q 1925 3584 2291 3584 
Q 2894 3584 3203 3211 
Q 3513 2838 3513 2113 
z
" id="DejaVuSans-68" transform="scale(0.015625)"/>
      </defs>
      <use xlink:href="#DejaVuSans-53"/>
      <use x="63.476562" xlink:href="#DejaVuSans-6d"/>
      <use x="160.888672" xlink:href="#DejaVuSans-6f"/>
      <use x="222.070312" xlink:href="#DejaVuSans-6f"/>
      <use x="283.251953" xlink:href="#DejaVuSans-74"/>
      <use x="322.460938" xlink:href="#DejaVuSans-68"/>
      <use x="385.839844" xlink:href="#DejaVuSans-20"/>
      <use x="417.626953" xlink:href="#DejaVuSans-6c"/>
      <use x="445.410156" xlink:href="#DejaVuSans-69"/>
      <use x="473.193359" xlink:href="#DejaVuSans-6e"/>
      <use x="536.572266" xlink:href="#DejaVuSans-6b"/>
      <use x="594.482422" xlink:href="#DejaVuSans-73"/>
     </g>
    </g>
    <g id="line2d_41">
     <path d="M 445.227969 776.525156 
L 523.227969 776.525156 
" style="fill:none;stroke:#0652ff;stroke-dasharray:5.55,2.4;stroke-dashoffset:0;stroke-width:1.5;"/>
    </g>
    <g id="line2d_42">
     <g>
      <use style="fill:#0652ff;stroke:#000000;stroke-linejoin:miter;" x="484.227969" xlink:href="#m609dbe8bd5" y="776.525156"/>
     </g>
    </g>
    <g id="text_20">
     <!-- Slim links -->
     <g transform="translate(554.427969 790.175156)scale(0.39 -0.39)">
      <use xlink:href="#DejaVuSans-53"/>
      <use x="63.476562" xlink:href="#DejaVuSans-6c"/>
      <use x="91.259766" xlink:href="#DejaVuSans-69"/>
      <use x="119.042969" xlink:href="#DejaVuSans-6d"/>
      <use x="216.455078" xlink:href="#DejaVuSans-20"/>
      <use x="248.242188" xlink:href="#DejaVuSans-6c"/>
      <use x="276.025391" xlink:href="#DejaVuSans-69"/>
      <use x="303.808594" xlink:href="#DejaVuSans-6e"/>
      <use x="367.1875" xlink:href="#DejaVuSans-6b"/>
      <use x="425.097656" xlink:href="#DejaVuSans-73"/>
     </g>
    </g>
    <g id="line2d_43">
     <path d="M 445.227969 833.769844 
L 523.227969 833.769844 
" style="fill:none;stroke:#ae7181;stroke-dasharray:5.55,2.4;stroke-dashoffset:0;stroke-width:1.5;"/>
    </g>
    <g id="line2d_44">
     <g>
      <use style="fill:#ae7181;stroke:#000000;stroke-linejoin:bevel;" x="484.227969" xlink:href="#m3441417f57" y="833.769844"/>
     </g>
    </g>
    <g id="text_21">
     <!-- Pairing Lazy links -->
     <g transform="translate(554.427969 847.419844)scale(0.39 -0.39)">
      <use xlink:href="#DejaVuSans-50"/>
      <use x="55.802734" xlink:href="#DejaVuSans-61"/>
      <use x="117.082031" xlink:href="#DejaVuSans-69"/>
      <use x="144.865234" xlink:href="#DejaVuSans-72"/>
      <use x="185.978516" xlink:href="#DejaVuSans-69"/>
      <use x="213.761719" xlink:href="#DejaVuSans-6e"/>
      <use x="277.140625" xlink:href="#DejaVuSans-67"/>
      <use x="340.617188" xlink:href="#DejaVuSans-20"/>
      <use x="372.404297" xlink:href="#DejaVuSans-4c"/>
      <use x="428.117188" xlink:href="#DejaVuSans-61"/>
      <use x="489.396484" xlink:href="#DejaVuSans-7a"/>
      <use x="541.886719" xlink:href="#DejaVuSans-79"/>
      <use x="601.066406" xlink:href="#DejaVuSans-20"/>
      <use x="632.853516" xlink:href="#DejaVuSans-6c"/>
      <use x="660.636719" xlink:href="#DejaVuSans-69"/>
      <use x="688.419922" xlink:href="#DejaVuSans-6e"/>
      <use x="751.798828" xlink:href="#DejaVuSans-6b"/>
      <use x="809.708984" xlink:href="#DejaVuSans-73"/>
     </g>
    </g>
    <g id="line2d_45">
     <path d="M 445.227969 891.014531 
L 523.227969 891.014531 
" style="fill:none;stroke:#ff9408;stroke-dasharray:5.55,2.4;stroke-dashoffset:0;stroke-width:1.5;"/>
    </g>
    <g id="line2d_46">
     <g>
      <use style="fill:#ff9408;stroke:#000000;" x="484.227969" xlink:href="#m0291bf7cbc" y="891.014531"/>
     </g>
    </g>
    <g id="text_22">
     <!-- Pairing Slim links -->
     <g transform="translate(554.427969 904.664531)scale(0.39 -0.39)">
      <use xlink:href="#DejaVuSans-50"/>
      <use x="55.802734" xlink:href="#DejaVuSans-61"/>
      <use x="117.082031" xlink:href="#DejaVuSans-69"/>
      <use x="144.865234" xlink:href="#DejaVuSans-72"/>
      <use x="185.978516" xlink:href="#DejaVuSans-69"/>
      <use x="213.761719" xlink:href="#DejaVuSans-6e"/>
      <use x="277.140625" xlink:href="#DejaVuSans-67"/>
      <use x="340.617188" xlink:href="#DejaVuSans-20"/>
      <use x="372.404297" xlink:href="#DejaVuSans-53"/>
      <use x="435.880859" xlink:href="#DejaVuSans-6c"/>
      <use x="463.664062" xlink:href="#DejaVuSans-69"/>
      <use x="491.447266" xlink:href="#DejaVuSans-6d"/>
      <use x="588.859375" xlink:href="#DejaVuSans-20"/>
      <use x="620.646484" xlink:href="#DejaVuSans-6c"/>
      <use x="648.429688" xlink:href="#DejaVuSans-69"/>
      <use x="676.212891" xlink:href="#DejaVuSans-6e"/>
      <use x="739.591797" xlink:href="#DejaVuSans-6b"/>
      <use x="797.501953" xlink:href="#DejaVuSans-73"/>
     </g>
    </g>
    <g id="line2d_47">
     <path d="M 445.227969 948.259219 
L 523.227969 948.259219 
" style="fill:none;stroke:#ff81c0;stroke-dasharray:5.55,2.4;stroke-dashoffset:0;stroke-width:1.5;"/>
    </g>
    <g id="line2d_48">
     <g>
      <use style="fill:#ff81c0;stroke:#000000;stroke-linejoin:miter;" x="484.227969" xlink:href="#m0c31524ff0" y="948.259219"/>
     </g>
    </g>
    <g id="text_23">
     <!-- Pairing Smooth links -->
     <g transform="translate(554.427969 961.909219)scale(0.39 -0.39)">
      <use xlink:href="#DejaVuSans-50"/>
      <use x="55.802734" xlink:href="#DejaVuSans-61"/>
      <use x="117.082031" xlink:href="#DejaVuSans-69"/>
      <use x="144.865234" xlink:href="#DejaVuSans-72"/>
      <use x="185.978516" xlink:href="#DejaVuSans-69"/>
      <use x="213.761719" xlink:href="#DejaVuSans-6e"/>
      <use x="277.140625" xlink:href="#DejaVuSans-67"/>
      <use x="340.617188" xlink:href="#DejaVuSans-20"/>
      <use x="372.404297" xlink:href="#DejaVuSans-53"/>
      <use x="435.880859" xlink:href="#DejaVuSans-6d"/>
      <use x="533.292969" xlink:href="#DejaVuSans-6f"/>
      <use x="594.474609" xlink:href="#DejaVuSans-6f"/>
      <use x="655.65625" xlink:href="#DejaVuSans-74"/>
      <use x="694.865234" xlink:href="#DejaVuSans-68"/>
      <use x="758.244141" xlink:href="#DejaVuSans-20"/>
      <use x="790.03125" xlink:href="#DejaVuSans-6c"/>
      <use x="817.814453" xlink:href="#DejaVuSans-69"/>
      <use x="845.597656" xlink:href="#DejaVuSans-6e"/>
      <use x="908.976562" xlink:href="#DejaVuSans-6b"/>
      <use x="966.886719" xlink:href="#DejaVuSans-73"/>
     </g>
    </g>
   </g>
  </g>
 </g>
 <defs>
  <clipPath id="p4ce1386112">
   <rect height="997.92" width="892.8" x="94.119688" y="7.2"/>
  </clipPath>
 </defs>
</svg>
