<?xml version="1.0" encoding="utf-8" standalone="no"?>
<!DOCTYPE svg PUBLIC "-//W3C//DTD SVG 1.1//EN"
  "http://www.w3.org/Graphics/SVG/1.1/DTD/svg11.dtd">
<svg height="1090.099062pt" version="1.1" viewBox="0 0 1032.294688 1090.099062" width="1032.294688pt" xmlns="http://www.w3.org/2000/svg" xmlns:xlink="http://www.w3.org/1999/xlink">
 <metadata>
  <rdf:RDF xmlns:cc="http://creativecommons.org/ns#" xmlns:dc="http://purl.org/dc/elements/1.1/" xmlns:rdf="http://www.w3.org/1999/02/22-rdf-syntax-ns#">
   <cc:Work>
    <dc:type rdf:resource="http://purl.org/dc/dcmitype/StillImage"/>
    <dc:date>2021-06-24T16:40:10.068542</dc:date>
    <dc:format>image/svg+xml</dc:format>
    <dc:creator>
     <cc:Agent>
      <dc:title>Matplotlib v3.4.2, https://matplotlib.org/</dc:title>
     </cc:Agent>
    </dc:creator>
   </cc:Work>
  </rdf:RDF>
 </metadata>
 <defs>
  <style type="text/css">*{stroke-linecap:butt;stroke-linejoin:round;}</style>
 </defs>
 <g id="figure_1">
  <g id="patch_1">
   <path d="M 0 1090.099062 
L 1032.294688 1090.099062 
L 1032.294688 0 
L 0 0 
z
" style="fill:#ffffff;"/>
  </g>
  <g id="axes_1">
   <g id="patch_2">
    <path d="M 132.294688 1005.12 
L 1025.094687 1005.12 
L 1025.094687 7.2 
L 132.294688 7.2 
z
" style="fill:#ffffff;"/>
   </g>
   <g id="PolyCollection_1">
    <defs>
     <path d="M 172.876506 -131.967164 
L 172.876506 -130.410087 
L 215.594209 -155.993134 
L 258.311912 -183.311366 
L 301.029616 -211.275375 
L 343.747319 -240.018468 
L 386.465022 -268.14638 
L 429.182726 -299.000542 
L 471.900429 -329.223132 
L 514.618132 -360.406192 
L 557.335836 -390.839671 
L 600.053539 -421.700389 
L 642.771243 -454.357482 
L 685.488946 -483.361728 
L 728.206649 -521.13696 
L 770.924353 -547.694683 
L 813.642056 -579.094095 
L 856.359759 -613.938745 
L 899.077463 -647.282044 
L 941.795166 -676.440358 
L 984.512869 -710.890549 
L 984.512869 -740.095848 
L 984.512869 -740.095848 
L 941.795166 -707.686795 
L 899.077463 -671.504698 
L 856.359759 -636.11152 
L 813.642056 -601.745466 
L 770.924353 -565.284735 
L 728.206649 -538.761978 
L 685.488946 -503.427805 
L 642.771243 -472.726619 
L 600.053539 -437.836076 
L 557.335836 -403.652501 
L 514.618132 -373.256174 
L 471.900429 -342.409661 
L 429.182726 -308.300389 
L 386.465022 -279.059031 
L 343.747319 -247.409393 
L 301.029616 -216.687446 
L 258.311912 -187.895182 
L 215.594209 -159.230761 
L 172.876506 -131.967164 
z
" id="m45869015b1" style="stroke:#fe0002;stroke-opacity:0.3;"/>
    </defs>
    <g clip-path="url(#p7b74871afc)">
     <use style="fill:#fe0002;fill-opacity:0.3;stroke:#fe0002;stroke-opacity:0.3;" x="0" xlink:href="#m45869015b1" y="1090.099062"/>
    </g>
   </g>
   <g id="PolyCollection_2">
    <defs>
     <path d="M 172.876506 -140.232238 
L 172.876506 -139.636724 
L 215.594209 -176.229671 
L 258.311912 -215.524829 
L 301.029616 -255.696321 
L 343.747319 -297.596441 
L 386.465022 -339.847314 
L 429.182726 -383.777644 
L 471.900429 -426.932167 
L 514.618132 -472.60096 
L 557.335836 -516.887506 
L 600.053539 -561.977175 
L 642.771243 -606.730298 
L 685.488946 -652.259227 
L 728.206649 -699.962601 
L 770.924353 -745.429247 
L 813.642056 -793.466982 
L 856.359759 -840.375973 
L 899.077463 -886.502601 
L 941.795166 -933.659632 
L 984.512869 -982.265563 
L 984.512869 -985.516303 
L 984.512869 -985.516303 
L 941.795166 -938.011798 
L 899.077463 -890.207898 
L 856.359759 -842.820311 
L 813.642056 -796.573487 
L 770.924353 -748.682172 
L 728.206649 -702.324987 
L 685.488946 -656.599374 
L 642.771243 -610.8082 
L 600.053539 -564.338469 
L 557.335836 -520.141523 
L 514.618132 -474.54157 
L 471.900429 -429.622359 
L 429.182726 -385.651599 
L 386.465022 -341.911397 
L 343.747319 -300.51719 
L 301.029616 -257.443525 
L 258.311912 -216.590197 
L 215.594209 -177.439274 
L 172.876506 -140.232238 
z
" id="mbd7c349e4f" style="stroke:#53fca1;stroke-opacity:0.3;"/>
    </defs>
    <g clip-path="url(#p7b74871afc)">
     <use style="fill:#53fca1;fill-opacity:0.3;stroke:#53fca1;stroke-opacity:0.3;" x="0" xlink:href="#mbd7c349e4f" y="1090.099062"/>
    </g>
   </g>
   <g id="PolyCollection_3">
    <defs>
     <path d="M 172.876506 -140.248628 
L 172.876506 -139.459709 
L 215.594209 -177.267722 
L 258.311912 -217.503682 
L 301.029616 -259.505422 
L 343.747319 -302.954971 
L 386.465022 -347.297244 
L 429.182726 -392.998817 
L 471.900429 -438.25676 
L 514.618132 -485.502299 
L 557.335836 -533.216599 
L 600.053539 -582.156892 
L 642.771243 -630.830571 
L 685.488946 -679.637556 
L 728.206649 -729.478223 
L 770.924353 -777.967237 
L 813.642056 -829.092902 
L 856.359759 -880.074332 
L 899.077463 -930.077809 
L 941.795166 -979.716328 
L 984.512869 -1032.456982 
L 984.512869 -1037.539062 
L 984.512869 -1037.539062 
L 941.795166 -984.409413 
L 899.077463 -936.12473 
L 856.359759 -883.681287 
L 813.642056 -831.751406 
L 770.924353 -782.851542 
L 728.206649 -731.664687 
L 685.488946 -683.087165 
L 642.771243 -633.018127 
L 600.053539 -584.937777 
L 557.335836 -536.708822 
L 514.618132 -488.433974 
L 471.900429 -441.825471 
L 429.182726 -395.331701 
L 386.465022 -350.049719 
L 343.747319 -304.87482 
L 301.029616 -261.394676 
L 258.311912 -218.63789 
L 215.594209 -178.344017 
L 172.876506 -140.248628 
z
" id="m6b4e5baf43" style="stroke:#0652ff;stroke-opacity:0.3;"/>
    </defs>
    <g clip-path="url(#p7b74871afc)">
     <use style="fill:#0652ff;fill-opacity:0.3;stroke:#0652ff;stroke-opacity:0.3;" x="0" xlink:href="#m6b4e5baf43" y="1090.099062"/>
    </g>
   </g>
   <g id="PolyCollection_4">
    <defs>
     <path d="M 172.876506 -131.33887 
L 172.876506 -130.339063 
L 215.594209 -158.275754 
L 258.311912 -188.509271 
L 301.029616 -220.6681 
L 343.747319 -253.764453 
L 386.465022 -287.192982 
L 429.182726 -323.880992 
L 471.900429 -358.182577 
L 514.618132 -395.679175 
L 557.335836 -433.360436 
L 600.053539 -471.056995 
L 642.771243 -506.88834 
L 685.488946 -546.502563 
L 728.206649 -585.165056 
L 770.924353 -624.388097 
L 813.642056 -663.658123 
L 856.359759 -703.18493 
L 899.077463 -744.868699 
L 941.795166 -784.961517 
L 984.512869 -824.84454 
L 984.512869 -835.877386 
L 984.512869 -835.877386 
L 941.795166 -794.978166 
L 899.077463 -754.308409 
L 856.359759 -712.626826 
L 813.642056 -671.771313 
L 770.924353 -631.407509 
L 728.206649 -593.898891 
L 685.488946 -553.543828 
L 642.771243 -515.217882 
L 600.053539 -477.023059 
L 557.335836 -437.308309 
L 514.618132 -400.492455 
L 471.900429 -364.244797 
L 429.182726 -326.927399 
L 386.465022 -293.191826 
L 343.747319 -257.631467 
L 301.029616 -222.627285 
L 258.311912 -190.635637 
L 215.594209 -159.153181 
L 172.876506 -131.33887 
z
" id="m093ebe61be" style="stroke:#ae7181;stroke-opacity:0.3;"/>
    </defs>
    <g clip-path="url(#p7b74871afc)">
     <use style="fill:#ae7181;fill-opacity:0.3;stroke:#ae7181;stroke-opacity:0.3;" x="0" xlink:href="#m093ebe61be" y="1090.099062"/>
    </g>
   </g>
   <g id="matplotlib.axis_1">
    <g id="xtick_1">
     <g id="line2d_1">
      <path clip-path="url(#p7b74871afc)" d="M 301.029616 1005.12 
L 301.029616 7.2 
" style="fill:none;stroke:#b0b0b0;stroke-linecap:square;stroke-width:0.8;"/>
     </g>
     <g id="line2d_2">
      <defs>
       <path d="M 0 0 
L 0 3.5 
" id="m12ef72b753" style="stroke:#000000;stroke-width:0.8;"/>
      </defs>
      <g>
       <use style="stroke:#000000;stroke-width:0.8;" x="301.029616" xlink:href="#m12ef72b753" y="1005.12"/>
      </g>
     </g>
     <g id="text_1">
      <!-- 0.2 -->
      <g transform="translate(277.174928 1034.915313)scale(0.3 -0.3)">
       <defs>
        <path d="M 2034 4250 
Q 1547 4250 1301 3770 
Q 1056 3291 1056 2328 
Q 1056 1369 1301 889 
Q 1547 409 2034 409 
Q 2525 409 2770 889 
Q 3016 1369 3016 2328 
Q 3016 3291 2770 3770 
Q 2525 4250 2034 4250 
z
M 2034 4750 
Q 2819 4750 3233 4129 
Q 3647 3509 3647 2328 
Q 3647 1150 3233 529 
Q 2819 -91 2034 -91 
Q 1250 -91 836 529 
Q 422 1150 422 2328 
Q 422 3509 836 4129 
Q 1250 4750 2034 4750 
z
" id="DejaVuSans-30" transform="scale(0.015625)"/>
        <path d="M 684 794 
L 1344 794 
L 1344 0 
L 684 0 
L 684 794 
z
" id="DejaVuSans-2e" transform="scale(0.015625)"/>
        <path d="M 1228 531 
L 3431 531 
L 3431 0 
L 469 0 
L 469 531 
Q 828 903 1448 1529 
Q 2069 2156 2228 2338 
Q 2531 2678 2651 2914 
Q 2772 3150 2772 3378 
Q 2772 3750 2511 3984 
Q 2250 4219 1831 4219 
Q 1534 4219 1204 4116 
Q 875 4013 500 3803 
L 500 4441 
Q 881 4594 1212 4672 
Q 1544 4750 1819 4750 
Q 2544 4750 2975 4387 
Q 3406 4025 3406 3419 
Q 3406 3131 3298 2873 
Q 3191 2616 2906 2266 
Q 2828 2175 2409 1742 
Q 1991 1309 1228 531 
z
" id="DejaVuSans-32" transform="scale(0.015625)"/>
       </defs>
       <use xlink:href="#DejaVuSans-30"/>
       <use x="63.623047" xlink:href="#DejaVuSans-2e"/>
       <use x="95.410156" xlink:href="#DejaVuSans-32"/>
      </g>
     </g>
    </g>
    <g id="xtick_2">
     <g id="line2d_3">
      <path clip-path="url(#p7b74871afc)" d="M 471.900429 1005.12 
L 471.900429 7.2 
" style="fill:none;stroke:#b0b0b0;stroke-linecap:square;stroke-width:0.8;"/>
     </g>
     <g id="line2d_4">
      <g>
       <use style="stroke:#000000;stroke-width:0.8;" x="471.900429" xlink:href="#m12ef72b753" y="1005.12"/>
      </g>
     </g>
     <g id="text_2">
      <!-- 0.4 -->
      <g transform="translate(448.045742 1034.915313)scale(0.3 -0.3)">
       <defs>
        <path d="M 2419 4116 
L 825 1625 
L 2419 1625 
L 2419 4116 
z
M 2253 4666 
L 3047 4666 
L 3047 1625 
L 3713 1625 
L 3713 1100 
L 3047 1100 
L 3047 0 
L 2419 0 
L 2419 1100 
L 313 1100 
L 313 1709 
L 2253 4666 
z
" id="DejaVuSans-34" transform="scale(0.015625)"/>
       </defs>
       <use xlink:href="#DejaVuSans-30"/>
       <use x="63.623047" xlink:href="#DejaVuSans-2e"/>
       <use x="95.410156" xlink:href="#DejaVuSans-34"/>
      </g>
     </g>
    </g>
    <g id="xtick_3">
     <g id="line2d_5">
      <path clip-path="url(#p7b74871afc)" d="M 642.771243 1005.12 
L 642.771243 7.2 
" style="fill:none;stroke:#b0b0b0;stroke-linecap:square;stroke-width:0.8;"/>
     </g>
     <g id="line2d_6">
      <g>
       <use style="stroke:#000000;stroke-width:0.8;" x="642.771243" xlink:href="#m12ef72b753" y="1005.12"/>
      </g>
     </g>
     <g id="text_3">
      <!-- 0.6 -->
      <g transform="translate(618.916555 1034.915313)scale(0.3 -0.3)">
       <defs>
        <path d="M 2113 2584 
Q 1688 2584 1439 2293 
Q 1191 2003 1191 1497 
Q 1191 994 1439 701 
Q 1688 409 2113 409 
Q 2538 409 2786 701 
Q 3034 994 3034 1497 
Q 3034 2003 2786 2293 
Q 2538 2584 2113 2584 
z
M 3366 4563 
L 3366 3988 
Q 3128 4100 2886 4159 
Q 2644 4219 2406 4219 
Q 1781 4219 1451 3797 
Q 1122 3375 1075 2522 
Q 1259 2794 1537 2939 
Q 1816 3084 2150 3084 
Q 2853 3084 3261 2657 
Q 3669 2231 3669 1497 
Q 3669 778 3244 343 
Q 2819 -91 2113 -91 
Q 1303 -91 875 529 
Q 447 1150 447 2328 
Q 447 3434 972 4092 
Q 1497 4750 2381 4750 
Q 2619 4750 2861 4703 
Q 3103 4656 3366 4563 
z
" id="DejaVuSans-36" transform="scale(0.015625)"/>
       </defs>
       <use xlink:href="#DejaVuSans-30"/>
       <use x="63.623047" xlink:href="#DejaVuSans-2e"/>
       <use x="95.410156" xlink:href="#DejaVuSans-36"/>
      </g>
     </g>
    </g>
    <g id="xtick_4">
     <g id="line2d_7">
      <path clip-path="url(#p7b74871afc)" d="M 813.642056 1005.12 
L 813.642056 7.2 
" style="fill:none;stroke:#b0b0b0;stroke-linecap:square;stroke-width:0.8;"/>
     </g>
     <g id="line2d_8">
      <g>
       <use style="stroke:#000000;stroke-width:0.8;" x="813.642056" xlink:href="#m12ef72b753" y="1005.12"/>
      </g>
     </g>
     <g id="text_4">
      <!-- 0.8 -->
      <g transform="translate(789.787368 1034.915313)scale(0.3 -0.3)">
       <defs>
        <path d="M 2034 2216 
Q 1584 2216 1326 1975 
Q 1069 1734 1069 1313 
Q 1069 891 1326 650 
Q 1584 409 2034 409 
Q 2484 409 2743 651 
Q 3003 894 3003 1313 
Q 3003 1734 2745 1975 
Q 2488 2216 2034 2216 
z
M 1403 2484 
Q 997 2584 770 2862 
Q 544 3141 544 3541 
Q 544 4100 942 4425 
Q 1341 4750 2034 4750 
Q 2731 4750 3128 4425 
Q 3525 4100 3525 3541 
Q 3525 3141 3298 2862 
Q 3072 2584 2669 2484 
Q 3125 2378 3379 2068 
Q 3634 1759 3634 1313 
Q 3634 634 3220 271 
Q 2806 -91 2034 -91 
Q 1263 -91 848 271 
Q 434 634 434 1313 
Q 434 1759 690 2068 
Q 947 2378 1403 2484 
z
M 1172 3481 
Q 1172 3119 1398 2916 
Q 1625 2713 2034 2713 
Q 2441 2713 2670 2916 
Q 2900 3119 2900 3481 
Q 2900 3844 2670 4047 
Q 2441 4250 2034 4250 
Q 1625 4250 1398 4047 
Q 1172 3844 1172 3481 
z
" id="DejaVuSans-38" transform="scale(0.015625)"/>
       </defs>
       <use xlink:href="#DejaVuSans-30"/>
       <use x="63.623047" xlink:href="#DejaVuSans-2e"/>
       <use x="95.410156" xlink:href="#DejaVuSans-38"/>
      </g>
     </g>
    </g>
    <g id="xtick_5">
     <g id="line2d_9">
      <path clip-path="url(#p7b74871afc)" d="M 984.512869 1005.12 
L 984.512869 7.2 
" style="fill:none;stroke:#b0b0b0;stroke-linecap:square;stroke-width:0.8;"/>
     </g>
     <g id="line2d_10">
      <g>
       <use style="stroke:#000000;stroke-width:0.8;" x="984.512869" xlink:href="#m12ef72b753" y="1005.12"/>
      </g>
     </g>
     <g id="text_5">
      <!-- 1.0 -->
      <g transform="translate(960.658182 1034.915313)scale(0.3 -0.3)">
       <defs>
        <path d="M 794 531 
L 1825 531 
L 1825 4091 
L 703 3866 
L 703 4441 
L 1819 4666 
L 2450 4666 
L 2450 531 
L 3481 531 
L 3481 0 
L 794 0 
L 794 531 
z
" id="DejaVuSans-31" transform="scale(0.015625)"/>
       </defs>
       <use xlink:href="#DejaVuSans-31"/>
       <use x="63.623047" xlink:href="#DejaVuSans-2e"/>
       <use x="95.410156" xlink:href="#DejaVuSans-30"/>
      </g>
     </g>
    </g>
    <g id="text_6">
     <!-- Edge probability -->
     <g transform="translate(419.382734 1074.788281)scale(0.39 -0.39)">
      <defs>
       <path d="M 628 4666 
L 3578 4666 
L 3578 4134 
L 1259 4134 
L 1259 2753 
L 3481 2753 
L 3481 2222 
L 1259 2222 
L 1259 531 
L 3634 531 
L 3634 0 
L 628 0 
L 628 4666 
z
" id="DejaVuSans-45" transform="scale(0.015625)"/>
       <path d="M 2906 2969 
L 2906 4863 
L 3481 4863 
L 3481 0 
L 2906 0 
L 2906 525 
Q 2725 213 2448 61 
Q 2172 -91 1784 -91 
Q 1150 -91 751 415 
Q 353 922 353 1747 
Q 353 2572 751 3078 
Q 1150 3584 1784 3584 
Q 2172 3584 2448 3432 
Q 2725 3281 2906 2969 
z
M 947 1747 
Q 947 1113 1208 752 
Q 1469 391 1925 391 
Q 2381 391 2643 752 
Q 2906 1113 2906 1747 
Q 2906 2381 2643 2742 
Q 2381 3103 1925 3103 
Q 1469 3103 1208 2742 
Q 947 2381 947 1747 
z
" id="DejaVuSans-64" transform="scale(0.015625)"/>
       <path d="M 2906 1791 
Q 2906 2416 2648 2759 
Q 2391 3103 1925 3103 
Q 1463 3103 1205 2759 
Q 947 2416 947 1791 
Q 947 1169 1205 825 
Q 1463 481 1925 481 
Q 2391 481 2648 825 
Q 2906 1169 2906 1791 
z
M 3481 434 
Q 3481 -459 3084 -895 
Q 2688 -1331 1869 -1331 
Q 1566 -1331 1297 -1286 
Q 1028 -1241 775 -1147 
L 775 -588 
Q 1028 -725 1275 -790 
Q 1522 -856 1778 -856 
Q 2344 -856 2625 -561 
Q 2906 -266 2906 331 
L 2906 616 
Q 2728 306 2450 153 
Q 2172 0 1784 0 
Q 1141 0 747 490 
Q 353 981 353 1791 
Q 353 2603 747 3093 
Q 1141 3584 1784 3584 
Q 2172 3584 2450 3431 
Q 2728 3278 2906 2969 
L 2906 3500 
L 3481 3500 
L 3481 434 
z
" id="DejaVuSans-67" transform="scale(0.015625)"/>
       <path d="M 3597 1894 
L 3597 1613 
L 953 1613 
Q 991 1019 1311 708 
Q 1631 397 2203 397 
Q 2534 397 2845 478 
Q 3156 559 3463 722 
L 3463 178 
Q 3153 47 2828 -22 
Q 2503 -91 2169 -91 
Q 1331 -91 842 396 
Q 353 884 353 1716 
Q 353 2575 817 3079 
Q 1281 3584 2069 3584 
Q 2775 3584 3186 3129 
Q 3597 2675 3597 1894 
z
M 3022 2063 
Q 3016 2534 2758 2815 
Q 2500 3097 2075 3097 
Q 1594 3097 1305 2825 
Q 1016 2553 972 2059 
L 3022 2063 
z
" id="DejaVuSans-65" transform="scale(0.015625)"/>
       <path id="DejaVuSans-20" transform="scale(0.015625)"/>
       <path d="M 1159 525 
L 1159 -1331 
L 581 -1331 
L 581 3500 
L 1159 3500 
L 1159 2969 
Q 1341 3281 1617 3432 
Q 1894 3584 2278 3584 
Q 2916 3584 3314 3078 
Q 3713 2572 3713 1747 
Q 3713 922 3314 415 
Q 2916 -91 2278 -91 
Q 1894 -91 1617 61 
Q 1341 213 1159 525 
z
M 3116 1747 
Q 3116 2381 2855 2742 
Q 2594 3103 2138 3103 
Q 1681 3103 1420 2742 
Q 1159 2381 1159 1747 
Q 1159 1113 1420 752 
Q 1681 391 2138 391 
Q 2594 391 2855 752 
Q 3116 1113 3116 1747 
z
" id="DejaVuSans-70" transform="scale(0.015625)"/>
       <path d="M 2631 2963 
Q 2534 3019 2420 3045 
Q 2306 3072 2169 3072 
Q 1681 3072 1420 2755 
Q 1159 2438 1159 1844 
L 1159 0 
L 581 0 
L 581 3500 
L 1159 3500 
L 1159 2956 
Q 1341 3275 1631 3429 
Q 1922 3584 2338 3584 
Q 2397 3584 2469 3576 
Q 2541 3569 2628 3553 
L 2631 2963 
z
" id="DejaVuSans-72" transform="scale(0.015625)"/>
       <path d="M 1959 3097 
Q 1497 3097 1228 2736 
Q 959 2375 959 1747 
Q 959 1119 1226 758 
Q 1494 397 1959 397 
Q 2419 397 2687 759 
Q 2956 1122 2956 1747 
Q 2956 2369 2687 2733 
Q 2419 3097 1959 3097 
z
M 1959 3584 
Q 2709 3584 3137 3096 
Q 3566 2609 3566 1747 
Q 3566 888 3137 398 
Q 2709 -91 1959 -91 
Q 1206 -91 779 398 
Q 353 888 353 1747 
Q 353 2609 779 3096 
Q 1206 3584 1959 3584 
z
" id="DejaVuSans-6f" transform="scale(0.015625)"/>
       <path d="M 3116 1747 
Q 3116 2381 2855 2742 
Q 2594 3103 2138 3103 
Q 1681 3103 1420 2742 
Q 1159 2381 1159 1747 
Q 1159 1113 1420 752 
Q 1681 391 2138 391 
Q 2594 391 2855 752 
Q 3116 1113 3116 1747 
z
M 1159 2969 
Q 1341 3281 1617 3432 
Q 1894 3584 2278 3584 
Q 2916 3584 3314 3078 
Q 3713 2572 3713 1747 
Q 3713 922 3314 415 
Q 2916 -91 2278 -91 
Q 1894 -91 1617 61 
Q 1341 213 1159 525 
L 1159 0 
L 581 0 
L 581 4863 
L 1159 4863 
L 1159 2969 
z
" id="DejaVuSans-62" transform="scale(0.015625)"/>
       <path d="M 2194 1759 
Q 1497 1759 1228 1600 
Q 959 1441 959 1056 
Q 959 750 1161 570 
Q 1363 391 1709 391 
Q 2188 391 2477 730 
Q 2766 1069 2766 1631 
L 2766 1759 
L 2194 1759 
z
M 3341 1997 
L 3341 0 
L 2766 0 
L 2766 531 
Q 2569 213 2275 61 
Q 1981 -91 1556 -91 
Q 1019 -91 701 211 
Q 384 513 384 1019 
Q 384 1609 779 1909 
Q 1175 2209 1959 2209 
L 2766 2209 
L 2766 2266 
Q 2766 2663 2505 2880 
Q 2244 3097 1772 3097 
Q 1472 3097 1187 3025 
Q 903 2953 641 2809 
L 641 3341 
Q 956 3463 1253 3523 
Q 1550 3584 1831 3584 
Q 2591 3584 2966 3190 
Q 3341 2797 3341 1997 
z
" id="DejaVuSans-61" transform="scale(0.015625)"/>
       <path d="M 603 3500 
L 1178 3500 
L 1178 0 
L 603 0 
L 603 3500 
z
M 603 4863 
L 1178 4863 
L 1178 4134 
L 603 4134 
L 603 4863 
z
" id="DejaVuSans-69" transform="scale(0.015625)"/>
       <path d="M 603 4863 
L 1178 4863 
L 1178 0 
L 603 0 
L 603 4863 
z
" id="DejaVuSans-6c" transform="scale(0.015625)"/>
       <path d="M 1172 4494 
L 1172 3500 
L 2356 3500 
L 2356 3053 
L 1172 3053 
L 1172 1153 
Q 1172 725 1289 603 
Q 1406 481 1766 481 
L 2356 481 
L 2356 0 
L 1766 0 
Q 1100 0 847 248 
Q 594 497 594 1153 
L 594 3053 
L 172 3053 
L 172 3500 
L 594 3500 
L 594 4494 
L 1172 4494 
z
" id="DejaVuSans-74" transform="scale(0.015625)"/>
       <path d="M 2059 -325 
Q 1816 -950 1584 -1140 
Q 1353 -1331 966 -1331 
L 506 -1331 
L 506 -850 
L 844 -850 
Q 1081 -850 1212 -737 
Q 1344 -625 1503 -206 
L 1606 56 
L 191 3500 
L 800 3500 
L 1894 763 
L 2988 3500 
L 3597 3500 
L 2059 -325 
z
" id="DejaVuSans-79" transform="scale(0.015625)"/>
      </defs>
      <use xlink:href="#DejaVuSans-45"/>
      <use x="63.183594" xlink:href="#DejaVuSans-64"/>
      <use x="126.660156" xlink:href="#DejaVuSans-67"/>
      <use x="190.136719" xlink:href="#DejaVuSans-65"/>
      <use x="251.660156" xlink:href="#DejaVuSans-20"/>
      <use x="283.447266" xlink:href="#DejaVuSans-70"/>
      <use x="346.923828" xlink:href="#DejaVuSans-72"/>
      <use x="385.787109" xlink:href="#DejaVuSans-6f"/>
      <use x="446.96875" xlink:href="#DejaVuSans-62"/>
      <use x="510.445312" xlink:href="#DejaVuSans-61"/>
      <use x="571.724609" xlink:href="#DejaVuSans-62"/>
      <use x="635.201172" xlink:href="#DejaVuSans-69"/>
      <use x="662.984375" xlink:href="#DejaVuSans-6c"/>
      <use x="690.767578" xlink:href="#DejaVuSans-69"/>
      <use x="718.550781" xlink:href="#DejaVuSans-74"/>
      <use x="757.759766" xlink:href="#DejaVuSans-79"/>
     </g>
    </g>
   </g>
   <g id="matplotlib.axis_2">
    <g id="ytick_1">
     <g id="line2d_11">
      <path clip-path="url(#p7b74871afc)" d="M 132.294688 981.568911 
L 1025.094687 981.568911 
" style="fill:none;stroke:#b0b0b0;stroke-linecap:square;stroke-width:0.8;"/>
     </g>
     <g id="line2d_12">
      <defs>
       <path d="M 0 0 
L -3.5 0 
" id="mb0b447dce7" style="stroke:#000000;stroke-width:0.8;"/>
      </defs>
      <g>
       <use style="stroke:#000000;stroke-width:0.8;" x="132.294688" xlink:href="#mb0b447dce7" y="981.568911"/>
      </g>
     </g>
     <g id="text_7">
      <!-- 0 -->
      <g transform="translate(106.207188 992.966567)scale(0.3 -0.3)">
       <use xlink:href="#DejaVuSans-30"/>
      </g>
     </g>
    </g>
    <g id="ytick_2">
     <g id="line2d_13">
      <path clip-path="url(#p7b74871afc)" d="M 132.294688 844.983216 
L 1025.094687 844.983216 
" style="fill:none;stroke:#b0b0b0;stroke-linecap:square;stroke-width:0.8;"/>
     </g>
     <g id="line2d_14">
      <g>
       <use style="stroke:#000000;stroke-width:0.8;" x="132.294688" xlink:href="#mb0b447dce7" y="844.983216"/>
      </g>
     </g>
     <g id="text_8">
      <!-- 250 -->
      <g transform="translate(68.032188 856.380872)scale(0.3 -0.3)">
       <defs>
        <path d="M 691 4666 
L 3169 4666 
L 3169 4134 
L 1269 4134 
L 1269 2991 
Q 1406 3038 1543 3061 
Q 1681 3084 1819 3084 
Q 2600 3084 3056 2656 
Q 3513 2228 3513 1497 
Q 3513 744 3044 326 
Q 2575 -91 1722 -91 
Q 1428 -91 1123 -41 
Q 819 9 494 109 
L 494 744 
Q 775 591 1075 516 
Q 1375 441 1709 441 
Q 2250 441 2565 725 
Q 2881 1009 2881 1497 
Q 2881 1984 2565 2268 
Q 2250 2553 1709 2553 
Q 1456 2553 1204 2497 
Q 953 2441 691 2322 
L 691 4666 
z
" id="DejaVuSans-35" transform="scale(0.015625)"/>
       </defs>
       <use xlink:href="#DejaVuSans-32"/>
       <use x="63.623047" xlink:href="#DejaVuSans-35"/>
       <use x="127.246094" xlink:href="#DejaVuSans-30"/>
      </g>
     </g>
    </g>
    <g id="ytick_3">
     <g id="line2d_15">
      <path clip-path="url(#p7b74871afc)" d="M 132.294688 708.397521 
L 1025.094687 708.397521 
" style="fill:none;stroke:#b0b0b0;stroke-linecap:square;stroke-width:0.8;"/>
     </g>
     <g id="line2d_16">
      <g>
       <use style="stroke:#000000;stroke-width:0.8;" x="132.294688" xlink:href="#mb0b447dce7" y="708.397521"/>
      </g>
     </g>
     <g id="text_9">
      <!-- 500 -->
      <g transform="translate(68.032188 719.795178)scale(0.3 -0.3)">
       <use xlink:href="#DejaVuSans-35"/>
       <use x="63.623047" xlink:href="#DejaVuSans-30"/>
       <use x="127.246094" xlink:href="#DejaVuSans-30"/>
      </g>
     </g>
    </g>
    <g id="ytick_4">
     <g id="line2d_17">
      <path clip-path="url(#p7b74871afc)" d="M 132.294688 571.811826 
L 1025.094687 571.811826 
" style="fill:none;stroke:#b0b0b0;stroke-linecap:square;stroke-width:0.8;"/>
     </g>
     <g id="line2d_18">
      <g>
       <use style="stroke:#000000;stroke-width:0.8;" x="132.294688" xlink:href="#mb0b447dce7" y="571.811826"/>
      </g>
     </g>
     <g id="text_10">
      <!-- 750 -->
      <g transform="translate(68.032188 583.209483)scale(0.3 -0.3)">
       <defs>
        <path d="M 525 4666 
L 3525 4666 
L 3525 4397 
L 1831 0 
L 1172 0 
L 2766 4134 
L 525 4134 
L 525 4666 
z
" id="DejaVuSans-37" transform="scale(0.015625)"/>
       </defs>
       <use xlink:href="#DejaVuSans-37"/>
       <use x="63.623047" xlink:href="#DejaVuSans-35"/>
       <use x="127.246094" xlink:href="#DejaVuSans-30"/>
      </g>
     </g>
    </g>
    <g id="ytick_5">
     <g id="line2d_19">
      <path clip-path="url(#p7b74871afc)" d="M 132.294688 435.226132 
L 1025.094687 435.226132 
" style="fill:none;stroke:#b0b0b0;stroke-linecap:square;stroke-width:0.8;"/>
     </g>
     <g id="line2d_20">
      <g>
       <use style="stroke:#000000;stroke-width:0.8;" x="132.294688" xlink:href="#mb0b447dce7" y="435.226132"/>
      </g>
     </g>
     <g id="text_11">
      <!-- 1000 -->
      <g transform="translate(48.944688 446.623788)scale(0.3 -0.3)">
       <use xlink:href="#DejaVuSans-31"/>
       <use x="63.623047" xlink:href="#DejaVuSans-30"/>
       <use x="127.246094" xlink:href="#DejaVuSans-30"/>
       <use x="190.869141" xlink:href="#DejaVuSans-30"/>
      </g>
     </g>
    </g>
    <g id="ytick_6">
     <g id="line2d_21">
      <path clip-path="url(#p7b74871afc)" d="M 132.294688 298.640437 
L 1025.094687 298.640437 
" style="fill:none;stroke:#b0b0b0;stroke-linecap:square;stroke-width:0.8;"/>
     </g>
     <g id="line2d_22">
      <g>
       <use style="stroke:#000000;stroke-width:0.8;" x="132.294688" xlink:href="#mb0b447dce7" y="298.640437"/>
      </g>
     </g>
     <g id="text_12">
      <!-- 1250 -->
      <g transform="translate(48.944688 310.038093)scale(0.3 -0.3)">
       <use xlink:href="#DejaVuSans-31"/>
       <use x="63.623047" xlink:href="#DejaVuSans-32"/>
       <use x="127.246094" xlink:href="#DejaVuSans-35"/>
       <use x="190.869141" xlink:href="#DejaVuSans-30"/>
      </g>
     </g>
    </g>
    <g id="ytick_7">
     <g id="line2d_23">
      <path clip-path="url(#p7b74871afc)" d="M 132.294688 162.054742 
L 1025.094687 162.054742 
" style="fill:none;stroke:#b0b0b0;stroke-linecap:square;stroke-width:0.8;"/>
     </g>
     <g id="line2d_24">
      <g>
       <use style="stroke:#000000;stroke-width:0.8;" x="132.294688" xlink:href="#mb0b447dce7" y="162.054742"/>
      </g>
     </g>
     <g id="text_13">
      <!-- 1500 -->
      <g transform="translate(48.944688 173.452398)scale(0.3 -0.3)">
       <use xlink:href="#DejaVuSans-31"/>
       <use x="63.623047" xlink:href="#DejaVuSans-35"/>
       <use x="127.246094" xlink:href="#DejaVuSans-30"/>
       <use x="190.869141" xlink:href="#DejaVuSans-30"/>
      </g>
     </g>
    </g>
    <g id="ytick_8">
     <g id="line2d_25">
      <path clip-path="url(#p7b74871afc)" d="M 132.294688 25.469047 
L 1025.094687 25.469047 
" style="fill:none;stroke:#b0b0b0;stroke-linecap:square;stroke-width:0.8;"/>
     </g>
     <g id="line2d_26">
      <g>
       <use style="stroke:#000000;stroke-width:0.8;" x="132.294688" xlink:href="#mb0b447dce7" y="25.469047"/>
      </g>
     </g>
     <g id="text_14">
      <!-- 1750 -->
      <g transform="translate(48.944688 36.866703)scale(0.3 -0.3)">
       <use xlink:href="#DejaVuSans-31"/>
       <use x="63.623047" xlink:href="#DejaVuSans-37"/>
       <use x="127.246094" xlink:href="#DejaVuSans-35"/>
       <use x="190.869141" xlink:href="#DejaVuSans-30"/>
      </g>
     </g>
    </g>
    <g id="text_15">
     <!-- Avg. number of pointer updates / size -->
     <g transform="translate(36.833906 873.549141)rotate(-90)scale(0.39 -0.39)">
      <defs>
       <path d="M 2188 4044 
L 1331 1722 
L 3047 1722 
L 2188 4044 
z
M 1831 4666 
L 2547 4666 
L 4325 0 
L 3669 0 
L 3244 1197 
L 1141 1197 
L 716 0 
L 50 0 
L 1831 4666 
z
" id="DejaVuSans-41" transform="scale(0.015625)"/>
       <path d="M 191 3500 
L 800 3500 
L 1894 563 
L 2988 3500 
L 3597 3500 
L 2284 0 
L 1503 0 
L 191 3500 
z
" id="DejaVuSans-76" transform="scale(0.015625)"/>
       <path d="M 3513 2113 
L 3513 0 
L 2938 0 
L 2938 2094 
Q 2938 2591 2744 2837 
Q 2550 3084 2163 3084 
Q 1697 3084 1428 2787 
Q 1159 2491 1159 1978 
L 1159 0 
L 581 0 
L 581 3500 
L 1159 3500 
L 1159 2956 
Q 1366 3272 1645 3428 
Q 1925 3584 2291 3584 
Q 2894 3584 3203 3211 
Q 3513 2838 3513 2113 
z
" id="DejaVuSans-6e" transform="scale(0.015625)"/>
       <path d="M 544 1381 
L 544 3500 
L 1119 3500 
L 1119 1403 
Q 1119 906 1312 657 
Q 1506 409 1894 409 
Q 2359 409 2629 706 
Q 2900 1003 2900 1516 
L 2900 3500 
L 3475 3500 
L 3475 0 
L 2900 0 
L 2900 538 
Q 2691 219 2414 64 
Q 2138 -91 1772 -91 
Q 1169 -91 856 284 
Q 544 659 544 1381 
z
M 1991 3584 
L 1991 3584 
z
" id="DejaVuSans-75" transform="scale(0.015625)"/>
       <path d="M 3328 2828 
Q 3544 3216 3844 3400 
Q 4144 3584 4550 3584 
Q 5097 3584 5394 3201 
Q 5691 2819 5691 2113 
L 5691 0 
L 5113 0 
L 5113 2094 
Q 5113 2597 4934 2840 
Q 4756 3084 4391 3084 
Q 3944 3084 3684 2787 
Q 3425 2491 3425 1978 
L 3425 0 
L 2847 0 
L 2847 2094 
Q 2847 2600 2669 2842 
Q 2491 3084 2119 3084 
Q 1678 3084 1418 2786 
Q 1159 2488 1159 1978 
L 1159 0 
L 581 0 
L 581 3500 
L 1159 3500 
L 1159 2956 
Q 1356 3278 1631 3431 
Q 1906 3584 2284 3584 
Q 2666 3584 2933 3390 
Q 3200 3197 3328 2828 
z
" id="DejaVuSans-6d" transform="scale(0.015625)"/>
       <path d="M 2375 4863 
L 2375 4384 
L 1825 4384 
Q 1516 4384 1395 4259 
Q 1275 4134 1275 3809 
L 1275 3500 
L 2222 3500 
L 2222 3053 
L 1275 3053 
L 1275 0 
L 697 0 
L 697 3053 
L 147 3053 
L 147 3500 
L 697 3500 
L 697 3744 
Q 697 4328 969 4595 
Q 1241 4863 1831 4863 
L 2375 4863 
z
" id="DejaVuSans-66" transform="scale(0.015625)"/>
       <path d="M 2834 3397 
L 2834 2853 
Q 2591 2978 2328 3040 
Q 2066 3103 1784 3103 
Q 1356 3103 1142 2972 
Q 928 2841 928 2578 
Q 928 2378 1081 2264 
Q 1234 2150 1697 2047 
L 1894 2003 
Q 2506 1872 2764 1633 
Q 3022 1394 3022 966 
Q 3022 478 2636 193 
Q 2250 -91 1575 -91 
Q 1294 -91 989 -36 
Q 684 19 347 128 
L 347 722 
Q 666 556 975 473 
Q 1284 391 1588 391 
Q 1994 391 2212 530 
Q 2431 669 2431 922 
Q 2431 1156 2273 1281 
Q 2116 1406 1581 1522 
L 1381 1569 
Q 847 1681 609 1914 
Q 372 2147 372 2553 
Q 372 3047 722 3315 
Q 1072 3584 1716 3584 
Q 2034 3584 2315 3537 
Q 2597 3491 2834 3397 
z
" id="DejaVuSans-73" transform="scale(0.015625)"/>
       <path d="M 1625 4666 
L 2156 4666 
L 531 -594 
L 0 -594 
L 1625 4666 
z
" id="DejaVuSans-2f" transform="scale(0.015625)"/>
       <path d="M 353 3500 
L 3084 3500 
L 3084 2975 
L 922 459 
L 3084 459 
L 3084 0 
L 275 0 
L 275 525 
L 2438 3041 
L 353 3041 
L 353 3500 
z
" id="DejaVuSans-7a" transform="scale(0.015625)"/>
      </defs>
      <use xlink:href="#DejaVuSans-41"/>
      <use x="62.533203" xlink:href="#DejaVuSans-76"/>
      <use x="121.712891" xlink:href="#DejaVuSans-67"/>
      <use x="185.189453" xlink:href="#DejaVuSans-2e"/>
      <use x="216.976562" xlink:href="#DejaVuSans-20"/>
      <use x="248.763672" xlink:href="#DejaVuSans-6e"/>
      <use x="312.142578" xlink:href="#DejaVuSans-75"/>
      <use x="375.521484" xlink:href="#DejaVuSans-6d"/>
      <use x="472.933594" xlink:href="#DejaVuSans-62"/>
      <use x="536.410156" xlink:href="#DejaVuSans-65"/>
      <use x="597.933594" xlink:href="#DejaVuSans-72"/>
      <use x="639.046875" xlink:href="#DejaVuSans-20"/>
      <use x="670.833984" xlink:href="#DejaVuSans-6f"/>
      <use x="732.015625" xlink:href="#DejaVuSans-66"/>
      <use x="767.220703" xlink:href="#DejaVuSans-20"/>
      <use x="799.007812" xlink:href="#DejaVuSans-70"/>
      <use x="862.484375" xlink:href="#DejaVuSans-6f"/>
      <use x="923.666016" xlink:href="#DejaVuSans-69"/>
      <use x="951.449219" xlink:href="#DejaVuSans-6e"/>
      <use x="1014.828125" xlink:href="#DejaVuSans-74"/>
      <use x="1054.037109" xlink:href="#DejaVuSans-65"/>
      <use x="1115.560547" xlink:href="#DejaVuSans-72"/>
      <use x="1156.673828" xlink:href="#DejaVuSans-20"/>
      <use x="1188.460938" xlink:href="#DejaVuSans-75"/>
      <use x="1251.839844" xlink:href="#DejaVuSans-70"/>
      <use x="1315.316406" xlink:href="#DejaVuSans-64"/>
      <use x="1378.792969" xlink:href="#DejaVuSans-61"/>
      <use x="1440.072266" xlink:href="#DejaVuSans-74"/>
      <use x="1479.28125" xlink:href="#DejaVuSans-65"/>
      <use x="1540.804688" xlink:href="#DejaVuSans-73"/>
      <use x="1592.904297" xlink:href="#DejaVuSans-20"/>
      <use x="1624.691406" xlink:href="#DejaVuSans-2f"/>
      <use x="1658.382812" xlink:href="#DejaVuSans-20"/>
      <use x="1690.169922" xlink:href="#DejaVuSans-73"/>
      <use x="1742.269531" xlink:href="#DejaVuSans-69"/>
      <use x="1770.052734" xlink:href="#DejaVuSans-7a"/>
      <use x="1822.542969" xlink:href="#DejaVuSans-65"/>
     </g>
    </g>
   </g>
   <g id="line2d_27">
    <path clip-path="url(#p7b74871afc)" d="M 172.876506 959.078492 
L 215.594209 932.720949 
L 258.311912 904.647672 
L 301.029616 876.234788 
L 343.747319 846.469924 
L 386.465022 816.134897 
L 429.182726 787.321653 
L 471.900429 755.018699 
L 514.618132 723.500403 
L 557.335836 693.664186 
L 600.053539 658.483754 
L 642.771243 626.27947 
L 685.488946 593.061938 
L 728.206649 562.41331 
L 770.924353 532.010536 
L 813.642056 500.123568 
L 856.359759 463.126328 
L 899.077463 432.19382 
L 941.795166 396.911112 
L 984.512869 362.138908 
" style="fill:none;stroke:#fe0002;stroke-dasharray:5.55,2.4;stroke-dashoffset:0;stroke-width:1.5;"/>
    <defs>
     <path d="M 0 4.5 
C 1.193414 4.5 2.338109 4.025852 3.181981 3.181981 
C 4.025852 2.338109 4.5 1.193414 4.5 0 
C 4.5 -1.193414 4.025852 -2.338109 3.181981 -3.181981 
C 2.338109 -4.025852 1.193414 -4.5 0 -4.5 
C -1.193414 -4.5 -2.338109 -4.025852 -3.181981 -3.181981 
C -4.025852 -2.338109 -4.5 -1.193414 -4.5 0 
C -4.5 1.193414 -4.025852 2.338109 -3.181981 3.181981 
C -2.338109 4.025852 -1.193414 4.5 0 4.5 
z
" id="mefe6bf5c9e" style="stroke:#000000;"/>
    </defs>
    <g clip-path="url(#p7b74871afc)">
     <use style="fill:#fe0002;stroke:#000000;" x="172.876506" xlink:href="#mefe6bf5c9e" y="959.078492"/>
     <use style="fill:#fe0002;stroke:#000000;" x="215.594209" xlink:href="#mefe6bf5c9e" y="932.720949"/>
     <use style="fill:#fe0002;stroke:#000000;" x="258.311912" xlink:href="#mefe6bf5c9e" y="904.647672"/>
     <use style="fill:#fe0002;stroke:#000000;" x="301.029616" xlink:href="#mefe6bf5c9e" y="876.234788"/>
     <use style="fill:#fe0002;stroke:#000000;" x="343.747319" xlink:href="#mefe6bf5c9e" y="846.469924"/>
     <use style="fill:#fe0002;stroke:#000000;" x="386.465022" xlink:href="#mefe6bf5c9e" y="816.134897"/>
     <use style="fill:#fe0002;stroke:#000000;" x="429.182726" xlink:href="#mefe6bf5c9e" y="787.321653"/>
     <use style="fill:#fe0002;stroke:#000000;" x="471.900429" xlink:href="#mefe6bf5c9e" y="755.018699"/>
     <use style="fill:#fe0002;stroke:#000000;" x="514.618132" xlink:href="#mefe6bf5c9e" y="723.500403"/>
     <use style="fill:#fe0002;stroke:#000000;" x="557.335836" xlink:href="#mefe6bf5c9e" y="693.664186"/>
     <use style="fill:#fe0002;stroke:#000000;" x="600.053539" xlink:href="#mefe6bf5c9e" y="658.483754"/>
     <use style="fill:#fe0002;stroke:#000000;" x="642.771243" xlink:href="#mefe6bf5c9e" y="626.27947"/>
     <use style="fill:#fe0002;stroke:#000000;" x="685.488946" xlink:href="#mefe6bf5c9e" y="593.061938"/>
     <use style="fill:#fe0002;stroke:#000000;" x="728.206649" xlink:href="#mefe6bf5c9e" y="562.41331"/>
     <use style="fill:#fe0002;stroke:#000000;" x="770.924353" xlink:href="#mefe6bf5c9e" y="532.010536"/>
     <use style="fill:#fe0002;stroke:#000000;" x="813.642056" xlink:href="#mefe6bf5c9e" y="500.123568"/>
     <use style="fill:#fe0002;stroke:#000000;" x="856.359759" xlink:href="#mefe6bf5c9e" y="463.126328"/>
     <use style="fill:#fe0002;stroke:#000000;" x="899.077463" xlink:href="#mefe6bf5c9e" y="432.19382"/>
     <use style="fill:#fe0002;stroke:#000000;" x="941.795166" xlink:href="#mefe6bf5c9e" y="396.911112"/>
     <use style="fill:#fe0002;stroke:#000000;" x="984.512869" xlink:href="#mefe6bf5c9e" y="362.138908"/>
    </g>
   </g>
   <g id="line2d_28">
    <path clip-path="url(#p7b74871afc)" d="M 172.876506 950.149612 
L 215.594209 913.261422 
L 258.311912 874.043516 
L 301.029616 833.396816 
L 343.747319 791.465554 
L 386.465022 748.919219 
L 429.182726 705.391106 
L 471.900429 661.73799 
L 514.618132 616.678916 
L 557.335836 572.066094 
L 600.053539 527.074766 
L 642.771243 481.06735 
L 685.488946 435.809079 
L 728.206649 388.692259 
L 770.924353 342.800559 
L 813.642056 295.525518 
L 856.359759 248.555337 
L 899.077463 201.701854 
L 941.795166 154.585362 
L 984.512869 106.525008 
" style="fill:none;stroke:#53fca1;stroke-dasharray:5.55,2.4;stroke-dashoffset:0;stroke-width:1.5;"/>
    <defs>
     <path d="M 0 -4.5 
L -4.5 4.5 
L 4.5 4.5 
z
" id="m0886634530" style="stroke:#000000;stroke-linejoin:miter;"/>
    </defs>
    <g clip-path="url(#p7b74871afc)">
     <use style="fill:#53fca1;stroke:#000000;stroke-linejoin:miter;" x="172.876506" xlink:href="#m0886634530" y="950.149612"/>
     <use style="fill:#53fca1;stroke:#000000;stroke-linejoin:miter;" x="215.594209" xlink:href="#m0886634530" y="913.261422"/>
     <use style="fill:#53fca1;stroke:#000000;stroke-linejoin:miter;" x="258.311912" xlink:href="#m0886634530" y="874.043516"/>
     <use style="fill:#53fca1;stroke:#000000;stroke-linejoin:miter;" x="301.029616" xlink:href="#m0886634530" y="833.396816"/>
     <use style="fill:#53fca1;stroke:#000000;stroke-linejoin:miter;" x="343.747319" xlink:href="#m0886634530" y="791.465554"/>
     <use style="fill:#53fca1;stroke:#000000;stroke-linejoin:miter;" x="386.465022" xlink:href="#m0886634530" y="748.919219"/>
     <use style="fill:#53fca1;stroke:#000000;stroke-linejoin:miter;" x="429.182726" xlink:href="#m0886634530" y="705.391106"/>
     <use style="fill:#53fca1;stroke:#000000;stroke-linejoin:miter;" x="471.900429" xlink:href="#m0886634530" y="661.73799"/>
     <use style="fill:#53fca1;stroke:#000000;stroke-linejoin:miter;" x="514.618132" xlink:href="#m0886634530" y="616.678916"/>
     <use style="fill:#53fca1;stroke:#000000;stroke-linejoin:miter;" x="557.335836" xlink:href="#m0886634530" y="572.066094"/>
     <use style="fill:#53fca1;stroke:#000000;stroke-linejoin:miter;" x="600.053539" xlink:href="#m0886634530" y="527.074766"/>
     <use style="fill:#53fca1;stroke:#000000;stroke-linejoin:miter;" x="642.771243" xlink:href="#m0886634530" y="481.06735"/>
     <use style="fill:#53fca1;stroke:#000000;stroke-linejoin:miter;" x="685.488946" xlink:href="#m0886634530" y="435.809079"/>
     <use style="fill:#53fca1;stroke:#000000;stroke-linejoin:miter;" x="728.206649" xlink:href="#m0886634530" y="388.692259"/>
     <use style="fill:#53fca1;stroke:#000000;stroke-linejoin:miter;" x="770.924353" xlink:href="#m0886634530" y="342.800559"/>
     <use style="fill:#53fca1;stroke:#000000;stroke-linejoin:miter;" x="813.642056" xlink:href="#m0886634530" y="295.525518"/>
     <use style="fill:#53fca1;stroke:#000000;stroke-linejoin:miter;" x="856.359759" xlink:href="#m0886634530" y="248.555337"/>
     <use style="fill:#53fca1;stroke:#000000;stroke-linejoin:miter;" x="899.077463" xlink:href="#m0886634530" y="201.701854"/>
     <use style="fill:#53fca1;stroke:#000000;stroke-linejoin:miter;" x="941.795166" xlink:href="#m0886634530" y="154.585362"/>
     <use style="fill:#53fca1;stroke:#000000;stroke-linejoin:miter;" x="984.512869" xlink:href="#m0886634530" y="106.525008"/>
    </g>
   </g>
   <g id="line2d_29">
    <path clip-path="url(#p7b74871afc)" d="M 172.876506 950.165347 
L 215.594209 912.369244 
L 258.311912 872.026091 
L 301.029616 829.684635 
L 343.747319 786.172476 
L 386.465022 741.726179 
L 429.182726 695.937628 
L 471.900429 649.648845 
L 514.618132 602.741165 
L 557.335836 554.648687 
L 600.053539 506.944657 
L 642.771243 458.47105 
L 685.488946 409.166783 
L 728.206649 359.627479 
L 770.924353 309.894661 
L 813.642056 259.636152 
L 856.359759 208.526003 
L 899.077463 158.043384 
L 941.795166 107.502197 
L 984.512869 55.251175 
" style="fill:none;stroke:#0652ff;stroke-dasharray:5.55,2.4;stroke-dashoffset:0;stroke-width:1.5;"/>
    <defs>
     <path d="M 0 -4.5 
L -4.279754 -1.390576 
L -2.645034 3.640576 
L 2.645034 3.640576 
L 4.279754 -1.390576 
z
" id="m97bba9c4c7" style="stroke:#000000;stroke-linejoin:miter;"/>
    </defs>
    <g clip-path="url(#p7b74871afc)">
     <use style="fill:#0652ff;stroke:#000000;stroke-linejoin:miter;" x="172.876506" xlink:href="#m97bba9c4c7" y="950.165347"/>
     <use style="fill:#0652ff;stroke:#000000;stroke-linejoin:miter;" x="215.594209" xlink:href="#m97bba9c4c7" y="912.369244"/>
     <use style="fill:#0652ff;stroke:#000000;stroke-linejoin:miter;" x="258.311912" xlink:href="#m97bba9c4c7" y="872.026091"/>
     <use style="fill:#0652ff;stroke:#000000;stroke-linejoin:miter;" x="301.029616" xlink:href="#m97bba9c4c7" y="829.684635"/>
     <use style="fill:#0652ff;stroke:#000000;stroke-linejoin:miter;" x="343.747319" xlink:href="#m97bba9c4c7" y="786.172476"/>
     <use style="fill:#0652ff;stroke:#000000;stroke-linejoin:miter;" x="386.465022" xlink:href="#m97bba9c4c7" y="741.726179"/>
     <use style="fill:#0652ff;stroke:#000000;stroke-linejoin:miter;" x="429.182726" xlink:href="#m97bba9c4c7" y="695.937628"/>
     <use style="fill:#0652ff;stroke:#000000;stroke-linejoin:miter;" x="471.900429" xlink:href="#m97bba9c4c7" y="649.648845"/>
     <use style="fill:#0652ff;stroke:#000000;stroke-linejoin:miter;" x="514.618132" xlink:href="#m97bba9c4c7" y="602.741165"/>
     <use style="fill:#0652ff;stroke:#000000;stroke-linejoin:miter;" x="557.335836" xlink:href="#m97bba9c4c7" y="554.648687"/>
     <use style="fill:#0652ff;stroke:#000000;stroke-linejoin:miter;" x="600.053539" xlink:href="#m97bba9c4c7" y="506.944657"/>
     <use style="fill:#0652ff;stroke:#000000;stroke-linejoin:miter;" x="642.771243" xlink:href="#m97bba9c4c7" y="458.47105"/>
     <use style="fill:#0652ff;stroke:#000000;stroke-linejoin:miter;" x="685.488946" xlink:href="#m97bba9c4c7" y="409.166783"/>
     <use style="fill:#0652ff;stroke:#000000;stroke-linejoin:miter;" x="728.206649" xlink:href="#m97bba9c4c7" y="359.627479"/>
     <use style="fill:#0652ff;stroke:#000000;stroke-linejoin:miter;" x="770.924353" xlink:href="#m97bba9c4c7" y="309.894661"/>
     <use style="fill:#0652ff;stroke:#000000;stroke-linejoin:miter;" x="813.642056" xlink:href="#m97bba9c4c7" y="259.636152"/>
     <use style="fill:#0652ff;stroke:#000000;stroke-linejoin:miter;" x="856.359759" xlink:href="#m97bba9c4c7" y="208.526003"/>
     <use style="fill:#0652ff;stroke:#000000;stroke-linejoin:miter;" x="899.077463" xlink:href="#m97bba9c4c7" y="158.043384"/>
     <use style="fill:#0652ff;stroke:#000000;stroke-linejoin:miter;" x="941.795166" xlink:href="#m97bba9c4c7" y="107.502197"/>
     <use style="fill:#0652ff;stroke:#000000;stroke-linejoin:miter;" x="984.512869" xlink:href="#m97bba9c4c7" y="55.251175"/>
    </g>
   </g>
   <g id="line2d_30">
    <path clip-path="url(#p7b74871afc)" d="M 172.876506 959.433287 
L 215.594209 931.287346 
L 258.311912 900.52639 
L 301.029616 868.335764 
L 343.747319 834.497696 
L 386.465022 800.393778 
L 429.182726 765.086157 
L 471.900429 728.377823 
L 514.618132 691.771655 
L 557.335836 655.025404 
L 600.053539 616.292324 
L 642.771243 578.364334 
L 685.488946 538.66368 
L 728.206649 501.038036 
L 770.924353 461.406768 
L 813.642056 422.578624 
L 856.359759 381.471356 
L 899.077463 341.490101 
L 941.795166 300.166263 
L 984.512869 258.938363 
" style="fill:none;stroke:#ae7181;stroke-dasharray:5.55,2.4;stroke-dashoffset:0;stroke-width:1.5;"/>
    <defs>
     <path d="M -4.5 4.5 
L 4.5 4.5 
L 4.5 -4.5 
L -4.5 -4.5 
z
" id="m7188744afc" style="stroke:#000000;stroke-linejoin:miter;"/>
    </defs>
    <g clip-path="url(#p7b74871afc)">
     <use style="fill:#ae7181;stroke:#000000;stroke-linejoin:miter;" x="172.876506" xlink:href="#m7188744afc" y="959.433287"/>
     <use style="fill:#ae7181;stroke:#000000;stroke-linejoin:miter;" x="215.594209" xlink:href="#m7188744afc" y="931.287346"/>
     <use style="fill:#ae7181;stroke:#000000;stroke-linejoin:miter;" x="258.311912" xlink:href="#m7188744afc" y="900.52639"/>
     <use style="fill:#ae7181;stroke:#000000;stroke-linejoin:miter;" x="301.029616" xlink:href="#m7188744afc" y="868.335764"/>
     <use style="fill:#ae7181;stroke:#000000;stroke-linejoin:miter;" x="343.747319" xlink:href="#m7188744afc" y="834.497696"/>
     <use style="fill:#ae7181;stroke:#000000;stroke-linejoin:miter;" x="386.465022" xlink:href="#m7188744afc" y="800.393778"/>
     <use style="fill:#ae7181;stroke:#000000;stroke-linejoin:miter;" x="429.182726" xlink:href="#m7188744afc" y="765.086157"/>
     <use style="fill:#ae7181;stroke:#000000;stroke-linejoin:miter;" x="471.900429" xlink:href="#m7188744afc" y="728.377823"/>
     <use style="fill:#ae7181;stroke:#000000;stroke-linejoin:miter;" x="514.618132" xlink:href="#m7188744afc" y="691.771655"/>
     <use style="fill:#ae7181;stroke:#000000;stroke-linejoin:miter;" x="557.335836" xlink:href="#m7188744afc" y="655.025404"/>
     <use style="fill:#ae7181;stroke:#000000;stroke-linejoin:miter;" x="600.053539" xlink:href="#m7188744afc" y="616.292324"/>
     <use style="fill:#ae7181;stroke:#000000;stroke-linejoin:miter;" x="642.771243" xlink:href="#m7188744afc" y="578.364334"/>
     <use style="fill:#ae7181;stroke:#000000;stroke-linejoin:miter;" x="685.488946" xlink:href="#m7188744afc" y="538.66368"/>
     <use style="fill:#ae7181;stroke:#000000;stroke-linejoin:miter;" x="728.206649" xlink:href="#m7188744afc" y="501.038036"/>
     <use style="fill:#ae7181;stroke:#000000;stroke-linejoin:miter;" x="770.924353" xlink:href="#m7188744afc" y="461.406768"/>
     <use style="fill:#ae7181;stroke:#000000;stroke-linejoin:miter;" x="813.642056" xlink:href="#m7188744afc" y="422.578624"/>
     <use style="fill:#ae7181;stroke:#000000;stroke-linejoin:miter;" x="856.359759" xlink:href="#m7188744afc" y="381.471356"/>
     <use style="fill:#ae7181;stroke:#000000;stroke-linejoin:miter;" x="899.077463" xlink:href="#m7188744afc" y="341.490101"/>
     <use style="fill:#ae7181;stroke:#000000;stroke-linejoin:miter;" x="941.795166" xlink:href="#m7188744afc" y="300.166263"/>
     <use style="fill:#ae7181;stroke:#000000;stroke-linejoin:miter;" x="984.512869" xlink:href="#m7188744afc" y="258.938363"/>
    </g>
   </g>
   <g id="patch_3">
    <path d="M 132.294688 1005.12 
L 132.294688 7.2 
" style="fill:none;stroke:#000000;stroke-linecap:square;stroke-linejoin:miter;stroke-width:0.8;"/>
   </g>
   <g id="patch_4">
    <path d="M 1025.094687 1005.12 
L 1025.094687 7.2 
" style="fill:none;stroke:#000000;stroke-linecap:square;stroke-linejoin:miter;stroke-width:0.8;"/>
   </g>
   <g id="patch_5">
    <path d="M 132.294688 1005.12 
L 1025.094687 1005.12 
" style="fill:none;stroke:#000000;stroke-linecap:square;stroke-linejoin:miter;stroke-width:0.8;"/>
   </g>
   <g id="patch_6">
    <path d="M 132.294688 7.2 
L 1025.094687 7.2 
" style="fill:none;stroke:#000000;stroke-linecap:square;stroke-linejoin:miter;stroke-width:0.8;"/>
   </g>
   <g id="legend_1">
    <g id="patch_7">
     <path d="M 153.294688 207.3375 
L 677.319687 207.3375 
Q 683.319687 207.3375 683.319687 201.3375 
L 683.319687 28.2 
Q 683.319687 22.2 677.319687 22.2 
L 153.294688 22.2 
Q 147.294688 22.2 147.294688 28.2 
L 147.294688 201.3375 
Q 147.294688 207.3375 153.294688 207.3375 
z
" style="fill:#ffffff;opacity:0.8;stroke:#cccccc;stroke-linejoin:miter;"/>
    </g>
    <g id="line2d_31">
     <path d="M 159.294688 46.495312 
L 219.294688 46.495312 
" style="fill:none;stroke:#fe0002;stroke-dasharray:5.55,2.4;stroke-dashoffset:0;stroke-width:1.5;"/>
    </g>
    <g id="line2d_32">
     <g>
      <use style="fill:#fe0002;stroke:#000000;" x="189.294688" xlink:href="#mefe6bf5c9e" y="46.495312"/>
     </g>
    </g>
    <g id="text_16">
     <!-- Pairing pointer updates -->
     <g transform="translate(243.294688 56.995312)scale(0.3 -0.3)">
      <defs>
       <path d="M 1259 4147 
L 1259 2394 
L 2053 2394 
Q 2494 2394 2734 2622 
Q 2975 2850 2975 3272 
Q 2975 3691 2734 3919 
Q 2494 4147 2053 4147 
L 1259 4147 
z
M 628 4666 
L 2053 4666 
Q 2838 4666 3239 4311 
Q 3641 3956 3641 3272 
Q 3641 2581 3239 2228 
Q 2838 1875 2053 1875 
L 1259 1875 
L 1259 0 
L 628 0 
L 628 4666 
z
" id="DejaVuSans-50" transform="scale(0.015625)"/>
      </defs>
      <use xlink:href="#DejaVuSans-50"/>
      <use x="55.802734" xlink:href="#DejaVuSans-61"/>
      <use x="117.082031" xlink:href="#DejaVuSans-69"/>
      <use x="144.865234" xlink:href="#DejaVuSans-72"/>
      <use x="185.978516" xlink:href="#DejaVuSans-69"/>
      <use x="213.761719" xlink:href="#DejaVuSans-6e"/>
      <use x="277.140625" xlink:href="#DejaVuSans-67"/>
      <use x="340.617188" xlink:href="#DejaVuSans-20"/>
      <use x="372.404297" xlink:href="#DejaVuSans-70"/>
      <use x="435.880859" xlink:href="#DejaVuSans-6f"/>
      <use x="497.0625" xlink:href="#DejaVuSans-69"/>
      <use x="524.845703" xlink:href="#DejaVuSans-6e"/>
      <use x="588.224609" xlink:href="#DejaVuSans-74"/>
      <use x="627.433594" xlink:href="#DejaVuSans-65"/>
      <use x="688.957031" xlink:href="#DejaVuSans-72"/>
      <use x="730.070312" xlink:href="#DejaVuSans-20"/>
      <use x="761.857422" xlink:href="#DejaVuSans-75"/>
      <use x="825.236328" xlink:href="#DejaVuSans-70"/>
      <use x="888.712891" xlink:href="#DejaVuSans-64"/>
      <use x="952.189453" xlink:href="#DejaVuSans-61"/>
      <use x="1013.46875" xlink:href="#DejaVuSans-74"/>
      <use x="1052.677734" xlink:href="#DejaVuSans-65"/>
      <use x="1114.201172" xlink:href="#DejaVuSans-73"/>
     </g>
    </g>
    <g id="line2d_33">
     <path d="M 159.294688 90.529687 
L 219.294688 90.529687 
" style="fill:none;stroke:#53fca1;stroke-dasharray:5.55,2.4;stroke-dashoffset:0;stroke-width:1.5;"/>
    </g>
    <g id="line2d_34">
     <g>
      <use style="fill:#53fca1;stroke:#000000;stroke-linejoin:miter;" x="189.294688" xlink:href="#m0886634530" y="90.529687"/>
     </g>
    </g>
    <g id="text_17">
     <!-- Smooth pointer updates -->
     <g transform="translate(243.294688 101.029687)scale(0.3 -0.3)">
      <defs>
       <path d="M 3425 4513 
L 3425 3897 
Q 3066 4069 2747 4153 
Q 2428 4238 2131 4238 
Q 1616 4238 1336 4038 
Q 1056 3838 1056 3469 
Q 1056 3159 1242 3001 
Q 1428 2844 1947 2747 
L 2328 2669 
Q 3034 2534 3370 2195 
Q 3706 1856 3706 1288 
Q 3706 609 3251 259 
Q 2797 -91 1919 -91 
Q 1588 -91 1214 -16 
Q 841 59 441 206 
L 441 856 
Q 825 641 1194 531 
Q 1563 422 1919 422 
Q 2459 422 2753 634 
Q 3047 847 3047 1241 
Q 3047 1584 2836 1778 
Q 2625 1972 2144 2069 
L 1759 2144 
Q 1053 2284 737 2584 
Q 422 2884 422 3419 
Q 422 4038 858 4394 
Q 1294 4750 2059 4750 
Q 2388 4750 2728 4690 
Q 3069 4631 3425 4513 
z
" id="DejaVuSans-53" transform="scale(0.015625)"/>
       <path d="M 3513 2113 
L 3513 0 
L 2938 0 
L 2938 2094 
Q 2938 2591 2744 2837 
Q 2550 3084 2163 3084 
Q 1697 3084 1428 2787 
Q 1159 2491 1159 1978 
L 1159 0 
L 581 0 
L 581 4863 
L 1159 4863 
L 1159 2956 
Q 1366 3272 1645 3428 
Q 1925 3584 2291 3584 
Q 2894 3584 3203 3211 
Q 3513 2838 3513 2113 
z
" id="DejaVuSans-68" transform="scale(0.015625)"/>
      </defs>
      <use xlink:href="#DejaVuSans-53"/>
      <use x="63.476562" xlink:href="#DejaVuSans-6d"/>
      <use x="160.888672" xlink:href="#DejaVuSans-6f"/>
      <use x="222.070312" xlink:href="#DejaVuSans-6f"/>
      <use x="283.251953" xlink:href="#DejaVuSans-74"/>
      <use x="322.460938" xlink:href="#DejaVuSans-68"/>
      <use x="385.839844" xlink:href="#DejaVuSans-20"/>
      <use x="417.626953" xlink:href="#DejaVuSans-70"/>
      <use x="481.103516" xlink:href="#DejaVuSans-6f"/>
      <use x="542.285156" xlink:href="#DejaVuSans-69"/>
      <use x="570.068359" xlink:href="#DejaVuSans-6e"/>
      <use x="633.447266" xlink:href="#DejaVuSans-74"/>
      <use x="672.65625" xlink:href="#DejaVuSans-65"/>
      <use x="734.179688" xlink:href="#DejaVuSans-72"/>
      <use x="775.292969" xlink:href="#DejaVuSans-20"/>
      <use x="807.080078" xlink:href="#DejaVuSans-75"/>
      <use x="870.458984" xlink:href="#DejaVuSans-70"/>
      <use x="933.935547" xlink:href="#DejaVuSans-64"/>
      <use x="997.412109" xlink:href="#DejaVuSans-61"/>
      <use x="1058.691406" xlink:href="#DejaVuSans-74"/>
      <use x="1097.900391" xlink:href="#DejaVuSans-65"/>
      <use x="1159.423828" xlink:href="#DejaVuSans-73"/>
     </g>
    </g>
    <g id="line2d_35">
     <path d="M 159.294688 134.564062 
L 219.294688 134.564062 
" style="fill:none;stroke:#0652ff;stroke-dasharray:5.55,2.4;stroke-dashoffset:0;stroke-width:1.5;"/>
    </g>
    <g id="line2d_36">
     <g>
      <use style="fill:#0652ff;stroke:#000000;stroke-linejoin:miter;" x="189.294688" xlink:href="#m97bba9c4c7" y="134.564062"/>
     </g>
    </g>
    <g id="text_18">
     <!-- Slim pointer updates -->
     <g transform="translate(243.294688 145.064062)scale(0.3 -0.3)">
      <use xlink:href="#DejaVuSans-53"/>
      <use x="63.476562" xlink:href="#DejaVuSans-6c"/>
      <use x="91.259766" xlink:href="#DejaVuSans-69"/>
      <use x="119.042969" xlink:href="#DejaVuSans-6d"/>
      <use x="216.455078" xlink:href="#DejaVuSans-20"/>
      <use x="248.242188" xlink:href="#DejaVuSans-70"/>
      <use x="311.71875" xlink:href="#DejaVuSans-6f"/>
      <use x="372.900391" xlink:href="#DejaVuSans-69"/>
      <use x="400.683594" xlink:href="#DejaVuSans-6e"/>
      <use x="464.0625" xlink:href="#DejaVuSans-74"/>
      <use x="503.271484" xlink:href="#DejaVuSans-65"/>
      <use x="564.794922" xlink:href="#DejaVuSans-72"/>
      <use x="605.908203" xlink:href="#DejaVuSans-20"/>
      <use x="637.695312" xlink:href="#DejaVuSans-75"/>
      <use x="701.074219" xlink:href="#DejaVuSans-70"/>
      <use x="764.550781" xlink:href="#DejaVuSans-64"/>
      <use x="828.027344" xlink:href="#DejaVuSans-61"/>
      <use x="889.306641" xlink:href="#DejaVuSans-74"/>
      <use x="928.515625" xlink:href="#DejaVuSans-65"/>
      <use x="990.039062" xlink:href="#DejaVuSans-73"/>
     </g>
    </g>
    <g id="line2d_37">
     <path d="M 159.294688 178.598437 
L 219.294688 178.598437 
" style="fill:none;stroke:#ae7181;stroke-dasharray:5.55,2.4;stroke-dashoffset:0;stroke-width:1.5;"/>
    </g>
    <g id="line2d_38">
     <g>
      <use style="fill:#ae7181;stroke:#000000;stroke-linejoin:miter;" x="189.294688" xlink:href="#m7188744afc" y="178.598437"/>
     </g>
    </g>
    <g id="text_19">
     <!-- Pairing Lazy pointer updates -->
     <g transform="translate(243.294688 189.098437)scale(0.3 -0.3)">
      <defs>
       <path d="M 628 4666 
L 1259 4666 
L 1259 531 
L 3531 531 
L 3531 0 
L 628 0 
L 628 4666 
z
" id="DejaVuSans-4c" transform="scale(0.015625)"/>
      </defs>
      <use xlink:href="#DejaVuSans-50"/>
      <use x="55.802734" xlink:href="#DejaVuSans-61"/>
      <use x="117.082031" xlink:href="#DejaVuSans-69"/>
      <use x="144.865234" xlink:href="#DejaVuSans-72"/>
      <use x="185.978516" xlink:href="#DejaVuSans-69"/>
      <use x="213.761719" xlink:href="#DejaVuSans-6e"/>
      <use x="277.140625" xlink:href="#DejaVuSans-67"/>
      <use x="340.617188" xlink:href="#DejaVuSans-20"/>
      <use x="372.404297" xlink:href="#DejaVuSans-4c"/>
      <use x="428.117188" xlink:href="#DejaVuSans-61"/>
      <use x="489.396484" xlink:href="#DejaVuSans-7a"/>
      <use x="541.886719" xlink:href="#DejaVuSans-79"/>
      <use x="601.066406" xlink:href="#DejaVuSans-20"/>
      <use x="632.853516" xlink:href="#DejaVuSans-70"/>
      <use x="696.330078" xlink:href="#DejaVuSans-6f"/>
      <use x="757.511719" xlink:href="#DejaVuSans-69"/>
      <use x="785.294922" xlink:href="#DejaVuSans-6e"/>
      <use x="848.673828" xlink:href="#DejaVuSans-74"/>
      <use x="887.882812" xlink:href="#DejaVuSans-65"/>
      <use x="949.40625" xlink:href="#DejaVuSans-72"/>
      <use x="990.519531" xlink:href="#DejaVuSans-20"/>
      <use x="1022.306641" xlink:href="#DejaVuSans-75"/>
      <use x="1085.685547" xlink:href="#DejaVuSans-70"/>
      <use x="1149.162109" xlink:href="#DejaVuSans-64"/>
      <use x="1212.638672" xlink:href="#DejaVuSans-61"/>
      <use x="1273.917969" xlink:href="#DejaVuSans-74"/>
      <use x="1313.126953" xlink:href="#DejaVuSans-65"/>
      <use x="1374.650391" xlink:href="#DejaVuSans-73"/>
     </g>
    </g>
   </g>
  </g>
 </g>
 <defs>
  <clipPath id="p7b74871afc">
   <rect height="997.92" width="892.8" x="132.294688" y="7.2"/>
  </clipPath>
 </defs>
</svg>
