<?xml version="1.0" encoding="utf-8" standalone="no"?>
<!DOCTYPE svg PUBLIC "-//W3C//DTD SVG 1.1//EN"
  "http://www.w3.org/Graphics/SVG/1.1/DTD/svg11.dtd">
<svg height="1090.099062pt" version="1.1" viewBox="0 0 1032.294688 1090.099062" width="1032.294688pt" xmlns="http://www.w3.org/2000/svg" xmlns:xlink="http://www.w3.org/1999/xlink">
 <metadata>
  <rdf:RDF xmlns:cc="http://creativecommons.org/ns#" xmlns:dc="http://purl.org/dc/elements/1.1/" xmlns:rdf="http://www.w3.org/1999/02/22-rdf-syntax-ns#">
   <cc:Work>
    <dc:type rdf:resource="http://purl.org/dc/dcmitype/StillImage"/>
    <dc:date>2021-07-04T14:01:58.644408</dc:date>
    <dc:format>image/svg+xml</dc:format>
    <dc:creator>
     <cc:Agent>
      <dc:title>Matplotlib v3.4.2, https://matplotlib.org/</dc:title>
     </cc:Agent>
    </dc:creator>
   </cc:Work>
  </rdf:RDF>
 </metadata>
 <defs>
  <style type="text/css">*{stroke-linecap:butt;stroke-linejoin:round;}</style>
 </defs>
 <g id="figure_1">
  <g id="patch_1">
   <path d="M 0 1090.099062 
L 1032.294688 1090.099062 
L 1032.294688 0 
L 0 0 
z
" style="fill:#ffffff;"/>
  </g>
  <g id="axes_1">
   <g id="patch_2">
    <path d="M 132.294688 1005.12 
L 1025.094687 1005.12 
L 1025.094687 7.2 
L 132.294688 7.2 
z
" style="fill:#ffffff;"/>
   </g>
   <g id="PolyCollection_1">
    <defs>
     <path d="M 172.876506 -131.380891 
L 172.876506 -130.491759 
L 215.594209 -150.433097 
L 258.311912 -172.419701 
L 301.029616 -194.795463 
L 343.747319 -219.011441 
L 386.465022 -240.59318 
L 429.182726 -266.417274 
L 471.900429 -288.120297 
L 514.618132 -313.006396 
L 557.335836 -337.722347 
L 600.053539 -362.001149 
L 642.771243 -387.959616 
L 685.488946 -411.924298 
L 728.206649 -437.421185 
L 770.924353 -464.395304 
L 813.642056 -490.378203 
L 856.359759 -516.00859 
L 899.077463 -548.198834 
L 941.795166 -569.825946 
L 984.512869 -597.78256 
L 984.512869 -619.256975 
L 984.512869 -619.256975 
L 941.795166 -592.544622 
L 899.077463 -564.198848 
L 856.359759 -536.071213 
L 813.642056 -509.540351 
L 770.924353 -480.518348 
L 728.206649 -456.382645 
L 685.488946 -430.428541 
L 642.771243 -403.861031 
L 600.053539 -377.229825 
L 557.335836 -348.100499 
L 514.618132 -323.445627 
L 471.900429 -298.649401 
L 429.182726 -273.941303 
L 386.465022 -248.776859 
L 343.747319 -221.858583 
L 301.029616 -199.317036 
L 258.311912 -175.261608 
L 215.594209 -153.32474 
L 172.876506 -131.380891 
z
" id="m31e24bee46" style="stroke:#fe0002;stroke-opacity:0.3;"/>
    </defs>
    <g clip-path="url(#p38b14c7a51)">
     <use style="fill:#fe0002;fill-opacity:0.3;stroke:#fe0002;stroke-opacity:0.3;" x="0" xlink:href="#m31e24bee46" y="1090.099062"/>
    </g>
   </g>
   <g id="PolyCollection_2">
    <defs>
     <path d="M 172.876506 -137.877052 
L 172.876506 -137.553335 
L 215.594209 -166.553524 
L 258.311912 -198.092843 
L 301.029616 -230.296176 
L 343.747319 -263.671348 
L 386.465022 -297.684357 
L 429.182726 -332.743557 
L 471.900429 -367.006988 
L 514.618132 -402.450985 
L 557.335836 -437.878403 
L 600.053539 -474.401748 
L 642.771243 -509.847489 
L 685.488946 -545.650978 
L 728.206649 -584.579081 
L 770.924353 -622.2795 
L 813.642056 -658.918895 
L 856.359759 -695.988459 
L 899.077463 -734.448 
L 941.795166 -772.769678 
L 984.512869 -809.472769 
L 984.512869 -813.803252 
L 984.512869 -813.803252 
L 941.795166 -775.581045 
L 899.077463 -737.812566 
L 856.359759 -700.136578 
L 813.642056 -661.639517 
L 770.924353 -624.089176 
L 728.206649 -586.896583 
L 685.488946 -549.741509 
L 642.771243 -514.557533 
L 600.053539 -476.52118 
L 557.335836 -440.519622 
L 514.618132 -404.354897 
L 471.900429 -368.895194 
L 429.182726 -334.389193 
L 386.465022 -299.54115 
L 343.747319 -265.522906 
L 301.029616 -231.707095 
L 258.311912 -199.072721 
L 215.594209 -167.977531 
L 172.876506 -137.877052 
z
" id="m4164c9f756" style="stroke:#53fca1;stroke-opacity:0.3;"/>
    </defs>
    <g clip-path="url(#p38b14c7a51)">
     <use style="fill:#53fca1;fill-opacity:0.3;stroke:#53fca1;stroke-opacity:0.3;" x="0" xlink:href="#m4164c9f756" y="1090.099062"/>
    </g>
   </g>
   <g id="PolyCollection_3">
    <defs>
     <path d="M 172.876506 -138.424143 
L 172.876506 -137.258412 
L 215.594209 -167.122429 
L 258.311912 -199.703577 
L 301.029616 -233.42428 
L 343.747319 -267.692947 
L 386.465022 -304.027821 
L 429.182726 -340.302488 
L 471.900429 -376.419223 
L 514.618132 -414.058564 
L 557.335836 -451.355864 
L 600.053539 -490.509958 
L 642.771243 -529.02098 
L 685.488946 -568.417644 
L 728.206649 -605.547414 
L 770.924353 -647.648121 
L 813.642056 -688.261125 
L 856.359759 -727.47717 
L 899.077463 -768.529068 
L 941.795166 -808.771236 
L 984.512869 -850.104096 
L 984.512869 -855.157054 
L 984.512869 -855.157054 
L 941.795166 -812.994395 
L 899.077463 -772.408441 
L 856.359759 -731.760535 
L 813.642056 -692.172782 
L 770.924353 -650.230007 
L 728.206649 -610.972952 
L 685.488946 -571.220286 
L 642.771243 -532.708392 
L 600.053539 -492.826588 
L 557.335836 -455.548484 
L 514.618132 -416.3464 
L 471.900429 -379.119776 
L 429.182726 -341.718642 
L 386.465022 -306.130675 
L 343.747319 -269.358652 
L 301.029616 -234.731365 
L 258.311912 -200.965289 
L 215.594209 -168.487102 
L 172.876506 -138.424143 
z
" id="m2ddbe90230" style="stroke:#0652ff;stroke-opacity:0.3;"/>
    </defs>
    <g clip-path="url(#p38b14c7a51)">
     <use style="fill:#0652ff;fill-opacity:0.3;stroke:#0652ff;stroke-opacity:0.3;" x="0" xlink:href="#m2ddbe90230" y="1090.099062"/>
    </g>
   </g>
   <g id="PolyCollection_4">
    <defs>
     <path d="M 172.876506 -130.846889 
L 172.876506 -130.339063 
L 215.594209 -152.19391 
L 258.311912 -176.379349 
L 301.029616 -202.577768 
L 343.747319 -228.522275 
L 386.465022 -256.322702 
L 429.182726 -284.735662 
L 471.900429 -312.594551 
L 514.618132 -342.605157 
L 557.335836 -371.901141 
L 600.053539 -401.054027 
L 642.771243 -431.908392 
L 685.488946 -463.000964 
L 728.206649 -493.190443 
L 770.924353 -525.003744 
L 813.642056 -557.30044 
L 856.359759 -589.919981 
L 899.077463 -622.59711 
L 941.795166 -655.317867 
L 984.512869 -687.484552 
L 984.512869 -693.922252 
L 984.512869 -693.922252 
L 941.795166 -662.010352 
L 899.077463 -628.872515 
L 856.359759 -595.85509 
L 813.642056 -563.366432 
L 770.924353 -531.533935 
L 728.206649 -500.577481 
L 685.488946 -467.370712 
L 642.771243 -438.183796 
L 600.053539 -406.153229 
L 557.335836 -375.034481 
L 514.618132 -346.597089 
L 471.900429 -317.254859 
L 429.182726 -287.655226 
L 386.465022 -259.31207 
L 343.747319 -230.706276 
L 301.029616 -204.231257 
L 258.311912 -178.292859 
L 215.594209 -153.651947 
L 172.876506 -130.846889 
z
" id="m30eacd1d42" style="stroke:#ae7181;stroke-opacity:0.3;"/>
    </defs>
    <g clip-path="url(#p38b14c7a51)">
     <use style="fill:#ae7181;fill-opacity:0.3;stroke:#ae7181;stroke-opacity:0.3;" x="0" xlink:href="#m30eacd1d42" y="1090.099062"/>
    </g>
   </g>
   <g id="PolyCollection_5">
    <defs>
     <path d="M 172.876506 -142.666499 
L 172.876506 -141.778239 
L 215.594209 -177.011078 
L 258.311912 -216.493252 
L 301.029616 -256.184839 
L 343.747319 -298.682558 
L 386.465022 -341.946379 
L 429.182726 -385.565329 
L 471.900429 -428.916406 
L 514.618132 -474.707142 
L 557.335836 -519.781511 
L 600.053539 -565.031264 
L 642.771243 -612.882972 
L 685.488946 -660.137852 
L 728.206649 -706.715632 
L 770.924353 -754.918106 
L 813.642056 -803.678141 
L 856.359759 -851.184318 
L 899.077463 -900.301228 
L 941.795166 -951.031489 
L 984.512869 -1000.144909 
L 984.512869 -1006.51455 
L 984.512869 -1006.51455 
L 941.795166 -955.186589 
L 899.077463 -905.204978 
L 856.359759 -855.123024 
L 813.642056 -808.033056 
L 770.924353 -758.892587 
L 728.206649 -712.30521 
L 685.488946 -662.835788 
L 642.771243 -617.542407 
L 600.053539 -568.735254 
L 557.335836 -523.220245 
L 514.618132 -477.057801 
L 471.900429 -432.198079 
L 429.182726 -387.371515 
L 386.465022 -343.776996 
L 343.747319 -299.690357 
L 301.029616 -258.319977 
L 258.311912 -217.829131 
L 215.594209 -178.92546 
L 172.876506 -142.666499 
z
" id="m0c4d444ee7" style="stroke:#ff81c0;stroke-opacity:0.3;"/>
    </defs>
    <g clip-path="url(#p38b14c7a51)">
     <use style="fill:#ff81c0;fill-opacity:0.3;stroke:#ff81c0;stroke-opacity:0.3;" x="0" xlink:href="#m0c4d444ee7" y="1090.099062"/>
    </g>
   </g>
   <g id="PolyCollection_6">
    <defs>
     <path d="M 172.876506 -144.147222 
L 172.876506 -143.543415 
L 215.594209 -180.547537 
L 258.311912 -221.504327 
L 301.029616 -263.558788 
L 343.747319 -307.025042 
L 386.465022 -351.897852 
L 429.182726 -396.086579 
L 471.900429 -443.257695 
L 514.618132 -489.681032 
L 557.335836 -535.53023 
L 600.053539 -583.868822 
L 642.771243 -632.292052 
L 685.488946 -680.733606 
L 728.206649 -730.175978 
L 770.924353 -780.689846 
L 813.642056 -830.256994 
L 856.359759 -880.372978 
L 899.077463 -930.548295 
L 941.795166 -980.870202 
L 984.512869 -1033.006147 
L 984.512869 -1037.539062 
L 984.512869 -1037.539062 
L 941.795166 -986.574084 
L 899.077463 -936.609925 
L 856.359759 -883.768956 
L 813.642056 -834.514183 
L 770.924353 -783.716734 
L 728.206649 -736.005508 
L 685.488946 -685.473316 
L 642.771243 -636.275259 
L 600.053539 -590.796024 
L 557.335836 -539.589349 
L 514.618132 -493.503689 
L 471.900429 -445.452167 
L 429.182726 -399.76003 
L 386.465022 -353.423948 
L 343.747319 -308.758806 
L 301.029616 -265.00461 
L 258.311912 -222.895177 
L 215.594209 -182.093702 
L 172.876506 -144.147222 
z
" id="m5b344bfa1e" style="stroke:#f97306;stroke-opacity:0.3;"/>
    </defs>
    <g clip-path="url(#p38b14c7a51)">
     <use style="fill:#f97306;fill-opacity:0.3;stroke:#f97306;stroke-opacity:0.3;" x="0" xlink:href="#m5b344bfa1e" y="1090.099062"/>
    </g>
   </g>
   <g id="matplotlib.axis_1">
    <g id="xtick_1">
     <g id="line2d_1">
      <path clip-path="url(#p38b14c7a51)" d="M 301.029616 1005.12 
L 301.029616 7.2 
" style="fill:none;stroke:#b0b0b0;stroke-linecap:square;stroke-width:0.8;"/>
     </g>
     <g id="line2d_2">
      <defs>
       <path d="M 0 0 
L 0 3.5 
" id="me21f9c5246" style="stroke:#000000;stroke-width:0.8;"/>
      </defs>
      <g>
       <use style="stroke:#000000;stroke-width:0.8;" x="301.029616" xlink:href="#me21f9c5246" y="1005.12"/>
      </g>
     </g>
     <g id="text_1">
      <!-- 0.2 -->
      <g transform="translate(277.174928 1034.915313)scale(0.3 -0.3)">
       <defs>
        <path d="M 2034 4250 
Q 1547 4250 1301 3770 
Q 1056 3291 1056 2328 
Q 1056 1369 1301 889 
Q 1547 409 2034 409 
Q 2525 409 2770 889 
Q 3016 1369 3016 2328 
Q 3016 3291 2770 3770 
Q 2525 4250 2034 4250 
z
M 2034 4750 
Q 2819 4750 3233 4129 
Q 3647 3509 3647 2328 
Q 3647 1150 3233 529 
Q 2819 -91 2034 -91 
Q 1250 -91 836 529 
Q 422 1150 422 2328 
Q 422 3509 836 4129 
Q 1250 4750 2034 4750 
z
" id="DejaVuSans-30" transform="scale(0.015625)"/>
        <path d="M 684 794 
L 1344 794 
L 1344 0 
L 684 0 
L 684 794 
z
" id="DejaVuSans-2e" transform="scale(0.015625)"/>
        <path d="M 1228 531 
L 3431 531 
L 3431 0 
L 469 0 
L 469 531 
Q 828 903 1448 1529 
Q 2069 2156 2228 2338 
Q 2531 2678 2651 2914 
Q 2772 3150 2772 3378 
Q 2772 3750 2511 3984 
Q 2250 4219 1831 4219 
Q 1534 4219 1204 4116 
Q 875 4013 500 3803 
L 500 4441 
Q 881 4594 1212 4672 
Q 1544 4750 1819 4750 
Q 2544 4750 2975 4387 
Q 3406 4025 3406 3419 
Q 3406 3131 3298 2873 
Q 3191 2616 2906 2266 
Q 2828 2175 2409 1742 
Q 1991 1309 1228 531 
z
" id="DejaVuSans-32" transform="scale(0.015625)"/>
       </defs>
       <use xlink:href="#DejaVuSans-30"/>
       <use x="63.623047" xlink:href="#DejaVuSans-2e"/>
       <use x="95.410156" xlink:href="#DejaVuSans-32"/>
      </g>
     </g>
    </g>
    <g id="xtick_2">
     <g id="line2d_3">
      <path clip-path="url(#p38b14c7a51)" d="M 471.900429 1005.12 
L 471.900429 7.2 
" style="fill:none;stroke:#b0b0b0;stroke-linecap:square;stroke-width:0.8;"/>
     </g>
     <g id="line2d_4">
      <g>
       <use style="stroke:#000000;stroke-width:0.8;" x="471.900429" xlink:href="#me21f9c5246" y="1005.12"/>
      </g>
     </g>
     <g id="text_2">
      <!-- 0.4 -->
      <g transform="translate(448.045742 1034.915313)scale(0.3 -0.3)">
       <defs>
        <path d="M 2419 4116 
L 825 1625 
L 2419 1625 
L 2419 4116 
z
M 2253 4666 
L 3047 4666 
L 3047 1625 
L 3713 1625 
L 3713 1100 
L 3047 1100 
L 3047 0 
L 2419 0 
L 2419 1100 
L 313 1100 
L 313 1709 
L 2253 4666 
z
" id="DejaVuSans-34" transform="scale(0.015625)"/>
       </defs>
       <use xlink:href="#DejaVuSans-30"/>
       <use x="63.623047" xlink:href="#DejaVuSans-2e"/>
       <use x="95.410156" xlink:href="#DejaVuSans-34"/>
      </g>
     </g>
    </g>
    <g id="xtick_3">
     <g id="line2d_5">
      <path clip-path="url(#p38b14c7a51)" d="M 642.771243 1005.12 
L 642.771243 7.2 
" style="fill:none;stroke:#b0b0b0;stroke-linecap:square;stroke-width:0.8;"/>
     </g>
     <g id="line2d_6">
      <g>
       <use style="stroke:#000000;stroke-width:0.8;" x="642.771243" xlink:href="#me21f9c5246" y="1005.12"/>
      </g>
     </g>
     <g id="text_3">
      <!-- 0.6 -->
      <g transform="translate(618.916555 1034.915313)scale(0.3 -0.3)">
       <defs>
        <path d="M 2113 2584 
Q 1688 2584 1439 2293 
Q 1191 2003 1191 1497 
Q 1191 994 1439 701 
Q 1688 409 2113 409 
Q 2538 409 2786 701 
Q 3034 994 3034 1497 
Q 3034 2003 2786 2293 
Q 2538 2584 2113 2584 
z
M 3366 4563 
L 3366 3988 
Q 3128 4100 2886 4159 
Q 2644 4219 2406 4219 
Q 1781 4219 1451 3797 
Q 1122 3375 1075 2522 
Q 1259 2794 1537 2939 
Q 1816 3084 2150 3084 
Q 2853 3084 3261 2657 
Q 3669 2231 3669 1497 
Q 3669 778 3244 343 
Q 2819 -91 2113 -91 
Q 1303 -91 875 529 
Q 447 1150 447 2328 
Q 447 3434 972 4092 
Q 1497 4750 2381 4750 
Q 2619 4750 2861 4703 
Q 3103 4656 3366 4563 
z
" id="DejaVuSans-36" transform="scale(0.015625)"/>
       </defs>
       <use xlink:href="#DejaVuSans-30"/>
       <use x="63.623047" xlink:href="#DejaVuSans-2e"/>
       <use x="95.410156" xlink:href="#DejaVuSans-36"/>
      </g>
     </g>
    </g>
    <g id="xtick_4">
     <g id="line2d_7">
      <path clip-path="url(#p38b14c7a51)" d="M 813.642056 1005.12 
L 813.642056 7.2 
" style="fill:none;stroke:#b0b0b0;stroke-linecap:square;stroke-width:0.8;"/>
     </g>
     <g id="line2d_8">
      <g>
       <use style="stroke:#000000;stroke-width:0.8;" x="813.642056" xlink:href="#me21f9c5246" y="1005.12"/>
      </g>
     </g>
     <g id="text_4">
      <!-- 0.8 -->
      <g transform="translate(789.787368 1034.915313)scale(0.3 -0.3)">
       <defs>
        <path d="M 2034 2216 
Q 1584 2216 1326 1975 
Q 1069 1734 1069 1313 
Q 1069 891 1326 650 
Q 1584 409 2034 409 
Q 2484 409 2743 651 
Q 3003 894 3003 1313 
Q 3003 1734 2745 1975 
Q 2488 2216 2034 2216 
z
M 1403 2484 
Q 997 2584 770 2862 
Q 544 3141 544 3541 
Q 544 4100 942 4425 
Q 1341 4750 2034 4750 
Q 2731 4750 3128 4425 
Q 3525 4100 3525 3541 
Q 3525 3141 3298 2862 
Q 3072 2584 2669 2484 
Q 3125 2378 3379 2068 
Q 3634 1759 3634 1313 
Q 3634 634 3220 271 
Q 2806 -91 2034 -91 
Q 1263 -91 848 271 
Q 434 634 434 1313 
Q 434 1759 690 2068 
Q 947 2378 1403 2484 
z
M 1172 3481 
Q 1172 3119 1398 2916 
Q 1625 2713 2034 2713 
Q 2441 2713 2670 2916 
Q 2900 3119 2900 3481 
Q 2900 3844 2670 4047 
Q 2441 4250 2034 4250 
Q 1625 4250 1398 4047 
Q 1172 3844 1172 3481 
z
" id="DejaVuSans-38" transform="scale(0.015625)"/>
       </defs>
       <use xlink:href="#DejaVuSans-30"/>
       <use x="63.623047" xlink:href="#DejaVuSans-2e"/>
       <use x="95.410156" xlink:href="#DejaVuSans-38"/>
      </g>
     </g>
    </g>
    <g id="xtick_5">
     <g id="line2d_9">
      <path clip-path="url(#p38b14c7a51)" d="M 984.512869 1005.12 
L 984.512869 7.2 
" style="fill:none;stroke:#b0b0b0;stroke-linecap:square;stroke-width:0.8;"/>
     </g>
     <g id="line2d_10">
      <g>
       <use style="stroke:#000000;stroke-width:0.8;" x="984.512869" xlink:href="#me21f9c5246" y="1005.12"/>
      </g>
     </g>
     <g id="text_5">
      <!-- 1.0 -->
      <g transform="translate(960.658182 1034.915313)scale(0.3 -0.3)">
       <defs>
        <path d="M 794 531 
L 1825 531 
L 1825 4091 
L 703 3866 
L 703 4441 
L 1819 4666 
L 2450 4666 
L 2450 531 
L 3481 531 
L 3481 0 
L 794 0 
L 794 531 
z
" id="DejaVuSans-31" transform="scale(0.015625)"/>
       </defs>
       <use xlink:href="#DejaVuSans-31"/>
       <use x="63.623047" xlink:href="#DejaVuSans-2e"/>
       <use x="95.410156" xlink:href="#DejaVuSans-30"/>
      </g>
     </g>
    </g>
    <g id="text_6">
     <!-- Edge probability -->
     <g transform="translate(419.382734 1074.788281)scale(0.39 -0.39)">
      <defs>
       <path d="M 628 4666 
L 3578 4666 
L 3578 4134 
L 1259 4134 
L 1259 2753 
L 3481 2753 
L 3481 2222 
L 1259 2222 
L 1259 531 
L 3634 531 
L 3634 0 
L 628 0 
L 628 4666 
z
" id="DejaVuSans-45" transform="scale(0.015625)"/>
       <path d="M 2906 2969 
L 2906 4863 
L 3481 4863 
L 3481 0 
L 2906 0 
L 2906 525 
Q 2725 213 2448 61 
Q 2172 -91 1784 -91 
Q 1150 -91 751 415 
Q 353 922 353 1747 
Q 353 2572 751 3078 
Q 1150 3584 1784 3584 
Q 2172 3584 2448 3432 
Q 2725 3281 2906 2969 
z
M 947 1747 
Q 947 1113 1208 752 
Q 1469 391 1925 391 
Q 2381 391 2643 752 
Q 2906 1113 2906 1747 
Q 2906 2381 2643 2742 
Q 2381 3103 1925 3103 
Q 1469 3103 1208 2742 
Q 947 2381 947 1747 
z
" id="DejaVuSans-64" transform="scale(0.015625)"/>
       <path d="M 2906 1791 
Q 2906 2416 2648 2759 
Q 2391 3103 1925 3103 
Q 1463 3103 1205 2759 
Q 947 2416 947 1791 
Q 947 1169 1205 825 
Q 1463 481 1925 481 
Q 2391 481 2648 825 
Q 2906 1169 2906 1791 
z
M 3481 434 
Q 3481 -459 3084 -895 
Q 2688 -1331 1869 -1331 
Q 1566 -1331 1297 -1286 
Q 1028 -1241 775 -1147 
L 775 -588 
Q 1028 -725 1275 -790 
Q 1522 -856 1778 -856 
Q 2344 -856 2625 -561 
Q 2906 -266 2906 331 
L 2906 616 
Q 2728 306 2450 153 
Q 2172 0 1784 0 
Q 1141 0 747 490 
Q 353 981 353 1791 
Q 353 2603 747 3093 
Q 1141 3584 1784 3584 
Q 2172 3584 2450 3431 
Q 2728 3278 2906 2969 
L 2906 3500 
L 3481 3500 
L 3481 434 
z
" id="DejaVuSans-67" transform="scale(0.015625)"/>
       <path d="M 3597 1894 
L 3597 1613 
L 953 1613 
Q 991 1019 1311 708 
Q 1631 397 2203 397 
Q 2534 397 2845 478 
Q 3156 559 3463 722 
L 3463 178 
Q 3153 47 2828 -22 
Q 2503 -91 2169 -91 
Q 1331 -91 842 396 
Q 353 884 353 1716 
Q 353 2575 817 3079 
Q 1281 3584 2069 3584 
Q 2775 3584 3186 3129 
Q 3597 2675 3597 1894 
z
M 3022 2063 
Q 3016 2534 2758 2815 
Q 2500 3097 2075 3097 
Q 1594 3097 1305 2825 
Q 1016 2553 972 2059 
L 3022 2063 
z
" id="DejaVuSans-65" transform="scale(0.015625)"/>
       <path id="DejaVuSans-20" transform="scale(0.015625)"/>
       <path d="M 1159 525 
L 1159 -1331 
L 581 -1331 
L 581 3500 
L 1159 3500 
L 1159 2969 
Q 1341 3281 1617 3432 
Q 1894 3584 2278 3584 
Q 2916 3584 3314 3078 
Q 3713 2572 3713 1747 
Q 3713 922 3314 415 
Q 2916 -91 2278 -91 
Q 1894 -91 1617 61 
Q 1341 213 1159 525 
z
M 3116 1747 
Q 3116 2381 2855 2742 
Q 2594 3103 2138 3103 
Q 1681 3103 1420 2742 
Q 1159 2381 1159 1747 
Q 1159 1113 1420 752 
Q 1681 391 2138 391 
Q 2594 391 2855 752 
Q 3116 1113 3116 1747 
z
" id="DejaVuSans-70" transform="scale(0.015625)"/>
       <path d="M 2631 2963 
Q 2534 3019 2420 3045 
Q 2306 3072 2169 3072 
Q 1681 3072 1420 2755 
Q 1159 2438 1159 1844 
L 1159 0 
L 581 0 
L 581 3500 
L 1159 3500 
L 1159 2956 
Q 1341 3275 1631 3429 
Q 1922 3584 2338 3584 
Q 2397 3584 2469 3576 
Q 2541 3569 2628 3553 
L 2631 2963 
z
" id="DejaVuSans-72" transform="scale(0.015625)"/>
       <path d="M 1959 3097 
Q 1497 3097 1228 2736 
Q 959 2375 959 1747 
Q 959 1119 1226 758 
Q 1494 397 1959 397 
Q 2419 397 2687 759 
Q 2956 1122 2956 1747 
Q 2956 2369 2687 2733 
Q 2419 3097 1959 3097 
z
M 1959 3584 
Q 2709 3584 3137 3096 
Q 3566 2609 3566 1747 
Q 3566 888 3137 398 
Q 2709 -91 1959 -91 
Q 1206 -91 779 398 
Q 353 888 353 1747 
Q 353 2609 779 3096 
Q 1206 3584 1959 3584 
z
" id="DejaVuSans-6f" transform="scale(0.015625)"/>
       <path d="M 3116 1747 
Q 3116 2381 2855 2742 
Q 2594 3103 2138 3103 
Q 1681 3103 1420 2742 
Q 1159 2381 1159 1747 
Q 1159 1113 1420 752 
Q 1681 391 2138 391 
Q 2594 391 2855 752 
Q 3116 1113 3116 1747 
z
M 1159 2969 
Q 1341 3281 1617 3432 
Q 1894 3584 2278 3584 
Q 2916 3584 3314 3078 
Q 3713 2572 3713 1747 
Q 3713 922 3314 415 
Q 2916 -91 2278 -91 
Q 1894 -91 1617 61 
Q 1341 213 1159 525 
L 1159 0 
L 581 0 
L 581 4863 
L 1159 4863 
L 1159 2969 
z
" id="DejaVuSans-62" transform="scale(0.015625)"/>
       <path d="M 2194 1759 
Q 1497 1759 1228 1600 
Q 959 1441 959 1056 
Q 959 750 1161 570 
Q 1363 391 1709 391 
Q 2188 391 2477 730 
Q 2766 1069 2766 1631 
L 2766 1759 
L 2194 1759 
z
M 3341 1997 
L 3341 0 
L 2766 0 
L 2766 531 
Q 2569 213 2275 61 
Q 1981 -91 1556 -91 
Q 1019 -91 701 211 
Q 384 513 384 1019 
Q 384 1609 779 1909 
Q 1175 2209 1959 2209 
L 2766 2209 
L 2766 2266 
Q 2766 2663 2505 2880 
Q 2244 3097 1772 3097 
Q 1472 3097 1187 3025 
Q 903 2953 641 2809 
L 641 3341 
Q 956 3463 1253 3523 
Q 1550 3584 1831 3584 
Q 2591 3584 2966 3190 
Q 3341 2797 3341 1997 
z
" id="DejaVuSans-61" transform="scale(0.015625)"/>
       <path d="M 603 3500 
L 1178 3500 
L 1178 0 
L 603 0 
L 603 3500 
z
M 603 4863 
L 1178 4863 
L 1178 4134 
L 603 4134 
L 603 4863 
z
" id="DejaVuSans-69" transform="scale(0.015625)"/>
       <path d="M 603 4863 
L 1178 4863 
L 1178 0 
L 603 0 
L 603 4863 
z
" id="DejaVuSans-6c" transform="scale(0.015625)"/>
       <path d="M 1172 4494 
L 1172 3500 
L 2356 3500 
L 2356 3053 
L 1172 3053 
L 1172 1153 
Q 1172 725 1289 603 
Q 1406 481 1766 481 
L 2356 481 
L 2356 0 
L 1766 0 
Q 1100 0 847 248 
Q 594 497 594 1153 
L 594 3053 
L 172 3053 
L 172 3500 
L 594 3500 
L 594 4494 
L 1172 4494 
z
" id="DejaVuSans-74" transform="scale(0.015625)"/>
       <path d="M 2059 -325 
Q 1816 -950 1584 -1140 
Q 1353 -1331 966 -1331 
L 506 -1331 
L 506 -850 
L 844 -850 
Q 1081 -850 1212 -737 
Q 1344 -625 1503 -206 
L 1606 56 
L 191 3500 
L 800 3500 
L 1894 763 
L 2988 3500 
L 3597 3500 
L 2059 -325 
z
" id="DejaVuSans-79" transform="scale(0.015625)"/>
      </defs>
      <use xlink:href="#DejaVuSans-45"/>
      <use x="63.183594" xlink:href="#DejaVuSans-64"/>
      <use x="126.660156" xlink:href="#DejaVuSans-67"/>
      <use x="190.136719" xlink:href="#DejaVuSans-65"/>
      <use x="251.660156" xlink:href="#DejaVuSans-20"/>
      <use x="283.447266" xlink:href="#DejaVuSans-70"/>
      <use x="346.923828" xlink:href="#DejaVuSans-72"/>
      <use x="385.787109" xlink:href="#DejaVuSans-6f"/>
      <use x="446.96875" xlink:href="#DejaVuSans-62"/>
      <use x="510.445312" xlink:href="#DejaVuSans-61"/>
      <use x="571.724609" xlink:href="#DejaVuSans-62"/>
      <use x="635.201172" xlink:href="#DejaVuSans-69"/>
      <use x="662.984375" xlink:href="#DejaVuSans-6c"/>
      <use x="690.767578" xlink:href="#DejaVuSans-69"/>
      <use x="718.550781" xlink:href="#DejaVuSans-74"/>
      <use x="757.759766" xlink:href="#DejaVuSans-79"/>
     </g>
    </g>
   </g>
   <g id="matplotlib.axis_2">
    <g id="ytick_1">
     <g id="line2d_11">
      <path clip-path="url(#p38b14c7a51)" d="M 132.294688 977.359404 
L 1025.094687 977.359404 
" style="fill:none;stroke:#b0b0b0;stroke-linecap:square;stroke-width:0.8;"/>
     </g>
     <g id="line2d_12">
      <defs>
       <path d="M 0 0 
L -3.5 0 
" id="m8eac2bfdbf" style="stroke:#000000;stroke-width:0.8;"/>
      </defs>
      <g>
       <use style="stroke:#000000;stroke-width:0.8;" x="132.294688" xlink:href="#m8eac2bfdbf" y="977.359404"/>
      </g>
     </g>
     <g id="text_7">
      <!-- 0 -->
      <g transform="translate(106.207188 988.757061)scale(0.3 -0.3)">
       <use xlink:href="#DejaVuSans-30"/>
      </g>
     </g>
    </g>
    <g id="ytick_2">
     <g id="line2d_13">
      <path clip-path="url(#p38b14c7a51)" d="M 132.294688 759.221025 
L 1025.094687 759.221025 
" style="fill:none;stroke:#b0b0b0;stroke-linecap:square;stroke-width:0.8;"/>
     </g>
     <g id="line2d_14">
      <g>
       <use style="stroke:#000000;stroke-width:0.8;" x="132.294688" xlink:href="#m8eac2bfdbf" y="759.221025"/>
      </g>
     </g>
     <g id="text_8">
      <!-- 500 -->
      <g transform="translate(68.032188 770.618681)scale(0.3 -0.3)">
       <defs>
        <path d="M 691 4666 
L 3169 4666 
L 3169 4134 
L 1269 4134 
L 1269 2991 
Q 1406 3038 1543 3061 
Q 1681 3084 1819 3084 
Q 2600 3084 3056 2656 
Q 3513 2228 3513 1497 
Q 3513 744 3044 326 
Q 2575 -91 1722 -91 
Q 1428 -91 1123 -41 
Q 819 9 494 109 
L 494 744 
Q 775 591 1075 516 
Q 1375 441 1709 441 
Q 2250 441 2565 725 
Q 2881 1009 2881 1497 
Q 2881 1984 2565 2268 
Q 2250 2553 1709 2553 
Q 1456 2553 1204 2497 
Q 953 2441 691 2322 
L 691 4666 
z
" id="DejaVuSans-35" transform="scale(0.015625)"/>
       </defs>
       <use xlink:href="#DejaVuSans-35"/>
       <use x="63.623047" xlink:href="#DejaVuSans-30"/>
       <use x="127.246094" xlink:href="#DejaVuSans-30"/>
      </g>
     </g>
    </g>
    <g id="ytick_3">
     <g id="line2d_15">
      <path clip-path="url(#p38b14c7a51)" d="M 132.294688 541.082646 
L 1025.094687 541.082646 
" style="fill:none;stroke:#b0b0b0;stroke-linecap:square;stroke-width:0.8;"/>
     </g>
     <g id="line2d_16">
      <g>
       <use style="stroke:#000000;stroke-width:0.8;" x="132.294688" xlink:href="#m8eac2bfdbf" y="541.082646"/>
      </g>
     </g>
     <g id="text_9">
      <!-- 1000 -->
      <g transform="translate(48.944688 552.480302)scale(0.3 -0.3)">
       <use xlink:href="#DejaVuSans-31"/>
       <use x="63.623047" xlink:href="#DejaVuSans-30"/>
       <use x="127.246094" xlink:href="#DejaVuSans-30"/>
       <use x="190.869141" xlink:href="#DejaVuSans-30"/>
      </g>
     </g>
    </g>
    <g id="ytick_4">
     <g id="line2d_17">
      <path clip-path="url(#p38b14c7a51)" d="M 132.294688 322.944266 
L 1025.094687 322.944266 
" style="fill:none;stroke:#b0b0b0;stroke-linecap:square;stroke-width:0.8;"/>
     </g>
     <g id="line2d_18">
      <g>
       <use style="stroke:#000000;stroke-width:0.8;" x="132.294688" xlink:href="#m8eac2bfdbf" y="322.944266"/>
      </g>
     </g>
     <g id="text_10">
      <!-- 1500 -->
      <g transform="translate(48.944688 334.341923)scale(0.3 -0.3)">
       <use xlink:href="#DejaVuSans-31"/>
       <use x="63.623047" xlink:href="#DejaVuSans-35"/>
       <use x="127.246094" xlink:href="#DejaVuSans-30"/>
       <use x="190.869141" xlink:href="#DejaVuSans-30"/>
      </g>
     </g>
    </g>
    <g id="ytick_5">
     <g id="line2d_19">
      <path clip-path="url(#p38b14c7a51)" d="M 132.294688 104.805887 
L 1025.094687 104.805887 
" style="fill:none;stroke:#b0b0b0;stroke-linecap:square;stroke-width:0.8;"/>
     </g>
     <g id="line2d_20">
      <g>
       <use style="stroke:#000000;stroke-width:0.8;" x="132.294688" xlink:href="#m8eac2bfdbf" y="104.805887"/>
      </g>
     </g>
     <g id="text_11">
      <!-- 2000 -->
      <g transform="translate(48.944688 116.203543)scale(0.3 -0.3)">
       <use xlink:href="#DejaVuSans-32"/>
       <use x="63.623047" xlink:href="#DejaVuSans-30"/>
       <use x="127.246094" xlink:href="#DejaVuSans-30"/>
       <use x="190.869141" xlink:href="#DejaVuSans-30"/>
      </g>
     </g>
    </g>
    <g id="text_12">
     <!-- Avg. number of pointer updates / size -->
     <g transform="translate(36.833906 873.549141)rotate(-90)scale(0.39 -0.39)">
      <defs>
       <path d="M 2188 4044 
L 1331 1722 
L 3047 1722 
L 2188 4044 
z
M 1831 4666 
L 2547 4666 
L 4325 0 
L 3669 0 
L 3244 1197 
L 1141 1197 
L 716 0 
L 50 0 
L 1831 4666 
z
" id="DejaVuSans-41" transform="scale(0.015625)"/>
       <path d="M 191 3500 
L 800 3500 
L 1894 563 
L 2988 3500 
L 3597 3500 
L 2284 0 
L 1503 0 
L 191 3500 
z
" id="DejaVuSans-76" transform="scale(0.015625)"/>
       <path d="M 3513 2113 
L 3513 0 
L 2938 0 
L 2938 2094 
Q 2938 2591 2744 2837 
Q 2550 3084 2163 3084 
Q 1697 3084 1428 2787 
Q 1159 2491 1159 1978 
L 1159 0 
L 581 0 
L 581 3500 
L 1159 3500 
L 1159 2956 
Q 1366 3272 1645 3428 
Q 1925 3584 2291 3584 
Q 2894 3584 3203 3211 
Q 3513 2838 3513 2113 
z
" id="DejaVuSans-6e" transform="scale(0.015625)"/>
       <path d="M 544 1381 
L 544 3500 
L 1119 3500 
L 1119 1403 
Q 1119 906 1312 657 
Q 1506 409 1894 409 
Q 2359 409 2629 706 
Q 2900 1003 2900 1516 
L 2900 3500 
L 3475 3500 
L 3475 0 
L 2900 0 
L 2900 538 
Q 2691 219 2414 64 
Q 2138 -91 1772 -91 
Q 1169 -91 856 284 
Q 544 659 544 1381 
z
M 1991 3584 
L 1991 3584 
z
" id="DejaVuSans-75" transform="scale(0.015625)"/>
       <path d="M 3328 2828 
Q 3544 3216 3844 3400 
Q 4144 3584 4550 3584 
Q 5097 3584 5394 3201 
Q 5691 2819 5691 2113 
L 5691 0 
L 5113 0 
L 5113 2094 
Q 5113 2597 4934 2840 
Q 4756 3084 4391 3084 
Q 3944 3084 3684 2787 
Q 3425 2491 3425 1978 
L 3425 0 
L 2847 0 
L 2847 2094 
Q 2847 2600 2669 2842 
Q 2491 3084 2119 3084 
Q 1678 3084 1418 2786 
Q 1159 2488 1159 1978 
L 1159 0 
L 581 0 
L 581 3500 
L 1159 3500 
L 1159 2956 
Q 1356 3278 1631 3431 
Q 1906 3584 2284 3584 
Q 2666 3584 2933 3390 
Q 3200 3197 3328 2828 
z
" id="DejaVuSans-6d" transform="scale(0.015625)"/>
       <path d="M 2375 4863 
L 2375 4384 
L 1825 4384 
Q 1516 4384 1395 4259 
Q 1275 4134 1275 3809 
L 1275 3500 
L 2222 3500 
L 2222 3053 
L 1275 3053 
L 1275 0 
L 697 0 
L 697 3053 
L 147 3053 
L 147 3500 
L 697 3500 
L 697 3744 
Q 697 4328 969 4595 
Q 1241 4863 1831 4863 
L 2375 4863 
z
" id="DejaVuSans-66" transform="scale(0.015625)"/>
       <path d="M 2834 3397 
L 2834 2853 
Q 2591 2978 2328 3040 
Q 2066 3103 1784 3103 
Q 1356 3103 1142 2972 
Q 928 2841 928 2578 
Q 928 2378 1081 2264 
Q 1234 2150 1697 2047 
L 1894 2003 
Q 2506 1872 2764 1633 
Q 3022 1394 3022 966 
Q 3022 478 2636 193 
Q 2250 -91 1575 -91 
Q 1294 -91 989 -36 
Q 684 19 347 128 
L 347 722 
Q 666 556 975 473 
Q 1284 391 1588 391 
Q 1994 391 2212 530 
Q 2431 669 2431 922 
Q 2431 1156 2273 1281 
Q 2116 1406 1581 1522 
L 1381 1569 
Q 847 1681 609 1914 
Q 372 2147 372 2553 
Q 372 3047 722 3315 
Q 1072 3584 1716 3584 
Q 2034 3584 2315 3537 
Q 2597 3491 2834 3397 
z
" id="DejaVuSans-73" transform="scale(0.015625)"/>
       <path d="M 1625 4666 
L 2156 4666 
L 531 -594 
L 0 -594 
L 1625 4666 
z
" id="DejaVuSans-2f" transform="scale(0.015625)"/>
       <path d="M 353 3500 
L 3084 3500 
L 3084 2975 
L 922 459 
L 3084 459 
L 3084 0 
L 275 0 
L 275 525 
L 2438 3041 
L 353 3041 
L 353 3500 
z
" id="DejaVuSans-7a" transform="scale(0.015625)"/>
      </defs>
      <use xlink:href="#DejaVuSans-41"/>
      <use x="62.533203" xlink:href="#DejaVuSans-76"/>
      <use x="121.712891" xlink:href="#DejaVuSans-67"/>
      <use x="185.189453" xlink:href="#DejaVuSans-2e"/>
      <use x="216.976562" xlink:href="#DejaVuSans-20"/>
      <use x="248.763672" xlink:href="#DejaVuSans-6e"/>
      <use x="312.142578" xlink:href="#DejaVuSans-75"/>
      <use x="375.521484" xlink:href="#DejaVuSans-6d"/>
      <use x="472.933594" xlink:href="#DejaVuSans-62"/>
      <use x="536.410156" xlink:href="#DejaVuSans-65"/>
      <use x="597.933594" xlink:href="#DejaVuSans-72"/>
      <use x="639.046875" xlink:href="#DejaVuSans-20"/>
      <use x="670.833984" xlink:href="#DejaVuSans-6f"/>
      <use x="732.015625" xlink:href="#DejaVuSans-66"/>
      <use x="767.220703" xlink:href="#DejaVuSans-20"/>
      <use x="799.007812" xlink:href="#DejaVuSans-70"/>
      <use x="862.484375" xlink:href="#DejaVuSans-6f"/>
      <use x="923.666016" xlink:href="#DejaVuSans-69"/>
      <use x="951.449219" xlink:href="#DejaVuSans-6e"/>
      <use x="1014.828125" xlink:href="#DejaVuSans-74"/>
      <use x="1054.037109" xlink:href="#DejaVuSans-65"/>
      <use x="1115.560547" xlink:href="#DejaVuSans-72"/>
      <use x="1156.673828" xlink:href="#DejaVuSans-20"/>
      <use x="1188.460938" xlink:href="#DejaVuSans-75"/>
      <use x="1251.839844" xlink:href="#DejaVuSans-70"/>
      <use x="1315.316406" xlink:href="#DejaVuSans-64"/>
      <use x="1378.792969" xlink:href="#DejaVuSans-61"/>
      <use x="1440.072266" xlink:href="#DejaVuSans-74"/>
      <use x="1479.28125" xlink:href="#DejaVuSans-65"/>
      <use x="1540.804688" xlink:href="#DejaVuSans-73"/>
      <use x="1592.904297" xlink:href="#DejaVuSans-20"/>
      <use x="1624.691406" xlink:href="#DejaVuSans-2f"/>
      <use x="1658.382812" xlink:href="#DejaVuSans-20"/>
      <use x="1690.169922" xlink:href="#DejaVuSans-73"/>
      <use x="1742.269531" xlink:href="#DejaVuSans-69"/>
      <use x="1770.052734" xlink:href="#DejaVuSans-7a"/>
      <use x="1822.542969" xlink:href="#DejaVuSans-65"/>
     </g>
    </g>
   </g>
   <g id="line2d_21">
    <path clip-path="url(#p38b14c7a51)" d="M 172.876506 959.155495 
L 215.594209 938.842362 
L 258.311912 916.076044 
L 301.029616 893.290095 
L 343.747319 869.554283 
L 386.465022 845.62267 
L 429.182726 820.306141 
L 471.900429 795.37083 
L 514.618132 771.744 
L 557.335836 746.666725 
L 600.053539 720.520135 
L 642.771243 694.050701 
L 685.488946 669.611698 
L 728.206649 642.959028 
L 770.924353 618.247003 
L 813.642056 591.110763 
L 856.359759 562.231423 
L 899.077463 532.474294 
L 941.795166 505.797803 
L 984.512869 481.943499 
" style="fill:none;stroke:#fe0002;stroke-dasharray:5.55,2.4;stroke-dashoffset:0;stroke-width:1.5;"/>
    <defs>
     <path d="M 0 4.5 
C 1.193414 4.5 2.338109 4.025852 3.181981 3.181981 
C 4.025852 2.338109 4.5 1.193414 4.5 0 
C 4.5 -1.193414 4.025852 -2.338109 3.181981 -3.181981 
C 2.338109 -4.025852 1.193414 -4.5 0 -4.5 
C -1.193414 -4.5 -2.338109 -4.025852 -3.181981 -3.181981 
C -4.025852 -2.338109 -4.5 -1.193414 -4.5 0 
C -4.5 1.193414 -4.025852 2.338109 -3.181981 3.181981 
C -2.338109 4.025852 -1.193414 4.5 0 4.5 
z
" id="m4d29e6c18b" style="stroke:#000000;"/>
    </defs>
    <g clip-path="url(#p38b14c7a51)">
     <use style="fill:#fe0002;stroke:#000000;" x="172.876506" xlink:href="#m4d29e6c18b" y="959.155495"/>
     <use style="fill:#fe0002;stroke:#000000;" x="215.594209" xlink:href="#m4d29e6c18b" y="938.842362"/>
     <use style="fill:#fe0002;stroke:#000000;" x="258.311912" xlink:href="#m4d29e6c18b" y="916.076044"/>
     <use style="fill:#fe0002;stroke:#000000;" x="301.029616" xlink:href="#m4d29e6c18b" y="893.290095"/>
     <use style="fill:#fe0002;stroke:#000000;" x="343.747319" xlink:href="#m4d29e6c18b" y="869.554283"/>
     <use style="fill:#fe0002;stroke:#000000;" x="386.465022" xlink:href="#m4d29e6c18b" y="845.62267"/>
     <use style="fill:#fe0002;stroke:#000000;" x="429.182726" xlink:href="#m4d29e6c18b" y="820.306141"/>
     <use style="fill:#fe0002;stroke:#000000;" x="471.900429" xlink:href="#m4d29e6c18b" y="795.37083"/>
     <use style="fill:#fe0002;stroke:#000000;" x="514.618132" xlink:href="#m4d29e6c18b" y="771.744"/>
     <use style="fill:#fe0002;stroke:#000000;" x="557.335836" xlink:href="#m4d29e6c18b" y="746.666725"/>
     <use style="fill:#fe0002;stroke:#000000;" x="600.053539" xlink:href="#m4d29e6c18b" y="720.520135"/>
     <use style="fill:#fe0002;stroke:#000000;" x="642.771243" xlink:href="#m4d29e6c18b" y="694.050701"/>
     <use style="fill:#fe0002;stroke:#000000;" x="685.488946" xlink:href="#m4d29e6c18b" y="669.611698"/>
     <use style="fill:#fe0002;stroke:#000000;" x="728.206649" xlink:href="#m4d29e6c18b" y="642.959028"/>
     <use style="fill:#fe0002;stroke:#000000;" x="770.924353" xlink:href="#m4d29e6c18b" y="618.247003"/>
     <use style="fill:#fe0002;stroke:#000000;" x="813.642056" xlink:href="#m4d29e6c18b" y="591.110763"/>
     <use style="fill:#fe0002;stroke:#000000;" x="856.359759" xlink:href="#m4d29e6c18b" y="562.231423"/>
     <use style="fill:#fe0002;stroke:#000000;" x="899.077463" xlink:href="#m4d29e6c18b" y="532.474294"/>
     <use style="fill:#fe0002;stroke:#000000;" x="941.795166" xlink:href="#m4d29e6c18b" y="505.797803"/>
     <use style="fill:#fe0002;stroke:#000000;" x="984.512869" xlink:href="#m4d29e6c18b" y="481.943499"/>
    </g>
   </g>
   <g id="line2d_22">
    <path clip-path="url(#p38b14c7a51)" d="M 172.876506 952.421476 
L 215.594209 922.787639 
L 258.311912 891.569245 
L 301.029616 858.946912 
L 343.747319 825.709778 
L 386.465022 791.314241 
L 429.182726 756.704232 
L 471.900429 721.833765 
L 514.618132 686.604504 
L 557.335836 650.652681 
L 600.053539 614.61561 
L 642.771243 578.010419 
L 685.488946 541.610802 
L 728.206649 504.211501 
L 770.924353 467.136091 
L 813.642056 429.888614 
L 856.359759 392.764428 
L 899.077463 354.645183 
L 941.795166 316.148994 
L 984.512869 278.425975 
" style="fill:none;stroke:#53fca1;stroke-dasharray:5.55,2.4;stroke-dashoffset:0;stroke-width:1.5;"/>
    <defs>
     <path d="M 0 -4.5 
L -4.5 4.5 
L 4.5 4.5 
z
" id="m2aa4d46869" style="stroke:#000000;stroke-linejoin:miter;"/>
    </defs>
    <g clip-path="url(#p38b14c7a51)">
     <use style="fill:#53fca1;stroke:#000000;stroke-linejoin:miter;" x="172.876506" xlink:href="#m2aa4d46869" y="952.421476"/>
     <use style="fill:#53fca1;stroke:#000000;stroke-linejoin:miter;" x="215.594209" xlink:href="#m2aa4d46869" y="922.787639"/>
     <use style="fill:#53fca1;stroke:#000000;stroke-linejoin:miter;" x="258.311912" xlink:href="#m2aa4d46869" y="891.569245"/>
     <use style="fill:#53fca1;stroke:#000000;stroke-linejoin:miter;" x="301.029616" xlink:href="#m2aa4d46869" y="858.946912"/>
     <use style="fill:#53fca1;stroke:#000000;stroke-linejoin:miter;" x="343.747319" xlink:href="#m2aa4d46869" y="825.709778"/>
     <use style="fill:#53fca1;stroke:#000000;stroke-linejoin:miter;" x="386.465022" xlink:href="#m2aa4d46869" y="791.314241"/>
     <use style="fill:#53fca1;stroke:#000000;stroke-linejoin:miter;" x="429.182726" xlink:href="#m2aa4d46869" y="756.704232"/>
     <use style="fill:#53fca1;stroke:#000000;stroke-linejoin:miter;" x="471.900429" xlink:href="#m2aa4d46869" y="721.833765"/>
     <use style="fill:#53fca1;stroke:#000000;stroke-linejoin:miter;" x="514.618132" xlink:href="#m2aa4d46869" y="686.604504"/>
     <use style="fill:#53fca1;stroke:#000000;stroke-linejoin:miter;" x="557.335836" xlink:href="#m2aa4d46869" y="650.652681"/>
     <use style="fill:#53fca1;stroke:#000000;stroke-linejoin:miter;" x="600.053539" xlink:href="#m2aa4d46869" y="614.61561"/>
     <use style="fill:#53fca1;stroke:#000000;stroke-linejoin:miter;" x="642.771243" xlink:href="#m2aa4d46869" y="578.010419"/>
     <use style="fill:#53fca1;stroke:#000000;stroke-linejoin:miter;" x="685.488946" xlink:href="#m2aa4d46869" y="541.610802"/>
     <use style="fill:#53fca1;stroke:#000000;stroke-linejoin:miter;" x="728.206649" xlink:href="#m2aa4d46869" y="504.211501"/>
     <use style="fill:#53fca1;stroke:#000000;stroke-linejoin:miter;" x="770.924353" xlink:href="#m2aa4d46869" y="467.136091"/>
     <use style="fill:#53fca1;stroke:#000000;stroke-linejoin:miter;" x="813.642056" xlink:href="#m2aa4d46869" y="429.888614"/>
     <use style="fill:#53fca1;stroke:#000000;stroke-linejoin:miter;" x="856.359759" xlink:href="#m2aa4d46869" y="392.764428"/>
     <use style="fill:#53fca1;stroke:#000000;stroke-linejoin:miter;" x="899.077463" xlink:href="#m2aa4d46869" y="354.645183"/>
     <use style="fill:#53fca1;stroke:#000000;stroke-linejoin:miter;" x="941.795166" xlink:href="#m2aa4d46869" y="316.148994"/>
     <use style="fill:#53fca1;stroke:#000000;stroke-linejoin:miter;" x="984.512869" xlink:href="#m2aa4d46869" y="278.425975"/>
    </g>
   </g>
   <g id="line2d_23">
    <path clip-path="url(#p38b14c7a51)" d="M 172.876506 952.311621 
L 215.594209 922.127552 
L 258.311912 889.984513 
L 301.029616 856.026039 
L 343.747319 821.582687 
L 386.465022 785.239262 
L 429.182726 749.166067 
L 471.900429 712.303124 
L 514.618132 674.849288 
L 557.335836 636.797317 
L 600.053539 598.505218 
L 642.771243 559.414472 
L 685.488946 520.310113 
L 728.206649 480.567569 
L 770.924353 441.395588 
L 813.642056 400.149983 
L 856.359759 361.148848 
L 899.077463 319.95673 
L 941.795166 279.036414 
L 984.512869 237.655301 
" style="fill:none;stroke:#0652ff;stroke-dasharray:5.55,2.4;stroke-dashoffset:0;stroke-width:1.5;"/>
    <defs>
     <path d="M 0 -4.5 
L -4.279754 -1.390576 
L -2.645034 3.640576 
L 2.645034 3.640576 
L 4.279754 -1.390576 
z
" id="mfa30b04e62" style="stroke:#000000;stroke-linejoin:miter;"/>
    </defs>
    <g clip-path="url(#p38b14c7a51)">
     <use style="fill:#0652ff;stroke:#000000;stroke-linejoin:miter;" x="172.876506" xlink:href="#mfa30b04e62" y="952.311621"/>
     <use style="fill:#0652ff;stroke:#000000;stroke-linejoin:miter;" x="215.594209" xlink:href="#mfa30b04e62" y="922.127552"/>
     <use style="fill:#0652ff;stroke:#000000;stroke-linejoin:miter;" x="258.311912" xlink:href="#mfa30b04e62" y="889.984513"/>
     <use style="fill:#0652ff;stroke:#000000;stroke-linejoin:miter;" x="301.029616" xlink:href="#mfa30b04e62" y="856.026039"/>
     <use style="fill:#0652ff;stroke:#000000;stroke-linejoin:miter;" x="343.747319" xlink:href="#mfa30b04e62" y="821.582687"/>
     <use style="fill:#0652ff;stroke:#000000;stroke-linejoin:miter;" x="386.465022" xlink:href="#mfa30b04e62" y="785.239262"/>
     <use style="fill:#0652ff;stroke:#000000;stroke-linejoin:miter;" x="429.182726" xlink:href="#mfa30b04e62" y="749.166067"/>
     <use style="fill:#0652ff;stroke:#000000;stroke-linejoin:miter;" x="471.900429" xlink:href="#mfa30b04e62" y="712.303124"/>
     <use style="fill:#0652ff;stroke:#000000;stroke-linejoin:miter;" x="514.618132" xlink:href="#mfa30b04e62" y="674.849288"/>
     <use style="fill:#0652ff;stroke:#000000;stroke-linejoin:miter;" x="557.335836" xlink:href="#mfa30b04e62" y="636.797317"/>
     <use style="fill:#0652ff;stroke:#000000;stroke-linejoin:miter;" x="600.053539" xlink:href="#mfa30b04e62" y="598.505218"/>
     <use style="fill:#0652ff;stroke:#000000;stroke-linejoin:miter;" x="642.771243" xlink:href="#mfa30b04e62" y="559.414472"/>
     <use style="fill:#0652ff;stroke:#000000;stroke-linejoin:miter;" x="685.488946" xlink:href="#mfa30b04e62" y="520.310113"/>
     <use style="fill:#0652ff;stroke:#000000;stroke-linejoin:miter;" x="728.206649" xlink:href="#mfa30b04e62" y="480.567569"/>
     <use style="fill:#0652ff;stroke:#000000;stroke-linejoin:miter;" x="770.924353" xlink:href="#mfa30b04e62" y="441.395588"/>
     <use style="fill:#0652ff;stroke:#000000;stroke-linejoin:miter;" x="813.642056" xlink:href="#mfa30b04e62" y="400.149983"/>
     <use style="fill:#0652ff;stroke:#000000;stroke-linejoin:miter;" x="856.359759" xlink:href="#mfa30b04e62" y="361.148848"/>
     <use style="fill:#0652ff;stroke:#000000;stroke-linejoin:miter;" x="899.077463" xlink:href="#mfa30b04e62" y="319.95673"/>
     <use style="fill:#0652ff;stroke:#000000;stroke-linejoin:miter;" x="941.795166" xlink:href="#mfa30b04e62" y="279.036414"/>
     <use style="fill:#0652ff;stroke:#000000;stroke-linejoin:miter;" x="984.512869" xlink:href="#mfa30b04e62" y="237.655301"/>
    </g>
   </g>
   <g id="line2d_24">
    <path clip-path="url(#p38b14c7a51)" d="M 172.876506 959.538459 
L 215.594209 937.203794 
L 258.311912 912.810775 
L 301.029616 886.788175 
L 343.747319 860.148767 
L 386.465022 832.298342 
L 429.182726 804.121146 
L 471.900429 774.853083 
L 514.618132 746.029674 
L 557.335836 716.364948 
L 600.053539 686.275987 
L 642.771243 654.870518 
L 685.488946 624.897432 
L 728.206649 593.583755 
L 770.924353 561.977423 
L 813.642056 529.758472 
L 856.359759 497.402617 
L 899.077463 463.972823 
L 941.795166 431.820534 
L 984.512869 399.76222 
" style="fill:none;stroke:#ae7181;stroke-dasharray:5.55,2.4;stroke-dashoffset:0;stroke-width:1.5;"/>
    <defs>
     <path d="M -4.5 4.5 
L 4.5 4.5 
L 4.5 -4.5 
L -4.5 -4.5 
z
" id="m51df6b0f2a" style="stroke:#000000;stroke-linejoin:miter;"/>
    </defs>
    <g clip-path="url(#p38b14c7a51)">
     <use style="fill:#ae7181;stroke:#000000;stroke-linejoin:miter;" x="172.876506" xlink:href="#m51df6b0f2a" y="959.538459"/>
     <use style="fill:#ae7181;stroke:#000000;stroke-linejoin:miter;" x="215.594209" xlink:href="#m51df6b0f2a" y="937.203794"/>
     <use style="fill:#ae7181;stroke:#000000;stroke-linejoin:miter;" x="258.311912" xlink:href="#m51df6b0f2a" y="912.810775"/>
     <use style="fill:#ae7181;stroke:#000000;stroke-linejoin:miter;" x="301.029616" xlink:href="#m51df6b0f2a" y="886.788175"/>
     <use style="fill:#ae7181;stroke:#000000;stroke-linejoin:miter;" x="343.747319" xlink:href="#m51df6b0f2a" y="860.148767"/>
     <use style="fill:#ae7181;stroke:#000000;stroke-linejoin:miter;" x="386.465022" xlink:href="#m51df6b0f2a" y="832.298342"/>
     <use style="fill:#ae7181;stroke:#000000;stroke-linejoin:miter;" x="429.182726" xlink:href="#m51df6b0f2a" y="804.121146"/>
     <use style="fill:#ae7181;stroke:#000000;stroke-linejoin:miter;" x="471.900429" xlink:href="#m51df6b0f2a" y="774.853083"/>
     <use style="fill:#ae7181;stroke:#000000;stroke-linejoin:miter;" x="514.618132" xlink:href="#m51df6b0f2a" y="746.029674"/>
     <use style="fill:#ae7181;stroke:#000000;stroke-linejoin:miter;" x="557.335836" xlink:href="#m51df6b0f2a" y="716.364948"/>
     <use style="fill:#ae7181;stroke:#000000;stroke-linejoin:miter;" x="600.053539" xlink:href="#m51df6b0f2a" y="686.275987"/>
     <use style="fill:#ae7181;stroke:#000000;stroke-linejoin:miter;" x="642.771243" xlink:href="#m51df6b0f2a" y="654.870518"/>
     <use style="fill:#ae7181;stroke:#000000;stroke-linejoin:miter;" x="685.488946" xlink:href="#m51df6b0f2a" y="624.897432"/>
     <use style="fill:#ae7181;stroke:#000000;stroke-linejoin:miter;" x="728.206649" xlink:href="#m51df6b0f2a" y="593.583755"/>
     <use style="fill:#ae7181;stroke:#000000;stroke-linejoin:miter;" x="770.924353" xlink:href="#m51df6b0f2a" y="561.977423"/>
     <use style="fill:#ae7181;stroke:#000000;stroke-linejoin:miter;" x="813.642056" xlink:href="#m51df6b0f2a" y="529.758472"/>
     <use style="fill:#ae7181;stroke:#000000;stroke-linejoin:miter;" x="856.359759" xlink:href="#m51df6b0f2a" y="497.402617"/>
     <use style="fill:#ae7181;stroke:#000000;stroke-linejoin:miter;" x="899.077463" xlink:href="#m51df6b0f2a" y="463.972823"/>
     <use style="fill:#ae7181;stroke:#000000;stroke-linejoin:miter;" x="941.795166" xlink:href="#m51df6b0f2a" y="431.820534"/>
     <use style="fill:#ae7181;stroke:#000000;stroke-linejoin:miter;" x="984.512869" xlink:href="#m51df6b0f2a" y="399.76222"/>
    </g>
   </g>
   <g id="line2d_25">
    <path clip-path="url(#p38b14c7a51)" d="M 172.876506 948.058621 
L 215.594209 911.913266 
L 258.311912 873.192657 
L 301.029616 832.508453 
L 343.747319 790.937909 
L 386.465022 747.557689 
L 429.182726 704.052956 
L 471.900429 659.738145 
L 514.618132 614.255071 
L 557.335836 568.69687 
L 600.053539 522.45991 
L 642.771243 474.863948 
L 685.488946 428.608229 
L 728.206649 380.872484 
L 770.924353 332.681353 
L 813.642056 283.711381 
L 856.359759 236.322563 
L 899.077463 187.524397 
L 941.795166 137.161567 
L 984.512869 87.366422 
" style="fill:none;stroke:#ff81c0;stroke-dasharray:5.55,2.4;stroke-dashoffset:0;stroke-width:1.5;"/>
    <defs>
     <path d="M 0 2.25 
C 0.596707 2.25 1.169055 2.012926 1.59099 1.59099 
C 2.012926 1.169055 2.25 0.596707 2.25 0 
C 2.25 -0.596707 2.012926 -1.169055 1.59099 -1.59099 
C 1.169055 -2.012926 0.596707 -2.25 0 -2.25 
C -0.596707 -2.25 -1.169055 -2.012926 -1.59099 -1.59099 
C -2.012926 -1.169055 -2.25 -0.596707 -2.25 0 
C -2.25 0.596707 -2.012926 1.169055 -1.59099 1.59099 
C -1.169055 2.012926 -0.596707 2.25 0 2.25 
z
" id="m726dcec450" style="stroke:#000000;"/>
    </defs>
    <g clip-path="url(#p38b14c7a51)">
     <use style="fill:#ff81c0;stroke:#000000;" x="172.876506" xlink:href="#m726dcec450" y="948.058621"/>
     <use style="fill:#ff81c0;stroke:#000000;" x="215.594209" xlink:href="#m726dcec450" y="911.913266"/>
     <use style="fill:#ff81c0;stroke:#000000;" x="258.311912" xlink:href="#m726dcec450" y="873.192657"/>
     <use style="fill:#ff81c0;stroke:#000000;" x="301.029616" xlink:href="#m726dcec450" y="832.508453"/>
     <use style="fill:#ff81c0;stroke:#000000;" x="343.747319" xlink:href="#m726dcec450" y="790.937909"/>
     <use style="fill:#ff81c0;stroke:#000000;" x="386.465022" xlink:href="#m726dcec450" y="747.557689"/>
     <use style="fill:#ff81c0;stroke:#000000;" x="429.182726" xlink:href="#m726dcec450" y="704.052956"/>
     <use style="fill:#ff81c0;stroke:#000000;" x="471.900429" xlink:href="#m726dcec450" y="659.738145"/>
     <use style="fill:#ff81c0;stroke:#000000;" x="514.618132" xlink:href="#m726dcec450" y="614.255071"/>
     <use style="fill:#ff81c0;stroke:#000000;" x="557.335836" xlink:href="#m726dcec450" y="568.69687"/>
     <use style="fill:#ff81c0;stroke:#000000;" x="600.053539" xlink:href="#m726dcec450" y="522.45991"/>
     <use style="fill:#ff81c0;stroke:#000000;" x="642.771243" xlink:href="#m726dcec450" y="474.863948"/>
     <use style="fill:#ff81c0;stroke:#000000;" x="685.488946" xlink:href="#m726dcec450" y="428.608229"/>
     <use style="fill:#ff81c0;stroke:#000000;" x="728.206649" xlink:href="#m726dcec450" y="380.872484"/>
     <use style="fill:#ff81c0;stroke:#000000;" x="770.924353" xlink:href="#m726dcec450" y="332.681353"/>
     <use style="fill:#ff81c0;stroke:#000000;" x="813.642056" xlink:href="#m726dcec450" y="283.711381"/>
     <use style="fill:#ff81c0;stroke:#000000;" x="856.359759" xlink:href="#m726dcec450" y="236.322563"/>
     <use style="fill:#ff81c0;stroke:#000000;" x="899.077463" xlink:href="#m726dcec450" y="187.524397"/>
     <use style="fill:#ff81c0;stroke:#000000;" x="941.795166" xlink:href="#m726dcec450" y="137.161567"/>
     <use style="fill:#ff81c0;stroke:#000000;" x="984.512869" xlink:href="#m726dcec450" y="87.366422"/>
    </g>
   </g>
   <g id="line2d_26">
    <path clip-path="url(#p38b14c7a51)" d="M 172.876506 946.18551 
L 215.594209 908.607161 
L 258.311912 867.83544 
L 301.029616 825.915875 
L 343.747319 782.104352 
L 386.465022 737.380923 
L 429.182726 692.072011 
L 471.900429 645.576077 
L 514.618132 598.99856 
L 557.335836 551.702931 
L 600.053539 503.31469 
L 642.771243 455.601283 
L 685.488946 406.640036 
L 728.206649 356.845501 
L 770.924353 308.153175 
L 813.642056 257.574389 
L 856.359759 208.219359 
L 899.077463 157.144526 
L 941.795166 106.340098 
L 984.512869 55.050006 
" style="fill:none;stroke:#f97306;stroke-dasharray:5.55,2.4;stroke-dashoffset:0;stroke-width:1.5;"/>
    <defs>
     <path d="M 4.5 0 
L -4.5 -4.5 
L -4.5 4.5 
z
" id="mb1f98fbf61" style="stroke:#000000;stroke-linejoin:miter;"/>
    </defs>
    <g clip-path="url(#p38b14c7a51)">
     <use style="fill:#f97306;stroke:#000000;stroke-linejoin:miter;" x="172.876506" xlink:href="#mb1f98fbf61" y="946.18551"/>
     <use style="fill:#f97306;stroke:#000000;stroke-linejoin:miter;" x="215.594209" xlink:href="#mb1f98fbf61" y="908.607161"/>
     <use style="fill:#f97306;stroke:#000000;stroke-linejoin:miter;" x="258.311912" xlink:href="#mb1f98fbf61" y="867.83544"/>
     <use style="fill:#f97306;stroke:#000000;stroke-linejoin:miter;" x="301.029616" xlink:href="#mb1f98fbf61" y="825.915875"/>
     <use style="fill:#f97306;stroke:#000000;stroke-linejoin:miter;" x="343.747319" xlink:href="#mb1f98fbf61" y="782.104352"/>
     <use style="fill:#f97306;stroke:#000000;stroke-linejoin:miter;" x="386.465022" xlink:href="#mb1f98fbf61" y="737.380923"/>
     <use style="fill:#f97306;stroke:#000000;stroke-linejoin:miter;" x="429.182726" xlink:href="#mb1f98fbf61" y="692.072011"/>
     <use style="fill:#f97306;stroke:#000000;stroke-linejoin:miter;" x="471.900429" xlink:href="#mb1f98fbf61" y="645.576077"/>
     <use style="fill:#f97306;stroke:#000000;stroke-linejoin:miter;" x="514.618132" xlink:href="#mb1f98fbf61" y="598.99856"/>
     <use style="fill:#f97306;stroke:#000000;stroke-linejoin:miter;" x="557.335836" xlink:href="#mb1f98fbf61" y="551.702931"/>
     <use style="fill:#f97306;stroke:#000000;stroke-linejoin:miter;" x="600.053539" xlink:href="#mb1f98fbf61" y="503.31469"/>
     <use style="fill:#f97306;stroke:#000000;stroke-linejoin:miter;" x="642.771243" xlink:href="#mb1f98fbf61" y="455.601283"/>
     <use style="fill:#f97306;stroke:#000000;stroke-linejoin:miter;" x="685.488946" xlink:href="#mb1f98fbf61" y="406.640036"/>
     <use style="fill:#f97306;stroke:#000000;stroke-linejoin:miter;" x="728.206649" xlink:href="#mb1f98fbf61" y="356.845501"/>
     <use style="fill:#f97306;stroke:#000000;stroke-linejoin:miter;" x="770.924353" xlink:href="#mb1f98fbf61" y="308.153175"/>
     <use style="fill:#f97306;stroke:#000000;stroke-linejoin:miter;" x="813.642056" xlink:href="#mb1f98fbf61" y="257.574389"/>
     <use style="fill:#f97306;stroke:#000000;stroke-linejoin:miter;" x="856.359759" xlink:href="#mb1f98fbf61" y="208.219359"/>
     <use style="fill:#f97306;stroke:#000000;stroke-linejoin:miter;" x="899.077463" xlink:href="#mb1f98fbf61" y="157.144526"/>
     <use style="fill:#f97306;stroke:#000000;stroke-linejoin:miter;" x="941.795166" xlink:href="#mb1f98fbf61" y="106.340098"/>
     <use style="fill:#f97306;stroke:#000000;stroke-linejoin:miter;" x="984.512869" xlink:href="#mb1f98fbf61" y="55.050006"/>
    </g>
   </g>
   <g id="patch_3">
    <path d="M 132.294688 1005.12 
L 132.294688 7.2 
" style="fill:none;stroke:#000000;stroke-linecap:square;stroke-linejoin:miter;stroke-width:0.8;"/>
   </g>
   <g id="patch_4">
    <path d="M 1025.094687 1005.12 
L 1025.094687 7.2 
" style="fill:none;stroke:#000000;stroke-linecap:square;stroke-linejoin:miter;stroke-width:0.8;"/>
   </g>
   <g id="patch_5">
    <path d="M 132.294688 1005.12 
L 1025.094687 1005.12 
" style="fill:none;stroke:#000000;stroke-linecap:square;stroke-linejoin:miter;stroke-width:0.8;"/>
   </g>
   <g id="patch_6">
    <path d="M 132.294688 7.2 
L 1025.094687 7.2 
" style="fill:none;stroke:#000000;stroke-linecap:square;stroke-linejoin:miter;stroke-width:0.8;"/>
   </g>
   <g id="legend_1">
    <g id="patch_7">
     <path d="M 153.294688 295.40625 
L 724.47125 295.40625 
Q 730.47125 295.40625 730.47125 289.40625 
L 730.47125 28.2 
Q 730.47125 22.2 724.47125 22.2 
L 153.294688 22.2 
Q 147.294688 22.2 147.294688 28.2 
L 147.294688 289.40625 
Q 147.294688 295.40625 153.294688 295.40625 
z
" style="fill:#ffffff;opacity:0.8;stroke:#cccccc;stroke-linejoin:miter;"/>
    </g>
    <g id="line2d_27">
     <path d="M 159.294688 46.495312 
L 219.294688 46.495312 
" style="fill:none;stroke:#fe0002;stroke-dasharray:5.55,2.4;stroke-dashoffset:0;stroke-width:1.5;"/>
    </g>
    <g id="line2d_28">
     <g>
      <use style="fill:#fe0002;stroke:#000000;" x="189.294688" xlink:href="#m4d29e6c18b" y="46.495312"/>
     </g>
    </g>
    <g id="text_13">
     <!-- Pairing pointer updates -->
     <g transform="translate(243.294688 56.995312)scale(0.3 -0.3)">
      <defs>
       <path d="M 1259 4147 
L 1259 2394 
L 2053 2394 
Q 2494 2394 2734 2622 
Q 2975 2850 2975 3272 
Q 2975 3691 2734 3919 
Q 2494 4147 2053 4147 
L 1259 4147 
z
M 628 4666 
L 2053 4666 
Q 2838 4666 3239 4311 
Q 3641 3956 3641 3272 
Q 3641 2581 3239 2228 
Q 2838 1875 2053 1875 
L 1259 1875 
L 1259 0 
L 628 0 
L 628 4666 
z
" id="DejaVuSans-50" transform="scale(0.015625)"/>
      </defs>
      <use xlink:href="#DejaVuSans-50"/>
      <use x="55.802734" xlink:href="#DejaVuSans-61"/>
      <use x="117.082031" xlink:href="#DejaVuSans-69"/>
      <use x="144.865234" xlink:href="#DejaVuSans-72"/>
      <use x="185.978516" xlink:href="#DejaVuSans-69"/>
      <use x="213.761719" xlink:href="#DejaVuSans-6e"/>
      <use x="277.140625" xlink:href="#DejaVuSans-67"/>
      <use x="340.617188" xlink:href="#DejaVuSans-20"/>
      <use x="372.404297" xlink:href="#DejaVuSans-70"/>
      <use x="435.880859" xlink:href="#DejaVuSans-6f"/>
      <use x="497.0625" xlink:href="#DejaVuSans-69"/>
      <use x="524.845703" xlink:href="#DejaVuSans-6e"/>
      <use x="588.224609" xlink:href="#DejaVuSans-74"/>
      <use x="627.433594" xlink:href="#DejaVuSans-65"/>
      <use x="688.957031" xlink:href="#DejaVuSans-72"/>
      <use x="730.070312" xlink:href="#DejaVuSans-20"/>
      <use x="761.857422" xlink:href="#DejaVuSans-75"/>
      <use x="825.236328" xlink:href="#DejaVuSans-70"/>
      <use x="888.712891" xlink:href="#DejaVuSans-64"/>
      <use x="952.189453" xlink:href="#DejaVuSans-61"/>
      <use x="1013.46875" xlink:href="#DejaVuSans-74"/>
      <use x="1052.677734" xlink:href="#DejaVuSans-65"/>
      <use x="1114.201172" xlink:href="#DejaVuSans-73"/>
     </g>
    </g>
    <g id="line2d_29">
     <path d="M 159.294688 90.529687 
L 219.294688 90.529687 
" style="fill:none;stroke:#53fca1;stroke-dasharray:5.55,2.4;stroke-dashoffset:0;stroke-width:1.5;"/>
    </g>
    <g id="line2d_30">
     <g>
      <use style="fill:#53fca1;stroke:#000000;stroke-linejoin:miter;" x="189.294688" xlink:href="#m2aa4d46869" y="90.529687"/>
     </g>
    </g>
    <g id="text_14">
     <!-- Smooth pointer updates -->
     <g transform="translate(243.294688 101.029687)scale(0.3 -0.3)">
      <defs>
       <path d="M 3425 4513 
L 3425 3897 
Q 3066 4069 2747 4153 
Q 2428 4238 2131 4238 
Q 1616 4238 1336 4038 
Q 1056 3838 1056 3469 
Q 1056 3159 1242 3001 
Q 1428 2844 1947 2747 
L 2328 2669 
Q 3034 2534 3370 2195 
Q 3706 1856 3706 1288 
Q 3706 609 3251 259 
Q 2797 -91 1919 -91 
Q 1588 -91 1214 -16 
Q 841 59 441 206 
L 441 856 
Q 825 641 1194 531 
Q 1563 422 1919 422 
Q 2459 422 2753 634 
Q 3047 847 3047 1241 
Q 3047 1584 2836 1778 
Q 2625 1972 2144 2069 
L 1759 2144 
Q 1053 2284 737 2584 
Q 422 2884 422 3419 
Q 422 4038 858 4394 
Q 1294 4750 2059 4750 
Q 2388 4750 2728 4690 
Q 3069 4631 3425 4513 
z
" id="DejaVuSans-53" transform="scale(0.015625)"/>
       <path d="M 3513 2113 
L 3513 0 
L 2938 0 
L 2938 2094 
Q 2938 2591 2744 2837 
Q 2550 3084 2163 3084 
Q 1697 3084 1428 2787 
Q 1159 2491 1159 1978 
L 1159 0 
L 581 0 
L 581 4863 
L 1159 4863 
L 1159 2956 
Q 1366 3272 1645 3428 
Q 1925 3584 2291 3584 
Q 2894 3584 3203 3211 
Q 3513 2838 3513 2113 
z
" id="DejaVuSans-68" transform="scale(0.015625)"/>
      </defs>
      <use xlink:href="#DejaVuSans-53"/>
      <use x="63.476562" xlink:href="#DejaVuSans-6d"/>
      <use x="160.888672" xlink:href="#DejaVuSans-6f"/>
      <use x="222.070312" xlink:href="#DejaVuSans-6f"/>
      <use x="283.251953" xlink:href="#DejaVuSans-74"/>
      <use x="322.460938" xlink:href="#DejaVuSans-68"/>
      <use x="385.839844" xlink:href="#DejaVuSans-20"/>
      <use x="417.626953" xlink:href="#DejaVuSans-70"/>
      <use x="481.103516" xlink:href="#DejaVuSans-6f"/>
      <use x="542.285156" xlink:href="#DejaVuSans-69"/>
      <use x="570.068359" xlink:href="#DejaVuSans-6e"/>
      <use x="633.447266" xlink:href="#DejaVuSans-74"/>
      <use x="672.65625" xlink:href="#DejaVuSans-65"/>
      <use x="734.179688" xlink:href="#DejaVuSans-72"/>
      <use x="775.292969" xlink:href="#DejaVuSans-20"/>
      <use x="807.080078" xlink:href="#DejaVuSans-75"/>
      <use x="870.458984" xlink:href="#DejaVuSans-70"/>
      <use x="933.935547" xlink:href="#DejaVuSans-64"/>
      <use x="997.412109" xlink:href="#DejaVuSans-61"/>
      <use x="1058.691406" xlink:href="#DejaVuSans-74"/>
      <use x="1097.900391" xlink:href="#DejaVuSans-65"/>
      <use x="1159.423828" xlink:href="#DejaVuSans-73"/>
     </g>
    </g>
    <g id="line2d_31">
     <path d="M 159.294688 134.564062 
L 219.294688 134.564062 
" style="fill:none;stroke:#0652ff;stroke-dasharray:5.55,2.4;stroke-dashoffset:0;stroke-width:1.5;"/>
    </g>
    <g id="line2d_32">
     <g>
      <use style="fill:#0652ff;stroke:#000000;stroke-linejoin:miter;" x="189.294688" xlink:href="#mfa30b04e62" y="134.564062"/>
     </g>
    </g>
    <g id="text_15">
     <!-- Slim pointer updates -->
     <g transform="translate(243.294688 145.064062)scale(0.3 -0.3)">
      <use xlink:href="#DejaVuSans-53"/>
      <use x="63.476562" xlink:href="#DejaVuSans-6c"/>
      <use x="91.259766" xlink:href="#DejaVuSans-69"/>
      <use x="119.042969" xlink:href="#DejaVuSans-6d"/>
      <use x="216.455078" xlink:href="#DejaVuSans-20"/>
      <use x="248.242188" xlink:href="#DejaVuSans-70"/>
      <use x="311.71875" xlink:href="#DejaVuSans-6f"/>
      <use x="372.900391" xlink:href="#DejaVuSans-69"/>
      <use x="400.683594" xlink:href="#DejaVuSans-6e"/>
      <use x="464.0625" xlink:href="#DejaVuSans-74"/>
      <use x="503.271484" xlink:href="#DejaVuSans-65"/>
      <use x="564.794922" xlink:href="#DejaVuSans-72"/>
      <use x="605.908203" xlink:href="#DejaVuSans-20"/>
      <use x="637.695312" xlink:href="#DejaVuSans-75"/>
      <use x="701.074219" xlink:href="#DejaVuSans-70"/>
      <use x="764.550781" xlink:href="#DejaVuSans-64"/>
      <use x="828.027344" xlink:href="#DejaVuSans-61"/>
      <use x="889.306641" xlink:href="#DejaVuSans-74"/>
      <use x="928.515625" xlink:href="#DejaVuSans-65"/>
      <use x="990.039062" xlink:href="#DejaVuSans-73"/>
     </g>
    </g>
    <g id="line2d_33">
     <path d="M 159.294688 178.598437 
L 219.294688 178.598437 
" style="fill:none;stroke:#ae7181;stroke-dasharray:5.55,2.4;stroke-dashoffset:0;stroke-width:1.5;"/>
    </g>
    <g id="line2d_34">
     <g>
      <use style="fill:#ae7181;stroke:#000000;stroke-linejoin:miter;" x="189.294688" xlink:href="#m51df6b0f2a" y="178.598437"/>
     </g>
    </g>
    <g id="text_16">
     <!-- Pairing Lazy pointer updates -->
     <g transform="translate(243.294688 189.098437)scale(0.3 -0.3)">
      <defs>
       <path d="M 628 4666 
L 1259 4666 
L 1259 531 
L 3531 531 
L 3531 0 
L 628 0 
L 628 4666 
z
" id="DejaVuSans-4c" transform="scale(0.015625)"/>
      </defs>
      <use xlink:href="#DejaVuSans-50"/>
      <use x="55.802734" xlink:href="#DejaVuSans-61"/>
      <use x="117.082031" xlink:href="#DejaVuSans-69"/>
      <use x="144.865234" xlink:href="#DejaVuSans-72"/>
      <use x="185.978516" xlink:href="#DejaVuSans-69"/>
      <use x="213.761719" xlink:href="#DejaVuSans-6e"/>
      <use x="277.140625" xlink:href="#DejaVuSans-67"/>
      <use x="340.617188" xlink:href="#DejaVuSans-20"/>
      <use x="372.404297" xlink:href="#DejaVuSans-4c"/>
      <use x="428.117188" xlink:href="#DejaVuSans-61"/>
      <use x="489.396484" xlink:href="#DejaVuSans-7a"/>
      <use x="541.886719" xlink:href="#DejaVuSans-79"/>
      <use x="601.066406" xlink:href="#DejaVuSans-20"/>
      <use x="632.853516" xlink:href="#DejaVuSans-70"/>
      <use x="696.330078" xlink:href="#DejaVuSans-6f"/>
      <use x="757.511719" xlink:href="#DejaVuSans-69"/>
      <use x="785.294922" xlink:href="#DejaVuSans-6e"/>
      <use x="848.673828" xlink:href="#DejaVuSans-74"/>
      <use x="887.882812" xlink:href="#DejaVuSans-65"/>
      <use x="949.40625" xlink:href="#DejaVuSans-72"/>
      <use x="990.519531" xlink:href="#DejaVuSans-20"/>
      <use x="1022.306641" xlink:href="#DejaVuSans-75"/>
      <use x="1085.685547" xlink:href="#DejaVuSans-70"/>
      <use x="1149.162109" xlink:href="#DejaVuSans-64"/>
      <use x="1212.638672" xlink:href="#DejaVuSans-61"/>
      <use x="1273.917969" xlink:href="#DejaVuSans-74"/>
      <use x="1313.126953" xlink:href="#DejaVuSans-65"/>
      <use x="1374.650391" xlink:href="#DejaVuSans-73"/>
     </g>
    </g>
    <g id="line2d_35">
     <path d="M 159.294688 222.632812 
L 219.294688 222.632812 
" style="fill:none;stroke:#ff81c0;stroke-dasharray:5.55,2.4;stroke-dashoffset:0;stroke-width:1.5;"/>
    </g>
    <g id="line2d_36">
     <g>
      <use style="fill:#ff81c0;stroke:#000000;" x="189.294688" xlink:href="#m726dcec450" y="222.632812"/>
     </g>
    </g>
    <g id="text_17">
     <!-- Pairing Slim pointer updates -->
     <g transform="translate(243.294688 233.132812)scale(0.3 -0.3)">
      <use xlink:href="#DejaVuSans-50"/>
      <use x="55.802734" xlink:href="#DejaVuSans-61"/>
      <use x="117.082031" xlink:href="#DejaVuSans-69"/>
      <use x="144.865234" xlink:href="#DejaVuSans-72"/>
      <use x="185.978516" xlink:href="#DejaVuSans-69"/>
      <use x="213.761719" xlink:href="#DejaVuSans-6e"/>
      <use x="277.140625" xlink:href="#DejaVuSans-67"/>
      <use x="340.617188" xlink:href="#DejaVuSans-20"/>
      <use x="372.404297" xlink:href="#DejaVuSans-53"/>
      <use x="435.880859" xlink:href="#DejaVuSans-6c"/>
      <use x="463.664062" xlink:href="#DejaVuSans-69"/>
      <use x="491.447266" xlink:href="#DejaVuSans-6d"/>
      <use x="588.859375" xlink:href="#DejaVuSans-20"/>
      <use x="620.646484" xlink:href="#DejaVuSans-70"/>
      <use x="684.123047" xlink:href="#DejaVuSans-6f"/>
      <use x="745.304688" xlink:href="#DejaVuSans-69"/>
      <use x="773.087891" xlink:href="#DejaVuSans-6e"/>
      <use x="836.466797" xlink:href="#DejaVuSans-74"/>
      <use x="875.675781" xlink:href="#DejaVuSans-65"/>
      <use x="937.199219" xlink:href="#DejaVuSans-72"/>
      <use x="978.3125" xlink:href="#DejaVuSans-20"/>
      <use x="1010.099609" xlink:href="#DejaVuSans-75"/>
      <use x="1073.478516" xlink:href="#DejaVuSans-70"/>
      <use x="1136.955078" xlink:href="#DejaVuSans-64"/>
      <use x="1200.431641" xlink:href="#DejaVuSans-61"/>
      <use x="1261.710938" xlink:href="#DejaVuSans-74"/>
      <use x="1300.919922" xlink:href="#DejaVuSans-65"/>
      <use x="1362.443359" xlink:href="#DejaVuSans-73"/>
     </g>
    </g>
    <g id="line2d_37">
     <path d="M 159.294688 266.667187 
L 219.294688 266.667187 
" style="fill:none;stroke:#f97306;stroke-dasharray:5.55,2.4;stroke-dashoffset:0;stroke-width:1.5;"/>
    </g>
    <g id="line2d_38">
     <g>
      <use style="fill:#f97306;stroke:#000000;stroke-linejoin:miter;" x="189.294688" xlink:href="#mb1f98fbf61" y="266.667187"/>
     </g>
    </g>
    <g id="text_18">
     <!-- Pairing Smooth pointer updates -->
     <g transform="translate(243.294688 277.167187)scale(0.3 -0.3)">
      <use xlink:href="#DejaVuSans-50"/>
      <use x="55.802734" xlink:href="#DejaVuSans-61"/>
      <use x="117.082031" xlink:href="#DejaVuSans-69"/>
      <use x="144.865234" xlink:href="#DejaVuSans-72"/>
      <use x="185.978516" xlink:href="#DejaVuSans-69"/>
      <use x="213.761719" xlink:href="#DejaVuSans-6e"/>
      <use x="277.140625" xlink:href="#DejaVuSans-67"/>
      <use x="340.617188" xlink:href="#DejaVuSans-20"/>
      <use x="372.404297" xlink:href="#DejaVuSans-53"/>
      <use x="435.880859" xlink:href="#DejaVuSans-6d"/>
      <use x="533.292969" xlink:href="#DejaVuSans-6f"/>
      <use x="594.474609" xlink:href="#DejaVuSans-6f"/>
      <use x="655.65625" xlink:href="#DejaVuSans-74"/>
      <use x="694.865234" xlink:href="#DejaVuSans-68"/>
      <use x="758.244141" xlink:href="#DejaVuSans-20"/>
      <use x="790.03125" xlink:href="#DejaVuSans-70"/>
      <use x="853.507812" xlink:href="#DejaVuSans-6f"/>
      <use x="914.689453" xlink:href="#DejaVuSans-69"/>
      <use x="942.472656" xlink:href="#DejaVuSans-6e"/>
      <use x="1005.851562" xlink:href="#DejaVuSans-74"/>
      <use x="1045.060547" xlink:href="#DejaVuSans-65"/>
      <use x="1106.583984" xlink:href="#DejaVuSans-72"/>
      <use x="1147.697266" xlink:href="#DejaVuSans-20"/>
      <use x="1179.484375" xlink:href="#DejaVuSans-75"/>
      <use x="1242.863281" xlink:href="#DejaVuSans-70"/>
      <use x="1306.339844" xlink:href="#DejaVuSans-64"/>
      <use x="1369.816406" xlink:href="#DejaVuSans-61"/>
      <use x="1431.095703" xlink:href="#DejaVuSans-74"/>
      <use x="1470.304688" xlink:href="#DejaVuSans-65"/>
      <use x="1531.828125" xlink:href="#DejaVuSans-73"/>
     </g>
    </g>
   </g>
  </g>
 </g>
 <defs>
  <clipPath id="p38b14c7a51">
   <rect height="997.92" width="892.8" x="132.294688" y="7.2"/>
  </clipPath>
 </defs>
</svg>
