<?xml version="1.0" encoding="utf-8" standalone="no"?>
<!DOCTYPE svg PUBLIC "-//W3C//DTD SVG 1.1//EN"
  "http://www.w3.org/Graphics/SVG/1.1/DTD/svg11.dtd">
<svg height="1090.099062pt" version="1.1" viewBox="0 0 1014.923768 1090.099062" width="1014.923768pt" xmlns="http://www.w3.org/2000/svg" xmlns:xlink="http://www.w3.org/1999/xlink">
 <metadata>
  <rdf:RDF xmlns:cc="http://creativecommons.org/ns#" xmlns:dc="http://purl.org/dc/elements/1.1/" xmlns:rdf="http://www.w3.org/1999/02/22-rdf-syntax-ns#">
   <cc:Work>
    <dc:type rdf:resource="http://purl.org/dc/dcmitype/StillImage"/>
    <dc:date>2021-06-25T18:24:06.974499</dc:date>
    <dc:format>image/svg+xml</dc:format>
    <dc:creator>
     <cc:Agent>
      <dc:title>Matplotlib v3.4.2, https://matplotlib.org/</dc:title>
     </cc:Agent>
    </dc:creator>
   </cc:Work>
  </rdf:RDF>
 </metadata>
 <defs>
  <style type="text/css">*{stroke-linecap:butt;stroke-linejoin:round;}</style>
 </defs>
 <g id="figure_1">
  <g id="patch_1">
   <path d="M 0 1090.099062 
L 1014.923768 1090.099062 
L 1014.923768 0 
L 0 0 
z
" style="fill:#ffffff;"/>
  </g>
  <g id="axes_1">
   <g id="patch_2">
    <path d="M 94.119688 1005.12 
L 986.919688 1005.12 
L 986.919688 7.2 
L 94.119688 7.2 
z
" style="fill:#ffffff;"/>
   </g>
   <g id="PolyCollection_1">
    <defs>
     <path d="M 134.701506 -137.041306 
L 134.701506 -137.041306 
L 162.688966 -213.112148 
L 190.676427 -225.899451 
L 218.663888 -233.17766 
L 246.651349 -238.692178 
L 274.63881 -242.54171 
L 302.626271 -245.65366 
L 330.613731 -248.3556 
L 358.601192 -250.492421 
L 386.588653 -252.447016 
L 414.576114 -254.213962 
L 442.563575 -255.561135 
L 470.551035 -256.8877 
L 498.538496 -257.959365 
L 526.525957 -259.361857 
L 554.513418 -260.180791 
L 582.500879 -261.180867 
L 610.48834 -261.622332 
L 638.4758 -262.657118 
L 666.463261 -263.229829 
L 694.450722 -263.928364 
L 722.438183 -264.6551 
L 750.425644 -265.16707 
L 778.413104 -265.711579 
L 806.400565 -266.052169 
L 834.388026 -266.362388 
L 862.375487 -266.973063 
L 890.362948 -267.00235 
L 918.350409 -267.781151 
L 946.337869 -268.120656 
L 946.337869 -268.859323 
L 946.337869 -268.859323 
L 918.350409 -268.285527 
L 890.362948 -267.985071 
L 862.375487 -268.049067 
L 834.388026 -267.176983 
L 806.400565 -266.724671 
L 778.413104 -266.01529 
L 750.425644 -265.618297 
L 722.438183 -265.599857 
L 694.450722 -264.67354 
L 666.463261 -264.054187 
L 638.4758 -263.365415 
L 610.48834 -262.726537 
L 582.500879 -261.895672 
L 554.513418 -260.735063 
L 526.525957 -259.833693 
L 498.538496 -259.268575 
L 470.551035 -257.398585 
L 442.563575 -256.253162 
L 414.576114 -254.908157 
L 386.588653 -253.178091 
L 358.601192 -251.002221 
L 330.613731 -248.888178 
L 302.626271 -246.235049 
L 274.63881 -243.266277 
L 246.651349 -239.055546 
L 218.663888 -234.268849 
L 190.676427 -226.690183 
L 162.688966 -214.079683 
L 134.701506 -137.041306 
z
" id="m8019b1e688" style="stroke:#fe0002;stroke-opacity:0.3;"/>
    </defs>
    <g clip-path="url(#p4b8afdce74)">
     <use style="fill:#fe0002;fill-opacity:0.3;stroke:#fe0002;stroke-opacity:0.3;" x="0" xlink:href="#m8019b1e688" y="1090.099062"/>
    </g>
   </g>
   <g id="PolyCollection_2">
    <defs>
     <path d="M 134.701506 -130.341232 
L 134.701506 -130.341232 
L 162.688966 -449.481474 
L 190.676427 -501.045035 
L 218.663888 -530.568965 
L 246.651349 -550.640985 
L 274.63881 -566.237612 
L 302.626271 -578.899093 
L 330.613731 -588.298937 
L 358.601192 -597.167289 
L 386.588653 -604.060436 
L 414.576114 -611.075067 
L 442.563575 -616.895465 
L 470.551035 -621.046539 
L 498.538496 -626.697726 
L 526.525957 -630.886764 
L 554.513418 -633.94231 
L 582.500879 -637.595516 
L 610.48834 -643.22284 
L 638.4758 -643.330224 
L 666.463261 -646.013724 
L 694.450722 -649.633304 
L 722.438183 -652.279926 
L 750.425644 -653.911286 
L 778.413104 -656.215148 
L 806.400565 -658.187098 
L 834.388026 -659.550542 
L 862.375487 -660.253415 
L 890.362948 -662.466164 
L 918.350409 -664.002073 
L 946.337869 -666.482738 
L 946.337869 -668.032747 
L 946.337869 -668.032747 
L 918.350409 -666.579274 
L 890.362948 -665.684413 
L 862.375487 -665.207153 
L 834.388026 -663.063824 
L 806.400565 -661.577811 
L 778.413104 -657.746718 
L 750.425644 -656.550315 
L 722.438183 -655.069725 
L 694.450722 -653.385216 
L 666.463261 -649.968471 
L 638.4758 -647.337035 
L 610.48834 -644.437683 
L 582.500879 -640.625029 
L 554.513418 -638.46543 
L 526.525957 -634.310017 
L 498.538496 -628.979895 
L 470.551035 -624.223569 
L 442.563575 -619.992229 
L 414.576114 -614.118682 
L 386.588653 -607.107304 
L 358.601192 -600.05254 
L 330.613731 -590.988946 
L 302.626271 -580.735457 
L 274.63881 -569.480808 
L 246.651349 -552.13676 
L 218.663888 -533.741657 
L 190.676427 -503.59512 
L 162.688966 -453.455745 
L 134.701506 -130.341232 
z
" id="mefcab3a87e" style="stroke:#53fca1;stroke-opacity:0.3;"/>
    </defs>
    <g clip-path="url(#p4b8afdce74)">
     <use style="fill:#53fca1;fill-opacity:0.3;stroke:#53fca1;stroke-opacity:0.3;" x="0" xlink:href="#mefcab3a87e" y="1090.099062"/>
    </g>
   </g>
   <g id="PolyCollection_3">
    <defs>
     <path d="M 134.701506 -130.339063 
L 134.701506 -130.339063 
L 162.688966 -464.132259 
L 190.676427 -531.654731 
L 218.663888 -570.588267 
L 246.651349 -598.600152 
L 274.63881 -618.47693 
L 302.626271 -635.329617 
L 330.613731 -646.553895 
L 358.601192 -660.450827 
L 386.588653 -670.352879 
L 414.576114 -678.723362 
L 442.563575 -685.933236 
L 470.551035 -694.767962 
L 498.538496 -700.297665 
L 526.525957 -707.322059 
L 554.513418 -712.737871 
L 582.500879 -715.360629 
L 610.48834 -720.587706 
L 638.4758 -725.390674 
L 666.463261 -727.541596 
L 694.450722 -732.019159 
L 722.438183 -734.255771 
L 750.425644 -737.238643 
L 778.413104 -740.245379 
L 806.400565 -742.845359 
L 834.388026 -745.853179 
L 862.375487 -748.302389 
L 890.362948 -749.710304 
L 918.350409 -752.436107 
L 946.337869 -751.870989 
L 946.337869 -758.06994 
L 946.337869 -758.06994 
L 918.350409 -755.700997 
L 890.362948 -755.272548 
L 862.375487 -753.607563 
L 834.388026 -751.026022 
L 806.400565 -748.701551 
L 778.413104 -745.631904 
L 750.425644 -742.19455 
L 722.438183 -740.4634 
L 694.450722 -736.288463 
L 666.463261 -733.189529 
L 638.4758 -731.141652 
L 610.48834 -726.255164 
L 582.500879 -721.200551 
L 554.513418 -717.415015 
L 526.525957 -710.850526 
L 498.538496 -705.892449 
L 470.551035 -699.358332 
L 442.563575 -692.953291 
L 414.576114 -684.670667 
L 386.588653 -675.342411 
L 358.601192 -664.070407 
L 330.613731 -653.060896 
L 302.626271 -640.779054 
L 274.63881 -622.021667 
L 246.651349 -600.485328 
L 218.663888 -575.381472 
L 190.676427 -535.435928 
L 162.688966 -468.772524 
L 134.701506 -130.339063 
z
" id="mddebf22c8b" style="stroke:#0652ff;stroke-opacity:0.3;"/>
    </defs>
    <g clip-path="url(#p4b8afdce74)">
     <use style="fill:#0652ff;fill-opacity:0.3;stroke:#0652ff;stroke-opacity:0.3;" x="0" xlink:href="#mddebf22c8b" y="1090.099062"/>
    </g>
   </g>
   <g id="PolyCollection_4">
    <defs>
     <path d="M 134.701506 -156.105658 
L 134.701506 -156.105658 
L 162.688966 -340.293154 
L 190.676427 -391.816583 
L 218.663888 -424.76485 
L 246.651349 -447.024672 
L 274.63881 -464.801507 
L 302.626271 -479.689837 
L 330.613731 -490.81324 
L 358.601192 -501.716453 
L 386.588653 -512.28233 
L 414.576114 -519.010605 
L 442.563575 -526.868034 
L 470.551035 -532.965025 
L 498.538496 -538.289724 
L 526.525957 -545.341234 
L 554.513418 -548.559483 
L 582.500879 -553.438378 
L 610.48834 -558.558071 
L 638.4758 -561.223132 
L 666.463261 -565.095443 
L 694.450722 -568.700923 
L 722.438183 -571.568819 
L 750.425644 -573.600426 
L 778.413104 -576.397818 
L 806.400565 -578.812318 
L 834.388026 -580.676885 
L 862.375487 -580.905752 
L 890.362948 -584.130509 
L 918.350409 -586.763029 
L 946.337869 -587.756597 
L 946.337869 -591.723275 
L 946.337869 -591.723275 
L 918.350409 -590.574598 
L 890.362948 -588.309784 
L 862.375487 -587.086264 
L 834.388026 -585.564457 
L 806.400565 -582.540366 
L 778.413104 -579.443602 
L 750.425644 -577.249293 
L 722.438183 -575.966115 
L 694.450722 -572.103567 
L 666.463261 -568.128211 
L 638.4758 -564.906709 
L 610.48834 -562.096301 
L 582.500879 -558.636168 
L 554.513418 -553.46441 
L 526.525957 -547.691738 
L 498.538496 -543.07859 
L 470.551035 -536.036842 
L 442.563575 -530.67201 
L 414.576114 -522.537988 
L 386.588653 -514.937628 
L 358.601192 -505.186347 
L 330.613731 -493.634495 
L 302.626271 -482.098914 
L 274.63881 -467.295189 
L 246.651349 -449.736374 
L 218.663888 -426.823574 
L 190.676427 -394.865621 
L 162.688966 -343.512487 
L 134.701506 -156.105658 
z
" id="mc0955ab782" style="stroke:#ae7181;stroke-opacity:0.3;"/>
    </defs>
    <g clip-path="url(#p4b8afdce74)">
     <use style="fill:#ae7181;fill-opacity:0.3;stroke:#ae7181;stroke-opacity:0.3;" x="0" xlink:href="#mc0955ab782" y="1090.099062"/>
    </g>
   </g>
   <g id="PolyCollection_5">
    <defs>
     <path d="M 134.701506 -394.129122 
L 134.701506 -394.129122 
L 162.688966 -714.244492 
L 190.676427 -790.975905 
L 218.663888 -834.221048 
L 246.651349 -861.732895 
L 274.63881 -885.162003 
L 302.626271 -903.565784 
L 330.613731 -916.926884 
L 358.601192 -931.423644 
L 386.588653 -941.766076 
L 414.576114 -952.480555 
L 442.563575 -961.643939 
L 470.551035 -964.315508 
L 498.538496 -972.512442 
L 526.525957 -978.225456 
L 554.513418 -982.71712 
L 582.500879 -985.899574 
L 610.48834 -992.999895 
L 638.4758 -999.115326 
L 666.463261 -1003.015838 
L 694.450722 -1005.681984 
L 722.438183 -1010.417701 
L 750.425644 -1012.091364 
L 778.413104 -1014.728223 
L 806.400565 -1018.998612 
L 834.388026 -1017.584188 
L 862.375487 -1022.204928 
L 890.362948 -1022.289534 
L 918.350409 -1024.384052 
L 946.337869 -1027.320284 
L 946.337869 -1037.539062 
L 946.337869 -1037.539062 
L 918.350409 -1031.613451 
L 890.362948 -1032.00719 
L 862.375487 -1030.805363 
L 834.388026 -1028.671796 
L 806.400565 -1026.849532 
L 778.413104 -1022.069343 
L 750.425644 -1020.491133 
L 722.438183 -1017.996366 
L 694.450722 -1014.463561 
L 666.463261 -1010.427463 
L 638.4758 -1006.350147 
L 610.48834 -1003.410662 
L 582.500879 -997.865773 
L 554.513418 -992.015005 
L 526.525957 -988.087375 
L 498.538496 -978.318739 
L 470.551035 -971.043784 
L 442.563575 -967.952443 
L 414.576114 -957.13709 
L 386.588653 -948.201488 
L 358.601192 -936.348095 
L 330.613731 -923.989241 
L 302.626271 -908.183271 
L 274.63881 -890.94986 
L 246.651349 -867.40903 
L 218.663888 -838.996899 
L 190.676427 -796.534895 
L 162.688966 -722.059618 
L 134.701506 -394.129122 
z
" id="m0694fab07c" style="stroke:#ff9408;stroke-opacity:0.3;"/>
    </defs>
    <g clip-path="url(#p4b8afdce74)">
     <use style="fill:#ff9408;fill-opacity:0.3;stroke:#ff9408;stroke-opacity:0.3;" x="0" xlink:href="#m0694fab07c" y="1090.099062"/>
    </g>
   </g>
   <g id="matplotlib.axis_1">
    <g id="xtick_1">
     <g id="line2d_1">
      <path clip-path="url(#p4b8afdce74)" d="M 134.701506 1005.12 
L 134.701506 7.2 
" style="fill:none;stroke:#b0b0b0;stroke-linecap:square;stroke-width:0.8;"/>
     </g>
     <g id="line2d_2">
      <defs>
       <path d="M 0 0 
L 0 3.5 
" id="me92da7cfa7" style="stroke:#000000;stroke-width:0.8;"/>
      </defs>
      <g>
       <use style="stroke:#000000;stroke-width:0.8;" x="134.701506" xlink:href="#me92da7cfa7" y="1005.12"/>
      </g>
     </g>
     <g id="text_1">
      <!-- 0.00 -->
      <g transform="translate(101.303068 1034.915313)scale(0.3 -0.3)">
       <defs>
        <path d="M 2034 4250 
Q 1547 4250 1301 3770 
Q 1056 3291 1056 2328 
Q 1056 1369 1301 889 
Q 1547 409 2034 409 
Q 2525 409 2770 889 
Q 3016 1369 3016 2328 
Q 3016 3291 2770 3770 
Q 2525 4250 2034 4250 
z
M 2034 4750 
Q 2819 4750 3233 4129 
Q 3647 3509 3647 2328 
Q 3647 1150 3233 529 
Q 2819 -91 2034 -91 
Q 1250 -91 836 529 
Q 422 1150 422 2328 
Q 422 3509 836 4129 
Q 1250 4750 2034 4750 
z
" id="DejaVuSans-30" transform="scale(0.015625)"/>
        <path d="M 684 794 
L 1344 794 
L 1344 0 
L 684 0 
L 684 794 
z
" id="DejaVuSans-2e" transform="scale(0.015625)"/>
       </defs>
       <use xlink:href="#DejaVuSans-30"/>
       <use x="63.623047" xlink:href="#DejaVuSans-2e"/>
       <use x="95.410156" xlink:href="#DejaVuSans-30"/>
       <use x="159.033203" xlink:href="#DejaVuSans-30"/>
      </g>
     </g>
    </g>
    <g id="xtick_2">
     <g id="line2d_3">
      <path clip-path="url(#p4b8afdce74)" d="M 274.63881 1005.12 
L 274.63881 7.2 
" style="fill:none;stroke:#b0b0b0;stroke-linecap:square;stroke-width:0.8;"/>
     </g>
     <g id="line2d_4">
      <g>
       <use style="stroke:#000000;stroke-width:0.8;" x="274.63881" xlink:href="#me92da7cfa7" y="1005.12"/>
      </g>
     </g>
     <g id="text_2">
      <!-- 0.05 -->
      <g transform="translate(241.240372 1034.915313)scale(0.3 -0.3)">
       <defs>
        <path d="M 691 4666 
L 3169 4666 
L 3169 4134 
L 1269 4134 
L 1269 2991 
Q 1406 3038 1543 3061 
Q 1681 3084 1819 3084 
Q 2600 3084 3056 2656 
Q 3513 2228 3513 1497 
Q 3513 744 3044 326 
Q 2575 -91 1722 -91 
Q 1428 -91 1123 -41 
Q 819 9 494 109 
L 494 744 
Q 775 591 1075 516 
Q 1375 441 1709 441 
Q 2250 441 2565 725 
Q 2881 1009 2881 1497 
Q 2881 1984 2565 2268 
Q 2250 2553 1709 2553 
Q 1456 2553 1204 2497 
Q 953 2441 691 2322 
L 691 4666 
z
" id="DejaVuSans-35" transform="scale(0.015625)"/>
       </defs>
       <use xlink:href="#DejaVuSans-30"/>
       <use x="63.623047" xlink:href="#DejaVuSans-2e"/>
       <use x="95.410156" xlink:href="#DejaVuSans-30"/>
       <use x="159.033203" xlink:href="#DejaVuSans-35"/>
      </g>
     </g>
    </g>
    <g id="xtick_3">
     <g id="line2d_5">
      <path clip-path="url(#p4b8afdce74)" d="M 414.576114 1005.12 
L 414.576114 7.2 
" style="fill:none;stroke:#b0b0b0;stroke-linecap:square;stroke-width:0.8;"/>
     </g>
     <g id="line2d_6">
      <g>
       <use style="stroke:#000000;stroke-width:0.8;" x="414.576114" xlink:href="#me92da7cfa7" y="1005.12"/>
      </g>
     </g>
     <g id="text_3">
      <!-- 0.10 -->
      <g transform="translate(381.177676 1034.915313)scale(0.3 -0.3)">
       <defs>
        <path d="M 794 531 
L 1825 531 
L 1825 4091 
L 703 3866 
L 703 4441 
L 1819 4666 
L 2450 4666 
L 2450 531 
L 3481 531 
L 3481 0 
L 794 0 
L 794 531 
z
" id="DejaVuSans-31" transform="scale(0.015625)"/>
       </defs>
       <use xlink:href="#DejaVuSans-30"/>
       <use x="63.623047" xlink:href="#DejaVuSans-2e"/>
       <use x="95.410156" xlink:href="#DejaVuSans-31"/>
       <use x="159.033203" xlink:href="#DejaVuSans-30"/>
      </g>
     </g>
    </g>
    <g id="xtick_4">
     <g id="line2d_7">
      <path clip-path="url(#p4b8afdce74)" d="M 554.513418 1005.12 
L 554.513418 7.2 
" style="fill:none;stroke:#b0b0b0;stroke-linecap:square;stroke-width:0.8;"/>
     </g>
     <g id="line2d_8">
      <g>
       <use style="stroke:#000000;stroke-width:0.8;" x="554.513418" xlink:href="#me92da7cfa7" y="1005.12"/>
      </g>
     </g>
     <g id="text_4">
      <!-- 0.15 -->
      <g transform="translate(521.11498 1034.915313)scale(0.3 -0.3)">
       <use xlink:href="#DejaVuSans-30"/>
       <use x="63.623047" xlink:href="#DejaVuSans-2e"/>
       <use x="95.410156" xlink:href="#DejaVuSans-31"/>
       <use x="159.033203" xlink:href="#DejaVuSans-35"/>
      </g>
     </g>
    </g>
    <g id="xtick_5">
     <g id="line2d_9">
      <path clip-path="url(#p4b8afdce74)" d="M 694.450722 1005.12 
L 694.450722 7.2 
" style="fill:none;stroke:#b0b0b0;stroke-linecap:square;stroke-width:0.8;"/>
     </g>
     <g id="line2d_10">
      <g>
       <use style="stroke:#000000;stroke-width:0.8;" x="694.450722" xlink:href="#me92da7cfa7" y="1005.12"/>
      </g>
     </g>
     <g id="text_5">
      <!-- 0.20 -->
      <g transform="translate(661.052284 1034.915313)scale(0.3 -0.3)">
       <defs>
        <path d="M 1228 531 
L 3431 531 
L 3431 0 
L 469 0 
L 469 531 
Q 828 903 1448 1529 
Q 2069 2156 2228 2338 
Q 2531 2678 2651 2914 
Q 2772 3150 2772 3378 
Q 2772 3750 2511 3984 
Q 2250 4219 1831 4219 
Q 1534 4219 1204 4116 
Q 875 4013 500 3803 
L 500 4441 
Q 881 4594 1212 4672 
Q 1544 4750 1819 4750 
Q 2544 4750 2975 4387 
Q 3406 4025 3406 3419 
Q 3406 3131 3298 2873 
Q 3191 2616 2906 2266 
Q 2828 2175 2409 1742 
Q 1991 1309 1228 531 
z
" id="DejaVuSans-32" transform="scale(0.015625)"/>
       </defs>
       <use xlink:href="#DejaVuSans-30"/>
       <use x="63.623047" xlink:href="#DejaVuSans-2e"/>
       <use x="95.410156" xlink:href="#DejaVuSans-32"/>
       <use x="159.033203" xlink:href="#DejaVuSans-30"/>
      </g>
     </g>
    </g>
    <g id="xtick_6">
     <g id="line2d_11">
      <path clip-path="url(#p4b8afdce74)" d="M 834.388026 1005.12 
L 834.388026 7.2 
" style="fill:none;stroke:#b0b0b0;stroke-linecap:square;stroke-width:0.8;"/>
     </g>
     <g id="line2d_12">
      <g>
       <use style="stroke:#000000;stroke-width:0.8;" x="834.388026" xlink:href="#me92da7cfa7" y="1005.12"/>
      </g>
     </g>
     <g id="text_6">
      <!-- 0.25 -->
      <g transform="translate(800.989589 1034.915313)scale(0.3 -0.3)">
       <use xlink:href="#DejaVuSans-30"/>
       <use x="63.623047" xlink:href="#DejaVuSans-2e"/>
       <use x="95.410156" xlink:href="#DejaVuSans-32"/>
       <use x="159.033203" xlink:href="#DejaVuSans-35"/>
      </g>
     </g>
    </g>
    <g id="xtick_7">
     <g id="line2d_13">
      <path clip-path="url(#p4b8afdce74)" d="M 974.32533 1005.12 
L 974.32533 7.2 
" style="fill:none;stroke:#b0b0b0;stroke-linecap:square;stroke-width:0.8;"/>
     </g>
     <g id="line2d_14">
      <g>
       <use style="stroke:#000000;stroke-width:0.8;" x="974.32533" xlink:href="#me92da7cfa7" y="1005.12"/>
      </g>
     </g>
     <g id="text_7">
      <!-- 0.30 -->
      <g transform="translate(940.926893 1034.915313)scale(0.3 -0.3)">
       <defs>
        <path d="M 2597 2516 
Q 3050 2419 3304 2112 
Q 3559 1806 3559 1356 
Q 3559 666 3084 287 
Q 2609 -91 1734 -91 
Q 1441 -91 1130 -33 
Q 819 25 488 141 
L 488 750 
Q 750 597 1062 519 
Q 1375 441 1716 441 
Q 2309 441 2620 675 
Q 2931 909 2931 1356 
Q 2931 1769 2642 2001 
Q 2353 2234 1838 2234 
L 1294 2234 
L 1294 2753 
L 1863 2753 
Q 2328 2753 2575 2939 
Q 2822 3125 2822 3475 
Q 2822 3834 2567 4026 
Q 2313 4219 1838 4219 
Q 1578 4219 1281 4162 
Q 984 4106 628 3988 
L 628 4550 
Q 988 4650 1302 4700 
Q 1616 4750 1894 4750 
Q 2613 4750 3031 4423 
Q 3450 4097 3450 3541 
Q 3450 3153 3228 2886 
Q 3006 2619 2597 2516 
z
" id="DejaVuSans-33" transform="scale(0.015625)"/>
       </defs>
       <use xlink:href="#DejaVuSans-30"/>
       <use x="63.623047" xlink:href="#DejaVuSans-2e"/>
       <use x="95.410156" xlink:href="#DejaVuSans-33"/>
       <use x="159.033203" xlink:href="#DejaVuSans-30"/>
      </g>
     </g>
    </g>
    <g id="text_8">
     <!-- Locality parameter -->
     <g transform="translate(356.226406 1074.788281)scale(0.39 -0.39)">
      <defs>
       <path d="M 628 4666 
L 1259 4666 
L 1259 531 
L 3531 531 
L 3531 0 
L 628 0 
L 628 4666 
z
" id="DejaVuSans-4c" transform="scale(0.015625)"/>
       <path d="M 1959 3097 
Q 1497 3097 1228 2736 
Q 959 2375 959 1747 
Q 959 1119 1226 758 
Q 1494 397 1959 397 
Q 2419 397 2687 759 
Q 2956 1122 2956 1747 
Q 2956 2369 2687 2733 
Q 2419 3097 1959 3097 
z
M 1959 3584 
Q 2709 3584 3137 3096 
Q 3566 2609 3566 1747 
Q 3566 888 3137 398 
Q 2709 -91 1959 -91 
Q 1206 -91 779 398 
Q 353 888 353 1747 
Q 353 2609 779 3096 
Q 1206 3584 1959 3584 
z
" id="DejaVuSans-6f" transform="scale(0.015625)"/>
       <path d="M 3122 3366 
L 3122 2828 
Q 2878 2963 2633 3030 
Q 2388 3097 2138 3097 
Q 1578 3097 1268 2742 
Q 959 2388 959 1747 
Q 959 1106 1268 751 
Q 1578 397 2138 397 
Q 2388 397 2633 464 
Q 2878 531 3122 666 
L 3122 134 
Q 2881 22 2623 -34 
Q 2366 -91 2075 -91 
Q 1284 -91 818 406 
Q 353 903 353 1747 
Q 353 2603 823 3093 
Q 1294 3584 2113 3584 
Q 2378 3584 2631 3529 
Q 2884 3475 3122 3366 
z
" id="DejaVuSans-63" transform="scale(0.015625)"/>
       <path d="M 2194 1759 
Q 1497 1759 1228 1600 
Q 959 1441 959 1056 
Q 959 750 1161 570 
Q 1363 391 1709 391 
Q 2188 391 2477 730 
Q 2766 1069 2766 1631 
L 2766 1759 
L 2194 1759 
z
M 3341 1997 
L 3341 0 
L 2766 0 
L 2766 531 
Q 2569 213 2275 61 
Q 1981 -91 1556 -91 
Q 1019 -91 701 211 
Q 384 513 384 1019 
Q 384 1609 779 1909 
Q 1175 2209 1959 2209 
L 2766 2209 
L 2766 2266 
Q 2766 2663 2505 2880 
Q 2244 3097 1772 3097 
Q 1472 3097 1187 3025 
Q 903 2953 641 2809 
L 641 3341 
Q 956 3463 1253 3523 
Q 1550 3584 1831 3584 
Q 2591 3584 2966 3190 
Q 3341 2797 3341 1997 
z
" id="DejaVuSans-61" transform="scale(0.015625)"/>
       <path d="M 603 4863 
L 1178 4863 
L 1178 0 
L 603 0 
L 603 4863 
z
" id="DejaVuSans-6c" transform="scale(0.015625)"/>
       <path d="M 603 3500 
L 1178 3500 
L 1178 0 
L 603 0 
L 603 3500 
z
M 603 4863 
L 1178 4863 
L 1178 4134 
L 603 4134 
L 603 4863 
z
" id="DejaVuSans-69" transform="scale(0.015625)"/>
       <path d="M 1172 4494 
L 1172 3500 
L 2356 3500 
L 2356 3053 
L 1172 3053 
L 1172 1153 
Q 1172 725 1289 603 
Q 1406 481 1766 481 
L 2356 481 
L 2356 0 
L 1766 0 
Q 1100 0 847 248 
Q 594 497 594 1153 
L 594 3053 
L 172 3053 
L 172 3500 
L 594 3500 
L 594 4494 
L 1172 4494 
z
" id="DejaVuSans-74" transform="scale(0.015625)"/>
       <path d="M 2059 -325 
Q 1816 -950 1584 -1140 
Q 1353 -1331 966 -1331 
L 506 -1331 
L 506 -850 
L 844 -850 
Q 1081 -850 1212 -737 
Q 1344 -625 1503 -206 
L 1606 56 
L 191 3500 
L 800 3500 
L 1894 763 
L 2988 3500 
L 3597 3500 
L 2059 -325 
z
" id="DejaVuSans-79" transform="scale(0.015625)"/>
       <path id="DejaVuSans-20" transform="scale(0.015625)"/>
       <path d="M 1159 525 
L 1159 -1331 
L 581 -1331 
L 581 3500 
L 1159 3500 
L 1159 2969 
Q 1341 3281 1617 3432 
Q 1894 3584 2278 3584 
Q 2916 3584 3314 3078 
Q 3713 2572 3713 1747 
Q 3713 922 3314 415 
Q 2916 -91 2278 -91 
Q 1894 -91 1617 61 
Q 1341 213 1159 525 
z
M 3116 1747 
Q 3116 2381 2855 2742 
Q 2594 3103 2138 3103 
Q 1681 3103 1420 2742 
Q 1159 2381 1159 1747 
Q 1159 1113 1420 752 
Q 1681 391 2138 391 
Q 2594 391 2855 752 
Q 3116 1113 3116 1747 
z
" id="DejaVuSans-70" transform="scale(0.015625)"/>
       <path d="M 2631 2963 
Q 2534 3019 2420 3045 
Q 2306 3072 2169 3072 
Q 1681 3072 1420 2755 
Q 1159 2438 1159 1844 
L 1159 0 
L 581 0 
L 581 3500 
L 1159 3500 
L 1159 2956 
Q 1341 3275 1631 3429 
Q 1922 3584 2338 3584 
Q 2397 3584 2469 3576 
Q 2541 3569 2628 3553 
L 2631 2963 
z
" id="DejaVuSans-72" transform="scale(0.015625)"/>
       <path d="M 3328 2828 
Q 3544 3216 3844 3400 
Q 4144 3584 4550 3584 
Q 5097 3584 5394 3201 
Q 5691 2819 5691 2113 
L 5691 0 
L 5113 0 
L 5113 2094 
Q 5113 2597 4934 2840 
Q 4756 3084 4391 3084 
Q 3944 3084 3684 2787 
Q 3425 2491 3425 1978 
L 3425 0 
L 2847 0 
L 2847 2094 
Q 2847 2600 2669 2842 
Q 2491 3084 2119 3084 
Q 1678 3084 1418 2786 
Q 1159 2488 1159 1978 
L 1159 0 
L 581 0 
L 581 3500 
L 1159 3500 
L 1159 2956 
Q 1356 3278 1631 3431 
Q 1906 3584 2284 3584 
Q 2666 3584 2933 3390 
Q 3200 3197 3328 2828 
z
" id="DejaVuSans-6d" transform="scale(0.015625)"/>
       <path d="M 3597 1894 
L 3597 1613 
L 953 1613 
Q 991 1019 1311 708 
Q 1631 397 2203 397 
Q 2534 397 2845 478 
Q 3156 559 3463 722 
L 3463 178 
Q 3153 47 2828 -22 
Q 2503 -91 2169 -91 
Q 1331 -91 842 396 
Q 353 884 353 1716 
Q 353 2575 817 3079 
Q 1281 3584 2069 3584 
Q 2775 3584 3186 3129 
Q 3597 2675 3597 1894 
z
M 3022 2063 
Q 3016 2534 2758 2815 
Q 2500 3097 2075 3097 
Q 1594 3097 1305 2825 
Q 1016 2553 972 2059 
L 3022 2063 
z
" id="DejaVuSans-65" transform="scale(0.015625)"/>
      </defs>
      <use xlink:href="#DejaVuSans-4c"/>
      <use x="53.962891" xlink:href="#DejaVuSans-6f"/>
      <use x="115.144531" xlink:href="#DejaVuSans-63"/>
      <use x="170.125" xlink:href="#DejaVuSans-61"/>
      <use x="231.404297" xlink:href="#DejaVuSans-6c"/>
      <use x="259.1875" xlink:href="#DejaVuSans-69"/>
      <use x="286.970703" xlink:href="#DejaVuSans-74"/>
      <use x="326.179688" xlink:href="#DejaVuSans-79"/>
      <use x="385.359375" xlink:href="#DejaVuSans-20"/>
      <use x="417.146484" xlink:href="#DejaVuSans-70"/>
      <use x="480.623047" xlink:href="#DejaVuSans-61"/>
      <use x="541.902344" xlink:href="#DejaVuSans-72"/>
      <use x="583.015625" xlink:href="#DejaVuSans-61"/>
      <use x="644.294922" xlink:href="#DejaVuSans-6d"/>
      <use x="741.707031" xlink:href="#DejaVuSans-65"/>
      <use x="803.230469" xlink:href="#DejaVuSans-74"/>
      <use x="842.439453" xlink:href="#DejaVuSans-65"/>
      <use x="903.962891" xlink:href="#DejaVuSans-72"/>
     </g>
    </g>
   </g>
   <g id="matplotlib.axis_2">
    <g id="ytick_1">
     <g id="line2d_15">
      <path clip-path="url(#p4b8afdce74)" d="M 94.119688 829.586359 
L 986.919688 829.586359 
" style="fill:none;stroke:#b0b0b0;stroke-linecap:square;stroke-width:0.8;"/>
     </g>
     <g id="line2d_16">
      <defs>
       <path d="M 0 0 
L -3.5 0 
" id="m913176328e" style="stroke:#000000;stroke-width:0.8;"/>
      </defs>
      <g>
       <use style="stroke:#000000;stroke-width:0.8;" x="94.119688" xlink:href="#m913176328e" y="829.586359"/>
      </g>
     </g>
     <g id="text_9">
      <!-- 20 -->
      <g transform="translate(48.944688 840.984015)scale(0.3 -0.3)">
       <use xlink:href="#DejaVuSans-32"/>
       <use x="63.623047" xlink:href="#DejaVuSans-30"/>
      </g>
     </g>
    </g>
    <g id="ytick_2">
     <g id="line2d_17">
      <path clip-path="url(#p4b8afdce74)" d="M 94.119688 612.650176 
L 986.919688 612.650176 
" style="fill:none;stroke:#b0b0b0;stroke-linecap:square;stroke-width:0.8;"/>
     </g>
     <g id="line2d_18">
      <g>
       <use style="stroke:#000000;stroke-width:0.8;" x="94.119688" xlink:href="#m913176328e" y="612.650176"/>
      </g>
     </g>
     <g id="text_10">
      <!-- 40 -->
      <g transform="translate(48.944688 624.047832)scale(0.3 -0.3)">
       <defs>
        <path d="M 2419 4116 
L 825 1625 
L 2419 1625 
L 2419 4116 
z
M 2253 4666 
L 3047 4666 
L 3047 1625 
L 3713 1625 
L 3713 1100 
L 3047 1100 
L 3047 0 
L 2419 0 
L 2419 1100 
L 313 1100 
L 313 1709 
L 2253 4666 
z
" id="DejaVuSans-34" transform="scale(0.015625)"/>
       </defs>
       <use xlink:href="#DejaVuSans-34"/>
       <use x="63.623047" xlink:href="#DejaVuSans-30"/>
      </g>
     </g>
    </g>
    <g id="ytick_3">
     <g id="line2d_19">
      <path clip-path="url(#p4b8afdce74)" d="M 94.119688 395.713993 
L 986.919688 395.713993 
" style="fill:none;stroke:#b0b0b0;stroke-linecap:square;stroke-width:0.8;"/>
     </g>
     <g id="line2d_20">
      <g>
       <use style="stroke:#000000;stroke-width:0.8;" x="94.119688" xlink:href="#m913176328e" y="395.713993"/>
      </g>
     </g>
     <g id="text_11">
      <!-- 60 -->
      <g transform="translate(48.944688 407.111649)scale(0.3 -0.3)">
       <defs>
        <path d="M 2113 2584 
Q 1688 2584 1439 2293 
Q 1191 2003 1191 1497 
Q 1191 994 1439 701 
Q 1688 409 2113 409 
Q 2538 409 2786 701 
Q 3034 994 3034 1497 
Q 3034 2003 2786 2293 
Q 2538 2584 2113 2584 
z
M 3366 4563 
L 3366 3988 
Q 3128 4100 2886 4159 
Q 2644 4219 2406 4219 
Q 1781 4219 1451 3797 
Q 1122 3375 1075 2522 
Q 1259 2794 1537 2939 
Q 1816 3084 2150 3084 
Q 2853 3084 3261 2657 
Q 3669 2231 3669 1497 
Q 3669 778 3244 343 
Q 2819 -91 2113 -91 
Q 1303 -91 875 529 
Q 447 1150 447 2328 
Q 447 3434 972 4092 
Q 1497 4750 2381 4750 
Q 2619 4750 2861 4703 
Q 3103 4656 3366 4563 
z
" id="DejaVuSans-36" transform="scale(0.015625)"/>
       </defs>
       <use xlink:href="#DejaVuSans-36"/>
       <use x="63.623047" xlink:href="#DejaVuSans-30"/>
      </g>
     </g>
    </g>
    <g id="ytick_4">
     <g id="line2d_21">
      <path clip-path="url(#p4b8afdce74)" d="M 94.119688 178.77781 
L 986.919688 178.77781 
" style="fill:none;stroke:#b0b0b0;stroke-linecap:square;stroke-width:0.8;"/>
     </g>
     <g id="line2d_22">
      <g>
       <use style="stroke:#000000;stroke-width:0.8;" x="94.119688" xlink:href="#m913176328e" y="178.77781"/>
      </g>
     </g>
     <g id="text_12">
      <!-- 80 -->
      <g transform="translate(48.944688 190.175466)scale(0.3 -0.3)">
       <defs>
        <path d="M 2034 2216 
Q 1584 2216 1326 1975 
Q 1069 1734 1069 1313 
Q 1069 891 1326 650 
Q 1584 409 2034 409 
Q 2484 409 2743 651 
Q 3003 894 3003 1313 
Q 3003 1734 2745 1975 
Q 2488 2216 2034 2216 
z
M 1403 2484 
Q 997 2584 770 2862 
Q 544 3141 544 3541 
Q 544 4100 942 4425 
Q 1341 4750 2034 4750 
Q 2731 4750 3128 4425 
Q 3525 4100 3525 3541 
Q 3525 3141 3298 2862 
Q 3072 2584 2669 2484 
Q 3125 2378 3379 2068 
Q 3634 1759 3634 1313 
Q 3634 634 3220 271 
Q 2806 -91 2034 -91 
Q 1263 -91 848 271 
Q 434 634 434 1313 
Q 434 1759 690 2068 
Q 947 2378 1403 2484 
z
M 1172 3481 
Q 1172 3119 1398 2916 
Q 1625 2713 2034 2713 
Q 2441 2713 2670 2916 
Q 2900 3119 2900 3481 
Q 2900 3844 2670 4047 
Q 2441 4250 2034 4250 
Q 1625 4250 1398 4047 
Q 1172 3844 1172 3481 
z
" id="DejaVuSans-38" transform="scale(0.015625)"/>
       </defs>
       <use xlink:href="#DejaVuSans-38"/>
       <use x="63.623047" xlink:href="#DejaVuSans-30"/>
      </g>
     </g>
    </g>
    <g id="text_13">
     <!-- Avg. number of pointer updates / size -->
     <g transform="translate(36.833906 873.549141)rotate(-90)scale(0.39 -0.39)">
      <defs>
       <path d="M 2188 4044 
L 1331 1722 
L 3047 1722 
L 2188 4044 
z
M 1831 4666 
L 2547 4666 
L 4325 0 
L 3669 0 
L 3244 1197 
L 1141 1197 
L 716 0 
L 50 0 
L 1831 4666 
z
" id="DejaVuSans-41" transform="scale(0.015625)"/>
       <path d="M 191 3500 
L 800 3500 
L 1894 563 
L 2988 3500 
L 3597 3500 
L 2284 0 
L 1503 0 
L 191 3500 
z
" id="DejaVuSans-76" transform="scale(0.015625)"/>
       <path d="M 2906 1791 
Q 2906 2416 2648 2759 
Q 2391 3103 1925 3103 
Q 1463 3103 1205 2759 
Q 947 2416 947 1791 
Q 947 1169 1205 825 
Q 1463 481 1925 481 
Q 2391 481 2648 825 
Q 2906 1169 2906 1791 
z
M 3481 434 
Q 3481 -459 3084 -895 
Q 2688 -1331 1869 -1331 
Q 1566 -1331 1297 -1286 
Q 1028 -1241 775 -1147 
L 775 -588 
Q 1028 -725 1275 -790 
Q 1522 -856 1778 -856 
Q 2344 -856 2625 -561 
Q 2906 -266 2906 331 
L 2906 616 
Q 2728 306 2450 153 
Q 2172 0 1784 0 
Q 1141 0 747 490 
Q 353 981 353 1791 
Q 353 2603 747 3093 
Q 1141 3584 1784 3584 
Q 2172 3584 2450 3431 
Q 2728 3278 2906 2969 
L 2906 3500 
L 3481 3500 
L 3481 434 
z
" id="DejaVuSans-67" transform="scale(0.015625)"/>
       <path d="M 3513 2113 
L 3513 0 
L 2938 0 
L 2938 2094 
Q 2938 2591 2744 2837 
Q 2550 3084 2163 3084 
Q 1697 3084 1428 2787 
Q 1159 2491 1159 1978 
L 1159 0 
L 581 0 
L 581 3500 
L 1159 3500 
L 1159 2956 
Q 1366 3272 1645 3428 
Q 1925 3584 2291 3584 
Q 2894 3584 3203 3211 
Q 3513 2838 3513 2113 
z
" id="DejaVuSans-6e" transform="scale(0.015625)"/>
       <path d="M 544 1381 
L 544 3500 
L 1119 3500 
L 1119 1403 
Q 1119 906 1312 657 
Q 1506 409 1894 409 
Q 2359 409 2629 706 
Q 2900 1003 2900 1516 
L 2900 3500 
L 3475 3500 
L 3475 0 
L 2900 0 
L 2900 538 
Q 2691 219 2414 64 
Q 2138 -91 1772 -91 
Q 1169 -91 856 284 
Q 544 659 544 1381 
z
M 1991 3584 
L 1991 3584 
z
" id="DejaVuSans-75" transform="scale(0.015625)"/>
       <path d="M 3116 1747 
Q 3116 2381 2855 2742 
Q 2594 3103 2138 3103 
Q 1681 3103 1420 2742 
Q 1159 2381 1159 1747 
Q 1159 1113 1420 752 
Q 1681 391 2138 391 
Q 2594 391 2855 752 
Q 3116 1113 3116 1747 
z
M 1159 2969 
Q 1341 3281 1617 3432 
Q 1894 3584 2278 3584 
Q 2916 3584 3314 3078 
Q 3713 2572 3713 1747 
Q 3713 922 3314 415 
Q 2916 -91 2278 -91 
Q 1894 -91 1617 61 
Q 1341 213 1159 525 
L 1159 0 
L 581 0 
L 581 4863 
L 1159 4863 
L 1159 2969 
z
" id="DejaVuSans-62" transform="scale(0.015625)"/>
       <path d="M 2375 4863 
L 2375 4384 
L 1825 4384 
Q 1516 4384 1395 4259 
Q 1275 4134 1275 3809 
L 1275 3500 
L 2222 3500 
L 2222 3053 
L 1275 3053 
L 1275 0 
L 697 0 
L 697 3053 
L 147 3053 
L 147 3500 
L 697 3500 
L 697 3744 
Q 697 4328 969 4595 
Q 1241 4863 1831 4863 
L 2375 4863 
z
" id="DejaVuSans-66" transform="scale(0.015625)"/>
       <path d="M 2906 2969 
L 2906 4863 
L 3481 4863 
L 3481 0 
L 2906 0 
L 2906 525 
Q 2725 213 2448 61 
Q 2172 -91 1784 -91 
Q 1150 -91 751 415 
Q 353 922 353 1747 
Q 353 2572 751 3078 
Q 1150 3584 1784 3584 
Q 2172 3584 2448 3432 
Q 2725 3281 2906 2969 
z
M 947 1747 
Q 947 1113 1208 752 
Q 1469 391 1925 391 
Q 2381 391 2643 752 
Q 2906 1113 2906 1747 
Q 2906 2381 2643 2742 
Q 2381 3103 1925 3103 
Q 1469 3103 1208 2742 
Q 947 2381 947 1747 
z
" id="DejaVuSans-64" transform="scale(0.015625)"/>
       <path d="M 2834 3397 
L 2834 2853 
Q 2591 2978 2328 3040 
Q 2066 3103 1784 3103 
Q 1356 3103 1142 2972 
Q 928 2841 928 2578 
Q 928 2378 1081 2264 
Q 1234 2150 1697 2047 
L 1894 2003 
Q 2506 1872 2764 1633 
Q 3022 1394 3022 966 
Q 3022 478 2636 193 
Q 2250 -91 1575 -91 
Q 1294 -91 989 -36 
Q 684 19 347 128 
L 347 722 
Q 666 556 975 473 
Q 1284 391 1588 391 
Q 1994 391 2212 530 
Q 2431 669 2431 922 
Q 2431 1156 2273 1281 
Q 2116 1406 1581 1522 
L 1381 1569 
Q 847 1681 609 1914 
Q 372 2147 372 2553 
Q 372 3047 722 3315 
Q 1072 3584 1716 3584 
Q 2034 3584 2315 3537 
Q 2597 3491 2834 3397 
z
" id="DejaVuSans-73" transform="scale(0.015625)"/>
       <path d="M 1625 4666 
L 2156 4666 
L 531 -594 
L 0 -594 
L 1625 4666 
z
" id="DejaVuSans-2f" transform="scale(0.015625)"/>
       <path d="M 353 3500 
L 3084 3500 
L 3084 2975 
L 922 459 
L 3084 459 
L 3084 0 
L 275 0 
L 275 525 
L 2438 3041 
L 353 3041 
L 353 3500 
z
" id="DejaVuSans-7a" transform="scale(0.015625)"/>
      </defs>
      <use xlink:href="#DejaVuSans-41"/>
      <use x="62.533203" xlink:href="#DejaVuSans-76"/>
      <use x="121.712891" xlink:href="#DejaVuSans-67"/>
      <use x="185.189453" xlink:href="#DejaVuSans-2e"/>
      <use x="216.976562" xlink:href="#DejaVuSans-20"/>
      <use x="248.763672" xlink:href="#DejaVuSans-6e"/>
      <use x="312.142578" xlink:href="#DejaVuSans-75"/>
      <use x="375.521484" xlink:href="#DejaVuSans-6d"/>
      <use x="472.933594" xlink:href="#DejaVuSans-62"/>
      <use x="536.410156" xlink:href="#DejaVuSans-65"/>
      <use x="597.933594" xlink:href="#DejaVuSans-72"/>
      <use x="639.046875" xlink:href="#DejaVuSans-20"/>
      <use x="670.833984" xlink:href="#DejaVuSans-6f"/>
      <use x="732.015625" xlink:href="#DejaVuSans-66"/>
      <use x="767.220703" xlink:href="#DejaVuSans-20"/>
      <use x="799.007812" xlink:href="#DejaVuSans-70"/>
      <use x="862.484375" xlink:href="#DejaVuSans-6f"/>
      <use x="923.666016" xlink:href="#DejaVuSans-69"/>
      <use x="951.449219" xlink:href="#DejaVuSans-6e"/>
      <use x="1014.828125" xlink:href="#DejaVuSans-74"/>
      <use x="1054.037109" xlink:href="#DejaVuSans-65"/>
      <use x="1115.560547" xlink:href="#DejaVuSans-72"/>
      <use x="1156.673828" xlink:href="#DejaVuSans-20"/>
      <use x="1188.460938" xlink:href="#DejaVuSans-75"/>
      <use x="1251.839844" xlink:href="#DejaVuSans-70"/>
      <use x="1315.316406" xlink:href="#DejaVuSans-64"/>
      <use x="1378.792969" xlink:href="#DejaVuSans-61"/>
      <use x="1440.072266" xlink:href="#DejaVuSans-74"/>
      <use x="1479.28125" xlink:href="#DejaVuSans-65"/>
      <use x="1540.804688" xlink:href="#DejaVuSans-73"/>
      <use x="1592.904297" xlink:href="#DejaVuSans-20"/>
      <use x="1624.691406" xlink:href="#DejaVuSans-2f"/>
      <use x="1658.382812" xlink:href="#DejaVuSans-20"/>
      <use x="1690.169922" xlink:href="#DejaVuSans-73"/>
      <use x="1742.269531" xlink:href="#DejaVuSans-69"/>
      <use x="1770.052734" xlink:href="#DejaVuSans-7a"/>
      <use x="1822.542969" xlink:href="#DejaVuSans-65"/>
     </g>
    </g>
   </g>
   <g id="line2d_23">
    <path clip-path="url(#p4b8afdce74)" d="M 134.701506 953.057757 
L 162.688966 876.535145 
L 190.676427 863.646533 
L 218.663888 856.27157 
L 246.651349 851.189623 
L 274.63881 847.189211 
L 302.626271 844.112189 
L 330.613731 841.457215 
L 358.601192 839.300761 
L 386.588653 837.318941 
L 414.576114 835.586814 
L 442.563575 834.161434 
L 470.551035 832.917414 
L 498.538496 831.594862 
L 526.525957 830.534912 
L 554.513418 829.650572 
L 582.500879 828.551031 
L 610.48834 827.838829 
L 638.4758 827.131943 
L 666.463261 826.451631 
L 694.450722 825.84345 
L 722.438183 825.100227 
L 750.425644 824.7233 
L 778.413104 824.209487 
L 806.400565 823.731468 
L 834.388026 823.316469 
L 862.375487 822.714797 
L 890.362948 822.608389 
L 918.350409 822.143061 
L 946.337869 821.609724 
" style="fill:none;stroke:#fe0002;stroke-dasharray:5.55,2.4;stroke-dashoffset:0;stroke-width:1.5;"/>
    <defs>
     <path d="M 0 4.5 
C 1.193414 4.5 2.338109 4.025852 3.181981 3.181981 
C 4.025852 2.338109 4.5 1.193414 4.5 0 
C 4.5 -1.193414 4.025852 -2.338109 3.181981 -3.181981 
C 2.338109 -4.025852 1.193414 -4.5 0 -4.5 
C -1.193414 -4.5 -2.338109 -4.025852 -3.181981 -3.181981 
C -4.025852 -2.338109 -4.5 -1.193414 -4.5 0 
C -4.5 1.193414 -4.025852 2.338109 -3.181981 3.181981 
C -2.338109 4.025852 -1.193414 4.5 0 4.5 
z
" id="m789b1551ff" style="stroke:#000000;"/>
    </defs>
    <g clip-path="url(#p4b8afdce74)">
     <use style="fill:#fe0002;stroke:#000000;" x="134.701506" xlink:href="#m789b1551ff" y="953.057757"/>
     <use style="fill:#fe0002;stroke:#000000;" x="162.688966" xlink:href="#m789b1551ff" y="876.535145"/>
     <use style="fill:#fe0002;stroke:#000000;" x="190.676427" xlink:href="#m789b1551ff" y="863.646533"/>
     <use style="fill:#fe0002;stroke:#000000;" x="218.663888" xlink:href="#m789b1551ff" y="856.27157"/>
     <use style="fill:#fe0002;stroke:#000000;" x="246.651349" xlink:href="#m789b1551ff" y="851.189623"/>
     <use style="fill:#fe0002;stroke:#000000;" x="274.63881" xlink:href="#m789b1551ff" y="847.189211"/>
     <use style="fill:#fe0002;stroke:#000000;" x="302.626271" xlink:href="#m789b1551ff" y="844.112189"/>
     <use style="fill:#fe0002;stroke:#000000;" x="330.613731" xlink:href="#m789b1551ff" y="841.457215"/>
     <use style="fill:#fe0002;stroke:#000000;" x="358.601192" xlink:href="#m789b1551ff" y="839.300761"/>
     <use style="fill:#fe0002;stroke:#000000;" x="386.588653" xlink:href="#m789b1551ff" y="837.318941"/>
     <use style="fill:#fe0002;stroke:#000000;" x="414.576114" xlink:href="#m789b1551ff" y="835.586814"/>
     <use style="fill:#fe0002;stroke:#000000;" x="442.563575" xlink:href="#m789b1551ff" y="834.161434"/>
     <use style="fill:#fe0002;stroke:#000000;" x="470.551035" xlink:href="#m789b1551ff" y="832.917414"/>
     <use style="fill:#fe0002;stroke:#000000;" x="498.538496" xlink:href="#m789b1551ff" y="831.594862"/>
     <use style="fill:#fe0002;stroke:#000000;" x="526.525957" xlink:href="#m789b1551ff" y="830.534912"/>
     <use style="fill:#fe0002;stroke:#000000;" x="554.513418" xlink:href="#m789b1551ff" y="829.650572"/>
     <use style="fill:#fe0002;stroke:#000000;" x="582.500879" xlink:href="#m789b1551ff" y="828.551031"/>
     <use style="fill:#fe0002;stroke:#000000;" x="610.48834" xlink:href="#m789b1551ff" y="827.838829"/>
     <use style="fill:#fe0002;stroke:#000000;" x="638.4758" xlink:href="#m789b1551ff" y="827.131943"/>
     <use style="fill:#fe0002;stroke:#000000;" x="666.463261" xlink:href="#m789b1551ff" y="826.451631"/>
     <use style="fill:#fe0002;stroke:#000000;" x="694.450722" xlink:href="#m789b1551ff" y="825.84345"/>
     <use style="fill:#fe0002;stroke:#000000;" x="722.438183" xlink:href="#m789b1551ff" y="825.100227"/>
     <use style="fill:#fe0002;stroke:#000000;" x="750.425644" xlink:href="#m789b1551ff" y="824.7233"/>
     <use style="fill:#fe0002;stroke:#000000;" x="778.413104" xlink:href="#m789b1551ff" y="824.209487"/>
     <use style="fill:#fe0002;stroke:#000000;" x="806.400565" xlink:href="#m789b1551ff" y="823.731468"/>
     <use style="fill:#fe0002;stroke:#000000;" x="834.388026" xlink:href="#m789b1551ff" y="823.316469"/>
     <use style="fill:#fe0002;stroke:#000000;" x="862.375487" xlink:href="#m789b1551ff" y="822.714797"/>
     <use style="fill:#fe0002;stroke:#000000;" x="890.362948" xlink:href="#m789b1551ff" y="822.608389"/>
     <use style="fill:#fe0002;stroke:#000000;" x="918.350409" xlink:href="#m789b1551ff" y="822.143061"/>
     <use style="fill:#fe0002;stroke:#000000;" x="946.337869" xlink:href="#m789b1551ff" y="821.609724"/>
    </g>
   </g>
   <g id="line2d_24">
    <path clip-path="url(#p4b8afdce74)" d="M 134.701506 959.757831 
L 162.688966 639.073654 
L 190.676427 587.77508 
L 218.663888 558.156241 
L 246.651349 538.635021 
L 274.63881 522.58977 
L 302.626271 510.539399 
L 330.613731 500.479851 
L 358.601192 491.704349 
L 386.588653 484.23003 
L 414.576114 477.658924 
L 442.563575 471.692312 
L 470.551035 467.029811 
L 498.538496 462.232592 
L 526.525957 457.435699 
L 554.513418 453.646041 
L 582.500879 450.546349 
L 610.48834 446.446472 
L 638.4758 444.633861 
L 666.463261 441.935067 
L 694.450722 438.946446 
L 722.438183 436.584987 
L 750.425644 434.717925 
L 778.413104 433.205772 
L 806.400565 430.705365 
L 834.388026 429.290182 
L 862.375487 427.188396 
L 890.362948 425.962381 
L 918.350409 424.820863 
L 946.337869 422.840127 
" style="fill:none;stroke:#53fca1;stroke-dasharray:5.55,2.4;stroke-dashoffset:0;stroke-width:1.5;"/>
    <defs>
     <path d="M 0 -4.5 
L -4.5 4.5 
L 4.5 4.5 
z
" id="mc3819f9322" style="stroke:#000000;stroke-linejoin:miter;"/>
    </defs>
    <g clip-path="url(#p4b8afdce74)">
     <use style="fill:#53fca1;stroke:#000000;stroke-linejoin:miter;" x="134.701506" xlink:href="#mc3819f9322" y="959.757831"/>
     <use style="fill:#53fca1;stroke:#000000;stroke-linejoin:miter;" x="162.688966" xlink:href="#mc3819f9322" y="639.073654"/>
     <use style="fill:#53fca1;stroke:#000000;stroke-linejoin:miter;" x="190.676427" xlink:href="#mc3819f9322" y="587.77508"/>
     <use style="fill:#53fca1;stroke:#000000;stroke-linejoin:miter;" x="218.663888" xlink:href="#mc3819f9322" y="558.156241"/>
     <use style="fill:#53fca1;stroke:#000000;stroke-linejoin:miter;" x="246.651349" xlink:href="#mc3819f9322" y="538.635021"/>
     <use style="fill:#53fca1;stroke:#000000;stroke-linejoin:miter;" x="274.63881" xlink:href="#mc3819f9322" y="522.58977"/>
     <use style="fill:#53fca1;stroke:#000000;stroke-linejoin:miter;" x="302.626271" xlink:href="#mc3819f9322" y="510.539399"/>
     <use style="fill:#53fca1;stroke:#000000;stroke-linejoin:miter;" x="330.613731" xlink:href="#mc3819f9322" y="500.479851"/>
     <use style="fill:#53fca1;stroke:#000000;stroke-linejoin:miter;" x="358.601192" xlink:href="#mc3819f9322" y="491.704349"/>
     <use style="fill:#53fca1;stroke:#000000;stroke-linejoin:miter;" x="386.588653" xlink:href="#mc3819f9322" y="484.23003"/>
     <use style="fill:#53fca1;stroke:#000000;stroke-linejoin:miter;" x="414.576114" xlink:href="#mc3819f9322" y="477.658924"/>
     <use style="fill:#53fca1;stroke:#000000;stroke-linejoin:miter;" x="442.563575" xlink:href="#mc3819f9322" y="471.692312"/>
     <use style="fill:#53fca1;stroke:#000000;stroke-linejoin:miter;" x="470.551035" xlink:href="#mc3819f9322" y="467.029811"/>
     <use style="fill:#53fca1;stroke:#000000;stroke-linejoin:miter;" x="498.538496" xlink:href="#mc3819f9322" y="462.232592"/>
     <use style="fill:#53fca1;stroke:#000000;stroke-linejoin:miter;" x="526.525957" xlink:href="#mc3819f9322" y="457.435699"/>
     <use style="fill:#53fca1;stroke:#000000;stroke-linejoin:miter;" x="554.513418" xlink:href="#mc3819f9322" y="453.646041"/>
     <use style="fill:#53fca1;stroke:#000000;stroke-linejoin:miter;" x="582.500879" xlink:href="#mc3819f9322" y="450.546349"/>
     <use style="fill:#53fca1;stroke:#000000;stroke-linejoin:miter;" x="610.48834" xlink:href="#mc3819f9322" y="446.446472"/>
     <use style="fill:#53fca1;stroke:#000000;stroke-linejoin:miter;" x="638.4758" xlink:href="#mc3819f9322" y="444.633861"/>
     <use style="fill:#53fca1;stroke:#000000;stroke-linejoin:miter;" x="666.463261" xlink:href="#mc3819f9322" y="441.935067"/>
     <use style="fill:#53fca1;stroke:#000000;stroke-linejoin:miter;" x="694.450722" xlink:href="#mc3819f9322" y="438.946446"/>
     <use style="fill:#53fca1;stroke:#000000;stroke-linejoin:miter;" x="722.438183" xlink:href="#mc3819f9322" y="436.584987"/>
     <use style="fill:#53fca1;stroke:#000000;stroke-linejoin:miter;" x="750.425644" xlink:href="#mc3819f9322" y="434.717925"/>
     <use style="fill:#53fca1;stroke:#000000;stroke-linejoin:miter;" x="778.413104" xlink:href="#mc3819f9322" y="433.205772"/>
     <use style="fill:#53fca1;stroke:#000000;stroke-linejoin:miter;" x="806.400565" xlink:href="#mc3819f9322" y="430.705365"/>
     <use style="fill:#53fca1;stroke:#000000;stroke-linejoin:miter;" x="834.388026" xlink:href="#mc3819f9322" y="429.290182"/>
     <use style="fill:#53fca1;stroke:#000000;stroke-linejoin:miter;" x="862.375487" xlink:href="#mc3819f9322" y="427.188396"/>
     <use style="fill:#53fca1;stroke:#000000;stroke-linejoin:miter;" x="890.362948" xlink:href="#mc3819f9322" y="425.962381"/>
     <use style="fill:#53fca1;stroke:#000000;stroke-linejoin:miter;" x="918.350409" xlink:href="#mc3819f9322" y="424.820863"/>
     <use style="fill:#53fca1;stroke:#000000;stroke-linejoin:miter;" x="946.337869" xlink:href="#mc3819f9322" y="422.840127"/>
    </g>
   </g>
   <g id="line2d_25">
    <path clip-path="url(#p4b8afdce74)" d="M 134.701506 959.76 
L 162.688966 623.162578 
L 190.676427 556.065084 
L 218.663888 516.718284 
L 246.651349 490.493628 
L 274.63881 469.683049 
L 302.626271 452.57199 
L 330.613731 439.402662 
L 358.601192 427.634091 
L 386.588653 416.833273 
L 414.576114 407.617607 
L 442.563575 400.242427 
L 470.551035 393.491482 
L 498.538496 386.837724 
L 526.525957 380.634108 
L 554.513418 375.955554 
L 582.500879 370.71904 
L 610.48834 366.06706 
L 638.4758 362.411577 
L 666.463261 359.350174 
L 694.450722 356.088104 
L 722.438183 352.90218 
L 750.425644 349.441614 
L 778.413104 347.346878 
L 806.400565 344.667933 
L 834.388026 342.144857 
L 862.375487 339.875704 
L 890.362948 338.549356 
L 918.350409 336.217184 
L 946.337869 334.493517 
" style="fill:none;stroke:#0652ff;stroke-dasharray:5.55,2.4;stroke-dashoffset:0;stroke-width:1.5;"/>
    <defs>
     <path d="M 0 -4.5 
L -4.279754 -1.390576 
L -2.645034 3.640576 
L 2.645034 3.640576 
L 4.279754 -1.390576 
z
" id="mc321124a5b" style="stroke:#000000;stroke-linejoin:miter;"/>
    </defs>
    <g clip-path="url(#p4b8afdce74)">
     <use style="fill:#0652ff;stroke:#000000;stroke-linejoin:miter;" x="134.701506" xlink:href="#mc321124a5b" y="959.76"/>
     <use style="fill:#0652ff;stroke:#000000;stroke-linejoin:miter;" x="162.688966" xlink:href="#mc321124a5b" y="623.162578"/>
     <use style="fill:#0652ff;stroke:#000000;stroke-linejoin:miter;" x="190.676427" xlink:href="#mc321124a5b" y="556.065084"/>
     <use style="fill:#0652ff;stroke:#000000;stroke-linejoin:miter;" x="218.663888" xlink:href="#mc321124a5b" y="516.718284"/>
     <use style="fill:#0652ff;stroke:#000000;stroke-linejoin:miter;" x="246.651349" xlink:href="#mc321124a5b" y="490.493628"/>
     <use style="fill:#0652ff;stroke:#000000;stroke-linejoin:miter;" x="274.63881" xlink:href="#mc321124a5b" y="469.683049"/>
     <use style="fill:#0652ff;stroke:#000000;stroke-linejoin:miter;" x="302.626271" xlink:href="#mc321124a5b" y="452.57199"/>
     <use style="fill:#0652ff;stroke:#000000;stroke-linejoin:miter;" x="330.613731" xlink:href="#mc321124a5b" y="439.402662"/>
     <use style="fill:#0652ff;stroke:#000000;stroke-linejoin:miter;" x="358.601192" xlink:href="#mc321124a5b" y="427.634091"/>
     <use style="fill:#0652ff;stroke:#000000;stroke-linejoin:miter;" x="386.588653" xlink:href="#mc321124a5b" y="416.833273"/>
     <use style="fill:#0652ff;stroke:#000000;stroke-linejoin:miter;" x="414.576114" xlink:href="#mc321124a5b" y="407.617607"/>
     <use style="fill:#0652ff;stroke:#000000;stroke-linejoin:miter;" x="442.563575" xlink:href="#mc321124a5b" y="400.242427"/>
     <use style="fill:#0652ff;stroke:#000000;stroke-linejoin:miter;" x="470.551035" xlink:href="#mc321124a5b" y="393.491482"/>
     <use style="fill:#0652ff;stroke:#000000;stroke-linejoin:miter;" x="498.538496" xlink:href="#mc321124a5b" y="386.837724"/>
     <use style="fill:#0652ff;stroke:#000000;stroke-linejoin:miter;" x="526.525957" xlink:href="#mc321124a5b" y="380.634108"/>
     <use style="fill:#0652ff;stroke:#000000;stroke-linejoin:miter;" x="554.513418" xlink:href="#mc321124a5b" y="375.955554"/>
     <use style="fill:#0652ff;stroke:#000000;stroke-linejoin:miter;" x="582.500879" xlink:href="#mc321124a5b" y="370.71904"/>
     <use style="fill:#0652ff;stroke:#000000;stroke-linejoin:miter;" x="610.48834" xlink:href="#mc321124a5b" y="366.06706"/>
     <use style="fill:#0652ff;stroke:#000000;stroke-linejoin:miter;" x="638.4758" xlink:href="#mc321124a5b" y="362.411577"/>
     <use style="fill:#0652ff;stroke:#000000;stroke-linejoin:miter;" x="666.463261" xlink:href="#mc321124a5b" y="359.350174"/>
     <use style="fill:#0652ff;stroke:#000000;stroke-linejoin:miter;" x="694.450722" xlink:href="#mc321124a5b" y="356.088104"/>
     <use style="fill:#0652ff;stroke:#000000;stroke-linejoin:miter;" x="722.438183" xlink:href="#mc321124a5b" y="352.90218"/>
     <use style="fill:#0652ff;stroke:#000000;stroke-linejoin:miter;" x="750.425644" xlink:href="#mc321124a5b" y="349.441614"/>
     <use style="fill:#0652ff;stroke:#000000;stroke-linejoin:miter;" x="778.413104" xlink:href="#mc321124a5b" y="347.346878"/>
     <use style="fill:#0652ff;stroke:#000000;stroke-linejoin:miter;" x="806.400565" xlink:href="#mc321124a5b" y="344.667933"/>
     <use style="fill:#0652ff;stroke:#000000;stroke-linejoin:miter;" x="834.388026" xlink:href="#mc321124a5b" y="342.144857"/>
     <use style="fill:#0652ff;stroke:#000000;stroke-linejoin:miter;" x="862.375487" xlink:href="#mc321124a5b" y="339.875704"/>
     <use style="fill:#0652ff;stroke:#000000;stroke-linejoin:miter;" x="890.362948" xlink:href="#mc321124a5b" y="338.549356"/>
     <use style="fill:#0652ff;stroke:#000000;stroke-linejoin:miter;" x="918.350409" xlink:href="#mc321124a5b" y="336.217184"/>
     <use style="fill:#0652ff;stroke:#000000;stroke-linejoin:miter;" x="946.337869" xlink:href="#mc321124a5b" y="334.493517"/>
    </g>
   </g>
   <g id="line2d_26">
    <path clip-path="url(#p4b8afdce74)" d="M 134.701506 933.993405 
L 162.688966 747.68796 
L 190.676427 696.498614 
L 218.663888 663.945387 
L 246.651349 642.130501 
L 274.63881 624.143997 
L 302.626271 608.90705 
L 330.613731 597.421039 
L 358.601192 586.568698 
L 386.588653 576.598202 
L 414.576114 568.953588 
L 442.563575 561.684165 
L 470.551035 555.779813 
L 498.538496 549.825349 
L 526.525957 543.731394 
L 554.513418 539.548973 
L 582.500879 534.67637 
L 610.48834 529.865268 
L 638.4758 526.851915 
L 666.463261 523.870453 
L 694.450722 520.092509 
L 722.438183 516.790307 
L 750.425644 514.725508 
L 778.413104 512.076392 
L 806.400565 509.950417 
L 834.388026 507.189362 
L 862.375487 505.797066 
L 890.362948 503.539194 
L 918.350409 501.633627 
L 946.337869 500.676396 
" style="fill:none;stroke:#ae7181;stroke-dasharray:5.55,2.4;stroke-dashoffset:0;stroke-width:1.5;"/>
    <defs>
     <path d="M -4.5 4.5 
L 4.5 4.5 
L 4.5 -4.5 
L -4.5 -4.5 
z
" id="me60d292e0c" style="stroke:#000000;stroke-linejoin:miter;"/>
    </defs>
    <g clip-path="url(#p4b8afdce74)">
     <use style="fill:#ae7181;stroke:#000000;stroke-linejoin:miter;" x="134.701506" xlink:href="#me60d292e0c" y="933.993405"/>
     <use style="fill:#ae7181;stroke:#000000;stroke-linejoin:miter;" x="162.688966" xlink:href="#me60d292e0c" y="747.68796"/>
     <use style="fill:#ae7181;stroke:#000000;stroke-linejoin:miter;" x="190.676427" xlink:href="#me60d292e0c" y="696.498614"/>
     <use style="fill:#ae7181;stroke:#000000;stroke-linejoin:miter;" x="218.663888" xlink:href="#me60d292e0c" y="663.945387"/>
     <use style="fill:#ae7181;stroke:#000000;stroke-linejoin:miter;" x="246.651349" xlink:href="#me60d292e0c" y="642.130501"/>
     <use style="fill:#ae7181;stroke:#000000;stroke-linejoin:miter;" x="274.63881" xlink:href="#me60d292e0c" y="624.143997"/>
     <use style="fill:#ae7181;stroke:#000000;stroke-linejoin:miter;" x="302.626271" xlink:href="#me60d292e0c" y="608.90705"/>
     <use style="fill:#ae7181;stroke:#000000;stroke-linejoin:miter;" x="330.613731" xlink:href="#me60d292e0c" y="597.421039"/>
     <use style="fill:#ae7181;stroke:#000000;stroke-linejoin:miter;" x="358.601192" xlink:href="#me60d292e0c" y="586.568698"/>
     <use style="fill:#ae7181;stroke:#000000;stroke-linejoin:miter;" x="386.588653" xlink:href="#me60d292e0c" y="576.598202"/>
     <use style="fill:#ae7181;stroke:#000000;stroke-linejoin:miter;" x="414.576114" xlink:href="#me60d292e0c" y="568.953588"/>
     <use style="fill:#ae7181;stroke:#000000;stroke-linejoin:miter;" x="442.563575" xlink:href="#me60d292e0c" y="561.684165"/>
     <use style="fill:#ae7181;stroke:#000000;stroke-linejoin:miter;" x="470.551035" xlink:href="#me60d292e0c" y="555.779813"/>
     <use style="fill:#ae7181;stroke:#000000;stroke-linejoin:miter;" x="498.538496" xlink:href="#me60d292e0c" y="549.825349"/>
     <use style="fill:#ae7181;stroke:#000000;stroke-linejoin:miter;" x="526.525957" xlink:href="#me60d292e0c" y="543.731394"/>
     <use style="fill:#ae7181;stroke:#000000;stroke-linejoin:miter;" x="554.513418" xlink:href="#me60d292e0c" y="539.548973"/>
     <use style="fill:#ae7181;stroke:#000000;stroke-linejoin:miter;" x="582.500879" xlink:href="#me60d292e0c" y="534.67637"/>
     <use style="fill:#ae7181;stroke:#000000;stroke-linejoin:miter;" x="610.48834" xlink:href="#me60d292e0c" y="529.865268"/>
     <use style="fill:#ae7181;stroke:#000000;stroke-linejoin:miter;" x="638.4758" xlink:href="#me60d292e0c" y="526.851915"/>
     <use style="fill:#ae7181;stroke:#000000;stroke-linejoin:miter;" x="666.463261" xlink:href="#me60d292e0c" y="523.870453"/>
     <use style="fill:#ae7181;stroke:#000000;stroke-linejoin:miter;" x="694.450722" xlink:href="#me60d292e0c" y="520.092509"/>
     <use style="fill:#ae7181;stroke:#000000;stroke-linejoin:miter;" x="722.438183" xlink:href="#me60d292e0c" y="516.790307"/>
     <use style="fill:#ae7181;stroke:#000000;stroke-linejoin:miter;" x="750.425644" xlink:href="#me60d292e0c" y="514.725508"/>
     <use style="fill:#ae7181;stroke:#000000;stroke-linejoin:miter;" x="778.413104" xlink:href="#me60d292e0c" y="512.076392"/>
     <use style="fill:#ae7181;stroke:#000000;stroke-linejoin:miter;" x="806.400565" xlink:href="#me60d292e0c" y="509.950417"/>
     <use style="fill:#ae7181;stroke:#000000;stroke-linejoin:miter;" x="834.388026" xlink:href="#me60d292e0c" y="507.189362"/>
     <use style="fill:#ae7181;stroke:#000000;stroke-linejoin:miter;" x="862.375487" xlink:href="#me60d292e0c" y="505.797066"/>
     <use style="fill:#ae7181;stroke:#000000;stroke-linejoin:miter;" x="890.362948" xlink:href="#me60d292e0c" y="503.539194"/>
     <use style="fill:#ae7181;stroke:#000000;stroke-linejoin:miter;" x="918.350409" xlink:href="#me60d292e0c" y="501.633627"/>
     <use style="fill:#ae7181;stroke:#000000;stroke-linejoin:miter;" x="946.337869" xlink:href="#me60d292e0c" y="500.676396"/>
    </g>
   </g>
   <g id="line2d_27">
    <path clip-path="url(#p4b8afdce74)" d="M 134.701506 695.96994 
L 162.688966 370.930553 
L 190.676427 297.087537 
L 218.663888 253.613743 
L 246.651349 225.241419 
L 274.63881 201.90722 
L 302.626271 183.855961 
L 330.613731 169.423847 
L 358.601192 156.191716 
L 386.588653 145.024058 
L 414.576114 135.306836 
L 442.563575 126.033899 
L 470.551035 122.43265 
L 498.538496 113.830588 
L 526.525957 107.137239 
L 554.513418 101.359469 
L 582.500879 96.695666 
L 610.48834 92.230035 
L 638.4758 87.431298 
L 666.463261 83.456702 
L 694.450722 80.161658 
L 722.438183 75.716527 
L 750.425644 74.440726 
L 778.413104 71.479005 
L 806.400565 67.299729 
L 834.388026 66.40682 
L 862.375487 63.993513 
L 890.362948 62.063106 
L 918.350409 62.153894 
L 946.337869 57.890339 
" style="fill:none;stroke:#ff9408;stroke-dasharray:5.55,2.4;stroke-dashoffset:0;stroke-width:1.5;"/>
    <defs>
     <path d="M -0 4.5 
L 4.5 -4.5 
L -4.5 -4.5 
z
" id="m0585842afb" style="stroke:#000000;stroke-linejoin:miter;"/>
    </defs>
    <g clip-path="url(#p4b8afdce74)">
     <use style="fill:#ff9408;stroke:#000000;stroke-linejoin:miter;" x="134.701506" xlink:href="#m0585842afb" y="695.96994"/>
     <use style="fill:#ff9408;stroke:#000000;stroke-linejoin:miter;" x="162.688966" xlink:href="#m0585842afb" y="370.930553"/>
     <use style="fill:#ff9408;stroke:#000000;stroke-linejoin:miter;" x="190.676427" xlink:href="#m0585842afb" y="297.087537"/>
     <use style="fill:#ff9408;stroke:#000000;stroke-linejoin:miter;" x="218.663888" xlink:href="#m0585842afb" y="253.613743"/>
     <use style="fill:#ff9408;stroke:#000000;stroke-linejoin:miter;" x="246.651349" xlink:href="#m0585842afb" y="225.241419"/>
     <use style="fill:#ff9408;stroke:#000000;stroke-linejoin:miter;" x="274.63881" xlink:href="#m0585842afb" y="201.90722"/>
     <use style="fill:#ff9408;stroke:#000000;stroke-linejoin:miter;" x="302.626271" xlink:href="#m0585842afb" y="183.855961"/>
     <use style="fill:#ff9408;stroke:#000000;stroke-linejoin:miter;" x="330.613731" xlink:href="#m0585842afb" y="169.423847"/>
     <use style="fill:#ff9408;stroke:#000000;stroke-linejoin:miter;" x="358.601192" xlink:href="#m0585842afb" y="156.191716"/>
     <use style="fill:#ff9408;stroke:#000000;stroke-linejoin:miter;" x="386.588653" xlink:href="#m0585842afb" y="145.024058"/>
     <use style="fill:#ff9408;stroke:#000000;stroke-linejoin:miter;" x="414.576114" xlink:href="#m0585842afb" y="135.306836"/>
     <use style="fill:#ff9408;stroke:#000000;stroke-linejoin:miter;" x="442.563575" xlink:href="#m0585842afb" y="126.033899"/>
     <use style="fill:#ff9408;stroke:#000000;stroke-linejoin:miter;" x="470.551035" xlink:href="#m0585842afb" y="122.43265"/>
     <use style="fill:#ff9408;stroke:#000000;stroke-linejoin:miter;" x="498.538496" xlink:href="#m0585842afb" y="113.830588"/>
     <use style="fill:#ff9408;stroke:#000000;stroke-linejoin:miter;" x="526.525957" xlink:href="#m0585842afb" y="107.137239"/>
     <use style="fill:#ff9408;stroke:#000000;stroke-linejoin:miter;" x="554.513418" xlink:href="#m0585842afb" y="101.359469"/>
     <use style="fill:#ff9408;stroke:#000000;stroke-linejoin:miter;" x="582.500879" xlink:href="#m0585842afb" y="96.695666"/>
     <use style="fill:#ff9408;stroke:#000000;stroke-linejoin:miter;" x="610.48834" xlink:href="#m0585842afb" y="92.230035"/>
     <use style="fill:#ff9408;stroke:#000000;stroke-linejoin:miter;" x="638.4758" xlink:href="#m0585842afb" y="87.431298"/>
     <use style="fill:#ff9408;stroke:#000000;stroke-linejoin:miter;" x="666.463261" xlink:href="#m0585842afb" y="83.456702"/>
     <use style="fill:#ff9408;stroke:#000000;stroke-linejoin:miter;" x="694.450722" xlink:href="#m0585842afb" y="80.161658"/>
     <use style="fill:#ff9408;stroke:#000000;stroke-linejoin:miter;" x="722.438183" xlink:href="#m0585842afb" y="75.716527"/>
     <use style="fill:#ff9408;stroke:#000000;stroke-linejoin:miter;" x="750.425644" xlink:href="#m0585842afb" y="74.440726"/>
     <use style="fill:#ff9408;stroke:#000000;stroke-linejoin:miter;" x="778.413104" xlink:href="#m0585842afb" y="71.479005"/>
     <use style="fill:#ff9408;stroke:#000000;stroke-linejoin:miter;" x="806.400565" xlink:href="#m0585842afb" y="67.299729"/>
     <use style="fill:#ff9408;stroke:#000000;stroke-linejoin:miter;" x="834.388026" xlink:href="#m0585842afb" y="66.40682"/>
     <use style="fill:#ff9408;stroke:#000000;stroke-linejoin:miter;" x="862.375487" xlink:href="#m0585842afb" y="63.993513"/>
     <use style="fill:#ff9408;stroke:#000000;stroke-linejoin:miter;" x="890.362948" xlink:href="#m0585842afb" y="62.063106"/>
     <use style="fill:#ff9408;stroke:#000000;stroke-linejoin:miter;" x="918.350409" xlink:href="#m0585842afb" y="62.153894"/>
     <use style="fill:#ff9408;stroke:#000000;stroke-linejoin:miter;" x="946.337869" xlink:href="#m0585842afb" y="57.890339"/>
    </g>
   </g>
   <g id="patch_3">
    <path d="M 94.119688 1005.12 
L 94.119688 7.2 
" style="fill:none;stroke:#000000;stroke-linecap:square;stroke-linejoin:miter;stroke-width:0.8;"/>
   </g>
   <g id="patch_4">
    <path d="M 986.919688 1005.12 
L 986.919688 7.2 
" style="fill:none;stroke:#000000;stroke-linecap:square;stroke-linejoin:miter;stroke-width:0.8;"/>
   </g>
   <g id="patch_5">
    <path d="M 94.119688 1005.12 
L 986.919687 1005.12 
" style="fill:none;stroke:#000000;stroke-linecap:square;stroke-linejoin:miter;stroke-width:0.8;"/>
   </g>
   <g id="patch_6">
    <path d="M 94.119688 7.2 
L 986.919687 7.2 
" style="fill:none;stroke:#000000;stroke-linecap:square;stroke-linejoin:miter;stroke-width:0.8;"/>
   </g>
   <g id="legend_1">
    <g id="patch_7">
     <path d="M 121.419688 324.623437 
L 802.652188 324.623437 
Q 810.452188 324.623437 810.452188 316.823437 
L 810.452188 34.5 
Q 810.452188 26.7 802.652188 26.7 
L 121.419688 26.7 
Q 113.619688 26.7 113.619688 34.5 
L 113.619688 316.823437 
Q 113.619688 324.623437 121.419688 324.623437 
z
" style="fill:#ffffff;opacity:0.8;stroke:#cccccc;stroke-linejoin:miter;"/>
    </g>
    <g id="line2d_28">
     <path d="M 129.219688 58.283906 
L 207.219688 58.283906 
" style="fill:none;stroke:#fe0002;stroke-dasharray:5.55,2.4;stroke-dashoffset:0;stroke-width:1.5;"/>
    </g>
    <g id="line2d_29">
     <g>
      <use style="fill:#fe0002;stroke:#000000;" x="168.219688" xlink:href="#m789b1551ff" y="58.283906"/>
     </g>
    </g>
    <g id="text_14">
     <!-- Pairing pointer updates -->
     <g transform="translate(238.419688 71.933906)scale(0.39 -0.39)">
      <defs>
       <path d="M 1259 4147 
L 1259 2394 
L 2053 2394 
Q 2494 2394 2734 2622 
Q 2975 2850 2975 3272 
Q 2975 3691 2734 3919 
Q 2494 4147 2053 4147 
L 1259 4147 
z
M 628 4666 
L 2053 4666 
Q 2838 4666 3239 4311 
Q 3641 3956 3641 3272 
Q 3641 2581 3239 2228 
Q 2838 1875 2053 1875 
L 1259 1875 
L 1259 0 
L 628 0 
L 628 4666 
z
" id="DejaVuSans-50" transform="scale(0.015625)"/>
      </defs>
      <use xlink:href="#DejaVuSans-50"/>
      <use x="55.802734" xlink:href="#DejaVuSans-61"/>
      <use x="117.082031" xlink:href="#DejaVuSans-69"/>
      <use x="144.865234" xlink:href="#DejaVuSans-72"/>
      <use x="185.978516" xlink:href="#DejaVuSans-69"/>
      <use x="213.761719" xlink:href="#DejaVuSans-6e"/>
      <use x="277.140625" xlink:href="#DejaVuSans-67"/>
      <use x="340.617188" xlink:href="#DejaVuSans-20"/>
      <use x="372.404297" xlink:href="#DejaVuSans-70"/>
      <use x="435.880859" xlink:href="#DejaVuSans-6f"/>
      <use x="497.0625" xlink:href="#DejaVuSans-69"/>
      <use x="524.845703" xlink:href="#DejaVuSans-6e"/>
      <use x="588.224609" xlink:href="#DejaVuSans-74"/>
      <use x="627.433594" xlink:href="#DejaVuSans-65"/>
      <use x="688.957031" xlink:href="#DejaVuSans-72"/>
      <use x="730.070312" xlink:href="#DejaVuSans-20"/>
      <use x="761.857422" xlink:href="#DejaVuSans-75"/>
      <use x="825.236328" xlink:href="#DejaVuSans-70"/>
      <use x="888.712891" xlink:href="#DejaVuSans-64"/>
      <use x="952.189453" xlink:href="#DejaVuSans-61"/>
      <use x="1013.46875" xlink:href="#DejaVuSans-74"/>
      <use x="1052.677734" xlink:href="#DejaVuSans-65"/>
      <use x="1114.201172" xlink:href="#DejaVuSans-73"/>
     </g>
    </g>
    <g id="line2d_30">
     <path d="M 129.219688 115.528594 
L 207.219688 115.528594 
" style="fill:none;stroke:#53fca1;stroke-dasharray:5.55,2.4;stroke-dashoffset:0;stroke-width:1.5;"/>
    </g>
    <g id="line2d_31">
     <g>
      <use style="fill:#53fca1;stroke:#000000;stroke-linejoin:miter;" x="168.219688" xlink:href="#mc3819f9322" y="115.528594"/>
     </g>
    </g>
    <g id="text_15">
     <!-- Smooth pointer updates -->
     <g transform="translate(238.419688 129.178594)scale(0.39 -0.39)">
      <defs>
       <path d="M 3425 4513 
L 3425 3897 
Q 3066 4069 2747 4153 
Q 2428 4238 2131 4238 
Q 1616 4238 1336 4038 
Q 1056 3838 1056 3469 
Q 1056 3159 1242 3001 
Q 1428 2844 1947 2747 
L 2328 2669 
Q 3034 2534 3370 2195 
Q 3706 1856 3706 1288 
Q 3706 609 3251 259 
Q 2797 -91 1919 -91 
Q 1588 -91 1214 -16 
Q 841 59 441 206 
L 441 856 
Q 825 641 1194 531 
Q 1563 422 1919 422 
Q 2459 422 2753 634 
Q 3047 847 3047 1241 
Q 3047 1584 2836 1778 
Q 2625 1972 2144 2069 
L 1759 2144 
Q 1053 2284 737 2584 
Q 422 2884 422 3419 
Q 422 4038 858 4394 
Q 1294 4750 2059 4750 
Q 2388 4750 2728 4690 
Q 3069 4631 3425 4513 
z
" id="DejaVuSans-53" transform="scale(0.015625)"/>
       <path d="M 3513 2113 
L 3513 0 
L 2938 0 
L 2938 2094 
Q 2938 2591 2744 2837 
Q 2550 3084 2163 3084 
Q 1697 3084 1428 2787 
Q 1159 2491 1159 1978 
L 1159 0 
L 581 0 
L 581 4863 
L 1159 4863 
L 1159 2956 
Q 1366 3272 1645 3428 
Q 1925 3584 2291 3584 
Q 2894 3584 3203 3211 
Q 3513 2838 3513 2113 
z
" id="DejaVuSans-68" transform="scale(0.015625)"/>
      </defs>
      <use xlink:href="#DejaVuSans-53"/>
      <use x="63.476562" xlink:href="#DejaVuSans-6d"/>
      <use x="160.888672" xlink:href="#DejaVuSans-6f"/>
      <use x="222.070312" xlink:href="#DejaVuSans-6f"/>
      <use x="283.251953" xlink:href="#DejaVuSans-74"/>
      <use x="322.460938" xlink:href="#DejaVuSans-68"/>
      <use x="385.839844" xlink:href="#DejaVuSans-20"/>
      <use x="417.626953" xlink:href="#DejaVuSans-70"/>
      <use x="481.103516" xlink:href="#DejaVuSans-6f"/>
      <use x="542.285156" xlink:href="#DejaVuSans-69"/>
      <use x="570.068359" xlink:href="#DejaVuSans-6e"/>
      <use x="633.447266" xlink:href="#DejaVuSans-74"/>
      <use x="672.65625" xlink:href="#DejaVuSans-65"/>
      <use x="734.179688" xlink:href="#DejaVuSans-72"/>
      <use x="775.292969" xlink:href="#DejaVuSans-20"/>
      <use x="807.080078" xlink:href="#DejaVuSans-75"/>
      <use x="870.458984" xlink:href="#DejaVuSans-70"/>
      <use x="933.935547" xlink:href="#DejaVuSans-64"/>
      <use x="997.412109" xlink:href="#DejaVuSans-61"/>
      <use x="1058.691406" xlink:href="#DejaVuSans-74"/>
      <use x="1097.900391" xlink:href="#DejaVuSans-65"/>
      <use x="1159.423828" xlink:href="#DejaVuSans-73"/>
     </g>
    </g>
    <g id="line2d_32">
     <path d="M 129.219688 172.773281 
L 207.219688 172.773281 
" style="fill:none;stroke:#0652ff;stroke-dasharray:5.55,2.4;stroke-dashoffset:0;stroke-width:1.5;"/>
    </g>
    <g id="line2d_33">
     <g>
      <use style="fill:#0652ff;stroke:#000000;stroke-linejoin:miter;" x="168.219688" xlink:href="#mc321124a5b" y="172.773281"/>
     </g>
    </g>
    <g id="text_16">
     <!-- Slim pointer updates -->
     <g transform="translate(238.419688 186.423281)scale(0.39 -0.39)">
      <use xlink:href="#DejaVuSans-53"/>
      <use x="63.476562" xlink:href="#DejaVuSans-6c"/>
      <use x="91.259766" xlink:href="#DejaVuSans-69"/>
      <use x="119.042969" xlink:href="#DejaVuSans-6d"/>
      <use x="216.455078" xlink:href="#DejaVuSans-20"/>
      <use x="248.242188" xlink:href="#DejaVuSans-70"/>
      <use x="311.71875" xlink:href="#DejaVuSans-6f"/>
      <use x="372.900391" xlink:href="#DejaVuSans-69"/>
      <use x="400.683594" xlink:href="#DejaVuSans-6e"/>
      <use x="464.0625" xlink:href="#DejaVuSans-74"/>
      <use x="503.271484" xlink:href="#DejaVuSans-65"/>
      <use x="564.794922" xlink:href="#DejaVuSans-72"/>
      <use x="605.908203" xlink:href="#DejaVuSans-20"/>
      <use x="637.695312" xlink:href="#DejaVuSans-75"/>
      <use x="701.074219" xlink:href="#DejaVuSans-70"/>
      <use x="764.550781" xlink:href="#DejaVuSans-64"/>
      <use x="828.027344" xlink:href="#DejaVuSans-61"/>
      <use x="889.306641" xlink:href="#DejaVuSans-74"/>
      <use x="928.515625" xlink:href="#DejaVuSans-65"/>
      <use x="990.039062" xlink:href="#DejaVuSans-73"/>
     </g>
    </g>
    <g id="line2d_34">
     <path d="M 129.219688 230.017969 
L 207.219688 230.017969 
" style="fill:none;stroke:#ae7181;stroke-dasharray:5.55,2.4;stroke-dashoffset:0;stroke-width:1.5;"/>
    </g>
    <g id="line2d_35">
     <g>
      <use style="fill:#ae7181;stroke:#000000;stroke-linejoin:miter;" x="168.219688" xlink:href="#me60d292e0c" y="230.017969"/>
     </g>
    </g>
    <g id="text_17">
     <!-- Pairing Lazy pointer updates -->
     <g transform="translate(238.419688 243.667969)scale(0.39 -0.39)">
      <use xlink:href="#DejaVuSans-50"/>
      <use x="55.802734" xlink:href="#DejaVuSans-61"/>
      <use x="117.082031" xlink:href="#DejaVuSans-69"/>
      <use x="144.865234" xlink:href="#DejaVuSans-72"/>
      <use x="185.978516" xlink:href="#DejaVuSans-69"/>
      <use x="213.761719" xlink:href="#DejaVuSans-6e"/>
      <use x="277.140625" xlink:href="#DejaVuSans-67"/>
      <use x="340.617188" xlink:href="#DejaVuSans-20"/>
      <use x="372.404297" xlink:href="#DejaVuSans-4c"/>
      <use x="428.117188" xlink:href="#DejaVuSans-61"/>
      <use x="489.396484" xlink:href="#DejaVuSans-7a"/>
      <use x="541.886719" xlink:href="#DejaVuSans-79"/>
      <use x="601.066406" xlink:href="#DejaVuSans-20"/>
      <use x="632.853516" xlink:href="#DejaVuSans-70"/>
      <use x="696.330078" xlink:href="#DejaVuSans-6f"/>
      <use x="757.511719" xlink:href="#DejaVuSans-69"/>
      <use x="785.294922" xlink:href="#DejaVuSans-6e"/>
      <use x="848.673828" xlink:href="#DejaVuSans-74"/>
      <use x="887.882812" xlink:href="#DejaVuSans-65"/>
      <use x="949.40625" xlink:href="#DejaVuSans-72"/>
      <use x="990.519531" xlink:href="#DejaVuSans-20"/>
      <use x="1022.306641" xlink:href="#DejaVuSans-75"/>
      <use x="1085.685547" xlink:href="#DejaVuSans-70"/>
      <use x="1149.162109" xlink:href="#DejaVuSans-64"/>
      <use x="1212.638672" xlink:href="#DejaVuSans-61"/>
      <use x="1273.917969" xlink:href="#DejaVuSans-74"/>
      <use x="1313.126953" xlink:href="#DejaVuSans-65"/>
      <use x="1374.650391" xlink:href="#DejaVuSans-73"/>
     </g>
    </g>
    <g id="line2d_36">
     <path d="M 129.219688 287.262656 
L 207.219688 287.262656 
" style="fill:none;stroke:#ff9408;stroke-dasharray:5.55,2.4;stroke-dashoffset:0;stroke-width:1.5;"/>
    </g>
    <g id="line2d_37">
     <g>
      <use style="fill:#ff9408;stroke:#000000;stroke-linejoin:miter;" x="168.219688" xlink:href="#m0585842afb" y="287.262656"/>
     </g>
    </g>
    <g id="text_18">
     <!-- Splay Tree pointer updates -->
     <g transform="translate(238.419688 300.912656)scale(0.39 -0.39)">
      <defs>
       <path d="M -19 4666 
L 3928 4666 
L 3928 4134 
L 2272 4134 
L 2272 0 
L 1638 0 
L 1638 4134 
L -19 4134 
L -19 4666 
z
" id="DejaVuSans-54" transform="scale(0.015625)"/>
      </defs>
      <use xlink:href="#DejaVuSans-53"/>
      <use x="63.476562" xlink:href="#DejaVuSans-70"/>
      <use x="126.953125" xlink:href="#DejaVuSans-6c"/>
      <use x="154.736328" xlink:href="#DejaVuSans-61"/>
      <use x="216.015625" xlink:href="#DejaVuSans-79"/>
      <use x="275.195312" xlink:href="#DejaVuSans-20"/>
      <use x="306.982422" xlink:href="#DejaVuSans-54"/>
      <use x="353.316406" xlink:href="#DejaVuSans-72"/>
      <use x="392.179688" xlink:href="#DejaVuSans-65"/>
      <use x="453.703125" xlink:href="#DejaVuSans-65"/>
      <use x="515.226562" xlink:href="#DejaVuSans-20"/>
      <use x="547.013672" xlink:href="#DejaVuSans-70"/>
      <use x="610.490234" xlink:href="#DejaVuSans-6f"/>
      <use x="671.671875" xlink:href="#DejaVuSans-69"/>
      <use x="699.455078" xlink:href="#DejaVuSans-6e"/>
      <use x="762.833984" xlink:href="#DejaVuSans-74"/>
      <use x="802.042969" xlink:href="#DejaVuSans-65"/>
      <use x="863.566406" xlink:href="#DejaVuSans-72"/>
      <use x="904.679688" xlink:href="#DejaVuSans-20"/>
      <use x="936.466797" xlink:href="#DejaVuSans-75"/>
      <use x="999.845703" xlink:href="#DejaVuSans-70"/>
      <use x="1063.322266" xlink:href="#DejaVuSans-64"/>
      <use x="1126.798828" xlink:href="#DejaVuSans-61"/>
      <use x="1188.078125" xlink:href="#DejaVuSans-74"/>
      <use x="1227.287109" xlink:href="#DejaVuSans-65"/>
      <use x="1288.810547" xlink:href="#DejaVuSans-73"/>
     </g>
    </g>
   </g>
  </g>
 </g>
 <defs>
  <clipPath id="p4b8afdce74">
   <rect height="997.92" width="892.8" x="94.119688" y="7.2"/>
  </clipPath>
 </defs>
</svg>
