<?xml version="1.0" encoding="utf-8" standalone="no"?>
<!DOCTYPE svg PUBLIC "-//W3C//DTD SVG 1.1//EN"
  "http://www.w3.org/Graphics/SVG/1.1/DTD/svg11.dtd">
<svg height="1090.099062pt" version="1.1" viewBox="0 0 1013.207187 1090.099062" width="1013.207187pt" xmlns="http://www.w3.org/2000/svg" xmlns:xlink="http://www.w3.org/1999/xlink">
 <metadata>
  <rdf:RDF xmlns:cc="http://creativecommons.org/ns#" xmlns:dc="http://purl.org/dc/elements/1.1/" xmlns:rdf="http://www.w3.org/1999/02/22-rdf-syntax-ns#">
   <cc:Work>
    <dc:type rdf:resource="http://purl.org/dc/dcmitype/StillImage"/>
    <dc:date>2021-07-04T13:40:55.502624</dc:date>
    <dc:format>image/svg+xml</dc:format>
    <dc:creator>
     <cc:Agent>
      <dc:title>Matplotlib v3.4.2, https://matplotlib.org/</dc:title>
     </cc:Agent>
    </dc:creator>
   </cc:Work>
  </rdf:RDF>
 </metadata>
 <defs>
  <style type="text/css">*{stroke-linecap:butt;stroke-linejoin:round;}</style>
 </defs>
 <g id="figure_1">
  <g id="patch_1">
   <path d="M 0 1090.099062 
L 1013.207187 1090.099062 
L 1013.207187 0 
L 0 0 
z
" style="fill:#ffffff;"/>
  </g>
  <g id="axes_1">
   <g id="patch_2">
    <path d="M 113.207188 1005.12 
L 1006.007187 1005.12 
L 1006.007187 7.2 
L 113.207188 7.2 
z
" style="fill:#ffffff;"/>
   </g>
   <g id="PolyCollection_1">
    <defs>
     <path d="M 153.789006 -163.145777 
L 153.789006 -143.481611 
L 196.506709 -211.114424 
L 239.224412 -246.701929 
L 281.942116 -268.584107 
L 324.659819 -304.43645 
L 367.377522 -318.37351 
L 410.095226 -342.109549 
L 452.812929 -348.896003 
L 495.530632 -347.406294 
L 538.248336 -362.535121 
L 580.966039 -371.903739 
L 623.683743 -384.35109 
L 666.401446 -400.241325 
L 709.119149 -391.402382 
L 751.836853 -413.748025 
L 794.554556 -415.072211 
L 837.272259 -413.21835 
L 879.989963 -415.370153 
L 922.707666 -420.997944 
L 965.425369 -427.983027 
L 965.425369 -466.483742 
L 965.425369 -466.483742 
L 922.707666 -455.261264 
L 879.989963 -447.680297 
L 837.272259 -434.670167 
L 794.554556 -442.880122 
L 751.836853 -433.610818 
L 709.119149 -427.354038 
L 666.401446 -423.215956 
L 623.683743 -421.626933 
L 580.966039 -408.252652 
L 538.248336 -388.158125 
L 495.530632 -387.065672 
L 452.812929 -378.955031 
L 410.095226 -362.23718 
L 367.377522 -346.346945 
L 324.659819 -320.657731 
L 281.942116 -304.403345 
L 239.224412 -266.531618 
L 196.506709 -227.103973 
L 153.789006 -163.145777 
z
" id="ma8dda1e320" style="stroke:#fe0002;stroke-opacity:0.3;"/>
    </defs>
    <g clip-path="url(#p3d12e6c093)">
     <use style="fill:#fe0002;fill-opacity:0.3;stroke:#fe0002;stroke-opacity:0.3;" x="0" xlink:href="#ma8dda1e320" y="1090.099062"/>
    </g>
   </g>
   <g id="PolyCollection_2">
    <defs>
     <path d="M 153.789006 -459.895916 
L 153.789006 -438.874459 
L 196.506709 -517.762855 
L 239.224412 -546.961161 
L 281.942116 -588.04404 
L 324.659819 -623.134976 
L 367.377522 -653.624364 
L 410.095226 -670.408425 
L 452.812929 -680.637763 
L 495.530632 -685.173101 
L 538.248336 -695.733487 
L 580.966039 -713.345164 
L 623.683743 -722.283421 
L 666.401446 -723.574503 
L 709.119149 -730.394062 
L 751.836853 -763.895974 
L 794.554556 -762.273846 
L 837.272259 -752.21003 
L 879.989963 -759.658578 
L 922.707666 -773.926685 
L 965.425369 -765.882253 
L 965.425369 -823.153309 
L 965.425369 -823.153309 
L 922.707666 -804.74712 
L 879.989963 -800.013154 
L 837.272259 -788.261001 
L 794.554556 -789.81692 
L 751.836853 -782.600105 
L 709.119149 -779.786209 
L 666.401446 -775.38329 
L 623.683743 -761.115183 
L 580.966039 -750.720321 
L 538.248336 -733.472795 
L 495.530632 -727.811899 
L 452.812929 -719.866781 
L 410.095226 -690.370532 
L 367.377522 -671.401564 
L 324.659819 -646.076502 
L 281.942116 -624.061906 
L 239.224412 -591.917285 
L 196.506709 -546.332173 
L 153.789006 -459.895916 
z
" id="ma826a879dd" style="stroke:#53fca1;stroke-opacity:0.3;"/>
    </defs>
    <g clip-path="url(#p3d12e6c093)">
     <use style="fill:#53fca1;fill-opacity:0.3;stroke:#53fca1;stroke-opacity:0.3;" x="0" xlink:href="#ma826a879dd" y="1090.099062"/>
    </g>
   </g>
   <g id="PolyCollection_3">
    <defs>
     <path d="M 153.789006 -462.180137 
L 153.789006 -438.444098 
L 196.506709 -509.288063 
L 239.224412 -538.387055 
L 281.942116 -582.449353 
L 324.659819 -614.891916 
L 367.377522 -638.59485 
L 410.095226 -660.477028 
L 452.812929 -669.944959 
L 495.530632 -684.742741 
L 538.248336 -684.842055 
L 580.966039 -708.048419 
L 623.683743 -719.966095 
L 666.401446 -731.618934 
L 709.119149 -731.08926 
L 751.836853 -752.176926 
L 794.554556 -757.506775 
L 837.272259 -758.599229 
L 879.989963 -750.256856 
L 922.707666 -765.71673 
L 965.425369 -763.30009 
L 965.425369 -817.393098 
L 965.425369 -817.393098 
L 922.707666 -816.565482 
L 879.989963 -790.578327 
L 837.272259 -779.554476 
L 794.554556 -793.425327 
L 751.836853 -779.488267 
L 709.119149 -778.660651 
L 666.401446 -757.672299 
L 623.683743 -751.349309 
L 580.966039 -745.291157 
L 538.248336 -722.117898 
L 495.530632 -718.01292 
L 452.812929 -712.418233 
L 410.095226 -684.875159 
L 367.377522 -665.972401 
L 324.659819 -650.380108 
L 281.942116 -623.300499 
L 239.224412 -576.821561 
L 196.506709 -533.951032 
L 153.789006 -462.180137 
z
" id="m2c6e6aae3f" style="stroke:#0652ff;stroke-opacity:0.3;"/>
    </defs>
    <g clip-path="url(#p3d12e6c093)">
     <use style="fill:#0652ff;fill-opacity:0.3;stroke:#0652ff;stroke-opacity:0.3;" x="0" xlink:href="#m2c6e6aae3f" y="1090.099062"/>
    </g>
   </g>
   <g id="PolyCollection_4">
    <defs>
     <path d="M 153.789006 -155.266869 
L 153.789006 -130.339063 
L 196.506709 -186.319036 
L 239.224412 -208.366737 
L 281.942116 -240.908614 
L 324.659819 -253.38907 
L 367.377522 -260.870722 
L 410.095226 -271.331793 
L 452.812929 -282.719795 
L 495.530632 -273.748433 
L 538.248336 -288.711738 
L 580.966039 -291.658052 
L 623.683743 -301.059775 
L 666.401446 -292.253936 
L 709.119149 -295.398879 
L 751.836853 -307.316555 
L 794.554556 -310.593916 
L 837.272259 -304.105403 
L 879.989963 -309.567671 
L 922.707666 -298.576926 
L 965.425369 -313.440916 
L 965.425369 -338.368722 
L 965.425369 -338.368722 
L 922.707666 -331.681582 
L 879.989963 -335.356199 
L 837.272259 -329.066314 
L 794.554556 -333.734071 
L 751.836853 -337.375583 
L 709.119149 -323.173685 
L 666.401446 -323.372313 
L 623.683743 -321.452243 
L 580.966039 -323.173685 
L 538.248336 -314.169219 
L 495.530632 -311.785683 
L 452.812929 -314.169219 
L 410.095226 -291.790471 
L 367.377522 -290.234552 
L 324.659819 -270.802119 
L 281.942116 -259.579641 
L 239.224412 -235.1153 
L 196.506709 -210.319912 
L 153.789006 -155.266869 
z
" id="m9d9b135c07" style="stroke:#ae7181;stroke-opacity:0.3;"/>
    </defs>
    <g clip-path="url(#p3d12e6c093)">
     <use style="fill:#ae7181;fill-opacity:0.3;stroke:#ae7181;stroke-opacity:0.3;" x="0" xlink:href="#m9d9b135c07" y="1090.099062"/>
    </g>
   </g>
   <g id="PolyCollection_5">
    <defs>
     <path d="M 153.789006 -626.147499 
L 153.789006 -598.703739 
L 196.506709 -670.077378 
L 239.224412 -706.426291 
L 281.942116 -738.604017 
L 324.659819 -780.613825 
L 367.377522 -803.456038 
L 410.095226 -818.386238 
L 452.812929 -825.735472 
L 495.530632 -832.389508 
L 538.248336 -848.941836 
L 580.966039 -871.320583 
L 623.683743 -883.304469 
L 666.401446 -872.677874 
L 709.119149 -894.295215 
L 751.836853 -894.129692 
L 794.554556 -910.086136 
L 837.272259 -903.134158 
L 879.989963 -904.392135 
L 922.707666 -917.898835 
L 965.425369 -939.416861 
L 965.425369 -971.561483 
L 965.425369 -971.561483 
L 922.707666 -958.650667 
L 879.989963 -960.107272 
L 837.272259 -943.091478 
L 794.554556 -948.421328 
L 751.836853 -938.357512 
L 709.119149 -935.311884 
L 666.401446 -929.386151 
L 623.683743 -920.845149 
L 580.966039 -918.891974 
L 538.248336 -889.329516 
L 495.530632 -880.060213 
L 452.812929 -872.181305 
L 410.095226 -856.986267 
L 367.377522 -842.453323 
L 324.659819 -802.26427 
L 281.942116 -789.485873 
L 239.224412 -748.998879 
L 196.506709 -701.526802 
L 153.789006 -626.147499 
z
" id="m87bdd8e74f" style="stroke:#ff81c0;stroke-opacity:0.3;"/>
    </defs>
    <g clip-path="url(#p3d12e6c093)">
     <use style="fill:#ff81c0;fill-opacity:0.3;stroke:#ff81c0;stroke-opacity:0.3;" x="0" xlink:href="#m87bdd8e74f" y="1090.099062"/>
    </g>
   </g>
   <g id="PolyCollection_6">
    <defs>
     <path d="M 153.789006 -689.64223 
L 153.789006 -659.351469 
L 196.506709 -739.630261 
L 239.224412 -781.871802 
L 281.942116 -817.856564 
L 324.659819 -844.836858 
L 367.377522 -874.49863 
L 410.095226 -870.327444 
L 452.812929 -890.322656 
L 495.530632 -906.974298 
L 538.248336 -917.633998 
L 580.966039 -914.257323 
L 623.683743 -940.873466 
L 666.401446 -951.003491 
L 709.119149 -933.590442 
L 751.836853 -974.17675 
L 794.554556 -983.710891 
L 837.272259 -960.372109 
L 879.989963 -969.211052 
L 922.707666 -976.825123 
L 965.425369 -988.775904 
L 965.425369 -1037.539063 
L 965.425369 -1037.539063 
L 922.707666 -1019.232188 
L 879.989963 -1016.219664 
L 837.272259 -1014.729954 
L 794.554556 -1013.902338 
L 751.836853 -1006.155848 
L 709.119149 -989.17316 
L 666.401446 -983.512263 
L 623.683743 -989.66973 
L 580.966039 -974.805739 
L 538.248336 -949.778619 
L 495.530632 -943.091478 
L 452.812929 -942.39628 
L 410.095226 -915.151148 
L 367.377522 -893.169657 
L 324.659819 -869.466723 
L 281.942116 -866.553513 
L 239.224412 -810.176283 
L 196.506709 -771.642463 
L 153.789006 -689.64223 
z
" id="m362da3b422" style="stroke:#f97306;stroke-opacity:0.3;"/>
    </defs>
    <g clip-path="url(#p3d12e6c093)">
     <use style="fill:#f97306;fill-opacity:0.3;stroke:#f97306;stroke-opacity:0.3;" x="0" xlink:href="#m362da3b422" y="1090.099062"/>
    </g>
   </g>
   <g id="matplotlib.axis_1">
    <g id="xtick_1">
     <g id="line2d_1">
      <path clip-path="url(#p3d12e6c093)" d="M 281.942116 1005.12 
L 281.942116 7.2 
" style="fill:none;stroke:#b0b0b0;stroke-linecap:square;stroke-width:0.8;"/>
     </g>
     <g id="line2d_2">
      <defs>
       <path d="M 0 0 
L 0 3.5 
" id="mf95c8cd964" style="stroke:#000000;stroke-width:0.8;"/>
      </defs>
      <g>
       <use style="stroke:#000000;stroke-width:0.8;" x="281.942116" xlink:href="#mf95c8cd964" y="1005.12"/>
      </g>
     </g>
     <g id="text_1">
      <!-- 0.2 -->
      <g transform="translate(258.087428 1034.915313)scale(0.3 -0.3)">
       <defs>
        <path d="M 2034 4250 
Q 1547 4250 1301 3770 
Q 1056 3291 1056 2328 
Q 1056 1369 1301 889 
Q 1547 409 2034 409 
Q 2525 409 2770 889 
Q 3016 1369 3016 2328 
Q 3016 3291 2770 3770 
Q 2525 4250 2034 4250 
z
M 2034 4750 
Q 2819 4750 3233 4129 
Q 3647 3509 3647 2328 
Q 3647 1150 3233 529 
Q 2819 -91 2034 -91 
Q 1250 -91 836 529 
Q 422 1150 422 2328 
Q 422 3509 836 4129 
Q 1250 4750 2034 4750 
z
" id="DejaVuSans-30" transform="scale(0.015625)"/>
        <path d="M 684 794 
L 1344 794 
L 1344 0 
L 684 0 
L 684 794 
z
" id="DejaVuSans-2e" transform="scale(0.015625)"/>
        <path d="M 1228 531 
L 3431 531 
L 3431 0 
L 469 0 
L 469 531 
Q 828 903 1448 1529 
Q 2069 2156 2228 2338 
Q 2531 2678 2651 2914 
Q 2772 3150 2772 3378 
Q 2772 3750 2511 3984 
Q 2250 4219 1831 4219 
Q 1534 4219 1204 4116 
Q 875 4013 500 3803 
L 500 4441 
Q 881 4594 1212 4672 
Q 1544 4750 1819 4750 
Q 2544 4750 2975 4387 
Q 3406 4025 3406 3419 
Q 3406 3131 3298 2873 
Q 3191 2616 2906 2266 
Q 2828 2175 2409 1742 
Q 1991 1309 1228 531 
z
" id="DejaVuSans-32" transform="scale(0.015625)"/>
       </defs>
       <use xlink:href="#DejaVuSans-30"/>
       <use x="63.623047" xlink:href="#DejaVuSans-2e"/>
       <use x="95.410156" xlink:href="#DejaVuSans-32"/>
      </g>
     </g>
    </g>
    <g id="xtick_2">
     <g id="line2d_3">
      <path clip-path="url(#p3d12e6c093)" d="M 452.812929 1005.12 
L 452.812929 7.2 
" style="fill:none;stroke:#b0b0b0;stroke-linecap:square;stroke-width:0.8;"/>
     </g>
     <g id="line2d_4">
      <g>
       <use style="stroke:#000000;stroke-width:0.8;" x="452.812929" xlink:href="#mf95c8cd964" y="1005.12"/>
      </g>
     </g>
     <g id="text_2">
      <!-- 0.4 -->
      <g transform="translate(428.958242 1034.915313)scale(0.3 -0.3)">
       <defs>
        <path d="M 2419 4116 
L 825 1625 
L 2419 1625 
L 2419 4116 
z
M 2253 4666 
L 3047 4666 
L 3047 1625 
L 3713 1625 
L 3713 1100 
L 3047 1100 
L 3047 0 
L 2419 0 
L 2419 1100 
L 313 1100 
L 313 1709 
L 2253 4666 
z
" id="DejaVuSans-34" transform="scale(0.015625)"/>
       </defs>
       <use xlink:href="#DejaVuSans-30"/>
       <use x="63.623047" xlink:href="#DejaVuSans-2e"/>
       <use x="95.410156" xlink:href="#DejaVuSans-34"/>
      </g>
     </g>
    </g>
    <g id="xtick_3">
     <g id="line2d_5">
      <path clip-path="url(#p3d12e6c093)" d="M 623.683743 1005.12 
L 623.683743 7.2 
" style="fill:none;stroke:#b0b0b0;stroke-linecap:square;stroke-width:0.8;"/>
     </g>
     <g id="line2d_6">
      <g>
       <use style="stroke:#000000;stroke-width:0.8;" x="623.683743" xlink:href="#mf95c8cd964" y="1005.12"/>
      </g>
     </g>
     <g id="text_3">
      <!-- 0.6 -->
      <g transform="translate(599.829055 1034.915313)scale(0.3 -0.3)">
       <defs>
        <path d="M 2113 2584 
Q 1688 2584 1439 2293 
Q 1191 2003 1191 1497 
Q 1191 994 1439 701 
Q 1688 409 2113 409 
Q 2538 409 2786 701 
Q 3034 994 3034 1497 
Q 3034 2003 2786 2293 
Q 2538 2584 2113 2584 
z
M 3366 4563 
L 3366 3988 
Q 3128 4100 2886 4159 
Q 2644 4219 2406 4219 
Q 1781 4219 1451 3797 
Q 1122 3375 1075 2522 
Q 1259 2794 1537 2939 
Q 1816 3084 2150 3084 
Q 2853 3084 3261 2657 
Q 3669 2231 3669 1497 
Q 3669 778 3244 343 
Q 2819 -91 2113 -91 
Q 1303 -91 875 529 
Q 447 1150 447 2328 
Q 447 3434 972 4092 
Q 1497 4750 2381 4750 
Q 2619 4750 2861 4703 
Q 3103 4656 3366 4563 
z
" id="DejaVuSans-36" transform="scale(0.015625)"/>
       </defs>
       <use xlink:href="#DejaVuSans-30"/>
       <use x="63.623047" xlink:href="#DejaVuSans-2e"/>
       <use x="95.410156" xlink:href="#DejaVuSans-36"/>
      </g>
     </g>
    </g>
    <g id="xtick_4">
     <g id="line2d_7">
      <path clip-path="url(#p3d12e6c093)" d="M 794.554556 1005.12 
L 794.554556 7.2 
" style="fill:none;stroke:#b0b0b0;stroke-linecap:square;stroke-width:0.8;"/>
     </g>
     <g id="line2d_8">
      <g>
       <use style="stroke:#000000;stroke-width:0.8;" x="794.554556" xlink:href="#mf95c8cd964" y="1005.12"/>
      </g>
     </g>
     <g id="text_4">
      <!-- 0.8 -->
      <g transform="translate(770.699868 1034.915313)scale(0.3 -0.3)">
       <defs>
        <path d="M 2034 2216 
Q 1584 2216 1326 1975 
Q 1069 1734 1069 1313 
Q 1069 891 1326 650 
Q 1584 409 2034 409 
Q 2484 409 2743 651 
Q 3003 894 3003 1313 
Q 3003 1734 2745 1975 
Q 2488 2216 2034 2216 
z
M 1403 2484 
Q 997 2584 770 2862 
Q 544 3141 544 3541 
Q 544 4100 942 4425 
Q 1341 4750 2034 4750 
Q 2731 4750 3128 4425 
Q 3525 4100 3525 3541 
Q 3525 3141 3298 2862 
Q 3072 2584 2669 2484 
Q 3125 2378 3379 2068 
Q 3634 1759 3634 1313 
Q 3634 634 3220 271 
Q 2806 -91 2034 -91 
Q 1263 -91 848 271 
Q 434 634 434 1313 
Q 434 1759 690 2068 
Q 947 2378 1403 2484 
z
M 1172 3481 
Q 1172 3119 1398 2916 
Q 1625 2713 2034 2713 
Q 2441 2713 2670 2916 
Q 2900 3119 2900 3481 
Q 2900 3844 2670 4047 
Q 2441 4250 2034 4250 
Q 1625 4250 1398 4047 
Q 1172 3844 1172 3481 
z
" id="DejaVuSans-38" transform="scale(0.015625)"/>
       </defs>
       <use xlink:href="#DejaVuSans-30"/>
       <use x="63.623047" xlink:href="#DejaVuSans-2e"/>
       <use x="95.410156" xlink:href="#DejaVuSans-38"/>
      </g>
     </g>
    </g>
    <g id="xtick_5">
     <g id="line2d_9">
      <path clip-path="url(#p3d12e6c093)" d="M 965.425369 1005.12 
L 965.425369 7.2 
" style="fill:none;stroke:#b0b0b0;stroke-linecap:square;stroke-width:0.8;"/>
     </g>
     <g id="line2d_10">
      <g>
       <use style="stroke:#000000;stroke-width:0.8;" x="965.425369" xlink:href="#mf95c8cd964" y="1005.12"/>
      </g>
     </g>
     <g id="text_5">
      <!-- 1.0 -->
      <g transform="translate(941.570682 1034.915313)scale(0.3 -0.3)">
       <defs>
        <path d="M 794 531 
L 1825 531 
L 1825 4091 
L 703 3866 
L 703 4441 
L 1819 4666 
L 2450 4666 
L 2450 531 
L 3481 531 
L 3481 0 
L 794 0 
L 794 531 
z
" id="DejaVuSans-31" transform="scale(0.015625)"/>
       </defs>
       <use xlink:href="#DejaVuSans-31"/>
       <use x="63.623047" xlink:href="#DejaVuSans-2e"/>
       <use x="95.410156" xlink:href="#DejaVuSans-30"/>
      </g>
     </g>
    </g>
    <g id="text_6">
     <!-- Edge probability -->
     <g transform="translate(400.295234 1074.788281)scale(0.39 -0.39)">
      <defs>
       <path d="M 628 4666 
L 3578 4666 
L 3578 4134 
L 1259 4134 
L 1259 2753 
L 3481 2753 
L 3481 2222 
L 1259 2222 
L 1259 531 
L 3634 531 
L 3634 0 
L 628 0 
L 628 4666 
z
" id="DejaVuSans-45" transform="scale(0.015625)"/>
       <path d="M 2906 2969 
L 2906 4863 
L 3481 4863 
L 3481 0 
L 2906 0 
L 2906 525 
Q 2725 213 2448 61 
Q 2172 -91 1784 -91 
Q 1150 -91 751 415 
Q 353 922 353 1747 
Q 353 2572 751 3078 
Q 1150 3584 1784 3584 
Q 2172 3584 2448 3432 
Q 2725 3281 2906 2969 
z
M 947 1747 
Q 947 1113 1208 752 
Q 1469 391 1925 391 
Q 2381 391 2643 752 
Q 2906 1113 2906 1747 
Q 2906 2381 2643 2742 
Q 2381 3103 1925 3103 
Q 1469 3103 1208 2742 
Q 947 2381 947 1747 
z
" id="DejaVuSans-64" transform="scale(0.015625)"/>
       <path d="M 2906 1791 
Q 2906 2416 2648 2759 
Q 2391 3103 1925 3103 
Q 1463 3103 1205 2759 
Q 947 2416 947 1791 
Q 947 1169 1205 825 
Q 1463 481 1925 481 
Q 2391 481 2648 825 
Q 2906 1169 2906 1791 
z
M 3481 434 
Q 3481 -459 3084 -895 
Q 2688 -1331 1869 -1331 
Q 1566 -1331 1297 -1286 
Q 1028 -1241 775 -1147 
L 775 -588 
Q 1028 -725 1275 -790 
Q 1522 -856 1778 -856 
Q 2344 -856 2625 -561 
Q 2906 -266 2906 331 
L 2906 616 
Q 2728 306 2450 153 
Q 2172 0 1784 0 
Q 1141 0 747 490 
Q 353 981 353 1791 
Q 353 2603 747 3093 
Q 1141 3584 1784 3584 
Q 2172 3584 2450 3431 
Q 2728 3278 2906 2969 
L 2906 3500 
L 3481 3500 
L 3481 434 
z
" id="DejaVuSans-67" transform="scale(0.015625)"/>
       <path d="M 3597 1894 
L 3597 1613 
L 953 1613 
Q 991 1019 1311 708 
Q 1631 397 2203 397 
Q 2534 397 2845 478 
Q 3156 559 3463 722 
L 3463 178 
Q 3153 47 2828 -22 
Q 2503 -91 2169 -91 
Q 1331 -91 842 396 
Q 353 884 353 1716 
Q 353 2575 817 3079 
Q 1281 3584 2069 3584 
Q 2775 3584 3186 3129 
Q 3597 2675 3597 1894 
z
M 3022 2063 
Q 3016 2534 2758 2815 
Q 2500 3097 2075 3097 
Q 1594 3097 1305 2825 
Q 1016 2553 972 2059 
L 3022 2063 
z
" id="DejaVuSans-65" transform="scale(0.015625)"/>
       <path id="DejaVuSans-20" transform="scale(0.015625)"/>
       <path d="M 1159 525 
L 1159 -1331 
L 581 -1331 
L 581 3500 
L 1159 3500 
L 1159 2969 
Q 1341 3281 1617 3432 
Q 1894 3584 2278 3584 
Q 2916 3584 3314 3078 
Q 3713 2572 3713 1747 
Q 3713 922 3314 415 
Q 2916 -91 2278 -91 
Q 1894 -91 1617 61 
Q 1341 213 1159 525 
z
M 3116 1747 
Q 3116 2381 2855 2742 
Q 2594 3103 2138 3103 
Q 1681 3103 1420 2742 
Q 1159 2381 1159 1747 
Q 1159 1113 1420 752 
Q 1681 391 2138 391 
Q 2594 391 2855 752 
Q 3116 1113 3116 1747 
z
" id="DejaVuSans-70" transform="scale(0.015625)"/>
       <path d="M 2631 2963 
Q 2534 3019 2420 3045 
Q 2306 3072 2169 3072 
Q 1681 3072 1420 2755 
Q 1159 2438 1159 1844 
L 1159 0 
L 581 0 
L 581 3500 
L 1159 3500 
L 1159 2956 
Q 1341 3275 1631 3429 
Q 1922 3584 2338 3584 
Q 2397 3584 2469 3576 
Q 2541 3569 2628 3553 
L 2631 2963 
z
" id="DejaVuSans-72" transform="scale(0.015625)"/>
       <path d="M 1959 3097 
Q 1497 3097 1228 2736 
Q 959 2375 959 1747 
Q 959 1119 1226 758 
Q 1494 397 1959 397 
Q 2419 397 2687 759 
Q 2956 1122 2956 1747 
Q 2956 2369 2687 2733 
Q 2419 3097 1959 3097 
z
M 1959 3584 
Q 2709 3584 3137 3096 
Q 3566 2609 3566 1747 
Q 3566 888 3137 398 
Q 2709 -91 1959 -91 
Q 1206 -91 779 398 
Q 353 888 353 1747 
Q 353 2609 779 3096 
Q 1206 3584 1959 3584 
z
" id="DejaVuSans-6f" transform="scale(0.015625)"/>
       <path d="M 3116 1747 
Q 3116 2381 2855 2742 
Q 2594 3103 2138 3103 
Q 1681 3103 1420 2742 
Q 1159 2381 1159 1747 
Q 1159 1113 1420 752 
Q 1681 391 2138 391 
Q 2594 391 2855 752 
Q 3116 1113 3116 1747 
z
M 1159 2969 
Q 1341 3281 1617 3432 
Q 1894 3584 2278 3584 
Q 2916 3584 3314 3078 
Q 3713 2572 3713 1747 
Q 3713 922 3314 415 
Q 2916 -91 2278 -91 
Q 1894 -91 1617 61 
Q 1341 213 1159 525 
L 1159 0 
L 581 0 
L 581 4863 
L 1159 4863 
L 1159 2969 
z
" id="DejaVuSans-62" transform="scale(0.015625)"/>
       <path d="M 2194 1759 
Q 1497 1759 1228 1600 
Q 959 1441 959 1056 
Q 959 750 1161 570 
Q 1363 391 1709 391 
Q 2188 391 2477 730 
Q 2766 1069 2766 1631 
L 2766 1759 
L 2194 1759 
z
M 3341 1997 
L 3341 0 
L 2766 0 
L 2766 531 
Q 2569 213 2275 61 
Q 1981 -91 1556 -91 
Q 1019 -91 701 211 
Q 384 513 384 1019 
Q 384 1609 779 1909 
Q 1175 2209 1959 2209 
L 2766 2209 
L 2766 2266 
Q 2766 2663 2505 2880 
Q 2244 3097 1772 3097 
Q 1472 3097 1187 3025 
Q 903 2953 641 2809 
L 641 3341 
Q 956 3463 1253 3523 
Q 1550 3584 1831 3584 
Q 2591 3584 2966 3190 
Q 3341 2797 3341 1997 
z
" id="DejaVuSans-61" transform="scale(0.015625)"/>
       <path d="M 603 3500 
L 1178 3500 
L 1178 0 
L 603 0 
L 603 3500 
z
M 603 4863 
L 1178 4863 
L 1178 4134 
L 603 4134 
L 603 4863 
z
" id="DejaVuSans-69" transform="scale(0.015625)"/>
       <path d="M 603 4863 
L 1178 4863 
L 1178 0 
L 603 0 
L 603 4863 
z
" id="DejaVuSans-6c" transform="scale(0.015625)"/>
       <path d="M 1172 4494 
L 1172 3500 
L 2356 3500 
L 2356 3053 
L 1172 3053 
L 1172 1153 
Q 1172 725 1289 603 
Q 1406 481 1766 481 
L 2356 481 
L 2356 0 
L 1766 0 
Q 1100 0 847 248 
Q 594 497 594 1153 
L 594 3053 
L 172 3053 
L 172 3500 
L 594 3500 
L 594 4494 
L 1172 4494 
z
" id="DejaVuSans-74" transform="scale(0.015625)"/>
       <path d="M 2059 -325 
Q 1816 -950 1584 -1140 
Q 1353 -1331 966 -1331 
L 506 -1331 
L 506 -850 
L 844 -850 
Q 1081 -850 1212 -737 
Q 1344 -625 1503 -206 
L 1606 56 
L 191 3500 
L 800 3500 
L 1894 763 
L 2988 3500 
L 3597 3500 
L 2059 -325 
z
" id="DejaVuSans-79" transform="scale(0.015625)"/>
      </defs>
      <use xlink:href="#DejaVuSans-45"/>
      <use x="63.183594" xlink:href="#DejaVuSans-64"/>
      <use x="126.660156" xlink:href="#DejaVuSans-67"/>
      <use x="190.136719" xlink:href="#DejaVuSans-65"/>
      <use x="251.660156" xlink:href="#DejaVuSans-20"/>
      <use x="283.447266" xlink:href="#DejaVuSans-70"/>
      <use x="346.923828" xlink:href="#DejaVuSans-72"/>
      <use x="385.787109" xlink:href="#DejaVuSans-6f"/>
      <use x="446.96875" xlink:href="#DejaVuSans-62"/>
      <use x="510.445312" xlink:href="#DejaVuSans-61"/>
      <use x="571.724609" xlink:href="#DejaVuSans-62"/>
      <use x="635.201172" xlink:href="#DejaVuSans-69"/>
      <use x="662.984375" xlink:href="#DejaVuSans-6c"/>
      <use x="690.767578" xlink:href="#DejaVuSans-69"/>
      <use x="718.550781" xlink:href="#DejaVuSans-74"/>
      <use x="757.759766" xlink:href="#DejaVuSans-79"/>
     </g>
    </g>
   </g>
   <g id="matplotlib.axis_2">
    <g id="ytick_1">
     <g id="line2d_11">
      <path clip-path="url(#p3d12e6c093)" d="M 113.207188 853.229216 
L 1006.007187 853.229216 
" style="fill:none;stroke:#b0b0b0;stroke-linecap:square;stroke-width:0.8;"/>
     </g>
     <g id="line2d_12">
      <defs>
       <path d="M 0 0 
L -3.5 0 
" id="m2dae467483" style="stroke:#000000;stroke-width:0.8;"/>
      </defs>
      <g>
       <use style="stroke:#000000;stroke-width:0.8;" x="113.207188" xlink:href="#m2dae467483" y="853.229216"/>
      </g>
     </g>
     <g id="text_7">
      <!-- 50 -->
      <g transform="translate(68.032188 864.626872)scale(0.3 -0.3)">
       <defs>
        <path d="M 691 4666 
L 3169 4666 
L 3169 4134 
L 1269 4134 
L 1269 2991 
Q 1406 3038 1543 3061 
Q 1681 3084 1819 3084 
Q 2600 3084 3056 2656 
Q 3513 2228 3513 1497 
Q 3513 744 3044 326 
Q 2575 -91 1722 -91 
Q 1428 -91 1123 -41 
Q 819 9 494 109 
L 494 744 
Q 775 591 1075 516 
Q 1375 441 1709 441 
Q 2250 441 2565 725 
Q 2881 1009 2881 1497 
Q 2881 1984 2565 2268 
Q 2250 2553 1709 2553 
Q 1456 2553 1204 2497 
Q 953 2441 691 2322 
L 691 4666 
z
" id="DejaVuSans-35" transform="scale(0.015625)"/>
       </defs>
       <use xlink:href="#DejaVuSans-35"/>
       <use x="63.623047" xlink:href="#DejaVuSans-30"/>
      </g>
     </g>
    </g>
    <g id="ytick_2">
     <g id="line2d_13">
      <path clip-path="url(#p3d12e6c093)" d="M 113.207188 687.705935 
L 1006.007187 687.705935 
" style="fill:none;stroke:#b0b0b0;stroke-linecap:square;stroke-width:0.8;"/>
     </g>
     <g id="line2d_14">
      <g>
       <use style="stroke:#000000;stroke-width:0.8;" x="113.207188" xlink:href="#m2dae467483" y="687.705935"/>
      </g>
     </g>
     <g id="text_8">
      <!-- 60 -->
      <g transform="translate(68.032188 699.103591)scale(0.3 -0.3)">
       <use xlink:href="#DejaVuSans-36"/>
       <use x="63.623047" xlink:href="#DejaVuSans-30"/>
      </g>
     </g>
    </g>
    <g id="ytick_3">
     <g id="line2d_15">
      <path clip-path="url(#p3d12e6c093)" d="M 113.207188 522.182654 
L 1006.007187 522.182654 
" style="fill:none;stroke:#b0b0b0;stroke-linecap:square;stroke-width:0.8;"/>
     </g>
     <g id="line2d_16">
      <g>
       <use style="stroke:#000000;stroke-width:0.8;" x="113.207188" xlink:href="#m2dae467483" y="522.182654"/>
      </g>
     </g>
     <g id="text_9">
      <!-- 70 -->
      <g transform="translate(68.032188 533.58031)scale(0.3 -0.3)">
       <defs>
        <path d="M 525 4666 
L 3525 4666 
L 3525 4397 
L 1831 0 
L 1172 0 
L 2766 4134 
L 525 4134 
L 525 4666 
z
" id="DejaVuSans-37" transform="scale(0.015625)"/>
       </defs>
       <use xlink:href="#DejaVuSans-37"/>
       <use x="63.623047" xlink:href="#DejaVuSans-30"/>
      </g>
     </g>
    </g>
    <g id="ytick_4">
     <g id="line2d_17">
      <path clip-path="url(#p3d12e6c093)" d="M 113.207188 356.659372 
L 1006.007187 356.659372 
" style="fill:none;stroke:#b0b0b0;stroke-linecap:square;stroke-width:0.8;"/>
     </g>
     <g id="line2d_18">
      <g>
       <use style="stroke:#000000;stroke-width:0.8;" x="113.207188" xlink:href="#m2dae467483" y="356.659372"/>
      </g>
     </g>
     <g id="text_10">
      <!-- 80 -->
      <g transform="translate(68.032188 368.057029)scale(0.3 -0.3)">
       <use xlink:href="#DejaVuSans-38"/>
       <use x="63.623047" xlink:href="#DejaVuSans-30"/>
      </g>
     </g>
    </g>
    <g id="ytick_5">
     <g id="line2d_19">
      <path clip-path="url(#p3d12e6c093)" d="M 113.207188 191.136091 
L 1006.007187 191.136091 
" style="fill:none;stroke:#b0b0b0;stroke-linecap:square;stroke-width:0.8;"/>
     </g>
     <g id="line2d_20">
      <g>
       <use style="stroke:#000000;stroke-width:0.8;" x="113.207188" xlink:href="#m2dae467483" y="191.136091"/>
      </g>
     </g>
     <g id="text_11">
      <!-- 90 -->
      <g transform="translate(68.032188 202.533747)scale(0.3 -0.3)">
       <defs>
        <path d="M 703 97 
L 703 672 
Q 941 559 1184 500 
Q 1428 441 1663 441 
Q 2288 441 2617 861 
Q 2947 1281 2994 2138 
Q 2813 1869 2534 1725 
Q 2256 1581 1919 1581 
Q 1219 1581 811 2004 
Q 403 2428 403 3163 
Q 403 3881 828 4315 
Q 1253 4750 1959 4750 
Q 2769 4750 3195 4129 
Q 3622 3509 3622 2328 
Q 3622 1225 3098 567 
Q 2575 -91 1691 -91 
Q 1453 -91 1209 -44 
Q 966 3 703 97 
z
M 1959 2075 
Q 2384 2075 2632 2365 
Q 2881 2656 2881 3163 
Q 2881 3666 2632 3958 
Q 2384 4250 1959 4250 
Q 1534 4250 1286 3958 
Q 1038 3666 1038 3163 
Q 1038 2656 1286 2365 
Q 1534 2075 1959 2075 
z
" id="DejaVuSans-39" transform="scale(0.015625)"/>
       </defs>
       <use xlink:href="#DejaVuSans-39"/>
       <use x="63.623047" xlink:href="#DejaVuSans-30"/>
      </g>
     </g>
    </g>
    <g id="ytick_6">
     <g id="line2d_21">
      <path clip-path="url(#p3d12e6c093)" d="M 113.207188 25.61281 
L 1006.007187 25.61281 
" style="fill:none;stroke:#b0b0b0;stroke-linecap:square;stroke-width:0.8;"/>
     </g>
     <g id="line2d_22">
      <g>
       <use style="stroke:#000000;stroke-width:0.8;" x="113.207188" xlink:href="#m2dae467483" y="25.61281"/>
      </g>
     </g>
     <g id="text_12">
      <!-- 100 -->
      <g transform="translate(48.944688 37.010466)scale(0.3 -0.3)">
       <use xlink:href="#DejaVuSans-31"/>
       <use x="63.623047" xlink:href="#DejaVuSans-30"/>
       <use x="127.246094" xlink:href="#DejaVuSans-30"/>
      </g>
     </g>
    </g>
    <g id="text_13">
     <!-- Avg. number of pointer updates / size -->
     <g transform="translate(36.833906 873.549141)rotate(-90)scale(0.39 -0.39)">
      <defs>
       <path d="M 2188 4044 
L 1331 1722 
L 3047 1722 
L 2188 4044 
z
M 1831 4666 
L 2547 4666 
L 4325 0 
L 3669 0 
L 3244 1197 
L 1141 1197 
L 716 0 
L 50 0 
L 1831 4666 
z
" id="DejaVuSans-41" transform="scale(0.015625)"/>
       <path d="M 191 3500 
L 800 3500 
L 1894 563 
L 2988 3500 
L 3597 3500 
L 2284 0 
L 1503 0 
L 191 3500 
z
" id="DejaVuSans-76" transform="scale(0.015625)"/>
       <path d="M 3513 2113 
L 3513 0 
L 2938 0 
L 2938 2094 
Q 2938 2591 2744 2837 
Q 2550 3084 2163 3084 
Q 1697 3084 1428 2787 
Q 1159 2491 1159 1978 
L 1159 0 
L 581 0 
L 581 3500 
L 1159 3500 
L 1159 2956 
Q 1366 3272 1645 3428 
Q 1925 3584 2291 3584 
Q 2894 3584 3203 3211 
Q 3513 2838 3513 2113 
z
" id="DejaVuSans-6e" transform="scale(0.015625)"/>
       <path d="M 544 1381 
L 544 3500 
L 1119 3500 
L 1119 1403 
Q 1119 906 1312 657 
Q 1506 409 1894 409 
Q 2359 409 2629 706 
Q 2900 1003 2900 1516 
L 2900 3500 
L 3475 3500 
L 3475 0 
L 2900 0 
L 2900 538 
Q 2691 219 2414 64 
Q 2138 -91 1772 -91 
Q 1169 -91 856 284 
Q 544 659 544 1381 
z
M 1991 3584 
L 1991 3584 
z
" id="DejaVuSans-75" transform="scale(0.015625)"/>
       <path d="M 3328 2828 
Q 3544 3216 3844 3400 
Q 4144 3584 4550 3584 
Q 5097 3584 5394 3201 
Q 5691 2819 5691 2113 
L 5691 0 
L 5113 0 
L 5113 2094 
Q 5113 2597 4934 2840 
Q 4756 3084 4391 3084 
Q 3944 3084 3684 2787 
Q 3425 2491 3425 1978 
L 3425 0 
L 2847 0 
L 2847 2094 
Q 2847 2600 2669 2842 
Q 2491 3084 2119 3084 
Q 1678 3084 1418 2786 
Q 1159 2488 1159 1978 
L 1159 0 
L 581 0 
L 581 3500 
L 1159 3500 
L 1159 2956 
Q 1356 3278 1631 3431 
Q 1906 3584 2284 3584 
Q 2666 3584 2933 3390 
Q 3200 3197 3328 2828 
z
" id="DejaVuSans-6d" transform="scale(0.015625)"/>
       <path d="M 2375 4863 
L 2375 4384 
L 1825 4384 
Q 1516 4384 1395 4259 
Q 1275 4134 1275 3809 
L 1275 3500 
L 2222 3500 
L 2222 3053 
L 1275 3053 
L 1275 0 
L 697 0 
L 697 3053 
L 147 3053 
L 147 3500 
L 697 3500 
L 697 3744 
Q 697 4328 969 4595 
Q 1241 4863 1831 4863 
L 2375 4863 
z
" id="DejaVuSans-66" transform="scale(0.015625)"/>
       <path d="M 2834 3397 
L 2834 2853 
Q 2591 2978 2328 3040 
Q 2066 3103 1784 3103 
Q 1356 3103 1142 2972 
Q 928 2841 928 2578 
Q 928 2378 1081 2264 
Q 1234 2150 1697 2047 
L 1894 2003 
Q 2506 1872 2764 1633 
Q 3022 1394 3022 966 
Q 3022 478 2636 193 
Q 2250 -91 1575 -91 
Q 1294 -91 989 -36 
Q 684 19 347 128 
L 347 722 
Q 666 556 975 473 
Q 1284 391 1588 391 
Q 1994 391 2212 530 
Q 2431 669 2431 922 
Q 2431 1156 2273 1281 
Q 2116 1406 1581 1522 
L 1381 1569 
Q 847 1681 609 1914 
Q 372 2147 372 2553 
Q 372 3047 722 3315 
Q 1072 3584 1716 3584 
Q 2034 3584 2315 3537 
Q 2597 3491 2834 3397 
z
" id="DejaVuSans-73" transform="scale(0.015625)"/>
       <path d="M 1625 4666 
L 2156 4666 
L 531 -594 
L 0 -594 
L 1625 4666 
z
" id="DejaVuSans-2f" transform="scale(0.015625)"/>
       <path d="M 353 3500 
L 3084 3500 
L 3084 2975 
L 922 459 
L 3084 459 
L 3084 0 
L 275 0 
L 275 525 
L 2438 3041 
L 353 3041 
L 353 3500 
z
" id="DejaVuSans-7a" transform="scale(0.015625)"/>
      </defs>
      <use xlink:href="#DejaVuSans-41"/>
      <use x="62.533203" xlink:href="#DejaVuSans-76"/>
      <use x="121.712891" xlink:href="#DejaVuSans-67"/>
      <use x="185.189453" xlink:href="#DejaVuSans-2e"/>
      <use x="216.976562" xlink:href="#DejaVuSans-20"/>
      <use x="248.763672" xlink:href="#DejaVuSans-6e"/>
      <use x="312.142578" xlink:href="#DejaVuSans-75"/>
      <use x="375.521484" xlink:href="#DejaVuSans-6d"/>
      <use x="472.933594" xlink:href="#DejaVuSans-62"/>
      <use x="536.410156" xlink:href="#DejaVuSans-65"/>
      <use x="597.933594" xlink:href="#DejaVuSans-72"/>
      <use x="639.046875" xlink:href="#DejaVuSans-20"/>
      <use x="670.833984" xlink:href="#DejaVuSans-6f"/>
      <use x="732.015625" xlink:href="#DejaVuSans-66"/>
      <use x="767.220703" xlink:href="#DejaVuSans-20"/>
      <use x="799.007812" xlink:href="#DejaVuSans-70"/>
      <use x="862.484375" xlink:href="#DejaVuSans-6f"/>
      <use x="923.666016" xlink:href="#DejaVuSans-69"/>
      <use x="951.449219" xlink:href="#DejaVuSans-6e"/>
      <use x="1014.828125" xlink:href="#DejaVuSans-74"/>
      <use x="1054.037109" xlink:href="#DejaVuSans-65"/>
      <use x="1115.560547" xlink:href="#DejaVuSans-72"/>
      <use x="1156.673828" xlink:href="#DejaVuSans-20"/>
      <use x="1188.460938" xlink:href="#DejaVuSans-75"/>
      <use x="1251.839844" xlink:href="#DejaVuSans-70"/>
      <use x="1315.316406" xlink:href="#DejaVuSans-64"/>
      <use x="1378.792969" xlink:href="#DejaVuSans-61"/>
      <use x="1440.072266" xlink:href="#DejaVuSans-74"/>
      <use x="1479.28125" xlink:href="#DejaVuSans-65"/>
      <use x="1540.804688" xlink:href="#DejaVuSans-73"/>
      <use x="1592.904297" xlink:href="#DejaVuSans-20"/>
      <use x="1624.691406" xlink:href="#DejaVuSans-2f"/>
      <use x="1658.382812" xlink:href="#DejaVuSans-20"/>
      <use x="1690.169922" xlink:href="#DejaVuSans-73"/>
      <use x="1742.269531" xlink:href="#DejaVuSans-69"/>
      <use x="1770.052734" xlink:href="#DejaVuSans-7a"/>
      <use x="1822.542969" xlink:href="#DejaVuSans-65"/>
     </g>
    </g>
   </g>
   <g id="line2d_23">
    <path clip-path="url(#p3d12e6c093)" d="M 153.789006 937.123036 
L 196.506709 869.665678 
L 239.224412 832.098514 
L 281.942116 797.060546 
L 324.659819 777.710874 
L 367.377522 756.92115 
L 410.095226 736.899454 
L 452.812929 724.505071 
L 495.530632 719.923386 
L 538.248336 712.62381 
L 580.966039 695.617948 
L 623.683743 686.573756 
L 666.401446 679.701229 
L 709.119149 680.840029 
L 751.836853 665.118628 
L 794.554556 662.228591 
L 837.272259 665.227873 
L 879.989963 656.931846 
L 922.707666 649.873934 
L 965.425369 639.280444 
" style="fill:none;stroke:#fe0002;stroke-dasharray:5.55,2.4;stroke-dashoffset:0;stroke-width:1.5;"/>
    <defs>
     <path d="M 0 4.5 
C 1.193414 4.5 2.338109 4.025852 3.181981 3.181981 
C 4.025852 2.338109 4.5 1.193414 4.5 0 
C 4.5 -1.193414 4.025852 -2.338109 3.181981 -3.181981 
C 2.338109 -4.025852 1.193414 -4.5 0 -4.5 
C -1.193414 -4.5 -2.338109 -4.025852 -3.181981 -3.181981 
C -4.025852 -2.338109 -4.5 -1.193414 -4.5 0 
C -4.5 1.193414 -4.025852 2.338109 -3.181981 3.181981 
C -2.338109 4.025852 -1.193414 4.5 0 4.5 
z
" id="m997dc5e727" style="stroke:#000000;"/>
    </defs>
    <g clip-path="url(#p3d12e6c093)">
     <use style="fill:#fe0002;stroke:#000000;" x="153.789006" xlink:href="#m997dc5e727" y="937.123036"/>
     <use style="fill:#fe0002;stroke:#000000;" x="196.506709" xlink:href="#m997dc5e727" y="869.665678"/>
     <use style="fill:#fe0002;stroke:#000000;" x="239.224412" xlink:href="#m997dc5e727" y="832.098514"/>
     <use style="fill:#fe0002;stroke:#000000;" x="281.942116" xlink:href="#m997dc5e727" y="797.060546"/>
     <use style="fill:#fe0002;stroke:#000000;" x="324.659819" xlink:href="#m997dc5e727" y="777.710874"/>
     <use style="fill:#fe0002;stroke:#000000;" x="367.377522" xlink:href="#m997dc5e727" y="756.92115"/>
     <use style="fill:#fe0002;stroke:#000000;" x="410.095226" xlink:href="#m997dc5e727" y="736.899454"/>
     <use style="fill:#fe0002;stroke:#000000;" x="452.812929" xlink:href="#m997dc5e727" y="724.505071"/>
     <use style="fill:#fe0002;stroke:#000000;" x="495.530632" xlink:href="#m997dc5e727" y="719.923386"/>
     <use style="fill:#fe0002;stroke:#000000;" x="538.248336" xlink:href="#m997dc5e727" y="712.62381"/>
     <use style="fill:#fe0002;stroke:#000000;" x="580.966039" xlink:href="#m997dc5e727" y="695.617948"/>
     <use style="fill:#fe0002;stroke:#000000;" x="623.683743" xlink:href="#m997dc5e727" y="686.573756"/>
     <use style="fill:#fe0002;stroke:#000000;" x="666.401446" xlink:href="#m997dc5e727" y="679.701229"/>
     <use style="fill:#fe0002;stroke:#000000;" x="709.119149" xlink:href="#m997dc5e727" y="680.840029"/>
     <use style="fill:#fe0002;stroke:#000000;" x="751.836853" xlink:href="#m997dc5e727" y="665.118628"/>
     <use style="fill:#fe0002;stroke:#000000;" x="794.554556" xlink:href="#m997dc5e727" y="662.228591"/>
     <use style="fill:#fe0002;stroke:#000000;" x="837.272259" xlink:href="#m997dc5e727" y="665.227873"/>
     <use style="fill:#fe0002;stroke:#000000;" x="879.989963" xlink:href="#m997dc5e727" y="656.931846"/>
     <use style="fill:#fe0002;stroke:#000000;" x="922.707666" xlink:href="#m997dc5e727" y="649.873934"/>
     <use style="fill:#fe0002;stroke:#000000;" x="965.425369" xlink:href="#m997dc5e727" y="639.280444"/>
    </g>
   </g>
   <g id="line2d_24">
    <path clip-path="url(#p3d12e6c093)" d="M 153.789006 641.233618 
L 196.506709 559.574363 
L 239.224412 517.53476 
L 281.942116 476.86569 
L 324.659819 454.771642 
L 367.377522 429.933219 
L 410.095226 409.636754 
L 452.812929 391.498713 
L 495.530632 382.527351 
L 538.248336 371.57633 
L 580.966039 358.735034 
L 623.683743 347.674769 
L 666.401446 340.898246 
L 709.119149 333.357005 
L 751.836853 319.300768 
L 794.554556 311.2133 
L 837.272259 319.568915 
L 879.989963 311.484758 
L 922.707666 296.925331 
L 965.425369 291.032702 
" style="fill:none;stroke:#53fca1;stroke-dasharray:5.55,2.4;stroke-dashoffset:0;stroke-width:1.5;"/>
    <defs>
     <path d="M 0 -4.5 
L -4.5 4.5 
L 4.5 4.5 
z
" id="m1a9258e23b" style="stroke:#000000;stroke-linejoin:miter;"/>
    </defs>
    <g clip-path="url(#p3d12e6c093)">
     <use style="fill:#53fca1;stroke:#000000;stroke-linejoin:miter;" x="153.789006" xlink:href="#m1a9258e23b" y="641.233618"/>
     <use style="fill:#53fca1;stroke:#000000;stroke-linejoin:miter;" x="196.506709" xlink:href="#m1a9258e23b" y="559.574363"/>
     <use style="fill:#53fca1;stroke:#000000;stroke-linejoin:miter;" x="239.224412" xlink:href="#m1a9258e23b" y="517.53476"/>
     <use style="fill:#53fca1;stroke:#000000;stroke-linejoin:miter;" x="281.942116" xlink:href="#m1a9258e23b" y="476.86569"/>
     <use style="fill:#53fca1;stroke:#000000;stroke-linejoin:miter;" x="324.659819" xlink:href="#m1a9258e23b" y="454.771642"/>
     <use style="fill:#53fca1;stroke:#000000;stroke-linejoin:miter;" x="367.377522" xlink:href="#m1a9258e23b" y="429.933219"/>
     <use style="fill:#53fca1;stroke:#000000;stroke-linejoin:miter;" x="410.095226" xlink:href="#m1a9258e23b" y="409.636754"/>
     <use style="fill:#53fca1;stroke:#000000;stroke-linejoin:miter;" x="452.812929" xlink:href="#m1a9258e23b" y="391.498713"/>
     <use style="fill:#53fca1;stroke:#000000;stroke-linejoin:miter;" x="495.530632" xlink:href="#m1a9258e23b" y="382.527351"/>
     <use style="fill:#53fca1;stroke:#000000;stroke-linejoin:miter;" x="538.248336" xlink:href="#m1a9258e23b" y="371.57633"/>
     <use style="fill:#53fca1;stroke:#000000;stroke-linejoin:miter;" x="580.966039" xlink:href="#m1a9258e23b" y="358.735034"/>
     <use style="fill:#53fca1;stroke:#000000;stroke-linejoin:miter;" x="623.683743" xlink:href="#m1a9258e23b" y="347.674769"/>
     <use style="fill:#53fca1;stroke:#000000;stroke-linejoin:miter;" x="666.401446" xlink:href="#m1a9258e23b" y="340.898246"/>
     <use style="fill:#53fca1;stroke:#000000;stroke-linejoin:miter;" x="709.119149" xlink:href="#m1a9258e23b" y="333.357005"/>
     <use style="fill:#53fca1;stroke:#000000;stroke-linejoin:miter;" x="751.836853" xlink:href="#m1a9258e23b" y="319.300768"/>
     <use style="fill:#53fca1;stroke:#000000;stroke-linejoin:miter;" x="794.554556" xlink:href="#m1a9258e23b" y="311.2133"/>
     <use style="fill:#53fca1;stroke:#000000;stroke-linejoin:miter;" x="837.272259" xlink:href="#m1a9258e23b" y="319.568915"/>
     <use style="fill:#53fca1;stroke:#000000;stroke-linejoin:miter;" x="879.989963" xlink:href="#m1a9258e23b" y="311.484758"/>
     <use style="fill:#53fca1;stroke:#000000;stroke-linejoin:miter;" x="922.707666" xlink:href="#m1a9258e23b" y="296.925331"/>
     <use style="fill:#53fca1;stroke:#000000;stroke-linejoin:miter;" x="965.425369" xlink:href="#m1a9258e23b" y="291.032702"/>
    </g>
   </g>
   <g id="line2d_25">
    <path clip-path="url(#p3d12e6c093)" d="M 153.789006 643.987926 
L 196.506709 566.122464 
L 239.224412 525.655332 
L 281.942116 484.373826 
L 324.659819 460.296809 
L 367.377522 439.242248 
L 410.095226 418.561769 
L 452.812929 399.188924 
L 495.530632 388.28094 
L 538.248336 378.339612 
L 580.966039 360.12874 
L 623.683743 351.984995 
L 666.401446 343.242055 
L 709.119149 334.469321 
L 751.836853 325.636999 
L 794.554556 314.646253 
L 837.272259 318.291076 
L 879.989963 316.450457 
L 922.707666 300.798575 
L 965.425369 294.35972 
" style="fill:none;stroke:#0652ff;stroke-dasharray:5.55,2.4;stroke-dashoffset:0;stroke-width:1.5;"/>
    <defs>
     <path d="M 0 -4.5 
L -4.279754 -1.390576 
L -2.645034 3.640576 
L 2.645034 3.640576 
L 4.279754 -1.390576 
z
" id="m66f4fb1cb4" style="stroke:#000000;stroke-linejoin:miter;"/>
    </defs>
    <g clip-path="url(#p3d12e6c093)">
     <use style="fill:#0652ff;stroke:#000000;stroke-linejoin:miter;" x="153.789006" xlink:href="#m66f4fb1cb4" y="643.987926"/>
     <use style="fill:#0652ff;stroke:#000000;stroke-linejoin:miter;" x="196.506709" xlink:href="#m66f4fb1cb4" y="566.122464"/>
     <use style="fill:#0652ff;stroke:#000000;stroke-linejoin:miter;" x="239.224412" xlink:href="#m66f4fb1cb4" y="525.655332"/>
     <use style="fill:#0652ff;stroke:#000000;stroke-linejoin:miter;" x="281.942116" xlink:href="#m66f4fb1cb4" y="484.373826"/>
     <use style="fill:#0652ff;stroke:#000000;stroke-linejoin:miter;" x="324.659819" xlink:href="#m66f4fb1cb4" y="460.296809"/>
     <use style="fill:#0652ff;stroke:#000000;stroke-linejoin:miter;" x="367.377522" xlink:href="#m66f4fb1cb4" y="439.242248"/>
     <use style="fill:#0652ff;stroke:#000000;stroke-linejoin:miter;" x="410.095226" xlink:href="#m66f4fb1cb4" y="418.561769"/>
     <use style="fill:#0652ff;stroke:#000000;stroke-linejoin:miter;" x="452.812929" xlink:href="#m66f4fb1cb4" y="399.188924"/>
     <use style="fill:#0652ff;stroke:#000000;stroke-linejoin:miter;" x="495.530632" xlink:href="#m66f4fb1cb4" y="388.28094"/>
     <use style="fill:#0652ff;stroke:#000000;stroke-linejoin:miter;" x="538.248336" xlink:href="#m66f4fb1cb4" y="378.339612"/>
     <use style="fill:#0652ff;stroke:#000000;stroke-linejoin:miter;" x="580.966039" xlink:href="#m66f4fb1cb4" y="360.12874"/>
     <use style="fill:#0652ff;stroke:#000000;stroke-linejoin:miter;" x="623.683743" xlink:href="#m66f4fb1cb4" y="351.984995"/>
     <use style="fill:#0652ff;stroke:#000000;stroke-linejoin:miter;" x="666.401446" xlink:href="#m66f4fb1cb4" y="343.242055"/>
     <use style="fill:#0652ff;stroke:#000000;stroke-linejoin:miter;" x="709.119149" xlink:href="#m66f4fb1cb4" y="334.469321"/>
     <use style="fill:#0652ff;stroke:#000000;stroke-linejoin:miter;" x="751.836853" xlink:href="#m66f4fb1cb4" y="325.636999"/>
     <use style="fill:#0652ff;stroke:#000000;stroke-linejoin:miter;" x="794.554556" xlink:href="#m66f4fb1cb4" y="314.646253"/>
     <use style="fill:#0652ff;stroke:#000000;stroke-linejoin:miter;" x="837.272259" xlink:href="#m66f4fb1cb4" y="318.291076"/>
     <use style="fill:#0652ff;stroke:#000000;stroke-linejoin:miter;" x="879.989963" xlink:href="#m66f4fb1cb4" y="316.450457"/>
     <use style="fill:#0652ff;stroke:#000000;stroke-linejoin:miter;" x="922.707666" xlink:href="#m66f4fb1cb4" y="300.798575"/>
     <use style="fill:#0652ff;stroke:#000000;stroke-linejoin:miter;" x="965.425369" xlink:href="#m66f4fb1cb4" y="294.35972"/>
    </g>
   </g>
   <g id="line2d_26">
    <path clip-path="url(#p3d12e6c093)" d="M 153.789006 950.676082 
L 196.506709 891.441921 
L 239.224412 866.149964 
L 281.942116 840.490544 
L 324.659819 827.523451 
L 367.377522 816.095723 
L 410.095226 807.882458 
L 452.812929 798.404595 
L 495.530632 797.057235 
L 538.248336 792.247129 
L 580.966039 786.649132 
L 623.683743 781.699985 
L 666.401446 778.38952 
L 709.119149 778.826501 
L 751.836853 772.06653 
L 794.554556 767.832445 
L 837.272259 776.068883 
L 879.989963 769.586992 
L 922.707666 767.421947 
L 965.425369 764.608051 
" style="fill:none;stroke:#ae7181;stroke-dasharray:5.55,2.4;stroke-dashoffset:0;stroke-width:1.5;"/>
    <defs>
     <path d="M -4.5 4.5 
L 4.5 4.5 
L 4.5 -4.5 
L -4.5 -4.5 
z
" id="mc118d2bc3d" style="stroke:#000000;stroke-linejoin:miter;"/>
    </defs>
    <g clip-path="url(#p3d12e6c093)">
     <use style="fill:#ae7181;stroke:#000000;stroke-linejoin:miter;" x="153.789006" xlink:href="#mc118d2bc3d" y="950.676082"/>
     <use style="fill:#ae7181;stroke:#000000;stroke-linejoin:miter;" x="196.506709" xlink:href="#mc118d2bc3d" y="891.441921"/>
     <use style="fill:#ae7181;stroke:#000000;stroke-linejoin:miter;" x="239.224412" xlink:href="#mc118d2bc3d" y="866.149964"/>
     <use style="fill:#ae7181;stroke:#000000;stroke-linejoin:miter;" x="281.942116" xlink:href="#mc118d2bc3d" y="840.490544"/>
     <use style="fill:#ae7181;stroke:#000000;stroke-linejoin:miter;" x="324.659819" xlink:href="#mc118d2bc3d" y="827.523451"/>
     <use style="fill:#ae7181;stroke:#000000;stroke-linejoin:miter;" x="367.377522" xlink:href="#mc118d2bc3d" y="816.095723"/>
     <use style="fill:#ae7181;stroke:#000000;stroke-linejoin:miter;" x="410.095226" xlink:href="#mc118d2bc3d" y="807.882458"/>
     <use style="fill:#ae7181;stroke:#000000;stroke-linejoin:miter;" x="452.812929" xlink:href="#mc118d2bc3d" y="798.404595"/>
     <use style="fill:#ae7181;stroke:#000000;stroke-linejoin:miter;" x="495.530632" xlink:href="#mc118d2bc3d" y="797.057235"/>
     <use style="fill:#ae7181;stroke:#000000;stroke-linejoin:miter;" x="538.248336" xlink:href="#mc118d2bc3d" y="792.247129"/>
     <use style="fill:#ae7181;stroke:#000000;stroke-linejoin:miter;" x="580.966039" xlink:href="#mc118d2bc3d" y="786.649132"/>
     <use style="fill:#ae7181;stroke:#000000;stroke-linejoin:miter;" x="623.683743" xlink:href="#mc118d2bc3d" y="781.699985"/>
     <use style="fill:#ae7181;stroke:#000000;stroke-linejoin:miter;" x="666.401446" xlink:href="#mc118d2bc3d" y="778.38952"/>
     <use style="fill:#ae7181;stroke:#000000;stroke-linejoin:miter;" x="709.119149" xlink:href="#mc118d2bc3d" y="778.826501"/>
     <use style="fill:#ae7181;stroke:#000000;stroke-linejoin:miter;" x="751.836853" xlink:href="#mc118d2bc3d" y="772.06653"/>
     <use style="fill:#ae7181;stroke:#000000;stroke-linejoin:miter;" x="794.554556" xlink:href="#mc118d2bc3d" y="767.832445"/>
     <use style="fill:#ae7181;stroke:#000000;stroke-linejoin:miter;" x="837.272259" xlink:href="#mc118d2bc3d" y="776.068883"/>
     <use style="fill:#ae7181;stroke:#000000;stroke-linejoin:miter;" x="879.989963" xlink:href="#mc118d2bc3d" y="769.586992"/>
     <use style="fill:#ae7181;stroke:#000000;stroke-linejoin:miter;" x="922.707666" xlink:href="#mc118d2bc3d" y="767.421947"/>
     <use style="fill:#ae7181;stroke:#000000;stroke-linejoin:miter;" x="965.425369" xlink:href="#mc118d2bc3d" y="764.608051"/>
    </g>
   </g>
   <g id="line2d_27">
    <path clip-path="url(#p3d12e6c093)" d="M 153.789006 477.481436 
L 196.506709 401.741293 
L 239.224412 358.725103 
L 281.942116 321.886241 
L 324.659819 298.070752 
L 367.377522 270.32905 
L 410.095226 252.353221 
L 452.812929 234.175455 
L 495.530632 229.279276 
L 538.248336 216.709438 
L 580.966039 201.93814 
L 623.683743 189.742385 
L 666.401446 183.502157 
L 709.119149 178.026647 
L 751.836853 170.422508 
L 794.554556 162.851473 
L 837.272259 165.708405 
L 879.989963 161.222724 
L 922.707666 151.350915 
L 965.425369 133.156596 
" style="fill:none;stroke:#ff81c0;stroke-dasharray:5.55,2.4;stroke-dashoffset:0;stroke-width:1.5;"/>
    <defs>
     <path d="M 0 2.25 
C 0.596707 2.25 1.169055 2.012926 1.59099 1.59099 
C 2.012926 1.169055 2.25 0.596707 2.25 0 
C 2.25 -0.596707 2.012926 -1.169055 1.59099 -1.59099 
C 1.169055 -2.012926 0.596707 -2.25 0 -2.25 
C -0.596707 -2.25 -1.169055 -2.012926 -1.59099 -1.59099 
C -2.012926 -1.169055 -2.25 -0.596707 -2.25 0 
C -2.25 0.596707 -2.012926 1.169055 -1.59099 1.59099 
C -1.169055 2.012926 -0.596707 2.25 0 2.25 
z
" id="m1086ad4ca2" style="stroke:#000000;"/>
    </defs>
    <g clip-path="url(#p3d12e6c093)">
     <use style="fill:#ff81c0;stroke:#000000;" x="153.789006" xlink:href="#m1086ad4ca2" y="477.481436"/>
     <use style="fill:#ff81c0;stroke:#000000;" x="196.506709" xlink:href="#m1086ad4ca2" y="401.741293"/>
     <use style="fill:#ff81c0;stroke:#000000;" x="239.224412" xlink:href="#m1086ad4ca2" y="358.725103"/>
     <use style="fill:#ff81c0;stroke:#000000;" x="281.942116" xlink:href="#m1086ad4ca2" y="321.886241"/>
     <use style="fill:#ff81c0;stroke:#000000;" x="324.659819" xlink:href="#m1086ad4ca2" y="298.070752"/>
     <use style="fill:#ff81c0;stroke:#000000;" x="367.377522" xlink:href="#m1086ad4ca2" y="270.32905"/>
     <use style="fill:#ff81c0;stroke:#000000;" x="410.095226" xlink:href="#m1086ad4ca2" y="252.353221"/>
     <use style="fill:#ff81c0;stroke:#000000;" x="452.812929" xlink:href="#m1086ad4ca2" y="234.175455"/>
     <use style="fill:#ff81c0;stroke:#000000;" x="495.530632" xlink:href="#m1086ad4ca2" y="229.279276"/>
     <use style="fill:#ff81c0;stroke:#000000;" x="538.248336" xlink:href="#m1086ad4ca2" y="216.709438"/>
     <use style="fill:#ff81c0;stroke:#000000;" x="580.966039" xlink:href="#m1086ad4ca2" y="201.93814"/>
     <use style="fill:#ff81c0;stroke:#000000;" x="623.683743" xlink:href="#m1086ad4ca2" y="189.742385"/>
     <use style="fill:#ff81c0;stroke:#000000;" x="666.401446" xlink:href="#m1086ad4ca2" y="183.502157"/>
     <use style="fill:#ff81c0;stroke:#000000;" x="709.119149" xlink:href="#m1086ad4ca2" y="178.026647"/>
     <use style="fill:#ff81c0;stroke:#000000;" x="751.836853" xlink:href="#m1086ad4ca2" y="170.422508"/>
     <use style="fill:#ff81c0;stroke:#000000;" x="794.554556" xlink:href="#m1086ad4ca2" y="162.851473"/>
     <use style="fill:#ff81c0;stroke:#000000;" x="837.272259" xlink:href="#m1086ad4ca2" y="165.708405"/>
     <use style="fill:#ff81c0;stroke:#000000;" x="879.989963" xlink:href="#m1086ad4ca2" y="161.222724"/>
     <use style="fill:#ff81c0;stroke:#000000;" x="922.707666" xlink:href="#m1086ad4ca2" y="151.350915"/>
     <use style="fill:#ff81c0;stroke:#000000;" x="965.425369" xlink:href="#m1086ad4ca2" y="133.156596"/>
    </g>
   </g>
   <g id="line2d_28">
    <path clip-path="url(#p3d12e6c093)" d="M 153.789006 415.377101 
L 196.506709 335.154588 
L 239.224412 291.926528 
L 281.942116 249.410217 
L 324.659819 229.938059 
L 367.377522 205.337989 
L 410.095226 188.729383 
L 452.812929 174.891636 
L 495.530632 161.83516 
L 538.248336 154.535583 
L 580.966039 143.819606 
L 623.683743 123.066297 
L 666.401446 120.874769 
L 709.119149 122.394272 
L 751.836853 103.210124 
L 794.554556 93.887853 
L 837.272259 104.855425 
L 879.989963 95.301422 
L 922.707666 88.95857 
L 965.425369 78.36839 
" style="fill:none;stroke:#f97306;stroke-dasharray:5.55,2.4;stroke-dashoffset:0;stroke-width:1.5;"/>
    <defs>
     <path d="M 4.5 0 
L -4.5 -4.5 
L -4.5 4.5 
z
" id="mbf8ef7a47c" style="stroke:#000000;stroke-linejoin:miter;"/>
    </defs>
    <g clip-path="url(#p3d12e6c093)">
     <use style="fill:#f97306;stroke:#000000;stroke-linejoin:miter;" x="153.789006" xlink:href="#mbf8ef7a47c" y="415.377101"/>
     <use style="fill:#f97306;stroke:#000000;stroke-linejoin:miter;" x="196.506709" xlink:href="#mbf8ef7a47c" y="335.154588"/>
     <use style="fill:#f97306;stroke:#000000;stroke-linejoin:miter;" x="239.224412" xlink:href="#mbf8ef7a47c" y="291.926528"/>
     <use style="fill:#f97306;stroke:#000000;stroke-linejoin:miter;" x="281.942116" xlink:href="#mbf8ef7a47c" y="249.410217"/>
     <use style="fill:#f97306;stroke:#000000;stroke-linejoin:miter;" x="324.659819" xlink:href="#mbf8ef7a47c" y="229.938059"/>
     <use style="fill:#f97306;stroke:#000000;stroke-linejoin:miter;" x="367.377522" xlink:href="#mbf8ef7a47c" y="205.337989"/>
     <use style="fill:#f97306;stroke:#000000;stroke-linejoin:miter;" x="410.095226" xlink:href="#mbf8ef7a47c" y="188.729383"/>
     <use style="fill:#f97306;stroke:#000000;stroke-linejoin:miter;" x="452.812929" xlink:href="#mbf8ef7a47c" y="174.891636"/>
     <use style="fill:#f97306;stroke:#000000;stroke-linejoin:miter;" x="495.530632" xlink:href="#mbf8ef7a47c" y="161.83516"/>
     <use style="fill:#f97306;stroke:#000000;stroke-linejoin:miter;" x="538.248336" xlink:href="#mbf8ef7a47c" y="154.535583"/>
     <use style="fill:#f97306;stroke:#000000;stroke-linejoin:miter;" x="580.966039" xlink:href="#mbf8ef7a47c" y="143.819606"/>
     <use style="fill:#f97306;stroke:#000000;stroke-linejoin:miter;" x="623.683743" xlink:href="#mbf8ef7a47c" y="123.066297"/>
     <use style="fill:#f97306;stroke:#000000;stroke-linejoin:miter;" x="666.401446" xlink:href="#mbf8ef7a47c" y="120.874769"/>
     <use style="fill:#f97306;stroke:#000000;stroke-linejoin:miter;" x="709.119149" xlink:href="#mbf8ef7a47c" y="122.394272"/>
     <use style="fill:#f97306;stroke:#000000;stroke-linejoin:miter;" x="751.836853" xlink:href="#mbf8ef7a47c" y="103.210124"/>
     <use style="fill:#f97306;stroke:#000000;stroke-linejoin:miter;" x="794.554556" xlink:href="#mbf8ef7a47c" y="93.887853"/>
     <use style="fill:#f97306;stroke:#000000;stroke-linejoin:miter;" x="837.272259" xlink:href="#mbf8ef7a47c" y="104.855425"/>
     <use style="fill:#f97306;stroke:#000000;stroke-linejoin:miter;" x="879.989963" xlink:href="#mbf8ef7a47c" y="95.301422"/>
     <use style="fill:#f97306;stroke:#000000;stroke-linejoin:miter;" x="922.707666" xlink:href="#mbf8ef7a47c" y="88.95857"/>
     <use style="fill:#f97306;stroke:#000000;stroke-linejoin:miter;" x="965.425369" xlink:href="#mbf8ef7a47c" y="78.36839"/>
    </g>
   </g>
   <g id="patch_3">
    <path d="M 113.207188 1005.12 
L 113.207188 7.2 
" style="fill:none;stroke:#000000;stroke-linecap:square;stroke-linejoin:miter;stroke-width:0.8;"/>
   </g>
   <g id="patch_4">
    <path d="M 1006.007187 1005.12 
L 1006.007187 7.2 
" style="fill:none;stroke:#000000;stroke-linecap:square;stroke-linejoin:miter;stroke-width:0.8;"/>
   </g>
   <g id="patch_5">
    <path d="M 113.207188 1005.12 
L 1006.007187 1005.12 
" style="fill:none;stroke:#000000;stroke-linecap:square;stroke-linejoin:miter;stroke-width:0.8;"/>
   </g>
   <g id="patch_6">
    <path d="M 113.207188 7.2 
L 1006.007187 7.2 
" style="fill:none;stroke:#000000;stroke-linecap:square;stroke-linejoin:miter;stroke-width:0.8;"/>
   </g>
   <g id="legend_1">
    <g id="patch_7">
     <path d="M 413.830625 642.763125 
L 985.007187 642.763125 
Q 991.007187 642.763125 991.007187 636.763125 
L 991.007187 375.556875 
Q 991.007187 369.556875 985.007187 369.556875 
L 413.830625 369.556875 
Q 407.830625 369.556875 407.830625 375.556875 
L 407.830625 636.763125 
Q 407.830625 642.763125 413.830625 642.763125 
z
" style="fill:#ffffff;opacity:0.8;stroke:#cccccc;stroke-linejoin:miter;"/>
    </g>
    <g id="line2d_29">
     <path d="M 419.830625 393.852187 
L 479.830625 393.852187 
" style="fill:none;stroke:#fe0002;stroke-dasharray:5.55,2.4;stroke-dashoffset:0;stroke-width:1.5;"/>
    </g>
    <g id="line2d_30">
     <g>
      <use style="fill:#fe0002;stroke:#000000;" x="449.830625" xlink:href="#m997dc5e727" y="393.852187"/>
     </g>
    </g>
    <g id="text_14">
     <!-- Pairing pointer updates -->
     <g transform="translate(503.830625 404.352187)scale(0.3 -0.3)">
      <defs>
       <path d="M 1259 4147 
L 1259 2394 
L 2053 2394 
Q 2494 2394 2734 2622 
Q 2975 2850 2975 3272 
Q 2975 3691 2734 3919 
Q 2494 4147 2053 4147 
L 1259 4147 
z
M 628 4666 
L 2053 4666 
Q 2838 4666 3239 4311 
Q 3641 3956 3641 3272 
Q 3641 2581 3239 2228 
Q 2838 1875 2053 1875 
L 1259 1875 
L 1259 0 
L 628 0 
L 628 4666 
z
" id="DejaVuSans-50" transform="scale(0.015625)"/>
      </defs>
      <use xlink:href="#DejaVuSans-50"/>
      <use x="55.802734" xlink:href="#DejaVuSans-61"/>
      <use x="117.082031" xlink:href="#DejaVuSans-69"/>
      <use x="144.865234" xlink:href="#DejaVuSans-72"/>
      <use x="185.978516" xlink:href="#DejaVuSans-69"/>
      <use x="213.761719" xlink:href="#DejaVuSans-6e"/>
      <use x="277.140625" xlink:href="#DejaVuSans-67"/>
      <use x="340.617188" xlink:href="#DejaVuSans-20"/>
      <use x="372.404297" xlink:href="#DejaVuSans-70"/>
      <use x="435.880859" xlink:href="#DejaVuSans-6f"/>
      <use x="497.0625" xlink:href="#DejaVuSans-69"/>
      <use x="524.845703" xlink:href="#DejaVuSans-6e"/>
      <use x="588.224609" xlink:href="#DejaVuSans-74"/>
      <use x="627.433594" xlink:href="#DejaVuSans-65"/>
      <use x="688.957031" xlink:href="#DejaVuSans-72"/>
      <use x="730.070312" xlink:href="#DejaVuSans-20"/>
      <use x="761.857422" xlink:href="#DejaVuSans-75"/>
      <use x="825.236328" xlink:href="#DejaVuSans-70"/>
      <use x="888.712891" xlink:href="#DejaVuSans-64"/>
      <use x="952.189453" xlink:href="#DejaVuSans-61"/>
      <use x="1013.46875" xlink:href="#DejaVuSans-74"/>
      <use x="1052.677734" xlink:href="#DejaVuSans-65"/>
      <use x="1114.201172" xlink:href="#DejaVuSans-73"/>
     </g>
    </g>
    <g id="line2d_31">
     <path d="M 419.830625 437.886562 
L 479.830625 437.886562 
" style="fill:none;stroke:#53fca1;stroke-dasharray:5.55,2.4;stroke-dashoffset:0;stroke-width:1.5;"/>
    </g>
    <g id="line2d_32">
     <g>
      <use style="fill:#53fca1;stroke:#000000;stroke-linejoin:miter;" x="449.830625" xlink:href="#m1a9258e23b" y="437.886562"/>
     </g>
    </g>
    <g id="text_15">
     <!-- Smooth pointer updates -->
     <g transform="translate(503.830625 448.386562)scale(0.3 -0.3)">
      <defs>
       <path d="M 3425 4513 
L 3425 3897 
Q 3066 4069 2747 4153 
Q 2428 4238 2131 4238 
Q 1616 4238 1336 4038 
Q 1056 3838 1056 3469 
Q 1056 3159 1242 3001 
Q 1428 2844 1947 2747 
L 2328 2669 
Q 3034 2534 3370 2195 
Q 3706 1856 3706 1288 
Q 3706 609 3251 259 
Q 2797 -91 1919 -91 
Q 1588 -91 1214 -16 
Q 841 59 441 206 
L 441 856 
Q 825 641 1194 531 
Q 1563 422 1919 422 
Q 2459 422 2753 634 
Q 3047 847 3047 1241 
Q 3047 1584 2836 1778 
Q 2625 1972 2144 2069 
L 1759 2144 
Q 1053 2284 737 2584 
Q 422 2884 422 3419 
Q 422 4038 858 4394 
Q 1294 4750 2059 4750 
Q 2388 4750 2728 4690 
Q 3069 4631 3425 4513 
z
" id="DejaVuSans-53" transform="scale(0.015625)"/>
       <path d="M 3513 2113 
L 3513 0 
L 2938 0 
L 2938 2094 
Q 2938 2591 2744 2837 
Q 2550 3084 2163 3084 
Q 1697 3084 1428 2787 
Q 1159 2491 1159 1978 
L 1159 0 
L 581 0 
L 581 4863 
L 1159 4863 
L 1159 2956 
Q 1366 3272 1645 3428 
Q 1925 3584 2291 3584 
Q 2894 3584 3203 3211 
Q 3513 2838 3513 2113 
z
" id="DejaVuSans-68" transform="scale(0.015625)"/>
      </defs>
      <use xlink:href="#DejaVuSans-53"/>
      <use x="63.476562" xlink:href="#DejaVuSans-6d"/>
      <use x="160.888672" xlink:href="#DejaVuSans-6f"/>
      <use x="222.070312" xlink:href="#DejaVuSans-6f"/>
      <use x="283.251953" xlink:href="#DejaVuSans-74"/>
      <use x="322.460938" xlink:href="#DejaVuSans-68"/>
      <use x="385.839844" xlink:href="#DejaVuSans-20"/>
      <use x="417.626953" xlink:href="#DejaVuSans-70"/>
      <use x="481.103516" xlink:href="#DejaVuSans-6f"/>
      <use x="542.285156" xlink:href="#DejaVuSans-69"/>
      <use x="570.068359" xlink:href="#DejaVuSans-6e"/>
      <use x="633.447266" xlink:href="#DejaVuSans-74"/>
      <use x="672.65625" xlink:href="#DejaVuSans-65"/>
      <use x="734.179688" xlink:href="#DejaVuSans-72"/>
      <use x="775.292969" xlink:href="#DejaVuSans-20"/>
      <use x="807.080078" xlink:href="#DejaVuSans-75"/>
      <use x="870.458984" xlink:href="#DejaVuSans-70"/>
      <use x="933.935547" xlink:href="#DejaVuSans-64"/>
      <use x="997.412109" xlink:href="#DejaVuSans-61"/>
      <use x="1058.691406" xlink:href="#DejaVuSans-74"/>
      <use x="1097.900391" xlink:href="#DejaVuSans-65"/>
      <use x="1159.423828" xlink:href="#DejaVuSans-73"/>
     </g>
    </g>
    <g id="line2d_33">
     <path d="M 419.830625 481.920937 
L 479.830625 481.920937 
" style="fill:none;stroke:#0652ff;stroke-dasharray:5.55,2.4;stroke-dashoffset:0;stroke-width:1.5;"/>
    </g>
    <g id="line2d_34">
     <g>
      <use style="fill:#0652ff;stroke:#000000;stroke-linejoin:miter;" x="449.830625" xlink:href="#m66f4fb1cb4" y="481.920937"/>
     </g>
    </g>
    <g id="text_16">
     <!-- Slim pointer updates -->
     <g transform="translate(503.830625 492.420937)scale(0.3 -0.3)">
      <use xlink:href="#DejaVuSans-53"/>
      <use x="63.476562" xlink:href="#DejaVuSans-6c"/>
      <use x="91.259766" xlink:href="#DejaVuSans-69"/>
      <use x="119.042969" xlink:href="#DejaVuSans-6d"/>
      <use x="216.455078" xlink:href="#DejaVuSans-20"/>
      <use x="248.242188" xlink:href="#DejaVuSans-70"/>
      <use x="311.71875" xlink:href="#DejaVuSans-6f"/>
      <use x="372.900391" xlink:href="#DejaVuSans-69"/>
      <use x="400.683594" xlink:href="#DejaVuSans-6e"/>
      <use x="464.0625" xlink:href="#DejaVuSans-74"/>
      <use x="503.271484" xlink:href="#DejaVuSans-65"/>
      <use x="564.794922" xlink:href="#DejaVuSans-72"/>
      <use x="605.908203" xlink:href="#DejaVuSans-20"/>
      <use x="637.695312" xlink:href="#DejaVuSans-75"/>
      <use x="701.074219" xlink:href="#DejaVuSans-70"/>
      <use x="764.550781" xlink:href="#DejaVuSans-64"/>
      <use x="828.027344" xlink:href="#DejaVuSans-61"/>
      <use x="889.306641" xlink:href="#DejaVuSans-74"/>
      <use x="928.515625" xlink:href="#DejaVuSans-65"/>
      <use x="990.039062" xlink:href="#DejaVuSans-73"/>
     </g>
    </g>
    <g id="line2d_35">
     <path d="M 419.830625 525.955312 
L 479.830625 525.955312 
" style="fill:none;stroke:#ae7181;stroke-dasharray:5.55,2.4;stroke-dashoffset:0;stroke-width:1.5;"/>
    </g>
    <g id="line2d_36">
     <g>
      <use style="fill:#ae7181;stroke:#000000;stroke-linejoin:miter;" x="449.830625" xlink:href="#mc118d2bc3d" y="525.955312"/>
     </g>
    </g>
    <g id="text_17">
     <!-- Pairing Lazy pointer updates -->
     <g transform="translate(503.830625 536.455312)scale(0.3 -0.3)">
      <defs>
       <path d="M 628 4666 
L 1259 4666 
L 1259 531 
L 3531 531 
L 3531 0 
L 628 0 
L 628 4666 
z
" id="DejaVuSans-4c" transform="scale(0.015625)"/>
      </defs>
      <use xlink:href="#DejaVuSans-50"/>
      <use x="55.802734" xlink:href="#DejaVuSans-61"/>
      <use x="117.082031" xlink:href="#DejaVuSans-69"/>
      <use x="144.865234" xlink:href="#DejaVuSans-72"/>
      <use x="185.978516" xlink:href="#DejaVuSans-69"/>
      <use x="213.761719" xlink:href="#DejaVuSans-6e"/>
      <use x="277.140625" xlink:href="#DejaVuSans-67"/>
      <use x="340.617188" xlink:href="#DejaVuSans-20"/>
      <use x="372.404297" xlink:href="#DejaVuSans-4c"/>
      <use x="428.117188" xlink:href="#DejaVuSans-61"/>
      <use x="489.396484" xlink:href="#DejaVuSans-7a"/>
      <use x="541.886719" xlink:href="#DejaVuSans-79"/>
      <use x="601.066406" xlink:href="#DejaVuSans-20"/>
      <use x="632.853516" xlink:href="#DejaVuSans-70"/>
      <use x="696.330078" xlink:href="#DejaVuSans-6f"/>
      <use x="757.511719" xlink:href="#DejaVuSans-69"/>
      <use x="785.294922" xlink:href="#DejaVuSans-6e"/>
      <use x="848.673828" xlink:href="#DejaVuSans-74"/>
      <use x="887.882812" xlink:href="#DejaVuSans-65"/>
      <use x="949.40625" xlink:href="#DejaVuSans-72"/>
      <use x="990.519531" xlink:href="#DejaVuSans-20"/>
      <use x="1022.306641" xlink:href="#DejaVuSans-75"/>
      <use x="1085.685547" xlink:href="#DejaVuSans-70"/>
      <use x="1149.162109" xlink:href="#DejaVuSans-64"/>
      <use x="1212.638672" xlink:href="#DejaVuSans-61"/>
      <use x="1273.917969" xlink:href="#DejaVuSans-74"/>
      <use x="1313.126953" xlink:href="#DejaVuSans-65"/>
      <use x="1374.650391" xlink:href="#DejaVuSans-73"/>
     </g>
    </g>
    <g id="line2d_37">
     <path d="M 419.830625 569.989687 
L 479.830625 569.989687 
" style="fill:none;stroke:#ff81c0;stroke-dasharray:5.55,2.4;stroke-dashoffset:0;stroke-width:1.5;"/>
    </g>
    <g id="line2d_38">
     <g>
      <use style="fill:#ff81c0;stroke:#000000;" x="449.830625" xlink:href="#m1086ad4ca2" y="569.989687"/>
     </g>
    </g>
    <g id="text_18">
     <!-- Pairing Slim pointer updates -->
     <g transform="translate(503.830625 580.489687)scale(0.3 -0.3)">
      <use xlink:href="#DejaVuSans-50"/>
      <use x="55.802734" xlink:href="#DejaVuSans-61"/>
      <use x="117.082031" xlink:href="#DejaVuSans-69"/>
      <use x="144.865234" xlink:href="#DejaVuSans-72"/>
      <use x="185.978516" xlink:href="#DejaVuSans-69"/>
      <use x="213.761719" xlink:href="#DejaVuSans-6e"/>
      <use x="277.140625" xlink:href="#DejaVuSans-67"/>
      <use x="340.617188" xlink:href="#DejaVuSans-20"/>
      <use x="372.404297" xlink:href="#DejaVuSans-53"/>
      <use x="435.880859" xlink:href="#DejaVuSans-6c"/>
      <use x="463.664062" xlink:href="#DejaVuSans-69"/>
      <use x="491.447266" xlink:href="#DejaVuSans-6d"/>
      <use x="588.859375" xlink:href="#DejaVuSans-20"/>
      <use x="620.646484" xlink:href="#DejaVuSans-70"/>
      <use x="684.123047" xlink:href="#DejaVuSans-6f"/>
      <use x="745.304688" xlink:href="#DejaVuSans-69"/>
      <use x="773.087891" xlink:href="#DejaVuSans-6e"/>
      <use x="836.466797" xlink:href="#DejaVuSans-74"/>
      <use x="875.675781" xlink:href="#DejaVuSans-65"/>
      <use x="937.199219" xlink:href="#DejaVuSans-72"/>
      <use x="978.3125" xlink:href="#DejaVuSans-20"/>
      <use x="1010.099609" xlink:href="#DejaVuSans-75"/>
      <use x="1073.478516" xlink:href="#DejaVuSans-70"/>
      <use x="1136.955078" xlink:href="#DejaVuSans-64"/>
      <use x="1200.431641" xlink:href="#DejaVuSans-61"/>
      <use x="1261.710938" xlink:href="#DejaVuSans-74"/>
      <use x="1300.919922" xlink:href="#DejaVuSans-65"/>
      <use x="1362.443359" xlink:href="#DejaVuSans-73"/>
     </g>
    </g>
    <g id="line2d_39">
     <path d="M 419.830625 614.024062 
L 479.830625 614.024062 
" style="fill:none;stroke:#f97306;stroke-dasharray:5.55,2.4;stroke-dashoffset:0;stroke-width:1.5;"/>
    </g>
    <g id="line2d_40">
     <g>
      <use style="fill:#f97306;stroke:#000000;stroke-linejoin:miter;" x="449.830625" xlink:href="#mbf8ef7a47c" y="614.024062"/>
     </g>
    </g>
    <g id="text_19">
     <!-- Pairing Smooth pointer updates -->
     <g transform="translate(503.830625 624.524062)scale(0.3 -0.3)">
      <use xlink:href="#DejaVuSans-50"/>
      <use x="55.802734" xlink:href="#DejaVuSans-61"/>
      <use x="117.082031" xlink:href="#DejaVuSans-69"/>
      <use x="144.865234" xlink:href="#DejaVuSans-72"/>
      <use x="185.978516" xlink:href="#DejaVuSans-69"/>
      <use x="213.761719" xlink:href="#DejaVuSans-6e"/>
      <use x="277.140625" xlink:href="#DejaVuSans-67"/>
      <use x="340.617188" xlink:href="#DejaVuSans-20"/>
      <use x="372.404297" xlink:href="#DejaVuSans-53"/>
      <use x="435.880859" xlink:href="#DejaVuSans-6d"/>
      <use x="533.292969" xlink:href="#DejaVuSans-6f"/>
      <use x="594.474609" xlink:href="#DejaVuSans-6f"/>
      <use x="655.65625" xlink:href="#DejaVuSans-74"/>
      <use x="694.865234" xlink:href="#DejaVuSans-68"/>
      <use x="758.244141" xlink:href="#DejaVuSans-20"/>
      <use x="790.03125" xlink:href="#DejaVuSans-70"/>
      <use x="853.507812" xlink:href="#DejaVuSans-6f"/>
      <use x="914.689453" xlink:href="#DejaVuSans-69"/>
      <use x="942.472656" xlink:href="#DejaVuSans-6e"/>
      <use x="1005.851562" xlink:href="#DejaVuSans-74"/>
      <use x="1045.060547" xlink:href="#DejaVuSans-65"/>
      <use x="1106.583984" xlink:href="#DejaVuSans-72"/>
      <use x="1147.697266" xlink:href="#DejaVuSans-20"/>
      <use x="1179.484375" xlink:href="#DejaVuSans-75"/>
      <use x="1242.863281" xlink:href="#DejaVuSans-70"/>
      <use x="1306.339844" xlink:href="#DejaVuSans-64"/>
      <use x="1369.816406" xlink:href="#DejaVuSans-61"/>
      <use x="1431.095703" xlink:href="#DejaVuSans-74"/>
      <use x="1470.304688" xlink:href="#DejaVuSans-65"/>
      <use x="1531.828125" xlink:href="#DejaVuSans-73"/>
     </g>
    </g>
   </g>
  </g>
 </g>
 <defs>
  <clipPath id="p3d12e6c093">
   <rect height="997.92" width="892.8" x="113.207188" y="7.2"/>
  </clipPath>
 </defs>
</svg>
