<?xml version="1.0" encoding="utf-8" standalone="no"?>
<!DOCTYPE svg PUBLIC "-//W3C//DTD SVG 1.1//EN"
  "http://www.w3.org/Graphics/SVG/1.1/DTD/svg11.dtd">
<svg height="1090.099062pt" version="1.1" viewBox="0 0 1034.011268 1090.099062" width="1034.011268pt" xmlns="http://www.w3.org/2000/svg" xmlns:xlink="http://www.w3.org/1999/xlink">
 <metadata>
  <rdf:RDF xmlns:cc="http://creativecommons.org/ns#" xmlns:dc="http://purl.org/dc/elements/1.1/" xmlns:rdf="http://www.w3.org/1999/02/22-rdf-syntax-ns#">
   <cc:Work>
    <dc:type rdf:resource="http://purl.org/dc/dcmitype/StillImage"/>
    <dc:date>2021-07-11T14:25:46.166538</dc:date>
    <dc:format>image/svg+xml</dc:format>
    <dc:creator>
     <cc:Agent>
      <dc:title>Matplotlib v3.4.2, https://matplotlib.org/</dc:title>
     </cc:Agent>
    </dc:creator>
   </cc:Work>
  </rdf:RDF>
 </metadata>
 <defs>
  <style type="text/css">*{stroke-linecap:butt;stroke-linejoin:round;}</style>
 </defs>
 <g id="figure_1">
  <g id="patch_1">
   <path d="M 0 1090.099062 
L 1034.011268 1090.099062 
L 1034.011268 0 
L 0 0 
z
" style="fill:#ffffff;"/>
  </g>
  <g id="axes_1">
   <g id="patch_2">
    <path d="M 113.207188 1005.12 
L 1006.007187 1005.12 
L 1006.007187 7.2 
L 113.207188 7.2 
z
" style="fill:#ffffff;"/>
   </g>
   <g id="PolyCollection_1">
    <defs>
     <path d="M 153.789006 -134.72814 
L 153.789006 -134.72814 
L 181.776466 -184.7362 
L 209.763927 -193.102368 
L 237.751388 -197.951733 
L 265.738849 -201.182276 
L 293.72631 -203.691131 
L 321.713771 -205.91799 
L 349.701231 -207.53113 
L 377.688692 -209.113016 
L 405.676153 -210.277944 
L 433.663614 -211.453526 
L 461.651075 -212.43377 
L 489.638535 -213.259874 
L 517.625996 -214.052592 
L 545.613457 -214.713902 
L 573.600918 -215.288552 
L 601.588379 -215.717586 
L 629.57584 -216.497519 
L 657.5633 -217.024578 
L 685.550761 -217.369794 
L 713.538222 -217.968595 
L 741.525683 -218.078695 
L 769.513144 -218.463689 
L 797.500604 -219.058939 
L 825.488065 -219.234388 
L 853.475526 -219.440382 
L 881.462987 -219.858761 
L 909.450448 -220.030659 
L 937.437909 -220.110925 
L 965.425369 -220.333256 
L 965.425369 -220.929926 
L 965.425369 -220.929926 
L 937.437909 -220.675631 
L 909.450448 -220.404288 
L 881.462987 -220.156386 
L 853.475526 -219.931214 
L 825.488065 -219.628617 
L 797.500604 -219.313234 
L 769.513144 -218.926819 
L 741.525683 -218.649794 
L 713.538222 -218.296764 
L 685.550761 -217.873412 
L 657.5633 -217.415255 
L 629.57584 -217.099872 
L 601.588379 -216.391681 
L 573.600918 -215.775833 
L 545.613457 -215.265822 
L 517.625996 -214.439718 
L 489.638535 -213.784091 
L 461.651075 -212.818054 
L 433.663614 -211.830707 
L 405.676153 -210.912261 
L 377.688692 -209.421296 
L 349.701231 -208.009887 
L 321.713771 -206.369044 
L 293.72631 -204.215349 
L 265.738849 -201.604917 
L 237.751388 -198.40847 
L 209.763927 -193.333222 
L 181.776466 -185.269651 
L 153.789006 -134.72814 
z
" id="m85a11eb9c9" style="stroke:#fe0002;stroke-opacity:0.3;"/>
    </defs>
    <g clip-path="url(#p59ccf811f0)">
     <use style="fill:#fe0002;fill-opacity:0.3;stroke:#fe0002;stroke-opacity:0.3;" x="0" xlink:href="#m85a11eb9c9" y="1090.099062"/>
    </g>
   </g>
   <g id="PolyCollection_2">
    <defs>
     <path d="M 153.789006 -130.340483 
L 153.789006 -130.340483 
L 181.776466 -339.825684 
L 209.763927 -373.310954 
L 237.751388 -392.344021 
L 265.738849 -404.753339 
L 293.72631 -415.571537 
L 321.713771 -423.650024 
L 349.701231 -430.26738 
L 377.688692 -435.812861 
L 405.676153 -440.260895 
L 433.663614 -445.04491 
L 461.651075 -449.15128 
L 489.638535 -452.705729 
L 517.625996 -454.69747 
L 545.613457 -458.968634 
L 573.600918 -460.686902 
L 601.588379 -463.062217 
L 629.57584 -465.286945 
L 657.5633 -467.189186 
L 685.550761 -468.684413 
L 713.538222 -471.004323 
L 741.525683 -471.729561 
L 769.513144 -472.228918 
L 797.500604 -474.610626 
L 825.488065 -475.684632 
L 853.475526 -476.789182 
L 881.462987 -477.552068 
L 909.450448 -478.779503 
L 937.437909 -480.204408 
L 965.425369 -480.126983 
L 965.425369 -482.495195 
L 965.425369 -482.495195 
L 937.437909 -482.233087 
L 909.450448 -480.89271 
L 881.462987 -479.694397 
L 853.475526 -478.474065 
L 825.488065 -477.300614 
L 797.500604 -477.046319 
L 769.513144 -475.109982 
L 741.525683 -473.737641 
L 713.538222 -472.122369 
L 685.550761 -470.320994 
L 657.5633 -469.203658 
L 629.57584 -467.205523 
L 601.588379 -464.715136 
L 573.600918 -462.199887 
L 545.613457 -459.53405 
L 517.625996 -458.03101 
L 489.638535 -454.350123 
L 461.651075 -451.336939 
L 433.663614 -446.748972 
L 405.676153 -443.365 
L 377.688692 -438.193859 
L 349.701231 -432.271197 
L 321.713771 -425.1417 
L 293.72631 -417.25713 
L 265.738849 -407.920663 
L 237.751388 -393.926617 
L 209.763927 -374.570354 
L 181.776466 -341.571655 
L 153.789006 -130.340483 
z
" id="me9f6705c40" style="stroke:#53fca1;stroke-opacity:0.3;"/>
    </defs>
    <g clip-path="url(#p59ccf811f0)">
     <use style="fill:#53fca1;fill-opacity:0.3;stroke:#53fca1;stroke-opacity:0.3;" x="0" xlink:href="#me9f6705c40" y="1090.099062"/>
    </g>
   </g>
   <g id="PolyCollection_3">
    <defs>
     <path d="M 153.789006 -130.339063 
L 153.789006 -130.339063 
L 181.776466 -349.752428 
L 209.763927 -392.984731 
L 237.751388 -418.804921 
L 265.738849 -436.930197 
L 293.72631 -449.979515 
L 321.713771 -461.546391 
L 349.701231 -470.083746 
L 377.688692 -477.795708 
L 405.676153 -483.626027 
L 433.663614 -490.549532 
L 461.651075 -495.776078 
L 489.638535 -500.77248 
L 517.625996 -503.870193 
L 545.613457 -508.274186 
L 573.600918 -510.913031 
L 601.588379 -514.647192 
L 629.57584 -517.623439 
L 657.5633 -520.000886 
L 685.550761 -521.695003 
L 713.538222 -525.049141 
L 741.525683 -525.748097 
L 769.513144 -527.267475 
L 797.500604 -530.189028 
L 825.488065 -531.113156 
L 853.475526 -532.351957 
L 881.462987 -534.774154 
L 909.450448 -536.420679 
L 937.437909 -536.681367 
L 965.425369 -537.63675 
L 965.425369 -540.868003 
L 965.425369 -540.868003 
L 937.437909 -539.970867 
L 909.450448 -538.533886 
L 881.462987 -538.279591 
L 853.475526 -535.884387 
L 825.488065 -535.288427 
L 797.500604 -533.236308 
L 769.513144 -531.259483 
L 741.525683 -529.230804 
L 713.538222 -527.257531 
L 685.550761 -525.039907 
L 657.5633 -523.290385 
L 629.57584 -519.909964 
L 601.588379 -517.389743 
L 573.600918 -513.641376 
L 545.613457 -511.10837 
L 517.625996 -506.866329 
L 489.638535 -503.338872 
L 461.651075 -498.799917 
L 433.663614 -493.611728 
L 405.676153 -486.757125 
L 377.688692 -481.134219 
L 349.701231 -473.082724 
L 321.713771 -463.789587 
L 293.72631 -453.487082 
L 265.738849 -439.255079 
L 237.751388 -421.635552 
L 209.763927 -396.937671 
L 181.776466 -352.742172 
L 153.789006 -130.339063 
z
" id="mbc555d5626" style="stroke:#0652ff;stroke-opacity:0.3;"/>
    </defs>
    <g clip-path="url(#p59ccf811f0)">
     <use style="fill:#0652ff;fill-opacity:0.3;stroke:#0652ff;stroke-opacity:0.3;" x="0" xlink:href="#mbc555d5626" y="1090.099062"/>
    </g>
   </g>
   <g id="PolyCollection_4">
    <defs>
     <path d="M 153.789006 -147.212752 
L 153.789006 -147.212752 
L 181.776466 -269.010884 
L 209.763927 -301.773046 
L 237.751388 -322.782228 
L 265.738849 -337.382178 
L 293.72631 -348.552695 
L 321.713771 -358.914866 
L 349.701231 -366.624697 
L 377.688692 -374.227979 
L 405.676153 -378.854304 
L 433.663614 -384.410439 
L 461.651075 -390.042579 
L 489.638535 -394.165996 
L 517.625996 -397.887371 
L 545.613457 -401.179711 
L 573.600918 -405.027523 
L 601.588379 -406.759287 
L 629.57584 -409.072805 
L 657.5633 -412.922748 
L 685.550761 -414.829251 
L 713.538222 -417.05895 
L 741.525683 -418.762301 
L 769.513144 -419.720525 
L 797.500604 -422.551867 
L 825.488065 -423.741656 
L 853.475526 -424.34827 
L 881.462987 -425.888248 
L 909.450448 -427.576682 
L 937.437909 -429.198346 
L 965.425369 -429.353907 
L 965.425369 -433.014904 
L 965.425369 -433.014904 
L 937.437909 -431.644694 
L 909.450448 -429.517991 
L 881.462987 -430.228312 
L 853.475526 -427.319546 
L 825.488065 -425.918791 
L 797.500604 -424.550712 
L 769.513144 -422.831734 
L 741.525683 -421.354975 
L 713.538222 -419.631025 
L 685.550761 -417.098728 
L 657.5633 -416.008385 
L 629.57584 -412.855267 
L 601.588379 -410.089275 
L 573.600918 -406.527012 
L 545.613457 -404.102685 
L 517.625996 -400.099312 
L 489.638535 -396.606661 
L 461.651075 -392.645908 
L 433.663614 -386.90793 
L 405.676153 -382.921605 
L 377.688692 -375.709 
L 349.701231 -368.590157 
L 321.713771 -360.485387 
L 293.72631 -351.000463 
L 265.738849 -339.734763 
L 237.751388 -324.307288 
L 209.763927 -303.301658 
L 181.776466 -270.994812 
L 153.789006 -147.212752 
z
" id="mf232f9952f" style="stroke:#ae7181;stroke-opacity:0.3;"/>
    </defs>
    <g clip-path="url(#p59ccf811f0)">
     <use style="fill:#ae7181;fill-opacity:0.3;stroke:#ae7181;stroke-opacity:0.3;" x="0" xlink:href="#mf232f9952f" y="1090.099062"/>
    </g>
   </g>
   <g id="PolyCollection_5">
    <defs>
     <path d="M 153.789006 -338.598959 
L 153.789006 -338.598959 
L 181.776466 -701.098795 
L 209.763927 -778.934413 
L 237.751388 -822.779724 
L 265.738849 -855.070233 
L 293.72631 -879.842698 
L 321.713771 -897.072969 
L 349.701231 -912.8691 
L 377.688692 -927.467629 
L 405.676153 -936.956816 
L 433.663614 -948.864647 
L 461.651075 -956.791125 
L 489.638535 -965.152321 
L 517.625996 -971.404571 
L 545.613457 -979.545567 
L 573.600918 -984.130693 
L 601.588379 -988.843676 
L 629.57584 -994.412598 
L 657.5633 -998.705071 
L 685.550761 -1002.962028 
L 713.538222 -1005.343737 
L 741.525683 -1009.766199 
L 769.513144 -1012.098895 
L 797.500604 -1015.325176 
L 825.488065 -1019.104086 
L 853.475526 -1018.662266 
L 881.462987 -1020.90049 
L 909.450448 -1024.782397 
L 937.437909 -1029.324904 
L 965.425369 -1031.884192 
L 965.425369 -1037.539062 
L 965.425369 -1037.539062 
L 937.437909 -1035.676599 
L 909.450448 -1033.363082 
L 881.462987 -1029.397356 
L 853.475526 -1028.489565 
L 825.488065 -1024.293696 
L 797.500604 -1021.796915 
L 769.513144 -1019.167305 
L 741.525683 -1015.79967 
L 713.538222 -1013.45774 
L 685.550761 -1008.153058 
L 657.5633 -1004.187333 
L 629.57584 -999.335837 
L 601.588379 -995.510755 
L 573.600918 -989.946096 
L 545.613457 -984.796974 
L 517.625996 -978.257754 
L 489.638535 -971.485548 
L 461.651075 -961.561645 
L 433.663614 -952.109396 
L 405.676153 -943.275126 
L 377.688692 -930.932578 
L 349.701231 -918.674559 
L 321.713771 -902.940935 
L 293.72631 -882.656992 
L 265.738849 -859.859931 
L 237.751388 -827.994194 
L 209.763927 -782.900139 
L 181.776466 -706.277039 
L 153.789006 -338.598959 
z
" id="m5637bfd47c" style="stroke:#11875d;stroke-opacity:0.3;"/>
    </defs>
    <g clip-path="url(#p59ccf811f0)">
     <use style="fill:#11875d;fill-opacity:0.3;stroke:#11875d;stroke-opacity:0.3;" x="0" xlink:href="#m5637bfd47c" y="1090.099062"/>
    </g>
   </g>
   <g id="PolyCollection_6">
    <defs>
     <path d="M 153.789006 -144.546915 
L 153.789006 -144.546915 
L 181.776466 -426.946627 
L 209.763927 -480.399747 
L 237.751388 -514.397159 
L 265.738849 -535.618016 
L 293.72631 -551.33175 
L 321.713771 -567.760068 
L 349.701231 -577.133471 
L 377.688692 -589.027096 
L 405.676153 -596.186427 
L 433.663614 -604.546912 
L 461.651075 -609.200229 
L 489.638535 -616.643689 
L 517.625996 -620.936162 
L 545.613457 -625.785528 
L 573.600918 -628.857669 
L 601.588379 -633.365369 
L 629.57584 -636.466634 
L 657.5633 -640.899751 
L 685.550761 -642.061126 
L 713.538222 -645.334999 
L 741.525683 -647.404165 
L 769.513144 -650.458548 
L 797.500604 -652.250689 
L 825.488065 -654.670045 
L 853.475526 -654.817081 
L 881.462987 -657.846603 
L 909.450448 -658.615881 
L 937.437909 -661.592129 
L 965.425369 -662.101429 
L 965.425369 -665.94569 
L 965.425369 -665.94569 
L 937.437909 -664.812016 
L 909.450448 -662.536146 
L 881.462987 -660.661607 
L 853.475526 -658.637901 
L 825.488065 -657.468002 
L 797.500604 -655.251798 
L 769.513144 -654.275106 
L 741.525683 -651.416772 
L 713.538222 -649.686429 
L 685.550761 -645.799549 
L 657.5633 -643.19551 
L 629.57584 -641.198796 
L 601.588379 -637.660684 
L 573.600918 -632.850386 
L 545.613457 -629.674538 
L 517.625996 -625.566749 
L 489.638535 -619.263355 
L 461.651075 -614.060249 
L 433.663614 -607.208487 
L 405.676153 -599.315394 
L 377.688692 -590.989715 
L 349.701231 -581.201483 
L 321.713771 -569.234695 
L 293.72631 -556.549062 
L 265.738849 -540.392087 
L 237.751388 -517.49345 
L 209.763927 -484.173685 
L 181.776466 -429.770155 
L 153.789006 -144.546915 
z
" id="m8ba3eb9cb2" style="stroke:#ff9408;stroke-opacity:0.3;"/>
    </defs>
    <g clip-path="url(#p59ccf811f0)">
     <use style="fill:#ff9408;fill-opacity:0.3;stroke:#ff9408;stroke-opacity:0.3;" x="0" xlink:href="#m8ba3eb9cb2" y="1090.099062"/>
    </g>
   </g>
   <g id="PolyCollection_7">
    <defs>
     <path d="M 153.789006 -155.200318 
L 153.789006 -155.200318 
L 181.776466 -431.675238 
L 209.763927 -480.220746 
L 237.751388 -509.25301 
L 265.738849 -529.364345 
L 293.72631 -544.19799 
L 321.713771 -557.60389 
L 349.701231 -566.625684 
L 377.688692 -576.443039 
L 405.676153 -583.887919 
L 433.663614 -589.975375 
L 461.651075 -596.503231 
L 489.638535 -601.484006 
L 517.625996 -605.639387 
L 545.613457 -610.639341 
L 573.600918 -612.630372 
L 601.588379 -615.993034 
L 629.57584 -619.266196 
L 657.5633 -624.257626 
L 685.550761 -625.798314 
L 713.538222 -626.839645 
L 741.525683 -629.706503 
L 769.513144 -631.872273 
L 797.500604 -634.897533 
L 825.488065 -636.603015 
L 853.475526 -638.209763 
L 881.462987 -639.999063 
L 909.450448 -641.785522 
L 937.437909 -643.247363 
L 965.425369 -644.249627 
L 965.425369 -646.605054 
L 965.425369 -646.605054 
L 937.437909 -647.652068 
L 909.450448 -643.292114 
L 881.462987 -642.475244 
L 853.475526 -641.729406 
L 825.488065 -638.804302 
L 797.500604 -637.755157 
L 769.513144 -637.191872 
L 741.525683 -634.717111 
L 713.538222 -631.190365 
L 685.550761 -628.851986 
L 657.5633 -626.113696 
L 629.57584 -623.805862 
L 601.588379 -620.780602 
L 573.600918 -616.263667 
L 545.613457 -613.404623 
L 517.625996 -609.036145 
L 489.638535 -604.757878 
L 461.651075 -599.163385 
L 433.663614 -593.4524 
L 405.676153 -586.304433 
L 377.688692 -579.026478 
L 349.701231 -570.050145 
L 321.713771 -560.104222 
L 293.72631 -548.201363 
L 265.738849 -532.109738 
L 237.751388 -511.328569 
L 209.763927 -483.023675 
L 181.776466 -434.498056 
L 153.789006 -155.200318 
z
" id="m3340e414ed" style="stroke:#ff81c0;stroke-opacity:0.3;"/>
    </defs>
    <g clip-path="url(#p59ccf811f0)">
     <use style="fill:#ff81c0;fill-opacity:0.3;stroke:#ff81c0;stroke-opacity:0.3;" x="0" xlink:href="#m3340e414ed" y="1090.099062"/>
    </g>
   </g>
   <g id="matplotlib.axis_1">
    <g id="xtick_1">
     <g id="line2d_1">
      <path clip-path="url(#p59ccf811f0)" d="M 153.789006 1005.12 
L 153.789006 7.2 
" style="fill:none;stroke:#b0b0b0;stroke-linecap:square;stroke-width:0.8;"/>
     </g>
     <g id="line2d_2">
      <defs>
       <path d="M 0 0 
L 0 3.5 
" id="m4ec07587a4" style="stroke:#000000;stroke-width:0.8;"/>
      </defs>
      <g>
       <use style="stroke:#000000;stroke-width:0.8;" x="153.789006" xlink:href="#m4ec07587a4" y="1005.12"/>
      </g>
     </g>
     <g id="text_1">
      <!-- 0.00 -->
      <g transform="translate(120.390568 1034.915313)scale(0.3 -0.3)">
       <defs>
        <path d="M 2034 4250 
Q 1547 4250 1301 3770 
Q 1056 3291 1056 2328 
Q 1056 1369 1301 889 
Q 1547 409 2034 409 
Q 2525 409 2770 889 
Q 3016 1369 3016 2328 
Q 3016 3291 2770 3770 
Q 2525 4250 2034 4250 
z
M 2034 4750 
Q 2819 4750 3233 4129 
Q 3647 3509 3647 2328 
Q 3647 1150 3233 529 
Q 2819 -91 2034 -91 
Q 1250 -91 836 529 
Q 422 1150 422 2328 
Q 422 3509 836 4129 
Q 1250 4750 2034 4750 
z
" id="DejaVuSans-30" transform="scale(0.015625)"/>
        <path d="M 684 794 
L 1344 794 
L 1344 0 
L 684 0 
L 684 794 
z
" id="DejaVuSans-2e" transform="scale(0.015625)"/>
       </defs>
       <use xlink:href="#DejaVuSans-30"/>
       <use x="63.623047" xlink:href="#DejaVuSans-2e"/>
       <use x="95.410156" xlink:href="#DejaVuSans-30"/>
       <use x="159.033203" xlink:href="#DejaVuSans-30"/>
      </g>
     </g>
    </g>
    <g id="xtick_2">
     <g id="line2d_3">
      <path clip-path="url(#p59ccf811f0)" d="M 293.72631 1005.12 
L 293.72631 7.2 
" style="fill:none;stroke:#b0b0b0;stroke-linecap:square;stroke-width:0.8;"/>
     </g>
     <g id="line2d_4">
      <g>
       <use style="stroke:#000000;stroke-width:0.8;" x="293.72631" xlink:href="#m4ec07587a4" y="1005.12"/>
      </g>
     </g>
     <g id="text_2">
      <!-- 0.05 -->
      <g transform="translate(260.327872 1034.915313)scale(0.3 -0.3)">
       <defs>
        <path d="M 691 4666 
L 3169 4666 
L 3169 4134 
L 1269 4134 
L 1269 2991 
Q 1406 3038 1543 3061 
Q 1681 3084 1819 3084 
Q 2600 3084 3056 2656 
Q 3513 2228 3513 1497 
Q 3513 744 3044 326 
Q 2575 -91 1722 -91 
Q 1428 -91 1123 -41 
Q 819 9 494 109 
L 494 744 
Q 775 591 1075 516 
Q 1375 441 1709 441 
Q 2250 441 2565 725 
Q 2881 1009 2881 1497 
Q 2881 1984 2565 2268 
Q 2250 2553 1709 2553 
Q 1456 2553 1204 2497 
Q 953 2441 691 2322 
L 691 4666 
z
" id="DejaVuSans-35" transform="scale(0.015625)"/>
       </defs>
       <use xlink:href="#DejaVuSans-30"/>
       <use x="63.623047" xlink:href="#DejaVuSans-2e"/>
       <use x="95.410156" xlink:href="#DejaVuSans-30"/>
       <use x="159.033203" xlink:href="#DejaVuSans-35"/>
      </g>
     </g>
    </g>
    <g id="xtick_3">
     <g id="line2d_5">
      <path clip-path="url(#p59ccf811f0)" d="M 433.663614 1005.12 
L 433.663614 7.2 
" style="fill:none;stroke:#b0b0b0;stroke-linecap:square;stroke-width:0.8;"/>
     </g>
     <g id="line2d_6">
      <g>
       <use style="stroke:#000000;stroke-width:0.8;" x="433.663614" xlink:href="#m4ec07587a4" y="1005.12"/>
      </g>
     </g>
     <g id="text_3">
      <!-- 0.10 -->
      <g transform="translate(400.265176 1034.915313)scale(0.3 -0.3)">
       <defs>
        <path d="M 794 531 
L 1825 531 
L 1825 4091 
L 703 3866 
L 703 4441 
L 1819 4666 
L 2450 4666 
L 2450 531 
L 3481 531 
L 3481 0 
L 794 0 
L 794 531 
z
" id="DejaVuSans-31" transform="scale(0.015625)"/>
       </defs>
       <use xlink:href="#DejaVuSans-30"/>
       <use x="63.623047" xlink:href="#DejaVuSans-2e"/>
       <use x="95.410156" xlink:href="#DejaVuSans-31"/>
       <use x="159.033203" xlink:href="#DejaVuSans-30"/>
      </g>
     </g>
    </g>
    <g id="xtick_4">
     <g id="line2d_7">
      <path clip-path="url(#p59ccf811f0)" d="M 573.600918 1005.12 
L 573.600918 7.2 
" style="fill:none;stroke:#b0b0b0;stroke-linecap:square;stroke-width:0.8;"/>
     </g>
     <g id="line2d_8">
      <g>
       <use style="stroke:#000000;stroke-width:0.8;" x="573.600918" xlink:href="#m4ec07587a4" y="1005.12"/>
      </g>
     </g>
     <g id="text_4">
      <!-- 0.15 -->
      <g transform="translate(540.20248 1034.915313)scale(0.3 -0.3)">
       <use xlink:href="#DejaVuSans-30"/>
       <use x="63.623047" xlink:href="#DejaVuSans-2e"/>
       <use x="95.410156" xlink:href="#DejaVuSans-31"/>
       <use x="159.033203" xlink:href="#DejaVuSans-35"/>
      </g>
     </g>
    </g>
    <g id="xtick_5">
     <g id="line2d_9">
      <path clip-path="url(#p59ccf811f0)" d="M 713.538222 1005.12 
L 713.538222 7.2 
" style="fill:none;stroke:#b0b0b0;stroke-linecap:square;stroke-width:0.8;"/>
     </g>
     <g id="line2d_10">
      <g>
       <use style="stroke:#000000;stroke-width:0.8;" x="713.538222" xlink:href="#m4ec07587a4" y="1005.12"/>
      </g>
     </g>
     <g id="text_5">
      <!-- 0.20 -->
      <g transform="translate(680.139784 1034.915313)scale(0.3 -0.3)">
       <defs>
        <path d="M 1228 531 
L 3431 531 
L 3431 0 
L 469 0 
L 469 531 
Q 828 903 1448 1529 
Q 2069 2156 2228 2338 
Q 2531 2678 2651 2914 
Q 2772 3150 2772 3378 
Q 2772 3750 2511 3984 
Q 2250 4219 1831 4219 
Q 1534 4219 1204 4116 
Q 875 4013 500 3803 
L 500 4441 
Q 881 4594 1212 4672 
Q 1544 4750 1819 4750 
Q 2544 4750 2975 4387 
Q 3406 4025 3406 3419 
Q 3406 3131 3298 2873 
Q 3191 2616 2906 2266 
Q 2828 2175 2409 1742 
Q 1991 1309 1228 531 
z
" id="DejaVuSans-32" transform="scale(0.015625)"/>
       </defs>
       <use xlink:href="#DejaVuSans-30"/>
       <use x="63.623047" xlink:href="#DejaVuSans-2e"/>
       <use x="95.410156" xlink:href="#DejaVuSans-32"/>
       <use x="159.033203" xlink:href="#DejaVuSans-30"/>
      </g>
     </g>
    </g>
    <g id="xtick_6">
     <g id="line2d_11">
      <path clip-path="url(#p59ccf811f0)" d="M 853.475526 1005.12 
L 853.475526 7.2 
" style="fill:none;stroke:#b0b0b0;stroke-linecap:square;stroke-width:0.8;"/>
     </g>
     <g id="line2d_12">
      <g>
       <use style="stroke:#000000;stroke-width:0.8;" x="853.475526" xlink:href="#m4ec07587a4" y="1005.12"/>
      </g>
     </g>
     <g id="text_6">
      <!-- 0.25 -->
      <g transform="translate(820.077089 1034.915313)scale(0.3 -0.3)">
       <use xlink:href="#DejaVuSans-30"/>
       <use x="63.623047" xlink:href="#DejaVuSans-2e"/>
       <use x="95.410156" xlink:href="#DejaVuSans-32"/>
       <use x="159.033203" xlink:href="#DejaVuSans-35"/>
      </g>
     </g>
    </g>
    <g id="xtick_7">
     <g id="line2d_13">
      <path clip-path="url(#p59ccf811f0)" d="M 993.41283 1005.12 
L 993.41283 7.2 
" style="fill:none;stroke:#b0b0b0;stroke-linecap:square;stroke-width:0.8;"/>
     </g>
     <g id="line2d_14">
      <g>
       <use style="stroke:#000000;stroke-width:0.8;" x="993.41283" xlink:href="#m4ec07587a4" y="1005.12"/>
      </g>
     </g>
     <g id="text_7">
      <!-- 0.30 -->
      <g transform="translate(960.014393 1034.915313)scale(0.3 -0.3)">
       <defs>
        <path d="M 2597 2516 
Q 3050 2419 3304 2112 
Q 3559 1806 3559 1356 
Q 3559 666 3084 287 
Q 2609 -91 1734 -91 
Q 1441 -91 1130 -33 
Q 819 25 488 141 
L 488 750 
Q 750 597 1062 519 
Q 1375 441 1716 441 
Q 2309 441 2620 675 
Q 2931 909 2931 1356 
Q 2931 1769 2642 2001 
Q 2353 2234 1838 2234 
L 1294 2234 
L 1294 2753 
L 1863 2753 
Q 2328 2753 2575 2939 
Q 2822 3125 2822 3475 
Q 2822 3834 2567 4026 
Q 2313 4219 1838 4219 
Q 1578 4219 1281 4162 
Q 984 4106 628 3988 
L 628 4550 
Q 988 4650 1302 4700 
Q 1616 4750 1894 4750 
Q 2613 4750 3031 4423 
Q 3450 4097 3450 3541 
Q 3450 3153 3228 2886 
Q 3006 2619 2597 2516 
z
" id="DejaVuSans-33" transform="scale(0.015625)"/>
       </defs>
       <use xlink:href="#DejaVuSans-30"/>
       <use x="63.623047" xlink:href="#DejaVuSans-2e"/>
       <use x="95.410156" xlink:href="#DejaVuSans-33"/>
       <use x="159.033203" xlink:href="#DejaVuSans-30"/>
      </g>
     </g>
    </g>
    <g id="text_8">
     <!-- Locality parameter -->
     <g transform="translate(375.313906 1074.788281)scale(0.39 -0.39)">
      <defs>
       <path d="M 628 4666 
L 1259 4666 
L 1259 531 
L 3531 531 
L 3531 0 
L 628 0 
L 628 4666 
z
" id="DejaVuSans-4c" transform="scale(0.015625)"/>
       <path d="M 1959 3097 
Q 1497 3097 1228 2736 
Q 959 2375 959 1747 
Q 959 1119 1226 758 
Q 1494 397 1959 397 
Q 2419 397 2687 759 
Q 2956 1122 2956 1747 
Q 2956 2369 2687 2733 
Q 2419 3097 1959 3097 
z
M 1959 3584 
Q 2709 3584 3137 3096 
Q 3566 2609 3566 1747 
Q 3566 888 3137 398 
Q 2709 -91 1959 -91 
Q 1206 -91 779 398 
Q 353 888 353 1747 
Q 353 2609 779 3096 
Q 1206 3584 1959 3584 
z
" id="DejaVuSans-6f" transform="scale(0.015625)"/>
       <path d="M 3122 3366 
L 3122 2828 
Q 2878 2963 2633 3030 
Q 2388 3097 2138 3097 
Q 1578 3097 1268 2742 
Q 959 2388 959 1747 
Q 959 1106 1268 751 
Q 1578 397 2138 397 
Q 2388 397 2633 464 
Q 2878 531 3122 666 
L 3122 134 
Q 2881 22 2623 -34 
Q 2366 -91 2075 -91 
Q 1284 -91 818 406 
Q 353 903 353 1747 
Q 353 2603 823 3093 
Q 1294 3584 2113 3584 
Q 2378 3584 2631 3529 
Q 2884 3475 3122 3366 
z
" id="DejaVuSans-63" transform="scale(0.015625)"/>
       <path d="M 2194 1759 
Q 1497 1759 1228 1600 
Q 959 1441 959 1056 
Q 959 750 1161 570 
Q 1363 391 1709 391 
Q 2188 391 2477 730 
Q 2766 1069 2766 1631 
L 2766 1759 
L 2194 1759 
z
M 3341 1997 
L 3341 0 
L 2766 0 
L 2766 531 
Q 2569 213 2275 61 
Q 1981 -91 1556 -91 
Q 1019 -91 701 211 
Q 384 513 384 1019 
Q 384 1609 779 1909 
Q 1175 2209 1959 2209 
L 2766 2209 
L 2766 2266 
Q 2766 2663 2505 2880 
Q 2244 3097 1772 3097 
Q 1472 3097 1187 3025 
Q 903 2953 641 2809 
L 641 3341 
Q 956 3463 1253 3523 
Q 1550 3584 1831 3584 
Q 2591 3584 2966 3190 
Q 3341 2797 3341 1997 
z
" id="DejaVuSans-61" transform="scale(0.015625)"/>
       <path d="M 603 4863 
L 1178 4863 
L 1178 0 
L 603 0 
L 603 4863 
z
" id="DejaVuSans-6c" transform="scale(0.015625)"/>
       <path d="M 603 3500 
L 1178 3500 
L 1178 0 
L 603 0 
L 603 3500 
z
M 603 4863 
L 1178 4863 
L 1178 4134 
L 603 4134 
L 603 4863 
z
" id="DejaVuSans-69" transform="scale(0.015625)"/>
       <path d="M 1172 4494 
L 1172 3500 
L 2356 3500 
L 2356 3053 
L 1172 3053 
L 1172 1153 
Q 1172 725 1289 603 
Q 1406 481 1766 481 
L 2356 481 
L 2356 0 
L 1766 0 
Q 1100 0 847 248 
Q 594 497 594 1153 
L 594 3053 
L 172 3053 
L 172 3500 
L 594 3500 
L 594 4494 
L 1172 4494 
z
" id="DejaVuSans-74" transform="scale(0.015625)"/>
       <path d="M 2059 -325 
Q 1816 -950 1584 -1140 
Q 1353 -1331 966 -1331 
L 506 -1331 
L 506 -850 
L 844 -850 
Q 1081 -850 1212 -737 
Q 1344 -625 1503 -206 
L 1606 56 
L 191 3500 
L 800 3500 
L 1894 763 
L 2988 3500 
L 3597 3500 
L 2059 -325 
z
" id="DejaVuSans-79" transform="scale(0.015625)"/>
       <path id="DejaVuSans-20" transform="scale(0.015625)"/>
       <path d="M 1159 525 
L 1159 -1331 
L 581 -1331 
L 581 3500 
L 1159 3500 
L 1159 2969 
Q 1341 3281 1617 3432 
Q 1894 3584 2278 3584 
Q 2916 3584 3314 3078 
Q 3713 2572 3713 1747 
Q 3713 922 3314 415 
Q 2916 -91 2278 -91 
Q 1894 -91 1617 61 
Q 1341 213 1159 525 
z
M 3116 1747 
Q 3116 2381 2855 2742 
Q 2594 3103 2138 3103 
Q 1681 3103 1420 2742 
Q 1159 2381 1159 1747 
Q 1159 1113 1420 752 
Q 1681 391 2138 391 
Q 2594 391 2855 752 
Q 3116 1113 3116 1747 
z
" id="DejaVuSans-70" transform="scale(0.015625)"/>
       <path d="M 2631 2963 
Q 2534 3019 2420 3045 
Q 2306 3072 2169 3072 
Q 1681 3072 1420 2755 
Q 1159 2438 1159 1844 
L 1159 0 
L 581 0 
L 581 3500 
L 1159 3500 
L 1159 2956 
Q 1341 3275 1631 3429 
Q 1922 3584 2338 3584 
Q 2397 3584 2469 3576 
Q 2541 3569 2628 3553 
L 2631 2963 
z
" id="DejaVuSans-72" transform="scale(0.015625)"/>
       <path d="M 3328 2828 
Q 3544 3216 3844 3400 
Q 4144 3584 4550 3584 
Q 5097 3584 5394 3201 
Q 5691 2819 5691 2113 
L 5691 0 
L 5113 0 
L 5113 2094 
Q 5113 2597 4934 2840 
Q 4756 3084 4391 3084 
Q 3944 3084 3684 2787 
Q 3425 2491 3425 1978 
L 3425 0 
L 2847 0 
L 2847 2094 
Q 2847 2600 2669 2842 
Q 2491 3084 2119 3084 
Q 1678 3084 1418 2786 
Q 1159 2488 1159 1978 
L 1159 0 
L 581 0 
L 581 3500 
L 1159 3500 
L 1159 2956 
Q 1356 3278 1631 3431 
Q 1906 3584 2284 3584 
Q 2666 3584 2933 3390 
Q 3200 3197 3328 2828 
z
" id="DejaVuSans-6d" transform="scale(0.015625)"/>
       <path d="M 3597 1894 
L 3597 1613 
L 953 1613 
Q 991 1019 1311 708 
Q 1631 397 2203 397 
Q 2534 397 2845 478 
Q 3156 559 3463 722 
L 3463 178 
Q 3153 47 2828 -22 
Q 2503 -91 2169 -91 
Q 1331 -91 842 396 
Q 353 884 353 1716 
Q 353 2575 817 3079 
Q 1281 3584 2069 3584 
Q 2775 3584 3186 3129 
Q 3597 2675 3597 1894 
z
M 3022 2063 
Q 3016 2534 2758 2815 
Q 2500 3097 2075 3097 
Q 1594 3097 1305 2825 
Q 1016 2553 972 2059 
L 3022 2063 
z
" id="DejaVuSans-65" transform="scale(0.015625)"/>
      </defs>
      <use xlink:href="#DejaVuSans-4c"/>
      <use x="53.962891" xlink:href="#DejaVuSans-6f"/>
      <use x="115.144531" xlink:href="#DejaVuSans-63"/>
      <use x="170.125" xlink:href="#DejaVuSans-61"/>
      <use x="231.404297" xlink:href="#DejaVuSans-6c"/>
      <use x="259.1875" xlink:href="#DejaVuSans-69"/>
      <use x="286.970703" xlink:href="#DejaVuSans-74"/>
      <use x="326.179688" xlink:href="#DejaVuSans-79"/>
      <use x="385.359375" xlink:href="#DejaVuSans-20"/>
      <use x="417.146484" xlink:href="#DejaVuSans-70"/>
      <use x="480.623047" xlink:href="#DejaVuSans-61"/>
      <use x="541.902344" xlink:href="#DejaVuSans-72"/>
      <use x="583.015625" xlink:href="#DejaVuSans-61"/>
      <use x="644.294922" xlink:href="#DejaVuSans-6d"/>
      <use x="741.707031" xlink:href="#DejaVuSans-65"/>
      <use x="803.230469" xlink:href="#DejaVuSans-74"/>
      <use x="842.439453" xlink:href="#DejaVuSans-65"/>
      <use x="903.962891" xlink:href="#DejaVuSans-72"/>
     </g>
    </g>
   </g>
   <g id="matplotlib.axis_2">
    <g id="ytick_1">
     <g id="line2d_15">
      <path clip-path="url(#p59ccf811f0)" d="M 113.207188 874.513596 
L 1006.007187 874.513596 
" style="fill:none;stroke:#b0b0b0;stroke-linecap:square;stroke-width:0.8;"/>
     </g>
     <g id="line2d_16">
      <defs>
       <path d="M 0 0 
L -3.5 0 
" id="mc56f725b76" style="stroke:#000000;stroke-width:0.8;"/>
      </defs>
      <g>
       <use style="stroke:#000000;stroke-width:0.8;" x="113.207188" xlink:href="#mc56f725b76" y="874.513596"/>
      </g>
     </g>
     <g id="text_9">
      <!-- 20 -->
      <g transform="translate(68.032188 885.911252)scale(0.3 -0.3)">
       <use xlink:href="#DejaVuSans-32"/>
       <use x="63.623047" xlink:href="#DejaVuSans-30"/>
      </g>
     </g>
    </g>
    <g id="ytick_2">
     <g id="line2d_17">
      <path clip-path="url(#p59ccf811f0)" d="M 113.207188 732.449279 
L 1006.007187 732.449279 
" style="fill:none;stroke:#b0b0b0;stroke-linecap:square;stroke-width:0.8;"/>
     </g>
     <g id="line2d_18">
      <g>
       <use style="stroke:#000000;stroke-width:0.8;" x="113.207188" xlink:href="#mc56f725b76" y="732.449279"/>
      </g>
     </g>
     <g id="text_10">
      <!-- 40 -->
      <g transform="translate(68.032188 743.846935)scale(0.3 -0.3)">
       <defs>
        <path d="M 2419 4116 
L 825 1625 
L 2419 1625 
L 2419 4116 
z
M 2253 4666 
L 3047 4666 
L 3047 1625 
L 3713 1625 
L 3713 1100 
L 3047 1100 
L 3047 0 
L 2419 0 
L 2419 1100 
L 313 1100 
L 313 1709 
L 2253 4666 
z
" id="DejaVuSans-34" transform="scale(0.015625)"/>
       </defs>
       <use xlink:href="#DejaVuSans-34"/>
       <use x="63.623047" xlink:href="#DejaVuSans-30"/>
      </g>
     </g>
    </g>
    <g id="ytick_3">
     <g id="line2d_19">
      <path clip-path="url(#p59ccf811f0)" d="M 113.207188 590.384961 
L 1006.007187 590.384961 
" style="fill:none;stroke:#b0b0b0;stroke-linecap:square;stroke-width:0.8;"/>
     </g>
     <g id="line2d_20">
      <g>
       <use style="stroke:#000000;stroke-width:0.8;" x="113.207188" xlink:href="#mc56f725b76" y="590.384961"/>
      </g>
     </g>
     <g id="text_11">
      <!-- 60 -->
      <g transform="translate(68.032188 601.782618)scale(0.3 -0.3)">
       <defs>
        <path d="M 2113 2584 
Q 1688 2584 1439 2293 
Q 1191 2003 1191 1497 
Q 1191 994 1439 701 
Q 1688 409 2113 409 
Q 2538 409 2786 701 
Q 3034 994 3034 1497 
Q 3034 2003 2786 2293 
Q 2538 2584 2113 2584 
z
M 3366 4563 
L 3366 3988 
Q 3128 4100 2886 4159 
Q 2644 4219 2406 4219 
Q 1781 4219 1451 3797 
Q 1122 3375 1075 2522 
Q 1259 2794 1537 2939 
Q 1816 3084 2150 3084 
Q 2853 3084 3261 2657 
Q 3669 2231 3669 1497 
Q 3669 778 3244 343 
Q 2819 -91 2113 -91 
Q 1303 -91 875 529 
Q 447 1150 447 2328 
Q 447 3434 972 4092 
Q 1497 4750 2381 4750 
Q 2619 4750 2861 4703 
Q 3103 4656 3366 4563 
z
" id="DejaVuSans-36" transform="scale(0.015625)"/>
       </defs>
       <use xlink:href="#DejaVuSans-36"/>
       <use x="63.623047" xlink:href="#DejaVuSans-30"/>
      </g>
     </g>
    </g>
    <g id="ytick_4">
     <g id="line2d_21">
      <path clip-path="url(#p59ccf811f0)" d="M 113.207188 448.320644 
L 1006.007187 448.320644 
" style="fill:none;stroke:#b0b0b0;stroke-linecap:square;stroke-width:0.8;"/>
     </g>
     <g id="line2d_22">
      <g>
       <use style="stroke:#000000;stroke-width:0.8;" x="113.207188" xlink:href="#mc56f725b76" y="448.320644"/>
      </g>
     </g>
     <g id="text_12">
      <!-- 80 -->
      <g transform="translate(68.032188 459.7183)scale(0.3 -0.3)">
       <defs>
        <path d="M 2034 2216 
Q 1584 2216 1326 1975 
Q 1069 1734 1069 1313 
Q 1069 891 1326 650 
Q 1584 409 2034 409 
Q 2484 409 2743 651 
Q 3003 894 3003 1313 
Q 3003 1734 2745 1975 
Q 2488 2216 2034 2216 
z
M 1403 2484 
Q 997 2584 770 2862 
Q 544 3141 544 3541 
Q 544 4100 942 4425 
Q 1341 4750 2034 4750 
Q 2731 4750 3128 4425 
Q 3525 4100 3525 3541 
Q 3525 3141 3298 2862 
Q 3072 2584 2669 2484 
Q 3125 2378 3379 2068 
Q 3634 1759 3634 1313 
Q 3634 634 3220 271 
Q 2806 -91 2034 -91 
Q 1263 -91 848 271 
Q 434 634 434 1313 
Q 434 1759 690 2068 
Q 947 2378 1403 2484 
z
M 1172 3481 
Q 1172 3119 1398 2916 
Q 1625 2713 2034 2713 
Q 2441 2713 2670 2916 
Q 2900 3119 2900 3481 
Q 2900 3844 2670 4047 
Q 2441 4250 2034 4250 
Q 1625 4250 1398 4047 
Q 1172 3844 1172 3481 
z
" id="DejaVuSans-38" transform="scale(0.015625)"/>
       </defs>
       <use xlink:href="#DejaVuSans-38"/>
       <use x="63.623047" xlink:href="#DejaVuSans-30"/>
      </g>
     </g>
    </g>
    <g id="ytick_5">
     <g id="line2d_23">
      <path clip-path="url(#p59ccf811f0)" d="M 113.207188 306.256327 
L 1006.007187 306.256327 
" style="fill:none;stroke:#b0b0b0;stroke-linecap:square;stroke-width:0.8;"/>
     </g>
     <g id="line2d_24">
      <g>
       <use style="stroke:#000000;stroke-width:0.8;" x="113.207188" xlink:href="#mc56f725b76" y="306.256327"/>
      </g>
     </g>
     <g id="text_13">
      <!-- 100 -->
      <g transform="translate(48.944688 317.653983)scale(0.3 -0.3)">
       <use xlink:href="#DejaVuSans-31"/>
       <use x="63.623047" xlink:href="#DejaVuSans-30"/>
       <use x="127.246094" xlink:href="#DejaVuSans-30"/>
      </g>
     </g>
    </g>
    <g id="ytick_6">
     <g id="line2d_25">
      <path clip-path="url(#p59ccf811f0)" d="M 113.207188 164.19201 
L 1006.007187 164.19201 
" style="fill:none;stroke:#b0b0b0;stroke-linecap:square;stroke-width:0.8;"/>
     </g>
     <g id="line2d_26">
      <g>
       <use style="stroke:#000000;stroke-width:0.8;" x="113.207188" xlink:href="#mc56f725b76" y="164.19201"/>
      </g>
     </g>
     <g id="text_14">
      <!-- 120 -->
      <g transform="translate(48.944688 175.589666)scale(0.3 -0.3)">
       <use xlink:href="#DejaVuSans-31"/>
       <use x="63.623047" xlink:href="#DejaVuSans-32"/>
       <use x="127.246094" xlink:href="#DejaVuSans-30"/>
      </g>
     </g>
    </g>
    <g id="ytick_7">
     <g id="line2d_27">
      <path clip-path="url(#p59ccf811f0)" d="M 113.207188 22.127692 
L 1006.007187 22.127692 
" style="fill:none;stroke:#b0b0b0;stroke-linecap:square;stroke-width:0.8;"/>
     </g>
     <g id="line2d_28">
      <g>
       <use style="stroke:#000000;stroke-width:0.8;" x="113.207188" xlink:href="#mc56f725b76" y="22.127692"/>
      </g>
     </g>
     <g id="text_15">
      <!-- 140 -->
      <g transform="translate(48.944688 33.525349)scale(0.3 -0.3)">
       <use xlink:href="#DejaVuSans-31"/>
       <use x="63.623047" xlink:href="#DejaVuSans-34"/>
       <use x="127.246094" xlink:href="#DejaVuSans-30"/>
      </g>
     </g>
    </g>
    <g id="text_16">
     <!-- Avg. number of pointer updates / size -->
     <g transform="translate(36.833906 873.549141)rotate(-90)scale(0.39 -0.39)">
      <defs>
       <path d="M 2188 4044 
L 1331 1722 
L 3047 1722 
L 2188 4044 
z
M 1831 4666 
L 2547 4666 
L 4325 0 
L 3669 0 
L 3244 1197 
L 1141 1197 
L 716 0 
L 50 0 
L 1831 4666 
z
" id="DejaVuSans-41" transform="scale(0.015625)"/>
       <path d="M 191 3500 
L 800 3500 
L 1894 563 
L 2988 3500 
L 3597 3500 
L 2284 0 
L 1503 0 
L 191 3500 
z
" id="DejaVuSans-76" transform="scale(0.015625)"/>
       <path d="M 2906 1791 
Q 2906 2416 2648 2759 
Q 2391 3103 1925 3103 
Q 1463 3103 1205 2759 
Q 947 2416 947 1791 
Q 947 1169 1205 825 
Q 1463 481 1925 481 
Q 2391 481 2648 825 
Q 2906 1169 2906 1791 
z
M 3481 434 
Q 3481 -459 3084 -895 
Q 2688 -1331 1869 -1331 
Q 1566 -1331 1297 -1286 
Q 1028 -1241 775 -1147 
L 775 -588 
Q 1028 -725 1275 -790 
Q 1522 -856 1778 -856 
Q 2344 -856 2625 -561 
Q 2906 -266 2906 331 
L 2906 616 
Q 2728 306 2450 153 
Q 2172 0 1784 0 
Q 1141 0 747 490 
Q 353 981 353 1791 
Q 353 2603 747 3093 
Q 1141 3584 1784 3584 
Q 2172 3584 2450 3431 
Q 2728 3278 2906 2969 
L 2906 3500 
L 3481 3500 
L 3481 434 
z
" id="DejaVuSans-67" transform="scale(0.015625)"/>
       <path d="M 3513 2113 
L 3513 0 
L 2938 0 
L 2938 2094 
Q 2938 2591 2744 2837 
Q 2550 3084 2163 3084 
Q 1697 3084 1428 2787 
Q 1159 2491 1159 1978 
L 1159 0 
L 581 0 
L 581 3500 
L 1159 3500 
L 1159 2956 
Q 1366 3272 1645 3428 
Q 1925 3584 2291 3584 
Q 2894 3584 3203 3211 
Q 3513 2838 3513 2113 
z
" id="DejaVuSans-6e" transform="scale(0.015625)"/>
       <path d="M 544 1381 
L 544 3500 
L 1119 3500 
L 1119 1403 
Q 1119 906 1312 657 
Q 1506 409 1894 409 
Q 2359 409 2629 706 
Q 2900 1003 2900 1516 
L 2900 3500 
L 3475 3500 
L 3475 0 
L 2900 0 
L 2900 538 
Q 2691 219 2414 64 
Q 2138 -91 1772 -91 
Q 1169 -91 856 284 
Q 544 659 544 1381 
z
M 1991 3584 
L 1991 3584 
z
" id="DejaVuSans-75" transform="scale(0.015625)"/>
       <path d="M 3116 1747 
Q 3116 2381 2855 2742 
Q 2594 3103 2138 3103 
Q 1681 3103 1420 2742 
Q 1159 2381 1159 1747 
Q 1159 1113 1420 752 
Q 1681 391 2138 391 
Q 2594 391 2855 752 
Q 3116 1113 3116 1747 
z
M 1159 2969 
Q 1341 3281 1617 3432 
Q 1894 3584 2278 3584 
Q 2916 3584 3314 3078 
Q 3713 2572 3713 1747 
Q 3713 922 3314 415 
Q 2916 -91 2278 -91 
Q 1894 -91 1617 61 
Q 1341 213 1159 525 
L 1159 0 
L 581 0 
L 581 4863 
L 1159 4863 
L 1159 2969 
z
" id="DejaVuSans-62" transform="scale(0.015625)"/>
       <path d="M 2375 4863 
L 2375 4384 
L 1825 4384 
Q 1516 4384 1395 4259 
Q 1275 4134 1275 3809 
L 1275 3500 
L 2222 3500 
L 2222 3053 
L 1275 3053 
L 1275 0 
L 697 0 
L 697 3053 
L 147 3053 
L 147 3500 
L 697 3500 
L 697 3744 
Q 697 4328 969 4595 
Q 1241 4863 1831 4863 
L 2375 4863 
z
" id="DejaVuSans-66" transform="scale(0.015625)"/>
       <path d="M 2906 2969 
L 2906 4863 
L 3481 4863 
L 3481 0 
L 2906 0 
L 2906 525 
Q 2725 213 2448 61 
Q 2172 -91 1784 -91 
Q 1150 -91 751 415 
Q 353 922 353 1747 
Q 353 2572 751 3078 
Q 1150 3584 1784 3584 
Q 2172 3584 2448 3432 
Q 2725 3281 2906 2969 
z
M 947 1747 
Q 947 1113 1208 752 
Q 1469 391 1925 391 
Q 2381 391 2643 752 
Q 2906 1113 2906 1747 
Q 2906 2381 2643 2742 
Q 2381 3103 1925 3103 
Q 1469 3103 1208 2742 
Q 947 2381 947 1747 
z
" id="DejaVuSans-64" transform="scale(0.015625)"/>
       <path d="M 2834 3397 
L 2834 2853 
Q 2591 2978 2328 3040 
Q 2066 3103 1784 3103 
Q 1356 3103 1142 2972 
Q 928 2841 928 2578 
Q 928 2378 1081 2264 
Q 1234 2150 1697 2047 
L 1894 2003 
Q 2506 1872 2764 1633 
Q 3022 1394 3022 966 
Q 3022 478 2636 193 
Q 2250 -91 1575 -91 
Q 1294 -91 989 -36 
Q 684 19 347 128 
L 347 722 
Q 666 556 975 473 
Q 1284 391 1588 391 
Q 1994 391 2212 530 
Q 2431 669 2431 922 
Q 2431 1156 2273 1281 
Q 2116 1406 1581 1522 
L 1381 1569 
Q 847 1681 609 1914 
Q 372 2147 372 2553 
Q 372 3047 722 3315 
Q 1072 3584 1716 3584 
Q 2034 3584 2315 3537 
Q 2597 3491 2834 3397 
z
" id="DejaVuSans-73" transform="scale(0.015625)"/>
       <path d="M 1625 4666 
L 2156 4666 
L 531 -594 
L 0 -594 
L 1625 4666 
z
" id="DejaVuSans-2f" transform="scale(0.015625)"/>
       <path d="M 353 3500 
L 3084 3500 
L 3084 2975 
L 922 459 
L 3084 459 
L 3084 0 
L 275 0 
L 275 525 
L 2438 3041 
L 353 3041 
L 353 3500 
z
" id="DejaVuSans-7a" transform="scale(0.015625)"/>
      </defs>
      <use xlink:href="#DejaVuSans-41"/>
      <use x="62.533203" xlink:href="#DejaVuSans-76"/>
      <use x="121.712891" xlink:href="#DejaVuSans-67"/>
      <use x="185.189453" xlink:href="#DejaVuSans-2e"/>
      <use x="216.976562" xlink:href="#DejaVuSans-20"/>
      <use x="248.763672" xlink:href="#DejaVuSans-6e"/>
      <use x="312.142578" xlink:href="#DejaVuSans-75"/>
      <use x="375.521484" xlink:href="#DejaVuSans-6d"/>
      <use x="472.933594" xlink:href="#DejaVuSans-62"/>
      <use x="536.410156" xlink:href="#DejaVuSans-65"/>
      <use x="597.933594" xlink:href="#DejaVuSans-72"/>
      <use x="639.046875" xlink:href="#DejaVuSans-20"/>
      <use x="670.833984" xlink:href="#DejaVuSans-6f"/>
      <use x="732.015625" xlink:href="#DejaVuSans-66"/>
      <use x="767.220703" xlink:href="#DejaVuSans-20"/>
      <use x="799.007812" xlink:href="#DejaVuSans-70"/>
      <use x="862.484375" xlink:href="#DejaVuSans-6f"/>
      <use x="923.666016" xlink:href="#DejaVuSans-69"/>
      <use x="951.449219" xlink:href="#DejaVuSans-6e"/>
      <use x="1014.828125" xlink:href="#DejaVuSans-74"/>
      <use x="1054.037109" xlink:href="#DejaVuSans-65"/>
      <use x="1115.560547" xlink:href="#DejaVuSans-72"/>
      <use x="1156.673828" xlink:href="#DejaVuSans-20"/>
      <use x="1188.460938" xlink:href="#DejaVuSans-75"/>
      <use x="1251.839844" xlink:href="#DejaVuSans-70"/>
      <use x="1315.316406" xlink:href="#DejaVuSans-64"/>
      <use x="1378.792969" xlink:href="#DejaVuSans-61"/>
      <use x="1440.072266" xlink:href="#DejaVuSans-74"/>
      <use x="1479.28125" xlink:href="#DejaVuSans-65"/>
      <use x="1540.804688" xlink:href="#DejaVuSans-73"/>
      <use x="1592.904297" xlink:href="#DejaVuSans-20"/>
      <use x="1624.691406" xlink:href="#DejaVuSans-2f"/>
      <use x="1658.382812" xlink:href="#DejaVuSans-20"/>
      <use x="1690.169922" xlink:href="#DejaVuSans-73"/>
      <use x="1742.269531" xlink:href="#DejaVuSans-69"/>
      <use x="1770.052734" xlink:href="#DejaVuSans-7a"/>
      <use x="1822.542969" xlink:href="#DejaVuSans-65"/>
     </g>
    </g>
   </g>
   <g id="line2d_29">
    <path clip-path="url(#p59ccf811f0)" d="M 153.789006 955.370923 
L 181.776466 905.133358 
L 209.763927 896.886808 
L 237.751388 891.989638 
L 265.738849 888.63138 
L 293.72631 886.091341 
L 321.713771 884.037162 
L 349.701231 882.337362 
L 377.688692 880.839152 
L 405.676153 879.596089 
L 433.663614 878.477404 
L 461.651075 877.454043 
L 489.638535 876.61629 
L 517.625996 875.8593 
L 545.613457 875.127101 
L 573.600918 874.562892 
L 601.588379 873.941148 
L 629.57584 873.385961 
L 657.5633 872.866502 
L 685.550761 872.435337 
L 713.538222 871.965815 
L 741.525683 871.693051 
L 769.513144 871.35579 
L 797.500604 870.918161 
L 825.488065 870.654064 
L 853.475526 870.363187 
L 881.462987 870.115782 
L 909.450448 869.870863 
L 937.437909 869.568692 
L 965.425369 869.468892 
" style="fill:none;stroke:#fe0002;stroke-dasharray:5.55,2.4;stroke-dashoffset:0;stroke-width:1.5;"/>
    <defs>
     <path d="M 0 4.5 
C 1.193414 4.5 2.338109 4.025852 3.181981 3.181981 
C 4.025852 2.338109 4.5 1.193414 4.5 0 
C 4.5 -1.193414 4.025852 -2.338109 3.181981 -3.181981 
C 2.338109 -4.025852 1.193414 -4.5 0 -4.5 
C -1.193414 -4.5 -2.338109 -4.025852 -3.181981 -3.181981 
C -4.025852 -2.338109 -4.5 -1.193414 -4.5 0 
C -4.5 1.193414 -4.025852 2.338109 -3.181981 3.181981 
C -2.338109 4.025852 -1.193414 4.5 0 4.5 
z
" id="m019768bab7" style="stroke:#000000;"/>
    </defs>
    <g clip-path="url(#p59ccf811f0)">
     <use style="fill:#fe0002;stroke:#000000;" x="153.789006" xlink:href="#m019768bab7" y="955.370923"/>
     <use style="fill:#fe0002;stroke:#000000;" x="181.776466" xlink:href="#m019768bab7" y="905.133358"/>
     <use style="fill:#fe0002;stroke:#000000;" x="209.763927" xlink:href="#m019768bab7" y="896.886808"/>
     <use style="fill:#fe0002;stroke:#000000;" x="237.751388" xlink:href="#m019768bab7" y="891.989638"/>
     <use style="fill:#fe0002;stroke:#000000;" x="265.738849" xlink:href="#m019768bab7" y="888.63138"/>
     <use style="fill:#fe0002;stroke:#000000;" x="293.72631" xlink:href="#m019768bab7" y="886.091341"/>
     <use style="fill:#fe0002;stroke:#000000;" x="321.713771" xlink:href="#m019768bab7" y="884.037162"/>
     <use style="fill:#fe0002;stroke:#000000;" x="349.701231" xlink:href="#m019768bab7" y="882.337362"/>
     <use style="fill:#fe0002;stroke:#000000;" x="377.688692" xlink:href="#m019768bab7" y="880.839152"/>
     <use style="fill:#fe0002;stroke:#000000;" x="405.676153" xlink:href="#m019768bab7" y="879.596089"/>
     <use style="fill:#fe0002;stroke:#000000;" x="433.663614" xlink:href="#m019768bab7" y="878.477404"/>
     <use style="fill:#fe0002;stroke:#000000;" x="461.651075" xlink:href="#m019768bab7" y="877.454043"/>
     <use style="fill:#fe0002;stroke:#000000;" x="489.638535" xlink:href="#m019768bab7" y="876.61629"/>
     <use style="fill:#fe0002;stroke:#000000;" x="517.625996" xlink:href="#m019768bab7" y="875.8593"/>
     <use style="fill:#fe0002;stroke:#000000;" x="545.613457" xlink:href="#m019768bab7" y="875.127101"/>
     <use style="fill:#fe0002;stroke:#000000;" x="573.600918" xlink:href="#m019768bab7" y="874.562892"/>
     <use style="fill:#fe0002;stroke:#000000;" x="601.588379" xlink:href="#m019768bab7" y="873.941148"/>
     <use style="fill:#fe0002;stroke:#000000;" x="629.57584" xlink:href="#m019768bab7" y="873.385961"/>
     <use style="fill:#fe0002;stroke:#000000;" x="657.5633" xlink:href="#m019768bab7" y="872.866502"/>
     <use style="fill:#fe0002;stroke:#000000;" x="685.550761" xlink:href="#m019768bab7" y="872.435337"/>
     <use style="fill:#fe0002;stroke:#000000;" x="713.538222" xlink:href="#m019768bab7" y="871.965815"/>
     <use style="fill:#fe0002;stroke:#000000;" x="741.525683" xlink:href="#m019768bab7" y="871.693051"/>
     <use style="fill:#fe0002;stroke:#000000;" x="769.513144" xlink:href="#m019768bab7" y="871.35579"/>
     <use style="fill:#fe0002;stroke:#000000;" x="797.500604" xlink:href="#m019768bab7" y="870.918161"/>
     <use style="fill:#fe0002;stroke:#000000;" x="825.488065" xlink:href="#m019768bab7" y="870.654064"/>
     <use style="fill:#fe0002;stroke:#000000;" x="853.475526" xlink:href="#m019768bab7" y="870.363187"/>
     <use style="fill:#fe0002;stroke:#000000;" x="881.462987" xlink:href="#m019768bab7" y="870.115782"/>
     <use style="fill:#fe0002;stroke:#000000;" x="909.450448" xlink:href="#m019768bab7" y="869.870863"/>
     <use style="fill:#fe0002;stroke:#000000;" x="937.437909" xlink:href="#m019768bab7" y="869.568692"/>
     <use style="fill:#fe0002;stroke:#000000;" x="965.425369" xlink:href="#m019768bab7" y="869.468892"/>
    </g>
   </g>
   <g id="line2d_30">
    <path clip-path="url(#p59ccf811f0)" d="M 153.789006 959.758579 
L 181.776466 749.417228 
L 209.763927 716.322777 
L 237.751388 696.832263 
L 265.738849 683.6092 
L 293.72631 673.810314 
L 321.713771 665.655396 
L 349.701231 659.050968 
L 377.688692 653.030708 
L 405.676153 648.471651 
L 433.663614 644.159289 
L 461.651075 639.970878 
L 489.638535 636.564388 
L 517.625996 633.708896 
L 545.613457 630.869101 
L 573.600918 628.49613 
L 601.588379 626.167482 
L 629.57584 624.061166 
L 657.5633 621.985961 
L 685.550761 620.529092 
L 713.538222 618.573434 
L 741.525683 617.598305 
L 769.513144 616.374208 
L 797.500604 614.672419 
L 825.488065 613.410036 
L 853.475526 612.408908 
L 881.462987 611.515466 
L 909.450448 610.474916 
L 937.437909 608.831303 
L 965.425369 608.638521 
" style="fill:none;stroke:#53fca1;stroke-dasharray:5.55,2.4;stroke-dashoffset:0;stroke-width:1.5;"/>
    <defs>
     <path d="M 0 -4.5 
L -4.5 4.5 
L 4.5 4.5 
z
" id="m59b0979e36" style="stroke:#000000;stroke-linejoin:miter;"/>
    </defs>
    <g clip-path="url(#p59ccf811f0)">
     <use style="fill:#53fca1;stroke:#000000;stroke-linejoin:miter;" x="153.789006" xlink:href="#m59b0979e36" y="959.758579"/>
     <use style="fill:#53fca1;stroke:#000000;stroke-linejoin:miter;" x="181.776466" xlink:href="#m59b0979e36" y="749.417228"/>
     <use style="fill:#53fca1;stroke:#000000;stroke-linejoin:miter;" x="209.763927" xlink:href="#m59b0979e36" y="716.322777"/>
     <use style="fill:#53fca1;stroke:#000000;stroke-linejoin:miter;" x="237.751388" xlink:href="#m59b0979e36" y="696.832263"/>
     <use style="fill:#53fca1;stroke:#000000;stroke-linejoin:miter;" x="265.738849" xlink:href="#m59b0979e36" y="683.6092"/>
     <use style="fill:#53fca1;stroke:#000000;stroke-linejoin:miter;" x="293.72631" xlink:href="#m59b0979e36" y="673.810314"/>
     <use style="fill:#53fca1;stroke:#000000;stroke-linejoin:miter;" x="321.713771" xlink:href="#m59b0979e36" y="665.655396"/>
     <use style="fill:#53fca1;stroke:#000000;stroke-linejoin:miter;" x="349.701231" xlink:href="#m59b0979e36" y="659.050968"/>
     <use style="fill:#53fca1;stroke:#000000;stroke-linejoin:miter;" x="377.688692" xlink:href="#m59b0979e36" y="653.030708"/>
     <use style="fill:#53fca1;stroke:#000000;stroke-linejoin:miter;" x="405.676153" xlink:href="#m59b0979e36" y="648.471651"/>
     <use style="fill:#53fca1;stroke:#000000;stroke-linejoin:miter;" x="433.663614" xlink:href="#m59b0979e36" y="644.159289"/>
     <use style="fill:#53fca1;stroke:#000000;stroke-linejoin:miter;" x="461.651075" xlink:href="#m59b0979e36" y="639.970878"/>
     <use style="fill:#53fca1;stroke:#000000;stroke-linejoin:miter;" x="489.638535" xlink:href="#m59b0979e36" y="636.564388"/>
     <use style="fill:#53fca1;stroke:#000000;stroke-linejoin:miter;" x="517.625996" xlink:href="#m59b0979e36" y="633.708896"/>
     <use style="fill:#53fca1;stroke:#000000;stroke-linejoin:miter;" x="545.613457" xlink:href="#m59b0979e36" y="630.869101"/>
     <use style="fill:#53fca1;stroke:#000000;stroke-linejoin:miter;" x="573.600918" xlink:href="#m59b0979e36" y="628.49613"/>
     <use style="fill:#53fca1;stroke:#000000;stroke-linejoin:miter;" x="601.588379" xlink:href="#m59b0979e36" y="626.167482"/>
     <use style="fill:#53fca1;stroke:#000000;stroke-linejoin:miter;" x="629.57584" xlink:href="#m59b0979e36" y="624.061166"/>
     <use style="fill:#53fca1;stroke:#000000;stroke-linejoin:miter;" x="657.5633" xlink:href="#m59b0979e36" y="621.985961"/>
     <use style="fill:#53fca1;stroke:#000000;stroke-linejoin:miter;" x="685.550761" xlink:href="#m59b0979e36" y="620.529092"/>
     <use style="fill:#53fca1;stroke:#000000;stroke-linejoin:miter;" x="713.538222" xlink:href="#m59b0979e36" y="618.573434"/>
     <use style="fill:#53fca1;stroke:#000000;stroke-linejoin:miter;" x="741.525683" xlink:href="#m59b0979e36" y="617.598305"/>
     <use style="fill:#53fca1;stroke:#000000;stroke-linejoin:miter;" x="769.513144" xlink:href="#m59b0979e36" y="616.374208"/>
     <use style="fill:#53fca1;stroke:#000000;stroke-linejoin:miter;" x="797.500604" xlink:href="#m59b0979e36" y="614.672419"/>
     <use style="fill:#53fca1;stroke:#000000;stroke-linejoin:miter;" x="825.488065" xlink:href="#m59b0979e36" y="613.410036"/>
     <use style="fill:#53fca1;stroke:#000000;stroke-linejoin:miter;" x="853.475526" xlink:href="#m59b0979e36" y="612.408908"/>
     <use style="fill:#53fca1;stroke:#000000;stroke-linejoin:miter;" x="881.462987" xlink:href="#m59b0979e36" y="611.515466"/>
     <use style="fill:#53fca1;stroke:#000000;stroke-linejoin:miter;" x="909.450448" xlink:href="#m59b0979e36" y="610.474916"/>
     <use style="fill:#53fca1;stroke:#000000;stroke-linejoin:miter;" x="937.437909" xlink:href="#m59b0979e36" y="608.831303"/>
     <use style="fill:#53fca1;stroke:#000000;stroke-linejoin:miter;" x="965.425369" xlink:href="#m59b0979e36" y="608.638521"/>
    </g>
   </g>
   <g id="line2d_31">
    <path clip-path="url(#p59ccf811f0)" d="M 153.789006 959.76 
L 181.776466 739.114937 
L 209.763927 695.754705 
L 237.751388 669.961294 
L 265.738849 651.844613 
L 293.72631 638.829959 
L 321.713771 627.699788 
L 349.701231 618.421426 
L 377.688692 610.580683 
L 405.676153 604.36544 
L 433.663614 598.187986 
L 461.651075 593.185688 
L 489.638535 588.337744 
L 517.625996 584.495046 
L 545.613457 580.299247 
L 573.600918 577.534463 
L 601.588379 573.850025 
L 629.57584 571.634034 
L 657.5633 568.434746 
L 685.550761 566.906631 
L 713.538222 563.975702 
L 741.525683 562.533678 
L 769.513144 560.680378 
L 797.500604 558.270683 
L 825.488065 556.510577 
L 853.475526 555.740447 
L 881.462987 553.952993 
L 909.450448 552.640319 
L 937.437909 551.629958 
L 965.425369 550.799876 
" style="fill:none;stroke:#0652ff;stroke-dasharray:5.55,2.4;stroke-dashoffset:0;stroke-width:1.5;"/>
    <defs>
     <path d="M 0 -4.5 
L -4.279754 -1.390576 
L -2.645034 3.640576 
L 2.645034 3.640576 
L 4.279754 -1.390576 
z
" id="mc9d2a6f67f" style="stroke:#000000;stroke-linejoin:miter;"/>
    </defs>
    <g clip-path="url(#p59ccf811f0)">
     <use style="fill:#0652ff;stroke:#000000;stroke-linejoin:miter;" x="153.789006" xlink:href="#mc9d2a6f67f" y="959.76"/>
     <use style="fill:#0652ff;stroke:#000000;stroke-linejoin:miter;" x="181.776466" xlink:href="#mc9d2a6f67f" y="739.114937"/>
     <use style="fill:#0652ff;stroke:#000000;stroke-linejoin:miter;" x="209.763927" xlink:href="#mc9d2a6f67f" y="695.754705"/>
     <use style="fill:#0652ff;stroke:#000000;stroke-linejoin:miter;" x="237.751388" xlink:href="#mc9d2a6f67f" y="669.961294"/>
     <use style="fill:#0652ff;stroke:#000000;stroke-linejoin:miter;" x="265.738849" xlink:href="#mc9d2a6f67f" y="651.844613"/>
     <use style="fill:#0652ff;stroke:#000000;stroke-linejoin:miter;" x="293.72631" xlink:href="#mc9d2a6f67f" y="638.829959"/>
     <use style="fill:#0652ff;stroke:#000000;stroke-linejoin:miter;" x="321.713771" xlink:href="#mc9d2a6f67f" y="627.699788"/>
     <use style="fill:#0652ff;stroke:#000000;stroke-linejoin:miter;" x="349.701231" xlink:href="#mc9d2a6f67f" y="618.421426"/>
     <use style="fill:#0652ff;stroke:#000000;stroke-linejoin:miter;" x="377.688692" xlink:href="#mc9d2a6f67f" y="610.580683"/>
     <use style="fill:#0652ff;stroke:#000000;stroke-linejoin:miter;" x="405.676153" xlink:href="#mc9d2a6f67f" y="604.36544"/>
     <use style="fill:#0652ff;stroke:#000000;stroke-linejoin:miter;" x="433.663614" xlink:href="#mc9d2a6f67f" y="598.187986"/>
     <use style="fill:#0652ff;stroke:#000000;stroke-linejoin:miter;" x="461.651075" xlink:href="#mc9d2a6f67f" y="593.185688"/>
     <use style="fill:#0652ff;stroke:#000000;stroke-linejoin:miter;" x="489.638535" xlink:href="#mc9d2a6f67f" y="588.337744"/>
     <use style="fill:#0652ff;stroke:#000000;stroke-linejoin:miter;" x="517.625996" xlink:href="#mc9d2a6f67f" y="584.495046"/>
     <use style="fill:#0652ff;stroke:#000000;stroke-linejoin:miter;" x="545.613457" xlink:href="#mc9d2a6f67f" y="580.299247"/>
     <use style="fill:#0652ff;stroke:#000000;stroke-linejoin:miter;" x="573.600918" xlink:href="#mc9d2a6f67f" y="577.534463"/>
     <use style="fill:#0652ff;stroke:#000000;stroke-linejoin:miter;" x="601.588379" xlink:href="#mc9d2a6f67f" y="573.850025"/>
     <use style="fill:#0652ff;stroke:#000000;stroke-linejoin:miter;" x="629.57584" xlink:href="#mc9d2a6f67f" y="571.634034"/>
     <use style="fill:#0652ff;stroke:#000000;stroke-linejoin:miter;" x="657.5633" xlink:href="#mc9d2a6f67f" y="568.434746"/>
     <use style="fill:#0652ff;stroke:#000000;stroke-linejoin:miter;" x="685.550761" xlink:href="#mc9d2a6f67f" y="566.906631"/>
     <use style="fill:#0652ff;stroke:#000000;stroke-linejoin:miter;" x="713.538222" xlink:href="#mc9d2a6f67f" y="563.975702"/>
     <use style="fill:#0652ff;stroke:#000000;stroke-linejoin:miter;" x="741.525683" xlink:href="#mc9d2a6f67f" y="562.533678"/>
     <use style="fill:#0652ff;stroke:#000000;stroke-linejoin:miter;" x="769.513144" xlink:href="#mc9d2a6f67f" y="560.680378"/>
     <use style="fill:#0652ff;stroke:#000000;stroke-linejoin:miter;" x="797.500604" xlink:href="#mc9d2a6f67f" y="558.270683"/>
     <use style="fill:#0652ff;stroke:#000000;stroke-linejoin:miter;" x="825.488065" xlink:href="#mc9d2a6f67f" y="556.510577"/>
     <use style="fill:#0652ff;stroke:#000000;stroke-linejoin:miter;" x="853.475526" xlink:href="#mc9d2a6f67f" y="555.740447"/>
     <use style="fill:#0652ff;stroke:#000000;stroke-linejoin:miter;" x="881.462987" xlink:href="#mc9d2a6f67f" y="553.952993"/>
     <use style="fill:#0652ff;stroke:#000000;stroke-linejoin:miter;" x="909.450448" xlink:href="#mc9d2a6f67f" y="552.640319"/>
     <use style="fill:#0652ff;stroke:#000000;stroke-linejoin:miter;" x="937.437909" xlink:href="#mc9d2a6f67f" y="551.629958"/>
     <use style="fill:#0652ff;stroke:#000000;stroke-linejoin:miter;" x="965.425369" xlink:href="#mc9d2a6f67f" y="550.799876"/>
    </g>
   </g>
   <g id="line2d_32">
    <path clip-path="url(#p59ccf811f0)" d="M 153.789006 942.886311 
L 181.776466 820.37672 
L 209.763927 787.324889 
L 237.751388 766.599481 
L 265.738849 751.582146 
L 293.72631 740.182905 
L 321.713771 730.385937 
L 349.701231 722.2318 
L 377.688692 715.289685 
L 405.676153 709.138655 
L 433.663614 704.024553 
L 461.651075 698.637758 
L 489.638535 694.833986 
L 517.625996 691.198702 
L 545.613457 687.371063 
L 573.600918 684.247566 
L 601.588379 681.580877 
L 629.57584 679.095391 
L 657.5633 675.968058 
L 685.550761 674.136707 
L 713.538222 671.946146 
L 741.525683 670.242156 
L 769.513144 668.781734 
L 797.500604 666.56205 
L 825.488065 665.172448 
L 853.475526 663.58076 
L 881.462987 661.992125 
L 909.450448 661.430829 
L 937.437909 659.843545 
L 965.425369 658.758528 
" style="fill:none;stroke:#ae7181;stroke-dasharray:5.55,2.4;stroke-dashoffset:0;stroke-width:1.5;"/>
    <defs>
     <path d="M -4.5 4.5 
L 4.5 4.5 
L 4.5 -4.5 
L -4.5 -4.5 
z
" id="me3f0de41a0" style="stroke:#000000;stroke-linejoin:miter;"/>
    </defs>
    <g clip-path="url(#p59ccf811f0)">
     <use style="fill:#ae7181;stroke:#000000;stroke-linejoin:miter;" x="153.789006" xlink:href="#me3f0de41a0" y="942.886311"/>
     <use style="fill:#ae7181;stroke:#000000;stroke-linejoin:miter;" x="181.776466" xlink:href="#me3f0de41a0" y="820.37672"/>
     <use style="fill:#ae7181;stroke:#000000;stroke-linejoin:miter;" x="209.763927" xlink:href="#me3f0de41a0" y="787.324889"/>
     <use style="fill:#ae7181;stroke:#000000;stroke-linejoin:miter;" x="237.751388" xlink:href="#me3f0de41a0" y="766.599481"/>
     <use style="fill:#ae7181;stroke:#000000;stroke-linejoin:miter;" x="265.738849" xlink:href="#me3f0de41a0" y="751.582146"/>
     <use style="fill:#ae7181;stroke:#000000;stroke-linejoin:miter;" x="293.72631" xlink:href="#me3f0de41a0" y="740.182905"/>
     <use style="fill:#ae7181;stroke:#000000;stroke-linejoin:miter;" x="321.713771" xlink:href="#me3f0de41a0" y="730.385937"/>
     <use style="fill:#ae7181;stroke:#000000;stroke-linejoin:miter;" x="349.701231" xlink:href="#me3f0de41a0" y="722.2318"/>
     <use style="fill:#ae7181;stroke:#000000;stroke-linejoin:miter;" x="377.688692" xlink:href="#me3f0de41a0" y="715.289685"/>
     <use style="fill:#ae7181;stroke:#000000;stroke-linejoin:miter;" x="405.676153" xlink:href="#me3f0de41a0" y="709.138655"/>
     <use style="fill:#ae7181;stroke:#000000;stroke-linejoin:miter;" x="433.663614" xlink:href="#me3f0de41a0" y="704.024553"/>
     <use style="fill:#ae7181;stroke:#000000;stroke-linejoin:miter;" x="461.651075" xlink:href="#me3f0de41a0" y="698.637758"/>
     <use style="fill:#ae7181;stroke:#000000;stroke-linejoin:miter;" x="489.638535" xlink:href="#me3f0de41a0" y="694.833986"/>
     <use style="fill:#ae7181;stroke:#000000;stroke-linejoin:miter;" x="517.625996" xlink:href="#me3f0de41a0" y="691.198702"/>
     <use style="fill:#ae7181;stroke:#000000;stroke-linejoin:miter;" x="545.613457" xlink:href="#me3f0de41a0" y="687.371063"/>
     <use style="fill:#ae7181;stroke:#000000;stroke-linejoin:miter;" x="573.600918" xlink:href="#me3f0de41a0" y="684.247566"/>
     <use style="fill:#ae7181;stroke:#000000;stroke-linejoin:miter;" x="601.588379" xlink:href="#me3f0de41a0" y="681.580877"/>
     <use style="fill:#ae7181;stroke:#000000;stroke-linejoin:miter;" x="629.57584" xlink:href="#me3f0de41a0" y="679.095391"/>
     <use style="fill:#ae7181;stroke:#000000;stroke-linejoin:miter;" x="657.5633" xlink:href="#me3f0de41a0" y="675.968058"/>
     <use style="fill:#ae7181;stroke:#000000;stroke-linejoin:miter;" x="685.550761" xlink:href="#me3f0de41a0" y="674.136707"/>
     <use style="fill:#ae7181;stroke:#000000;stroke-linejoin:miter;" x="713.538222" xlink:href="#me3f0de41a0" y="671.946146"/>
     <use style="fill:#ae7181;stroke:#000000;stroke-linejoin:miter;" x="741.525683" xlink:href="#me3f0de41a0" y="670.242156"/>
     <use style="fill:#ae7181;stroke:#000000;stroke-linejoin:miter;" x="769.513144" xlink:href="#me3f0de41a0" y="668.781734"/>
     <use style="fill:#ae7181;stroke:#000000;stroke-linejoin:miter;" x="797.500604" xlink:href="#me3f0de41a0" y="666.56205"/>
     <use style="fill:#ae7181;stroke:#000000;stroke-linejoin:miter;" x="825.488065" xlink:href="#me3f0de41a0" y="665.172448"/>
     <use style="fill:#ae7181;stroke:#000000;stroke-linejoin:miter;" x="853.475526" xlink:href="#me3f0de41a0" y="663.58076"/>
     <use style="fill:#ae7181;stroke:#000000;stroke-linejoin:miter;" x="881.462987" xlink:href="#me3f0de41a0" y="661.992125"/>
     <use style="fill:#ae7181;stroke:#000000;stroke-linejoin:miter;" x="909.450448" xlink:href="#me3f0de41a0" y="661.430829"/>
     <use style="fill:#ae7181;stroke:#000000;stroke-linejoin:miter;" x="937.437909" xlink:href="#me3f0de41a0" y="659.843545"/>
     <use style="fill:#ae7181;stroke:#000000;stroke-linejoin:miter;" x="965.425369" xlink:href="#me3f0de41a0" y="658.758528"/>
    </g>
   </g>
   <g id="line2d_33">
    <path clip-path="url(#p59ccf811f0)" d="M 153.789006 751.500104 
L 181.776466 386.43693 
L 209.763927 309.649391 
L 237.751388 264.340676 
L 265.738849 232.696489 
L 293.72631 209.186336 
L 321.713771 190.502392 
L 349.701231 174.484427 
L 377.688692 160.503168 
L 405.676153 149.454541 
L 433.663614 139.45094 
L 461.651075 130.820604 
L 489.638535 121.697873 
L 517.625996 114.628895 
L 545.613457 108.399374 
L 573.600918 103.211043 
L 601.588379 98.175148 
L 629.57584 93.675757 
L 657.5633 88.205145 
L 685.550761 84.018864 
L 713.538222 80.407447 
L 741.525683 77.211569 
L 769.513144 75.65497 
L 797.500604 70.960028 
L 825.488065 68.585636 
L 853.475526 65.583888 
L 881.462987 64.382237 
L 909.450448 60.913879 
L 937.437909 57.500642 
L 965.425369 56.194005 
" style="fill:none;stroke:#11875d;stroke-dasharray:5.55,2.4;stroke-dashoffset:0;stroke-width:1.5;"/>
    <defs>
     <path d="M -0 4.5 
L 4.5 -4.5 
L -4.5 -4.5 
z
" id="m986310ddca" style="stroke:#000000;stroke-linejoin:miter;"/>
    </defs>
    <g clip-path="url(#p59ccf811f0)">
     <use style="fill:#11875d;stroke:#000000;stroke-linejoin:miter;" x="153.789006" xlink:href="#m986310ddca" y="751.500104"/>
     <use style="fill:#11875d;stroke:#000000;stroke-linejoin:miter;" x="181.776466" xlink:href="#m986310ddca" y="386.43693"/>
     <use style="fill:#11875d;stroke:#000000;stroke-linejoin:miter;" x="209.763927" xlink:href="#m986310ddca" y="309.649391"/>
     <use style="fill:#11875d;stroke:#000000;stroke-linejoin:miter;" x="237.751388" xlink:href="#m986310ddca" y="264.340676"/>
     <use style="fill:#11875d;stroke:#000000;stroke-linejoin:miter;" x="265.738849" xlink:href="#m986310ddca" y="232.696489"/>
     <use style="fill:#11875d;stroke:#000000;stroke-linejoin:miter;" x="293.72631" xlink:href="#m986310ddca" y="209.186336"/>
     <use style="fill:#11875d;stroke:#000000;stroke-linejoin:miter;" x="321.713771" xlink:href="#m986310ddca" y="190.502392"/>
     <use style="fill:#11875d;stroke:#000000;stroke-linejoin:miter;" x="349.701231" xlink:href="#m986310ddca" y="174.484427"/>
     <use style="fill:#11875d;stroke:#000000;stroke-linejoin:miter;" x="377.688692" xlink:href="#m986310ddca" y="160.503168"/>
     <use style="fill:#11875d;stroke:#000000;stroke-linejoin:miter;" x="405.676153" xlink:href="#m986310ddca" y="149.454541"/>
     <use style="fill:#11875d;stroke:#000000;stroke-linejoin:miter;" x="433.663614" xlink:href="#m986310ddca" y="139.45094"/>
     <use style="fill:#11875d;stroke:#000000;stroke-linejoin:miter;" x="461.651075" xlink:href="#m986310ddca" y="130.820604"/>
     <use style="fill:#11875d;stroke:#000000;stroke-linejoin:miter;" x="489.638535" xlink:href="#m986310ddca" y="121.697873"/>
     <use style="fill:#11875d;stroke:#000000;stroke-linejoin:miter;" x="517.625996" xlink:href="#m986310ddca" y="114.628895"/>
     <use style="fill:#11875d;stroke:#000000;stroke-linejoin:miter;" x="545.613457" xlink:href="#m986310ddca" y="108.399374"/>
     <use style="fill:#11875d;stroke:#000000;stroke-linejoin:miter;" x="573.600918" xlink:href="#m986310ddca" y="103.211043"/>
     <use style="fill:#11875d;stroke:#000000;stroke-linejoin:miter;" x="601.588379" xlink:href="#m986310ddca" y="98.175148"/>
     <use style="fill:#11875d;stroke:#000000;stroke-linejoin:miter;" x="629.57584" xlink:href="#m986310ddca" y="93.675757"/>
     <use style="fill:#11875d;stroke:#000000;stroke-linejoin:miter;" x="657.5633" xlink:href="#m986310ddca" y="88.205145"/>
     <use style="fill:#11875d;stroke:#000000;stroke-linejoin:miter;" x="685.550761" xlink:href="#m986310ddca" y="84.018864"/>
     <use style="fill:#11875d;stroke:#000000;stroke-linejoin:miter;" x="713.538222" xlink:href="#m986310ddca" y="80.407447"/>
     <use style="fill:#11875d;stroke:#000000;stroke-linejoin:miter;" x="741.525683" xlink:href="#m986310ddca" y="77.211569"/>
     <use style="fill:#11875d;stroke:#000000;stroke-linejoin:miter;" x="769.513144" xlink:href="#m986310ddca" y="75.65497"/>
     <use style="fill:#11875d;stroke:#000000;stroke-linejoin:miter;" x="797.500604" xlink:href="#m986310ddca" y="70.960028"/>
     <use style="fill:#11875d;stroke:#000000;stroke-linejoin:miter;" x="825.488065" xlink:href="#m986310ddca" y="68.585636"/>
     <use style="fill:#11875d;stroke:#000000;stroke-linejoin:miter;" x="853.475526" xlink:href="#m986310ddca" y="65.583888"/>
     <use style="fill:#11875d;stroke:#000000;stroke-linejoin:miter;" x="881.462987" xlink:href="#m986310ddca" y="64.382237"/>
     <use style="fill:#11875d;stroke:#000000;stroke-linejoin:miter;" x="909.450448" xlink:href="#m986310ddca" y="60.913879"/>
     <use style="fill:#11875d;stroke:#000000;stroke-linejoin:miter;" x="937.437909" xlink:href="#m986310ddca" y="57.500642"/>
     <use style="fill:#11875d;stroke:#000000;stroke-linejoin:miter;" x="965.425369" xlink:href="#m986310ddca" y="56.194005"/>
    </g>
   </g>
   <g id="line2d_34">
    <path clip-path="url(#p59ccf811f0)" d="M 153.789006 945.552148 
L 181.776466 662.007824 
L 209.763927 607.413714 
L 237.751388 574.310739 
L 265.738849 552.140253 
L 293.72631 535.846328 
L 321.713771 521.509623 
L 349.701231 510.605477 
L 377.688692 500.159061 
L 405.676153 492.694789 
L 433.663614 484.157008 
L 461.651075 478.417751 
L 489.638535 472.491254 
L 517.625996 467.308535 
L 545.613457 462.356244 
L 573.600918 459.051685 
L 601.588379 455.180646 
L 629.57584 451.658943 
L 657.5633 448.086238 
L 685.550761 445.601817 
L 713.538222 442.521295 
L 741.525683 441.125229 
L 769.513144 438.170007 
L 797.500604 436.416294 
L 825.488065 433.916033 
L 853.475526 433.029978 
L 881.462987 430.507484 
L 909.450448 429.049904 
L 937.437909 426.59077 
L 965.425369 425.792582 
" style="fill:none;stroke:#ff9408;stroke-dasharray:5.55,2.4;stroke-dashoffset:0;stroke-width:1.5;"/>
    <defs>
     <path d="M 0 -4.5 
L -1.010313 -1.390576 
L -4.279754 -1.390576 
L -1.634721 0.531153 
L -2.645034 3.640576 
L -0 1.718847 
L 2.645034 3.640576 
L 1.634721 0.531153 
L 4.279754 -1.390576 
L 1.010313 -1.390576 
z
" id="ma756380069" style="stroke:#000000;stroke-linejoin:bevel;"/>
    </defs>
    <g clip-path="url(#p59ccf811f0)">
     <use style="fill:#ff9408;stroke:#000000;stroke-linejoin:bevel;" x="153.789006" xlink:href="#ma756380069" y="945.552148"/>
     <use style="fill:#ff9408;stroke:#000000;stroke-linejoin:bevel;" x="181.776466" xlink:href="#ma756380069" y="662.007824"/>
     <use style="fill:#ff9408;stroke:#000000;stroke-linejoin:bevel;" x="209.763927" xlink:href="#ma756380069" y="607.413714"/>
     <use style="fill:#ff9408;stroke:#000000;stroke-linejoin:bevel;" x="237.751388" xlink:href="#ma756380069" y="574.310739"/>
     <use style="fill:#ff9408;stroke:#000000;stroke-linejoin:bevel;" x="265.738849" xlink:href="#ma756380069" y="552.140253"/>
     <use style="fill:#ff9408;stroke:#000000;stroke-linejoin:bevel;" x="293.72631" xlink:href="#ma756380069" y="535.846328"/>
     <use style="fill:#ff9408;stroke:#000000;stroke-linejoin:bevel;" x="321.713771" xlink:href="#ma756380069" y="521.509623"/>
     <use style="fill:#ff9408;stroke:#000000;stroke-linejoin:bevel;" x="349.701231" xlink:href="#ma756380069" y="510.605477"/>
     <use style="fill:#ff9408;stroke:#000000;stroke-linejoin:bevel;" x="377.688692" xlink:href="#ma756380069" y="500.159061"/>
     <use style="fill:#ff9408;stroke:#000000;stroke-linejoin:bevel;" x="405.676153" xlink:href="#ma756380069" y="492.694789"/>
     <use style="fill:#ff9408;stroke:#000000;stroke-linejoin:bevel;" x="433.663614" xlink:href="#ma756380069" y="484.157008"/>
     <use style="fill:#ff9408;stroke:#000000;stroke-linejoin:bevel;" x="461.651075" xlink:href="#ma756380069" y="478.417751"/>
     <use style="fill:#ff9408;stroke:#000000;stroke-linejoin:bevel;" x="489.638535" xlink:href="#ma756380069" y="472.491254"/>
     <use style="fill:#ff9408;stroke:#000000;stroke-linejoin:bevel;" x="517.625996" xlink:href="#ma756380069" y="467.308535"/>
     <use style="fill:#ff9408;stroke:#000000;stroke-linejoin:bevel;" x="545.613457" xlink:href="#ma756380069" y="462.356244"/>
     <use style="fill:#ff9408;stroke:#000000;stroke-linejoin:bevel;" x="573.600918" xlink:href="#ma756380069" y="459.051685"/>
     <use style="fill:#ff9408;stroke:#000000;stroke-linejoin:bevel;" x="601.588379" xlink:href="#ma756380069" y="455.180646"/>
     <use style="fill:#ff9408;stroke:#000000;stroke-linejoin:bevel;" x="629.57584" xlink:href="#ma756380069" y="451.658943"/>
     <use style="fill:#ff9408;stroke:#000000;stroke-linejoin:bevel;" x="657.5633" xlink:href="#ma756380069" y="448.086238"/>
     <use style="fill:#ff9408;stroke:#000000;stroke-linejoin:bevel;" x="685.550761" xlink:href="#ma756380069" y="445.601817"/>
     <use style="fill:#ff9408;stroke:#000000;stroke-linejoin:bevel;" x="713.538222" xlink:href="#ma756380069" y="442.521295"/>
     <use style="fill:#ff9408;stroke:#000000;stroke-linejoin:bevel;" x="741.525683" xlink:href="#ma756380069" y="441.125229"/>
     <use style="fill:#ff9408;stroke:#000000;stroke-linejoin:bevel;" x="769.513144" xlink:href="#ma756380069" y="438.170007"/>
     <use style="fill:#ff9408;stroke:#000000;stroke-linejoin:bevel;" x="797.500604" xlink:href="#ma756380069" y="436.416294"/>
     <use style="fill:#ff9408;stroke:#000000;stroke-linejoin:bevel;" x="825.488065" xlink:href="#ma756380069" y="433.916033"/>
     <use style="fill:#ff9408;stroke:#000000;stroke-linejoin:bevel;" x="853.475526" xlink:href="#ma756380069" y="433.029978"/>
     <use style="fill:#ff9408;stroke:#000000;stroke-linejoin:bevel;" x="881.462987" xlink:href="#ma756380069" y="430.507484"/>
     <use style="fill:#ff9408;stroke:#000000;stroke-linejoin:bevel;" x="909.450448" xlink:href="#ma756380069" y="429.049904"/>
     <use style="fill:#ff9408;stroke:#000000;stroke-linejoin:bevel;" x="937.437909" xlink:href="#ma756380069" y="426.59077"/>
     <use style="fill:#ff9408;stroke:#000000;stroke-linejoin:bevel;" x="965.425369" xlink:href="#ma756380069" y="425.792582"/>
    </g>
   </g>
   <g id="line2d_35">
    <path clip-path="url(#p59ccf811f0)" d="M 153.789006 934.898744 
L 181.776466 657.201575 
L 209.763927 608.357092 
L 237.751388 579.391243 
L 265.738849 559.1637 
L 293.72631 543.781188 
L 321.713771 531.525726 
L 349.701231 521.527665 
L 377.688692 512.530945 
L 405.676153 505.024196 
L 433.663614 498.643235 
L 461.651075 492.78017 
L 489.638535 487.386982 
L 517.625996 482.653257 
L 545.613457 478.165871 
L 573.600918 475.333961 
L 601.588379 471.449638 
L 629.57584 468.562252 
L 657.5633 464.752656 
L 685.550761 462.734064 
L 713.538222 460.288071 
L 741.525683 457.934989 
L 769.513144 455.587518 
L 797.500604 453.679168 
L 825.488065 452.322596 
L 853.475526 450.360333 
L 881.462987 448.514491 
L 909.450448 447.504911 
L 937.437909 445.357254 
L 965.425369 444.565742 
" style="fill:none;stroke:#ff81c0;stroke-dasharray:5.55,2.4;stroke-dashoffset:0;stroke-width:1.5;"/>
    <defs>
     <path d="M -4.5 -0 
L 4.5 4.5 
L 4.5 -4.5 
z
" id="ma396f87d9b" style="stroke:#000000;stroke-linejoin:miter;"/>
    </defs>
    <g clip-path="url(#p59ccf811f0)">
     <use style="fill:#ff81c0;stroke:#000000;stroke-linejoin:miter;" x="153.789006" xlink:href="#ma396f87d9b" y="934.898744"/>
     <use style="fill:#ff81c0;stroke:#000000;stroke-linejoin:miter;" x="181.776466" xlink:href="#ma396f87d9b" y="657.201575"/>
     <use style="fill:#ff81c0;stroke:#000000;stroke-linejoin:miter;" x="209.763927" xlink:href="#ma396f87d9b" y="608.357092"/>
     <use style="fill:#ff81c0;stroke:#000000;stroke-linejoin:miter;" x="237.751388" xlink:href="#ma396f87d9b" y="579.391243"/>
     <use style="fill:#ff81c0;stroke:#000000;stroke-linejoin:miter;" x="265.738849" xlink:href="#ma396f87d9b" y="559.1637"/>
     <use style="fill:#ff81c0;stroke:#000000;stroke-linejoin:miter;" x="293.72631" xlink:href="#ma396f87d9b" y="543.781188"/>
     <use style="fill:#ff81c0;stroke:#000000;stroke-linejoin:miter;" x="321.713771" xlink:href="#ma396f87d9b" y="531.525726"/>
     <use style="fill:#ff81c0;stroke:#000000;stroke-linejoin:miter;" x="349.701231" xlink:href="#ma396f87d9b" y="521.527665"/>
     <use style="fill:#ff81c0;stroke:#000000;stroke-linejoin:miter;" x="377.688692" xlink:href="#ma396f87d9b" y="512.530945"/>
     <use style="fill:#ff81c0;stroke:#000000;stroke-linejoin:miter;" x="405.676153" xlink:href="#ma396f87d9b" y="505.024196"/>
     <use style="fill:#ff81c0;stroke:#000000;stroke-linejoin:miter;" x="433.663614" xlink:href="#ma396f87d9b" y="498.643235"/>
     <use style="fill:#ff81c0;stroke:#000000;stroke-linejoin:miter;" x="461.651075" xlink:href="#ma396f87d9b" y="492.78017"/>
     <use style="fill:#ff81c0;stroke:#000000;stroke-linejoin:miter;" x="489.638535" xlink:href="#ma396f87d9b" y="487.386982"/>
     <use style="fill:#ff81c0;stroke:#000000;stroke-linejoin:miter;" x="517.625996" xlink:href="#ma396f87d9b" y="482.653257"/>
     <use style="fill:#ff81c0;stroke:#000000;stroke-linejoin:miter;" x="545.613457" xlink:href="#ma396f87d9b" y="478.165871"/>
     <use style="fill:#ff81c0;stroke:#000000;stroke-linejoin:miter;" x="573.600918" xlink:href="#ma396f87d9b" y="475.333961"/>
     <use style="fill:#ff81c0;stroke:#000000;stroke-linejoin:miter;" x="601.588379" xlink:href="#ma396f87d9b" y="471.449638"/>
     <use style="fill:#ff81c0;stroke:#000000;stroke-linejoin:miter;" x="629.57584" xlink:href="#ma396f87d9b" y="468.562252"/>
     <use style="fill:#ff81c0;stroke:#000000;stroke-linejoin:miter;" x="657.5633" xlink:href="#ma396f87d9b" y="464.752656"/>
     <use style="fill:#ff81c0;stroke:#000000;stroke-linejoin:miter;" x="685.550761" xlink:href="#ma396f87d9b" y="462.734064"/>
     <use style="fill:#ff81c0;stroke:#000000;stroke-linejoin:miter;" x="713.538222" xlink:href="#ma396f87d9b" y="460.288071"/>
     <use style="fill:#ff81c0;stroke:#000000;stroke-linejoin:miter;" x="741.525683" xlink:href="#ma396f87d9b" y="457.934989"/>
     <use style="fill:#ff81c0;stroke:#000000;stroke-linejoin:miter;" x="769.513144" xlink:href="#ma396f87d9b" y="455.587518"/>
     <use style="fill:#ff81c0;stroke:#000000;stroke-linejoin:miter;" x="797.500604" xlink:href="#ma396f87d9b" y="453.679168"/>
     <use style="fill:#ff81c0;stroke:#000000;stroke-linejoin:miter;" x="825.488065" xlink:href="#ma396f87d9b" y="452.322596"/>
     <use style="fill:#ff81c0;stroke:#000000;stroke-linejoin:miter;" x="853.475526" xlink:href="#ma396f87d9b" y="450.360333"/>
     <use style="fill:#ff81c0;stroke:#000000;stroke-linejoin:miter;" x="881.462987" xlink:href="#ma396f87d9b" y="448.514491"/>
     <use style="fill:#ff81c0;stroke:#000000;stroke-linejoin:miter;" x="909.450448" xlink:href="#ma396f87d9b" y="447.504911"/>
     <use style="fill:#ff81c0;stroke:#000000;stroke-linejoin:miter;" x="937.437909" xlink:href="#ma396f87d9b" y="445.357254"/>
     <use style="fill:#ff81c0;stroke:#000000;stroke-linejoin:miter;" x="965.425369" xlink:href="#ma396f87d9b" y="444.565742"/>
    </g>
   </g>
   <g id="patch_3">
    <path d="M 113.207188 1005.12 
L 113.207188 7.2 
" style="fill:none;stroke:#000000;stroke-linecap:square;stroke-linejoin:miter;stroke-width:0.8;"/>
   </g>
   <g id="patch_4">
    <path d="M 1006.007187 1005.12 
L 1006.007187 7.2 
" style="fill:none;stroke:#000000;stroke-linecap:square;stroke-linejoin:miter;stroke-width:0.8;"/>
   </g>
   <g id="patch_5">
    <path d="M 113.207188 1005.12 
L 1006.007187 1005.12 
" style="fill:none;stroke:#000000;stroke-linecap:square;stroke-linejoin:miter;stroke-width:0.8;"/>
   </g>
   <g id="patch_6">
    <path d="M 113.207188 7.2 
L 1006.007187 7.2 
" style="fill:none;stroke:#000000;stroke-linecap:square;stroke-linejoin:miter;stroke-width:0.8;"/>
   </g>
   <g id="legend_1">
    <g id="patch_7">
     <path d="M 140.507188 439.112812 
L 883.036719 439.112812 
Q 890.836719 439.112812 890.836719 431.312812 
L 890.836719 34.5 
Q 890.836719 26.7 883.036719 26.7 
L 140.507188 26.7 
Q 132.707188 26.7 132.707188 34.5 
L 132.707188 431.312812 
Q 132.707188 439.112812 140.507188 439.112812 
z
" style="fill:#ffffff;opacity:0.8;stroke:#cccccc;stroke-linejoin:miter;"/>
    </g>
    <g id="line2d_36">
     <path d="M 148.307188 58.283906 
L 226.307188 58.283906 
" style="fill:none;stroke:#fe0002;stroke-dasharray:5.55,2.4;stroke-dashoffset:0;stroke-width:1.5;"/>
    </g>
    <g id="line2d_37">
     <g>
      <use style="fill:#fe0002;stroke:#000000;" x="187.307188" xlink:href="#m019768bab7" y="58.283906"/>
     </g>
    </g>
    <g id="text_17">
     <!-- Pairing pointer updates -->
     <g transform="translate(257.507188 71.933906)scale(0.39 -0.39)">
      <defs>
       <path d="M 1259 4147 
L 1259 2394 
L 2053 2394 
Q 2494 2394 2734 2622 
Q 2975 2850 2975 3272 
Q 2975 3691 2734 3919 
Q 2494 4147 2053 4147 
L 1259 4147 
z
M 628 4666 
L 2053 4666 
Q 2838 4666 3239 4311 
Q 3641 3956 3641 3272 
Q 3641 2581 3239 2228 
Q 2838 1875 2053 1875 
L 1259 1875 
L 1259 0 
L 628 0 
L 628 4666 
z
" id="DejaVuSans-50" transform="scale(0.015625)"/>
      </defs>
      <use xlink:href="#DejaVuSans-50"/>
      <use x="55.802734" xlink:href="#DejaVuSans-61"/>
      <use x="117.082031" xlink:href="#DejaVuSans-69"/>
      <use x="144.865234" xlink:href="#DejaVuSans-72"/>
      <use x="185.978516" xlink:href="#DejaVuSans-69"/>
      <use x="213.761719" xlink:href="#DejaVuSans-6e"/>
      <use x="277.140625" xlink:href="#DejaVuSans-67"/>
      <use x="340.617188" xlink:href="#DejaVuSans-20"/>
      <use x="372.404297" xlink:href="#DejaVuSans-70"/>
      <use x="435.880859" xlink:href="#DejaVuSans-6f"/>
      <use x="497.0625" xlink:href="#DejaVuSans-69"/>
      <use x="524.845703" xlink:href="#DejaVuSans-6e"/>
      <use x="588.224609" xlink:href="#DejaVuSans-74"/>
      <use x="627.433594" xlink:href="#DejaVuSans-65"/>
      <use x="688.957031" xlink:href="#DejaVuSans-72"/>
      <use x="730.070312" xlink:href="#DejaVuSans-20"/>
      <use x="761.857422" xlink:href="#DejaVuSans-75"/>
      <use x="825.236328" xlink:href="#DejaVuSans-70"/>
      <use x="888.712891" xlink:href="#DejaVuSans-64"/>
      <use x="952.189453" xlink:href="#DejaVuSans-61"/>
      <use x="1013.46875" xlink:href="#DejaVuSans-74"/>
      <use x="1052.677734" xlink:href="#DejaVuSans-65"/>
      <use x="1114.201172" xlink:href="#DejaVuSans-73"/>
     </g>
    </g>
    <g id="line2d_38">
     <path d="M 148.307188 115.528594 
L 226.307188 115.528594 
" style="fill:none;stroke:#53fca1;stroke-dasharray:5.55,2.4;stroke-dashoffset:0;stroke-width:1.5;"/>
    </g>
    <g id="line2d_39">
     <g>
      <use style="fill:#53fca1;stroke:#000000;stroke-linejoin:miter;" x="187.307188" xlink:href="#m59b0979e36" y="115.528594"/>
     </g>
    </g>
    <g id="text_18">
     <!-- Smooth pointer updates -->
     <g transform="translate(257.507188 129.178594)scale(0.39 -0.39)">
      <defs>
       <path d="M 3425 4513 
L 3425 3897 
Q 3066 4069 2747 4153 
Q 2428 4238 2131 4238 
Q 1616 4238 1336 4038 
Q 1056 3838 1056 3469 
Q 1056 3159 1242 3001 
Q 1428 2844 1947 2747 
L 2328 2669 
Q 3034 2534 3370 2195 
Q 3706 1856 3706 1288 
Q 3706 609 3251 259 
Q 2797 -91 1919 -91 
Q 1588 -91 1214 -16 
Q 841 59 441 206 
L 441 856 
Q 825 641 1194 531 
Q 1563 422 1919 422 
Q 2459 422 2753 634 
Q 3047 847 3047 1241 
Q 3047 1584 2836 1778 
Q 2625 1972 2144 2069 
L 1759 2144 
Q 1053 2284 737 2584 
Q 422 2884 422 3419 
Q 422 4038 858 4394 
Q 1294 4750 2059 4750 
Q 2388 4750 2728 4690 
Q 3069 4631 3425 4513 
z
" id="DejaVuSans-53" transform="scale(0.015625)"/>
       <path d="M 3513 2113 
L 3513 0 
L 2938 0 
L 2938 2094 
Q 2938 2591 2744 2837 
Q 2550 3084 2163 3084 
Q 1697 3084 1428 2787 
Q 1159 2491 1159 1978 
L 1159 0 
L 581 0 
L 581 4863 
L 1159 4863 
L 1159 2956 
Q 1366 3272 1645 3428 
Q 1925 3584 2291 3584 
Q 2894 3584 3203 3211 
Q 3513 2838 3513 2113 
z
" id="DejaVuSans-68" transform="scale(0.015625)"/>
      </defs>
      <use xlink:href="#DejaVuSans-53"/>
      <use x="63.476562" xlink:href="#DejaVuSans-6d"/>
      <use x="160.888672" xlink:href="#DejaVuSans-6f"/>
      <use x="222.070312" xlink:href="#DejaVuSans-6f"/>
      <use x="283.251953" xlink:href="#DejaVuSans-74"/>
      <use x="322.460938" xlink:href="#DejaVuSans-68"/>
      <use x="385.839844" xlink:href="#DejaVuSans-20"/>
      <use x="417.626953" xlink:href="#DejaVuSans-70"/>
      <use x="481.103516" xlink:href="#DejaVuSans-6f"/>
      <use x="542.285156" xlink:href="#DejaVuSans-69"/>
      <use x="570.068359" xlink:href="#DejaVuSans-6e"/>
      <use x="633.447266" xlink:href="#DejaVuSans-74"/>
      <use x="672.65625" xlink:href="#DejaVuSans-65"/>
      <use x="734.179688" xlink:href="#DejaVuSans-72"/>
      <use x="775.292969" xlink:href="#DejaVuSans-20"/>
      <use x="807.080078" xlink:href="#DejaVuSans-75"/>
      <use x="870.458984" xlink:href="#DejaVuSans-70"/>
      <use x="933.935547" xlink:href="#DejaVuSans-64"/>
      <use x="997.412109" xlink:href="#DejaVuSans-61"/>
      <use x="1058.691406" xlink:href="#DejaVuSans-74"/>
      <use x="1097.900391" xlink:href="#DejaVuSans-65"/>
      <use x="1159.423828" xlink:href="#DejaVuSans-73"/>
     </g>
    </g>
    <g id="line2d_40">
     <path d="M 148.307188 172.773281 
L 226.307188 172.773281 
" style="fill:none;stroke:#0652ff;stroke-dasharray:5.55,2.4;stroke-dashoffset:0;stroke-width:1.5;"/>
    </g>
    <g id="line2d_41">
     <g>
      <use style="fill:#0652ff;stroke:#000000;stroke-linejoin:miter;" x="187.307188" xlink:href="#mc9d2a6f67f" y="172.773281"/>
     </g>
    </g>
    <g id="text_19">
     <!-- Slim pointer updates -->
     <g transform="translate(257.507188 186.423281)scale(0.39 -0.39)">
      <use xlink:href="#DejaVuSans-53"/>
      <use x="63.476562" xlink:href="#DejaVuSans-6c"/>
      <use x="91.259766" xlink:href="#DejaVuSans-69"/>
      <use x="119.042969" xlink:href="#DejaVuSans-6d"/>
      <use x="216.455078" xlink:href="#DejaVuSans-20"/>
      <use x="248.242188" xlink:href="#DejaVuSans-70"/>
      <use x="311.71875" xlink:href="#DejaVuSans-6f"/>
      <use x="372.900391" xlink:href="#DejaVuSans-69"/>
      <use x="400.683594" xlink:href="#DejaVuSans-6e"/>
      <use x="464.0625" xlink:href="#DejaVuSans-74"/>
      <use x="503.271484" xlink:href="#DejaVuSans-65"/>
      <use x="564.794922" xlink:href="#DejaVuSans-72"/>
      <use x="605.908203" xlink:href="#DejaVuSans-20"/>
      <use x="637.695312" xlink:href="#DejaVuSans-75"/>
      <use x="701.074219" xlink:href="#DejaVuSans-70"/>
      <use x="764.550781" xlink:href="#DejaVuSans-64"/>
      <use x="828.027344" xlink:href="#DejaVuSans-61"/>
      <use x="889.306641" xlink:href="#DejaVuSans-74"/>
      <use x="928.515625" xlink:href="#DejaVuSans-65"/>
      <use x="990.039062" xlink:href="#DejaVuSans-73"/>
     </g>
    </g>
    <g id="line2d_42">
     <path d="M 148.307188 230.017969 
L 226.307188 230.017969 
" style="fill:none;stroke:#ae7181;stroke-dasharray:5.55,2.4;stroke-dashoffset:0;stroke-width:1.5;"/>
    </g>
    <g id="line2d_43">
     <g>
      <use style="fill:#ae7181;stroke:#000000;stroke-linejoin:miter;" x="187.307188" xlink:href="#me3f0de41a0" y="230.017969"/>
     </g>
    </g>
    <g id="text_20">
     <!-- Pairing Lazy pointer updates -->
     <g transform="translate(257.507188 243.667969)scale(0.39 -0.39)">
      <use xlink:href="#DejaVuSans-50"/>
      <use x="55.802734" xlink:href="#DejaVuSans-61"/>
      <use x="117.082031" xlink:href="#DejaVuSans-69"/>
      <use x="144.865234" xlink:href="#DejaVuSans-72"/>
      <use x="185.978516" xlink:href="#DejaVuSans-69"/>
      <use x="213.761719" xlink:href="#DejaVuSans-6e"/>
      <use x="277.140625" xlink:href="#DejaVuSans-67"/>
      <use x="340.617188" xlink:href="#DejaVuSans-20"/>
      <use x="372.404297" xlink:href="#DejaVuSans-4c"/>
      <use x="428.117188" xlink:href="#DejaVuSans-61"/>
      <use x="489.396484" xlink:href="#DejaVuSans-7a"/>
      <use x="541.886719" xlink:href="#DejaVuSans-79"/>
      <use x="601.066406" xlink:href="#DejaVuSans-20"/>
      <use x="632.853516" xlink:href="#DejaVuSans-70"/>
      <use x="696.330078" xlink:href="#DejaVuSans-6f"/>
      <use x="757.511719" xlink:href="#DejaVuSans-69"/>
      <use x="785.294922" xlink:href="#DejaVuSans-6e"/>
      <use x="848.673828" xlink:href="#DejaVuSans-74"/>
      <use x="887.882812" xlink:href="#DejaVuSans-65"/>
      <use x="949.40625" xlink:href="#DejaVuSans-72"/>
      <use x="990.519531" xlink:href="#DejaVuSans-20"/>
      <use x="1022.306641" xlink:href="#DejaVuSans-75"/>
      <use x="1085.685547" xlink:href="#DejaVuSans-70"/>
      <use x="1149.162109" xlink:href="#DejaVuSans-64"/>
      <use x="1212.638672" xlink:href="#DejaVuSans-61"/>
      <use x="1273.917969" xlink:href="#DejaVuSans-74"/>
      <use x="1313.126953" xlink:href="#DejaVuSans-65"/>
      <use x="1374.650391" xlink:href="#DejaVuSans-73"/>
     </g>
    </g>
    <g id="line2d_44">
     <path d="M 148.307188 287.262656 
L 226.307188 287.262656 
" style="fill:none;stroke:#11875d;stroke-dasharray:5.55,2.4;stroke-dashoffset:0;stroke-width:1.5;"/>
    </g>
    <g id="line2d_45">
     <g>
      <use style="fill:#11875d;stroke:#000000;stroke-linejoin:miter;" x="187.307188" xlink:href="#m986310ddca" y="287.262656"/>
     </g>
    </g>
    <g id="text_21">
     <!-- Splay Tree pointer updates -->
     <g transform="translate(257.507188 300.912656)scale(0.39 -0.39)">
      <defs>
       <path d="M -19 4666 
L 3928 4666 
L 3928 4134 
L 2272 4134 
L 2272 0 
L 1638 0 
L 1638 4134 
L -19 4134 
L -19 4666 
z
" id="DejaVuSans-54" transform="scale(0.015625)"/>
      </defs>
      <use xlink:href="#DejaVuSans-53"/>
      <use x="63.476562" xlink:href="#DejaVuSans-70"/>
      <use x="126.953125" xlink:href="#DejaVuSans-6c"/>
      <use x="154.736328" xlink:href="#DejaVuSans-61"/>
      <use x="216.015625" xlink:href="#DejaVuSans-79"/>
      <use x="275.195312" xlink:href="#DejaVuSans-20"/>
      <use x="306.982422" xlink:href="#DejaVuSans-54"/>
      <use x="353.316406" xlink:href="#DejaVuSans-72"/>
      <use x="392.179688" xlink:href="#DejaVuSans-65"/>
      <use x="453.703125" xlink:href="#DejaVuSans-65"/>
      <use x="515.226562" xlink:href="#DejaVuSans-20"/>
      <use x="547.013672" xlink:href="#DejaVuSans-70"/>
      <use x="610.490234" xlink:href="#DejaVuSans-6f"/>
      <use x="671.671875" xlink:href="#DejaVuSans-69"/>
      <use x="699.455078" xlink:href="#DejaVuSans-6e"/>
      <use x="762.833984" xlink:href="#DejaVuSans-74"/>
      <use x="802.042969" xlink:href="#DejaVuSans-65"/>
      <use x="863.566406" xlink:href="#DejaVuSans-72"/>
      <use x="904.679688" xlink:href="#DejaVuSans-20"/>
      <use x="936.466797" xlink:href="#DejaVuSans-75"/>
      <use x="999.845703" xlink:href="#DejaVuSans-70"/>
      <use x="1063.322266" xlink:href="#DejaVuSans-64"/>
      <use x="1126.798828" xlink:href="#DejaVuSans-61"/>
      <use x="1188.078125" xlink:href="#DejaVuSans-74"/>
      <use x="1227.287109" xlink:href="#DejaVuSans-65"/>
      <use x="1288.810547" xlink:href="#DejaVuSans-73"/>
     </g>
    </g>
    <g id="line2d_46">
     <path d="M 148.307188 344.507344 
L 226.307188 344.507344 
" style="fill:none;stroke:#ff9408;stroke-dasharray:5.55,2.4;stroke-dashoffset:0;stroke-width:1.5;"/>
    </g>
    <g id="line2d_47">
     <g>
      <use style="fill:#ff9408;stroke:#000000;stroke-linejoin:bevel;" x="187.307188" xlink:href="#ma756380069" y="344.507344"/>
     </g>
    </g>
    <g id="text_22">
     <!-- Pairing Slim pointer updates -->
     <g transform="translate(257.507188 358.157344)scale(0.39 -0.39)">
      <use xlink:href="#DejaVuSans-50"/>
      <use x="55.802734" xlink:href="#DejaVuSans-61"/>
      <use x="117.082031" xlink:href="#DejaVuSans-69"/>
      <use x="144.865234" xlink:href="#DejaVuSans-72"/>
      <use x="185.978516" xlink:href="#DejaVuSans-69"/>
      <use x="213.761719" xlink:href="#DejaVuSans-6e"/>
      <use x="277.140625" xlink:href="#DejaVuSans-67"/>
      <use x="340.617188" xlink:href="#DejaVuSans-20"/>
      <use x="372.404297" xlink:href="#DejaVuSans-53"/>
      <use x="435.880859" xlink:href="#DejaVuSans-6c"/>
      <use x="463.664062" xlink:href="#DejaVuSans-69"/>
      <use x="491.447266" xlink:href="#DejaVuSans-6d"/>
      <use x="588.859375" xlink:href="#DejaVuSans-20"/>
      <use x="620.646484" xlink:href="#DejaVuSans-70"/>
      <use x="684.123047" xlink:href="#DejaVuSans-6f"/>
      <use x="745.304688" xlink:href="#DejaVuSans-69"/>
      <use x="773.087891" xlink:href="#DejaVuSans-6e"/>
      <use x="836.466797" xlink:href="#DejaVuSans-74"/>
      <use x="875.675781" xlink:href="#DejaVuSans-65"/>
      <use x="937.199219" xlink:href="#DejaVuSans-72"/>
      <use x="978.3125" xlink:href="#DejaVuSans-20"/>
      <use x="1010.099609" xlink:href="#DejaVuSans-75"/>
      <use x="1073.478516" xlink:href="#DejaVuSans-70"/>
      <use x="1136.955078" xlink:href="#DejaVuSans-64"/>
      <use x="1200.431641" xlink:href="#DejaVuSans-61"/>
      <use x="1261.710938" xlink:href="#DejaVuSans-74"/>
      <use x="1300.919922" xlink:href="#DejaVuSans-65"/>
      <use x="1362.443359" xlink:href="#DejaVuSans-73"/>
     </g>
    </g>
    <g id="line2d_48">
     <path d="M 148.307188 401.752031 
L 226.307188 401.752031 
" style="fill:none;stroke:#ff81c0;stroke-dasharray:5.55,2.4;stroke-dashoffset:0;stroke-width:1.5;"/>
    </g>
    <g id="line2d_49">
     <g>
      <use style="fill:#ff81c0;stroke:#000000;stroke-linejoin:miter;" x="187.307188" xlink:href="#ma396f87d9b" y="401.752031"/>
     </g>
    </g>
    <g id="text_23">
     <!-- Pairing Smooth pointer updates -->
     <g transform="translate(257.507188 415.402031)scale(0.39 -0.39)">
      <use xlink:href="#DejaVuSans-50"/>
      <use x="55.802734" xlink:href="#DejaVuSans-61"/>
      <use x="117.082031" xlink:href="#DejaVuSans-69"/>
      <use x="144.865234" xlink:href="#DejaVuSans-72"/>
      <use x="185.978516" xlink:href="#DejaVuSans-69"/>
      <use x="213.761719" xlink:href="#DejaVuSans-6e"/>
      <use x="277.140625" xlink:href="#DejaVuSans-67"/>
      <use x="340.617188" xlink:href="#DejaVuSans-20"/>
      <use x="372.404297" xlink:href="#DejaVuSans-53"/>
      <use x="435.880859" xlink:href="#DejaVuSans-6d"/>
      <use x="533.292969" xlink:href="#DejaVuSans-6f"/>
      <use x="594.474609" xlink:href="#DejaVuSans-6f"/>
      <use x="655.65625" xlink:href="#DejaVuSans-74"/>
      <use x="694.865234" xlink:href="#DejaVuSans-68"/>
      <use x="758.244141" xlink:href="#DejaVuSans-20"/>
      <use x="790.03125" xlink:href="#DejaVuSans-70"/>
      <use x="853.507812" xlink:href="#DejaVuSans-6f"/>
      <use x="914.689453" xlink:href="#DejaVuSans-69"/>
      <use x="942.472656" xlink:href="#DejaVuSans-6e"/>
      <use x="1005.851562" xlink:href="#DejaVuSans-74"/>
      <use x="1045.060547" xlink:href="#DejaVuSans-65"/>
      <use x="1106.583984" xlink:href="#DejaVuSans-72"/>
      <use x="1147.697266" xlink:href="#DejaVuSans-20"/>
      <use x="1179.484375" xlink:href="#DejaVuSans-75"/>
      <use x="1242.863281" xlink:href="#DejaVuSans-70"/>
      <use x="1306.339844" xlink:href="#DejaVuSans-64"/>
      <use x="1369.816406" xlink:href="#DejaVuSans-61"/>
      <use x="1431.095703" xlink:href="#DejaVuSans-74"/>
      <use x="1470.304688" xlink:href="#DejaVuSans-65"/>
      <use x="1531.828125" xlink:href="#DejaVuSans-73"/>
     </g>
    </g>
   </g>
  </g>
 </g>
 <defs>
  <clipPath id="p59ccf811f0">
   <rect height="997.92" width="892.8" x="113.207188" y="7.2"/>
  </clipPath>
 </defs>
</svg>
